<?xml version="1.0" encoding="UTF-8" standalone="no"?>
<!DOCTYPE svg PUBLIC "-//W3C//DTD SVG 1.1//EN"
 "http://www.w3.org/Graphics/SVG/1.1/DTD/svg11.dtd">
<!-- Generated by graphviz version 2.26.3 (20100126.1600)
 -->
<!-- Title: G Pages: 1 -->
<svg width="2220pt" height="129pt"
 viewBox="0.00 0.00 2220.00 129.41" xmlns="http://www.w3.org/2000/svg" xmlns:xlink="http://www.w3.org/1999/xlink">
<g id="graph1" class="graph" transform="scale(1 1) rotate(0) translate(4 125.409)">
<title>G</title>
<polygon fill="white" stroke="white" points="-4,5 -4,-125.409 2217,-125.409 2217,5 -4,5"/>
<!-- Node1 -->
<g id="node1" class="node"><title>Node1</title>
<polygon fill="#bfbfbf" stroke="black" points="0,-60.5 0,-81.5 292,-81.5 292,-60.5 0,-60.5"/>
<text text-anchor="middle" x="146" y="-68.5" font-family="Helvetica,sans-Serif" font-size="10.00">ZendDbSchema_Db_Schema_Table_AbstractDefinition\refresh</text>
</g>
<!-- Node2 -->
<g id="node3" class="node"><title>Node2</title>
<a xlink:href="classZendDbSchema__Db__Schema__Table__AbstractDefinition.html#a224b6a0c1df1d6ed40e03657782ef6fc" target="_top" xlink:title="ZendDbSchema_Db_Schema_Table_AbstractDefinition\\getTable">
<polygon fill="white" stroke="black" points="652.5,-99.5 652.5,-120.5 951.5,-120.5 951.5,-99.5 652.5,-99.5"/>
<text text-anchor="middle" x="802" y="-107.5" font-family="Helvetica,sans-Serif" font-size="10.00">ZendDbSchema_Db_Schema_Table_AbstractDefinition\getTable</text>
</a>
</g>
<!-- Node1&#45;&gt;Node2 -->
<g id="edge2" class="edge"><title>Node1&#45;&gt;Node2</title>
<path fill="none" stroke="midnightblue" d="M182.907,-81.5779C219.403,-91.4499 277.023,-105.464 328,-111 432.187,-122.314 550.017,-122.124 642.132,-119.076"/>
<polygon fill="midnightblue" stroke="midnightblue" points="642.508,-122.565 652.381,-118.721 642.266,-115.569 642.508,-122.565"/>
</g>
<!-- Node3 -->
<g id="node5" class="node"><title>Node3</title>
<a xlink:href="classZendDbSchema__Db__Schema__Table__AbstractDefinition.html#a031f81b621cab3cbe0e035041b7e1257" target="_top" xlink:title="ZendDbSchema_Db_Schema_Table_AbstractDefinition\\reload">
<polygon fill="white" stroke="black" points="328,-80.5 328,-101.5 616,-101.5 616,-80.5 328,-80.5"/>
<text text-anchor="middle" x="472" y="-88.5" font-family="Helvetica,sans-Serif" font-size="10.00">ZendDbSchema_Db_Schema_Table_AbstractDefinition\reload</text>
</a>
</g>
<!-- Node1&#45;&gt;Node3 -->
<g id="edge4" class="edge"><title>Node1&#45;&gt;Node3</title>
<path fill="none" stroke="midnightblue" d="M292.312,-79.9762C300.828,-80.4987 309.406,-81.0249 317.951,-81.5491"/>
<polygon fill="midnightblue" stroke="midnightblue" points="317.765,-85.0442 327.961,-82.1632 318.194,-78.0574 317.765,-85.0442"/>
</g>
<!-- Node4 -->
<g id="node8" class="node"><title>Node4</title>
<a xlink:href="classZendDbSchema__Db__Schema__AbstractSchema.html#acd81590f02c831ff4c4a442c5cf47074" target="_top" xlink:title="ZendDbSchema_Db_Schema_AbstractSchema\\setFromArray">
<polygon fill="white" stroke="black" points="328.5,-40.5 328.5,-61.5 615.5,-61.5 615.5,-40.5 328.5,-40.5"/>
<text text-anchor="middle" x="472" y="-48.5" font-family="Helvetica,sans-Serif" font-size="10.00">ZendDbSchema_Db_Schema_AbstractSchema\setFromArray</text>
</a>
</g>
<!-- Node1&#45;&gt;Node4 -->
<g id="edge8" class="edge"><title>Node1&#45;&gt;Node4</title>
<path fill="none" stroke="midnightblue" d="M292.312,-62.0238C300.95,-61.4939 309.651,-60.9601 318.317,-60.4284"/>
<polygon fill="midnightblue" stroke="midnightblue" points="318.701,-63.9115 328.468,-59.8057 318.272,-56.9247 318.701,-63.9115"/>
</g>
<!-- Node12 -->
<g id="node24" class="node"><title>Node12</title>
<a xlink:href="classZendDbSchema__Db__Schema__AbstractSchema.html#a219012c80be57ace4b1db43a9c48eb3d" target="_top" xlink:title="ZendDbSchema_Db_Schema_AbstractSchema\\getSchema">
<polygon fill="white" stroke="black" points="333.5,-0.5 333.5,-21.5 610.5,-21.5 610.5,-0.5 333.5,-0.5"/>
<text text-anchor="middle" x="472" y="-8.5" font-family="Helvetica,sans-Serif" font-size="10.00">ZendDbSchema_Db_Schema_AbstractSchema\getSchema</text>
</a>
</g>
<!-- Node1&#45;&gt;Node12 -->
<g id="edge24" class="edge"><title>Node1&#45;&gt;Node12</title>
<path fill="none" stroke="midnightblue" d="M189.569,-60.4175C226.32,-51.734 280.392,-39.5243 328,-31 344.048,-28.1266 361.166,-25.4299 377.791,-23.0037"/>
<polygon fill="midnightblue" stroke="midnightblue" points="378.664,-26.4143 388.065,-21.5288 377.669,-19.4853 378.664,-26.4143"/>
</g>
<!-- Node3&#45;&gt;Node2 -->
<g id="edge6" class="edge"><title>Node3&#45;&gt;Node2</title>
<path fill="none" stroke="midnightblue" d="M616.263,-99.306C624.864,-99.8013 633.542,-100.301 642.2,-100.799"/>
<polygon fill="midnightblue" stroke="midnightblue" points="642.165,-104.303 652.35,-101.384 642.568,-97.3147 642.165,-104.303"/>
</g>
<!-- Node5 -->
<g id="node10" class="node"><title>Node5</title>
<a xlink:href="classZendDbSchema__Db__Schema__AbstractSchema.html#ab4282a1fd6f4d9f23d01de8328072c71" target="_top" xlink:title="ZendDbSchema_Db_Schema_AbstractSchema\\__set">
<polygon fill="white" stroke="black" points="676.5,-40.5 676.5,-61.5 927.5,-61.5 927.5,-40.5 676.5,-40.5"/>
<text text-anchor="middle" x="802" y="-48.5" font-family="Helvetica,sans-Serif" font-size="10.00">ZendDbSchema_Db_Schema_AbstractSchema\__set</text>
</a>
</g>
<!-- Node4&#45;&gt;Node5 -->
<g id="edge10" class="edge"><title>Node4&#45;&gt;Node5</title>
<path fill="none" stroke="midnightblue" d="M615.783,-51C632.468,-51 649.447,-51 666.023,-51"/>
<polygon fill="midnightblue" stroke="midnightblue" points="666.285,-54.5001 676.285,-51 666.285,-47.5001 666.285,-54.5001"/>
</g>
<!-- Node6 -->
<g id="node12" class="node"><title>Node6</title>
<a xlink:href="classZendDbSchema__Db__Schema__AbstractSchema.html#afda46eab0c365f4c9a743b7185c51d6c" target="_top" xlink:title="ZendDbSchema_Db_Schema_AbstractSchema\\getValidator">
<polygon fill="white" stroke="black" points="988.5,-40.5 988.5,-61.5 1267.5,-61.5 1267.5,-40.5 988.5,-40.5"/>
<text text-anchor="middle" x="1128" y="-48.5" font-family="Helvetica,sans-Serif" font-size="10.00">ZendDbSchema_Db_Schema_AbstractSchema\getValidator</text>
</a>
</g>
<!-- Node5&#45;&gt;Node6 -->
<g id="edge12" class="edge"><title>Node5&#45;&gt;Node6</title>
<path fill="none" stroke="midnightblue" d="M927.574,-51C944.061,-51 961.089,-51 977.932,-51"/>
<polygon fill="midnightblue" stroke="midnightblue" points="978.388,-54.5001 988.388,-51 978.388,-47.5001 978.388,-54.5001"/>
</g>
<!-- Node7 -->
<g id="node14" class="node"><title>Node7</title>
<a xlink:href="classZendDbSchema__Db__Schema__AbstractSchema.html#a47d95912f6bf6d26d023597887dafacb" target="_top" xlink:title="ZendDbSchema_Db_Schema_AbstractSchema\\getAdapter">
<polygon fill="white" stroke="black" points="1304.5,-40.5 1304.5,-61.5 1579.5,-61.5 1579.5,-40.5 1304.5,-40.5"/>
<text text-anchor="middle" x="1442" y="-48.5" font-family="Helvetica,sans-Serif" font-size="10.00">ZendDbSchema_Db_Schema_AbstractSchema\getAdapter</text>
</a>
</g>
<!-- Node6&#45;&gt;Node7 -->
<g id="edge14" class="edge"><title>Node6&#45;&gt;Node7</title>
<path fill="none" stroke="midnightblue" d="M1267.55,-51C1276.27,-51 1285.05,-51 1293.8,-51"/>
<polygon fill="midnightblue" stroke="midnightblue" points="1294.04,-54.5001 1304.04,-51 1294.04,-47.5001 1294.04,-54.5001"/>
</g>
<!-- Node8 -->
<g id="node16" class="node"><title>Node8</title>
<a xlink:href="classZendDbSchema__Db__Schema__AbstractSchema.html#a6349649e5e09d67a5b5e0abe96298db8" target="_top" xlink:title="ZendDbSchema_Db_Schema_AbstractSchema\\setAdapter">
<polygon fill="white" stroke="black" points="1616.5,-40.5 1616.5,-61.5 1891.5,-61.5 1891.5,-40.5 1616.5,-40.5"/>
<text text-anchor="middle" x="1754" y="-48.5" font-family="Helvetica,sans-Serif" font-size="10.00">ZendDbSchema_Db_Schema_AbstractSchema\setAdapter</text>
</a>
</g>
<!-- Node7&#45;&gt;Node8 -->
<g id="edge16" class="edge"><title>Node7&#45;&gt;Node8</title>
<path fill="none" stroke="midnightblue" d="M1579.76,-51C1588.44,-51 1597.2,-51 1605.92,-51"/>
<polygon fill="midnightblue" stroke="midnightblue" points="1606.14,-54.5001 1616.14,-51 1606.14,-47.5001 1606.14,-54.5001"/>
</g>
<!-- Node9 -->
<g id="node18" class="node"><title>Node9</title>
<a xlink:href="classZendDbSchema__Db__Schema__AbstractSchema.html#a53a1974dbc8822792a8d7b9c618d3a02" target="_top" xlink:title="ZendDbSchema_Db_Schema_AbstractSchema\\setGenerator">
<polygon fill="white" stroke="black" points="1928,-80.5 1928,-101.5 2212,-101.5 2212,-80.5 1928,-80.5"/>
<text text-anchor="middle" x="2070" y="-88.5" font-family="Helvetica,sans-Serif" font-size="10.00">ZendDbSchema_Db_Schema_AbstractSchema\setGenerator</text>
</a>
</g>
<!-- Node8&#45;&gt;Node9 -->
<g id="edge18" class="edge"><title>Node8&#45;&gt;Node9</title>
<path fill="none" stroke="midnightblue" d="M1837.03,-61.5095C1879.95,-66.9425 1932.48,-73.5919 1976.78,-79.2006"/>
<polygon fill="midnightblue" stroke="midnightblue" points="1976.62,-82.7077 1986.98,-80.4913 1977.5,-75.7631 1976.62,-82.7077"/>
</g>
<!-- Node10 -->
<g id="node20" class="node"><title>Node10</title>
<a xlink:href="classZendDbSchema__Db__Schema__AbstractSchema.html#aa0e6c9f8d58702dc41d988f064f62698" target="_top" xlink:title="ZendDbSchema_Db_Schema_AbstractSchema\\setParser">
<polygon fill="white" stroke="black" points="1935.5,-40.5 1935.5,-61.5 2204.5,-61.5 2204.5,-40.5 1935.5,-40.5"/>
<text text-anchor="middle" x="2070" y="-48.5" font-family="Helvetica,sans-Serif" font-size="10.00">ZendDbSchema_Db_Schema_AbstractSchema\setParser</text>
</a>
</g>
<!-- Node8&#45;&gt;Node10 -->
<g id="edge20" class="edge"><title>Node8&#45;&gt;Node10</title>
<path fill="none" stroke="midnightblue" d="M1891.68,-51C1902.76,-51 1913.98,-51 1925.1,-51"/>
<polygon fill="midnightblue" stroke="midnightblue" points="1925.29,-54.5001 1935.29,-51 1925.29,-47.5001 1925.29,-54.5001"/>
</g>
<!-- Node11 -->
<g id="node22" class="node"><title>Node11</title>
<a xlink:href="classZendDbSchema__Db__Schema__AbstractSchema.html#ac0161e2c24dafba8433fb86205a147fe" target="_top" xlink:title="ZendDbSchema_Db_Schema_AbstractSchema\\setValidator">
<polygon fill="white" stroke="black" points="1930.5,-0.5 1930.5,-21.5 2209.5,-21.5 2209.5,-0.5 1930.5,-0.5"/>
<text text-anchor="middle" x="2070" y="-8.5" font-family="Helvetica,sans-Serif" font-size="10.00">ZendDbSchema_Db_Schema_AbstractSchema\setValidator</text>
</a>
</g>
<!-- Node8&#45;&gt;Node11 -->
<g id="edge22" class="edge"><title>Node8&#45;&gt;Node11</title>
<path fill="none" stroke="midnightblue" d="M1837.03,-40.4905C1879.95,-35.0575 1932.48,-28.4081 1976.78,-22.7994"/>
<polygon fill="midnightblue" stroke="midnightblue" points="1977.5,-26.2369 1986.98,-21.5087 1976.62,-19.2923 1977.5,-26.2369"/>
</g>
</g>
</svg>
