<?xml version="1.0" encoding="UTF-8" standalone="no"?>
<!DOCTYPE svg PUBLIC "-//W3C//DTD SVG 1.1//EN"
 "http://www.w3.org/Graphics/SVG/1.1/DTD/svg11.dtd">
<!-- Generated by graphviz version 2.26.3 (20100126.1600)
 -->
<!-- Title: G Pages: 1 -->
<svg width="1554pt" height="150pt"
 viewBox="0.00 0.00 1554.00 150.00" xmlns="http://www.w3.org/2000/svg" xmlns:xlink="http://www.w3.org/1999/xlink">
<g id="graph1" class="graph" transform="scale(1 1) rotate(0) translate(4 146)">
<title>G</title>
<polygon fill="white" stroke="white" points="-4,5 -4,-146 1551,-146 1551,5 -4,5"/>
<!-- Node1 -->
<g id="node1" class="node"><title>Node1</title>
<polygon fill="#bfbfbf" stroke="black" points="0,-99.5 0,-120.5 290,-120.5 290,-99.5 0,-99.5"/>
<text text-anchor="middle" x="145" y="-107.5" font-family="Helvetica,sans-Serif" font-size="10.00">ZendDbSchema_Db_Schema_Table_Manager_Column\refresh</text>
</g>
<!-- Node2 -->
<g id="node3" class="node"><title>Node2</title>
<a xlink:href="classZendDbSchema__Db__Schema__Table__Manager__Column.html#a37d284cbaad16050989650cd4c1c6bbe" target="_top" xlink:title="ZendDbSchema_Db_Schema_Table_Manager_Column\\_getItemClass">
<polygon fill="white" stroke="black" points="638,-120.5 638,-141.5 962,-141.5 962,-120.5 638,-120.5"/>
<text text-anchor="middle" x="800" y="-128.5" font-family="Helvetica,sans-Serif" font-size="10.00">ZendDbSchema_Db_Schema_Table_Manager_Column\_getItemClass</text>
</a>
</g>
<!-- Node1&#45;&gt;Node2 -->
<g id="edge2" class="edge"><title>Node1&#45;&gt;Node2</title>
<path fill="none" stroke="midnightblue" d="M290.366,-114.661C390.042,-117.856 522.722,-122.11 627.715,-125.476"/>
<polygon fill="midnightblue" stroke="midnightblue" points="627.681,-128.977 637.788,-125.799 627.905,-121.981 627.681,-128.977"/>
</g>
<!-- Node3 -->
<g id="node5" class="node"><title>Node3</title>
<a xlink:href="classZendDbSchema__Db__Schema__Table__Manager__Column.html#a1265f7c88df7401761b8e5dde4e94da1" target="_top" xlink:title="ZendDbSchema_Db_Schema_Table_Manager_Column\\add">
<polygon fill="white" stroke="black" points="326,-80.5 326,-101.5 602,-101.5 602,-80.5 326,-80.5"/>
<text text-anchor="middle" x="464" y="-88.5" font-family="Helvetica,sans-Serif" font-size="10.00">ZendDbSchema_Db_Schema_Table_Manager_Column\add</text>
</a>
</g>
<!-- Node1&#45;&gt;Node3 -->
<g id="edge4" class="edge"><title>Node1&#45;&gt;Node3</title>
<path fill="none" stroke="midnightblue" d="M290.032,-101.362C298.549,-100.854 307.122,-100.344 315.652,-99.8358"/>
<polygon fill="midnightblue" stroke="midnightblue" points="315.866,-103.329 325.64,-99.2409 315.45,-96.3417 315.866,-103.329"/>
</g>
<!-- Node3&#45;&gt;Node2 -->
<g id="edge6" class="edge"><title>Node3&#45;&gt;Node2</title>
<path fill="none" stroke="midnightblue" d="M552.28,-101.51C598.206,-106.977 654.478,-113.676 701.777,-119.307"/>
<polygon fill="midnightblue" stroke="midnightblue" points="701.383,-122.785 711.727,-120.491 702.211,-115.834 701.383,-122.785"/>
</g>
<!-- Node4 -->
<g id="node8" class="node"><title>Node4</title>
<a xlink:href="classZendDbSchema__Db__Schema__AbstractSchema.html#a55787c21deddba427842809d589c2df6" target="_top" xlink:title="ZendDbSchema_Db_Schema_AbstractSchema\\getName">
<polygon fill="white" stroke="black" points="666.5,-80.5 666.5,-101.5 933.5,-101.5 933.5,-80.5 666.5,-80.5"/>
<text text-anchor="middle" x="800" y="-88.5" font-family="Helvetica,sans-Serif" font-size="10.00">ZendDbSchema_Db_Schema_AbstractSchema\getName</text>
</a>
</g>
<!-- Node3&#45;&gt;Node4 -->
<g id="edge8" class="edge"><title>Node3&#45;&gt;Node4</title>
<path fill="none" stroke="midnightblue" d="M602.119,-91C619.98,-91 638.308,-91 656.257,-91"/>
<polygon fill="midnightblue" stroke="midnightblue" points="656.479,-94.5001 666.479,-91 656.479,-87.5001 656.479,-94.5001"/>
</g>
<!-- Node7 -->
<g id="node14" class="node"><title>Node7</title>
<a xlink:href="classZendDbSchema__Db__Schema__Table__Manager__AbstractManager.html#ac96e8e5950ad6ff3387a51340d17e719" target="_top" xlink:title="ZendDbSchema_Db_Schema_Table_Manager_AbstractManager\\has">
<polygon fill="white" stroke="black" points="641.5,-40.5 641.5,-61.5 958.5,-61.5 958.5,-40.5 641.5,-40.5"/>
<text text-anchor="middle" x="800" y="-48.5" font-family="Helvetica,sans-Serif" font-size="10.00">ZendDbSchema_Db_Schema_Table_Manager_AbstractManager\has</text>
</a>
</g>
<!-- Node3&#45;&gt;Node7 -->
<g id="edge14" class="edge"><title>Node3&#45;&gt;Node7</title>
<path fill="none" stroke="midnightblue" d="M552.28,-80.4905C598.206,-75.0231 654.478,-68.324 701.777,-62.6932"/>
<polygon fill="midnightblue" stroke="midnightblue" points="702.211,-66.1664 711.727,-61.5087 701.383,-59.2155 702.211,-66.1664"/>
</g>
<!-- Node8 -->
<g id="node16" class="node"><title>Node8</title>
<a xlink:href="classZendDbSchema__Db__Schema__AbstractSchema.html#adacb1417b461310c5c87f72c459c1985" target="_top" xlink:title="ZendDbSchema_Db_Schema_AbstractSchema\\getOriginName">
<polygon fill="white" stroke="black" points="653.5,-0.5 653.5,-21.5 946.5,-21.5 946.5,-0.5 653.5,-0.5"/>
<text text-anchor="middle" x="800" y="-8.5" font-family="Helvetica,sans-Serif" font-size="10.00">ZendDbSchema_Db_Schema_AbstractSchema\getOriginName</text>
</a>
</g>
<!-- Node3&#45;&gt;Node8 -->
<g id="edge16" class="edge"><title>Node3&#45;&gt;Node8</title>
<path fill="none" stroke="midnightblue" d="M489.16,-80.4515C522.565,-66.8837 583.677,-43.5733 638,-31 651.219,-27.9405 665.16,-25.3258 679.09,-23.0966"/>
<polygon fill="midnightblue" stroke="midnightblue" points="679.868,-26.5182 689.221,-21.5407 678.806,-19.5993 679.868,-26.5182"/>
</g>
<!-- Node5 -->
<g id="node10" class="node"><title>Node5</title>
<a xlink:href="classZendDbSchema__Db__Schema__AbstractSchema.html#a54d32c6f15463eaad2321a9f0e7225d7" target="_top" xlink:title="ZendDbSchema_Db_Schema_AbstractSchema\\__get">
<polygon fill="white" stroke="black" points="998.5,-40.5 998.5,-61.5 1249.5,-61.5 1249.5,-40.5 998.5,-40.5"/>
<text text-anchor="middle" x="1124" y="-48.5" font-family="Helvetica,sans-Serif" font-size="10.00">ZendDbSchema_Db_Schema_AbstractSchema\__get</text>
</a>
</g>
<!-- Node4&#45;&gt;Node5 -->
<g id="edge10" class="edge"><title>Node4&#45;&gt;Node5</title>
<path fill="none" stroke="midnightblue" d="M885.127,-80.4905C929.227,-75.046 983.221,-68.3801 1028.71,-62.764"/>
<polygon fill="midnightblue" stroke="midnightblue" points="1029.38,-66.2077 1038.88,-61.5087 1028.53,-59.2604 1029.38,-66.2077"/>
</g>
<!-- Node6 -->
<g id="node12" class="node"><title>Node6</title>
<a xlink:href="classZendDbSchema__Db__Schema__AbstractSchema.html#ac4e121ba7932163eb1950fabe06fb9db" target="_top" xlink:title="ZendDbSchema_Db_Schema_AbstractSchema\\__isset">
<polygon fill="white" stroke="black" points="1286.5,-40.5 1286.5,-61.5 1545.5,-61.5 1545.5,-40.5 1286.5,-40.5"/>
<text text-anchor="middle" x="1416" y="-48.5" font-family="Helvetica,sans-Serif" font-size="10.00">ZendDbSchema_Db_Schema_AbstractSchema\__isset</text>
</a>
</g>
<!-- Node5&#45;&gt;Node6 -->
<g id="edge12" class="edge"><title>Node5&#45;&gt;Node6</title>
<path fill="none" stroke="midnightblue" d="M1249.53,-51C1258.4,-51 1267.38,-51 1276.32,-51"/>
<polygon fill="midnightblue" stroke="midnightblue" points="1276.4,-54.5001 1286.4,-51 1276.4,-47.5001 1276.4,-54.5001"/>
</g>
<!-- Node8&#45;&gt;Node5 -->
<g id="edge18" class="edge"><title>Node8&#45;&gt;Node5</title>
<path fill="none" stroke="midnightblue" d="M885.127,-21.5095C929.227,-26.954 983.221,-33.6199 1028.71,-39.236"/>
<polygon fill="midnightblue" stroke="midnightblue" points="1028.53,-42.7396 1038.88,-40.4913 1029.38,-35.7923 1028.53,-42.7396"/>
</g>
</g>
</svg>
