<?xml version="1.0" encoding="UTF-8" standalone="no"?>
<!DOCTYPE svg PUBLIC "-//W3C//DTD SVG 1.1//EN"
 "http://www.w3.org/Graphics/SVG/1.1/DTD/svg11.dtd">
<!-- Generated by graphviz version 2.26.3 (20100126.1600)
 -->
<!-- Title: G Pages: 1 -->
<svg width="1312pt" height="303pt"
 viewBox="0.00 0.00 1312.00 303.24" xmlns="http://www.w3.org/2000/svg" xmlns:xlink="http://www.w3.org/1999/xlink">
<g id="graph1" class="graph" transform="scale(1 1) rotate(0) translate(4 299.242)">
<title>G</title>
<polygon fill="white" stroke="white" points="-4,5 -4,-299.242 1309,-299.242 1309,5 -4,5"/>
<!-- Node1 -->
<g id="node1" class="node"><title>Node1</title>
<polygon fill="#bfbfbf" stroke="black" points="0,-156 0,-190 146,-190 146,-156 0,-156"/>
<text text-anchor="start" x="8" y="-177" font-family="Helvetica,sans-Serif" font-size="10.00">ZendDbSchema_Db_Schema</text>
<text text-anchor="middle" x="73" y="-164" font-family="Helvetica,sans-Serif" font-size="10.00">_AbstractEntity\delete</text>
</g>
<!-- Node2 -->
<g id="node3" class="node"><title>Node2</title>
<a xlink:href="classZendDbSchema__Db__Schema__AbstractSchema.html#a1680a8fd22360f74d29b641d7257a52f" target="_top" xlink:title="ZendDbSchema_Db_Schema\l_AbstractSchema\\isExist">
<polygon fill="white" stroke="black" points="367,-256 367,-290 513,-290 513,-256 367,-256"/>
<text text-anchor="start" x="375" y="-277" font-family="Helvetica,sans-Serif" font-size="10.00">ZendDbSchema_Db_Schema</text>
<text text-anchor="middle" x="440" y="-264" font-family="Helvetica,sans-Serif" font-size="10.00">_AbstractSchema\isExist</text>
</a>
</g>
<!-- Node1&#45;&gt;Node2 -->
<g id="edge2" class="edge"><title>Node1&#45;&gt;Node2</title>
<path fill="none" stroke="midnightblue" d="M84.2688,-190.016C101.761,-214.697 138.053,-259.398 182,-277 237.263,-299.135 304.675,-297.211 356.73,-290.242"/>
<polygon fill="midnightblue" stroke="midnightblue" points="357.523,-293.664 366.928,-288.787 356.534,-286.735 357.523,-293.664"/>
</g>
<!-- Node5 -->
<g id="node9" class="node"><title>Node5</title>
<a xlink:href="classZendDbSchema__Db__Schema__AbstractEntity.html#a3aee3f3f8c86d17aeba34b520c0c407d" target="_top" xlink:title="ZendDbSchema_Db_Schema\l_AbstractEntity\\_delete">
<polygon fill="white" stroke="black" points="182,-234 182,-268 328,-268 328,-234 182,-234"/>
<text text-anchor="start" x="190" y="-255" font-family="Helvetica,sans-Serif" font-size="10.00">ZendDbSchema_Db_Schema</text>
<text text-anchor="middle" x="255" y="-242" font-family="Helvetica,sans-Serif" font-size="10.00">_AbstractEntity\_delete</text>
</a>
</g>
<!-- Node1&#45;&gt;Node5 -->
<g id="edge8" class="edge"><title>Node1&#45;&gt;Node5</title>
<path fill="none" stroke="midnightblue" d="M106.473,-190.07C127.833,-200.687 156.247,-214.304 182,-225 186.352,-226.808 190.881,-228.607 195.455,-230.368"/>
<polygon fill="midnightblue" stroke="midnightblue" points="194.276,-233.664 204.868,-233.915 196.745,-227.113 194.276,-233.664"/>
</g>
<!-- Node6 -->
<g id="node11" class="node"><title>Node6</title>
<a xlink:href="classZendDbSchema__Db__Schema__AbstractEntity.html#a7ddb87869e3021260c12bb57df4ba8c1" target="_top" xlink:title="ZendDbSchema_Db_Schema\l_AbstractEntity\\exec">
<polygon fill="white" stroke="black" points="182,-130 182,-164 328,-164 328,-130 182,-130"/>
<text text-anchor="start" x="190" y="-151" font-family="Helvetica,sans-Serif" font-size="10.00">ZendDbSchema_Db_Schema</text>
<text text-anchor="middle" x="255" y="-138" font-family="Helvetica,sans-Serif" font-size="10.00">_AbstractEntity\exec</text>
</a>
</g>
<!-- Node1&#45;&gt;Node6 -->
<g id="edge10" class="edge"><title>Node1&#45;&gt;Node6</title>
<path fill="none" stroke="midnightblue" d="M146.24,-162.537C154.688,-161.33 163.349,-160.093 171.916,-158.869"/>
<polygon fill="midnightblue" stroke="midnightblue" points="172.506,-162.321 181.91,-157.441 171.516,-155.391 172.506,-162.321"/>
</g>
<!-- Node8 -->
<g id="node15" class="node"><title>Node8</title>
<a xlink:href="classZendDbSchema__Db__Schema__AbstractSchema.html#aec661ede88f500caaf2a09e98c31d3b0" target="_top" xlink:title="ZendDbSchema_Db_Schema\l_AbstractSchema\\getDropSql">
<polygon fill="white" stroke="black" points="182,-182 182,-216 328,-216 328,-182 182,-182"/>
<text text-anchor="start" x="190" y="-203" font-family="Helvetica,sans-Serif" font-size="10.00">ZendDbSchema_Db_Schema</text>
<text text-anchor="middle" x="255" y="-190" font-family="Helvetica,sans-Serif" font-size="10.00">_AbstractSchema\getDropSql</text>
</a>
</g>
<!-- Node1&#45;&gt;Node8 -->
<g id="edge14" class="edge"><title>Node1&#45;&gt;Node8</title>
<path fill="none" stroke="midnightblue" d="M146.24,-183.463C154.688,-184.67 163.349,-185.907 171.916,-187.131"/>
<polygon fill="midnightblue" stroke="midnightblue" points="171.516,-190.609 181.91,-188.559 172.506,-183.679 171.516,-190.609"/>
</g>
<!-- Node10 -->
<g id="node20" class="node"><title>Node10</title>
<a xlink:href="classZendDbSchema__Db__Schema__AbstractEntity.html#a29b327cec2bd92fcdaecd4854c72efd7" target="_top" xlink:title="ZendDbSchema_Db_Schema\l_AbstractEntity\\_postDelete">
<polygon fill="white" stroke="black" points="182,-78 182,-112 328,-112 328,-78 182,-78"/>
<text text-anchor="start" x="190" y="-99" font-family="Helvetica,sans-Serif" font-size="10.00">ZendDbSchema_Db_Schema</text>
<text text-anchor="middle" x="255" y="-86" font-family="Helvetica,sans-Serif" font-size="10.00">_AbstractEntity\_postDelete</text>
</a>
</g>
<!-- Node1&#45;&gt;Node10 -->
<g id="edge20" class="edge"><title>Node1&#45;&gt;Node10</title>
<path fill="none" stroke="midnightblue" d="M106.473,-155.93C127.833,-145.313 156.247,-131.696 182,-121 186.352,-119.192 190.881,-117.393 195.455,-115.632"/>
<polygon fill="midnightblue" stroke="midnightblue" points="196.745,-118.887 204.868,-112.085 194.276,-112.336 196.745,-118.887"/>
</g>
<!-- Node11 -->
<g id="node22" class="node"><title>Node11</title>
<a xlink:href="classZendDbSchema__Db__Schema__AbstractEntity.html#abee9675e11d86dace1abed3d94a0fda1" target="_top" xlink:title="ZendDbSchema_Db_Schema\l_AbstractEntity\\refresh">
<polygon fill="white" stroke="black" points="182,-26 182,-60 328,-60 328,-26 182,-26"/>
<text text-anchor="start" x="190" y="-47" font-family="Helvetica,sans-Serif" font-size="10.00">ZendDbSchema_Db_Schema</text>
<text text-anchor="middle" x="255" y="-34" font-family="Helvetica,sans-Serif" font-size="10.00">_AbstractEntity\refresh</text>
</a>
</g>
<!-- Node1&#45;&gt;Node11 -->
<g id="edge22" class="edge"><title>Node1&#45;&gt;Node11</title>
<path fill="none" stroke="midnightblue" d="M86.7977,-155.952C105.983,-133.245 142.804,-93.1412 182,-69 184.608,-67.3938 187.329,-65.8677 190.123,-64.42"/>
<polygon fill="midnightblue" stroke="midnightblue" points="191.73,-67.5315 199.244,-60.0621 188.712,-61.2154 191.73,-67.5315"/>
</g>
<!-- Node3 -->
<g id="node5" class="node"><title>Node3</title>
<a xlink:href="classZendDbSchema__Db__Schema__AbstractSchema.html#a46da7a60c7e5fd605607afbc1dac4baa" target="_top" xlink:title="ZendDbSchema_Db_Schema\l_AbstractSchema\\getCleanSchema">
<polygon fill="white" stroke="black" points="552.5,-256 552.5,-290 725.5,-290 725.5,-256 552.5,-256"/>
<text text-anchor="start" x="560.5" y="-277" font-family="Helvetica,sans-Serif" font-size="10.00">ZendDbSchema_Db_Schema</text>
<text text-anchor="middle" x="639" y="-264" font-family="Helvetica,sans-Serif" font-size="10.00">_AbstractSchema\getCleanSchema</text>
</a>
</g>
<!-- Node2&#45;&gt;Node3 -->
<g id="edge4" class="edge"><title>Node2&#45;&gt;Node3</title>
<path fill="none" stroke="midnightblue" d="M513.252,-273C522.711,-273 532.511,-273 542.275,-273"/>
<polygon fill="midnightblue" stroke="midnightblue" points="542.422,-276.5 552.422,-273 542.422,-269.5 542.422,-276.5"/>
</g>
<!-- Node4 -->
<g id="node7" class="node"><title>Node4</title>
<a xlink:href="classZendDbSchema__Db__Schema__AbstractSchema.html#af99e5bb9adfe0da8c94d3d3848efe7b5" target="_top" xlink:title="ZendDbSchema_Db_Schema\l_AbstractSchema\\_getCleanSchema">
<polygon fill="white" stroke="black" points="762,-256 762,-290 940,-290 940,-256 762,-256"/>
<text text-anchor="start" x="770" y="-277" font-family="Helvetica,sans-Serif" font-size="10.00">ZendDbSchema_Db_Schema</text>
<text text-anchor="middle" x="851" y="-264" font-family="Helvetica,sans-Serif" font-size="10.00">_AbstractSchema\_getCleanSchema</text>
</a>
</g>
<!-- Node3&#45;&gt;Node4 -->
<g id="edge6" class="edge"><title>Node3&#45;&gt;Node4</title>
<path fill="none" stroke="midnightblue" d="M725.534,-273C734.175,-273 742.994,-273 751.752,-273"/>
<polygon fill="midnightblue" stroke="midnightblue" points="751.99,-276.5 761.99,-273 751.99,-269.5 751.99,-276.5"/>
</g>
<!-- Node7 -->
<g id="node13" class="node"><title>Node7</title>
<a xlink:href="classZendDbSchema__Db__Schema__AbstractEntity.html#ad6dfc39cc6d92633fd92170db18c9573" target="_top" xlink:title="ZendDbSchema_Db_Schema\l_AbstractEntity\\getAdapter">
<polygon fill="white" stroke="black" points="367,-130 367,-164 513,-164 513,-130 367,-130"/>
<text text-anchor="start" x="375" y="-151" font-family="Helvetica,sans-Serif" font-size="10.00">ZendDbSchema_Db_Schema</text>
<text text-anchor="middle" x="440" y="-138" font-family="Helvetica,sans-Serif" font-size="10.00">_AbstractEntity\getAdapter</text>
</a>
</g>
<!-- Node6&#45;&gt;Node7 -->
<g id="edge12" class="edge"><title>Node6&#45;&gt;Node7</title>
<path fill="none" stroke="midnightblue" d="M328.117,-147C337.462,-147 347.084,-147 356.577,-147"/>
<polygon fill="midnightblue" stroke="midnightblue" points="356.808,-150.5 366.808,-147 356.808,-143.5 356.808,-150.5"/>
</g>
<!-- Node8&#45;&gt;Node2 -->
<g id="edge16" class="edge"><title>Node8&#45;&gt;Node2</title>
<path fill="none" stroke="midnightblue" d="M304.241,-216.062C312.215,-218.962 320.359,-222.005 328,-225 349.327,-233.359 372.65,-243.234 392.465,-251.847"/>
<polygon fill="midnightblue" stroke="midnightblue" points="391.322,-255.167 401.887,-255.962 394.124,-248.752 391.322,-255.167"/>
</g>
<!-- Node9 -->
<g id="node18" class="node"><title>Node9</title>
<a xlink:href="classZendDbSchema__Db__Schema__AbstractSchema.html#abf887d2836071992af679430ddf1b922" target="_top" xlink:title="ZendDbSchema_Db_Schema\l_AbstractSchema\\_getDropSql">
<polygon fill="white" stroke="black" points="364,-182 364,-216 516,-216 516,-182 364,-182"/>
<text text-anchor="start" x="372" y="-203" font-family="Helvetica,sans-Serif" font-size="10.00">ZendDbSchema_Db_Schema</text>
<text text-anchor="middle" x="440" y="-190" font-family="Helvetica,sans-Serif" font-size="10.00">_AbstractSchema\_getDropSql</text>
</a>
</g>
<!-- Node8&#45;&gt;Node9 -->
<g id="edge18" class="edge"><title>Node8&#45;&gt;Node9</title>
<path fill="none" stroke="midnightblue" d="M328.117,-199C336.538,-199 345.183,-199 353.756,-199"/>
<polygon fill="midnightblue" stroke="midnightblue" points="353.769,-202.5 363.769,-199 353.769,-195.5 353.769,-202.5"/>
</g>
<!-- Node12 -->
<g id="node24" class="node"><title>Node12</title>
<a xlink:href="classZendDbSchema__Db__Schema__AbstractEntity.html#aa35a80275bd3c811dd8ad39835a985a9" target="_top" xlink:title="ZendDbSchema_Db_Schema\l_AbstractEntity\\reload">
<polygon fill="white" stroke="black" points="367,-26 367,-60 513,-60 513,-26 367,-26"/>
<text text-anchor="start" x="375" y="-47" font-family="Helvetica,sans-Serif" font-size="10.00">ZendDbSchema_Db_Schema</text>
<text text-anchor="middle" x="440" y="-34" font-family="Helvetica,sans-Serif" font-size="10.00">_AbstractEntity\reload</text>
</a>
</g>
<!-- Node11&#45;&gt;Node12 -->
<g id="edge24" class="edge"><title>Node11&#45;&gt;Node12</title>
<path fill="none" stroke="midnightblue" d="M328.117,-43C337.462,-43 347.084,-43 356.577,-43"/>
<polygon fill="midnightblue" stroke="midnightblue" points="356.808,-46.5001 366.808,-43 356.808,-39.5001 356.808,-46.5001"/>
</g>
<!-- Node13 -->
<g id="node26" class="node"><title>Node13</title>
<a xlink:href="classZendDbSchema__Db__Schema__AbstractSchema.html#adacb1417b461310c5c87f72c459c1985" target="_top" xlink:title="ZendDbSchema_Db_Schema\l_AbstractSchema\\getOriginName">
<polygon fill="white" stroke="black" points="557.5,-0 557.5,-34 720.5,-34 720.5,-0 557.5,-0"/>
<text text-anchor="start" x="565.5" y="-21" font-family="Helvetica,sans-Serif" font-size="10.00">ZendDbSchema_Db_Schema</text>
<text text-anchor="middle" x="639" y="-8" font-family="Helvetica,sans-Serif" font-size="10.00">_AbstractSchema\getOriginName</text>
</a>
</g>
<!-- Node12&#45;&gt;Node13 -->
<g id="edge26" class="edge"><title>Node12&#45;&gt;Node13</title>
<path fill="none" stroke="midnightblue" d="M513.252,-33.4293C524.31,-31.9847 535.833,-30.4792 547.22,-28.9914"/>
<polygon fill="midnightblue" stroke="midnightblue" points="547.715,-32.4566 557.177,-27.6905 546.808,-25.5156 547.715,-32.4566"/>
</g>
<!-- Node17 -->
<g id="node34" class="node"><title>Node17</title>
<a xlink:href="classZendDbSchema__Db__Schema__AbstractEntity.html#ab317ba1e66cc14d78922314962f7d0ff" target="_top" xlink:title="ZendDbSchema_Db_Schema\l_AbstractEntity\\_doReload">
<polygon fill="white" stroke="black" points="566,-52 566,-86 712,-86 712,-52 566,-52"/>
<text text-anchor="start" x="574" y="-73" font-family="Helvetica,sans-Serif" font-size="10.00">ZendDbSchema_Db_Schema</text>
<text text-anchor="middle" x="639" y="-60" font-family="Helvetica,sans-Serif" font-size="10.00">_AbstractEntity\_doReload</text>
</a>
</g>
<!-- Node12&#45;&gt;Node17 -->
<g id="edge34" class="edge"><title>Node12&#45;&gt;Node17</title>
<path fill="none" stroke="midnightblue" d="M513.252,-52.5707C527.075,-54.3766 541.625,-56.2777 555.729,-58.1203"/>
<polygon fill="midnightblue" stroke="midnightblue" points="555.533,-61.6245 565.902,-59.4496 556.44,-54.6835 555.533,-61.6245"/>
</g>
<!-- Node14 -->
<g id="node28" class="node"><title>Node14</title>
<a xlink:href="classZendDbSchema__Db__Schema__AbstractSchema.html#a55787c21deddba427842809d589c2df6" target="_top" xlink:title="ZendDbSchema_Db_Schema\l_AbstractSchema\\getName">
<polygon fill="white" stroke="black" points="778,-0 778,-34 924,-34 924,-0 778,-0"/>
<text text-anchor="start" x="786" y="-21" font-family="Helvetica,sans-Serif" font-size="10.00">ZendDbSchema_Db_Schema</text>
<text text-anchor="middle" x="851" y="-8" font-family="Helvetica,sans-Serif" font-size="10.00">_AbstractSchema\getName</text>
</a>
</g>
<!-- Node13&#45;&gt;Node14 -->
<g id="edge28" class="edge"><title>Node13&#45;&gt;Node14</title>
<path fill="none" stroke="midnightblue" d="M720.661,-17C736.067,-17 752.197,-17 767.653,-17"/>
<polygon fill="midnightblue" stroke="midnightblue" points="767.698,-20.5001 777.698,-17 767.698,-13.5001 767.698,-20.5001"/>
</g>
<!-- Node15 -->
<g id="node30" class="node"><title>Node15</title>
<a xlink:href="classZendDbSchema__Db__Schema__AbstractSchema.html#a54d32c6f15463eaad2321a9f0e7225d7" target="_top" xlink:title="ZendDbSchema_Db_Schema\l_AbstractSchema\\__get">
<polygon fill="white" stroke="black" points="976,-0 976,-34 1122,-34 1122,-0 976,-0"/>
<text text-anchor="start" x="984" y="-21" font-family="Helvetica,sans-Serif" font-size="10.00">ZendDbSchema_Db_Schema</text>
<text text-anchor="middle" x="1049" y="-8" font-family="Helvetica,sans-Serif" font-size="10.00">_AbstractSchema\__get</text>
</a>
</g>
<!-- Node14&#45;&gt;Node15 -->
<g id="edge30" class="edge"><title>Node14&#45;&gt;Node15</title>
<path fill="none" stroke="midnightblue" d="M924.165,-17C937.596,-17 951.71,-17 965.419,-17"/>
<polygon fill="midnightblue" stroke="midnightblue" points="965.805,-20.5001 975.805,-17 965.805,-13.5001 965.805,-20.5001"/>
</g>
<!-- Node16 -->
<g id="node32" class="node"><title>Node16</title>
<a xlink:href="classZendDbSchema__Db__Schema__AbstractSchema.html#ac4e121ba7932163eb1950fabe06fb9db" target="_top" xlink:title="ZendDbSchema_Db_Schema\l_AbstractSchema\\__isset">
<polygon fill="white" stroke="black" points="1158,-0 1158,-34 1304,-34 1304,-0 1158,-0"/>
<text text-anchor="start" x="1166" y="-21" font-family="Helvetica,sans-Serif" font-size="10.00">ZendDbSchema_Db_Schema</text>
<text text-anchor="middle" x="1231" y="-8" font-family="Helvetica,sans-Serif" font-size="10.00">_AbstractSchema\__isset</text>
</a>
</g>
<!-- Node15&#45;&gt;Node16 -->
<g id="edge32" class="edge"><title>Node15&#45;&gt;Node16</title>
<path fill="none" stroke="midnightblue" d="M1122.24,-17C1130.6,-17 1139.16,-17 1147.64,-17"/>
<polygon fill="midnightblue" stroke="midnightblue" points="1147.91,-20.5001 1157.91,-17 1147.91,-13.5001 1147.91,-20.5001"/>
</g>
</g>
</svg>
