<?xml version="1.0" encoding="UTF-8" standalone="no"?>
<!DOCTYPE svg PUBLIC "-//W3C//DTD SVG 1.1//EN"
 "http://www.w3.org/Graphics/SVG/1.1/DTD/svg11.dtd">
<!-- Generated by graphviz version 2.26.3 (20100126.1600)
 -->
<!-- Title: G Pages: 1 -->
<svg width="2576pt" height="227pt"
 viewBox="0.00 0.00 2576.00 226.98" xmlns="http://www.w3.org/2000/svg" xmlns:xlink="http://www.w3.org/1999/xlink">
<g id="graph1" class="graph" transform="scale(1 1) rotate(0) translate(4 222.983)">
<title>G</title>
<polygon fill="white" stroke="white" points="-4,5 -4,-222.983 2573,-222.983 2573,5 -4,5"/>
<!-- Node1 -->
<g id="node1" class="node"><title>Node1</title>
<polygon fill="#bfbfbf" stroke="black" points="0,-139.5 0,-160.5 288,-160.5 288,-139.5 0,-139.5"/>
<text text-anchor="middle" x="144" y="-147.5" font-family="Helvetica,sans-Serif" font-size="10.00">ZendDbSchema_Db_Schema_Table_AbstractDefinition\delete</text>
</g>
<!-- Node2 -->
<g id="node3" class="node"><title>Node2</title>
<a xlink:href="classZendDbSchema__Db__Schema__Table__AbstractDefinition.html#a224b6a0c1df1d6ed40e03657782ef6fc" target="_top" xlink:title="ZendDbSchema_Db_Schema_Table_AbstractDefinition\\getTable">
<polygon fill="white" stroke="black" points="1008.5,-119.5 1008.5,-140.5 1307.5,-140.5 1307.5,-119.5 1008.5,-119.5"/>
<text text-anchor="middle" x="1158" y="-127.5" font-family="Helvetica,sans-Serif" font-size="10.00">ZendDbSchema_Db_Schema_Table_AbstractDefinition\getTable</text>
</a>
</g>
<!-- Node1&#45;&gt;Node2 -->
<g id="edge2" class="edge"><title>Node1&#45;&gt;Node2</title>
<path fill="none" stroke="midnightblue" d="M180.493,-160.578C216.581,-170.449 273.563,-184.463 324,-190 610.28,-221.426 687.498,-234.752 972,-190 1026.69,-181.398 1087.22,-159.388 1123.93,-144.556"/>
<polygon fill="midnightblue" stroke="midnightblue" points="1125.71,-147.611 1133.63,-140.58 1123.05,-141.135 1125.71,-147.611"/>
</g>
<!-- Node3 -->
<g id="node5" class="node"><title>Node3</title>
<a xlink:href="classZendDbSchema__Db__Schema__AbstractSchema.html#a1680a8fd22360f74d29b641d7257a52f" target="_top" xlink:title="ZendDbSchema_Db_Schema_AbstractSchema\\isExist">
<polygon fill="white" stroke="black" points="357.5,-159.5 357.5,-180.5 614.5,-180.5 614.5,-159.5 357.5,-159.5"/>
<text text-anchor="middle" x="486" y="-167.5" font-family="Helvetica,sans-Serif" font-size="10.00">ZendDbSchema_Db_Schema_AbstractSchema\isExist</text>
</a>
</g>
<!-- Node1&#45;&gt;Node3 -->
<g id="edge4" class="edge"><title>Node1&#45;&gt;Node3</title>
<path fill="none" stroke="midnightblue" d="M288.048,-158.424C307.635,-159.569 327.706,-160.743 347.198,-161.883"/>
<polygon fill="midnightblue" stroke="midnightblue" points="347.145,-165.386 357.333,-162.476 347.554,-158.398 347.145,-165.386"/>
</g>
<!-- Node5 -->
<g id="node9" class="node"><title>Node5</title>
<a xlink:href="classZendDbSchema__Db__Schema__Table__AbstractDefinition.html#accb9dc181f680c59866a9adbed10dcd6" target="_top" xlink:title="ZendDbSchema_Db_Schema_Table_AbstractDefinition\\_getDeleteSql">
<polygon fill="white" stroke="black" points="324.5,-119.5 324.5,-140.5 647.5,-140.5 647.5,-119.5 324.5,-119.5"/>
<text text-anchor="middle" x="486" y="-127.5" font-family="Helvetica,sans-Serif" font-size="10.00">ZendDbSchema_Db_Schema_Table_AbstractDefinition\_getDeleteSql</text>
</a>
</g>
<!-- Node1&#45;&gt;Node5 -->
<g id="edge8" class="edge"><title>Node1&#45;&gt;Node5</title>
<path fill="none" stroke="midnightblue" d="M288.048,-141.576C296.801,-141.064 305.652,-140.547 314.504,-140.029"/>
<polygon fill="midnightblue" stroke="midnightblue" points="314.716,-143.523 324.495,-139.445 314.307,-136.535 314.716,-143.523"/>
</g>
<!-- Node6 -->
<g id="node11" class="node"><title>Node6</title>
<a xlink:href="classZendDbSchema__Db__Schema__Table__AbstractDefinition.html#ad79a83e9aa0cbaa289df7cf5c2d13188" target="_top" xlink:title="ZendDbSchema_Db_Schema_Table_AbstractDefinition\\refresh">
<polygon fill="white" stroke="black" points="340,-79.5 340,-100.5 632,-100.5 632,-79.5 340,-79.5"/>
<text text-anchor="middle" x="486" y="-87.5" font-family="Helvetica,sans-Serif" font-size="10.00">ZendDbSchema_Db_Schema_Table_AbstractDefinition\refresh</text>
</a>
</g>
<!-- Node1&#45;&gt;Node6 -->
<g id="edge10" class="edge"><title>Node1&#45;&gt;Node6</title>
<path fill="none" stroke="midnightblue" d="M185.962,-139.478C222.299,-130.655 276.364,-118.214 324,-110 341.437,-106.993 360.004,-104.264 378.114,-101.855"/>
<polygon fill="midnightblue" stroke="midnightblue" points="378.655,-105.314 388.118,-100.55 377.749,-98.3727 378.655,-105.314"/>
</g>
<!-- Node4 -->
<g id="node7" class="node"><title>Node4</title>
<a xlink:href="classZendDbSchema__Db__Schema__AbstractSchema.html#a219012c80be57ace4b1db43a9c48eb3d" target="_top" xlink:title="ZendDbSchema_Db_Schema_AbstractSchema\\getSchema">
<polygon fill="white" stroke="black" points="689.5,-159.5 689.5,-180.5 966.5,-180.5 966.5,-159.5 689.5,-159.5"/>
<text text-anchor="middle" x="828" y="-167.5" font-family="Helvetica,sans-Serif" font-size="10.00">ZendDbSchema_Db_Schema_AbstractSchema\getSchema</text>
</a>
</g>
<!-- Node3&#45;&gt;Node4 -->
<g id="edge6" class="edge"><title>Node3&#45;&gt;Node4</title>
<path fill="none" stroke="midnightblue" d="M614.808,-170C635.813,-170 657.724,-170 679.162,-170"/>
<polygon fill="midnightblue" stroke="midnightblue" points="679.306,-173.5 689.306,-170 679.306,-166.5 679.306,-173.5"/>
</g>
<!-- Node6&#45;&gt;Node2 -->
<g id="edge12" class="edge"><title>Node6&#45;&gt;Node2</title>
<path fill="none" stroke="midnightblue" d="M573.613,-100.542C607.986,-104.35 647.8,-108.358 684,-111 788.506,-118.628 906.214,-123.367 998.188,-126.205"/>
<polygon fill="midnightblue" stroke="midnightblue" points="998.319,-129.71 1008.42,-126.516 998.532,-122.713 998.319,-129.71"/>
</g>
<!-- Node6&#45;&gt;Node4 -->
<g id="edge34" class="edge"><title>Node6&#45;&gt;Node4</title>
<path fill="none" stroke="midnightblue" d="M623.028,-100.523C631.652,-103.132 640.051,-106.259 648,-110 667.913,-119.371 664.356,-134.077 684,-144 694.363,-149.235 705.616,-153.429 717.11,-156.788"/>
<polygon fill="midnightblue" stroke="midnightblue" points="716.241,-160.178 726.808,-159.417 718.072,-153.422 716.241,-160.178"/>
</g>
<!-- Node7 -->
<g id="node14" class="node"><title>Node7</title>
<a xlink:href="classZendDbSchema__Db__Schema__Table__AbstractDefinition.html#a031f81b621cab3cbe0e035041b7e1257" target="_top" xlink:title="ZendDbSchema_Db_Schema_Table_AbstractDefinition\\reload">
<polygon fill="white" stroke="black" points="684,-80.5 684,-101.5 972,-101.5 972,-80.5 684,-80.5"/>
<text text-anchor="middle" x="828" y="-88.5" font-family="Helvetica,sans-Serif" font-size="10.00">ZendDbSchema_Db_Schema_Table_AbstractDefinition\reload</text>
</a>
</g>
<!-- Node6&#45;&gt;Node7 -->
<g id="edge14" class="edge"><title>Node6&#45;&gt;Node7</title>
<path fill="none" stroke="midnightblue" d="M632.031,-90.427C645.837,-90.4674 659.864,-90.5084 673.743,-90.549"/>
<polygon fill="midnightblue" stroke="midnightblue" points="673.808,-94.0491 683.818,-90.5784 673.828,-87.0491 673.808,-94.0491"/>
</g>
<!-- Node8 -->
<g id="node17" class="node"><title>Node8</title>
<a xlink:href="classZendDbSchema__Db__Schema__AbstractSchema.html#acd81590f02c831ff4c4a442c5cf47074" target="_top" xlink:title="ZendDbSchema_Db_Schema_AbstractSchema\\setFromArray">
<polygon fill="white" stroke="black" points="684.5,-40.5 684.5,-61.5 971.5,-61.5 971.5,-40.5 684.5,-40.5"/>
<text text-anchor="middle" x="828" y="-48.5" font-family="Helvetica,sans-Serif" font-size="10.00">ZendDbSchema_Db_Schema_AbstractSchema\setFromArray</text>
</a>
</g>
<!-- Node6&#45;&gt;Node8 -->
<g id="edge18" class="edge"><title>Node6&#45;&gt;Node8</title>
<path fill="none" stroke="midnightblue" d="M578.1,-79.4974C623.626,-74.3058 678.709,-68.0244 725.562,-62.6815"/>
<polygon fill="midnightblue" stroke="midnightblue" points="726.197,-66.1319 735.736,-61.5213 725.404,-59.177 726.197,-66.1319"/>
</g>
<!-- Node7&#45;&gt;Node2 -->
<g id="edge16" class="edge"><title>Node7&#45;&gt;Node2</title>
<path fill="none" stroke="midnightblue" d="M916.868,-101.503C960.705,-106.683 1013.72,-112.949 1058.87,-118.285"/>
<polygon fill="midnightblue" stroke="midnightblue" points="1058.63,-121.781 1068.97,-119.479 1059.45,-114.829 1058.63,-121.781"/>
</g>
<!-- Node9 -->
<g id="node19" class="node"><title>Node9</title>
<a xlink:href="classZendDbSchema__Db__Schema__AbstractSchema.html#ab4282a1fd6f4d9f23d01de8328072c71" target="_top" xlink:title="ZendDbSchema_Db_Schema_AbstractSchema\\__set">
<polygon fill="white" stroke="black" points="1032.5,-40.5 1032.5,-61.5 1283.5,-61.5 1283.5,-40.5 1032.5,-40.5"/>
<text text-anchor="middle" x="1158" y="-48.5" font-family="Helvetica,sans-Serif" font-size="10.00">ZendDbSchema_Db_Schema_AbstractSchema\__set</text>
</a>
</g>
<!-- Node8&#45;&gt;Node9 -->
<g id="edge20" class="edge"><title>Node8&#45;&gt;Node9</title>
<path fill="none" stroke="midnightblue" d="M971.783,-51C988.468,-51 1005.45,-51 1022.02,-51"/>
<polygon fill="midnightblue" stroke="midnightblue" points="1022.29,-54.5001 1032.29,-51 1022.29,-47.5001 1022.29,-54.5001"/>
</g>
<!-- Node10 -->
<g id="node21" class="node"><title>Node10</title>
<a xlink:href="classZendDbSchema__Db__Schema__AbstractSchema.html#afda46eab0c365f4c9a743b7185c51d6c" target="_top" xlink:title="ZendDbSchema_Db_Schema_AbstractSchema\\getValidator">
<polygon fill="white" stroke="black" points="1344.5,-40.5 1344.5,-61.5 1623.5,-61.5 1623.5,-40.5 1344.5,-40.5"/>
<text text-anchor="middle" x="1484" y="-48.5" font-family="Helvetica,sans-Serif" font-size="10.00">ZendDbSchema_Db_Schema_AbstractSchema\getValidator</text>
</a>
</g>
<!-- Node9&#45;&gt;Node10 -->
<g id="edge22" class="edge"><title>Node9&#45;&gt;Node10</title>
<path fill="none" stroke="midnightblue" d="M1283.57,-51C1300.06,-51 1317.09,-51 1333.93,-51"/>
<polygon fill="midnightblue" stroke="midnightblue" points="1334.39,-54.5001 1344.39,-51 1334.39,-47.5001 1334.39,-54.5001"/>
</g>
<!-- Node11 -->
<g id="node23" class="node"><title>Node11</title>
<a xlink:href="classZendDbSchema__Db__Schema__AbstractSchema.html#a47d95912f6bf6d26d023597887dafacb" target="_top" xlink:title="ZendDbSchema_Db_Schema_AbstractSchema\\getAdapter">
<polygon fill="white" stroke="black" points="1660.5,-40.5 1660.5,-61.5 1935.5,-61.5 1935.5,-40.5 1660.5,-40.5"/>
<text text-anchor="middle" x="1798" y="-48.5" font-family="Helvetica,sans-Serif" font-size="10.00">ZendDbSchema_Db_Schema_AbstractSchema\getAdapter</text>
</a>
</g>
<!-- Node10&#45;&gt;Node11 -->
<g id="edge24" class="edge"><title>Node10&#45;&gt;Node11</title>
<path fill="none" stroke="midnightblue" d="M1623.55,-51C1632.27,-51 1641.05,-51 1649.8,-51"/>
<polygon fill="midnightblue" stroke="midnightblue" points="1650.04,-54.5001 1660.04,-51 1650.04,-47.5001 1650.04,-54.5001"/>
</g>
<!-- Node12 -->
<g id="node25" class="node"><title>Node12</title>
<a xlink:href="classZendDbSchema__Db__Schema__AbstractSchema.html#a6349649e5e09d67a5b5e0abe96298db8" target="_top" xlink:title="ZendDbSchema_Db_Schema_AbstractSchema\\setAdapter">
<polygon fill="white" stroke="black" points="1972.5,-40.5 1972.5,-61.5 2247.5,-61.5 2247.5,-40.5 1972.5,-40.5"/>
<text text-anchor="middle" x="2110" y="-48.5" font-family="Helvetica,sans-Serif" font-size="10.00">ZendDbSchema_Db_Schema_AbstractSchema\setAdapter</text>
</a>
</g>
<!-- Node11&#45;&gt;Node12 -->
<g id="edge26" class="edge"><title>Node11&#45;&gt;Node12</title>
<path fill="none" stroke="midnightblue" d="M1935.76,-51C1944.44,-51 1953.2,-51 1961.92,-51"/>
<polygon fill="midnightblue" stroke="midnightblue" points="1962.14,-54.5001 1972.14,-51 1962.14,-47.5001 1962.14,-54.5001"/>
</g>
<!-- Node13 -->
<g id="node27" class="node"><title>Node13</title>
<a xlink:href="classZendDbSchema__Db__Schema__AbstractSchema.html#a53a1974dbc8822792a8d7b9c618d3a02" target="_top" xlink:title="ZendDbSchema_Db_Schema_AbstractSchema\\setGenerator">
<polygon fill="white" stroke="black" points="2284,-80.5 2284,-101.5 2568,-101.5 2568,-80.5 2284,-80.5"/>
<text text-anchor="middle" x="2426" y="-88.5" font-family="Helvetica,sans-Serif" font-size="10.00">ZendDbSchema_Db_Schema_AbstractSchema\setGenerator</text>
</a>
</g>
<!-- Node12&#45;&gt;Node13 -->
<g id="edge28" class="edge"><title>Node12&#45;&gt;Node13</title>
<path fill="none" stroke="midnightblue" d="M2193.03,-61.5095C2235.95,-66.9425 2288.48,-73.5919 2332.78,-79.2006"/>
<polygon fill="midnightblue" stroke="midnightblue" points="2332.62,-82.7077 2342.98,-80.4913 2333.5,-75.7631 2332.62,-82.7077"/>
</g>
<!-- Node14 -->
<g id="node29" class="node"><title>Node14</title>
<a xlink:href="classZendDbSchema__Db__Schema__AbstractSchema.html#aa0e6c9f8d58702dc41d988f064f62698" target="_top" xlink:title="ZendDbSchema_Db_Schema_AbstractSchema\\setParser">
<polygon fill="white" stroke="black" points="2291.5,-40.5 2291.5,-61.5 2560.5,-61.5 2560.5,-40.5 2291.5,-40.5"/>
<text text-anchor="middle" x="2426" y="-48.5" font-family="Helvetica,sans-Serif" font-size="10.00">ZendDbSchema_Db_Schema_AbstractSchema\setParser</text>
</a>
</g>
<!-- Node12&#45;&gt;Node14 -->
<g id="edge30" class="edge"><title>Node12&#45;&gt;Node14</title>
<path fill="none" stroke="midnightblue" d="M2247.68,-51C2258.76,-51 2269.98,-51 2281.1,-51"/>
<polygon fill="midnightblue" stroke="midnightblue" points="2281.29,-54.5001 2291.29,-51 2281.29,-47.5001 2281.29,-54.5001"/>
</g>
<!-- Node15 -->
<g id="node31" class="node"><title>Node15</title>
<a xlink:href="classZendDbSchema__Db__Schema__AbstractSchema.html#ac0161e2c24dafba8433fb86205a147fe" target="_top" xlink:title="ZendDbSchema_Db_Schema_AbstractSchema\\setValidator">
<polygon fill="white" stroke="black" points="2286.5,-0.5 2286.5,-21.5 2565.5,-21.5 2565.5,-0.5 2286.5,-0.5"/>
<text text-anchor="middle" x="2426" y="-8.5" font-family="Helvetica,sans-Serif" font-size="10.00">ZendDbSchema_Db_Schema_AbstractSchema\setValidator</text>
</a>
</g>
<!-- Node12&#45;&gt;Node15 -->
<g id="edge32" class="edge"><title>Node12&#45;&gt;Node15</title>
<path fill="none" stroke="midnightblue" d="M2193.03,-40.4905C2235.95,-35.0575 2288.48,-28.4081 2332.78,-22.7994"/>
<polygon fill="midnightblue" stroke="midnightblue" points="2333.5,-26.2369 2342.98,-21.5087 2332.62,-19.2923 2333.5,-26.2369"/>
</g>
</g>
</svg>
