<?xml version="1.0" encoding="UTF-8" standalone="no"?>
<!DOCTYPE svg PUBLIC "-//W3C//DTD SVG 1.1//EN"
 "http://www.w3.org/Graphics/SVG/1.1/DTD/svg11.dtd">
<!-- Generated by graphviz version 2.26.3 (20100126.1600)
 -->
<!-- Title: G Pages: 1 -->
<svg width="332pt" height="42pt"
 viewBox="0.00 0.00 332.00 42.00" xmlns="http://www.w3.org/2000/svg" xmlns:xlink="http://www.w3.org/1999/xlink">
<g id="graph1" class="graph" transform="scale(1 1) rotate(0) translate(4 38)">
<title>G</title>
<polygon fill="white" stroke="white" points="-4,5 -4,-38 329,-38 329,5 -4,5"/>
<!-- Node1 -->
<g id="node1" class="node"><title>Node1</title>
<polygon fill="#bfbfbf" stroke="black" points="0,-0 0,-34 144,-34 144,-0 0,-0"/>
<text text-anchor="start" x="8" y="-21" font-family="Helvetica,sans-Serif" font-size="10.00">ZendDbSchema_Db_Adapter</text>
<text text-anchor="middle" x="72" y="-8" font-family="Helvetica,sans-Serif" font-size="10.00">_Pdo_Pgsql\listDatabases</text>
</g>
<!-- Node2 -->
<g id="node3" class="node"><title>Node2</title>
<a xlink:href="classZendDbSchema__Db__Adapter__Pdo__Pgsql.html#a6d3d4f9e4f41395ede2f6e8bcc12b553" target="_top" xlink:title="ZendDbSchema_Db_Adapter\l_Pdo_Pgsql\\hasDatabase">
<polygon fill="white" stroke="black" points="180,-0 180,-34 324,-34 324,-0 180,-0"/>
<text text-anchor="start" x="188" y="-21" font-family="Helvetica,sans-Serif" font-size="10.00">ZendDbSchema_Db_Adapter</text>
<text text-anchor="middle" x="252" y="-8" font-family="Helvetica,sans-Serif" font-size="10.00">_Pdo_Pgsql\hasDatabase</text>
</a>
</g>
<!-- Node1&#45;&gt;Node2 -->
<g id="edge2" class="edge"><title>Node1&#45;&gt;Node2</title>
<path fill="none" stroke="midnightblue" d="M154.439,-17C162.906,-17 171.464,-17 179.808,-17"/>
<polygon fill="midnightblue" stroke="midnightblue" points="154.176,-13.5001 144.176,-17 154.176,-20.5001 154.176,-13.5001"/>
</g>
</g>
</svg>
