<?xml version="1.0" encoding="UTF-8" standalone="no"?>
<!DOCTYPE svg PUBLIC "-//W3C//DTD SVG 1.1//EN"
 "http://www.w3.org/Graphics/SVG/1.1/DTD/svg11.dtd">
<!-- Generated by graphviz version 2.26.3 (20100126.1600)
 -->
<!-- Title: G Pages: 1 -->
<svg width="716pt" height="225pt"
 viewBox="0.00 0.00 716.00 225.00" xmlns="http://www.w3.org/2000/svg" xmlns:xlink="http://www.w3.org/1999/xlink">
<g id="graph1" class="graph" transform="scale(1 1) rotate(0) translate(4 221)">
<title>G</title>
<polygon fill="white" stroke="white" points="-4,5 -4,-221 713,-221 713,5 -4,5"/>
<!-- Node1 -->
<g id="node1" class="node"><title>Node1</title>
<polygon fill="#bfbfbf" stroke="black" points="0,-100 0,-134 150,-134 150,-100 0,-100"/>
<text text-anchor="start" x="8" y="-121" font-family="Helvetica,sans-Serif" font-size="10.00">ZendDbSchema_Db_Migration</text>
<text text-anchor="middle" x="75" y="-108" font-family="Helvetica,sans-Serif" font-size="10.00">_Manager\getVersion</text>
</g>
<!-- Node2 -->
<g id="node3" class="node"><title>Node2</title>
<a xlink:href="classZendDbSchema__Db__Migration__Manager.html#a3f8150b5e2fc90623a10c7890af80185" target="_top" xlink:title="ZendDbSchema_Db_Migration\l_Manager\\compareVersion">
<polygon fill="white" stroke="black" points="372,-104 372,-138 522,-138 522,-104 372,-104"/>
<text text-anchor="start" x="380" y="-125" font-family="Helvetica,sans-Serif" font-size="10.00">ZendDbSchema_Db_Migration</text>
<text text-anchor="middle" x="447" y="-112" font-family="Helvetica,sans-Serif" font-size="10.00">_Manager\compareVersion</text>
</a>
</g>
<!-- Node1&#45;&gt;Node2 -->
<g id="edge2" class="edge"><title>Node1&#45;&gt;Node2</title>
<path fill="none" stroke="midnightblue" d="M160.321,-117.917C224.143,-118.604 310.6,-119.533 371.832,-120.192"/>
<polygon fill="midnightblue" stroke="midnightblue" points="160.317,-114.417 150.28,-117.809 160.242,-121.417 160.317,-114.417"/>
</g>
<!-- Node5 -->
<g id="node9" class="node"><title>Node5</title>
<a xlink:href="classZendDbSchema__Db__Migration__Manager.html#a3d4f62489e72876f97bec3cd4448979d" target="_top" xlink:title="ZendDbSchema_Db_Migration\l_Manager\\getChange">
<polygon fill="white" stroke="black" points="186,-55 186,-89 336,-89 336,-55 186,-55"/>
<text text-anchor="start" x="194" y="-76" font-family="Helvetica,sans-Serif" font-size="10.00">ZendDbSchema_Db_Migration</text>
<text text-anchor="middle" x="261" y="-63" font-family="Helvetica,sans-Serif" font-size="10.00">_Manager\getChange</text>
</a>
</g>
<!-- Node1&#45;&gt;Node5 -->
<g id="edge8" class="edge"><title>Node1&#45;&gt;Node5</title>
<path fill="none" stroke="midnightblue" d="M155.141,-97.6111C166.933,-94.7583 179.006,-91.8373 190.582,-89.0366"/>
<polygon fill="midnightblue" stroke="midnightblue" points="154.215,-94.234 145.319,-99.9874 155.861,-101.038 154.215,-94.234"/>
</g>
<!-- Node8 -->
<g id="node16" class="node"><title>Node8</title>
<a xlink:href="classZendDbSchema__Db__Migration__Manager.html#a3acd09811b23c39aa97fed97b4012ac9" target="_top" xlink:title="ZendDbSchema_Db_Migration\l_Manager\\rolldown">
<polygon fill="white" stroke="black" points="372,-156 372,-190 522,-190 522,-156 372,-156"/>
<text text-anchor="start" x="380" y="-177" font-family="Helvetica,sans-Serif" font-size="10.00">ZendDbSchema_Db_Migration</text>
<text text-anchor="middle" x="447" y="-164" font-family="Helvetica,sans-Serif" font-size="10.00">_Manager\rolldown</text>
</a>
</g>
<!-- Node1&#45;&gt;Node8 -->
<g id="edge32" class="edge"><title>Node1&#45;&gt;Node8</title>
<path fill="none" stroke="midnightblue" d="M160.321,-129.844C224.143,-139.452 310.6,-152.467 371.832,-161.684"/>
<polygon fill="midnightblue" stroke="midnightblue" points="160.689,-126.36 150.28,-128.332 159.647,-133.282 160.689,-126.36"/>
</g>
<!-- Node10 -->
<g id="node22" class="node"><title>Node10</title>
<a xlink:href="classZendDbSchema__Db__Migration__Manager.html#acb171835d37a1596a4ac6db273bf07ae" target="_top" xlink:title="ZendDbSchema_Db_Migration\l_Manager\\getNext">
<polygon fill="white" stroke="black" points="186,-3 186,-37 336,-37 336,-3 186,-3"/>
<text text-anchor="start" x="194" y="-24" font-family="Helvetica,sans-Serif" font-size="10.00">ZendDbSchema_Db_Migration</text>
<text text-anchor="middle" x="261" y="-11" font-family="Helvetica,sans-Serif" font-size="10.00">_Manager\getNext</text>
</a>
</g>
<!-- Node1&#45;&gt;Node10 -->
<g id="edge24" class="edge"><title>Node1&#45;&gt;Node10</title>
<path fill="none" stroke="midnightblue" d="M106.74,-93.8457C128.327,-78.8259 157.957,-59.5939 186,-46 192.572,-42.814 199.638,-39.8327 206.711,-37.1081"/>
<polygon fill="midnightblue" stroke="midnightblue" points="104.462,-91.1692 98.3008,-99.7883 108.492,-96.8926 104.462,-91.1692"/>
</g>
<!-- Node11 -->
<g id="node25" class="node"><title>Node11</title>
<a xlink:href="classZendDbSchema__Db__Migration__Manager.html#a3e9a5dfa3447c5eb1b4bbcc8817549c3" target="_top" xlink:title="ZendDbSchema_Db_Migration\l_Manager\\getPrevious">
<polygon fill="white" stroke="black" points="186,-183 186,-217 336,-217 336,-183 186,-183"/>
<text text-anchor="start" x="194" y="-204" font-family="Helvetica,sans-Serif" font-size="10.00">ZendDbSchema_Db_Migration</text>
<text text-anchor="middle" x="261" y="-191" font-family="Helvetica,sans-Serif" font-size="10.00">_Manager\getPrevious</text>
</a>
</g>
<!-- Node1&#45;&gt;Node11 -->
<g id="edge28" class="edge"><title>Node1&#45;&gt;Node11</title>
<path fill="none" stroke="midnightblue" d="M119.564,-138.45C139.75,-148.018 163.977,-159.296 186,-169 196.572,-173.658 208.067,-178.513 218.808,-182.96"/>
<polygon fill="midnightblue" stroke="midnightblue" points="120.836,-135.18 110.302,-134.046 117.83,-141.501 120.836,-135.18"/>
</g>
<!-- Node3 -->
<g id="node5" class="node"><title>Node3</title>
<a xlink:href="classZendDbSchema__Db__Migration__Manager.html#a265c3edbe064cb4a34289b505046768a" target="_top" xlink:title="ZendDbSchema_Db_Migration\l_Manager\\down">
<polygon fill="white" stroke="black" points="558,-130 558,-164 708,-164 708,-130 558,-130"/>
<text text-anchor="start" x="566" y="-151" font-family="Helvetica,sans-Serif" font-size="10.00">ZendDbSchema_Db_Migration</text>
<text text-anchor="middle" x="633" y="-138" font-family="Helvetica,sans-Serif" font-size="10.00">_Manager\down</text>
</a>
</g>
<!-- Node2&#45;&gt;Node3 -->
<g id="edge4" class="edge"><title>Node2&#45;&gt;Node3</title>
<path fill="none" stroke="midnightblue" d="M532.147,-132.902C540.742,-134.104 549.426,-135.318 557.905,-136.503"/>
<polygon fill="midnightblue" stroke="midnightblue" points="532.505,-129.418 522.117,-131.5 531.536,-136.351 532.505,-129.418"/>
</g>
<!-- Node4 -->
<g id="node7" class="node"><title>Node4</title>
<a xlink:href="classZendDbSchema__Db__Migration__Manager.html#a260901608e7ed2fb5ffef1bf8387e2e9" target="_top" xlink:title="ZendDbSchema_Db_Migration\l_Manager\\up">
<polygon fill="white" stroke="black" points="558,-0 558,-34 708,-34 708,-0 558,-0"/>
<text text-anchor="start" x="566" y="-21" font-family="Helvetica,sans-Serif" font-size="10.00">ZendDbSchema_Db_Migration</text>
<text text-anchor="middle" x="633" y="-8" font-family="Helvetica,sans-Serif" font-size="10.00">_Manager\up</text>
</a>
</g>
<!-- Node2&#45;&gt;Node4 -->
<g id="edge6" class="edge"><title>Node2&#45;&gt;Node4</title>
<path fill="none" stroke="midnightblue" d="M516.439,-98.8645C518.357,-97.6415 520.217,-96.3543 522,-95 544.386,-78.0004 535.614,-59.9996 558,-43 562.39,-39.6663 567.239,-36.7395 572.297,-34.174"/>
<polygon fill="midnightblue" stroke="midnightblue" points="514.67,-95.8441 507.703,-103.826 518.127,-101.931 514.67,-95.8441"/>
</g>
<!-- Node5&#45;&gt;Node2 -->
<g id="edge10" class="edge"><title>Node5&#45;&gt;Node2</title>
<path fill="none" stroke="midnightblue" d="M335.57,-91.6447C351.029,-95.7172 367.195,-99.9762 382.267,-103.947"/>
<polygon fill="midnightblue" stroke="midnightblue" points="336.093,-88.1633 325.532,-89.0003 334.31,-94.9324 336.093,-88.1633"/>
</g>
<!-- Node6 -->
<g id="node12" class="node"><title>Node6</title>
<a xlink:href="classZendDbSchema__Db__Migration__Manager.html#a87a8f6699a75e4b89a0657ae0999203b" target="_top" xlink:title="ZendDbSchema_Db_Migration\l_Manager\\isDirty">
<polygon fill="white" stroke="black" points="372,-52 372,-86 522,-86 522,-52 372,-52"/>
<text text-anchor="start" x="380" y="-73" font-family="Helvetica,sans-Serif" font-size="10.00">ZendDbSchema_Db_Migration</text>
<text text-anchor="middle" x="447" y="-60" font-family="Helvetica,sans-Serif" font-size="10.00">_Manager\isDirty</text>
</a>
</g>
<!-- Node5&#45;&gt;Node6 -->
<g id="edge12" class="edge"><title>Node5&#45;&gt;Node6</title>
<path fill="none" stroke="midnightblue" d="M346.147,-70.6267C354.742,-70.488 363.426,-70.348 371.905,-70.2112"/>
<polygon fill="midnightblue" stroke="midnightblue" points="346.059,-67.1275 336.117,-70.7884 346.172,-74.1266 346.059,-67.1275"/>
</g>
<!-- Node5&#45;&gt;Node8 -->
<g id="edge16" class="edge"><title>Node5&#45;&gt;Node8</title>
<path fill="none" stroke="midnightblue" d="M290.612,-95.1405C312.255,-111.255 342.805,-132.391 372,-147 378.409,-150.207 385.308,-153.184 392.235,-155.891"/>
<polygon fill="midnightblue" stroke="midnightblue" points="292.58,-92.2412 282.488,-89.016 288.366,-97.8307 292.58,-92.2412"/>
</g>
<!-- Node9 -->
<g id="node19" class="node"><title>Node9</title>
<a xlink:href="classZendDbSchema__Db__Migration__Manager.html#afbaee9196407b68350626e8601a44a9a" target="_top" xlink:title="ZendDbSchema_Db_Migration\l_Manager\\rollup">
<polygon fill="white" stroke="black" points="372,-0 372,-34 522,-34 522,-0 372,-0"/>
<text text-anchor="start" x="380" y="-21" font-family="Helvetica,sans-Serif" font-size="10.00">ZendDbSchema_Db_Migration</text>
<text text-anchor="middle" x="447" y="-8" font-family="Helvetica,sans-Serif" font-size="10.00">_Manager\rollup</text>
</a>
</g>
<!-- Node5&#45;&gt;Node9 -->
<g id="edge20" class="edge"><title>Node5&#45;&gt;Node9</title>
<path fill="none" stroke="midnightblue" d="M328.25,-52.1142C348.273,-46.1936 370.024,-39.7618 389.374,-34.0399"/>
<polygon fill="midnightblue" stroke="midnightblue" points="327.175,-48.7823 318.578,-54.9743 329.16,-55.495 327.175,-48.7823"/>
</g>
<!-- Node7 -->
<g id="node14" class="node"><title>Node7</title>
<a xlink:href="classZendDbSchema__Tool__Project__Provider__Migration.html#a6818e8df15f087c869ed9edf28d97f1f" target="_top" xlink:title="ZendDbSchema_Tool_Project\l_Provider_Migration\\status">
<polygon fill="white" stroke="black" points="559.5,-52 559.5,-86 706.5,-86 706.5,-52 559.5,-52"/>
<text text-anchor="start" x="567.5" y="-73" font-family="Helvetica,sans-Serif" font-size="10.00">ZendDbSchema_Tool_Project</text>
<text text-anchor="middle" x="633" y="-60" font-family="Helvetica,sans-Serif" font-size="10.00">_Provider_Migration\status</text>
</a>
</g>
<!-- Node6&#45;&gt;Node7 -->
<g id="edge14" class="edge"><title>Node6&#45;&gt;Node7</title>
<path fill="none" stroke="midnightblue" d="M532.286,-69C541.347,-69 550.505,-69 559.415,-69"/>
<polygon fill="midnightblue" stroke="midnightblue" points="532.117,-65.5001 522.117,-69 532.117,-72.5001 532.117,-65.5001"/>
</g>
<!-- Node8&#45;&gt;Node3 -->
<g id="edge18" class="edge"><title>Node8&#45;&gt;Node3</title>
<path fill="none" stroke="midnightblue" d="M532.147,-161.098C540.742,-159.896 549.426,-158.682 557.905,-157.497"/>
<polygon fill="midnightblue" stroke="midnightblue" points="531.536,-157.649 522.117,-162.5 532.505,-164.582 531.536,-157.649"/>
</g>
<!-- Node9&#45;&gt;Node4 -->
<g id="edge22" class="edge"><title>Node9&#45;&gt;Node4</title>
<path fill="none" stroke="midnightblue" d="M532.147,-17C540.742,-17 549.426,-17 557.905,-17"/>
<polygon fill="midnightblue" stroke="midnightblue" points="532.117,-13.5001 522.117,-17 532.117,-20.5001 532.117,-13.5001"/>
</g>
<!-- Node10&#45;&gt;Node9 -->
<g id="edge26" class="edge"><title>Node10&#45;&gt;Node9</title>
<path fill="none" stroke="midnightblue" d="M346.147,-18.6267C354.742,-18.488 363.426,-18.348 371.905,-18.2112"/>
<polygon fill="midnightblue" stroke="midnightblue" points="346.059,-15.1275 336.117,-18.7884 346.172,-22.1266 346.059,-15.1275"/>
</g>
<!-- Node11&#45;&gt;Node8 -->
<g id="edge30" class="edge"><title>Node11&#45;&gt;Node8</title>
<path fill="none" stroke="midnightblue" d="M346.147,-187.64C354.742,-186.392 363.426,-185.132 371.905,-183.901"/>
<polygon fill="midnightblue" stroke="midnightblue" points="345.511,-184.196 336.117,-189.096 346.516,-191.123 345.511,-184.196"/>
</g>
</g>
</svg>
