<?xml version="1.0" encoding="UTF-8" standalone="no"?>
<!DOCTYPE svg PUBLIC "-//W3C//DTD SVG 1.1//EN"
 "http://www.w3.org/Graphics/SVG/1.1/DTD/svg11.dtd">
<!-- Generated by graphviz version 2.26.3 (20100126.1600)
 -->
<!-- Title: G Pages: 1 -->
<svg width="760pt" height="198pt"
 viewBox="0.00 0.00 760.00 198.00" xmlns="http://www.w3.org/2000/svg" xmlns:xlink="http://www.w3.org/1999/xlink">
<g id="graph1" class="graph" transform="scale(1 1) rotate(0) translate(4 194)">
<title>G</title>
<polygon fill="white" stroke="white" points="-4,5 -4,-194 757,-194 757,5 -4,5"/>
<!-- Node1 -->
<g id="node1" class="node"><title>Node1</title>
<polygon fill="#bfbfbf" stroke="black" points="0,-71.5 0,-118.5 146,-118.5 146,-71.5 0,-71.5"/>
<text text-anchor="start" x="8" y="-105.5" font-family="Helvetica,sans-Serif" font-size="10.00">ZendDbSchema_Db_Schema</text>
<text text-anchor="start" x="8" y="-92.5" font-family="Helvetica,sans-Serif" font-size="10.00">_Generator_Mysql_Database</text>
<text text-anchor="middle" x="73" y="-79.5" font-family="Helvetica,sans-Serif" font-size="10.00">\alterDatabase</text>
</g>
<!-- Node2 -->
<g id="node3" class="node"><title>Node2</title>
<a xlink:href="classZendDbSchema__Db__Schema__AbstractSchema.html#a1680a8fd22360f74d29b641d7257a52f" target="_top" xlink:title="ZendDbSchema_Db_Schema\l_AbstractSchema\\isExist">
<polygon fill="white" stroke="black" points="182,-156 182,-190 328,-190 328,-156 182,-156"/>
<text text-anchor="start" x="190" y="-177" font-family="Helvetica,sans-Serif" font-size="10.00">ZendDbSchema_Db_Schema</text>
<text text-anchor="middle" x="255" y="-164" font-family="Helvetica,sans-Serif" font-size="10.00">_AbstractSchema\isExist</text>
</a>
</g>
<!-- Node1&#45;&gt;Node2 -->
<g id="edge2" class="edge"><title>Node1&#45;&gt;Node2</title>
<path fill="none" stroke="midnightblue" d="M119.736,-118.596C138.84,-127.899 161.281,-138.395 182,-147 186.352,-148.808 190.881,-150.607 195.455,-152.368"/>
<polygon fill="midnightblue" stroke="midnightblue" points="194.276,-155.664 204.868,-155.915 196.745,-149.113 194.276,-155.664"/>
</g>
<!-- Node5 -->
<g id="node9" class="node"><title>Node5</title>
<a xlink:href="classZendDbSchema__Db__Schema__AbstractSchema.html#ae859790a91bbcb9c4dc52a6139e5999e" target="_top" xlink:title="ZendDbSchema_Db_Schema\l_AbstractSchema\\isDirty">
<polygon fill="white" stroke="black" points="182,-104 182,-138 328,-138 328,-104 182,-104"/>
<text text-anchor="start" x="190" y="-125" font-family="Helvetica,sans-Serif" font-size="10.00">ZendDbSchema_Db_Schema</text>
<text text-anchor="middle" x="255" y="-112" font-family="Helvetica,sans-Serif" font-size="10.00">_AbstractSchema\isDirty</text>
</a>
</g>
<!-- Node1&#45;&gt;Node5 -->
<g id="edge8" class="edge"><title>Node1&#45;&gt;Node5</title>
<path fill="none" stroke="midnightblue" d="M146.24,-105.463C154.688,-106.67 163.349,-107.907 171.916,-109.131"/>
<polygon fill="midnightblue" stroke="midnightblue" points="171.516,-112.609 181.91,-110.559 172.506,-105.679 171.516,-112.609"/>
</g>
<!-- Node8 -->
<g id="node17" class="node"><title>Node8</title>
<a xlink:href="classZendDbSchema__Db__Schema__Database.html#a71126f98bb7da60fcd0ac00c101467c8" target="_top" xlink:title="ZendDbSchema_Db_Schema\l_Database\\getCharset">
<polygon fill="white" stroke="black" points="182,-52 182,-86 328,-86 328,-52 182,-52"/>
<text text-anchor="start" x="190" y="-73" font-family="Helvetica,sans-Serif" font-size="10.00">ZendDbSchema_Db_Schema</text>
<text text-anchor="middle" x="255" y="-60" font-family="Helvetica,sans-Serif" font-size="10.00">_Database\getCharset</text>
</a>
</g>
<!-- Node1&#45;&gt;Node8 -->
<g id="edge18" class="edge"><title>Node1&#45;&gt;Node8</title>
<path fill="none" stroke="midnightblue" d="M146.24,-84.5372C154.688,-83.3303 163.349,-82.093 171.916,-80.8692"/>
<polygon fill="midnightblue" stroke="midnightblue" points="172.506,-84.3205 181.91,-79.4414 171.516,-77.3909 172.506,-84.3205"/>
</g>
<!-- Node9 -->
<g id="node20" class="node"><title>Node9</title>
<a xlink:href="classZendDbSchema__Db__Schema__AbstractSchema.html#a55787c21deddba427842809d589c2df6" target="_top" xlink:title="ZendDbSchema_Db_Schema\l_AbstractSchema\\getName">
<polygon fill="white" stroke="black" points="182,-0 182,-34 328,-34 328,-0 182,-0"/>
<text text-anchor="start" x="190" y="-21" font-family="Helvetica,sans-Serif" font-size="10.00">ZendDbSchema_Db_Schema</text>
<text text-anchor="middle" x="255" y="-8" font-family="Helvetica,sans-Serif" font-size="10.00">_AbstractSchema\getName</text>
</a>
</g>
<!-- Node1&#45;&gt;Node9 -->
<g id="edge22" class="edge"><title>Node1&#45;&gt;Node9</title>
<path fill="none" stroke="midnightblue" d="M119.736,-71.4039C138.84,-62.1009 161.281,-51.6048 182,-43 186.352,-41.1923 190.881,-39.3925 195.455,-37.6323"/>
<polygon fill="midnightblue" stroke="midnightblue" points="196.745,-40.8866 204.868,-34.0849 194.276,-34.3364 196.745,-40.8866"/>
</g>
<!-- Node3 -->
<g id="node5" class="node"><title>Node3</title>
<a xlink:href="classZendDbSchema__Db__Schema__AbstractSchema.html#a46da7a60c7e5fd605607afbc1dac4baa" target="_top" xlink:title="ZendDbSchema_Db_Schema\l_AbstractSchema\\getCleanSchema">
<polygon fill="white" stroke="black" points="364.5,-150 364.5,-184 537.5,-184 537.5,-150 364.5,-150"/>
<text text-anchor="start" x="372.5" y="-171" font-family="Helvetica,sans-Serif" font-size="10.00">ZendDbSchema_Db_Schema</text>
<text text-anchor="middle" x="451" y="-158" font-family="Helvetica,sans-Serif" font-size="10.00">_AbstractSchema\getCleanSchema</text>
</a>
</g>
<!-- Node2&#45;&gt;Node3 -->
<g id="edge4" class="edge"><title>Node2&#45;&gt;Node3</title>
<path fill="none" stroke="midnightblue" d="M328.262,-170.757C336.702,-170.499 345.405,-170.233 354.095,-169.966"/>
<polygon fill="midnightblue" stroke="midnightblue" points="354.388,-173.459 364.276,-169.655 354.174,-166.463 354.388,-173.459"/>
</g>
<!-- Node4 -->
<g id="node7" class="node"><title>Node4</title>
<a xlink:href="classZendDbSchema__Db__Schema__AbstractSchema.html#af99e5bb9adfe0da8c94d3d3848efe7b5" target="_top" xlink:title="ZendDbSchema_Db_Schema\l_AbstractSchema\\_getCleanSchema">
<polygon fill="white" stroke="black" points="574,-150 574,-184 752,-184 752,-150 574,-150"/>
<text text-anchor="start" x="582" y="-171" font-family="Helvetica,sans-Serif" font-size="10.00">ZendDbSchema_Db_Schema</text>
<text text-anchor="middle" x="663" y="-158" font-family="Helvetica,sans-Serif" font-size="10.00">_AbstractSchema\_getCleanSchema</text>
</a>
</g>
<!-- Node3&#45;&gt;Node4 -->
<g id="edge6" class="edge"><title>Node3&#45;&gt;Node4</title>
<path fill="none" stroke="midnightblue" d="M537.534,-167C546.175,-167 554.994,-167 563.752,-167"/>
<polygon fill="midnightblue" stroke="midnightblue" points="563.99,-170.5 573.99,-167 563.99,-163.5 563.99,-170.5"/>
</g>
<!-- Node5&#45;&gt;Node3 -->
<g id="edge10" class="edge"><title>Node5&#45;&gt;Node3</title>
<path fill="none" stroke="midnightblue" d="M327.705,-138.063C341.03,-141.191 355.025,-144.475 368.609,-147.663"/>
<polygon fill="midnightblue" stroke="midnightblue" points="367.878,-151.087 378.413,-149.964 369.477,-144.272 367.878,-151.087"/>
</g>
<!-- Node6 -->
<g id="node12" class="node"><title>Node6</title>
<a xlink:href="classZendDbSchema__Db__Schema__AbstractSchema.html#ac4e121ba7932163eb1950fabe06fb9db" target="_top" xlink:title="ZendDbSchema_Db_Schema\l_AbstractSchema\\__isset">
<polygon fill="white" stroke="black" points="590,-76 590,-110 736,-110 736,-76 590,-76"/>
<text text-anchor="start" x="598" y="-97" font-family="Helvetica,sans-Serif" font-size="10.00">ZendDbSchema_Db_Schema</text>
<text text-anchor="middle" x="663" y="-84" font-family="Helvetica,sans-Serif" font-size="10.00">_AbstractSchema\__isset</text>
</a>
</g>
<!-- Node5&#45;&gt;Node6 -->
<g id="edge12" class="edge"><title>Node5&#45;&gt;Node6</title>
<path fill="none" stroke="midnightblue" d="M328.413,-115.962C399.079,-111.112 505.811,-103.787 579.641,-98.7207"/>
<polygon fill="midnightblue" stroke="midnightblue" points="580.096,-102.198 589.833,-98.0213 579.617,-95.2142 580.096,-102.198"/>
</g>
<!-- Node7 -->
<g id="node14" class="node"><title>Node7</title>
<a xlink:href="classZendDbSchema__Db__Schema__AbstractSchema.html#a54d32c6f15463eaad2321a9f0e7225d7" target="_top" xlink:title="ZendDbSchema_Db_Schema\l_AbstractSchema\\__get">
<polygon fill="white" stroke="black" points="378,-54 378,-88 524,-88 524,-54 378,-54"/>
<text text-anchor="start" x="386" y="-75" font-family="Helvetica,sans-Serif" font-size="10.00">ZendDbSchema_Db_Schema</text>
<text text-anchor="middle" x="451" y="-62" font-family="Helvetica,sans-Serif" font-size="10.00">_AbstractSchema\__get</text>
</a>
</g>
<!-- Node5&#45;&gt;Node7 -->
<g id="edge14" class="edge"><title>Node5&#45;&gt;Node7</title>
<path fill="none" stroke="midnightblue" d="M321.904,-103.933C338.683,-99.6522 356.819,-95.0257 374.045,-90.6313"/>
<polygon fill="midnightblue" stroke="midnightblue" points="375.241,-93.9386 384.065,-88.0752 373.51,-87.1558 375.241,-93.9386"/>
</g>
<!-- Node7&#45;&gt;Node6 -->
<g id="edge16" class="edge"><title>Node7&#45;&gt;Node6</title>
<path fill="none" stroke="midnightblue" d="M524.255,-78.602C542.129,-80.4568 561.38,-82.4546 579.685,-84.3541"/>
<polygon fill="midnightblue" stroke="midnightblue" points="579.434,-87.8468 589.742,-85.3977 580.157,-80.8842 579.434,-87.8468"/>
</g>
<!-- Node8&#45;&gt;Node7 -->
<g id="edge20" class="edge"><title>Node8&#45;&gt;Node7</title>
<path fill="none" stroke="midnightblue" d="M328.262,-69.7476C341.046,-69.878 354.43,-70.0146 367.466,-70.1476"/>
<polygon fill="midnightblue" stroke="midnightblue" points="367.792,-73.651 377.827,-70.2533 367.863,-66.6514 367.792,-73.651"/>
</g>
<!-- Node9&#45;&gt;Node7 -->
<g id="edge24" class="edge"><title>Node9&#45;&gt;Node7</title>
<path fill="none" stroke="midnightblue" d="M316.747,-34.0118C336.702,-39.5096 358.991,-45.6506 379.586,-51.3247"/>
<polygon fill="midnightblue" stroke="midnightblue" points="378.657,-54.699 389.227,-53.9809 380.516,-47.9505 378.657,-54.699"/>
</g>
</g>
</svg>
