<?xml version="1.0" encoding="UTF-8" standalone="no"?>
<!DOCTYPE svg PUBLIC "-//W3C//DTD SVG 1.1//EN"
 "http://www.w3.org/Graphics/SVG/1.1/DTD/svg11.dtd">
<!-- Generated by graphviz version 2.26.3 (20100126.1600)
 -->
<!-- Title: G Pages: 1 -->
<svg width="722pt" height="184pt"
 viewBox="0.00 0.00 722.00 184.00" xmlns="http://www.w3.org/2000/svg" xmlns:xlink="http://www.w3.org/1999/xlink">
<g id="graph1" class="graph" transform="scale(1 1) rotate(0) translate(4 180)">
<title>G</title>
<polygon fill="white" stroke="white" points="-4,5 -4,-180 719,-180 719,5 -4,5"/>
<!-- Node1 -->
<g id="node1" class="node"><title>Node1</title>
<polygon fill="#bfbfbf" stroke="black" points="0,-74 0,-108 146,-108 146,-74 0,-74"/>
<text text-anchor="start" x="8" y="-95" font-family="Helvetica,sans-Serif" font-size="10.00">ZendDbSchema_Db_Schema</text>
<text text-anchor="middle" x="73" y="-82" font-family="Helvetica,sans-Serif" font-size="10.00">_AbstractSchema\__set</text>
</g>
<!-- Node2 -->
<g id="node3" class="node"><title>Node2</title>
<a xlink:href="classZendDbSchema__Db__Schema__AbstractSchema.html#aad51a69a1cfd48479c393fcab4f11257" target="_top" xlink:title="ZendDbSchema_Db_Schema\l_AbstractSchema\\__clone">
<polygon fill="white" stroke="black" points="188,-142 188,-176 334,-176 334,-142 188,-142"/>
<text text-anchor="start" x="196" y="-163" font-family="Helvetica,sans-Serif" font-size="10.00">ZendDbSchema_Db_Schema</text>
<text text-anchor="middle" x="261" y="-150" font-family="Helvetica,sans-Serif" font-size="10.00">_AbstractSchema\__clone</text>
</a>
</g>
<!-- Node1&#45;&gt;Node2 -->
<g id="edge2" class="edge"><title>Node1&#45;&gt;Node2</title>
<path fill="none" stroke="midnightblue" d="M130.083,-111.647C156.898,-121.346 188.476,-132.768 213.901,-141.964"/>
<polygon fill="midnightblue" stroke="midnightblue" points="131.035,-108.269 120.44,-108.159 128.654,-114.852 131.035,-108.269"/>
</g>
<!-- Node3 -->
<g id="node5" class="node"><title>Node3</title>
<a xlink:href="classZendDbSchema__Db__Schema__AbstractSchema.html#a84673a5d69f10fec5b31294bf53f6d56" target="_top" xlink:title="ZendDbSchema_Db_Schema\l_AbstractSchema\\refresh">
<polygon fill="white" stroke="black" points="376,-74 376,-108 522,-108 522,-74 376,-74"/>
<text text-anchor="start" x="384" y="-95" font-family="Helvetica,sans-Serif" font-size="10.00">ZendDbSchema_Db_Schema</text>
<text text-anchor="middle" x="449" y="-82" font-family="Helvetica,sans-Serif" font-size="10.00">_AbstractSchema\refresh</text>
</a>
</g>
<!-- Node1&#45;&gt;Node3 -->
<g id="edge4" class="edge"><title>Node1&#45;&gt;Node3</title>
<path fill="none" stroke="midnightblue" d="M156.4,-94.3745C165.044,-94.6303 173.699,-94.8477 182,-95 252.21,-96.2878 269.79,-96.2878 340,-95 351.549,-94.7882 363.783,-94.4502 375.72,-94.0582"/>
<polygon fill="midnightblue" stroke="midnightblue" points="156.384,-90.8724 146.28,-94.0582 156.166,-97.869 156.384,-90.8724"/>
</g>
<!-- Node6 -->
<g id="node11" class="node"><title>Node6</title>
<a xlink:href="classZendDbSchema__Db__Schema__AbstractSchema.html#acd81590f02c831ff4c4a442c5cf47074" target="_top" xlink:title="ZendDbSchema_Db_Schema\l_AbstractSchema\\setFromArray">
<polygon fill="white" stroke="black" points="182.5,-52 182.5,-86 339.5,-86 339.5,-52 182.5,-52"/>
<text text-anchor="start" x="190.5" y="-73" font-family="Helvetica,sans-Serif" font-size="10.00">ZendDbSchema_Db_Schema</text>
<text text-anchor="middle" x="261" y="-60" font-family="Helvetica,sans-Serif" font-size="10.00">_AbstractSchema\setFromArray</text>
</a>
</g>
<!-- Node1&#45;&gt;Node6 -->
<g id="edge10" class="edge"><title>Node1&#45;&gt;Node6</title>
<path fill="none" stroke="midnightblue" d="M156.32,-81.2498C164.984,-80.2359 173.77,-79.2077 182.38,-78.2003"/>
<polygon fill="midnightblue" stroke="midnightblue" points="155.749,-77.7926 146.224,-82.4312 156.563,-84.7451 155.749,-77.7926"/>
</g>
<!-- Node7 -->
<g id="node14" class="node"><title>Node7</title>
<a xlink:href="classZendDbSchema__Db__Schema__AbstractSchema.html#a281403d9e41839e925bade11d8b69b91" target="_top" xlink:title="ZendDbSchema_Db_Schema\l_AbstractSchema\\setName">
<polygon fill="white" stroke="black" points="188,-0 188,-34 334,-34 334,-0 188,-0"/>
<text text-anchor="start" x="196" y="-21" font-family="Helvetica,sans-Serif" font-size="10.00">ZendDbSchema_Db_Schema</text>
<text text-anchor="middle" x="261" y="-8" font-family="Helvetica,sans-Serif" font-size="10.00">_AbstractSchema\setName</text>
</a>
</g>
<!-- Node1&#45;&gt;Node7 -->
<g id="edge14" class="edge"><title>Node1&#45;&gt;Node7</title>
<path fill="none" stroke="midnightblue" d="M118.656,-69.7159C138.015,-61 160.931,-51.0845 182,-43 189.954,-39.9482 198.437,-36.922 206.784,-34.0718"/>
<polygon fill="midnightblue" stroke="midnightblue" points="117.124,-66.5675 109.462,-73.885 120.015,-72.9426 117.124,-66.5675"/>
</g>
<!-- Node4 -->
<g id="node7" class="node"><title>Node4</title>
<a xlink:href="classZendDbSchema__Db__Schema__AbstractSchema.html#a95b8986f7fa3a4e26be024d3a621e4f6" target="_top" xlink:title="ZendDbSchema_Db_Schema\l_AbstractSchema\\__construct">
<polygon fill="white" stroke="black" points="561.5,-100 561.5,-134 710.5,-134 710.5,-100 561.5,-100"/>
<text text-anchor="start" x="569.5" y="-121" font-family="Helvetica,sans-Serif" font-size="10.00">ZendDbSchema_Db_Schema</text>
<text text-anchor="middle" x="636" y="-108" font-family="Helvetica,sans-Serif" font-size="10.00">_AbstractSchema\__construct</text>
</a>
</g>
<!-- Node3&#45;&gt;Node4 -->
<g id="edge6" class="edge"><title>Node3&#45;&gt;Node4</title>
<path fill="none" stroke="midnightblue" d="M532.176,-102.565C541.912,-103.918 551.8,-105.293 561.409,-106.629"/>
<polygon fill="midnightblue" stroke="midnightblue" points="532.489,-99.0745 522.103,-101.164 531.525,-106.008 532.489,-99.0745"/>
</g>
<!-- Node5 -->
<g id="node9" class="node"><title>Node5</title>
<a xlink:href="classZendDbSchema__Db__Schema__Table__PrimaryKey.html#a8189591ab7ced58307298ecc8f27779d" target="_top" xlink:title="ZendDbSchema_Db_Schema\l_Table_PrimaryKey\\__construct">
<polygon fill="white" stroke="black" points="558,-48 558,-82 714,-82 714,-48 558,-48"/>
<text text-anchor="start" x="566" y="-69" font-family="Helvetica,sans-Serif" font-size="10.00">ZendDbSchema_Db_Schema</text>
<text text-anchor="middle" x="636" y="-56" font-family="Helvetica,sans-Serif" font-size="10.00">_Table_PrimaryKey\__construct</text>
</a>
</g>
<!-- Node3&#45;&gt;Node5 -->
<g id="edge8" class="edge"><title>Node3&#45;&gt;Node5</title>
<path fill="none" stroke="midnightblue" d="M532.044,-79.4537C540.574,-78.2678 549.221,-77.0655 557.697,-75.887"/>
<polygon fill="midnightblue" stroke="midnightblue" points="531.525,-75.9921 522.103,-80.836 532.489,-82.9255 531.525,-75.9921"/>
</g>
<!-- Node6&#45;&gt;Node3 -->
<g id="edge12" class="edge"><title>Node6&#45;&gt;Node3</title>
<path fill="none" stroke="midnightblue" d="M349.806,-79.3921C358.504,-80.41 367.262,-81.4349 375.78,-82.4317"/>
<polygon fill="midnightblue" stroke="midnightblue" points="349.979,-75.8886 339.64,-78.2025 349.165,-82.8412 349.979,-75.8886"/>
</g>
</g>
</svg>
