<?xml version="1.0" encoding="UTF-8" standalone="no"?>
<!DOCTYPE svg PUBLIC "-//W3C//DTD SVG 1.1//EN"
 "http://www.w3.org/Graphics/SVG/1.1/DTD/svg11.dtd">
<!-- Generated by graphviz version 2.26.3 (20100126.1600)
 -->
<!-- Title: G Pages: 1 -->
<svg width="716pt" height="42pt"
 viewBox="0.00 0.00 716.00 42.00" xmlns="http://www.w3.org/2000/svg" xmlns:xlink="http://www.w3.org/1999/xlink">
<g id="graph1" class="graph" transform="scale(1 1) rotate(0) translate(4 38)">
<title>G</title>
<polygon fill="white" stroke="white" points="-4,5 -4,-38 713,-38 713,5 -4,5"/>
<!-- Node1 -->
<g id="node1" class="node"><title>Node1</title>
<polygon fill="#bfbfbf" stroke="black" points="0,-0 0,-34 150,-34 150,-0 0,-0"/>
<text text-anchor="start" x="8" y="-21" font-family="Helvetica,sans-Serif" font-size="10.00">ZendDbSchema_Db_Migration</text>
<text text-anchor="middle" x="75" y="-8" font-family="Helvetica,sans-Serif" font-size="10.00">_Skeleton\setVersion</text>
</g>
<!-- Node2 -->
<g id="node3" class="node"><title>Node2</title>
<a xlink:href="classZendDbSchema__Db__Migration__Skeleton.html#afb677840482d948597ec10dc0fd37aab" target="_top" xlink:title="ZendDbSchema_Db_Migration\l_Skeleton\\getVersion">
<polygon fill="white" stroke="black" points="186,-0 186,-34 336,-34 336,-0 186,-0"/>
<text text-anchor="start" x="194" y="-21" font-family="Helvetica,sans-Serif" font-size="10.00">ZendDbSchema_Db_Migration</text>
<text text-anchor="middle" x="261" y="-8" font-family="Helvetica,sans-Serif" font-size="10.00">_Skeleton\getVersion</text>
</a>
</g>
<!-- Node1&#45;&gt;Node2 -->
<g id="edge2" class="edge"><title>Node1&#45;&gt;Node2</title>
<path fill="none" stroke="midnightblue" d="M160.147,-17C168.742,-17 177.426,-17 185.905,-17"/>
<polygon fill="midnightblue" stroke="midnightblue" points="160.117,-13.5001 150.117,-17 160.117,-20.5001 160.117,-13.5001"/>
</g>
<!-- Node3 -->
<g id="node5" class="node"><title>Node3</title>
<a xlink:href="classZendDbSchema__Db__Migration__Skeleton.html#a061e25b67825b88e94acf79944db19a6" target="_top" xlink:title="ZendDbSchema_Db_Migration\l_Skeleton\\getFile">
<polygon fill="white" stroke="black" points="372,-0 372,-34 522,-34 522,-0 372,-0"/>
<text text-anchor="start" x="380" y="-21" font-family="Helvetica,sans-Serif" font-size="10.00">ZendDbSchema_Db_Migration</text>
<text text-anchor="middle" x="447" y="-8" font-family="Helvetica,sans-Serif" font-size="10.00">_Skeleton\getFile</text>
</a>
</g>
<!-- Node2&#45;&gt;Node3 -->
<g id="edge4" class="edge"><title>Node2&#45;&gt;Node3</title>
<path fill="none" stroke="midnightblue" d="M346.147,-17C354.742,-17 363.426,-17 371.905,-17"/>
<polygon fill="midnightblue" stroke="midnightblue" points="346.117,-13.5001 336.117,-17 346.117,-20.5001 346.117,-13.5001"/>
</g>
<!-- Node4 -->
<g id="node7" class="node"><title>Node4</title>
<a xlink:href="classZendDbSchema__Db__Migration__Skeleton.html#a71668c68edcf35f36f111963a9b625df" target="_top" xlink:title="ZendDbSchema_Db_Migration\l_Skeleton\\write">
<polygon fill="white" stroke="black" points="558,-0 558,-34 708,-34 708,-0 558,-0"/>
<text text-anchor="start" x="566" y="-21" font-family="Helvetica,sans-Serif" font-size="10.00">ZendDbSchema_Db_Migration</text>
<text text-anchor="middle" x="633" y="-8" font-family="Helvetica,sans-Serif" font-size="10.00">_Skeleton\write</text>
</a>
</g>
<!-- Node3&#45;&gt;Node4 -->
<g id="edge6" class="edge"><title>Node3&#45;&gt;Node4</title>
<path fill="none" stroke="midnightblue" d="M532.147,-17C540.742,-17 549.426,-17 557.905,-17"/>
<polygon fill="midnightblue" stroke="midnightblue" points="532.117,-13.5001 522.117,-17 532.117,-20.5001 532.117,-13.5001"/>
</g>
</g>
</svg>
