<?xml version="1.0" encoding="UTF-8" standalone="no"?>
<!DOCTYPE svg PUBLIC "-//W3C//DTD SVG 1.1//EN"
 "http://www.w3.org/Graphics/SVG/1.1/DTD/svg11.dtd">
<!-- Generated by graphviz version 2.26.3 (20100126.1600)
 -->
<!-- Title: G Pages: 1 -->
<svg width="408pt" height="108pt"
 viewBox="0.00 0.00 408.00 108.00" xmlns="http://www.w3.org/2000/svg" xmlns:xlink="http://www.w3.org/1999/xlink">
<g id="graph1" class="graph" transform="scale(1 1) rotate(0) translate(4 104)">
<title>G</title>
<polygon fill="white" stroke="white" points="-4,5 -4,-104 405,-104 405,5 -4,5"/>
<!-- Node1 -->
<g id="node1" class="node"><title>Node1</title>
<polygon fill="#bfbfbf" stroke="black" points="0.5,-29 0.5,-63 185.5,-63 185.5,-29 0.5,-29"/>
<text text-anchor="start" x="8.5" y="-50" font-family="Helvetica,sans-Serif" font-size="10.00">ZendDbSchema_Db_Schema</text>
<text text-anchor="middle" x="93" y="-37" font-family="Helvetica,sans-Serif" font-size="10.00">_Table_PrimaryKey\_getCleanSchema</text>
</g>
<!-- Node2 -->
<g id="node3" class="node"><title>Node2</title>
<a xlink:href="classZendDbSchema__Db__Schema__Table__AbstractDefinition.html#a224b6a0c1df1d6ed40e03657782ef6fc" target="_top" xlink:title="ZendDbSchema_Db_Schema\l_Table_AbstractDefinition\l\\getTable">
<polygon fill="white" stroke="black" points="238,-52.5 238,-99.5 384,-99.5 384,-52.5 238,-52.5"/>
<text text-anchor="start" x="246" y="-86.5" font-family="Helvetica,sans-Serif" font-size="10.00">ZendDbSchema_Db_Schema</text>
<text text-anchor="start" x="246" y="-73.5" font-family="Helvetica,sans-Serif" font-size="10.00">_Table_AbstractDefinition</text>
<text text-anchor="middle" x="311" y="-60.5" font-family="Helvetica,sans-Serif" font-size="10.00">\getTable</text>
</a>
</g>
<!-- Node1&#45;&gt;Node2 -->
<g id="edge2" class="edge"><title>Node1&#45;&gt;Node2</title>
<path fill="none" stroke="midnightblue" d="M185.768,-58.7662C199.756,-60.6911 214.108,-62.6663 227.876,-64.561"/>
<polygon fill="midnightblue" stroke="midnightblue" points="227.401,-68.0285 237.785,-65.9245 228.355,-61.0938 227.401,-68.0285"/>
</g>
<!-- Node3 -->
<g id="node5" class="node"><title>Node3</title>
<a xlink:href="classZendDbSchema__Db__Schema__Table__PrimaryKey.html#ab6773d42e5dfebc2273db8b93556f343" target="_top" xlink:title="ZendDbSchema_Db_Schema\l_Table_PrimaryKey\\_getSchemaKey">
<polygon fill="white" stroke="black" points="222.5,-0 222.5,-34 399.5,-34 399.5,-0 222.5,-0"/>
<text text-anchor="start" x="230.5" y="-21" font-family="Helvetica,sans-Serif" font-size="10.00">ZendDbSchema_Db_Schema</text>
<text text-anchor="middle" x="311" y="-8" font-family="Helvetica,sans-Serif" font-size="10.00">_Table_PrimaryKey\_getSchemaKey</text>
</a>
</g>
<!-- Node1&#45;&gt;Node3 -->
<g id="edge4" class="edge"><title>Node1&#45;&gt;Node3</title>
<path fill="none" stroke="midnightblue" d="M185.768,-33.6593C194.609,-32.4833 203.595,-31.2878 212.488,-30.1048"/>
<polygon fill="midnightblue" stroke="midnightblue" points="213.024,-33.5644 222.475,-28.7762 212.101,-26.6255 213.024,-33.5644"/>
</g>
</g>
</svg>
