<?xml version="1.0" encoding="UTF-8" standalone="no"?>
<!DOCTYPE svg PUBLIC "-//W3C//DTD SVG 1.1//EN"
 "http://www.w3.org/Graphics/SVG/1.1/DTD/svg11.dtd">
<!-- Generated by graphviz version 2.26.3 (20100126.1600)
 -->
<!-- Title: G Pages: 1 -->
<svg width="374pt" height="94pt"
 viewBox="0.00 0.00 374.00 94.00" xmlns="http://www.w3.org/2000/svg" xmlns:xlink="http://www.w3.org/1999/xlink">
<g id="graph1" class="graph" transform="scale(1 1) rotate(0) translate(4 90)">
<title>G</title>
<polygon fill="white" stroke="white" points="-4,5 -4,-90 371,-90 371,5 -4,5"/>
<!-- Node1 -->
<g id="node1" class="node"><title>Node1</title>
<polygon fill="#bfbfbf" stroke="black" points="0,-26 0,-60 158,-60 158,-26 0,-26"/>
<text text-anchor="start" x="8" y="-47" font-family="Helvetica,sans-Serif" font-size="10.00">ZendDbSchema_Db_Schema</text>
<text text-anchor="middle" x="79" y="-34" font-family="Helvetica,sans-Serif" font-size="10.00">_Table_PrimaryKey\setColumns</text>
</g>
<!-- Node2 -->
<g id="node3" class="node"><title>Node2</title>
<a xlink:href="classZendDbSchema__Db__Schema__Table__PrimaryKey.html#a0b84ee828c689a3da5790e123583f691" target="_top" xlink:title="ZendDbSchema_Db_Schema\l_Table_PrimaryKey\\addColumn">
<polygon fill="white" stroke="black" points="202.5,-52 202.5,-86 357.5,-86 357.5,-52 202.5,-52"/>
<text text-anchor="start" x="210.5" y="-73" font-family="Helvetica,sans-Serif" font-size="10.00">ZendDbSchema_Db_Schema</text>
<text text-anchor="middle" x="280" y="-60" font-family="Helvetica,sans-Serif" font-size="10.00">_Table_PrimaryKey\addColumn</text>
</a>
</g>
<!-- Node1&#45;&gt;Node2 -->
<g id="edge2" class="edge"><title>Node1&#45;&gt;Node2</title>
<path fill="none" stroke="midnightblue" d="M168.089,-54.524C179.472,-55.9964 191.052,-57.4943 202.236,-58.941"/>
<polygon fill="midnightblue" stroke="midnightblue" points="168.518,-51.0504 158.152,-53.2386 167.62,-57.9926 168.518,-51.0504"/>
</g>
<!-- Node3 -->
<g id="node5" class="node"><title>Node3</title>
<a xlink:href="classZendDbSchema__Db__Schema__Table__PrimaryKey.html#a6deb586d1cc0935f5c0d50afa47667de" target="_top" xlink:title="ZendDbSchema_Db_Schema\l_Table_PrimaryKey\\removeColumn">
<polygon fill="white" stroke="black" points="194.5,-0 194.5,-34 365.5,-34 365.5,-0 194.5,-0"/>
<text text-anchor="start" x="202.5" y="-21" font-family="Helvetica,sans-Serif" font-size="10.00">ZendDbSchema_Db_Schema</text>
<text text-anchor="middle" x="280" y="-8" font-family="Helvetica,sans-Serif" font-size="10.00">_Table_PrimaryKey\removeColumn</text>
</a>
</g>
<!-- Node1&#45;&gt;Node3 -->
<g id="edge4" class="edge"><title>Node1&#45;&gt;Node3</title>
<path fill="none" stroke="midnightblue" d="M168.246,-31.4558C176.902,-30.3361 185.671,-29.2018 194.291,-28.0867"/>
<polygon fill="midnightblue" stroke="midnightblue" points="167.62,-28.0074 158.152,-32.7614 168.518,-34.9496 167.62,-28.0074"/>
</g>
</g>
</svg>
