<?xml version="1.0" encoding="UTF-8" standalone="no"?>
<!DOCTYPE svg PUBLIC "-//W3C//DTD SVG 1.1//EN"
 "http://www.w3.org/Graphics/SVG/1.1/DTD/svg11.dtd">
<!-- Generated by graphviz version 2.26.3 (20100126.1600)
 -->
<!-- Title: G Pages: 1 -->
<svg width="1040pt" height="110pt"
 viewBox="0.00 0.00 1040.00 110.00" xmlns="http://www.w3.org/2000/svg" xmlns:xlink="http://www.w3.org/1999/xlink">
<g id="graph1" class="graph" transform="scale(1 1) rotate(0) translate(4 106)">
<title>G</title>
<polygon fill="white" stroke="white" points="-4,5 -4,-106 1037,-106 1037,5 -4,5"/>
<!-- Node1 -->
<g id="node1" class="node"><title>Node1</title>
<polygon fill="#bfbfbf" stroke="black" points="0.5,-40.5 0.5,-61.5 317.5,-61.5 317.5,-40.5 0.5,-40.5"/>
<text text-anchor="middle" x="159" y="-48.5" font-family="Helvetica,sans-Serif" font-size="10.00">ZendDbSchema_Db_Schema_Table_Manager_AbstractManager\has</text>
</g>
<!-- Node2 -->
<g id="node3" class="node"><title>Node2</title>
<a xlink:href="classZendDbSchema__Db__Schema__Table__Manager__AbstractManager.html#a5198d6d1091f70119853defc477f9cf2" target="_top" xlink:title="ZendDbSchema_Db_Schema_Table_Manager_AbstractManager\\__construct">
<polygon fill="white" stroke="black" points="354,-80.5 354,-101.5 706,-101.5 706,-80.5 354,-80.5"/>
<text text-anchor="middle" x="530" y="-88.5" font-family="Helvetica,sans-Serif" font-size="10.00">ZendDbSchema_Db_Schema_Table_Manager_AbstractManager\__construct</text>
</a>
</g>
<!-- Node1&#45;&gt;Node2 -->
<g id="edge2" class="edge"><title>Node1&#45;&gt;Node2</title>
<path fill="none" stroke="midnightblue" d="M266.48,-62.5882C318.909,-68.2408 381.505,-74.9898 432.532,-80.4913"/>
<polygon fill="midnightblue" stroke="midnightblue" points="266.793,-59.1017 256.476,-61.5095 266.043,-66.0614 266.793,-59.1017"/>
</g>
<!-- Node3 -->
<g id="node5" class="node"><title>Node3</title>
<a xlink:href="classZendDbSchema__Db__Schema__Table__Manager__Column.html#a1265f7c88df7401761b8e5dde4e94da1" target="_top" xlink:title="ZendDbSchema_Db_Schema_Table_Manager_Column\\add">
<polygon fill="white" stroke="black" points="392,-40.5 392,-61.5 668,-61.5 668,-40.5 392,-40.5"/>
<text text-anchor="middle" x="530" y="-48.5" font-family="Helvetica,sans-Serif" font-size="10.00">ZendDbSchema_Db_Schema_Table_Manager_Column\add</text>
</a>
</g>
<!-- Node1&#45;&gt;Node3 -->
<g id="edge4" class="edge"><title>Node1&#45;&gt;Node3</title>
<path fill="none" stroke="midnightblue" d="M327.845,-51C349.292,-51 371.038,-51 391.924,-51"/>
<polygon fill="midnightblue" stroke="midnightblue" points="327.683,-47.5001 317.683,-51 327.683,-54.5001 327.683,-47.5001"/>
</g>
<!-- Node5 -->
<g id="node9" class="node"><title>Node5</title>
<a xlink:href="classZendDbSchema__Db__Schema__Table__Manager__Index.html#aad5593d15638018cb662002f35f1a975" target="_top" xlink:title="ZendDbSchema_Db_Schema_Table_Manager_Index\\add">
<polygon fill="white" stroke="black" points="397,-0.5 397,-21.5 663,-21.5 663,-0.5 397,-0.5"/>
<text text-anchor="middle" x="530" y="-8.5" font-family="Helvetica,sans-Serif" font-size="10.00">ZendDbSchema_Db_Schema_Table_Manager_Index\add</text>
</a>
</g>
<!-- Node1&#45;&gt;Node5 -->
<g id="edge8" class="edge"><title>Node1&#45;&gt;Node5</title>
<path fill="none" stroke="midnightblue" d="M266.48,-39.4118C318.909,-33.7592 381.505,-27.0102 432.532,-21.5087"/>
<polygon fill="midnightblue" stroke="midnightblue" points="266.043,-35.9386 256.476,-40.4905 266.793,-42.8983 266.043,-35.9386"/>
</g>
<!-- Node4 -->
<g id="node7" class="node"><title>Node4</title>
<a xlink:href="classZendDbSchema__Db__Schema__Table__Manager__Column.html#a2fe390d7ee88040f30bb31329d4ed5b9" target="_top" xlink:title="ZendDbSchema_Db_Schema_Table_Manager_Column\\refresh">
<polygon fill="white" stroke="black" points="742,-40.5 742,-61.5 1032,-61.5 1032,-40.5 742,-40.5"/>
<text text-anchor="middle" x="887" y="-48.5" font-family="Helvetica,sans-Serif" font-size="10.00">ZendDbSchema_Db_Schema_Table_Manager_Column\refresh</text>
</a>
</g>
<!-- Node3&#45;&gt;Node4 -->
<g id="edge6" class="edge"><title>Node3&#45;&gt;Node4</title>
<path fill="none" stroke="midnightblue" d="M678.305,-51C699.351,-51 720.974,-51 741.956,-51"/>
<polygon fill="midnightblue" stroke="midnightblue" points="678.026,-47.5001 668.026,-51 678.025,-54.5001 678.026,-47.5001"/>
</g>
<!-- Node6 -->
<g id="node11" class="node"><title>Node6</title>
<a xlink:href="classZendDbSchema__Db__Schema__Table__Manager__Index.html#ae736a0eff081db2c7de80e635021ccc9" target="_top" xlink:title="ZendDbSchema_Db_Schema_Table_Manager_Index\\refresh">
<polygon fill="white" stroke="black" points="746.5,-0.5 746.5,-21.5 1027.5,-21.5 1027.5,-0.5 746.5,-0.5"/>
<text text-anchor="middle" x="887" y="-8.5" font-family="Helvetica,sans-Serif" font-size="10.00">ZendDbSchema_Db_Schema_Table_Manager_Index\refresh</text>
</a>
</g>
<!-- Node5&#45;&gt;Node6 -->
<g id="edge10" class="edge"><title>Node5&#45;&gt;Node6</title>
<path fill="none" stroke="midnightblue" d="M673.432,-11C697.475,-11 722.401,-11 746.372,-11"/>
<polygon fill="midnightblue" stroke="midnightblue" points="673.187,-7.5001 663.187,-11 673.187,-14.5001 673.187,-7.5001"/>
</g>
</g>
</svg>
