<?xml version="1.0" encoding="UTF-8" standalone="no"?>
<!DOCTYPE svg PUBLIC "-//W3C//DTD SVG 1.1//EN"
 "http://www.w3.org/Graphics/SVG/1.1/DTD/svg11.dtd">
<!-- Generated by graphviz version 2.26.3 (20100126.1600)
 -->
<!-- Title: G Pages: 1 -->
<svg width="716pt" height="198pt"
 viewBox="0.00 0.00 716.00 198.00" xmlns="http://www.w3.org/2000/svg" xmlns:xlink="http://www.w3.org/1999/xlink">
<g id="graph1" class="graph" transform="scale(1 1) rotate(0) translate(4 194)">
<title>G</title>
<polygon fill="white" stroke="white" points="-4,5 -4,-194 713,-194 713,5 -4,5"/>
<!-- Node1 -->
<g id="node1" class="node"><title>Node1</title>
<polygon fill="#bfbfbf" stroke="black" points="0,-81 0,-115 150,-115 150,-81 0,-81"/>
<text text-anchor="start" x="8" y="-102" font-family="Helvetica,sans-Serif" font-size="10.00">ZendDbSchema_Db_Migration</text>
<text text-anchor="middle" x="75" y="-89" font-family="Helvetica,sans-Serif" font-size="10.00">_Manager\hasChange</text>
</g>
<!-- Node2 -->
<g id="node3" class="node"><title>Node2</title>
<a xlink:href="classZendDbSchema__Db__Migration__Manager.html#a3f8150b5e2fc90623a10c7890af80185" target="_top" xlink:title="ZendDbSchema_Db_Migration\l_Manager\\compareVersion">
<polygon fill="white" stroke="black" points="372,-104 372,-138 522,-138 522,-104 372,-104"/>
<text text-anchor="start" x="380" y="-125" font-family="Helvetica,sans-Serif" font-size="10.00">ZendDbSchema_Db_Migration</text>
<text text-anchor="middle" x="447" y="-112" font-family="Helvetica,sans-Serif" font-size="10.00">_Manager\compareVersion</text>
</a>
</g>
<!-- Node1&#45;&gt;Node2 -->
<g id="edge2" class="edge"><title>Node1&#45;&gt;Node2</title>
<path fill="none" stroke="midnightblue" d="M160.321,-103.275C224.143,-107.221 310.6,-112.567 371.832,-116.353"/>
<polygon fill="midnightblue" stroke="midnightblue" points="160.477,-99.7783 150.28,-102.654 160.045,-106.765 160.477,-99.7783"/>
</g>
<!-- Node5 -->
<g id="node9" class="node"><title>Node5</title>
<a xlink:href="classZendDbSchema__Db__Migration__Manager.html#a3d4f62489e72876f97bec3cd4448979d" target="_top" xlink:title="ZendDbSchema_Db_Migration\l_Manager\\getChange">
<polygon fill="white" stroke="black" points="186,-59 186,-93 336,-93 336,-59 186,-59"/>
<text text-anchor="start" x="194" y="-80" font-family="Helvetica,sans-Serif" font-size="10.00">ZendDbSchema_Db_Migration</text>
<text text-anchor="middle" x="261" y="-67" font-family="Helvetica,sans-Serif" font-size="10.00">_Manager\getChange</text>
</a>
</g>
<!-- Node1&#45;&gt;Node5 -->
<g id="edge8" class="edge"><title>Node1&#45;&gt;Node5</title>
<path fill="none" stroke="midnightblue" d="M160.147,-87.9288C168.742,-86.9123 177.426,-85.885 185.905,-84.8822"/>
<polygon fill="midnightblue" stroke="midnightblue" points="159.637,-84.4647 150.117,-89.1152 160.459,-91.4162 159.637,-84.4647"/>
</g>
<!-- Node10 -->
<g id="node22" class="node"><title>Node10</title>
<a xlink:href="classZendDbSchema__Db__Migration__Manager.html#acb171835d37a1596a4ac6db273bf07ae" target="_top" xlink:title="ZendDbSchema_Db_Migration\l_Manager\\getNext">
<polygon fill="white" stroke="black" points="186,-3 186,-37 336,-37 336,-3 186,-3"/>
<text text-anchor="start" x="194" y="-24" font-family="Helvetica,sans-Serif" font-size="10.00">ZendDbSchema_Db_Migration</text>
<text text-anchor="middle" x="261" y="-11" font-family="Helvetica,sans-Serif" font-size="10.00">_Manager\getNext</text>
</a>
</g>
<!-- Node1&#45;&gt;Node10 -->
<g id="edge24" class="edge"><title>Node1&#45;&gt;Node10</title>
<path fill="none" stroke="midnightblue" d="M122.961,-76.9162C142.468,-68.4309 165.26,-58.6302 186,-50 196.229,-45.7436 207.287,-41.2574 217.688,-37.0884"/>
<polygon fill="midnightblue" stroke="midnightblue" points="121.441,-73.7608 113.672,-80.9652 124.238,-80.1777 121.441,-73.7608"/>
</g>
<!-- Node11 -->
<g id="node25" class="node"><title>Node11</title>
<a xlink:href="classZendDbSchema__Db__Migration__Manager.html#a3e9a5dfa3447c5eb1b4bbcc8817549c3" target="_top" xlink:title="ZendDbSchema_Db_Migration\l_Manager\\getPrevious">
<polygon fill="white" stroke="black" points="186,-152 186,-186 336,-186 336,-152 186,-152"/>
<text text-anchor="start" x="194" y="-173" font-family="Helvetica,sans-Serif" font-size="10.00">ZendDbSchema_Db_Migration</text>
<text text-anchor="middle" x="261" y="-160" font-family="Helvetica,sans-Serif" font-size="10.00">_Manager\getPrevious</text>
</a>
</g>
<!-- Node1&#45;&gt;Node11 -->
<g id="edge28" class="edge"><title>Node1&#45;&gt;Node11</title>
<path fill="none" stroke="midnightblue" d="M129.076,-118.642C156.722,-129.195 189.967,-141.885 216.167,-151.886"/>
<polygon fill="midnightblue" stroke="midnightblue" points="130.142,-115.303 119.552,-115.006 127.646,-121.842 130.142,-115.303"/>
</g>
<!-- Node3 -->
<g id="node5" class="node"><title>Node3</title>
<a xlink:href="classZendDbSchema__Db__Migration__Manager.html#a265c3edbe064cb4a34289b505046768a" target="_top" xlink:title="ZendDbSchema_Db_Migration\l_Manager\\down">
<polygon fill="white" stroke="black" points="558,-130 558,-164 708,-164 708,-130 558,-130"/>
<text text-anchor="start" x="566" y="-151" font-family="Helvetica,sans-Serif" font-size="10.00">ZendDbSchema_Db_Migration</text>
<text text-anchor="middle" x="633" y="-138" font-family="Helvetica,sans-Serif" font-size="10.00">_Manager\down</text>
</a>
</g>
<!-- Node2&#45;&gt;Node3 -->
<g id="edge4" class="edge"><title>Node2&#45;&gt;Node3</title>
<path fill="none" stroke="midnightblue" d="M532.147,-132.902C540.742,-134.104 549.426,-135.318 557.905,-136.503"/>
<polygon fill="midnightblue" stroke="midnightblue" points="532.505,-129.418 522.117,-131.5 531.536,-136.351 532.505,-129.418"/>
</g>
<!-- Node4 -->
<g id="node7" class="node"><title>Node4</title>
<a xlink:href="classZendDbSchema__Db__Migration__Manager.html#a260901608e7ed2fb5ffef1bf8387e2e9" target="_top" xlink:title="ZendDbSchema_Db_Migration\l_Manager\\up">
<polygon fill="white" stroke="black" points="558,-0 558,-34 708,-34 708,-0 558,-0"/>
<text text-anchor="start" x="566" y="-21" font-family="Helvetica,sans-Serif" font-size="10.00">ZendDbSchema_Db_Migration</text>
<text text-anchor="middle" x="633" y="-8" font-family="Helvetica,sans-Serif" font-size="10.00">_Manager\up</text>
</a>
</g>
<!-- Node2&#45;&gt;Node4 -->
<g id="edge6" class="edge"><title>Node2&#45;&gt;Node4</title>
<path fill="none" stroke="midnightblue" d="M516.439,-98.8645C518.357,-97.6415 520.217,-96.3543 522,-95 544.386,-78.0004 535.614,-59.9996 558,-43 562.39,-39.6663 567.239,-36.7395 572.297,-34.174"/>
<polygon fill="midnightblue" stroke="midnightblue" points="514.67,-95.8441 507.703,-103.826 518.127,-101.931 514.67,-95.8441"/>
</g>
<!-- Node5&#45;&gt;Node2 -->
<g id="edge10" class="edge"><title>Node5&#45;&gt;Node2</title>
<path fill="none" stroke="midnightblue" d="M341.141,-95.3889C352.933,-98.2417 365.006,-101.163 376.582,-103.963"/>
<polygon fill="midnightblue" stroke="midnightblue" points="341.861,-91.9623 331.319,-93.0126 340.215,-98.766 341.861,-91.9623"/>
</g>
<!-- Node6 -->
<g id="node12" class="node"><title>Node6</title>
<a xlink:href="classZendDbSchema__Db__Migration__Manager.html#a87a8f6699a75e4b89a0657ae0999203b" target="_top" xlink:title="ZendDbSchema_Db_Migration\l_Manager\\isDirty">
<polygon fill="white" stroke="black" points="372,-52 372,-86 522,-86 522,-52 372,-52"/>
<text text-anchor="start" x="380" y="-73" font-family="Helvetica,sans-Serif" font-size="10.00">ZendDbSchema_Db_Migration</text>
<text text-anchor="middle" x="447" y="-60" font-family="Helvetica,sans-Serif" font-size="10.00">_Manager\isDirty</text>
</a>
</g>
<!-- Node5&#45;&gt;Node6 -->
<g id="edge12" class="edge"><title>Node5&#45;&gt;Node6</title>
<path fill="none" stroke="midnightblue" d="M346.147,-72.7955C354.742,-72.4721 363.426,-72.1452 371.905,-71.8262"/>
<polygon fill="midnightblue" stroke="midnightblue" points="345.978,-69.2993 336.117,-73.173 346.242,-76.2944 345.978,-69.2993"/>
</g>
<!-- Node8 -->
<g id="node16" class="node"><title>Node8</title>
<a xlink:href="classZendDbSchema__Db__Migration__Manager.html#a3acd09811b23c39aa97fed97b4012ac9" target="_top" xlink:title="ZendDbSchema_Db_Migration\l_Manager\\rolldown">
<polygon fill="white" stroke="black" points="372,-156 372,-190 522,-190 522,-156 372,-156"/>
<text text-anchor="start" x="380" y="-177" font-family="Helvetica,sans-Serif" font-size="10.00">ZendDbSchema_Db_Migration</text>
<text text-anchor="middle" x="447" y="-164" font-family="Helvetica,sans-Serif" font-size="10.00">_Manager\rolldown</text>
</a>
</g>
<!-- Node5&#45;&gt;Node8 -->
<g id="edge16" class="edge"><title>Node5&#45;&gt;Node8</title>
<path fill="none" stroke="midnightblue" d="M292.74,-99.1543C314.327,-114.174 343.957,-133.406 372,-147 378.572,-150.186 385.638,-153.167 392.711,-155.892"/>
<polygon fill="midnightblue" stroke="midnightblue" points="294.492,-96.1074 284.301,-93.2117 290.462,-101.831 294.492,-96.1074"/>
</g>
<!-- Node9 -->
<g id="node19" class="node"><title>Node9</title>
<a xlink:href="classZendDbSchema__Db__Migration__Manager.html#afbaee9196407b68350626e8601a44a9a" target="_top" xlink:title="ZendDbSchema_Db_Migration\l_Manager\\rollup">
<polygon fill="white" stroke="black" points="372,-0 372,-34 522,-34 522,-0 372,-0"/>
<text text-anchor="start" x="380" y="-21" font-family="Helvetica,sans-Serif" font-size="10.00">ZendDbSchema_Db_Migration</text>
<text text-anchor="middle" x="447" y="-8" font-family="Helvetica,sans-Serif" font-size="10.00">_Manager\rollup</text>
</a>
</g>
<!-- Node5&#45;&gt;Node9 -->
<g id="edge20" class="edge"><title>Node5&#45;&gt;Node9</title>
<path fill="none" stroke="midnightblue" d="M324.547,-55.8425C346.925,-48.7443 371.839,-40.8414 393.322,-34.0269"/>
<polygon fill="midnightblue" stroke="midnightblue" points="323.273,-52.5749 314.799,-58.9348 325.389,-59.2473 323.273,-52.5749"/>
</g>
<!-- Node7 -->
<g id="node14" class="node"><title>Node7</title>
<a xlink:href="classZendDbSchema__Tool__Project__Provider__Migration.html#a6818e8df15f087c869ed9edf28d97f1f" target="_top" xlink:title="ZendDbSchema_Tool_Project\l_Provider_Migration\\status">
<polygon fill="white" stroke="black" points="559.5,-52 559.5,-86 706.5,-86 706.5,-52 559.5,-52"/>
<text text-anchor="start" x="567.5" y="-73" font-family="Helvetica,sans-Serif" font-size="10.00">ZendDbSchema_Tool_Project</text>
<text text-anchor="middle" x="633" y="-60" font-family="Helvetica,sans-Serif" font-size="10.00">_Provider_Migration\status</text>
</a>
</g>
<!-- Node6&#45;&gt;Node7 -->
<g id="edge14" class="edge"><title>Node6&#45;&gt;Node7</title>
<path fill="none" stroke="midnightblue" d="M532.286,-69C541.347,-69 550.505,-69 559.415,-69"/>
<polygon fill="midnightblue" stroke="midnightblue" points="532.117,-65.5001 522.117,-69 532.117,-72.5001 532.117,-65.5001"/>
</g>
<!-- Node8&#45;&gt;Node3 -->
<g id="edge18" class="edge"><title>Node8&#45;&gt;Node3</title>
<path fill="none" stroke="midnightblue" d="M532.147,-161.098C540.742,-159.896 549.426,-158.682 557.905,-157.497"/>
<polygon fill="midnightblue" stroke="midnightblue" points="531.536,-157.649 522.117,-162.5 532.505,-164.582 531.536,-157.649"/>
</g>
<!-- Node9&#45;&gt;Node4 -->
<g id="edge22" class="edge"><title>Node9&#45;&gt;Node4</title>
<path fill="none" stroke="midnightblue" d="M532.147,-17C540.742,-17 549.426,-17 557.905,-17"/>
<polygon fill="midnightblue" stroke="midnightblue" points="532.117,-13.5001 522.117,-17 532.117,-20.5001 532.117,-13.5001"/>
</g>
<!-- Node10&#45;&gt;Node9 -->
<g id="edge26" class="edge"><title>Node10&#45;&gt;Node9</title>
<path fill="none" stroke="midnightblue" d="M346.147,-18.6267C354.742,-18.488 363.426,-18.348 371.905,-18.2112"/>
<polygon fill="midnightblue" stroke="midnightblue" points="346.059,-15.1275 336.117,-18.7884 346.172,-22.1266 346.059,-15.1275"/>
</g>
<!-- Node11&#45;&gt;Node8 -->
<g id="edge30" class="edge"><title>Node11&#45;&gt;Node8</title>
<path fill="none" stroke="midnightblue" d="M346.147,-170.831C354.742,-171.016 363.426,-171.203 371.905,-171.385"/>
<polygon fill="midnightblue" stroke="midnightblue" points="346.19,-167.331 336.117,-170.615 346.04,-174.33 346.19,-167.331"/>
</g>
</g>
</svg>
