<?xml version="1.0" encoding="UTF-8" standalone="no"?>
<!DOCTYPE svg PUBLIC "-//W3C//DTD SVG 1.1//EN"
 "http://www.w3.org/Graphics/SVG/1.1/DTD/svg11.dtd">
<!-- Generated by graphviz version 2.26.3 (20100126.1600)
 -->
<!-- Title: G Pages: 1 -->
<svg width="518pt" height="254pt"
 viewBox="0.00 0.00 518.00 254.00" xmlns="http://www.w3.org/2000/svg" xmlns:xlink="http://www.w3.org/1999/xlink">
<g id="graph1" class="graph" transform="scale(1 1) rotate(0) translate(4 250)">
<title>G</title>
<polygon fill="white" stroke="white" points="-4,5 -4,-250 515,-250 515,5 -4,5"/>
<!-- Node1 -->
<g id="node1" class="node"><title>Node1</title>
<polygon fill="#bfbfbf" stroke="black" points="0,-106 0,-140 146,-140 146,-106 0,-106"/>
<text text-anchor="start" x="8" y="-127" font-family="Helvetica,sans-Serif" font-size="10.00">ZendDbSchema_Db_Schema</text>
<text text-anchor="middle" x="73" y="-114" font-family="Helvetica,sans-Serif" font-size="10.00">_Table_Column\isNullable</text>
</g>
<!-- Node2 -->
<g id="node3" class="node"><title>Node2</title>
<a xlink:href="classZendDbSchema__Db__Schema__Generator__Mysql__Table.html#a86ed47276429129c5962489dcd370e0e" target="_top" xlink:title="ZendDbSchema_Db_Schema\l_Generator_Mysql_Table\l\\_columnSql">
<polygon fill="white" stroke="black" points="182,-132.5 182,-179.5 328,-179.5 328,-132.5 182,-132.5"/>
<text text-anchor="start" x="190" y="-166.5" font-family="Helvetica,sans-Serif" font-size="10.00">ZendDbSchema_Db_Schema</text>
<text text-anchor="start" x="190" y="-153.5" font-family="Helvetica,sans-Serif" font-size="10.00">_Generator_Mysql_Table</text>
<text text-anchor="middle" x="255" y="-140.5" font-family="Helvetica,sans-Serif" font-size="10.00">\_columnSql</text>
</a>
</g>
<!-- Node1&#45;&gt;Node2 -->
<g id="edge2" class="edge"><title>Node1&#45;&gt;Node2</title>
<path fill="none" stroke="midnightblue" d="M156.237,-138.092C164.804,-139.646 173.464,-141.216 181.91,-142.747"/>
<polygon fill="midnightblue" stroke="midnightblue" points="156.704,-134.62 146.24,-136.28 155.455,-141.508 156.704,-134.62"/>
</g>
<!-- Node5 -->
<g id="node9" class="node"><title>Node5</title>
<a xlink:href="classZendDbSchema__Db__Schema__Generator__Pgsql__Table.html#ad02c019065d6f7e1e6a1ba713b6c9934" target="_top" xlink:title="ZendDbSchema_Db_Schema\l_Generator_Pgsql_Table\l\\_columnSql">
<polygon fill="white" stroke="black" points="182,-66.5 182,-113.5 328,-113.5 328,-66.5 182,-66.5"/>
<text text-anchor="start" x="190" y="-100.5" font-family="Helvetica,sans-Serif" font-size="10.00">ZendDbSchema_Db_Schema</text>
<text text-anchor="start" x="190" y="-87.5" font-family="Helvetica,sans-Serif" font-size="10.00">_Generator_Pgsql_Table</text>
<text text-anchor="middle" x="255" y="-74.5" font-family="Helvetica,sans-Serif" font-size="10.00">\_columnSql</text>
</a>
</g>
<!-- Node1&#45;&gt;Node5 -->
<g id="edge8" class="edge"><title>Node1&#45;&gt;Node5</title>
<path fill="none" stroke="midnightblue" d="M156.237,-107.908C164.804,-106.354 173.464,-104.784 181.91,-103.253"/>
<polygon fill="midnightblue" stroke="midnightblue" points="155.455,-104.492 146.24,-109.72 156.704,-111.38 155.455,-104.492"/>
</g>
<!-- Node3 -->
<g id="node5" class="node"><title>Node3</title>
<a xlink:href="classZendDbSchema__Db__Schema__Generator__Mysql__Table.html#aa8814727b4633316559e8865c62d9146" target="_top" xlink:title="ZendDbSchema_Db_Schema\l_Generator_Mysql_Table\l\\alterColumn">
<polygon fill="white" stroke="black" points="364,-198.5 364,-245.5 510,-245.5 510,-198.5 364,-198.5"/>
<text text-anchor="start" x="372" y="-232.5" font-family="Helvetica,sans-Serif" font-size="10.00">ZendDbSchema_Db_Schema</text>
<text text-anchor="start" x="372" y="-219.5" font-family="Helvetica,sans-Serif" font-size="10.00">_Generator_Mysql_Table</text>
<text text-anchor="middle" x="437" y="-206.5" font-family="Helvetica,sans-Serif" font-size="10.00">\alterColumn</text>
</a>
</g>
<!-- Node2&#45;&gt;Node3 -->
<g id="edge4" class="edge"><title>Node2&#45;&gt;Node3</title>
<path fill="none" stroke="midnightblue" d="M329.589,-183.049C343.684,-188.16 358.322,-193.468 372.09,-198.461"/>
<polygon fill="midnightblue" stroke="midnightblue" points="330.53,-179.667 319.935,-179.548 328.143,-186.248 330.53,-179.667"/>
</g>
<!-- Node4 -->
<g id="node7" class="node"><title>Node4</title>
<a xlink:href="classZendDbSchema__Db__Schema__Generator__Mysql__Table.html#adaf38c64fd149c2a51273e1485fc3202" target="_top" xlink:title="ZendDbSchema_Db_Schema\l_Generator_Mysql_Table\l\\createColumn">
<polygon fill="white" stroke="black" points="364,-132.5 364,-179.5 510,-179.5 510,-132.5 364,-132.5"/>
<text text-anchor="start" x="372" y="-166.5" font-family="Helvetica,sans-Serif" font-size="10.00">ZendDbSchema_Db_Schema</text>
<text text-anchor="start" x="372" y="-153.5" font-family="Helvetica,sans-Serif" font-size="10.00">_Generator_Mysql_Table</text>
<text text-anchor="middle" x="437" y="-140.5" font-family="Helvetica,sans-Serif" font-size="10.00">\createColumn</text>
</a>
</g>
<!-- Node2&#45;&gt;Node4 -->
<g id="edge6" class="edge"><title>Node2&#45;&gt;Node4</title>
<path fill="none" stroke="midnightblue" d="M338.516,-156C346.992,-156 355.556,-156 363.91,-156"/>
<polygon fill="midnightblue" stroke="midnightblue" points="338.24,-152.5 328.24,-156 338.24,-159.5 338.24,-152.5"/>
</g>
<!-- Node6 -->
<g id="node11" class="node"><title>Node6</title>
<a xlink:href="classZendDbSchema__Db__Schema__Generator__Pgsql__Table.html#a2530efde9e464bbbcfbd166c622023d0" target="_top" xlink:title="ZendDbSchema_Db_Schema\l_Generator_Pgsql_Table\l\\alterColumn">
<polygon fill="white" stroke="black" points="364,-66.5 364,-113.5 510,-113.5 510,-66.5 364,-66.5"/>
<text text-anchor="start" x="372" y="-100.5" font-family="Helvetica,sans-Serif" font-size="10.00">ZendDbSchema_Db_Schema</text>
<text text-anchor="start" x="372" y="-87.5" font-family="Helvetica,sans-Serif" font-size="10.00">_Generator_Pgsql_Table</text>
<text text-anchor="middle" x="437" y="-74.5" font-family="Helvetica,sans-Serif" font-size="10.00">\alterColumn</text>
</a>
</g>
<!-- Node5&#45;&gt;Node6 -->
<g id="edge10" class="edge"><title>Node5&#45;&gt;Node6</title>
<path fill="none" stroke="midnightblue" d="M338.516,-90C346.992,-90 355.556,-90 363.91,-90"/>
<polygon fill="midnightblue" stroke="midnightblue" points="338.24,-86.5001 328.24,-90 338.24,-93.5001 338.24,-86.5001"/>
</g>
<!-- Node7 -->
<g id="node13" class="node"><title>Node7</title>
<a xlink:href="classZendDbSchema__Db__Schema__Generator__Pgsql__Table.html#a2515e55bb1085aee7149b30af1793ab0" target="_top" xlink:title="ZendDbSchema_Db_Schema\l_Generator_Pgsql_Table\l\\createColumn">
<polygon fill="white" stroke="black" points="364,-0.5 364,-47.5 510,-47.5 510,-0.5 364,-0.5"/>
<text text-anchor="start" x="372" y="-34.5" font-family="Helvetica,sans-Serif" font-size="10.00">ZendDbSchema_Db_Schema</text>
<text text-anchor="start" x="372" y="-21.5" font-family="Helvetica,sans-Serif" font-size="10.00">_Generator_Pgsql_Table</text>
<text text-anchor="middle" x="437" y="-8.5" font-family="Helvetica,sans-Serif" font-size="10.00">\createColumn</text>
</a>
</g>
<!-- Node5&#45;&gt;Node7 -->
<g id="edge12" class="edge"><title>Node5&#45;&gt;Node7</title>
<path fill="none" stroke="midnightblue" d="M329.589,-62.9512C343.684,-57.8399 358.322,-52.5316 372.09,-47.5389"/>
<polygon fill="midnightblue" stroke="midnightblue" points="328.143,-59.7525 319.935,-66.452 330.53,-66.3331 328.143,-59.7525"/>
</g>
</g>
</svg>
