<?xml version="1.0" encoding="UTF-8" standalone="no"?>
<!DOCTYPE svg PUBLIC "-//W3C//DTD SVG 1.1//EN"
 "http://www.w3.org/Graphics/SVG/1.1/DTD/svg11.dtd">
<!-- Generated by graphviz version 2.26.3 (20100126.1600)
 -->
<!-- Title: G Pages: 1 -->
<svg width="1124pt" height="336pt"
 viewBox="0.00 0.00 1124.00 336.00" xmlns="http://www.w3.org/2000/svg" xmlns:xlink="http://www.w3.org/1999/xlink">
<g id="graph1" class="graph" transform="scale(1 1) rotate(0) translate(4 332)">
<title>G</title>
<polygon fill="white" stroke="white" points="-4,5 -4,-332 1121,-332 1121,5 -4,5"/>
<!-- Node1 -->
<g id="node1" class="node"><title>Node1</title>
<polygon fill="#bfbfbf" stroke="black" points="0,-209.5 0,-256.5 146,-256.5 146,-209.5 0,-209.5"/>
<text text-anchor="start" x="8" y="-243.5" font-family="Helvetica,sans-Serif" font-size="10.00">ZendDbSchema_Db_Schema</text>
<text text-anchor="start" x="8" y="-230.5" font-family="Helvetica,sans-Serif" font-size="10.00">_Generator_Pgsql_Table</text>
<text text-anchor="middle" x="73" y="-217.5" font-family="Helvetica,sans-Serif" font-size="10.00">\alterForeignKey</text>
</g>
<!-- Node2 -->
<g id="node3" class="node"><title>Node2</title>
<a xlink:href="classZendDbSchema__Db__Schema__AbstractSchema.html#a1680a8fd22360f74d29b641d7257a52f" target="_top" xlink:title="ZendDbSchema_Db_Schema\l_AbstractSchema\\isExist">
<polygon fill="white" stroke="black" points="182,-284 182,-318 328,-318 328,-284 182,-284"/>
<text text-anchor="start" x="190" y="-305" font-family="Helvetica,sans-Serif" font-size="10.00">ZendDbSchema_Db_Schema</text>
<text text-anchor="middle" x="255" y="-292" font-family="Helvetica,sans-Serif" font-size="10.00">_AbstractSchema\isExist</text>
</a>
</g>
<!-- Node1&#45;&gt;Node2 -->
<g id="edge2" class="edge"><title>Node1&#45;&gt;Node2</title>
<path fill="none" stroke="midnightblue" d="M136.144,-256.592C156.878,-264.339 179.747,-272.884 199.842,-280.391"/>
<polygon fill="midnightblue" stroke="midnightblue" points="198.869,-283.764 209.462,-283.986 201.319,-277.207 198.869,-283.764"/>
</g>
<!-- Node5 -->
<g id="node9" class="node"><title>Node5</title>
<a xlink:href="classZendDbSchema__Db__Schema__Generator__Pgsql__Table.html#aab407f272f8993d722e31c277ce0f974" target="_top" xlink:title="ZendDbSchema_Db_Schema\l_Generator_Pgsql_Table\l\\dropForeignKey">
<polygon fill="white" stroke="black" points="182,-209.5 182,-256.5 328,-256.5 328,-209.5 182,-209.5"/>
<text text-anchor="start" x="190" y="-243.5" font-family="Helvetica,sans-Serif" font-size="10.00">ZendDbSchema_Db_Schema</text>
<text text-anchor="start" x="190" y="-230.5" font-family="Helvetica,sans-Serif" font-size="10.00">_Generator_Pgsql_Table</text>
<text text-anchor="middle" x="255" y="-217.5" font-family="Helvetica,sans-Serif" font-size="10.00">\dropForeignKey</text>
</a>
</g>
<!-- Node1&#45;&gt;Node5 -->
<g id="edge8" class="edge"><title>Node1&#45;&gt;Node5</title>
<path fill="none" stroke="midnightblue" d="M146.24,-233C154.596,-233 163.161,-233 171.636,-233"/>
<polygon fill="midnightblue" stroke="midnightblue" points="171.91,-236.5 181.91,-233 171.91,-229.5 171.91,-236.5"/>
</g>
<!-- Node11 -->
<g id="node21" class="node"><title>Node11</title>
<a xlink:href="classZendDbSchema__Db__Schema__Generator__Pgsql__Table.html#a3365ef877cee87ce2f038f4476256a94" target="_top" xlink:title="ZendDbSchema_Db_Schema\l_Generator_Pgsql_Table\l\\addForeignKey">
<polygon fill="white" stroke="black" points="182,-124.5 182,-171.5 328,-171.5 328,-124.5 182,-124.5"/>
<text text-anchor="start" x="190" y="-158.5" font-family="Helvetica,sans-Serif" font-size="10.00">ZendDbSchema_Db_Schema</text>
<text text-anchor="start" x="190" y="-145.5" font-family="Helvetica,sans-Serif" font-size="10.00">_Generator_Pgsql_Table</text>
<text text-anchor="middle" x="255" y="-132.5" font-family="Helvetica,sans-Serif" font-size="10.00">\addForeignKey</text>
</a>
</g>
<!-- Node1&#45;&gt;Node11 -->
<g id="edge20" class="edge"><title>Node1&#45;&gt;Node11</title>
<path fill="none" stroke="midnightblue" d="M123.697,-209.323C145.884,-198.961 172.076,-186.728 195.207,-175.925"/>
<polygon fill="midnightblue" stroke="midnightblue" points="196.995,-178.953 204.575,-171.55 194.033,-172.611 196.995,-178.953"/>
</g>
<!-- Node3 -->
<g id="node5" class="node"><title>Node3</title>
<a xlink:href="classZendDbSchema__Db__Schema__AbstractSchema.html#a46da7a60c7e5fd605607afbc1dac4baa" target="_top" xlink:title="ZendDbSchema_Db_Schema\l_AbstractSchema\\getCleanSchema">
<polygon fill="white" stroke="black" points="364.5,-294 364.5,-328 537.5,-328 537.5,-294 364.5,-294"/>
<text text-anchor="start" x="372.5" y="-315" font-family="Helvetica,sans-Serif" font-size="10.00">ZendDbSchema_Db_Schema</text>
<text text-anchor="middle" x="451" y="-302" font-family="Helvetica,sans-Serif" font-size="10.00">_AbstractSchema\getCleanSchema</text>
</a>
</g>
<!-- Node2&#45;&gt;Node3 -->
<g id="edge4" class="edge"><title>Node2&#45;&gt;Node3</title>
<path fill="none" stroke="midnightblue" d="M328.262,-304.738C336.702,-305.168 345.405,-305.612 354.095,-306.056"/>
<polygon fill="midnightblue" stroke="midnightblue" points="354.111,-309.561 364.276,-306.575 354.467,-302.57 354.111,-309.561"/>
</g>
<!-- Node4 -->
<g id="node7" class="node"><title>Node4</title>
<a xlink:href="classZendDbSchema__Db__Schema__AbstractSchema.html#af99e5bb9adfe0da8c94d3d3848efe7b5" target="_top" xlink:title="ZendDbSchema_Db_Schema\l_AbstractSchema\\_getCleanSchema">
<polygon fill="white" stroke="black" points="574,-294 574,-328 752,-328 752,-294 574,-294"/>
<text text-anchor="start" x="582" y="-315" font-family="Helvetica,sans-Serif" font-size="10.00">ZendDbSchema_Db_Schema</text>
<text text-anchor="middle" x="663" y="-302" font-family="Helvetica,sans-Serif" font-size="10.00">_AbstractSchema\_getCleanSchema</text>
</a>
</g>
<!-- Node3&#45;&gt;Node4 -->
<g id="edge6" class="edge"><title>Node3&#45;&gt;Node4</title>
<path fill="none" stroke="midnightblue" d="M537.534,-311C546.175,-311 554.994,-311 563.752,-311"/>
<polygon fill="midnightblue" stroke="midnightblue" points="563.99,-314.5 573.99,-311 563.99,-307.5 563.99,-314.5"/>
</g>
<!-- Node6 -->
<g id="node11" class="node"><title>Node6</title>
<a xlink:href="classZendDbSchema__Db__Schema__Table__AbstractDefinition.html#a224b6a0c1df1d6ed40e03657782ef6fc" target="_top" xlink:title="ZendDbSchema_Db_Schema\l_Table_AbstractDefinition\l\\getTable">
<polygon fill="white" stroke="black" points="378,-228.5 378,-275.5 524,-275.5 524,-228.5 378,-228.5"/>
<text text-anchor="start" x="386" y="-262.5" font-family="Helvetica,sans-Serif" font-size="10.00">ZendDbSchema_Db_Schema</text>
<text text-anchor="start" x="386" y="-249.5" font-family="Helvetica,sans-Serif" font-size="10.00">_Table_AbstractDefinition</text>
<text text-anchor="middle" x="451" y="-236.5" font-family="Helvetica,sans-Serif" font-size="10.00">\getTable</text>
</a>
</g>
<!-- Node5&#45;&gt;Node6 -->
<g id="edge10" class="edge"><title>Node5&#45;&gt;Node6</title>
<path fill="none" stroke="midnightblue" d="M328.262,-240.102C341.172,-241.353 354.695,-242.664 367.853,-243.94"/>
<polygon fill="midnightblue" stroke="midnightblue" points="367.536,-247.425 377.827,-244.907 368.211,-240.458 367.536,-247.425"/>
</g>
<!-- Node7 -->
<g id="node13" class="node"><title>Node7</title>
<a xlink:href="classZendDbSchema__Db__Schema__AbstractSchema.html#adacb1417b461310c5c87f72c459c1985" target="_top" xlink:title="ZendDbSchema_Db_Schema\l_AbstractSchema\\getOriginName">
<polygon fill="white" stroke="black" points="369.5,-176 369.5,-210 532.5,-210 532.5,-176 369.5,-176"/>
<text text-anchor="start" x="377.5" y="-197" font-family="Helvetica,sans-Serif" font-size="10.00">ZendDbSchema_Db_Schema</text>
<text text-anchor="middle" x="451" y="-184" font-family="Helvetica,sans-Serif" font-size="10.00">_AbstractSchema\getOriginName</text>
</a>
</g>
<!-- Node5&#45;&gt;Node7 -->
<g id="edge12" class="edge"><title>Node5&#45;&gt;Node7</title>
<path fill="none" stroke="midnightblue" d="M328.262,-218.049C338.397,-215.98 348.91,-213.835 359.327,-211.709"/>
<polygon fill="midnightblue" stroke="midnightblue" points="360.171,-215.109 369.269,-209.68 358.771,-208.25 360.171,-215.109"/>
</g>
<!-- Node8 -->
<g id="node15" class="node"><title>Node8</title>
<a xlink:href="classZendDbSchema__Db__Schema__AbstractSchema.html#a55787c21deddba427842809d589c2df6" target="_top" xlink:title="ZendDbSchema_Db_Schema\l_AbstractSchema\\getName">
<polygon fill="white" stroke="black" points="590,-197 590,-231 736,-231 736,-197 590,-197"/>
<text text-anchor="start" x="598" y="-218" font-family="Helvetica,sans-Serif" font-size="10.00">ZendDbSchema_Db_Schema</text>
<text text-anchor="middle" x="663" y="-205" font-family="Helvetica,sans-Serif" font-size="10.00">_AbstractSchema\getName</text>
</a>
</g>
<!-- Node7&#45;&gt;Node8 -->
<g id="edge14" class="edge"><title>Node7&#45;&gt;Node8</title>
<path fill="none" stroke="midnightblue" d="M532.661,-201.089C548.067,-202.615 564.197,-204.213 579.653,-205.744"/>
<polygon fill="midnightblue" stroke="midnightblue" points="579.401,-209.236 589.698,-206.739 580.092,-202.27 579.401,-209.236"/>
</g>
<!-- Node9 -->
<g id="node17" class="node"><title>Node9</title>
<a xlink:href="classZendDbSchema__Db__Schema__AbstractSchema.html#a54d32c6f15463eaad2321a9f0e7225d7" target="_top" xlink:title="ZendDbSchema_Db_Schema\l_AbstractSchema\\__get">
<polygon fill="white" stroke="black" points="788,-93 788,-127 934,-127 934,-93 788,-93"/>
<text text-anchor="start" x="796" y="-114" font-family="Helvetica,sans-Serif" font-size="10.00">ZendDbSchema_Db_Schema</text>
<text text-anchor="middle" x="861" y="-101" font-family="Helvetica,sans-Serif" font-size="10.00">_AbstractSchema\__get</text>
</a>
</g>
<!-- Node8&#45;&gt;Node9 -->
<g id="edge16" class="edge"><title>Node8&#45;&gt;Node9</title>
<path fill="none" stroke="midnightblue" d="M730.497,-196.924C737.891,-194.279 745.196,-191.309 752,-188 781.928,-173.445 812.435,-150.809 833.534,-133.663"/>
<polygon fill="midnightblue" stroke="midnightblue" points="835.932,-136.223 841.416,-127.158 831.476,-130.824 835.932,-136.223"/>
</g>
<!-- Node10 -->
<g id="node19" class="node"><title>Node10</title>
<a xlink:href="classZendDbSchema__Db__Schema__AbstractSchema.html#ac4e121ba7932163eb1950fabe06fb9db" target="_top" xlink:title="ZendDbSchema_Db_Schema\l_AbstractSchema\\__isset">
<polygon fill="white" stroke="black" points="970,-93 970,-127 1116,-127 1116,-93 970,-93"/>
<text text-anchor="start" x="978" y="-114" font-family="Helvetica,sans-Serif" font-size="10.00">ZendDbSchema_Db_Schema</text>
<text text-anchor="middle" x="1043" y="-101" font-family="Helvetica,sans-Serif" font-size="10.00">_AbstractSchema\__isset</text>
</a>
</g>
<!-- Node9&#45;&gt;Node10 -->
<g id="edge18" class="edge"><title>Node9&#45;&gt;Node10</title>
<path fill="none" stroke="midnightblue" d="M934.24,-110C942.596,-110 951.161,-110 959.636,-110"/>
<polygon fill="midnightblue" stroke="midnightblue" points="959.91,-113.5 969.91,-110 959.91,-106.5 959.91,-113.5"/>
</g>
<!-- Node11&#45;&gt;Node6 -->
<g id="edge40" class="edge"><title>Node11&#45;&gt;Node6</title>
<path fill="none" stroke="midnightblue" d="M287.287,-171.669C308.418,-186.485 337.018,-205.296 364,-219 367.544,-220.8 371.211,-222.559 374.945,-224.268"/>
<polygon fill="midnightblue" stroke="midnightblue" points="373.767,-227.574 384.329,-228.409 376.593,-221.17 373.767,-227.574"/>
</g>
<!-- Node11&#45;&gt;Node7 -->
<g id="edge22" class="edge"><title>Node11&#45;&gt;Node7</title>
<path fill="none" stroke="midnightblue" d="M328.262,-164.82C340.912,-167.725 354.151,-170.764 367.058,-173.728"/>
<polygon fill="midnightblue" stroke="midnightblue" points="366.318,-177.149 376.847,-175.975 367.884,-170.326 366.318,-177.149"/>
</g>
<!-- Node12 -->
<g id="node24" class="node"><title>Node12</title>
<a xlink:href="classZendDbSchema__Db__Schema__Table__ForeignKey.html#a5cd45e4bc92ac5975975753e459b4c8c" target="_top" xlink:title="ZendDbSchema_Db_Schema\l_Table_ForeignKey\\getColumns">
<polygon fill="white" stroke="black" points="585,-145 585,-179 741,-179 741,-145 585,-145"/>
<text text-anchor="start" x="593" y="-166" font-family="Helvetica,sans-Serif" font-size="10.00">ZendDbSchema_Db_Schema</text>
<text text-anchor="middle" x="663" y="-153" font-family="Helvetica,sans-Serif" font-size="10.00">_Table_ForeignKey\getColumns</text>
</a>
</g>
<!-- Node11&#45;&gt;Node12 -->
<g id="edge24" class="edge"><title>Node11&#45;&gt;Node12</title>
<path fill="none" stroke="midnightblue" d="M328.413,-150.519C397.546,-152.891 501.195,-156.448 574.787,-158.973"/>
<polygon fill="midnightblue" stroke="midnightblue" points="574.851,-162.477 584.965,-159.322 575.091,-155.481 574.851,-162.477"/>
</g>
<!-- Node13 -->
<g id="node27" class="node"><title>Node13</title>
<a xlink:href="classZendDbSchema__Db__Schema__Table__ForeignKey.html#a39c9a3febcb98b77692566eed81220c7" target="_top" xlink:title="ZendDbSchema_Db_Schema\l_Table_ForeignKey\\getReferences">
<polygon fill="white" stroke="black" points="579.5,-93 579.5,-127 746.5,-127 746.5,-93 579.5,-93"/>
<text text-anchor="start" x="587.5" y="-114" font-family="Helvetica,sans-Serif" font-size="10.00">ZendDbSchema_Db_Schema</text>
<text text-anchor="middle" x="663" y="-101" font-family="Helvetica,sans-Serif" font-size="10.00">_Table_ForeignKey\getReferences</text>
</a>
</g>
<!-- Node11&#45;&gt;Node13 -->
<g id="edge28" class="edge"><title>Node11&#45;&gt;Node13</title>
<path fill="none" stroke="midnightblue" d="M328.413,-141.162C395.793,-134.887 495.961,-125.558 569.132,-118.743"/>
<polygon fill="midnightblue" stroke="midnightblue" points="569.64,-122.211 579.272,-117.798 568.99,-115.241 569.64,-122.211"/>
</g>
<!-- Node14 -->
<g id="node30" class="node"><title>Node14</title>
<a xlink:href="classZendDbSchema__Db__Schema__Table__ForeignKey.html#a83644a5b874f111e17dbf08ffa3ea803" target="_top" xlink:title="ZendDbSchema_Db_Schema\l_Table_ForeignKey\\getOnDelete">
<polygon fill="white" stroke="black" points="584,-41 584,-75 742,-75 742,-41 584,-41"/>
<text text-anchor="start" x="592" y="-62" font-family="Helvetica,sans-Serif" font-size="10.00">ZendDbSchema_Db_Schema</text>
<text text-anchor="middle" x="663" y="-49" font-family="Helvetica,sans-Serif" font-size="10.00">_Table_ForeignKey\getOnDelete</text>
</a>
</g>
<!-- Node11&#45;&gt;Node14 -->
<g id="edge32" class="edge"><title>Node11&#45;&gt;Node14</title>
<path fill="none" stroke="midnightblue" d="M328.107,-127.116C340.066,-123.92 352.352,-120.768 364,-118 434.118,-101.337 514.208,-85.4303 573.84,-74.1866"/>
<polygon fill="midnightblue" stroke="midnightblue" points="574.795,-77.5684 583.978,-72.2828 573.503,-70.6886 574.795,-77.5684"/>
</g>
<!-- Node15 -->
<g id="node33" class="node"><title>Node15</title>
<a xlink:href="classZendDbSchema__Db__Schema__Table__ForeignKey.html#afb55f45baab8357ce8c295e4d71bf700" target="_top" xlink:title="ZendDbSchema_Db_Schema\l_Table_ForeignKey\\getOnUpdate">
<polygon fill="white" stroke="black" points="370.5,-0 370.5,-34 531.5,-34 531.5,-0 370.5,-0"/>
<text text-anchor="start" x="378.5" y="-21" font-family="Helvetica,sans-Serif" font-size="10.00">ZendDbSchema_Db_Schema</text>
<text text-anchor="middle" x="451" y="-8" font-family="Helvetica,sans-Serif" font-size="10.00">_Table_ForeignKey\getOnUpdate</text>
</a>
</g>
<!-- Node11&#45;&gt;Node15 -->
<g id="edge36" class="edge"><title>Node11&#45;&gt;Node15</title>
<path fill="none" stroke="midnightblue" d="M278.481,-124.355C299.53,-104.081 331.946,-75.0551 364,-55 373.834,-48.847 384.837,-43.2049 395.623,-38.258"/>
<polygon fill="midnightblue" stroke="midnightblue" points="397.288,-41.3482 405.01,-34.0943 394.45,-34.9494 397.288,-41.3482"/>
</g>
<!-- Node12&#45;&gt;Node9 -->
<g id="edge26" class="edge"><title>Node12&#45;&gt;Node9</title>
<path fill="none" stroke="midnightblue" d="M727.833,-144.973C746.465,-140.08 766.937,-134.703 786.123,-129.665"/>
<polygon fill="midnightblue" stroke="midnightblue" points="787.239,-132.99 796.022,-127.065 785.461,-126.22 787.239,-132.99"/>
</g>
<!-- Node13&#45;&gt;Node9 -->
<g id="edge30" class="edge"><title>Node13&#45;&gt;Node9</title>
<path fill="none" stroke="midnightblue" d="M746.683,-110C756.973,-110 767.49,-110 777.774,-110"/>
<polygon fill="midnightblue" stroke="midnightblue" points="777.963,-113.5 787.963,-110 777.963,-106.5 777.963,-113.5"/>
</g>
<!-- Node14&#45;&gt;Node9 -->
<g id="edge34" class="edge"><title>Node14&#45;&gt;Node9</title>
<path fill="none" stroke="midnightblue" d="M727.833,-75.0267C746.465,-79.92 766.937,-85.2967 786.123,-90.3353"/>
<polygon fill="midnightblue" stroke="midnightblue" points="785.461,-93.78 796.022,-92.935 787.239,-87.0096 785.461,-93.78"/>
</g>
<!-- Node15&#45;&gt;Node9 -->
<g id="edge38" class="edge"><title>Node15&#45;&gt;Node9</title>
<path fill="none" stroke="midnightblue" d="M531.61,-8.91084C593.611,-5.53482 680.486,-7.06788 752,-32 784.538,-43.3436 815.904,-67.6626 836.567,-86.1504"/>
<polygon fill="midnightblue" stroke="midnightblue" points="834.206,-88.734 843.943,-92.9113 838.936,-83.5739 834.206,-88.734"/>
</g>
</g>
</svg>
