<?xml version="1.0" encoding="UTF-8" standalone="no"?>
<!DOCTYPE svg PUBLIC "-//W3C//DTD SVG 1.1//EN"
 "http://www.w3.org/Graphics/SVG/1.1/DTD/svg11.dtd">
<!-- Generated by graphviz version 2.26.3 (20100126.1600)
 -->
<!-- Title: G Pages: 1 -->
<svg width="942pt" height="221pt"
 viewBox="0.00 0.00 942.00 220.83" xmlns="http://www.w3.org/2000/svg" xmlns:xlink="http://www.w3.org/1999/xlink">
<g id="graph1" class="graph" transform="scale(1 1) rotate(0) translate(4 216.83)">
<title>G</title>
<polygon fill="white" stroke="white" points="-4,5 -4,-216.83 939,-216.83 939,5 -4,5"/>
<!-- Node1 -->
<g id="node1" class="node"><title>Node1</title>
<polygon fill="#bfbfbf" stroke="black" points="0,-90.5 0,-137.5 146,-137.5 146,-90.5 0,-90.5"/>
<text text-anchor="start" x="8" y="-124.5" font-family="Helvetica,sans-Serif" font-size="10.00">ZendDbSchema_Db_Schema</text>
<text text-anchor="start" x="8" y="-111.5" font-family="Helvetica,sans-Serif" font-size="10.00">_Generator_Mysql_Table</text>
<text text-anchor="middle" x="73" y="-98.5" font-family="Helvetica,sans-Serif" font-size="10.00">\createIndex</text>
</g>
<!-- Node2 -->
<g id="node3" class="node"><title>Node2</title>
<a xlink:href="classZendDbSchema__Db__Schema__AbstractSchema.html#a55787c21deddba427842809d589c2df6" target="_top" xlink:title="ZendDbSchema_Db_Schema\l_AbstractSchema\\getName">
<polygon fill="white" stroke="black" points="378,-163 378,-197 524,-197 524,-163 378,-163"/>
<text text-anchor="start" x="386" y="-184" font-family="Helvetica,sans-Serif" font-size="10.00">ZendDbSchema_Db_Schema</text>
<text text-anchor="middle" x="451" y="-171" font-family="Helvetica,sans-Serif" font-size="10.00">_AbstractSchema\getName</text>
</a>
</g>
<!-- Node1&#45;&gt;Node2 -->
<g id="edge2" class="edge"><title>Node1&#45;&gt;Node2</title>
<path fill="none" stroke="midnightblue" d="M94.0862,-137.605C114.286,-158.297 146.825,-186.906 182,-199 247.437,-221.498 326.98,-211.685 382.529,-199.37"/>
<polygon fill="midnightblue" stroke="midnightblue" points="383.653,-202.703 392.613,-197.049 382.083,-195.882 383.653,-202.703"/>
</g>
<!-- Node5 -->
<g id="node9" class="node"><title>Node5</title>
<a xlink:href="classZendDbSchema__Db__Schema__Table__AbstractDefinition.html#a224b6a0c1df1d6ed40e03657782ef6fc" target="_top" xlink:title="ZendDbSchema_Db_Schema\l_Table_AbstractDefinition\l\\getTable">
<polygon fill="white" stroke="black" points="378,-97.5 378,-144.5 524,-144.5 524,-97.5 378,-97.5"/>
<text text-anchor="start" x="386" y="-131.5" font-family="Helvetica,sans-Serif" font-size="10.00">ZendDbSchema_Db_Schema</text>
<text text-anchor="start" x="386" y="-118.5" font-family="Helvetica,sans-Serif" font-size="10.00">_Table_AbstractDefinition</text>
<text text-anchor="middle" x="451" y="-105.5" font-family="Helvetica,sans-Serif" font-size="10.00">\getTable</text>
</a>
</g>
<!-- Node1&#45;&gt;Node5 -->
<g id="edge8" class="edge"><title>Node1&#45;&gt;Node5</title>
<path fill="none" stroke="midnightblue" d="M146.33,-115.358C209.71,-116.532 301.288,-118.228 367.477,-119.453"/>
<polygon fill="midnightblue" stroke="midnightblue" points="367.811,-122.96 377.874,-119.646 367.94,-115.961 367.811,-122.96"/>
</g>
<!-- Node6 -->
<g id="node11" class="node"><title>Node6</title>
<a xlink:href="classZendDbSchema__Db__Schema__Table__Index.html#ad0edf2869c08ce408566798f4305b8dc" target="_top" xlink:title="ZendDbSchema_Db_Schema\l_Table_Index\\getColumns">
<polygon fill="white" stroke="black" points="182,-52 182,-86 328,-86 328,-52 182,-52"/>
<text text-anchor="start" x="190" y="-73" font-family="Helvetica,sans-Serif" font-size="10.00">ZendDbSchema_Db_Schema</text>
<text text-anchor="middle" x="255" y="-60" font-family="Helvetica,sans-Serif" font-size="10.00">_Table_Index\getColumns</text>
</a>
</g>
<!-- Node1&#45;&gt;Node6 -->
<g id="edge10" class="edge"><title>Node1&#45;&gt;Node6</title>
<path fill="none" stroke="midnightblue" d="M146.24,-95.8913C156.092,-93.4552 166.234,-90.9475 176.179,-88.4888"/>
<polygon fill="midnightblue" stroke="midnightblue" points="177.171,-91.8488 186.039,-86.0508 175.491,-85.0534 177.171,-91.8488"/>
</g>
<!-- Node7 -->
<g id="node14" class="node"><title>Node7</title>
<a xlink:href="classZendDbSchema__Db__Schema__AbstractSchema.html#a1680a8fd22360f74d29b641d7257a52f" target="_top" xlink:title="ZendDbSchema_Db_Schema\l_AbstractSchema\\isExist">
<polygon fill="white" stroke="black" points="182,-0 182,-34 328,-34 328,-0 182,-0"/>
<text text-anchor="start" x="190" y="-21" font-family="Helvetica,sans-Serif" font-size="10.00">ZendDbSchema_Db_Schema</text>
<text text-anchor="middle" x="255" y="-8" font-family="Helvetica,sans-Serif" font-size="10.00">_AbstractSchema\isExist</text>
</a>
</g>
<!-- Node1&#45;&gt;Node7 -->
<g id="edge14" class="edge"><title>Node1&#45;&gt;Node7</title>
<path fill="none" stroke="midnightblue" d="M104.722,-90.4762C125.859,-75.5331 154.677,-56.5285 182,-43 185.495,-41.2697 189.133,-39.598 192.839,-37.9937"/>
<polygon fill="midnightblue" stroke="midnightblue" points="194.239,-41.2025 202.145,-34.1498 191.566,-34.7328 194.239,-41.2025"/>
</g>
<!-- Node10 -->
<g id="node20" class="node"><title>Node10</title>
<a xlink:href="classZendDbSchema__Db__Schema__Generator__Mysql__Table.html#acb80829a10a192635417efba5b9d5439" target="_top" xlink:title="ZendDbSchema_Db_Schema\l_Generator_Mysql_Table\l\\dropIndex">
<polygon fill="white" stroke="black" points="182,-142.5 182,-189.5 328,-189.5 328,-142.5 182,-142.5"/>
<text text-anchor="start" x="190" y="-176.5" font-family="Helvetica,sans-Serif" font-size="10.00">ZendDbSchema_Db_Schema</text>
<text text-anchor="start" x="190" y="-163.5" font-family="Helvetica,sans-Serif" font-size="10.00">_Generator_Mysql_Table</text>
<text text-anchor="middle" x="255" y="-150.5" font-family="Helvetica,sans-Serif" font-size="10.00">\dropIndex</text>
</a>
</g>
<!-- Node1&#45;&gt;Node10 -->
<g id="edge20" class="edge"><title>Node1&#45;&gt;Node10</title>
<path fill="none" stroke="midnightblue" d="M146.24,-134.926C154.78,-137.366 163.537,-139.868 172.195,-142.341"/>
<polygon fill="midnightblue" stroke="midnightblue" points="171.333,-145.735 181.91,-145.117 173.257,-139.005 171.333,-145.735"/>
</g>
<!-- Node3 -->
<g id="node5" class="node"><title>Node3</title>
<a xlink:href="classZendDbSchema__Db__Schema__AbstractSchema.html#a54d32c6f15463eaad2321a9f0e7225d7" target="_top" xlink:title="ZendDbSchema_Db_Schema\l_AbstractSchema\\__get">
<polygon fill="white" stroke="black" points="590,-107 590,-141 736,-141 736,-107 590,-107"/>
<text text-anchor="start" x="598" y="-128" font-family="Helvetica,sans-Serif" font-size="10.00">ZendDbSchema_Db_Schema</text>
<text text-anchor="middle" x="663" y="-115" font-family="Helvetica,sans-Serif" font-size="10.00">_AbstractSchema\__get</text>
</a>
</g>
<!-- Node2&#45;&gt;Node3 -->
<g id="edge4" class="edge"><title>Node2&#45;&gt;Node3</title>
<path fill="none" stroke="midnightblue" d="M515.47,-162.97C538.597,-156.861 564.857,-149.925 588.746,-143.614"/>
<polygon fill="midnightblue" stroke="midnightblue" points="589.696,-146.983 598.471,-141.045 587.909,-140.215 589.696,-146.983"/>
</g>
<!-- Node4 -->
<g id="node7" class="node"><title>Node4</title>
<a xlink:href="classZendDbSchema__Db__Schema__AbstractSchema.html#ac4e121ba7932163eb1950fabe06fb9db" target="_top" xlink:title="ZendDbSchema_Db_Schema\l_AbstractSchema\\__isset">
<polygon fill="white" stroke="black" points="788,-107 788,-141 934,-141 934,-107 788,-107"/>
<text text-anchor="start" x="796" y="-128" font-family="Helvetica,sans-Serif" font-size="10.00">ZendDbSchema_Db_Schema</text>
<text text-anchor="middle" x="861" y="-115" font-family="Helvetica,sans-Serif" font-size="10.00">_AbstractSchema\__isset</text>
</a>
</g>
<!-- Node3&#45;&gt;Node4 -->
<g id="edge6" class="edge"><title>Node3&#45;&gt;Node4</title>
<path fill="none" stroke="midnightblue" d="M736.165,-124C749.596,-124 763.71,-124 777.419,-124"/>
<polygon fill="midnightblue" stroke="midnightblue" points="777.805,-127.5 787.805,-124 777.805,-120.5 777.805,-127.5"/>
</g>
<!-- Node6&#45;&gt;Node3 -->
<g id="edge12" class="edge"><title>Node6&#45;&gt;Node3</title>
<path fill="none" stroke="midnightblue" d="M328.218,-69.6417C385.661,-71.1711 467.431,-75.6155 538,-88 559.601,-91.7908 582.8,-97.8858 603.278,-103.991"/>
<polygon fill="midnightblue" stroke="midnightblue" points="602.507,-107.415 613.093,-106.98 604.545,-100.719 602.507,-107.415"/>
</g>
<!-- Node8 -->
<g id="node16" class="node"><title>Node8</title>
<a xlink:href="classZendDbSchema__Db__Schema__AbstractSchema.html#a46da7a60c7e5fd605607afbc1dac4baa" target="_top" xlink:title="ZendDbSchema_Db_Schema\l_AbstractSchema\\getCleanSchema">
<polygon fill="white" stroke="black" points="364.5,-0 364.5,-34 537.5,-34 537.5,-0 364.5,-0"/>
<text text-anchor="start" x="372.5" y="-21" font-family="Helvetica,sans-Serif" font-size="10.00">ZendDbSchema_Db_Schema</text>
<text text-anchor="middle" x="451" y="-8" font-family="Helvetica,sans-Serif" font-size="10.00">_AbstractSchema\getCleanSchema</text>
</a>
</g>
<!-- Node7&#45;&gt;Node8 -->
<g id="edge16" class="edge"><title>Node7&#45;&gt;Node8</title>
<path fill="none" stroke="midnightblue" d="M328.262,-17C336.702,-17 345.405,-17 354.095,-17"/>
<polygon fill="midnightblue" stroke="midnightblue" points="354.276,-20.5001 364.276,-17 354.276,-13.5001 354.276,-20.5001"/>
</g>
<!-- Node9 -->
<g id="node18" class="node"><title>Node9</title>
<a xlink:href="classZendDbSchema__Db__Schema__AbstractSchema.html#af99e5bb9adfe0da8c94d3d3848efe7b5" target="_top" xlink:title="ZendDbSchema_Db_Schema\l_AbstractSchema\\_getCleanSchema">
<polygon fill="white" stroke="black" points="574,-0 574,-34 752,-34 752,-0 574,-0"/>
<text text-anchor="start" x="582" y="-21" font-family="Helvetica,sans-Serif" font-size="10.00">ZendDbSchema_Db_Schema</text>
<text text-anchor="middle" x="663" y="-8" font-family="Helvetica,sans-Serif" font-size="10.00">_AbstractSchema\_getCleanSchema</text>
</a>
</g>
<!-- Node8&#45;&gt;Node9 -->
<g id="edge18" class="edge"><title>Node8&#45;&gt;Node9</title>
<path fill="none" stroke="midnightblue" d="M537.534,-17C546.175,-17 554.994,-17 563.752,-17"/>
<polygon fill="midnightblue" stroke="midnightblue" points="563.99,-20.5001 573.99,-17 563.99,-13.5001 563.99,-20.5001"/>
</g>
<!-- Node10&#45;&gt;Node2 -->
<g id="edge22" class="edge"><title>Node10&#45;&gt;Node2</title>
<path fill="none" stroke="midnightblue" d="M328.262,-171.233C341.046,-172.146 354.43,-173.102 367.466,-174.033"/>
<polygon fill="midnightblue" stroke="midnightblue" points="367.603,-177.552 377.827,-174.773 368.102,-170.57 367.603,-177.552"/>
</g>
<!-- Node10&#45;&gt;Node5 -->
<g id="edge24" class="edge"><title>Node10&#45;&gt;Node5</title>
<path fill="none" stroke="midnightblue" d="M328.262,-149.18C341.172,-146.216 354.695,-143.111 367.853,-140.09"/>
<polygon fill="midnightblue" stroke="midnightblue" points="368.864,-143.449 377.827,-137.8 367.297,-136.626 368.864,-143.449"/>
</g>
</g>
</svg>
