<?xml version="1.0" encoding="UTF-8" standalone="no"?>
<!DOCTYPE svg PUBLIC "-//W3C//DTD SVG 1.1//EN"
 "http://www.w3.org/Graphics/SVG/1.1/DTD/svg11.dtd">
<!-- Generated by graphviz version 2.26.3 (20100126.1600)
 -->
<!-- Title: G Pages: 1 -->
<svg width="718pt" height="42pt"
 viewBox="0.00 0.00 718.00 42.00" xmlns="http://www.w3.org/2000/svg" xmlns:xlink="http://www.w3.org/1999/xlink">
<g id="graph1" class="graph" transform="scale(1 1) rotate(0) translate(4 38)">
<title>G</title>
<polygon fill="white" stroke="white" points="-4,5 -4,-38 715,-38 715,5 -4,5"/>
<!-- Node1 -->
<g id="node1" class="node"><title>Node1</title>
<polygon fill="#bfbfbf" stroke="black" points="0.5,-0 0.5,-34 153.5,-34 153.5,-0 0.5,-0"/>
<text text-anchor="start" x="8.5" y="-21" font-family="Helvetica,sans-Serif" font-size="10.00">ZendDbSchema_Db_Schema</text>
<text text-anchor="middle" x="77" y="-8" font-family="Helvetica,sans-Serif" font-size="10.00">_Table_ForeignKey\hasColumn</text>
</g>
<!-- Node2 -->
<g id="node3" class="node"><title>Node2</title>
<a xlink:href="classZendDbSchema__Db__Schema__Table__ForeignKey.html#a5cd45e4bc92ac5975975753e459b4c8c" target="_top" xlink:title="ZendDbSchema_Db_Schema\l_Table_ForeignKey\\getColumns">
<polygon fill="white" stroke="black" points="190,-0 190,-34 346,-34 346,-0 190,-0"/>
<text text-anchor="start" x="198" y="-21" font-family="Helvetica,sans-Serif" font-size="10.00">ZendDbSchema_Db_Schema</text>
<text text-anchor="middle" x="268" y="-8" font-family="Helvetica,sans-Serif" font-size="10.00">_Table_ForeignKey\getColumns</text>
</a>
</g>
<!-- Node1&#45;&gt;Node2 -->
<g id="edge2" class="edge"><title>Node1&#45;&gt;Node2</title>
<path fill="none" stroke="midnightblue" d="M153.586,-17C162.165,-17 170.955,-17 179.666,-17"/>
<polygon fill="midnightblue" stroke="midnightblue" points="179.837,-20.5001 189.837,-17 179.837,-13.5001 179.837,-20.5001"/>
</g>
<!-- Node3 -->
<g id="node5" class="node"><title>Node3</title>
<a xlink:href="classZendDbSchema__Db__Schema__AbstractSchema.html#a54d32c6f15463eaad2321a9f0e7225d7" target="_top" xlink:title="ZendDbSchema_Db_Schema\l_AbstractSchema\\__get">
<polygon fill="white" stroke="black" points="382,-0 382,-34 528,-34 528,-0 382,-0"/>
<text text-anchor="start" x="390" y="-21" font-family="Helvetica,sans-Serif" font-size="10.00">ZendDbSchema_Db_Schema</text>
<text text-anchor="middle" x="455" y="-8" font-family="Helvetica,sans-Serif" font-size="10.00">_AbstractSchema\__get</text>
</a>
</g>
<!-- Node2&#45;&gt;Node3 -->
<g id="edge4" class="edge"><title>Node2&#45;&gt;Node3</title>
<path fill="none" stroke="midnightblue" d="M346.221,-17C354.617,-17 363.182,-17 371.636,-17"/>
<polygon fill="midnightblue" stroke="midnightblue" points="371.872,-20.5001 381.872,-17 371.872,-13.5001 371.872,-20.5001"/>
</g>
<!-- Node4 -->
<g id="node7" class="node"><title>Node4</title>
<a xlink:href="classZendDbSchema__Db__Schema__AbstractSchema.html#ac4e121ba7932163eb1950fabe06fb9db" target="_top" xlink:title="ZendDbSchema_Db_Schema\l_AbstractSchema\\__isset">
<polygon fill="white" stroke="black" points="564,-0 564,-34 710,-34 710,-0 564,-0"/>
<text text-anchor="start" x="572" y="-21" font-family="Helvetica,sans-Serif" font-size="10.00">ZendDbSchema_Db_Schema</text>
<text text-anchor="middle" x="637" y="-8" font-family="Helvetica,sans-Serif" font-size="10.00">_AbstractSchema\__isset</text>
</a>
</g>
<!-- Node3&#45;&gt;Node4 -->
<g id="edge6" class="edge"><title>Node3&#45;&gt;Node4</title>
<path fill="none" stroke="midnightblue" d="M528.24,-17C536.596,-17 545.161,-17 553.636,-17"/>
<polygon fill="midnightblue" stroke="midnightblue" points="553.91,-20.5001 563.91,-17 553.91,-13.5001 553.91,-20.5001"/>
</g>
</g>
</svg>
