<?xml version="1.0" encoding="UTF-8" standalone="no"?>
<!DOCTYPE svg PUBLIC "-//W3C//DTD SVG 1.1//EN"
 "http://www.w3.org/Graphics/SVG/1.1/DTD/svg11.dtd">
<!-- Generated by graphviz version 2.26.3 (20100126.1600)
 -->
<!-- Title: G Pages: 1 -->
<svg width="1234pt" height="70pt"
 viewBox="0.00 0.00 1234.00 70.00" xmlns="http://www.w3.org/2000/svg" xmlns:xlink="http://www.w3.org/1999/xlink">
<g id="graph1" class="graph" transform="scale(1 1) rotate(0) translate(4 66)">
<title>G</title>
<polygon fill="white" stroke="white" points="-4,5 -4,-66 1231,-66 1231,5 -4,5"/>
<!-- Node1 -->
<g id="node1" class="node"><title>Node1</title>
<polygon fill="#bfbfbf" stroke="black" points="0,-20.5 0,-41.5 338,-41.5 338,-20.5 0,-20.5"/>
<text text-anchor="middle" x="169" y="-28.5" font-family="Helvetica,sans-Serif" font-size="10.00">ZendDbSchema_Db_Schema_Generator_Mysql\generateDatabaseCreate</text>
</g>
<!-- Node2 -->
<g id="node3" class="node"><title>Node2</title>
<a xlink:href="classZendDbSchema__Db__Schema__AbstractSchema.html#a55787c21deddba427842809d589c2df6" target="_top" xlink:title="ZendDbSchema_Db_Schema_AbstractSchema\\getName">
<polygon fill="white" stroke="black" points="374.5,-40.5 374.5,-61.5 641.5,-61.5 641.5,-40.5 374.5,-40.5"/>
<text text-anchor="middle" x="508" y="-48.5" font-family="Helvetica,sans-Serif" font-size="10.00">ZendDbSchema_Db_Schema_AbstractSchema\getName</text>
</a>
</g>
<!-- Node1&#45;&gt;Node2 -->
<g id="edge2" class="edge"><title>Node1&#45;&gt;Node2</title>
<path fill="none" stroke="midnightblue" d="M338.003,-40.9707C346.705,-41.4841 355.409,-41.9976 364.023,-42.5058"/>
<polygon fill="midnightblue" stroke="midnightblue" points="363.899,-46.0044 374.088,-43.0996 364.311,-39.0166 363.899,-46.0044"/>
</g>
<!-- Node5 -->
<g id="node9" class="node"><title>Node5</title>
<a xlink:href="classZendDbSchema__Db__Schema__Database.html#a71126f98bb7da60fcd0ac00c101467c8" target="_top" xlink:title="ZendDbSchema_Db_Schema_Database\\getCharset">
<polygon fill="white" stroke="black" points="385.5,-0.5 385.5,-21.5 630.5,-21.5 630.5,-0.5 385.5,-0.5"/>
<text text-anchor="middle" x="508" y="-8.5" font-family="Helvetica,sans-Serif" font-size="10.00">ZendDbSchema_Db_Schema_Database\getCharset</text>
</a>
</g>
<!-- Node1&#45;&gt;Node5 -->
<g id="edge8" class="edge"><title>Node1&#45;&gt;Node5</title>
<path fill="none" stroke="midnightblue" d="M338.003,-21.0293C350.442,-20.2954 362.884,-19.5614 375.062,-18.8429"/>
<polygon fill="midnightblue" stroke="midnightblue" points="375.447,-22.3264 385.224,-18.2434 375.035,-15.3385 375.447,-22.3264"/>
</g>
<!-- Node3 -->
<g id="node5" class="node"><title>Node3</title>
<a xlink:href="classZendDbSchema__Db__Schema__AbstractSchema.html#a54d32c6f15463eaad2321a9f0e7225d7" target="_top" xlink:title="ZendDbSchema_Db_Schema_AbstractSchema\\__get">
<polygon fill="white" stroke="black" points="678.5,-20.5 678.5,-41.5 929.5,-41.5 929.5,-20.5 678.5,-20.5"/>
<text text-anchor="middle" x="804" y="-28.5" font-family="Helvetica,sans-Serif" font-size="10.00">ZendDbSchema_Db_Schema_AbstractSchema\__get</text>
</a>
</g>
<!-- Node2&#45;&gt;Node3 -->
<g id="edge4" class="edge"><title>Node2&#45;&gt;Node3</title>
<path fill="none" stroke="midnightblue" d="M641.711,-41.9655C650.411,-41.3777 659.176,-40.7854 667.887,-40.1968"/>
<polygon fill="midnightblue" stroke="midnightblue" points="668.338,-43.6744 678.08,-39.5081 667.866,-36.6903 668.338,-43.6744"/>
</g>
<!-- Node4 -->
<g id="node7" class="node"><title>Node4</title>
<a xlink:href="classZendDbSchema__Db__Schema__AbstractSchema.html#ac4e121ba7932163eb1950fabe06fb9db" target="_top" xlink:title="ZendDbSchema_Db_Schema_AbstractSchema\\__isset">
<polygon fill="white" stroke="black" points="966.5,-20.5 966.5,-41.5 1225.5,-41.5 1225.5,-20.5 966.5,-20.5"/>
<text text-anchor="middle" x="1096" y="-28.5" font-family="Helvetica,sans-Serif" font-size="10.00">ZendDbSchema_Db_Schema_AbstractSchema\__isset</text>
</a>
</g>
<!-- Node3&#45;&gt;Node4 -->
<g id="edge6" class="edge"><title>Node3&#45;&gt;Node4</title>
<path fill="none" stroke="midnightblue" d="M929.529,-31C938.401,-31 947.376,-31 956.32,-31"/>
<polygon fill="midnightblue" stroke="midnightblue" points="956.397,-34.5001 966.397,-31 956.397,-27.5001 956.397,-34.5001"/>
</g>
<!-- Node5&#45;&gt;Node3 -->
<g id="edge10" class="edge"><title>Node5&#45;&gt;Node3</title>
<path fill="none" stroke="midnightblue" d="M630.531,-19.2791C642.955,-20.1186 655.627,-20.9748 668.18,-21.823"/>
<polygon fill="midnightblue" stroke="midnightblue" points="668.002,-25.3188 678.215,-22.501 668.474,-18.3348 668.002,-25.3188"/>
</g>
</g>
</svg>
