<?xml version="1.0" encoding="UTF-8" standalone="no"?>
<!DOCTYPE svg PUBLIC "-//W3C//DTD SVG 1.1//EN"
 "http://www.w3.org/Graphics/SVG/1.1/DTD/svg11.dtd">
<!-- Generated by graphviz version 2.26.3 (20100126.1600)
 -->
<!-- Title: G Pages: 1 -->
<svg width="518pt" height="198pt"
 viewBox="0.00 0.00 518.00 198.00" xmlns="http://www.w3.org/2000/svg" xmlns:xlink="http://www.w3.org/1999/xlink">
<g id="graph1" class="graph" transform="scale(1 1) rotate(0) translate(4 194)">
<title>G</title>
<polygon fill="white" stroke="white" points="-4,5 -4,-194 515,-194 515,5 -4,5"/>
<!-- Node1 -->
<g id="node1" class="node"><title>Node1</title>
<polygon fill="#bfbfbf" stroke="black" points="0,-78 0,-112 146,-112 146,-78 0,-78"/>
<text text-anchor="start" x="8" y="-99" font-family="Helvetica,sans-Serif" font-size="10.00">ZendDbSchema_Db_Schema</text>
<text text-anchor="middle" x="73" y="-86" font-family="Helvetica,sans-Serif" font-size="10.00">_Table\__clone</text>
</g>
<!-- Node2 -->
<g id="node3" class="node"><title>Node2</title>
<a xlink:href="classZendDbSchema__Db__Schema__Table.html#aad47d08cebd042ad8e64d825b65859ab" target="_top" xlink:title="ZendDbSchema_Db_Schema\l_Table\\toArray">
<polygon fill="white" stroke="black" points="182,-104 182,-138 328,-138 328,-104 182,-104"/>
<text text-anchor="start" x="190" y="-125" font-family="Helvetica,sans-Serif" font-size="10.00">ZendDbSchema_Db_Schema</text>
<text text-anchor="middle" x="255" y="-112" font-family="Helvetica,sans-Serif" font-size="10.00">_Table\toArray</text>
</a>
</g>
<!-- Node1&#45;&gt;Node2 -->
<g id="edge2" class="edge"><title>Node1&#45;&gt;Node2</title>
<path fill="none" stroke="midnightblue" d="M146.24,-105.463C154.688,-106.67 163.349,-107.907 171.916,-109.131"/>
<polygon fill="midnightblue" stroke="midnightblue" points="171.516,-112.609 181.91,-110.559 172.506,-105.679 171.516,-112.609"/>
</g>
<!-- Node7 -->
<g id="node13" class="node"><title>Node7</title>
<a xlink:href="classZendDbSchema__Db__Schema__Table.html#abeba5309be6269e72b2818fcabc01fec" target="_top" xlink:title="ZendDbSchema_Db_Schema\l_Table\\setFromArray">
<polygon fill="white" stroke="black" points="182,-52 182,-86 328,-86 328,-52 182,-52"/>
<text text-anchor="start" x="190" y="-73" font-family="Helvetica,sans-Serif" font-size="10.00">ZendDbSchema_Db_Schema</text>
<text text-anchor="middle" x="255" y="-60" font-family="Helvetica,sans-Serif" font-size="10.00">_Table\setFromArray</text>
</a>
</g>
<!-- Node1&#45;&gt;Node7 -->
<g id="edge12" class="edge"><title>Node1&#45;&gt;Node7</title>
<path fill="none" stroke="midnightblue" d="M146.24,-84.5372C154.688,-83.3303 163.349,-82.093 171.916,-80.8692"/>
<polygon fill="midnightblue" stroke="midnightblue" points="172.506,-84.3205 181.91,-79.4414 171.516,-77.3909 172.506,-84.3205"/>
</g>
<!-- Node3 -->
<g id="node5" class="node"><title>Node3</title>
<a xlink:href="classZendDbSchema__Db__Schema__Table.html#a214354faa96de67a26b787c2c8741850" target="_top" xlink:title="ZendDbSchema_Db_Schema\l_Table\\columns">
<polygon fill="white" stroke="black" points="364,-52 364,-86 510,-86 510,-52 364,-52"/>
<text text-anchor="start" x="372" y="-73" font-family="Helvetica,sans-Serif" font-size="10.00">ZendDbSchema_Db_Schema</text>
<text text-anchor="middle" x="437" y="-60" font-family="Helvetica,sans-Serif" font-size="10.00">_Table\columns</text>
</a>
</g>
<!-- Node2&#45;&gt;Node3 -->
<g id="edge4" class="edge"><title>Node2&#45;&gt;Node3</title>
<path fill="none" stroke="midnightblue" d="M314.594,-103.973C331.406,-99.1697 349.848,-93.9005 367.202,-88.9424"/>
<polygon fill="midnightblue" stroke="midnightblue" points="368.619,-92.1776 377.273,-86.065 366.696,-85.4469 368.619,-92.1776"/>
</g>
<!-- Node4 -->
<g id="node7" class="node"><title>Node4</title>
<a xlink:href="classZendDbSchema__Db__Schema__Table.html#a9d445dd6a92cc3a50aa6d8dad8395f0a" target="_top" xlink:title="ZendDbSchema_Db_Schema\l_Table\\primary">
<polygon fill="white" stroke="black" points="364,-0 364,-34 510,-34 510,-0 364,-0"/>
<text text-anchor="start" x="372" y="-21" font-family="Helvetica,sans-Serif" font-size="10.00">ZendDbSchema_Db_Schema</text>
<text text-anchor="middle" x="437" y="-8" font-family="Helvetica,sans-Serif" font-size="10.00">_Table\primary</text>
</a>
</g>
<!-- Node2&#45;&gt;Node4 -->
<g id="edge6" class="edge"><title>Node2&#45;&gt;Node4</title>
<path fill="none" stroke="midnightblue" d="M313.717,-103.885C318.773,-101.301 323.621,-98.3544 328,-95 350.314,-77.906 341.686,-60.094 364,-43 365.779,-41.6373 367.635,-40.3418 369.552,-39.1106"/>
<polygon fill="midnightblue" stroke="midnightblue" points="371.341,-42.119 378.283,-34.115 367.865,-36.0432 371.341,-42.119"/>
</g>
<!-- Node5 -->
<g id="node9" class="node"><title>Node5</title>
<a xlink:href="classZendDbSchema__Db__Schema__Table.html#a47df29d95af8f655dd7506cfb649ec40" target="_top" xlink:title="ZendDbSchema_Db_Schema\l_Table\\indexes">
<polygon fill="white" stroke="black" points="364,-156 364,-190 510,-190 510,-156 364,-156"/>
<text text-anchor="start" x="372" y="-177" font-family="Helvetica,sans-Serif" font-size="10.00">ZendDbSchema_Db_Schema</text>
<text text-anchor="middle" x="437" y="-164" font-family="Helvetica,sans-Serif" font-size="10.00">_Table\indexes</text>
</a>
</g>
<!-- Node2&#45;&gt;Node5 -->
<g id="edge8" class="edge"><title>Node2&#45;&gt;Node5</title>
<path fill="none" stroke="midnightblue" d="M314.594,-138.027C331.406,-142.83 349.848,-148.1 367.202,-153.058"/>
<polygon fill="midnightblue" stroke="midnightblue" points="366.696,-156.553 377.273,-155.935 368.619,-149.822 366.696,-156.553"/>
</g>
<!-- Node6 -->
<g id="node11" class="node"><title>Node6</title>
<a xlink:href="classZendDbSchema__Db__Schema__Table.html#acff371c2884c9688b5ede2deaf09f25c" target="_top" xlink:title="ZendDbSchema_Db_Schema\l_Table\\foreigns">
<polygon fill="white" stroke="black" points="364,-104 364,-138 510,-138 510,-104 364,-104"/>
<text text-anchor="start" x="372" y="-125" font-family="Helvetica,sans-Serif" font-size="10.00">ZendDbSchema_Db_Schema</text>
<text text-anchor="middle" x="437" y="-112" font-family="Helvetica,sans-Serif" font-size="10.00">_Table\foreigns</text>
</a>
</g>
<!-- Node2&#45;&gt;Node6 -->
<g id="edge10" class="edge"><title>Node2&#45;&gt;Node6</title>
<path fill="none" stroke="midnightblue" d="M328.24,-121C336.596,-121 345.161,-121 353.636,-121"/>
<polygon fill="midnightblue" stroke="midnightblue" points="353.91,-124.5 363.91,-121 353.91,-117.5 353.91,-124.5"/>
</g>
<!-- Node7&#45;&gt;Node3 -->
<g id="edge14" class="edge"><title>Node7&#45;&gt;Node3</title>
<path fill="none" stroke="midnightblue" d="M328.24,-69C336.596,-69 345.161,-69 353.636,-69"/>
<polygon fill="midnightblue" stroke="midnightblue" points="353.91,-72.5001 363.91,-69 353.91,-65.5001 353.91,-72.5001"/>
</g>
<!-- Node7&#45;&gt;Node4 -->
<g id="edge20" class="edge"><title>Node7&#45;&gt;Node4</title>
<path fill="none" stroke="midnightblue" d="M314.594,-51.9733C331.406,-47.1697 349.848,-41.9005 367.202,-36.9424"/>
<polygon fill="midnightblue" stroke="midnightblue" points="368.619,-40.1776 377.273,-34.065 366.696,-33.4469 368.619,-40.1776"/>
</g>
<!-- Node7&#45;&gt;Node5 -->
<g id="edge16" class="edge"><title>Node7&#45;&gt;Node5</title>
<path fill="none" stroke="midnightblue" d="M313.717,-86.115C318.773,-88.6988 323.621,-91.6456 328,-95 350.314,-112.094 341.686,-129.906 364,-147 365.779,-148.363 367.635,-149.658 369.552,-150.889"/>
<polygon fill="midnightblue" stroke="midnightblue" points="367.865,-153.957 378.283,-155.885 371.341,-147.881 367.865,-153.957"/>
</g>
<!-- Node7&#45;&gt;Node6 -->
<g id="edge18" class="edge"><title>Node7&#45;&gt;Node6</title>
<path fill="none" stroke="midnightblue" d="M314.594,-86.0267C331.406,-90.8303 349.848,-96.0995 367.202,-101.058"/>
<polygon fill="midnightblue" stroke="midnightblue" points="366.696,-104.553 377.273,-103.935 368.619,-97.8224 366.696,-104.553"/>
</g>
</g>
</svg>
