<?xml version="1.0" encoding="UTF-8" standalone="no"?>
<!DOCTYPE svg PUBLIC "-//W3C//DTD SVG 1.1//EN"
 "http://www.w3.org/Graphics/SVG/1.1/DTD/svg11.dtd">
<!-- Generated by graphviz version 2.26.3 (20100126.1600)
 -->
<!-- Title: G Pages: 1 -->
<svg width="518pt" height="267pt"
 viewBox="0.00 0.00 518.00 267.00" xmlns="http://www.w3.org/2000/svg" xmlns:xlink="http://www.w3.org/1999/xlink">
<g id="graph1" class="graph" transform="scale(1 1) rotate(0) translate(4 263)">
<title>G</title>
<polygon fill="white" stroke="white" points="-4,5 -4,-263 515,-263 515,5 -4,5"/>
<!-- Node1 -->
<g id="node1" class="node"><title>Node1</title>
<polygon fill="#bfbfbf" stroke="black" points="0,-74 0,-108 146,-108 146,-74 0,-74"/>
<text text-anchor="start" x="8" y="-95" font-family="Helvetica,sans-Serif" font-size="10.00">ZendDbSchema_Db_Schema</text>
<text text-anchor="middle" x="73" y="-82" font-family="Helvetica,sans-Serif" font-size="10.00">_Table\primary</text>
</g>
<!-- Node2 -->
<g id="node3" class="node"><title>Node2</title>
<a xlink:href="classZendDbSchema__Db__Schema__Table.html#a21a2a75870207a989576655fec7507c3" target="_top" xlink:title="ZendDbSchema_Db_Schema\l_Table\\isDirty">
<polygon fill="white" stroke="black" points="182,-149 182,-183 328,-183 328,-149 182,-149"/>
<text text-anchor="start" x="190" y="-170" font-family="Helvetica,sans-Serif" font-size="10.00">ZendDbSchema_Db_Schema</text>
<text text-anchor="middle" x="255" y="-157" font-family="Helvetica,sans-Serif" font-size="10.00">_Table\isDirty</text>
</a>
</g>
<!-- Node1&#45;&gt;Node2 -->
<g id="edge2" class="edge"><title>Node1&#45;&gt;Node2</title>
<path fill="none" stroke="midnightblue" d="M123.635,-111.866C151.97,-123.543 186.853,-137.917 213.55,-148.919"/>
<polygon fill="midnightblue" stroke="midnightblue" points="124.878,-108.593 114.299,-108.019 122.211,-115.065 124.878,-108.593"/>
</g>
<!-- Node5 -->
<g id="node9" class="node"><title>Node5</title>
<a xlink:href="classZendDbSchema__Db__Schema__Table.html#a6178edaeea7e08d97e2196dd991532f9" target="_top" xlink:title="ZendDbSchema_Db_Schema\l_Table\\toSql">
<polygon fill="white" stroke="black" points="364,-93 364,-127 510,-127 510,-93 364,-93"/>
<text text-anchor="start" x="372" y="-114" font-family="Helvetica,sans-Serif" font-size="10.00">ZendDbSchema_Db_Schema</text>
<text text-anchor="middle" x="437" y="-101" font-family="Helvetica,sans-Serif" font-size="10.00">_Table\toSql</text>
</a>
</g>
<!-- Node1&#45;&gt;Node5 -->
<g id="edge18" class="edge"><title>Node1&#45;&gt;Node5</title>
<path fill="none" stroke="midnightblue" d="M156.464,-95.3566C219.07,-98.6245 303.946,-103.055 363.894,-106.184"/>
<polygon fill="midnightblue" stroke="midnightblue" points="156.392,-91.8482 146.223,-94.8221 156.027,-98.8387 156.392,-91.8482"/>
</g>
<!-- Node6 -->
<g id="node11" class="node"><title>Node6</title>
<a xlink:href="classZendDbSchema__Db__Schema__Table.html#abeba5309be6269e72b2818fcabc01fec" target="_top" xlink:title="ZendDbSchema_Db_Schema\l_Table\\setFromArray">
<polygon fill="white" stroke="black" points="182,-52 182,-86 328,-86 328,-52 182,-52"/>
<text text-anchor="start" x="190" y="-73" font-family="Helvetica,sans-Serif" font-size="10.00">ZendDbSchema_Db_Schema</text>
<text text-anchor="middle" x="255" y="-60" font-family="Helvetica,sans-Serif" font-size="10.00">_Table\setFromArray</text>
</a>
</g>
<!-- Node1&#45;&gt;Node6 -->
<g id="edge10" class="edge"><title>Node1&#45;&gt;Node6</title>
<path fill="none" stroke="midnightblue" d="M156.237,-80.9384C164.804,-79.9028 173.464,-78.8559 181.91,-77.835"/>
<polygon fill="midnightblue" stroke="midnightblue" points="155.747,-77.472 146.24,-82.1469 156.587,-84.4214 155.747,-77.472"/>
</g>
<!-- Node8 -->
<g id="node15" class="node"><title>Node8</title>
<a xlink:href="classZendDbSchema__Db__Schema__Table.html#aad47d08cebd042ad8e64d825b65859ab" target="_top" xlink:title="ZendDbSchema_Db_Schema\l_Table\\toArray">
<polygon fill="white" stroke="black" points="182,-0 182,-34 328,-34 328,-0 182,-0"/>
<text text-anchor="start" x="190" y="-21" font-family="Helvetica,sans-Serif" font-size="10.00">ZendDbSchema_Db_Schema</text>
<text text-anchor="middle" x="255" y="-8" font-family="Helvetica,sans-Serif" font-size="10.00">_Table\toArray</text>
</a>
</g>
<!-- Node1&#45;&gt;Node8 -->
<g id="edge14" class="edge"><title>Node1&#45;&gt;Node8</title>
<path fill="none" stroke="midnightblue" d="M119.213,-69.7619C138.489,-61.1353 161.195,-51.2732 182,-43 189.501,-40.0173 197.496,-37.0045 205.341,-34.1395"/>
<polygon fill="midnightblue" stroke="midnightblue" points="117.732,-66.5902 110.048,-73.8852 120.604,-72.9738 117.732,-66.5902"/>
</g>
<!-- Node3 -->
<g id="node5" class="node"><title>Node3</title>
<a xlink:href="classZendDbSchema__Db__Schema__Generator__Mysql__Table.html#ab073dc755f15a13bd94772846df4249c" target="_top" xlink:title="ZendDbSchema_Db_Schema\l_Generator_Mysql_Table\l\\alterTable">
<polygon fill="white" stroke="black" points="364,-211.5 364,-258.5 510,-258.5 510,-211.5 364,-211.5"/>
<text text-anchor="start" x="372" y="-245.5" font-family="Helvetica,sans-Serif" font-size="10.00">ZendDbSchema_Db_Schema</text>
<text text-anchor="start" x="372" y="-232.5" font-family="Helvetica,sans-Serif" font-size="10.00">_Generator_Mysql_Table</text>
<text text-anchor="middle" x="437" y="-219.5" font-family="Helvetica,sans-Serif" font-size="10.00">\alterTable</text>
</a>
</g>
<!-- Node2&#45;&gt;Node3 -->
<g id="edge4" class="edge"><title>Node2&#45;&gt;Node3</title>
<path fill="none" stroke="midnightblue" d="M309.493,-186.66C330.013,-194.439 353.501,-203.344 374.68,-211.373"/>
<polygon fill="midnightblue" stroke="midnightblue" points="310.58,-183.329 299.989,-183.056 308.099,-189.874 310.58,-183.329"/>
</g>
<!-- Node4 -->
<g id="node7" class="node"><title>Node4</title>
<a xlink:href="classZendDbSchema__Db__Schema__Generator__Pgsql__Table.html#a5273ef7520b31135bc524b432754762d" target="_top" xlink:title="ZendDbSchema_Db_Schema\l_Generator_Pgsql_Table\l\\alterTable">
<polygon fill="white" stroke="black" points="364,-145.5 364,-192.5 510,-192.5 510,-145.5 364,-145.5"/>
<text text-anchor="start" x="372" y="-179.5" font-family="Helvetica,sans-Serif" font-size="10.00">ZendDbSchema_Db_Schema</text>
<text text-anchor="start" x="372" y="-166.5" font-family="Helvetica,sans-Serif" font-size="10.00">_Generator_Pgsql_Table</text>
<text text-anchor="middle" x="437" y="-153.5" font-family="Helvetica,sans-Serif" font-size="10.00">\alterTable</text>
</a>
</g>
<!-- Node2&#45;&gt;Node4 -->
<g id="edge6" class="edge"><title>Node2&#45;&gt;Node4</title>
<path fill="none" stroke="midnightblue" d="M338.516,-167.377C346.992,-167.516 355.556,-167.658 363.91,-167.795"/>
<polygon fill="midnightblue" stroke="midnightblue" points="338.296,-163.873 328.24,-167.207 338.181,-170.872 338.296,-163.873"/>
</g>
<!-- Node2&#45;&gt;Node5 -->
<g id="edge8" class="edge"><title>Node2&#45;&gt;Node5</title>
<path fill="none" stroke="midnightblue" d="M320.306,-145.906C340.426,-139.715 362.371,-132.963 381.746,-127.001"/>
<polygon fill="midnightblue" stroke="midnightblue" points="319.123,-142.608 310.595,-148.894 321.182,-149.298 319.123,-142.608"/>
</g>
<!-- Node7 -->
<g id="node13" class="node"><title>Node7</title>
<a xlink:href="classZendDbSchema__Db__Schema__Table.html#a1fcef515c845c7770e17f997f80cafa9" target="_top" xlink:title="ZendDbSchema_Db_Schema\l_Table\\__clone">
<polygon fill="white" stroke="black" points="364,-22 364,-56 510,-56 510,-22 364,-22"/>
<text text-anchor="start" x="372" y="-43" font-family="Helvetica,sans-Serif" font-size="10.00">ZendDbSchema_Db_Schema</text>
<text text-anchor="middle" x="437" y="-30" font-family="Helvetica,sans-Serif" font-size="10.00">_Table\__clone</text>
</a>
</g>
<!-- Node6&#45;&gt;Node7 -->
<g id="edge12" class="edge"><title>Node6&#45;&gt;Node7</title>
<path fill="none" stroke="midnightblue" d="M338.237,-55.2797C346.804,-53.8674 355.464,-52.4399 363.91,-51.0478"/>
<polygon fill="midnightblue" stroke="midnightblue" points="337.537,-51.8476 328.24,-56.9275 338.676,-58.7544 337.537,-51.8476"/>
</g>
<!-- Node8&#45;&gt;Node7 -->
<g id="edge16" class="edge"><title>Node8&#45;&gt;Node7</title>
<path fill="none" stroke="midnightblue" d="M338.237,-27.0616C346.804,-28.0972 355.464,-29.1441 363.91,-30.165"/>
<polygon fill="midnightblue" stroke="midnightblue" points="338.587,-23.5786 328.24,-25.8531 337.747,-30.528 338.587,-23.5786"/>
</g>
</g>
</svg>
