<?xml version="1.0" encoding="UTF-8" standalone="no"?>
<!DOCTYPE svg PUBLIC "-//W3C//DTD SVG 1.1//EN"
 "http://www.w3.org/Graphics/SVG/1.1/DTD/svg11.dtd">
<!-- Generated by graphviz version 2.26.3 (20100126.1600)
 -->
<!-- Title: G Pages: 1 -->
<svg width="1124pt" height="221pt"
 viewBox="0.00 0.00 1124.00 220.83" xmlns="http://www.w3.org/2000/svg" xmlns:xlink="http://www.w3.org/1999/xlink">
<g id="graph1" class="graph" transform="scale(1 1) rotate(0) translate(4 216.83)">
<title>G</title>
<polygon fill="white" stroke="white" points="-4,5 -4,-216.83 1121,-216.83 1121,5 -4,5"/>
<!-- Node1 -->
<g id="node1" class="node"><title>Node1</title>
<polygon fill="#bfbfbf" stroke="black" points="0,-90.5 0,-137.5 146,-137.5 146,-90.5 0,-90.5"/>
<text text-anchor="start" x="8" y="-124.5" font-family="Helvetica,sans-Serif" font-size="10.00">ZendDbSchema_Db_Schema</text>
<text text-anchor="start" x="8" y="-111.5" font-family="Helvetica,sans-Serif" font-size="10.00">_Generator_Pgsql_Table</text>
<text text-anchor="middle" x="73" y="-98.5" font-family="Helvetica,sans-Serif" font-size="10.00">\alterIndex</text>
</g>
<!-- Node2 -->
<g id="node3" class="node"><title>Node2</title>
<a xlink:href="classZendDbSchema__Db__Schema__Generator__Pgsql__Table.html#a8bbaca639d104255bc1eeebb0c2f7da7" target="_top" xlink:title="ZendDbSchema_Db_Schema\l_Generator_Pgsql_Table\l\\createIndex">
<polygon fill="white" stroke="black" points="182,-90.5 182,-137.5 328,-137.5 328,-90.5 182,-90.5"/>
<text text-anchor="start" x="190" y="-124.5" font-family="Helvetica,sans-Serif" font-size="10.00">ZendDbSchema_Db_Schema</text>
<text text-anchor="start" x="190" y="-111.5" font-family="Helvetica,sans-Serif" font-size="10.00">_Generator_Pgsql_Table</text>
<text text-anchor="middle" x="255" y="-98.5" font-family="Helvetica,sans-Serif" font-size="10.00">\createIndex</text>
</a>
</g>
<!-- Node1&#45;&gt;Node2 -->
<g id="edge2" class="edge"><title>Node1&#45;&gt;Node2</title>
<path fill="none" stroke="midnightblue" d="M146.24,-114C154.596,-114 163.161,-114 171.636,-114"/>
<polygon fill="midnightblue" stroke="midnightblue" points="171.91,-117.5 181.91,-114 171.91,-110.5 171.91,-117.5"/>
</g>
<!-- Node3 -->
<g id="node5" class="node"><title>Node3</title>
<a xlink:href="classZendDbSchema__Db__Schema__AbstractSchema.html#a55787c21deddba427842809d589c2df6" target="_top" xlink:title="ZendDbSchema_Db_Schema\l_AbstractSchema\\getName">
<polygon fill="white" stroke="black" points="560,-163 560,-197 706,-197 706,-163 560,-163"/>
<text text-anchor="start" x="568" y="-184" font-family="Helvetica,sans-Serif" font-size="10.00">ZendDbSchema_Db_Schema</text>
<text text-anchor="middle" x="633" y="-171" font-family="Helvetica,sans-Serif" font-size="10.00">_AbstractSchema\getName</text>
</a>
</g>
<!-- Node2&#45;&gt;Node3 -->
<g id="edge4" class="edge"><title>Node2&#45;&gt;Node3</title>
<path fill="none" stroke="midnightblue" d="M276.086,-137.605C296.286,-158.297 328.825,-186.906 364,-199 429.437,-221.498 508.98,-211.685 564.529,-199.37"/>
<polygon fill="midnightblue" stroke="midnightblue" points="565.653,-202.703 574.613,-197.049 564.083,-195.882 565.653,-202.703"/>
</g>
<!-- Node6 -->
<g id="node11" class="node"><title>Node6</title>
<a xlink:href="classZendDbSchema__Db__Schema__Table__AbstractDefinition.html#a224b6a0c1df1d6ed40e03657782ef6fc" target="_top" xlink:title="ZendDbSchema_Db_Schema\l_Table_AbstractDefinition\l\\getTable">
<polygon fill="white" stroke="black" points="560,-97.5 560,-144.5 706,-144.5 706,-97.5 560,-97.5"/>
<text text-anchor="start" x="568" y="-131.5" font-family="Helvetica,sans-Serif" font-size="10.00">ZendDbSchema_Db_Schema</text>
<text text-anchor="start" x="568" y="-118.5" font-family="Helvetica,sans-Serif" font-size="10.00">_Table_AbstractDefinition</text>
<text text-anchor="middle" x="633" y="-105.5" font-family="Helvetica,sans-Serif" font-size="10.00">\getTable</text>
</a>
</g>
<!-- Node2&#45;&gt;Node6 -->
<g id="edge10" class="edge"><title>Node2&#45;&gt;Node6</title>
<path fill="none" stroke="midnightblue" d="M328.33,-115.358C391.71,-116.532 483.288,-118.228 549.477,-119.453"/>
<polygon fill="midnightblue" stroke="midnightblue" points="549.811,-122.96 559.874,-119.646 549.94,-115.961 549.811,-122.96"/>
</g>
<!-- Node7 -->
<g id="node13" class="node"><title>Node7</title>
<a xlink:href="classZendDbSchema__Db__Schema__Table__Index.html#ad0edf2869c08ce408566798f4305b8dc" target="_top" xlink:title="ZendDbSchema_Db_Schema\l_Table_Index\\getColumns">
<polygon fill="white" stroke="black" points="364,-52 364,-86 510,-86 510,-52 364,-52"/>
<text text-anchor="start" x="372" y="-73" font-family="Helvetica,sans-Serif" font-size="10.00">ZendDbSchema_Db_Schema</text>
<text text-anchor="middle" x="437" y="-60" font-family="Helvetica,sans-Serif" font-size="10.00">_Table_Index\getColumns</text>
</a>
</g>
<!-- Node2&#45;&gt;Node7 -->
<g id="edge12" class="edge"><title>Node2&#45;&gt;Node7</title>
<path fill="none" stroke="midnightblue" d="M328.24,-95.8913C338.092,-93.4552 348.234,-90.9475 358.179,-88.4888"/>
<polygon fill="midnightblue" stroke="midnightblue" points="359.171,-91.8488 368.039,-86.0508 357.491,-85.0534 359.171,-91.8488"/>
</g>
<!-- Node8 -->
<g id="node16" class="node"><title>Node8</title>
<a xlink:href="classZendDbSchema__Db__Schema__AbstractSchema.html#a1680a8fd22360f74d29b641d7257a52f" target="_top" xlink:title="ZendDbSchema_Db_Schema\l_AbstractSchema\\isExist">
<polygon fill="white" stroke="black" points="364,-0 364,-34 510,-34 510,-0 364,-0"/>
<text text-anchor="start" x="372" y="-21" font-family="Helvetica,sans-Serif" font-size="10.00">ZendDbSchema_Db_Schema</text>
<text text-anchor="middle" x="437" y="-8" font-family="Helvetica,sans-Serif" font-size="10.00">_AbstractSchema\isExist</text>
</a>
</g>
<!-- Node2&#45;&gt;Node8 -->
<g id="edge16" class="edge"><title>Node2&#45;&gt;Node8</title>
<path fill="none" stroke="midnightblue" d="M286.722,-90.4762C307.859,-75.5331 336.677,-56.5285 364,-43 367.495,-41.2697 371.133,-39.598 374.839,-37.9937"/>
<polygon fill="midnightblue" stroke="midnightblue" points="376.239,-41.2025 384.145,-34.1498 373.566,-34.7328 376.239,-41.2025"/>
</g>
<!-- Node11 -->
<g id="node22" class="node"><title>Node11</title>
<a xlink:href="classZendDbSchema__Db__Schema__Generator__Pgsql__Table.html#ae41ebe29e67b8bf25465242d56d2db96" target="_top" xlink:title="ZendDbSchema_Db_Schema\l_Generator_Pgsql_Table\l\\dropIndex">
<polygon fill="white" stroke="black" points="364,-142.5 364,-189.5 510,-189.5 510,-142.5 364,-142.5"/>
<text text-anchor="start" x="372" y="-176.5" font-family="Helvetica,sans-Serif" font-size="10.00">ZendDbSchema_Db_Schema</text>
<text text-anchor="start" x="372" y="-163.5" font-family="Helvetica,sans-Serif" font-size="10.00">_Generator_Pgsql_Table</text>
<text text-anchor="middle" x="437" y="-150.5" font-family="Helvetica,sans-Serif" font-size="10.00">\dropIndex</text>
</a>
</g>
<!-- Node2&#45;&gt;Node11 -->
<g id="edge22" class="edge"><title>Node2&#45;&gt;Node11</title>
<path fill="none" stroke="midnightblue" d="M328.24,-134.926C336.78,-137.366 345.537,-139.868 354.195,-142.341"/>
<polygon fill="midnightblue" stroke="midnightblue" points="353.333,-145.735 363.91,-145.117 355.257,-139.005 353.333,-145.735"/>
</g>
<!-- Node4 -->
<g id="node7" class="node"><title>Node4</title>
<a xlink:href="classZendDbSchema__Db__Schema__AbstractSchema.html#a54d32c6f15463eaad2321a9f0e7225d7" target="_top" xlink:title="ZendDbSchema_Db_Schema\l_AbstractSchema\\__get">
<polygon fill="white" stroke="black" points="772,-107 772,-141 918,-141 918,-107 772,-107"/>
<text text-anchor="start" x="780" y="-128" font-family="Helvetica,sans-Serif" font-size="10.00">ZendDbSchema_Db_Schema</text>
<text text-anchor="middle" x="845" y="-115" font-family="Helvetica,sans-Serif" font-size="10.00">_AbstractSchema\__get</text>
</a>
</g>
<!-- Node3&#45;&gt;Node4 -->
<g id="edge6" class="edge"><title>Node3&#45;&gt;Node4</title>
<path fill="none" stroke="midnightblue" d="M697.47,-162.97C720.597,-156.861 746.857,-149.925 770.746,-143.614"/>
<polygon fill="midnightblue" stroke="midnightblue" points="771.696,-146.983 780.471,-141.045 769.909,-140.215 771.696,-146.983"/>
</g>
<!-- Node5 -->
<g id="node9" class="node"><title>Node5</title>
<a xlink:href="classZendDbSchema__Db__Schema__AbstractSchema.html#ac4e121ba7932163eb1950fabe06fb9db" target="_top" xlink:title="ZendDbSchema_Db_Schema\l_AbstractSchema\\__isset">
<polygon fill="white" stroke="black" points="970,-107 970,-141 1116,-141 1116,-107 970,-107"/>
<text text-anchor="start" x="978" y="-128" font-family="Helvetica,sans-Serif" font-size="10.00">ZendDbSchema_Db_Schema</text>
<text text-anchor="middle" x="1043" y="-115" font-family="Helvetica,sans-Serif" font-size="10.00">_AbstractSchema\__isset</text>
</a>
</g>
<!-- Node4&#45;&gt;Node5 -->
<g id="edge8" class="edge"><title>Node4&#45;&gt;Node5</title>
<path fill="none" stroke="midnightblue" d="M918.165,-124C931.596,-124 945.71,-124 959.419,-124"/>
<polygon fill="midnightblue" stroke="midnightblue" points="959.805,-127.5 969.805,-124 959.805,-120.5 959.805,-127.5"/>
</g>
<!-- Node7&#45;&gt;Node4 -->
<g id="edge14" class="edge"><title>Node7&#45;&gt;Node4</title>
<path fill="none" stroke="midnightblue" d="M510.218,-69.6417C567.661,-71.1711 649.431,-75.6155 720,-88 741.601,-91.7908 764.8,-97.8858 785.278,-103.991"/>
<polygon fill="midnightblue" stroke="midnightblue" points="784.507,-107.415 795.093,-106.98 786.545,-100.719 784.507,-107.415"/>
</g>
<!-- Node9 -->
<g id="node18" class="node"><title>Node9</title>
<a xlink:href="classZendDbSchema__Db__Schema__AbstractSchema.html#a46da7a60c7e5fd605607afbc1dac4baa" target="_top" xlink:title="ZendDbSchema_Db_Schema\l_AbstractSchema\\getCleanSchema">
<polygon fill="white" stroke="black" points="546.5,-0 546.5,-34 719.5,-34 719.5,-0 546.5,-0"/>
<text text-anchor="start" x="554.5" y="-21" font-family="Helvetica,sans-Serif" font-size="10.00">ZendDbSchema_Db_Schema</text>
<text text-anchor="middle" x="633" y="-8" font-family="Helvetica,sans-Serif" font-size="10.00">_AbstractSchema\getCleanSchema</text>
</a>
</g>
<!-- Node8&#45;&gt;Node9 -->
<g id="edge18" class="edge"><title>Node8&#45;&gt;Node9</title>
<path fill="none" stroke="midnightblue" d="M510.262,-17C518.702,-17 527.405,-17 536.095,-17"/>
<polygon fill="midnightblue" stroke="midnightblue" points="536.276,-20.5001 546.276,-17 536.276,-13.5001 536.276,-20.5001"/>
</g>
<!-- Node10 -->
<g id="node20" class="node"><title>Node10</title>
<a xlink:href="classZendDbSchema__Db__Schema__AbstractSchema.html#af99e5bb9adfe0da8c94d3d3848efe7b5" target="_top" xlink:title="ZendDbSchema_Db_Schema\l_AbstractSchema\\_getCleanSchema">
<polygon fill="white" stroke="black" points="756,-0 756,-34 934,-34 934,-0 756,-0"/>
<text text-anchor="start" x="764" y="-21" font-family="Helvetica,sans-Serif" font-size="10.00">ZendDbSchema_Db_Schema</text>
<text text-anchor="middle" x="845" y="-8" font-family="Helvetica,sans-Serif" font-size="10.00">_AbstractSchema\_getCleanSchema</text>
</a>
</g>
<!-- Node9&#45;&gt;Node10 -->
<g id="edge20" class="edge"><title>Node9&#45;&gt;Node10</title>
<path fill="none" stroke="midnightblue" d="M719.534,-17C728.175,-17 736.994,-17 745.752,-17"/>
<polygon fill="midnightblue" stroke="midnightblue" points="745.99,-20.5001 755.99,-17 745.99,-13.5001 745.99,-20.5001"/>
</g>
<!-- Node11&#45;&gt;Node3 -->
<g id="edge24" class="edge"><title>Node11&#45;&gt;Node3</title>
<path fill="none" stroke="midnightblue" d="M510.262,-171.233C523.046,-172.146 536.43,-173.102 549.466,-174.033"/>
<polygon fill="midnightblue" stroke="midnightblue" points="549.603,-177.552 559.827,-174.773 550.102,-170.57 549.603,-177.552"/>
</g>
<!-- Node11&#45;&gt;Node6 -->
<g id="edge26" class="edge"><title>Node11&#45;&gt;Node6</title>
<path fill="none" stroke="midnightblue" d="M510.262,-149.18C523.172,-146.216 536.695,-143.111 549.853,-140.09"/>
<polygon fill="midnightblue" stroke="midnightblue" points="550.864,-143.449 559.827,-137.8 549.297,-136.626 550.864,-143.449"/>
</g>
</g>
</svg>
