<?xml version="1.0" encoding="UTF-8" standalone="no"?>
<!DOCTYPE svg PUBLIC "-//W3C//DTD SVG 1.1//EN"
 "http://www.w3.org/Graphics/SVG/1.1/DTD/svg11.dtd">
<!-- Generated by graphviz version 2.26.3 (20100126.1600)
 -->
<!-- Title: G Pages: 1 -->
<svg width="922pt" height="295pt"
 viewBox="0.00 0.00 922.00 295.00" xmlns="http://www.w3.org/2000/svg" xmlns:xlink="http://www.w3.org/1999/xlink">
<g id="graph1" class="graph" transform="scale(1 1) rotate(0) translate(4 291)">
<title>G</title>
<polygon fill="white" stroke="white" points="-4,5 -4,-291 919,-291 919,5 -4,5"/>
<!-- Node1 -->
<g id="node1" class="node"><title>Node1</title>
<polygon fill="#bfbfbf" stroke="black" points="0,-123.5 0,-170.5 146,-170.5 146,-123.5 0,-123.5"/>
<text text-anchor="start" x="8" y="-157.5" font-family="Helvetica,sans-Serif" font-size="10.00">ZendDbSchema_Db_Schema</text>
<text text-anchor="start" x="8" y="-144.5" font-family="Helvetica,sans-Serif" font-size="10.00">_Generator_Mysql_Table</text>
<text text-anchor="middle" x="73" y="-131.5" font-family="Helvetica,sans-Serif" font-size="10.00">\addForeignKey</text>
</g>
<!-- Node2 -->
<g id="node3" class="node"><title>Node2</title>
<a xlink:href="classZendDbSchema__Db__Schema__AbstractSchema.html#adacb1417b461310c5c87f72c459c1985" target="_top" xlink:title="ZendDbSchema_Db_Schema\l_AbstractSchema\\getOriginName">
<polygon fill="white" stroke="black" points="182.5,-242 182.5,-276 345.5,-276 345.5,-242 182.5,-242"/>
<text text-anchor="start" x="190.5" y="-263" font-family="Helvetica,sans-Serif" font-size="10.00">ZendDbSchema_Db_Schema</text>
<text text-anchor="middle" x="264" y="-250" font-family="Helvetica,sans-Serif" font-size="10.00">_AbstractSchema\getOriginName</text>
</a>
</g>
<!-- Node1&#45;&gt;Node2 -->
<g id="edge2" class="edge"><title>Node1&#45;&gt;Node2</title>
<path fill="none" stroke="midnightblue" d="M102.317,-170.787C123.593,-187.335 153.522,-209.179 182,-225 190.299,-229.61 199.352,-233.971 208.316,-237.934"/>
<polygon fill="midnightblue" stroke="midnightblue" points="207.019,-241.187 217.589,-241.915 209.781,-234.754 207.019,-241.187"/>
</g>
<!-- Node6 -->
<g id="node11" class="node"><title>Node6</title>
<a xlink:href="classZendDbSchema__Db__Schema__Table__ForeignKey.html#a5cd45e4bc92ac5975975753e459b4c8c" target="_top" xlink:title="ZendDbSchema_Db_Schema\l_Table_ForeignKey\\getColumns">
<polygon fill="white" stroke="black" points="388,-201 388,-235 544,-235 544,-201 388,-201"/>
<text text-anchor="start" x="396" y="-222" font-family="Helvetica,sans-Serif" font-size="10.00">ZendDbSchema_Db_Schema</text>
<text text-anchor="middle" x="466" y="-209" font-family="Helvetica,sans-Serif" font-size="10.00">_Table_ForeignKey\getColumns</text>
</a>
</g>
<!-- Node1&#45;&gt;Node6 -->
<g id="edge10" class="edge"><title>Node1&#45;&gt;Node6</title>
<path fill="none" stroke="midnightblue" d="M146.208,-162.873C158.154,-165.34 170.41,-167.799 182,-170 247.461,-182.433 321.719,-194.928 377.882,-204.051"/>
<polygon fill="midnightblue" stroke="midnightblue" points="377.366,-207.513 387.797,-205.657 378.485,-200.603 377.366,-207.513"/>
</g>
<!-- Node7 -->
<g id="node14" class="node"><title>Node7</title>
<a xlink:href="classZendDbSchema__Db__Schema__Table__ForeignKey.html#a39c9a3febcb98b77692566eed81220c7" target="_top" xlink:title="ZendDbSchema_Db_Schema\l_Table_ForeignKey\\getReferences">
<polygon fill="white" stroke="black" points="382.5,-149 382.5,-183 549.5,-183 549.5,-149 382.5,-149"/>
<text text-anchor="start" x="390.5" y="-170" font-family="Helvetica,sans-Serif" font-size="10.00">ZendDbSchema_Db_Schema</text>
<text text-anchor="middle" x="466" y="-157" font-family="Helvetica,sans-Serif" font-size="10.00">_Table_ForeignKey\getReferences</text>
</a>
</g>
<!-- Node1&#45;&gt;Node7 -->
<g id="edge14" class="edge"><title>Node1&#45;&gt;Node7</title>
<path fill="none" stroke="midnightblue" d="M146.459,-150.551C210.302,-153.638 303.141,-158.126 372.314,-161.471"/>
<polygon fill="midnightblue" stroke="midnightblue" points="372.185,-164.968 382.342,-161.955 372.523,-157.977 372.185,-164.968"/>
</g>
<!-- Node8 -->
<g id="node17" class="node"><title>Node8</title>
<a xlink:href="classZendDbSchema__Db__Schema__Table__ForeignKey.html#a83644a5b874f111e17dbf08ffa3ea803" target="_top" xlink:title="ZendDbSchema_Db_Schema\l_Table_ForeignKey\\getOnDelete">
<polygon fill="white" stroke="black" points="387,-97 387,-131 545,-131 545,-97 387,-97"/>
<text text-anchor="start" x="395" y="-118" font-family="Helvetica,sans-Serif" font-size="10.00">ZendDbSchema_Db_Schema</text>
<text text-anchor="middle" x="466" y="-105" font-family="Helvetica,sans-Serif" font-size="10.00">_Table_ForeignKey\getOnDelete</text>
</a>
</g>
<!-- Node1&#45;&gt;Node8 -->
<g id="edge18" class="edge"><title>Node1&#45;&gt;Node8</title>
<path fill="none" stroke="midnightblue" d="M146.459,-140.832C211.679,-135.355 307.157,-127.338 376.755,-121.494"/>
<polygon fill="midnightblue" stroke="midnightblue" points="377.157,-124.973 386.829,-120.648 376.571,-117.997 377.157,-124.973"/>
</g>
<!-- Node9 -->
<g id="node20" class="node"><title>Node9</title>
<a xlink:href="classZendDbSchema__Db__Schema__Table__ForeignKey.html#afb55f45baab8357ce8c295e4d71bf700" target="_top" xlink:title="ZendDbSchema_Db_Schema\l_Table_ForeignKey\\getOnUpdate">
<polygon fill="white" stroke="black" points="183.5,-66 183.5,-100 344.5,-100 344.5,-66 183.5,-66"/>
<text text-anchor="start" x="191.5" y="-87" font-family="Helvetica,sans-Serif" font-size="10.00">ZendDbSchema_Db_Schema</text>
<text text-anchor="middle" x="264" y="-74" font-family="Helvetica,sans-Serif" font-size="10.00">_Table_ForeignKey\getOnUpdate</text>
</a>
</g>
<!-- Node1&#45;&gt;Node9 -->
<g id="edge22" class="edge"><title>Node1&#45;&gt;Node9</title>
<path fill="none" stroke="midnightblue" d="M143.308,-123.441C163.144,-116.795 184.543,-109.624 203.734,-103.194"/>
<polygon fill="midnightblue" stroke="midnightblue" points="204.884,-106.5 213.253,-100.004 202.659,-99.8627 204.884,-106.5"/>
</g>
<!-- Node10 -->
<g id="node23" class="node"><title>Node10</title>
<a xlink:href="classZendDbSchema__Db__Schema__Table__AbstractDefinition.html#a224b6a0c1df1d6ed40e03657782ef6fc" target="_top" xlink:title="ZendDbSchema_Db_Schema\l_Table_AbstractDefinition\l\\getTable">
<polygon fill="white" stroke="black" points="191,-0.5 191,-47.5 337,-47.5 337,-0.5 191,-0.5"/>
<text text-anchor="start" x="199" y="-34.5" font-family="Helvetica,sans-Serif" font-size="10.00">ZendDbSchema_Db_Schema</text>
<text text-anchor="start" x="199" y="-21.5" font-family="Helvetica,sans-Serif" font-size="10.00">_Table_AbstractDefinition</text>
<text text-anchor="middle" x="264" y="-8.5" font-family="Helvetica,sans-Serif" font-size="10.00">\getTable</text>
</a>
</g>
<!-- Node1&#45;&gt;Node10 -->
<g id="edge26" class="edge"><title>Node1&#45;&gt;Node10</title>
<path fill="none" stroke="midnightblue" d="M97.3133,-123.163C118.375,-103.478 150.359,-75.8123 182,-57 184.836,-55.3139 187.774,-53.6782 190.777,-52.0964"/>
<polygon fill="midnightblue" stroke="midnightblue" points="192.562,-55.117 199.943,-47.516 189.433,-48.8553 192.562,-55.117"/>
</g>
<!-- Node3 -->
<g id="node5" class="node"><title>Node3</title>
<a xlink:href="classZendDbSchema__Db__Schema__AbstractSchema.html#a55787c21deddba427842809d589c2df6" target="_top" xlink:title="ZendDbSchema_Db_Schema\l_AbstractSchema\\getName">
<polygon fill="white" stroke="black" points="393,-253 393,-287 539,-287 539,-253 393,-253"/>
<text text-anchor="start" x="401" y="-274" font-family="Helvetica,sans-Serif" font-size="10.00">ZendDbSchema_Db_Schema</text>
<text text-anchor="middle" x="466" y="-261" font-family="Helvetica,sans-Serif" font-size="10.00">_AbstractSchema\getName</text>
</a>
</g>
<!-- Node2&#45;&gt;Node3 -->
<g id="edge4" class="edge"><title>Node2&#45;&gt;Node3</title>
<path fill="none" stroke="midnightblue" d="M345.579,-263.442C357.812,-264.109 370.44,-264.796 382.708,-265.464"/>
<polygon fill="midnightblue" stroke="midnightblue" points="382.736,-268.971 392.912,-266.02 383.117,-261.981 382.736,-268.971"/>
</g>
<!-- Node4 -->
<g id="node7" class="node"><title>Node4</title>
<a xlink:href="classZendDbSchema__Db__Schema__AbstractSchema.html#a54d32c6f15463eaad2321a9f0e7225d7" target="_top" xlink:title="ZendDbSchema_Db_Schema\l_AbstractSchema\\__get">
<polygon fill="white" stroke="black" points="586,-149 586,-183 732,-183 732,-149 586,-149"/>
<text text-anchor="start" x="594" y="-170" font-family="Helvetica,sans-Serif" font-size="10.00">ZendDbSchema_Db_Schema</text>
<text text-anchor="middle" x="659" y="-157" font-family="Helvetica,sans-Serif" font-size="10.00">_AbstractSchema\__get</text>
</a>
</g>
<!-- Node3&#45;&gt;Node4 -->
<g id="edge6" class="edge"><title>Node3&#45;&gt;Node4</title>
<path fill="none" stroke="midnightblue" d="M529.249,-252.85C536.381,-250.207 543.436,-247.257 550,-244 579.811,-229.207 610.332,-206.598 631.466,-189.524"/>
<polygon fill="midnightblue" stroke="midnightblue" points="633.85,-192.096 639.362,-183.048 629.411,-186.683 633.85,-192.096"/>
</g>
<!-- Node5 -->
<g id="node9" class="node"><title>Node5</title>
<a xlink:href="classZendDbSchema__Db__Schema__AbstractSchema.html#ac4e121ba7932163eb1950fabe06fb9db" target="_top" xlink:title="ZendDbSchema_Db_Schema\l_AbstractSchema\\__isset">
<polygon fill="white" stroke="black" points="768,-149 768,-183 914,-183 914,-149 768,-149"/>
<text text-anchor="start" x="776" y="-170" font-family="Helvetica,sans-Serif" font-size="10.00">ZendDbSchema_Db_Schema</text>
<text text-anchor="middle" x="841" y="-157" font-family="Helvetica,sans-Serif" font-size="10.00">_AbstractSchema\__isset</text>
</a>
</g>
<!-- Node4&#45;&gt;Node5 -->
<g id="edge8" class="edge"><title>Node4&#45;&gt;Node5</title>
<path fill="none" stroke="midnightblue" d="M732.24,-166C740.596,-166 749.161,-166 757.636,-166"/>
<polygon fill="midnightblue" stroke="midnightblue" points="757.91,-169.5 767.91,-166 757.91,-162.5 757.91,-169.5"/>
</g>
<!-- Node6&#45;&gt;Node4 -->
<g id="edge12" class="edge"><title>Node6&#45;&gt;Node4</title>
<path fill="none" stroke="midnightblue" d="M529.195,-200.973C547.274,-196.102 567.13,-190.753 585.756,-185.734"/>
<polygon fill="midnightblue" stroke="midnightblue" points="586.917,-189.046 595.663,-183.065 585.096,-182.287 586.917,-189.046"/>
</g>
<!-- Node7&#45;&gt;Node4 -->
<g id="edge16" class="edge"><title>Node7&#45;&gt;Node4</title>
<path fill="none" stroke="midnightblue" d="M549.53,-166C558.244,-166 567.101,-166 575.811,-166"/>
<polygon fill="midnightblue" stroke="midnightblue" points="575.95,-169.5 585.95,-166 575.95,-162.5 575.95,-169.5"/>
</g>
<!-- Node8&#45;&gt;Node4 -->
<g id="edge20" class="edge"><title>Node8&#45;&gt;Node4</title>
<path fill="none" stroke="midnightblue" d="M529.195,-131.027C547.274,-135.898 567.13,-141.247 585.756,-146.266"/>
<polygon fill="midnightblue" stroke="midnightblue" points="585.096,-149.713 595.663,-148.935 586.917,-142.954 585.096,-149.713"/>
</g>
<!-- Node9&#45;&gt;Node4 -->
<g id="edge24" class="edge"><title>Node9&#45;&gt;Node4</title>
<path fill="none" stroke="midnightblue" d="M344.731,-71.8412C403.225,-66.7384 483.4,-65.9813 550,-88 582.717,-98.8165 614.055,-123.218 634.663,-141.869"/>
<polygon fill="midnightblue" stroke="midnightblue" points="632.306,-144.457 642.016,-148.696 637.068,-139.327 632.306,-144.457"/>
</g>
</g>
</svg>
