<?xml version="1.0" encoding="UTF-8" standalone="no"?>
<!DOCTYPE svg PUBLIC "-//W3C//DTD SVG 1.1//EN"
 "http://www.w3.org/Graphics/SVG/1.1/DTD/svg11.dtd">
<!-- Generated by graphviz version 2.26.3 (20100126.1600)
 -->
<!-- Title: G Pages: 1 -->
<svg width="530pt" height="198pt"
 viewBox="0.00 0.00 530.00 198.00" xmlns="http://www.w3.org/2000/svg" xmlns:xlink="http://www.w3.org/1999/xlink">
<g id="graph1" class="graph" transform="scale(1 1) rotate(0) translate(4 194)">
<title>G</title>
<polygon fill="white" stroke="white" points="-4,5 -4,-194 527,-194 527,5 -4,5"/>
<!-- Node1 -->
<g id="node1" class="node"><title>Node1</title>
<polygon fill="#bfbfbf" stroke="black" points="0,-78 0,-112 150,-112 150,-78 0,-78"/>
<text text-anchor="start" x="8" y="-99" font-family="Helvetica,sans-Serif" font-size="10.00">ZendDbSchema_Db_Migration</text>
<text text-anchor="middle" x="75" y="-86" font-family="Helvetica,sans-Serif" font-size="10.00">_Manager\getChange</text>
</g>
<!-- Node2 -->
<g id="node3" class="node"><title>Node2</title>
<a xlink:href="classZendDbSchema__Db__Migration__Manager.html#a3f8150b5e2fc90623a10c7890af80185" target="_top" xlink:title="ZendDbSchema_Db_Migration\l_Manager\\compareVersion">
<polygon fill="white" stroke="black" points="186,-104 186,-138 336,-138 336,-104 186,-104"/>
<text text-anchor="start" x="194" y="-125" font-family="Helvetica,sans-Serif" font-size="10.00">ZendDbSchema_Db_Migration</text>
<text text-anchor="middle" x="261" y="-112" font-family="Helvetica,sans-Serif" font-size="10.00">_Manager\compareVersion</text>
</a>
</g>
<!-- Node1&#45;&gt;Node2 -->
<g id="edge2" class="edge"><title>Node1&#45;&gt;Node2</title>
<path fill="none" stroke="midnightblue" d="M160.147,-106.902C168.742,-108.104 177.426,-109.318 185.905,-110.503"/>
<polygon fill="midnightblue" stroke="midnightblue" points="160.505,-103.418 150.117,-105.5 159.536,-110.351 160.505,-103.418"/>
</g>
<!-- Node5 -->
<g id="node9" class="node"><title>Node5</title>
<a xlink:href="classZendDbSchema__Db__Migration__Manager.html#a87a8f6699a75e4b89a0657ae0999203b" target="_top" xlink:title="ZendDbSchema_Db_Migration\l_Manager\\isDirty">
<polygon fill="white" stroke="black" points="186,-0 186,-34 336,-34 336,-0 186,-0"/>
<text text-anchor="start" x="194" y="-21" font-family="Helvetica,sans-Serif" font-size="10.00">ZendDbSchema_Db_Migration</text>
<text text-anchor="middle" x="261" y="-8" font-family="Helvetica,sans-Serif" font-size="10.00">_Manager\isDirty</text>
</a>
</g>
<!-- Node1&#45;&gt;Node5 -->
<g id="edge8" class="edge"><title>Node1&#45;&gt;Node5</title>
<path fill="none" stroke="midnightblue" d="M118.114,-73.5216C138.48,-63.7073 163.261,-52.2384 186,-43 193.533,-39.9396 201.577,-36.9088 209.497,-34.0566"/>
<polygon fill="midnightblue" stroke="midnightblue" points="116.558,-70.386 109.09,-77.9006 119.615,-76.6837 116.558,-70.386"/>
</g>
<!-- Node7 -->
<g id="node13" class="node"><title>Node7</title>
<a xlink:href="classZendDbSchema__Db__Migration__Manager.html#a3acd09811b23c39aa97fed97b4012ac9" target="_top" xlink:title="ZendDbSchema_Db_Migration\l_Manager\\rolldown">
<polygon fill="white" stroke="black" points="186,-156 186,-190 336,-190 336,-156 186,-156"/>
<text text-anchor="start" x="194" y="-177" font-family="Helvetica,sans-Serif" font-size="10.00">ZendDbSchema_Db_Migration</text>
<text text-anchor="middle" x="261" y="-164" font-family="Helvetica,sans-Serif" font-size="10.00">_Manager\rolldown</text>
</a>
</g>
<!-- Node1&#45;&gt;Node7 -->
<g id="edge12" class="edge"><title>Node1&#45;&gt;Node7</title>
<path fill="none" stroke="midnightblue" d="M118.114,-116.478C138.48,-126.293 163.261,-137.762 186,-147 193.533,-150.06 201.577,-153.091 209.497,-155.943"/>
<polygon fill="midnightblue" stroke="midnightblue" points="119.615,-113.316 109.09,-112.099 116.558,-119.614 119.615,-113.316"/>
</g>
<!-- Node8 -->
<g id="node16" class="node"><title>Node8</title>
<a xlink:href="classZendDbSchema__Db__Migration__Manager.html#afbaee9196407b68350626e8601a44a9a" target="_top" xlink:title="ZendDbSchema_Db_Migration\l_Manager\\rollup">
<polygon fill="white" stroke="black" points="186,-52 186,-86 336,-86 336,-52 186,-52"/>
<text text-anchor="start" x="194" y="-73" font-family="Helvetica,sans-Serif" font-size="10.00">ZendDbSchema_Db_Migration</text>
<text text-anchor="middle" x="261" y="-60" font-family="Helvetica,sans-Serif" font-size="10.00">_Manager\rollup</text>
</a>
</g>
<!-- Node1&#45;&gt;Node8 -->
<g id="edge16" class="edge"><title>Node1&#45;&gt;Node8</title>
<path fill="none" stroke="midnightblue" d="M160.147,-83.0977C168.742,-81.8963 177.426,-80.6823 185.905,-79.4972"/>
<polygon fill="midnightblue" stroke="midnightblue" points="159.536,-79.649 150.117,-84.4997 160.505,-86.5816 159.536,-79.649"/>
</g>
<!-- Node3 -->
<g id="node5" class="node"><title>Node3</title>
<a xlink:href="classZendDbSchema__Db__Migration__Manager.html#a265c3edbe064cb4a34289b505046768a" target="_top" xlink:title="ZendDbSchema_Db_Migration\l_Manager\\down">
<polygon fill="white" stroke="black" points="372,-143 372,-177 522,-177 522,-143 372,-143"/>
<text text-anchor="start" x="380" y="-164" font-family="Helvetica,sans-Serif" font-size="10.00">ZendDbSchema_Db_Migration</text>
<text text-anchor="middle" x="447" y="-151" font-family="Helvetica,sans-Serif" font-size="10.00">_Manager\down</text>
</a>
</g>
<!-- Node2&#45;&gt;Node3 -->
<g id="edge4" class="edge"><title>Node2&#45;&gt;Node3</title>
<path fill="none" stroke="midnightblue" d="M346.147,-138.853C354.742,-140.656 363.426,-142.477 371.905,-144.254"/>
<polygon fill="midnightblue" stroke="midnightblue" points="346.623,-135.377 336.117,-136.75 345.186,-142.228 346.623,-135.377"/>
</g>
<!-- Node4 -->
<g id="node7" class="node"><title>Node4</title>
<a xlink:href="classZendDbSchema__Db__Migration__Manager.html#a260901608e7ed2fb5ffef1bf8387e2e9" target="_top" xlink:title="ZendDbSchema_Db_Migration\l_Manager\\up">
<polygon fill="white" stroke="black" points="372,-65 372,-99 522,-99 522,-65 372,-65"/>
<text text-anchor="start" x="380" y="-86" font-family="Helvetica,sans-Serif" font-size="10.00">ZendDbSchema_Db_Migration</text>
<text text-anchor="middle" x="447" y="-73" font-family="Helvetica,sans-Serif" font-size="10.00">_Manager\up</text>
</a>
</g>
<!-- Node2&#45;&gt;Node4 -->
<g id="edge6" class="edge"><title>Node2&#45;&gt;Node4</title>
<path fill="none" stroke="midnightblue" d="M346.147,-103.147C354.742,-101.344 363.426,-99.5235 371.905,-97.7458"/>
<polygon fill="midnightblue" stroke="midnightblue" points="345.186,-99.7719 336.117,-105.25 346.623,-106.623 345.186,-99.7719"/>
</g>
<!-- Node6 -->
<g id="node11" class="node"><title>Node6</title>
<a xlink:href="classZendDbSchema__Tool__Project__Provider__Migration.html#a6818e8df15f087c869ed9edf28d97f1f" target="_top" xlink:title="ZendDbSchema_Tool_Project\l_Provider_Migration\\status">
<polygon fill="white" stroke="black" points="373.5,-0 373.5,-34 520.5,-34 520.5,-0 373.5,-0"/>
<text text-anchor="start" x="381.5" y="-21" font-family="Helvetica,sans-Serif" font-size="10.00">ZendDbSchema_Tool_Project</text>
<text text-anchor="middle" x="447" y="-8" font-family="Helvetica,sans-Serif" font-size="10.00">_Provider_Migration\status</text>
</a>
</g>
<!-- Node5&#45;&gt;Node6 -->
<g id="edge10" class="edge"><title>Node5&#45;&gt;Node6</title>
<path fill="none" stroke="midnightblue" d="M346.286,-17C355.347,-17 364.505,-17 373.415,-17"/>
<polygon fill="midnightblue" stroke="midnightblue" points="346.117,-13.5001 336.117,-17 346.117,-20.5001 346.117,-13.5001"/>
</g>
<!-- Node7&#45;&gt;Node3 -->
<g id="edge14" class="edge"><title>Node7&#45;&gt;Node3</title>
<path fill="none" stroke="midnightblue" d="M346.147,-167.049C354.742,-166.448 363.426,-165.841 371.905,-165.249"/>
<polygon fill="midnightblue" stroke="midnightblue" points="345.849,-163.561 336.117,-167.75 346.337,-170.544 345.849,-163.561"/>
</g>
<!-- Node8&#45;&gt;Node4 -->
<g id="edge18" class="edge"><title>Node8&#45;&gt;Node4</title>
<path fill="none" stroke="midnightblue" d="M346.147,-74.9512C354.742,-75.5518 363.426,-76.1588 371.905,-76.7514"/>
<polygon fill="midnightblue" stroke="midnightblue" points="346.337,-71.456 336.117,-74.2501 345.849,-78.4389 346.337,-71.456"/>
</g>
</g>
</svg>
