<?xml version="1.0" encoding="UTF-8" standalone="no"?>
<!DOCTYPE svg PUBLIC "-//W3C//DTD SVG 1.1//EN"
 "http://www.w3.org/Graphics/SVG/1.1/DTD/svg11.dtd">
<!-- Generated by graphviz version 2.26.3 (20100126.1600)
 -->
<!-- Title: G Pages: 1 -->
<svg width="518pt" height="316pt"
 viewBox="0.00 0.00 518.00 316.00" xmlns="http://www.w3.org/2000/svg" xmlns:xlink="http://www.w3.org/1999/xlink">
<g id="graph1" class="graph" transform="scale(1 1) rotate(0) translate(4 312)">
<title>G</title>
<polygon fill="white" stroke="white" points="-4,5 -4,-312 515,-312 515,5 -4,5"/>
<!-- Node1 -->
<g id="node1" class="node"><title>Node1</title>
<polygon fill="#bfbfbf" stroke="black" points="0,-119 0,-153 146,-153 146,-119 0,-119"/>
<text text-anchor="start" x="8" y="-140" font-family="Helvetica,sans-Serif" font-size="10.00">ZendDbSchema_Db_Schema</text>
<text text-anchor="middle" x="73" y="-127" font-family="Helvetica,sans-Serif" font-size="10.00">_Table\columns</text>
</g>
<!-- Node2 -->
<g id="node3" class="node"><title>Node2</title>
<a xlink:href="classZendDbSchema__Db__Schema__Generator__Mysql__Table.html#ab84f42f89ccbecc8a929d68340411907" target="_top" xlink:title="ZendDbSchema_Db_Schema\l_Generator_Mysql_Table\l\\createTable">
<polygon fill="white" stroke="black" points="182,-260.5 182,-307.5 328,-307.5 328,-260.5 182,-260.5"/>
<text text-anchor="start" x="190" y="-294.5" font-family="Helvetica,sans-Serif" font-size="10.00">ZendDbSchema_Db_Schema</text>
<text text-anchor="start" x="190" y="-281.5" font-family="Helvetica,sans-Serif" font-size="10.00">_Generator_Mysql_Table</text>
<text text-anchor="middle" x="255" y="-268.5" font-family="Helvetica,sans-Serif" font-size="10.00">\createTable</text>
</a>
</g>
<!-- Node1&#45;&gt;Node2 -->
<g id="edge2" class="edge"><title>Node1&#45;&gt;Node2</title>
<path fill="none" stroke="midnightblue" d="M92.0493,-161.234C112.18,-186.546 145.953,-225.354 182,-251 186.76,-254.386 191.923,-257.55 197.228,-260.472"/>
<polygon fill="midnightblue" stroke="midnightblue" points="94.6833,-158.921 85.7619,-153.206 89.1722,-163.237 94.6833,-158.921"/>
</g>
<!-- Node3 -->
<g id="node5" class="node"><title>Node3</title>
<a xlink:href="classZendDbSchema__Db__Schema__Generator__Pgsql__Table.html#a081087d005efda0190a7a8c0fffb9cbc" target="_top" xlink:title="ZendDbSchema_Db_Schema\l_Generator_Pgsql_Table\l\\createTable">
<polygon fill="white" stroke="black" points="182,-194.5 182,-241.5 328,-241.5 328,-194.5 182,-194.5"/>
<text text-anchor="start" x="190" y="-228.5" font-family="Helvetica,sans-Serif" font-size="10.00">ZendDbSchema_Db_Schema</text>
<text text-anchor="start" x="190" y="-215.5" font-family="Helvetica,sans-Serif" font-size="10.00">_Generator_Pgsql_Table</text>
<text text-anchor="middle" x="255" y="-202.5" font-family="Helvetica,sans-Serif" font-size="10.00">\createTable</text>
</a>
</g>
<!-- Node1&#45;&gt;Node3 -->
<g id="edge4" class="edge"><title>Node1&#45;&gt;Node3</title>
<path fill="none" stroke="midnightblue" d="M120.518,-157.409C145.756,-168.78 176.829,-182.78 202.746,-194.457"/>
<polygon fill="midnightblue" stroke="midnightblue" points="121.708,-154.107 111.153,-153.19 118.833,-160.489 121.708,-154.107"/>
</g>
<!-- Node4 -->
<g id="node7" class="node"><title>Node4</title>
<a xlink:href="classZendDbSchema__Db__Schema__Table.html#a21a2a75870207a989576655fec7507c3" target="_top" xlink:title="ZendDbSchema_Db_Schema\l_Table\\isDirty">
<polygon fill="white" stroke="black" points="182,-142 182,-176 328,-176 328,-142 182,-142"/>
<text text-anchor="start" x="190" y="-163" font-family="Helvetica,sans-Serif" font-size="10.00">ZendDbSchema_Db_Schema</text>
<text text-anchor="middle" x="255" y="-150" font-family="Helvetica,sans-Serif" font-size="10.00">_Table\isDirty</text>
</a>
</g>
<!-- Node1&#45;&gt;Node4 -->
<g id="edge6" class="edge"><title>Node1&#45;&gt;Node4</title>
<path fill="none" stroke="midnightblue" d="M156.237,-146.519C164.804,-147.602 173.464,-148.696 181.91,-149.763"/>
<polygon fill="midnightblue" stroke="midnightblue" points="156.6,-143.037 146.24,-145.256 155.722,-149.982 156.6,-143.037"/>
</g>
<!-- Node7 -->
<g id="node13" class="node"><title>Node7</title>
<a xlink:href="classZendDbSchema__Db__Schema__Table.html#a6178edaeea7e08d97e2196dd991532f9" target="_top" xlink:title="ZendDbSchema_Db_Schema\l_Table\\toSql">
<polygon fill="white" stroke="black" points="364,-90 364,-124 510,-124 510,-90 364,-90"/>
<text text-anchor="start" x="372" y="-111" font-family="Helvetica,sans-Serif" font-size="10.00">ZendDbSchema_Db_Schema</text>
<text text-anchor="middle" x="437" y="-98" font-family="Helvetica,sans-Serif" font-size="10.00">_Table\toSql</text>
</a>
</g>
<!-- Node1&#45;&gt;Node7 -->
<g id="edge22" class="edge"><title>Node1&#45;&gt;Node7</title>
<path fill="none" stroke="midnightblue" d="M156.464,-129.35C219.07,-124.363 303.946,-117.6 363.894,-112.824"/>
<polygon fill="midnightblue" stroke="midnightblue" points="155.913,-125.883 146.223,-130.166 156.469,-132.861 155.913,-125.883"/>
</g>
<!-- Node8 -->
<g id="node15" class="node"><title>Node8</title>
<a xlink:href="classZendDbSchema__Db__Schema__Table.html#abeba5309be6269e72b2818fcabc01fec" target="_top" xlink:title="ZendDbSchema_Db_Schema\l_Table\\setFromArray">
<polygon fill="white" stroke="black" points="182,-52 182,-86 328,-86 328,-52 182,-52"/>
<text text-anchor="start" x="190" y="-73" font-family="Helvetica,sans-Serif" font-size="10.00">ZendDbSchema_Db_Schema</text>
<text text-anchor="middle" x="255" y="-60" font-family="Helvetica,sans-Serif" font-size="10.00">_Table\setFromArray</text>
</a>
</g>
<!-- Node1&#45;&gt;Node8 -->
<g id="edge14" class="edge"><title>Node1&#45;&gt;Node8</title>
<path fill="none" stroke="midnightblue" d="M128.958,-115.4C154.513,-105.992 184.42,-94.9827 208.688,-86.0491"/>
<polygon fill="midnightblue" stroke="midnightblue" points="127.572,-112.18 119.397,-118.92 129.991,-118.749 127.572,-112.18"/>
</g>
<!-- Node10 -->
<g id="node19" class="node"><title>Node10</title>
<a xlink:href="classZendDbSchema__Db__Schema__Table.html#aad47d08cebd042ad8e64d825b65859ab" target="_top" xlink:title="ZendDbSchema_Db_Schema\l_Table\\toArray">
<polygon fill="white" stroke="black" points="182,-0 182,-34 328,-34 328,-0 182,-0"/>
<text text-anchor="start" x="190" y="-21" font-family="Helvetica,sans-Serif" font-size="10.00">ZendDbSchema_Db_Schema</text>
<text text-anchor="middle" x="255" y="-8" font-family="Helvetica,sans-Serif" font-size="10.00">_Table\toArray</text>
</a>
</g>
<!-- Node1&#45;&gt;Node10 -->
<g id="edge18" class="edge"><title>Node1&#45;&gt;Node10</title>
<path fill="none" stroke="midnightblue" d="M96.3897,-111.554C117.23,-90.936 149.395,-61.853 182,-43 187.707,-39.7002 193.903,-36.711 200.193,-34.0345"/>
<polygon fill="midnightblue" stroke="midnightblue" points="93.8184,-109.176 89.2441,-118.732 98.7795,-114.114 93.8184,-109.176"/>
</g>
<!-- Node5 -->
<g id="node9" class="node"><title>Node5</title>
<a xlink:href="classZendDbSchema__Db__Schema__Generator__Mysql__Table.html#ab073dc755f15a13bd94772846df4249c" target="_top" xlink:title="ZendDbSchema_Db_Schema\l_Generator_Mysql_Table\l\\alterTable">
<polygon fill="white" stroke="black" points="364,-208.5 364,-255.5 510,-255.5 510,-208.5 364,-208.5"/>
<text text-anchor="start" x="372" y="-242.5" font-family="Helvetica,sans-Serif" font-size="10.00">ZendDbSchema_Db_Schema</text>
<text text-anchor="start" x="372" y="-229.5" font-family="Helvetica,sans-Serif" font-size="10.00">_Generator_Mysql_Table</text>
<text text-anchor="middle" x="437" y="-216.5" font-family="Helvetica,sans-Serif" font-size="10.00">\alterTable</text>
</a>
</g>
<!-- Node4&#45;&gt;Node5 -->
<g id="edge8" class="edge"><title>Node4&#45;&gt;Node5</title>
<path fill="none" stroke="midnightblue" d="M314.003,-179.643C318.752,-181.418 323.465,-183.217 328,-185 346.507,-192.277 366.55,-200.746 384.341,-208.475"/>
<polygon fill="midnightblue" stroke="midnightblue" points="314.84,-176.222 304.247,-176.048 312.419,-182.79 314.84,-176.222"/>
</g>
<!-- Node6 -->
<g id="node11" class="node"><title>Node6</title>
<a xlink:href="classZendDbSchema__Db__Schema__Generator__Pgsql__Table.html#a5273ef7520b31135bc524b432754762d" target="_top" xlink:title="ZendDbSchema_Db_Schema\l_Generator_Pgsql_Table\l\\alterTable">
<polygon fill="white" stroke="black" points="364,-142.5 364,-189.5 510,-189.5 510,-142.5 364,-142.5"/>
<text text-anchor="start" x="372" y="-176.5" font-family="Helvetica,sans-Serif" font-size="10.00">ZendDbSchema_Db_Schema</text>
<text text-anchor="start" x="372" y="-163.5" font-family="Helvetica,sans-Serif" font-size="10.00">_Generator_Pgsql_Table</text>
<text text-anchor="middle" x="437" y="-150.5" font-family="Helvetica,sans-Serif" font-size="10.00">\alterTable</text>
</a>
</g>
<!-- Node4&#45;&gt;Node6 -->
<g id="edge10" class="edge"><title>Node4&#45;&gt;Node6</title>
<path fill="none" stroke="midnightblue" d="M338.237,-162.201C346.804,-162.531 355.464,-162.864 363.91,-163.189"/>
<polygon fill="midnightblue" stroke="midnightblue" points="338.367,-158.704 328.24,-161.817 338.098,-165.699 338.367,-158.704"/>
</g>
<!-- Node4&#45;&gt;Node7 -->
<g id="edge12" class="edge"><title>Node4&#45;&gt;Node7</title>
<path fill="none" stroke="midnightblue" d="M324.66,-139.097C342.008,-134.141 360.452,-128.871 377.273,-124.065"/>
<polygon fill="midnightblue" stroke="midnightblue" points="323.247,-135.861 314.594,-141.973 325.17,-142.591 323.247,-135.861"/>
</g>
<!-- Node9 -->
<g id="node17" class="node"><title>Node9</title>
<a xlink:href="classZendDbSchema__Db__Schema__Table.html#a1fcef515c845c7770e17f997f80cafa9" target="_top" xlink:title="ZendDbSchema_Db_Schema\l_Table\\__clone">
<polygon fill="white" stroke="black" points="364,-23 364,-57 510,-57 510,-23 364,-23"/>
<text text-anchor="start" x="372" y="-44" font-family="Helvetica,sans-Serif" font-size="10.00">ZendDbSchema_Db_Schema</text>
<text text-anchor="middle" x="437" y="-31" font-family="Helvetica,sans-Serif" font-size="10.00">_Table\__clone</text>
</a>
</g>
<!-- Node8&#45;&gt;Node9 -->
<g id="edge16" class="edge"><title>Node8&#45;&gt;Node9</title>
<path fill="none" stroke="midnightblue" d="M338.237,-55.737C346.804,-54.3718 355.464,-52.9919 363.91,-51.6462"/>
<polygon fill="midnightblue" stroke="midnightblue" points="337.564,-52.2999 328.24,-57.3299 338.666,-59.2127 337.564,-52.2999"/>
</g>
<!-- Node10&#45;&gt;Node9 -->
<g id="edge20" class="edge"><title>Node10&#45;&gt;Node9</title>
<path fill="none" stroke="midnightblue" d="M338.237,-27.5189C346.804,-28.6016 355.464,-29.6961 363.91,-30.7634"/>
<polygon fill="midnightblue" stroke="midnightblue" points="338.6,-24.037 328.24,-26.2556 337.722,-30.9818 338.6,-24.037"/>
</g>
</g>
</svg>
