<?xml version="1.0" encoding="UTF-8" standalone="no"?>
<!DOCTYPE svg PUBLIC "-//W3C//DTD SVG 1.1//EN"
 "http://www.w3.org/Graphics/SVG/1.1/DTD/svg11.dtd">
<!-- Generated by graphviz version 2.26.3 (20100126.1600)
 -->
<!-- Title: G Pages: 1 -->
<svg width="1194pt" height="150pt"
 viewBox="0.00 0.00 1194.00 150.00" xmlns="http://www.w3.org/2000/svg" xmlns:xlink="http://www.w3.org/1999/xlink">
<g id="graph1" class="graph" transform="scale(1 1) rotate(0) translate(4 146)">
<title>G</title>
<polygon fill="white" stroke="white" points="-4,5 -4,-146 1191,-146 1191,5 -4,5"/>
<!-- Node1 -->
<g id="node1" class="node"><title>Node1</title>
<polygon fill="#bfbfbf" stroke="black" points="0.5,-44.5 0.5,-65.5 223.5,-65.5 223.5,-44.5 0.5,-44.5"/>
<text text-anchor="middle" x="112" y="-52.5" font-family="Helvetica,sans-Serif" font-size="10.00">ZendDbSchema_Db_Schema_Table\_doDelete</text>
</g>
<!-- Node2 -->
<g id="node3" class="node"><title>Node2</title>
<a xlink:href="classZendDbSchema__Db__Schema__AbstractSchema.html#a47d95912f6bf6d26d023597887dafacb" target="_top" xlink:title="ZendDbSchema_Db_Schema_AbstractSchema\\getAdapter">
<polygon fill="white" stroke="black" points="269.5,-67.5 269.5,-88.5 544.5,-88.5 544.5,-67.5 269.5,-67.5"/>
<text text-anchor="middle" x="407" y="-75.5" font-family="Helvetica,sans-Serif" font-size="10.00">ZendDbSchema_Db_Schema_AbstractSchema\getAdapter</text>
</a>
</g>
<!-- Node1&#45;&gt;Node2 -->
<g id="edge2" class="edge"><title>Node1&#45;&gt;Node2</title>
<path fill="none" stroke="midnightblue" d="M223.527,-63.6953C236.079,-64.674 249.002,-65.6815 261.901,-66.6872"/>
<polygon fill="midnightblue" stroke="midnightblue" points="261.99,-70.2047 272.232,-67.4927 262.534,-63.2259 261.99,-70.2047"/>
</g>
<!-- Node7 -->
<g id="node13" class="node"><title>Node7</title>
<a xlink:href="classZendDbSchema__Db__Schema__AbstractSchema.html#adacb1417b461310c5c87f72c459c1985" target="_top" xlink:title="ZendDbSchema_Db_Schema_AbstractSchema\\getOriginName">
<polygon fill="white" stroke="black" points="260.5,-22.5 260.5,-43.5 553.5,-43.5 553.5,-22.5 260.5,-22.5"/>
<text text-anchor="middle" x="407" y="-30.5" font-family="Helvetica,sans-Serif" font-size="10.00">ZendDbSchema_Db_Schema_AbstractSchema\getOriginName</text>
</a>
</g>
<!-- Node1&#45;&gt;Node7 -->
<g id="edge12" class="edge"><title>Node1&#45;&gt;Node7</title>
<path fill="none" stroke="midnightblue" d="M223.527,-46.6827C234.145,-45.8909 245.028,-45.0792 255.937,-44.2657"/>
<polygon fill="midnightblue" stroke="midnightblue" points="256.244,-47.7526 265.956,-43.5185 255.724,-40.772 256.244,-47.7526"/>
</g>
<!-- Node3 -->
<g id="node5" class="node"><title>Node3</title>
<a xlink:href="classZendDbSchema__Db__Schema__AbstractSchema.html#a6349649e5e09d67a5b5e0abe96298db8" target="_top" xlink:title="ZendDbSchema_Db_Schema_AbstractSchema\\setAdapter">
<polygon fill="white" stroke="black" points="590.5,-77.5 590.5,-98.5 865.5,-98.5 865.5,-77.5 590.5,-77.5"/>
<text text-anchor="middle" x="728" y="-85.5" font-family="Helvetica,sans-Serif" font-size="10.00">ZendDbSchema_Db_Schema_AbstractSchema\setAdapter</text>
</a>
</g>
<!-- Node2&#45;&gt;Node3 -->
<g id="edge4" class="edge"><title>Node2&#45;&gt;Node3</title>
<path fill="none" stroke="midnightblue" d="M544.53,-82.2844C556.243,-82.6493 568.124,-83.0194 579.914,-83.3867"/>
<polygon fill="midnightblue" stroke="midnightblue" points="580.141,-86.8954 590.245,-83.7086 580.359,-79.8988 580.141,-86.8954"/>
</g>
<!-- Node4 -->
<g id="node7" class="node"><title>Node4</title>
<a xlink:href="classZendDbSchema__Db__Schema__AbstractSchema.html#a53a1974dbc8822792a8d7b9c618d3a02" target="_top" xlink:title="ZendDbSchema_Db_Schema_AbstractSchema\\setGenerator">
<polygon fill="white" stroke="black" points="902,-120.5 902,-141.5 1186,-141.5 1186,-120.5 902,-120.5"/>
<text text-anchor="middle" x="1044" y="-128.5" font-family="Helvetica,sans-Serif" font-size="10.00">ZendDbSchema_Db_Schema_AbstractSchema\setGenerator</text>
</a>
</g>
<!-- Node3&#45;&gt;Node4 -->
<g id="edge6" class="edge"><title>Node3&#45;&gt;Node4</title>
<path fill="none" stroke="midnightblue" d="M805.302,-98.519C851.104,-104.752 909.273,-112.667 956.721,-119.123"/>
<polygon fill="midnightblue" stroke="midnightblue" points="956.294,-122.598 966.675,-120.478 957.238,-115.661 956.294,-122.598"/>
</g>
<!-- Node5 -->
<g id="node9" class="node"><title>Node5</title>
<a xlink:href="classZendDbSchema__Db__Schema__AbstractSchema.html#aa0e6c9f8d58702dc41d988f064f62698" target="_top" xlink:title="ZendDbSchema_Db_Schema_AbstractSchema\\setParser">
<polygon fill="white" stroke="black" points="909.5,-80.5 909.5,-101.5 1178.5,-101.5 1178.5,-80.5 909.5,-80.5"/>
<text text-anchor="middle" x="1044" y="-88.5" font-family="Helvetica,sans-Serif" font-size="10.00">ZendDbSchema_Db_Schema_AbstractSchema\setParser</text>
</a>
</g>
<!-- Node3&#45;&gt;Node5 -->
<g id="edge8" class="edge"><title>Node3&#45;&gt;Node5</title>
<path fill="none" stroke="midnightblue" d="M865.683,-89.3071C876.761,-89.4123 887.975,-89.5188 899.102,-89.6244"/>
<polygon fill="midnightblue" stroke="midnightblue" points="899.257,-93.1259 909.289,-89.7211 899.323,-86.1262 899.257,-93.1259"/>
</g>
<!-- Node6 -->
<g id="node11" class="node"><title>Node6</title>
<a xlink:href="classZendDbSchema__Db__Schema__AbstractSchema.html#ac0161e2c24dafba8433fb86205a147fe" target="_top" xlink:title="ZendDbSchema_Db_Schema_AbstractSchema\\setValidator">
<polygon fill="white" stroke="black" points="904.5,-40.5 904.5,-61.5 1183.5,-61.5 1183.5,-40.5 904.5,-40.5"/>
<text text-anchor="middle" x="1044" y="-48.5" font-family="Helvetica,sans-Serif" font-size="10.00">ZendDbSchema_Db_Schema_AbstractSchema\setValidator</text>
</a>
</g>
<!-- Node3&#45;&gt;Node6 -->
<g id="edge10" class="edge"><title>Node3&#45;&gt;Node6</title>
<path fill="none" stroke="midnightblue" d="M817.708,-77.4963C857.069,-72.8874 903.433,-67.4588 943.912,-62.7192"/>
<polygon fill="midnightblue" stroke="midnightblue" points="944.543,-66.1693 954.068,-61.53 943.729,-59.2168 944.543,-66.1693"/>
</g>
<!-- Node8 -->
<g id="node15" class="node"><title>Node8</title>
<a xlink:href="classZendDbSchema__Db__Schema__AbstractSchema.html#a54d32c6f15463eaad2321a9f0e7225d7" target="_top" xlink:title="ZendDbSchema_Db_Schema_AbstractSchema\\__get">
<polygon fill="white" stroke="black" points="602.5,-20.5 602.5,-41.5 853.5,-41.5 853.5,-20.5 602.5,-20.5"/>
<text text-anchor="middle" x="728" y="-28.5" font-family="Helvetica,sans-Serif" font-size="10.00">ZendDbSchema_Db_Schema_AbstractSchema\__get</text>
</a>
</g>
<!-- Node7&#45;&gt;Node8 -->
<g id="edge14" class="edge"><title>Node7&#45;&gt;Node8</title>
<path fill="none" stroke="midnightblue" d="M553.878,-32.0849C566.644,-32.0053 579.525,-31.9251 592.197,-31.8461"/>
<polygon fill="midnightblue" stroke="midnightblue" points="592.329,-35.3455 602.307,-31.7831 592.285,-28.3456 592.329,-35.3455"/>
</g>
<!-- Node9 -->
<g id="node17" class="node"><title>Node9</title>
<a xlink:href="classZendDbSchema__Db__Schema__AbstractSchema.html#ac4e121ba7932163eb1950fabe06fb9db" target="_top" xlink:title="ZendDbSchema_Db_Schema_AbstractSchema\\__isset">
<polygon fill="white" stroke="black" points="914.5,-0.5 914.5,-21.5 1173.5,-21.5 1173.5,-0.5 914.5,-0.5"/>
<text text-anchor="middle" x="1044" y="-8.5" font-family="Helvetica,sans-Serif" font-size="10.00">ZendDbSchema_Db_Schema_AbstractSchema\__isset</text>
</a>
</g>
<!-- Node8&#45;&gt;Node9 -->
<g id="edge16" class="edge"><title>Node8&#45;&gt;Node9</title>
<path fill="none" stroke="midnightblue" d="M853.8,-23.038C870.333,-21.9916 887.358,-20.914 904.108,-19.8539"/>
<polygon fill="midnightblue" stroke="midnightblue" points="904.736,-23.3213 914.495,-19.1965 904.294,-16.3353 904.736,-23.3213"/>
</g>
</g>
</svg>
