<?xml version="1.0" encoding="UTF-8" standalone="no"?>
<!DOCTYPE svg PUBLIC "-//W3C//DTD SVG 1.1//EN"
 "http://www.w3.org/Graphics/SVG/1.1/DTD/svg11.dtd">
<!-- Generated by graphviz version 2.26.3 (20100126.1600)
 -->
<!-- Title: G Pages: 1 -->
<svg width="518pt" height="276pt"
 viewBox="0.00 0.00 518.00 276.00" xmlns="http://www.w3.org/2000/svg" xmlns:xlink="http://www.w3.org/1999/xlink">
<g id="graph1" class="graph" transform="scale(1 1) rotate(0) translate(4 272)">
<title>G</title>
<polygon fill="white" stroke="white" points="-4,5 -4,-272 515,-272 515,5 -4,5"/>
<!-- Node1 -->
<g id="node1" class="node"><title>Node1</title>
<polygon fill="#bfbfbf" stroke="black" points="0,-130 0,-164 146,-164 146,-130 0,-130"/>
<text text-anchor="start" x="8" y="-151" font-family="Helvetica,sans-Serif" font-size="10.00">ZendDbSchema_Db_Schema</text>
<text text-anchor="middle" x="73" y="-138" font-family="Helvetica,sans-Serif" font-size="10.00">_AbstractEntity\getAdapter</text>
</g>
<!-- Node2 -->
<g id="node3" class="node"><title>Node2</title>
<a xlink:href="classZendDbSchema__Db__Schema__Database.html#a16cacd680a6a027a88ec41f6d8211982" target="_top" xlink:title="ZendDbSchema_Db_Schema\l_Database\\__set">
<polygon fill="white" stroke="black" points="182,-234 182,-268 328,-268 328,-234 182,-234"/>
<text text-anchor="start" x="190" y="-255" font-family="Helvetica,sans-Serif" font-size="10.00">ZendDbSchema_Db_Schema</text>
<text text-anchor="middle" x="255" y="-242" font-family="Helvetica,sans-Serif" font-size="10.00">_Database\__set</text>
</a>
</g>
<!-- Node1&#45;&gt;Node2 -->
<g id="edge2" class="edge"><title>Node1&#45;&gt;Node2</title>
<path fill="none" stroke="midnightblue" d="M101.113,-170.474C122.325,-187.327 152.689,-209.679 182,-225 188.2,-228.241 194.893,-231.238 201.623,-233.956"/>
<polygon fill="midnightblue" stroke="midnightblue" points="103.158,-167.627 93.1739,-164.082 98.7688,-173.08 103.158,-167.627"/>
</g>
<!-- Node4 -->
<g id="node7" class="node"><title>Node4</title>
<a xlink:href="classZendDbSchema__Db__Schema__Table.html#aca1c83f883007a2210ea4f470804d4d1" target="_top" xlink:title="ZendDbSchema_Db_Schema\l_Table\\__set">
<polygon fill="white" stroke="black" points="182,-182 182,-216 328,-216 328,-182 182,-182"/>
<text text-anchor="start" x="190" y="-203" font-family="Helvetica,sans-Serif" font-size="10.00">ZendDbSchema_Db_Schema</text>
<text text-anchor="middle" x="255" y="-190" font-family="Helvetica,sans-Serif" font-size="10.00">_Table\__set</text>
</a>
</g>
<!-- Node1&#45;&gt;Node4 -->
<g id="edge6" class="edge"><title>Node1&#45;&gt;Node4</title>
<path fill="none" stroke="midnightblue" d="M142.66,-166.903C160.008,-171.859 178.452,-177.129 195.273,-181.935"/>
<polygon fill="midnightblue" stroke="midnightblue" points="143.17,-163.409 132.594,-164.027 141.247,-170.139 143.17,-163.409"/>
</g>
<!-- Node5 -->
<g id="node9" class="node"><title>Node5</title>
<a xlink:href="classZendDbSchema__Db__Schema__Database.html#aad388b374fd5913946204230760b2d86" target="_top" xlink:title="ZendDbSchema_Db_Schema\l_Database\\_doReload">
<polygon fill="white" stroke="black" points="182,-130 182,-164 328,-164 328,-130 182,-130"/>
<text text-anchor="start" x="190" y="-151" font-family="Helvetica,sans-Serif" font-size="10.00">ZendDbSchema_Db_Schema</text>
<text text-anchor="middle" x="255" y="-138" font-family="Helvetica,sans-Serif" font-size="10.00">_Database\_doReload</text>
</a>
</g>
<!-- Node1&#45;&gt;Node5 -->
<g id="edge8" class="edge"><title>Node1&#45;&gt;Node5</title>
<path fill="none" stroke="midnightblue" d="M156.516,-147C164.992,-147 173.556,-147 181.91,-147"/>
<polygon fill="midnightblue" stroke="midnightblue" points="156.24,-143.5 146.24,-147 156.24,-150.5 156.24,-143.5"/>
</g>
<!-- Node6 -->
<g id="node11" class="node"><title>Node6</title>
<a xlink:href="classZendDbSchema__Db__Schema__Table.html#abc05b1f219611fefdd0e9eaeff1761d9" target="_top" xlink:title="ZendDbSchema_Db_Schema\l_Table\\_doReload">
<polygon fill="white" stroke="black" points="182,-78 182,-112 328,-112 328,-78 182,-78"/>
<text text-anchor="start" x="190" y="-99" font-family="Helvetica,sans-Serif" font-size="10.00">ZendDbSchema_Db_Schema</text>
<text text-anchor="middle" x="255" y="-86" font-family="Helvetica,sans-Serif" font-size="10.00">_Table\_doReload</text>
</a>
</g>
<!-- Node1&#45;&gt;Node6 -->
<g id="edge10" class="edge"><title>Node1&#45;&gt;Node6</title>
<path fill="none" stroke="midnightblue" d="M142.66,-127.097C160.008,-122.141 178.452,-116.871 195.273,-112.065"/>
<polygon fill="midnightblue" stroke="midnightblue" points="141.247,-123.861 132.594,-129.973 143.17,-130.591 141.247,-123.861"/>
</g>
<!-- Node7 -->
<g id="node13" class="node"><title>Node7</title>
<a xlink:href="classZendDbSchema__Db__Schema__AbstractEntity.html#a7ddb87869e3021260c12bb57df4ba8c1" target="_top" xlink:title="ZendDbSchema_Db_Schema\l_AbstractEntity\\exec">
<polygon fill="white" stroke="black" points="182,-26 182,-60 328,-60 328,-26 182,-26"/>
<text text-anchor="start" x="190" y="-47" font-family="Helvetica,sans-Serif" font-size="10.00">ZendDbSchema_Db_Schema</text>
<text text-anchor="middle" x="255" y="-34" font-family="Helvetica,sans-Serif" font-size="10.00">_AbstractEntity\exec</text>
</a>
</g>
<!-- Node1&#45;&gt;Node7 -->
<g id="edge12" class="edge"><title>Node1&#45;&gt;Node7</title>
<path fill="none" stroke="midnightblue" d="M101.113,-123.526C122.325,-106.673 152.689,-84.3208 182,-69 188.2,-65.7593 194.893,-62.7624 201.623,-60.044"/>
<polygon fill="midnightblue" stroke="midnightblue" points="98.7688,-120.92 93.1739,-129.918 103.158,-126.373 98.7688,-120.92"/>
</g>
<!-- Node3 -->
<g id="node5" class="node"><title>Node3</title>
<a xlink:href="classZendDbSchema__Db__Schema__Database.html#acfc530f3381e35f7d57676c4dcff3620" target="_top" xlink:title="ZendDbSchema_Db_Schema\l_Database\\setCharset">
<polygon fill="white" stroke="black" points="364,-234 364,-268 510,-268 510,-234 364,-234"/>
<text text-anchor="start" x="372" y="-255" font-family="Helvetica,sans-Serif" font-size="10.00">ZendDbSchema_Db_Schema</text>
<text text-anchor="middle" x="437" y="-242" font-family="Helvetica,sans-Serif" font-size="10.00">_Database\setCharset</text>
</a>
</g>
<!-- Node2&#45;&gt;Node3 -->
<g id="edge4" class="edge"><title>Node2&#45;&gt;Node3</title>
<path fill="none" stroke="midnightblue" d="M338.516,-251C346.992,-251 355.556,-251 363.91,-251"/>
<polygon fill="midnightblue" stroke="midnightblue" points="338.24,-247.5 328.24,-251 338.24,-254.5 338.24,-247.5"/>
</g>
<!-- Node8 -->
<g id="node15" class="node"><title>Node8</title>
<a xlink:href="classZendDbSchema__Db__Schema__AbstractEntity.html#a26fcff2268495fcdbfa265f394ee93d9" target="_top" xlink:title="ZendDbSchema_Db_Schema\l_AbstractEntity\\delete">
<polygon fill="white" stroke="black" points="364,-52 364,-86 510,-86 510,-52 364,-52"/>
<text text-anchor="start" x="372" y="-73" font-family="Helvetica,sans-Serif" font-size="10.00">ZendDbSchema_Db_Schema</text>
<text text-anchor="middle" x="437" y="-60" font-family="Helvetica,sans-Serif" font-size="10.00">_AbstractEntity\delete</text>
</a>
</g>
<!-- Node7&#45;&gt;Node8 -->
<g id="edge14" class="edge"><title>Node7&#45;&gt;Node8</title>
<path fill="none" stroke="midnightblue" d="M338.237,-54.8909C346.804,-56.1149 355.464,-57.3521 363.91,-58.5586"/>
<polygon fill="midnightblue" stroke="midnightblue" points="338.634,-51.4123 328.24,-53.4628 337.644,-58.3419 338.634,-51.4123"/>
</g>
<!-- Node9 -->
<g id="node17" class="node"><title>Node9</title>
<a xlink:href="classZendDbSchema__Db__Schema__AbstractEntity.html#a5b1c93da76c3708f90d330b4643e55b2" target="_top" xlink:title="ZendDbSchema_Db_Schema\l_AbstractEntity\\save">
<polygon fill="white" stroke="black" points="364,-0 364,-34 510,-34 510,-0 364,-0"/>
<text text-anchor="start" x="372" y="-21" font-family="Helvetica,sans-Serif" font-size="10.00">ZendDbSchema_Db_Schema</text>
<text text-anchor="middle" x="437" y="-8" font-family="Helvetica,sans-Serif" font-size="10.00">_AbstractEntity\save</text>
</a>
</g>
<!-- Node7&#45;&gt;Node9 -->
<g id="edge16" class="edge"><title>Node7&#45;&gt;Node9</title>
<path fill="none" stroke="midnightblue" d="M338.237,-31.1091C346.804,-29.8851 355.464,-28.6479 363.91,-27.4414"/>
<polygon fill="midnightblue" stroke="midnightblue" points="337.644,-27.6581 328.24,-32.5372 338.634,-34.5877 337.644,-27.6581"/>
</g>
</g>
</svg>
