<?xml version="1.0" encoding="UTF-8" standalone="no"?>
<!DOCTYPE svg PUBLIC "-//W3C//DTD SVG 1.1//EN"
 "http://www.w3.org/Graphics/SVG/1.1/DTD/svg11.dtd">
<!-- Generated by graphviz version 2.26.3 (20100126.1600)
 -->
<!-- Title: G Pages: 1 -->
<svg width="660pt" height="70pt"
 viewBox="0.00 0.00 660.00 70.00" xmlns="http://www.w3.org/2000/svg" xmlns:xlink="http://www.w3.org/1999/xlink">
<g id="graph1" class="graph" transform="scale(1 1) rotate(0) translate(4 66)">
<title>G</title>
<polygon fill="white" stroke="white" points="-4,5 -4,-66 657,-66 657,5 -4,5"/>
<!-- Node1 -->
<g id="node1" class="node"><title>Node1</title>
<polygon fill="#bfbfbf" stroke="black" points="0.5,-20.5 0.5,-41.5 299.5,-41.5 299.5,-20.5 0.5,-20.5"/>
<text text-anchor="middle" x="150" y="-28.5" font-family="Helvetica,sans-Serif" font-size="10.00">ZendDbSchema_Db_Schema_Table_ForeignKey\hasRefColumn</text>
</g>
<!-- Node2 -->
<g id="node3" class="node"><title>Node2</title>
<a xlink:href="classZendDbSchema__Db__Schema__Table__ForeignKey.html#a2197861c0661243f1ebcf43a7e7771f2" target="_top" xlink:title="ZendDbSchema_Db_Schema_Table_ForeignKey\\addRefColumn">
<polygon fill="white" stroke="black" points="344.5,-40.5 344.5,-61.5 643.5,-61.5 643.5,-40.5 344.5,-40.5"/>
<text text-anchor="middle" x="494" y="-48.5" font-family="Helvetica,sans-Serif" font-size="10.00">ZendDbSchema_Db_Schema_Table_ForeignKey\addRefColumn</text>
</a>
</g>
<!-- Node1&#45;&gt;Node2 -->
<g id="edge2" class="edge"><title>Node1&#45;&gt;Node2</title>
<path fill="none" stroke="midnightblue" d="M309.941,-40.2989C321.414,-40.9659 332.958,-41.6371 344.369,-42.3005"/>
<polygon fill="midnightblue" stroke="midnightblue" points="310.069,-36.8005 299.883,-39.7141 309.663,-43.7887 310.069,-36.8005"/>
</g>
<!-- Node3 -->
<g id="node5" class="node"><title>Node3</title>
<a xlink:href="classZendDbSchema__Db__Schema__Table__ForeignKey.html#ab1730184f38846e90fc31b891a3d9b8c" target="_top" xlink:title="ZendDbSchema_Db_Schema_Table_ForeignKey\\removeRefColumn">
<polygon fill="white" stroke="black" points="336.5,-0.5 336.5,-21.5 651.5,-21.5 651.5,-0.5 336.5,-0.5"/>
<text text-anchor="middle" x="494" y="-8.5" font-family="Helvetica,sans-Serif" font-size="10.00">ZendDbSchema_Db_Schema_Table_ForeignKey\removeRefColumn</text>
</a>
</g>
<!-- Node1&#45;&gt;Node3 -->
<g id="edge4" class="edge"><title>Node1&#45;&gt;Node3</title>
<path fill="none" stroke="midnightblue" d="M310.148,-21.6891C318.913,-21.1795 327.72,-20.6675 336.476,-20.1584"/>
<polygon fill="midnightblue" stroke="midnightblue" points="309.663,-18.2113 299.883,-22.2859 310.069,-25.1995 309.663,-18.2113"/>
</g>
</g>
</svg>
