<?xml version="1.0" encoding="UTF-8" standalone="no"?>
<!DOCTYPE svg PUBLIC "-//W3C//DTD SVG 1.1//EN"
 "http://www.w3.org/Graphics/SVG/1.1/DTD/svg11.dtd">
<!-- Generated by graphviz version 2.26.3 (20100126.1600)
 -->
<!-- Title: G Pages: 1 -->
<svg width="336pt" height="302pt"
 viewBox="0.00 0.00 336.00 302.00" xmlns="http://www.w3.org/2000/svg" xmlns:xlink="http://www.w3.org/1999/xlink">
<g id="graph1" class="graph" transform="scale(1 1) rotate(0) translate(4 298)">
<title>G</title>
<polygon fill="white" stroke="white" points="-4,5 -4,-298 333,-298 333,5 -4,5"/>
<!-- Node1 -->
<g id="node1" class="node"><title>Node1</title>
<polygon fill="#bfbfbf" stroke="black" points="0,-130 0,-164 146,-164 146,-130 0,-130"/>
<text text-anchor="start" x="8" y="-151" font-family="Helvetica,sans-Serif" font-size="10.00">ZendDbSchema_Db_Schema</text>
<text text-anchor="middle" x="73" y="-138" font-family="Helvetica,sans-Serif" font-size="10.00">_AbstractEntity\getGenerator</text>
</g>
<!-- Node2 -->
<g id="node3" class="node"><title>Node2</title>
<a xlink:href="classZendDbSchema__Db__Schema__Database.html#a4f5a636c4e7d8ab57f6e090cdf8841dc" target="_top" xlink:title="ZendDbSchema_Db_Schema\l_Database\\_getAlterSql">
<polygon fill="white" stroke="black" points="182,-260 182,-294 328,-294 328,-260 182,-260"/>
<text text-anchor="start" x="190" y="-281" font-family="Helvetica,sans-Serif" font-size="10.00">ZendDbSchema_Db_Schema</text>
<text text-anchor="middle" x="255" y="-268" font-family="Helvetica,sans-Serif" font-size="10.00">_Database\_getAlterSql</text>
</a>
</g>
<!-- Node1&#45;&gt;Node2 -->
<g id="edge2" class="edge"><title>Node1&#45;&gt;Node2</title>
<path fill="none" stroke="midnightblue" d="M93.4388,-171.775C113.777,-195.037 146.938,-229.405 182,-251 187.384,-254.316 193.251,-257.291 199.244,-259.938"/>
<polygon fill="midnightblue" stroke="midnightblue" points="95.9705,-169.35 86.7977,-164.048 90.662,-173.913 95.9705,-169.35"/>
</g>
<!-- Node3 -->
<g id="node5" class="node"><title>Node3</title>
<a xlink:href="classZendDbSchema__Db__Schema__Table.html#a385e32fefac9fd4c6e4274c1e0c0b810" target="_top" xlink:title="ZendDbSchema_Db_Schema\l_Table\\_getAlterSql">
<polygon fill="white" stroke="black" points="182,-208 182,-242 328,-242 328,-208 182,-208"/>
<text text-anchor="start" x="190" y="-229" font-family="Helvetica,sans-Serif" font-size="10.00">ZendDbSchema_Db_Schema</text>
<text text-anchor="middle" x="255" y="-216" font-family="Helvetica,sans-Serif" font-size="10.00">_Table\_getAlterSql</text>
</a>
</g>
<!-- Node1&#45;&gt;Node3 -->
<g id="edge4" class="edge"><title>Node1&#45;&gt;Node3</title>
<path fill="none" stroke="midnightblue" d="M115.605,-168.578C135.552,-178.356 159.768,-189.767 182,-199 189.33,-202.044 197.159,-205.067 204.868,-207.915"/>
<polygon fill="midnightblue" stroke="midnightblue" points="116.989,-165.358 106.473,-164.07 113.891,-171.635 116.989,-165.358"/>
</g>
<!-- Node4 -->
<g id="node7" class="node"><title>Node4</title>
<a xlink:href="classZendDbSchema__Db__Schema__Database.html#a48ad6cd38cc07c3c350335d21d7c11e9" target="_top" xlink:title="ZendDbSchema_Db_Schema\l_Database\\_getCreateSql">
<polygon fill="white" stroke="black" points="182,-156 182,-190 328,-190 328,-156 182,-156"/>
<text text-anchor="start" x="190" y="-177" font-family="Helvetica,sans-Serif" font-size="10.00">ZendDbSchema_Db_Schema</text>
<text text-anchor="middle" x="255" y="-164" font-family="Helvetica,sans-Serif" font-size="10.00">_Database\_getCreateSql</text>
</a>
</g>
<!-- Node1&#45;&gt;Node4 -->
<g id="edge6" class="edge"><title>Node1&#45;&gt;Node4</title>
<path fill="none" stroke="midnightblue" d="M156.237,-158.891C164.804,-160.115 173.464,-161.352 181.91,-162.559"/>
<polygon fill="midnightblue" stroke="midnightblue" points="156.634,-155.412 146.24,-157.463 155.644,-162.342 156.634,-155.412"/>
</g>
<!-- Node5 -->
<g id="node9" class="node"><title>Node5</title>
<a xlink:href="classZendDbSchema__Db__Schema__Table.html#aefb813dece15a26017e580acc64e3406" target="_top" xlink:title="ZendDbSchema_Db_Schema\l_Table\\_getCreateSql">
<polygon fill="white" stroke="black" points="182,-104 182,-138 328,-138 328,-104 182,-104"/>
<text text-anchor="start" x="190" y="-125" font-family="Helvetica,sans-Serif" font-size="10.00">ZendDbSchema_Db_Schema</text>
<text text-anchor="middle" x="255" y="-112" font-family="Helvetica,sans-Serif" font-size="10.00">_Table\_getCreateSql</text>
</a>
</g>
<!-- Node1&#45;&gt;Node5 -->
<g id="edge8" class="edge"><title>Node1&#45;&gt;Node5</title>
<path fill="none" stroke="midnightblue" d="M156.237,-135.109C164.804,-133.885 173.464,-132.648 181.91,-131.441"/>
<polygon fill="midnightblue" stroke="midnightblue" points="155.644,-131.658 146.24,-136.537 156.634,-138.588 155.644,-131.658"/>
</g>
<!-- Node6 -->
<g id="node11" class="node"><title>Node6</title>
<a xlink:href="classZendDbSchema__Db__Schema__Database.html#ad0a851f47e7766bef9f0a54d01bffa6e" target="_top" xlink:title="ZendDbSchema_Db_Schema\l_Database\\_getDropSql">
<polygon fill="white" stroke="black" points="182,-52 182,-86 328,-86 328,-52 182,-52"/>
<text text-anchor="start" x="190" y="-73" font-family="Helvetica,sans-Serif" font-size="10.00">ZendDbSchema_Db_Schema</text>
<text text-anchor="middle" x="255" y="-60" font-family="Helvetica,sans-Serif" font-size="10.00">_Database\_getDropSql</text>
</a>
</g>
<!-- Node1&#45;&gt;Node6 -->
<g id="edge10" class="edge"><title>Node1&#45;&gt;Node6</title>
<path fill="none" stroke="midnightblue" d="M115.605,-125.422C135.552,-115.644 159.768,-104.233 182,-95 189.33,-91.9555 197.159,-88.9333 204.868,-86.0849"/>
<polygon fill="midnightblue" stroke="midnightblue" points="113.891,-122.365 106.473,-129.93 116.989,-128.642 113.891,-122.365"/>
</g>
<!-- Node7 -->
<g id="node13" class="node"><title>Node7</title>
<a xlink:href="classZendDbSchema__Db__Schema__Table.html#a7be2ac66a479e6264cc9b04980f65df6" target="_top" xlink:title="ZendDbSchema_Db_Schema\l_Table\\_getDropSql">
<polygon fill="white" stroke="black" points="182,-0 182,-34 328,-34 328,-0 182,-0"/>
<text text-anchor="start" x="190" y="-21" font-family="Helvetica,sans-Serif" font-size="10.00">ZendDbSchema_Db_Schema</text>
<text text-anchor="middle" x="255" y="-8" font-family="Helvetica,sans-Serif" font-size="10.00">_Table\_getDropSql</text>
</a>
</g>
<!-- Node1&#45;&gt;Node7 -->
<g id="edge12" class="edge"><title>Node1&#45;&gt;Node7</title>
<path fill="none" stroke="midnightblue" d="M93.4388,-122.225C113.777,-98.9628 146.938,-64.5951 182,-43 187.384,-39.684 193.251,-36.7092 199.244,-34.0621"/>
<polygon fill="midnightblue" stroke="midnightblue" points="90.662,-120.087 86.7977,-129.952 95.9705,-124.65 90.662,-120.087"/>
</g>
</g>
</svg>
