<?xml version="1.0" encoding="UTF-8" standalone="no"?>
<!DOCTYPE svg PUBLIC "-//W3C//DTD SVG 1.1//EN"
 "http://www.w3.org/Graphics/SVG/1.1/DTD/svg11.dtd">
<!-- Generated by graphviz version 2.26.3 (20100126.1600)
 -->
<!-- Title: G Pages: 1 -->
<svg width="1816pt" height="110pt"
 viewBox="0.00 0.00 1816.00 110.00" xmlns="http://www.w3.org/2000/svg" xmlns:xlink="http://www.w3.org/1999/xlink">
<g id="graph1" class="graph" transform="scale(1 1) rotate(0) translate(4 106)">
<title>G</title>
<polygon fill="white" stroke="white" points="-4,5 -4,-106 1813,-106 1813,5 -4,5"/>
<!-- Node1 -->
<g id="node1" class="node"><title>Node1</title>
<polygon fill="#bfbfbf" stroke="black" points="0,-40.5 0,-61.5 260,-61.5 260,-40.5 0,-40.5"/>
<text text-anchor="middle" x="130" y="-48.5" font-family="Helvetica,sans-Serif" font-size="10.00">ZendDbSchema_Db_Schema_Table_Column\setLength</text>
</g>
<!-- Node2 -->
<g id="node3" class="node"><title>Node2</title>
<a xlink:href="classZendDbSchema__Db__Schema__AbstractSchema.html#ab4282a1fd6f4d9f23d01de8328072c71" target="_top" xlink:title="ZendDbSchema_Db_Schema_AbstractSchema\\__set">
<polygon fill="white" stroke="black" points="296.5,-40.5 296.5,-61.5 547.5,-61.5 547.5,-40.5 296.5,-40.5"/>
<text text-anchor="middle" x="422" y="-48.5" font-family="Helvetica,sans-Serif" font-size="10.00">ZendDbSchema_Db_Schema_AbstractSchema\__set</text>
</a>
</g>
<!-- Node1&#45;&gt;Node2 -->
<g id="edge2" class="edge"><title>Node1&#45;&gt;Node2</title>
<path fill="none" stroke="midnightblue" d="M260.201,-51C268.837,-51 277.547,-51 286.209,-51"/>
<polygon fill="midnightblue" stroke="midnightblue" points="286.348,-54.5001 296.348,-51 286.348,-47.5001 286.348,-54.5001"/>
</g>
<!-- Node3 -->
<g id="node5" class="node"><title>Node3</title>
<a xlink:href="classZendDbSchema__Db__Schema__AbstractSchema.html#afda46eab0c365f4c9a743b7185c51d6c" target="_top" xlink:title="ZendDbSchema_Db_Schema_AbstractSchema\\getValidator">
<polygon fill="white" stroke="black" points="584.5,-40.5 584.5,-61.5 863.5,-61.5 863.5,-40.5 584.5,-40.5"/>
<text text-anchor="middle" x="724" y="-48.5" font-family="Helvetica,sans-Serif" font-size="10.00">ZendDbSchema_Db_Schema_AbstractSchema\getValidator</text>
</a>
</g>
<!-- Node2&#45;&gt;Node3 -->
<g id="edge4" class="edge"><title>Node2&#45;&gt;Node3</title>
<path fill="none" stroke="midnightblue" d="M547.888,-51C556.497,-51 565.217,-51 573.933,-51"/>
<polygon fill="midnightblue" stroke="midnightblue" points="574.156,-54.5001 584.156,-51 574.156,-47.5001 574.156,-54.5001"/>
</g>
<!-- Node4 -->
<g id="node7" class="node"><title>Node4</title>
<a xlink:href="classZendDbSchema__Db__Schema__AbstractSchema.html#a47d95912f6bf6d26d023597887dafacb" target="_top" xlink:title="ZendDbSchema_Db_Schema_AbstractSchema\\getAdapter">
<polygon fill="white" stroke="black" points="900.5,-40.5 900.5,-61.5 1175.5,-61.5 1175.5,-40.5 900.5,-40.5"/>
<text text-anchor="middle" x="1038" y="-48.5" font-family="Helvetica,sans-Serif" font-size="10.00">ZendDbSchema_Db_Schema_AbstractSchema\getAdapter</text>
</a>
</g>
<!-- Node3&#45;&gt;Node4 -->
<g id="edge6" class="edge"><title>Node3&#45;&gt;Node4</title>
<path fill="none" stroke="midnightblue" d="M863.554,-51C872.265,-51 881.05,-51 889.797,-51"/>
<polygon fill="midnightblue" stroke="midnightblue" points="890.043,-54.5001 900.043,-51 890.043,-47.5001 890.043,-54.5001"/>
</g>
<!-- Node5 -->
<g id="node9" class="node"><title>Node5</title>
<a xlink:href="classZendDbSchema__Db__Schema__AbstractSchema.html#a6349649e5e09d67a5b5e0abe96298db8" target="_top" xlink:title="ZendDbSchema_Db_Schema_AbstractSchema\\setAdapter">
<polygon fill="white" stroke="black" points="1212.5,-40.5 1212.5,-61.5 1487.5,-61.5 1487.5,-40.5 1212.5,-40.5"/>
<text text-anchor="middle" x="1350" y="-48.5" font-family="Helvetica,sans-Serif" font-size="10.00">ZendDbSchema_Db_Schema_AbstractSchema\setAdapter</text>
</a>
</g>
<!-- Node4&#45;&gt;Node5 -->
<g id="edge8" class="edge"><title>Node4&#45;&gt;Node5</title>
<path fill="none" stroke="midnightblue" d="M1175.76,-51C1184.44,-51 1193.2,-51 1201.92,-51"/>
<polygon fill="midnightblue" stroke="midnightblue" points="1202.14,-54.5001 1212.14,-51 1202.14,-47.5001 1202.14,-54.5001"/>
</g>
<!-- Node6 -->
<g id="node11" class="node"><title>Node6</title>
<a xlink:href="classZendDbSchema__Db__Schema__AbstractSchema.html#a53a1974dbc8822792a8d7b9c618d3a02" target="_top" xlink:title="ZendDbSchema_Db_Schema_AbstractSchema\\setGenerator">
<polygon fill="white" stroke="black" points="1524,-80.5 1524,-101.5 1808,-101.5 1808,-80.5 1524,-80.5"/>
<text text-anchor="middle" x="1666" y="-88.5" font-family="Helvetica,sans-Serif" font-size="10.00">ZendDbSchema_Db_Schema_AbstractSchema\setGenerator</text>
</a>
</g>
<!-- Node5&#45;&gt;Node6 -->
<g id="edge10" class="edge"><title>Node5&#45;&gt;Node6</title>
<path fill="none" stroke="midnightblue" d="M1433.03,-61.5095C1475.95,-66.9425 1528.48,-73.5919 1572.78,-79.2006"/>
<polygon fill="midnightblue" stroke="midnightblue" points="1572.62,-82.7077 1582.98,-80.4913 1573.5,-75.7631 1572.62,-82.7077"/>
</g>
<!-- Node7 -->
<g id="node13" class="node"><title>Node7</title>
<a xlink:href="classZendDbSchema__Db__Schema__AbstractSchema.html#aa0e6c9f8d58702dc41d988f064f62698" target="_top" xlink:title="ZendDbSchema_Db_Schema_AbstractSchema\\setParser">
<polygon fill="white" stroke="black" points="1531.5,-40.5 1531.5,-61.5 1800.5,-61.5 1800.5,-40.5 1531.5,-40.5"/>
<text text-anchor="middle" x="1666" y="-48.5" font-family="Helvetica,sans-Serif" font-size="10.00">ZendDbSchema_Db_Schema_AbstractSchema\setParser</text>
</a>
</g>
<!-- Node5&#45;&gt;Node7 -->
<g id="edge12" class="edge"><title>Node5&#45;&gt;Node7</title>
<path fill="none" stroke="midnightblue" d="M1487.68,-51C1498.76,-51 1509.98,-51 1521.1,-51"/>
<polygon fill="midnightblue" stroke="midnightblue" points="1521.29,-54.5001 1531.29,-51 1521.29,-47.5001 1521.29,-54.5001"/>
</g>
<!-- Node8 -->
<g id="node15" class="node"><title>Node8</title>
<a xlink:href="classZendDbSchema__Db__Schema__AbstractSchema.html#ac0161e2c24dafba8433fb86205a147fe" target="_top" xlink:title="ZendDbSchema_Db_Schema_AbstractSchema\\setValidator">
<polygon fill="white" stroke="black" points="1526.5,-0.5 1526.5,-21.5 1805.5,-21.5 1805.5,-0.5 1526.5,-0.5"/>
<text text-anchor="middle" x="1666" y="-8.5" font-family="Helvetica,sans-Serif" font-size="10.00">ZendDbSchema_Db_Schema_AbstractSchema\setValidator</text>
</a>
</g>
<!-- Node5&#45;&gt;Node8 -->
<g id="edge14" class="edge"><title>Node5&#45;&gt;Node8</title>
<path fill="none" stroke="midnightblue" d="M1433.03,-40.4905C1475.95,-35.0575 1528.48,-28.4081 1572.78,-22.7994"/>
<polygon fill="midnightblue" stroke="midnightblue" points="1573.5,-26.2369 1582.98,-21.5087 1572.62,-19.2923 1573.5,-26.2369"/>
</g>
</g>
</svg>
