<?xml version="1.0" encoding="UTF-8" standalone="no"?>
<!DOCTYPE svg PUBLIC "-//W3C//DTD SVG 1.1//EN"
 "http://www.w3.org/Graphics/SVG/1.1/DTD/svg11.dtd">
<!-- Generated by graphviz version 2.26.3 (20100126.1600)
 -->
<!-- Title: G Pages: 1 -->
<svg width="960pt" height="378pt"
 viewBox="0.00 0.00 960.00 378.00" xmlns="http://www.w3.org/2000/svg" xmlns:xlink="http://www.w3.org/1999/xlink">
<g id="graph1" class="graph" transform="scale(1 1) rotate(0) translate(4 374)">
<title>G</title>
<polygon fill="white" stroke="white" points="-4,5 -4,-374 957,-374 957,5 -4,5"/>
<!-- Node1 -->
<g id="node1" class="node"><title>Node1</title>
<polygon fill="#bfbfbf" stroke="black" points="0,-131.5 0,-178.5 146,-178.5 146,-131.5 0,-131.5"/>
<text text-anchor="start" x="8" y="-165.5" font-family="Helvetica,sans-Serif" font-size="10.00">ZendDbSchema_Db_Schema</text>
<text text-anchor="start" x="8" y="-152.5" font-family="Helvetica,sans-Serif" font-size="10.00">_Generator_Pgsql_Table</text>
<text text-anchor="middle" x="73" y="-139.5" font-family="Helvetica,sans-Serif" font-size="10.00">\alterTable</text>
</g>
<!-- Node2 -->
<g id="node3" class="node"><title>Node2</title>
<a xlink:href="classZendDbSchema__Db__Schema__AbstractSchema.html#a1680a8fd22360f74d29b641d7257a52f" target="_top" xlink:title="ZendDbSchema_Db_Schema\l_AbstractSchema\\isExist">
<polygon fill="white" stroke="black" points="191,-290 191,-324 337,-324 337,-290 191,-290"/>
<text text-anchor="start" x="199" y="-311" font-family="Helvetica,sans-Serif" font-size="10.00">ZendDbSchema_Db_Schema</text>
<text text-anchor="middle" x="264" y="-298" font-family="Helvetica,sans-Serif" font-size="10.00">_AbstractSchema\isExist</text>
</a>
</g>
<!-- Node1&#45;&gt;Node2 -->
<g id="edge2" class="edge"><title>Node1&#45;&gt;Node2</title>
<path fill="none" stroke="midnightblue" d="M102.844,-178.75C138.686,-207.273 198.442,-254.828 234.244,-283.32"/>
<polygon fill="midnightblue" stroke="midnightblue" points="232.364,-286.297 242.369,-289.785 236.723,-280.82 232.364,-286.297"/>
</g>
<!-- Node5 -->
<g id="node9" class="node"><title>Node5</title>
<a xlink:href="classZendDbSchema__Db__Schema__AbstractSchema.html#a55787c21deddba427842809d589c2df6" target="_top" xlink:title="ZendDbSchema_Db_Schema\l_AbstractSchema\\getName">
<polygon fill="white" stroke="black" points="396,-0 396,-34 542,-34 542,-0 396,-0"/>
<text text-anchor="start" x="404" y="-21" font-family="Helvetica,sans-Serif" font-size="10.00">ZendDbSchema_Db_Schema</text>
<text text-anchor="middle" x="469" y="-8" font-family="Helvetica,sans-Serif" font-size="10.00">_AbstractSchema\getName</text>
</a>
</g>
<!-- Node1&#45;&gt;Node5 -->
<g id="edge8" class="edge"><title>Node1&#45;&gt;Node5</title>
<path fill="none" stroke="midnightblue" d="M112.381,-131.372C132.673,-119.892 158.116,-106.551 182,-97 248.853,-70.2649 327.857,-48.9515 386.033,-35.068"/>
<polygon fill="midnightblue" stroke="midnightblue" points="386.987,-38.4391 395.914,-32.7335 385.377,-31.6267 386.987,-38.4391"/>
</g>
<!-- Node8 -->
<g id="node15" class="node"><title>Node8</title>
<a xlink:href="classZendDbSchema__Db__Schema__Table.html#a21a2a75870207a989576655fec7507c3" target="_top" xlink:title="ZendDbSchema_Db_Schema\l_Table\\isDirty">
<polygon fill="white" stroke="black" points="191,-171 191,-205 337,-205 337,-171 191,-171"/>
<text text-anchor="start" x="199" y="-192" font-family="Helvetica,sans-Serif" font-size="10.00">ZendDbSchema_Db_Schema</text>
<text text-anchor="middle" x="264" y="-179" font-family="Helvetica,sans-Serif" font-size="10.00">_Table\isDirty</text>
</a>
</g>
<!-- Node1&#45;&gt;Node8 -->
<g id="edge14" class="edge"><title>Node1&#45;&gt;Node8</title>
<path fill="none" stroke="midnightblue" d="M146.026,-167.617C157.348,-169.573 169.117,-171.607 180.646,-173.598"/>
<polygon fill="midnightblue" stroke="midnightblue" points="180.248,-177.082 190.698,-175.335 181.44,-170.184 180.248,-177.082"/>
</g>
<!-- Node13 -->
<g id="node28" class="node"><title>Node13</title>
<a xlink:href="classZendDbSchema__Db__Schema__AbstractSchema.html#adacb1417b461310c5c87f72c459c1985" target="_top" xlink:title="ZendDbSchema_Db_Schema\l_AbstractSchema\\getOriginName">
<polygon fill="white" stroke="black" points="182.5,-106 182.5,-140 345.5,-140 345.5,-106 182.5,-106"/>
<text text-anchor="start" x="190.5" y="-127" font-family="Helvetica,sans-Serif" font-size="10.00">ZendDbSchema_Db_Schema</text>
<text text-anchor="middle" x="264" y="-114" font-family="Helvetica,sans-Serif" font-size="10.00">_AbstractSchema\getOriginName</text>
</a>
</g>
<!-- Node1&#45;&gt;Node13 -->
<g id="edge30" class="edge"><title>Node1&#45;&gt;Node13</title>
<path fill="none" stroke="midnightblue" d="M146.026,-142.765C154.673,-141.317 163.58,-139.824 172.441,-138.34"/>
<polygon fill="midnightblue" stroke="midnightblue" points="173.127,-141.774 182.411,-136.669 171.97,-134.87 173.127,-141.774"/>
</g>
<!-- Node3 -->
<g id="node5" class="node"><title>Node3</title>
<a xlink:href="classZendDbSchema__Db__Schema__AbstractSchema.html#a46da7a60c7e5fd605607afbc1dac4baa" target="_top" xlink:title="ZendDbSchema_Db_Schema\l_AbstractSchema\\getCleanSchema">
<polygon fill="white" stroke="black" points="382.5,-336 382.5,-370 555.5,-370 555.5,-336 382.5,-336"/>
<text text-anchor="start" x="390.5" y="-357" font-family="Helvetica,sans-Serif" font-size="10.00">ZendDbSchema_Db_Schema</text>
<text text-anchor="middle" x="469" y="-344" font-family="Helvetica,sans-Serif" font-size="10.00">_AbstractSchema\getCleanSchema</text>
</a>
</g>
<!-- Node2&#45;&gt;Node3 -->
<g id="edge4" class="edge"><title>Node2&#45;&gt;Node3</title>
<path fill="none" stroke="midnightblue" d="M337.141,-323.412C352.045,-326.756 367.852,-330.303 383.152,-333.736"/>
<polygon fill="midnightblue" stroke="midnightblue" points="382.594,-337.198 393.117,-335.973 384.126,-330.368 382.594,-337.198"/>
</g>
<!-- Node4 -->
<g id="node7" class="node"><title>Node4</title>
<a xlink:href="classZendDbSchema__Db__Schema__AbstractSchema.html#af99e5bb9adfe0da8c94d3d3848efe7b5" target="_top" xlink:title="ZendDbSchema_Db_Schema\l_AbstractSchema\\_getCleanSchema">
<polygon fill="white" stroke="black" points="592,-336 592,-370 770,-370 770,-336 592,-336"/>
<text text-anchor="start" x="600" y="-357" font-family="Helvetica,sans-Serif" font-size="10.00">ZendDbSchema_Db_Schema</text>
<text text-anchor="middle" x="681" y="-344" font-family="Helvetica,sans-Serif" font-size="10.00">_AbstractSchema\_getCleanSchema</text>
</a>
</g>
<!-- Node3&#45;&gt;Node4 -->
<g id="edge6" class="edge"><title>Node3&#45;&gt;Node4</title>
<path fill="none" stroke="midnightblue" d="M555.534,-353C564.175,-353 572.994,-353 581.752,-353"/>
<polygon fill="midnightblue" stroke="midnightblue" points="581.99,-356.5 591.99,-353 581.99,-349.5 581.99,-356.5"/>
</g>
<!-- Node6 -->
<g id="node11" class="node"><title>Node6</title>
<a xlink:href="classZendDbSchema__Db__Schema__AbstractSchema.html#a54d32c6f15463eaad2321a9f0e7225d7" target="_top" xlink:title="ZendDbSchema_Db_Schema\l_AbstractSchema\\__get">
<polygon fill="white" stroke="black" points="608,-149 608,-183 754,-183 754,-149 608,-149"/>
<text text-anchor="start" x="616" y="-170" font-family="Helvetica,sans-Serif" font-size="10.00">ZendDbSchema_Db_Schema</text>
<text text-anchor="middle" x="681" y="-157" font-family="Helvetica,sans-Serif" font-size="10.00">_AbstractSchema\__get</text>
</a>
</g>
<!-- Node5&#45;&gt;Node6 -->
<g id="edge10" class="edge"><title>Node5&#45;&gt;Node6</title>
<path fill="none" stroke="midnightblue" d="M537.795,-34.067C544.129,-36.6673 550.3,-39.6308 556,-43 599.466,-68.694 639.075,-112.718 661.583,-140.54"/>
<polygon fill="midnightblue" stroke="midnightblue" points="659.041,-142.966 668.004,-148.615 664.52,-138.61 659.041,-142.966"/>
</g>
<!-- Node7 -->
<g id="node13" class="node"><title>Node7</title>
<a xlink:href="classZendDbSchema__Db__Schema__AbstractSchema.html#ac4e121ba7932163eb1950fabe06fb9db" target="_top" xlink:title="ZendDbSchema_Db_Schema\l_AbstractSchema\\__isset">
<polygon fill="white" stroke="black" points="806,-220 806,-254 952,-254 952,-220 806,-220"/>
<text text-anchor="start" x="814" y="-241" font-family="Helvetica,sans-Serif" font-size="10.00">ZendDbSchema_Db_Schema</text>
<text text-anchor="middle" x="879" y="-228" font-family="Helvetica,sans-Serif" font-size="10.00">_AbstractSchema\__isset</text>
</a>
</g>
<!-- Node6&#45;&gt;Node7 -->
<g id="edge12" class="edge"><title>Node6&#45;&gt;Node7</title>
<path fill="none" stroke="midnightblue" d="M728.426,-183.006C756.384,-193.032 791.956,-205.787 821.505,-216.383"/>
<polygon fill="midnightblue" stroke="midnightblue" points="820.68,-219.806 831.275,-219.886 823.043,-213.216 820.68,-219.806"/>
</g>
<!-- Node8&#45;&gt;Node3 -->
<g id="edge16" class="edge"><title>Node8&#45;&gt;Node3</title>
<path fill="none" stroke="midnightblue" d="M279.124,-205.131C295.586,-223.784 322.68,-254.497 346,-281 362.019,-299.206 361.935,-308.382 382,-322 387.224,-325.545 392.899,-328.734 398.763,-331.591"/>
<polygon fill="midnightblue" stroke="midnightblue" points="397.542,-334.879 408.096,-335.811 400.426,-328.501 397.542,-334.879"/>
</g>
<!-- Node8&#45;&gt;Node6 -->
<g id="edge20" class="edge"><title>Node8&#45;&gt;Node6</title>
<path fill="none" stroke="midnightblue" d="M337.113,-184.143C409.989,-180.298 521.741,-174.402 597.931,-170.383"/>
<polygon fill="midnightblue" stroke="midnightblue" points="598.169,-173.875 607.971,-169.853 597.8,-166.885 598.169,-173.875"/>
</g>
<!-- Node8&#45;&gt;Node7 -->
<g id="edge18" class="edge"><title>Node8&#45;&gt;Node7</title>
<path fill="none" stroke="midnightblue" d="M277.316,-205.375C297.073,-229.556 336.724,-272.269 382,-289 535.852,-345.852 733.525,-290.371 826.383,-257.469"/>
<polygon fill="midnightblue" stroke="midnightblue" points="827.616,-260.745 835.841,-254.067 825.247,-254.158 827.616,-260.745"/>
</g>
<!-- Node9 -->
<g id="node20" class="node"><title>Node9</title>
<a xlink:href="classZendDbSchema__Db__Schema__Table.html#a214354faa96de67a26b787c2c8741850" target="_top" xlink:title="ZendDbSchema_Db_Schema\l_Table\\columns">
<polygon fill="white" stroke="black" points="396,-104 396,-138 542,-138 542,-104 396,-104"/>
<text text-anchor="start" x="404" y="-125" font-family="Helvetica,sans-Serif" font-size="10.00">ZendDbSchema_Db_Schema</text>
<text text-anchor="middle" x="469" y="-112" font-family="Helvetica,sans-Serif" font-size="10.00">_Table\columns</text>
</a>
</g>
<!-- Node8&#45;&gt;Node9 -->
<g id="edge22" class="edge"><title>Node8&#45;&gt;Node9</title>
<path fill="none" stroke="midnightblue" d="M316.261,-170.92C343.971,-161.863 378.189,-150.68 407.209,-141.195"/>
<polygon fill="midnightblue" stroke="midnightblue" points="408.417,-144.483 416.835,-138.049 406.242,-137.829 408.417,-144.483"/>
</g>
<!-- Node10 -->
<g id="node22" class="node"><title>Node10</title>
<a xlink:href="classZendDbSchema__Db__Schema__Table.html#a47df29d95af8f655dd7506cfb649ec40" target="_top" xlink:title="ZendDbSchema_Db_Schema\l_Table\\indexes">
<polygon fill="white" stroke="black" points="396,-52 396,-86 542,-86 542,-52 396,-52"/>
<text text-anchor="start" x="404" y="-73" font-family="Helvetica,sans-Serif" font-size="10.00">ZendDbSchema_Db_Schema</text>
<text text-anchor="middle" x="469" y="-60" font-family="Helvetica,sans-Serif" font-size="10.00">_Table\indexes</text>
</a>
</g>
<!-- Node8&#45;&gt;Node10 -->
<g id="edge24" class="edge"><title>Node8&#45;&gt;Node10</title>
<path fill="none" stroke="midnightblue" d="M310.893,-170.983C323.131,-165.184 335.749,-157.872 346,-149 367.811,-130.125 358.806,-112.147 382,-95 383.854,-93.6295 385.78,-92.3306 387.764,-91.0999"/>
<polygon fill="midnightblue" stroke="midnightblue" points="389.719,-94.0189 396.788,-86.1275 386.341,-87.8879 389.719,-94.0189"/>
</g>
<!-- Node11 -->
<g id="node24" class="node"><title>Node11</title>
<a xlink:href="classZendDbSchema__Db__Schema__Table.html#acff371c2884c9688b5ede2deaf09f25c" target="_top" xlink:title="ZendDbSchema_Db_Schema\l_Table\\foreigns">
<polygon fill="white" stroke="black" points="396,-246 396,-280 542,-280 542,-246 396,-246"/>
<text text-anchor="start" x="404" y="-267" font-family="Helvetica,sans-Serif" font-size="10.00">ZendDbSchema_Db_Schema</text>
<text text-anchor="middle" x="469" y="-254" font-family="Helvetica,sans-Serif" font-size="10.00">_Table\foreigns</text>
</a>
</g>
<!-- Node8&#45;&gt;Node11 -->
<g id="edge26" class="edge"><title>Node8&#45;&gt;Node11</title>
<path fill="none" stroke="midnightblue" d="M302.139,-205.012C325.059,-214.94 354.938,-227.366 382,-237 387.518,-238.964 393.267,-240.906 399.064,-242.791"/>
<polygon fill="midnightblue" stroke="midnightblue" points="398.242,-246.202 408.832,-245.902 400.366,-239.532 398.242,-246.202"/>
</g>
<!-- Node12 -->
<g id="node26" class="node"><title>Node12</title>
<a xlink:href="classZendDbSchema__Db__Schema__Table.html#a9d445dd6a92cc3a50aa6d8dad8395f0a" target="_top" xlink:title="ZendDbSchema_Db_Schema\l_Table\\primary">
<polygon fill="white" stroke="black" points="396,-194 396,-228 542,-228 542,-194 396,-194"/>
<text text-anchor="start" x="404" y="-215" font-family="Helvetica,sans-Serif" font-size="10.00">ZendDbSchema_Db_Schema</text>
<text text-anchor="middle" x="469" y="-202" font-family="Helvetica,sans-Serif" font-size="10.00">_Table\primary</text>
</a>
</g>
<!-- Node8&#45;&gt;Node12 -->
<g id="edge28" class="edge"><title>Node8&#45;&gt;Node12</title>
<path fill="none" stroke="midnightblue" d="M337.141,-196.206C352.949,-197.98 369.773,-199.867 385.929,-201.68"/>
<polygon fill="midnightblue" stroke="midnightblue" points="385.559,-205.16 395.887,-202.797 386.339,-198.204 385.559,-205.16"/>
</g>
<!-- Node13&#45;&gt;Node5 -->
<g id="edge32" class="edge"><title>Node13&#45;&gt;Node5</title>
<path fill="none" stroke="midnightblue" d="M288.486,-105.813C320.077,-83.7306 372.161,-47.669 382,-43 386.034,-41.0854 390.241,-39.2761 394.533,-37.5724"/>
<polygon fill="midnightblue" stroke="midnightblue" points="395.896,-40.7995 404.03,-34.0111 393.438,-34.2451 395.896,-40.7995"/>
</g>
</g>
</svg>
