<?xml version="1.0" encoding="UTF-8" standalone="no"?>
<!DOCTYPE svg PUBLIC "-//W3C//DTD SVG 1.1//EN"
 "http://www.w3.org/Graphics/SVG/1.1/DTD/svg11.dtd">
<!-- Generated by graphviz version 2.26.3 (20100126.1600)
 -->
<!-- Title: G Pages: 1 -->
<svg width="346pt" height="94pt"
 viewBox="0.00 0.00 346.00 94.00" xmlns="http://www.w3.org/2000/svg" xmlns:xlink="http://www.w3.org/1999/xlink">
<g id="graph1" class="graph" transform="scale(1 1) rotate(0) translate(4 90)">
<title>G</title>
<polygon fill="white" stroke="white" points="-4,5 -4,-90 343,-90 343,5 -4,5"/>
<!-- Node1 -->
<g id="node1" class="node"><title>Node1</title>
<polygon fill="#bfbfbf" stroke="black" points="0,-26 0,-60 146,-60 146,-26 0,-26"/>
<text text-anchor="start" x="8" y="-47" font-family="Helvetica,sans-Serif" font-size="10.00">ZendDbSchema_Db_Schema</text>
<text text-anchor="middle" x="73" y="-34" font-family="Helvetica,sans-Serif" font-size="10.00">_AbstractSchema\refresh</text>
</g>
<!-- Node2 -->
<g id="node3" class="node"><title>Node2</title>
<a xlink:href="classZendDbSchema__Db__Schema__Table__PrimaryKey.html#a8189591ab7ced58307298ecc8f27779d" target="_top" xlink:title="ZendDbSchema_Db_Schema\l_Table_PrimaryKey\\__construct">
<polygon fill="white" stroke="black" points="182,-52 182,-86 338,-86 338,-52 182,-52"/>
<text text-anchor="start" x="190" y="-73" font-family="Helvetica,sans-Serif" font-size="10.00">ZendDbSchema_Db_Schema</text>
<text text-anchor="middle" x="260" y="-60" font-family="Helvetica,sans-Serif" font-size="10.00">_Table_PrimaryKey\__construct</text>
</a>
</g>
<!-- Node1&#45;&gt;Node2 -->
<g id="edge2" class="edge"><title>Node1&#45;&gt;Node2</title>
<path fill="none" stroke="midnightblue" d="M156.044,-54.5463C164.574,-55.7322 173.221,-56.9345 181.697,-58.113"/>
<polygon fill="midnightblue" stroke="midnightblue" points="156.489,-51.0745 146.103,-53.164 155.525,-58.0079 156.489,-51.0745"/>
</g>
<!-- Node3 -->
<g id="node5" class="node"><title>Node3</title>
<a xlink:href="classZendDbSchema__Db__Schema__AbstractSchema.html#a95b8986f7fa3a4e26be024d3a621e4f6" target="_top" xlink:title="ZendDbSchema_Db_Schema\l_AbstractSchema\\__construct">
<polygon fill="white" stroke="black" points="185.5,-0 185.5,-34 334.5,-34 334.5,-0 185.5,-0"/>
<text text-anchor="start" x="193.5" y="-21" font-family="Helvetica,sans-Serif" font-size="10.00">ZendDbSchema_Db_Schema</text>
<text text-anchor="middle" x="260" y="-8" font-family="Helvetica,sans-Serif" font-size="10.00">_AbstractSchema\__construct</text>
</a>
</g>
<!-- Node1&#45;&gt;Node3 -->
<g id="edge4" class="edge"><title>Node1&#45;&gt;Node3</title>
<path fill="none" stroke="midnightblue" d="M156.176,-31.4354C165.912,-30.0817 175.8,-28.707 185.409,-27.3709"/>
<polygon fill="midnightblue" stroke="midnightblue" points="155.525,-27.9921 146.103,-32.836 156.489,-34.9255 155.525,-27.9921"/>
</g>
</g>
</svg>
