<?xml version="1.0" encoding="UTF-8" standalone="no"?>
<!DOCTYPE svg PUBLIC "-//W3C//DTD SVG 1.1//EN"
 "http://www.w3.org/Graphics/SVG/1.1/DTD/svg11.dtd">
<!-- Generated by graphviz version 2.26.3 (20100126.1600)
 -->
<!-- Title: G Pages: 1 -->
<svg width="1066pt" height="150pt"
 viewBox="0.00 0.00 1066.00 150.00" xmlns="http://www.w3.org/2000/svg" xmlns:xlink="http://www.w3.org/1999/xlink">
<g id="graph1" class="graph" transform="scale(1 1) rotate(0) translate(4 146)">
<title>G</title>
<polygon fill="white" stroke="white" points="-4,5 -4,-146 1063,-146 1063,5 -4,5"/>
<!-- Node1 -->
<g id="node1" class="node"><title>Node1</title>
<polygon fill="#bfbfbf" stroke="black" points="0.5,-70.5 0.5,-91.5 245.5,-91.5 245.5,-70.5 0.5,-70.5"/>
<text text-anchor="middle" x="123" y="-78.5" font-family="Helvetica,sans-Serif" font-size="10.00">ZendDbSchema_Db_Migration_Manager\hasVersion</text>
</g>
<!-- Node2 -->
<g id="node3" class="node"><title>Node2</title>
<a xlink:href="classZendDbSchema__Db__Migration__Manager.html#adfbbc8dad4cd716aeb610eafaec049b1" target="_top" xlink:title="ZendDbSchema_Db_Migration_Manager\\getMigration">
<polygon fill="white" stroke="black" points="282.5,-70.5 282.5,-91.5 531.5,-91.5 531.5,-70.5 282.5,-70.5"/>
<text text-anchor="middle" x="407" y="-78.5" font-family="Helvetica,sans-Serif" font-size="10.00">ZendDbSchema_Db_Migration_Manager\getMigration</text>
</a>
</g>
<!-- Node1&#45;&gt;Node2 -->
<g id="edge2" class="edge"><title>Node1&#45;&gt;Node2</title>
<path fill="none" stroke="midnightblue" d="M255.513,-81C264.406,-81 273.348,-81 282.2,-81"/>
<polygon fill="midnightblue" stroke="midnightblue" points="255.502,-77.5001 245.502,-81 255.502,-84.5001 255.502,-77.5001"/>
</g>
<!-- Node9 -->
<g id="node19" class="node"><title>Node9</title>
<a xlink:href="classZendDbSchema__Db__Migration__Manager.html#acb171835d37a1596a4ac6db273bf07ae" target="_top" xlink:title="ZendDbSchema_Db_Migration_Manager\\getNext">
<polygon fill="white" stroke="black" points="292,-20.5 292,-41.5 522,-41.5 522,-20.5 292,-20.5"/>
<text text-anchor="middle" x="407" y="-28.5" font-family="Helvetica,sans-Serif" font-size="10.00">ZendDbSchema_Db_Migration_Manager\getNext</text>
</a>
</g>
<!-- Node1&#45;&gt;Node9 -->
<g id="edge20" class="edge"><title>Node1&#45;&gt;Node9</title>
<path fill="none" stroke="midnightblue" d="M192.756,-68.7191C240.118,-60.3806 302.096,-49.4689 347.2,-41.5282"/>
<polygon fill="midnightblue" stroke="midnightblue" points="192.124,-65.2764 182.882,-70.4574 193.337,-72.1704 192.124,-65.2764"/>
</g>
<!-- Node10 -->
<g id="node22" class="node"><title>Node10</title>
<a xlink:href="classZendDbSchema__Db__Migration__Manager.html#a3e9a5dfa3447c5eb1b4bbcc8817549c3" target="_top" xlink:title="ZendDbSchema_Db_Migration_Manager\\getPrevious">
<polygon fill="white" stroke="black" points="283,-115.5 283,-136.5 531,-136.5 531,-115.5 283,-115.5"/>
<text text-anchor="middle" x="407" y="-123.5" font-family="Helvetica,sans-Serif" font-size="10.00">ZendDbSchema_Db_Migration_Manager\getPrevious</text>
</a>
</g>
<!-- Node1&#45;&gt;Node10 -->
<g id="edge24" class="edge"><title>Node1&#45;&gt;Node10</title>
<path fill="none" stroke="midnightblue" d="M199.647,-93.1448C243.583,-100.106 298.194,-108.76 340.34,-115.438"/>
<polygon fill="midnightblue" stroke="midnightblue" points="200.01,-89.6587 189.585,-91.5505 198.914,-96.5724 200.01,-89.6587"/>
</g>
<!-- Node3 -->
<g id="node5" class="node"><title>Node3</title>
<a xlink:href="classZendDbSchema__Db__Migration__Manager.html#a7404180549710f939f7a5ea25ec4e106" target="_top" xlink:title="ZendDbSchema_Db_Migration_Manager\\compare">
<polygon fill="white" stroke="black" points="568.5,-40.5 568.5,-61.5 801.5,-61.5 801.5,-40.5 568.5,-40.5"/>
<text text-anchor="middle" x="685" y="-48.5" font-family="Helvetica,sans-Serif" font-size="10.00">ZendDbSchema_Db_Migration_Manager\compare</text>
</a>
</g>
<!-- Node2&#45;&gt;Node3 -->
<g id="edge4" class="edge"><title>Node2&#45;&gt;Node3</title>
<path fill="none" stroke="midnightblue" d="M514.81,-69.3658C538.792,-66.7779 564.079,-64.049 587.614,-61.5093"/>
<polygon fill="midnightblue" stroke="midnightblue" points="514.188,-65.9125 504.621,-70.4653 514.939,-72.8721 514.188,-65.9125"/>
</g>
<!-- Node6 -->
<g id="node11" class="node"><title>Node6</title>
<a xlink:href="classZendDbSchema__Db__Migration__Manager.html#a87a8f6699a75e4b89a0657ae0999203b" target="_top" xlink:title="ZendDbSchema_Db_Migration_Manager\\isDirty">
<polygon fill="white" stroke="black" points="573,-80.5 573,-101.5 797,-101.5 797,-80.5 573,-80.5"/>
<text text-anchor="middle" x="685" y="-88.5" font-family="Helvetica,sans-Serif" font-size="10.00">ZendDbSchema_Db_Migration_Manager\isDirty</text>
</a>
</g>
<!-- Node2&#45;&gt;Node6 -->
<g id="edge10" class="edge"><title>Node2&#45;&gt;Node6</title>
<path fill="none" stroke="midnightblue" d="M542.08,-85.859C552.409,-86.2306 562.767,-86.6031 572.926,-86.9686"/>
<polygon fill="midnightblue" stroke="midnightblue" points="541.889,-82.3499 531.769,-85.4881 541.637,-89.3454 541.889,-82.3499"/>
</g>
<!-- Node7 -->
<g id="node13" class="node"><title>Node7</title>
<a xlink:href="classZendDbSchema__Db__Migration__Manager.html#a3acd09811b23c39aa97fed97b4012ac9" target="_top" xlink:title="ZendDbSchema_Db_Migration_Manager\\rolldown">
<polygon fill="white" stroke="black" points="569,-120.5 569,-141.5 801,-141.5 801,-120.5 569,-120.5"/>
<text text-anchor="middle" x="685" y="-128.5" font-family="Helvetica,sans-Serif" font-size="10.00">ZendDbSchema_Db_Migration_Manager\rolldown</text>
</a>
</g>
<!-- Node2&#45;&gt;Node7 -->
<g id="edge12" class="edge"><title>Node2&#45;&gt;Node7</title>
<path fill="none" stroke="midnightblue" d="M472.553,-93.4439C501.753,-98.9279 536.578,-105.387 568,-111 585.649,-114.153 604.815,-117.472 622.428,-120.481"/>
<polygon fill="midnightblue" stroke="midnightblue" points="472.949,-89.957 462.474,-91.5478 471.654,-96.8363 472.949,-89.957"/>
</g>
<!-- Node8 -->
<g id="node16" class="node"><title>Node8</title>
<a xlink:href="classZendDbSchema__Db__Migration__Manager.html#afbaee9196407b68350626e8601a44a9a" target="_top" xlink:title="ZendDbSchema_Db_Migration_Manager\\rollup">
<polygon fill="white" stroke="black" points="575.5,-0.5 575.5,-21.5 794.5,-21.5 794.5,-0.5 575.5,-0.5"/>
<text text-anchor="middle" x="685" y="-8.5" font-family="Helvetica,sans-Serif" font-size="10.00">ZendDbSchema_Db_Migration_Manager\rollup</text>
</a>
</g>
<!-- Node2&#45;&gt;Node8 -->
<g id="edge16" class="edge"><title>Node2&#45;&gt;Node8</title>
<path fill="none" stroke="midnightblue" d="M475.197,-68.1669C493.925,-63.6957 514.019,-58.0015 532,-51 549.056,-44.3587 550.733,-37.0729 568,-31 578.886,-27.1711 590.608,-24.0604 602.28,-21.5368"/>
<polygon fill="midnightblue" stroke="midnightblue" points="474.21,-64.8026 465.252,-70.4597 475.783,-71.6237 474.21,-64.8026"/>
</g>
<!-- Node4 -->
<g id="node7" class="node"><title>Node4</title>
<a xlink:href="classZendDbSchema__Db__Migration__Manager.html#a265c3edbe064cb4a34289b505046768a" target="_top" xlink:title="ZendDbSchema_Db_Migration_Manager\\down">
<polygon fill="white" stroke="black" points="838.5,-60.5 838.5,-81.5 1057.5,-81.5 1057.5,-60.5 838.5,-60.5"/>
<text text-anchor="middle" x="948" y="-68.5" font-family="Helvetica,sans-Serif" font-size="10.00">ZendDbSchema_Db_Migration_Manager\down</text>
</a>
</g>
<!-- Node3&#45;&gt;Node4 -->
<g id="edge6" class="edge"><title>Node3&#45;&gt;Node4</title>
<path fill="none" stroke="midnightblue" d="M811.566,-60.6248C820.497,-61.3039 829.458,-61.9854 838.285,-62.6566"/>
<polygon fill="midnightblue" stroke="midnightblue" points="811.741,-57.1281 801.504,-59.8596 811.21,-64.1079 811.741,-57.1281"/>
</g>
<!-- Node5 -->
<g id="node9" class="node"><title>Node5</title>
<a xlink:href="classZendDbSchema__Db__Migration__Manager.html#a260901608e7ed2fb5ffef1bf8387e2e9" target="_top" xlink:title="ZendDbSchema_Db_Migration_Manager\\up">
<polygon fill="white" stroke="black" points="845,-20.5 845,-41.5 1051,-41.5 1051,-20.5 845,-20.5"/>
<text text-anchor="middle" x="948" y="-28.5" font-family="Helvetica,sans-Serif" font-size="10.00">ZendDbSchema_Db_Migration_Manager\up</text>
</a>
</g>
<!-- Node3&#45;&gt;Node5 -->
<g id="edge8" class="edge"><title>Node3&#45;&gt;Node5</title>
<path fill="none" stroke="midnightblue" d="M811.679,-41.3666C822.782,-40.5222 833.932,-39.6744 844.81,-38.8472"/>
<polygon fill="midnightblue" stroke="midnightblue" points="811.21,-37.8921 801.504,-42.1404 811.741,-44.8719 811.21,-37.8921"/>
</g>
<!-- Node7&#45;&gt;Node4 -->
<g id="edge14" class="edge"><title>Node7&#45;&gt;Node4</title>
<path fill="none" stroke="midnightblue" d="M763.149,-118.737C776.166,-116.381 789.496,-113.775 802,-111 840.486,-102.46 883.996,-90.195 913.43,-81.5021"/>
<polygon fill="midnightblue" stroke="midnightblue" points="762.51,-115.296 753.275,-120.489 763.732,-122.188 762.51,-115.296"/>
</g>
<!-- Node8&#45;&gt;Node5 -->
<g id="edge18" class="edge"><title>Node8&#45;&gt;Node5</title>
<path fill="none" stroke="midnightblue" d="M804.816,-20.1115C818.189,-21.1284 831.724,-22.1577 844.862,-23.1568"/>
<polygon fill="midnightblue" stroke="midnightblue" points="804.868,-16.6054 794.631,-19.337 804.337,-23.5853 804.868,-16.6054"/>
</g>
<!-- Node9&#45;&gt;Node8 -->
<g id="edge22" class="edge"><title>Node9&#45;&gt;Node8</title>
<path fill="none" stroke="midnightblue" d="M532.46,-21.9741C546.773,-20.9444 561.28,-19.9007 575.366,-18.8874"/>
<polygon fill="midnightblue" stroke="midnightblue" points="531.803,-18.5122 522.08,-22.7209 532.305,-25.4942 531.803,-18.5122"/>
</g>
<!-- Node10&#45;&gt;Node7 -->
<g id="edge26" class="edge"><title>Node10&#45;&gt;Node7</title>
<path fill="none" stroke="midnightblue" d="M541.59,-128.421C550.664,-128.584 559.763,-128.748 568.733,-128.909"/>
<polygon fill="midnightblue" stroke="midnightblue" points="541.425,-124.917 531.364,-128.237 541.299,-131.916 541.425,-124.917"/>
</g>
</g>
</svg>
