<?xml version="1.0" encoding="UTF-8" standalone="no"?>
<!DOCTYPE svg PUBLIC "-//W3C//DTD SVG 1.1//EN"
 "http://www.w3.org/Graphics/SVG/1.1/DTD/svg11.dtd">
<!-- Generated by graphviz version 2.26.3 (20100126.1600)
 -->
<!-- Title: G Pages: 1 -->
<svg width="700pt" height="108pt"
 viewBox="0.00 0.00 700.00 108.00" xmlns="http://www.w3.org/2000/svg" xmlns:xlink="http://www.w3.org/1999/xlink">
<g id="graph1" class="graph" transform="scale(1 1) rotate(0) translate(4 104)">
<title>G</title>
<polygon fill="white" stroke="white" points="-4,5 -4,-104 697,-104 697,5 -4,5"/>
<!-- Node1 -->
<g id="node1" class="node"><title>Node1</title>
<polygon fill="#bfbfbf" stroke="black" points="0,-29.5 0,-76.5 146,-76.5 146,-29.5 0,-29.5"/>
<text text-anchor="start" x="8" y="-63.5" font-family="Helvetica,sans-Serif" font-size="10.00">ZendDbSchema_Db_Schema</text>
<text text-anchor="start" x="8" y="-50.5" font-family="Helvetica,sans-Serif" font-size="10.00">_Generator_Pgsql_Table</text>
<text text-anchor="middle" x="73" y="-37.5" font-family="Helvetica,sans-Serif" font-size="10.00">\dropColumn</text>
</g>
<!-- Node2 -->
<g id="node3" class="node"><title>Node2</title>
<a xlink:href="classZendDbSchema__Db__Schema__AbstractSchema.html#a55787c21deddba427842809d589c2df6" target="_top" xlink:title="ZendDbSchema_Db_Schema\l_AbstractSchema\\getName">
<polygon fill="white" stroke="black" points="182,-66 182,-100 328,-100 328,-66 182,-66"/>
<text text-anchor="start" x="190" y="-87" font-family="Helvetica,sans-Serif" font-size="10.00">ZendDbSchema_Db_Schema</text>
<text text-anchor="middle" x="255" y="-74" font-family="Helvetica,sans-Serif" font-size="10.00">_AbstractSchema\getName</text>
</a>
</g>
<!-- Node1&#45;&gt;Node2 -->
<g id="edge2" class="edge"><title>Node1&#45;&gt;Node2</title>
<path fill="none" stroke="midnightblue" d="M146.24,-65.0725C154.688,-66.4651 163.349,-67.8927 171.916,-69.3048"/>
<polygon fill="midnightblue" stroke="midnightblue" points="171.474,-72.7792 181.91,-70.9522 172.613,-65.8724 171.474,-72.7792"/>
</g>
<!-- Node5 -->
<g id="node9" class="node"><title>Node5</title>
<a xlink:href="classZendDbSchema__Db__Schema__Table__AbstractDefinition.html#a224b6a0c1df1d6ed40e03657782ef6fc" target="_top" xlink:title="ZendDbSchema_Db_Schema\l_Table_AbstractDefinition\l\\getTable">
<polygon fill="white" stroke="black" points="182,-0.5 182,-47.5 328,-47.5 328,-0.5 182,-0.5"/>
<text text-anchor="start" x="190" y="-34.5" font-family="Helvetica,sans-Serif" font-size="10.00">ZendDbSchema_Db_Schema</text>
<text text-anchor="start" x="190" y="-21.5" font-family="Helvetica,sans-Serif" font-size="10.00">_Table_AbstractDefinition</text>
<text text-anchor="middle" x="255" y="-8.5" font-family="Helvetica,sans-Serif" font-size="10.00">\getTable</text>
</a>
</g>
<!-- Node1&#45;&gt;Node5 -->
<g id="edge8" class="edge"><title>Node1&#45;&gt;Node5</title>
<path fill="none" stroke="midnightblue" d="M146.24,-41.3299C154.688,-39.9838 163.349,-38.6037 171.916,-37.2387"/>
<polygon fill="midnightblue" stroke="midnightblue" points="172.586,-40.6762 181.91,-35.6462 171.484,-33.7634 172.586,-40.6762"/>
</g>
<!-- Node3 -->
<g id="node5" class="node"><title>Node3</title>
<a xlink:href="classZendDbSchema__Db__Schema__AbstractSchema.html#a54d32c6f15463eaad2321a9f0e7225d7" target="_top" xlink:title="ZendDbSchema_Db_Schema\l_AbstractSchema\\__get">
<polygon fill="white" stroke="black" points="364,-66 364,-100 510,-100 510,-66 364,-66"/>
<text text-anchor="start" x="372" y="-87" font-family="Helvetica,sans-Serif" font-size="10.00">ZendDbSchema_Db_Schema</text>
<text text-anchor="middle" x="437" y="-74" font-family="Helvetica,sans-Serif" font-size="10.00">_AbstractSchema\__get</text>
</a>
</g>
<!-- Node2&#45;&gt;Node3 -->
<g id="edge4" class="edge"><title>Node2&#45;&gt;Node3</title>
<path fill="none" stroke="midnightblue" d="M328.24,-83C336.596,-83 345.161,-83 353.636,-83"/>
<polygon fill="midnightblue" stroke="midnightblue" points="353.91,-86.5001 363.91,-83 353.91,-79.5001 353.91,-86.5001"/>
</g>
<!-- Node4 -->
<g id="node7" class="node"><title>Node4</title>
<a xlink:href="classZendDbSchema__Db__Schema__AbstractSchema.html#ac4e121ba7932163eb1950fabe06fb9db" target="_top" xlink:title="ZendDbSchema_Db_Schema\l_AbstractSchema\\__isset">
<polygon fill="white" stroke="black" points="546,-66 546,-100 692,-100 692,-66 546,-66"/>
<text text-anchor="start" x="554" y="-87" font-family="Helvetica,sans-Serif" font-size="10.00">ZendDbSchema_Db_Schema</text>
<text text-anchor="middle" x="619" y="-74" font-family="Helvetica,sans-Serif" font-size="10.00">_AbstractSchema\__isset</text>
</a>
</g>
<!-- Node3&#45;&gt;Node4 -->
<g id="edge6" class="edge"><title>Node3&#45;&gt;Node4</title>
<path fill="none" stroke="midnightblue" d="M510.24,-83C518.596,-83 527.161,-83 535.636,-83"/>
<polygon fill="midnightblue" stroke="midnightblue" points="535.91,-86.5001 545.91,-83 535.91,-79.5001 535.91,-86.5001"/>
</g>
</g>
</svg>
