<?xml version="1.0" encoding="UTF-8" standalone="no"?>
<!DOCTYPE svg PUBLIC "-//W3C//DTD SVG 1.1//EN"
 "http://www.w3.org/Graphics/SVG/1.1/DTD/svg11.dtd">
<!-- Generated by graphviz version 2.26.3 (20100126.1600)
 -->
<!-- Title: G Pages: 1 -->
<svg width="530pt" height="109pt"
 viewBox="0.00 0.00 530.00 108.74" xmlns="http://www.w3.org/2000/svg" xmlns:xlink="http://www.w3.org/1999/xlink">
<g id="graph1" class="graph" transform="scale(1 1) rotate(0) translate(4 104.739)">
<title>G</title>
<polygon fill="white" stroke="white" points="-4,5 -4,-104.739 527,-104.739 527,5 -4,5"/>
<!-- Node1 -->
<g id="node1" class="node"><title>Node1</title>
<polygon fill="#bfbfbf" stroke="black" points="0,-52 0,-86 150,-86 150,-52 0,-52"/>
<text text-anchor="start" x="8" y="-73" font-family="Helvetica,sans-Serif" font-size="10.00">ZendDbSchema_Db_Migration</text>
<text text-anchor="middle" x="75" y="-60" font-family="Helvetica,sans-Serif" font-size="10.00">_Manager\rolldown</text>
</g>
<!-- Node2 -->
<g id="node3" class="node"><title>Node2</title>
<a xlink:href="classZendDbSchema__Db__Migration__Manager.html#a3d4f62489e72876f97bec3cd4448979d" target="_top" xlink:title="ZendDbSchema_Db_Migration\l_Manager\\getChange">
<polygon fill="white" stroke="black" points="186,-0 186,-34 336,-34 336,-0 186,-0"/>
<text text-anchor="start" x="194" y="-21" font-family="Helvetica,sans-Serif" font-size="10.00">ZendDbSchema_Db_Migration</text>
<text text-anchor="middle" x="261" y="-8" font-family="Helvetica,sans-Serif" font-size="10.00">_Manager\getChange</text>
</a>
</g>
<!-- Node1&#45;&gt;Node2 -->
<g id="edge2" class="edge"><title>Node1&#45;&gt;Node2</title>
<path fill="none" stroke="midnightblue" d="M135.903,-51.9733C153.246,-47.1248 172.285,-41.8019 190.165,-36.8035"/>
<polygon fill="midnightblue" stroke="midnightblue" points="191.271,-40.1283 199.96,-34.065 189.387,-33.3868 191.271,-40.1283"/>
</g>
<!-- Node3 -->
<g id="node5" class="node"><title>Node3</title>
<a xlink:href="classZendDbSchema__Db__Migration__Manager.html#ab66af8a9dc5cdb099b8266b68166c4e0" target="_top" xlink:title="ZendDbSchema_Db_Migration\l_Manager\\getVersion">
<polygon fill="white" stroke="black" points="372,-52 372,-86 522,-86 522,-52 372,-52"/>
<text text-anchor="start" x="380" y="-73" font-family="Helvetica,sans-Serif" font-size="10.00">ZendDbSchema_Db_Migration</text>
<text text-anchor="middle" x="447" y="-60" font-family="Helvetica,sans-Serif" font-size="10.00">_Manager\getVersion</text>
</a>
</g>
<!-- Node1&#45;&gt;Node3 -->
<g id="edge14" class="edge"><title>Node1&#45;&gt;Node3</title>
<path fill="none" stroke="midnightblue" d="M136.495,-86.0569C152.485,-89.7591 169.779,-93.1256 186,-95 252.226,-102.653 269.774,-102.653 336,-95 348.926,-93.5064 362.533,-91.0652 375.62,-88.2617"/>
<polygon fill="midnightblue" stroke="midnightblue" points="376.507,-91.6498 385.505,-86.0569 374.983,-84.8177 376.507,-91.6498"/>
</g>
<!-- Node5 -->
<g id="node9" class="node"><title>Node5</title>
<a xlink:href="classZendDbSchema__Db__Migration__Manager.html#a3e9a5dfa3447c5eb1b4bbcc8817549c3" target="_top" xlink:title="ZendDbSchema_Db_Migration\l_Manager\\getPrevious">
<polygon fill="white" stroke="black" points="186,-52 186,-86 336,-86 336,-52 186,-52"/>
<text text-anchor="start" x="194" y="-73" font-family="Helvetica,sans-Serif" font-size="10.00">ZendDbSchema_Db_Migration</text>
<text text-anchor="middle" x="261" y="-60" font-family="Helvetica,sans-Serif" font-size="10.00">_Manager\getPrevious</text>
</a>
</g>
<!-- Node1&#45;&gt;Node5 -->
<g id="edge8" class="edge"><title>Node1&#45;&gt;Node5</title>
<path fill="none" stroke="midnightblue" d="M150.117,-69C158.596,-69 167.281,-69 175.875,-69"/>
<polygon fill="midnightblue" stroke="midnightblue" points="175.905,-72.5001 185.905,-69 175.905,-65.5001 175.905,-72.5001"/>
</g>
<!-- Node2&#45;&gt;Node3 -->
<g id="edge4" class="edge"><title>Node2&#45;&gt;Node3</title>
<path fill="none" stroke="midnightblue" d="M321.903,-34.0267C339.246,-38.8752 358.285,-44.1981 376.165,-49.1965"/>
<polygon fill="midnightblue" stroke="midnightblue" points="375.387,-52.6132 385.96,-51.935 377.271,-45.8717 375.387,-52.6132"/>
</g>
<!-- Node4 -->
<g id="node7" class="node"><title>Node4</title>
<a xlink:href="classZendDbSchema__Db__Migration__Manager.html#a9973d07f9ffe306e00ea2f9f4beb92e4" target="_top" xlink:title="ZendDbSchema_Db_Migration\l_Manager\\hasChange">
<polygon fill="white" stroke="black" points="372,-0 372,-34 522,-34 522,-0 372,-0"/>
<text text-anchor="start" x="380" y="-21" font-family="Helvetica,sans-Serif" font-size="10.00">ZendDbSchema_Db_Migration</text>
<text text-anchor="middle" x="447" y="-8" font-family="Helvetica,sans-Serif" font-size="10.00">_Manager\hasChange</text>
</a>
</g>
<!-- Node2&#45;&gt;Node4 -->
<g id="edge6" class="edge"><title>Node2&#45;&gt;Node4</title>
<path fill="none" stroke="midnightblue" d="M336.117,-17C344.596,-17 353.281,-17 361.875,-17"/>
<polygon fill="midnightblue" stroke="midnightblue" points="361.905,-20.5001 371.905,-17 361.905,-13.5001 361.905,-20.5001"/>
</g>
<!-- Node5&#45;&gt;Node3 -->
<g id="edge10" class="edge"><title>Node5&#45;&gt;Node3</title>
<path fill="none" stroke="midnightblue" d="M336.117,-69C344.596,-69 353.281,-69 361.875,-69"/>
<polygon fill="midnightblue" stroke="midnightblue" points="361.905,-72.5001 371.905,-69 361.905,-65.5001 361.905,-72.5001"/>
</g>
<!-- Node5&#45;&gt;Node4 -->
<g id="edge12" class="edge"><title>Node5&#45;&gt;Node4</title>
<path fill="none" stroke="midnightblue" d="M321.903,-51.9733C339.246,-47.1248 358.285,-41.8019 376.165,-36.8035"/>
<polygon fill="midnightblue" stroke="midnightblue" points="377.271,-40.1283 385.96,-34.065 375.387,-33.3868 377.271,-40.1283"/>
</g>
</g>
</svg>
