<?xml version="1.0" encoding="UTF-8" standalone="no"?>
<!DOCTYPE svg PUBLIC "-//W3C//DTD SVG 1.1//EN"
 "http://www.w3.org/Graphics/SVG/1.1/DTD/svg11.dtd">
<!-- Generated by graphviz version 2.26.3 (20100126.1600)
 -->
<!-- Title: G Pages: 1 -->
<svg width="902pt" height="64pt"
 viewBox="0.00 0.00 902.00 64.00" xmlns="http://www.w3.org/2000/svg" xmlns:xlink="http://www.w3.org/1999/xlink">
<g id="graph1" class="graph" transform="scale(1 1) rotate(0) translate(4 60)">
<title>G</title>
<polygon fill="white" stroke="white" points="-4,5 -4,-60 899,-60 899,5 -4,5"/>
<!-- Node1 -->
<g id="node1" class="node"><title>Node1</title>
<polygon fill="#bfbfbf" stroke="black" points="0,-22 0,-56 150,-56 150,-22 0,-22"/>
<text text-anchor="start" x="8" y="-43" font-family="Helvetica,sans-Serif" font-size="10.00">ZendDbSchema_Db_Migration</text>
<text text-anchor="middle" x="75" y="-30" font-family="Helvetica,sans-Serif" font-size="10.00">_Skeleton\getClass</text>
</g>
<!-- Node2 -->
<g id="node3" class="node"><title>Node2</title>
<a xlink:href="classZendDbSchema__Db__Migration__Skeleton.html#a061e25b67825b88e94acf79944db19a6" target="_top" xlink:title="ZendDbSchema_Db_Migration\l_Skeleton\\getFile">
<polygon fill="white" stroke="black" points="558,-22 558,-56 708,-56 708,-22 558,-22"/>
<text text-anchor="start" x="566" y="-43" font-family="Helvetica,sans-Serif" font-size="10.00">ZendDbSchema_Db_Migration</text>
<text text-anchor="middle" x="633" y="-30" font-family="Helvetica,sans-Serif" font-size="10.00">_Skeleton\getFile</text>
</a>
</g>
<!-- Node1&#45;&gt;Node2 -->
<g id="edge2" class="edge"><title>Node1&#45;&gt;Node2</title>
<path fill="none" stroke="midnightblue" d="M160.364,-42.387C169.022,-42.6374 177.685,-42.8502 186,-43 335.309,-45.6894 372.691,-45.6894 522,-43 533.568,-42.7916 545.811,-42.4612 557.777,-42.0774"/>
<polygon fill="midnightblue" stroke="midnightblue" points="160.325,-38.8843 150.223,-42.0774 160.111,-45.8811 160.325,-38.8843"/>
</g>
<!-- Node4 -->
<g id="node7" class="node"><title>Node4</title>
<a xlink:href="classZendDbSchema__Db__Migration__Skeleton.html#a7613e2ec6a61b621fd7897a29934269d" target="_top" xlink:title="ZendDbSchema_Db_Migration\l_Skeleton\\setVersion">
<polygon fill="white" stroke="black" points="186,-0 186,-34 336,-34 336,-0 186,-0"/>
<text text-anchor="start" x="194" y="-21" font-family="Helvetica,sans-Serif" font-size="10.00">ZendDbSchema_Db_Migration</text>
<text text-anchor="middle" x="261" y="-8" font-family="Helvetica,sans-Serif" font-size="10.00">_Skeleton\setVersion</text>
</a>
</g>
<!-- Node1&#45;&gt;Node4 -->
<g id="edge6" class="edge"><title>Node1&#45;&gt;Node4</title>
<path fill="none" stroke="midnightblue" d="M160.147,-28.9288C168.742,-27.9123 177.426,-26.885 185.905,-25.8822"/>
<polygon fill="midnightblue" stroke="midnightblue" points="159.637,-25.4647 150.117,-30.1152 160.459,-32.4162 159.637,-25.4647"/>
</g>
<!-- Node3 -->
<g id="node5" class="node"><title>Node3</title>
<a xlink:href="classZendDbSchema__Db__Migration__Skeleton.html#a71668c68edcf35f36f111963a9b625df" target="_top" xlink:title="ZendDbSchema_Db_Migration\l_Skeleton\\write">
<polygon fill="white" stroke="black" points="744,-22 744,-56 894,-56 894,-22 744,-22"/>
<text text-anchor="start" x="752" y="-43" font-family="Helvetica,sans-Serif" font-size="10.00">ZendDbSchema_Db_Migration</text>
<text text-anchor="middle" x="819" y="-30" font-family="Helvetica,sans-Serif" font-size="10.00">_Skeleton\write</text>
</a>
</g>
<!-- Node2&#45;&gt;Node3 -->
<g id="edge4" class="edge"><title>Node2&#45;&gt;Node3</title>
<path fill="none" stroke="midnightblue" d="M718.147,-39C726.742,-39 735.426,-39 743.905,-39"/>
<polygon fill="midnightblue" stroke="midnightblue" points="718.117,-35.5001 708.117,-39 718.117,-42.5001 718.117,-35.5001"/>
</g>
<!-- Node5 -->
<g id="node9" class="node"><title>Node5</title>
<a xlink:href="classZendDbSchema__Db__Migration__Skeleton.html#afb677840482d948597ec10dc0fd37aab" target="_top" xlink:title="ZendDbSchema_Db_Migration\l_Skeleton\\getVersion">
<polygon fill="white" stroke="black" points="372,-0 372,-34 522,-34 522,-0 372,-0"/>
<text text-anchor="start" x="380" y="-21" font-family="Helvetica,sans-Serif" font-size="10.00">ZendDbSchema_Db_Migration</text>
<text text-anchor="middle" x="447" y="-8" font-family="Helvetica,sans-Serif" font-size="10.00">_Skeleton\getVersion</text>
</a>
</g>
<!-- Node4&#45;&gt;Node5 -->
<g id="edge8" class="edge"><title>Node4&#45;&gt;Node5</title>
<path fill="none" stroke="midnightblue" d="M346.147,-17C354.742,-17 363.426,-17 371.905,-17"/>
<polygon fill="midnightblue" stroke="midnightblue" points="346.117,-13.5001 336.117,-17 346.117,-20.5001 346.117,-13.5001"/>
</g>
<!-- Node5&#45;&gt;Node2 -->
<g id="edge10" class="edge"><title>Node5&#45;&gt;Node2</title>
<path fill="none" stroke="midnightblue" d="M532.147,-27.0712C540.742,-28.0877 549.426,-29.115 557.905,-30.1178"/>
<polygon fill="midnightblue" stroke="midnightblue" points="532.459,-23.5838 522.117,-25.8848 531.637,-30.5353 532.459,-23.5838"/>
</g>
</g>
</svg>
