<?xml version="1.0" encoding="UTF-8" standalone="no"?>
<!DOCTYPE svg PUBLIC "-//W3C//DTD SVG 1.1//EN"
 "http://www.w3.org/Graphics/SVG/1.1/DTD/svg11.dtd">
<!-- Generated by graphviz version 2.26.3 (20100126.1600)
 -->
<!-- Title: G Pages: 1 -->
<svg width="166pt" height="380pt"
 viewBox="0.00 0.00 166.00 380.00" xmlns="http://www.w3.org/2000/svg" xmlns:xlink="http://www.w3.org/1999/xlink">
<g id="graph1" class="graph" transform="scale(1 1) rotate(0) translate(4 376)">
<title>G</title>
<polygon fill="white" stroke="white" points="-4,5 -4,-376 163,-376 163,5 -4,5"/>
<!-- Node1 -->
<g id="node1" class="node"><title>Node1</title>
<polygon fill="#bfbfbf" stroke="black" points="-0.5,-0.5 -0.5,-89.5 158.5,-89.5 158.5,-0.5 -0.5,-0.5"/>
<text text-anchor="start" x="7.5" y="-76.5" font-family="Helvetica,sans-Serif" font-size="10.00">ZendDbSchema_Db_Schema</text>
<text text-anchor="middle" x="79" y="-63.5" font-family="Helvetica,sans-Serif" font-size="10.00">_Table_DefinitionManager_Index</text>
<polyline fill="none" stroke="black" points="-0.5,-55.5 158.5,-55.5 "/>
<text text-anchor="middle" x="79" y="-42.5" font-family="Helvetica,sans-Serif" font-size="10.00"> </text>
<polyline fill="none" stroke="black" points="-0.5,-34.5 158.5,-34.5 "/>
<text text-anchor="start" x="7.5" y="-21.5" font-family="Helvetica,sans-Serif" font-size="10.00"># _getItemClass()</text>
<text text-anchor="start" x="7.5" y="-8.5" font-family="Helvetica,sans-Serif" font-size="10.00"># _getSchemaKey()</text>
</g>
<!-- Node2 -->
<g id="node2" class="node"><title>Node2</title>
<a xlink:href="classZendDbSchema__Db__Schema__Table__DefinitionManager__AbstractManager.html" target="_top" xlink:title="{ZendDbSchema_Db_Schema\l_Table_DefinitionManager\l_AbstractManager\n|# $_data\l# $_table\l|+ __construct()\l+ refresh()\l+ setFromArray()\l+ add()\l+ isDirty()\l+ toArray()\l+ getIterator()\l+ has()\l+ get()\l+ count()\l# _getItemClass()\l# _getSchemaKey()\l}">
<polygon fill="white" stroke="black" points="6,-126.5 6,-371.5 152,-371.5 152,-126.5 6,-126.5"/>
<text text-anchor="start" x="14" y="-358.5" font-family="Helvetica,sans-Serif" font-size="10.00">ZendDbSchema_Db_Schema</text>
<text text-anchor="start" x="14" y="-345.5" font-family="Helvetica,sans-Serif" font-size="10.00">_Table_DefinitionManager</text>
<text text-anchor="middle" x="79" y="-332.5" font-family="Helvetica,sans-Serif" font-size="10.00">_AbstractManager</text>
<polyline fill="none" stroke="black" points="6,-324.5 152,-324.5 "/>
<text text-anchor="start" x="14" y="-311.5" font-family="Helvetica,sans-Serif" font-size="10.00"># $_data</text>
<text text-anchor="start" x="14" y="-298.5" font-family="Helvetica,sans-Serif" font-size="10.00"># $_table</text>
<polyline fill="none" stroke="black" points="6,-290.5 152,-290.5 "/>
<text text-anchor="start" x="14" y="-277.5" font-family="Helvetica,sans-Serif" font-size="10.00">+ __construct()</text>
<text text-anchor="start" x="14" y="-264.5" font-family="Helvetica,sans-Serif" font-size="10.00">+ refresh()</text>
<text text-anchor="start" x="14" y="-251.5" font-family="Helvetica,sans-Serif" font-size="10.00">+ setFromArray()</text>
<text text-anchor="start" x="14" y="-238.5" font-family="Helvetica,sans-Serif" font-size="10.00">+ add()</text>
<text text-anchor="start" x="14" y="-225.5" font-family="Helvetica,sans-Serif" font-size="10.00">+ isDirty()</text>
<text text-anchor="start" x="14" y="-212.5" font-family="Helvetica,sans-Serif" font-size="10.00">+ toArray()</text>
<text text-anchor="start" x="14" y="-199.5" font-family="Helvetica,sans-Serif" font-size="10.00">+ getIterator()</text>
<text text-anchor="start" x="14" y="-186.5" font-family="Helvetica,sans-Serif" font-size="10.00">+ has()</text>
<text text-anchor="start" x="14" y="-173.5" font-family="Helvetica,sans-Serif" font-size="10.00">+ get()</text>
<text text-anchor="start" x="14" y="-160.5" font-family="Helvetica,sans-Serif" font-size="10.00">+ count()</text>
<text text-anchor="start" x="14" y="-147.5" font-family="Helvetica,sans-Serif" font-size="10.00"># _getItemClass()</text>
<text text-anchor="start" x="14" y="-134.5" font-family="Helvetica,sans-Serif" font-size="10.00"># _getSchemaKey()</text>
</a>
</g>
<!-- Node2&#45;&gt;Node1 -->
<g id="edge2" class="edge"><title>Node2&#45;&gt;Node1</title>
<path fill="none" stroke="midnightblue" d="M79,-115.973C79,-106.66 79,-97.7274 79,-89.5304"/>
<polygon fill="none" stroke="midnightblue" points="75.5001,-116.212 79,-126.212 82.5001,-116.212 75.5001,-116.212"/>
</g>
</g>
</svg>
