<?xml version="1.0" encoding="UTF-8" standalone="no"?>
<!DOCTYPE svg PUBLIC "-//W3C//DTD SVG 1.1//EN"
 "http://www.w3.org/Graphics/SVG/1.1/DTD/svg11.dtd">
<!-- Generated by graphviz version 2.26.3 (20100126.1600)
 -->
<!-- Title: G Pages: 1 -->
<svg width="1602pt" height="347pt"
 viewBox="0.00 0.00 1602.00 347.00" xmlns="http://www.w3.org/2000/svg" xmlns:xlink="http://www.w3.org/1999/xlink">
<g id="graph1" class="graph" transform="scale(1 1) rotate(0) translate(4 343)">
<title>G</title>
<polygon fill="white" stroke="white" points="-4,5 -4,-343 1599,-343 1599,5 -4,5"/>
<!-- Node1 -->
<g id="node1" class="node"><title>Node1</title>
<polygon fill="#bfbfbf" stroke="black" points="0,-217.5 0,-238.5 320,-238.5 320,-217.5 0,-217.5"/>
<text text-anchor="middle" x="160" y="-225.5" font-family="Helvetica,sans-Serif" font-size="10.00">ZendDbSchema_Db_Schema_Generator_Mysql\generateColumnAlter</text>
</g>
<!-- Node2 -->
<g id="node3" class="node"><title>Node2</title>
<a xlink:href="classZendDbSchema__Db__Schema__Table__AbstractDefinition.html#a224b6a0c1df1d6ed40e03657782ef6fc" target="_top" xlink:title="ZendDbSchema_Db_Schema_Table_AbstractDefinition\\getTable">
<polygon fill="white" stroke="black" points="366.5,-317.5 366.5,-338.5 665.5,-338.5 665.5,-317.5 366.5,-317.5"/>
<text text-anchor="middle" x="516" y="-325.5" font-family="Helvetica,sans-Serif" font-size="10.00">ZendDbSchema_Db_Schema_Table_AbstractDefinition\getTable</text>
</a>
</g>
<!-- Node1&#45;&gt;Node2 -->
<g id="edge2" class="edge"><title>Node1&#45;&gt;Node2</title>
<path fill="none" stroke="midnightblue" d="M180.55,-238.51C215.575,-255.934 289.51,-290.601 356,-308 367.425,-310.99 379.43,-313.537 391.513,-315.707"/>
<polygon fill="midnightblue" stroke="midnightblue" points="391.224,-319.208 401.67,-317.442 392.402,-312.308 391.224,-319.208"/>
</g>
<!-- Node3 -->
<g id="node5" class="node"><title>Node3</title>
<a xlink:href="classZendDbSchema__Db__Schema__AbstractSchema.html#ae859790a91bbcb9c4dc52a6139e5999e" target="_top" xlink:title="ZendDbSchema_Db_Schema_AbstractSchema\\isDirty">
<polygon fill="white" stroke="black" points="388,-237.5 388,-258.5 644,-258.5 644,-237.5 388,-237.5"/>
<text text-anchor="middle" x="516" y="-245.5" font-family="Helvetica,sans-Serif" font-size="10.00">ZendDbSchema_Db_Schema_AbstractSchema\isDirty</text>
</a>
</g>
<!-- Node1&#45;&gt;Node3 -->
<g id="edge4" class="edge"><title>Node1&#45;&gt;Node3</title>
<path fill="none" stroke="midnightblue" d="M320.036,-236.991C339.293,-238.073 358.833,-239.17 377.743,-240.233"/>
<polygon fill="midnightblue" stroke="midnightblue" points="377.692,-243.735 387.872,-240.802 378.084,-236.746 377.692,-243.735"/>
</g>
<!-- Node7 -->
<g id="node14" class="node"><title>Node7</title>
<a xlink:href="classZendDbSchema__Db__Schema__AbstractSchema.html#a55787c21deddba427842809d589c2df6" target="_top" xlink:title="ZendDbSchema_Db_Schema_AbstractSchema\\getName">
<polygon fill="white" stroke="black" points="727.5,-198.5 727.5,-219.5 994.5,-219.5 994.5,-198.5 727.5,-198.5"/>
<text text-anchor="middle" x="861" y="-206.5" font-family="Helvetica,sans-Serif" font-size="10.00">ZendDbSchema_Db_Schema_AbstractSchema\getName</text>
</a>
</g>
<!-- Node1&#45;&gt;Node7 -->
<g id="edge14" class="edge"><title>Node1&#45;&gt;Node7</title>
<path fill="none" stroke="midnightblue" d="M320.384,-223.653C439.843,-220.415 601.55,-216.032 716.912,-212.905"/>
<polygon fill="midnightblue" stroke="midnightblue" points="717.326,-216.396 727.228,-212.626 717.137,-209.398 717.326,-216.396"/>
</g>
<!-- Node8 -->
<g id="node17" class="node"><title>Node8</title>
<a xlink:href="classZendDbSchema__Db__Schema__AbstractSchema.html#a1680a8fd22360f74d29b641d7257a52f" target="_top" xlink:title="ZendDbSchema_Db_Schema_AbstractSchema\\isExist">
<polygon fill="white" stroke="black" points="387.5,-277.5 387.5,-298.5 644.5,-298.5 644.5,-277.5 387.5,-277.5"/>
<text text-anchor="middle" x="516" y="-285.5" font-family="Helvetica,sans-Serif" font-size="10.00">ZendDbSchema_Db_Schema_AbstractSchema\isExist</text>
</a>
</g>
<!-- Node1&#45;&gt;Node8 -->
<g id="edge18" class="edge"><title>Node1&#45;&gt;Node8</title>
<path fill="none" stroke="midnightblue" d="M206.544,-238.551C246.139,-247.273 304.595,-259.555 356,-268 374.03,-270.962 393.267,-273.714 411.923,-276.17"/>
<polygon fill="midnightblue" stroke="midnightblue" points="411.548,-279.651 421.915,-277.465 412.448,-272.709 411.548,-279.651"/>
</g>
<!-- Node9 -->
<g id="node20" class="node"><title>Node9</title>
<a xlink:href="classZendDbSchema__Db__Schema__AbstractSchema.html#adacb1417b461310c5c87f72c459c1985" target="_top" xlink:title="ZendDbSchema_Db_Schema_AbstractSchema\\getOriginName">
<polygon fill="white" stroke="black" points="369.5,-159.5 369.5,-180.5 662.5,-180.5 662.5,-159.5 369.5,-159.5"/>
<text text-anchor="middle" x="516" y="-167.5" font-family="Helvetica,sans-Serif" font-size="10.00">ZendDbSchema_Db_Schema_AbstractSchema\getOriginName</text>
</a>
</g>
<!-- Node1&#45;&gt;Node9 -->
<g id="edge22" class="edge"><title>Node1&#45;&gt;Node9</title>
<path fill="none" stroke="midnightblue" d="M221.324,-217.484C259.95,-210.908 310.869,-202.325 356,-195 382.459,-190.706 411.403,-186.142 437.311,-182.106"/>
<polygon fill="midnightblue" stroke="midnightblue" points="438.112,-185.524 447.455,-180.528 437.036,-178.607 438.112,-185.524"/>
</g>
<!-- Node10 -->
<g id="node23" class="node"><title>Node10</title>
<a xlink:href="classZendDbSchema__Db__Schema__Generator__Mysql.html#a821999152ed945432417614dffc3a3e2" target="_top" xlink:title="ZendDbSchema_Db_Schema_Generator_Mysql\\_generateColumnSql">
<polygon fill="white" stroke="black" points="356,-80.5 356,-101.5 676,-101.5 676,-80.5 356,-80.5"/>
<text text-anchor="middle" x="516" y="-88.5" font-family="Helvetica,sans-Serif" font-size="10.00">ZendDbSchema_Db_Schema_Generator_Mysql\_generateColumnSql</text>
</a>
</g>
<!-- Node1&#45;&gt;Node10 -->
<g id="edge26" class="edge"><title>Node1&#45;&gt;Node10</title>
<path fill="none" stroke="midnightblue" d="M185.915,-217.443C223.351,-202.249 294.787,-173.462 356,-150 397.213,-134.204 444.685,-116.797 477.15,-105.012"/>
<polygon fill="midnightblue" stroke="midnightblue" points="478.511,-108.242 486.72,-101.544 476.126,-101.661 478.511,-108.242"/>
</g>
<!-- Node4 -->
<g id="node7" class="node"><title>Node4</title>
<a xlink:href="classZendDbSchema__Db__Schema__AbstractSchema.html#a219012c80be57ace4b1db43a9c48eb3d" target="_top" xlink:title="ZendDbSchema_Db_Schema_AbstractSchema\\getSchema">
<polygon fill="white" stroke="black" points="722.5,-314.5 722.5,-335.5 999.5,-335.5 999.5,-314.5 722.5,-314.5"/>
<text text-anchor="middle" x="861" y="-322.5" font-family="Helvetica,sans-Serif" font-size="10.00">ZendDbSchema_Db_Schema_AbstractSchema\getSchema</text>
</a>
</g>
<!-- Node3&#45;&gt;Node4 -->
<g id="edge6" class="edge"><title>Node3&#45;&gt;Node4</title>
<path fill="none" stroke="midnightblue" d="M644.138,-256.925C655.156,-259.804 665.928,-263.436 676,-268 695.498,-276.836 692.691,-290.757 712,-300 722.064,-304.817 732.898,-308.724 743.968,-311.89"/>
<polygon fill="midnightblue" stroke="midnightblue" points="743.179,-315.302 753.743,-314.485 744.976,-308.536 743.179,-315.302"/>
</g>
<!-- Node5 -->
<g id="node9" class="node"><title>Node5</title>
<a xlink:href="classZendDbSchema__Db__Schema__AbstractSchema.html#ac4e121ba7932163eb1950fabe06fb9db" target="_top" xlink:title="ZendDbSchema_Db_Schema_AbstractSchema\\__isset">
<polygon fill="white" stroke="black" points="1334.5,-216.5 1334.5,-237.5 1593.5,-237.5 1593.5,-216.5 1334.5,-216.5"/>
<text text-anchor="middle" x="1464" y="-224.5" font-family="Helvetica,sans-Serif" font-size="10.00">ZendDbSchema_Db_Schema_AbstractSchema\__isset</text>
</a>
</g>
<!-- Node3&#45;&gt;Node5 -->
<g id="edge8" class="edge"><title>Node3&#45;&gt;Node5</title>
<path fill="none" stroke="midnightblue" d="M644.07,-254.728C666.696,-255.675 690.035,-256.496 712,-257 844.41,-260.038 877.628,-261.369 1010,-257 1117.1,-253.465 1238.19,-245.252 1328.36,-238.311"/>
<polygon fill="midnightblue" stroke="midnightblue" points="1328.67,-241.798 1338.37,-237.536 1328.13,-234.819 1328.67,-241.798"/>
</g>
<!-- Node6 -->
<g id="node11" class="node"><title>Node6</title>
<a xlink:href="classZendDbSchema__Db__Schema__AbstractSchema.html#a54d32c6f15463eaad2321a9f0e7225d7" target="_top" xlink:title="ZendDbSchema_Db_Schema_AbstractSchema\\__get">
<polygon fill="white" stroke="black" points="1046.5,-139.5 1046.5,-160.5 1297.5,-160.5 1297.5,-139.5 1046.5,-139.5"/>
<text text-anchor="middle" x="1172" y="-147.5" font-family="Helvetica,sans-Serif" font-size="10.00">ZendDbSchema_Db_Schema_AbstractSchema\__get</text>
</a>
</g>
<!-- Node3&#45;&gt;Node6 -->
<g id="edge10" class="edge"><title>Node3&#45;&gt;Node6</title>
<path fill="none" stroke="midnightblue" d="M644.185,-257.409C745.127,-261.41 888.571,-259.5 1010,-229 1061.71,-216.013 1116.34,-185.321 1147.11,-166.243"/>
<polygon fill="midnightblue" stroke="midnightblue" points="1149.26,-169.02 1155.86,-160.727 1145.53,-163.098 1149.26,-169.02"/>
</g>
<!-- Node6&#45;&gt;Node5 -->
<g id="edge12" class="edge"><title>Node6&#45;&gt;Node5</title>
<path fill="none" stroke="midnightblue" d="M1211.99,-160.545C1264.59,-174.416 1357.03,-198.792 1414.14,-213.851"/>
<polygon fill="midnightblue" stroke="midnightblue" points="1413.46,-217.293 1424.03,-216.459 1415.25,-210.525 1413.46,-217.293"/>
</g>
<!-- Node7&#45;&gt;Node6 -->
<g id="edge16" class="edge"><title>Node7&#45;&gt;Node6</title>
<path fill="none" stroke="midnightblue" d="M927.117,-198.499C953.008,-194.232 982.937,-189.108 1010,-184 1044.63,-177.463 1083.26,-169.387 1114.11,-162.746"/>
<polygon fill="midnightblue" stroke="midnightblue" points="1115.22,-166.087 1124.25,-160.553 1113.74,-159.245 1115.22,-166.087"/>
</g>
<!-- Node8&#45;&gt;Node4 -->
<g id="edge20" class="edge"><title>Node8&#45;&gt;Node4</title>
<path fill="none" stroke="midnightblue" d="M613.94,-298.504C657.279,-303.152 708.392,-308.633 752.848,-313.401"/>
<polygon fill="midnightblue" stroke="midnightblue" points="752.499,-316.884 762.815,-314.47 753.245,-309.924 752.499,-316.884"/>
</g>
<!-- Node9&#45;&gt;Node6 -->
<g id="edge24" class="edge"><title>Node9&#45;&gt;Node6</title>
<path fill="none" stroke="midnightblue" d="M662.811,-165.524C774.609,-162.116 927.332,-157.459 1036.29,-154.137"/>
<polygon fill="midnightblue" stroke="midnightblue" points="1036.48,-157.634 1046.37,-153.83 1036.26,-150.637 1036.48,-157.634"/>
</g>
<!-- Node11 -->
<g id="node25" class="node"><title>Node11</title>
<a xlink:href="classZendDbSchema__Db__Schema__Table__AbstractDefinition.html#a630d65e68b1bb78943849de330e499e1" target="_top" xlink:title="ZendDbSchema_Db_Schema_Table_AbstractDefinition\\getType">
<polygon fill="white" stroke="black" points="712.5,-120.5 712.5,-141.5 1009.5,-141.5 1009.5,-120.5 712.5,-120.5"/>
<text text-anchor="middle" x="861" y="-128.5" font-family="Helvetica,sans-Serif" font-size="10.00">ZendDbSchema_Db_Schema_Table_AbstractDefinition\getType</text>
</a>
</g>
<!-- Node10&#45;&gt;Node11 -->
<g id="edge28" class="edge"><title>Node10&#45;&gt;Node11</title>
<path fill="none" stroke="midnightblue" d="M606.645,-101.51C653.8,-106.977 711.58,-113.676 760.146,-119.307"/>
<polygon fill="midnightblue" stroke="midnightblue" points="760.026,-122.816 770.362,-120.491 760.832,-115.863 760.026,-122.816"/>
</g>
<!-- Node12 -->
<g id="node28" class="node"><title>Node12</title>
<a xlink:href="classZendDbSchema__Db__Schema__Table__Column.html#aeeed5820cfc4fac67507a196e9faa638" target="_top" xlink:title="ZendDbSchema_Db_Schema_Table_Column\\isNullable">
<polygon fill="white" stroke="black" points="731,-80.5 731,-101.5 991,-101.5 991,-80.5 731,-80.5"/>
<text text-anchor="middle" x="861" y="-88.5" font-family="Helvetica,sans-Serif" font-size="10.00">ZendDbSchema_Db_Schema_Table_Column\isNullable</text>
</a>
</g>
<!-- Node10&#45;&gt;Node12 -->
<g id="edge32" class="edge"><title>Node10&#45;&gt;Node12</title>
<path fill="none" stroke="midnightblue" d="M676.128,-91C691.009,-91 706.015,-91 720.697,-91"/>
<polygon fill="midnightblue" stroke="midnightblue" points="720.805,-94.5001 730.805,-91 720.805,-87.5001 720.805,-94.5001"/>
</g>
<!-- Node13 -->
<g id="node31" class="node"><title>Node13</title>
<a xlink:href="classZendDbSchema__Db__Schema__Table__Column.html#aabe1381ba00be20407eb641a32e51820" target="_top" xlink:title="ZendDbSchema_Db_Schema_Table_Column\\getDefault">
<polygon fill="white" stroke="black" points="729.5,-40.5 729.5,-61.5 992.5,-61.5 992.5,-40.5 729.5,-40.5"/>
<text text-anchor="middle" x="861" y="-48.5" font-family="Helvetica,sans-Serif" font-size="10.00">ZendDbSchema_Db_Schema_Table_Column\getDefault</text>
</a>
</g>
<!-- Node10&#45;&gt;Node13 -->
<g id="edge36" class="edge"><title>Node10&#45;&gt;Node13</title>
<path fill="none" stroke="midnightblue" d="M606.645,-80.4905C653.8,-75.0231 711.58,-68.324 760.146,-62.6932"/>
<polygon fill="midnightblue" stroke="midnightblue" points="760.832,-66.1372 770.362,-61.5087 760.026,-59.1838 760.832,-66.1372"/>
</g>
<!-- Node14 -->
<g id="node34" class="node"><title>Node14</title>
<a xlink:href="classZendDbSchema__Db__Schema__Table__Column.html#a49887d783c47fa509e229ca61dd113ef" target="_top" xlink:title="ZendDbSchema_Db_Schema_Table_Column\\isSigned">
<polygon fill="white" stroke="black" points="733.5,-0.5 733.5,-21.5 988.5,-21.5 988.5,-0.5 733.5,-0.5"/>
<text text-anchor="middle" x="861" y="-8.5" font-family="Helvetica,sans-Serif" font-size="10.00">ZendDbSchema_Db_Schema_Table_Column\isSigned</text>
</a>
</g>
<!-- Node10&#45;&gt;Node14 -->
<g id="edge40" class="edge"><title>Node10&#45;&gt;Node14</title>
<path fill="none" stroke="midnightblue" d="M545.154,-80.4311C583.096,-67.0592 651.682,-44.1875 712,-31 725.777,-27.9879 740.375,-25.3564 754.835,-23.0789"/>
<polygon fill="midnightblue" stroke="midnightblue" points="755.454,-26.5252 764.812,-21.5585 754.399,-19.6051 755.454,-26.5252"/>
</g>
<!-- Node11&#45;&gt;Node6 -->
<g id="edge30" class="edge"><title>Node11&#45;&gt;Node6</title>
<path fill="none" stroke="midnightblue" d="M1009.67,-140.083C1018.42,-140.618 1027.21,-141.154 1035.91,-141.686"/>
<polygon fill="midnightblue" stroke="midnightblue" points="1035.89,-145.191 1046.08,-142.307 1036.31,-138.204 1035.89,-145.191"/>
</g>
<!-- Node12&#45;&gt;Node6 -->
<g id="edge34" class="edge"><title>Node12&#45;&gt;Node6</title>
<path fill="none" stroke="midnightblue" d="M950.666,-101.515C970.279,-104.239 990.887,-107.426 1010,-111 1048.36,-118.172 1091.28,-128.615 1123.3,-136.89"/>
<polygon fill="midnightblue" stroke="midnightblue" points="1122.73,-140.359 1133.29,-139.494 1124.49,-133.586 1122.73,-140.359"/>
</g>
<!-- Node13&#45;&gt;Node6 -->
<g id="edge38" class="edge"><title>Node13&#45;&gt;Node6</title>
<path fill="none" stroke="midnightblue" d="M970.104,-61.5249C983.68,-64.0372 997.258,-67.1481 1010,-71 1060.49,-86.2632 1114.72,-115.677 1145.88,-133.989"/>
<polygon fill="midnightblue" stroke="midnightblue" points="1144.4,-137.179 1154.78,-139.288 1147.98,-131.165 1144.4,-137.179"/>
</g>
<!-- Node14&#45;&gt;Node6 -->
<g id="edge42" class="edge"><title>Node14&#45;&gt;Node6</title>
<path fill="none" stroke="midnightblue" d="M980.332,-21.5393C990.539,-24.0791 1000.56,-27.1914 1010,-31 1068.91,-54.7683 1125.95,-104.902 1154,-131.889"/>
<polygon fill="midnightblue" stroke="midnightblue" points="1151.83,-134.668 1161.43,-139.157 1156.73,-129.663 1151.83,-134.668"/>
</g>
</g>
</svg>
