<?xml version="1.0" encoding="UTF-8" standalone="no"?>
<!DOCTYPE svg PUBLIC "-//W3C//DTD SVG 1.1//EN"
 "http://www.w3.org/Graphics/SVG/1.1/DTD/svg11.dtd">
<!-- Generated by graphviz version 2.26.3 (20100126.1600)
 -->
<!-- Title: G Pages: 1 -->
<svg width="930pt" height="30pt"
 viewBox="0.00 0.00 930.00 30.00" xmlns="http://www.w3.org/2000/svg" xmlns:xlink="http://www.w3.org/1999/xlink">
<g id="graph1" class="graph" transform="scale(1 1) rotate(0) translate(4 26)">
<title>G</title>
<polygon fill="white" stroke="white" points="-4,5 -4,-26 927,-26 927,5 -4,5"/>
<!-- Node1 -->
<g id="node1" class="node"><title>Node1</title>
<polygon fill="#bfbfbf" stroke="black" points="0.5,-0.5 0.5,-21.5 257.5,-21.5 257.5,-0.5 0.5,-0.5"/>
<text text-anchor="middle" x="129" y="-8.5" font-family="Helvetica,sans-Serif" font-size="10.00">ZendDbSchema_Db_Schema_Table_Index\getSchema</text>
</g>
<!-- Node2 -->
<g id="node3" class="node"><title>Node2</title>
<a xlink:href="classZendDbSchema__Db__Schema__Validator__Mysql.html#a0cf7ff88ff35c9636c0bb80f08416cb3" target="_top" xlink:title="ZendDbSchema_Db_Schema_Validator_Mysql\\validateIndex">
<polygon fill="white" stroke="black" points="294,-0.5 294,-21.5 576,-21.5 576,-0.5 294,-0.5"/>
<text text-anchor="middle" x="435" y="-8.5" font-family="Helvetica,sans-Serif" font-size="10.00">ZendDbSchema_Db_Schema_Validator_Mysql\validateIndex</text>
</a>
</g>
<!-- Node1&#45;&gt;Node2 -->
<g id="edge2" class="edge"><title>Node1&#45;&gt;Node2</title>
<path fill="none" stroke="midnightblue" d="M267.986,-11C276.62,-11 285.314,-11 293.957,-11"/>
<polygon fill="midnightblue" stroke="midnightblue" points="267.885,-7.5001 257.885,-11 267.885,-14.5001 267.885,-7.5001"/>
</g>
<!-- Node3 -->
<g id="node5" class="node"><title>Node3</title>
<a xlink:href="classZendDbSchema__Db__Schema__Validator__Mysql.html#a68e9ec20adec3be1ac1494fb666f2acd" target="_top" xlink:title="ZendDbSchema_Db_Schema_Validator_Mysql\\validatePrimaryKey">
<polygon fill="white" stroke="black" points="612.5,-0.5 612.5,-21.5 921.5,-21.5 921.5,-0.5 612.5,-0.5"/>
<text text-anchor="middle" x="767" y="-8.5" font-family="Helvetica,sans-Serif" font-size="10.00">ZendDbSchema_Db_Schema_Validator_Mysql\validatePrimaryKey</text>
</a>
</g>
<!-- Node2&#45;&gt;Node3 -->
<g id="edge4" class="edge"><title>Node2&#45;&gt;Node3</title>
<path fill="none" stroke="midnightblue" d="M586.366,-11C594.985,-11 603.656,-11 612.287,-11"/>
<polygon fill="midnightblue" stroke="midnightblue" points="586.279,-7.5001 576.279,-11 586.279,-14.5001 586.279,-7.5001"/>
</g>
</g>
</svg>
