<?xml version="1.0" encoding="UTF-8" standalone="no"?>
<!DOCTYPE svg PUBLIC "-//W3C//DTD SVG 1.1//EN"
 "http://www.w3.org/Graphics/SVG/1.1/DTD/svg11.dtd">
<!-- Generated by graphviz version 2.26.3 (20100126.1600)
 -->
<!-- Title: G Pages: 1 -->
<svg width="2438pt" height="119pt"
 viewBox="0.00 0.00 2438.00 119.00" xmlns="http://www.w3.org/2000/svg" xmlns:xlink="http://www.w3.org/1999/xlink">
<g id="graph1" class="graph" transform="scale(1 1) rotate(0) translate(4 115)">
<title>G</title>
<polygon fill="white" stroke="white" points="-4,5 -4,-115 2435,-115 2435,5 -4,5"/>
<!-- Node1 -->
<g id="node1" class="node"><title>Node1</title>
<polygon fill="#bfbfbf" stroke="black" points="0,-60.5 0,-81.5 294,-81.5 294,-60.5 0,-60.5"/>
<text text-anchor="middle" x="147" y="-68.5" font-family="Helvetica,sans-Serif" font-size="10.00">ZendDbSchema_Db_Schema_Table_PrimaryKey\setFromArray</text>
</g>
<!-- Node2 -->
<g id="node3" class="node"><title>Node2</title>
<a xlink:href="classZendDbSchema__Db__Schema__Table__Index.html#a6717d976c5b0d47369d3c87ef17b1e9b" target="_top" xlink:title="ZendDbSchema_Db_Schema_Table_Index\\addColumn">
<polygon fill="white" stroke="black" points="330.5,-60.5 330.5,-81.5 587.5,-81.5 587.5,-60.5 330.5,-60.5"/>
<text text-anchor="middle" x="459" y="-68.5" font-family="Helvetica,sans-Serif" font-size="10.00">ZendDbSchema_Db_Schema_Table_Index\addColumn</text>
</a>
</g>
<!-- Node1&#45;&gt;Node2 -->
<g id="edge2" class="edge"><title>Node1&#45;&gt;Node2</title>
<path fill="none" stroke="midnightblue" d="M294.32,-71C302.939,-71 311.593,-71 320.177,-71"/>
<polygon fill="midnightblue" stroke="midnightblue" points="320.215,-74.5001 330.215,-71 320.215,-67.5001 320.215,-74.5001"/>
</g>
<!-- Node3 -->
<g id="node5" class="node"><title>Node3</title>
<a xlink:href="classZendDbSchema__Db__Schema__Table__Index.html#af7c29da0f52c5270ffa3587a95295f82" target="_top" xlink:title="ZendDbSchema_Db_Schema_Table_Index\\hasColumn">
<polygon fill="white" stroke="black" points="624.5,-60.5 624.5,-81.5 881.5,-81.5 881.5,-60.5 624.5,-60.5"/>
<text text-anchor="middle" x="753" y="-68.5" font-family="Helvetica,sans-Serif" font-size="10.00">ZendDbSchema_Db_Schema_Table_Index\hasColumn</text>
</a>
</g>
<!-- Node2&#45;&gt;Node3 -->
<g id="edge4" class="edge"><title>Node2&#45;&gt;Node3</title>
<path fill="none" stroke="midnightblue" d="M587.525,-71C596.394,-71 605.354,-71 614.273,-71"/>
<polygon fill="midnightblue" stroke="midnightblue" points="614.319,-74.5001 624.319,-71 614.319,-67.5001 614.319,-74.5001"/>
</g>
<!-- Node4 -->
<g id="node7" class="node"><title>Node4</title>
<a xlink:href="classZendDbSchema__Db__Schema__AbstractSchema.html#a54d32c6f15463eaad2321a9f0e7225d7" target="_top" xlink:title="ZendDbSchema_Db_Schema_AbstractSchema\\__get">
<polygon fill="white" stroke="black" points="918.5,-89.5 918.5,-110.5 1169.5,-110.5 1169.5,-89.5 918.5,-89.5"/>
<text text-anchor="middle" x="1044" y="-97.5" font-family="Helvetica,sans-Serif" font-size="10.00">ZendDbSchema_Db_Schema_AbstractSchema\__get</text>
</a>
</g>
<!-- Node2&#45;&gt;Node4 -->
<g id="edge24" class="edge"><title>Node2&#45;&gt;Node4</title>
<path fill="none" stroke="midnightblue" d="M532.772,-81.5272C561.222,-85.1703 594.066,-88.8704 624,-91 718.803,-97.7447 825.921,-99.9548 908.25,-100.499"/>
<polygon fill="midnightblue" stroke="midnightblue" points="908.399,-104 918.419,-100.559 908.44,-97.0002 908.399,-104"/>
</g>
<!-- Node6 -->
<g id="node11" class="node"><title>Node6</title>
<a xlink:href="classZendDbSchema__Db__Schema__AbstractSchema.html#ab4282a1fd6f4d9f23d01de8328072c71" target="_top" xlink:title="ZendDbSchema_Db_Schema_AbstractSchema\\__set">
<polygon fill="white" stroke="black" points="918.5,-40.5 918.5,-61.5 1169.5,-61.5 1169.5,-40.5 918.5,-40.5"/>
<text text-anchor="middle" x="1044" y="-48.5" font-family="Helvetica,sans-Serif" font-size="10.00">ZendDbSchema_Db_Schema_AbstractSchema\__set</text>
</a>
</g>
<!-- Node2&#45;&gt;Node6 -->
<g id="edge26" class="edge"><title>Node2&#45;&gt;Node6</title>
<path fill="none" stroke="midnightblue" d="M530.3,-60.4525C559.299,-56.6603 593.181,-52.861 624,-51 718.848,-45.2726 825.965,-45.3761 908.282,-46.8584"/>
<polygon fill="midnightblue" stroke="midnightblue" points="908.386,-50.3609 918.45,-47.0507 908.518,-43.3621 908.386,-50.3609"/>
</g>
<!-- Node3&#45;&gt;Node4 -->
<g id="edge6" class="edge"><title>Node3&#45;&gt;Node4</title>
<path fill="none" stroke="midnightblue" d="M858.469,-81.5107C881.139,-83.7699 905.215,-86.1692 928.251,-88.4649"/>
<polygon fill="midnightblue" stroke="midnightblue" points="928.104,-91.9675 938.402,-89.4765 928.799,-85.002 928.104,-91.9675"/>
</g>
<!-- Node3&#45;&gt;Node6 -->
<g id="edge10" class="edge"><title>Node3&#45;&gt;Node6</title>
<path fill="none" stroke="midnightblue" d="M881.908,-62.1404C890.54,-61.5471 899.251,-60.9484 907.917,-60.3528"/>
<polygon fill="midnightblue" stroke="midnightblue" points="908.327,-63.833 918.063,-59.6555 907.847,-56.8495 908.327,-63.833"/>
</g>
<!-- Node5 -->
<g id="node9" class="node"><title>Node5</title>
<a xlink:href="classZendDbSchema__Db__Schema__AbstractSchema.html#ac4e121ba7932163eb1950fabe06fb9db" target="_top" xlink:title="ZendDbSchema_Db_Schema_AbstractSchema\\__isset">
<polygon fill="white" stroke="black" points="1216.5,-89.5 1216.5,-110.5 1475.5,-110.5 1475.5,-89.5 1216.5,-89.5"/>
<text text-anchor="middle" x="1346" y="-97.5" font-family="Helvetica,sans-Serif" font-size="10.00">ZendDbSchema_Db_Schema_AbstractSchema\__isset</text>
</a>
</g>
<!-- Node4&#45;&gt;Node5 -->
<g id="edge8" class="edge"><title>Node4&#45;&gt;Node5</title>
<path fill="none" stroke="midnightblue" d="M1169.89,-100C1181.9,-100 1194.13,-100 1206.26,-100"/>
<polygon fill="midnightblue" stroke="midnightblue" points="1206.42,-103.5 1216.42,-100 1206.42,-96.5001 1206.42,-103.5"/>
</g>
<!-- Node7 -->
<g id="node13" class="node"><title>Node7</title>
<a xlink:href="classZendDbSchema__Db__Schema__AbstractSchema.html#afda46eab0c365f4c9a743b7185c51d6c" target="_top" xlink:title="ZendDbSchema_Db_Schema_AbstractSchema\\getValidator">
<polygon fill="white" stroke="black" points="1206.5,-40.5 1206.5,-61.5 1485.5,-61.5 1485.5,-40.5 1206.5,-40.5"/>
<text text-anchor="middle" x="1346" y="-48.5" font-family="Helvetica,sans-Serif" font-size="10.00">ZendDbSchema_Db_Schema_AbstractSchema\getValidator</text>
</a>
</g>
<!-- Node6&#45;&gt;Node7 -->
<g id="edge12" class="edge"><title>Node6&#45;&gt;Node7</title>
<path fill="none" stroke="midnightblue" d="M1169.89,-51C1178.5,-51 1187.22,-51 1195.93,-51"/>
<polygon fill="midnightblue" stroke="midnightblue" points="1196.16,-54.5001 1206.16,-51 1196.16,-47.5001 1196.16,-54.5001"/>
</g>
<!-- Node8 -->
<g id="node15" class="node"><title>Node8</title>
<a xlink:href="classZendDbSchema__Db__Schema__AbstractSchema.html#a47d95912f6bf6d26d023597887dafacb" target="_top" xlink:title="ZendDbSchema_Db_Schema_AbstractSchema\\getAdapter">
<polygon fill="white" stroke="black" points="1522.5,-40.5 1522.5,-61.5 1797.5,-61.5 1797.5,-40.5 1522.5,-40.5"/>
<text text-anchor="middle" x="1660" y="-48.5" font-family="Helvetica,sans-Serif" font-size="10.00">ZendDbSchema_Db_Schema_AbstractSchema\getAdapter</text>
</a>
</g>
<!-- Node7&#45;&gt;Node8 -->
<g id="edge14" class="edge"><title>Node7&#45;&gt;Node8</title>
<path fill="none" stroke="midnightblue" d="M1485.55,-51C1494.27,-51 1503.05,-51 1511.8,-51"/>
<polygon fill="midnightblue" stroke="midnightblue" points="1512.04,-54.5001 1522.04,-51 1512.04,-47.5001 1512.04,-54.5001"/>
</g>
<!-- Node9 -->
<g id="node17" class="node"><title>Node9</title>
<a xlink:href="classZendDbSchema__Db__Schema__AbstractSchema.html#a6349649e5e09d67a5b5e0abe96298db8" target="_top" xlink:title="ZendDbSchema_Db_Schema_AbstractSchema\\setAdapter">
<polygon fill="white" stroke="black" points="1834.5,-40.5 1834.5,-61.5 2109.5,-61.5 2109.5,-40.5 1834.5,-40.5"/>
<text text-anchor="middle" x="1972" y="-48.5" font-family="Helvetica,sans-Serif" font-size="10.00">ZendDbSchema_Db_Schema_AbstractSchema\setAdapter</text>
</a>
</g>
<!-- Node8&#45;&gt;Node9 -->
<g id="edge16" class="edge"><title>Node8&#45;&gt;Node9</title>
<path fill="none" stroke="midnightblue" d="M1797.76,-51C1806.44,-51 1815.2,-51 1823.92,-51"/>
<polygon fill="midnightblue" stroke="midnightblue" points="1824.14,-54.5001 1834.14,-51 1824.14,-47.5001 1824.14,-54.5001"/>
</g>
<!-- Node10 -->
<g id="node19" class="node"><title>Node10</title>
<a xlink:href="classZendDbSchema__Db__Schema__AbstractSchema.html#a53a1974dbc8822792a8d7b9c618d3a02" target="_top" xlink:title="ZendDbSchema_Db_Schema_AbstractSchema\\setGenerator">
<polygon fill="white" stroke="black" points="2146,-80.5 2146,-101.5 2430,-101.5 2430,-80.5 2146,-80.5"/>
<text text-anchor="middle" x="2288" y="-88.5" font-family="Helvetica,sans-Serif" font-size="10.00">ZendDbSchema_Db_Schema_AbstractSchema\setGenerator</text>
</a>
</g>
<!-- Node9&#45;&gt;Node10 -->
<g id="edge18" class="edge"><title>Node9&#45;&gt;Node10</title>
<path fill="none" stroke="midnightblue" d="M2055.03,-61.5095C2097.95,-66.9425 2150.48,-73.5919 2194.78,-79.2006"/>
<polygon fill="midnightblue" stroke="midnightblue" points="2194.62,-82.7077 2204.98,-80.4913 2195.5,-75.7631 2194.62,-82.7077"/>
</g>
<!-- Node11 -->
<g id="node21" class="node"><title>Node11</title>
<a xlink:href="classZendDbSchema__Db__Schema__AbstractSchema.html#aa0e6c9f8d58702dc41d988f064f62698" target="_top" xlink:title="ZendDbSchema_Db_Schema_AbstractSchema\\setParser">
<polygon fill="white" stroke="black" points="2153.5,-40.5 2153.5,-61.5 2422.5,-61.5 2422.5,-40.5 2153.5,-40.5"/>
<text text-anchor="middle" x="2288" y="-48.5" font-family="Helvetica,sans-Serif" font-size="10.00">ZendDbSchema_Db_Schema_AbstractSchema\setParser</text>
</a>
</g>
<!-- Node9&#45;&gt;Node11 -->
<g id="edge20" class="edge"><title>Node9&#45;&gt;Node11</title>
<path fill="none" stroke="midnightblue" d="M2109.68,-51C2120.76,-51 2131.98,-51 2143.1,-51"/>
<polygon fill="midnightblue" stroke="midnightblue" points="2143.29,-54.5001 2153.29,-51 2143.29,-47.5001 2143.29,-54.5001"/>
</g>
<!-- Node12 -->
<g id="node23" class="node"><title>Node12</title>
<a xlink:href="classZendDbSchema__Db__Schema__AbstractSchema.html#ac0161e2c24dafba8433fb86205a147fe" target="_top" xlink:title="ZendDbSchema_Db_Schema_AbstractSchema\\setValidator">
<polygon fill="white" stroke="black" points="2148.5,-0.5 2148.5,-21.5 2427.5,-21.5 2427.5,-0.5 2148.5,-0.5"/>
<text text-anchor="middle" x="2288" y="-8.5" font-family="Helvetica,sans-Serif" font-size="10.00">ZendDbSchema_Db_Schema_AbstractSchema\setValidator</text>
</a>
</g>
<!-- Node9&#45;&gt;Node12 -->
<g id="edge22" class="edge"><title>Node9&#45;&gt;Node12</title>
<path fill="none" stroke="midnightblue" d="M2055.03,-40.4905C2097.95,-35.0575 2150.48,-28.4081 2194.78,-22.7994"/>
<polygon fill="midnightblue" stroke="midnightblue" points="2195.5,-26.2369 2204.98,-21.5087 2194.62,-19.2923 2195.5,-26.2369"/>
</g>
</g>
</svg>
