<?xml version="1.0" encoding="UTF-8" standalone="no"?>
<!DOCTYPE svg PUBLIC "-//W3C//DTD SVG 1.1//EN"
 "http://www.w3.org/Graphics/SVG/1.1/DTD/svg11.dtd">
<!-- Generated by graphviz version 2.26.3 (20100126.1600)
 -->
<!-- Title: G Pages: 1 -->
<svg width="546pt" height="94pt"
 viewBox="0.00 0.00 546.00 94.00" xmlns="http://www.w3.org/2000/svg" xmlns:xlink="http://www.w3.org/1999/xlink">
<g id="graph1" class="graph" transform="scale(1 1) rotate(0) translate(4 90)">
<title>G</title>
<polygon fill="white" stroke="white" points="-4,5 -4,-90 543,-90 543,5 -4,5"/>
<!-- Node1 -->
<g id="node1" class="node"><title>Node1</title>
<polygon fill="#bfbfbf" stroke="black" points="0,-26 0,-60 150,-60 150,-26 0,-26"/>
<text text-anchor="start" x="8" y="-47" font-family="Helvetica,sans-Serif" font-size="10.00">ZendDbSchema_Db_Migration</text>
<text text-anchor="middle" x="75" y="-34" font-family="Helvetica,sans-Serif" font-size="10.00">_Skeleton\addSchema</text>
</g>
<!-- Node2 -->
<g id="node3" class="node"><title>Node2</title>
<a xlink:href="classZendDbSchema__Db__Migration__Skeleton.html#a1d08bca816aaff3ac27087d5e5daa2ff" target="_top" xlink:title="ZendDbSchema_Db_Migration\l_Skeleton\\getAdapter">
<polygon fill="white" stroke="black" points="186,-26 186,-60 336,-60 336,-26 186,-26"/>
<text text-anchor="start" x="194" y="-47" font-family="Helvetica,sans-Serif" font-size="10.00">ZendDbSchema_Db_Migration</text>
<text text-anchor="middle" x="261" y="-34" font-family="Helvetica,sans-Serif" font-size="10.00">_Skeleton\getAdapter</text>
</a>
</g>
<!-- Node1&#45;&gt;Node2 -->
<g id="edge2" class="edge"><title>Node1&#45;&gt;Node2</title>
<path fill="none" stroke="midnightblue" d="M150.117,-43C158.596,-43 167.281,-43 175.875,-43"/>
<polygon fill="midnightblue" stroke="midnightblue" points="175.905,-46.5001 185.905,-43 175.905,-39.5001 175.905,-46.5001"/>
</g>
<!-- Node3 -->
<g id="node5" class="node"><title>Node3</title>
<a xlink:href="classZendDbSchema__Db__Schema__AbstractEntity.html#aeeb617d5d385796ccbe95e0aa85cf491" target="_top" xlink:title="ZendDbSchema_Db_Schema\l_AbstractEntity\\getDefaultAdapter">
<polygon fill="white" stroke="black" points="372,-52 372,-86 538,-86 538,-52 372,-52"/>
<text text-anchor="start" x="380" y="-73" font-family="Helvetica,sans-Serif" font-size="10.00">ZendDbSchema_Db_Schema</text>
<text text-anchor="middle" x="455" y="-60" font-family="Helvetica,sans-Serif" font-size="10.00">_AbstractEntity\getDefaultAdapter</text>
</a>
</g>
<!-- Node2&#45;&gt;Node3 -->
<g id="edge4" class="edge"><title>Node2&#45;&gt;Node3</title>
<path fill="none" stroke="midnightblue" d="M336.005,-53.0523C344.435,-54.1821 353.099,-55.3432 361.724,-56.4991"/>
<polygon fill="midnightblue" stroke="midnightblue" points="361.438,-59.9919 371.814,-57.8514 362.368,-53.054 361.438,-59.9919"/>
</g>
<!-- Node4 -->
<g id="node7" class="node"><title>Node4</title>
<a xlink:href="classZendDbSchema__Db__Migration__Skeleton.html#aa36d3a36801a4fe2dc5369f4fe68a516" target="_top" xlink:title="ZendDbSchema_Db_Migration\l_Skeleton\\setAdapter">
<polygon fill="white" stroke="black" points="380,-0 380,-34 530,-34 530,-0 380,-0"/>
<text text-anchor="start" x="388" y="-21" font-family="Helvetica,sans-Serif" font-size="10.00">ZendDbSchema_Db_Migration</text>
<text text-anchor="middle" x="455" y="-8" font-family="Helvetica,sans-Serif" font-size="10.00">_Skeleton\setAdapter</text>
</a>
</g>
<!-- Node2&#45;&gt;Node4 -->
<g id="edge6" class="edge"><title>Node2&#45;&gt;Node4</title>
<path fill="none" stroke="midnightblue" d="M336.005,-32.9477C347.026,-31.4707 358.447,-29.9402 369.656,-28.4378"/>
<polygon fill="midnightblue" stroke="midnightblue" points="370.428,-31.8658 379.874,-27.0684 369.498,-24.9278 370.428,-31.8658"/>
</g>
</g>
</svg>
