<?xml version="1.0" encoding="UTF-8" standalone="no"?>
<!DOCTYPE svg PUBLIC "-//W3C//DTD SVG 1.1//EN"
 "http://www.w3.org/Graphics/SVG/1.1/DTD/svg11.dtd">
<!-- Generated by graphviz version 2.26.3 (20100126.1600)
 -->
<!-- Title: G Pages: 1 -->
<svg width="716pt" height="161pt"
 viewBox="0.00 0.00 716.00 160.64" xmlns="http://www.w3.org/2000/svg" xmlns:xlink="http://www.w3.org/1999/xlink">
<g id="graph1" class="graph" transform="scale(1 1) rotate(0) translate(4 156.64)">
<title>G</title>
<polygon fill="white" stroke="white" points="-4,5 -4,-156.64 713,-156.64 713,5 -4,5"/>
<!-- Node1 -->
<g id="node1" class="node"><title>Node1</title>
<polygon fill="#bfbfbf" stroke="black" points="0,-64.0634 0,-98.0634 150,-98.0634 150,-64.0634 0,-64.0634"/>
<text text-anchor="start" x="8" y="-85.0634" font-family="Helvetica,sans-Serif" font-size="10.00">ZendDbSchema_Db_Migration</text>
<text text-anchor="middle" x="75" y="-72.0634" font-family="Helvetica,sans-Serif" font-size="10.00">_Manager\down</text>
</g>
<!-- Node2 -->
<g id="node3" class="node"><title>Node2</title>
<a xlink:href="classZendDbSchema__Db__Migration__Manager.html#a3f8150b5e2fc90623a10c7890af80185" target="_top" xlink:title="ZendDbSchema_Db_Migration\l_Manager\\compareVersion">
<polygon fill="white" stroke="black" points="186,-101.063 186,-135.063 336,-135.063 336,-101.063 186,-101.063"/>
<text text-anchor="start" x="194" y="-122.063" font-family="Helvetica,sans-Serif" font-size="10.00">ZendDbSchema_Db_Migration</text>
<text text-anchor="middle" x="261" y="-109.063" font-family="Helvetica,sans-Serif" font-size="10.00">_Manager\compareVersion</text>
</a>
</g>
<!-- Node1&#45;&gt;Node2 -->
<g id="edge2" class="edge"><title>Node1&#45;&gt;Node2</title>
<path fill="none" stroke="midnightblue" d="M150.117,-96.0061C158.596,-97.6927 167.281,-99.4203 175.875,-101.13"/>
<polygon fill="midnightblue" stroke="midnightblue" points="175.414,-104.607 185.905,-103.125 176.78,-97.7413 175.414,-104.607"/>
</g>
<!-- Node6 -->
<g id="node13" class="node"><title>Node6</title>
<a xlink:href="classZendDbSchema__Db__Migration__Manager.html#a3acd09811b23c39aa97fed97b4012ac9" target="_top" xlink:title="ZendDbSchema_Db_Migration\l_Manager\\rolldown">
<polygon fill="white" stroke="black" points="186,-27.0634 186,-61.0634 336,-61.0634 336,-27.0634 186,-27.0634"/>
<text text-anchor="start" x="194" y="-48.0634" font-family="Helvetica,sans-Serif" font-size="10.00">ZendDbSchema_Db_Migration</text>
<text text-anchor="middle" x="261" y="-35.0634" font-family="Helvetica,sans-Serif" font-size="10.00">_Manager\rolldown</text>
</a>
</g>
<!-- Node1&#45;&gt;Node6 -->
<g id="edge14" class="edge"><title>Node1&#45;&gt;Node6</title>
<path fill="none" stroke="midnightblue" d="M150.117,-66.1208C158.596,-64.4341 167.281,-62.7065 175.875,-60.9969"/>
<polygon fill="midnightblue" stroke="midnightblue" points="176.78,-64.3856 185.905,-59.0017 175.414,-57.5201 176.78,-64.3856"/>
</g>
<!-- Node3 -->
<g id="node5" class="node"><title>Node3</title>
<a xlink:href="classZendDbSchema__Db__Migration__Manager.html#a9973d07f9ffe306e00ea2f9f4beb92e4" target="_top" xlink:title="ZendDbSchema_Db_Migration\l_Manager\\hasChange">
<polygon fill="white" stroke="black" points="558,-68.0634 558,-102.063 708,-102.063 708,-68.0634 558,-68.0634"/>
<text text-anchor="start" x="566" y="-89.0634" font-family="Helvetica,sans-Serif" font-size="10.00">ZendDbSchema_Db_Migration</text>
<text text-anchor="middle" x="633" y="-76.0634" font-family="Helvetica,sans-Serif" font-size="10.00">_Manager\hasChange</text>
</a>
</g>
<!-- Node2&#45;&gt;Node3 -->
<g id="edge4" class="edge"><title>Node2&#45;&gt;Node3</title>
<path fill="none" stroke="midnightblue" d="M319.359,-135.109C372.803,-148.086 453.734,-161.079 522,-144.063 550.349,-136.997 579.404,-121.186 600.673,-107.71"/>
<polygon fill="midnightblue" stroke="midnightblue" points="602.812,-110.494 609.287,-102.109 598.996,-104.626 602.812,-110.494"/>
</g>
<!-- Node4 -->
<g id="node7" class="node"><title>Node4</title>
<a xlink:href="classZendDbSchema__Db__Migration__Manager.html#a3d4f62489e72876f97bec3cd4448979d" target="_top" xlink:title="ZendDbSchema_Db_Migration\l_Manager\\getChange">
<polygon fill="white" stroke="black" points="372,-68.0634 372,-102.063 522,-102.063 522,-68.0634 372,-68.0634"/>
<text text-anchor="start" x="380" y="-89.0634" font-family="Helvetica,sans-Serif" font-size="10.00">ZendDbSchema_Db_Migration</text>
<text text-anchor="middle" x="447" y="-76.0634" font-family="Helvetica,sans-Serif" font-size="10.00">_Manager\getChange</text>
</a>
</g>
<!-- Node2&#45;&gt;Node4 -->
<g id="edge6" class="edge"><title>Node2&#45;&gt;Node4</title>
<path fill="none" stroke="midnightblue" d="M336.117,-104.736C344.596,-103.232 353.281,-101.691 361.875,-100.166"/>
<polygon fill="midnightblue" stroke="midnightblue" points="362.67,-103.58 371.905,-98.3868 361.447,-96.6876 362.67,-103.58"/>
</g>
<!-- Node5 -->
<g id="node9" class="node"><title>Node5</title>
<a xlink:href="classZendDbSchema__Db__Migration__Manager.html#ab66af8a9dc5cdb099b8266b68166c4e0" target="_top" xlink:title="ZendDbSchema_Db_Migration\l_Manager\\getVersion">
<polygon fill="white" stroke="black" points="558,-16.0634 558,-50.0634 708,-50.0634 708,-16.0634 558,-16.0634"/>
<text text-anchor="start" x="566" y="-37.0634" font-family="Helvetica,sans-Serif" font-size="10.00">ZendDbSchema_Db_Migration</text>
<text text-anchor="middle" x="633" y="-24.0634" font-family="Helvetica,sans-Serif" font-size="10.00">_Manager\getVersion</text>
</a>
</g>
<!-- Node2&#45;&gt;Node5 -->
<g id="edge12" class="edge"><title>Node2&#45;&gt;Node5</title>
<path fill="none" stroke="midnightblue" d="M336.209,-133.323C391.017,-140.497 465.291,-141.752 522,-111.063 546.721,-97.6852 535.614,-76.063 558,-59.0634 559.783,-57.7091 561.643,-56.4219 563.561,-55.1989"/>
<polygon fill="midnightblue" stroke="midnightblue" points="565.33,-58.2193 572.297,-50.2375 561.873,-52.1324 565.33,-58.2193"/>
</g>
<!-- Node4&#45;&gt;Node3 -->
<g id="edge10" class="edge"><title>Node4&#45;&gt;Node3</title>
<path fill="none" stroke="midnightblue" d="M522.117,-85.0634C530.596,-85.0634 539.281,-85.0634 547.875,-85.0634"/>
<polygon fill="midnightblue" stroke="midnightblue" points="547.905,-88.5635 557.905,-85.0634 547.905,-81.5635 547.905,-88.5635"/>
</g>
<!-- Node4&#45;&gt;Node5 -->
<g id="edge8" class="edge"><title>Node4&#45;&gt;Node5</title>
<path fill="none" stroke="midnightblue" d="M507.903,-68.0367C525.246,-63.1883 544.285,-57.8654 562.165,-52.8669"/>
<polygon fill="midnightblue" stroke="midnightblue" points="563.271,-56.1917 571.96,-50.1284 561.387,-49.4502 563.271,-56.1917"/>
</g>
<!-- Node6&#45;&gt;Node4 -->
<g id="edge16" class="edge"><title>Node6&#45;&gt;Node4</title>
<path fill="none" stroke="midnightblue" d="M336.117,-60.6215C344.596,-62.4905 353.281,-64.4048 361.875,-66.2993"/>
<polygon fill="midnightblue" stroke="midnightblue" points="361.386,-69.7754 371.905,-68.5102 362.893,-62.9395 361.386,-69.7754"/>
</g>
<!-- Node6&#45;&gt;Node5 -->
<g id="edge24" class="edge"><title>Node6&#45;&gt;Node5</title>
<path fill="none" stroke="midnightblue" d="M301.584,-27.0398C322.261,-19.2722 348.039,-10.9517 372,-7.06343 437.806,3.61539 455.774,0.589202 522,-7.06343 534.926,-8.55707 548.533,-10.9982 561.62,-13.8018"/>
<polygon fill="midnightblue" stroke="midnightblue" points="560.983,-17.2458 571.505,-16.0066 562.507,-10.4136 560.983,-17.2458"/>
</g>
<!-- Node7 -->
<g id="node16" class="node"><title>Node7</title>
<a xlink:href="classZendDbSchema__Db__Migration__Manager.html#a3e9a5dfa3447c5eb1b4bbcc8817549c3" target="_top" xlink:title="ZendDbSchema_Db_Migration\l_Manager\\getPrevious">
<polygon fill="white" stroke="black" points="372,-16.0634 372,-50.0634 522,-50.0634 522,-16.0634 372,-16.0634"/>
<text text-anchor="start" x="380" y="-37.0634" font-family="Helvetica,sans-Serif" font-size="10.00">ZendDbSchema_Db_Migration</text>
<text text-anchor="middle" x="447" y="-24.0634" font-family="Helvetica,sans-Serif" font-size="10.00">_Manager\getPrevious</text>
</a>
</g>
<!-- Node6&#45;&gt;Node7 -->
<g id="edge18" class="edge"><title>Node6&#45;&gt;Node7</title>
<path fill="none" stroke="midnightblue" d="M336.117,-39.621C344.596,-39.1196 353.281,-38.606 361.875,-38.0977"/>
<polygon fill="midnightblue" stroke="midnightblue" points="362.129,-41.5889 371.905,-37.5045 361.716,-34.6011 362.129,-41.5889"/>
</g>
<!-- Node7&#45;&gt;Node3 -->
<g id="edge22" class="edge"><title>Node7&#45;&gt;Node3</title>
<path fill="none" stroke="midnightblue" d="M507.903,-50.0902C525.246,-54.9386 544.285,-60.2615 562.165,-65.26"/>
<polygon fill="midnightblue" stroke="midnightblue" points="561.387,-68.6767 571.96,-67.9984 563.271,-61.9352 561.387,-68.6767"/>
</g>
<!-- Node7&#45;&gt;Node5 -->
<g id="edge20" class="edge"><title>Node7&#45;&gt;Node5</title>
<path fill="none" stroke="midnightblue" d="M522.117,-33.0634C530.596,-33.0634 539.281,-33.0634 547.875,-33.0634"/>
<polygon fill="midnightblue" stroke="midnightblue" points="547.905,-36.5635 557.905,-33.0634 547.905,-29.5635 547.905,-36.5635"/>
</g>
</g>
</svg>
