<?xml version="1.0" encoding="UTF-8" standalone="no"?>
<!DOCTYPE svg PUBLIC "-//W3C//DTD SVG 1.1//EN"
 "http://www.w3.org/Graphics/SVG/1.1/DTD/svg11.dtd">
<!-- Generated by graphviz version 2.26.3 (20100126.1600)
 -->
<!-- Title: G Pages: 1 -->
<svg width="694pt" height="70pt"
 viewBox="0.00 0.00 694.00 70.00" xmlns="http://www.w3.org/2000/svg" xmlns:xlink="http://www.w3.org/1999/xlink">
<g id="graph1" class="graph" transform="scale(1 1) rotate(0) translate(4 66)">
<title>G</title>
<polygon fill="white" stroke="white" points="-4,5 -4,-66 691,-66 691,5 -4,5"/>
<!-- Node1 -->
<g id="node1" class="node"><title>Node1</title>
<polygon fill="#bfbfbf" stroke="black" points="0,-20.5 0,-41.5 320,-41.5 320,-20.5 0,-20.5"/>
<text text-anchor="middle" x="160" y="-28.5" font-family="Helvetica,sans-Serif" font-size="10.00">ZendDbSchema_Db_Schema_Generator_Mysql\_generateColumnSql</text>
</g>
<!-- Node2 -->
<g id="node3" class="node"><title>Node2</title>
<a xlink:href="classZendDbSchema__Db__Schema__Generator__Mysql.html#a2d40826abb29af27b4f398fa9270979f" target="_top" xlink:title="ZendDbSchema_Db_Schema_Generator_Mysql\\generateColumnAlter">
<polygon fill="white" stroke="black" points="361,-40.5 361,-61.5 681,-61.5 681,-40.5 361,-40.5"/>
<text text-anchor="middle" x="521" y="-48.5" font-family="Helvetica,sans-Serif" font-size="10.00">ZendDbSchema_Db_Schema_Generator_Mysql\generateColumnAlter</text>
</a>
</g>
<!-- Node1&#45;&gt;Node2 -->
<g id="edge2" class="edge"><title>Node1&#45;&gt;Node2</title>
<path fill="none" stroke="midnightblue" d="M330.309,-40.4354C340.458,-40.9977 350.65,-41.5623 360.756,-42.1222"/>
<polygon fill="midnightblue" stroke="midnightblue" points="330.358,-36.9328 320.179,-39.8742 329.97,-43.9221 330.358,-36.9328"/>
</g>
<!-- Node3 -->
<g id="node5" class="node"><title>Node3</title>
<a xlink:href="classZendDbSchema__Db__Schema__Generator__Mysql.html#a419c7276fb546c08e9d25b390ba87bac" target="_top" xlink:title="ZendDbSchema_Db_Schema_Generator_Mysql\\generateColumnCreate">
<polygon fill="white" stroke="black" points="356.5,-0.5 356.5,-21.5 685.5,-21.5 685.5,-0.5 356.5,-0.5"/>
<text text-anchor="middle" x="521" y="-8.5" font-family="Helvetica,sans-Serif" font-size="10.00">ZendDbSchema_Db_Schema_Generator_Mysql\generateColumnCreate</text>
</a>
</g>
<!-- Node1&#45;&gt;Node3 -->
<g id="edge4" class="edge"><title>Node1&#45;&gt;Node3</title>
<path fill="none" stroke="midnightblue" d="M330.3,-21.5651C338.938,-21.0866 347.607,-20.6063 356.227,-20.1287"/>
<polygon fill="midnightblue" stroke="midnightblue" points="329.97,-18.0779 320.179,-22.1258 330.358,-25.0672 329.97,-18.0779"/>
</g>
</g>
</svg>
