<?xml version="1.0" encoding="UTF-8" standalone="no"?>
<!DOCTYPE svg PUBLIC "-//W3C//DTD SVG 1.1//EN"
 "http://www.w3.org/Graphics/SVG/1.1/DTD/svg11.dtd">
<!-- Generated by graphviz version 2.26.3 (20100126.1600)
 -->
<!-- Title: G Pages: 1 -->
<svg width="1854pt" height="110pt"
 viewBox="0.00 0.00 1854.00 110.00" xmlns="http://www.w3.org/2000/svg" xmlns:xlink="http://www.w3.org/1999/xlink">
<g id="graph1" class="graph" transform="scale(1 1) rotate(0) translate(4 106)">
<title>G</title>
<polygon fill="white" stroke="white" points="-4,5 -4,-106 1851,-106 1851,5 -4,5"/>
<!-- Node1 -->
<g id="node1" class="node"><title>Node1</title>
<polygon fill="#bfbfbf" stroke="black" points="0.5,-40.5 0.5,-61.5 297.5,-61.5 297.5,-40.5 0.5,-40.5"/>
<text text-anchor="middle" x="149" y="-48.5" font-family="Helvetica,sans-Serif" font-size="10.00">ZendDbSchema_Db_Schema_Table_AbstractDefinition\setType</text>
</g>
<!-- Node2 -->
<g id="node3" class="node"><title>Node2</title>
<a xlink:href="classZendDbSchema__Db__Schema__AbstractSchema.html#ab4282a1fd6f4d9f23d01de8328072c71" target="_top" xlink:title="ZendDbSchema_Db_Schema_AbstractSchema\\__set">
<polygon fill="white" stroke="black" points="334.5,-40.5 334.5,-61.5 585.5,-61.5 585.5,-40.5 334.5,-40.5"/>
<text text-anchor="middle" x="460" y="-48.5" font-family="Helvetica,sans-Serif" font-size="10.00">ZendDbSchema_Db_Schema_AbstractSchema\__set</text>
</a>
</g>
<!-- Node1&#45;&gt;Node2 -->
<g id="edge2" class="edge"><title>Node1&#45;&gt;Node2</title>
<path fill="none" stroke="midnightblue" d="M297.668,-51C306.424,-51 315.208,-51 323.91,-51"/>
<polygon fill="midnightblue" stroke="midnightblue" points="324.081,-54.5001 334.081,-51 324.081,-47.5001 324.081,-54.5001"/>
</g>
<!-- Node3 -->
<g id="node5" class="node"><title>Node3</title>
<a xlink:href="classZendDbSchema__Db__Schema__AbstractSchema.html#afda46eab0c365f4c9a743b7185c51d6c" target="_top" xlink:title="ZendDbSchema_Db_Schema_AbstractSchema\\getValidator">
<polygon fill="white" stroke="black" points="622.5,-40.5 622.5,-61.5 901.5,-61.5 901.5,-40.5 622.5,-40.5"/>
<text text-anchor="middle" x="762" y="-48.5" font-family="Helvetica,sans-Serif" font-size="10.00">ZendDbSchema_Db_Schema_AbstractSchema\getValidator</text>
</a>
</g>
<!-- Node2&#45;&gt;Node3 -->
<g id="edge4" class="edge"><title>Node2&#45;&gt;Node3</title>
<path fill="none" stroke="midnightblue" d="M585.888,-51C594.497,-51 603.217,-51 611.933,-51"/>
<polygon fill="midnightblue" stroke="midnightblue" points="612.156,-54.5001 622.156,-51 612.156,-47.5001 612.156,-54.5001"/>
</g>
<!-- Node4 -->
<g id="node7" class="node"><title>Node4</title>
<a xlink:href="classZendDbSchema__Db__Schema__AbstractSchema.html#a47d95912f6bf6d26d023597887dafacb" target="_top" xlink:title="ZendDbSchema_Db_Schema_AbstractSchema\\getAdapter">
<polygon fill="white" stroke="black" points="938.5,-40.5 938.5,-61.5 1213.5,-61.5 1213.5,-40.5 938.5,-40.5"/>
<text text-anchor="middle" x="1076" y="-48.5" font-family="Helvetica,sans-Serif" font-size="10.00">ZendDbSchema_Db_Schema_AbstractSchema\getAdapter</text>
</a>
</g>
<!-- Node3&#45;&gt;Node4 -->
<g id="edge6" class="edge"><title>Node3&#45;&gt;Node4</title>
<path fill="none" stroke="midnightblue" d="M901.554,-51C910.265,-51 919.05,-51 927.797,-51"/>
<polygon fill="midnightblue" stroke="midnightblue" points="928.043,-54.5001 938.043,-51 928.043,-47.5001 928.043,-54.5001"/>
</g>
<!-- Node5 -->
<g id="node9" class="node"><title>Node5</title>
<a xlink:href="classZendDbSchema__Db__Schema__AbstractSchema.html#a6349649e5e09d67a5b5e0abe96298db8" target="_top" xlink:title="ZendDbSchema_Db_Schema_AbstractSchema\\setAdapter">
<polygon fill="white" stroke="black" points="1250.5,-40.5 1250.5,-61.5 1525.5,-61.5 1525.5,-40.5 1250.5,-40.5"/>
<text text-anchor="middle" x="1388" y="-48.5" font-family="Helvetica,sans-Serif" font-size="10.00">ZendDbSchema_Db_Schema_AbstractSchema\setAdapter</text>
</a>
</g>
<!-- Node4&#45;&gt;Node5 -->
<g id="edge8" class="edge"><title>Node4&#45;&gt;Node5</title>
<path fill="none" stroke="midnightblue" d="M1213.76,-51C1222.44,-51 1231.2,-51 1239.92,-51"/>
<polygon fill="midnightblue" stroke="midnightblue" points="1240.14,-54.5001 1250.14,-51 1240.14,-47.5001 1240.14,-54.5001"/>
</g>
<!-- Node6 -->
<g id="node11" class="node"><title>Node6</title>
<a xlink:href="classZendDbSchema__Db__Schema__AbstractSchema.html#a53a1974dbc8822792a8d7b9c618d3a02" target="_top" xlink:title="ZendDbSchema_Db_Schema_AbstractSchema\\setGenerator">
<polygon fill="white" stroke="black" points="1562,-80.5 1562,-101.5 1846,-101.5 1846,-80.5 1562,-80.5"/>
<text text-anchor="middle" x="1704" y="-88.5" font-family="Helvetica,sans-Serif" font-size="10.00">ZendDbSchema_Db_Schema_AbstractSchema\setGenerator</text>
</a>
</g>
<!-- Node5&#45;&gt;Node6 -->
<g id="edge10" class="edge"><title>Node5&#45;&gt;Node6</title>
<path fill="none" stroke="midnightblue" d="M1471.03,-61.5095C1513.95,-66.9425 1566.48,-73.5919 1610.78,-79.2006"/>
<polygon fill="midnightblue" stroke="midnightblue" points="1610.62,-82.7077 1620.98,-80.4913 1611.5,-75.7631 1610.62,-82.7077"/>
</g>
<!-- Node7 -->
<g id="node13" class="node"><title>Node7</title>
<a xlink:href="classZendDbSchema__Db__Schema__AbstractSchema.html#aa0e6c9f8d58702dc41d988f064f62698" target="_top" xlink:title="ZendDbSchema_Db_Schema_AbstractSchema\\setParser">
<polygon fill="white" stroke="black" points="1569.5,-40.5 1569.5,-61.5 1838.5,-61.5 1838.5,-40.5 1569.5,-40.5"/>
<text text-anchor="middle" x="1704" y="-48.5" font-family="Helvetica,sans-Serif" font-size="10.00">ZendDbSchema_Db_Schema_AbstractSchema\setParser</text>
</a>
</g>
<!-- Node5&#45;&gt;Node7 -->
<g id="edge12" class="edge"><title>Node5&#45;&gt;Node7</title>
<path fill="none" stroke="midnightblue" d="M1525.68,-51C1536.76,-51 1547.98,-51 1559.1,-51"/>
<polygon fill="midnightblue" stroke="midnightblue" points="1559.29,-54.5001 1569.29,-51 1559.29,-47.5001 1559.29,-54.5001"/>
</g>
<!-- Node8 -->
<g id="node15" class="node"><title>Node8</title>
<a xlink:href="classZendDbSchema__Db__Schema__AbstractSchema.html#ac0161e2c24dafba8433fb86205a147fe" target="_top" xlink:title="ZendDbSchema_Db_Schema_AbstractSchema\\setValidator">
<polygon fill="white" stroke="black" points="1564.5,-0.5 1564.5,-21.5 1843.5,-21.5 1843.5,-0.5 1564.5,-0.5"/>
<text text-anchor="middle" x="1704" y="-8.5" font-family="Helvetica,sans-Serif" font-size="10.00">ZendDbSchema_Db_Schema_AbstractSchema\setValidator</text>
</a>
</g>
<!-- Node5&#45;&gt;Node8 -->
<g id="edge14" class="edge"><title>Node5&#45;&gt;Node8</title>
<path fill="none" stroke="midnightblue" d="M1471.03,-40.4905C1513.95,-35.0575 1566.48,-28.4081 1610.78,-22.7994"/>
<polygon fill="midnightblue" stroke="midnightblue" points="1611.5,-26.2369 1620.98,-21.5087 1610.62,-19.2923 1611.5,-26.2369"/>
</g>
</g>
</svg>
