<?xml version="1.0" encoding="UTF-8" standalone="no"?>
<!DOCTYPE svg PUBLIC "-//W3C//DTD SVG 1.1//EN"
 "http://www.w3.org/Graphics/SVG/1.1/DTD/svg11.dtd">
<!-- Generated by graphviz version 2.26.3 (20100126.1600)
 -->
<!-- Title: G Pages: 1 -->
<svg width="1276pt" height="270pt"
 viewBox="0.00 0.00 1276.00 270.00" xmlns="http://www.w3.org/2000/svg" xmlns:xlink="http://www.w3.org/1999/xlink">
<g id="graph1" class="graph" transform="scale(1 1) rotate(0) translate(4 266)">
<title>G</title>
<polygon fill="white" stroke="white" points="-4,5 -4,-266 1273,-266 1273,5 -4,5"/>
<!-- Node1 -->
<g id="node1" class="node"><title>Node1</title>
<polygon fill="#bfbfbf" stroke="black" points="0.5,-120.5 0.5,-141.5 345.5,-141.5 345.5,-120.5 0.5,-120.5"/>
<text text-anchor="middle" x="173" y="-128.5" font-family="Helvetica,sans-Serif" font-size="10.00">ZendDbSchema_Db_Schema_Generator_Mysql\generateForeignKeyCreate</text>
</g>
<!-- Node2 -->
<g id="node3" class="node"><title>Node2</title>
<a xlink:href="classZendDbSchema__Db__Schema__Table__AbstractDefinition.html#a224b6a0c1df1d6ed40e03657782ef6fc" target="_top" xlink:title="ZendDbSchema_Db_Schema_Table_AbstractDefinition\\getTable">
<polygon fill="white" stroke="black" points="383.5,-240.5 383.5,-261.5 682.5,-261.5 682.5,-240.5 383.5,-240.5"/>
<text text-anchor="middle" x="533" y="-248.5" font-family="Helvetica,sans-Serif" font-size="10.00">ZendDbSchema_Db_Schema_Table_AbstractDefinition\getTable</text>
</a>
</g>
<!-- Node1&#45;&gt;Node2 -->
<g id="edge2" class="edge"><title>Node1&#45;&gt;Node2</title>
<path fill="none" stroke="midnightblue" d="M190.138,-141.52C224.905,-162.326 306.815,-208.647 382,-231 391.796,-233.913 402.077,-236.401 412.471,-238.528"/>
<polygon fill="midnightblue" stroke="midnightblue" points="411.977,-241.998 422.46,-240.459 413.306,-235.125 411.977,-241.998"/>
</g>
<!-- Node3 -->
<g id="node5" class="node"><title>Node3</title>
<a xlink:href="classZendDbSchema__Db__Schema__AbstractSchema.html#adacb1417b461310c5c87f72c459c1985" target="_top" xlink:title="ZendDbSchema_Db_Schema_AbstractSchema\\getOriginName">
<polygon fill="white" stroke="black" points="386.5,-200.5 386.5,-221.5 679.5,-221.5 679.5,-200.5 386.5,-200.5"/>
<text text-anchor="middle" x="533" y="-208.5" font-family="Helvetica,sans-Serif" font-size="10.00">ZendDbSchema_Db_Schema_AbstractSchema\getOriginName</text>
</a>
</g>
<!-- Node1&#45;&gt;Node3 -->
<g id="edge4" class="edge"><title>Node1&#45;&gt;Node3</title>
<path fill="none" stroke="midnightblue" d="M204.15,-141.511C244.676,-154.821 317.883,-177.627 382,-191 396.546,-194.034 411.982,-196.7 427.216,-199.012"/>
<polygon fill="midnightblue" stroke="midnightblue" points="426.782,-202.486 437.186,-200.482 427.803,-195.561 426.782,-202.486"/>
</g>
<!-- Node6 -->
<g id="node11" class="node"><title>Node6</title>
<a xlink:href="classZendDbSchema__Db__Schema__Table__Index.html#ad0edf2869c08ce408566798f4305b8dc" target="_top" xlink:title="ZendDbSchema_Db_Schema_Table_Index\\getColumns">
<polygon fill="white" stroke="black" points="403,-160.5 403,-181.5 663,-181.5 663,-160.5 403,-160.5"/>
<text text-anchor="middle" x="533" y="-168.5" font-family="Helvetica,sans-Serif" font-size="10.00">ZendDbSchema_Db_Schema_Table_Index\getColumns</text>
</a>
</g>
<!-- Node1&#45;&gt;Node6 -->
<g id="edge10" class="edge"><title>Node1&#45;&gt;Node6</title>
<path fill="none" stroke="midnightblue" d="M267.586,-141.51C316.998,-147 377.588,-153.732 428.397,-159.377"/>
<polygon fill="midnightblue" stroke="midnightblue" points="428.096,-162.865 438.422,-160.491 428.869,-155.908 428.096,-162.865"/>
</g>
<!-- Node7 -->
<g id="node14" class="node"><title>Node7</title>
<a xlink:href="classZendDbSchema__Db__Schema__Table__ForeignKey.html#a05c24ed80a5171eefc833d0b6d420d0f" target="_top" xlink:title="ZendDbSchema_Db_Schema_Table_ForeignKey\\getReference">
<polygon fill="white" stroke="black" points="387,-120.5 387,-141.5 679,-141.5 679,-120.5 387,-120.5"/>
<text text-anchor="middle" x="533" y="-128.5" font-family="Helvetica,sans-Serif" font-size="10.00">ZendDbSchema_Db_Schema_Table_ForeignKey\getReference</text>
</a>
</g>
<!-- Node1&#45;&gt;Node7 -->
<g id="edge14" class="edge"><title>Node1&#45;&gt;Node7</title>
<path fill="none" stroke="midnightblue" d="M345.619,-131C355.973,-131 366.359,-131 376.64,-131"/>
<polygon fill="midnightblue" stroke="midnightblue" points="376.881,-134.5 386.881,-131 376.881,-127.5 376.881,-134.5"/>
</g>
<!-- Node8 -->
<g id="node17" class="node"><title>Node8</title>
<a xlink:href="classZendDbSchema__Db__Schema__Table__ForeignKey.html#acd5a4071e56936d38a5fd5cdbdf68113" target="_top" xlink:title="ZendDbSchema_Db_Schema_Table_ForeignKey\\getRefColumns">
<polygon fill="white" stroke="black" points="382,-80.5 382,-101.5 684,-101.5 684,-80.5 382,-80.5"/>
<text text-anchor="middle" x="533" y="-88.5" font-family="Helvetica,sans-Serif" font-size="10.00">ZendDbSchema_Db_Schema_Table_ForeignKey\getRefColumns</text>
</a>
</g>
<!-- Node1&#45;&gt;Node8 -->
<g id="edge18" class="edge"><title>Node1&#45;&gt;Node8</title>
<path fill="none" stroke="midnightblue" d="M267.586,-120.49C316.998,-115 377.588,-108.268 428.397,-102.623"/>
<polygon fill="midnightblue" stroke="midnightblue" points="428.869,-106.092 438.422,-101.509 428.096,-99.1345 428.869,-106.092"/>
</g>
<!-- Node9 -->
<g id="node20" class="node"><title>Node9</title>
<a xlink:href="classZendDbSchema__Db__Schema__Table__ForeignKey.html#a83644a5b874f111e17dbf08ffa3ea803" target="_top" xlink:title="ZendDbSchema_Db_Schema_Table_ForeignKey\\getOnDelete">
<polygon fill="white" stroke="black" points="389,-40.5 389,-61.5 677,-61.5 677,-40.5 389,-40.5"/>
<text text-anchor="middle" x="533" y="-48.5" font-family="Helvetica,sans-Serif" font-size="10.00">ZendDbSchema_Db_Schema_Table_ForeignKey\getOnDelete</text>
</a>
</g>
<!-- Node1&#45;&gt;Node9 -->
<g id="edge22" class="edge"><title>Node1&#45;&gt;Node9</title>
<path fill="none" stroke="midnightblue" d="M204.15,-120.489C244.676,-107.179 317.883,-84.373 382,-71 396.546,-67.966 411.982,-65.3004 427.216,-62.9876"/>
<polygon fill="midnightblue" stroke="midnightblue" points="427.803,-66.4389 437.186,-61.5183 426.782,-59.5137 427.803,-66.4389"/>
</g>
<!-- Node10 -->
<g id="node23" class="node"><title>Node10</title>
<a xlink:href="classZendDbSchema__Db__Schema__Table__ForeignKey.html#afb55f45baab8357ce8c295e4d71bf700" target="_top" xlink:title="ZendDbSchema_Db_Schema_Table_ForeignKey\\getOnUpdate">
<polygon fill="white" stroke="black" points="387.5,-0.5 387.5,-21.5 678.5,-21.5 678.5,-0.5 387.5,-0.5"/>
<text text-anchor="middle" x="533" y="-8.5" font-family="Helvetica,sans-Serif" font-size="10.00">ZendDbSchema_Db_Schema_Table_ForeignKey\getOnUpdate</text>
</a>
</g>
<!-- Node1&#45;&gt;Node10 -->
<g id="edge26" class="edge"><title>Node1&#45;&gt;Node10</title>
<path fill="none" stroke="midnightblue" d="M190.138,-120.48C224.905,-99.6739 306.815,-53.3526 382,-31 391.796,-28.0875 402.077,-25.5985 412.471,-23.4716"/>
<polygon fill="midnightblue" stroke="midnightblue" points="413.306,-26.8752 422.46,-21.5414 411.977,-20.0024 413.306,-26.8752"/>
</g>
<!-- Node4 -->
<g id="node7" class="node"><title>Node4</title>
<a xlink:href="classZendDbSchema__Db__Schema__AbstractSchema.html#a54d32c6f15463eaad2321a9f0e7225d7" target="_top" xlink:title="ZendDbSchema_Db_Schema_AbstractSchema\\__get">
<polygon fill="white" stroke="black" points="720.5,-100.5 720.5,-121.5 971.5,-121.5 971.5,-100.5 720.5,-100.5"/>
<text text-anchor="middle" x="846" y="-108.5" font-family="Helvetica,sans-Serif" font-size="10.00">ZendDbSchema_Db_Schema_AbstractSchema\__get</text>
</a>
</g>
<!-- Node3&#45;&gt;Node4 -->
<g id="edge6" class="edge"><title>Node3&#45;&gt;Node4</title>
<path fill="none" stroke="midnightblue" d="M644.396,-200.463C657.881,-197.954 671.35,-194.847 684,-191 734.859,-175.535 789.375,-145.487 820.418,-126.941"/>
<polygon fill="midnightblue" stroke="midnightblue" points="822.526,-129.756 829.269,-121.583 818.901,-123.768 822.526,-129.756"/>
</g>
<!-- Node5 -->
<g id="node9" class="node"><title>Node5</title>
<a xlink:href="classZendDbSchema__Db__Schema__AbstractSchema.html#ac4e121ba7932163eb1950fabe06fb9db" target="_top" xlink:title="ZendDbSchema_Db_Schema_AbstractSchema\\__isset">
<polygon fill="white" stroke="black" points="1008.5,-100.5 1008.5,-121.5 1267.5,-121.5 1267.5,-100.5 1008.5,-100.5"/>
<text text-anchor="middle" x="1138" y="-108.5" font-family="Helvetica,sans-Serif" font-size="10.00">ZendDbSchema_Db_Schema_AbstractSchema\__isset</text>
</a>
</g>
<!-- Node4&#45;&gt;Node5 -->
<g id="edge8" class="edge"><title>Node4&#45;&gt;Node5</title>
<path fill="none" stroke="midnightblue" d="M971.529,-111C980.401,-111 989.376,-111 998.32,-111"/>
<polygon fill="midnightblue" stroke="midnightblue" points="998.397,-114.5 1008.4,-111 998.397,-107.5 998.397,-114.5"/>
</g>
<!-- Node6&#45;&gt;Node4 -->
<g id="edge12" class="edge"><title>Node6&#45;&gt;Node4</title>
<path fill="none" stroke="midnightblue" d="M625.089,-160.45C644.603,-157.754 665.032,-154.587 684,-151 722.785,-143.666 766.176,-132.808 798.282,-124.254"/>
<polygon fill="midnightblue" stroke="midnightblue" points="799.54,-127.541 808.29,-121.566 797.724,-120.78 799.54,-127.541"/>
</g>
<!-- Node7&#45;&gt;Node4 -->
<g id="edge16" class="edge"><title>Node7&#45;&gt;Node4</title>
<path fill="none" stroke="midnightblue" d="M679.419,-121.644C689.682,-120.988 700.002,-120.329 710.203,-119.677"/>
<polygon fill="midnightblue" stroke="midnightblue" points="710.601,-123.159 720.357,-119.028 710.154,-116.173 710.601,-123.159"/>
</g>
<!-- Node8&#45;&gt;Node4 -->
<g id="edge20" class="edge"><title>Node8&#45;&gt;Node4</title>
<path fill="none" stroke="midnightblue" d="M684.457,-100.678C693.093,-101.23 701.75,-101.783 710.322,-102.33"/>
<polygon fill="midnightblue" stroke="midnightblue" points="710.136,-105.826 720.339,-102.971 710.582,-98.8399 710.136,-105.826"/>
</g>
<!-- Node9&#45;&gt;Node4 -->
<g id="edge24" class="edge"><title>Node9&#45;&gt;Node4</title>
<path fill="none" stroke="midnightblue" d="M625.089,-61.5504C644.603,-64.246 665.032,-67.4134 684,-71 722.785,-78.3336 766.176,-89.192 798.282,-97.7456"/>
<polygon fill="midnightblue" stroke="midnightblue" points="797.724,-101.22 808.29,-100.434 799.54,-94.4594 797.724,-101.22"/>
</g>
<!-- Node10&#45;&gt;Node4 -->
<g id="edge28" class="edge"><title>Node10&#45;&gt;Node4</title>
<path fill="none" stroke="midnightblue" d="M644.396,-21.5369C657.881,-24.0464 671.35,-27.1534 684,-31 734.859,-46.4648 789.375,-76.5128 820.418,-95.0591"/>
<polygon fill="midnightblue" stroke="midnightblue" points="818.901,-98.2323 829.269,-100.417 822.526,-92.244 818.901,-98.2323"/>
</g>
</g>
</svg>
