<?xml version="1.0" encoding="UTF-8" standalone="no"?>
<!DOCTYPE svg PUBLIC "-//W3C//DTD SVG 1.1//EN"
 "http://www.w3.org/Graphics/SVG/1.1/DTD/svg11.dtd">
<!-- Generated by graphviz version 2.26.3 (20100126.1600)
 -->
<!-- Title: G Pages: 1 -->
<svg width="1098pt" height="1254pt"
 viewBox="0.00 0.00 1098.00 1253.97" xmlns="http://www.w3.org/2000/svg" xmlns:xlink="http://www.w3.org/1999/xlink">
<g id="graph1" class="graph" transform="scale(1 1) rotate(0) translate(4 1249.97)">
<title>G</title>
<polygon fill="white" stroke="white" points="-4,5 -4,-1249.97 1095,-1249.97 1095,5 -4,5"/>
<!-- Node1 -->
<g id="node1" class="node"><title>Node1</title>
<polygon fill="#bfbfbf" stroke="black" points="0,-578 0,-612 146,-612 146,-578 0,-578"/>
<text text-anchor="start" x="8" y="-599" font-family="Helvetica,sans-Serif" font-size="10.00">ZendDbSchema_Db_Schema</text>
<text text-anchor="middle" x="73" y="-586" font-family="Helvetica,sans-Serif" font-size="10.00">_AbstractSchema\getName</text>
</g>
<!-- Node2 -->
<g id="node3" class="node"><title>Node2</title>
<a xlink:href="classZendDbSchema__Db__Schema__Generator__Pgsql__Table.html#a2530efde9e464bbbcfbd166c622023d0" target="_top" xlink:title="ZendDbSchema_Db_Schema\l_Generator_Pgsql_Table\l\\alterColumn">
<polygon fill="white" stroke="black" points="382,-1169.5 382,-1216.5 528,-1216.5 528,-1169.5 382,-1169.5"/>
<text text-anchor="start" x="390" y="-1203.5" font-family="Helvetica,sans-Serif" font-size="10.00">ZendDbSchema_Db_Schema</text>
<text text-anchor="start" x="390" y="-1190.5" font-family="Helvetica,sans-Serif" font-size="10.00">_Generator_Pgsql_Table</text>
<text text-anchor="middle" x="455" y="-1177.5" font-family="Helvetica,sans-Serif" font-size="10.00">\alterColumn</text>
</a>
</g>
<!-- Node1&#45;&gt;Node2 -->
<g id="edge2" class="edge"><title>Node1&#45;&gt;Node2</title>
<path fill="none" stroke="midnightblue" d="M75.9398,-622.237C86.2327,-713.125 123.241,-1004.25 182,-1075 232.307,-1135.58 319.555,-1165.85 381.881,-1180.44"/>
<polygon fill="midnightblue" stroke="midnightblue" points="79.4044,-621.724 74.8173,-612.174 72.4475,-622.5 79.4044,-621.724"/>
</g>
<!-- Node3 -->
<g id="node5" class="node"><title>Node3</title>
<a xlink:href="classZendDbSchema__Db__Schema__Generator__Mysql__Table.html#aa8814727b4633316559e8865c62d9146" target="_top" xlink:title="ZendDbSchema_Db_Schema\l_Generator_Mysql_Table\l\\alterColumn">
<polygon fill="white" stroke="black" points="382,-1103.5 382,-1150.5 528,-1150.5 528,-1103.5 382,-1103.5"/>
<text text-anchor="start" x="390" y="-1137.5" font-family="Helvetica,sans-Serif" font-size="10.00">ZendDbSchema_Db_Schema</text>
<text text-anchor="start" x="390" y="-1124.5" font-family="Helvetica,sans-Serif" font-size="10.00">_Generator_Mysql_Table</text>
<text text-anchor="middle" x="455" y="-1111.5" font-family="Helvetica,sans-Serif" font-size="10.00">\alterColumn</text>
</a>
</g>
<!-- Node1&#45;&gt;Node3 -->
<g id="edge4" class="edge"><title>Node1&#45;&gt;Node3</title>
<path fill="none" stroke="midnightblue" d="M76.8474,-622.463C89.0546,-706.114 129.241,-955.723 182,-1016 233.22,-1074.52 319.859,-1102.68 381.801,-1115.9"/>
<polygon fill="midnightblue" stroke="midnightblue" points="80.2951,-621.848 75.4047,-612.449 73.3666,-622.846 80.2951,-621.848"/>
</g>
<!-- Node4 -->
<g id="node7" class="node"><title>Node4</title>
<a xlink:href="classZendDbSchema__Db__Schema__Generator__Mysql__Database.html#a98cc5d4cbab5e5c8b32d7b02fa9cb0dc" target="_top" xlink:title="ZendDbSchema_Db_Schema\l_Generator_Mysql_Database\l\\alterDatabase">
<polygon fill="white" stroke="black" points="191,-802.5 191,-849.5 337,-849.5 337,-802.5 191,-802.5"/>
<text text-anchor="start" x="199" y="-836.5" font-family="Helvetica,sans-Serif" font-size="10.00">ZendDbSchema_Db_Schema</text>
<text text-anchor="start" x="199" y="-823.5" font-family="Helvetica,sans-Serif" font-size="10.00">_Generator_Mysql_Database</text>
<text text-anchor="middle" x="264" y="-810.5" font-family="Helvetica,sans-Serif" font-size="10.00">\alterDatabase</text>
</a>
</g>
<!-- Node1&#45;&gt;Node4 -->
<g id="edge6" class="edge"><title>Node1&#45;&gt;Node4</title>
<path fill="none" stroke="midnightblue" d="M81.1231,-621.606C95.1862,-663.51 127.873,-745.037 182,-793 185.905,-796.46 190.219,-799.583 194.765,-802.398"/>
<polygon fill="midnightblue" stroke="midnightblue" points="84.4484,-620.514 78.0228,-612.09 77.7928,-622.682 84.4484,-620.514"/>
</g>
<!-- Node5 -->
<g id="node9" class="node"><title>Node5</title>
<a xlink:href="classZendDbSchema__Db__Schema__Generator__Pgsql__Database.html#a4d4b5c6abc51a4ab72fc480602f502c3" target="_top" xlink:title="ZendDbSchema_Db_Schema\l_Generator_Pgsql_Database\l\\alterDatabase">
<polygon fill="white" stroke="black" points="191,-736.5 191,-783.5 337,-783.5 337,-736.5 191,-736.5"/>
<text text-anchor="start" x="199" y="-770.5" font-family="Helvetica,sans-Serif" font-size="10.00">ZendDbSchema_Db_Schema</text>
<text text-anchor="start" x="199" y="-757.5" font-family="Helvetica,sans-Serif" font-size="10.00">_Generator_Pgsql_Database</text>
<text text-anchor="middle" x="264" y="-744.5" font-family="Helvetica,sans-Serif" font-size="10.00">\alterDatabase</text>
</a>
</g>
<!-- Node1&#45;&gt;Node5 -->
<g id="edge8" class="edge"><title>Node1&#45;&gt;Node5</title>
<path fill="none" stroke="midnightblue" d="M88.6153,-620.799C107.493,-650.08 141.784,-697.581 182,-727 186.706,-730.443 191.822,-733.591 197.123,-736.456"/>
<polygon fill="midnightblue" stroke="midnightblue" points="91.5661,-618.917 83.262,-612.337 85.6505,-622.659 91.5661,-618.917"/>
</g>
<!-- Node6 -->
<g id="node11" class="node"><title>Node6</title>
<a xlink:href="classZendDbSchema__Db__Schema__Generator__Mysql__Table.html#ab073dc755f15a13bd94772846df4249c" target="_top" xlink:title="ZendDbSchema_Db_Schema\l_Generator_Mysql_Table\l\\alterTable">
<polygon fill="white" stroke="black" points="382,-1037.5 382,-1084.5 528,-1084.5 528,-1037.5 382,-1037.5"/>
<text text-anchor="start" x="390" y="-1071.5" font-family="Helvetica,sans-Serif" font-size="10.00">ZendDbSchema_Db_Schema</text>
<text text-anchor="start" x="390" y="-1058.5" font-family="Helvetica,sans-Serif" font-size="10.00">_Generator_Mysql_Table</text>
<text text-anchor="middle" x="455" y="-1045.5" font-family="Helvetica,sans-Serif" font-size="10.00">\alterTable</text>
</a>
</g>
<!-- Node1&#45;&gt;Node6 -->
<g id="edge10" class="edge"><title>Node1&#45;&gt;Node6</title>
<path fill="none" stroke="midnightblue" d="M77.9279,-622.667C92.0322,-699.058 134.603,-910.586 182,-961 234.38,-1016.71 320.374,-1041.51 381.853,-1052.47"/>
<polygon fill="midnightblue" stroke="midnightblue" points="81.2949,-621.621 76.0563,-612.412 74.4086,-622.878 81.2949,-621.621"/>
</g>
<!-- Node7 -->
<g id="node13" class="node"><title>Node7</title>
<a xlink:href="classZendDbSchema__Db__Schema__Generator__Pgsql__Table.html#a5273ef7520b31135bc524b432754762d" target="_top" xlink:title="ZendDbSchema_Db_Schema\l_Generator_Pgsql_Table\l\\alterTable">
<polygon fill="white" stroke="black" points="382,-971.5 382,-1018.5 528,-1018.5 528,-971.5 382,-971.5"/>
<text text-anchor="start" x="390" y="-1005.5" font-family="Helvetica,sans-Serif" font-size="10.00">ZendDbSchema_Db_Schema</text>
<text text-anchor="start" x="390" y="-992.5" font-family="Helvetica,sans-Serif" font-size="10.00">_Generator_Pgsql_Table</text>
<text text-anchor="middle" x="455" y="-979.5" font-family="Helvetica,sans-Serif" font-size="10.00">\alterTable</text>
</a>
</g>
<!-- Node1&#45;&gt;Node7 -->
<g id="edge12" class="edge"><title>Node1&#45;&gt;Node7</title>
<path fill="none" stroke="midnightblue" d="M74.4164,-622.551C79.0493,-683.454 98.7353,-830.492 182,-911 235.742,-962.963 320.857,-982.855 381.76,-990.429"/>
<polygon fill="midnightblue" stroke="midnightblue" points="77.8842,-621.957 73.7146,-612.217 70.9003,-622.431 77.8842,-621.957"/>
</g>
<!-- Node8 -->
<g id="node15" class="node"><title>Node8</title>
<a xlink:href="classZendDbSchema__Db__Schema__Generator__Pgsql__Table.html#a2515e55bb1085aee7149b30af1793ab0" target="_top" xlink:title="ZendDbSchema_Db_Schema\l_Generator_Pgsql_Table\l\\createColumn">
<polygon fill="white" stroke="black" points="191,-670.5 191,-717.5 337,-717.5 337,-670.5 191,-670.5"/>
<text text-anchor="start" x="199" y="-704.5" font-family="Helvetica,sans-Serif" font-size="10.00">ZendDbSchema_Db_Schema</text>
<text text-anchor="start" x="199" y="-691.5" font-family="Helvetica,sans-Serif" font-size="10.00">_Generator_Pgsql_Table</text>
<text text-anchor="middle" x="264" y="-678.5" font-family="Helvetica,sans-Serif" font-size="10.00">\createColumn</text>
</a>
</g>
<!-- Node1&#45;&gt;Node8 -->
<g id="edge14" class="edge"><title>Node1&#45;&gt;Node8</title>
<path fill="none" stroke="midnightblue" d="M107.346,-617.766C128.41,-631.226 156.201,-648.104 182,-661 188.451,-664.225 195.298,-667.378 202.177,-670.377"/>
<polygon fill="midnightblue" stroke="midnightblue" points="109.057,-614.705 98.7558,-612.228 105.264,-620.588 109.057,-614.705"/>
</g>
<!-- Node9 -->
<g id="node17" class="node"><title>Node9</title>
<a xlink:href="classZendDbSchema__Db__Schema__Generator__Mysql__Table.html#adaf38c64fd149c2a51273e1485fc3202" target="_top" xlink:title="ZendDbSchema_Db_Schema\l_Generator_Mysql_Table\l\\createColumn">
<polygon fill="white" stroke="black" points="191,-604.5 191,-651.5 337,-651.5 337,-604.5 191,-604.5"/>
<text text-anchor="start" x="199" y="-638.5" font-family="Helvetica,sans-Serif" font-size="10.00">ZendDbSchema_Db_Schema</text>
<text text-anchor="start" x="199" y="-625.5" font-family="Helvetica,sans-Serif" font-size="10.00">_Generator_Mysql_Table</text>
<text text-anchor="middle" x="264" y="-612.5" font-family="Helvetica,sans-Serif" font-size="10.00">\createColumn</text>
</a>
</g>
<!-- Node1&#45;&gt;Node9 -->
<g id="edge16" class="edge"><title>Node1&#45;&gt;Node9</title>
<path fill="none" stroke="midnightblue" d="M156.074,-609.353C167.599,-611.344 179.369,-613.378 190.698,-615.335"/>
<polygon fill="midnightblue" stroke="midnightblue" points="156.476,-605.871 146.026,-607.617 155.285,-612.769 156.476,-605.871"/>
</g>
<!-- Node10 -->
<g id="node19" class="node"><title>Node10</title>
<a xlink:href="classZendDbSchema__Db__Schema__Generator__Mysql__Database.html#a8d037ca19f7ac5d045fe2d9babe004c6" target="_top" xlink:title="ZendDbSchema_Db_Schema\l_Generator_Mysql_Database\l\\createDatabase">
<polygon fill="white" stroke="black" points="191,-538.5 191,-585.5 337,-585.5 337,-538.5 191,-538.5"/>
<text text-anchor="start" x="199" y="-572.5" font-family="Helvetica,sans-Serif" font-size="10.00">ZendDbSchema_Db_Schema</text>
<text text-anchor="start" x="199" y="-559.5" font-family="Helvetica,sans-Serif" font-size="10.00">_Generator_Mysql_Database</text>
<text text-anchor="middle" x="264" y="-546.5" font-family="Helvetica,sans-Serif" font-size="10.00">\createDatabase</text>
</a>
</g>
<!-- Node1&#45;&gt;Node10 -->
<g id="edge18" class="edge"><title>Node1&#45;&gt;Node10</title>
<path fill="none" stroke="midnightblue" d="M156.074,-580.647C167.599,-578.656 179.369,-576.622 190.698,-574.665"/>
<polygon fill="midnightblue" stroke="midnightblue" points="155.285,-577.231 146.026,-582.383 156.476,-584.129 155.285,-577.231"/>
</g>
<!-- Node11 -->
<g id="node21" class="node"><title>Node11</title>
<a xlink:href="classZendDbSchema__Db__Schema__Generator__Pgsql__Database.html#a0a232123d02ab149db3309430ad8661e" target="_top" xlink:title="ZendDbSchema_Db_Schema\l_Generator_Pgsql_Database\l\\createDatabase">
<polygon fill="white" stroke="black" points="191,-472.5 191,-519.5 337,-519.5 337,-472.5 191,-472.5"/>
<text text-anchor="start" x="199" y="-506.5" font-family="Helvetica,sans-Serif" font-size="10.00">ZendDbSchema_Db_Schema</text>
<text text-anchor="start" x="199" y="-493.5" font-family="Helvetica,sans-Serif" font-size="10.00">_Generator_Pgsql_Database</text>
<text text-anchor="middle" x="264" y="-480.5" font-family="Helvetica,sans-Serif" font-size="10.00">\createDatabase</text>
</a>
</g>
<!-- Node1&#45;&gt;Node11 -->
<g id="edge20" class="edge"><title>Node1&#45;&gt;Node11</title>
<path fill="none" stroke="midnightblue" d="M107.346,-572.234C128.41,-558.774 156.201,-541.896 182,-529 188.451,-525.775 195.298,-522.622 202.177,-519.623"/>
<polygon fill="midnightblue" stroke="midnightblue" points="105.264,-569.412 98.7558,-577.772 109.057,-575.295 105.264,-569.412"/>
</g>
<!-- Node12 -->
<g id="node23" class="node"><title>Node12</title>
<a xlink:href="classZendDbSchema__Db__Schema__Generator__Pgsql__Table.html#a8bbaca639d104255bc1eeebb0c2f7da7" target="_top" xlink:title="ZendDbSchema_Db_Schema\l_Generator_Pgsql_Table\l\\createIndex">
<polygon fill="white" stroke="black" points="382,-353.5 382,-400.5 528,-400.5 528,-353.5 382,-353.5"/>
<text text-anchor="start" x="390" y="-387.5" font-family="Helvetica,sans-Serif" font-size="10.00">ZendDbSchema_Db_Schema</text>
<text text-anchor="start" x="390" y="-374.5" font-family="Helvetica,sans-Serif" font-size="10.00">_Generator_Pgsql_Table</text>
<text text-anchor="middle" x="455" y="-361.5" font-family="Helvetica,sans-Serif" font-size="10.00">\createIndex</text>
</a>
</g>
<!-- Node1&#45;&gt;Node12 -->
<g id="edge22" class="edge"><title>Node1&#45;&gt;Node12</title>
<path fill="none" stroke="midnightblue" d="M87.2615,-569.035C105.279,-538.762 139.17,-489.502 182,-463 245.624,-423.63 275.008,-448.625 346,-425 352.082,-422.976 377.846,-411.651 402.797,-400.51"/>
<polygon fill="midnightblue" stroke="midnightblue" points="84.1817,-567.369 82.1871,-577.774 90.2353,-570.884 84.1817,-567.369"/>
</g>
<!-- Node14 -->
<g id="node27" class="node"><title>Node14</title>
<a xlink:href="classZendDbSchema__Db__Schema__Generator__Mysql__Table.html#ab62df69dc345afb27186d6eecc66e753" target="_top" xlink:title="ZendDbSchema_Db_Schema\l_Generator_Mysql_Table\l\\createIndex">
<polygon fill="white" stroke="black" points="382,-279.5 382,-326.5 528,-326.5 528,-279.5 382,-279.5"/>
<text text-anchor="start" x="390" y="-313.5" font-family="Helvetica,sans-Serif" font-size="10.00">ZendDbSchema_Db_Schema</text>
<text text-anchor="start" x="390" y="-300.5" font-family="Helvetica,sans-Serif" font-size="10.00">_Generator_Mysql_Table</text>
<text text-anchor="middle" x="455" y="-287.5" font-family="Helvetica,sans-Serif" font-size="10.00">\createIndex</text>
</a>
</g>
<!-- Node1&#45;&gt;Node14 -->
<g id="edge26" class="edge"><title>Node1&#45;&gt;Node14</title>
<path fill="none" stroke="midnightblue" d="M77.3797,-567.792C86.8901,-518.059 114.286,-412.671 182,-359 189.915,-352.726 303.679,-330.807 381.824,-316.324"/>
<polygon fill="midnightblue" stroke="midnightblue" points="73.9058,-567.334 75.5663,-577.798 80.7936,-568.582 73.9058,-567.334"/>
</g>
<!-- Node16 -->
<g id="node31" class="node"><title>Node16</title>
<a xlink:href="classZendDbSchema__Db__Schema__Generator__Mysql__Table.html#ab84f42f89ccbecc8a929d68340411907" target="_top" xlink:title="ZendDbSchema_Db_Schema\l_Generator_Mysql_Table\l\\createTable">
<polygon fill="white" stroke="black" points="191,-198.5 191,-245.5 337,-245.5 337,-198.5 191,-198.5"/>
<text text-anchor="start" x="199" y="-232.5" font-family="Helvetica,sans-Serif" font-size="10.00">ZendDbSchema_Db_Schema</text>
<text text-anchor="start" x="199" y="-219.5" font-family="Helvetica,sans-Serif" font-size="10.00">_Generator_Mysql_Table</text>
<text text-anchor="middle" x="264" y="-206.5" font-family="Helvetica,sans-Serif" font-size="10.00">\createTable</text>
</a>
</g>
<!-- Node1&#45;&gt;Node16 -->
<g id="edge30" class="edge"><title>Node1&#45;&gt;Node16</title>
<path fill="none" stroke="midnightblue" d="M74.1597,-567.628C78.2775,-504.352 96.9954,-346.39 182,-255 185.24,-251.517 188.898,-248.393 192.824,-245.593"/>
<polygon fill="midnightblue" stroke="midnightblue" points="70.6647,-567.442 73.5817,-577.628 77.653,-567.846 70.6647,-567.442"/>
</g>
<!-- Node17 -->
<g id="node33" class="node"><title>Node17</title>
<a xlink:href="classZendDbSchema__Db__Schema__Generator__Pgsql__Table.html#a081087d005efda0190a7a8c0fffb9cbc" target="_top" xlink:title="ZendDbSchema_Db_Schema\l_Generator_Pgsql_Table\l\\createTable">
<polygon fill="white" stroke="black" points="191,-132.5 191,-179.5 337,-179.5 337,-132.5 191,-132.5"/>
<text text-anchor="start" x="199" y="-166.5" font-family="Helvetica,sans-Serif" font-size="10.00">ZendDbSchema_Db_Schema</text>
<text text-anchor="start" x="199" y="-153.5" font-family="Helvetica,sans-Serif" font-size="10.00">_Generator_Pgsql_Table</text>
<text text-anchor="middle" x="264" y="-140.5" font-family="Helvetica,sans-Serif" font-size="10.00">\createTable</text>
</a>
</g>
<!-- Node1&#45;&gt;Node17 -->
<g id="edge32" class="edge"><title>Node1&#45;&gt;Node17</title>
<path fill="none" stroke="midnightblue" d="M77.0943,-567.702C89.8017,-486.207 130.805,-246.757 182,-189 185.054,-185.555 188.518,-182.464 192.254,-179.692"/>
<polygon fill="midnightblue" stroke="midnightblue" points="73.6187,-567.276 75.5555,-577.692 80.5371,-568.342 73.6187,-567.276"/>
</g>
<!-- Node18 -->
<g id="node35" class="node"><title>Node18</title>
<a xlink:href="classZendDbSchema__Db__Schema__Generator__Pgsql__Table.html#a382b2a34670cc72a91832e80c64b7231" target="_top" xlink:title="ZendDbSchema_Db_Schema\l_Generator_Pgsql_Table\l\\dropColumn">
<polygon fill="white" stroke="black" points="191,-66.5 191,-113.5 337,-113.5 337,-66.5 191,-66.5"/>
<text text-anchor="start" x="199" y="-100.5" font-family="Helvetica,sans-Serif" font-size="10.00">ZendDbSchema_Db_Schema</text>
<text text-anchor="start" x="199" y="-87.5" font-family="Helvetica,sans-Serif" font-size="10.00">_Generator_Pgsql_Table</text>
<text text-anchor="middle" x="264" y="-74.5" font-family="Helvetica,sans-Serif" font-size="10.00">\dropColumn</text>
</a>
</g>
<!-- Node1&#45;&gt;Node18 -->
<g id="edge34" class="edge"><title>Node1&#45;&gt;Node18</title>
<path fill="none" stroke="midnightblue" d="M75.9687,-567.857C86.2918,-477.953 123.233,-191.709 182,-123 184.992,-119.501 188.409,-116.37 192.111,-113.567"/>
<polygon fill="midnightblue" stroke="midnightblue" points="72.488,-567.489 74.842,-577.819 79.4436,-568.276 72.488,-567.489"/>
</g>
<!-- Node19 -->
<g id="node37" class="node"><title>Node19</title>
<a xlink:href="classZendDbSchema__Db__Schema__Generator__Mysql__Table.html#ab5b645cc129983ace2e90cdf48b59de3" target="_top" xlink:title="ZendDbSchema_Db_Schema\l_Generator_Mysql_Table\l\\dropColumn">
<polygon fill="white" stroke="black" points="191,-0.5 191,-47.5 337,-47.5 337,-0.5 191,-0.5"/>
<text text-anchor="start" x="199" y="-34.5" font-family="Helvetica,sans-Serif" font-size="10.00">ZendDbSchema_Db_Schema</text>
<text text-anchor="start" x="199" y="-21.5" font-family="Helvetica,sans-Serif" font-size="10.00">_Generator_Mysql_Table</text>
<text text-anchor="middle" x="264" y="-8.5" font-family="Helvetica,sans-Serif" font-size="10.00">\dropColumn</text>
</a>
</g>
<!-- Node1&#45;&gt;Node19 -->
<g id="edge36" class="edge"><title>Node1&#45;&gt;Node19</title>
<path fill="none" stroke="midnightblue" d="M75.1434,-567.714C83.3466,-469.656 115.673,-136.706 182,-57 184.847,-53.5792 188.101,-50.51 191.633,-47.7566"/>
<polygon fill="midnightblue" stroke="midnightblue" points="71.6309,-567.724 74.3019,-577.977 78.6075,-568.297 71.6309,-567.724"/>
</g>
<!-- Node20 -->
<g id="node39" class="node"><title>Node20</title>
<a xlink:href="classZendDbSchema__Db__Schema__Generator__Pgsql__Table.html#ae41ebe29e67b8bf25465242d56d2db96" target="_top" xlink:title="ZendDbSchema_Db_Schema\l_Generator_Pgsql_Table\l\\dropIndex">
<polygon fill="white" stroke="black" points="191,-368.5 191,-415.5 337,-415.5 337,-368.5 191,-368.5"/>
<text text-anchor="start" x="199" y="-402.5" font-family="Helvetica,sans-Serif" font-size="10.00">ZendDbSchema_Db_Schema</text>
<text text-anchor="start" x="199" y="-389.5" font-family="Helvetica,sans-Serif" font-size="10.00">_Generator_Pgsql_Table</text>
<text text-anchor="middle" x="264" y="-376.5" font-family="Helvetica,sans-Serif" font-size="10.00">\dropIndex</text>
</a>
</g>
<!-- Node1&#45;&gt;Node20 -->
<g id="edge38" class="edge"><title>Node1&#45;&gt;Node20</title>
<path fill="none" stroke="midnightblue" d="M84.7418,-568.528C101.691,-532.916 136.088,-469.501 182,-430 188.304,-424.576 195.512,-419.77 202.98,-415.557"/>
<polygon fill="midnightblue" stroke="midnightblue" points="81.4765,-567.249 80.4288,-577.792 87.8225,-570.203 81.4765,-567.249"/>
</g>
<!-- Node21 -->
<g id="node42" class="node"><title>Node21</title>
<a xlink:href="classZendDbSchema__Db__Schema__Generator__Mysql__Table.html#acb80829a10a192635417efba5b9d5439" target="_top" xlink:title="ZendDbSchema_Db_Schema\l_Generator_Mysql_Table\l\\dropIndex">
<polygon fill="white" stroke="black" points="191,-264.5 191,-311.5 337,-311.5 337,-264.5 191,-264.5"/>
<text text-anchor="start" x="199" y="-298.5" font-family="Helvetica,sans-Serif" font-size="10.00">ZendDbSchema_Db_Schema</text>
<text text-anchor="start" x="199" y="-285.5" font-family="Helvetica,sans-Serif" font-size="10.00">_Generator_Mysql_Table</text>
<text text-anchor="middle" x="264" y="-272.5" font-family="Helvetica,sans-Serif" font-size="10.00">\dropIndex</text>
</a>
</g>
<!-- Node1&#45;&gt;Node21 -->
<g id="edge42" class="edge"><title>Node1&#45;&gt;Node21</title>
<path fill="none" stroke="midnightblue" d="M77.2029,-567.869C86.7152,-514.926 114.545,-396.841 182,-326 187.194,-320.546 193.322,-315.801 199.853,-311.691"/>
<polygon fill="midnightblue" stroke="midnightblue" points="73.7324,-567.399 75.4907,-577.847 80.6316,-568.583 73.7324,-567.399"/>
</g>
<!-- Node22 -->
<g id="node45" class="node"><title>Node22</title>
<a xlink:href="classZendDbSchema__Db__Schema__AbstractSchema.html#adacb1417b461310c5c87f72c459c1985" target="_top" xlink:title="ZendDbSchema_Db_Schema\l_AbstractSchema\\getOriginName">
<polygon fill="white" stroke="black" points="182.5,-868 182.5,-902 345.5,-902 345.5,-868 182.5,-868"/>
<text text-anchor="start" x="190.5" y="-889" font-family="Helvetica,sans-Serif" font-size="10.00">ZendDbSchema_Db_Schema</text>
<text text-anchor="middle" x="264" y="-876" font-family="Helvetica,sans-Serif" font-size="10.00">_AbstractSchema\getOriginName</text>
</a>
</g>
<!-- Node1&#45;&gt;Node22 -->
<g id="edge46" class="edge"><title>Node1&#45;&gt;Node22</title>
<path fill="none" stroke="midnightblue" d="M76.5416,-622.013C84.9338,-675.14 110.949,-793.713 182,-859 185.629,-862.335 189.685,-865.242 193.998,-867.776"/>
<polygon fill="midnightblue" stroke="midnightblue" points="79.9857,-621.378 75.0491,-612.003 73.0623,-622.41 79.9857,-621.378"/>
</g>
<!-- Node27 -->
<g id="node55" class="node"><title>Node27</title>
<a xlink:href="classZendDbSchema__Db__Schema__AbstractEntity.html#a5b1c93da76c3708f90d330b4643e55b2" target="_top" xlink:title="ZendDbSchema_Db_Schema\l_AbstractEntity\\save">
<polygon fill="white" stroke="black" points="758,-1067 758,-1101 904,-1101 904,-1067 758,-1067"/>
<text text-anchor="start" x="766" y="-1088" font-family="Helvetica,sans-Serif" font-size="10.00">ZendDbSchema_Db_Schema</text>
<text text-anchor="middle" x="831" y="-1075" font-family="Helvetica,sans-Serif" font-size="10.00">_AbstractEntity\save</text>
</a>
</g>
<!-- Node1&#45;&gt;Node27 -->
<g id="edge96" class="edge"><title>Node1&#45;&gt;Node27</title>
<path fill="none" stroke="midnightblue" d="M75.2063,-622.049C83.6734,-719.963 116.921,-1054.42 182,-1136 281.092,-1260.21 372.905,-1260.54 528,-1226 637.441,-1201.63 754.083,-1133.29 804.865,-1101.14"/>
<polygon fill="midnightblue" stroke="midnightblue" points="78.6918,-621.728 74.3582,-612.06 71.7169,-622.321 78.6918,-621.728"/>
</g>
<!-- Node13 -->
<g id="node25" class="node"><title>Node13</title>
<a xlink:href="classZendDbSchema__Db__Schema__Generator__Pgsql__Table.html#aad7fecb50c0c15801fc00e5dffc69910" target="_top" xlink:title="ZendDbSchema_Db_Schema\l_Generator_Pgsql_Table\l\\alterIndex">
<polygon fill="white" stroke="black" points="570,-353.5 570,-400.5 716,-400.5 716,-353.5 570,-353.5"/>
<text text-anchor="start" x="578" y="-387.5" font-family="Helvetica,sans-Serif" font-size="10.00">ZendDbSchema_Db_Schema</text>
<text text-anchor="start" x="578" y="-374.5" font-family="Helvetica,sans-Serif" font-size="10.00">_Generator_Pgsql_Table</text>
<text text-anchor="middle" x="643" y="-361.5" font-family="Helvetica,sans-Serif" font-size="10.00">\alterIndex</text>
</a>
</g>
<!-- Node12&#45;&gt;Node13 -->
<g id="edge24" class="edge"><title>Node12&#45;&gt;Node13</title>
<path fill="none" stroke="midnightblue" d="M538.278,-377C548.842,-377 559.589,-377 569.976,-377"/>
<polygon fill="midnightblue" stroke="midnightblue" points="538.224,-373.5 528.224,-377 538.224,-380.5 538.224,-373.5"/>
</g>
<!-- Node15 -->
<g id="node29" class="node"><title>Node15</title>
<a xlink:href="classZendDbSchema__Db__Schema__Generator__Mysql__Table.html#a60e78ff04eba0a328b1df8ff7abbcd04" target="_top" xlink:title="ZendDbSchema_Db_Schema\l_Generator_Mysql_Table\l\\alterIndex">
<polygon fill="white" stroke="black" points="570,-279.5 570,-326.5 716,-326.5 716,-279.5 570,-279.5"/>
<text text-anchor="start" x="578" y="-313.5" font-family="Helvetica,sans-Serif" font-size="10.00">ZendDbSchema_Db_Schema</text>
<text text-anchor="start" x="578" y="-300.5" font-family="Helvetica,sans-Serif" font-size="10.00">_Generator_Mysql_Table</text>
<text text-anchor="middle" x="643" y="-287.5" font-family="Helvetica,sans-Serif" font-size="10.00">\alterIndex</text>
</a>
</g>
<!-- Node14&#45;&gt;Node15 -->
<g id="edge28" class="edge"><title>Node14&#45;&gt;Node15</title>
<path fill="none" stroke="midnightblue" d="M538.278,-303C548.842,-303 559.589,-303 569.976,-303"/>
<polygon fill="midnightblue" stroke="midnightblue" points="538.224,-299.5 528.224,-303 538.224,-306.5 538.224,-299.5"/>
</g>
<!-- Node20&#45;&gt;Node12 -->
<g id="edge40" class="edge"><title>Node20&#45;&gt;Node12</title>
<path fill="none" stroke="midnightblue" d="M347.074,-385.476C358.599,-384.571 370.369,-383.646 381.698,-382.757"/>
<polygon fill="midnightblue" stroke="midnightblue" points="346.722,-381.993 337.026,-386.265 347.27,-388.971 346.722,-381.993"/>
</g>
<!-- Node21&#45;&gt;Node14 -->
<g id="edge44" class="edge"><title>Node21&#45;&gt;Node14</title>
<path fill="none" stroke="midnightblue" d="M347.074,-294.524C358.599,-295.429 370.369,-296.354 381.698,-297.243"/>
<polygon fill="midnightblue" stroke="midnightblue" points="347.27,-291.029 337.026,-293.735 346.722,-298.007 347.27,-291.029"/>
</g>
<!-- Node22&#45;&gt;Node2 -->
<g id="edge74" class="edge"><title>Node22&#45;&gt;Node2</title>
<path fill="none" stroke="midnightblue" d="M268.822,-912.082C279.726,-965.975 311.057,-1087.68 382,-1160 385.409,-1163.48 389.25,-1166.62 393.342,-1169.45"/>
<polygon fill="midnightblue" stroke="midnightblue" points="272.254,-911.39 266.909,-902.242 265.382,-912.727 272.254,-911.39"/>
</g>
<!-- Node22&#45;&gt;Node3 -->
<g id="edge62" class="edge"><title>Node22&#45;&gt;Node3</title>
<path fill="none" stroke="midnightblue" d="M272.91,-911.87C288.578,-955.424 324.919,-1041.81 382,-1094 385.798,-1097.47 390.023,-1100.63 394.472,-1103.49"/>
<polygon fill="midnightblue" stroke="midnightblue" points="276.152,-910.54 269.54,-902.261 269.546,-912.856 276.152,-910.54"/>
</g>
<!-- Node22&#45;&gt;Node6 -->
<g id="edge60" class="edge"><title>Node22&#45;&gt;Node6</title>
<path fill="none" stroke="midnightblue" d="M279.887,-910.71C300.265,-941.93 338.246,-994.55 382,-1028 386.42,-1031.38 391.24,-1034.51 396.229,-1037.38"/>
<polygon fill="midnightblue" stroke="midnightblue" points="282.726,-908.654 274.378,-902.129 276.836,-912.435 282.726,-908.654"/>
</g>
<!-- Node22&#45;&gt;Node7 -->
<g id="edge72" class="edge"><title>Node22&#45;&gt;Node7</title>
<path fill="none" stroke="midnightblue" d="M296.178,-907.928C319.446,-924.024 351.946,-945.528 382,-962 387.854,-965.209 394.08,-968.374 400.331,-971.4"/>
<polygon fill="midnightblue" stroke="midnightblue" points="297.942,-904.892 287.737,-902.046 293.94,-910.635 297.942,-904.892"/>
</g>
<!-- Node23 -->
<g id="node47" class="node"><title>Node23</title>
<a xlink:href="classZendDbSchema__Db__Schema__AbstractEntity.html#aa35a80275bd3c811dd8ad39835a985a9" target="_top" xlink:title="ZendDbSchema_Db_Schema\l_AbstractEntity\\reload">
<polygon fill="white" stroke="black" points="382,-801 382,-835 528,-835 528,-801 382,-801"/>
<text text-anchor="start" x="390" y="-822" font-family="Helvetica,sans-Serif" font-size="10.00">ZendDbSchema_Db_Schema</text>
<text text-anchor="middle" x="455" y="-809" font-family="Helvetica,sans-Serif" font-size="10.00">_AbstractEntity\reload</text>
</a>
</g>
<!-- Node22&#45;&gt;Node23 -->
<g id="edge48" class="edge"><title>Node22&#45;&gt;Node23</title>
<path fill="none" stroke="midnightblue" d="M330.019,-864.624C335.445,-862.78 340.828,-860.893 346,-859 362.277,-853.041 365.83,-850.243 382,-844 389.656,-841.044 397.808,-838.021 405.785,-835.13"/>
<polygon fill="midnightblue" stroke="midnightblue" points="328.619,-861.402 320.241,-867.888 330.835,-868.041 328.619,-861.402"/>
</g>
<!-- Node28 -->
<g id="node57" class="node"><title>Node28</title>
<a xlink:href="classZendDbSchema__Db__Schema__Database.html#aad388b374fd5913946204230760b2d86" target="_top" xlink:title="ZendDbSchema_Db_Schema\l_Database\\_doReload">
<polygon fill="white" stroke="black" points="382,-683 382,-717 528,-717 528,-683 382,-683"/>
<text text-anchor="start" x="390" y="-704" font-family="Helvetica,sans-Serif" font-size="10.00">ZendDbSchema_Db_Schema</text>
<text text-anchor="middle" x="455" y="-691" font-family="Helvetica,sans-Serif" font-size="10.00">_Database\_doReload</text>
</a>
</g>
<!-- Node22&#45;&gt;Node28 -->
<g id="edge58" class="edge"><title>Node22&#45;&gt;Node28</title>
<path fill="none" stroke="midnightblue" d="M343.52,-861.428C344.372,-860.645 345.199,-859.836 346,-859 388.368,-814.783 340.415,-770.954 382,-726 385.106,-722.642 388.675,-719.718 392.529,-717.171"/>
<polygon fill="midnightblue" stroke="midnightblue" points="341.042,-858.919 335.261,-867.798 345.317,-864.462 341.042,-858.919"/>
</g>
<!-- Node29 -->
<g id="node61" class="node"><title>Node29</title>
<a xlink:href="classZendDbSchema__Db__Schema__Generator__Mysql__Table.html#ab0e8de60124040b8a92e5c9f3e2d63d0" target="_top" xlink:title="ZendDbSchema_Db_Schema\l_Generator_Mysql_Table\l\\addForeignKey">
<polygon fill="white" stroke="black" points="382,-617.5 382,-664.5 528,-664.5 528,-617.5 382,-617.5"/>
<text text-anchor="start" x="390" y="-651.5" font-family="Helvetica,sans-Serif" font-size="10.00">ZendDbSchema_Db_Schema</text>
<text text-anchor="start" x="390" y="-638.5" font-family="Helvetica,sans-Serif" font-size="10.00">_Generator_Mysql_Table</text>
<text text-anchor="middle" x="455" y="-625.5" font-family="Helvetica,sans-Serif" font-size="10.00">\addForeignKey</text>
</a>
</g>
<!-- Node22&#45;&gt;Node29 -->
<g id="edge64" class="edge"><title>Node22&#45;&gt;Node29</title>
<path fill="none" stroke="midnightblue" d="M343.686,-861.429C344.483,-860.646 345.255,-859.836 346,-859 401.733,-796.468 330.035,-739.697 382,-674 384.761,-670.509 387.973,-667.376 391.479,-664.564"/>
<polygon fill="midnightblue" stroke="midnightblue" points="341.425,-858.758 335.916,-867.808 345.866,-864.168 341.425,-858.758"/>
</g>
<!-- Node31 -->
<g id="node65" class="node"><title>Node31</title>
<a xlink:href="classZendDbSchema__Db__Schema__Generator__Mysql__Table.html#aa5d8bf2e4379b7acc7bcd57ea36e23ba" target="_top" xlink:title="ZendDbSchema_Db_Schema\l_Generator_Mysql_Table\l\\dropForeignKey">
<polygon fill="white" stroke="black" points="382,-551.5 382,-598.5 528,-598.5 528,-551.5 382,-551.5"/>
<text text-anchor="start" x="390" y="-585.5" font-family="Helvetica,sans-Serif" font-size="10.00">ZendDbSchema_Db_Schema</text>
<text text-anchor="start" x="390" y="-572.5" font-family="Helvetica,sans-Serif" font-size="10.00">_Generator_Mysql_Table</text>
<text text-anchor="middle" x="455" y="-559.5" font-family="Helvetica,sans-Serif" font-size="10.00">\dropForeignKey</text>
</a>
</g>
<!-- Node22&#45;&gt;Node31 -->
<g id="edge68" class="edge"><title>Node22&#45;&gt;Node31</title>
<path fill="none" stroke="midnightblue" d="M343.746,-861.481C344.524,-860.681 345.276,-859.854 346,-859 418.869,-773.03 314.306,-698.101 382,-608 384.59,-604.553 387.623,-601.457 390.954,-598.677"/>
<polygon fill="midnightblue" stroke="midnightblue" points="341.459,-858.832 336.112,-867.979 345.996,-864.162 341.459,-858.832"/>
</g>
<!-- Node32 -->
<g id="node70" class="node"><title>Node32</title>
<a xlink:href="classZendDbSchema__Db__Schema__Generator__Pgsql__Table.html#a3365ef877cee87ce2f038f4476256a94" target="_top" xlink:title="ZendDbSchema_Db_Schema\l_Generator_Pgsql_Table\l\\addForeignKey">
<polygon fill="white" stroke="black" points="382,-485.5 382,-532.5 528,-532.5 528,-485.5 382,-485.5"/>
<text text-anchor="start" x="390" y="-519.5" font-family="Helvetica,sans-Serif" font-size="10.00">ZendDbSchema_Db_Schema</text>
<text text-anchor="start" x="390" y="-506.5" font-family="Helvetica,sans-Serif" font-size="10.00">_Generator_Pgsql_Table</text>
<text text-anchor="middle" x="455" y="-493.5" font-family="Helvetica,sans-Serif" font-size="10.00">\addForeignKey</text>
</a>
</g>
<!-- Node22&#45;&gt;Node32 -->
<g id="edge76" class="edge"><title>Node22&#45;&gt;Node32</title>
<path fill="none" stroke="midnightblue" d="M344.134,-861.135C344.776,-860.443 345.398,-859.732 346,-859 436.084,-749.499 298.502,-656.602 382,-542 384.539,-538.515 387.533,-535.391 390.836,-532.59"/>
<polygon fill="midnightblue" stroke="midnightblue" points="341.757,-858.565 336.591,-867.815 346.398,-863.805 341.757,-858.565"/>
</g>
<!-- Node34 -->
<g id="node74" class="node"><title>Node34</title>
<a xlink:href="classZendDbSchema__Db__Schema__Generator__Pgsql__Table.html#aab407f272f8993d722e31c277ce0f974" target="_top" xlink:title="ZendDbSchema_Db_Schema\l_Generator_Pgsql_Table\l\\dropForeignKey">
<polygon fill="white" stroke="black" points="382,-419.5 382,-466.5 528,-466.5 528,-419.5 382,-419.5"/>
<text text-anchor="start" x="390" y="-453.5" font-family="Helvetica,sans-Serif" font-size="10.00">ZendDbSchema_Db_Schema</text>
<text text-anchor="start" x="390" y="-440.5" font-family="Helvetica,sans-Serif" font-size="10.00">_Generator_Pgsql_Table</text>
<text text-anchor="middle" x="455" y="-427.5" font-family="Helvetica,sans-Serif" font-size="10.00">\dropForeignKey</text>
</a>
</g>
<!-- Node22&#45;&gt;Node34 -->
<g id="edge80" class="edge"><title>Node22&#45;&gt;Node34</title>
<path fill="none" stroke="midnightblue" d="M344.154,-861.151C344.79,-860.454 345.405,-859.737 346,-859 399.669,-792.46 332.331,-545.577 382,-476 384.505,-472.491 387.474,-469.348 390.758,-466.533"/>
<polygon fill="midnightblue" stroke="midnightblue" points="341.768,-858.59 336.668,-867.877 346.446,-863.798 341.768,-858.59"/>
</g>
<!-- Node35 -->
<g id="node77" class="node"><title>Node35</title>
<a xlink:href="classZendDbSchema__Db__Schema__Table.html#abc05b1f219611fefdd0e9eaeff1761d9" target="_top" xlink:title="ZendDbSchema_Db_Schema\l_Table\\_doReload">
<polygon fill="white" stroke="black" points="382,-919 382,-953 528,-953 528,-919 382,-919"/>
<text text-anchor="start" x="390" y="-940" font-family="Helvetica,sans-Serif" font-size="10.00">ZendDbSchema_Db_Schema</text>
<text text-anchor="middle" x="455" y="-927" font-family="Helvetica,sans-Serif" font-size="10.00">_Table\_doReload</text>
</a>
</g>
<!-- Node22&#45;&gt;Node35 -->
<g id="edge84" class="edge"><title>Node22&#45;&gt;Node35</title>
<path fill="none" stroke="midnightblue" d="M337.565,-904.643C355.25,-909.365 373.996,-914.371 391.194,-918.963"/>
<polygon fill="midnightblue" stroke="midnightblue" points="338.43,-901.251 327.866,-902.053 336.624,-908.015 338.43,-901.251"/>
</g>
<!-- Node36 -->
<g id="node79" class="node"><title>Node36</title>
<a xlink:href="classZendDbSchema__Db__Schema__Table__AbstractDefinition.html#a355febe0ff6ed1a3b95ae1edd91b807e" target="_top" xlink:title="ZendDbSchema_Db_Schema\l_Table_AbstractDefinition\l\\_getCleanSchema">
<polygon fill="white" stroke="black" points="382,-853.5 382,-900.5 528,-900.5 528,-853.5 382,-853.5"/>
<text text-anchor="start" x="390" y="-887.5" font-family="Helvetica,sans-Serif" font-size="10.00">ZendDbSchema_Db_Schema</text>
<text text-anchor="start" x="390" y="-874.5" font-family="Helvetica,sans-Serif" font-size="10.00">_Table_AbstractDefinition</text>
<text text-anchor="middle" x="455" y="-861.5" font-family="Helvetica,sans-Serif" font-size="10.00">\_getCleanSchema</text>
</a>
</g>
<!-- Node22&#45;&gt;Node36 -->
<g id="edge86" class="edge"><title>Node22&#45;&gt;Node36</title>
<path fill="none" stroke="midnightblue" d="M355.79,-881.155C364.54,-880.789 373.331,-880.421 381.87,-880.063"/>
<polygon fill="midnightblue" stroke="midnightblue" points="355.4,-877.669 345.555,-881.584 355.693,-884.662 355.4,-877.669"/>
</g>
<!-- Node37 -->
<g id="node81" class="node"><title>Node37</title>
<a xlink:href="classZendDbSchema__Db__Schema__Table__DefinitionManager__AbstractManager.html#a6d815884ca03c003ac7f8d633e97f7c6" target="_top" xlink:title="ZendDbSchema_Db_Schema\l_Table_DefinitionManager\l_AbstractManager\\add">
<polygon fill="white" stroke="black" points="382,-735.5 382,-782.5 528,-782.5 528,-735.5 382,-735.5"/>
<text text-anchor="start" x="390" y="-769.5" font-family="Helvetica,sans-Serif" font-size="10.00">ZendDbSchema_Db_Schema</text>
<text text-anchor="start" x="390" y="-756.5" font-family="Helvetica,sans-Serif" font-size="10.00">_Table_DefinitionManager</text>
<text text-anchor="middle" x="455" y="-743.5" font-family="Helvetica,sans-Serif" font-size="10.00">_AbstractManager\add</text>
</a>
</g>
<!-- Node22&#45;&gt;Node37 -->
<g id="edge88" class="edge"><title>Node22&#45;&gt;Node37</title>
<path fill="none" stroke="midnightblue" d="M341.705,-862.292C343.183,-861.244 344.617,-860.147 346,-859 372.02,-837.42 357.293,-815.071 382,-792 385.66,-788.583 389.734,-785.474 394.033,-782.655"/>
<polygon fill="midnightblue" stroke="midnightblue" points="339.488,-859.548 332.825,-867.786 343.171,-865.501 339.488,-859.548"/>
</g>
<!-- Node24 -->
<g id="node49" class="node"><title>Node24</title>
<a xlink:href="classZendDbSchema__Db__Schema__AbstractEntity.html#ad92ca2449257a587b336367f109cdde2" target="_top" xlink:title="ZendDbSchema_Db_Schema\l_AbstractEntity\\__wakeup">
<polygon fill="white" stroke="black" points="570,-801 570,-835 716,-835 716,-801 570,-801"/>
<text text-anchor="start" x="578" y="-822" font-family="Helvetica,sans-Serif" font-size="10.00">ZendDbSchema_Db_Schema</text>
<text text-anchor="middle" x="643" y="-809" font-family="Helvetica,sans-Serif" font-size="10.00">_AbstractEntity\__wakeup</text>
</a>
</g>
<!-- Node23&#45;&gt;Node24 -->
<g id="edge50" class="edge"><title>Node23&#45;&gt;Node24</title>
<path fill="none" stroke="midnightblue" d="M538.278,-818C548.842,-818 559.589,-818 569.976,-818"/>
<polygon fill="midnightblue" stroke="midnightblue" points="538.224,-814.5 528.224,-818 538.224,-821.5 538.224,-814.5"/>
</g>
<!-- Node25 -->
<g id="node51" class="node"><title>Node25</title>
<a xlink:href="classZendDbSchema__Db__Schema__AbstractEntity.html#abee9675e11d86dace1abed3d94a0fda1" target="_top" xlink:title="ZendDbSchema_Db_Schema\l_AbstractEntity\\refresh">
<polygon fill="white" stroke="black" points="570,-934 570,-968 716,-968 716,-934 570,-934"/>
<text text-anchor="start" x="578" y="-955" font-family="Helvetica,sans-Serif" font-size="10.00">ZendDbSchema_Db_Schema</text>
<text text-anchor="middle" x="643" y="-942" font-family="Helvetica,sans-Serif" font-size="10.00">_AbstractEntity\refresh</text>
</a>
</g>
<!-- Node23&#45;&gt;Node25 -->
<g id="edge52" class="edge"><title>Node23&#45;&gt;Node25</title>
<path fill="none" stroke="midnightblue" d="M519.852,-839.461C522.653,-840.898 525.382,-842.41 528,-844 569.257,-869.055 608.438,-910.614 628.691,-933.878"/>
<polygon fill="midnightblue" stroke="midnightblue" points="521.25,-836.251 510.715,-835.13 518.252,-842.576 521.25,-836.251"/>
</g>
<!-- Node26 -->
<g id="node53" class="node"><title>Node26</title>
<a xlink:href="classZendDbSchema__Db__Schema__AbstractEntity.html#a26fcff2268495fcdbfa265f394ee93d9" target="_top" xlink:title="ZendDbSchema_Db_Schema\l_AbstractEntity\\delete">
<polygon fill="white" stroke="black" points="758,-934 758,-968 904,-968 904,-934 758,-934"/>
<text text-anchor="start" x="766" y="-955" font-family="Helvetica,sans-Serif" font-size="10.00">ZendDbSchema_Db_Schema</text>
<text text-anchor="middle" x="831" y="-942" font-family="Helvetica,sans-Serif" font-size="10.00">_AbstractEntity\delete</text>
</a>
</g>
<!-- Node25&#45;&gt;Node26 -->
<g id="edge54" class="edge"><title>Node25&#45;&gt;Node26</title>
<path fill="none" stroke="midnightblue" d="M726.278,-951C736.842,-951 747.589,-951 757.976,-951"/>
<polygon fill="midnightblue" stroke="midnightblue" points="726.224,-947.5 716.224,-951 726.224,-954.5 726.224,-947.5"/>
</g>
<!-- Node25&#45;&gt;Node27 -->
<g id="edge56" class="edge"><title>Node25&#45;&gt;Node27</title>
<path fill="none" stroke="midnightblue" d="M675.725,-974.151C713.147,-1000.63 773.531,-1043.34 806.9,-1066.95"/>
<polygon fill="midnightblue" stroke="midnightblue" points="677.378,-971.033 667.193,-968.115 673.335,-976.748 677.378,-971.033"/>
</g>
<!-- Node30 -->
<g id="node63" class="node"><title>Node30</title>
<a xlink:href="classZendDbSchema__Db__Schema__Generator__Mysql__Table.html#a3b806bcbce70989120035d56ee12071c" target="_top" xlink:title="ZendDbSchema_Db_Schema\l_Generator_Mysql_Table\l\\alterForeignKey">
<polygon fill="white" stroke="black" points="570,-584.5 570,-631.5 716,-631.5 716,-584.5 570,-584.5"/>
<text text-anchor="start" x="578" y="-618.5" font-family="Helvetica,sans-Serif" font-size="10.00">ZendDbSchema_Db_Schema</text>
<text text-anchor="start" x="578" y="-605.5" font-family="Helvetica,sans-Serif" font-size="10.00">_Generator_Mysql_Table</text>
<text text-anchor="middle" x="643" y="-592.5" font-family="Helvetica,sans-Serif" font-size="10.00">\alterForeignKey</text>
</a>
</g>
<!-- Node29&#45;&gt;Node30 -->
<g id="edge66" class="edge"><title>Node29&#45;&gt;Node30</title>
<path fill="none" stroke="midnightblue" d="M538.278,-626.382C548.842,-624.528 559.589,-622.641 569.976,-620.818"/>
<polygon fill="midnightblue" stroke="midnightblue" points="537.468,-622.971 528.224,-628.147 538.679,-629.865 537.468,-622.971"/>
</g>
<!-- Node31&#45;&gt;Node30 -->
<g id="edge70" class="edge"><title>Node31&#45;&gt;Node30</title>
<path fill="none" stroke="midnightblue" d="M538.278,-589.618C548.842,-591.472 559.589,-593.359 569.976,-595.182"/>
<polygon fill="midnightblue" stroke="midnightblue" points="538.679,-586.135 528.224,-587.853 537.468,-593.029 538.679,-586.135"/>
</g>
<!-- Node33 -->
<g id="node72" class="node"><title>Node33</title>
<a xlink:href="classZendDbSchema__Db__Schema__Generator__Pgsql__Table.html#af690e11fe350fcc7da00de979233e2b5" target="_top" xlink:title="ZendDbSchema_Db_Schema\l_Generator_Pgsql_Table\l\\alterForeignKey">
<polygon fill="white" stroke="black" points="570,-452.5 570,-499.5 716,-499.5 716,-452.5 570,-452.5"/>
<text text-anchor="start" x="578" y="-486.5" font-family="Helvetica,sans-Serif" font-size="10.00">ZendDbSchema_Db_Schema</text>
<text text-anchor="start" x="578" y="-473.5" font-family="Helvetica,sans-Serif" font-size="10.00">_Generator_Pgsql_Table</text>
<text text-anchor="middle" x="643" y="-460.5" font-family="Helvetica,sans-Serif" font-size="10.00">\alterForeignKey</text>
</a>
</g>
<!-- Node32&#45;&gt;Node33 -->
<g id="edge78" class="edge"><title>Node32&#45;&gt;Node33</title>
<path fill="none" stroke="midnightblue" d="M538.278,-494.382C548.842,-492.528 559.589,-490.641 569.976,-488.818"/>
<polygon fill="midnightblue" stroke="midnightblue" points="537.468,-490.971 528.224,-496.147 538.679,-497.865 537.468,-490.971"/>
</g>
<!-- Node34&#45;&gt;Node33 -->
<g id="edge82" class="edge"><title>Node34&#45;&gt;Node33</title>
<path fill="none" stroke="midnightblue" d="M538.278,-457.618C548.842,-459.472 559.589,-461.359 569.976,-463.182"/>
<polygon fill="midnightblue" stroke="midnightblue" points="538.679,-454.135 528.224,-455.853 537.468,-461.029 538.679,-454.135"/>
</g>
<!-- Node38 -->
<g id="node83" class="node"><title>Node38</title>
<a xlink:href="classZendDbSchema__Db__Schema__Table__DefinitionManager__AbstractManager.html#a40677ee7cb91e19c1587bdda9e73d3d5" target="_top" xlink:title="ZendDbSchema_Db_Schema\l_Table_DefinitionManager\l_AbstractManager\\setFromArray">
<polygon fill="white" stroke="black" points="564,-735.5 564,-782.5 722,-782.5 722,-735.5 564,-735.5"/>
<text text-anchor="start" x="572" y="-769.5" font-family="Helvetica,sans-Serif" font-size="10.00">ZendDbSchema_Db_Schema</text>
<text text-anchor="start" x="572" y="-756.5" font-family="Helvetica,sans-Serif" font-size="10.00">_Table_DefinitionManager</text>
<text text-anchor="middle" x="643" y="-743.5" font-family="Helvetica,sans-Serif" font-size="10.00">_AbstractManager\setFromArray</text>
</a>
</g>
<!-- Node37&#45;&gt;Node38 -->
<g id="edge90" class="edge"><title>Node37&#45;&gt;Node38</title>
<path fill="none" stroke="midnightblue" d="M538.421,-759C546.842,-759 555.378,-759 563.754,-759"/>
<polygon fill="midnightblue" stroke="midnightblue" points="538.224,-755.5 528.224,-759 538.224,-762.5 538.224,-755.5"/>
</g>
<!-- Node39 -->
<g id="node85" class="node"><title>Node39</title>
<a xlink:href="classZendDbSchema__Db__Schema__Table__DefinitionManager__AbstractManager.html#a7503e344823c2a1e1e3beb80b8541116" target="_top" xlink:title="ZendDbSchema_Db_Schema\l_Table_DefinitionManager\l_AbstractManager\\refresh">
<polygon fill="white" stroke="black" points="758,-735.5 758,-782.5 904,-782.5 904,-735.5 758,-735.5"/>
<text text-anchor="start" x="766" y="-769.5" font-family="Helvetica,sans-Serif" font-size="10.00">ZendDbSchema_Db_Schema</text>
<text text-anchor="start" x="766" y="-756.5" font-family="Helvetica,sans-Serif" font-size="10.00">_Table_DefinitionManager</text>
<text text-anchor="middle" x="831" y="-743.5" font-family="Helvetica,sans-Serif" font-size="10.00">_AbstractManager\refresh</text>
</a>
</g>
<!-- Node38&#45;&gt;Node39 -->
<g id="edge92" class="edge"><title>Node38&#45;&gt;Node39</title>
<path fill="none" stroke="midnightblue" d="M732.234,-759C740.831,-759 749.481,-759 757.896,-759"/>
<polygon fill="midnightblue" stroke="midnightblue" points="732.184,-755.5 722.184,-759 732.184,-762.5 732.184,-755.5"/>
</g>
<!-- Node40 -->
<g id="node87" class="node"><title>Node40</title>
<a xlink:href="classZendDbSchema__Db__Schema__Table__DefinitionManager__AbstractManager.html#a5cf66698784c55ebbd70292e268505af" target="_top" xlink:title="ZendDbSchema_Db_Schema\l_Table_DefinitionManager\l_AbstractManager\\__construct">
<polygon fill="white" stroke="black" points="940,-735.5 940,-782.5 1090,-782.5 1090,-735.5 940,-735.5"/>
<text text-anchor="start" x="948" y="-769.5" font-family="Helvetica,sans-Serif" font-size="10.00">ZendDbSchema_Db_Schema</text>
<text text-anchor="start" x="948" y="-756.5" font-family="Helvetica,sans-Serif" font-size="10.00">_Table_DefinitionManager</text>
<text text-anchor="middle" x="1015" y="-743.5" font-family="Helvetica,sans-Serif" font-size="10.00">_AbstractManager\__construct</text>
</a>
</g>
<!-- Node39&#45;&gt;Node40 -->
<g id="edge94" class="edge"><title>Node39&#45;&gt;Node40</title>
<path fill="none" stroke="midnightblue" d="M914.505,-759C922.968,-759 931.527,-759 939.894,-759"/>
<polygon fill="midnightblue" stroke="midnightblue" points="914.25,-755.5 904.25,-759 914.25,-762.5 914.25,-755.5"/>
</g>
</g>
</svg>
