<?xml version="1.0" encoding="UTF-8" standalone="no"?>
<!DOCTYPE svg PUBLIC "-//W3C//DTD SVG 1.1//EN"
 "http://www.w3.org/Graphics/SVG/1.1/DTD/svg11.dtd">
<!-- Generated by graphviz version 2.26.3 (20100126.1600)
 -->
<!-- Title: G Pages: 1 -->
<svg width="368pt" height="42pt"
 viewBox="0.00 0.00 368.00 42.00" xmlns="http://www.w3.org/2000/svg" xmlns:xlink="http://www.w3.org/1999/xlink">
<g id="graph1" class="graph" transform="scale(1 1) rotate(0) translate(4 38)">
<title>G</title>
<polygon fill="white" stroke="white" points="-4,5 -4,-38 365,-38 365,5 -4,5"/>
<!-- Node1 -->
<g id="node1" class="node"><title>Node1</title>
<polygon fill="#bfbfbf" stroke="black" points="0.5,-0 0.5,-34 175.5,-34 175.5,-0 0.5,-0"/>
<text text-anchor="start" x="8.5" y="-21" font-family="Helvetica,sans-Serif" font-size="10.00">ZendDbSchema_Tool_Project</text>
<text text-anchor="middle" x="88" y="-8" font-family="Helvetica,sans-Serif" font-size="10.00">_Provider_Migration\createResource</text>
</g>
<!-- Node2 -->
<g id="node3" class="node"><title>Node2</title>
<a xlink:href="classZendDbSchema__Tool__Project__Provider__Migration.html#a50a6e8f60a7d71a74883b26797fa9f25" target="_top" xlink:title="ZendDbSchema_Tool_Project\l_Provider_Migration\\create">
<polygon fill="white" stroke="black" points="212.5,-0 212.5,-34 359.5,-34 359.5,-0 212.5,-0"/>
<text text-anchor="start" x="220.5" y="-21" font-family="Helvetica,sans-Serif" font-size="10.00">ZendDbSchema_Tool_Project</text>
<text text-anchor="middle" x="286" y="-8" font-family="Helvetica,sans-Serif" font-size="10.00">_Provider_Migration\create</text>
</a>
</g>
<!-- Node1&#45;&gt;Node2 -->
<g id="edge2" class="edge"><title>Node1&#45;&gt;Node2</title>
<path fill="none" stroke="midnightblue" d="M185.76,-17C194.679,-17 203.612,-17 212.269,-17"/>
<polygon fill="midnightblue" stroke="midnightblue" points="185.71,-13.5001 175.71,-17 185.71,-20.5001 185.71,-13.5001"/>
</g>
</g>
</svg>
