<?xml version="1.0" encoding="UTF-8" standalone="no"?>
<!DOCTYPE svg PUBLIC "-//W3C//DTD SVG 1.1//EN"
 "http://www.w3.org/Graphics/SVG/1.1/DTD/svg11.dtd">
<!-- Generated by graphviz version 2.26.3 (20100126.1600)
 -->
<!-- Title: G Pages: 1 -->
<svg width="530pt" height="94pt"
 viewBox="0.00 0.00 530.00 94.00" xmlns="http://www.w3.org/2000/svg" xmlns:xlink="http://www.w3.org/1999/xlink">
<g id="graph1" class="graph" transform="scale(1 1) rotate(0) translate(4 90)">
<title>G</title>
<polygon fill="white" stroke="white" points="-4,5 -4,-90 527,-90 527,5 -4,5"/>
<!-- Node1 -->
<g id="node1" class="node"><title>Node1</title>
<polygon fill="#bfbfbf" stroke="black" points="0,-26 0,-60 150,-60 150,-26 0,-26"/>
<text text-anchor="start" x="8" y="-47" font-family="Helvetica,sans-Serif" font-size="10.00">ZendDbSchema_Db_Migration</text>
<text text-anchor="middle" x="75" y="-34" font-family="Helvetica,sans-Serif" font-size="10.00">_Change\fromFile</text>
</g>
<!-- Node2 -->
<g id="node3" class="node"><title>Node2</title>
<a xlink:href="classZendDbSchema__Db__Migration__Manager.html#a2450580273691865299544ba500e01b2" target="_top" xlink:title="ZendDbSchema_Db_Migration\l_Manager\\addChange">
<polygon fill="white" stroke="black" points="186,-52 186,-86 336,-86 336,-52 186,-52"/>
<text text-anchor="start" x="194" y="-73" font-family="Helvetica,sans-Serif" font-size="10.00">ZendDbSchema_Db_Migration</text>
<text text-anchor="middle" x="261" y="-60" font-family="Helvetica,sans-Serif" font-size="10.00">_Manager\addChange</text>
</a>
</g>
<!-- Node1&#45;&gt;Node2 -->
<g id="edge2" class="edge"><title>Node1&#45;&gt;Node2</title>
<path fill="none" stroke="midnightblue" d="M160.147,-54.9023C168.742,-56.1037 177.426,-57.3177 185.905,-58.5028"/>
<polygon fill="midnightblue" stroke="midnightblue" points="160.505,-51.4184 150.117,-53.5003 159.536,-58.351 160.505,-51.4184"/>
</g>
<!-- Node4 -->
<g id="node7" class="node"><title>Node4</title>
<a xlink:href="classZendDbSchema__Tool__Project__Provider__Migration.html#a655dfecdd97d178fe409092d1111416d" target="_top" xlink:title="ZendDbSchema_Tool_Project\l_Provider_Migration\\show">
<polygon fill="white" stroke="black" points="187.5,-0 187.5,-34 334.5,-34 334.5,-0 187.5,-0"/>
<text text-anchor="start" x="195.5" y="-21" font-family="Helvetica,sans-Serif" font-size="10.00">ZendDbSchema_Tool_Project</text>
<text text-anchor="middle" x="261" y="-8" font-family="Helvetica,sans-Serif" font-size="10.00">_Provider_Migration\show</text>
</a>
</g>
<!-- Node1&#45;&gt;Node4 -->
<g id="edge6" class="edge"><title>Node1&#45;&gt;Node4</title>
<path fill="none" stroke="midnightblue" d="M160.286,-31.0783C169.347,-29.8118 178.505,-28.5315 187.415,-27.2861"/>
<polygon fill="midnightblue" stroke="midnightblue" points="159.536,-27.649 150.117,-32.4997 160.505,-34.5816 159.536,-27.649"/>
</g>
<!-- Node3 -->
<g id="node5" class="node"><title>Node3</title>
<a xlink:href="classZendDbSchema__Db__Migration__Manager.html#a5bc6e13f1d6ae95a759178d5342aa6ca" target="_top" xlink:title="ZendDbSchema_Db_Migration\l_Manager\\__construct">
<polygon fill="white" stroke="black" points="372,-52 372,-86 522,-86 522,-52 372,-52"/>
<text text-anchor="start" x="380" y="-73" font-family="Helvetica,sans-Serif" font-size="10.00">ZendDbSchema_Db_Migration</text>
<text text-anchor="middle" x="447" y="-60" font-family="Helvetica,sans-Serif" font-size="10.00">_Manager\__construct</text>
</a>
</g>
<!-- Node2&#45;&gt;Node3 -->
<g id="edge4" class="edge"><title>Node2&#45;&gt;Node3</title>
<path fill="none" stroke="midnightblue" d="M346.147,-69C354.742,-69 363.426,-69 371.905,-69"/>
<polygon fill="midnightblue" stroke="midnightblue" points="346.117,-65.5001 336.117,-69 346.117,-72.5001 346.117,-65.5001"/>
</g>
</g>
</svg>
