<?xml version="1.0" encoding="UTF-8" standalone="no"?>
<!DOCTYPE svg PUBLIC "-//W3C//DTD SVG 1.1//EN"
 "http://www.w3.org/Graphics/SVG/1.1/DTD/svg11.dtd">
<!-- Generated by graphviz version 2.26.3 (20100126.1600)
 -->
<!-- Title: G Pages: 1 -->
<svg width="1542pt" height="110pt"
 viewBox="0.00 0.00 1542.00 110.00" xmlns="http://www.w3.org/2000/svg" xmlns:xlink="http://www.w3.org/1999/xlink">
<g id="graph1" class="graph" transform="scale(1 1) rotate(0) translate(4 106)">
<title>G</title>
<polygon fill="white" stroke="white" points="-4,5 -4,-106 1539,-106 1539,5 -4,5"/>
<!-- Node1 -->
<g id="node1" class="node"><title>Node1</title>
<polygon fill="#bfbfbf" stroke="black" points="0.5,-40.5 0.5,-61.5 269.5,-61.5 269.5,-40.5 0.5,-40.5"/>
<text text-anchor="middle" x="135" y="-48.5" font-family="Helvetica,sans-Serif" font-size="10.00">ZendDbSchema_Db_Schema_Table_Index\_getDeleteSql</text>
</g>
<!-- Node2 -->
<g id="node3" class="node"><title>Node2</title>
<a xlink:href="classZendDbSchema__Db__Schema__AbstractSchema.html#a5696bfca3324b0dfbdf3c10d224f5759" target="_top" xlink:title="ZendDbSchema_Db_Schema_AbstractSchema\\getGenerator">
<polygon fill="white" stroke="black" points="306,-40.5 306,-61.5 590,-61.5 590,-40.5 306,-40.5"/>
<text text-anchor="middle" x="448" y="-48.5" font-family="Helvetica,sans-Serif" font-size="10.00">ZendDbSchema_Db_Schema_AbstractSchema\getGenerator</text>
</a>
</g>
<!-- Node1&#45;&gt;Node2 -->
<g id="edge2" class="edge"><title>Node1&#45;&gt;Node2</title>
<path fill="none" stroke="midnightblue" d="M269.557,-51C278.131,-51 286.795,-51 295.443,-51"/>
<polygon fill="midnightblue" stroke="midnightblue" points="295.582,-54.5001 305.582,-51 295.582,-47.5001 295.582,-54.5001"/>
</g>
<!-- Node3 -->
<g id="node5" class="node"><title>Node3</title>
<a xlink:href="classZendDbSchema__Db__Schema__AbstractSchema.html#a47d95912f6bf6d26d023597887dafacb" target="_top" xlink:title="ZendDbSchema_Db_Schema_AbstractSchema\\getAdapter">
<polygon fill="white" stroke="black" points="626.5,-40.5 626.5,-61.5 901.5,-61.5 901.5,-40.5 626.5,-40.5"/>
<text text-anchor="middle" x="764" y="-48.5" font-family="Helvetica,sans-Serif" font-size="10.00">ZendDbSchema_Db_Schema_AbstractSchema\getAdapter</text>
</a>
</g>
<!-- Node2&#45;&gt;Node3 -->
<g id="edge4" class="edge"><title>Node2&#45;&gt;Node3</title>
<path fill="none" stroke="midnightblue" d="M590.285,-51C598.88,-51 607.538,-51 616.156,-51"/>
<polygon fill="midnightblue" stroke="midnightblue" points="616.247,-54.5001 626.247,-51 616.247,-47.5001 616.247,-54.5001"/>
</g>
<!-- Node4 -->
<g id="node7" class="node"><title>Node4</title>
<a xlink:href="classZendDbSchema__Db__Schema__AbstractSchema.html#a6349649e5e09d67a5b5e0abe96298db8" target="_top" xlink:title="ZendDbSchema_Db_Schema_AbstractSchema\\setAdapter">
<polygon fill="white" stroke="black" points="938.5,-40.5 938.5,-61.5 1213.5,-61.5 1213.5,-40.5 938.5,-40.5"/>
<text text-anchor="middle" x="1076" y="-48.5" font-family="Helvetica,sans-Serif" font-size="10.00">ZendDbSchema_Db_Schema_AbstractSchema\setAdapter</text>
</a>
</g>
<!-- Node3&#45;&gt;Node4 -->
<g id="edge6" class="edge"><title>Node3&#45;&gt;Node4</title>
<path fill="none" stroke="midnightblue" d="M901.756,-51C910.438,-51 919.197,-51 927.923,-51"/>
<polygon fill="midnightblue" stroke="midnightblue" points="928.145,-54.5001 938.145,-51 928.145,-47.5001 928.145,-54.5001"/>
</g>
<!-- Node5 -->
<g id="node9" class="node"><title>Node5</title>
<a xlink:href="classZendDbSchema__Db__Schema__AbstractSchema.html#a53a1974dbc8822792a8d7b9c618d3a02" target="_top" xlink:title="ZendDbSchema_Db_Schema_AbstractSchema\\setGenerator">
<polygon fill="white" stroke="black" points="1250,-80.5 1250,-101.5 1534,-101.5 1534,-80.5 1250,-80.5"/>
<text text-anchor="middle" x="1392" y="-88.5" font-family="Helvetica,sans-Serif" font-size="10.00">ZendDbSchema_Db_Schema_AbstractSchema\setGenerator</text>
</a>
</g>
<!-- Node4&#45;&gt;Node5 -->
<g id="edge8" class="edge"><title>Node4&#45;&gt;Node5</title>
<path fill="none" stroke="midnightblue" d="M1159.03,-61.5095C1201.95,-66.9425 1254.48,-73.5919 1298.78,-79.2006"/>
<polygon fill="midnightblue" stroke="midnightblue" points="1298.62,-82.7077 1308.98,-80.4913 1299.5,-75.7631 1298.62,-82.7077"/>
</g>
<!-- Node6 -->
<g id="node11" class="node"><title>Node6</title>
<a xlink:href="classZendDbSchema__Db__Schema__AbstractSchema.html#aa0e6c9f8d58702dc41d988f064f62698" target="_top" xlink:title="ZendDbSchema_Db_Schema_AbstractSchema\\setParser">
<polygon fill="white" stroke="black" points="1257.5,-40.5 1257.5,-61.5 1526.5,-61.5 1526.5,-40.5 1257.5,-40.5"/>
<text text-anchor="middle" x="1392" y="-48.5" font-family="Helvetica,sans-Serif" font-size="10.00">ZendDbSchema_Db_Schema_AbstractSchema\setParser</text>
</a>
</g>
<!-- Node4&#45;&gt;Node6 -->
<g id="edge10" class="edge"><title>Node4&#45;&gt;Node6</title>
<path fill="none" stroke="midnightblue" d="M1213.68,-51C1224.76,-51 1235.98,-51 1247.1,-51"/>
<polygon fill="midnightblue" stroke="midnightblue" points="1247.29,-54.5001 1257.29,-51 1247.29,-47.5001 1247.29,-54.5001"/>
</g>
<!-- Node7 -->
<g id="node13" class="node"><title>Node7</title>
<a xlink:href="classZendDbSchema__Db__Schema__AbstractSchema.html#ac0161e2c24dafba8433fb86205a147fe" target="_top" xlink:title="ZendDbSchema_Db_Schema_AbstractSchema\\setValidator">
<polygon fill="white" stroke="black" points="1252.5,-0.5 1252.5,-21.5 1531.5,-21.5 1531.5,-0.5 1252.5,-0.5"/>
<text text-anchor="middle" x="1392" y="-8.5" font-family="Helvetica,sans-Serif" font-size="10.00">ZendDbSchema_Db_Schema_AbstractSchema\setValidator</text>
</a>
</g>
<!-- Node4&#45;&gt;Node7 -->
<g id="edge12" class="edge"><title>Node4&#45;&gt;Node7</title>
<path fill="none" stroke="midnightblue" d="M1159.03,-40.4905C1201.95,-35.0575 1254.48,-28.4081 1298.78,-22.7994"/>
<polygon fill="midnightblue" stroke="midnightblue" points="1299.5,-26.2369 1308.98,-21.5087 1298.62,-19.2923 1299.5,-26.2369"/>
</g>
</g>
</svg>
