<?xml version="1.0" encoding="UTF-8" standalone="no"?>
<!DOCTYPE svg PUBLIC "-//W3C//DTD SVG 1.1//EN"
 "http://www.w3.org/Graphics/SVG/1.1/DTD/svg11.dtd">
<!-- Generated by graphviz version 2.26.3 (20100126.1600)
 -->
<!-- Title: G Pages: 1 -->
<svg width="548pt" height="56pt"
 viewBox="0.00 0.00 548.00 56.00" xmlns="http://www.w3.org/2000/svg" xmlns:xlink="http://www.w3.org/1999/xlink">
<g id="graph1" class="graph" transform="scale(1 1) rotate(0) translate(4 52)">
<title>G</title>
<polygon fill="white" stroke="white" points="-4,5 -4,-52 545,-52 545,5 -4,5"/>
<!-- Node1 -->
<g id="node1" class="node"><title>Node1</title>
<polygon fill="#bfbfbf" stroke="black" points="0.5,-0.5 0.5,-47.5 171.5,-47.5 171.5,-0.5 0.5,-0.5"/>
<text text-anchor="start" x="8.5" y="-34.5" font-family="Helvetica,sans-Serif" font-size="10.00">ZendDbSchema_Db_Schema</text>
<text text-anchor="start" x="8.5" y="-21.5" font-family="Helvetica,sans-Serif" font-size="10.00">_Table_DefinitionManager</text>
<text text-anchor="middle" x="86" y="-8.5" font-family="Helvetica,sans-Serif" font-size="10.00">_AbstractManager\_getSchemaKey</text>
</g>
<!-- Node2 -->
<g id="node3" class="node"><title>Node2</title>
<a xlink:href="classZendDbSchema__Db__Schema__Table__DefinitionManager__AbstractManager.html#a7503e344823c2a1e1e3beb80b8541116" target="_top" xlink:title="ZendDbSchema_Db_Schema\l_Table_DefinitionManager\l_AbstractManager\\refresh">
<polygon fill="white" stroke="black" points="208,-0.5 208,-47.5 354,-47.5 354,-0.5 208,-0.5"/>
<text text-anchor="start" x="216" y="-34.5" font-family="Helvetica,sans-Serif" font-size="10.00">ZendDbSchema_Db_Schema</text>
<text text-anchor="start" x="216" y="-21.5" font-family="Helvetica,sans-Serif" font-size="10.00">_Table_DefinitionManager</text>
<text text-anchor="middle" x="281" y="-8.5" font-family="Helvetica,sans-Serif" font-size="10.00">_AbstractManager\refresh</text>
</a>
</g>
<!-- Node1&#45;&gt;Node2 -->
<g id="edge2" class="edge"><title>Node1&#45;&gt;Node2</title>
<path fill="none" stroke="midnightblue" d="M181.76,-24C190.497,-24 199.252,-24 207.745,-24"/>
<polygon fill="midnightblue" stroke="midnightblue" points="181.53,-20.5001 171.53,-24 181.53,-27.5001 181.53,-20.5001"/>
</g>
<!-- Node3 -->
<g id="node5" class="node"><title>Node3</title>
<a xlink:href="classZendDbSchema__Db__Schema__Table__DefinitionManager__AbstractManager.html#a5cf66698784c55ebbd70292e268505af" target="_top" xlink:title="ZendDbSchema_Db_Schema\l_Table_DefinitionManager\l_AbstractManager\\__construct">
<polygon fill="white" stroke="black" points="390,-0.5 390,-47.5 540,-47.5 540,-0.5 390,-0.5"/>
<text text-anchor="start" x="398" y="-34.5" font-family="Helvetica,sans-Serif" font-size="10.00">ZendDbSchema_Db_Schema</text>
<text text-anchor="start" x="398" y="-21.5" font-family="Helvetica,sans-Serif" font-size="10.00">_Table_DefinitionManager</text>
<text text-anchor="middle" x="465" y="-8.5" font-family="Helvetica,sans-Serif" font-size="10.00">_AbstractManager\__construct</text>
</a>
</g>
<!-- Node2&#45;&gt;Node3 -->
<g id="edge4" class="edge"><title>Node2&#45;&gt;Node3</title>
<path fill="none" stroke="midnightblue" d="M364.505,-24C372.968,-24 381.527,-24 389.894,-24"/>
<polygon fill="midnightblue" stroke="midnightblue" points="364.25,-20.5001 354.25,-24 364.25,-27.5001 364.25,-20.5001"/>
</g>
</g>
</svg>
