<?xml version="1.0" encoding="UTF-8" standalone="no"?>
<!DOCTYPE svg PUBLIC "-//W3C//DTD SVG 1.1//EN"
 "http://www.w3.org/Graphics/SVG/1.1/DTD/svg11.dtd">
<!-- Generated by graphviz version 2.26.3 (20100126.1600)
 -->
<!-- Title: G Pages: 1 -->
<svg width="548pt" height="198pt"
 viewBox="0.00 0.00 548.00 198.00" xmlns="http://www.w3.org/2000/svg" xmlns:xlink="http://www.w3.org/1999/xlink">
<g id="graph1" class="graph" transform="scale(1 1) rotate(0) translate(4 194)">
<title>G</title>
<polygon fill="white" stroke="white" points="-4,5 -4,-194 545,-194 545,5 -4,5"/>
<!-- Node1 -->
<g id="node1" class="node"><title>Node1</title>
<polygon fill="#bfbfbf" stroke="black" points="0.5,-78 0.5,-112 147.5,-112 147.5,-78 0.5,-78"/>
<text text-anchor="start" x="8.5" y="-99" font-family="Helvetica,sans-Serif" font-size="10.00">ZendDbSchema_Tool_Project</text>
<text text-anchor="middle" x="74" y="-86" font-family="Helvetica,sans-Serif" font-size="10.00">_Provider_Schema\pull</text>
</g>
<!-- Node2 -->
<g id="node3" class="node"><title>Node2</title>
<a xlink:href="classZendDbSchema__Tool__Project__Provider__Schema.html#a4bfcbf170571b61e24662b9d8bb8c95c" target="_top" xlink:title="ZendDbSchema_Tool_Project\l_Provider_Schema\\_bootstrap">
<polygon fill="white" stroke="black" points="196,-156 196,-190 344,-190 344,-156 196,-156"/>
<text text-anchor="start" x="204" y="-177" font-family="Helvetica,sans-Serif" font-size="10.00">ZendDbSchema_Tool_Project</text>
<text text-anchor="middle" x="270" y="-164" font-family="Helvetica,sans-Serif" font-size="10.00">_Provider_Schema\_bootstrap</text>
</a>
</g>
<!-- Node1&#45;&gt;Node2 -->
<g id="edge2" class="edge"><title>Node1&#45;&gt;Node2</title>
<path fill="none" stroke="midnightblue" d="M106.657,-112.001C128.254,-122.852 157.388,-136.752 184,-147 189.095,-148.962 194.404,-150.873 199.773,-152.711"/>
<polygon fill="midnightblue" stroke="midnightblue" points="198.877,-156.102 209.471,-155.936 201.086,-149.459 198.877,-156.102"/>
</g>
<!-- Node3 -->
<g id="node5" class="node"><title>Node3</title>
<a xlink:href="classZendDbSchema__Tool__Project__Provider__Schema.html#ae00f032a9818a3227d29bde827856256" target="_top" xlink:title="ZendDbSchema_Tool_Project\l_Provider_Schema\\_getSchema">
<polygon fill="white" stroke="black" points="191.5,-104 191.5,-138 348.5,-138 348.5,-104 191.5,-104"/>
<text text-anchor="start" x="199.5" y="-125" font-family="Helvetica,sans-Serif" font-size="10.00">ZendDbSchema_Tool_Project</text>
<text text-anchor="middle" x="270" y="-112" font-family="Helvetica,sans-Serif" font-size="10.00">_Provider_Schema\_getSchema</text>
</a>
</g>
<!-- Node1&#45;&gt;Node3 -->
<g id="edge4" class="edge"><title>Node1&#45;&gt;Node3</title>
<path fill="none" stroke="midnightblue" d="M147.541,-104.755C158.631,-106.227 170.167,-107.757 181.531,-109.264"/>
<polygon fill="midnightblue" stroke="midnightblue" points="181.084,-112.736 191.457,-110.581 182.004,-105.796 181.084,-112.736"/>
</g>
<!-- Node4 -->
<g id="node7" class="node"><title>Node4</title>
<a xlink:href="classZendDbSchema__Tool__Project__Provider__Schema.html#a7ec839cde120f748f3b0d6f24fa56d34" target="_top" xlink:title="ZendDbSchema_Tool_Project\l_Provider_Schema\\_getFilename">
<polygon fill="white" stroke="black" points="189.5,-52 189.5,-86 350.5,-86 350.5,-52 189.5,-52"/>
<text text-anchor="start" x="197.5" y="-73" font-family="Helvetica,sans-Serif" font-size="10.00">ZendDbSchema_Tool_Project</text>
<text text-anchor="middle" x="270" y="-60" font-family="Helvetica,sans-Serif" font-size="10.00">_Provider_Schema\_getFilename</text>
</a>
</g>
<!-- Node1&#45;&gt;Node4 -->
<g id="edge6" class="edge"><title>Node1&#45;&gt;Node4</title>
<path fill="none" stroke="midnightblue" d="M147.541,-85.2446C157.913,-83.8687 168.675,-82.441 179.322,-81.0287"/>
<polygon fill="midnightblue" stroke="midnightblue" points="180.024,-84.4663 189.477,-79.6816 179.104,-77.5271 180.024,-84.4663"/>
</g>
<!-- Node5 -->
<g id="node9" class="node"><title>Node5</title>
<a xlink:href="classZendDbSchema__Tool__Project__Provider__Schema.html#ae23994cc878a689226c458de95a7ecd1" target="_top" xlink:title="ZendDbSchema_Tool_Project\l_Provider_Schema\\createResource">
<polygon fill="white" stroke="black" points="184.5,-0 184.5,-34 355.5,-34 355.5,-0 184.5,-0"/>
<text text-anchor="start" x="192.5" y="-21" font-family="Helvetica,sans-Serif" font-size="10.00">ZendDbSchema_Tool_Project</text>
<text text-anchor="middle" x="270" y="-8" font-family="Helvetica,sans-Serif" font-size="10.00">_Provider_Schema\createResource</text>
</a>
</g>
<!-- Node1&#45;&gt;Node5 -->
<g id="edge8" class="edge"><title>Node1&#45;&gt;Node5</title>
<path fill="none" stroke="midnightblue" d="M106.657,-77.999C128.254,-67.1483 157.388,-53.248 184,-43 189.095,-41.0381 194.404,-39.1267 199.773,-37.2886"/>
<polygon fill="midnightblue" stroke="midnightblue" points="201.086,-40.5406 209.471,-34.0642 198.877,-33.8981 201.086,-40.5406"/>
</g>
<!-- Node6 -->
<g id="node11" class="node"><title>Node6</title>
<a xlink:href="classZendDbSchema__Tool__Project__Provider__Schema.html#a4bab978eff99970636ddf863266e9d96" target="_top" xlink:title="ZendDbSchema_Tool_Project\l_Provider_Schema\\_findfile">
<polygon fill="white" stroke="black" points="392.5,-0 392.5,-34 539.5,-34 539.5,-0 392.5,-0"/>
<text text-anchor="start" x="400.5" y="-21" font-family="Helvetica,sans-Serif" font-size="10.00">ZendDbSchema_Tool_Project</text>
<text text-anchor="middle" x="466" y="-8" font-family="Helvetica,sans-Serif" font-size="10.00">_Provider_Schema\_findfile</text>
</a>
</g>
<!-- Node5&#45;&gt;Node6 -->
<g id="edge10" class="edge"><title>Node5&#45;&gt;Node6</title>
<path fill="none" stroke="midnightblue" d="M355.683,-17C364.494,-17 373.439,-17 382.229,-17"/>
<polygon fill="midnightblue" stroke="midnightblue" points="382.458,-20.5001 392.458,-17 382.458,-13.5001 382.458,-20.5001"/>
</g>
</g>
</svg>
