<?xml version="1.0" encoding="UTF-8" standalone="no"?>
<!DOCTYPE svg PUBLIC "-//W3C//DTD SVG 1.1//EN"
 "http://www.w3.org/Graphics/SVG/1.1/DTD/svg11.dtd">
<!-- Generated by graphviz version 2.26.3 (20100126.1600)
 -->
<!-- Title: G Pages: 1 -->
<svg width="1822pt" height="110pt"
 viewBox="0.00 0.00 1822.00 110.00" xmlns="http://www.w3.org/2000/svg" xmlns:xlink="http://www.w3.org/1999/xlink">
<g id="graph1" class="graph" transform="scale(1 1) rotate(0) translate(4 106)">
<title>G</title>
<polygon fill="white" stroke="white" points="-4,5 -4,-106 1819,-106 1819,5 -4,5"/>
<!-- Node1 -->
<g id="node1" class="node"><title>Node1</title>
<polygon fill="#bfbfbf" stroke="black" points="0,-40.5 0,-61.5 266,-61.5 266,-40.5 0,-40.5"/>
<text text-anchor="middle" x="133" y="-48.5" font-family="Helvetica,sans-Serif" font-size="10.00">ZendDbSchema_Db_Schema_Table_Column\setNullable</text>
</g>
<!-- Node2 -->
<g id="node3" class="node"><title>Node2</title>
<a xlink:href="classZendDbSchema__Db__Schema__AbstractSchema.html#ab4282a1fd6f4d9f23d01de8328072c71" target="_top" xlink:title="ZendDbSchema_Db_Schema_AbstractSchema\\__set">
<polygon fill="white" stroke="black" points="302.5,-40.5 302.5,-61.5 553.5,-61.5 553.5,-40.5 302.5,-40.5"/>
<text text-anchor="middle" x="428" y="-48.5" font-family="Helvetica,sans-Serif" font-size="10.00">ZendDbSchema_Db_Schema_AbstractSchema\__set</text>
</a>
</g>
<!-- Node1&#45;&gt;Node2 -->
<g id="edge2" class="edge"><title>Node1&#45;&gt;Node2</title>
<path fill="none" stroke="midnightblue" d="M266.259,-51C274.82,-51 283.444,-51 292.017,-51"/>
<polygon fill="midnightblue" stroke="midnightblue" points="292.049,-54.5001 302.049,-51 292.049,-47.5001 292.049,-54.5001"/>
</g>
<!-- Node3 -->
<g id="node5" class="node"><title>Node3</title>
<a xlink:href="classZendDbSchema__Db__Schema__AbstractSchema.html#afda46eab0c365f4c9a743b7185c51d6c" target="_top" xlink:title="ZendDbSchema_Db_Schema_AbstractSchema\\getValidator">
<polygon fill="white" stroke="black" points="590.5,-40.5 590.5,-61.5 869.5,-61.5 869.5,-40.5 590.5,-40.5"/>
<text text-anchor="middle" x="730" y="-48.5" font-family="Helvetica,sans-Serif" font-size="10.00">ZendDbSchema_Db_Schema_AbstractSchema\getValidator</text>
</a>
</g>
<!-- Node2&#45;&gt;Node3 -->
<g id="edge4" class="edge"><title>Node2&#45;&gt;Node3</title>
<path fill="none" stroke="midnightblue" d="M553.888,-51C562.497,-51 571.217,-51 579.933,-51"/>
<polygon fill="midnightblue" stroke="midnightblue" points="580.156,-54.5001 590.156,-51 580.156,-47.5001 580.156,-54.5001"/>
</g>
<!-- Node4 -->
<g id="node7" class="node"><title>Node4</title>
<a xlink:href="classZendDbSchema__Db__Schema__AbstractSchema.html#a47d95912f6bf6d26d023597887dafacb" target="_top" xlink:title="ZendDbSchema_Db_Schema_AbstractSchema\\getAdapter">
<polygon fill="white" stroke="black" points="906.5,-40.5 906.5,-61.5 1181.5,-61.5 1181.5,-40.5 906.5,-40.5"/>
<text text-anchor="middle" x="1044" y="-48.5" font-family="Helvetica,sans-Serif" font-size="10.00">ZendDbSchema_Db_Schema_AbstractSchema\getAdapter</text>
</a>
</g>
<!-- Node3&#45;&gt;Node4 -->
<g id="edge6" class="edge"><title>Node3&#45;&gt;Node4</title>
<path fill="none" stroke="midnightblue" d="M869.554,-51C878.265,-51 887.05,-51 895.797,-51"/>
<polygon fill="midnightblue" stroke="midnightblue" points="896.043,-54.5001 906.043,-51 896.043,-47.5001 896.043,-54.5001"/>
</g>
<!-- Node5 -->
<g id="node9" class="node"><title>Node5</title>
<a xlink:href="classZendDbSchema__Db__Schema__AbstractSchema.html#a6349649e5e09d67a5b5e0abe96298db8" target="_top" xlink:title="ZendDbSchema_Db_Schema_AbstractSchema\\setAdapter">
<polygon fill="white" stroke="black" points="1218.5,-40.5 1218.5,-61.5 1493.5,-61.5 1493.5,-40.5 1218.5,-40.5"/>
<text text-anchor="middle" x="1356" y="-48.5" font-family="Helvetica,sans-Serif" font-size="10.00">ZendDbSchema_Db_Schema_AbstractSchema\setAdapter</text>
</a>
</g>
<!-- Node4&#45;&gt;Node5 -->
<g id="edge8" class="edge"><title>Node4&#45;&gt;Node5</title>
<path fill="none" stroke="midnightblue" d="M1181.76,-51C1190.44,-51 1199.2,-51 1207.92,-51"/>
<polygon fill="midnightblue" stroke="midnightblue" points="1208.14,-54.5001 1218.14,-51 1208.14,-47.5001 1208.14,-54.5001"/>
</g>
<!-- Node6 -->
<g id="node11" class="node"><title>Node6</title>
<a xlink:href="classZendDbSchema__Db__Schema__AbstractSchema.html#a53a1974dbc8822792a8d7b9c618d3a02" target="_top" xlink:title="ZendDbSchema_Db_Schema_AbstractSchema\\setGenerator">
<polygon fill="white" stroke="black" points="1530,-80.5 1530,-101.5 1814,-101.5 1814,-80.5 1530,-80.5"/>
<text text-anchor="middle" x="1672" y="-88.5" font-family="Helvetica,sans-Serif" font-size="10.00">ZendDbSchema_Db_Schema_AbstractSchema\setGenerator</text>
</a>
</g>
<!-- Node5&#45;&gt;Node6 -->
<g id="edge10" class="edge"><title>Node5&#45;&gt;Node6</title>
<path fill="none" stroke="midnightblue" d="M1439.03,-61.5095C1481.95,-66.9425 1534.48,-73.5919 1578.78,-79.2006"/>
<polygon fill="midnightblue" stroke="midnightblue" points="1578.62,-82.7077 1588.98,-80.4913 1579.5,-75.7631 1578.62,-82.7077"/>
</g>
<!-- Node7 -->
<g id="node13" class="node"><title>Node7</title>
<a xlink:href="classZendDbSchema__Db__Schema__AbstractSchema.html#aa0e6c9f8d58702dc41d988f064f62698" target="_top" xlink:title="ZendDbSchema_Db_Schema_AbstractSchema\\setParser">
<polygon fill="white" stroke="black" points="1537.5,-40.5 1537.5,-61.5 1806.5,-61.5 1806.5,-40.5 1537.5,-40.5"/>
<text text-anchor="middle" x="1672" y="-48.5" font-family="Helvetica,sans-Serif" font-size="10.00">ZendDbSchema_Db_Schema_AbstractSchema\setParser</text>
</a>
</g>
<!-- Node5&#45;&gt;Node7 -->
<g id="edge12" class="edge"><title>Node5&#45;&gt;Node7</title>
<path fill="none" stroke="midnightblue" d="M1493.68,-51C1504.76,-51 1515.98,-51 1527.1,-51"/>
<polygon fill="midnightblue" stroke="midnightblue" points="1527.29,-54.5001 1537.29,-51 1527.29,-47.5001 1527.29,-54.5001"/>
</g>
<!-- Node8 -->
<g id="node15" class="node"><title>Node8</title>
<a xlink:href="classZendDbSchema__Db__Schema__AbstractSchema.html#ac0161e2c24dafba8433fb86205a147fe" target="_top" xlink:title="ZendDbSchema_Db_Schema_AbstractSchema\\setValidator">
<polygon fill="white" stroke="black" points="1532.5,-0.5 1532.5,-21.5 1811.5,-21.5 1811.5,-0.5 1532.5,-0.5"/>
<text text-anchor="middle" x="1672" y="-8.5" font-family="Helvetica,sans-Serif" font-size="10.00">ZendDbSchema_Db_Schema_AbstractSchema\setValidator</text>
</a>
</g>
<!-- Node5&#45;&gt;Node8 -->
<g id="edge14" class="edge"><title>Node5&#45;&gt;Node8</title>
<path fill="none" stroke="midnightblue" d="M1439.03,-40.4905C1481.95,-35.0575 1534.48,-28.4081 1578.78,-22.7994"/>
<polygon fill="midnightblue" stroke="midnightblue" points="1579.5,-26.2369 1588.98,-21.5087 1578.62,-19.2923 1579.5,-26.2369"/>
</g>
</g>
</svg>
