<?xml version="1.0" encoding="UTF-8" standalone="no"?>
<!DOCTYPE svg PUBLIC "-//W3C//DTD SVG 1.1//EN"
 "http://www.w3.org/Graphics/SVG/1.1/DTD/svg11.dtd">
<!-- Generated by graphviz version 2.26.3 (20100126.1600)
 -->
<!-- Title: G Pages: 1 -->
<svg width="826pt" height="30pt"
 viewBox="0.00 0.00 826.00 30.00" xmlns="http://www.w3.org/2000/svg" xmlns:xlink="http://www.w3.org/1999/xlink">
<g id="graph1" class="graph" transform="scale(1 1) rotate(0) translate(4 26)">
<title>G</title>
<polygon fill="white" stroke="white" points="-4,5 -4,-26 823,-26 823,5 -4,5"/>
<!-- Node1 -->
<g id="node1" class="node"><title>Node1</title>
<polygon fill="#bfbfbf" stroke="black" points="0,-0.5 0,-21.5 270,-21.5 270,-0.5 0,-0.5"/>
<text text-anchor="middle" x="135" y="-8.5" font-family="Helvetica,sans-Serif" font-size="10.00">ZendDbSchema_Db_Schema_AbstractEntity\_getAlterSql</text>
</g>
<!-- Node2 -->
<g id="node3" class="node"><title>Node2</title>
<a xlink:href="classZendDbSchema__Db__Schema__AbstractEntity.html#a22dab8db0a3727fb5c12ce5933c2f82e" target="_top" xlink:title="ZendDbSchema_Db_Schema_AbstractEntity\\toSql">
<polygon fill="white" stroke="black" points="306.5,-0.5 306.5,-21.5 545.5,-21.5 545.5,-0.5 306.5,-0.5"/>
<text text-anchor="middle" x="426" y="-8.5" font-family="Helvetica,sans-Serif" font-size="10.00">ZendDbSchema_Db_Schema_AbstractEntity\toSql</text>
</a>
</g>
<!-- Node1&#45;&gt;Node2 -->
<g id="edge2" class="edge"><title>Node1&#45;&gt;Node2</title>
<path fill="none" stroke="midnightblue" d="M280.436,-11C289.096,-11 297.756,-11 306.294,-11"/>
<polygon fill="midnightblue" stroke="midnightblue" points="280.277,-7.5001 270.277,-11 280.277,-14.5001 280.277,-7.5001"/>
</g>
<!-- Node3 -->
<g id="node5" class="node"><title>Node3</title>
<a xlink:href="classZendDbSchema__Db__Schema__Database.html#ab6d2c76fffa17e1773287588fc91a5f5" target="_top" xlink:title="ZendDbSchema_Db_Schema_Database\\_doSave">
<polygon fill="white" stroke="black" points="582.5,-0.5 582.5,-21.5 817.5,-21.5 817.5,-0.5 582.5,-0.5"/>
<text text-anchor="middle" x="700" y="-8.5" font-family="Helvetica,sans-Serif" font-size="10.00">ZendDbSchema_Db_Schema_Database\_doSave</text>
</a>
</g>
<!-- Node2&#45;&gt;Node3 -->
<g id="edge4" class="edge"><title>Node2&#45;&gt;Node3</title>
<path fill="none" stroke="midnightblue" d="M556.023,-11C564.768,-11 573.552,-11 582.231,-11"/>
<polygon fill="midnightblue" stroke="midnightblue" points="555.782,-7.5001 545.782,-11 555.782,-14.5001 555.782,-7.5001"/>
</g>
</g>
</svg>
