<?xml version="1.0" encoding="UTF-8" standalone="no"?>
<!DOCTYPE svg PUBLIC "-//W3C//DTD SVG 1.1//EN"
 "http://www.w3.org/Graphics/SVG/1.1/DTD/svg11.dtd">
<!-- Generated by graphviz version 2.26.3 (20100126.1600)
 -->
<!-- Title: G Pages: 1 -->
<svg width="340pt" height="56pt"
 viewBox="0.00 0.00 340.00 56.00" xmlns="http://www.w3.org/2000/svg" xmlns:xlink="http://www.w3.org/1999/xlink">
<g id="graph1" class="graph" transform="scale(1 1) rotate(0) translate(4 52)">
<title>G</title>
<polygon fill="white" stroke="white" points="-4,5 -4,-52 337,-52 337,5 -4,5"/>
<!-- Node1 -->
<g id="node1" class="node"><title>Node1</title>
<polygon fill="#bfbfbf" stroke="black" points="0.5,-0.5 0.5,-47.5 147.5,-47.5 147.5,-0.5 0.5,-0.5"/>
<text text-anchor="start" x="8.5" y="-34.5" font-family="Helvetica,sans-Serif" font-size="10.00">ZendDbSchema_Tool_Project</text>
<text text-anchor="start" x="8.5" y="-21.5" font-family="Helvetica,sans-Serif" font-size="10.00">_Context_Migration_Directory</text>
<text text-anchor="middle" x="74" y="-8.5" font-family="Helvetica,sans-Serif" font-size="10.00">\getVersion</text>
</g>
<!-- Node2 -->
<g id="node3" class="node"><title>Node2</title>
<a xlink:href="classZendDbSchema__Tool__Project__Context__Migration__Directory.html#a8d8f5a5f33ede8a65548650bea56f999" target="_top" xlink:title="ZendDbSchema_Tool_Project\l_Context_Migration_Directory\l\\getPersistentAttributes">
<polygon fill="white" stroke="black" points="184.5,-0.5 184.5,-47.5 331.5,-47.5 331.5,-0.5 184.5,-0.5"/>
<text text-anchor="start" x="192.5" y="-34.5" font-family="Helvetica,sans-Serif" font-size="10.00">ZendDbSchema_Tool_Project</text>
<text text-anchor="start" x="192.5" y="-21.5" font-family="Helvetica,sans-Serif" font-size="10.00">_Context_Migration_Directory</text>
<text text-anchor="middle" x="258" y="-8.5" font-family="Helvetica,sans-Serif" font-size="10.00">\getPersistentAttributes</text>
</a>
</g>
<!-- Node1&#45;&gt;Node2 -->
<g id="edge2" class="edge"><title>Node1&#45;&gt;Node2</title>
<path fill="none" stroke="midnightblue" d="M157.533,-24C166.462,-24 175.498,-24 184.302,-24"/>
<polygon fill="midnightblue" stroke="midnightblue" points="157.515,-20.5001 147.515,-24 157.515,-27.5001 157.515,-20.5001"/>
</g>
</g>
</svg>
