<?xml version="1.0" encoding="UTF-8" standalone="no"?>
<!DOCTYPE svg PUBLIC "-//W3C//DTD SVG 1.1//EN"
 "http://www.w3.org/Graphics/SVG/1.1/DTD/svg11.dtd">
<!-- Generated by graphviz version 2.26.3 (20100126.1600)
 -->
<!-- Title: G Pages: 1 -->
<svg width="540pt" height="94pt"
 viewBox="0.00 0.00 540.00 94.00" xmlns="http://www.w3.org/2000/svg" xmlns:xlink="http://www.w3.org/1999/xlink">
<g id="graph1" class="graph" transform="scale(1 1) rotate(0) translate(4 90)">
<title>G</title>
<polygon fill="white" stroke="white" points="-4,5 -4,-90 537,-90 537,5 -4,5"/>
<!-- Node1 -->
<g id="node1" class="node"><title>Node1</title>
<polygon fill="#bfbfbf" stroke="black" points="0.5,-26 0.5,-60 157.5,-60 157.5,-26 0.5,-26"/>
<text text-anchor="start" x="8.5" y="-47" font-family="Helvetica,sans-Serif" font-size="10.00">ZendDbSchema_Db_Schema</text>
<text text-anchor="middle" x="79" y="-34" font-family="Helvetica,sans-Serif" font-size="10.00">_AbstractSchema\setFromArray</text>
</g>
<!-- Node2 -->
<g id="node3" class="node"><title>Node2</title>
<a xlink:href="classZendDbSchema__Db__Schema__AbstractSchema.html#a84673a5d69f10fec5b31294bf53f6d56" target="_top" xlink:title="ZendDbSchema_Db_Schema\l_AbstractSchema\\refresh">
<polygon fill="white" stroke="black" points="194,-26 194,-60 340,-60 340,-26 194,-26"/>
<text text-anchor="start" x="202" y="-47" font-family="Helvetica,sans-Serif" font-size="10.00">ZendDbSchema_Db_Schema</text>
<text text-anchor="middle" x="267" y="-34" font-family="Helvetica,sans-Serif" font-size="10.00">_AbstractSchema\refresh</text>
</a>
</g>
<!-- Node1&#45;&gt;Node2 -->
<g id="edge2" class="edge"><title>Node1&#45;&gt;Node2</title>
<path fill="none" stroke="midnightblue" d="M167.806,-43C176.504,-43 185.262,-43 193.78,-43"/>
<polygon fill="midnightblue" stroke="midnightblue" points="167.64,-39.5001 157.64,-43 167.64,-46.5001 167.64,-39.5001"/>
</g>
<!-- Node3 -->
<g id="node5" class="node"><title>Node3</title>
<a xlink:href="classZendDbSchema__Db__Schema__Table__PrimaryKey.html#a8189591ab7ced58307298ecc8f27779d" target="_top" xlink:title="ZendDbSchema_Db_Schema\l_Table_PrimaryKey\\__construct">
<polygon fill="white" stroke="black" points="376,-52 376,-86 532,-86 532,-52 376,-52"/>
<text text-anchor="start" x="384" y="-73" font-family="Helvetica,sans-Serif" font-size="10.00">ZendDbSchema_Db_Schema</text>
<text text-anchor="middle" x="454" y="-60" font-family="Helvetica,sans-Serif" font-size="10.00">_Table_PrimaryKey\__construct</text>
</a>
</g>
<!-- Node2&#45;&gt;Node3 -->
<g id="edge4" class="edge"><title>Node2&#45;&gt;Node3</title>
<path fill="none" stroke="midnightblue" d="M350.044,-54.5463C358.574,-55.7322 367.221,-56.9345 375.697,-58.113"/>
<polygon fill="midnightblue" stroke="midnightblue" points="350.489,-51.0745 340.103,-53.164 349.525,-58.0079 350.489,-51.0745"/>
</g>
<!-- Node4 -->
<g id="node7" class="node"><title>Node4</title>
<a xlink:href="classZendDbSchema__Db__Schema__AbstractSchema.html#a95b8986f7fa3a4e26be024d3a621e4f6" target="_top" xlink:title="ZendDbSchema_Db_Schema\l_AbstractSchema\\__construct">
<polygon fill="white" stroke="black" points="379.5,-0 379.5,-34 528.5,-34 528.5,-0 379.5,-0"/>
<text text-anchor="start" x="387.5" y="-21" font-family="Helvetica,sans-Serif" font-size="10.00">ZendDbSchema_Db_Schema</text>
<text text-anchor="middle" x="454" y="-8" font-family="Helvetica,sans-Serif" font-size="10.00">_AbstractSchema\__construct</text>
</a>
</g>
<!-- Node2&#45;&gt;Node4 -->
<g id="edge6" class="edge"><title>Node2&#45;&gt;Node4</title>
<path fill="none" stroke="midnightblue" d="M350.176,-31.4354C359.912,-30.0817 369.8,-28.707 379.409,-27.3709"/>
<polygon fill="midnightblue" stroke="midnightblue" points="349.525,-27.9921 340.103,-32.836 350.489,-34.9255 349.525,-27.9921"/>
</g>
</g>
</svg>
