<?xml version="1.0" encoding="UTF-8" standalone="no"?>
<!DOCTYPE svg PUBLIC "-//W3C//DTD SVG 1.1//EN"
 "http://www.w3.org/Graphics/SVG/1.1/DTD/svg11.dtd">
<!-- Generated by graphviz version 2.26.3 (20100126.1600)
 -->
<!-- Title: G Pages: 1 -->
<svg width="528pt" height="42pt"
 viewBox="0.00 0.00 528.00 42.00" xmlns="http://www.w3.org/2000/svg" xmlns:xlink="http://www.w3.org/1999/xlink">
<g id="graph1" class="graph" transform="scale(1 1) rotate(0) translate(4 38)">
<title>G</title>
<polygon fill="white" stroke="white" points="-4,5 -4,-38 525,-38 525,5 -4,5"/>
<!-- Node1 -->
<g id="node1" class="node"><title>Node1</title>
<polygon fill="#bfbfbf" stroke="black" points="0.5,-0 0.5,-34 147.5,-34 147.5,-0 0.5,-0"/>
<text text-anchor="start" x="8.5" y="-21" font-family="Helvetica,sans-Serif" font-size="10.00">ZendDbSchema_Tool_Project</text>
<text text-anchor="middle" x="74" y="-8" font-family="Helvetica,sans-Serif" font-size="10.00">_Provider_Migration\show</text>
</g>
<!-- Node2 -->
<g id="node3" class="node"><title>Node2</title>
<a xlink:href="classZendDbSchema__Db__Migration__Change.html#abd5253380521e63e91099a6ab3b89387" target="_top" xlink:title="ZendDbSchema_Db_Migration\l_Change\\fromFile">
<polygon fill="white" stroke="black" points="184,-0 184,-34 334,-34 334,-0 184,-0"/>
<text text-anchor="start" x="192" y="-21" font-family="Helvetica,sans-Serif" font-size="10.00">ZendDbSchema_Db_Migration</text>
<text text-anchor="middle" x="259" y="-8" font-family="Helvetica,sans-Serif" font-size="10.00">_Change\fromFile</text>
</a>
</g>
<!-- Node1&#45;&gt;Node2 -->
<g id="edge2" class="edge"><title>Node1&#45;&gt;Node2</title>
<path fill="none" stroke="midnightblue" d="M147.648,-17C156.194,-17 164.965,-17 173.65,-17"/>
<polygon fill="midnightblue" stroke="midnightblue" points="173.789,-20.5001 183.789,-17 173.789,-13.5001 173.789,-20.5001"/>
</g>
<!-- Node3 -->
<g id="node5" class="node"><title>Node3</title>
<a xlink:href="classZendDbSchema__Db__Migration__Skeleton.html#a5846d949a449ef981b1c1e1be9eed03a" target="_top" xlink:title="ZendDbSchema_Db_Migration\l_Skeleton\\getClassName">
<polygon fill="white" stroke="black" points="370,-0 370,-34 520,-34 520,-0 370,-0"/>
<text text-anchor="start" x="378" y="-21" font-family="Helvetica,sans-Serif" font-size="10.00">ZendDbSchema_Db_Migration</text>
<text text-anchor="middle" x="445" y="-8" font-family="Helvetica,sans-Serif" font-size="10.00">_Skeleton\getClassName</text>
</a>
</g>
<!-- Node2&#45;&gt;Node3 -->
<g id="edge4" class="edge"><title>Node2&#45;&gt;Node3</title>
<path fill="none" stroke="midnightblue" d="M334.117,-17C342.596,-17 351.281,-17 359.875,-17"/>
<polygon fill="midnightblue" stroke="midnightblue" points="359.905,-20.5001 369.905,-17 359.905,-13.5001 359.905,-20.5001"/>
</g>
</g>
</svg>
