<?xml version="1.0" encoding="UTF-8" standalone="no"?>
<!DOCTYPE svg PUBLIC "-//W3C//DTD SVG 1.1//EN"
 "http://www.w3.org/Graphics/SVG/1.1/DTD/svg11.dtd">
<!-- Generated by graphviz version 2.26.3 (20100126.1600)
 -->
<!-- Title: G Pages: 1 -->
<svg width="1274pt" height="30pt"
 viewBox="0.00 0.00 1274.00 30.00" xmlns="http://www.w3.org/2000/svg" xmlns:xlink="http://www.w3.org/1999/xlink">
<g id="graph1" class="graph" transform="scale(1 1) rotate(0) translate(4 26)">
<title>G</title>
<polygon fill="white" stroke="white" points="-4,5 -4,-26 1271,-26 1271,5 -4,5"/>
<!-- Node1 -->
<g id="node1" class="node"><title>Node1</title>
<polygon fill="#bfbfbf" stroke="black" points="0,-0.5 0,-21.5 290,-21.5 290,-0.5 0,-0.5"/>
<text text-anchor="middle" x="145" y="-8.5" font-family="Helvetica,sans-Serif" font-size="10.00">ZendDbSchema_Db_Schema_Generator_Mysql\dropDatabase</text>
</g>
<!-- Node2 -->
<g id="node3" class="node"><title>Node2</title>
<a xlink:href="classZendDbSchema__Db__Schema__AbstractSchema.html#a1680a8fd22360f74d29b641d7257a52f" target="_top" xlink:title="ZendDbSchema_Db_Schema_AbstractSchema\\isExist">
<polygon fill="white" stroke="black" points="326.5,-0.5 326.5,-21.5 583.5,-21.5 583.5,-0.5 326.5,-0.5"/>
<text text-anchor="middle" x="455" y="-8.5" font-family="Helvetica,sans-Serif" font-size="10.00">ZendDbSchema_Db_Schema_AbstractSchema\isExist</text>
</a>
</g>
<!-- Node1&#45;&gt;Node2 -->
<g id="edge2" class="edge"><title>Node1&#45;&gt;Node2</title>
<path fill="none" stroke="midnightblue" d="M290.016,-11C298.737,-11 307.5,-11 316.195,-11"/>
<polygon fill="midnightblue" stroke="midnightblue" points="316.364,-14.5001 326.364,-11 316.364,-7.5001 316.364,-14.5001"/>
</g>
<!-- Node3 -->
<g id="node5" class="node"><title>Node3</title>
<a xlink:href="classZendDbSchema__Db__Schema__AbstractSchema.html#a46da7a60c7e5fd605607afbc1dac4baa" target="_top" xlink:title="ZendDbSchema_Db_Schema_AbstractSchema\\getCleanSchema">
<polygon fill="white" stroke="black" points="620,-0.5 620,-21.5 922,-21.5 922,-0.5 620,-0.5"/>
<text text-anchor="middle" x="771" y="-8.5" font-family="Helvetica,sans-Serif" font-size="10.00">ZendDbSchema_Db_Schema_AbstractSchema\getCleanSchema</text>
</a>
</g>
<!-- Node2&#45;&gt;Node3 -->
<g id="edge4" class="edge"><title>Node2&#45;&gt;Node3</title>
<path fill="none" stroke="midnightblue" d="M583.529,-11C592.126,-11 600.844,-11 609.576,-11"/>
<polygon fill="midnightblue" stroke="midnightblue" points="609.826,-14.5001 619.826,-11 609.826,-7.5001 609.826,-14.5001"/>
</g>
<!-- Node4 -->
<g id="node7" class="node"><title>Node4</title>
<a xlink:href="classZendDbSchema__Db__Schema__AbstractSchema.html#af99e5bb9adfe0da8c94d3d3848efe7b5" target="_top" xlink:title="ZendDbSchema_Db_Schema_AbstractSchema\\_getCleanSchema">
<polygon fill="white" stroke="black" points="958,-0.5 958,-21.5 1266,-21.5 1266,-0.5 958,-0.5"/>
<text text-anchor="middle" x="1112" y="-8.5" font-family="Helvetica,sans-Serif" font-size="10.00">ZendDbSchema_Db_Schema_AbstractSchema\_getCleanSchema</text>
</a>
</g>
<!-- Node3&#45;&gt;Node4 -->
<g id="edge6" class="edge"><title>Node3&#45;&gt;Node4</title>
<path fill="none" stroke="midnightblue" d="M922.057,-11C930.572,-11 939.152,-11 947.712,-11"/>
<polygon fill="midnightblue" stroke="midnightblue" points="947.745,-14.5001 957.745,-11 947.745,-7.5001 947.745,-14.5001"/>
</g>
</g>
</svg>
