<?xml version="1.0" encoding="UTF-8" standalone="no"?>
<!DOCTYPE svg PUBLIC "-//W3C//DTD SVG 1.1//EN"
 "http://www.w3.org/Graphics/SVG/1.1/DTD/svg11.dtd">
<!-- Generated by graphviz version 2.26.3 (20100126.1600)
 -->
<!-- Title: G Pages: 1 -->
<svg width="1054pt" height="30pt"
 viewBox="0.00 0.00 1054.00 30.00" xmlns="http://www.w3.org/2000/svg" xmlns:xlink="http://www.w3.org/1999/xlink">
<g id="graph1" class="graph" transform="scale(1 1) rotate(0) translate(4 26)">
<title>G</title>
<polygon fill="white" stroke="white" points="-4,5 -4,-26 1051,-26 1051,5 -4,5"/>
<!-- Node1 -->
<g id="node1" class="node"><title>Node1</title>
<polygon fill="#bfbfbf" stroke="black" points="0,-0.5 0,-21.5 292,-21.5 292,-0.5 0,-0.5"/>
<text text-anchor="middle" x="146" y="-8.5" font-family="Helvetica,sans-Serif" font-size="10.00">ZendDbSchema_Db_Schema_Table_ForeignKey\getReference</text>
</g>
<!-- Node2 -->
<g id="node3" class="node"><title>Node2</title>
<a xlink:href="classZendDbSchema__Db__Schema__Generator__Mysql.html#a94215da08d94b0c784d2786c468f456b" target="_top" xlink:title="ZendDbSchema_Db_Schema_Generator_Mysql\\generateForeignKeyCreate">
<polygon fill="white" stroke="black" points="328.5,-0.5 328.5,-21.5 673.5,-21.5 673.5,-0.5 328.5,-0.5"/>
<text text-anchor="middle" x="501" y="-8.5" font-family="Helvetica,sans-Serif" font-size="10.00">ZendDbSchema_Db_Schema_Generator_Mysql\generateForeignKeyCreate</text>
</a>
</g>
<!-- Node1&#45;&gt;Node2 -->
<g id="edge2" class="edge"><title>Node1&#45;&gt;Node2</title>
<path fill="none" stroke="midnightblue" d="M302.305,-11C310.956,-11 319.676,-11 328.38,-11"/>
<polygon fill="midnightblue" stroke="midnightblue" points="302.185,-7.5001 292.185,-11 302.185,-14.5001 302.185,-7.5001"/>
</g>
<!-- Node3 -->
<g id="node5" class="node"><title>Node3</title>
<a xlink:href="classZendDbSchema__Db__Schema__Generator__Mysql.html#a60ba85904cc9f2db5a32db830067f44a" target="_top" xlink:title="ZendDbSchema_Db_Schema_Generator_Mysql\\generateForeignKeyAlter">
<polygon fill="white" stroke="black" points="710,-0.5 710,-21.5 1046,-21.5 1046,-0.5 710,-0.5"/>
<text text-anchor="middle" x="878" y="-8.5" font-family="Helvetica,sans-Serif" font-size="10.00">ZendDbSchema_Db_Schema_Generator_Mysql\generateForeignKeyAlter</text>
</a>
</g>
<!-- Node2&#45;&gt;Node3 -->
<g id="edge4" class="edge"><title>Node2&#45;&gt;Node3</title>
<path fill="none" stroke="midnightblue" d="M683.743,-11C692.477,-11 701.228,-11 709.92,-11"/>
<polygon fill="midnightblue" stroke="midnightblue" points="683.502,-7.5001 673.502,-11 683.502,-14.5001 683.502,-7.5001"/>
</g>
</g>
</svg>
