<?xml version="1.0" encoding="UTF-8" standalone="no"?>
<!DOCTYPE svg PUBLIC "-//W3C//DTD SVG 1.1//EN"
 "http://www.w3.org/Graphics/SVG/1.1/DTD/svg11.dtd">
<!-- Generated by graphviz version 2.26.3 (20100126.1600)
 -->
<!-- Title: G Pages: 1 -->
<svg width="548pt" height="70pt"
 viewBox="0.00 0.00 548.00 70.00" xmlns="http://www.w3.org/2000/svg" xmlns:xlink="http://www.w3.org/1999/xlink">
<g id="graph1" class="graph" transform="scale(1 1) rotate(0) translate(4 66)">
<title>G</title>
<polygon fill="white" stroke="white" points="-4,5 -4,-66 545,-66 545,5 -4,5"/>
<!-- Node1 -->
<g id="node1" class="node"><title>Node1</title>
<polygon fill="#bfbfbf" stroke="black" points="0,-20.5 0,-41.5 260,-41.5 260,-20.5 0,-20.5"/>
<text text-anchor="middle" x="130" y="-28.5" font-family="Helvetica,sans-Serif" font-size="10.00">ZendDbSchema_Db_Schema_AbstractEntity\getLoader</text>
</g>
<!-- Node2 -->
<g id="node3" class="node"><title>Node2</title>
<a xlink:href="classZendDbSchema__Db__Schema__Database.html#aad388b374fd5913946204230760b2d86" target="_top" xlink:title="ZendDbSchema_Db_Schema_Database\\_doReload">
<polygon fill="white" stroke="black" points="296.5,-40.5 296.5,-61.5 539.5,-61.5 539.5,-40.5 296.5,-40.5"/>
<text text-anchor="middle" x="418" y="-48.5" font-family="Helvetica,sans-Serif" font-size="10.00">ZendDbSchema_Db_Schema_Database\_doReload</text>
</a>
</g>
<!-- Node1&#45;&gt;Node2 -->
<g id="edge2" class="edge"><title>Node1&#45;&gt;Node2</title>
<path fill="none" stroke="midnightblue" d="M270.309,-40.7437C279.021,-41.3487 287.751,-41.9549 296.372,-42.5536"/>
<polygon fill="midnightblue" stroke="midnightblue" points="270.316,-37.2358 260.097,-40.0345 269.831,-44.219 270.316,-37.2358"/>
</g>
<!-- Node3 -->
<g id="node5" class="node"><title>Node3</title>
<a xlink:href="classZendDbSchema__Db__Schema__Table.html#abc05b1f219611fefdd0e9eaeff1761d9" target="_top" xlink:title="ZendDbSchema_Db_Schema_Table\\_doReload">
<polygon fill="white" stroke="black" points="305.5,-0.5 305.5,-21.5 530.5,-21.5 530.5,-0.5 305.5,-0.5"/>
<text text-anchor="middle" x="418" y="-8.5" font-family="Helvetica,sans-Serif" font-size="10.00">ZendDbSchema_Db_Schema_Table\_doReload</text>
</a>
</g>
<!-- Node1&#45;&gt;Node3 -->
<g id="edge4" class="edge"><title>Node1&#45;&gt;Node3</title>
<path fill="none" stroke="midnightblue" d="M270.354,-21.2532C282.044,-20.4414 293.766,-19.6273 305.212,-18.8325"/>
<polygon fill="midnightblue" stroke="midnightblue" points="269.831,-17.781 260.097,-21.9655 270.316,-24.7642 269.831,-17.781"/>
</g>
</g>
</svg>
