<?xml version="1.0" encoding="UTF-8" standalone="no"?>
<!DOCTYPE svg PUBLIC "-//W3C//DTD SVG 1.1//EN"
 "http://www.w3.org/Graphics/SVG/1.1/DTD/svg11.dtd">
<!-- Generated by graphviz version 2.26.3 (20100126.1600)
 -->
<!-- Title: G Pages: 1 -->
<svg width="154pt" height="252pt"
 viewBox="0.00 0.00 154.00 252.00" xmlns="http://www.w3.org/2000/svg" xmlns:xlink="http://www.w3.org/1999/xlink">
<g id="graph1" class="graph" transform="scale(1 1) rotate(0) translate(4 248)">
<title>G</title>
<polygon fill="white" stroke="white" points="-4,5 -4,-248 151,-248 151,5 -4,5"/>
<!-- Node1 -->
<g id="node1" class="node"><title>Node1</title>
<polygon fill="#bfbfbf" stroke="black" points="0,-1 0,-103 146,-103 146,-1 0,-1"/>
<text text-anchor="start" x="8" y="-90" font-family="Helvetica,sans-Serif" font-size="10.00">ZendDbSchema_Db_Schema</text>
<text text-anchor="middle" x="73" y="-77" font-family="Helvetica,sans-Serif" font-size="10.00">_Generator_Pgsql_Database</text>
<polyline fill="none" stroke="black" points="0,-69 146,-69 "/>
<text text-anchor="middle" x="73" y="-56" font-family="Helvetica,sans-Serif" font-size="10.00"> </text>
<polyline fill="none" stroke="black" points="0,-48 146,-48 "/>
<text text-anchor="start" x="8" y="-35" font-family="Helvetica,sans-Serif" font-size="10.00">+ createDatabase()</text>
<text text-anchor="start" x="8" y="-22" font-family="Helvetica,sans-Serif" font-size="10.00">+ alterDatabase()</text>
<text text-anchor="start" x="8" y="-9" font-family="Helvetica,sans-Serif" font-size="10.00">+ dropDatabase()</text>
</g>
<!-- Node2 -->
<g id="node2" class="node"><title>Node2</title>
<a xlink:href="interfaceZendDbSchema__Db__Schema__Generator__Database.html" target="_top" xlink:title="{ZendDbSchema_Db_Schema\l_Generator_Database\n||+ createDatabase()\l+ alterDatabase()\l+ dropDatabase()\l}">
<polygon fill="white" stroke="black" points="0,-141 0,-243 146,-243 146,-141 0,-141"/>
<text text-anchor="start" x="8" y="-230" font-family="Helvetica,sans-Serif" font-size="10.00">ZendDbSchema_Db_Schema</text>
<text text-anchor="middle" x="73" y="-217" font-family="Helvetica,sans-Serif" font-size="10.00">_Generator_Database</text>
<polyline fill="none" stroke="black" points="0,-209 146,-209 "/>
<text text-anchor="middle" x="73" y="-196" font-family="Helvetica,sans-Serif" font-size="10.00"> </text>
<polyline fill="none" stroke="black" points="0,-188 146,-188 "/>
<text text-anchor="start" x="8" y="-175" font-family="Helvetica,sans-Serif" font-size="10.00">+ createDatabase()</text>
<text text-anchor="start" x="8" y="-162" font-family="Helvetica,sans-Serif" font-size="10.00">+ alterDatabase()</text>
<text text-anchor="start" x="8" y="-149" font-family="Helvetica,sans-Serif" font-size="10.00">+ dropDatabase()</text>
</a>
</g>
<!-- Node2&#45;&gt;Node1 -->
<g id="edge2" class="edge"><title>Node2&#45;&gt;Node1</title>
<path fill="none" stroke="midnightblue" d="M73,-130.529C73,-121.449 73,-112.175 73,-103.33"/>
<polygon fill="none" stroke="midnightblue" points="69.5001,-130.664 73,-140.664 76.5001,-130.664 69.5001,-130.664"/>
</g>
</g>
</svg>
