<?xml version="1.0" encoding="UTF-8" standalone="no"?>
<!DOCTYPE svg PUBLIC "-//W3C//DTD SVG 1.1//EN"
 "http://www.w3.org/Graphics/SVG/1.1/DTD/svg11.dtd">
<!-- Generated by graphviz version 2.26.3 (20100126.1600)
 -->
<!-- Title: G Pages: 1 -->
<svg width="554pt" height="42pt"
 viewBox="0.00 0.00 554.00 42.00" xmlns="http://www.w3.org/2000/svg" xmlns:xlink="http://www.w3.org/1999/xlink">
<g id="graph1" class="graph" transform="scale(1 1) rotate(0) translate(4 38)">
<title>G</title>
<polygon fill="white" stroke="white" points="-4,5 -4,-38 551,-38 551,5 -4,5"/>
<!-- Node1 -->
<g id="node1" class="node"><title>Node1</title>
<polygon fill="#bfbfbf" stroke="black" points="0,-0 0,-34 150,-34 150,-0 0,-0"/>
<text text-anchor="start" x="8" y="-21" font-family="Helvetica,sans-Serif" font-size="10.00">ZendDbSchema_Db_Migration</text>
<text text-anchor="middle" x="75" y="-8" font-family="Helvetica,sans-Serif" font-size="10.00">_Skeleton\generateVersion</text>
</g>
<!-- Node2 -->
<g id="node3" class="node"><title>Node2</title>
<a xlink:href="classZendDbSchema__Tool__Project__Provider__Migration.html#a01f328a7b171f989907b86ab88a070df" target="_top" xlink:title="ZendDbSchema_Tool_Project\l_Provider_Migration\\createResource">
<polygon fill="white" stroke="black" points="186.5,-0 186.5,-34 361.5,-34 361.5,-0 186.5,-0"/>
<text text-anchor="start" x="194.5" y="-21" font-family="Helvetica,sans-Serif" font-size="10.00">ZendDbSchema_Tool_Project</text>
<text text-anchor="middle" x="274" y="-8" font-family="Helvetica,sans-Serif" font-size="10.00">_Provider_Migration\createResource</text>
</a>
</g>
<!-- Node1&#45;&gt;Node2 -->
<g id="edge2" class="edge"><title>Node1&#45;&gt;Node2</title>
<path fill="none" stroke="midnightblue" d="M160.269,-17C168.888,-17 177.653,-17 186.297,-17"/>
<polygon fill="midnightblue" stroke="midnightblue" points="160.233,-13.5001 150.233,-17 160.233,-20.5001 160.233,-13.5001"/>
</g>
<!-- Node3 -->
<g id="node5" class="node"><title>Node3</title>
<a xlink:href="classZendDbSchema__Tool__Project__Provider__Migration.html#a50a6e8f60a7d71a74883b26797fa9f25" target="_top" xlink:title="ZendDbSchema_Tool_Project\l_Provider_Migration\\create">
<polygon fill="white" stroke="black" points="398.5,-0 398.5,-34 545.5,-34 545.5,-0 398.5,-0"/>
<text text-anchor="start" x="406.5" y="-21" font-family="Helvetica,sans-Serif" font-size="10.00">ZendDbSchema_Tool_Project</text>
<text text-anchor="middle" x="472" y="-8" font-family="Helvetica,sans-Serif" font-size="10.00">_Provider_Migration\create</text>
</a>
</g>
<!-- Node2&#45;&gt;Node3 -->
<g id="edge4" class="edge"><title>Node2&#45;&gt;Node3</title>
<path fill="none" stroke="midnightblue" d="M371.76,-17C380.679,-17 389.612,-17 398.269,-17"/>
<polygon fill="midnightblue" stroke="midnightblue" points="371.71,-13.5001 361.71,-17 371.71,-20.5001 371.71,-13.5001"/>
</g>
</g>
</svg>
