<?xml version="1.0" encoding="UTF-8" standalone="no"?>
<!DOCTYPE svg PUBLIC "-//W3C//DTD SVG 1.1//EN"
 "http://www.w3.org/Graphics/SVG/1.1/DTD/svg11.dtd">
<!-- Generated by graphviz version 2.26.3 (20100126.1600)
 -->
<!-- Title: G Pages: 1 -->
<svg width="530pt" height="122pt"
 viewBox="0.00 0.00 530.00 122.00" xmlns="http://www.w3.org/2000/svg" xmlns:xlink="http://www.w3.org/1999/xlink">
<g id="graph1" class="graph" transform="scale(1 1) rotate(0) translate(4 118)">
<title>G</title>
<polygon fill="white" stroke="white" points="-4,5 -4,-118 527,-118 527,5 -4,5"/>
<!-- Node1 -->
<g id="node1" class="node"><title>Node1</title>
<polygon fill="#bfbfbf" stroke="black" points="0,-40 0,-74 158,-74 158,-40 0,-40"/>
<text text-anchor="start" x="8" y="-61" font-family="Helvetica,sans-Serif" font-size="10.00">ZendDbSchema_Db_Schema</text>
<text text-anchor="middle" x="79" y="-48" font-family="Helvetica,sans-Serif" font-size="10.00">_Table_ForeignKey\getOnDelete</text>
</g>
<!-- Node2 -->
<g id="node3" class="node"><title>Node2</title>
<a xlink:href="classZendDbSchema__Db__Schema__Generator__Pgsql__Table.html#a3365ef877cee87ce2f038f4476256a94" target="_top" xlink:title="ZendDbSchema_Db_Schema\l_Generator_Pgsql_Table\l\\addForeignKey">
<polygon fill="white" stroke="black" points="194,-66.5 194,-113.5 340,-113.5 340,-66.5 194,-66.5"/>
<text text-anchor="start" x="202" y="-100.5" font-family="Helvetica,sans-Serif" font-size="10.00">ZendDbSchema_Db_Schema</text>
<text text-anchor="start" x="202" y="-87.5" font-family="Helvetica,sans-Serif" font-size="10.00">_Generator_Pgsql_Table</text>
<text text-anchor="middle" x="267" y="-74.5" font-family="Helvetica,sans-Serif" font-size="10.00">\addForeignKey</text>
</a>
</g>
<!-- Node1&#45;&gt;Node2 -->
<g id="edge2" class="edge"><title>Node1&#45;&gt;Node2</title>
<path fill="none" stroke="midnightblue" d="M168.234,-72.6634C176.831,-74.1725 185.481,-75.6908 193.896,-77.1679"/>
<polygon fill="midnightblue" stroke="midnightblue" points="168.639,-69.181 158.184,-70.8993 167.428,-76.0756 168.639,-69.181"/>
</g>
<!-- Node4 -->
<g id="node7" class="node"><title>Node4</title>
<a xlink:href="classZendDbSchema__Db__Schema__Generator__Mysql__Table.html#ab0e8de60124040b8a92e5c9f3e2d63d0" target="_top" xlink:title="ZendDbSchema_Db_Schema\l_Generator_Mysql_Table\l\\addForeignKey">
<polygon fill="white" stroke="black" points="194,-0.5 194,-47.5 340,-47.5 340,-0.5 194,-0.5"/>
<text text-anchor="start" x="202" y="-34.5" font-family="Helvetica,sans-Serif" font-size="10.00">ZendDbSchema_Db_Schema</text>
<text text-anchor="start" x="202" y="-21.5" font-family="Helvetica,sans-Serif" font-size="10.00">_Generator_Mysql_Table</text>
<text text-anchor="middle" x="267" y="-8.5" font-family="Helvetica,sans-Serif" font-size="10.00">\addForeignKey</text>
</a>
</g>
<!-- Node1&#45;&gt;Node4 -->
<g id="edge6" class="edge"><title>Node1&#45;&gt;Node4</title>
<path fill="none" stroke="midnightblue" d="M168.234,-41.3366C176.831,-39.8275 185.481,-38.3092 193.896,-36.8321"/>
<polygon fill="midnightblue" stroke="midnightblue" points="167.428,-37.9244 158.184,-43.1007 168.639,-44.819 167.428,-37.9244"/>
</g>
<!-- Node3 -->
<g id="node5" class="node"><title>Node3</title>
<a xlink:href="classZendDbSchema__Db__Schema__Generator__Pgsql__Table.html#af690e11fe350fcc7da00de979233e2b5" target="_top" xlink:title="ZendDbSchema_Db_Schema\l_Generator_Pgsql_Table\l\\alterForeignKey">
<polygon fill="white" stroke="black" points="376,-66.5 376,-113.5 522,-113.5 522,-66.5 376,-66.5"/>
<text text-anchor="start" x="384" y="-100.5" font-family="Helvetica,sans-Serif" font-size="10.00">ZendDbSchema_Db_Schema</text>
<text text-anchor="start" x="384" y="-87.5" font-family="Helvetica,sans-Serif" font-size="10.00">_Generator_Pgsql_Table</text>
<text text-anchor="middle" x="449" y="-74.5" font-family="Helvetica,sans-Serif" font-size="10.00">\alterForeignKey</text>
</a>
</g>
<!-- Node2&#45;&gt;Node3 -->
<g id="edge4" class="edge"><title>Node2&#45;&gt;Node3</title>
<path fill="none" stroke="midnightblue" d="M350.516,-90C358.992,-90 367.556,-90 375.91,-90"/>
<polygon fill="midnightblue" stroke="midnightblue" points="350.24,-86.5001 340.24,-90 350.24,-93.5001 350.24,-86.5001"/>
</g>
<!-- Node5 -->
<g id="node9" class="node"><title>Node5</title>
<a xlink:href="classZendDbSchema__Db__Schema__Generator__Mysql__Table.html#a3b806bcbce70989120035d56ee12071c" target="_top" xlink:title="ZendDbSchema_Db_Schema\l_Generator_Mysql_Table\l\\alterForeignKey">
<polygon fill="white" stroke="black" points="376,-0.5 376,-47.5 522,-47.5 522,-0.5 376,-0.5"/>
<text text-anchor="start" x="384" y="-34.5" font-family="Helvetica,sans-Serif" font-size="10.00">ZendDbSchema_Db_Schema</text>
<text text-anchor="start" x="384" y="-21.5" font-family="Helvetica,sans-Serif" font-size="10.00">_Generator_Mysql_Table</text>
<text text-anchor="middle" x="449" y="-8.5" font-family="Helvetica,sans-Serif" font-size="10.00">\alterForeignKey</text>
</a>
</g>
<!-- Node4&#45;&gt;Node5 -->
<g id="edge8" class="edge"><title>Node4&#45;&gt;Node5</title>
<path fill="none" stroke="midnightblue" d="M350.516,-24C358.992,-24 367.556,-24 375.91,-24"/>
<polygon fill="midnightblue" stroke="midnightblue" points="350.24,-20.5001 340.24,-24 350.24,-27.5001 350.24,-20.5001"/>
</g>
</g>
</svg>
