<?xml version="1.0" encoding="UTF-8" standalone="no"?>
<!DOCTYPE svg PUBLIC "-//W3C//DTD SVG 1.1//EN"
 "http://www.w3.org/Graphics/SVG/1.1/DTD/svg11.dtd">
<!-- Generated by graphviz version 2.26.3 (20100126.1600)
 -->
<!-- Title: G Pages: 1 -->
<svg width="246pt" height="446pt"
 viewBox="0.00 0.00 246.00 446.00" xmlns="http://www.w3.org/2000/svg" xmlns:xlink="http://www.w3.org/1999/xlink">
<g id="graph1" class="graph" transform="scale(1 1) rotate(0) translate(4 442)">
<title>G</title>
<polygon fill="white" stroke="white" points="-4,5 -4,-442 243,-442 243,5 -4,5"/>
<!-- Node1 -->
<g id="node1" class="node"><title>Node1</title>
<polygon fill="#bfbfbf" stroke="black" points="6,-1 6,-207 232,-207 232,-1 6,-1"/>
<text text-anchor="middle" x="119" y="-194" font-family="Helvetica,sans-Serif" font-size="10.00">ZendDbSchema_Db_Schema_Generator_Mysql</text>
<polyline fill="none" stroke="black" points="6,-186 232,-186 "/>
<text text-anchor="middle" x="119" y="-173" font-family="Helvetica,sans-Serif" font-size="10.00"> </text>
<polyline fill="none" stroke="black" points="6,-165 232,-165 "/>
<text text-anchor="start" x="14" y="-152" font-family="Helvetica,sans-Serif" font-size="10.00">+ createDatabase()</text>
<text text-anchor="start" x="14" y="-139" font-family="Helvetica,sans-Serif" font-size="10.00">+ alterDatabase()</text>
<text text-anchor="start" x="14" y="-126" font-family="Helvetica,sans-Serif" font-size="10.00">+ dropDatabase()</text>
<text text-anchor="start" x="14" y="-113" font-family="Helvetica,sans-Serif" font-size="10.00">+ createTable()</text>
<text text-anchor="start" x="14" y="-100" font-family="Helvetica,sans-Serif" font-size="10.00">+ alterTable()</text>
<text text-anchor="start" x="14" y="-87" font-family="Helvetica,sans-Serif" font-size="10.00">+ dropTable()</text>
<text text-anchor="start" x="14" y="-74" font-family="Helvetica,sans-Serif" font-size="10.00">+ createColumn()</text>
<text text-anchor="start" x="14" y="-61" font-family="Helvetica,sans-Serif" font-size="10.00">+ alterColumn()</text>
<text text-anchor="start" x="14" y="-48" font-family="Helvetica,sans-Serif" font-size="10.00">+ dropColumn()</text>
<text text-anchor="start" x="14" y="-35" font-family="Helvetica,sans-Serif" font-size="10.00">+ createIndex()</text>
<text text-anchor="start" x="14" y="-22" font-family="Helvetica,sans-Serif" font-size="10.00">and 24 more...# _columnSql()</text>
<text text-anchor="start" x="14" y="-9" font-family="Helvetica,sans-Serif" font-size="10.00"># _columnSql()</text>
</g>
<!-- Node2 -->
<g id="node2" class="node"><title>Node2</title>
<a xlink:href="interfaceZendDbSchema__Db__Schema__Generator__Interface.html" target="_top" xlink:title="{ZendDbSchema_Db_Schema_Generator_Interface\n||+ createDatabase()\l+ alterDatabase()\l+ dropDatabase()\l+ createTable()\l+ alterTable()\l+ dropTable()\l+ createColumn()\l+ alterColumn()\l+ dropColumn()\l+ createIndex()\land 6 more...}">
<polygon fill="white" stroke="black" points="0,-244.5 0,-437.5 238,-437.5 238,-244.5 0,-244.5"/>
<text text-anchor="middle" x="119" y="-424.5" font-family="Helvetica,sans-Serif" font-size="10.00">ZendDbSchema_Db_Schema_Generator_Interface</text>
<polyline fill="none" stroke="black" points="0,-416.5 238,-416.5 "/>
<text text-anchor="middle" x="119" y="-403.5" font-family="Helvetica,sans-Serif" font-size="10.00"> </text>
<polyline fill="none" stroke="black" points="0,-395.5 238,-395.5 "/>
<text text-anchor="start" x="8" y="-382.5" font-family="Helvetica,sans-Serif" font-size="10.00">+ createDatabase()</text>
<text text-anchor="start" x="8" y="-369.5" font-family="Helvetica,sans-Serif" font-size="10.00">+ alterDatabase()</text>
<text text-anchor="start" x="8" y="-356.5" font-family="Helvetica,sans-Serif" font-size="10.00">+ dropDatabase()</text>
<text text-anchor="start" x="8" y="-343.5" font-family="Helvetica,sans-Serif" font-size="10.00">+ createTable()</text>
<text text-anchor="start" x="8" y="-330.5" font-family="Helvetica,sans-Serif" font-size="10.00">+ alterTable()</text>
<text text-anchor="start" x="8" y="-317.5" font-family="Helvetica,sans-Serif" font-size="10.00">+ dropTable()</text>
<text text-anchor="start" x="8" y="-304.5" font-family="Helvetica,sans-Serif" font-size="10.00">+ createColumn()</text>
<text text-anchor="start" x="8" y="-291.5" font-family="Helvetica,sans-Serif" font-size="10.00">+ alterColumn()</text>
<text text-anchor="start" x="8" y="-278.5" font-family="Helvetica,sans-Serif" font-size="10.00">+ dropColumn()</text>
<text text-anchor="start" x="8" y="-265.5" font-family="Helvetica,sans-Serif" font-size="10.00">+ createIndex()</text>
<text text-anchor="middle" x="119" y="-252.5" font-family="Helvetica,sans-Serif" font-size="10.00">and 6 more...</text>
</a>
</g>
<!-- Node2&#45;&gt;Node1 -->
<g id="edge2" class="edge"><title>Node2&#45;&gt;Node1</title>
<path fill="none" stroke="midnightblue" d="M112.279,-234.227C112.234,-225.295 112.241,-216.274 112.299,-207.369"/>
<polygon fill="none" stroke="midnightblue" points="108.78,-234.287 112.352,-244.261 115.78,-234.236 108.78,-234.287"/>
</g>
<!-- Node2&#45;&gt;Node1 -->
<g id="edge4" class="edge"><title>Node2&#45;&gt;Node1</title>
<path fill="none" stroke="midnightblue" d="M125.721,-234.227C125.766,-225.295 125.759,-216.274 125.701,-207.369"/>
<polygon fill="none" stroke="midnightblue" points="122.22,-234.236 125.648,-244.261 129.22,-234.287 122.22,-234.236"/>
</g>
</g>
</svg>
