<?xml version="1.0" encoding="UTF-8" standalone="no"?>
<!DOCTYPE svg PUBLIC "-//W3C//DTD SVG 1.1//EN"
 "http://www.w3.org/Graphics/SVG/1.1/DTD/svg11.dtd">
<!-- Generated by graphviz version 2.26.3 (20100126.1600)
 -->
<!-- Title: G Pages: 1 -->
<svg width="2272pt" height="1170pt"
 viewBox="0.00 0.00 2272.00 1170.00" xmlns="http://www.w3.org/2000/svg" xmlns:xlink="http://www.w3.org/1999/xlink">
<g id="graph1" class="graph" transform="scale(1 1) rotate(0) translate(4 1166)">
<title>G</title>
<polygon fill="white" stroke="white" points="-4,5 -4,-1166 2269,-1166 2269,5 -4,5"/>
<!-- Node1 -->
<g id="node1" class="node"><title>Node1</title>
<polygon fill="#bfbfbf" stroke="black" points="0.5,-940.5 0.5,-961.5 279.5,-961.5 279.5,-940.5 0.5,-940.5"/>
<text text-anchor="middle" x="140" y="-948.5" font-family="Helvetica,sans-Serif" font-size="10.00">ZendDbSchema_Db_Schema_AbstractSchema\setValidator</text>
</g>
<!-- Node2 -->
<g id="node3" class="node"><title>Node2</title>
<a xlink:href="classZendDbSchema__Db__Schema__AbstractSchema.html#a6349649e5e09d67a5b5e0abe96298db8" target="_top" xlink:title="ZendDbSchema_Db_Schema_AbstractSchema\\setAdapter">
<polygon fill="white" stroke="black" points="316.5,-940.5 316.5,-961.5 591.5,-961.5 591.5,-940.5 316.5,-940.5"/>
<text text-anchor="middle" x="454" y="-948.5" font-family="Helvetica,sans-Serif" font-size="10.00">ZendDbSchema_Db_Schema_AbstractSchema\setAdapter</text>
</a>
</g>
<!-- Node1&#45;&gt;Node2 -->
<g id="edge2" class="edge"><title>Node1&#45;&gt;Node2</title>
<path fill="none" stroke="midnightblue" d="M289.807,-951C298.559,-951 307.341,-951 316.043,-951"/>
<polygon fill="midnightblue" stroke="midnightblue" points="289.554,-947.5 279.554,-951 289.554,-954.5 289.554,-947.5"/>
</g>
<!-- Node3 -->
<g id="node5" class="node"><title>Node3</title>
<a xlink:href="classZendDbSchema__Db__Schema__AbstractSchema.html#a47d95912f6bf6d26d023597887dafacb" target="_top" xlink:title="ZendDbSchema_Db_Schema_AbstractSchema\\getAdapter">
<polygon fill="white" stroke="black" points="628.5,-940.5 628.5,-961.5 903.5,-961.5 903.5,-940.5 628.5,-940.5"/>
<text text-anchor="middle" x="766" y="-948.5" font-family="Helvetica,sans-Serif" font-size="10.00">ZendDbSchema_Db_Schema_AbstractSchema\getAdapter</text>
</a>
</g>
<!-- Node2&#45;&gt;Node3 -->
<g id="edge4" class="edge"><title>Node2&#45;&gt;Node3</title>
<path fill="none" stroke="midnightblue" d="M601.977,-951C610.703,-951 619.462,-951 628.145,-951"/>
<polygon fill="midnightblue" stroke="midnightblue" points="601.756,-947.5 591.756,-951 601.756,-954.5 601.756,-947.5"/>
</g>
<!-- Node4 -->
<g id="node7" class="node"><title>Node4</title>
<a xlink:href="classZendDbSchema__Db__Schema__Database.html#a5fec6a5dbc863948512354d9cee4b7f0" target="_top" xlink:title="ZendDbSchema_Db_Schema_Database\\_doDelete">
<polygon fill="white" stroke="black" points="969.5,-1097.5 969.5,-1118.5 1210.5,-1118.5 1210.5,-1097.5 969.5,-1097.5"/>
<text text-anchor="middle" x="1090" y="-1105.5" font-family="Helvetica,sans-Serif" font-size="10.00">ZendDbSchema_Db_Schema_Database\_doDelete</text>
</a>
</g>
<!-- Node3&#45;&gt;Node4 -->
<g id="edge6" class="edge"><title>Node3&#45;&gt;Node4</title>
<path fill="none" stroke="midnightblue" d="M782.551,-969.265C811.278,-999.643 873.677,-1059.98 940,-1088 949.317,-1091.94 959.225,-1095.14 969.334,-1097.75"/>
<polygon fill="midnightblue" stroke="midnightblue" points="785.054,-966.817 775.678,-961.883 779.931,-971.587 785.054,-966.817"/>
</g>
<!-- Node5 -->
<g id="node9" class="node"><title>Node5</title>
<a xlink:href="classZendDbSchema__Db__Schema__Table.html#a2870bcdf57c17db72028f4e67a583fff" target="_top" xlink:title="ZendDbSchema_Db_Schema_Table\\_doDelete">
<polygon fill="white" stroke="black" points="978.5,-1057.5 978.5,-1078.5 1201.5,-1078.5 1201.5,-1057.5 978.5,-1057.5"/>
<text text-anchor="middle" x="1090" y="-1065.5" font-family="Helvetica,sans-Serif" font-size="10.00">ZendDbSchema_Db_Schema_Table\_doDelete</text>
</a>
</g>
<!-- Node3&#45;&gt;Node5 -->
<g id="edge8" class="edge"><title>Node3&#45;&gt;Node5</title>
<path fill="none" stroke="midnightblue" d="M790.452,-967.203C823.125,-988.068 883.48,-1023.91 940,-1043 958.384,-1049.21 978.576,-1053.91 998.023,-1057.47"/>
<polygon fill="midnightblue" stroke="midnightblue" points="792.296,-964.228 781.997,-961.742 788.498,-970.108 792.296,-964.228"/>
</g>
<!-- Node6 -->
<g id="node11" class="node"><title>Node6</title>
<a xlink:href="classZendDbSchema__Db__Schema__Database.html#aad388b374fd5913946204230760b2d86" target="_top" xlink:title="ZendDbSchema_Db_Schema_Database\\_doReload">
<polygon fill="white" stroke="black" points="1303.5,-1140.5 1303.5,-1161.5 1546.5,-1161.5 1546.5,-1140.5 1303.5,-1140.5"/>
<text text-anchor="middle" x="1425" y="-1148.5" font-family="Helvetica,sans-Serif" font-size="10.00">ZendDbSchema_Db_Schema_Database\_doReload</text>
</a>
</g>
<!-- Node3&#45;&gt;Node6 -->
<g id="edge10" class="edge"><title>Node3&#45;&gt;Node6</title>
<path fill="none" stroke="midnightblue" d="M801.441,-965.367C836.18,-978.884 890.916,-998.691 940,-1010 1005.48,-1025.09 1186.25,-1007.67 1240,-1048 1272.16,-1072.13 1243.93,-1106.75 1276,-1131 1284.22,-1137.22 1293.46,-1141.99 1303.19,-1145.62"/>
<polygon fill="midnightblue" stroke="midnightblue" points="802.35,-961.963 791.763,-961.562 799.789,-968.478 802.35,-961.963"/>
</g>
<!-- Node7 -->
<g id="node13" class="node"><title>Node7</title>
<a xlink:href="classZendDbSchema__Db__Schema__Table.html#abc05b1f219611fefdd0e9eaeff1761d9" target="_top" xlink:title="ZendDbSchema_Db_Schema_Table\\_doReload">
<polygon fill="white" stroke="black" points="1312.5,-1100.5 1312.5,-1121.5 1537.5,-1121.5 1537.5,-1100.5 1312.5,-1100.5"/>
<text text-anchor="middle" x="1425" y="-1108.5" font-family="Helvetica,sans-Serif" font-size="10.00">ZendDbSchema_Db_Schema_Table\_doReload</text>
</a>
</g>
<!-- Node3&#45;&gt;Node7 -->
<g id="edge12" class="edge"><title>Node3&#45;&gt;Node7</title>
<path fill="none" stroke="midnightblue" d="M809.362,-937.736C900.028,-912.895 1111.84,-870.361 1240,-970 1284.3,-1004.44 1233.36,-1054.53 1276,-1091 1286.51,-1099.99 1299.06,-1106.12 1312.35,-1110.18"/>
<polygon fill="midnightblue" stroke="midnightblue" points="808.372,-934.379 799.687,-940.447 810.261,-941.119 808.372,-934.379"/>
</g>
<!-- Node8 -->
<g id="node15" class="node"><title>Node8</title>
<a xlink:href="classZendDbSchema__Db__Schema__AbstractSchema.html#a5696bfca3324b0dfbdf3c10d224f5759" target="_top" xlink:title="ZendDbSchema_Db_Schema_AbstractSchema\\getGenerator">
<polygon fill="white" stroke="black" points="948,-780.5 948,-801.5 1232,-801.5 1232,-780.5 948,-780.5"/>
<text text-anchor="middle" x="1090" y="-788.5" font-family="Helvetica,sans-Serif" font-size="10.00">ZendDbSchema_Db_Schema_AbstractSchema\getGenerator</text>
</a>
</g>
<!-- Node3&#45;&gt;Node8 -->
<g id="edge14" class="edge"><title>Node3&#45;&gt;Node8</title>
<path fill="none" stroke="midnightblue" d="M796.867,-935.757C862.172,-903.508 1012.9,-829.075 1068.71,-801.514"/>
<polygon fill="midnightblue" stroke="midnightblue" points="794.926,-932.812 787.509,-940.378 798.026,-939.088 794.926,-932.812"/>
</g>
<!-- Node25 -->
<g id="node49" class="node"><title>Node25</title>
<a xlink:href="classZendDbSchema__Db__Schema__AbstractSchema.html#adda416f89a3cc16bd28d90b14036b63d" target="_top" xlink:title="ZendDbSchema_Db_Schema_AbstractSchema\\getParser">
<polygon fill="white" stroke="black" points="955.5,-979.5 955.5,-1000.5 1224.5,-1000.5 1224.5,-979.5 955.5,-979.5"/>
<text text-anchor="middle" x="1090" y="-987.5" font-family="Helvetica,sans-Serif" font-size="10.00">ZendDbSchema_Db_Schema_AbstractSchema\getParser</text>
</a>
</g>
<!-- Node3&#45;&gt;Node25 -->
<g id="edge48" class="edge"><title>Node3&#45;&gt;Node25</title>
<path fill="none" stroke="midnightblue" d="M863.444,-962.729C907.692,-968.055 959.621,-974.306 1002.59,-979.479"/>
<polygon fill="midnightblue" stroke="midnightblue" points="863.599,-959.223 853.252,-961.503 862.762,-966.173 863.599,-959.223"/>
</g>
<!-- Node26 -->
<g id="node53" class="node"><title>Node26</title>
<a xlink:href="classZendDbSchema__Db__Schema__AbstractSchema.html#afda46eab0c365f4c9a743b7185c51d6c" target="_top" xlink:title="ZendDbSchema_Db_Schema_AbstractSchema\\getValidator">
<polygon fill="white" stroke="black" points="950.5,-420.5 950.5,-441.5 1229.5,-441.5 1229.5,-420.5 950.5,-420.5"/>
<text text-anchor="middle" x="1090" y="-428.5" font-family="Helvetica,sans-Serif" font-size="10.00">ZendDbSchema_Db_Schema_AbstractSchema\getValidator</text>
</a>
</g>
<!-- Node3&#45;&gt;Node26 -->
<g id="edge54" class="edge"><title>Node3&#45;&gt;Node26</title>
<path fill="none" stroke="midnightblue" d="M778.203,-931.415C831.473,-845.919 1042.77,-506.795 1083.27,-441.801"/>
<polygon fill="midnightblue" stroke="midnightblue" points="775.085,-929.801 772.767,-940.139 781.026,-933.503 775.085,-929.801"/>
</g>
<!-- Node49 -->
<g id="node103" class="node"><title>Node49</title>
<a xlink:href="classZendDbSchema__Db__Schema__Validator__Mysql.html#ab77a7fe20e34115d4b2679521b8918c0" target="_top" xlink:title="ZendDbSchema_Db_Schema_Validator_Mysql\\validateDatabase">
<polygon fill="white" stroke="black" points="940,-380.5 940,-401.5 1240,-401.5 1240,-380.5 940,-380.5"/>
<text text-anchor="middle" x="1090" y="-388.5" font-family="Helvetica,sans-Serif" font-size="10.00">ZendDbSchema_Db_Schema_Validator_Mysql\validateDatabase</text>
</a>
</g>
<!-- Node3&#45;&gt;Node49 -->
<g id="edge108" class="edge"><title>Node3&#45;&gt;Node49</title>
<path fill="none" stroke="midnightblue" d="M769.629,-930.443C785.96,-840.327 855.539,-481.538 940,-411 944.235,-407.463 948.784,-404.373 953.568,-401.678"/>
<polygon fill="midnightblue" stroke="midnightblue" points="766.147,-930.027 767.828,-940.488 773.038,-931.262 766.147,-930.027"/>
</g>
<!-- Node50 -->
<g id="node105" class="node"><title>Node50</title>
<a xlink:href="classZendDbSchema__Db__Schema__Validator__Mysql.html#a0c68fa05f88c3a6f603b04709133ef68" target="_top" xlink:title="ZendDbSchema_Db_Schema_Validator_Mysql\\validateTable">
<polygon fill="white" stroke="black" points="949,-340.5 949,-361.5 1231,-361.5 1231,-340.5 949,-340.5"/>
<text text-anchor="middle" x="1090" y="-348.5" font-family="Helvetica,sans-Serif" font-size="10.00">ZendDbSchema_Db_Schema_Validator_Mysql\validateTable</text>
</a>
</g>
<!-- Node3&#45;&gt;Node50 -->
<g id="edge110" class="edge"><title>Node3&#45;&gt;Node50</title>
<path fill="none" stroke="midnightblue" d="M769.2,-930.141C784.157,-835.469 850.246,-447.516 940,-371 944.199,-367.421 948.718,-364.294 953.476,-361.57"/>
<polygon fill="midnightblue" stroke="midnightblue" points="765.716,-929.772 767.632,-940.192 772.632,-930.851 765.716,-929.772"/>
</g>
<!-- Node9 -->
<g id="node17" class="node"><title>Node9</title>
<a xlink:href="classZendDbSchema__Db__Schema__Table__PrimaryKey.html#a3f48dd085068f13258957efeb0f7257b" target="_top" xlink:title="ZendDbSchema_Db_Schema_Table_PrimaryKey\\_getAlterSql">
<polygon fill="white" stroke="black" points="1281,-820.5 1281,-841.5 1569,-841.5 1569,-820.5 1281,-820.5"/>
<text text-anchor="middle" x="1425" y="-828.5" font-family="Helvetica,sans-Serif" font-size="10.00">ZendDbSchema_Db_Schema_Table_PrimaryKey\_getAlterSql</text>
</a>
</g>
<!-- Node8&#45;&gt;Node9 -->
<g id="edge16" class="edge"><title>Node8&#45;&gt;Node9</title>
<path fill="none" stroke="midnightblue" d="M1188.23,-802.729C1235.33,-808.353 1291.3,-815.036 1336.99,-820.491"/>
<polygon fill="midnightblue" stroke="midnightblue" points="1188.36,-799.22 1178.02,-801.51 1187.53,-806.171 1188.36,-799.22"/>
</g>
<!-- Node10 -->
<g id="node19" class="node"><title>Node10</title>
<a xlink:href="classZendDbSchema__Db__Schema__Database.html#a4f5a636c4e7d8ab57f6e090cdf8841dc" target="_top" xlink:title="ZendDbSchema_Db_Schema_Database\\_getAlterSql">
<polygon fill="white" stroke="black" points="1300,-780.5 1300,-801.5 1550,-801.5 1550,-780.5 1300,-780.5"/>
<text text-anchor="middle" x="1425" y="-788.5" font-family="Helvetica,sans-Serif" font-size="10.00">ZendDbSchema_Db_Schema_Database\_getAlterSql</text>
</a>
</g>
<!-- Node8&#45;&gt;Node10 -->
<g id="edge18" class="edge"><title>Node8&#45;&gt;Node10</title>
<path fill="none" stroke="midnightblue" d="M1242.15,-791C1261.49,-791 1281.1,-791 1299.95,-791"/>
<polygon fill="midnightblue" stroke="midnightblue" points="1242.07,-787.5 1232.07,-791 1242.07,-794.5 1242.07,-787.5"/>
</g>
<!-- Node11 -->
<g id="node21" class="node"><title>Node11</title>
<a xlink:href="classZendDbSchema__Db__Schema__Table__ForeignKey.html#ae7cb55b4ec471ccb54ef38ef4bb33558" target="_top" xlink:title="ZendDbSchema_Db_Schema_Table_ForeignKey\\_getAlterSql">
<polygon fill="white" stroke="black" points="1281.5,-740.5 1281.5,-761.5 1568.5,-761.5 1568.5,-740.5 1281.5,-740.5"/>
<text text-anchor="middle" x="1425" y="-748.5" font-family="Helvetica,sans-Serif" font-size="10.00">ZendDbSchema_Db_Schema_Table_ForeignKey\_getAlterSql</text>
</a>
</g>
<!-- Node8&#45;&gt;Node11 -->
<g id="edge20" class="edge"><title>Node8&#45;&gt;Node11</title>
<path fill="none" stroke="midnightblue" d="M1188.23,-779.271C1235.33,-773.647 1291.3,-766.964 1336.99,-761.509"/>
<polygon fill="midnightblue" stroke="midnightblue" points="1187.53,-775.829 1178.02,-780.49 1188.36,-782.78 1187.53,-775.829"/>
</g>
<!-- Node12 -->
<g id="node23" class="node"><title>Node12</title>
<a xlink:href="classZendDbSchema__Db__Schema__Table__Index.html#ab87e33f2415eaf43730ca6d43ec540b6" target="_top" xlink:title="ZendDbSchema_Db_Schema_Table_Index\\_getAlterSql">
<polygon fill="white" stroke="black" points="1294.5,-700.5 1294.5,-721.5 1555.5,-721.5 1555.5,-700.5 1294.5,-700.5"/>
<text text-anchor="middle" x="1425" y="-708.5" font-family="Helvetica,sans-Serif" font-size="10.00">ZendDbSchema_Db_Schema_Table_Index\_getAlterSql</text>
</a>
</g>
<!-- Node8&#45;&gt;Node12 -->
<g id="edge22" class="edge"><title>Node8&#45;&gt;Node12</title>
<path fill="none" stroke="midnightblue" d="M1126.7,-777.005C1163.84,-763.362 1223.14,-742.972 1276,-731 1292.55,-727.252 1310.3,-724.119 1327.57,-721.528"/>
<polygon fill="midnightblue" stroke="midnightblue" points="1125.46,-773.733 1117.3,-780.49 1127.9,-780.296 1125.46,-773.733"/>
</g>
<!-- Node13 -->
<g id="node25" class="node"><title>Node13</title>
<a xlink:href="classZendDbSchema__Db__Schema__Table__Column.html#ae49fb9ae5b0f6d6258dc71f644e00991" target="_top" xlink:title="ZendDbSchema_Db_Schema_Table_Column\\_getAlterSql">
<polygon fill="white" stroke="black" points="1289.5,-660.5 1289.5,-681.5 1560.5,-681.5 1560.5,-660.5 1289.5,-660.5"/>
<text text-anchor="middle" x="1425" y="-668.5" font-family="Helvetica,sans-Serif" font-size="10.00">ZendDbSchema_Db_Schema_Table_Column\_getAlterSql</text>
</a>
</g>
<!-- Node8&#45;&gt;Node13 -->
<g id="edge24" class="edge"><title>Node8&#45;&gt;Node13</title>
<path fill="none" stroke="midnightblue" d="M1113.41,-774.794C1147.5,-752.062 1213.57,-711.231 1276,-691 1287.92,-687.138 1300.6,-684.021 1313.35,-681.506"/>
<polygon fill="midnightblue" stroke="midnightblue" points="1111.4,-771.932 1105.06,-780.426 1115.31,-777.734 1111.4,-771.932"/>
</g>
<!-- Node14 -->
<g id="node27" class="node"><title>Node14</title>
<a xlink:href="classZendDbSchema__Db__Schema__Table.html#a385e32fefac9fd4c6e4274c1e0c0b810" target="_top" xlink:title="ZendDbSchema_Db_Schema_Table\\_getAlterSql">
<polygon fill="white" stroke="black" points="1309,-620.5 1309,-641.5 1541,-641.5 1541,-620.5 1309,-620.5"/>
<text text-anchor="middle" x="1425" y="-628.5" font-family="Helvetica,sans-Serif" font-size="10.00">ZendDbSchema_Db_Schema_Table\_getAlterSql</text>
</a>
</g>
<!-- Node8&#45;&gt;Node14 -->
<g id="edge26" class="edge"><title>Node8&#45;&gt;Node14</title>
<path fill="none" stroke="midnightblue" d="M1107.43,-772.809C1138.21,-741.946 1205.63,-679.869 1276,-651 1286.38,-646.74 1297.48,-643.347 1308.76,-640.65"/>
<polygon fill="midnightblue" stroke="midnightblue" points="1104.59,-770.703 1100.08,-780.289 1109.58,-775.61 1104.59,-770.703"/>
</g>
<!-- Node15 -->
<g id="node29" class="node"><title>Node15</title>
<a xlink:href="classZendDbSchema__Db__Schema__Table__PrimaryKey.html#a97fe22c0e5758e1ee04616ccf3218e2a" target="_top" xlink:title="ZendDbSchema_Db_Schema_Table_PrimaryKey\\_getCreateSql">
<polygon fill="white" stroke="black" points="1276.5,-580.5 1276.5,-601.5 1573.5,-601.5 1573.5,-580.5 1276.5,-580.5"/>
<text text-anchor="middle" x="1425" y="-588.5" font-family="Helvetica,sans-Serif" font-size="10.00">ZendDbSchema_Db_Schema_Table_PrimaryKey\_getCreateSql</text>
</a>
</g>
<!-- Node8&#45;&gt;Node15 -->
<g id="edge28" class="edge"><title>Node8&#45;&gt;Node15</title>
<path fill="none" stroke="midnightblue" d="M1103.08,-771.918C1130.27,-733.943 1197.01,-649.277 1276,-611 1283.75,-607.244 1291.98,-604.124 1300.43,-601.539"/>
<polygon fill="midnightblue" stroke="midnightblue" points="1100.21,-769.911 1097.31,-780.102 1105.93,-773.941 1100.21,-769.911"/>
</g>
<!-- Node16 -->
<g id="node31" class="node"><title>Node16</title>
<a xlink:href="classZendDbSchema__Db__Schema__Database.html#a48ad6cd38cc07c3c350335d21d7c11e9" target="_top" xlink:title="ZendDbSchema_Db_Schema_Database\\_getCreateSql">
<polygon fill="white" stroke="black" points="1295.5,-540.5 1295.5,-561.5 1554.5,-561.5 1554.5,-540.5 1295.5,-540.5"/>
<text text-anchor="middle" x="1425" y="-548.5" font-family="Helvetica,sans-Serif" font-size="10.00">ZendDbSchema_Db_Schema_Database\_getCreateSql</text>
</a>
</g>
<!-- Node8&#45;&gt;Node16 -->
<g id="edge30" class="edge"><title>Node8&#45;&gt;Node16</title>
<path fill="none" stroke="midnightblue" d="M1099.92,-771.464C1123.57,-727.177 1187.91,-619.257 1276,-571 1282.75,-567.301 1289.93,-564.188 1297.34,-561.577"/>
<polygon fill="midnightblue" stroke="midnightblue" points="1096.8,-769.884 1095.26,-780.367 1103,-773.13 1096.8,-769.884"/>
</g>
<!-- Node17 -->
<g id="node33" class="node"><title>Node17</title>
<a xlink:href="classZendDbSchema__Db__Schema__Table__Column.html#a2312222bd78d06775dacb19b92638b69" target="_top" xlink:title="ZendDbSchema_Db_Schema_Table_Column\\_getCreateSql">
<polygon fill="white" stroke="black" points="1285,-500.5 1285,-521.5 1565,-521.5 1565,-500.5 1285,-500.5"/>
<text text-anchor="middle" x="1425" y="-508.5" font-family="Helvetica,sans-Serif" font-size="10.00">ZendDbSchema_Db_Schema_Table_Column\_getCreateSql</text>
</a>
</g>
<!-- Node8&#45;&gt;Node17 -->
<g id="edge32" class="edge"><title>Node8&#45;&gt;Node17</title>
<path fill="none" stroke="midnightblue" d="M1097.62,-771.083C1117.93,-720.998 1178.55,-589.633 1276,-531 1282.15,-527.3 1288.7,-524.164 1295.49,-521.513"/>
<polygon fill="midnightblue" stroke="midnightblue" points="1094.33,-769.895 1093.9,-780.481 1100.83,-772.471 1094.33,-769.895"/>
</g>
<!-- Node18 -->
<g id="node35" class="node"><title>Node18</title>
<a xlink:href="classZendDbSchema__Db__Schema__Table__ForeignKey.html#a8b8ab754bf3b5bcda1e8c70e83a6b7b9" target="_top" xlink:title="ZendDbSchema_Db_Schema_Table_ForeignKey\\_getCreateSql">
<polygon fill="white" stroke="black" points="1277,-460.5 1277,-481.5 1573,-481.5 1573,-460.5 1277,-460.5"/>
<text text-anchor="middle" x="1425" y="-468.5" font-family="Helvetica,sans-Serif" font-size="10.00">ZendDbSchema_Db_Schema_Table_ForeignKey\_getCreateSql</text>
</a>
</g>
<!-- Node8&#45;&gt;Node18 -->
<g id="edge34" class="edge"><title>Node8&#45;&gt;Node18</title>
<path fill="none" stroke="midnightblue" d="M1095.85,-770.721C1113.02,-715.213 1168.94,-560.321 1276,-491 1281.59,-487.383 1287.54,-484.287 1293.73,-481.646"/>
<polygon fill="midnightblue" stroke="midnightblue" points="1092.45,-769.859 1092.93,-780.443 1099.16,-771.873 1092.45,-769.859"/>
</g>
<!-- Node19 -->
<g id="node37" class="node"><title>Node19</title>
<a xlink:href="classZendDbSchema__Db__Schema__Table__Index.html#afec61cbe6c22bd42e30103bc3d37ef2d" target="_top" xlink:title="ZendDbSchema_Db_Schema_Table_Index\\_getCreateSql">
<polygon fill="white" stroke="black" points="1290,-1060.5 1290,-1081.5 1560,-1081.5 1560,-1060.5 1290,-1060.5"/>
<text text-anchor="middle" x="1425" y="-1068.5" font-family="Helvetica,sans-Serif" font-size="10.00">ZendDbSchema_Db_Schema_Table_Index\_getCreateSql</text>
</a>
</g>
<!-- Node8&#45;&gt;Node19 -->
<g id="edge36" class="edge"><title>Node8&#45;&gt;Node19</title>
<path fill="none" stroke="midnightblue" d="M1113.28,-807.649C1146.13,-832.306 1205.87,-881.624 1240,-937 1267.88,-982.231 1235.33,-1016.8 1276,-1051 1280.29,-1054.61 1284.92,-1057.76 1289.79,-1060.49"/>
<polygon fill="midnightblue" stroke="midnightblue" points="1115.28,-804.773 1105.16,-801.643 1111.12,-810.402 1115.28,-804.773"/>
</g>
<!-- Node20 -->
<g id="node39" class="node"><title>Node20</title>
<a xlink:href="classZendDbSchema__Db__Schema__Table.html#aefb813dece15a26017e580acc64e3406" target="_top" xlink:title="ZendDbSchema_Db_Schema_Table\\_getCreateSql">
<polygon fill="white" stroke="black" points="1304.5,-1020.5 1304.5,-1041.5 1545.5,-1041.5 1545.5,-1020.5 1304.5,-1020.5"/>
<text text-anchor="middle" x="1425" y="-1028.5" font-family="Helvetica,sans-Serif" font-size="10.00">ZendDbSchema_Db_Schema_Table\_getCreateSql</text>
</a>
</g>
<!-- Node8&#45;&gt;Node20 -->
<g id="edge38" class="edge"><title>Node8&#45;&gt;Node20</title>
<path fill="none" stroke="midnightblue" d="M1112.12,-808.304C1143.64,-833.817 1201.86,-884.233 1240,-937 1261.42,-966.642 1246.36,-989.579 1276,-1011 1284.57,-1017.19 1294.15,-1021.92 1304.22,-1025.5"/>
<polygon fill="midnightblue" stroke="midnightblue" points="1113.98,-805.304 1103.98,-801.787 1109.6,-810.769 1113.98,-805.304"/>
</g>
<!-- Node21 -->
<g id="node41" class="node"><title>Node21</title>
<a xlink:href="classZendDbSchema__Db__Schema__Table__PrimaryKey.html#a1da04c2b8330ad70171fd6b1802d14f2" target="_top" xlink:title="ZendDbSchema_Db_Schema_Table_PrimaryKey\\_getDeleteSql">
<polygon fill="white" stroke="black" points="1277,-980.5 1277,-1001.5 1573,-1001.5 1573,-980.5 1277,-980.5"/>
<text text-anchor="middle" x="1425" y="-988.5" font-family="Helvetica,sans-Serif" font-size="10.00">ZendDbSchema_Db_Schema_Table_PrimaryKey\_getDeleteSql</text>
</a>
</g>
<!-- Node8&#45;&gt;Node21 -->
<g id="edge40" class="edge"><title>Node8&#45;&gt;Node21</title>
<path fill="none" stroke="midnightblue" d="M1108.16,-808.721C1154.45,-853.865 1273.4,-969.738 1276,-971 1283.75,-974.756 1291.98,-977.876 1300.43,-980.461"/>
<polygon fill="midnightblue" stroke="midnightblue" points="1110.5,-806.109 1100.9,-801.633 1105.61,-811.121 1110.5,-806.109"/>
</g>
<!-- Node22 -->
<g id="node43" class="node"><title>Node22</title>
<a xlink:href="classZendDbSchema__Db__Schema__Table__Index.html#a54a12dab52e17f1218fafcd13b334d16" target="_top" xlink:title="ZendDbSchema_Db_Schema_Table_Index\\_getDeleteSql">
<polygon fill="white" stroke="black" points="1290.5,-940.5 1290.5,-961.5 1559.5,-961.5 1559.5,-940.5 1290.5,-940.5"/>
<text text-anchor="middle" x="1425" y="-948.5" font-family="Helvetica,sans-Serif" font-size="10.00">ZendDbSchema_Db_Schema_Table_Index\_getDeleteSql</text>
</a>
</g>
<!-- Node8&#45;&gt;Node22 -->
<g id="edge42" class="edge"><title>Node8&#45;&gt;Node22</title>
<path fill="none" stroke="midnightblue" d="M1107.43,-809.191C1138.21,-840.054 1205.63,-902.131 1276,-931 1285.3,-934.814 1295.17,-937.933 1305.23,-940.48"/>
<polygon fill="midnightblue" stroke="midnightblue" points="1109.58,-806.39 1100.08,-801.711 1104.59,-811.297 1109.58,-806.39"/>
</g>
<!-- Node23 -->
<g id="node45" class="node"><title>Node23</title>
<a xlink:href="classZendDbSchema__Db__Schema__Table__Column.html#a9b1cc87143098c64df381066af91222c" target="_top" xlink:title="ZendDbSchema_Db_Schema_Table_Column\\_getDeleteSql">
<polygon fill="white" stroke="black" points="1285.5,-900.5 1285.5,-921.5 1564.5,-921.5 1564.5,-900.5 1285.5,-900.5"/>
<text text-anchor="middle" x="1425" y="-908.5" font-family="Helvetica,sans-Serif" font-size="10.00">ZendDbSchema_Db_Schema_Table_Column\_getDeleteSql</text>
</a>
</g>
<!-- Node8&#45;&gt;Node23 -->
<g id="edge44" class="edge"><title>Node8&#45;&gt;Node23</title>
<path fill="none" stroke="midnightblue" d="M1113.41,-807.206C1147.5,-829.938 1213.57,-870.769 1276,-891 1287.92,-894.862 1300.6,-897.979 1313.35,-900.494"/>
<polygon fill="midnightblue" stroke="midnightblue" points="1115.31,-804.266 1105.06,-801.574 1111.4,-810.068 1115.31,-804.266"/>
</g>
<!-- Node24 -->
<g id="node47" class="node"><title>Node24</title>
<a xlink:href="classZendDbSchema__Db__Schema__Table__ForeignKey.html#acc96fbb08d8271259f56bd77c37f2da4" target="_top" xlink:title="ZendDbSchema_Db_Schema_Table_ForeignKey\\_getDeleteSql">
<polygon fill="white" stroke="black" points="1277.5,-860.5 1277.5,-881.5 1572.5,-881.5 1572.5,-860.5 1277.5,-860.5"/>
<text text-anchor="middle" x="1425" y="-868.5" font-family="Helvetica,sans-Serif" font-size="10.00">ZendDbSchema_Db_Schema_Table_ForeignKey\_getDeleteSql</text>
</a>
</g>
<!-- Node8&#45;&gt;Node24 -->
<g id="edge46" class="edge"><title>Node8&#45;&gt;Node24</title>
<path fill="none" stroke="midnightblue" d="M1126.7,-804.995C1163.84,-818.638 1223.14,-839.028 1276,-851 1292.55,-854.748 1310.3,-857.881 1327.57,-860.472"/>
<polygon fill="midnightblue" stroke="midnightblue" points="1127.9,-801.704 1117.3,-801.51 1125.46,-808.267 1127.9,-801.704"/>
</g>
<!-- Node25&#45;&gt;Node6 -->
<g id="edge50" class="edge"><title>Node25&#45;&gt;Node6</title>
<path fill="none" stroke="midnightblue" d="M1226.97,-1005.55C1231.57,-1008.32 1235.94,-1011.46 1240,-1015 1280.67,-1050.49 1234.77,-1096.16 1276,-1131 1284.07,-1137.82 1293.32,-1142.99 1303.17,-1146.85"/>
<polygon fill="midnightblue" stroke="midnightblue" points="1228.33,-1002.3 1217.87,-1000.65 1225.02,-1008.47 1228.33,-1002.3"/>
</g>
<!-- Node25&#45;&gt;Node7 -->
<g id="edge52" class="edge"><title>Node25&#45;&gt;Node7</title>
<path fill="none" stroke="midnightblue" d="M1223.4,-1004.76C1229.24,-1007.69 1234.82,-1011.08 1240,-1015 1269.83,-1037.52 1245.82,-1068.95 1276,-1091 1286.85,-1098.93 1299.37,-1104.48 1312.44,-1108.28"/>
<polygon fill="midnightblue" stroke="midnightblue" points="1224.57,-1001.44 1214.02,-1000.51 1221.69,-1007.82 1224.57,-1001.44"/>
</g>
<!-- Node27 -->
<g id="node55" class="node"><title>Node27</title>
<a xlink:href="classZendDbSchema__Db__Schema__AbstractSchema.html#ab4282a1fd6f4d9f23d01de8328072c71" target="_top" xlink:title="ZendDbSchema_Db_Schema_AbstractSchema\\__set">
<polygon fill="white" stroke="red" points="1299.5,-340.5 1299.5,-361.5 1550.5,-361.5 1550.5,-340.5 1299.5,-340.5"/>
<text text-anchor="middle" x="1425" y="-348.5" font-family="Helvetica,sans-Serif" font-size="10.00">ZendDbSchema_Db_Schema_AbstractSchema\__set</text>
</a>
</g>
<!-- Node26&#45;&gt;Node27 -->
<g id="edge56" class="edge"><title>Node26&#45;&gt;Node27</title>
<path fill="none" stroke="midnightblue" d="M1227.31,-416.892C1231.66,-415.119 1235.9,-413.161 1240,-411 1261.16,-399.844 1254.85,-382.165 1276,-371 1283.39,-367.101 1291.25,-363.864 1299.37,-361.185"/>
<polygon fill="midnightblue" stroke="midnightblue" points="1225.78,-413.725 1217.62,-420.484 1228.21,-420.288 1225.78,-413.725"/>
</g>
<!-- Node46 -->
<g id="node97" class="node"><title>Node46</title>
<a xlink:href="classZendDbSchema__Db__Schema__AbstractSchema.html#a64e2e307b4dd0bf4785258f82e9fcc1b" target="_top" xlink:title="ZendDbSchema_Db_Schema_AbstractSchema\\__unset">
<polygon fill="white" stroke="black" points="1294,-300.5 1294,-321.5 1556,-321.5 1556,-300.5 1294,-300.5"/>
<text text-anchor="middle" x="1425" y="-308.5" font-family="Helvetica,sans-Serif" font-size="10.00">ZendDbSchema_Db_Schema_AbstractSchema\__unset</text>
</a>
</g>
<!-- Node26&#45;&gt;Node46 -->
<g id="edge102" class="edge"><title>Node26&#45;&gt;Node46</title>
<path fill="none" stroke="midnightblue" d="M1233.45,-415.463C1235.69,-414.065 1237.88,-412.579 1240,-411 1271.27,-387.708 1244.74,-354.306 1276,-331 1281.54,-326.866 1287.54,-323.373 1293.83,-320.433"/>
<polygon fill="midnightblue" stroke="midnightblue" points="1231.58,-412.502 1224.54,-420.426 1234.98,-418.618 1231.58,-412.502"/>
</g>
<!-- Node47 -->
<g id="node99" class="node"><title>Node47</title>
<a xlink:href="classZendDbSchema__Db__Schema__Table__AbstractDefinition.html#ad1a0b678c2352296b55af83c59142e59" target="_top" xlink:title="ZendDbSchema_Db_Schema_Table_AbstractDefinition\\save">
<polygon fill="white" stroke="black" points="1283.5,-420.5 1283.5,-441.5 1566.5,-441.5 1566.5,-420.5 1283.5,-420.5"/>
<text text-anchor="middle" x="1425" y="-428.5" font-family="Helvetica,sans-Serif" font-size="10.00">ZendDbSchema_Db_Schema_Table_AbstractDefinition\save</text>
</a>
</g>
<!-- Node26&#45;&gt;Node47 -->
<g id="edge104" class="edge"><title>Node26&#45;&gt;Node47</title>
<path fill="none" stroke="midnightblue" d="M1239.68,-431C1254.23,-431 1268.96,-431 1283.43,-431"/>
<polygon fill="midnightblue" stroke="midnightblue" points="1239.64,-427.5 1229.64,-431 1239.64,-434.5 1239.64,-427.5"/>
</g>
<!-- Node48 -->
<g id="node101" class="node"><title>Node48</title>
<a xlink:href="classZendDbSchema__Db__Schema__AbstractEntity.html#a5b1c93da76c3708f90d330b4643e55b2" target="_top" xlink:title="ZendDbSchema_Db_Schema_AbstractEntity\\save">
<polygon fill="white" stroke="black" points="1306,-380.5 1306,-401.5 1544,-401.5 1544,-380.5 1306,-380.5"/>
<text text-anchor="middle" x="1425" y="-388.5" font-family="Helvetica,sans-Serif" font-size="10.00">ZendDbSchema_Db_Schema_AbstractEntity\save</text>
</a>
</g>
<!-- Node26&#45;&gt;Node48 -->
<g id="edge106" class="edge"><title>Node26&#45;&gt;Node48</title>
<path fill="none" stroke="midnightblue" d="M1188.23,-419.271C1235.33,-413.647 1291.3,-406.964 1336.99,-401.509"/>
<polygon fill="midnightblue" stroke="midnightblue" points="1187.53,-415.829 1178.02,-420.49 1188.36,-422.78 1187.53,-415.829"/>
</g>
<!-- Node28 -->
<g id="node57" class="node"><title>Node28</title>
<a xlink:href="classZendDbSchema__Db__Schema__AbstractEntity.html#a845c851f8d9549a8f1a3aa9bc1da3658" target="_top" xlink:title="ZendDbSchema_Db_Schema_AbstractEntity\\__clone">
<polygon fill="white" stroke="black" points="1635.5,-672.5 1635.5,-693.5 1886.5,-693.5 1886.5,-672.5 1635.5,-672.5"/>
<text text-anchor="middle" x="1761" y="-680.5" font-family="Helvetica,sans-Serif" font-size="10.00">ZendDbSchema_Db_Schema_AbstractEntity\__clone</text>
</a>
</g>
<!-- Node27&#45;&gt;Node28 -->
<g id="edge58" class="edge"><title>Node27&#45;&gt;Node28</title>
<path fill="none" stroke="midnightblue" d="M1559.65,-359.665C1564.82,-362.855 1569.64,-366.607 1574,-371 1664.51,-462.294 1520.9,-565.33 1610,-658 1617.27,-665.566 1625.9,-671.393 1635.28,-675.836"/>
<polygon fill="midnightblue" stroke="midnightblue" points="1561.1,-356.472 1550.64,-354.811 1557.78,-362.635 1561.1,-356.472"/>
</g>
<!-- Node29 -->
<g id="node59" class="node"><title>Node29</title>
<a xlink:href="classZendDbSchema__Db__Schema__Table__Index.html#a6717d976c5b0d47369d3c87ef17b1e9b" target="_top" xlink:title="ZendDbSchema_Db_Schema_Table_Index\\addColumn">
<polygon fill="white" stroke="red" points="1977.5,-619.5 1977.5,-640.5 2234.5,-640.5 2234.5,-619.5 1977.5,-619.5"/>
<text text-anchor="middle" x="2106" y="-627.5" font-family="Helvetica,sans-Serif" font-size="10.00">ZendDbSchema_Db_Schema_Table_Index\addColumn</text>
</a>
</g>
<!-- Node27&#45;&gt;Node29 -->
<g id="edge60" class="edge"><title>Node27&#45;&gt;Node29</title>
<path fill="none" stroke="midnightblue" d="M1559.56,-359.751C1564.75,-362.919 1569.61,-366.642 1574,-371 1654.92,-451.325 1524.28,-549.815 1610,-625 1670.69,-678.237 1908.56,-656.172 2031.5,-640.553"/>
<polygon fill="midnightblue" stroke="midnightblue" points="1560.99,-356.546 1550.52,-354.931 1557.69,-362.723 1560.99,-356.546"/>
</g>
<!-- Node30 -->
<g id="node61" class="node"><title>Node30</title>
<a xlink:href="classZendDbSchema__Db__Schema__Table__ForeignKey.html#a2197861c0661243f1ebcf43a7e7771f2" target="_top" xlink:title="ZendDbSchema_Db_Schema_Table_ForeignKey\\addRefColumn">
<polygon fill="white" stroke="black" points="1956.5,-511.5 1956.5,-532.5 2255.5,-532.5 2255.5,-511.5 1956.5,-511.5"/>
<text text-anchor="middle" x="2106" y="-519.5" font-family="Helvetica,sans-Serif" font-size="10.00">ZendDbSchema_Db_Schema_Table_ForeignKey\addRefColumn</text>
</a>
</g>
<!-- Node27&#45;&gt;Node30 -->
<g id="edge62" class="edge"><title>Node27&#45;&gt;Node30</title>
<path fill="none" stroke="midnightblue" d="M1559.98,-360.97C1564.96,-363.839 1569.66,-367.162 1574,-371 1621.46,-413.011 1560.35,-469.593 1610,-509 1669.84,-556.495 1884.87,-544.415 2011.31,-532.515"/>
<polygon fill="midnightblue" stroke="midnightblue" points="1561.26,-357.692 1550.76,-356.285 1558.09,-363.933 1561.26,-357.692"/>
</g>
<!-- Node31 -->
<g id="node63" class="node"><title>Node31</title>
<a xlink:href="classZendDbSchema__Db__Schema__Table__Index.html#af7c29da0f52c5270ffa3587a95295f82" target="_top" xlink:title="ZendDbSchema_Db_Schema_Table_Index\\hasColumn">
<polygon fill="white" stroke="black" points="1632.5,-594.5 1632.5,-615.5 1889.5,-615.5 1889.5,-594.5 1632.5,-594.5"/>
<text text-anchor="middle" x="1761" y="-602.5" font-family="Helvetica,sans-Serif" font-size="10.00">ZendDbSchema_Db_Schema_Table_Index\hasColumn</text>
</a>
</g>
<!-- Node27&#45;&gt;Node31 -->
<g id="edge64" class="edge"><title>Node27&#45;&gt;Node31</title>
<path fill="none" stroke="midnightblue" d="M1559.61,-360.041C1564.77,-363.138 1569.61,-366.765 1574,-371 1641.88,-436.4 1543.13,-513.567 1610,-580 1616.6,-586.555 1624.21,-591.785 1632.45,-595.929"/>
<polygon fill="midnightblue" stroke="midnightblue" points="1561.13,-356.882 1550.65,-355.318 1557.86,-363.075 1561.13,-356.882"/>
</g>
<!-- Node32 -->
<g id="node66" class="node"><title>Node32</title>
<a xlink:href="classZendDbSchema__Db__Schema__Table__Index.html#a3cfd358621bb3330ef9e7ffcf2f7b229" target="_top" xlink:title="ZendDbSchema_Db_Schema_Table_Index\\removeColumn">
<polygon fill="white" stroke="black" points="1969,-560.5 1969,-581.5 2243,-581.5 2243,-560.5 1969,-560.5"/>
<text text-anchor="middle" x="2106" y="-568.5" font-family="Helvetica,sans-Serif" font-size="10.00">ZendDbSchema_Db_Schema_Table_Index\removeColumn</text>
</a>
</g>
<!-- Node27&#45;&gt;Node32 -->
<g id="edge76" class="edge"><title>Node27&#45;&gt;Node32</title>
<path fill="none" stroke="midnightblue" d="M1559.62,-360.382C1564.75,-363.394 1569.58,-366.909 1574,-371 1630.34,-423.188 1551.84,-489.845 1610,-540 1661.94,-584.797 1840.7,-585.906 1968.7,-580.315"/>
<polygon fill="midnightblue" stroke="midnightblue" points="1561.21,-357.262 1550.72,-355.778 1557.99,-363.48 1561.21,-357.262"/>
</g>
<!-- Node33 -->
<g id="node68" class="node"><title>Node33</title>
<a xlink:href="classZendDbSchema__Db__Schema__Table__ForeignKey.html#aee976a90aff6a23580c6bbd11baf2ec0" target="_top" xlink:title="ZendDbSchema_Db_Schema_Table_ForeignKey\\hasRefColumn">
<polygon fill="white" stroke="black" points="1611.5,-478.5 1611.5,-499.5 1910.5,-499.5 1910.5,-478.5 1611.5,-478.5"/>
<text text-anchor="middle" x="1761" y="-486.5" font-family="Helvetica,sans-Serif" font-size="10.00">ZendDbSchema_Db_Schema_Table_ForeignKey\hasRefColumn</text>
</a>
</g>
<!-- Node27&#45;&gt;Node33 -->
<g id="edge70" class="edge"><title>Node27&#45;&gt;Node33</title>
<path fill="none" stroke="midnightblue" d="M1559.89,-361.834C1564.85,-364.478 1569.58,-367.516 1574,-371 1608.81,-398.435 1575.61,-436.035 1610,-464 1617.22,-469.868 1625.28,-474.599 1633.83,-478.393"/>
<polygon fill="midnightblue" stroke="midnightblue" points="1561.26,-358.613 1550.73,-357.49 1558.26,-364.938 1561.26,-358.613"/>
</g>
<!-- Node34 -->
<g id="node71" class="node"><title>Node34</title>
<a xlink:href="classZendDbSchema__Db__Schema__Table__ForeignKey.html#ab1730184f38846e90fc31b891a3d9b8c" target="_top" xlink:title="ZendDbSchema_Db_Schema_Table_ForeignKey\\removeRefColumn">
<polygon fill="white" stroke="black" points="1948.5,-453.5 1948.5,-474.5 2263.5,-474.5 2263.5,-453.5 1948.5,-453.5"/>
<text text-anchor="middle" x="2106" y="-461.5" font-family="Helvetica,sans-Serif" font-size="10.00">ZendDbSchema_Db_Schema_Table_ForeignKey\removeRefColumn</text>
</a>
</g>
<!-- Node27&#45;&gt;Node34 -->
<g id="edge78" class="edge"><title>Node27&#45;&gt;Node34</title>
<path fill="none" stroke="midnightblue" d="M1560.22,-363.301C1565,-365.56 1569.62,-368.115 1574,-371 1599.98,-388.092 1583.46,-414.788 1610,-431 1638.51,-448.42 1814.06,-456.841 1948.31,-460.775"/>
<polygon fill="midnightblue" stroke="midnightblue" points="1561.4,-360.002 1550.83,-359.312 1558.67,-366.445 1561.4,-360.002"/>
</g>
<!-- Node35 -->
<g id="node75" class="node"><title>Node35</title>
<a xlink:href="classZendDbSchema__Db__Schema__Database.html#acfc530f3381e35f7d57676c4dcff3620" target="_top" xlink:title="ZendDbSchema_Db_Schema_Database\\setCharset">
<polygon fill="white" stroke="black" points="1638.5,-400.5 1638.5,-421.5 1883.5,-421.5 1883.5,-400.5 1638.5,-400.5"/>
<text text-anchor="middle" x="1761" y="-408.5" font-family="Helvetica,sans-Serif" font-size="10.00">ZendDbSchema_Db_Schema_Database\setCharset</text>
</a>
</g>
<!-- Node27&#45;&gt;Node35 -->
<g id="edge80" class="edge"><title>Node27&#45;&gt;Node35</title>
<path fill="none" stroke="midnightblue" d="M1547.4,-363.639C1556.5,-365.729 1565.45,-368.164 1574,-371 1591.37,-376.762 1592.62,-385.253 1610,-391 1621.67,-394.861 1634.09,-397.979 1646.59,-400.497"/>
<polygon fill="midnightblue" stroke="midnightblue" points="1548.01,-360.189 1537.5,-361.503 1546.53,-367.032 1548.01,-360.189"/>
</g>
<!-- Node36 -->
<g id="node77" class="node"><title>Node36</title>
<a xlink:href="classZendDbSchema__Db__Schema__Table__Index.html#a77b65e961a7da9ca89fdebd682338fcf" target="_top" xlink:title="ZendDbSchema_Db_Schema_Table_Index\\setColumns">
<polygon fill="white" stroke="black" points="1631,-360.5 1631,-381.5 1891,-381.5 1891,-360.5 1631,-360.5"/>
<text text-anchor="middle" x="1761" y="-368.5" font-family="Helvetica,sans-Serif" font-size="10.00">ZendDbSchema_Db_Schema_Table_Index\setColumns</text>
</a>
</g>
<!-- Node27&#45;&gt;Node36 -->
<g id="edge82" class="edge"><title>Node27&#45;&gt;Node36</title>
<path fill="none" stroke="midnightblue" d="M1560.79,-359.083C1583.89,-360.458 1607.84,-361.883 1630.79,-363.25"/>
<polygon fill="midnightblue" stroke="midnightblue" points="1560.78,-355.576 1550.59,-358.476 1560.37,-362.564 1560.78,-355.576"/>
</g>
<!-- Node37 -->
<g id="node79" class="node"><title>Node37</title>
<a xlink:href="classZendDbSchema__Db__Schema__Table__Column.html#aae45b2b24302735971d487e6037ee732" target="_top" xlink:title="ZendDbSchema_Db_Schema_Table_Column\\setComment">
<polygon fill="white" stroke="black" points="1624,-320.5 1624,-341.5 1898,-341.5 1898,-320.5 1624,-320.5"/>
<text text-anchor="middle" x="1761" y="-328.5" font-family="Helvetica,sans-Serif" font-size="10.00">ZendDbSchema_Db_Schema_Table_Column\setComment</text>
</a>
</g>
<!-- Node27&#45;&gt;Node37 -->
<g id="edge84" class="edge"><title>Node27&#45;&gt;Node37</title>
<path fill="none" stroke="midnightblue" d="M1560.72,-342.921C1581.49,-341.685 1602.93,-340.409 1623.73,-339.171"/>
<polygon fill="midnightblue" stroke="midnightblue" points="1560.37,-339.436 1550.59,-343.524 1560.78,-346.424 1560.37,-339.436"/>
</g>
<!-- Node38 -->
<g id="node81" class="node"><title>Node38</title>
<a xlink:href="classZendDbSchema__Db__Schema__Table__Column.html#ab4eed7ec6d80aa36d4447566e1ae0294" target="_top" xlink:title="ZendDbSchema_Db_Schema_Table_Column\\setDefault">
<polygon fill="white" stroke="black" points="1629.5,-280.5 1629.5,-301.5 1892.5,-301.5 1892.5,-280.5 1629.5,-280.5"/>
<text text-anchor="middle" x="1761" y="-288.5" font-family="Helvetica,sans-Serif" font-size="10.00">ZendDbSchema_Db_Schema_Table_Column\setDefault</text>
</a>
</g>
<!-- Node27&#45;&gt;Node38 -->
<g id="edge86" class="edge"><title>Node27&#45;&gt;Node38</title>
<path fill="none" stroke="midnightblue" d="M1547.4,-338.361C1556.5,-336.271 1565.45,-333.836 1574,-331 1591.37,-325.238 1592.62,-316.747 1610,-311 1621.67,-307.139 1634.09,-304.021 1646.59,-301.503"/>
<polygon fill="midnightblue" stroke="midnightblue" points="1546.53,-334.968 1537.5,-340.497 1548.01,-341.811 1546.53,-334.968"/>
</g>
<!-- Node39 -->
<g id="node83" class="node"><title>Node39</title>
<a xlink:href="classZendDbSchema__Db__Schema__AbstractSchema.html#acd81590f02c831ff4c4a442c5cf47074" target="_top" xlink:title="ZendDbSchema_Db_Schema_AbstractSchema\\setFromArray">
<polygon fill="white" stroke="red" points="1617.5,-240.5 1617.5,-261.5 1904.5,-261.5 1904.5,-240.5 1617.5,-240.5"/>
<text text-anchor="middle" x="1761" y="-248.5" font-family="Helvetica,sans-Serif" font-size="10.00">ZendDbSchema_Db_Schema_AbstractSchema\setFromArray</text>
</a>
</g>
<!-- Node27&#45;&gt;Node39 -->
<g id="edge88" class="edge"><title>Node27&#45;&gt;Node39</title>
<path fill="none" stroke="midnightblue" d="M1560.22,-338.699C1565,-336.44 1569.62,-333.885 1574,-331 1599.98,-313.908 1584,-288.069 1610,-271 1615.53,-267.371 1621.41,-264.261 1627.54,-261.601"/>
<polygon fill="midnightblue" stroke="midnightblue" points="1558.67,-335.555 1550.83,-342.688 1561.4,-341.998 1558.67,-335.555"/>
</g>
<!-- Node40 -->
<g id="node85" class="node"><title>Node40</title>
<a xlink:href="classZendDbSchema__Db__Schema__Table__Column.html#a2f7872172e98a14cbe7d06e295e0106e" target="_top" xlink:title="ZendDbSchema_Db_Schema_Table_Column\\setLength">
<polygon fill="white" stroke="black" points="1631,-200.5 1631,-221.5 1891,-221.5 1891,-200.5 1631,-200.5"/>
<text text-anchor="middle" x="1761" y="-208.5" font-family="Helvetica,sans-Serif" font-size="10.00">ZendDbSchema_Db_Schema_Table_Column\setLength</text>
</a>
</g>
<!-- Node27&#45;&gt;Node40 -->
<g id="edge90" class="edge"><title>Node27&#45;&gt;Node40</title>
<path fill="none" stroke="midnightblue" d="M1559.78,-340.414C1564.79,-337.707 1569.56,-334.587 1574,-331 1610.75,-301.322 1573.22,-260.646 1610,-231 1616.38,-225.855 1623.43,-221.663 1630.9,-218.268"/>
<polygon fill="midnightblue" stroke="midnightblue" points="1558.02,-337.373 1550.52,-344.851 1561.05,-343.686 1558.02,-337.373"/>
</g>
<!-- Node41 -->
<g id="node87" class="node"><title>Node41</title>
<a xlink:href="classZendDbSchema__Db__Schema__AbstractSchema.html#a281403d9e41839e925bade11d8b69b91" target="_top" xlink:title="ZendDbSchema_Db_Schema_AbstractSchema\\setName">
<polygon fill="white" stroke="black" points="1627.5,-160.5 1627.5,-181.5 1894.5,-181.5 1894.5,-160.5 1627.5,-160.5"/>
<text text-anchor="middle" x="1761" y="-168.5" font-family="Helvetica,sans-Serif" font-size="10.00">ZendDbSchema_Db_Schema_AbstractSchema\setName</text>
</a>
</g>
<!-- Node27&#45;&gt;Node41 -->
<g id="edge92" class="edge"><title>Node27&#45;&gt;Node41</title>
<path fill="none" stroke="midnightblue" d="M1560,-341.049C1564.97,-338.175 1569.67,-334.846 1574,-331 1622.03,-288.335 1561.93,-233.623 1610,-191 1615.24,-186.351 1621.02,-182.45 1627.16,-179.192"/>
<polygon fill="midnightblue" stroke="midnightblue" points="1558.11,-338.086 1550.78,-345.742 1561.28,-344.325 1558.11,-338.086"/>
</g>
<!-- Node42 -->
<g id="node89" class="node"><title>Node42</title>
<a xlink:href="classZendDbSchema__Db__Schema__Table__Column.html#aa4350a230e6b0e41d9fb9da7c4d3df8b" target="_top" xlink:title="ZendDbSchema_Db_Schema_Table_Column\\setNullable">
<polygon fill="white" stroke="black" points="1628,-120.5 1628,-141.5 1894,-141.5 1894,-120.5 1628,-120.5"/>
<text text-anchor="middle" x="1761" y="-128.5" font-family="Helvetica,sans-Serif" font-size="10.00">ZendDbSchema_Db_Schema_Table_Column\setNullable</text>
</a>
</g>
<!-- Node27&#45;&gt;Node42 -->
<g id="edge94" class="edge"><title>Node27&#45;&gt;Node42</title>
<path fill="none" stroke="midnightblue" d="M1559.69,-341.686C1564.8,-338.656 1569.61,-335.118 1574,-331 1633.5,-275.185 1550.45,-206.763 1610,-151 1615.4,-145.939 1621.43,-141.746 1627.89,-138.292"/>
<polygon fill="midnightblue" stroke="midnightblue" points="1558.05,-338.59 1550.81,-346.317 1561.29,-344.796 1558.05,-338.59"/>
</g>
<!-- Node43 -->
<g id="node91" class="node"><title>Node43</title>
<a xlink:href="classZendDbSchema__Db__Schema__Table__ForeignKey.html#a0c51ff09d6df59b68f8f5ff4ec1ed32d" target="_top" xlink:title="ZendDbSchema_Db_Schema_Table_ForeignKey\\setOnDelete">
<polygon fill="white" stroke="black" points="1617,-80.5 1617,-101.5 1905,-101.5 1905,-80.5 1617,-80.5"/>
<text text-anchor="middle" x="1761" y="-88.5" font-family="Helvetica,sans-Serif" font-size="10.00">ZendDbSchema_Db_Schema_Table_ForeignKey\setOnDelete</text>
</a>
</g>
<!-- Node27&#45;&gt;Node43 -->
<g id="edge96" class="edge"><title>Node27&#45;&gt;Node43</title>
<path fill="none" stroke="midnightblue" d="M1559.66,-342.005C1564.8,-338.896 1569.62,-335.253 1574,-331 1645.06,-261.956 1538.88,-179.982 1610,-111 1613.61,-107.502 1617.51,-104.413 1621.65,-101.691"/>
<polygon fill="midnightblue" stroke="midnightblue" points="1557.91,-338.971 1550.71,-346.745 1561.18,-345.156 1557.91,-338.971"/>
</g>
<!-- Node44 -->
<g id="node93" class="node"><title>Node44</title>
<a xlink:href="classZendDbSchema__Db__Schema__Table__ForeignKey.html#ae8ffd9c6bad60eaf6ef05cdd1f5c56fb" target="_top" xlink:title="ZendDbSchema_Db_Schema_Table_ForeignKey\\setOnUpdate">
<polygon fill="white" stroke="black" points="1615.5,-40.5 1615.5,-61.5 1906.5,-61.5 1906.5,-40.5 1615.5,-40.5"/>
<text text-anchor="middle" x="1761" y="-48.5" font-family="Helvetica,sans-Serif" font-size="10.00">ZendDbSchema_Db_Schema_Table_ForeignKey\setOnUpdate</text>
</a>
</g>
<!-- Node27&#45;&gt;Node44 -->
<g id="edge98" class="edge"><title>Node27&#45;&gt;Node44</title>
<path fill="none" stroke="midnightblue" d="M1559.58,-342.266C1564.77,-339.094 1569.62,-335.365 1574,-331 1656.66,-248.682 1527.27,-153.246 1610,-71 1613.56,-67.4577 1617.43,-64.3311 1621.53,-61.5779"/>
<polygon fill="midnightblue" stroke="midnightblue" points="1557.71,-339.294 1550.54,-347.093 1561.01,-345.469 1557.71,-339.294"/>
</g>
<!-- Node45 -->
<g id="node95" class="node"><title>Node45</title>
<a xlink:href="classZendDbSchema__Db__Schema__Table__ForeignKey.html#a5788c3c190f6f311cdb1fea25ebcaa0c" target="_top" xlink:title="ZendDbSchema_Db_Schema_Table_ForeignKey\\setRefColumns">
<polygon fill="white" stroke="black" points="1610,-0.5 1610,-21.5 1912,-21.5 1912,-0.5 1610,-0.5"/>
<text text-anchor="middle" x="1761" y="-8.5" font-family="Helvetica,sans-Serif" font-size="10.00">ZendDbSchema_Db_Schema_Table_ForeignKey\setRefColumns</text>
</a>
</g>
<!-- Node27&#45;&gt;Node45 -->
<g id="edge100" class="edge"><title>Node27&#45;&gt;Node45</title>
<path fill="none" stroke="midnightblue" d="M1559.67,-342.364C1564.84,-339.166 1569.66,-335.405 1574,-331 1668.29,-235.38 1515.63,-126.537 1610,-31 1613.44,-27.5196 1617.17,-24.4377 1621.13,-21.715"/>
<polygon fill="midnightblue" stroke="midnightblue" points="1557.81,-339.394 1550.68,-347.229 1561.14,-345.552 1557.81,-339.394"/>
</g>
<!-- Node31&#45;&gt;Node29 -->
<g id="edge66" class="edge"><title>Node31&#45;&gt;Node29</title>
<path fill="none" stroke="midnightblue" d="M1900.08,-615.078C1925.65,-616.931 1952.24,-618.858 1977.49,-620.687"/>
<polygon fill="midnightblue" stroke="midnightblue" points="1900.18,-611.577 1889.96,-614.345 1899.68,-618.558 1900.18,-611.577"/>
</g>
<!-- Node31&#45;&gt;Node32 -->
<g id="edge68" class="edge"><title>Node31&#45;&gt;Node32</title>
<path fill="none" stroke="midnightblue" d="M1877.96,-593.473C1917.29,-589.598 1960.93,-585.297 1999.41,-581.505"/>
<polygon fill="midnightblue" stroke="midnightblue" points="1877.41,-590.011 1867.8,-594.475 1878.09,-596.977 1877.41,-590.011"/>
</g>
<!-- Node33&#45;&gt;Node30 -->
<g id="edge72" class="edge"><title>Node33&#45;&gt;Node30</title>
<path fill="none" stroke="midnightblue" d="M1881.51,-500.527C1918.75,-504.089 1959.56,-507.993 1996.05,-511.483"/>
<polygon fill="midnightblue" stroke="midnightblue" points="1881.4,-497 1871.11,-499.532 1880.73,-503.968 1881.4,-497"/>
</g>
<!-- Node33&#45;&gt;Node34 -->
<g id="edge74" class="edge"><title>Node33&#45;&gt;Node34</title>
<path fill="none" stroke="midnightblue" d="M1916.5,-477.732C1931.26,-476.662 1946.2,-475.58 1960.86,-474.518"/>
<polygon fill="midnightblue" stroke="midnightblue" points="1916.03,-474.257 1906.31,-478.47 1916.54,-481.238 1916.03,-474.257"/>
</g>
</g>
</svg>
