<?xml version="1.0" encoding="UTF-8" standalone="no"?>
<!DOCTYPE svg PUBLIC "-//W3C//DTD SVG 1.1//EN"
 "http://www.w3.org/Graphics/SVG/1.1/DTD/svg11.dtd">
<!-- Generated by graphviz version 2.26.3 (20100126.1600)
 -->
<!-- Title: G Pages: 1 -->
<svg width="1596pt" height="210pt"
 viewBox="0.00 0.00 1596.00 210.48" xmlns="http://www.w3.org/2000/svg" xmlns:xlink="http://www.w3.org/1999/xlink">
<g id="graph1" class="graph" transform="scale(1 1) rotate(0) translate(4 206.476)">
<title>G</title>
<polygon fill="white" stroke="white" points="-4,5 -4,-206.476 1593,-206.476 1593,5 -4,5"/>
<!-- Node1 -->
<g id="node1" class="node"><title>Node1</title>
<polygon fill="#bfbfbf" stroke="black" points="0,-98.5 0,-119.5 320,-119.5 320,-98.5 0,-98.5"/>
<text text-anchor="middle" x="160" y="-106.5" font-family="Helvetica,sans-Serif" font-size="10.00">ZendDbSchema_Db_Schema_Generator_Mysql\generateIndexCreate</text>
</g>
<!-- Node2 -->
<g id="node3" class="node"><title>Node2</title>
<a xlink:href="classZendDbSchema__Db__Schema__AbstractSchema.html#a55787c21deddba427842809d589c2df6" target="_top" xlink:title="ZendDbSchema_Db_Schema_AbstractSchema\\getName">
<polygon fill="white" stroke="black" points="720.5,-159.5 720.5,-180.5 987.5,-180.5 987.5,-159.5 720.5,-159.5"/>
<text text-anchor="middle" x="854" y="-167.5" font-family="Helvetica,sans-Serif" font-size="10.00">ZendDbSchema_Db_Schema_AbstractSchema\getName</text>
</a>
</g>
<!-- Node1&#45;&gt;Node2 -->
<g id="edge2" class="edge"><title>Node1&#45;&gt;Node2</title>
<path fill="none" stroke="midnightblue" d="M179.279,-119.554C213.585,-137.665 288.019,-173.97 356,-187 506.577,-215.861 687.345,-196.614 784.334,-182.036"/>
<polygon fill="midnightblue" stroke="midnightblue" points="784.956,-185.482 794.311,-180.508 783.897,-178.562 784.956,-185.482"/>
</g>
<!-- Node5 -->
<g id="node9" class="node"><title>Node5</title>
<a xlink:href="classZendDbSchema__Db__Schema__Table__AbstractDefinition.html#a224b6a0c1df1d6ed40e03657782ef6fc" target="_top" xlink:title="ZendDbSchema_Db_Schema_Table_AbstractDefinition\\getTable">
<polygon fill="white" stroke="black" points="704.5,-119.5 704.5,-140.5 1003.5,-140.5 1003.5,-119.5 704.5,-119.5"/>
<text text-anchor="middle" x="854" y="-127.5" font-family="Helvetica,sans-Serif" font-size="10.00">ZendDbSchema_Db_Schema_Table_AbstractDefinition\getTable</text>
</a>
</g>
<!-- Node1&#45;&gt;Node5 -->
<g id="edge8" class="edge"><title>Node1&#45;&gt;Node5</title>
<path fill="none" stroke="midnightblue" d="M320.089,-113.844C432.387,-117.242 581.912,-121.767 694.156,-125.163"/>
<polygon fill="midnightblue" stroke="midnightblue" points="694.114,-128.663 704.215,-125.468 694.326,-121.667 694.114,-128.663"/>
</g>
<!-- Node6 -->
<g id="node11" class="node"><title>Node6</title>
<a xlink:href="classZendDbSchema__Db__Schema__Table__Index.html#ad0edf2869c08ce408566798f4305b8dc" target="_top" xlink:title="ZendDbSchema_Db_Schema_Table_Index\\getColumns">
<polygon fill="white" stroke="black" points="724,-79.5 724,-100.5 984,-100.5 984,-79.5 724,-79.5"/>
<text text-anchor="middle" x="854" y="-87.5" font-family="Helvetica,sans-Serif" font-size="10.00">ZendDbSchema_Db_Schema_Table_Index\getColumns</text>
</a>
</g>
<!-- Node1&#45;&gt;Node6 -->
<g id="edge10" class="edge"><title>Node1&#45;&gt;Node6</title>
<path fill="none" stroke="midnightblue" d="M320.089,-104.617C438.993,-101.362 599.632,-96.964 713.562,-93.8449"/>
<polygon fill="midnightblue" stroke="midnightblue" points="713.847,-97.3385 723.747,-93.566 713.655,-90.3411 713.847,-97.3385"/>
</g>
<!-- Node7 -->
<g id="node14" class="node"><title>Node7</title>
<a xlink:href="classZendDbSchema__Db__Schema__Table__AbstractDefinition.html#a630d65e68b1bb78943849de330e499e1" target="_top" xlink:title="ZendDbSchema_Db_Schema_Table_AbstractDefinition\\getType">
<polygon fill="white" stroke="black" points="363.5,-40.5 363.5,-61.5 660.5,-61.5 660.5,-40.5 363.5,-40.5"/>
<text text-anchor="middle" x="512" y="-48.5" font-family="Helvetica,sans-Serif" font-size="10.00">ZendDbSchema_Db_Schema_Table_AbstractDefinition\getType</text>
</a>
</g>
<!-- Node1&#45;&gt;Node7 -->
<g id="edge14" class="edge"><title>Node1&#45;&gt;Node7</title>
<path fill="none" stroke="midnightblue" d="M221.772,-98.4712C260.348,-91.928 311.054,-83.3851 356,-76 381.925,-71.7403 410.289,-67.1683 435.638,-63.114"/>
<polygon fill="midnightblue" stroke="midnightblue" points="436.238,-66.5627 445.561,-61.5288 435.134,-59.6503 436.238,-66.5627"/>
</g>
<!-- Node8 -->
<g id="node17" class="node"><title>Node8</title>
<a xlink:href="classZendDbSchema__Db__Schema__AbstractSchema.html#a1680a8fd22360f74d29b641d7257a52f" target="_top" xlink:title="ZendDbSchema_Db_Schema_AbstractSchema\\isExist">
<polygon fill="white" stroke="black" points="383.5,-0.5 383.5,-21.5 640.5,-21.5 640.5,-0.5 383.5,-0.5"/>
<text text-anchor="middle" x="512" y="-8.5" font-family="Helvetica,sans-Serif" font-size="10.00">ZendDbSchema_Db_Schema_AbstractSchema\isExist</text>
</a>
</g>
<!-- Node1&#45;&gt;Node8 -->
<g id="edge18" class="edge"><title>Node1&#45;&gt;Node8</title>
<path fill="none" stroke="midnightblue" d="M181.442,-98.3825C216.863,-81.3253 290.229,-48.0135 356,-31 367.681,-27.9784 379.977,-25.4041 392.328,-23.2126"/>
<polygon fill="midnightblue" stroke="midnightblue" points="392.959,-26.6557 402.235,-21.5359 391.791,-19.7538 392.959,-26.6557"/>
</g>
<!-- Node10 -->
<g id="node21" class="node"><title>Node10</title>
<a xlink:href="classZendDbSchema__Db__Schema__Generator__Mysql.html#a36c7e3f32e391e1a0a767faa8d4ae078" target="_top" xlink:title="ZendDbSchema_Db_Schema_Generator_Mysql\\generateIndexDrop">
<polygon fill="white" stroke="black" points="356.5,-156.5 356.5,-177.5 667.5,-177.5 667.5,-156.5 356.5,-156.5"/>
<text text-anchor="middle" x="512" y="-164.5" font-family="Helvetica,sans-Serif" font-size="10.00">ZendDbSchema_Db_Schema_Generator_Mysql\generateIndexDrop</text>
</a>
</g>
<!-- Node1&#45;&gt;Node10 -->
<g id="edge22" class="edge"><title>Node1&#45;&gt;Node10</title>
<path fill="none" stroke="midnightblue" d="M221.772,-119.529C260.348,-126.072 311.054,-134.615 356,-142 381.925,-146.26 410.289,-150.832 435.638,-154.886"/>
<polygon fill="midnightblue" stroke="midnightblue" points="435.134,-158.35 445.561,-156.471 436.238,-151.437 435.134,-158.35"/>
</g>
<!-- Node3 -->
<g id="node5" class="node"><title>Node3</title>
<a xlink:href="classZendDbSchema__Db__Schema__AbstractSchema.html#a54d32c6f15463eaad2321a9f0e7225d7" target="_top" xlink:title="ZendDbSchema_Db_Schema_AbstractSchema\\__get">
<polygon fill="white" stroke="black" points="1040.5,-79.5 1040.5,-100.5 1291.5,-100.5 1291.5,-79.5 1040.5,-79.5"/>
<text text-anchor="middle" x="1166" y="-87.5" font-family="Helvetica,sans-Serif" font-size="10.00">ZendDbSchema_Db_Schema_AbstractSchema\__get</text>
</a>
</g>
<!-- Node2&#45;&gt;Node3 -->
<g id="edge4" class="edge"><title>Node2&#45;&gt;Node3</title>
<path fill="none" stroke="midnightblue" d="M956.241,-159.468C972.336,-156.921 988.702,-153.803 1004,-150 1050.03,-138.559 1101.01,-118.357 1133.26,-104.584"/>
<polygon fill="midnightblue" stroke="midnightblue" points="1134.85,-107.711 1142.64,-100.533 1132.07,-101.284 1134.85,-107.711"/>
</g>
<!-- Node4 -->
<g id="node7" class="node"><title>Node4</title>
<a xlink:href="classZendDbSchema__Db__Schema__AbstractSchema.html#ac4e121ba7932163eb1950fabe06fb9db" target="_top" xlink:title="ZendDbSchema_Db_Schema_AbstractSchema\\__isset">
<polygon fill="white" stroke="black" points="1328.5,-79.5 1328.5,-100.5 1587.5,-100.5 1587.5,-79.5 1328.5,-79.5"/>
<text text-anchor="middle" x="1458" y="-87.5" font-family="Helvetica,sans-Serif" font-size="10.00">ZendDbSchema_Db_Schema_AbstractSchema\__isset</text>
</a>
</g>
<!-- Node3&#45;&gt;Node4 -->
<g id="edge6" class="edge"><title>Node3&#45;&gt;Node4</title>
<path fill="none" stroke="midnightblue" d="M1291.53,-90C1300.4,-90 1309.38,-90 1318.32,-90"/>
<polygon fill="midnightblue" stroke="midnightblue" points="1318.4,-93.5001 1328.4,-90 1318.4,-86.5001 1318.4,-93.5001"/>
</g>
<!-- Node6&#45;&gt;Node3 -->
<g id="edge12" class="edge"><title>Node6&#45;&gt;Node3</title>
<path fill="none" stroke="midnightblue" d="M984.057,-90C999.282,-90 1014.85,-90 1030.15,-90"/>
<polygon fill="midnightblue" stroke="midnightblue" points="1030.16,-93.5001 1040.16,-90 1030.16,-86.5001 1030.16,-93.5001"/>
</g>
<!-- Node7&#45;&gt;Node3 -->
<g id="edge16" class="edge"><title>Node7&#45;&gt;Node3</title>
<path fill="none" stroke="midnightblue" d="M660.751,-53.4855C758.447,-55.9206 888.977,-60.6955 1004,-70 1029.2,-72.0384 1056.51,-75.0847 1081.4,-78.1891"/>
<polygon fill="midnightblue" stroke="midnightblue" points="1081.17,-81.6887 1091.53,-79.4731 1082.05,-74.7442 1081.17,-81.6887"/>
</g>
<!-- Node9 -->
<g id="node19" class="node"><title>Node9</title>
<a xlink:href="classZendDbSchema__Db__Schema__AbstractSchema.html#a219012c80be57ace4b1db43a9c48eb3d" target="_top" xlink:title="ZendDbSchema_Db_Schema_AbstractSchema\\getSchema">
<polygon fill="white" stroke="black" points="715.5,-0.5 715.5,-21.5 992.5,-21.5 992.5,-0.5 715.5,-0.5"/>
<text text-anchor="middle" x="854" y="-8.5" font-family="Helvetica,sans-Serif" font-size="10.00">ZendDbSchema_Db_Schema_AbstractSchema\getSchema</text>
</a>
</g>
<!-- Node8&#45;&gt;Node9 -->
<g id="edge20" class="edge"><title>Node8&#45;&gt;Node9</title>
<path fill="none" stroke="midnightblue" d="M640.808,-11C661.813,-11 683.724,-11 705.162,-11"/>
<polygon fill="midnightblue" stroke="midnightblue" points="705.306,-14.5001 715.306,-11 705.306,-7.5001 705.306,-14.5001"/>
</g>
<!-- Node10&#45;&gt;Node2 -->
<g id="edge24" class="edge"><title>Node10&#45;&gt;Node2</title>
<path fill="none" stroke="midnightblue" d="M667.988,-168.368C682.093,-168.492 696.336,-168.617 710.328,-168.74"/>
<polygon fill="midnightblue" stroke="midnightblue" points="710.436,-172.241 720.466,-168.829 710.497,-165.241 710.436,-172.241"/>
</g>
<!-- Node10&#45;&gt;Node5 -->
<g id="edge26" class="edge"><title>Node10&#45;&gt;Node5</title>
<path fill="none" stroke="midnightblue" d="M609.089,-156.496C651.96,-151.858 702.506,-146.39 746.511,-141.629"/>
<polygon fill="midnightblue" stroke="midnightblue" points="747.103,-145.085 756.669,-140.53 746.35,-138.126 747.103,-145.085"/>
</g>
</g>
</svg>
