<?xml version="1.0" encoding="UTF-8" standalone="no"?>
<!DOCTYPE svg PUBLIC "-//W3C//DTD SVG 1.1//EN"
 "http://www.w3.org/Graphics/SVG/1.1/DTD/svg11.dtd">
<!-- Generated by graphviz version 2.26.3 (20100126.1600)
 -->
<!-- Title: G Pages: 1 -->
<svg width="370pt" height="94pt"
 viewBox="0.00 0.00 370.00 94.00" xmlns="http://www.w3.org/2000/svg" xmlns:xlink="http://www.w3.org/1999/xlink">
<g id="graph1" class="graph" transform="scale(1 1) rotate(0) translate(4 90)">
<title>G</title>
<polygon fill="white" stroke="white" points="-4,5 -4,-90 367,-90 367,5 -4,5"/>
<!-- Node1 -->
<g id="node1" class="node"><title>Node1</title>
<polygon fill="#bfbfbf" stroke="black" points="0.5,-26 0.5,-60 175.5,-60 175.5,-26 0.5,-26"/>
<text text-anchor="start" x="8.5" y="-47" font-family="Helvetica,sans-Serif" font-size="10.00">ZendDbSchema_Tool_Project</text>
<text text-anchor="middle" x="88" y="-34" font-family="Helvetica,sans-Serif" font-size="10.00">_Provider_Migration\createResource</text>
</g>
<!-- Node2 -->
<g id="node3" class="node"><title>Node2</title>
<a xlink:href="classZendDbSchema__Db__Migration__Skeleton.html#a51234b84a2f9886f3e08d63519a6eb9d" target="_top" xlink:title="ZendDbSchema_Db_Migration\l_Skeleton\\generateVersion">
<polygon fill="white" stroke="black" points="212,-52 212,-86 362,-86 362,-52 212,-52"/>
<text text-anchor="start" x="220" y="-73" font-family="Helvetica,sans-Serif" font-size="10.00">ZendDbSchema_Db_Migration</text>
<text text-anchor="middle" x="287" y="-60" font-family="Helvetica,sans-Serif" font-size="10.00">_Skeleton\generateVersion</text>
</a>
</g>
<!-- Node1&#45;&gt;Node2 -->
<g id="edge2" class="edge"><title>Node1&#45;&gt;Node2</title>
<path fill="none" stroke="midnightblue" d="M175.574,-54.4418C184.268,-55.5777 193.085,-56.7297 201.755,-57.8625"/>
<polygon fill="midnightblue" stroke="midnightblue" points="201.479,-61.3561 211.849,-59.1812 202.386,-54.4151 201.479,-61.3561"/>
</g>
<!-- Node3 -->
<g id="node5" class="node"><title>Node3</title>
<a xlink:href="classZendDbSchema__Db__Migration__Skeleton.html#a1dabe0c3a95ba3b2f0a479ff1eee3351" target="_top" xlink:title="ZendDbSchema_Db_Migration\l_Skeleton\\getFilename">
<polygon fill="white" stroke="black" points="212,-0 212,-34 362,-34 362,-0 212,-0"/>
<text text-anchor="start" x="220" y="-21" font-family="Helvetica,sans-Serif" font-size="10.00">ZendDbSchema_Db_Migration</text>
<text text-anchor="middle" x="287" y="-8" font-family="Helvetica,sans-Serif" font-size="10.00">_Skeleton\getFilename</text>
</a>
</g>
<!-- Node1&#45;&gt;Node3 -->
<g id="edge4" class="edge"><title>Node1&#45;&gt;Node3</title>
<path fill="none" stroke="midnightblue" d="M175.574,-31.5582C184.268,-30.4223 193.085,-29.2703 201.755,-28.1375"/>
<polygon fill="midnightblue" stroke="midnightblue" points="202.386,-31.5849 211.849,-26.8188 201.479,-24.6439 202.386,-31.5849"/>
</g>
</g>
</svg>
