<?xml version="1.0" encoding="UTF-8" standalone="no"?>
<!DOCTYPE svg PUBLIC "-//W3C//DTD SVG 1.1//EN"
 "http://www.w3.org/Graphics/SVG/1.1/DTD/svg11.dtd">
<!-- Generated by graphviz version 2.26.3 (20100126.1600)
 -->
<!-- Title: G Pages: 1 -->
<svg width="336pt" height="254pt"
 viewBox="0.00 0.00 336.00 254.00" xmlns="http://www.w3.org/2000/svg" xmlns:xlink="http://www.w3.org/1999/xlink">
<g id="graph1" class="graph" transform="scale(1 1) rotate(0) translate(4 250)">
<title>G</title>
<polygon fill="white" stroke="white" points="-4,5 -4,-250 333,-250 333,5 -4,5"/>
<!-- Node1 -->
<g id="node1" class="node"><title>Node1</title>
<polygon fill="#bfbfbf" stroke="black" points="0,-106 0,-140 146,-140 146,-106 0,-106"/>
<text text-anchor="start" x="8" y="-127" font-family="Helvetica,sans-Serif" font-size="10.00">ZendDbSchema_Db_Schema</text>
<text text-anchor="middle" x="73" y="-114" font-family="Helvetica,sans-Serif" font-size="10.00">_Database\getCharset</text>
</g>
<!-- Node2 -->
<g id="node3" class="node"><title>Node2</title>
<a xlink:href="classZendDbSchema__Db__Schema__Generator__Mysql__Database.html#a98cc5d4cbab5e5c8b32d7b02fa9cb0dc" target="_top" xlink:title="ZendDbSchema_Db_Schema\l_Generator_Mysql_Database\l\\alterDatabase">
<polygon fill="white" stroke="black" points="182,-198.5 182,-245.5 328,-245.5 328,-198.5 182,-198.5"/>
<text text-anchor="start" x="190" y="-232.5" font-family="Helvetica,sans-Serif" font-size="10.00">ZendDbSchema_Db_Schema</text>
<text text-anchor="start" x="190" y="-219.5" font-family="Helvetica,sans-Serif" font-size="10.00">_Generator_Mysql_Database</text>
<text text-anchor="middle" x="255" y="-206.5" font-family="Helvetica,sans-Serif" font-size="10.00">\alterDatabase</text>
</a>
</g>
<!-- Node1&#45;&gt;Node2 -->
<g id="edge2" class="edge"><title>Node1&#45;&gt;Node2</title>
<path fill="none" stroke="midnightblue" d="M107.972,-145.645C129.054,-158.924 156.649,-175.656 182,-189 188.031,-192.174 194.427,-195.342 200.829,-198.39"/>
<polygon fill="midnightblue" stroke="midnightblue" points="109.681,-142.585 99.361,-140.186 105.933,-148.497 109.681,-142.585"/>
</g>
<!-- Node3 -->
<g id="node5" class="node"><title>Node3</title>
<a xlink:href="classZendDbSchema__Db__Schema__Generator__Pgsql__Database.html#a4d4b5c6abc51a4ab72fc480602f502c3" target="_top" xlink:title="ZendDbSchema_Db_Schema\l_Generator_Pgsql_Database\l\\alterDatabase">
<polygon fill="white" stroke="black" points="182,-132.5 182,-179.5 328,-179.5 328,-132.5 182,-132.5"/>
<text text-anchor="start" x="190" y="-166.5" font-family="Helvetica,sans-Serif" font-size="10.00">ZendDbSchema_Db_Schema</text>
<text text-anchor="start" x="190" y="-153.5" font-family="Helvetica,sans-Serif" font-size="10.00">_Generator_Pgsql_Database</text>
<text text-anchor="middle" x="255" y="-140.5" font-family="Helvetica,sans-Serif" font-size="10.00">\alterDatabase</text>
</a>
</g>
<!-- Node1&#45;&gt;Node3 -->
<g id="edge4" class="edge"><title>Node1&#45;&gt;Node3</title>
<path fill="none" stroke="midnightblue" d="M156.237,-138.092C164.804,-139.646 173.464,-141.216 181.91,-142.747"/>
<polygon fill="midnightblue" stroke="midnightblue" points="156.704,-134.62 146.24,-136.28 155.455,-141.508 156.704,-134.62"/>
</g>
<!-- Node4 -->
<g id="node7" class="node"><title>Node4</title>
<a xlink:href="classZendDbSchema__Db__Schema__Generator__Pgsql__Database.html#a0a232123d02ab149db3309430ad8661e" target="_top" xlink:title="ZendDbSchema_Db_Schema\l_Generator_Pgsql_Database\l\\createDatabase">
<polygon fill="white" stroke="black" points="182,-66.5 182,-113.5 328,-113.5 328,-66.5 182,-66.5"/>
<text text-anchor="start" x="190" y="-100.5" font-family="Helvetica,sans-Serif" font-size="10.00">ZendDbSchema_Db_Schema</text>
<text text-anchor="start" x="190" y="-87.5" font-family="Helvetica,sans-Serif" font-size="10.00">_Generator_Pgsql_Database</text>
<text text-anchor="middle" x="255" y="-74.5" font-family="Helvetica,sans-Serif" font-size="10.00">\createDatabase</text>
</a>
</g>
<!-- Node1&#45;&gt;Node4 -->
<g id="edge6" class="edge"><title>Node1&#45;&gt;Node4</title>
<path fill="none" stroke="midnightblue" d="M156.237,-107.908C164.804,-106.354 173.464,-104.784 181.91,-103.253"/>
<polygon fill="midnightblue" stroke="midnightblue" points="155.455,-104.492 146.24,-109.72 156.704,-111.38 155.455,-104.492"/>
</g>
<!-- Node5 -->
<g id="node9" class="node"><title>Node5</title>
<a xlink:href="classZendDbSchema__Db__Schema__Generator__Mysql__Database.html#a8d037ca19f7ac5d045fe2d9babe004c6" target="_top" xlink:title="ZendDbSchema_Db_Schema\l_Generator_Mysql_Database\l\\createDatabase">
<polygon fill="white" stroke="black" points="182,-0.5 182,-47.5 328,-47.5 328,-0.5 182,-0.5"/>
<text text-anchor="start" x="190" y="-34.5" font-family="Helvetica,sans-Serif" font-size="10.00">ZendDbSchema_Db_Schema</text>
<text text-anchor="start" x="190" y="-21.5" font-family="Helvetica,sans-Serif" font-size="10.00">_Generator_Mysql_Database</text>
<text text-anchor="middle" x="255" y="-8.5" font-family="Helvetica,sans-Serif" font-size="10.00">\createDatabase</text>
</a>
</g>
<!-- Node1&#45;&gt;Node5 -->
<g id="edge8" class="edge"><title>Node1&#45;&gt;Node5</title>
<path fill="none" stroke="midnightblue" d="M107.972,-100.355C129.054,-87.0763 156.649,-70.3437 182,-57 188.031,-53.8257 194.427,-50.6576 200.829,-47.6095"/>
<polygon fill="midnightblue" stroke="midnightblue" points="105.933,-97.5033 99.361,-105.814 109.681,-103.415 105.933,-97.5033"/>
</g>
</g>
</svg>
