<?xml version="1.0" encoding="UTF-8" standalone="no"?>
<!DOCTYPE svg PUBLIC "-//W3C//DTD SVG 1.1//EN"
 "http://www.w3.org/Graphics/SVG/1.1/DTD/svg11.dtd">
<!-- Generated by graphviz version 2.26.3 (20100126.1600)
 -->
<!-- Title: G Pages: 1 -->
<svg width="258pt" height="113pt"
 viewBox="0.00 0.00 258.00 113.00" xmlns="http://www.w3.org/2000/svg" xmlns:xlink="http://www.w3.org/1999/xlink">
<g id="graph1" class="graph" transform="scale(1 1) rotate(0) translate(4 109)">
<title>G</title>
<polygon fill="white" stroke="white" points="-4,5 -4,-109 255,-109 255,5 -4,5"/>
<g id="graph2" class="cluster"><title>clusterdir_aa3f85c31da416ac1e9852c45ecdfabd</title>
<a xlink:href="dir_aa3f85c31da416ac1e9852c45ecdfabd.html" target="_top" xlink:title="Db">
<polygon fill="#ddddee" stroke="black" points="8,-8 8,-97 242,-97 242,-8 8,-8"/>
<text text-anchor="middle" x="125" y="-84" font-family="Helvetica,sans-Serif" font-size="10.00">Db</text>
</a>
</g>
<g id="graph3" class="cluster"><title>clusterdir_5c7b4e4c49e4d1550b8e0a1d0adf244e</title>
<a xlink:href="dir_5c7b4e4c49e4d1550b8e0a1d0adf244e.html" target="_top">
<polygon fill="#eeeeff" stroke="black" points="16,-16 16,-68 234,-68 234,-16 16,-16"/>
</a>
</g>
<!-- dir_5c7b4e4c49e4d1550b8e0a1d0adf244e -->
<g id="node3" class="node"><title>dir_5c7b4e4c49e4d1550b8e0a1d0adf244e</title>
<text text-anchor="middle" x="199" y="-39.5" font-family="Helvetica,sans-Serif" font-size="10.00">Schema</text>
</g>
<!-- dir_3b3ef753cb1c546bb6896b64d389a5a5 -->
<g id="node4" class="node"><title>dir_3b3ef753cb1c546bb6896b64d389a5a5</title>
<a xlink:href="dir_3b3ef753cb1c546bb6896b64d389a5a5.html" target="_top" xlink:title="Database">
<polygon fill="white" stroke="red" points="154,-60 96,-60 96,-24 154,-24 154,-60"/>
<text text-anchor="middle" x="125" y="-39.5" font-family="Helvetica,sans-Serif" font-size="10.00">Database</text>
</a>
</g>
<!-- dir_1dd1342f4cf723fd91913dd258e25ea1 -->
<g id="node5" class="node"><title>dir_1dd1342f4cf723fd91913dd258e25ea1</title>
<a xlink:href="dir_1dd1342f4cf723fd91913dd258e25ea1.html" target="_top" xlink:title="Table">
<polygon fill="white" stroke="red" points="78,-60 24,-60 24,-24 78,-24 78,-60"/>
<text text-anchor="middle" x="51" y="-39.5" font-family="Helvetica,sans-Serif" font-size="10.00">Table</text>
</a>
</g>
</g>
</svg>
