<?xml version="1.0" encoding="UTF-8" standalone="no"?>
<!DOCTYPE svg PUBLIC "-//W3C//DTD SVG 1.1//EN"
 "http://www.w3.org/Graphics/SVG/1.1/DTD/svg11.dtd">
<!-- Generated by graphviz version 2.26.3 (20100126.1600)
 -->
<!-- Title: G Pages: 1 -->
<svg width="312pt" height="76pt"
 viewBox="0.00 0.00 312.00 76.00" xmlns="http://www.w3.org/2000/svg" xmlns:xlink="http://www.w3.org/1999/xlink">
<g id="graph1" class="graph" transform="scale(1 1) rotate(0) translate(4 72)">
<title>G</title>
<polygon fill="white" stroke="white" points="-4,5 -4,-72 309,-72 309,5 -4,5"/>
<g id="graph2" class="cluster"><title>clusterdir_2fa527004f7b14c14335e131fd6c8023</title>
<a xlink:href="dir_2fa527004f7b14c14335e131fd6c8023.html" target="_top">
<polygon fill="#eeeeff" stroke="black" points="8,-8 8,-60 296,-60 296,-8 8,-8"/>
</a>
</g>
<!-- dir_2fa527004f7b14c14335e131fd6c8023 -->
<g id="node2" class="node"><title>dir_2fa527004f7b14c14335e131fd6c8023</title>
<text text-anchor="middle" x="261" y="-31.5" font-family="Helvetica,sans-Serif" font-size="10.00">Db</text>
</g>
<!-- dir_443009dd6154a3c46483bde93aedb8cd -->
<g id="node3" class="node"><title>dir_443009dd6154a3c46483bde93aedb8cd</title>
<a xlink:href="dir_443009dd6154a3c46483bde93aedb8cd.html" target="_top" xlink:title="Adapter">
<polygon fill="white" stroke="red" points="216,-52 162,-52 162,-16 216,-16 216,-52"/>
<text text-anchor="middle" x="189" y="-31.5" font-family="Helvetica,sans-Serif" font-size="10.00">Adapter</text>
</a>
</g>
<!-- dir_78265f77e2ff9084c20bb14d6b3335bc -->
<g id="node4" class="node"><title>dir_78265f77e2ff9084c20bb14d6b3335bc</title>
<a xlink:href="dir_78265f77e2ff9084c20bb14d6b3335bc.html" target="_top" xlink:title="Migration">
<polygon fill="white" stroke="black" points="144,-52 88,-52 88,-16 144,-16 144,-52"/>
<text text-anchor="middle" x="116" y="-31.5" font-family="Helvetica,sans-Serif" font-size="10.00">Migration</text>
</a>
</g>
<!-- dir_a4fc23eadff71f758f570b49c9237f15 -->
<g id="node5" class="node"><title>dir_a4fc23eadff71f758f570b49c9237f15</title>
<a xlink:href="dir_a4fc23eadff71f758f570b49c9237f15.html" target="_top" xlink:title="Schema">
<polygon fill="white" stroke="red" points="70,-52 16,-52 16,-16 70,-16 70,-52"/>
<text text-anchor="middle" x="43" y="-31.5" font-family="Helvetica,sans-Serif" font-size="10.00">Schema</text>
</a>
</g>
</g>
</svg>
