<?xml version="1.0" encoding="UTF-8" standalone="no"?>
<!DOCTYPE svg PUBLIC "-//W3C//DTD SVG 1.1//EN"
 "http://www.w3.org/Graphics/SVG/1.1/DTD/svg11.dtd">
<!-- Generated by graphviz version 2.26.3 (20100126.1600)
 -->
<!-- Title: G Pages: 1 -->
<svg width="332pt" height="146pt"
 viewBox="0.00 0.00 332.00 146.00" xmlns="http://www.w3.org/2000/svg" xmlns:xlink="http://www.w3.org/1999/xlink">
<g id="graph1" class="graph" transform="scale(1 1) rotate(0) translate(4 142)">
<title>G</title>
<polygon fill="white" stroke="white" points="-4,5 -4,-142 329,-142 329,5 -4,5"/>
<!-- Node1 -->
<g id="node1" class="node"><title>Node1</title>
<a xlink:href="interfaceZendDbSchema__Db__Adapter__SchemaCompatible.html" target="_top" xlink:title="ZendDbSchema_Db_Adapter\l_SchemaCompatible">
<polygon fill="white" stroke="black" points="0,-52 0,-86 144,-86 144,-52 0,-52"/>
<text text-anchor="start" x="8" y="-73" font-family="Helvetica,sans-Serif" font-size="10.00">ZendDbSchema_Db_Adapter</text>
<text text-anchor="middle" x="72" y="-60" font-family="Helvetica,sans-Serif" font-size="10.00">_SchemaCompatible</text>
</a>
</g>
<!-- Node2 -->
<g id="node3" class="node"><title>Node2</title>
<a xlink:href="classZendDbSchema__Db__Adapter__Mysqli.html" target="_top" xlink:title="ZendDbSchema_Db_Adapter\l_Mysqli">
<polygon fill="white" stroke="black" points="180,-104 180,-138 324,-138 324,-104 180,-104"/>
<text text-anchor="start" x="188" y="-125" font-family="Helvetica,sans-Serif" font-size="10.00">ZendDbSchema_Db_Adapter</text>
<text text-anchor="middle" x="252" y="-112" font-family="Helvetica,sans-Serif" font-size="10.00">_Mysqli</text>
</a>
</g>
<!-- Node1&#45;&gt;Node2 -->
<g id="edge2" class="edge"><title>Node1&#45;&gt;Node2</title>
<path fill="none" stroke="midnightblue" d="M140.895,-88.9029C158.052,-93.8593 176.293,-99.129 192.929,-103.935"/>
<polygon fill="midnightblue" stroke="midnightblue" points="141.517,-85.4397 130.939,-86.0267 139.574,-92.1647 141.517,-85.4397"/>
</g>
<!-- Node3 -->
<g id="node5" class="node"><title>Node3</title>
<a xlink:href="classZendDbSchema__Db__Adapter__Pdo__Mysql.html" target="_top" xlink:title="ZendDbSchema_Db_Adapter\l_Pdo_Mysql">
<polygon fill="white" stroke="black" points="180,-52 180,-86 324,-86 324,-52 180,-52"/>
<text text-anchor="start" x="188" y="-73" font-family="Helvetica,sans-Serif" font-size="10.00">ZendDbSchema_Db_Adapter</text>
<text text-anchor="middle" x="252" y="-60" font-family="Helvetica,sans-Serif" font-size="10.00">_Pdo_Mysql</text>
</a>
</g>
<!-- Node1&#45;&gt;Node3 -->
<g id="edge4" class="edge"><title>Node1&#45;&gt;Node3</title>
<path fill="none" stroke="midnightblue" d="M154.439,-69C162.906,-69 171.464,-69 179.808,-69"/>
<polygon fill="midnightblue" stroke="midnightblue" points="154.176,-65.5001 144.176,-69 154.176,-72.5001 154.176,-65.5001"/>
</g>
<!-- Node4 -->
<g id="node7" class="node"><title>Node4</title>
<a xlink:href="classZendDbSchema__Db__Adapter__Pdo__Pgsql.html" target="_top" xlink:title="ZendDbSchema_Db_Adapter\l_Pdo_Pgsql">
<polygon fill="white" stroke="black" points="180,-0 180,-34 324,-34 324,-0 180,-0"/>
<text text-anchor="start" x="188" y="-21" font-family="Helvetica,sans-Serif" font-size="10.00">ZendDbSchema_Db_Adapter</text>
<text text-anchor="middle" x="252" y="-8" font-family="Helvetica,sans-Serif" font-size="10.00">_Pdo_Pgsql</text>
</a>
</g>
<!-- Node1&#45;&gt;Node4 -->
<g id="edge6" class="edge"><title>Node1&#45;&gt;Node4</title>
<path fill="none" stroke="midnightblue" d="M140.895,-49.0971C158.052,-44.1407 176.293,-38.871 192.929,-34.065"/>
<polygon fill="midnightblue" stroke="midnightblue" points="139.574,-45.8353 130.939,-51.9733 141.517,-52.5603 139.574,-45.8353"/>
</g>
</g>
</svg>
