<?xml version="1.0" encoding="UTF-8" standalone="no"?>
<!DOCTYPE svg PUBLIC "-//W3C//DTD SVG 1.1//EN"
 "http://www.w3.org/Graphics/SVG/1.1/DTD/svg11.dtd">
<!-- Generated by graphviz version 2.26.3 (20100126.1600)
 -->
<!-- Title: G Pages: 1 -->
<svg width="518pt" height="302pt"
 viewBox="0.00 0.00 518.00 302.00" xmlns="http://www.w3.org/2000/svg" xmlns:xlink="http://www.w3.org/1999/xlink">
<g id="graph1" class="graph" transform="scale(1 1) rotate(0) translate(4 298)">
<title>G</title>
<polygon fill="white" stroke="white" points="-4,5 -4,-298 515,-298 515,5 -4,5"/>
<!-- Node1 -->
<g id="node1" class="node"><title>Node1</title>
<a xlink:href="classZendDbSchema__Db__Schema__AbstractSchema.html" target="_top" xlink:title="ZendDbSchema_Db_Schema\l_AbstractSchema">
<polygon fill="white" stroke="black" points="0,-156 0,-190 146,-190 146,-156 0,-156"/>
<text text-anchor="start" x="8" y="-177" font-family="Helvetica,sans-Serif" font-size="10.00">ZendDbSchema_Db_Schema</text>
<text text-anchor="middle" x="73" y="-164" font-family="Helvetica,sans-Serif" font-size="10.00">_AbstractSchema</text>
</a>
</g>
<!-- Node2 -->
<g id="node3" class="node"><title>Node2</title>
<a xlink:href="classZendDbSchema__Db__Schema__AbstractEntity.html" target="_top" xlink:title="ZendDbSchema_Db_Schema\l_AbstractEntity">
<polygon fill="white" stroke="black" points="182,-208 182,-242 328,-242 328,-208 182,-208"/>
<text text-anchor="start" x="190" y="-229" font-family="Helvetica,sans-Serif" font-size="10.00">ZendDbSchema_Db_Schema</text>
<text text-anchor="middle" x="255" y="-216" font-family="Helvetica,sans-Serif" font-size="10.00">_AbstractEntity</text>
</a>
</g>
<!-- Node1&#45;&gt;Node2 -->
<g id="edge2" class="edge"><title>Node1&#45;&gt;Node2</title>
<path fill="none" stroke="midnightblue" d="M142.66,-192.903C160.008,-197.859 178.452,-203.129 195.273,-207.935"/>
<polygon fill="midnightblue" stroke="midnightblue" points="143.17,-189.409 132.594,-190.027 141.247,-196.139 143.17,-189.409"/>
</g>
<!-- Node5 -->
<g id="node9" class="node"><title>Node5</title>
<a xlink:href="classZendDbSchema__Db__Schema__Table__AbstractDefinition.html" target="_top" xlink:title="ZendDbSchema_Db_Schema\l_Table_AbstractDefinition">
<polygon fill="white" stroke="black" points="182,-104 182,-138 328,-138 328,-104 182,-104"/>
<text text-anchor="start" x="190" y="-125" font-family="Helvetica,sans-Serif" font-size="10.00">ZendDbSchema_Db_Schema</text>
<text text-anchor="middle" x="255" y="-112" font-family="Helvetica,sans-Serif" font-size="10.00">_Table_AbstractDefinition</text>
</a>
</g>
<!-- Node1&#45;&gt;Node5 -->
<g id="edge8" class="edge"><title>Node1&#45;&gt;Node5</title>
<path fill="none" stroke="midnightblue" d="M142.66,-153.097C160.008,-148.141 178.452,-142.871 195.273,-138.065"/>
<polygon fill="midnightblue" stroke="midnightblue" points="141.247,-149.861 132.594,-155.973 143.17,-156.591 141.247,-149.861"/>
</g>
<!-- Node3 -->
<g id="node5" class="node"><title>Node3</title>
<a xlink:href="classZendDbSchema__Db__Schema__Database.html" target="_top" xlink:title="ZendDbSchema_Db_Schema\l_Database">
<polygon fill="white" stroke="black" points="364,-260 364,-294 510,-294 510,-260 364,-260"/>
<text text-anchor="start" x="372" y="-281" font-family="Helvetica,sans-Serif" font-size="10.00">ZendDbSchema_Db_Schema</text>
<text text-anchor="middle" x="437" y="-268" font-family="Helvetica,sans-Serif" font-size="10.00">_Database</text>
</a>
</g>
<!-- Node2&#45;&gt;Node3 -->
<g id="edge4" class="edge"><title>Node2&#45;&gt;Node3</title>
<path fill="none" stroke="midnightblue" d="M324.66,-244.903C342.008,-249.859 360.452,-255.129 377.273,-259.935"/>
<polygon fill="midnightblue" stroke="midnightblue" points="325.17,-241.409 314.594,-242.027 323.247,-248.139 325.17,-241.409"/>
</g>
<!-- Node4 -->
<g id="node7" class="node"><title>Node4</title>
<a xlink:href="classZendDbSchema__Db__Schema__Table.html" target="_top" xlink:title="ZendDbSchema_Db_Schema\l_Table">
<polygon fill="white" stroke="black" points="364,-208 364,-242 510,-242 510,-208 364,-208"/>
<text text-anchor="start" x="372" y="-229" font-family="Helvetica,sans-Serif" font-size="10.00">ZendDbSchema_Db_Schema</text>
<text text-anchor="middle" x="437" y="-216" font-family="Helvetica,sans-Serif" font-size="10.00">_Table</text>
</a>
</g>
<!-- Node2&#45;&gt;Node4 -->
<g id="edge6" class="edge"><title>Node2&#45;&gt;Node4</title>
<path fill="none" stroke="midnightblue" d="M338.516,-225C346.992,-225 355.556,-225 363.91,-225"/>
<polygon fill="midnightblue" stroke="midnightblue" points="338.24,-221.5 328.24,-225 338.24,-228.5 338.24,-221.5"/>
</g>
<!-- Node6 -->
<g id="node11" class="node"><title>Node6</title>
<a xlink:href="classZendDbSchema__Db__Schema__Table__Column.html" target="_top" xlink:title="ZendDbSchema_Db_Schema\l_Table_Column">
<polygon fill="white" stroke="black" points="364,-156 364,-190 510,-190 510,-156 364,-156"/>
<text text-anchor="start" x="372" y="-177" font-family="Helvetica,sans-Serif" font-size="10.00">ZendDbSchema_Db_Schema</text>
<text text-anchor="middle" x="437" y="-164" font-family="Helvetica,sans-Serif" font-size="10.00">_Table_Column</text>
</a>
</g>
<!-- Node5&#45;&gt;Node6 -->
<g id="edge10" class="edge"><title>Node5&#45;&gt;Node6</title>
<path fill="none" stroke="midnightblue" d="M324.66,-140.903C342.008,-145.859 360.452,-151.129 377.273,-155.935"/>
<polygon fill="midnightblue" stroke="midnightblue" points="325.17,-137.409 314.594,-138.027 323.247,-144.139 325.17,-137.409"/>
</g>
<!-- Node7 -->
<g id="node13" class="node"><title>Node7</title>
<a xlink:href="classZendDbSchema__Db__Schema__Table__ForeignKey.html" target="_top" xlink:title="ZendDbSchema_Db_Schema\l_Table_ForeignKey">
<polygon fill="white" stroke="black" points="364,-104 364,-138 510,-138 510,-104 364,-104"/>
<text text-anchor="start" x="372" y="-125" font-family="Helvetica,sans-Serif" font-size="10.00">ZendDbSchema_Db_Schema</text>
<text text-anchor="middle" x="437" y="-112" font-family="Helvetica,sans-Serif" font-size="10.00">_Table_ForeignKey</text>
</a>
</g>
<!-- Node5&#45;&gt;Node7 -->
<g id="edge12" class="edge"><title>Node5&#45;&gt;Node7</title>
<path fill="none" stroke="midnightblue" d="M338.516,-121C346.992,-121 355.556,-121 363.91,-121"/>
<polygon fill="midnightblue" stroke="midnightblue" points="338.24,-117.5 328.24,-121 338.24,-124.5 338.24,-117.5"/>
</g>
<!-- Node8 -->
<g id="node15" class="node"><title>Node8</title>
<a xlink:href="classZendDbSchema__Db__Schema__Table__Index.html" target="_top" xlink:title="ZendDbSchema_Db_Schema\l_Table_Index">
<polygon fill="white" stroke="black" points="364,-52 364,-86 510,-86 510,-52 364,-52"/>
<text text-anchor="start" x="372" y="-73" font-family="Helvetica,sans-Serif" font-size="10.00">ZendDbSchema_Db_Schema</text>
<text text-anchor="middle" x="437" y="-60" font-family="Helvetica,sans-Serif" font-size="10.00">_Table_Index</text>
</a>
</g>
<!-- Node5&#45;&gt;Node8 -->
<g id="edge14" class="edge"><title>Node5&#45;&gt;Node8</title>
<path fill="none" stroke="midnightblue" d="M324.66,-101.097C342.008,-96.1407 360.452,-90.871 377.273,-86.065"/>
<polygon fill="midnightblue" stroke="midnightblue" points="323.247,-97.8606 314.594,-103.973 325.17,-104.591 323.247,-97.8606"/>
</g>
<!-- Node9 -->
<g id="node17" class="node"><title>Node9</title>
<a xlink:href="classZendDbSchema__Db__Schema__Table__PrimaryKey.html" target="_top" xlink:title="ZendDbSchema_Db_Schema\l_Table_PrimaryKey">
<polygon fill="white" stroke="black" points="364,-0 364,-34 510,-34 510,-0 364,-0"/>
<text text-anchor="start" x="372" y="-21" font-family="Helvetica,sans-Serif" font-size="10.00">ZendDbSchema_Db_Schema</text>
<text text-anchor="middle" x="437" y="-8" font-family="Helvetica,sans-Serif" font-size="10.00">_Table_PrimaryKey</text>
</a>
</g>
<!-- Node5&#45;&gt;Node9 -->
<g id="edge16" class="edge"><title>Node5&#45;&gt;Node9</title>
<path fill="none" stroke="midnightblue" d="M283.113,-97.5262C304.325,-80.673 334.689,-58.3208 364,-43 370.2,-39.7593 376.893,-36.7624 383.623,-34.044"/>
<polygon fill="midnightblue" stroke="midnightblue" points="280.769,-94.9205 275.174,-103.918 285.158,-100.373 280.769,-94.9205"/>
</g>
</g>
</svg>
