<?xml version="1.0" encoding="UTF-8" standalone="no"?>
<!DOCTYPE svg PUBLIC "-//W3C//DTD SVG 1.1//EN"
 "http://www.w3.org/Graphics/SVG/1.1/DTD/svg11.dtd">
<!-- Generated by graphviz version 2.26.3 (20100126.1600)
 -->
<!-- Title: G Pages: 1 -->
<svg width="566pt" height="160pt"
 viewBox="0.00 0.00 566.00 160.00" xmlns="http://www.w3.org/2000/svg" xmlns:xlink="http://www.w3.org/1999/xlink">
<g id="graph1" class="graph" transform="scale(1 1) rotate(0) translate(4 156)">
<title>G</title>
<polygon fill="white" stroke="white" points="-4,5 -4,-156 563,-156 563,5 -4,5"/>
<!-- Node1 -->
<g id="node1" class="node"><title>Node1</title>
<a xlink:href="classZendDbSchema__Validate__Db__Schema__Chain.html" target="_top" xlink:title="ZendDbSchema_Validate\l_Db_Schema_Chain">
<polygon fill="white" stroke="black" points="0,-66 0,-100 128,-100 128,-66 0,-66"/>
<text text-anchor="start" x="8" y="-87" font-family="Helvetica,sans-Serif" font-size="10.00">ZendDbSchema_Validate</text>
<text text-anchor="middle" x="64" y="-74" font-family="Helvetica,sans-Serif" font-size="10.00">_Db_Schema_Chain</text>
</a>
</g>
<!-- Node2 -->
<g id="node3" class="node"><title>Node2</title>
<a xlink:href="classZendDbSchema__Validate__Db__Schema__AbstractDatabase.html" target="_top" xlink:title="ZendDbSchema_Validate\l_Db_Schema_AbstractDatabase">
<polygon fill="white" stroke="black" points="164,-118 164,-152 324,-152 324,-118 164,-118"/>
<text text-anchor="start" x="172" y="-139" font-family="Helvetica,sans-Serif" font-size="10.00">ZendDbSchema_Validate</text>
<text text-anchor="middle" x="244" y="-126" font-family="Helvetica,sans-Serif" font-size="10.00">_Db_Schema_AbstractDatabase</text>
</a>
</g>
<!-- Node1&#45;&gt;Node2 -->
<g id="edge2" class="edge"><title>Node1&#45;&gt;Node2</title>
<path fill="none" stroke="midnightblue" d="M132.895,-102.903C150.052,-107.859 168.293,-113.129 184.929,-117.935"/>
<polygon fill="midnightblue" stroke="midnightblue" points="133.517,-99.4397 122.939,-100.027 131.574,-106.165 133.517,-99.4397"/>
</g>
<!-- Node4 -->
<g id="node7" class="node"><title>Node4</title>
<a xlink:href="classZendDbSchema__Validate__Db__Schema__AbstractTable.html" target="_top" xlink:title="ZendDbSchema_Validate\l_Db_Schema_AbstractTable">
<polygon fill="white" stroke="black" points="173,-66 173,-100 315,-100 315,-66 173,-66"/>
<text text-anchor="start" x="181" y="-87" font-family="Helvetica,sans-Serif" font-size="10.00">ZendDbSchema_Validate</text>
<text text-anchor="middle" x="244" y="-74" font-family="Helvetica,sans-Serif" font-size="10.00">_Db_Schema_AbstractTable</text>
</a>
</g>
<!-- Node1&#45;&gt;Node4 -->
<g id="edge6" class="edge"><title>Node1&#45;&gt;Node4</title>
<path fill="none" stroke="midnightblue" d="M138.511,-83C149.842,-83 161.51,-83 172.769,-83"/>
<polygon fill="midnightblue" stroke="midnightblue" points="138.222,-79.5001 128.222,-83 138.222,-86.5001 138.222,-79.5001"/>
</g>
<!-- Node6 -->
<g id="node11" class="node"><title>Node6</title>
<a xlink:href="classZendDbSchema__Validate__Db__Schema__Table__Mysql__Column.html" target="_top" xlink:title="ZendDbSchema_Validate\l_Db_Schema_Table_Mysql\l_Column">
<polygon fill="white" stroke="black" points="175.5,-0.5 175.5,-47.5 312.5,-47.5 312.5,-0.5 175.5,-0.5"/>
<text text-anchor="start" x="183.5" y="-34.5" font-family="Helvetica,sans-Serif" font-size="10.00">ZendDbSchema_Validate</text>
<text text-anchor="start" x="183.5" y="-21.5" font-family="Helvetica,sans-Serif" font-size="10.00">_Db_Schema_Table_Mysql</text>
<text text-anchor="middle" x="244" y="-8.5" font-family="Helvetica,sans-Serif" font-size="10.00">_Column</text>
</a>
</g>
<!-- Node1&#45;&gt;Node6 -->
<g id="edge10" class="edge"><title>Node1&#45;&gt;Node6</title>
<path fill="none" stroke="midnightblue" d="M125.804,-62.742C141.754,-57.514 159.018,-51.8553 175.296,-46.5197"/>
<polygon fill="midnightblue" stroke="midnightblue" points="124.476,-59.4941 116.063,-65.9348 126.656,-66.1459 124.476,-59.4941"/>
</g>
<!-- Node3 -->
<g id="node5" class="node"><title>Node3</title>
<a xlink:href="classZendDbSchema__Validate__Db__Schema__Database__MysqlDatabase.html" target="_top" xlink:title="ZendDbSchema_Validate\l_Db_Schema_Database_MysqlDatabase">
<polygon fill="white" stroke="black" points="360.5,-118 360.5,-152 557.5,-152 557.5,-118 360.5,-118"/>
<text text-anchor="start" x="368.5" y="-139" font-family="Helvetica,sans-Serif" font-size="10.00">ZendDbSchema_Validate</text>
<text text-anchor="middle" x="459" y="-126" font-family="Helvetica,sans-Serif" font-size="10.00">_Db_Schema_Database_MysqlDatabase</text>
</a>
</g>
<!-- Node2&#45;&gt;Node3 -->
<g id="edge4" class="edge"><title>Node2&#45;&gt;Node3</title>
<path fill="none" stroke="midnightblue" d="M334.129,-135C342.781,-135 351.587,-135 360.314,-135"/>
<polygon fill="midnightblue" stroke="midnightblue" points="334.058,-131.5 324.058,-135 334.058,-138.5 334.058,-131.5"/>
</g>
<!-- Node5 -->
<g id="node9" class="node"><title>Node5</title>
<a xlink:href="classZendDbSchema__Validate__Db__Schema__Table__MysqlTable.html" target="_top" xlink:title="ZendDbSchema_Validate\l_Db_Schema_Table_MysqlTable">
<polygon fill="white" stroke="black" points="378.5,-66 378.5,-100 539.5,-100 539.5,-66 378.5,-66"/>
<text text-anchor="start" x="386.5" y="-87" font-family="Helvetica,sans-Serif" font-size="10.00">ZendDbSchema_Validate</text>
<text text-anchor="middle" x="459" y="-74" font-family="Helvetica,sans-Serif" font-size="10.00">_Db_Schema_Table_MysqlTable</text>
</a>
</g>
<!-- Node4&#45;&gt;Node5 -->
<g id="edge8" class="edge"><title>Node4&#45;&gt;Node5</title>
<path fill="none" stroke="midnightblue" d="M325.361,-83C342.674,-83 360.95,-83 378.24,-83"/>
<polygon fill="midnightblue" stroke="midnightblue" points="325.293,-79.5001 315.293,-83 325.293,-86.5001 325.293,-79.5001"/>
</g>
</g>
</svg>
