<?xml version="1.0" encoding="UTF-8" standalone="no"?>
<!DOCTYPE svg PUBLIC "-//W3C//DTD SVG 1.1//EN"
 "http://www.w3.org/Graphics/SVG/1.1/DTD/svg11.dtd">
<!-- Generated by graphviz version 2.26.3 (20100126.1600)
 -->
<!-- Title: G Pages: 1 -->
<svg width="354pt" height="198pt"
 viewBox="0.00 0.00 354.00 198.00" xmlns="http://www.w3.org/2000/svg" xmlns:xlink="http://www.w3.org/1999/xlink">
<g id="graph1" class="graph" transform="scale(1 1) rotate(0) translate(4 194)">
<title>G</title>
<polygon fill="white" stroke="white" points="-4,5 -4,-194 351,-194 351,5 -4,5"/>
<!-- Node1 -->
<g id="node1" class="node"><title>Node1</title>
<polygon fill="#bfbfbf" stroke="black" points="0.5,-78 0.5,-112 147.5,-112 147.5,-78 0.5,-78"/>
<text text-anchor="start" x="8.5" y="-99" font-family="Helvetica,sans-Serif" font-size="10.00">ZendDbSchema_Tool_Project</text>
<text text-anchor="middle" x="74" y="-86" font-family="Helvetica,sans-Serif" font-size="10.00">_Provider_Schema\status</text>
</g>
<!-- Node2 -->
<g id="node3" class="node"><title>Node2</title>
<a xlink:href="classZendDbSchema__Tool__Project__Provider__Schema.html#a4bfcbf170571b61e24662b9d8bb8c95c" target="_top" xlink:title="ZendDbSchema_Tool_Project\l_Provider_Schema\\_bootstrap">
<polygon fill="white" stroke="black" points="191,-156 191,-190 339,-190 339,-156 191,-156"/>
<text text-anchor="start" x="199" y="-177" font-family="Helvetica,sans-Serif" font-size="10.00">ZendDbSchema_Tool_Project</text>
<text text-anchor="middle" x="265" y="-164" font-family="Helvetica,sans-Serif" font-size="10.00">_Provider_Schema\_bootstrap</text>
</a>
</g>
<!-- Node1&#45;&gt;Node2 -->
<g id="edge2" class="edge"><title>Node1&#45;&gt;Node2</title>
<path fill="none" stroke="midnightblue" d="M107.198,-112.09C128.768,-122.844 157.673,-136.604 184,-147 188.771,-148.884 193.739,-150.736 198.762,-152.529"/>
<polygon fill="midnightblue" stroke="midnightblue" points="197.858,-155.92 208.453,-155.898 200.157,-149.308 197.858,-155.92"/>
</g>
<!-- Node3 -->
<g id="node5" class="node"><title>Node3</title>
<a xlink:href="classZendDbSchema__Tool__Project__Provider__Schema.html#ae00f032a9818a3227d29bde827856256" target="_top" xlink:title="ZendDbSchema_Tool_Project\l_Provider_Schema\\_getSchema">
<polygon fill="white" stroke="black" points="186.5,-104 186.5,-138 343.5,-138 343.5,-104 186.5,-104"/>
<text text-anchor="start" x="194.5" y="-125" font-family="Helvetica,sans-Serif" font-size="10.00">ZendDbSchema_Tool_Project</text>
<text text-anchor="middle" x="265" y="-112" font-family="Helvetica,sans-Serif" font-size="10.00">_Provider_Schema\_getSchema</text>
</a>
</g>
<!-- Node1&#45;&gt;Node3 -->
<g id="edge4" class="edge"><title>Node1&#45;&gt;Node3</title>
<path fill="none" stroke="midnightblue" d="M147.572,-105.015C157.01,-106.3 166.749,-107.626 176.395,-108.939"/>
<polygon fill="midnightblue" stroke="midnightblue" points="176.014,-112.419 186.395,-110.3 176.959,-105.483 176.014,-112.419"/>
</g>
<!-- Node4 -->
<g id="node7" class="node"><title>Node4</title>
<a xlink:href="classZendDbSchema__Tool__Project__Provider__Schema.html#a7ec839cde120f748f3b0d6f24fa56d34" target="_top" xlink:title="ZendDbSchema_Tool_Project\l_Provider_Schema\\_getFilename">
<polygon fill="white" stroke="black" points="184.5,-52 184.5,-86 345.5,-86 345.5,-52 184.5,-52"/>
<text text-anchor="start" x="192.5" y="-73" font-family="Helvetica,sans-Serif" font-size="10.00">ZendDbSchema_Tool_Project</text>
<text text-anchor="middle" x="265" y="-60" font-family="Helvetica,sans-Serif" font-size="10.00">_Provider_Schema\_getFilename</text>
</a>
</g>
<!-- Node1&#45;&gt;Node4 -->
<g id="edge6" class="edge"><title>Node1&#45;&gt;Node4</title>
<path fill="none" stroke="midnightblue" d="M147.572,-84.9849C156.353,-83.7896 165.395,-82.5588 174.379,-81.3358"/>
<polygon fill="midnightblue" stroke="midnightblue" points="175.045,-84.7775 184.482,-79.9606 174.101,-77.8415 175.045,-84.7775"/>
</g>
<!-- Node5 -->
<g id="node9" class="node"><title>Node5</title>
<a xlink:href="classZendDbSchema__Tool__Project__Provider__Schema.html#a4bab978eff99970636ddf863266e9d96" target="_top" xlink:title="ZendDbSchema_Tool_Project\l_Provider_Schema\\_findfile">
<polygon fill="white" stroke="black" points="191.5,-0 191.5,-34 338.5,-34 338.5,-0 191.5,-0"/>
<text text-anchor="start" x="199.5" y="-21" font-family="Helvetica,sans-Serif" font-size="10.00">ZendDbSchema_Tool_Project</text>
<text text-anchor="middle" x="265" y="-8" font-family="Helvetica,sans-Serif" font-size="10.00">_Provider_Schema\_findfile</text>
</a>
</g>
<!-- Node1&#45;&gt;Node5 -->
<g id="edge8" class="edge"><title>Node1&#45;&gt;Node5</title>
<path fill="none" stroke="midnightblue" d="M107.198,-77.9102C128.768,-67.1564 157.673,-53.3964 184,-43 188.771,-41.1158 193.739,-39.2643 198.762,-37.4712"/>
<polygon fill="midnightblue" stroke="midnightblue" points="200.157,-40.6919 208.453,-34.1019 197.858,-34.0801 200.157,-40.6919"/>
</g>
</g>
</svg>
