<?xml version="1.0" encoding="UTF-8" standalone="no"?>
<!DOCTYPE svg PUBLIC "-//W3C//DTD SVG 1.1//EN"
 "http://www.w3.org/Graphics/SVG/1.1/DTD/svg11.dtd">
<!-- Generated by graphviz version 2.26.3 (20100126.1600)
 -->
<!-- Title: G Pages: 1 -->
<svg width="896pt" height="110pt"
 viewBox="0.00 0.00 896.00 110.00" xmlns="http://www.w3.org/2000/svg" xmlns:xlink="http://www.w3.org/1999/xlink">
<g id="graph1" class="graph" transform="scale(1 1) rotate(0) translate(4 106)">
<title>G</title>
<polygon fill="white" stroke="white" points="-4,5 -4,-106 893,-106 893,5 -4,5"/>
<!-- Node1 -->
<g id="node1" class="node"><title>Node1</title>
<polygon fill="#bfbfbf" stroke="black" points="0,-40.5 0,-61.5 266,-61.5 266,-40.5 0,-40.5"/>
<text text-anchor="middle" x="133" y="-48.5" font-family="Helvetica,sans-Serif" font-size="10.00">ZendDbSchema_Tool_Project_Provider_Schema\_findfile</text>
</g>
<!-- Node2 -->
<g id="node3" class="node"><title>Node2</title>
<a xlink:href="classZendDbSchema__Tool__Project__Provider__Schema.html#ae23994cc878a689226c458de95a7ecd1" target="_top" xlink:title="ZendDbSchema_Tool_Project_Provider_Schema\\createResource">
<polygon fill="white" stroke="black" points="302,-80.5 302,-101.5 604,-101.5 604,-80.5 302,-80.5"/>
<text text-anchor="middle" x="453" y="-88.5" font-family="Helvetica,sans-Serif" font-size="10.00">ZendDbSchema_Tool_Project_Provider_Schema\createResource</text>
</a>
</g>
<!-- Node1&#45;&gt;Node2 -->
<g id="edge2" class="edge"><title>Node1&#45;&gt;Node2</title>
<path fill="none" stroke="midnightblue" d="M227.118,-62.7648C272.048,-68.381 325.376,-75.047 368.93,-80.4913"/>
<polygon fill="midnightblue" stroke="midnightblue" points="227.433,-59.277 217.076,-61.5095 226.565,-66.2229 227.433,-59.277"/>
</g>
<!-- Node4 -->
<g id="node7" class="node"><title>Node4</title>
<a xlink:href="classZendDbSchema__Tool__Project__Provider__Schema.html#aa7746bd0ed044ad415b1b7b884f7a007" target="_top" xlink:title="ZendDbSchema_Tool_Project_Provider_Schema\\push">
<polygon fill="white" stroke="black" points="326,-40.5 326,-61.5 580,-61.5 580,-40.5 326,-40.5"/>
<text text-anchor="middle" x="453" y="-48.5" font-family="Helvetica,sans-Serif" font-size="10.00">ZendDbSchema_Tool_Project_Provider_Schema\push</text>
</a>
</g>
<!-- Node1&#45;&gt;Node4 -->
<g id="edge6" class="edge"><title>Node1&#45;&gt;Node4</title>
<path fill="none" stroke="midnightblue" d="M276.603,-51C293.063,-51 309.756,-51 325.977,-51"/>
<polygon fill="midnightblue" stroke="midnightblue" points="276.392,-47.5001 266.392,-51 276.392,-54.5001 276.392,-47.5001"/>
</g>
<!-- Node5 -->
<g id="node9" class="node"><title>Node5</title>
<a xlink:href="classZendDbSchema__Tool__Project__Provider__Schema.html#a5741419511310dc38038399e9f4ac5e1" target="_top" xlink:title="ZendDbSchema_Tool_Project_Provider_Schema\\status">
<polygon fill="white" stroke="black" points="323,-0.5 323,-21.5 583,-21.5 583,-0.5 323,-0.5"/>
<text text-anchor="middle" x="453" y="-8.5" font-family="Helvetica,sans-Serif" font-size="10.00">ZendDbSchema_Tool_Project_Provider_Schema\status</text>
</a>
</g>
<!-- Node1&#45;&gt;Node5 -->
<g id="edge8" class="edge"><title>Node1&#45;&gt;Node5</title>
<path fill="none" stroke="midnightblue" d="M227.118,-39.2352C272.048,-33.619 325.376,-26.953 368.93,-21.5087"/>
<polygon fill="midnightblue" stroke="midnightblue" points="226.565,-35.7771 217.076,-40.4905 227.433,-42.723 226.565,-35.7771"/>
</g>
<!-- Node3 -->
<g id="node5" class="node"><title>Node3</title>
<a xlink:href="classZendDbSchema__Tool__Project__Provider__Schema.html#a5f0f3101bb7b9e252f6d6bed1ddadbe5" target="_top" xlink:title="ZendDbSchema_Tool_Project_Provider_Schema\\pull">
<polygon fill="white" stroke="black" points="640,-80.5 640,-101.5 888,-101.5 888,-80.5 640,-80.5"/>
<text text-anchor="middle" x="764" y="-88.5" font-family="Helvetica,sans-Serif" font-size="10.00">ZendDbSchema_Tool_Project_Provider_Schema\pull</text>
</a>
</g>
<!-- Node2&#45;&gt;Node3 -->
<g id="edge4" class="edge"><title>Node2&#45;&gt;Node3</title>
<path fill="none" stroke="midnightblue" d="M614.438,-91C622.984,-91 631.507,-91 639.902,-91"/>
<polygon fill="midnightblue" stroke="midnightblue" points="614.4,-87.5001 604.4,-91 614.4,-94.5001 614.4,-87.5001"/>
</g>
</g>
</svg>
