<?xml version="1.0" encoding="UTF-8" standalone="no"?>
<!DOCTYPE svg PUBLIC "-//W3C//DTD SVG 1.1//EN"
 "http://www.w3.org/Graphics/SVG/1.1/DTD/svg11.dtd">
<!-- Generated by graphviz version 2.26.3 (20100126.1600)
 -->
<!-- Title: G Pages: 1 -->
<svg width="966pt" height="310pt"
 viewBox="0.00 0.00 966.00 310.00" xmlns="http://www.w3.org/2000/svg" xmlns:xlink="http://www.w3.org/1999/xlink">
<g id="graph1" class="graph" transform="scale(1 1) rotate(0) translate(4 306)">
<title>G</title>
<polygon fill="white" stroke="white" points="-4,5 -4,-306 963,-306 963,5 -4,5"/>
<!-- Node1 -->
<g id="node1" class="node"><title>Node1</title>
<polygon fill="#bfbfbf" stroke="black" points="0,-100.5 0,-121.5 286,-121.5 286,-100.5 0,-100.5"/>
<text text-anchor="middle" x="143" y="-108.5" font-family="Helvetica,sans-Serif" font-size="10.00">ZendDbSchema_Db_Schema_Table_AbstractDefinition\__set</text>
</g>
<!-- Node2 -->
<g id="node3" class="node"><title>Node2</title>
<a xlink:href="classZendDbSchema__Db__Schema__Table__Index.html#a77b65e961a7da9ca89fdebd682338fcf" target="_top" xlink:title="ZendDbSchema_Db_Schema_Table_Index\\setColumns">
<polygon fill="white" stroke="black" points="341,-240.5 341,-261.5 601,-261.5 601,-240.5 341,-240.5"/>
<text text-anchor="middle" x="471" y="-248.5" font-family="Helvetica,sans-Serif" font-size="10.00">ZendDbSchema_Db_Schema_Table_Index\setColumns</text>
</a>
</g>
<!-- Node1&#45;&gt;Node2 -->
<g id="edge2" class="edge"><title>Node1&#45;&gt;Node2</title>
<path fill="none" stroke="midnightblue" d="M175.185,-125.821C210.895,-142.164 270.307,-169.05 322,-191 364.353,-208.984 414.008,-228.711 443.958,-240.463"/>
<polygon fill="midnightblue" stroke="midnightblue" points="176.316,-122.49 165.768,-121.504 173.4,-128.853 176.316,-122.49"/>
</g>
<!-- Node5 -->
<g id="node9" class="node"><title>Node5</title>
<a xlink:href="classZendDbSchema__Db__Schema__Table__PrimaryKey.html#a01cfcffd92c38bc521628d49d5c74927" target="_top" xlink:title="ZendDbSchema_Db_Schema_Table_PrimaryKey\\setColumns">
<polygon fill="white" stroke="black" points="327.5,-160.5 327.5,-181.5 614.5,-181.5 614.5,-160.5 327.5,-160.5"/>
<text text-anchor="middle" x="471" y="-168.5" font-family="Helvetica,sans-Serif" font-size="10.00">ZendDbSchema_Db_Schema_Table_PrimaryKey\setColumns</text>
</a>
</g>
<!-- Node1&#45;&gt;Node5 -->
<g id="edge8" class="edge"><title>Node1&#45;&gt;Node5</title>
<path fill="none" stroke="midnightblue" d="M195.609,-124.013C231.145,-132.493 279.204,-143.361 322,-151 341.656,-154.509 362.87,-157.706 382.955,-160.465"/>
<polygon fill="midnightblue" stroke="midnightblue" points="196.009,-120.51 185.468,-121.577 194.374,-127.317 196.009,-120.51"/>
</g>
<!-- Node8 -->
<g id="node15" class="node"><title>Node8</title>
<a xlink:href="classZendDbSchema__Db__Schema__Table__ForeignKey.html#afb0c42af85a63c6347973ce79d2e7d80" target="_top" xlink:title="ZendDbSchema_Db_Schema_Table_ForeignKey\\setColumns">
<polygon fill="white" stroke="black" points="328,-120.5 328,-141.5 614,-141.5 614,-120.5 328,-120.5"/>
<text text-anchor="middle" x="471" y="-128.5" font-family="Helvetica,sans-Serif" font-size="10.00">ZendDbSchema_Db_Schema_Table_ForeignKey\setColumns</text>
</a>
</g>
<!-- Node1&#45;&gt;Node8 -->
<g id="edge14" class="edge"><title>Node1&#45;&gt;Node8</title>
<path fill="none" stroke="midnightblue" d="M296.437,-120.356C306.943,-120.997 317.506,-121.641 327.954,-122.278"/>
<polygon fill="midnightblue" stroke="midnightblue" points="296.583,-116.858 286.388,-119.743 296.157,-123.845 296.583,-116.858"/>
</g>
<!-- Node11 -->
<g id="node21" class="node"><title>Node11</title>
<a xlink:href="classZendDbSchema__Db__Schema__Table__ForeignKey.html#a0c51ff09d6df59b68f8f5ff4ec1ed32d" target="_top" xlink:title="ZendDbSchema_Db_Schema_Table_ForeignKey\\setOnDelete">
<polygon fill="white" stroke="black" points="327,-80.5 327,-101.5 615,-101.5 615,-80.5 327,-80.5"/>
<text text-anchor="middle" x="471" y="-88.5" font-family="Helvetica,sans-Serif" font-size="10.00">ZendDbSchema_Db_Schema_Table_ForeignKey\setOnDelete</text>
</a>
</g>
<!-- Node1&#45;&gt;Node11 -->
<g id="edge20" class="edge"><title>Node1&#45;&gt;Node11</title>
<path fill="none" stroke="midnightblue" d="M296.502,-101.64C306.64,-101.022 316.831,-100.401 326.92,-99.7854"/>
<polygon fill="midnightblue" stroke="midnightblue" points="296.157,-98.1546 286.388,-102.257 296.583,-105.142 296.157,-98.1546"/>
</g>
<!-- Node12 -->
<g id="node23" class="node"><title>Node12</title>
<a xlink:href="classZendDbSchema__Db__Schema__Table__ForeignKey.html#ae8ffd9c6bad60eaf6ef05cdd1f5c56fb" target="_top" xlink:title="ZendDbSchema_Db_Schema_Table_ForeignKey\\setOnUpdate">
<polygon fill="white" stroke="black" points="325.5,-40.5 325.5,-61.5 616.5,-61.5 616.5,-40.5 325.5,-40.5"/>
<text text-anchor="middle" x="471" y="-48.5" font-family="Helvetica,sans-Serif" font-size="10.00">ZendDbSchema_Db_Schema_Table_ForeignKey\setOnUpdate</text>
</a>
</g>
<!-- Node1&#45;&gt;Node12 -->
<g id="edge22" class="edge"><title>Node1&#45;&gt;Node12</title>
<path fill="none" stroke="midnightblue" d="M195.609,-97.9865C231.145,-89.5067 279.204,-78.6392 322,-71 341.656,-67.4914 362.87,-64.2938 382.955,-61.5346"/>
<polygon fill="midnightblue" stroke="midnightblue" points="194.374,-94.6835 185.468,-100.423 196.009,-101.49 194.374,-94.6835"/>
</g>
<!-- Node13 -->
<g id="node25" class="node"><title>Node13</title>
<a xlink:href="classZendDbSchema__Db__Schema__Table__ForeignKey.html#a333403da95af60a2b4bd18952d1136f3" target="_top" xlink:title="ZendDbSchema_Db_Schema_Table_ForeignKey\\setReferences">
<polygon fill="white" stroke="black" points="322.5,-0.5 322.5,-21.5 619.5,-21.5 619.5,-0.5 322.5,-0.5"/>
<text text-anchor="middle" x="471" y="-8.5" font-family="Helvetica,sans-Serif" font-size="10.00">ZendDbSchema_Db_Schema_Table_ForeignKey\setReferences</text>
</a>
</g>
<!-- Node1&#45;&gt;Node13 -->
<g id="edge24" class="edge"><title>Node1&#45;&gt;Node13</title>
<path fill="none" stroke="midnightblue" d="M170.622,-95.6373C205.003,-77.2349 266.033,-46.9036 322,-31 335.557,-27.1475 350.025,-24.0304 364.415,-21.5099"/>
<polygon fill="midnightblue" stroke="midnightblue" points="168.786,-92.6512 161.657,-100.49 172.118,-98.8073 168.786,-92.6512"/>
</g>
<!-- Node3 -->
<g id="node5" class="node"><title>Node3</title>
<a xlink:href="classZendDbSchema__Db__Schema__Table__Index.html#a6717d976c5b0d47369d3c87ef17b1e9b" target="_top" xlink:title="ZendDbSchema_Db_Schema_Table_Index\\addColumn">
<polygon fill="white" stroke="black" points="678.5,-280.5 678.5,-301.5 935.5,-301.5 935.5,-280.5 678.5,-280.5"/>
<text text-anchor="middle" x="807" y="-288.5" font-family="Helvetica,sans-Serif" font-size="10.00">ZendDbSchema_Db_Schema_Table_Index\addColumn</text>
</a>
</g>
<!-- Node2&#45;&gt;Node3 -->
<g id="edge4" class="edge"><title>Node2&#45;&gt;Node3</title>
<path fill="none" stroke="midnightblue" d="M569.23,-262.694C616.53,-268.325 672.802,-275.024 718.727,-280.491"/>
<polygon fill="midnightblue" stroke="midnightblue" points="569.624,-259.216 559.28,-261.51 568.796,-266.167 569.624,-259.216"/>
</g>
<!-- Node4 -->
<g id="node7" class="node"><title>Node4</title>
<a xlink:href="classZendDbSchema__Db__Schema__Table__Index.html#a3cfd358621bb3330ef9e7ffcf2f7b229" target="_top" xlink:title="ZendDbSchema_Db_Schema_Table_Index\\removeColumn">
<polygon fill="white" stroke="black" points="670,-240.5 670,-261.5 944,-261.5 944,-240.5 670,-240.5"/>
<text text-anchor="middle" x="807" y="-248.5" font-family="Helvetica,sans-Serif" font-size="10.00">ZendDbSchema_Db_Schema_Table_Index\removeColumn</text>
</a>
</g>
<!-- Node2&#45;&gt;Node4 -->
<g id="edge6" class="edge"><title>Node2&#45;&gt;Node4</title>
<path fill="none" stroke="midnightblue" d="M611.425,-251C630.716,-251 650.507,-251 669.741,-251"/>
<polygon fill="midnightblue" stroke="midnightblue" points="611.387,-247.5 601.387,-251 611.387,-254.5 611.387,-247.5"/>
</g>
<!-- Node6 -->
<g id="node11" class="node"><title>Node6</title>
<a xlink:href="classZendDbSchema__Db__Schema__Table__PrimaryKey.html#a0b84ee828c689a3da5790e123583f691" target="_top" xlink:title="ZendDbSchema_Db_Schema_Table_PrimaryKey\\addColumn">
<polygon fill="white" stroke="black" points="665,-200.5 665,-221.5 949,-221.5 949,-200.5 665,-200.5"/>
<text text-anchor="middle" x="807" y="-208.5" font-family="Helvetica,sans-Serif" font-size="10.00">ZendDbSchema_Db_Schema_Table_PrimaryKey\addColumn</text>
</a>
</g>
<!-- Node5&#45;&gt;Node6 -->
<g id="edge10" class="edge"><title>Node5&#45;&gt;Node6</title>
<path fill="none" stroke="midnightblue" d="M569.23,-182.694C616.53,-188.325 672.802,-195.024 718.727,-200.491"/>
<polygon fill="midnightblue" stroke="midnightblue" points="569.624,-179.216 559.28,-181.51 568.796,-186.167 569.624,-179.216"/>
</g>
<!-- Node7 -->
<g id="node13" class="node"><title>Node7</title>
<a xlink:href="classZendDbSchema__Db__Schema__Table__PrimaryKey.html#a6deb586d1cc0935f5c0d50afa47667de" target="_top" xlink:title="ZendDbSchema_Db_Schema_Table_PrimaryKey\\removeColumn">
<polygon fill="white" stroke="black" points="656.5,-160.5 656.5,-181.5 957.5,-181.5 957.5,-160.5 656.5,-160.5"/>
<text text-anchor="middle" x="807" y="-168.5" font-family="Helvetica,sans-Serif" font-size="10.00">ZendDbSchema_Db_Schema_Table_PrimaryKey\removeColumn</text>
</a>
</g>
<!-- Node5&#45;&gt;Node7 -->
<g id="edge12" class="edge"><title>Node5&#45;&gt;Node7</title>
<path fill="none" stroke="midnightblue" d="M625.278,-171C635.628,-171 646.049,-171 656.381,-171"/>
<polygon fill="midnightblue" stroke="midnightblue" points="624.956,-167.5 614.956,-171 624.956,-174.5 624.956,-167.5"/>
</g>
<!-- Node9 -->
<g id="node17" class="node"><title>Node9</title>
<a xlink:href="classZendDbSchema__Db__Schema__Table__ForeignKey.html#acad90fc706fe3c4aa734b073fa551152" target="_top" xlink:title="ZendDbSchema_Db_Schema_Table_ForeignKey\\setColumn">
<polygon fill="white" stroke="black" points="666.5,-120.5 666.5,-141.5 947.5,-141.5 947.5,-120.5 666.5,-120.5"/>
<text text-anchor="middle" x="807" y="-128.5" font-family="Helvetica,sans-Serif" font-size="10.00">ZendDbSchema_Db_Schema_Table_ForeignKey\setColumn</text>
</a>
</g>
<!-- Node8&#45;&gt;Node9 -->
<g id="edge16" class="edge"><title>Node8&#45;&gt;Node9</title>
<path fill="none" stroke="midnightblue" d="M624.589,-131C638.527,-131 652.598,-131 666.416,-131"/>
<polygon fill="midnightblue" stroke="midnightblue" points="624.469,-127.5 614.469,-131 624.469,-134.5 624.469,-127.5"/>
</g>
<!-- Node10 -->
<g id="node19" class="node"><title>Node10</title>
<a xlink:href="classZendDbSchema__Db__Schema__Table__ForeignKey.html#a810c76bf8102391ec3d304647c369146" target="_top" xlink:title="ZendDbSchema_Db_Schema_Table_ForeignKey\\removeColumn">
<polygon fill="white" stroke="black" points="657.5,-80.5 657.5,-101.5 956.5,-101.5 956.5,-80.5 657.5,-80.5"/>
<text text-anchor="middle" x="807" y="-88.5" font-family="Helvetica,sans-Serif" font-size="10.00">ZendDbSchema_Db_Schema_Table_ForeignKey\removeColumn</text>
</a>
</g>
<!-- Node8&#45;&gt;Node10 -->
<g id="edge18" class="edge"><title>Node8&#45;&gt;Node10</title>
<path fill="none" stroke="midnightblue" d="M569.23,-119.306C616.53,-113.675 672.802,-106.976 718.727,-101.509"/>
<polygon fill="midnightblue" stroke="midnightblue" points="568.796,-115.833 559.28,-120.49 569.624,-122.784 568.796,-115.833"/>
</g>
</g>
</svg>
