<?xml version="1.0" encoding="UTF-8" standalone="no"?>
<!DOCTYPE svg PUBLIC "-//W3C//DTD SVG 1.1//EN"
 "http://www.w3.org/Graphics/SVG/1.1/DTD/svg11.dtd">
<!-- Generated by graphviz version 2.26.3 (20100126.1600)
 -->
<!-- Title: G Pages: 1 -->
<svg width="966pt" height="138pt"
 viewBox="0.00 0.00 966.00 138.00" xmlns="http://www.w3.org/2000/svg" xmlns:xlink="http://www.w3.org/1999/xlink">
<g id="graph1" class="graph" transform="scale(1 1) rotate(0) translate(4 134)">
<title>G</title>
<polygon fill="white" stroke="white" points="-4,5 -4,-134 963,-134 963,5 -4,5"/>
<!-- Node1 -->
<g id="node1" class="node"><title>Node1</title>
<polygon fill="#bfbfbf" stroke="black" points="0.5,-49.5 0.5,-70.5 287.5,-70.5 287.5,-49.5 0.5,-49.5"/>
<text text-anchor="middle" x="144" y="-57.5" font-family="Helvetica,sans-Serif" font-size="10.00">ZendDbSchema_Db_Schema_Table_PrimaryKey\getColumns</text>
</g>
<!-- Node2 -->
<g id="node3" class="node"><title>Node2</title>
<a xlink:href="classZendDbSchema__Db__Schema__Table__PrimaryKey.html#a0b84ee828c689a3da5790e123583f691" target="_top" xlink:title="ZendDbSchema_Db_Schema_Table_PrimaryKey\\addColumn">
<polygon fill="white" stroke="black" points="665,-58.5 665,-79.5 949,-79.5 949,-58.5 665,-58.5"/>
<text text-anchor="middle" x="807" y="-66.5" font-family="Helvetica,sans-Serif" font-size="10.00">ZendDbSchema_Db_Schema_Table_PrimaryKey\addColumn</text>
</a>
</g>
<!-- Node1&#45;&gt;Node2 -->
<g id="edge2" class="edge"><title>Node1&#45;&gt;Node2</title>
<path fill="none" stroke="midnightblue" d="M298.118,-62.0921C408.833,-63.595 556.964,-65.6058 664.845,-67.0703"/>
<polygon fill="midnightblue" stroke="midnightblue" points="297.908,-58.589 287.861,-61.9529 297.813,-65.5884 297.908,-58.589"/>
</g>
<!-- Node3 -->
<g id="node5" class="node"><title>Node3</title>
<a xlink:href="classZendDbSchema__Db__Schema__Generator__Mysql.html#ad1d5ebbad469fcd572d46f08f9f0e5ab" target="_top" xlink:title="ZendDbSchema_Db_Schema_Generator_Mysql\\addPrimaryKey">
<polygon fill="white" stroke="black" points="324,-108.5 324,-129.5 620,-129.5 620,-108.5 324,-108.5"/>
<text text-anchor="middle" x="472" y="-116.5" font-family="Helvetica,sans-Serif" font-size="10.00">ZendDbSchema_Db_Schema_Generator_Mysql\addPrimaryKey</text>
</a>
</g>
<!-- Node1&#45;&gt;Node3 -->
<g id="edge4" class="edge"><title>Node1&#45;&gt;Node3</title>
<path fill="none" stroke="midnightblue" d="M208.199,-72.4386C242.527,-79.0108 285.534,-87.119 324,-94 351.447,-98.9099 381.805,-104.083 407.846,-108.441"/>
<polygon fill="midnightblue" stroke="midnightblue" points="208.78,-68.9863 198.3,-70.5399 207.461,-75.861 208.78,-68.9863"/>
</g>
<!-- Node5 -->
<g id="node9" class="node"><title>Node5</title>
<a xlink:href="classZendDbSchema__Db__Schema__Table__PrimaryKey.html#a97ed55c2479299d4e75e98154f12c409" target="_top" xlink:title="ZendDbSchema_Db_Schema_Table_PrimaryKey\\hasColumn">
<polygon fill="white" stroke="black" points="330,-30.5 330,-51.5 614,-51.5 614,-30.5 330,-30.5"/>
<text text-anchor="middle" x="472" y="-38.5" font-family="Helvetica,sans-Serif" font-size="10.00">ZendDbSchema_Db_Schema_Table_PrimaryKey\hasColumn</text>
</a>
</g>
<!-- Node1&#45;&gt;Node5 -->
<g id="edge8" class="edge"><title>Node1&#45;&gt;Node5</title>
<path fill="none" stroke="midnightblue" d="M298.024,-51.0779C308.644,-50.4627 319.32,-49.8443 329.873,-49.233"/>
<polygon fill="midnightblue" stroke="midnightblue" points="297.646,-47.5938 287.866,-51.6663 298.051,-54.5821 297.646,-47.5938"/>
</g>
<!-- Node6 -->
<g id="node12" class="node"><title>Node6</title>
<a xlink:href="classZendDbSchema__Db__Schema__Table__PrimaryKey.html#a6deb586d1cc0935f5c0d50afa47667de" target="_top" xlink:title="ZendDbSchema_Db_Schema_Table_PrimaryKey\\removeColumn">
<polygon fill="white" stroke="black" points="656.5,-0.5 656.5,-21.5 957.5,-21.5 957.5,-0.5 656.5,-0.5"/>
<text text-anchor="middle" x="807" y="-8.5" font-family="Helvetica,sans-Serif" font-size="10.00">ZendDbSchema_Db_Schema_Table_PrimaryKey\removeColumn</text>
</a>
</g>
<!-- Node1&#45;&gt;Node6 -->
<g id="edge14" class="edge"><title>Node1&#45;&gt;Node6</title>
<path fill="none" stroke="midnightblue" d="M192.016,-46.9548C228.034,-37.817 278.717,-26.324 324,-21 434.787,-7.97456 560.827,-5.78424 656.369,-6.6864"/>
<polygon fill="midnightblue" stroke="midnightblue" points="191.076,-43.5826 182.262,-49.4626 192.819,-50.3621 191.076,-43.5826"/>
</g>
<!-- Node4 -->
<g id="node7" class="node"><title>Node4</title>
<a xlink:href="classZendDbSchema__Db__Schema__Generator__Mysql.html#a2991a5e882a0b6015c0972668215d612" target="_top" xlink:title="ZendDbSchema_Db_Schema_Generator_Mysql\\alterPrimaryKey">
<polygon fill="white" stroke="black" points="657.5,-108.5 657.5,-129.5 956.5,-129.5 956.5,-108.5 657.5,-108.5"/>
<text text-anchor="middle" x="807" y="-116.5" font-family="Helvetica,sans-Serif" font-size="10.00">ZendDbSchema_Db_Schema_Generator_Mysql\alterPrimaryKey</text>
</a>
</g>
<!-- Node3&#45;&gt;Node4 -->
<g id="edge6" class="edge"><title>Node3&#45;&gt;Node4</title>
<path fill="none" stroke="midnightblue" d="M630.474,-119C639.415,-119 648.391,-119 657.299,-119"/>
<polygon fill="midnightblue" stroke="midnightblue" points="630.399,-115.5 620.399,-119 630.399,-122.5 630.399,-115.5"/>
</g>
<!-- Node5&#45;&gt;Node2 -->
<g id="edge10" class="edge"><title>Node5&#45;&gt;Node2</title>
<path fill="none" stroke="midnightblue" d="M607.673,-52.3399C631.956,-54.3695 657.166,-56.4766 681.158,-58.4819"/>
<polygon fill="midnightblue" stroke="midnightblue" points="607.952,-48.851 597.695,-51.5058 607.368,-55.8267 607.952,-48.851"/>
</g>
<!-- Node5&#45;&gt;Node6 -->
<g id="edge12" class="edge"><title>Node5&#45;&gt;Node6</title>
<path fill="none" stroke="midnightblue" d="M599.983,-29.5389C629.452,-26.8998 660.653,-24.1057 689.646,-21.5093"/>
<polygon fill="midnightblue" stroke="midnightblue" points="599.285,-26.0872 589.637,-30.4653 599.91,-33.0593 599.285,-26.0872"/>
</g>
</g>
</svg>
