<?xml version="1.0" encoding="UTF-8" standalone="no"?>
<!DOCTYPE svg PUBLIC "-//W3C//DTD SVG 1.1//EN"
 "http://www.w3.org/Graphics/SVG/1.1/DTD/svg11.dtd">
<!-- Generated by graphviz version 2.26.3 (20100126.1600)
 -->
<!-- Title: G Pages: 1 -->
<svg width="774pt" height="198pt"
 viewBox="0.00 0.00 774.00 198.00" xmlns="http://www.w3.org/2000/svg" xmlns:xlink="http://www.w3.org/1999/xlink">
<g id="graph1" class="graph" transform="scale(1 1) rotate(0) translate(4 194)">
<title>G</title>
<polygon fill="white" stroke="white" points="-4,5 -4,-194 771,-194 771,5 -4,5"/>
<!-- Node1 -->
<g id="node1" class="node"><title>Node1</title>
<polygon fill="#bfbfbf" stroke="black" points="0,-78 0,-112 146,-112 146,-78 0,-78"/>
<text text-anchor="start" x="8" y="-99" font-family="Helvetica,sans-Serif" font-size="10.00">ZendDbSchema_Db_Schema</text>
<text text-anchor="middle" x="73" y="-86" font-family="Helvetica,sans-Serif" font-size="10.00">_AbstractSchema\toSql</text>
</g>
<!-- Node2 -->
<g id="node3" class="node"><title>Node2</title>
<a xlink:href="classZendDbSchema__Db__Schema__AbstractSchema.html#ae859790a91bbcb9c4dc52a6139e5999e" target="_top" xlink:title="ZendDbSchema_Db_Schema\l_AbstractSchema\\isDirty">
<polygon fill="white" stroke="black" points="189,-104 189,-138 335,-138 335,-104 189,-104"/>
<text text-anchor="start" x="197" y="-125" font-family="Helvetica,sans-Serif" font-size="10.00">ZendDbSchema_Db_Schema</text>
<text text-anchor="middle" x="262" y="-112" font-family="Helvetica,sans-Serif" font-size="10.00">_AbstractSchema\isDirty</text>
</a>
</g>
<!-- Node1&#45;&gt;Node2 -->
<g id="edge2" class="edge"><title>Node1&#45;&gt;Node2</title>
<path fill="none" stroke="midnightblue" d="M146.072,-105.052C156.809,-106.529 167.935,-108.06 178.856,-109.562"/>
<polygon fill="midnightblue" stroke="midnightblue" points="178.427,-113.036 188.81,-110.932 179.381,-106.101 178.427,-113.036"/>
</g>
<!-- Node7 -->
<g id="node14" class="node"><title>Node7</title>
<a xlink:href="classZendDbSchema__Db__Schema__AbstractSchema.html#a1680a8fd22360f74d29b641d7257a52f" target="_top" xlink:title="ZendDbSchema_Db_Schema\l_AbstractSchema\\isExist">
<polygon fill="white" stroke="black" points="189,-156 189,-190 335,-190 335,-156 189,-156"/>
<text text-anchor="start" x="197" y="-177" font-family="Helvetica,sans-Serif" font-size="10.00">ZendDbSchema_Db_Schema</text>
<text text-anchor="middle" x="262" y="-164" font-family="Helvetica,sans-Serif" font-size="10.00">_AbstractSchema\isExist</text>
</a>
</g>
<!-- Node1&#45;&gt;Node7 -->
<g id="edge14" class="edge"><title>Node1&#45;&gt;Node7</title>
<path fill="none" stroke="midnightblue" d="M105.892,-112.079C127.264,-122.828 155.905,-136.587 182,-147 186.711,-148.88 191.617,-150.729 196.577,-152.519"/>
<polygon fill="midnightblue" stroke="midnightblue" points="195.553,-155.869 206.148,-155.886 197.875,-149.266 195.553,-155.869"/>
</g>
<!-- Node8 -->
<g id="node17" class="node"><title>Node8</title>
<a xlink:href="classZendDbSchema__Db__Schema__AbstractSchema.html#a2b880c7261b3f4b988f1a2b74e188c75" target="_top" xlink:title="ZendDbSchema_Db_Schema\l_AbstractSchema\\_getAlterSql">
<polygon fill="white" stroke="black" points="186.5,-52 186.5,-86 337.5,-86 337.5,-52 186.5,-52"/>
<text text-anchor="start" x="194.5" y="-73" font-family="Helvetica,sans-Serif" font-size="10.00">ZendDbSchema_Db_Schema</text>
<text text-anchor="middle" x="262" y="-60" font-family="Helvetica,sans-Serif" font-size="10.00">_AbstractSchema\_getAlterSql</text>
</a>
</g>
<!-- Node1&#45;&gt;Node8 -->
<g id="edge18" class="edge"><title>Node1&#45;&gt;Node8</title>
<path fill="none" stroke="midnightblue" d="M146.072,-84.9477C155.967,-83.5866 166.192,-82.18 176.282,-80.7919"/>
<polygon fill="midnightblue" stroke="midnightblue" points="176.88,-84.2426 186.31,-79.4124 175.926,-77.3079 176.88,-84.2426"/>
</g>
<!-- Node9 -->
<g id="node19" class="node"><title>Node9</title>
<a xlink:href="classZendDbSchema__Db__Schema__AbstractSchema.html#a52321b7526257809f382a28a96ab562e" target="_top" xlink:title="ZendDbSchema_Db_Schema\l_AbstractSchema\\_getCreateSql">
<polygon fill="white" stroke="black" points="182,-0 182,-34 342,-34 342,-0 182,-0"/>
<text text-anchor="start" x="190" y="-21" font-family="Helvetica,sans-Serif" font-size="10.00">ZendDbSchema_Db_Schema</text>
<text text-anchor="middle" x="262" y="-8" font-family="Helvetica,sans-Serif" font-size="10.00">_AbstractSchema\_getCreateSql</text>
</a>
</g>
<!-- Node1&#45;&gt;Node9 -->
<g id="edge20" class="edge"><title>Node1&#45;&gt;Node9</title>
<path fill="none" stroke="midnightblue" d="M105.892,-77.9214C127.264,-67.1721 155.905,-53.4129 182,-43 186.711,-41.12 191.617,-39.2715 196.577,-37.4805"/>
<polygon fill="midnightblue" stroke="midnightblue" points="197.875,-40.7342 206.148,-34.1143 195.553,-34.1308 197.875,-40.7342"/>
</g>
<!-- Node3 -->
<g id="node5" class="node"><title>Node3</title>
<a xlink:href="classZendDbSchema__Db__Schema__AbstractSchema.html#a46da7a60c7e5fd605607afbc1dac4baa" target="_top" xlink:title="ZendDbSchema_Db_Schema\l_AbstractSchema\\getCleanSchema">
<polygon fill="white" stroke="black" points="378.5,-154 378.5,-188 551.5,-188 551.5,-154 378.5,-154"/>
<text text-anchor="start" x="386.5" y="-175" font-family="Helvetica,sans-Serif" font-size="10.00">ZendDbSchema_Db_Schema</text>
<text text-anchor="middle" x="465" y="-162" font-family="Helvetica,sans-Serif" font-size="10.00">_AbstractSchema\getCleanSchema</text>
</a>
</g>
<!-- Node2&#45;&gt;Node3 -->
<g id="edge4" class="edge"><title>Node2&#45;&gt;Node3</title>
<path fill="none" stroke="midnightblue" d="M331.293,-138.067C348.834,-142.388 367.807,-147.061 385.797,-151.492"/>
<polygon fill="midnightblue" stroke="midnightblue" points="385.128,-154.932 395.675,-153.925 386.802,-148.135 385.128,-154.932"/>
</g>
<!-- Node5 -->
<g id="node9" class="node"><title>Node5</title>
<a xlink:href="classZendDbSchema__Db__Schema__AbstractSchema.html#ac4e121ba7932163eb1950fabe06fb9db" target="_top" xlink:title="ZendDbSchema_Db_Schema\l_AbstractSchema\\__isset">
<polygon fill="white" stroke="black" points="604,-82 604,-116 750,-116 750,-82 604,-82"/>
<text text-anchor="start" x="612" y="-103" font-family="Helvetica,sans-Serif" font-size="10.00">ZendDbSchema_Db_Schema</text>
<text text-anchor="middle" x="677" y="-90" font-family="Helvetica,sans-Serif" font-size="10.00">_AbstractSchema\__isset</text>
</a>
</g>
<!-- Node2&#45;&gt;Node5 -->
<g id="edge8" class="edge"><title>Node2&#45;&gt;Node5</title>
<path fill="none" stroke="midnightblue" d="M335.238,-117.117C407.466,-113.289 517.729,-107.443 593.362,-103.434"/>
<polygon fill="midnightblue" stroke="midnightblue" points="593.996,-106.905 603.797,-102.881 593.626,-99.915 593.996,-106.905"/>
</g>
<!-- Node6 -->
<g id="node11" class="node"><title>Node6</title>
<a xlink:href="classZendDbSchema__Db__Schema__AbstractSchema.html#a54d32c6f15463eaad2321a9f0e7225d7" target="_top" xlink:title="ZendDbSchema_Db_Schema\l_AbstractSchema\\__get">
<polygon fill="white" stroke="black" points="392,-61 392,-95 538,-95 538,-61 392,-61"/>
<text text-anchor="start" x="400" y="-82" font-family="Helvetica,sans-Serif" font-size="10.00">ZendDbSchema_Db_Schema</text>
<text text-anchor="middle" x="465" y="-69" font-family="Helvetica,sans-Serif" font-size="10.00">_AbstractSchema\__get</text>
</a>
</g>
<!-- Node2&#45;&gt;Node6 -->
<g id="edge10" class="edge"><title>Node2&#45;&gt;Node6</title>
<path fill="none" stroke="midnightblue" d="M335.001,-105.537C350.2,-102.317 366.326,-98.9014 381.859,-95.6112"/>
<polygon fill="midnightblue" stroke="midnightblue" points="382.907,-98.9668 391.965,-93.4705 381.457,-92.1188 382.907,-98.9668"/>
</g>
<!-- Node4 -->
<g id="node7" class="node"><title>Node4</title>
<a xlink:href="classZendDbSchema__Db__Schema__AbstractSchema.html#af99e5bb9adfe0da8c94d3d3848efe7b5" target="_top" xlink:title="ZendDbSchema_Db_Schema\l_AbstractSchema\\_getCleanSchema">
<polygon fill="white" stroke="black" points="588,-154 588,-188 766,-188 766,-154 588,-154"/>
<text text-anchor="start" x="596" y="-175" font-family="Helvetica,sans-Serif" font-size="10.00">ZendDbSchema_Db_Schema</text>
<text text-anchor="middle" x="677" y="-162" font-family="Helvetica,sans-Serif" font-size="10.00">_AbstractSchema\_getCleanSchema</text>
</a>
</g>
<!-- Node3&#45;&gt;Node4 -->
<g id="edge6" class="edge"><title>Node3&#45;&gt;Node4</title>
<path fill="none" stroke="midnightblue" d="M551.534,-171C560.175,-171 568.994,-171 577.752,-171"/>
<polygon fill="midnightblue" stroke="midnightblue" points="577.99,-174.5 587.99,-171 577.99,-167.5 577.99,-174.5"/>
</g>
<!-- Node6&#45;&gt;Node5 -->
<g id="edge12" class="edge"><title>Node6&#45;&gt;Node5</title>
<path fill="none" stroke="midnightblue" d="M538.255,-85.2564C556.129,-87.0269 575.38,-88.9339 593.685,-90.7471"/>
<polygon fill="midnightblue" stroke="midnightblue" points="593.446,-94.2404 603.742,-91.7433 594.136,-87.2745 593.446,-94.2404"/>
</g>
<!-- Node7&#45;&gt;Node3 -->
<g id="edge16" class="edge"><title>Node7&#45;&gt;Node3</title>
<path fill="none" stroke="midnightblue" d="M335.001,-172.281C345.792,-172.174 357.051,-172.064 368.234,-171.953"/>
<polygon fill="midnightblue" stroke="midnightblue" points="368.501,-175.451 378.466,-171.853 368.432,-168.451 368.501,-175.451"/>
</g>
</g>
</svg>
