<?xml version="1.0" encoding="UTF-8" standalone="no"?>
<!DOCTYPE svg PUBLIC "-//W3C//DTD SVG 1.1//EN"
 "http://www.w3.org/Graphics/SVG/1.1/DTD/svg11.dtd">
<!-- Generated by graphviz version 2.26.3 (20100126.1600)
 -->
<!-- Title: G Pages: 1 -->
<svg width="1082pt" height="94pt"
 viewBox="0.00 0.00 1082.00 94.00" xmlns="http://www.w3.org/2000/svg" xmlns:xlink="http://www.w3.org/1999/xlink">
<g id="graph1" class="graph" transform="scale(1 1) rotate(0) translate(4 90)">
<title>G</title>
<polygon fill="white" stroke="white" points="-4,5 -4,-90 1079,-90 1079,5 -4,5"/>
<!-- Node1 -->
<g id="node1" class="node"><title>Node1</title>
<polygon fill="#bfbfbf" stroke="black" points="0,-26 0,-60 146,-60 146,-26 0,-26"/>
<text text-anchor="start" x="8" y="-47" font-family="Helvetica,sans-Serif" font-size="10.00">ZendDbSchema_Db_Schema</text>
<text text-anchor="middle" x="73" y="-34" font-family="Helvetica,sans-Serif" font-size="10.00">_AbstractEntity\__wakeup</text>
</g>
<!-- Node2 -->
<g id="node3" class="node"><title>Node2</title>
<a xlink:href="classZendDbSchema__Db__Schema__AbstractEntity.html#aa35a80275bd3c811dd8ad39835a985a9" target="_top" xlink:title="ZendDbSchema_Db_Schema\l_AbstractEntity\\reload">
<polygon fill="white" stroke="black" points="182,-26 182,-60 328,-60 328,-26 182,-26"/>
<text text-anchor="start" x="190" y="-47" font-family="Helvetica,sans-Serif" font-size="10.00">ZendDbSchema_Db_Schema</text>
<text text-anchor="middle" x="255" y="-34" font-family="Helvetica,sans-Serif" font-size="10.00">_AbstractEntity\reload</text>
</a>
</g>
<!-- Node1&#45;&gt;Node2 -->
<g id="edge2" class="edge"><title>Node1&#45;&gt;Node2</title>
<path fill="none" stroke="midnightblue" d="M146.24,-43C154.596,-43 163.161,-43 171.636,-43"/>
<polygon fill="midnightblue" stroke="midnightblue" points="171.91,-46.5001 181.91,-43 171.91,-39.5001 171.91,-46.5001"/>
</g>
<!-- Node3 -->
<g id="node5" class="node"><title>Node3</title>
<a xlink:href="classZendDbSchema__Db__Schema__AbstractSchema.html#adacb1417b461310c5c87f72c459c1985" target="_top" xlink:title="ZendDbSchema_Db_Schema\l_AbstractSchema\\getOriginName">
<polygon fill="white" stroke="black" points="364.5,-52 364.5,-86 527.5,-86 527.5,-52 364.5,-52"/>
<text text-anchor="start" x="372.5" y="-73" font-family="Helvetica,sans-Serif" font-size="10.00">ZendDbSchema_Db_Schema</text>
<text text-anchor="middle" x="446" y="-60" font-family="Helvetica,sans-Serif" font-size="10.00">_AbstractSchema\getOriginName</text>
</a>
</g>
<!-- Node2&#45;&gt;Node3 -->
<g id="edge4" class="edge"><title>Node2&#45;&gt;Node3</title>
<path fill="none" stroke="midnightblue" d="M328.026,-52.9408C336.673,-54.1178 345.58,-55.3302 354.441,-56.5365"/>
<polygon fill="midnightblue" stroke="midnightblue" points="354.03,-60.0127 364.411,-57.8936 354.974,-53.0767 354.03,-60.0127"/>
</g>
<!-- Node7 -->
<g id="node13" class="node"><title>Node7</title>
<a xlink:href="classZendDbSchema__Db__Schema__AbstractEntity.html#ab317ba1e66cc14d78922314962f7d0ff" target="_top" xlink:title="ZendDbSchema_Db_Schema\l_AbstractEntity\\_doReload">
<polygon fill="white" stroke="black" points="373,-0 373,-34 519,-34 519,-0 373,-0"/>
<text text-anchor="start" x="381" y="-21" font-family="Helvetica,sans-Serif" font-size="10.00">ZendDbSchema_Db_Schema</text>
<text text-anchor="middle" x="446" y="-8" font-family="Helvetica,sans-Serif" font-size="10.00">_AbstractEntity\_doReload</text>
</a>
</g>
<!-- Node2&#45;&gt;Node7 -->
<g id="edge12" class="edge"><title>Node2&#45;&gt;Node7</title>
<path fill="none" stroke="midnightblue" d="M328.026,-33.0592C339.348,-31.518 351.117,-29.916 362.646,-28.3466"/>
<polygon fill="midnightblue" stroke="midnightblue" points="363.261,-31.7952 372.698,-26.9783 362.317,-24.8592 363.261,-31.7952"/>
</g>
<!-- Node4 -->
<g id="node7" class="node"><title>Node4</title>
<a xlink:href="classZendDbSchema__Db__Schema__AbstractSchema.html#a55787c21deddba427842809d589c2df6" target="_top" xlink:title="ZendDbSchema_Db_Schema\l_AbstractSchema\\getName">
<polygon fill="white" stroke="black" points="564,-52 564,-86 710,-86 710,-52 564,-52"/>
<text text-anchor="start" x="572" y="-73" font-family="Helvetica,sans-Serif" font-size="10.00">ZendDbSchema_Db_Schema</text>
<text text-anchor="middle" x="637" y="-60" font-family="Helvetica,sans-Serif" font-size="10.00">_AbstractSchema\getName</text>
</a>
</g>
<!-- Node3&#45;&gt;Node4 -->
<g id="edge6" class="edge"><title>Node3&#45;&gt;Node4</title>
<path fill="none" stroke="midnightblue" d="M527.555,-69C536.227,-69 545.057,-69 553.748,-69"/>
<polygon fill="midnightblue" stroke="midnightblue" points="553.87,-72.5001 563.87,-69 553.87,-65.5001 553.87,-72.5001"/>
</g>
<!-- Node5 -->
<g id="node9" class="node"><title>Node5</title>
<a xlink:href="classZendDbSchema__Db__Schema__AbstractSchema.html#a54d32c6f15463eaad2321a9f0e7225d7" target="_top" xlink:title="ZendDbSchema_Db_Schema\l_AbstractSchema\\__get">
<polygon fill="white" stroke="black" points="746,-52 746,-86 892,-86 892,-52 746,-52"/>
<text text-anchor="start" x="754" y="-73" font-family="Helvetica,sans-Serif" font-size="10.00">ZendDbSchema_Db_Schema</text>
<text text-anchor="middle" x="819" y="-60" font-family="Helvetica,sans-Serif" font-size="10.00">_AbstractSchema\__get</text>
</a>
</g>
<!-- Node4&#45;&gt;Node5 -->
<g id="edge8" class="edge"><title>Node4&#45;&gt;Node5</title>
<path fill="none" stroke="midnightblue" d="M710.24,-69C718.596,-69 727.161,-69 735.636,-69"/>
<polygon fill="midnightblue" stroke="midnightblue" points="735.91,-72.5001 745.91,-69 735.91,-65.5001 735.91,-72.5001"/>
</g>
<!-- Node6 -->
<g id="node11" class="node"><title>Node6</title>
<a xlink:href="classZendDbSchema__Db__Schema__AbstractSchema.html#ac4e121ba7932163eb1950fabe06fb9db" target="_top" xlink:title="ZendDbSchema_Db_Schema\l_AbstractSchema\\__isset">
<polygon fill="white" stroke="black" points="928,-52 928,-86 1074,-86 1074,-52 928,-52"/>
<text text-anchor="start" x="936" y="-73" font-family="Helvetica,sans-Serif" font-size="10.00">ZendDbSchema_Db_Schema</text>
<text text-anchor="middle" x="1001" y="-60" font-family="Helvetica,sans-Serif" font-size="10.00">_AbstractSchema\__isset</text>
</a>
</g>
<!-- Node5&#45;&gt;Node6 -->
<g id="edge10" class="edge"><title>Node5&#45;&gt;Node6</title>
<path fill="none" stroke="midnightblue" d="M892.24,-69C900.596,-69 909.161,-69 917.636,-69"/>
<polygon fill="midnightblue" stroke="midnightblue" points="917.91,-72.5001 927.91,-69 917.91,-65.5001 917.91,-72.5001"/>
</g>
</g>
</svg>
