<?xml version="1.0" encoding="UTF-8" standalone="no"?>
<!DOCTYPE svg PUBLIC "-//W3C//DTD SVG 1.1//EN"
 "http://www.w3.org/Graphics/SVG/1.1/DTD/svg11.dtd">
<!-- Generated by graphviz version 2.26.3 (20100126.1600)
 -->
<!-- Title: G Pages: 1 -->
<svg width="1452pt" height="110pt"
 viewBox="0.00 0.00 1452.00 110.00" xmlns="http://www.w3.org/2000/svg" xmlns:xlink="http://www.w3.org/1999/xlink">
<g id="graph1" class="graph" transform="scale(1 1) rotate(0) translate(4 106)">
<title>G</title>
<polygon fill="white" stroke="white" points="-4,5 -4,-106 1449,-106 1449,5 -4,5"/>
<!-- Node1 -->
<g id="node1" class="node"><title>Node1</title>
<polygon fill="#bfbfbf" stroke="black" points="0.5,-40.5 0.5,-61.5 225.5,-61.5 225.5,-40.5 0.5,-40.5"/>
<text text-anchor="middle" x="113" y="-48.5" font-family="Helvetica,sans-Serif" font-size="10.00">ZendDbSchema_Db_Schema_Table\_doReload</text>
</g>
<!-- Node2 -->
<g id="node3" class="node"><title>Node2</title>
<a xlink:href="classZendDbSchema__Db__Schema__AbstractEntity.html#a55d492a6272ad16645df99d5d37e80d5" target="_top" xlink:title="ZendDbSchema_Db_Schema_AbstractEntity\\getLoader">
<polygon fill="white" stroke="black" points="279,-80.5 279,-101.5 539,-101.5 539,-80.5 279,-80.5"/>
<text text-anchor="middle" x="409" y="-88.5" font-family="Helvetica,sans-Serif" font-size="10.00">ZendDbSchema_Db_Schema_AbstractEntity\getLoader</text>
</a>
</g>
<!-- Node1&#45;&gt;Node2 -->
<g id="edge2" class="edge"><title>Node1&#45;&gt;Node2</title>
<path fill="none" stroke="midnightblue" d="M190.771,-61.5095C230.806,-66.9197 279.766,-73.5359 321.16,-79.1297"/>
<polygon fill="midnightblue" stroke="midnightblue" points="320.857,-82.6205 331.236,-80.4913 321.794,-75.6835 320.857,-82.6205"/>
</g>
<!-- Node3 -->
<g id="node5" class="node"><title>Node3</title>
<a xlink:href="classZendDbSchema__Db__Schema__AbstractEntity.html#ad6dfc39cc6d92633fd92170db18c9573" target="_top" xlink:title="ZendDbSchema_Db_Schema_AbstractEntity\\getAdapter">
<polygon fill="white" stroke="black" points="277,-40.5 277,-61.5 541,-61.5 541,-40.5 277,-40.5"/>
<text text-anchor="middle" x="409" y="-48.5" font-family="Helvetica,sans-Serif" font-size="10.00">ZendDbSchema_Db_Schema_AbstractEntity\getAdapter</text>
</a>
</g>
<!-- Node1&#45;&gt;Node3 -->
<g id="edge4" class="edge"><title>Node1&#45;&gt;Node3</title>
<path fill="none" stroke="midnightblue" d="M225.749,-51C239.225,-51 253.114,-51 266.935,-51"/>
<polygon fill="midnightblue" stroke="midnightblue" points="266.979,-54.5001 276.979,-51 266.979,-47.5001 266.979,-54.5001"/>
</g>
<!-- Node4 -->
<g id="node7" class="node"><title>Node4</title>
<a xlink:href="classZendDbSchema__Db__Schema__AbstractSchema.html#adacb1417b461310c5c87f72c459c1985" target="_top" xlink:title="ZendDbSchema_Db_Schema_AbstractSchema\\getOriginName">
<polygon fill="white" stroke="black" points="262.5,-0.5 262.5,-21.5 555.5,-21.5 555.5,-0.5 262.5,-0.5"/>
<text text-anchor="middle" x="409" y="-8.5" font-family="Helvetica,sans-Serif" font-size="10.00">ZendDbSchema_Db_Schema_AbstractSchema\getOriginName</text>
</a>
</g>
<!-- Node1&#45;&gt;Node4 -->
<g id="edge6" class="edge"><title>Node1&#45;&gt;Node4</title>
<path fill="none" stroke="midnightblue" d="M190.771,-40.4905C230.806,-35.0803 279.766,-28.4641 321.16,-22.8703"/>
<polygon fill="midnightblue" stroke="midnightblue" points="321.794,-26.3165 331.236,-21.5087 320.857,-19.3795 321.794,-26.3165"/>
</g>
<!-- Node5 -->
<g id="node9" class="node"><title>Node5</title>
<a xlink:href="classZendDbSchema__Db__Schema__AbstractSchema.html#a55787c21deddba427842809d589c2df6" target="_top" xlink:title="ZendDbSchema_Db_Schema_AbstractSchema\\getName">
<polygon fill="white" stroke="black" points="592.5,-0.5 592.5,-21.5 859.5,-21.5 859.5,-0.5 592.5,-0.5"/>
<text text-anchor="middle" x="726" y="-8.5" font-family="Helvetica,sans-Serif" font-size="10.00">ZendDbSchema_Db_Schema_AbstractSchema\getName</text>
</a>
</g>
<!-- Node4&#45;&gt;Node5 -->
<g id="edge8" class="edge"><title>Node4&#45;&gt;Node5</title>
<path fill="none" stroke="midnightblue" d="M555.9,-11C564.631,-11 573.408,-11 582.127,-11"/>
<polygon fill="midnightblue" stroke="midnightblue" points="582.327,-14.5001 592.327,-11 582.327,-7.5001 582.327,-14.5001"/>
</g>
<!-- Node6 -->
<g id="node11" class="node"><title>Node6</title>
<a xlink:href="classZendDbSchema__Db__Schema__AbstractSchema.html#a54d32c6f15463eaad2321a9f0e7225d7" target="_top" xlink:title="ZendDbSchema_Db_Schema_AbstractSchema\\__get">
<polygon fill="white" stroke="black" points="896.5,-0.5 896.5,-21.5 1147.5,-21.5 1147.5,-0.5 896.5,-0.5"/>
<text text-anchor="middle" x="1022" y="-8.5" font-family="Helvetica,sans-Serif" font-size="10.00">ZendDbSchema_Db_Schema_AbstractSchema\__get</text>
</a>
</g>
<!-- Node5&#45;&gt;Node6 -->
<g id="edge10" class="edge"><title>Node5&#45;&gt;Node6</title>
<path fill="none" stroke="midnightblue" d="M859.711,-11C868.411,-11 877.176,-11 885.887,-11"/>
<polygon fill="midnightblue" stroke="midnightblue" points="886.08,-14.5001 896.08,-11 886.08,-7.5001 886.08,-14.5001"/>
</g>
<!-- Node7 -->
<g id="node13" class="node"><title>Node7</title>
<a xlink:href="classZendDbSchema__Db__Schema__AbstractSchema.html#ac4e121ba7932163eb1950fabe06fb9db" target="_top" xlink:title="ZendDbSchema_Db_Schema_AbstractSchema\\__isset">
<polygon fill="white" stroke="black" points="1184.5,-0.5 1184.5,-21.5 1443.5,-21.5 1443.5,-0.5 1184.5,-0.5"/>
<text text-anchor="middle" x="1314" y="-8.5" font-family="Helvetica,sans-Serif" font-size="10.00">ZendDbSchema_Db_Schema_AbstractSchema\__isset</text>
</a>
</g>
<!-- Node6&#45;&gt;Node7 -->
<g id="edge12" class="edge"><title>Node6&#45;&gt;Node7</title>
<path fill="none" stroke="midnightblue" d="M1147.53,-11C1156.4,-11 1165.38,-11 1174.32,-11"/>
<polygon fill="midnightblue" stroke="midnightblue" points="1174.4,-14.5001 1184.4,-11 1174.4,-7.5001 1174.4,-14.5001"/>
</g>
</g>
</svg>
