<?xml version="1.0" encoding="UTF-8" standalone="no"?>
<!DOCTYPE svg PUBLIC "-//W3C//DTD SVG 1.1//EN"
 "http://www.w3.org/Graphics/SVG/1.1/DTD/svg11.dtd">
<!-- Generated by graphviz version 2.26.3 (20100126.1600)
 -->
<!-- Title: G Pages: 1 -->
<svg width="900pt" height="94pt"
 viewBox="0.00 0.00 900.00 94.00" xmlns="http://www.w3.org/2000/svg" xmlns:xlink="http://www.w3.org/1999/xlink">
<g id="graph1" class="graph" transform="scale(1 1) rotate(0) translate(4 90)">
<title>G</title>
<polygon fill="white" stroke="white" points="-4,5 -4,-90 897,-90 897,5 -4,5"/>
<!-- Node1 -->
<g id="node1" class="node"><title>Node1</title>
<polygon fill="#bfbfbf" stroke="black" points="0,-26 0,-60 146,-60 146,-26 0,-26"/>
<text text-anchor="start" x="8" y="-47" font-family="Helvetica,sans-Serif" font-size="10.00">ZendDbSchema_Db_Schema</text>
<text text-anchor="middle" x="73" y="-34" font-family="Helvetica,sans-Serif" font-size="10.00">_Database\_doReload</text>
</g>
<!-- Node2 -->
<g id="node3" class="node"><title>Node2</title>
<a xlink:href="classZendDbSchema__Db__Schema__AbstractEntity.html#ad6dfc39cc6d92633fd92170db18c9573" target="_top" xlink:title="ZendDbSchema_Db_Schema\l_AbstractEntity\\getAdapter">
<polygon fill="white" stroke="black" points="191,-52 191,-86 337,-86 337,-52 191,-52"/>
<text text-anchor="start" x="199" y="-73" font-family="Helvetica,sans-Serif" font-size="10.00">ZendDbSchema_Db_Schema</text>
<text text-anchor="middle" x="264" y="-60" font-family="Helvetica,sans-Serif" font-size="10.00">_AbstractEntity\getAdapter</text>
</a>
</g>
<!-- Node1&#45;&gt;Node2 -->
<g id="edge2" class="edge"><title>Node1&#45;&gt;Node2</title>
<path fill="none" stroke="midnightblue" d="M146.026,-52.9408C157.348,-54.482 169.117,-56.084 180.646,-57.6534"/>
<polygon fill="midnightblue" stroke="midnightblue" points="180.317,-61.1408 190.698,-59.0217 181.261,-54.2048 180.317,-61.1408"/>
</g>
<!-- Node3 -->
<g id="node5" class="node"><title>Node3</title>
<a xlink:href="classZendDbSchema__Db__Schema__AbstractSchema.html#adacb1417b461310c5c87f72c459c1985" target="_top" xlink:title="ZendDbSchema_Db_Schema\l_AbstractSchema\\getOriginName">
<polygon fill="white" stroke="black" points="182.5,-0 182.5,-34 345.5,-34 345.5,-0 182.5,-0"/>
<text text-anchor="start" x="190.5" y="-21" font-family="Helvetica,sans-Serif" font-size="10.00">ZendDbSchema_Db_Schema</text>
<text text-anchor="middle" x="264" y="-8" font-family="Helvetica,sans-Serif" font-size="10.00">_AbstractSchema\getOriginName</text>
</a>
</g>
<!-- Node1&#45;&gt;Node3 -->
<g id="edge4" class="edge"><title>Node1&#45;&gt;Node3</title>
<path fill="none" stroke="midnightblue" d="M146.026,-33.0592C154.673,-31.8822 163.58,-30.6698 172.441,-29.4635"/>
<polygon fill="midnightblue" stroke="midnightblue" points="172.974,-32.9233 182.411,-28.1064 172.03,-25.9873 172.974,-32.9233"/>
</g>
<!-- Node4 -->
<g id="node7" class="node"><title>Node4</title>
<a xlink:href="classZendDbSchema__Db__Schema__AbstractSchema.html#a55787c21deddba427842809d589c2df6" target="_top" xlink:title="ZendDbSchema_Db_Schema\l_AbstractSchema\\getName">
<polygon fill="white" stroke="black" points="382,-0 382,-34 528,-34 528,-0 382,-0"/>
<text text-anchor="start" x="390" y="-21" font-family="Helvetica,sans-Serif" font-size="10.00">ZendDbSchema_Db_Schema</text>
<text text-anchor="middle" x="455" y="-8" font-family="Helvetica,sans-Serif" font-size="10.00">_AbstractSchema\getName</text>
</a>
</g>
<!-- Node3&#45;&gt;Node4 -->
<g id="edge6" class="edge"><title>Node3&#45;&gt;Node4</title>
<path fill="none" stroke="midnightblue" d="M345.555,-17C354.227,-17 363.057,-17 371.748,-17"/>
<polygon fill="midnightblue" stroke="midnightblue" points="371.87,-20.5001 381.87,-17 371.87,-13.5001 371.87,-20.5001"/>
</g>
<!-- Node5 -->
<g id="node9" class="node"><title>Node5</title>
<a xlink:href="classZendDbSchema__Db__Schema__AbstractSchema.html#a54d32c6f15463eaad2321a9f0e7225d7" target="_top" xlink:title="ZendDbSchema_Db_Schema\l_AbstractSchema\\__get">
<polygon fill="white" stroke="black" points="564,-0 564,-34 710,-34 710,-0 564,-0"/>
<text text-anchor="start" x="572" y="-21" font-family="Helvetica,sans-Serif" font-size="10.00">ZendDbSchema_Db_Schema</text>
<text text-anchor="middle" x="637" y="-8" font-family="Helvetica,sans-Serif" font-size="10.00">_AbstractSchema\__get</text>
</a>
</g>
<!-- Node4&#45;&gt;Node5 -->
<g id="edge8" class="edge"><title>Node4&#45;&gt;Node5</title>
<path fill="none" stroke="midnightblue" d="M528.24,-17C536.596,-17 545.161,-17 553.636,-17"/>
<polygon fill="midnightblue" stroke="midnightblue" points="553.91,-20.5001 563.91,-17 553.91,-13.5001 553.91,-20.5001"/>
</g>
<!-- Node6 -->
<g id="node11" class="node"><title>Node6</title>
<a xlink:href="classZendDbSchema__Db__Schema__AbstractSchema.html#ac4e121ba7932163eb1950fabe06fb9db" target="_top" xlink:title="ZendDbSchema_Db_Schema\l_AbstractSchema\\__isset">
<polygon fill="white" stroke="black" points="746,-0 746,-34 892,-34 892,-0 746,-0"/>
<text text-anchor="start" x="754" y="-21" font-family="Helvetica,sans-Serif" font-size="10.00">ZendDbSchema_Db_Schema</text>
<text text-anchor="middle" x="819" y="-8" font-family="Helvetica,sans-Serif" font-size="10.00">_AbstractSchema\__isset</text>
</a>
</g>
<!-- Node5&#45;&gt;Node6 -->
<g id="edge10" class="edge"><title>Node5&#45;&gt;Node6</title>
<path fill="none" stroke="midnightblue" d="M710.24,-17C718.596,-17 727.161,-17 735.636,-17"/>
<polygon fill="midnightblue" stroke="midnightblue" points="735.91,-20.5001 745.91,-17 735.91,-13.5001 735.91,-20.5001"/>
</g>
</g>
</svg>
