<?xml version="1.0" encoding="UTF-8" standalone="no"?>
<!DOCTYPE svg PUBLIC "-//W3C//DTD SVG 1.1//EN"
 "http://www.w3.org/Graphics/SVG/1.1/DTD/svg11.dtd">
<!-- Generated by graphviz version 2.26.3 (20100126.1600)
 -->
<!-- Title: G Pages: 1 -->
<svg width="624pt" height="70pt"
 viewBox="0.00 0.00 624.00 70.00" xmlns="http://www.w3.org/2000/svg" xmlns:xlink="http://www.w3.org/1999/xlink">
<g id="graph1" class="graph" transform="scale(1 1) rotate(0) translate(4 66)">
<title>G</title>
<polygon fill="white" stroke="white" points="-4,5 -4,-66 621,-66 621,5 -4,5"/>
<!-- Node1 -->
<g id="node1" class="node"><title>Node1</title>
<polygon fill="#bfbfbf" stroke="black" points="0,-20.5 0,-41.5 292,-41.5 292,-20.5 0,-20.5"/>
<text text-anchor="middle" x="146" y="-28.5" font-family="Helvetica,sans-Serif" font-size="10.00">ZendDbSchema_Db_Schema_Table_AbstractDefinition\refresh</text>
</g>
<!-- Node2 -->
<g id="node3" class="node"><title>Node2</title>
<a xlink:href="classZendDbSchema__Db__Schema__Table__PrimaryKey.html#a8189591ab7ced58307298ecc8f27779d" target="_top" xlink:title="ZendDbSchema_Db_Schema_Table_PrimaryKey\\__construct">
<polygon fill="white" stroke="black" points="329,-40.5 329,-61.5 615,-61.5 615,-40.5 329,-40.5"/>
<text text-anchor="middle" x="472" y="-48.5" font-family="Helvetica,sans-Serif" font-size="10.00">ZendDbSchema_Db_Schema_Table_PrimaryKey\__construct</text>
</a>
</g>
<!-- Node1&#45;&gt;Node2 -->
<g id="edge2" class="edge"><title>Node1&#45;&gt;Node2</title>
<path fill="none" stroke="midnightblue" d="M302.332,-40.5909C311.222,-41.1363 320.138,-41.6833 328.975,-42.2254"/>
<polygon fill="midnightblue" stroke="midnightblue" points="302.508,-37.0952 292.312,-39.9762 302.079,-44.0821 302.508,-37.0952"/>
</g>
<!-- Node3 -->
<g id="node5" class="node"><title>Node3</title>
<a xlink:href="classZendDbSchema__Db__Schema__Table__AbstractDefinition.html#a41800b80353287bf0d9e32fdb72d0b04" target="_top" xlink:title="ZendDbSchema_Db_Schema_Table_AbstractDefinition\\delete">
<polygon fill="white" stroke="black" points="328,-0.5 328,-21.5 616,-21.5 616,-0.5 328,-0.5"/>
<text text-anchor="middle" x="472" y="-8.5" font-family="Helvetica,sans-Serif" font-size="10.00">ZendDbSchema_Db_Schema_Table_AbstractDefinition\delete</text>
</a>
</g>
<!-- Node1&#45;&gt;Node3 -->
<g id="edge4" class="edge"><title>Node1&#45;&gt;Node3</title>
<path fill="none" stroke="midnightblue" d="M302.332,-21.4091C310.882,-20.8845 319.456,-20.3585 327.961,-19.8368"/>
<polygon fill="midnightblue" stroke="midnightblue" points="302.079,-17.9179 292.312,-22.0238 302.508,-24.9048 302.079,-17.9179"/>
</g>
</g>
</svg>
