<?xml version="1.0" encoding="UTF-8" standalone="no"?>
<!DOCTYPE svg PUBLIC "-//W3C//DTD SVG 1.1//EN"
 "http://www.w3.org/Graphics/SVG/1.1/DTD/svg11.dtd">
<!-- Generated by graphviz version 2.26.3 (20100126.1600)
 -->
<!-- Title: G Pages: 1 -->
<svg width="944pt" height="316pt"
 viewBox="0.00 0.00 944.00 316.00" xmlns="http://www.w3.org/2000/svg" xmlns:xlink="http://www.w3.org/1999/xlink">
<g id="graph1" class="graph" transform="scale(1 1) rotate(0) translate(4 312)">
<title>G</title>
<polygon fill="white" stroke="white" points="-4,5 -4,-312 941,-312 941,5 -4,5"/>
<!-- Node1 -->
<g id="node1" class="node"><title>Node1</title>
<polygon fill="#bfbfbf" stroke="black" points="303.5,-101 303.5,-307 642.5,-307 642.5,-101 303.5,-101"/>
<text text-anchor="middle" x="473" y="-294" font-family="Helvetica,sans-Serif" font-size="10.00">ZendDbSchema_Db_Schema_Table_DefinitionManager_AbstractManager</text>
<polyline fill="none" stroke="black" points="303.5,-286 642.5,-286 "/>
<text text-anchor="start" x="311.5" y="-273" font-family="Helvetica,sans-Serif" font-size="10.00"># $_data</text>
<text text-anchor="start" x="311.5" y="-260" font-family="Helvetica,sans-Serif" font-size="10.00"># $_table</text>
<polyline fill="none" stroke="black" points="303.5,-252 642.5,-252 "/>
<text text-anchor="start" x="311.5" y="-239" font-family="Helvetica,sans-Serif" font-size="10.00">+ __construct()</text>
<text text-anchor="start" x="311.5" y="-226" font-family="Helvetica,sans-Serif" font-size="10.00">+ refresh()</text>
<text text-anchor="start" x="311.5" y="-213" font-family="Helvetica,sans-Serif" font-size="10.00">+ setFromArray()</text>
<text text-anchor="start" x="311.5" y="-200" font-family="Helvetica,sans-Serif" font-size="10.00">+ add()</text>
<text text-anchor="start" x="311.5" y="-187" font-family="Helvetica,sans-Serif" font-size="10.00">+ isDirty()</text>
<text text-anchor="start" x="311.5" y="-174" font-family="Helvetica,sans-Serif" font-size="10.00">+ toArray()</text>
<text text-anchor="start" x="311.5" y="-161" font-family="Helvetica,sans-Serif" font-size="10.00">+ getIterator()</text>
<text text-anchor="start" x="311.5" y="-148" font-family="Helvetica,sans-Serif" font-size="10.00">+ has()</text>
<text text-anchor="start" x="311.5" y="-135" font-family="Helvetica,sans-Serif" font-size="10.00">+ get()</text>
<text text-anchor="start" x="311.5" y="-122" font-family="Helvetica,sans-Serif" font-size="10.00">+ count()</text>
<text text-anchor="start" x="311.5" y="-109" font-family="Helvetica,sans-Serif" font-size="10.00"># _getItemClass()</text>
</g>
<!-- Node2 -->
<g id="node3" class="node"><title>Node2</title>
<a xlink:href="classZendDbSchema__Db__Schema__Table__DefinitionManager__Column.html" target="_top" xlink:title="{ZendDbSchema_Db_Schema_Table_DefinitionManager_Column\n||# _getItemClass()\l}">
<polygon fill="white" stroke="black" points="-0.5,-0.5 -0.5,-63.5 298.5,-63.5 298.5,-0.5 -0.5,-0.5"/>
<text text-anchor="middle" x="149" y="-50.5" font-family="Helvetica,sans-Serif" font-size="10.00">ZendDbSchema_Db_Schema_Table_DefinitionManager_Column</text>
<polyline fill="none" stroke="black" points="-0.5,-42.5 298.5,-42.5 "/>
<text text-anchor="middle" x="149" y="-29.5" font-family="Helvetica,sans-Serif" font-size="10.00"> </text>
<polyline fill="none" stroke="black" points="-0.5,-21.5 298.5,-21.5 "/>
<text text-anchor="start" x="7.5" y="-8.5" font-family="Helvetica,sans-Serif" font-size="10.00"># _getItemClass()</text>
</a>
</g>
<!-- Node1&#45;&gt;Node2 -->
<g id="edge2" class="edge"><title>Node1&#45;&gt;Node2</title>
<path fill="none" stroke="midnightblue" d="M294.221,-109.093C263.264,-92.6586 233.133,-76.6629 208.415,-63.5412"/>
<polygon fill="none" stroke="midnightblue" points="292.935,-112.373 303.409,-113.97 296.217,-106.19 292.935,-112.373"/>
</g>
<!-- Node3 -->
<g id="node5" class="node"><title>Node3</title>
<a xlink:href="classZendDbSchema__Db__Schema__Table__DefinitionManager__ForeignKey.html" target="_top" xlink:title="{ZendDbSchema_Db_Schema_Table_DefinitionManager_ForeignKey\n||# _getItemClass()\l}">
<polygon fill="white" stroke="black" points="316,-0.5 316,-63.5 630,-63.5 630,-0.5 316,-0.5"/>
<text text-anchor="middle" x="473" y="-50.5" font-family="Helvetica,sans-Serif" font-size="10.00">ZendDbSchema_Db_Schema_Table_DefinitionManager_ForeignKey</text>
<polyline fill="none" stroke="black" points="316,-42.5 630,-42.5 "/>
<text text-anchor="middle" x="473" y="-29.5" font-family="Helvetica,sans-Serif" font-size="10.00"> </text>
<polyline fill="none" stroke="black" points="316,-21.5 630,-21.5 "/>
<text text-anchor="start" x="324" y="-8.5" font-family="Helvetica,sans-Serif" font-size="10.00"># _getItemClass()</text>
</a>
</g>
<!-- Node1&#45;&gt;Node3 -->
<g id="edge4" class="edge"><title>Node1&#45;&gt;Node3</title>
<path fill="none" stroke="midnightblue" d="M473,-90.704C473,-81.0112 473,-71.8346 473,-63.7416"/>
<polygon fill="none" stroke="midnightblue" points="469.5,-90.9679 473,-100.968 476.5,-90.968 469.5,-90.9679"/>
</g>
<!-- Node4 -->
<g id="node7" class="node"><title>Node4</title>
<a xlink:href="classZendDbSchema__Db__Schema__Table__DefinitionManager__Index.html" target="_top" xlink:title="{ZendDbSchema_Db_Schema_Table_DefinitionManager_Index\n||# _getItemClass()\l}">
<polygon fill="white" stroke="black" points="647.5,-0.5 647.5,-63.5 936.5,-63.5 936.5,-0.5 647.5,-0.5"/>
<text text-anchor="middle" x="792" y="-50.5" font-family="Helvetica,sans-Serif" font-size="10.00">ZendDbSchema_Db_Schema_Table_DefinitionManager_Index</text>
<polyline fill="none" stroke="black" points="647.5,-42.5 936.5,-42.5 "/>
<text text-anchor="middle" x="792" y="-29.5" font-family="Helvetica,sans-Serif" font-size="10.00"> </text>
<polyline fill="none" stroke="black" points="647.5,-21.5 936.5,-21.5 "/>
<text text-anchor="start" x="655.5" y="-8.5" font-family="Helvetica,sans-Serif" font-size="10.00"># _getItemClass()</text>
</a>
</g>
<!-- Node1&#45;&gt;Node4 -->
<g id="edge6" class="edge"><title>Node1&#45;&gt;Node4</title>
<path fill="none" stroke="midnightblue" d="M651.919,-107.53C681.309,-91.683 709.806,-76.3179 733.338,-63.6296"/>
<polygon fill="none" stroke="midnightblue" points="649.915,-104.634 642.774,-112.46 653.237,-110.795 649.915,-104.634"/>
</g>
</g>
</svg>
