<?xml version="1.0" encoding="UTF-8" standalone="no"?>
<!DOCTYPE svg PUBLIC "-//W3C//DTD SVG 1.1//EN"
 "http://www.w3.org/Graphics/SVG/1.1/DTD/svg11.dtd">
<!-- Generated by graphviz version 2.26.3 (20100126.1600)
 -->
<!-- Title: G Pages: 1 -->
<svg width="582pt" height="110pt"
 viewBox="0.00 0.00 582.00 110.00" xmlns="http://www.w3.org/2000/svg" xmlns:xlink="http://www.w3.org/1999/xlink">
<g id="graph1" class="graph" transform="scale(1 1) rotate(0) translate(4 106)">
<title>G</title>
<polygon fill="white" stroke="white" points="-4,5 -4,-106 579,-106 579,5 -4,5"/>
<!-- Node1 -->
<g id="node1" class="node"><title>Node1</title>
<polygon fill="#bfbfbf" stroke="black" points="0,-40.5 0,-61.5 278,-61.5 278,-40.5 0,-40.5"/>
<text text-anchor="middle" x="139" y="-48.5" font-family="Helvetica,sans-Serif" font-size="10.00">ZendDbSchema_Tool_Project_Provider_Schema\_bootstrap</text>
</g>
<!-- Node2 -->
<g id="node3" class="node"><title>Node2</title>
<a xlink:href="classZendDbSchema__Tool__Project__Provider__Schema.html#a5f0f3101bb7b9e252f6d6bed1ddadbe5" target="_top" xlink:title="ZendDbSchema_Tool_Project_Provider_Schema\\pull">
<polygon fill="white" stroke="black" points="320,-80.5 320,-101.5 568,-101.5 568,-80.5 320,-80.5"/>
<text text-anchor="middle" x="444" y="-88.5" font-family="Helvetica,sans-Serif" font-size="10.00">ZendDbSchema_Tool_Project_Provider_Schema\pull</text>
</a>
</g>
<!-- Node1&#45;&gt;Node2 -->
<g id="edge2" class="edge"><title>Node1&#45;&gt;Node2</title>
<path fill="none" stroke="midnightblue" d="M229.247,-62.8357C271.957,-68.437 322.533,-75.0698 363.871,-80.4913"/>
<polygon fill="midnightblue" stroke="midnightblue" points="229.505,-59.3397 219.135,-61.5095 228.595,-66.2802 229.505,-59.3397"/>
</g>
<!-- Node3 -->
<g id="node5" class="node"><title>Node3</title>
<a xlink:href="classZendDbSchema__Tool__Project__Provider__Schema.html#aa7746bd0ed044ad415b1b7b884f7a007" target="_top" xlink:title="ZendDbSchema_Tool_Project_Provider_Schema\\push">
<polygon fill="white" stroke="black" points="317,-40.5 317,-61.5 571,-61.5 571,-40.5 317,-40.5"/>
<text text-anchor="middle" x="444" y="-48.5" font-family="Helvetica,sans-Serif" font-size="10.00">ZendDbSchema_Tool_Project_Provider_Schema\push</text>
</a>
</g>
<!-- Node1&#45;&gt;Node3 -->
<g id="edge4" class="edge"><title>Node1&#45;&gt;Node3</title>
<path fill="none" stroke="midnightblue" d="M288.398,-51C297.89,-51 307.398,-51 316.775,-51"/>
<polygon fill="midnightblue" stroke="midnightblue" points="288.112,-47.5001 278.112,-51 288.112,-54.5001 288.112,-47.5001"/>
</g>
<!-- Node4 -->
<g id="node7" class="node"><title>Node4</title>
<a xlink:href="classZendDbSchema__Tool__Project__Provider__Schema.html#a5741419511310dc38038399e9f4ac5e1" target="_top" xlink:title="ZendDbSchema_Tool_Project_Provider_Schema\\status">
<polygon fill="white" stroke="black" points="314,-0.5 314,-21.5 574,-21.5 574,-0.5 314,-0.5"/>
<text text-anchor="middle" x="444" y="-8.5" font-family="Helvetica,sans-Serif" font-size="10.00">ZendDbSchema_Tool_Project_Provider_Schema\status</text>
</a>
</g>
<!-- Node1&#45;&gt;Node4 -->
<g id="edge6" class="edge"><title>Node1&#45;&gt;Node4</title>
<path fill="none" stroke="midnightblue" d="M229.247,-39.1643C271.957,-33.563 322.533,-26.9302 363.871,-21.5087"/>
<polygon fill="midnightblue" stroke="midnightblue" points="228.595,-35.7198 219.135,-40.4905 229.505,-42.6603 228.595,-35.7198"/>
</g>
</g>
</svg>
