<?xml version="1.0" encoding="UTF-8" standalone="no"?>
<!DOCTYPE svg PUBLIC "-//W3C//DTD SVG 1.1//EN"
 "http://www.w3.org/Graphics/SVG/1.1/DTD/svg11.dtd">
<!-- Generated by graphviz version 2.26.3 (20100126.1600)
 -->
<!-- Title: G Pages: 1 -->
<svg width="364pt" height="42pt"
 viewBox="0.00 0.00 364.00 42.00" xmlns="http://www.w3.org/2000/svg" xmlns:xlink="http://www.w3.org/1999/xlink">
<g id="graph1" class="graph" transform="scale(1 1) rotate(0) translate(4 38)">
<title>G</title>
<polygon fill="white" stroke="white" points="-4,5 -4,-38 361,-38 361,5 -4,5"/>
<!-- Node1 -->
<g id="node1" class="node"><title>Node1</title>
<polygon fill="#bfbfbf" stroke="black" points="0.5,-0 0.5,-34 171.5,-34 171.5,-0 0.5,-0"/>
<text text-anchor="start" x="8.5" y="-21" font-family="Helvetica,sans-Serif" font-size="10.00">ZendDbSchema_Tool_Project</text>
<text text-anchor="middle" x="86" y="-8" font-family="Helvetica,sans-Serif" font-size="10.00">_Provider_Schema\createResource</text>
</g>
<!-- Node2 -->
<g id="node3" class="node"><title>Node2</title>
<a xlink:href="classZendDbSchema__Tool__Project__Provider__Schema.html#a4bab978eff99970636ddf863266e9d96" target="_top" xlink:title="ZendDbSchema_Tool_Project\l_Provider_Schema\\_findfile">
<polygon fill="white" stroke="black" points="208.5,-0 208.5,-34 355.5,-34 355.5,-0 208.5,-0"/>
<text text-anchor="start" x="216.5" y="-21" font-family="Helvetica,sans-Serif" font-size="10.00">ZendDbSchema_Tool_Project</text>
<text text-anchor="middle" x="282" y="-8" font-family="Helvetica,sans-Serif" font-size="10.00">_Provider_Schema\_findfile</text>
</a>
</g>
<!-- Node1&#45;&gt;Node2 -->
<g id="edge2" class="edge"><title>Node1&#45;&gt;Node2</title>
<path fill="none" stroke="midnightblue" d="M171.683,-17C180.494,-17 189.439,-17 198.229,-17"/>
<polygon fill="midnightblue" stroke="midnightblue" points="198.458,-20.5001 208.458,-17 198.458,-13.5001 198.458,-20.5001"/>
</g>
</g>
</svg>
