<?xml version="1.0" encoding="UTF-8" standalone="no"?>
<!DOCTYPE svg PUBLIC "-//W3C//DTD SVG 1.1//EN"
 "http://www.w3.org/Graphics/SVG/1.1/DTD/svg11.dtd">
<!-- Generated by graphviz version 2.26.3 (20100126.1600)
 -->
<!-- Title: G Pages: 1 -->
<svg width="1078pt" height="115pt"
 viewBox="0.00 0.00 1078.00 115.35" xmlns="http://www.w3.org/2000/svg" xmlns:xlink="http://www.w3.org/1999/xlink">
<g id="graph1" class="graph" transform="scale(1 1) rotate(0) translate(4 111.346)">
<title>G</title>
<polygon fill="white" stroke="white" points="-4,5 -4,-111.346 1075,-111.346 1075,5 -4,5"/>
<!-- Node1 -->
<g id="node1" class="node"><title>Node1</title>
<polygon fill="#bfbfbf" stroke="black" points="0,-59.5 0,-80.5 206,-80.5 206,-59.5 0,-59.5"/>
<text text-anchor="middle" x="103" y="-67.5" font-family="Helvetica,sans-Serif" font-size="10.00">ZendDbSchema_Db_Migration_Manager\up</text>
</g>
<!-- Node2 -->
<g id="node3" class="node"><title>Node2</title>
<a xlink:href="classZendDbSchema__Db__Migration__Manager.html#a3f8150b5e2fc90623a10c7890af80185" target="_top" xlink:title="ZendDbSchema_Db_Migration_Manager\\compareVersion">
<polygon fill="white" stroke="black" points="242,-79.5 242,-100.5 508,-100.5 508,-79.5 242,-79.5"/>
<text text-anchor="middle" x="375" y="-87.5" font-family="Helvetica,sans-Serif" font-size="10.00">ZendDbSchema_Db_Migration_Manager\compareVersion</text>
</a>
</g>
<!-- Node1&#45;&gt;Node2 -->
<g id="edge2" class="edge"><title>Node1&#45;&gt;Node2</title>
<path fill="none" stroke="midnightblue" d="M206.219,-77.5897C214.537,-78.2012 223.028,-78.8256 231.559,-79.4528"/>
<polygon fill="midnightblue" stroke="midnightblue" points="231.353,-82.9471 241.583,-80.1899 231.866,-75.9659 231.353,-82.9471"/>
</g>
<!-- Node6 -->
<g id="node13" class="node"><title>Node6</title>
<a xlink:href="classZendDbSchema__Db__Migration__Manager.html#afbaee9196407b68350626e8601a44a9a" target="_top" xlink:title="ZendDbSchema_Db_Migration_Manager\\rollup">
<polygon fill="white" stroke="black" points="265.5,-39.5 265.5,-60.5 484.5,-60.5 484.5,-39.5 265.5,-39.5"/>
<text text-anchor="middle" x="375" y="-47.5" font-family="Helvetica,sans-Serif" font-size="10.00">ZendDbSchema_Db_Migration_Manager\rollup</text>
</a>
</g>
<!-- Node1&#45;&gt;Node6 -->
<g id="edge14" class="edge"><title>Node1&#45;&gt;Node6</title>
<path fill="none" stroke="midnightblue" d="M206.219,-62.4103C222.15,-61.239 238.718,-60.0207 254.978,-58.8252"/>
<polygon fill="midnightblue" stroke="midnightblue" points="255.337,-62.3083 265.053,-58.0843 254.823,-55.3271 255.337,-62.3083"/>
</g>
<!-- Node3 -->
<g id="node5" class="node"><title>Node3</title>
<a xlink:href="classZendDbSchema__Db__Migration__Manager.html#a9973d07f9ffe306e00ea2f9f4beb92e4" target="_top" xlink:title="ZendDbSchema_Db_Migration_Manager\\hasChange">
<polygon fill="white" stroke="black" points="824.5,-40.5 824.5,-61.5 1069.5,-61.5 1069.5,-40.5 824.5,-40.5"/>
<text text-anchor="middle" x="947" y="-48.5" font-family="Helvetica,sans-Serif" font-size="10.00">ZendDbSchema_Db_Migration_Manager\hasChange</text>
</a>
</g>
<!-- Node2&#45;&gt;Node3 -->
<g id="edge4" class="edge"><title>Node2&#45;&gt;Node3</title>
<path fill="none" stroke="midnightblue" d="M508.163,-86.5489C589.173,-83.7847 694.673,-79.0037 788,-71 812.376,-68.9095 838.767,-65.8953 862.912,-62.8386"/>
<polygon fill="midnightblue" stroke="midnightblue" points="863.638,-66.2742 873.11,-61.5286 862.746,-59.3313 863.638,-66.2742"/>
</g>
<!-- Node4 -->
<g id="node7" class="node"><title>Node4</title>
<a xlink:href="classZendDbSchema__Db__Migration__Manager.html#a3d4f62489e72876f97bec3cd4448979d" target="_top" xlink:title="ZendDbSchema_Db_Migration_Manager\\getChange">
<polygon fill="white" stroke="black" points="544.5,-40.5 544.5,-61.5 787.5,-61.5 787.5,-40.5 544.5,-40.5"/>
<text text-anchor="middle" x="666" y="-48.5" font-family="Helvetica,sans-Serif" font-size="10.00">ZendDbSchema_Db_Migration_Manager\getChange</text>
</a>
</g>
<!-- Node2&#45;&gt;Node4 -->
<g id="edge6" class="edge"><title>Node2&#45;&gt;Node4</title>
<path fill="none" stroke="midnightblue" d="M453.365,-79.4974C491.697,-74.3602 537.99,-68.1559 577.582,-62.8498"/>
<polygon fill="midnightblue" stroke="midnightblue" points="578.048,-66.3187 587.495,-61.5213 577.118,-59.3808 578.048,-66.3187"/>
</g>
<!-- Node5 -->
<g id="node9" class="node"><title>Node5</title>
<a xlink:href="classZendDbSchema__Db__Migration__Manager.html#ab66af8a9dc5cdb099b8266b68166c4e0" target="_top" xlink:title="ZendDbSchema_Db_Migration_Manager\\getVersion">
<polygon fill="white" stroke="black" points="826,-80.5 826,-101.5 1068,-101.5 1068,-80.5 826,-80.5"/>
<text text-anchor="middle" x="947" y="-88.5" font-family="Helvetica,sans-Serif" font-size="10.00">ZendDbSchema_Db_Migration_Manager\getVersion</text>
</a>
</g>
<!-- Node2&#45;&gt;Node5 -->
<g id="edge12" class="edge"><title>Node2&#45;&gt;Node5</title>
<path fill="none" stroke="midnightblue" d="M486.279,-100.533C505.511,-101.977 525.321,-103.228 544,-104 652.352,-108.48 679.646,-108.422 788,-104 799.023,-103.55 810.465,-102.926 821.929,-102.191"/>
<polygon fill="midnightblue" stroke="midnightblue" points="822.254,-105.678 831.998,-101.52 821.788,-98.6932 822.254,-105.678"/>
</g>
<!-- Node4&#45;&gt;Node3 -->
<g id="edge10" class="edge"><title>Node4&#45;&gt;Node3</title>
<path fill="none" stroke="midnightblue" d="M787.616,-51C796.453,-51 805.392,-51 814.289,-51"/>
<polygon fill="midnightblue" stroke="midnightblue" points="814.308,-54.5001 824.308,-51 814.308,-47.5001 814.308,-54.5001"/>
</g>
<!-- Node4&#45;&gt;Node5 -->
<g id="edge8" class="edge"><title>Node4&#45;&gt;Node5</title>
<path fill="none" stroke="midnightblue" d="M739.829,-61.5095C777.595,-66.8854 823.726,-73.4521 862.863,-79.0232"/>
<polygon fill="midnightblue" stroke="midnightblue" points="862.783,-82.547 873.176,-80.4913 863.769,-75.6169 862.783,-82.547"/>
</g>
<!-- Node6&#45;&gt;Node4 -->
<g id="edge24" class="edge"><title>Node6&#45;&gt;Node4</title>
<path fill="none" stroke="midnightblue" d="M484.6,-50.3766C500.744,-50.4321 517.517,-50.4897 534.054,-50.5466"/>
<polygon fill="midnightblue" stroke="midnightblue" points="534.301,-54.0473 544.313,-50.5818 534.325,-47.0474 534.301,-54.0473"/>
</g>
<!-- Node7 -->
<g id="node15" class="node"><title>Node7</title>
<a xlink:href="classZendDbSchema__Db__Migration__Manager.html#acb171835d37a1596a4ac6db273bf07ae" target="_top" xlink:title="ZendDbSchema_Db_Migration_Manager\\getNext">
<polygon fill="white" stroke="black" points="551,-0.5 551,-21.5 781,-21.5 781,-0.5 551,-0.5"/>
<text text-anchor="middle" x="666" y="-8.5" font-family="Helvetica,sans-Serif" font-size="10.00">ZendDbSchema_Db_Migration_Manager\getNext</text>
</a>
</g>
<!-- Node6&#45;&gt;Node7 -->
<g id="edge16" class="edge"><title>Node6&#45;&gt;Node7</title>
<path fill="none" stroke="midnightblue" d="M453.365,-39.4974C491.697,-34.3602 537.99,-28.1559 577.582,-22.8498"/>
<polygon fill="midnightblue" stroke="midnightblue" points="578.048,-26.3187 587.495,-21.5213 577.118,-19.3808 578.048,-26.3187"/>
</g>
<!-- Node7&#45;&gt;Node3 -->
<g id="edge20" class="edge"><title>Node7&#45;&gt;Node3</title>
<path fill="none" stroke="midnightblue" d="M739.829,-21.5095C777.595,-26.8854 823.726,-33.4521 862.863,-39.0232"/>
<polygon fill="midnightblue" stroke="midnightblue" points="862.783,-42.547 873.176,-40.4913 863.769,-35.6169 862.783,-42.547"/>
</g>
<!-- Node7&#45;&gt;Node5 -->
<g id="edge18" class="edge"><title>Node7&#45;&gt;Node5</title>
<path fill="none" stroke="midnightblue" d="M765.792,-21.5049C773.529,-24.0653 781.032,-27.191 788,-31 808.987,-42.4716 803.006,-59.542 824,-71 828.007,-73.187 832.19,-75.1494 836.491,-76.9093"/>
<polygon fill="midnightblue" stroke="midnightblue" points="835.482,-80.2678 846.076,-80.4472 837.906,-73.7009 835.482,-80.2678"/>
</g>
<!-- Node8 -->
<g id="node19" class="node"><title>Node8</title>
<a xlink:href="classZendDbSchema__Db__Migration__Manager.html#a09b440110f77079a37794ccdb0922d41" target="_top" xlink:title="ZendDbSchema_Db_Migration_Manager\\getIterator">
<polygon fill="white" stroke="black" points="827,-0.5 827,-21.5 1067,-21.5 1067,-0.5 827,-0.5"/>
<text text-anchor="middle" x="947" y="-8.5" font-family="Helvetica,sans-Serif" font-size="10.00">ZendDbSchema_Db_Migration_Manager\getIterator</text>
</a>
</g>
<!-- Node7&#45;&gt;Node8 -->
<g id="edge22" class="edge"><title>Node7&#45;&gt;Node8</title>
<path fill="none" stroke="midnightblue" d="M781.104,-11C792.71,-11 804.554,-11 816.307,-11"/>
<polygon fill="midnightblue" stroke="midnightblue" points="816.603,-14.5001 826.603,-11 816.603,-7.5001 816.603,-14.5001"/>
</g>
</g>
</svg>
