<?xml version="1.0" encoding="UTF-8" standalone="no"?>
<!DOCTYPE svg PUBLIC "-//W3C//DTD SVG 1.1//EN"
 "http://www.w3.org/Graphics/SVG/1.1/DTD/svg11.dtd">
<!-- Generated by graphviz version 2.26.3 (20100126.1600)
 -->
<!-- Title: G Pages: 1 -->
<svg width="716pt" height="64pt"
 viewBox="0.00 0.00 716.00 64.00" xmlns="http://www.w3.org/2000/svg" xmlns:xlink="http://www.w3.org/1999/xlink">
<g id="graph1" class="graph" transform="scale(1 1) rotate(0) translate(4 60)">
<title>G</title>
<polygon fill="white" stroke="white" points="-4,5 -4,-60 713,-60 713,5 -4,5"/>
<!-- Node1 -->
<g id="node1" class="node"><title>Node1</title>
<polygon fill="#bfbfbf" stroke="black" points="0,-22 0,-56 150,-56 150,-22 0,-22"/>
<text text-anchor="start" x="8" y="-43" font-family="Helvetica,sans-Serif" font-size="10.00">ZendDbSchema_Db_Migration</text>
<text text-anchor="middle" x="75" y="-30" font-family="Helvetica,sans-Serif" font-size="10.00">_Skeleton\getFile</text>
</g>
<!-- Node2 -->
<g id="node3" class="node"><title>Node2</title>
<a xlink:href="classZendDbSchema__Db__Migration__Skeleton.html#a9d8f00f78a02bdc4e028a210c2797c62" target="_top" xlink:title="ZendDbSchema_Db_Migration\l_Skeleton\\getClass">
<polygon fill="white" stroke="black" points="558,-22 558,-56 708,-56 708,-22 558,-22"/>
<text text-anchor="start" x="566" y="-43" font-family="Helvetica,sans-Serif" font-size="10.00">ZendDbSchema_Db_Migration</text>
<text text-anchor="middle" x="633" y="-30" font-family="Helvetica,sans-Serif" font-size="10.00">_Skeleton\getClass</text>
</a>
</g>
<!-- Node1&#45;&gt;Node2 -->
<g id="edge2" class="edge"><title>Node1&#45;&gt;Node2</title>
<path fill="none" stroke="midnightblue" d="M150.223,-42.0774C162.189,-42.4612 174.432,-42.7916 186,-43 335.309,-45.6894 372.691,-45.6894 522,-43 530.315,-42.8502 538.978,-42.6374 547.636,-42.387"/>
<polygon fill="midnightblue" stroke="midnightblue" points="547.889,-45.8811 557.777,-42.0774 547.675,-38.8843 547.889,-45.8811"/>
</g>
<!-- Node3 -->
<g id="node5" class="node"><title>Node3</title>
<a xlink:href="classZendDbSchema__Db__Migration__Skeleton.html#afb677840482d948597ec10dc0fd37aab" target="_top" xlink:title="ZendDbSchema_Db_Migration\l_Skeleton\\getVersion">
<polygon fill="white" stroke="black" points="186,-0 186,-34 336,-34 336,-0 186,-0"/>
<text text-anchor="start" x="194" y="-21" font-family="Helvetica,sans-Serif" font-size="10.00">ZendDbSchema_Db_Migration</text>
<text text-anchor="middle" x="261" y="-8" font-family="Helvetica,sans-Serif" font-size="10.00">_Skeleton\getVersion</text>
</a>
</g>
<!-- Node1&#45;&gt;Node3 -->
<g id="edge4" class="edge"><title>Node1&#45;&gt;Node3</title>
<path fill="none" stroke="midnightblue" d="M150.117,-30.1152C158.596,-29.1123 167.281,-28.0851 175.875,-27.0686"/>
<polygon fill="midnightblue" stroke="midnightblue" points="176.385,-30.5327 185.905,-25.8822 175.563,-23.5812 176.385,-30.5327"/>
</g>
<!-- Node4 -->
<g id="node7" class="node"><title>Node4</title>
<a xlink:href="classZendDbSchema__Db__Migration__Skeleton.html#a7613e2ec6a61b621fd7897a29934269d" target="_top" xlink:title="ZendDbSchema_Db_Migration\l_Skeleton\\setVersion">
<polygon fill="white" stroke="black" points="372,-0 372,-34 522,-34 522,-0 372,-0"/>
<text text-anchor="start" x="380" y="-21" font-family="Helvetica,sans-Serif" font-size="10.00">ZendDbSchema_Db_Migration</text>
<text text-anchor="middle" x="447" y="-8" font-family="Helvetica,sans-Serif" font-size="10.00">_Skeleton\setVersion</text>
</a>
</g>
<!-- Node3&#45;&gt;Node4 -->
<g id="edge6" class="edge"><title>Node3&#45;&gt;Node4</title>
<path fill="none" stroke="midnightblue" d="M336.117,-17C344.596,-17 353.281,-17 361.875,-17"/>
<polygon fill="midnightblue" stroke="midnightblue" points="361.905,-20.5001 371.905,-17 361.905,-13.5001 361.905,-20.5001"/>
</g>
<!-- Node4&#45;&gt;Node2 -->
<g id="edge8" class="edge"><title>Node4&#45;&gt;Node2</title>
<path fill="none" stroke="midnightblue" d="M522.117,-25.8848C530.596,-26.8877 539.281,-27.9149 547.875,-28.9314"/>
<polygon fill="midnightblue" stroke="midnightblue" points="547.563,-32.4188 557.905,-30.1178 548.385,-25.4673 547.563,-32.4188"/>
</g>
</g>
</svg>
