<?xml version="1.0" encoding="UTF-8" standalone="no"?>
<!DOCTYPE svg PUBLIC "-//W3C//DTD SVG 1.1//EN"
 "http://www.w3.org/Graphics/SVG/1.1/DTD/svg11.dtd">
<!-- Generated by graphviz version 2.26.3 (20100126.1600)
 -->
<!-- Title: G Pages: 1 -->
<svg width="1564pt" height="70pt"
 viewBox="0.00 0.00 1564.00 70.00" xmlns="http://www.w3.org/2000/svg" xmlns:xlink="http://www.w3.org/1999/xlink">
<g id="graph1" class="graph" transform="scale(1 1) rotate(0) translate(4 66)">
<title>G</title>
<polygon fill="white" stroke="white" points="-4,5 -4,-66 1561,-66 1561,5 -4,5"/>
<!-- Node1 -->
<g id="node1" class="node"><title>Node1</title>
<polygon fill="#bfbfbf" stroke="black" points="0.5,-20.5 0.5,-41.5 299.5,-41.5 299.5,-20.5 0.5,-20.5"/>
<text text-anchor="middle" x="150" y="-28.5" font-family="Helvetica,sans-Serif" font-size="10.00">ZendDbSchema_Db_Schema_Generator_Mysql\alterPrimaryKey</text>
</g>
<!-- Node2 -->
<g id="node3" class="node"><title>Node2</title>
<a xlink:href="classZendDbSchema__Db__Schema__Generator__Mysql.html#acc787f589296a3638f713b91456acafb" target="_top" xlink:title="ZendDbSchema_Db_Schema_Generator_Mysql\\dropPrimaryKey">
<polygon fill="white" stroke="black" points="336.5,-40.5 336.5,-61.5 635.5,-61.5 635.5,-40.5 336.5,-40.5"/>
<text text-anchor="middle" x="486" y="-48.5" font-family="Helvetica,sans-Serif" font-size="10.00">ZendDbSchema_Db_Schema_Generator_Mysql\dropPrimaryKey</text>
</a>
</g>
<!-- Node1&#45;&gt;Node2 -->
<g id="edge2" class="edge"><title>Node1&#45;&gt;Node2</title>
<path fill="none" stroke="midnightblue" d="M299.821,-39.9179C308.658,-40.4439 317.562,-40.9739 326.436,-41.5021"/>
<polygon fill="midnightblue" stroke="midnightblue" points="326.245,-44.9969 336.435,-42.0973 326.661,-38.0092 326.245,-44.9969"/>
</g>
<!-- Node4 -->
<g id="node7" class="node"><title>Node4</title>
<a xlink:href="classZendDbSchema__Db__Schema__Generator__Mysql.html#ad1d5ebbad469fcd572d46f08f9f0e5ab" target="_top" xlink:title="ZendDbSchema_Db_Schema_Generator_Mysql\\addPrimaryKey">
<polygon fill="white" stroke="black" points="338,-0.5 338,-21.5 634,-21.5 634,-0.5 338,-0.5"/>
<text text-anchor="middle" x="486" y="-8.5" font-family="Helvetica,sans-Serif" font-size="10.00">ZendDbSchema_Db_Schema_Generator_Mysql\addPrimaryKey</text>
</a>
</g>
<!-- Node1&#45;&gt;Node4 -->
<g id="edge6" class="edge"><title>Node1&#45;&gt;Node4</title>
<path fill="none" stroke="midnightblue" d="M299.821,-22.0821C309.074,-21.5313 318.401,-20.9761 327.689,-20.4233"/>
<polygon fill="midnightblue" stroke="midnightblue" points="327.972,-23.9127 337.747,-19.8246 327.556,-16.9251 327.972,-23.9127"/>
</g>
<!-- Node3 -->
<g id="node5" class="node"><title>Node3</title>
<a xlink:href="classZendDbSchema__Db__Schema__Table__AbstractDefinition.html#a224b6a0c1df1d6ed40e03657782ef6fc" target="_top" xlink:title="ZendDbSchema_Db_Schema_Table_AbstractDefinition\\getTable">
<polygon fill="white" stroke="black" points="672.5,-40.5 672.5,-61.5 971.5,-61.5 971.5,-40.5 672.5,-40.5"/>
<text text-anchor="middle" x="822" y="-48.5" font-family="Helvetica,sans-Serif" font-size="10.00">ZendDbSchema_Db_Schema_Table_AbstractDefinition\getTable</text>
</a>
</g>
<!-- Node2&#45;&gt;Node3 -->
<g id="edge4" class="edge"><title>Node2&#45;&gt;Node3</title>
<path fill="none" stroke="midnightblue" d="M635.821,-51C644.563,-51 653.371,-51 662.149,-51"/>
<polygon fill="midnightblue" stroke="midnightblue" points="662.435,-54.5001 672.435,-51 662.435,-47.5001 662.435,-54.5001"/>
</g>
<!-- Node4&#45;&gt;Node3 -->
<g id="edge14" class="edge"><title>Node4&#45;&gt;Node3</title>
<path fill="none" stroke="midnightblue" d="M574.28,-21.5095C620.206,-26.9769 676.478,-33.676 723.777,-39.3068"/>
<polygon fill="midnightblue" stroke="midnightblue" points="723.383,-42.7845 733.727,-40.4913 724.211,-35.8336 723.383,-42.7845"/>
</g>
<!-- Node5 -->
<g id="node9" class="node"><title>Node5</title>
<a xlink:href="classZendDbSchema__Db__Schema__Table__PrimaryKey.html#a228207d6e07e3ab95b8b25415077a6a1" target="_top" xlink:title="ZendDbSchema_Db_Schema_Table_PrimaryKey\\getColumns">
<polygon fill="white" stroke="black" points="678.5,-0.5 678.5,-21.5 965.5,-21.5 965.5,-0.5 678.5,-0.5"/>
<text text-anchor="middle" x="822" y="-8.5" font-family="Helvetica,sans-Serif" font-size="10.00">ZendDbSchema_Db_Schema_Table_PrimaryKey\getColumns</text>
</a>
</g>
<!-- Node4&#45;&gt;Node5 -->
<g id="edge8" class="edge"><title>Node4&#45;&gt;Node5</title>
<path fill="none" stroke="midnightblue" d="M634.353,-11C645.524,-11 656.813,-11 668.018,-11"/>
<polygon fill="midnightblue" stroke="midnightblue" points="668.28,-14.5001 678.28,-11 668.28,-7.5001 668.28,-14.5001"/>
</g>
<!-- Node6 -->
<g id="node11" class="node"><title>Node6</title>
<a xlink:href="classZendDbSchema__Db__Schema__AbstractSchema.html#a54d32c6f15463eaad2321a9f0e7225d7" target="_top" xlink:title="ZendDbSchema_Db_Schema_AbstractSchema\\__get">
<polygon fill="white" stroke="black" points="1008.5,-0.5 1008.5,-21.5 1259.5,-21.5 1259.5,-0.5 1008.5,-0.5"/>
<text text-anchor="middle" x="1134" y="-8.5" font-family="Helvetica,sans-Serif" font-size="10.00">ZendDbSchema_Db_Schema_AbstractSchema\__get</text>
</a>
</g>
<!-- Node5&#45;&gt;Node6 -->
<g id="edge10" class="edge"><title>Node5&#45;&gt;Node6</title>
<path fill="none" stroke="midnightblue" d="M965.672,-11C976.458,-11 987.324,-11 998.061,-11"/>
<polygon fill="midnightblue" stroke="midnightblue" points="998.309,-14.5001 1008.31,-11 998.309,-7.5001 998.309,-14.5001"/>
</g>
<!-- Node7 -->
<g id="node13" class="node"><title>Node7</title>
<a xlink:href="classZendDbSchema__Db__Schema__AbstractSchema.html#ac4e121ba7932163eb1950fabe06fb9db" target="_top" xlink:title="ZendDbSchema_Db_Schema_AbstractSchema\\__isset">
<polygon fill="white" stroke="black" points="1296.5,-0.5 1296.5,-21.5 1555.5,-21.5 1555.5,-0.5 1296.5,-0.5"/>
<text text-anchor="middle" x="1426" y="-8.5" font-family="Helvetica,sans-Serif" font-size="10.00">ZendDbSchema_Db_Schema_AbstractSchema\__isset</text>
</a>
</g>
<!-- Node6&#45;&gt;Node7 -->
<g id="edge12" class="edge"><title>Node6&#45;&gt;Node7</title>
<path fill="none" stroke="midnightblue" d="M1259.53,-11C1268.4,-11 1277.38,-11 1286.32,-11"/>
<polygon fill="midnightblue" stroke="midnightblue" points="1286.4,-14.5001 1296.4,-11 1286.4,-7.5001 1286.4,-14.5001"/>
</g>
</g>
</svg>
