<?xml version="1.0" encoding="UTF-8" standalone="no"?>
<!DOCTYPE svg PUBLIC "-//W3C//DTD SVG 1.1//EN"
 "http://www.w3.org/Graphics/SVG/1.1/DTD/svg11.dtd">
<!-- Generated by graphviz version 2.26.3 (20100126.1600)
 -->
<!-- Title: G Pages: 1 -->
<svg width="892pt" height="190pt"
 viewBox="0.00 0.00 892.00 190.00" xmlns="http://www.w3.org/2000/svg" xmlns:xlink="http://www.w3.org/1999/xlink">
<g id="graph1" class="graph" transform="scale(1 1) rotate(0) translate(4 186)">
<title>G</title>
<polygon fill="white" stroke="white" points="-4,5 -4,-186 889,-186 889,5 -4,5"/>
<!-- Node1 -->
<g id="node1" class="node"><title>Node1</title>
<polygon fill="#bfbfbf" stroke="black" points="0,-103 0,-137 146,-137 146,-103 0,-103"/>
<text text-anchor="start" x="8" y="-124" font-family="Helvetica,sans-Serif" font-size="10.00">ZendDbSchema_Db_Schema</text>
<text text-anchor="middle" x="73" y="-111" font-family="Helvetica,sans-Serif" font-size="10.00">_Table_Index\removeColumn</text>
</g>
<!-- Node2 -->
<g id="node3" class="node"><title>Node2</title>
<a xlink:href="classZendDbSchema__Db__Schema__Table__Index.html#af7c29da0f52c5270ffa3587a95295f82" target="_top" xlink:title="ZendDbSchema_Db_Schema\l_Table_Index\\hasColumn">
<polygon fill="white" stroke="black" points="182,-148 182,-182 328,-182 328,-148 182,-148"/>
<text text-anchor="start" x="190" y="-169" font-family="Helvetica,sans-Serif" font-size="10.00">ZendDbSchema_Db_Schema</text>
<text text-anchor="middle" x="255" y="-156" font-family="Helvetica,sans-Serif" font-size="10.00">_Table_Index\hasColumn</text>
</a>
</g>
<!-- Node1&#45;&gt;Node2 -->
<g id="edge2" class="edge"><title>Node1&#45;&gt;Node2</title>
<path fill="none" stroke="midnightblue" d="M141.806,-137.013C153.018,-139.785 164.708,-142.675 176.137,-145.501"/>
<polygon fill="midnightblue" stroke="midnightblue" points="175.549,-148.961 186.096,-147.963 177.229,-142.165 175.549,-148.961"/>
</g>
<!-- Node3 -->
<g id="node5" class="node"><title>Node3</title>
<a xlink:href="classZendDbSchema__Db__Schema__Table__Index.html#ad0edf2869c08ce408566798f4305b8dc" target="_top" xlink:title="ZendDbSchema_Db_Schema\l_Table_Index\\getColumns">
<polygon fill="white" stroke="black" points="369,-140 369,-174 515,-174 515,-140 369,-140"/>
<text text-anchor="start" x="377" y="-161" font-family="Helvetica,sans-Serif" font-size="10.00">ZendDbSchema_Db_Schema</text>
<text text-anchor="middle" x="442" y="-148" font-family="Helvetica,sans-Serif" font-size="10.00">_Table_Index\getColumns</text>
</a>
</g>
<!-- Node1&#45;&gt;Node3 -->
<g id="edge10" class="edge"><title>Node1&#45;&gt;Node3</title>
<path fill="none" stroke="midnightblue" d="M146.247,-123.856C197.297,-126.935 266.924,-131.915 328,-139 338.03,-140.164 348.529,-141.567 358.924,-143.07"/>
<polygon fill="midnightblue" stroke="midnightblue" points="358.434,-146.535 368.839,-144.537 359.459,-139.611 358.434,-146.535"/>
</g>
<!-- Node6 -->
<g id="node12" class="node"><title>Node6</title>
<a xlink:href="classZendDbSchema__Db__Schema__Table__Index.html#a77b65e961a7da9ca89fdebd682338fcf" target="_top" xlink:title="ZendDbSchema_Db_Schema\l_Table_Index\\setColumns">
<polygon fill="white" stroke="black" points="182,-58 182,-92 328,-92 328,-58 182,-58"/>
<text text-anchor="start" x="190" y="-79" font-family="Helvetica,sans-Serif" font-size="10.00">ZendDbSchema_Db_Schema</text>
<text text-anchor="middle" x="255" y="-66" font-family="Helvetica,sans-Serif" font-size="10.00">_Table_Index\setColumns</text>
</a>
</g>
<!-- Node1&#45;&gt;Node6 -->
<g id="edge12" class="edge"><title>Node1&#45;&gt;Node6</title>
<path fill="none" stroke="midnightblue" d="M141.806,-102.987C153.018,-100.215 164.708,-97.325 176.137,-94.499"/>
<polygon fill="midnightblue" stroke="midnightblue" points="177.229,-97.8346 186.096,-92.0366 175.549,-91.0393 177.229,-97.8346"/>
</g>
<!-- Node2&#45;&gt;Node3 -->
<g id="edge4" class="edge"><title>Node2&#45;&gt;Node3</title>
<path fill="none" stroke="midnightblue" d="M328.103,-161.873C338.167,-161.442 348.563,-160.997 358.793,-160.56"/>
<polygon fill="midnightblue" stroke="midnightblue" points="359.107,-164.05 368.948,-160.125 358.808,-157.056 359.107,-164.05"/>
</g>
<!-- Node4 -->
<g id="node7" class="node"><title>Node4</title>
<a xlink:href="classZendDbSchema__Db__Schema__AbstractSchema.html#a54d32c6f15463eaad2321a9f0e7225d7" target="_top" xlink:title="ZendDbSchema_Db_Schema\l_AbstractSchema\\__get">
<polygon fill="white" stroke="black" points="556,-140 556,-174 702,-174 702,-140 556,-140"/>
<text text-anchor="start" x="564" y="-161" font-family="Helvetica,sans-Serif" font-size="10.00">ZendDbSchema_Db_Schema</text>
<text text-anchor="middle" x="629" y="-148" font-family="Helvetica,sans-Serif" font-size="10.00">_AbstractSchema\__get</text>
</a>
</g>
<!-- Node3&#45;&gt;Node4 -->
<g id="edge6" class="edge"><title>Node3&#45;&gt;Node4</title>
<path fill="none" stroke="midnightblue" d="M515.103,-157C525.167,-157 535.563,-157 545.793,-157"/>
<polygon fill="midnightblue" stroke="midnightblue" points="545.948,-160.5 555.948,-157 545.948,-153.5 545.948,-160.5"/>
</g>
<!-- Node5 -->
<g id="node9" class="node"><title>Node5</title>
<a xlink:href="classZendDbSchema__Db__Schema__AbstractSchema.html#ac4e121ba7932163eb1950fabe06fb9db" target="_top" xlink:title="ZendDbSchema_Db_Schema\l_AbstractSchema\\__isset">
<polygon fill="white" stroke="black" points="738,-140 738,-174 884,-174 884,-140 738,-140"/>
<text text-anchor="start" x="746" y="-161" font-family="Helvetica,sans-Serif" font-size="10.00">ZendDbSchema_Db_Schema</text>
<text text-anchor="middle" x="811" y="-148" font-family="Helvetica,sans-Serif" font-size="10.00">_AbstractSchema\__isset</text>
</a>
</g>
<!-- Node4&#45;&gt;Node5 -->
<g id="edge8" class="edge"><title>Node4&#45;&gt;Node5</title>
<path fill="none" stroke="midnightblue" d="M702.24,-157C710.596,-157 719.161,-157 727.636,-157"/>
<polygon fill="midnightblue" stroke="midnightblue" points="727.91,-160.5 737.91,-157 727.91,-153.5 727.91,-160.5"/>
</g>
<!-- Node7 -->
<g id="node14" class="node"><title>Node7</title>
<a xlink:href="classZendDbSchema__Db__Schema__Table__AbstractDefinition.html#a65498451683b2cf8fd1dc65f7f03581d" target="_top" xlink:title="ZendDbSchema_Db_Schema\l_Table_AbstractDefinition\\__set">
<polygon fill="white" stroke="black" points="364,-58 364,-92 520,-92 520,-58 364,-58"/>
<text text-anchor="start" x="372" y="-79" font-family="Helvetica,sans-Serif" font-size="10.00">ZendDbSchema_Db_Schema</text>
<text text-anchor="middle" x="442" y="-66" font-family="Helvetica,sans-Serif" font-size="10.00">_Table_AbstractDefinition\__set</text>
</a>
</g>
<!-- Node6&#45;&gt;Node7 -->
<g id="edge14" class="edge"><title>Node6&#45;&gt;Node7</title>
<path fill="none" stroke="midnightblue" d="M328.103,-75C336.496,-75 345.12,-75 353.686,-75"/>
<polygon fill="midnightblue" stroke="midnightblue" points="353.697,-78.5001 363.697,-75 353.697,-71.5001 353.697,-78.5001"/>
</g>
<!-- Node8 -->
<g id="node16" class="node"><title>Node8</title>
<a xlink:href="classZendDbSchema__Db__Schema__Table__AbstractDefinition.html#a224b6a0c1df1d6ed40e03657782ef6fc" target="_top" xlink:title="ZendDbSchema_Db_Schema\l_Table_AbstractDefinition\l\\getTable">
<polygon fill="white" stroke="black" points="556,-66.5 556,-113.5 702,-113.5 702,-66.5 556,-66.5"/>
<text text-anchor="start" x="564" y="-100.5" font-family="Helvetica,sans-Serif" font-size="10.00">ZendDbSchema_Db_Schema</text>
<text text-anchor="start" x="564" y="-87.5" font-family="Helvetica,sans-Serif" font-size="10.00">_Table_AbstractDefinition</text>
<text text-anchor="middle" x="629" y="-74.5" font-family="Helvetica,sans-Serif" font-size="10.00">\getTable</text>
</a>
</g>
<!-- Node7&#45;&gt;Node8 -->
<g id="edge16" class="edge"><title>Node7&#45;&gt;Node8</title>
<path fill="none" stroke="midnightblue" d="M520.221,-81.2744C528.617,-81.9479 537.182,-82.635 545.636,-83.313"/>
<polygon fill="midnightblue" stroke="midnightblue" points="545.624,-86.8233 555.872,-84.1341 546.184,-79.8457 545.624,-86.8233"/>
</g>
<!-- Node9 -->
<g id="node18" class="node"><title>Node9</title>
<a xlink:href="classZendDbSchema__Db__Schema__Table__AbstractDefinition.html#a2fb894602c4b7fbba5dd1d180f93c181" target="_top" xlink:title="ZendDbSchema_Db_Schema\l_Table_AbstractDefinition\l\\_getSchemaKey">
<polygon fill="white" stroke="black" points="556,-0.5 556,-47.5 702,-47.5 702,-0.5 556,-0.5"/>
<text text-anchor="start" x="564" y="-34.5" font-family="Helvetica,sans-Serif" font-size="10.00">ZendDbSchema_Db_Schema</text>
<text text-anchor="start" x="564" y="-21.5" font-family="Helvetica,sans-Serif" font-size="10.00">_Table_AbstractDefinition</text>
<text text-anchor="middle" x="629" y="-8.5" font-family="Helvetica,sans-Serif" font-size="10.00">\_getSchemaKey</text>
</a>
</g>
<!-- Node7&#45;&gt;Node9 -->
<g id="edge18" class="edge"><title>Node7&#45;&gt;Node9</title>
<path fill="none" stroke="midnightblue" d="M504.528,-57.9468C517.771,-54.3351 531.949,-50.4685 545.82,-46.6856"/>
<polygon fill="midnightblue" stroke="midnightblue" points="547.121,-49.9585 555.848,-43.9506 545.279,-43.2052 547.121,-49.9585"/>
</g>
</g>
</svg>
