<?xml version="1.0" encoding="UTF-8" standalone="no"?>
<!DOCTYPE svg PUBLIC "-//W3C//DTD SVG 1.1//EN"
 "http://www.w3.org/Graphics/SVG/1.1/DTD/svg11.dtd">
<!-- Generated by graphviz version 2.26.3 (20100126.1600)
 -->
<!-- Title: G Pages: 1 -->
<svg width="528pt" height="1212pt"
 viewBox="0.00 0.00 528.00 1212.00" xmlns="http://www.w3.org/2000/svg" xmlns:xlink="http://www.w3.org/1999/xlink">
<g id="graph1" class="graph" transform="scale(1 1) rotate(0) translate(4 1208)">
<title>G</title>
<polygon fill="white" stroke="white" points="-4,5 -4,-1208 525,-1208 525,5 -4,5"/>
<!-- Node1 -->
<g id="node1" class="node"><title>Node1</title>
<polygon fill="#bfbfbf" stroke="black" points="0,-543 0,-577 146,-577 146,-543 0,-543"/>
<text text-anchor="start" x="8" y="-564" font-family="Helvetica,sans-Serif" font-size="10.00">ZendDbSchema_Db_Schema</text>
<text text-anchor="middle" x="73" y="-551" font-family="Helvetica,sans-Serif" font-size="10.00">_AbstractSchema\isExist</text>
</g>
<!-- Node2 -->
<g id="node3" class="node"><title>Node2</title>
<a xlink:href="classZendDbSchema__Db__Schema__Generator__Pgsql__Table.html#a2530efde9e464bbbcfbd166c622023d0" target="_top" xlink:title="ZendDbSchema_Db_Schema\l_Generator_Pgsql_Table\l\\alterColumn">
<polygon fill="white" stroke="black" points="182,-1156.5 182,-1203.5 328,-1203.5 328,-1156.5 182,-1156.5"/>
<text text-anchor="start" x="190" y="-1190.5" font-family="Helvetica,sans-Serif" font-size="10.00">ZendDbSchema_Db_Schema</text>
<text text-anchor="start" x="190" y="-1177.5" font-family="Helvetica,sans-Serif" font-size="10.00">_Generator_Pgsql_Table</text>
<text text-anchor="middle" x="255" y="-1164.5" font-family="Helvetica,sans-Serif" font-size="10.00">\alterColumn</text>
</a>
</g>
<!-- Node1&#45;&gt;Node2 -->
<g id="edge2" class="edge"><title>Node1&#45;&gt;Node2</title>
<path fill="none" stroke="midnightblue" d="M74.7585,-587.274C81.9171,-690.727 111.889,-1057.57 182,-1147 184.746,-1150.5 187.946,-1153.65 191.444,-1156.46"/>
<polygon fill="midnightblue" stroke="midnightblue" points="78.2333,-586.781 74.066,-577.041 71.2492,-587.254 78.2333,-586.781"/>
</g>
<!-- Node3 -->
<g id="node5" class="node"><title>Node3</title>
<a xlink:href="classZendDbSchema__Db__Schema__Generator__Mysql__Table.html#aa8814727b4633316559e8865c62d9146" target="_top" xlink:title="ZendDbSchema_Db_Schema\l_Generator_Mysql_Table\l\\alterColumn">
<polygon fill="white" stroke="black" points="182,-1090.5 182,-1137.5 328,-1137.5 328,-1090.5 182,-1090.5"/>
<text text-anchor="start" x="190" y="-1124.5" font-family="Helvetica,sans-Serif" font-size="10.00">ZendDbSchema_Db_Schema</text>
<text text-anchor="start" x="190" y="-1111.5" font-family="Helvetica,sans-Serif" font-size="10.00">_Generator_Mysql_Table</text>
<text text-anchor="middle" x="255" y="-1098.5" font-family="Helvetica,sans-Serif" font-size="10.00">\alterColumn</text>
</a>
</g>
<!-- Node1&#45;&gt;Node3 -->
<g id="edge4" class="edge"><title>Node1&#45;&gt;Node3</title>
<path fill="none" stroke="midnightblue" d="M75.463,-587.29C84.5963,-683.145 119.28,-1002.84 182,-1081 184.786,-1084.47 188.015,-1087.59 191.535,-1090.39"/>
<polygon fill="midnightblue" stroke="midnightblue" points="78.9383,-586.862 74.5208,-577.232 71.9688,-587.515 78.9383,-586.862"/>
</g>
<!-- Node4 -->
<g id="node7" class="node"><title>Node4</title>
<a xlink:href="classZendDbSchema__Db__Schema__Generator__Mysql__Database.html#a98cc5d4cbab5e5c8b32d7b02fa9cb0dc" target="_top" xlink:title="ZendDbSchema_Db_Schema\l_Generator_Mysql_Database\l\\alterDatabase">
<polygon fill="white" stroke="black" points="182,-1024.5 182,-1071.5 328,-1071.5 328,-1024.5 182,-1024.5"/>
<text text-anchor="start" x="190" y="-1058.5" font-family="Helvetica,sans-Serif" font-size="10.00">ZendDbSchema_Db_Schema</text>
<text text-anchor="start" x="190" y="-1045.5" font-family="Helvetica,sans-Serif" font-size="10.00">_Generator_Mysql_Database</text>
<text text-anchor="middle" x="255" y="-1032.5" font-family="Helvetica,sans-Serif" font-size="10.00">\alterDatabase</text>
</a>
</g>
<!-- Node1&#45;&gt;Node4 -->
<g id="edge6" class="edge"><title>Node1&#45;&gt;Node4</title>
<path fill="none" stroke="midnightblue" d="M76.3567,-587.225C87.6376,-674.885 126.612,-947.983 182,-1015 184.835,-1018.43 188.103,-1021.52 191.649,-1024.3"/>
<polygon fill="midnightblue" stroke="midnightblue" points="79.8222,-586.732 75.0905,-577.253 72.878,-587.614 79.8222,-586.732"/>
</g>
<!-- Node5 -->
<g id="node9" class="node"><title>Node5</title>
<a xlink:href="classZendDbSchema__Db__Schema__Generator__Pgsql__Database.html#a4d4b5c6abc51a4ab72fc480602f502c3" target="_top" xlink:title="ZendDbSchema_Db_Schema\l_Generator_Pgsql_Database\l\\alterDatabase">
<polygon fill="white" stroke="black" points="182,-958.5 182,-1005.5 328,-1005.5 328,-958.5 182,-958.5"/>
<text text-anchor="start" x="190" y="-992.5" font-family="Helvetica,sans-Serif" font-size="10.00">ZendDbSchema_Db_Schema</text>
<text text-anchor="start" x="190" y="-979.5" font-family="Helvetica,sans-Serif" font-size="10.00">_Generator_Pgsql_Database</text>
<text text-anchor="middle" x="255" y="-966.5" font-family="Helvetica,sans-Serif" font-size="10.00">\alterDatabase</text>
</a>
</g>
<!-- Node1&#45;&gt;Node5 -->
<g id="edge8" class="edge"><title>Node1&#45;&gt;Node5</title>
<path fill="none" stroke="midnightblue" d="M77.6221,-587.622C91.3597,-666.91 133.986,-893.107 182,-949 184.991,-952.482 188.424,-955.614 192.135,-958.429"/>
<polygon fill="midnightblue" stroke="midnightblue" points="81.0165,-586.708 75.8779,-577.442 74.1171,-587.89 81.0165,-586.708"/>
</g>
<!-- Node6 -->
<g id="node11" class="node"><title>Node6</title>
<a xlink:href="classZendDbSchema__Db__Schema__Generator__Pgsql__Table.html#af690e11fe350fcc7da00de979233e2b5" target="_top" xlink:title="ZendDbSchema_Db_Schema\l_Generator_Pgsql_Table\l\\alterForeignKey">
<polygon fill="white" stroke="black" points="182,-892.5 182,-939.5 328,-939.5 328,-892.5 182,-892.5"/>
<text text-anchor="start" x="190" y="-926.5" font-family="Helvetica,sans-Serif" font-size="10.00">ZendDbSchema_Db_Schema</text>
<text text-anchor="start" x="190" y="-913.5" font-family="Helvetica,sans-Serif" font-size="10.00">_Generator_Pgsql_Table</text>
<text text-anchor="middle" x="255" y="-900.5" font-family="Helvetica,sans-Serif" font-size="10.00">\alterForeignKey</text>
</a>
</g>
<!-- Node1&#45;&gt;Node6 -->
<g id="edge10" class="edge"><title>Node1&#45;&gt;Node6</title>
<path fill="none" stroke="midnightblue" d="M74.9968,-587.394C80.8049,-648.093 102.718,-795.444 182,-883 185.174,-886.505 188.793,-889.662 192.682,-892.5"/>
<polygon fill="midnightblue" stroke="midnightblue" points="78.4543,-586.757 74.0895,-577.103 71.4813,-587.372 78.4543,-586.757"/>
</g>
<!-- Node7 -->
<g id="node13" class="node"><title>Node7</title>
<a xlink:href="classZendDbSchema__Db__Schema__Generator__Mysql__Table.html#a3b806bcbce70989120035d56ee12071c" target="_top" xlink:title="ZendDbSchema_Db_Schema\l_Generator_Mysql_Table\l\\alterForeignKey">
<polygon fill="white" stroke="black" points="182,-826.5 182,-873.5 328,-873.5 328,-826.5 182,-826.5"/>
<text text-anchor="start" x="190" y="-860.5" font-family="Helvetica,sans-Serif" font-size="10.00">ZendDbSchema_Db_Schema</text>
<text text-anchor="start" x="190" y="-847.5" font-family="Helvetica,sans-Serif" font-size="10.00">_Generator_Mysql_Table</text>
<text text-anchor="middle" x="255" y="-834.5" font-family="Helvetica,sans-Serif" font-size="10.00">\alterForeignKey</text>
</a>
</g>
<!-- Node1&#45;&gt;Node7 -->
<g id="edge12" class="edge"><title>Node1&#45;&gt;Node7</title>
<path fill="none" stroke="midnightblue" d="M77.7132,-587.045C87.9404,-638.242 116.71,-750.162 182,-817 185.402,-820.482 189.238,-823.629 193.326,-826.467"/>
<polygon fill="midnightblue" stroke="midnightblue" points="81.1235,-586.244 75.8058,-577.08 74.2483,-587.56 81.1235,-586.244"/>
</g>
<!-- Node8 -->
<g id="node15" class="node"><title>Node8</title>
<a xlink:href="classZendDbSchema__Db__Schema__Generator__Mysql__Table.html#ab073dc755f15a13bd94772846df4249c" target="_top" xlink:title="ZendDbSchema_Db_Schema\l_Generator_Mysql_Table\l\\alterTable">
<polygon fill="white" stroke="black" points="182,-760.5 182,-807.5 328,-807.5 328,-760.5 182,-760.5"/>
<text text-anchor="start" x="190" y="-794.5" font-family="Helvetica,sans-Serif" font-size="10.00">ZendDbSchema_Db_Schema</text>
<text text-anchor="start" x="190" y="-781.5" font-family="Helvetica,sans-Serif" font-size="10.00">_Generator_Mysql_Table</text>
<text text-anchor="middle" x="255" y="-768.5" font-family="Helvetica,sans-Serif" font-size="10.00">\alterTable</text>
</a>
</g>
<!-- Node1&#45;&gt;Node8 -->
<g id="edge14" class="edge"><title>Node1&#45;&gt;Node8</title>
<path fill="none" stroke="midnightblue" d="M82.0449,-586.574C97.0036,-626.974 130.461,-704.092 182,-751 185.806,-754.464 190.036,-757.616 194.49,-760.474"/>
<polygon fill="midnightblue" stroke="midnightblue" points="85.3257,-585.354 78.6407,-577.134 78.7408,-587.729 85.3257,-585.354"/>
</g>
<!-- Node9 -->
<g id="node17" class="node"><title>Node9</title>
<a xlink:href="classZendDbSchema__Db__Schema__Generator__Pgsql__Table.html#a5273ef7520b31135bc524b432754762d" target="_top" xlink:title="ZendDbSchema_Db_Schema\l_Generator_Pgsql_Table\l\\alterTable">
<polygon fill="white" stroke="black" points="182,-694.5 182,-741.5 328,-741.5 328,-694.5 182,-694.5"/>
<text text-anchor="start" x="190" y="-728.5" font-family="Helvetica,sans-Serif" font-size="10.00">ZendDbSchema_Db_Schema</text>
<text text-anchor="start" x="190" y="-715.5" font-family="Helvetica,sans-Serif" font-size="10.00">_Generator_Pgsql_Table</text>
<text text-anchor="middle" x="255" y="-702.5" font-family="Helvetica,sans-Serif" font-size="10.00">\alterTable</text>
</a>
</g>
<!-- Node1&#45;&gt;Node9 -->
<g id="edge16" class="edge"><title>Node1&#45;&gt;Node9</title>
<path fill="none" stroke="midnightblue" d="M90.0268,-585.348C109.556,-612.857 143.838,-656.639 182,-685 186.577,-688.401 191.56,-691.56 196.702,-694.466"/>
<polygon fill="midnightblue" stroke="midnightblue" points="92.8126,-583.225 84.2182,-577.029 87.0731,-587.232 92.8126,-583.225"/>
</g>
<!-- Node10 -->
<g id="node19" class="node"><title>Node10</title>
<a xlink:href="classZendDbSchema__Db__Schema__Generator__Pgsql__Table.html#a8bbaca639d104255bc1eeebb0c2f7da7" target="_top" xlink:title="ZendDbSchema_Db_Schema\l_Generator_Pgsql_Table\l\\createIndex">
<polygon fill="white" stroke="black" points="182,-628.5 182,-675.5 328,-675.5 328,-628.5 182,-628.5"/>
<text text-anchor="start" x="190" y="-662.5" font-family="Helvetica,sans-Serif" font-size="10.00">ZendDbSchema_Db_Schema</text>
<text text-anchor="start" x="190" y="-649.5" font-family="Helvetica,sans-Serif" font-size="10.00">_Generator_Pgsql_Table</text>
<text text-anchor="middle" x="255" y="-636.5" font-family="Helvetica,sans-Serif" font-size="10.00">\createIndex</text>
</a>
</g>
<!-- Node1&#45;&gt;Node10 -->
<g id="edge18" class="edge"><title>Node1&#45;&gt;Node10</title>
<path fill="none" stroke="midnightblue" d="M112.021,-582C132.643,-593.402 158.49,-607.342 182,-619 188.355,-622.151 195.075,-625.357 201.763,-628.469"/>
<polygon fill="midnightblue" stroke="midnightblue" points="113.676,-578.915 103.234,-577.12 110.277,-585.035 113.676,-578.915"/>
</g>
<!-- Node12 -->
<g id="node23" class="node"><title>Node12</title>
<a xlink:href="classZendDbSchema__Db__Schema__Generator__Mysql__Table.html#ab62df69dc345afb27186d6eecc66e753" target="_top" xlink:title="ZendDbSchema_Db_Schema\l_Generator_Mysql_Table\l\\createIndex">
<polygon fill="white" stroke="black" points="182,-562.5 182,-609.5 328,-609.5 328,-562.5 182,-562.5"/>
<text text-anchor="start" x="190" y="-596.5" font-family="Helvetica,sans-Serif" font-size="10.00">ZendDbSchema_Db_Schema</text>
<text text-anchor="start" x="190" y="-583.5" font-family="Helvetica,sans-Serif" font-size="10.00">_Generator_Mysql_Table</text>
<text text-anchor="middle" x="255" y="-570.5" font-family="Helvetica,sans-Serif" font-size="10.00">\createIndex</text>
</a>
</g>
<!-- Node1&#45;&gt;Node12 -->
<g id="edge22" class="edge"><title>Node1&#45;&gt;Node12</title>
<path fill="none" stroke="midnightblue" d="M156.237,-571.891C164.804,-573.115 173.464,-574.352 181.91,-575.559"/>
<polygon fill="midnightblue" stroke="midnightblue" points="156.634,-568.412 146.24,-570.463 155.644,-575.342 156.634,-568.412"/>
</g>
<!-- Node14 -->
<g id="node27" class="node"><title>Node14</title>
<a xlink:href="classZendDbSchema__Db__Schema__AbstractEntity.html#a26fcff2268495fcdbfa265f394ee93d9" target="_top" xlink:title="ZendDbSchema_Db_Schema\l_AbstractEntity\\delete">
<polygon fill="white" stroke="black" points="369,-385 369,-419 515,-419 515,-385 369,-385"/>
<text text-anchor="start" x="377" y="-406" font-family="Helvetica,sans-Serif" font-size="10.00">ZendDbSchema_Db_Schema</text>
<text text-anchor="middle" x="442" y="-393" font-family="Helvetica,sans-Serif" font-size="10.00">_AbstractEntity\delete</text>
</a>
</g>
<!-- Node1&#45;&gt;Node14 -->
<g id="edge26" class="edge"><title>Node1&#45;&gt;Node14</title>
<path fill="none" stroke="midnightblue" d="M156.282,-550.747C218.866,-542.788 298.646,-530.201 328,-515 373.037,-491.677 411.657,-444.403 430.22,-419.021"/>
<polygon fill="midnightblue" stroke="midnightblue" points="155.489,-547.319 146.001,-552.033 156.358,-554.265 155.489,-547.319"/>
</g>
<!-- Node15 -->
<g id="node29" class="node"><title>Node15</title>
<a xlink:href="classZendDbSchema__Db__Schema__Generator__Mysql__Database.html#a94a1d9e8d2eaa3740bd9b62cc3a8973e" target="_top" xlink:title="ZendDbSchema_Db_Schema\l_Generator_Mysql_Database\l\\dropDatabase">
<polygon fill="white" stroke="black" points="182,-458.5 182,-505.5 328,-505.5 328,-458.5 182,-458.5"/>
<text text-anchor="start" x="190" y="-492.5" font-family="Helvetica,sans-Serif" font-size="10.00">ZendDbSchema_Db_Schema</text>
<text text-anchor="start" x="190" y="-479.5" font-family="Helvetica,sans-Serif" font-size="10.00">_Generator_Mysql_Database</text>
<text text-anchor="middle" x="255" y="-466.5" font-family="Helvetica,sans-Serif" font-size="10.00">\dropDatabase</text>
</a>
</g>
<!-- Node1&#45;&gt;Node15 -->
<g id="edge28" class="edge"><title>Node1&#45;&gt;Node15</title>
<path fill="none" stroke="midnightblue" d="M122.222,-538.905C146.24,-528.611 175.218,-516.192 199.966,-505.586"/>
<polygon fill="midnightblue" stroke="midnightblue" points="120.753,-535.726 112.941,-542.883 123.511,-542.16 120.753,-535.726"/>
</g>
<!-- Node16 -->
<g id="node31" class="node"><title>Node16</title>
<a xlink:href="classZendDbSchema__Db__Schema__Generator__Pgsql__Database.html#ad5abe9239fea98c39605aeb77f6ca268" target="_top" xlink:title="ZendDbSchema_Db_Schema\l_Generator_Pgsql_Database\l\\dropDatabase">
<polygon fill="white" stroke="black" points="182,-392.5 182,-439.5 328,-439.5 328,-392.5 182,-392.5"/>
<text text-anchor="start" x="190" y="-426.5" font-family="Helvetica,sans-Serif" font-size="10.00">ZendDbSchema_Db_Schema</text>
<text text-anchor="start" x="190" y="-413.5" font-family="Helvetica,sans-Serif" font-size="10.00">_Generator_Pgsql_Database</text>
<text text-anchor="middle" x="255" y="-400.5" font-family="Helvetica,sans-Serif" font-size="10.00">\dropDatabase</text>
</a>
</g>
<!-- Node1&#45;&gt;Node16 -->
<g id="edge30" class="edge"><title>Node1&#45;&gt;Node16</title>
<path fill="none" stroke="midnightblue" d="M92.9138,-534.867C113.26,-510.46 146.784,-473.588 182,-449 186.79,-445.656 191.972,-442.521 197.291,-439.616"/>
<polygon fill="midnightblue" stroke="midnightblue" points="90.1792,-532.682 86.5357,-542.631 95.588,-537.126 90.1792,-532.682"/>
</g>
<!-- Node17 -->
<g id="node33" class="node"><title>Node17</title>
<a xlink:href="classZendDbSchema__Db__Schema__Generator__Mysql__Table.html#a83d5cec1c67e8961773da5a47d213301" target="_top" xlink:title="ZendDbSchema_Db_Schema\l_Generator_Mysql_Table\l\\dropTable">
<polygon fill="white" stroke="black" points="182,-326.5 182,-373.5 328,-373.5 328,-326.5 182,-326.5"/>
<text text-anchor="start" x="190" y="-360.5" font-family="Helvetica,sans-Serif" font-size="10.00">ZendDbSchema_Db_Schema</text>
<text text-anchor="start" x="190" y="-347.5" font-family="Helvetica,sans-Serif" font-size="10.00">_Generator_Mysql_Table</text>
<text text-anchor="middle" x="255" y="-334.5" font-family="Helvetica,sans-Serif" font-size="10.00">\dropTable</text>
</a>
</g>
<!-- Node1&#45;&gt;Node17 -->
<g id="edge32" class="edge"><title>Node1&#45;&gt;Node17</title>
<path fill="none" stroke="midnightblue" d="M83.3658,-533.471C99.3618,-495.569 133.381,-425.788 182,-383 185.863,-379.6 190.134,-376.494 194.615,-373.667"/>
<polygon fill="midnightblue" stroke="midnightblue" points="80.0848,-532.246 79.5117,-542.826 86.5571,-534.913 80.0848,-532.246"/>
</g>
<!-- Node18 -->
<g id="node35" class="node"><title>Node18</title>
<a xlink:href="classZendDbSchema__Db__Schema__Generator__Pgsql__Table.html#abfd240c872df10ff0b021ff86af52641" target="_top" xlink:title="ZendDbSchema_Db_Schema\l_Generator_Pgsql_Table\l\\dropTable">
<polygon fill="white" stroke="black" points="182,-260.5 182,-307.5 328,-307.5 328,-260.5 182,-260.5"/>
<text text-anchor="start" x="190" y="-294.5" font-family="Helvetica,sans-Serif" font-size="10.00">ZendDbSchema_Db_Schema</text>
<text text-anchor="start" x="190" y="-281.5" font-family="Helvetica,sans-Serif" font-size="10.00">_Generator_Pgsql_Table</text>
<text text-anchor="middle" x="255" y="-268.5" font-family="Helvetica,sans-Serif" font-size="10.00">\dropTable</text>
</a>
</g>
<!-- Node1&#45;&gt;Node18 -->
<g id="edge34" class="edge"><title>Node1&#45;&gt;Node18</title>
<path fill="none" stroke="midnightblue" d="M78.4552,-533.042C89.6636,-484.01 119.648,-379.533 182,-317 185.437,-313.553 189.299,-310.431 193.405,-307.611"/>
<polygon fill="midnightblue" stroke="midnightblue" points="75.0165,-532.383 76.2858,-542.902 81.853,-533.888 75.0165,-532.383"/>
</g>
<!-- Node19 -->
<g id="node37" class="node"><title>Node19</title>
<a xlink:href="classZendDbSchema__Db__Schema__AbstractSchema.html#aec661ede88f500caaf2a09e98c31d3b0" target="_top" xlink:title="ZendDbSchema_Db_Schema\l_AbstractSchema\\getDropSql">
<polygon fill="white" stroke="black" points="182,-208 182,-242 328,-242 328,-208 182,-208"/>
<text text-anchor="start" x="190" y="-229" font-family="Helvetica,sans-Serif" font-size="10.00">ZendDbSchema_Db_Schema</text>
<text text-anchor="middle" x="255" y="-216" font-family="Helvetica,sans-Serif" font-size="10.00">_AbstractSchema\getDropSql</text>
</a>
</g>
<!-- Node1&#45;&gt;Node19 -->
<g id="edge36" class="edge"><title>Node1&#45;&gt;Node19</title>
<path fill="none" stroke="midnightblue" d="M74.9088,-532.884C80.5206,-473.571 102.032,-331.211 182,-251 185.419,-247.57 189.321,-244.591 193.501,-242.003"/>
<polygon fill="midnightblue" stroke="midnightblue" points="71.4123,-532.694 74.0355,-542.959 78.3861,-533.299 71.4123,-532.694"/>
</g>
<!-- Node21 -->
<g id="node42" class="node"><title>Node21</title>
<a xlink:href="classZendDbSchema__Db__Schema__Table__AbstractDefinition.html#a018fe3e134417675da482608579910a5" target="_top" xlink:title="ZendDbSchema_Db_Schema\l_Table_AbstractDefinition\l\\markDeleted">
<polygon fill="white" stroke="black" points="182,-142.5 182,-189.5 328,-189.5 328,-142.5 182,-142.5"/>
<text text-anchor="start" x="190" y="-176.5" font-family="Helvetica,sans-Serif" font-size="10.00">ZendDbSchema_Db_Schema</text>
<text text-anchor="start" x="190" y="-163.5" font-family="Helvetica,sans-Serif" font-size="10.00">_Table_AbstractDefinition</text>
<text text-anchor="middle" x="255" y="-150.5" font-family="Helvetica,sans-Serif" font-size="10.00">\markDeleted</text>
</a>
</g>
<!-- Node1&#45;&gt;Node21 -->
<g id="edge42" class="edge"><title>Node1&#45;&gt;Node21</title>
<path fill="none" stroke="midnightblue" d="M78.1689,-532.881C92.9022,-457.975 136.96,-250.381 182,-199 185.026,-195.549 188.484,-192.439 192.214,-189.639"/>
<polygon fill="midnightblue" stroke="midnightblue" points="74.687,-532.45 76.2112,-542.935 81.5579,-533.788 74.687,-532.45"/>
</g>
<!-- Node22 -->
<g id="node44" class="node"><title>Node22</title>
<a xlink:href="classZendDbSchema__Db__Schema__AbstractEntity.html#a5b1c93da76c3708f90d330b4643e55b2" target="_top" xlink:title="ZendDbSchema_Db_Schema\l_AbstractEntity\\save">
<polygon fill="white" stroke="black" points="369,-75 369,-109 515,-109 515,-75 369,-75"/>
<text text-anchor="start" x="377" y="-96" font-family="Helvetica,sans-Serif" font-size="10.00">ZendDbSchema_Db_Schema</text>
<text text-anchor="middle" x="442" y="-83" font-family="Helvetica,sans-Serif" font-size="10.00">_AbstractEntity\save</text>
</a>
</g>
<!-- Node1&#45;&gt;Node22 -->
<g id="edge44" class="edge"><title>Node1&#45;&gt;Node22</title>
<path fill="none" stroke="midnightblue" d="M76.0709,-532.738C86.2505,-447.413 121.709,-187.901 182,-133 208.734,-108.656 301.769,-98.7419 368.92,-94.7202"/>
<polygon fill="midnightblue" stroke="midnightblue" points="72.5652,-532.582 74.878,-542.922 79.5177,-533.397 72.5652,-532.582"/>
</g>
<!-- Node23 -->
<g id="node46" class="node"><title>Node23</title>
<a xlink:href="classZendDbSchema__Db__Schema__Table.html#a6178edaeea7e08d97e2196dd991532f9" target="_top" xlink:title="ZendDbSchema_Db_Schema\l_Table\\toSql">
<polygon fill="white" stroke="black" points="182,-52 182,-86 328,-86 328,-52 182,-52"/>
<text text-anchor="start" x="190" y="-73" font-family="Helvetica,sans-Serif" font-size="10.00">ZendDbSchema_Db_Schema</text>
<text text-anchor="middle" x="255" y="-60" font-family="Helvetica,sans-Serif" font-size="10.00">_Table\toSql</text>
</a>
</g>
<!-- Node1&#45;&gt;Node23 -->
<g id="edge46" class="edge"><title>Node1&#45;&gt;Node23</title>
<path fill="none" stroke="midnightblue" d="M76.2179,-532.724C87.1369,-444.27 125.281,-167.211 182,-100 186.706,-94.4229 192.593,-89.8264 198.969,-86.0434"/>
<polygon fill="midnightblue" stroke="midnightblue" points="72.728,-532.429 74.9943,-542.779 79.6767,-533.275 72.728,-532.429"/>
</g>
<!-- Node24 -->
<g id="node48" class="node"><title>Node24</title>
<a xlink:href="classZendDbSchema__Db__Schema__AbstractSchema.html#ada5af8e6e7a4c5407b7ca67d03900b31" target="_top" xlink:title="ZendDbSchema_Db_Schema\l_AbstractSchema\\toSql">
<polygon fill="white" stroke="black" points="182,-0 182,-34 328,-34 328,-0 182,-0"/>
<text text-anchor="start" x="190" y="-21" font-family="Helvetica,sans-Serif" font-size="10.00">ZendDbSchema_Db_Schema</text>
<text text-anchor="middle" x="255" y="-8" font-family="Helvetica,sans-Serif" font-size="10.00">_AbstractSchema\toSql</text>
</a>
</g>
<!-- Node1&#45;&gt;Node24 -->
<g id="edge48" class="edge"><title>Node1&#45;&gt;Node24</title>
<path fill="none" stroke="midnightblue" d="M75.2712,-532.733C83.7592,-436.989 116.54,-117.905 182,-43 184.921,-39.657 188.303,-36.7439 191.977,-34.2053"/>
<polygon fill="midnightblue" stroke="midnightblue" points="71.777,-532.515 74.3976,-542.781 78.7507,-533.122 71.777,-532.515"/>
</g>
<!-- Node11 -->
<g id="node21" class="node"><title>Node11</title>
<a xlink:href="classZendDbSchema__Db__Schema__Generator__Pgsql__Table.html#aad7fecb50c0c15801fc00e5dffc69910" target="_top" xlink:title="ZendDbSchema_Db_Schema\l_Generator_Pgsql_Table\l\\alterIndex">
<polygon fill="white" stroke="black" points="369,-628.5 369,-675.5 515,-675.5 515,-628.5 369,-628.5"/>
<text text-anchor="start" x="377" y="-662.5" font-family="Helvetica,sans-Serif" font-size="10.00">ZendDbSchema_Db_Schema</text>
<text text-anchor="start" x="377" y="-649.5" font-family="Helvetica,sans-Serif" font-size="10.00">_Generator_Pgsql_Table</text>
<text text-anchor="middle" x="442" y="-636.5" font-family="Helvetica,sans-Serif" font-size="10.00">\alterIndex</text>
</a>
</g>
<!-- Node10&#45;&gt;Node11 -->
<g id="edge20" class="edge"><title>Node10&#45;&gt;Node11</title>
<path fill="none" stroke="midnightblue" d="M338.259,-652C348.489,-652 358.885,-652 368.948,-652"/>
<polygon fill="midnightblue" stroke="midnightblue" points="338.103,-648.5 328.103,-652 338.102,-655.5 338.103,-648.5"/>
</g>
<!-- Node13 -->
<g id="node25" class="node"><title>Node13</title>
<a xlink:href="classZendDbSchema__Db__Schema__Generator__Mysql__Table.html#a60e78ff04eba0a328b1df8ff7abbcd04" target="_top" xlink:title="ZendDbSchema_Db_Schema\l_Generator_Mysql_Table\l\\alterIndex">
<polygon fill="white" stroke="black" points="369,-562.5 369,-609.5 515,-609.5 515,-562.5 369,-562.5"/>
<text text-anchor="start" x="377" y="-596.5" font-family="Helvetica,sans-Serif" font-size="10.00">ZendDbSchema_Db_Schema</text>
<text text-anchor="start" x="377" y="-583.5" font-family="Helvetica,sans-Serif" font-size="10.00">_Generator_Mysql_Table</text>
<text text-anchor="middle" x="442" y="-570.5" font-family="Helvetica,sans-Serif" font-size="10.00">\alterIndex</text>
</a>
</g>
<!-- Node12&#45;&gt;Node13 -->
<g id="edge24" class="edge"><title>Node12&#45;&gt;Node13</title>
<path fill="none" stroke="midnightblue" d="M338.259,-586C348.489,-586 358.885,-586 368.948,-586"/>
<polygon fill="midnightblue" stroke="midnightblue" points="338.103,-582.5 328.103,-586 338.102,-589.5 338.103,-582.5"/>
</g>
<!-- Node19&#45;&gt;Node14 -->
<g id="edge38" class="edge"><title>Node19&#45;&gt;Node14</title>
<path fill="none" stroke="midnightblue" d="M322.234,-247.119C324.221,-248.349 326.149,-249.642 328,-251 378.578,-288.121 417.143,-353.906 433.466,-384.919"/>
<polygon fill="midnightblue" stroke="midnightblue" points="323.645,-243.9 313.201,-242.121 320.256,-250.025 323.645,-243.9"/>
</g>
<!-- Node20 -->
<g id="node40" class="node"><title>Node20</title>
<a xlink:href="classZendDbSchema__Db__Schema__Table__AbstractDefinition.html#a75c1b3ef1005c2d6aa371ecef07d530d" target="_top" xlink:title="ZendDbSchema_Db_Schema\l_Table_AbstractDefinition\\toSql">
<polygon fill="white" stroke="black" points="364.5,-208 364.5,-242 519.5,-242 519.5,-208 364.5,-208"/>
<text text-anchor="start" x="372.5" y="-229" font-family="Helvetica,sans-Serif" font-size="10.00">ZendDbSchema_Db_Schema</text>
<text text-anchor="middle" x="442" y="-216" font-family="Helvetica,sans-Serif" font-size="10.00">_Table_AbstractDefinition\toSql</text>
</a>
</g>
<!-- Node19&#45;&gt;Node20 -->
<g id="edge40" class="edge"><title>Node19&#45;&gt;Node20</title>
<path fill="none" stroke="midnightblue" d="M338.22,-225C346.901,-225 355.702,-225 364.318,-225"/>
<polygon fill="midnightblue" stroke="midnightblue" points="338.103,-221.5 328.103,-225 338.102,-228.5 338.103,-221.5"/>
</g>
<!-- Node24&#45;&gt;Node22 -->
<g id="edge50" class="edge"><title>Node24&#45;&gt;Node22</title>
<path fill="none" stroke="midnightblue" d="M314.001,-37.6491C318.751,-39.4225 323.464,-41.2196 328,-43 353.567,-53.0361 381.945,-65.2298 403.992,-74.9424"/>
<polygon fill="midnightblue" stroke="midnightblue" points="314.837,-34.2275 304.244,-34.0553 312.418,-40.7961 314.837,-34.2275"/>
</g>
<!-- Node25 -->
<g id="node51" class="node"><title>Node25</title>
<a xlink:href="classZendDbSchema__Db__Schema__AbstractSchema.html#aafc458a7c19c74314889da4a99e457ff" target="_top" xlink:title="ZendDbSchema_Db_Schema\l_AbstractSchema\\__toString">
<polygon fill="white" stroke="black" points="369,-0 369,-34 515,-34 515,-0 369,-0"/>
<text text-anchor="start" x="377" y="-21" font-family="Helvetica,sans-Serif" font-size="10.00">ZendDbSchema_Db_Schema</text>
<text text-anchor="middle" x="442" y="-8" font-family="Helvetica,sans-Serif" font-size="10.00">_AbstractSchema\__toString</text>
</a>
</g>
<!-- Node24&#45;&gt;Node25 -->
<g id="edge52" class="edge"><title>Node24&#45;&gt;Node25</title>
<path fill="none" stroke="midnightblue" d="M338.259,-17C348.489,-17 358.885,-17 368.948,-17"/>
<polygon fill="midnightblue" stroke="midnightblue" points="338.103,-13.5001 328.103,-17 338.102,-20.5001 338.103,-13.5001"/>
</g>
</g>
</svg>
