<?xml version="1.0" encoding="UTF-8" standalone="no"?>
<!DOCTYPE svg PUBLIC "-//W3C//DTD SVG 1.1//EN"
 "http://www.w3.org/Graphics/SVG/1.1/DTD/svg11.dtd">
<!-- Generated by graphviz version 2.26.3 (20100126.1600)
 -->
<!-- Title: G Pages: 1 -->
<svg width="712pt" height="108pt"
 viewBox="0.00 0.00 712.00 108.00" xmlns="http://www.w3.org/2000/svg" xmlns:xlink="http://www.w3.org/1999/xlink">
<g id="graph1" class="graph" transform="scale(1 1) rotate(0) translate(4 104)">
<title>G</title>
<polygon fill="white" stroke="white" points="-4,5 -4,-104 709,-104 709,5 -4,5"/>
<!-- Node1 -->
<g id="node1" class="node"><title>Node1</title>
<polygon fill="#bfbfbf" stroke="black" points="0,-29.5 0,-76.5 146,-76.5 146,-29.5 0,-29.5"/>
<text text-anchor="start" x="8" y="-63.5" font-family="Helvetica,sans-Serif" font-size="10.00">ZendDbSchema_Db_Schema</text>
<text text-anchor="start" x="8" y="-50.5" font-family="Helvetica,sans-Serif" font-size="10.00">_Generator_Mysql_Table</text>
<text text-anchor="middle" x="73" y="-37.5" font-family="Helvetica,sans-Serif" font-size="10.00">\addPrimaryKey</text>
</g>
<!-- Node2 -->
<g id="node3" class="node"><title>Node2</title>
<a xlink:href="classZendDbSchema__Db__Schema__Table__PrimaryKey.html#a228207d6e07e3ab95b8b25415077a6a1" target="_top" xlink:title="ZendDbSchema_Db_Schema\l_Table_PrimaryKey\\getColumns">
<polygon fill="white" stroke="black" points="182,-66 182,-100 340,-100 340,-66 182,-66"/>
<text text-anchor="start" x="190" y="-87" font-family="Helvetica,sans-Serif" font-size="10.00">ZendDbSchema_Db_Schema</text>
<text text-anchor="middle" x="261" y="-74" font-family="Helvetica,sans-Serif" font-size="10.00">_Table_PrimaryKey\getColumns</text>
</a>
</g>
<!-- Node1&#45;&gt;Node2 -->
<g id="edge2" class="edge"><title>Node1&#45;&gt;Node2</title>
<path fill="none" stroke="midnightblue" d="M146.224,-64.6847C154.598,-66.0209 163.203,-67.3941 171.755,-68.7589"/>
<polygon fill="midnightblue" stroke="midnightblue" points="171.328,-72.2348 181.754,-70.3544 172.431,-65.3222 171.328,-72.2348"/>
</g>
<!-- Node5 -->
<g id="node9" class="node"><title>Node5</title>
<a xlink:href="classZendDbSchema__Db__Schema__Table__AbstractDefinition.html#a224b6a0c1df1d6ed40e03657782ef6fc" target="_top" xlink:title="ZendDbSchema_Db_Schema\l_Table_AbstractDefinition\l\\getTable">
<polygon fill="white" stroke="black" points="188,-0.5 188,-47.5 334,-47.5 334,-0.5 188,-0.5"/>
<text text-anchor="start" x="196" y="-34.5" font-family="Helvetica,sans-Serif" font-size="10.00">ZendDbSchema_Db_Schema</text>
<text text-anchor="start" x="196" y="-21.5" font-family="Helvetica,sans-Serif" font-size="10.00">_Table_AbstractDefinition</text>
<text text-anchor="middle" x="261" y="-8.5" font-family="Helvetica,sans-Serif" font-size="10.00">\getTable</text>
</a>
</g>
<!-- Node1&#45;&gt;Node5 -->
<g id="edge8" class="edge"><title>Node1&#45;&gt;Node5</title>
<path fill="none" stroke="midnightblue" d="M146.224,-41.7048C156.615,-40.1019 167.363,-38.444 177.925,-36.8148"/>
<polygon fill="midnightblue" stroke="midnightblue" points="178.626,-40.2481 187.976,-35.2644 177.559,-33.3299 178.626,-40.2481"/>
</g>
<!-- Node3 -->
<g id="node5" class="node"><title>Node3</title>
<a xlink:href="classZendDbSchema__Db__Schema__AbstractSchema.html#a54d32c6f15463eaad2321a9f0e7225d7" target="_top" xlink:title="ZendDbSchema_Db_Schema\l_AbstractSchema\\__get">
<polygon fill="white" stroke="black" points="376,-66 376,-100 522,-100 522,-66 376,-66"/>
<text text-anchor="start" x="384" y="-87" font-family="Helvetica,sans-Serif" font-size="10.00">ZendDbSchema_Db_Schema</text>
<text text-anchor="middle" x="449" y="-74" font-family="Helvetica,sans-Serif" font-size="10.00">_AbstractSchema\__get</text>
</a>
</g>
<!-- Node2&#45;&gt;Node3 -->
<g id="edge4" class="edge"><title>Node2&#45;&gt;Node3</title>
<path fill="none" stroke="midnightblue" d="M340.184,-83C348.602,-83 357.183,-83 365.648,-83"/>
<polygon fill="midnightblue" stroke="midnightblue" points="365.896,-86.5001 375.896,-83 365.896,-79.5001 365.896,-86.5001"/>
</g>
<!-- Node4 -->
<g id="node7" class="node"><title>Node4</title>
<a xlink:href="classZendDbSchema__Db__Schema__AbstractSchema.html#ac4e121ba7932163eb1950fabe06fb9db" target="_top" xlink:title="ZendDbSchema_Db_Schema\l_AbstractSchema\\__isset">
<polygon fill="white" stroke="black" points="558,-66 558,-100 704,-100 704,-66 558,-66"/>
<text text-anchor="start" x="566" y="-87" font-family="Helvetica,sans-Serif" font-size="10.00">ZendDbSchema_Db_Schema</text>
<text text-anchor="middle" x="631" y="-74" font-family="Helvetica,sans-Serif" font-size="10.00">_AbstractSchema\__isset</text>
</a>
</g>
<!-- Node3&#45;&gt;Node4 -->
<g id="edge6" class="edge"><title>Node3&#45;&gt;Node4</title>
<path fill="none" stroke="midnightblue" d="M522.24,-83C530.596,-83 539.161,-83 547.636,-83"/>
<polygon fill="midnightblue" stroke="midnightblue" points="547.91,-86.5001 557.91,-83 547.91,-79.5001 547.91,-86.5001"/>
</g>
</g>
</svg>
