<?xml version="1.0" encoding="UTF-8" standalone="no"?>
<!DOCTYPE svg PUBLIC "-//W3C//DTD SVG 1.1//EN"
 "http://www.w3.org/Graphics/SVG/1.1/DTD/svg11.dtd">
<!-- Generated by graphviz version 2.26.3 (20100126.1600)
 -->
<!-- Title: G Pages: 1 -->
<svg width="926pt" height="190pt"
 viewBox="0.00 0.00 926.00 190.00" xmlns="http://www.w3.org/2000/svg" xmlns:xlink="http://www.w3.org/1999/xlink">
<g id="graph1" class="graph" transform="scale(1 1) rotate(0) translate(4 186)">
<title>G</title>
<polygon fill="white" stroke="white" points="-4,5 -4,-186 923,-186 923,5 -4,5"/>
<!-- Node1 -->
<g id="node1" class="node"><title>Node1</title>
<polygon fill="#bfbfbf" stroke="black" points="0,-103 0,-137 170,-137 170,-103 0,-103"/>
<text text-anchor="start" x="8" y="-124" font-family="Helvetica,sans-Serif" font-size="10.00">ZendDbSchema_Db_Schema</text>
<text text-anchor="middle" x="85" y="-111" font-family="Helvetica,sans-Serif" font-size="10.00">_Table_ForeignKey\removeColumn</text>
</g>
<!-- Node2 -->
<g id="node3" class="node"><title>Node2</title>
<a xlink:href="classZendDbSchema__Db__Schema__Table__ForeignKey.html#a275e68bc4f9eebe1af1ec77e6d0b731e" target="_top" xlink:title="ZendDbSchema_Db_Schema\l_Table_ForeignKey\\hasColumn">
<polygon fill="white" stroke="black" points="207.5,-148 207.5,-182 360.5,-182 360.5,-148 207.5,-148"/>
<text text-anchor="start" x="215.5" y="-169" font-family="Helvetica,sans-Serif" font-size="10.00">ZendDbSchema_Db_Schema</text>
<text text-anchor="middle" x="284" y="-156" font-family="Helvetica,sans-Serif" font-size="10.00">_Table_ForeignKey\hasColumn</text>
</a>
</g>
<!-- Node1&#45;&gt;Node2 -->
<g id="edge2" class="edge"><title>Node1&#45;&gt;Node2</title>
<path fill="none" stroke="midnightblue" d="M160.233,-137.013C172.863,-139.869 186.049,-142.85 198.906,-145.758"/>
<polygon fill="midnightblue" stroke="midnightblue" points="198.135,-149.171 208.66,-147.963 199.679,-142.344 198.135,-149.171"/>
</g>
<!-- Node3 -->
<g id="node5" class="node"><title>Node3</title>
<a xlink:href="classZendDbSchema__Db__Schema__Table__ForeignKey.html#a5cd45e4bc92ac5975975753e459b4c8c" target="_top" xlink:title="ZendDbSchema_Db_Schema\l_Table_ForeignKey\\getColumns">
<polygon fill="white" stroke="black" points="398,-140 398,-174 554,-174 554,-140 398,-140"/>
<text text-anchor="start" x="406" y="-161" font-family="Helvetica,sans-Serif" font-size="10.00">ZendDbSchema_Db_Schema</text>
<text text-anchor="middle" x="476" y="-148" font-family="Helvetica,sans-Serif" font-size="10.00">_Table_ForeignKey\getColumns</text>
</a>
</g>
<!-- Node1&#45;&gt;Node3 -->
<g id="edge10" class="edge"><title>Node1&#45;&gt;Node3</title>
<path fill="none" stroke="midnightblue" d="M170.038,-123.89C224.931,-126.88 297.816,-131.746 362,-139 370.372,-139.946 379.068,-141.067 387.758,-142.28"/>
<polygon fill="midnightblue" stroke="midnightblue" points="387.54,-145.784 397.936,-143.741 388.534,-138.855 387.54,-145.784"/>
</g>
<!-- Node6 -->
<g id="node12" class="node"><title>Node6</title>
<a xlink:href="classZendDbSchema__Db__Schema__Table__ForeignKey.html#afb0c42af85a63c6347973ce79d2e7d80" target="_top" xlink:title="ZendDbSchema_Db_Schema\l_Table_ForeignKey\\setColumns">
<polygon fill="white" stroke="black" points="206,-58 206,-92 362,-92 362,-58 206,-58"/>
<text text-anchor="start" x="214" y="-79" font-family="Helvetica,sans-Serif" font-size="10.00">ZendDbSchema_Db_Schema</text>
<text text-anchor="middle" x="284" y="-66" font-family="Helvetica,sans-Serif" font-size="10.00">_Table_ForeignKey\setColumns</text>
</a>
</g>
<!-- Node1&#45;&gt;Node6 -->
<g id="edge12" class="edge"><title>Node1&#45;&gt;Node6</title>
<path fill="none" stroke="midnightblue" d="M160.233,-102.987C172.863,-100.131 186.049,-97.1498 198.906,-94.2423"/>
<polygon fill="midnightblue" stroke="midnightblue" points="199.679,-97.6561 208.66,-92.0366 198.135,-90.8285 199.679,-97.6561"/>
</g>
<!-- Node2&#45;&gt;Node3 -->
<g id="edge4" class="edge"><title>Node2&#45;&gt;Node3</title>
<path fill="none" stroke="midnightblue" d="M360.711,-161.804C369.59,-161.434 378.699,-161.054 387.717,-160.678"/>
<polygon fill="midnightblue" stroke="midnightblue" points="387.996,-164.17 397.842,-160.257 387.705,-157.176 387.996,-164.17"/>
</g>
<!-- Node4 -->
<g id="node7" class="node"><title>Node4</title>
<a xlink:href="classZendDbSchema__Db__Schema__AbstractSchema.html#a54d32c6f15463eaad2321a9f0e7225d7" target="_top" xlink:title="ZendDbSchema_Db_Schema\l_AbstractSchema\\__get">
<polygon fill="white" stroke="black" points="590,-140 590,-174 736,-174 736,-140 590,-140"/>
<text text-anchor="start" x="598" y="-161" font-family="Helvetica,sans-Serif" font-size="10.00">ZendDbSchema_Db_Schema</text>
<text text-anchor="middle" x="663" y="-148" font-family="Helvetica,sans-Serif" font-size="10.00">_AbstractSchema\__get</text>
</a>
</g>
<!-- Node3&#45;&gt;Node4 -->
<g id="edge6" class="edge"><title>Node3&#45;&gt;Node4</title>
<path fill="none" stroke="midnightblue" d="M554.221,-157C562.617,-157 571.182,-157 579.636,-157"/>
<polygon fill="midnightblue" stroke="midnightblue" points="579.872,-160.5 589.872,-157 579.872,-153.5 579.872,-160.5"/>
</g>
<!-- Node5 -->
<g id="node9" class="node"><title>Node5</title>
<a xlink:href="classZendDbSchema__Db__Schema__AbstractSchema.html#ac4e121ba7932163eb1950fabe06fb9db" target="_top" xlink:title="ZendDbSchema_Db_Schema\l_AbstractSchema\\__isset">
<polygon fill="white" stroke="black" points="772,-140 772,-174 918,-174 918,-140 772,-140"/>
<text text-anchor="start" x="780" y="-161" font-family="Helvetica,sans-Serif" font-size="10.00">ZendDbSchema_Db_Schema</text>
<text text-anchor="middle" x="845" y="-148" font-family="Helvetica,sans-Serif" font-size="10.00">_AbstractSchema\__isset</text>
</a>
</g>
<!-- Node4&#45;&gt;Node5 -->
<g id="edge8" class="edge"><title>Node4&#45;&gt;Node5</title>
<path fill="none" stroke="midnightblue" d="M736.24,-157C744.596,-157 753.161,-157 761.636,-157"/>
<polygon fill="midnightblue" stroke="midnightblue" points="761.91,-160.5 771.91,-157 761.91,-153.5 761.91,-160.5"/>
</g>
<!-- Node7 -->
<g id="node14" class="node"><title>Node7</title>
<a xlink:href="classZendDbSchema__Db__Schema__Table__AbstractDefinition.html#a65498451683b2cf8fd1dc65f7f03581d" target="_top" xlink:title="ZendDbSchema_Db_Schema\l_Table_AbstractDefinition\\__set">
<polygon fill="white" stroke="black" points="398,-58 398,-92 554,-92 554,-58 398,-58"/>
<text text-anchor="start" x="406" y="-79" font-family="Helvetica,sans-Serif" font-size="10.00">ZendDbSchema_Db_Schema</text>
<text text-anchor="middle" x="476" y="-66" font-family="Helvetica,sans-Serif" font-size="10.00">_Table_AbstractDefinition\__set</text>
</a>
</g>
<!-- Node6&#45;&gt;Node7 -->
<g id="edge14" class="edge"><title>Node6&#45;&gt;Node7</title>
<path fill="none" stroke="midnightblue" d="M362.094,-75C370.601,-75 379.302,-75 387.918,-75"/>
<polygon fill="midnightblue" stroke="midnightblue" points="387.975,-78.5001 397.975,-75 387.975,-71.5001 387.975,-78.5001"/>
</g>
<!-- Node8 -->
<g id="node16" class="node"><title>Node8</title>
<a xlink:href="classZendDbSchema__Db__Schema__Table__AbstractDefinition.html#a224b6a0c1df1d6ed40e03657782ef6fc" target="_top" xlink:title="ZendDbSchema_Db_Schema\l_Table_AbstractDefinition\l\\getTable">
<polygon fill="white" stroke="black" points="590,-66.5 590,-113.5 736,-113.5 736,-66.5 590,-66.5"/>
<text text-anchor="start" x="598" y="-100.5" font-family="Helvetica,sans-Serif" font-size="10.00">ZendDbSchema_Db_Schema</text>
<text text-anchor="start" x="598" y="-87.5" font-family="Helvetica,sans-Serif" font-size="10.00">_Table_AbstractDefinition</text>
<text text-anchor="middle" x="663" y="-74.5" font-family="Helvetica,sans-Serif" font-size="10.00">\getTable</text>
</a>
</g>
<!-- Node7&#45;&gt;Node8 -->
<g id="edge16" class="edge"><title>Node7&#45;&gt;Node8</title>
<path fill="none" stroke="midnightblue" d="M554.221,-81.2744C562.617,-81.9479 571.182,-82.635 579.636,-83.313"/>
<polygon fill="midnightblue" stroke="midnightblue" points="579.624,-86.8233 589.872,-84.1341 580.184,-79.8457 579.624,-86.8233"/>
</g>
<!-- Node9 -->
<g id="node18" class="node"><title>Node9</title>
<a xlink:href="classZendDbSchema__Db__Schema__Table__AbstractDefinition.html#a2fb894602c4b7fbba5dd1d180f93c181" target="_top" xlink:title="ZendDbSchema_Db_Schema\l_Table_AbstractDefinition\l\\_getSchemaKey">
<polygon fill="white" stroke="black" points="590,-0.5 590,-47.5 736,-47.5 736,-0.5 590,-0.5"/>
<text text-anchor="start" x="598" y="-34.5" font-family="Helvetica,sans-Serif" font-size="10.00">ZendDbSchema_Db_Schema</text>
<text text-anchor="start" x="598" y="-21.5" font-family="Helvetica,sans-Serif" font-size="10.00">_Table_AbstractDefinition</text>
<text text-anchor="middle" x="663" y="-8.5" font-family="Helvetica,sans-Serif" font-size="10.00">\_getSchemaKey</text>
</a>
</g>
<!-- Node7&#45;&gt;Node9 -->
<g id="edge18" class="edge"><title>Node7&#45;&gt;Node9</title>
<path fill="none" stroke="midnightblue" d="M538.528,-57.9468C551.771,-54.3351 565.949,-50.4685 579.82,-46.6856"/>
<polygon fill="midnightblue" stroke="midnightblue" points="581.121,-49.9585 589.848,-43.9506 579.279,-43.2052 581.121,-49.9585"/>
</g>
</g>
</svg>
