<?xml version="1.0" encoding="UTF-8" standalone="no"?>
<!DOCTYPE svg PUBLIC "-//W3C//DTD SVG 1.1//EN"
 "http://www.w3.org/Graphics/SVG/1.1/DTD/svg11.dtd">
<!-- Generated by graphviz version 2.26.3 (20100126.1600)
 -->
<!-- Title: G Pages: 1 -->
<svg width="756pt" height="110pt"
 viewBox="0.00 0.00 756.00 110.00" xmlns="http://www.w3.org/2000/svg" xmlns:xlink="http://www.w3.org/1999/xlink">
<g id="graph1" class="graph" transform="scale(1 1) rotate(0) translate(4 106)">
<title>G</title>
<polygon fill="white" stroke="white" points="-4,5 -4,-106 753,-106 753,5 -4,5"/>
<!-- Node1 -->
<g id="node1" class="node"><title>Node1</title>
<polygon fill="#bfbfbf" stroke="black" points="0,-60.5 0,-81.5 194,-81.5 194,-60.5 0,-60.5"/>
<text text-anchor="middle" x="97" y="-68.5" font-family="Helvetica,sans-Serif" font-size="10.00">ZendDbSchema_Db_Schema_Table\add</text>
</g>
<!-- Node2 -->
<g id="node3" class="node"><title>Node2</title>
<a xlink:href="classZendDbSchema__Db__Schema__Table.html#a9d445dd6a92cc3a50aa6d8dad8395f0a" target="_top" xlink:title="ZendDbSchema_Db_Schema_Table\\primary">
<polygon fill="white" stroke="black" points="257.5,-80.5 257.5,-101.5 468.5,-101.5 468.5,-80.5 257.5,-80.5"/>
<text text-anchor="middle" x="363" y="-88.5" font-family="Helvetica,sans-Serif" font-size="10.00">ZendDbSchema_Db_Schema_Table\primary</text>
</a>
</g>
<!-- Node1&#45;&gt;Node2 -->
<g id="edge2" class="edge"><title>Node1&#45;&gt;Node2</title>
<path fill="none" stroke="midnightblue" d="M194.161,-78.3054C211.282,-79.5926 229.259,-80.9443 246.837,-82.2659"/>
<polygon fill="midnightblue" stroke="midnightblue" points="246.897,-85.7802 257.131,-83.0399 247.421,-78.7999 246.897,-85.7802"/>
</g>
<!-- Node3 -->
<g id="node5" class="node"><title>Node3</title>
<a xlink:href="classZendDbSchema__Db__Schema__Table.html#a27720321b5699ac0f5cd673450e0b1ec" target="_top" xlink:title="ZendDbSchema_Db_Schema_Table\\_getManagerByItem">
<polygon fill="white" stroke="black" points="230,-40.5 230,-61.5 496,-61.5 496,-40.5 230,-40.5"/>
<text text-anchor="middle" x="363" y="-48.5" font-family="Helvetica,sans-Serif" font-size="10.00">ZendDbSchema_Db_Schema_Table\_getManagerByItem</text>
</a>
</g>
<!-- Node1&#45;&gt;Node3 -->
<g id="edge4" class="edge"><title>Node1&#45;&gt;Node3</title>
<path fill="none" stroke="midnightblue" d="M194.161,-63.6946C202.482,-63.0691 211.004,-62.4283 219.585,-61.7831"/>
<polygon fill="midnightblue" stroke="midnightblue" points="219.966,-65.2644 229.676,-61.0244 219.441,-58.2841 219.966,-65.2644"/>
</g>
<!-- Node4 -->
<g id="node7" class="node"><title>Node4</title>
<a xlink:href="classZendDbSchema__Db__Schema__Table.html#a214354faa96de67a26b787c2c8741850" target="_top" xlink:title="ZendDbSchema_Db_Schema_Table\\columns">
<polygon fill="white" stroke="black" points="532.5,-80.5 532.5,-101.5 747.5,-101.5 747.5,-80.5 532.5,-80.5"/>
<text text-anchor="middle" x="640" y="-88.5" font-family="Helvetica,sans-Serif" font-size="10.00">ZendDbSchema_Db_Schema_Table\columns</text>
</a>
</g>
<!-- Node3&#45;&gt;Node4 -->
<g id="edge6" class="edge"><title>Node3&#45;&gt;Node4</title>
<path fill="none" stroke="midnightblue" d="M435.778,-61.5095C473.006,-66.8854 518.481,-73.4521 557.06,-79.0232"/>
<polygon fill="midnightblue" stroke="midnightblue" points="556.83,-82.5261 567.227,-80.4913 557.83,-75.5979 556.83,-82.5261"/>
</g>
<!-- Node5 -->
<g id="node9" class="node"><title>Node5</title>
<a xlink:href="classZendDbSchema__Db__Schema__Table.html#a47df29d95af8f655dd7506cfb649ec40" target="_top" xlink:title="ZendDbSchema_Db_Schema_Table\\indexes">
<polygon fill="white" stroke="black" points="534,-40.5 534,-61.5 746,-61.5 746,-40.5 534,-40.5"/>
<text text-anchor="middle" x="640" y="-48.5" font-family="Helvetica,sans-Serif" font-size="10.00">ZendDbSchema_Db_Schema_Table\indexes</text>
</a>
</g>
<!-- Node3&#45;&gt;Node5 -->
<g id="edge8" class="edge"><title>Node3&#45;&gt;Node5</title>
<path fill="none" stroke="midnightblue" d="M496.226,-51C505.39,-51 514.585,-51 523.649,-51"/>
<polygon fill="midnightblue" stroke="midnightblue" points="523.82,-54.5001 533.82,-51 523.82,-47.5001 523.82,-54.5001"/>
</g>
<!-- Node6 -->
<g id="node11" class="node"><title>Node6</title>
<a xlink:href="classZendDbSchema__Db__Schema__Table.html#acff371c2884c9688b5ede2deaf09f25c" target="_top" xlink:title="ZendDbSchema_Db_Schema_Table\\foreigns">
<polygon fill="white" stroke="black" points="533.5,-0.5 533.5,-21.5 746.5,-21.5 746.5,-0.5 533.5,-0.5"/>
<text text-anchor="middle" x="640" y="-8.5" font-family="Helvetica,sans-Serif" font-size="10.00">ZendDbSchema_Db_Schema_Table\foreigns</text>
</a>
</g>
<!-- Node3&#45;&gt;Node6 -->
<g id="edge10" class="edge"><title>Node3&#45;&gt;Node6</title>
<path fill="none" stroke="midnightblue" d="M435.778,-40.4905C473.006,-35.1146 518.481,-28.5479 557.06,-22.9768"/>
<polygon fill="midnightblue" stroke="midnightblue" points="557.83,-26.4021 567.227,-21.5087 556.83,-19.4739 557.83,-26.4021"/>
</g>
</g>
</svg>
