<?xml version="1.0" encoding="UTF-8" standalone="no"?>
<!DOCTYPE svg PUBLIC "-//W3C//DTD SVG 1.1//EN"
 "http://www.w3.org/Graphics/SVG/1.1/DTD/svg11.dtd">
<!-- Generated by graphviz version 2.26.3 (20100126.1600)
 -->
<!-- Title: G Pages: 1 -->
<svg width="1270pt" height="89pt"
 viewBox="0.00 0.00 1270.00 89.00" xmlns="http://www.w3.org/2000/svg" xmlns:xlink="http://www.w3.org/1999/xlink">
<g id="graph1" class="graph" transform="scale(1 1) rotate(0) translate(4 85)">
<title>G</title>
<polygon fill="white" stroke="white" points="-4,5 -4,-85 1267,-85 1267,5 -4,5"/>
<!-- Node1 -->
<g id="node1" class="node"><title>Node1</title>
<polygon fill="#bfbfbf" stroke="black" points="0,-20.5 0,-41.5 286,-41.5 286,-20.5 0,-20.5"/>
<text text-anchor="middle" x="143" y="-28.5" font-family="Helvetica,sans-Serif" font-size="10.00">ZendDbSchema_Db_Schema_Table_PrimaryKey\__construct</text>
</g>
<!-- Node2 -->
<g id="node3" class="node"><title>Node2</title>
<a xlink:href="classZendDbSchema__Db__Schema__AbstractSchema.html#a84673a5d69f10fec5b31294bf53f6d56" target="_top" xlink:title="ZendDbSchema_Db_Schema_AbstractSchema\\refresh">
<polygon fill="white" stroke="black" points="322.5,-40.5 322.5,-61.5 579.5,-61.5 579.5,-40.5 322.5,-40.5"/>
<text text-anchor="middle" x="451" y="-48.5" font-family="Helvetica,sans-Serif" font-size="10.00">ZendDbSchema_Db_Schema_AbstractSchema\refresh</text>
</a>
</g>
<!-- Node1&#45;&gt;Node2 -->
<g id="edge2" class="edge"><title>Node1&#45;&gt;Node2</title>
<path fill="none" stroke="midnightblue" d="M286.18,-40.2974C294.874,-40.8619 303.614,-41.4295 312.289,-41.9928"/>
<polygon fill="midnightblue" stroke="midnightblue" points="312.231,-45.4963 322.436,-42.6517 312.684,-38.511 312.231,-45.4963"/>
</g>
<!-- Node7 -->
<g id="node14" class="node"><title>Node7</title>
<a xlink:href="classZendDbSchema__Db__Schema__AbstractSchema.html#abdb3f6e9b394b51512ce1567bb252b63" target="_top" xlink:title="ZendDbSchema_Db_Schema_AbstractSchema\\init">
<polygon fill="white" stroke="black" points="331,-0.5 331,-21.5 571,-21.5 571,-0.5 331,-0.5"/>
<text text-anchor="middle" x="451" y="-8.5" font-family="Helvetica,sans-Serif" font-size="10.00">ZendDbSchema_Db_Schema_AbstractSchema\init</text>
</a>
</g>
<!-- Node1&#45;&gt;Node7 -->
<g id="edge14" class="edge"><title>Node1&#45;&gt;Node7</title>
<path fill="none" stroke="midnightblue" d="M286.18,-21.7026C297.723,-20.9531 309.347,-20.1983 320.791,-19.4551"/>
<polygon fill="midnightblue" stroke="midnightblue" points="321.044,-22.9462 330.796,-18.8055 320.59,-15.9609 321.044,-22.9462"/>
</g>
<!-- Node3 -->
<g id="node5" class="node"><title>Node3</title>
<a xlink:href="classZendDbSchema__Db__Schema__AbstractSchema.html#ab4282a1fd6f4d9f23d01de8328072c71" target="_top" xlink:title="ZendDbSchema_Db_Schema_AbstractSchema\\__set">
<polygon fill="white" stroke="black" points="982.5,-59.5 982.5,-80.5 1233.5,-80.5 1233.5,-59.5 982.5,-59.5"/>
<text text-anchor="middle" x="1108" y="-67.5" font-family="Helvetica,sans-Serif" font-size="10.00">ZendDbSchema_Db_Schema_AbstractSchema\__set</text>
</a>
</g>
<!-- Node2&#45;&gt;Node3 -->
<g id="edge4" class="edge"><title>Node2&#45;&gt;Node3</title>
<path fill="none" stroke="midnightblue" d="M522.3,-61.5475C551.299,-65.3397 585.181,-69.139 616,-71 736.349,-78.2673 873.558,-77.2165 972.448,-74.8111"/>
<polygon fill="midnightblue" stroke="midnightblue" points="972.589,-78.3087 982.498,-74.5588 972.414,-71.3109 972.589,-78.3087"/>
</g>
<!-- Node4 -->
<g id="node7" class="node"><title>Node4</title>
<a xlink:href="classZendDbSchema__Db__Schema__AbstractSchema.html#a46da7a60c7e5fd605607afbc1dac4baa" target="_top" xlink:title="ZendDbSchema_Db_Schema_AbstractSchema\\getCleanSchema">
<polygon fill="white" stroke="black" points="616,-0.5 616,-21.5 918,-21.5 918,-0.5 616,-0.5"/>
<text text-anchor="middle" x="767" y="-8.5" font-family="Helvetica,sans-Serif" font-size="10.00">ZendDbSchema_Db_Schema_AbstractSchema\getCleanSchema</text>
</a>
</g>
<!-- Node2&#45;&gt;Node4 -->
<g id="edge6" class="edge"><title>Node2&#45;&gt;Node4</title>
<path fill="none" stroke="midnightblue" d="M534.025,-40.4905C576.946,-35.0575 629.476,-28.4081 673.785,-22.7994"/>
<polygon fill="midnightblue" stroke="midnightblue" points="674.5,-26.2369 683.981,-21.5087 673.621,-19.2923 674.5,-26.2369"/>
</g>
<!-- Node6 -->
<g id="node11" class="node"><title>Node6</title>
<a xlink:href="classZendDbSchema__Db__Schema__AbstractSchema.html#acd81590f02c831ff4c4a442c5cf47074" target="_top" xlink:title="ZendDbSchema_Db_Schema_AbstractSchema\\setFromArray">
<polygon fill="white" stroke="black" points="623.5,-40.5 623.5,-61.5 910.5,-61.5 910.5,-40.5 623.5,-40.5"/>
<text text-anchor="middle" x="767" y="-48.5" font-family="Helvetica,sans-Serif" font-size="10.00">ZendDbSchema_Db_Schema_AbstractSchema\setFromArray</text>
</a>
</g>
<!-- Node2&#45;&gt;Node6 -->
<g id="edge10" class="edge"><title>Node2&#45;&gt;Node6</title>
<path fill="none" stroke="midnightblue" d="M579.529,-51C590.584,-51 601.838,-51 613.065,-51"/>
<polygon fill="midnightblue" stroke="midnightblue" points="613.361,-54.5001 623.361,-51 613.361,-47.5001 613.361,-54.5001"/>
</g>
<!-- Node5 -->
<g id="node9" class="node"><title>Node5</title>
<a xlink:href="classZendDbSchema__Db__Schema__AbstractSchema.html#af99e5bb9adfe0da8c94d3d3848efe7b5" target="_top" xlink:title="ZendDbSchema_Db_Schema_AbstractSchema\\_getCleanSchema">
<polygon fill="white" stroke="black" points="954,-0.5 954,-21.5 1262,-21.5 1262,-0.5 954,-0.5"/>
<text text-anchor="middle" x="1108" y="-8.5" font-family="Helvetica,sans-Serif" font-size="10.00">ZendDbSchema_Db_Schema_AbstractSchema\_getCleanSchema</text>
</a>
</g>
<!-- Node4&#45;&gt;Node5 -->
<g id="edge8" class="edge"><title>Node4&#45;&gt;Node5</title>
<path fill="none" stroke="midnightblue" d="M918.057,-11C926.572,-11 935.152,-11 943.712,-11"/>
<polygon fill="midnightblue" stroke="midnightblue" points="943.745,-14.5001 953.745,-11 943.745,-7.5001 943.745,-14.5001"/>
</g>
<!-- Node6&#45;&gt;Node3 -->
<g id="edge12" class="edge"><title>Node6&#45;&gt;Node3</title>
<path fill="none" stroke="midnightblue" d="M910.626,-59.0026C931.024,-60.1392 951.949,-61.3051 972.192,-62.433"/>
<polygon fill="midnightblue" stroke="midnightblue" points="972.209,-65.9393 982.388,-63.0011 972.598,-58.9501 972.209,-65.9393"/>
</g>
</g>
</svg>
