<?xml version="1.0" encoding="UTF-8" standalone="no"?>
<!DOCTYPE svg PUBLIC "-//W3C//DTD SVG 1.1//EN"
 "http://www.w3.org/Graphics/SVG/1.1/DTD/svg11.dtd">
<!-- Generated by graphviz version 2.26.3 (20100126.1600)
 -->
<!-- Title: G Pages: 1 -->
<svg width="1568pt" height="110pt"
 viewBox="0.00 0.00 1568.00 110.00" xmlns="http://www.w3.org/2000/svg" xmlns:xlink="http://www.w3.org/1999/xlink">
<g id="graph1" class="graph" transform="scale(1 1) rotate(0) translate(4 106)">
<title>G</title>
<polygon fill="white" stroke="white" points="-4,5 -4,-106 1565,-106 1565,5 -4,5"/>
<!-- Node1 -->
<g id="node1" class="node"><title>Node1</title>
<polygon fill="#bfbfbf" stroke="black" points="0.5,-40.5 0.5,-61.5 295.5,-61.5 295.5,-40.5 0.5,-40.5"/>
<text text-anchor="middle" x="148" y="-48.5" font-family="Helvetica,sans-Serif" font-size="10.00">ZendDbSchema_Db_Schema_Table_ForeignKey\_getDeleteSql</text>
</g>
<!-- Node2 -->
<g id="node3" class="node"><title>Node2</title>
<a xlink:href="classZendDbSchema__Db__Schema__AbstractSchema.html#a5696bfca3324b0dfbdf3c10d224f5759" target="_top" xlink:title="ZendDbSchema_Db_Schema_AbstractSchema\\getGenerator">
<polygon fill="white" stroke="black" points="332,-40.5 332,-61.5 616,-61.5 616,-40.5 332,-40.5"/>
<text text-anchor="middle" x="474" y="-48.5" font-family="Helvetica,sans-Serif" font-size="10.00">ZendDbSchema_Db_Schema_AbstractSchema\getGenerator</text>
</a>
</g>
<!-- Node1&#45;&gt;Node2 -->
<g id="edge2" class="edge"><title>Node1&#45;&gt;Node2</title>
<path fill="none" stroke="midnightblue" d="M295.739,-51C304.396,-51 313.112,-51 321.787,-51"/>
<polygon fill="midnightblue" stroke="midnightblue" points="321.945,-54.5001 331.945,-51 321.945,-47.5001 321.945,-54.5001"/>
</g>
<!-- Node3 -->
<g id="node5" class="node"><title>Node3</title>
<a xlink:href="classZendDbSchema__Db__Schema__AbstractSchema.html#a47d95912f6bf6d26d023597887dafacb" target="_top" xlink:title="ZendDbSchema_Db_Schema_AbstractSchema\\getAdapter">
<polygon fill="white" stroke="black" points="652.5,-40.5 652.5,-61.5 927.5,-61.5 927.5,-40.5 652.5,-40.5"/>
<text text-anchor="middle" x="790" y="-48.5" font-family="Helvetica,sans-Serif" font-size="10.00">ZendDbSchema_Db_Schema_AbstractSchema\getAdapter</text>
</a>
</g>
<!-- Node2&#45;&gt;Node3 -->
<g id="edge4" class="edge"><title>Node2&#45;&gt;Node3</title>
<path fill="none" stroke="midnightblue" d="M616.285,-51C624.88,-51 633.538,-51 642.156,-51"/>
<polygon fill="midnightblue" stroke="midnightblue" points="642.247,-54.5001 652.247,-51 642.247,-47.5001 642.247,-54.5001"/>
</g>
<!-- Node4 -->
<g id="node7" class="node"><title>Node4</title>
<a xlink:href="classZendDbSchema__Db__Schema__AbstractSchema.html#a6349649e5e09d67a5b5e0abe96298db8" target="_top" xlink:title="ZendDbSchema_Db_Schema_AbstractSchema\\setAdapter">
<polygon fill="white" stroke="black" points="964.5,-40.5 964.5,-61.5 1239.5,-61.5 1239.5,-40.5 964.5,-40.5"/>
<text text-anchor="middle" x="1102" y="-48.5" font-family="Helvetica,sans-Serif" font-size="10.00">ZendDbSchema_Db_Schema_AbstractSchema\setAdapter</text>
</a>
</g>
<!-- Node3&#45;&gt;Node4 -->
<g id="edge6" class="edge"><title>Node3&#45;&gt;Node4</title>
<path fill="none" stroke="midnightblue" d="M927.756,-51C936.438,-51 945.197,-51 953.923,-51"/>
<polygon fill="midnightblue" stroke="midnightblue" points="954.145,-54.5001 964.145,-51 954.145,-47.5001 954.145,-54.5001"/>
</g>
<!-- Node5 -->
<g id="node9" class="node"><title>Node5</title>
<a xlink:href="classZendDbSchema__Db__Schema__AbstractSchema.html#a53a1974dbc8822792a8d7b9c618d3a02" target="_top" xlink:title="ZendDbSchema_Db_Schema_AbstractSchema\\setGenerator">
<polygon fill="white" stroke="black" points="1276,-80.5 1276,-101.5 1560,-101.5 1560,-80.5 1276,-80.5"/>
<text text-anchor="middle" x="1418" y="-88.5" font-family="Helvetica,sans-Serif" font-size="10.00">ZendDbSchema_Db_Schema_AbstractSchema\setGenerator</text>
</a>
</g>
<!-- Node4&#45;&gt;Node5 -->
<g id="edge8" class="edge"><title>Node4&#45;&gt;Node5</title>
<path fill="none" stroke="midnightblue" d="M1185.03,-61.5095C1227.95,-66.9425 1280.48,-73.5919 1324.78,-79.2006"/>
<polygon fill="midnightblue" stroke="midnightblue" points="1324.62,-82.7077 1334.98,-80.4913 1325.5,-75.7631 1324.62,-82.7077"/>
</g>
<!-- Node6 -->
<g id="node11" class="node"><title>Node6</title>
<a xlink:href="classZendDbSchema__Db__Schema__AbstractSchema.html#aa0e6c9f8d58702dc41d988f064f62698" target="_top" xlink:title="ZendDbSchema_Db_Schema_AbstractSchema\\setParser">
<polygon fill="white" stroke="black" points="1283.5,-40.5 1283.5,-61.5 1552.5,-61.5 1552.5,-40.5 1283.5,-40.5"/>
<text text-anchor="middle" x="1418" y="-48.5" font-family="Helvetica,sans-Serif" font-size="10.00">ZendDbSchema_Db_Schema_AbstractSchema\setParser</text>
</a>
</g>
<!-- Node4&#45;&gt;Node6 -->
<g id="edge10" class="edge"><title>Node4&#45;&gt;Node6</title>
<path fill="none" stroke="midnightblue" d="M1239.68,-51C1250.76,-51 1261.98,-51 1273.1,-51"/>
<polygon fill="midnightblue" stroke="midnightblue" points="1273.29,-54.5001 1283.29,-51 1273.29,-47.5001 1273.29,-54.5001"/>
</g>
<!-- Node7 -->
<g id="node13" class="node"><title>Node7</title>
<a xlink:href="classZendDbSchema__Db__Schema__AbstractSchema.html#ac0161e2c24dafba8433fb86205a147fe" target="_top" xlink:title="ZendDbSchema_Db_Schema_AbstractSchema\\setValidator">
<polygon fill="white" stroke="black" points="1278.5,-0.5 1278.5,-21.5 1557.5,-21.5 1557.5,-0.5 1278.5,-0.5"/>
<text text-anchor="middle" x="1418" y="-8.5" font-family="Helvetica,sans-Serif" font-size="10.00">ZendDbSchema_Db_Schema_AbstractSchema\setValidator</text>
</a>
</g>
<!-- Node4&#45;&gt;Node7 -->
<g id="edge12" class="edge"><title>Node4&#45;&gt;Node7</title>
<path fill="none" stroke="midnightblue" d="M1185.03,-40.4905C1227.95,-35.0575 1280.48,-28.4081 1324.78,-22.7994"/>
<polygon fill="midnightblue" stroke="midnightblue" points="1325.5,-26.2369 1334.98,-21.5087 1324.62,-19.2923 1325.5,-26.2369"/>
</g>
</g>
</svg>
