<?xml version="1.0" encoding="UTF-8" standalone="no"?>
<!DOCTYPE svg PUBLIC "-//W3C//DTD SVG 1.1//EN"
 "http://www.w3.org/Graphics/SVG/1.1/DTD/svg11.dtd">
<!-- Generated by graphviz version 2.26.3 (20100126.1600)
 -->
<!-- Title: G Pages: 1 -->
<svg width="1262pt" height="89pt"
 viewBox="0.00 0.00 1262.00 89.00" xmlns="http://www.w3.org/2000/svg" xmlns:xlink="http://www.w3.org/1999/xlink">
<g id="graph1" class="graph" transform="scale(1 1) rotate(0) translate(4 85)">
<title>G</title>
<polygon fill="white" stroke="white" points="-4,5 -4,-85 1259,-85 1259,5 -4,5"/>
<!-- Node1 -->
<g id="node1" class="node"><title>Node1</title>
<polygon fill="#bfbfbf" stroke="black" points="0,-20.5 0,-41.5 278,-41.5 278,-20.5 0,-20.5"/>
<text text-anchor="middle" x="139" y="-28.5" font-family="Helvetica,sans-Serif" font-size="10.00">ZendDbSchema_Db_Schema_AbstractSchema\__construct</text>
</g>
<!-- Node2 -->
<g id="node3" class="node"><title>Node2</title>
<a xlink:href="classZendDbSchema__Db__Schema__AbstractSchema.html#a84673a5d69f10fec5b31294bf53f6d56" target="_top" xlink:title="ZendDbSchema_Db_Schema_AbstractSchema\\refresh">
<polygon fill="white" stroke="black" points="314.5,-40.5 314.5,-61.5 571.5,-61.5 571.5,-40.5 314.5,-40.5"/>
<text text-anchor="middle" x="443" y="-48.5" font-family="Helvetica,sans-Serif" font-size="10.00">ZendDbSchema_Db_Schema_AbstractSchema\refresh</text>
</a>
</g>
<!-- Node1&#45;&gt;Node2 -->
<g id="edge2" class="edge"><title>Node1&#45;&gt;Node2</title>
<path fill="none" stroke="midnightblue" d="M278.1,-40.1513C286.752,-40.7205 295.461,-41.2935 304.113,-41.8627"/>
<polygon fill="midnightblue" stroke="midnightblue" points="304.028,-45.3646 314.236,-42.5287 304.487,-38.3797 304.028,-45.3646"/>
</g>
<!-- Node7 -->
<g id="node14" class="node"><title>Node7</title>
<a xlink:href="classZendDbSchema__Db__Schema__AbstractSchema.html#abdb3f6e9b394b51512ce1567bb252b63" target="_top" xlink:title="ZendDbSchema_Db_Schema_AbstractSchema\\init">
<polygon fill="white" stroke="black" points="323,-0.5 323,-21.5 563,-21.5 563,-0.5 323,-0.5"/>
<text text-anchor="middle" x="443" y="-8.5" font-family="Helvetica,sans-Serif" font-size="10.00">ZendDbSchema_Db_Schema_AbstractSchema\init</text>
</a>
</g>
<!-- Node1&#45;&gt;Node7 -->
<g id="edge14" class="edge"><title>Node1&#45;&gt;Node7</title>
<path fill="none" stroke="midnightblue" d="M278.1,-21.8487C289.587,-21.0929 301.174,-20.3307 312.594,-19.5793"/>
<polygon fill="midnightblue" stroke="midnightblue" points="312.832,-23.0713 322.581,-18.9223 312.373,-16.0864 312.832,-23.0713"/>
</g>
<!-- Node3 -->
<g id="node5" class="node"><title>Node3</title>
<a xlink:href="classZendDbSchema__Db__Schema__AbstractSchema.html#ab4282a1fd6f4d9f23d01de8328072c71" target="_top" xlink:title="ZendDbSchema_Db_Schema_AbstractSchema\\__set">
<polygon fill="white" stroke="black" points="974.5,-59.5 974.5,-80.5 1225.5,-80.5 1225.5,-59.5 974.5,-59.5"/>
<text text-anchor="middle" x="1100" y="-67.5" font-family="Helvetica,sans-Serif" font-size="10.00">ZendDbSchema_Db_Schema_AbstractSchema\__set</text>
</a>
</g>
<!-- Node2&#45;&gt;Node3 -->
<g id="edge4" class="edge"><title>Node2&#45;&gt;Node3</title>
<path fill="none" stroke="midnightblue" d="M514.3,-61.5475C543.299,-65.3397 577.181,-69.139 608,-71 728.349,-78.2673 865.558,-77.2165 964.448,-74.8111"/>
<polygon fill="midnightblue" stroke="midnightblue" points="964.589,-78.3087 974.498,-74.5588 964.414,-71.3109 964.589,-78.3087"/>
</g>
<!-- Node4 -->
<g id="node7" class="node"><title>Node4</title>
<a xlink:href="classZendDbSchema__Db__Schema__AbstractSchema.html#a46da7a60c7e5fd605607afbc1dac4baa" target="_top" xlink:title="ZendDbSchema_Db_Schema_AbstractSchema\\getCleanSchema">
<polygon fill="white" stroke="black" points="608,-0.5 608,-21.5 910,-21.5 910,-0.5 608,-0.5"/>
<text text-anchor="middle" x="759" y="-8.5" font-family="Helvetica,sans-Serif" font-size="10.00">ZendDbSchema_Db_Schema_AbstractSchema\getCleanSchema</text>
</a>
</g>
<!-- Node2&#45;&gt;Node4 -->
<g id="edge6" class="edge"><title>Node2&#45;&gt;Node4</title>
<path fill="none" stroke="midnightblue" d="M526.025,-40.4905C568.946,-35.0575 621.476,-28.4081 665.785,-22.7994"/>
<polygon fill="midnightblue" stroke="midnightblue" points="666.5,-26.2369 675.981,-21.5087 665.621,-19.2923 666.5,-26.2369"/>
</g>
<!-- Node6 -->
<g id="node11" class="node"><title>Node6</title>
<a xlink:href="classZendDbSchema__Db__Schema__AbstractSchema.html#acd81590f02c831ff4c4a442c5cf47074" target="_top" xlink:title="ZendDbSchema_Db_Schema_AbstractSchema\\setFromArray">
<polygon fill="white" stroke="black" points="615.5,-40.5 615.5,-61.5 902.5,-61.5 902.5,-40.5 615.5,-40.5"/>
<text text-anchor="middle" x="759" y="-48.5" font-family="Helvetica,sans-Serif" font-size="10.00">ZendDbSchema_Db_Schema_AbstractSchema\setFromArray</text>
</a>
</g>
<!-- Node2&#45;&gt;Node6 -->
<g id="edge10" class="edge"><title>Node2&#45;&gt;Node6</title>
<path fill="none" stroke="midnightblue" d="M571.529,-51C582.584,-51 593.838,-51 605.065,-51"/>
<polygon fill="midnightblue" stroke="midnightblue" points="605.361,-54.5001 615.361,-51 605.361,-47.5001 605.361,-54.5001"/>
</g>
<!-- Node5 -->
<g id="node9" class="node"><title>Node5</title>
<a xlink:href="classZendDbSchema__Db__Schema__AbstractSchema.html#af99e5bb9adfe0da8c94d3d3848efe7b5" target="_top" xlink:title="ZendDbSchema_Db_Schema_AbstractSchema\\_getCleanSchema">
<polygon fill="white" stroke="black" points="946,-0.5 946,-21.5 1254,-21.5 1254,-0.5 946,-0.5"/>
<text text-anchor="middle" x="1100" y="-8.5" font-family="Helvetica,sans-Serif" font-size="10.00">ZendDbSchema_Db_Schema_AbstractSchema\_getCleanSchema</text>
</a>
</g>
<!-- Node4&#45;&gt;Node5 -->
<g id="edge8" class="edge"><title>Node4&#45;&gt;Node5</title>
<path fill="none" stroke="midnightblue" d="M910.057,-11C918.572,-11 927.152,-11 935.712,-11"/>
<polygon fill="midnightblue" stroke="midnightblue" points="935.745,-14.5001 945.745,-11 935.745,-7.5001 935.745,-14.5001"/>
</g>
<!-- Node6&#45;&gt;Node3 -->
<g id="edge12" class="edge"><title>Node6&#45;&gt;Node3</title>
<path fill="none" stroke="midnightblue" d="M902.626,-59.0026C923.024,-60.1392 943.949,-61.3051 964.192,-62.433"/>
<polygon fill="midnightblue" stroke="midnightblue" points="964.209,-65.9393 974.388,-63.0011 964.598,-58.9501 964.209,-65.9393"/>
</g>
</g>
</svg>
