<?xml version="1.0" encoding="UTF-8" standalone="no"?>
<!DOCTYPE svg PUBLIC "-//W3C//DTD SVG 1.1//EN"
 "http://www.w3.org/Graphics/SVG/1.1/DTD/svg11.dtd">
<!-- Generated by graphviz version 2.26.3 (20100126.1600)
 -->
<!-- Title: G Pages: 1 -->
<svg width="2208pt" height="148pt"
 viewBox="0.00 0.00 2208.00 148.00" xmlns="http://www.w3.org/2000/svg" xmlns:xlink="http://www.w3.org/1999/xlink">
<g id="graph1" class="graph" transform="scale(1 1) rotate(0) translate(4 144)">
<title>G</title>
<polygon fill="white" stroke="white" points="-4,5 -4,-144 2205,-144 2205,5 -4,5"/>
<!-- Node1 -->
<g id="node1" class="node"><title>Node1</title>
<polygon fill="#bfbfbf" stroke="black" points="0.5,-79.5 0.5,-100.5 315.5,-100.5 315.5,-79.5 0.5,-79.5"/>
<text text-anchor="middle" x="158" y="-87.5" font-family="Helvetica,sans-Serif" font-size="10.00">ZendDbSchema_Db_Schema_Table_ForeignKey\removeRefColumn</text>
</g>
<!-- Node2 -->
<g id="node3" class="node"><title>Node2</title>
<a xlink:href="classZendDbSchema__Db__Schema__Table__ForeignKey.html#aee976a90aff6a23580c6bbd11baf2ec0" target="_top" xlink:title="ZendDbSchema_Db_Schema_Table_ForeignKey\\hasRefColumn">
<polygon fill="white" stroke="black" points="352.5,-79.5 352.5,-100.5 651.5,-100.5 651.5,-79.5 352.5,-79.5"/>
<text text-anchor="middle" x="502" y="-87.5" font-family="Helvetica,sans-Serif" font-size="10.00">ZendDbSchema_Db_Schema_Table_ForeignKey\hasRefColumn</text>
</a>
</g>
<!-- Node1&#45;&gt;Node2 -->
<g id="edge2" class="edge"><title>Node1&#45;&gt;Node2</title>
<path fill="none" stroke="midnightblue" d="M315.654,-90C324.42,-90 333.237,-90 342.012,-90"/>
<polygon fill="midnightblue" stroke="midnightblue" points="342.288,-93.5001 352.288,-90 342.288,-86.5001 342.288,-93.5001"/>
</g>
<!-- Node4 -->
<g id="node7" class="node"><title>Node4</title>
<a xlink:href="classZendDbSchema__Db__Schema__AbstractSchema.html#ab4282a1fd6f4d9f23d01de8328072c71" target="_top" xlink:title="ZendDbSchema_Db_Schema_AbstractSchema\\__set">
<polygon fill="white" stroke="black" points="688.5,-40.5 688.5,-61.5 939.5,-61.5 939.5,-40.5 688.5,-40.5"/>
<text text-anchor="middle" x="814" y="-48.5" font-family="Helvetica,sans-Serif" font-size="10.00">ZendDbSchema_Db_Schema_AbstractSchema\__set</text>
</a>
</g>
<!-- Node1&#45;&gt;Node4 -->
<g id="edge26" class="edge"><title>Node1&#45;&gt;Node4</title>
<path fill="none" stroke="midnightblue" d="M248.698,-79.4814C281.239,-76.0169 318.228,-72.4329 352,-70 461.589,-62.1052 586.056,-57.2211 678.167,-54.3852"/>
<polygon fill="midnightblue" stroke="midnightblue" points="678.498,-57.8768 688.387,-54.0748 678.285,-50.8801 678.498,-57.8768"/>
</g>
<!-- Node11 -->
<g id="node21" class="node"><title>Node11</title>
<a xlink:href="classZendDbSchema__Db__Schema__AbstractSchema.html#a54d32c6f15463eaad2321a9f0e7225d7" target="_top" xlink:title="ZendDbSchema_Db_Schema_AbstractSchema\\__get">
<polygon fill="white" stroke="black" points="688.5,-118.5 688.5,-139.5 939.5,-139.5 939.5,-118.5 688.5,-118.5"/>
<text text-anchor="middle" x="814" y="-126.5" font-family="Helvetica,sans-Serif" font-size="10.00">ZendDbSchema_Db_Schema_AbstractSchema\__get</text>
</a>
</g>
<!-- Node1&#45;&gt;Node11 -->
<g id="edge24" class="edge"><title>Node1&#45;&gt;Node11</title>
<path fill="none" stroke="midnightblue" d="M248.698,-100.519C281.239,-103.983 318.228,-107.567 352,-110 461.589,-117.895 586.056,-122.779 678.167,-125.615"/>
<polygon fill="midnightblue" stroke="midnightblue" points="678.285,-129.12 688.387,-125.925 678.498,-122.123 678.285,-129.12"/>
</g>
<!-- Node3 -->
<g id="node5" class="node"><title>Node3</title>
<a xlink:href="classZendDbSchema__Db__Schema__AbstractSchema.html#ac4e121ba7932163eb1950fabe06fb9db" target="_top" xlink:title="ZendDbSchema_Db_Schema_AbstractSchema\\__isset">
<polygon fill="white" stroke="black" points="986.5,-99.5 986.5,-120.5 1245.5,-120.5 1245.5,-99.5 986.5,-99.5"/>
<text text-anchor="middle" x="1116" y="-107.5" font-family="Helvetica,sans-Serif" font-size="10.00">ZendDbSchema_Db_Schema_AbstractSchema\__isset</text>
</a>
</g>
<!-- Node2&#45;&gt;Node3 -->
<g id="edge4" class="edge"><title>Node2&#45;&gt;Node3</title>
<path fill="none" stroke="midnightblue" d="M651.809,-94.8798C750.725,-98.1018 879.458,-102.295 976.258,-105.448"/>
<polygon fill="midnightblue" stroke="midnightblue" points="976.304,-108.951 986.413,-105.779 976.532,-101.955 976.304,-108.951"/>
</g>
<!-- Node2&#45;&gt;Node4 -->
<g id="edge6" class="edge"><title>Node2&#45;&gt;Node4</title>
<path fill="none" stroke="midnightblue" d="M586.021,-79.4974C627.292,-74.3384 677.173,-68.1034 719.741,-62.7824"/>
<polygon fill="midnightblue" stroke="midnightblue" points="720.341,-66.2347 729.829,-61.5213 719.472,-59.2888 720.341,-66.2347"/>
</g>
<!-- Node2&#45;&gt;Node11 -->
<g id="edge20" class="edge"><title>Node2&#45;&gt;Node11</title>
<path fill="none" stroke="midnightblue" d="M586.021,-100.503C627.292,-105.662 677.173,-111.897 719.741,-117.218"/>
<polygon fill="midnightblue" stroke="midnightblue" points="719.472,-120.711 729.829,-118.479 720.341,-113.765 719.472,-120.711"/>
</g>
<!-- Node5 -->
<g id="node9" class="node"><title>Node5</title>
<a xlink:href="classZendDbSchema__Db__Schema__AbstractSchema.html#afda46eab0c365f4c9a743b7185c51d6c" target="_top" xlink:title="ZendDbSchema_Db_Schema_AbstractSchema\\getValidator">
<polygon fill="white" stroke="black" points="976.5,-40.5 976.5,-61.5 1255.5,-61.5 1255.5,-40.5 976.5,-40.5"/>
<text text-anchor="middle" x="1116" y="-48.5" font-family="Helvetica,sans-Serif" font-size="10.00">ZendDbSchema_Db_Schema_AbstractSchema\getValidator</text>
</a>
</g>
<!-- Node4&#45;&gt;Node5 -->
<g id="edge8" class="edge"><title>Node4&#45;&gt;Node5</title>
<path fill="none" stroke="midnightblue" d="M939.888,-51C948.497,-51 957.217,-51 965.933,-51"/>
<polygon fill="midnightblue" stroke="midnightblue" points="966.156,-54.5001 976.156,-51 966.156,-47.5001 966.156,-54.5001"/>
</g>
<!-- Node6 -->
<g id="node11" class="node"><title>Node6</title>
<a xlink:href="classZendDbSchema__Db__Schema__AbstractSchema.html#a47d95912f6bf6d26d023597887dafacb" target="_top" xlink:title="ZendDbSchema_Db_Schema_AbstractSchema\\getAdapter">
<polygon fill="white" stroke="black" points="1292.5,-40.5 1292.5,-61.5 1567.5,-61.5 1567.5,-40.5 1292.5,-40.5"/>
<text text-anchor="middle" x="1430" y="-48.5" font-family="Helvetica,sans-Serif" font-size="10.00">ZendDbSchema_Db_Schema_AbstractSchema\getAdapter</text>
</a>
</g>
<!-- Node5&#45;&gt;Node6 -->
<g id="edge10" class="edge"><title>Node5&#45;&gt;Node6</title>
<path fill="none" stroke="midnightblue" d="M1255.55,-51C1264.27,-51 1273.05,-51 1281.8,-51"/>
<polygon fill="midnightblue" stroke="midnightblue" points="1282.04,-54.5001 1292.04,-51 1282.04,-47.5001 1282.04,-54.5001"/>
</g>
<!-- Node7 -->
<g id="node13" class="node"><title>Node7</title>
<a xlink:href="classZendDbSchema__Db__Schema__AbstractSchema.html#a6349649e5e09d67a5b5e0abe96298db8" target="_top" xlink:title="ZendDbSchema_Db_Schema_AbstractSchema\\setAdapter">
<polygon fill="white" stroke="black" points="1604.5,-40.5 1604.5,-61.5 1879.5,-61.5 1879.5,-40.5 1604.5,-40.5"/>
<text text-anchor="middle" x="1742" y="-48.5" font-family="Helvetica,sans-Serif" font-size="10.00">ZendDbSchema_Db_Schema_AbstractSchema\setAdapter</text>
</a>
</g>
<!-- Node6&#45;&gt;Node7 -->
<g id="edge12" class="edge"><title>Node6&#45;&gt;Node7</title>
<path fill="none" stroke="midnightblue" d="M1567.76,-51C1576.44,-51 1585.2,-51 1593.92,-51"/>
<polygon fill="midnightblue" stroke="midnightblue" points="1594.14,-54.5001 1604.14,-51 1594.14,-47.5001 1594.14,-54.5001"/>
</g>
<!-- Node8 -->
<g id="node15" class="node"><title>Node8</title>
<a xlink:href="classZendDbSchema__Db__Schema__AbstractSchema.html#a53a1974dbc8822792a8d7b9c618d3a02" target="_top" xlink:title="ZendDbSchema_Db_Schema_AbstractSchema\\setGenerator">
<polygon fill="white" stroke="black" points="1916,-80.5 1916,-101.5 2200,-101.5 2200,-80.5 1916,-80.5"/>
<text text-anchor="middle" x="2058" y="-88.5" font-family="Helvetica,sans-Serif" font-size="10.00">ZendDbSchema_Db_Schema_AbstractSchema\setGenerator</text>
</a>
</g>
<!-- Node7&#45;&gt;Node8 -->
<g id="edge14" class="edge"><title>Node7&#45;&gt;Node8</title>
<path fill="none" stroke="midnightblue" d="M1825.03,-61.5095C1867.95,-66.9425 1920.48,-73.5919 1964.78,-79.2006"/>
<polygon fill="midnightblue" stroke="midnightblue" points="1964.62,-82.7077 1974.98,-80.4913 1965.5,-75.7631 1964.62,-82.7077"/>
</g>
<!-- Node9 -->
<g id="node17" class="node"><title>Node9</title>
<a xlink:href="classZendDbSchema__Db__Schema__AbstractSchema.html#aa0e6c9f8d58702dc41d988f064f62698" target="_top" xlink:title="ZendDbSchema_Db_Schema_AbstractSchema\\setParser">
<polygon fill="white" stroke="black" points="1923.5,-40.5 1923.5,-61.5 2192.5,-61.5 2192.5,-40.5 1923.5,-40.5"/>
<text text-anchor="middle" x="2058" y="-48.5" font-family="Helvetica,sans-Serif" font-size="10.00">ZendDbSchema_Db_Schema_AbstractSchema\setParser</text>
</a>
</g>
<!-- Node7&#45;&gt;Node9 -->
<g id="edge16" class="edge"><title>Node7&#45;&gt;Node9</title>
<path fill="none" stroke="midnightblue" d="M1879.68,-51C1890.76,-51 1901.98,-51 1913.1,-51"/>
<polygon fill="midnightblue" stroke="midnightblue" points="1913.29,-54.5001 1923.29,-51 1913.29,-47.5001 1913.29,-54.5001"/>
</g>
<!-- Node10 -->
<g id="node19" class="node"><title>Node10</title>
<a xlink:href="classZendDbSchema__Db__Schema__AbstractSchema.html#ac0161e2c24dafba8433fb86205a147fe" target="_top" xlink:title="ZendDbSchema_Db_Schema_AbstractSchema\\setValidator">
<polygon fill="white" stroke="black" points="1918.5,-0.5 1918.5,-21.5 2197.5,-21.5 2197.5,-0.5 1918.5,-0.5"/>
<text text-anchor="middle" x="2058" y="-8.5" font-family="Helvetica,sans-Serif" font-size="10.00">ZendDbSchema_Db_Schema_AbstractSchema\setValidator</text>
</a>
</g>
<!-- Node7&#45;&gt;Node10 -->
<g id="edge18" class="edge"><title>Node7&#45;&gt;Node10</title>
<path fill="none" stroke="midnightblue" d="M1825.03,-40.4905C1867.95,-35.0575 1920.48,-28.4081 1964.78,-22.7994"/>
<polygon fill="midnightblue" stroke="midnightblue" points="1965.5,-26.2369 1974.98,-21.5087 1964.62,-19.2923 1965.5,-26.2369"/>
</g>
<!-- Node11&#45;&gt;Node3 -->
<g id="edge22" class="edge"><title>Node11&#45;&gt;Node3</title>
<path fill="none" stroke="midnightblue" d="M939.888,-121.08C951.9,-120.324 964.131,-119.555 976.263,-118.791"/>
<polygon fill="midnightblue" stroke="midnightblue" points="976.664,-122.273 986.425,-118.152 976.225,-115.287 976.664,-122.273"/>
</g>
</g>
</svg>
