<?xml version="1.0" encoding="UTF-8" standalone="no"?>
<!DOCTYPE svg PUBLIC "-//W3C//DTD SVG 1.1//EN"
 "http://www.w3.org/Graphics/SVG/1.1/DTD/svg11.dtd">
<!-- Generated by graphviz version 2.26.3 (20100126.1600)
 -->
<!-- Title: G Pages: 1 -->
<svg width="498pt" height="150pt"
 viewBox="0.00 0.00 498.00 150.00" xmlns="http://www.w3.org/2000/svg" xmlns:xlink="http://www.w3.org/1999/xlink">
<g id="graph1" class="graph" transform="scale(1 1) rotate(0) translate(4 146)">
<title>G</title>
<polygon fill="white" stroke="white" points="-4,5 -4,-146 495,-146 495,5 -4,5"/>
<!-- Node1 -->
<g id="node1" class="node"><title>Node1</title>
<polygon fill="#bfbfbf" stroke="black" points="0,-60.5 0,-81.5 238,-81.5 238,-60.5 0,-60.5"/>
<text text-anchor="middle" x="119" y="-68.5" font-family="Helvetica,sans-Serif" font-size="10.00">ZendDbSchema_Db_Schema_Table\setFromArray</text>
</g>
<!-- Node2 -->
<g id="node3" class="node"><title>Node2</title>
<a xlink:href="classZendDbSchema__Db__Schema__Table.html#a214354faa96de67a26b787c2c8741850" target="_top" xlink:title="ZendDbSchema_Db_Schema_Table\\columns">
<polygon fill="white" stroke="black" points="274.5,-120.5 274.5,-141.5 489.5,-141.5 489.5,-120.5 274.5,-120.5"/>
<text text-anchor="middle" x="382" y="-128.5" font-family="Helvetica,sans-Serif" font-size="10.00">ZendDbSchema_Db_Schema_Table\columns</text>
</a>
</g>
<!-- Node1&#45;&gt;Node2 -->
<g id="edge2" class="edge"><title>Node1&#45;&gt;Node2</title>
<path fill="none" stroke="midnightblue" d="M156.725,-81.5182C188.003,-90.0498 233.705,-102.081 274,-111 285.973,-113.65 298.746,-116.231 311.161,-118.61"/>
<polygon fill="midnightblue" stroke="midnightblue" points="310.544,-122.055 321.019,-120.472 311.843,-115.177 310.544,-122.055"/>
</g>
<!-- Node3 -->
<g id="node5" class="node"><title>Node3</title>
<a xlink:href="classZendDbSchema__Db__Schema__Table.html#a47df29d95af8f655dd7506cfb649ec40" target="_top" xlink:title="ZendDbSchema_Db_Schema_Table\\indexes">
<polygon fill="white" stroke="black" points="276,-80.5 276,-101.5 488,-101.5 488,-80.5 276,-80.5"/>
<text text-anchor="middle" x="382" y="-88.5" font-family="Helvetica,sans-Serif" font-size="10.00">ZendDbSchema_Db_Schema_Table\indexes</text>
</a>
</g>
<!-- Node1&#45;&gt;Node3 -->
<g id="edge4" class="edge"><title>Node1&#45;&gt;Node3</title>
<path fill="none" stroke="midnightblue" d="M238.188,-80.0637C247.273,-80.7546 256.437,-81.4515 265.504,-82.141"/>
<polygon fill="midnightblue" stroke="midnightblue" points="265.455,-85.6472 275.691,-82.9157 265.985,-78.6674 265.455,-85.6472"/>
</g>
<!-- Node4 -->
<g id="node7" class="node"><title>Node4</title>
<a xlink:href="classZendDbSchema__Db__Schema__Table.html#acff371c2884c9688b5ede2deaf09f25c" target="_top" xlink:title="ZendDbSchema_Db_Schema_Table\\foreigns">
<polygon fill="white" stroke="black" points="275.5,-40.5 275.5,-61.5 488.5,-61.5 488.5,-40.5 275.5,-40.5"/>
<text text-anchor="middle" x="382" y="-48.5" font-family="Helvetica,sans-Serif" font-size="10.00">ZendDbSchema_Db_Schema_Table\foreigns</text>
</a>
</g>
<!-- Node1&#45;&gt;Node4 -->
<g id="edge6" class="edge"><title>Node1&#45;&gt;Node4</title>
<path fill="none" stroke="midnightblue" d="M238.188,-61.9363C247.174,-61.2529 256.237,-60.5637 265.208,-59.8815"/>
<polygon fill="midnightblue" stroke="midnightblue" points="265.583,-63.3632 275.289,-59.1149 265.052,-56.3834 265.583,-63.3632"/>
</g>
<!-- Node5 -->
<g id="node9" class="node"><title>Node5</title>
<a xlink:href="classZendDbSchema__Db__Schema__Table.html#a9d445dd6a92cc3a50aa6d8dad8395f0a" target="_top" xlink:title="ZendDbSchema_Db_Schema_Table\\primary">
<polygon fill="white" stroke="black" points="276.5,-0.5 276.5,-21.5 487.5,-21.5 487.5,-0.5 276.5,-0.5"/>
<text text-anchor="middle" x="382" y="-8.5" font-family="Helvetica,sans-Serif" font-size="10.00">ZendDbSchema_Db_Schema_Table\primary</text>
</a>
</g>
<!-- Node1&#45;&gt;Node5 -->
<g id="edge8" class="edge"><title>Node1&#45;&gt;Node5</title>
<path fill="none" stroke="midnightblue" d="M156.725,-60.4818C188.003,-51.9502 233.705,-39.9191 274,-31 285.973,-28.3498 298.746,-25.769 311.161,-23.39"/>
<polygon fill="midnightblue" stroke="midnightblue" points="311.843,-26.8233 321.019,-21.5279 310.544,-19.9449 311.843,-26.8233"/>
</g>
</g>
</svg>
