<?xml version="1.0" encoding="UTF-8" standalone="no"?>
<!DOCTYPE svg PUBLIC "-//W3C//DTD SVG 1.1//EN"
 "http://www.w3.org/Graphics/SVG/1.1/DTD/svg11.dtd">
<!-- Generated by graphviz version 2.26.3 (20100126.1600)
 -->
<!-- Title: G Pages: 1 -->
<svg width="1136pt" height="186pt"
 viewBox="0.00 0.00 1136.00 186.00" xmlns="http://www.w3.org/2000/svg" xmlns:xlink="http://www.w3.org/1999/xlink">
<g id="graph1" class="graph" transform="scale(1 1) rotate(0) translate(4 182)">
<title>G</title>
<polygon fill="white" stroke="white" points="-4,5 -4,-182 1133,-182 1133,5 -4,5"/>
<!-- Node1 -->
<g id="node1" class="node"><title>Node1</title>
<polygon fill="#bfbfbf" stroke="black" points="0,-79.5 0,-100.5 242,-100.5 242,-79.5 0,-79.5"/>
<text text-anchor="middle" x="121" y="-87.5" font-family="Helvetica,sans-Serif" font-size="10.00">ZendDbSchema_Db_Migration_Manager\getVersion</text>
</g>
<!-- Node2 -->
<g id="node3" class="node"><title>Node2</title>
<a xlink:href="classZendDbSchema__Db__Migration__Manager.html#a3f8150b5e2fc90623a10c7890af80185" target="_top" xlink:title="ZendDbSchema_Db_Migration_Manager\\compareVersion">
<polygon fill="white" stroke="black" points="562,-80.5 562,-101.5 828,-101.5 828,-80.5 562,-80.5"/>
<text text-anchor="middle" x="695" y="-88.5" font-family="Helvetica,sans-Serif" font-size="10.00">ZendDbSchema_Db_Migration_Manager\compareVersion</text>
</a>
</g>
<!-- Node1&#45;&gt;Node2 -->
<g id="edge2" class="edge"><title>Node1&#45;&gt;Node2</title>
<path fill="none" stroke="midnightblue" d="M252.038,-90.2283C344.759,-90.3898 468.672,-90.6057 561.86,-90.768"/>
<polygon fill="midnightblue" stroke="midnightblue" points="252.035,-86.7284 242.029,-90.2109 252.023,-93.7284 252.035,-86.7284"/>
</g>
<!-- Node5 -->
<g id="node9" class="node"><title>Node5</title>
<a xlink:href="classZendDbSchema__Db__Migration__Manager.html#a3d4f62489e72876f97bec3cd4448979d" target="_top" xlink:title="ZendDbSchema_Db_Migration_Manager\\getChange">
<polygon fill="white" stroke="black" points="280.5,-40.5 280.5,-61.5 523.5,-61.5 523.5,-40.5 280.5,-40.5"/>
<text text-anchor="middle" x="402" y="-48.5" font-family="Helvetica,sans-Serif" font-size="10.00">ZendDbSchema_Db_Migration_Manager\getChange</text>
</a>
</g>
<!-- Node1&#45;&gt;Node5 -->
<g id="edge8" class="edge"><title>Node1&#45;&gt;Node5</title>
<path fill="none" stroke="midnightblue" d="M206.726,-78.1021C244.834,-72.813 289.316,-66.6394 326.192,-61.5213"/>
<polygon fill="midnightblue" stroke="midnightblue" points="206.096,-74.6558 196.672,-79.4974 207.059,-81.5894 206.096,-74.6558"/>
</g>
<!-- Node8 -->
<g id="node16" class="node"><title>Node8</title>
<a xlink:href="classZendDbSchema__Db__Migration__Manager.html#a3acd09811b23c39aa97fed97b4012ac9" target="_top" xlink:title="ZendDbSchema_Db_Migration_Manager\\rolldown">
<polygon fill="white" stroke="black" points="579,-120.5 579,-141.5 811,-141.5 811,-120.5 579,-120.5"/>
<text text-anchor="middle" x="695" y="-128.5" font-family="Helvetica,sans-Serif" font-size="10.00">ZendDbSchema_Db_Migration_Manager\rolldown</text>
</a>
</g>
<!-- Node1&#45;&gt;Node8 -->
<g id="edge32" class="edge"><title>Node1&#45;&gt;Node8</title>
<path fill="none" stroke="midnightblue" d="M245.528,-101.383C256.507,-102.302 267.451,-103.188 278,-104 379.448,-111.806 494.898,-119.163 578.559,-124.22"/>
<polygon fill="midnightblue" stroke="midnightblue" points="245.705,-97.8858 235.446,-100.531 245.115,-104.861 245.705,-97.8858"/>
</g>
<!-- Node10 -->
<g id="node22" class="node"><title>Node10</title>
<a xlink:href="classZendDbSchema__Db__Migration__Manager.html#acb171835d37a1596a4ac6db273bf07ae" target="_top" xlink:title="ZendDbSchema_Db_Migration_Manager\\getNext">
<polygon fill="white" stroke="black" points="287,-0.5 287,-21.5 517,-21.5 517,-0.5 287,-0.5"/>
<text text-anchor="middle" x="402" y="-8.5" font-family="Helvetica,sans-Serif" font-size="10.00">ZendDbSchema_Db_Migration_Manager\getNext</text>
</a>
</g>
<!-- Node1&#45;&gt;Node10 -->
<g id="edge24" class="edge"><title>Node1&#45;&gt;Node10</title>
<path fill="none" stroke="midnightblue" d="M153.993,-75.3917C185.336,-62.0477 234.069,-42.672 278,-31 292.015,-27.2764 307.116,-24.1378 321.793,-21.5315"/>
<polygon fill="midnightblue" stroke="midnightblue" points="152.259,-72.3277 144.456,-79.4949 155.025,-78.7579 152.259,-72.3277"/>
</g>
<!-- Node11 -->
<g id="node25" class="node"><title>Node11</title>
<a xlink:href="classZendDbSchema__Db__Migration__Manager.html#a3e9a5dfa3447c5eb1b4bbcc8817549c3" target="_top" xlink:title="ZendDbSchema_Db_Migration_Manager\\getPrevious">
<polygon fill="white" stroke="black" points="278,-156.5 278,-177.5 526,-177.5 526,-156.5 278,-156.5"/>
<text text-anchor="middle" x="402" y="-164.5" font-family="Helvetica,sans-Serif" font-size="10.00">ZendDbSchema_Db_Migration_Manager\getPrevious</text>
</a>
</g>
<!-- Node1&#45;&gt;Node11 -->
<g id="edge28" class="edge"><title>Node1&#45;&gt;Node11</title>
<path fill="none" stroke="midnightblue" d="M159.042,-104.037C190.599,-115.331 236.805,-131.068 278,-142 298.802,-147.52 321.849,-152.478 342.374,-156.494"/>
<polygon fill="midnightblue" stroke="midnightblue" points="159.931,-100.636 149.336,-100.537 157.557,-107.221 159.931,-100.636"/>
</g>
<!-- Node3 -->
<g id="node5" class="node"><title>Node3</title>
<a xlink:href="classZendDbSchema__Db__Migration__Manager.html#a265c3edbe064cb4a34289b505046768a" target="_top" xlink:title="ZendDbSchema_Db_Migration_Manager\\down">
<polygon fill="white" stroke="black" points="886.5,-100.5 886.5,-121.5 1105.5,-121.5 1105.5,-100.5 886.5,-100.5"/>
<text text-anchor="middle" x="996" y="-108.5" font-family="Helvetica,sans-Serif" font-size="10.00">ZendDbSchema_Db_Migration_Manager\down</text>
</a>
</g>
<!-- Node2&#45;&gt;Node3 -->
<g id="edge4" class="edge"><title>Node2&#45;&gt;Node3</title>
<path fill="none" stroke="midnightblue" d="M838.338,-100.524C854.433,-101.594 870.637,-102.67 886.212,-103.705"/>
<polygon fill="midnightblue" stroke="midnightblue" points="838.548,-97.0304 828.337,-99.8596 838.083,-104.015 838.548,-97.0304"/>
</g>
<!-- Node4 -->
<g id="node7" class="node"><title>Node4</title>
<a xlink:href="classZendDbSchema__Db__Migration__Manager.html#a260901608e7ed2fb5ffef1bf8387e2e9" target="_top" xlink:title="ZendDbSchema_Db_Migration_Manager\\up">
<polygon fill="white" stroke="black" points="893,-0.5 893,-21.5 1099,-21.5 1099,-0.5 893,-0.5"/>
<text text-anchor="middle" x="996" y="-8.5" font-family="Helvetica,sans-Serif" font-size="10.00">ZendDbSchema_Db_Migration_Manager\up</text>
</a>
</g>
<!-- Node2&#45;&gt;Node4 -->
<g id="edge6" class="edge"><title>Node2&#45;&gt;Node4</title>
<path fill="none" stroke="midnightblue" d="M815.433,-76.8963C819.753,-75.1333 823.958,-73.1747 828,-71 849.062,-59.6675 842.944,-42.3443 864,-31 872.978,-26.1628 882.77,-22.3976 892.829,-19.4788"/>
<polygon fill="midnightblue" stroke="midnightblue" points="813.98,-73.702 805.813,-80.451 816.406,-80.2681 813.98,-73.702"/>
</g>
<!-- Node5&#45;&gt;Node2 -->
<g id="edge10" class="edge"><title>Node5&#45;&gt;Node2</title>
<path fill="none" stroke="midnightblue" d="M488.956,-62.8711C529.931,-68.465 578.395,-75.0813 618.024,-80.4913"/>
<polygon fill="midnightblue" stroke="midnightblue" points="489.364,-59.3944 478.982,-61.5095 488.417,-66.3301 489.364,-59.3944"/>
</g>
<!-- Node6 -->
<g id="node12" class="node"><title>Node6</title>
<a xlink:href="classZendDbSchema__Db__Migration__Manager.html#a87a8f6699a75e4b89a0657ae0999203b" target="_top" xlink:title="ZendDbSchema_Db_Migration_Manager\\isDirty">
<polygon fill="white" stroke="black" points="583,-40.5 583,-61.5 807,-61.5 807,-40.5 583,-40.5"/>
<text text-anchor="middle" x="695" y="-48.5" font-family="Helvetica,sans-Serif" font-size="10.00">ZendDbSchema_Db_Migration_Manager\isDirty</text>
</a>
</g>
<!-- Node5&#45;&gt;Node6 -->
<g id="edge12" class="edge"><title>Node5&#45;&gt;Node6</title>
<path fill="none" stroke="midnightblue" d="M533.812,-51C550.094,-51 566.621,-51 582.576,-51"/>
<polygon fill="midnightblue" stroke="midnightblue" points="533.713,-47.5001 523.713,-51 533.713,-54.5001 533.713,-47.5001"/>
</g>
<!-- Node5&#45;&gt;Node8 -->
<g id="edge16" class="edge"><title>Node5&#45;&gt;Node8</title>
<path fill="none" stroke="midnightblue" d="M434.633,-65.5489C466.516,-79.206 516.72,-99.2444 562,-111 576.464,-114.755 592.009,-117.883 607.19,-120.462"/>
<polygon fill="midnightblue" stroke="midnightblue" points="435.92,-62.2922 425.353,-61.5316 433.139,-68.7162 435.92,-62.2922"/>
</g>
<!-- Node9 -->
<g id="node19" class="node"><title>Node9</title>
<a xlink:href="classZendDbSchema__Db__Migration__Manager.html#afbaee9196407b68350626e8601a44a9a" target="_top" xlink:title="ZendDbSchema_Db_Migration_Manager\\rollup">
<polygon fill="white" stroke="black" points="585.5,-0.5 585.5,-21.5 804.5,-21.5 804.5,-0.5 585.5,-0.5"/>
<text text-anchor="middle" x="695" y="-8.5" font-family="Helvetica,sans-Serif" font-size="10.00">ZendDbSchema_Db_Migration_Manager\rollup</text>
</a>
</g>
<!-- Node5&#45;&gt;Node9 -->
<g id="edge20" class="edge"><title>Node5&#45;&gt;Node9</title>
<path fill="none" stroke="midnightblue" d="M488.956,-39.1289C529.931,-33.535 578.395,-26.9187 618.024,-21.5087"/>
<polygon fill="midnightblue" stroke="midnightblue" points="488.417,-35.6699 478.982,-40.4905 489.364,-42.6056 488.417,-35.6699"/>
</g>
<!-- Node7 -->
<g id="node14" class="node"><title>Node7</title>
<a xlink:href="classZendDbSchema__Tool__Project__Provider__Migration.html#a6818e8df15f087c869ed9edf28d97f1f" target="_top" xlink:title="ZendDbSchema_Tool_Project_Provider_Migration\\status">
<polygon fill="white" stroke="black" points="864.5,-40.5 864.5,-61.5 1127.5,-61.5 1127.5,-40.5 864.5,-40.5"/>
<text text-anchor="middle" x="996" y="-48.5" font-family="Helvetica,sans-Serif" font-size="10.00">ZendDbSchema_Tool_Project_Provider_Migration\status</text>
</a>
</g>
<!-- Node6&#45;&gt;Node7 -->
<g id="edge14" class="edge"><title>Node6&#45;&gt;Node7</title>
<path fill="none" stroke="midnightblue" d="M817.202,-51C832.705,-51 848.624,-51 864.268,-51"/>
<polygon fill="midnightblue" stroke="midnightblue" points="817.081,-47.5001 807.081,-51 817.081,-54.5001 817.081,-47.5001"/>
</g>
<!-- Node8&#45;&gt;Node3 -->
<g id="edge18" class="edge"><title>Node8&#45;&gt;Node3</title>
<path fill="none" stroke="midnightblue" d="M821.55,-122.591C843.088,-121.16 865.297,-119.685 886.352,-118.286"/>
<polygon fill="midnightblue" stroke="midnightblue" points="821.12,-119.112 811.374,-123.267 821.585,-126.097 821.12,-119.112"/>
</g>
<!-- Node9&#45;&gt;Node4 -->
<g id="edge22" class="edge"><title>Node9&#45;&gt;Node4</title>
<path fill="none" stroke="midnightblue" d="M814.706,-11C840.472,-11 867.496,-11 892.579,-11"/>
<polygon fill="midnightblue" stroke="midnightblue" points="814.519,-7.5001 804.519,-11 814.519,-14.5001 814.519,-7.5001"/>
</g>
<!-- Node10&#45;&gt;Node9 -->
<g id="edge26" class="edge"><title>Node10&#45;&gt;Node9</title>
<path fill="none" stroke="midnightblue" d="M527.425,-11C546.732,-11 566.539,-11 585.465,-11"/>
<polygon fill="midnightblue" stroke="midnightblue" points="527.381,-7.5001 517.381,-11 527.381,-14.5001 527.381,-7.5001"/>
</g>
<!-- Node11&#45;&gt;Node8 -->
<g id="edge30" class="edge"><title>Node11&#45;&gt;Node8</title>
<path fill="none" stroke="midnightblue" d="M497.562,-155.259C533.584,-150.833 574.299,-145.83 609.358,-141.523"/>
<polygon fill="midnightblue" stroke="midnightblue" points="497.034,-151.797 487.535,-156.491 497.888,-158.745 497.034,-151.797"/>
</g>
</g>
</svg>
