<?xml version="1.0" encoding="UTF-8" standalone="no"?>
<!DOCTYPE svg PUBLIC "-//W3C//DTD SVG 1.1//EN"
 "http://www.w3.org/Graphics/SVG/1.1/DTD/svg11.dtd">
<!-- Generated by graphviz version 2.26.3 (20100126.1600)
 -->
<!-- Title: G Pages: 1 -->
<svg width="956pt" height="70pt"
 viewBox="0.00 0.00 956.00 70.00" xmlns="http://www.w3.org/2000/svg" xmlns:xlink="http://www.w3.org/1999/xlink">
<g id="graph1" class="graph" transform="scale(1 1) rotate(0) translate(4 66)">
<title>G</title>
<polygon fill="white" stroke="white" points="-4,5 -4,-66 953,-66 953,5 -4,5"/>
<!-- Node1 -->
<g id="node1" class="node"><title>Node1</title>
<polygon fill="#bfbfbf" stroke="black" points="0.5,-20.5 0.5,-41.5 303.5,-41.5 303.5,-20.5 0.5,-20.5"/>
<text text-anchor="middle" x="152" y="-28.5" font-family="Helvetica,sans-Serif" font-size="10.00">ZendDbSchema_Db_Schema_Table_AbstractDefinition\isDeleted</text>
</g>
<!-- Node2 -->
<g id="node3" class="node"><title>Node2</title>
<a xlink:href="classZendDbSchema__Db__Schema__Table__AbstractDefinition.html#a92b77fa23ce49db1c39edcc583ec6cfe" target="_top" xlink:title="ZendDbSchema_Db_Schema_Table_AbstractDefinition\\isDirty">
<polygon fill="white" stroke="black" points="340,-40.5 340,-61.5 630,-61.5 630,-40.5 340,-40.5"/>
<text text-anchor="middle" x="485" y="-48.5" font-family="Helvetica,sans-Serif" font-size="10.00">ZendDbSchema_Db_Schema_Table_AbstractDefinition\isDirty</text>
</a>
</g>
<!-- Node1&#45;&gt;Node2 -->
<g id="edge2" class="edge"><title>Node1&#45;&gt;Node2</title>
<path fill="none" stroke="midnightblue" d="M314.033,-40.7317C322.69,-41.2517 331.363,-41.7726 339.959,-42.2888"/>
<polygon fill="midnightblue" stroke="midnightblue" points="314.075,-37.228 303.883,-40.1221 313.655,-44.2154 314.075,-37.228"/>
</g>
<!-- Node4 -->
<g id="node7" class="node"><title>Node4</title>
<a xlink:href="classZendDbSchema__Db__Schema__Table__AbstractDefinition.html#a75c1b3ef1005c2d6aa371ecef07d530d" target="_top" xlink:title="ZendDbSchema_Db_Schema_Table_AbstractDefinition\\toSql">
<polygon fill="white" stroke="black" points="343,-0.5 343,-21.5 627,-21.5 627,-0.5 343,-0.5"/>
<text text-anchor="middle" x="485" y="-8.5" font-family="Helvetica,sans-Serif" font-size="10.00">ZendDbSchema_Db_Schema_Table_AbstractDefinition\toSql</text>
</a>
</g>
<!-- Node1&#45;&gt;Node4 -->
<g id="edge6" class="edge"><title>Node1&#45;&gt;Node4</title>
<path fill="none" stroke="midnightblue" d="M313.918,-21.2752C323.56,-20.6961 333.222,-20.1158 342.775,-19.542"/>
<polygon fill="midnightblue" stroke="midnightblue" points="313.655,-17.7846 303.883,-21.8779 314.075,-24.772 313.655,-17.7846"/>
</g>
<!-- Node3 -->
<g id="node5" class="node"><title>Node3</title>
<a xlink:href="classZendDbSchema__Db__Schema__Generator__Mysql.html#a57a5e637e2c19faee40597d96d6b71b3" target="_top" xlink:title="ZendDbSchema_Db_Schema_Generator_Mysql\\alterColumn">
<polygon fill="white" stroke="black" points="666.5,-40.5 666.5,-61.5 947.5,-61.5 947.5,-40.5 666.5,-40.5"/>
<text text-anchor="middle" x="807" y="-48.5" font-family="Helvetica,sans-Serif" font-size="10.00">ZendDbSchema_Db_Schema_Generator_Mysql\alterColumn</text>
</a>
</g>
<!-- Node2&#45;&gt;Node3 -->
<g id="edge4" class="edge"><title>Node2&#45;&gt;Node3</title>
<path fill="none" stroke="midnightblue" d="M640.461,-51C648.998,-51 657.554,-51 666.036,-51"/>
<polygon fill="midnightblue" stroke="midnightblue" points="640.456,-47.5001 630.456,-51 640.456,-54.5001 640.456,-47.5001"/>
</g>
</g>
</svg>
