<?xml version="1.0" encoding="UTF-8" standalone="no"?>
<!DOCTYPE svg PUBLIC "-//W3C//DTD SVG 1.1//EN"
 "http://www.w3.org/Graphics/SVG/1.1/DTD/svg11.dtd">
<!-- Generated by graphviz version 2.26.3 (20100126.1600)
 -->
<!-- Title: G Pages: 1 -->
<svg width="762pt" height="150pt"
 viewBox="0.00 0.00 762.00 150.00" xmlns="http://www.w3.org/2000/svg" xmlns:xlink="http://www.w3.org/1999/xlink">
<g id="graph1" class="graph" transform="scale(1 1) rotate(0) translate(4 146)">
<title>G</title>
<polygon fill="white" stroke="white" points="-4,5 -4,-146 759,-146 759,5 -4,5"/>
<!-- Node1 -->
<g id="node1" class="node"><title>Node1</title>
<polygon fill="#bfbfbf" stroke="black" points="0,-60.5 0,-81.5 352,-81.5 352,-60.5 0,-60.5"/>
<text text-anchor="middle" x="176" y="-68.5" font-family="Helvetica,sans-Serif" font-size="10.00">ZendDbSchema_Db_Schema_Table_Manager_AbstractManager\__construct</text>
</g>
<!-- Node2 -->
<g id="node3" class="node"><title>Node2</title>
<a xlink:href="classZendDbSchema__Db__Schema__Table__Manager__AbstractManager.html#a2772bff0f798fb0be284a8e92d47a39e" target="_top" xlink:title="ZendDbSchema_Db_Schema_Table_Manager_AbstractManager\\refresh">
<polygon fill="white" stroke="black" points="405.5,-120.5 405.5,-141.5 736.5,-141.5 736.5,-120.5 405.5,-120.5"/>
<text text-anchor="middle" x="571" y="-128.5" font-family="Helvetica,sans-Serif" font-size="10.00">ZendDbSchema_Db_Schema_Table_Manager_AbstractManager\refresh</text>
</a>
</g>
<!-- Node1&#45;&gt;Node2 -->
<g id="edge2" class="edge"><title>Node1&#45;&gt;Node2</title>
<path fill="none" stroke="midnightblue" d="M225.931,-81.5551C268.774,-90.3393 332.244,-102.706 388,-111 408.604,-114.065 430.579,-116.866 451.891,-119.338"/>
<polygon fill="midnightblue" stroke="midnightblue" points="451.626,-122.83 461.958,-120.488 452.42,-115.876 451.626,-122.83"/>
</g>
<!-- Node3 -->
<g id="node5" class="node"><title>Node3</title>
<a xlink:href="classZendDbSchema__Db__Schema__Table__Manager__AbstractManager.html#a3e39282b74553f4021edf3224450cdd3" target="_top" xlink:title="ZendDbSchema_Db_Schema_Table_Manager_AbstractManager\\_getItemClass">
<polygon fill="white" stroke="black" points="388.5,-80.5 388.5,-101.5 753.5,-101.5 753.5,-80.5 388.5,-80.5"/>
<text text-anchor="middle" x="571" y="-88.5" font-family="Helvetica,sans-Serif" font-size="10.00">ZendDbSchema_Db_Schema_Table_Manager_AbstractManager\_getItemClass</text>
</a>
</g>
<!-- Node1&#45;&gt;Node3 -->
<g id="edge4" class="edge"><title>Node1&#45;&gt;Node3</title>
<path fill="none" stroke="midnightblue" d="M352.129,-79.9179C360.779,-80.3559 369.484,-80.7967 378.178,-81.2369"/>
<polygon fill="midnightblue" stroke="midnightblue" points="378.21,-84.7428 388.374,-81.7531 378.564,-77.7518 378.21,-84.7428"/>
</g>
<!-- Node4 -->
<g id="node7" class="node"><title>Node4</title>
<a xlink:href="classZendDbSchema__Db__Schema__Table__Manager__AbstractManager.html#ac96e8e5950ad6ff3387a51340d17e719" target="_top" xlink:title="ZendDbSchema_Db_Schema_Table_Manager_AbstractManager\\has">
<polygon fill="white" stroke="black" points="412.5,-40.5 412.5,-61.5 729.5,-61.5 729.5,-40.5 412.5,-40.5"/>
<text text-anchor="middle" x="571" y="-48.5" font-family="Helvetica,sans-Serif" font-size="10.00">ZendDbSchema_Db_Schema_Table_Manager_AbstractManager\has</text>
</a>
</g>
<!-- Node1&#45;&gt;Node4 -->
<g id="edge6" class="edge"><title>Node1&#45;&gt;Node4</title>
<path fill="none" stroke="midnightblue" d="M352.129,-62.0821C368.74,-61.241 385.555,-60.3896 402.096,-59.5521"/>
<polygon fill="midnightblue" stroke="midnightblue" points="402.546,-63.0339 412.356,-59.0326 402.192,-56.0428 402.546,-63.0339"/>
</g>
<!-- Node5 -->
<g id="node9" class="node"><title>Node5</title>
<a xlink:href="classZendDbSchema__Db__Schema__Table__Manager__AbstractManager.html#a9a073bd54ea481e89f7a67f850269c43" target="_top" xlink:title="ZendDbSchema_Db_Schema_Table_Manager_AbstractManager\\add">
<polygon fill="white" stroke="black" points="412.5,-0.5 412.5,-21.5 729.5,-21.5 729.5,-0.5 412.5,-0.5"/>
<text text-anchor="middle" x="571" y="-8.5" font-family="Helvetica,sans-Serif" font-size="10.00">ZendDbSchema_Db_Schema_Table_Manager_AbstractManager\add</text>
</a>
</g>
<!-- Node1&#45;&gt;Node5 -->
<g id="edge8" class="edge"><title>Node1&#45;&gt;Node5</title>
<path fill="none" stroke="midnightblue" d="M225.931,-60.4449C268.774,-51.6607 332.244,-39.294 388,-31 408.604,-27.935 430.579,-25.1343 451.891,-22.662"/>
<polygon fill="midnightblue" stroke="midnightblue" points="452.42,-26.1244 461.958,-21.5123 451.626,-19.1696 452.42,-26.1244"/>
</g>
</g>
</svg>
