<?xml version="1.0" encoding="UTF-8" standalone="no"?>
<!DOCTYPE svg PUBLIC "-//W3C//DTD SVG 1.1//EN"
 "http://www.w3.org/Graphics/SVG/1.1/DTD/svg11.dtd">
<!-- Generated by graphviz version 2.26.3 (20100126.1600)
 -->
<!-- Title: G Pages: 1 -->
<svg width="770pt" height="116pt"
 viewBox="0.00 0.00 770.00 116.00" xmlns="http://www.w3.org/2000/svg" xmlns:xlink="http://www.w3.org/1999/xlink">
<g id="graph1" class="graph" transform="scale(1 1) rotate(0) translate(4 112)">
<title>G</title>
<polygon fill="white" stroke="white" points="-4,5 -4,-112 767,-112 767,5 -4,5"/>
<!-- Node1 -->
<g id="node1" class="node"><title>Node1</title>
<polygon fill="#bfbfbf" stroke="black" points="0,-26 0,-60 156,-60 156,-26 0,-26"/>
<text text-anchor="start" x="8" y="-47" font-family="Helvetica,sans-Serif" font-size="10.00">ZendDbSchema_Db_Schema</text>
<text text-anchor="middle" x="78" y="-34" font-family="Helvetica,sans-Serif" font-size="10.00">_Table_PrimaryKey\__construct</text>
</g>
<!-- Node2 -->
<g id="node3" class="node"><title>Node2</title>
<a xlink:href="classZendDbSchema__Db__Schema__AbstractSchema.html#a84673a5d69f10fec5b31294bf53f6d56" target="_top" xlink:title="ZendDbSchema_Db_Schema\l_AbstractSchema\\refresh">
<polygon fill="white" stroke="black" points="192,-52 192,-86 338,-86 338,-52 192,-52"/>
<text text-anchor="start" x="200" y="-73" font-family="Helvetica,sans-Serif" font-size="10.00">ZendDbSchema_Db_Schema</text>
<text text-anchor="middle" x="265" y="-60" font-family="Helvetica,sans-Serif" font-size="10.00">_AbstractSchema\refresh</text>
</a>
</g>
<!-- Node1&#45;&gt;Node2 -->
<g id="edge2" class="edge"><title>Node1&#45;&gt;Node2</title>
<path fill="none" stroke="midnightblue" d="M156.221,-53.8757C164.71,-55.0559 173.371,-56.2601 181.914,-57.448"/>
<polygon fill="midnightblue" stroke="midnightblue" points="181.486,-60.922 191.872,-58.8325 182.45,-53.9887 181.486,-60.922"/>
</g>
<!-- Node7 -->
<g id="node14" class="node"><title>Node7</title>
<a xlink:href="classZendDbSchema__Db__Schema__AbstractSchema.html#abdb3f6e9b394b51512ce1567bb252b63" target="_top" xlink:title="ZendDbSchema_Db_Schema\l_AbstractSchema\\init">
<polygon fill="white" stroke="black" points="192,-0 192,-34 338,-34 338,-0 192,-0"/>
<text text-anchor="start" x="200" y="-21" font-family="Helvetica,sans-Serif" font-size="10.00">ZendDbSchema_Db_Schema</text>
<text text-anchor="middle" x="265" y="-8" font-family="Helvetica,sans-Serif" font-size="10.00">_AbstractSchema\init</text>
</a>
</g>
<!-- Node1&#45;&gt;Node7 -->
<g id="edge14" class="edge"><title>Node1&#45;&gt;Node7</title>
<path fill="none" stroke="midnightblue" d="M156.221,-32.1243C164.71,-30.9441 173.371,-29.7399 181.914,-28.552"/>
<polygon fill="midnightblue" stroke="midnightblue" points="182.45,-32.0113 191.872,-27.1675 181.486,-25.078 182.45,-32.0113"/>
</g>
<!-- Node3 -->
<g id="node5" class="node"><title>Node3</title>
<a xlink:href="classZendDbSchema__Db__Schema__AbstractSchema.html#ab4282a1fd6f4d9f23d01de8328072c71" target="_top" xlink:title="ZendDbSchema_Db_Schema\l_AbstractSchema\\__set">
<polygon fill="white" stroke="black" points="600,-74 600,-108 746,-108 746,-74 600,-74"/>
<text text-anchor="start" x="608" y="-95" font-family="Helvetica,sans-Serif" font-size="10.00">ZendDbSchema_Db_Schema</text>
<text text-anchor="middle" x="673" y="-82" font-family="Helvetica,sans-Serif" font-size="10.00">_AbstractSchema\__set</text>
</a>
</g>
<!-- Node2&#45;&gt;Node3 -->
<g id="edge4" class="edge"><title>Node2&#45;&gt;Node3</title>
<path fill="none" stroke="midnightblue" d="M325.371,-86.0562C341.073,-89.7585 358.06,-93.1252 374,-95 446.5,-103.527 529.565,-101.48 589.715,-97.9022"/>
<polygon fill="midnightblue" stroke="midnightblue" points="590.154,-101.382 599.917,-97.2676 589.719,-94.3952 590.154,-101.382"/>
</g>
<!-- Node4 -->
<g id="node7" class="node"><title>Node4</title>
<a xlink:href="classZendDbSchema__Db__Schema__AbstractSchema.html#a46da7a60c7e5fd605607afbc1dac4baa" target="_top" xlink:title="ZendDbSchema_Db_Schema\l_AbstractSchema\\getCleanSchema">
<polygon fill="white" stroke="black" points="374.5,-0 374.5,-34 547.5,-34 547.5,-0 374.5,-0"/>
<text text-anchor="start" x="382.5" y="-21" font-family="Helvetica,sans-Serif" font-size="10.00">ZendDbSchema_Db_Schema</text>
<text text-anchor="middle" x="461" y="-8" font-family="Helvetica,sans-Serif" font-size="10.00">_AbstractSchema\getCleanSchema</text>
</a>
</g>
<!-- Node2&#45;&gt;Node4 -->
<g id="edge6" class="edge"><title>Node2&#45;&gt;Node4</title>
<path fill="none" stroke="midnightblue" d="M329.178,-51.9733C347.622,-47.08 367.887,-41.7033 386.879,-36.6647"/>
<polygon fill="midnightblue" stroke="midnightblue" points="387.91,-40.0124 396.678,-34.065 386.115,-33.2465 387.91,-40.0124"/>
</g>
<!-- Node6 -->
<g id="node11" class="node"><title>Node6</title>
<a xlink:href="classZendDbSchema__Db__Schema__AbstractSchema.html#acd81590f02c831ff4c4a442c5cf47074" target="_top" xlink:title="ZendDbSchema_Db_Schema\l_AbstractSchema\\setFromArray">
<polygon fill="white" stroke="black" points="382.5,-52 382.5,-86 539.5,-86 539.5,-52 382.5,-52"/>
<text text-anchor="start" x="390.5" y="-73" font-family="Helvetica,sans-Serif" font-size="10.00">ZendDbSchema_Db_Schema</text>
<text text-anchor="middle" x="461" y="-60" font-family="Helvetica,sans-Serif" font-size="10.00">_AbstractSchema\setFromArray</text>
</a>
</g>
<!-- Node2&#45;&gt;Node6 -->
<g id="edge10" class="edge"><title>Node2&#45;&gt;Node6</title>
<path fill="none" stroke="midnightblue" d="M338.262,-69C349.251,-69 360.683,-69 371.957,-69"/>
<polygon fill="midnightblue" stroke="midnightblue" points="372.248,-72.5001 382.248,-69 372.248,-65.5001 372.248,-72.5001"/>
</g>
<!-- Node5 -->
<g id="node9" class="node"><title>Node5</title>
<a xlink:href="classZendDbSchema__Db__Schema__AbstractSchema.html#af99e5bb9adfe0da8c94d3d3848efe7b5" target="_top" xlink:title="ZendDbSchema_Db_Schema\l_AbstractSchema\\_getCleanSchema">
<polygon fill="white" stroke="black" points="584,-0 584,-34 762,-34 762,-0 584,-0"/>
<text text-anchor="start" x="592" y="-21" font-family="Helvetica,sans-Serif" font-size="10.00">ZendDbSchema_Db_Schema</text>
<text text-anchor="middle" x="673" y="-8" font-family="Helvetica,sans-Serif" font-size="10.00">_AbstractSchema\_getCleanSchema</text>
</a>
</g>
<!-- Node4&#45;&gt;Node5 -->
<g id="edge8" class="edge"><title>Node4&#45;&gt;Node5</title>
<path fill="none" stroke="midnightblue" d="M547.534,-17C556.175,-17 564.994,-17 573.752,-17"/>
<polygon fill="midnightblue" stroke="midnightblue" points="573.99,-20.5001 583.99,-17 573.99,-13.5001 573.99,-20.5001"/>
</g>
<!-- Node6&#45;&gt;Node3 -->
<g id="edge12" class="edge"><title>Node6&#45;&gt;Node3</title>
<path fill="none" stroke="midnightblue" d="M539.64,-77.1607C555.936,-78.8519 573.159,-80.6392 589.619,-82.3472"/>
<polygon fill="midnightblue" stroke="midnightblue" points="589.446,-85.848 599.753,-83.3989 590.168,-78.8854 589.446,-85.848"/>
</g>
</g>
</svg>
