<?xml version="1.0" encoding="UTF-8" standalone="no"?>
<!DOCTYPE svg PUBLIC "-//W3C//DTD SVG 1.1//EN"
 "http://www.w3.org/Graphics/SVG/1.1/DTD/svg11.dtd">
<!-- Generated by graphviz version 2.26.3 (20100126.1600)
 -->
<!-- Title: G Pages: 1 -->
<svg width="1552pt" height="110pt"
 viewBox="0.00 0.00 1552.00 110.00" xmlns="http://www.w3.org/2000/svg" xmlns:xlink="http://www.w3.org/1999/xlink">
<g id="graph1" class="graph" transform="scale(1 1) rotate(0) translate(4 106)">
<title>G</title>
<polygon fill="white" stroke="white" points="-4,5 -4,-106 1549,-106 1549,5 -4,5"/>
<!-- Node1 -->
<g id="node1" class="node"><title>Node1</title>
<polygon fill="#bfbfbf" stroke="black" points="0.5,-40.5 0.5,-61.5 279.5,-61.5 279.5,-40.5 0.5,-40.5"/>
<text text-anchor="middle" x="140" y="-48.5" font-family="Helvetica,sans-Serif" font-size="10.00">ZendDbSchema_Db_Schema_Table_Column\_getDeleteSql</text>
</g>
<!-- Node2 -->
<g id="node3" class="node"><title>Node2</title>
<a xlink:href="classZendDbSchema__Db__Schema__AbstractSchema.html#a5696bfca3324b0dfbdf3c10d224f5759" target="_top" xlink:title="ZendDbSchema_Db_Schema_AbstractSchema\\getGenerator">
<polygon fill="white" stroke="black" points="316,-40.5 316,-61.5 600,-61.5 600,-40.5 316,-40.5"/>
<text text-anchor="middle" x="458" y="-48.5" font-family="Helvetica,sans-Serif" font-size="10.00">ZendDbSchema_Db_Schema_AbstractSchema\getGenerator</text>
</a>
</g>
<!-- Node1&#45;&gt;Node2 -->
<g id="edge2" class="edge"><title>Node1&#45;&gt;Node2</title>
<path fill="none" stroke="midnightblue" d="M279.942,-51C288.506,-51 297.144,-51 305.755,-51"/>
<polygon fill="midnightblue" stroke="midnightblue" points="305.846,-54.5001 315.846,-51 305.846,-47.5001 305.846,-54.5001"/>
</g>
<!-- Node3 -->
<g id="node5" class="node"><title>Node3</title>
<a xlink:href="classZendDbSchema__Db__Schema__AbstractSchema.html#a47d95912f6bf6d26d023597887dafacb" target="_top" xlink:title="ZendDbSchema_Db_Schema_AbstractSchema\\getAdapter">
<polygon fill="white" stroke="black" points="636.5,-40.5 636.5,-61.5 911.5,-61.5 911.5,-40.5 636.5,-40.5"/>
<text text-anchor="middle" x="774" y="-48.5" font-family="Helvetica,sans-Serif" font-size="10.00">ZendDbSchema_Db_Schema_AbstractSchema\getAdapter</text>
</a>
</g>
<!-- Node2&#45;&gt;Node3 -->
<g id="edge4" class="edge"><title>Node2&#45;&gt;Node3</title>
<path fill="none" stroke="midnightblue" d="M600.285,-51C608.88,-51 617.538,-51 626.156,-51"/>
<polygon fill="midnightblue" stroke="midnightblue" points="626.247,-54.5001 636.247,-51 626.247,-47.5001 626.247,-54.5001"/>
</g>
<!-- Node4 -->
<g id="node7" class="node"><title>Node4</title>
<a xlink:href="classZendDbSchema__Db__Schema__AbstractSchema.html#a6349649e5e09d67a5b5e0abe96298db8" target="_top" xlink:title="ZendDbSchema_Db_Schema_AbstractSchema\\setAdapter">
<polygon fill="white" stroke="black" points="948.5,-40.5 948.5,-61.5 1223.5,-61.5 1223.5,-40.5 948.5,-40.5"/>
<text text-anchor="middle" x="1086" y="-48.5" font-family="Helvetica,sans-Serif" font-size="10.00">ZendDbSchema_Db_Schema_AbstractSchema\setAdapter</text>
</a>
</g>
<!-- Node3&#45;&gt;Node4 -->
<g id="edge6" class="edge"><title>Node3&#45;&gt;Node4</title>
<path fill="none" stroke="midnightblue" d="M911.756,-51C920.438,-51 929.197,-51 937.923,-51"/>
<polygon fill="midnightblue" stroke="midnightblue" points="938.145,-54.5001 948.145,-51 938.145,-47.5001 938.145,-54.5001"/>
</g>
<!-- Node5 -->
<g id="node9" class="node"><title>Node5</title>
<a xlink:href="classZendDbSchema__Db__Schema__AbstractSchema.html#a53a1974dbc8822792a8d7b9c618d3a02" target="_top" xlink:title="ZendDbSchema_Db_Schema_AbstractSchema\\setGenerator">
<polygon fill="white" stroke="black" points="1260,-80.5 1260,-101.5 1544,-101.5 1544,-80.5 1260,-80.5"/>
<text text-anchor="middle" x="1402" y="-88.5" font-family="Helvetica,sans-Serif" font-size="10.00">ZendDbSchema_Db_Schema_AbstractSchema\setGenerator</text>
</a>
</g>
<!-- Node4&#45;&gt;Node5 -->
<g id="edge8" class="edge"><title>Node4&#45;&gt;Node5</title>
<path fill="none" stroke="midnightblue" d="M1169.03,-61.5095C1211.95,-66.9425 1264.48,-73.5919 1308.78,-79.2006"/>
<polygon fill="midnightblue" stroke="midnightblue" points="1308.62,-82.7077 1318.98,-80.4913 1309.5,-75.7631 1308.62,-82.7077"/>
</g>
<!-- Node6 -->
<g id="node11" class="node"><title>Node6</title>
<a xlink:href="classZendDbSchema__Db__Schema__AbstractSchema.html#aa0e6c9f8d58702dc41d988f064f62698" target="_top" xlink:title="ZendDbSchema_Db_Schema_AbstractSchema\\setParser">
<polygon fill="white" stroke="black" points="1267.5,-40.5 1267.5,-61.5 1536.5,-61.5 1536.5,-40.5 1267.5,-40.5"/>
<text text-anchor="middle" x="1402" y="-48.5" font-family="Helvetica,sans-Serif" font-size="10.00">ZendDbSchema_Db_Schema_AbstractSchema\setParser</text>
</a>
</g>
<!-- Node4&#45;&gt;Node6 -->
<g id="edge10" class="edge"><title>Node4&#45;&gt;Node6</title>
<path fill="none" stroke="midnightblue" d="M1223.68,-51C1234.76,-51 1245.98,-51 1257.1,-51"/>
<polygon fill="midnightblue" stroke="midnightblue" points="1257.29,-54.5001 1267.29,-51 1257.29,-47.5001 1257.29,-54.5001"/>
</g>
<!-- Node7 -->
<g id="node13" class="node"><title>Node7</title>
<a xlink:href="classZendDbSchema__Db__Schema__AbstractSchema.html#ac0161e2c24dafba8433fb86205a147fe" target="_top" xlink:title="ZendDbSchema_Db_Schema_AbstractSchema\\setValidator">
<polygon fill="white" stroke="black" points="1262.5,-0.5 1262.5,-21.5 1541.5,-21.5 1541.5,-0.5 1262.5,-0.5"/>
<text text-anchor="middle" x="1402" y="-8.5" font-family="Helvetica,sans-Serif" font-size="10.00">ZendDbSchema_Db_Schema_AbstractSchema\setValidator</text>
</a>
</g>
<!-- Node4&#45;&gt;Node7 -->
<g id="edge12" class="edge"><title>Node4&#45;&gt;Node7</title>
<path fill="none" stroke="midnightblue" d="M1169.03,-40.4905C1211.95,-35.0575 1264.48,-28.4081 1308.78,-22.7994"/>
<polygon fill="midnightblue" stroke="midnightblue" points="1309.5,-26.2369 1318.98,-21.5087 1308.62,-19.2923 1309.5,-26.2369"/>
</g>
</g>
</svg>
