<?xml version="1.0" encoding="UTF-8" standalone="no"?>
<!DOCTYPE svg PUBLIC "-//W3C//DTD SVG 1.1//EN"
 "http://www.w3.org/Graphics/SVG/1.1/DTD/svg11.dtd">
<!-- Generated by graphviz version 2.26.3 (20100126.1600)
 -->
<!-- Title: G Pages: 1 -->
<svg width="1228pt" height="150pt"
 viewBox="0.00 0.00 1228.00 150.00" xmlns="http://www.w3.org/2000/svg" xmlns:xlink="http://www.w3.org/1999/xlink">
<g id="graph1" class="graph" transform="scale(1 1) rotate(0) translate(4 146)">
<title>G</title>
<polygon fill="white" stroke="white" points="-4,5 -4,-146 1225,-146 1225,5 -4,5"/>
<!-- Node1 -->
<g id="node1" class="node"><title>Node1</title>
<polygon fill="#bfbfbf" stroke="black" points="0,-60.5 0,-81.5 276,-81.5 276,-60.5 0,-60.5"/>
<text text-anchor="middle" x="138" y="-68.5" font-family="Helvetica,sans-Serif" font-size="10.00">ZendDbSchema_Db_Schema_Table_Manager_Column\add</text>
</g>
<!-- Node2 -->
<g id="node3" class="node"><title>Node2</title>
<a xlink:href="classZendDbSchema__Db__Schema__Table__Manager__Column.html#a37d284cbaad16050989650cd4c1c6bbe" target="_top" xlink:title="ZendDbSchema_Db_Schema_Table_Manager_Column\\_getItemClass">
<polygon fill="white" stroke="black" points="312,-120.5 312,-141.5 636,-141.5 636,-120.5 312,-120.5"/>
<text text-anchor="middle" x="474" y="-128.5" font-family="Helvetica,sans-Serif" font-size="10.00">ZendDbSchema_Db_Schema_Table_Manager_Column\_getItemClass</text>
</a>
</g>
<!-- Node1&#45;&gt;Node2 -->
<g id="edge2" class="edge"><title>Node1&#45;&gt;Node2</title>
<path fill="none" stroke="midnightblue" d="M178.54,-81.5687C213.651,-90.4214 265.906,-102.879 312,-111 329.031,-114.001 347.147,-116.707 364.864,-119.089"/>
<polygon fill="midnightblue" stroke="midnightblue" points="364.867,-122.62 375.238,-120.454 365.78,-115.68 364.867,-122.62"/>
</g>
<!-- Node3 -->
<g id="node5" class="node"><title>Node3</title>
<a xlink:href="classZendDbSchema__Db__Schema__AbstractSchema.html#a55787c21deddba427842809d589c2df6" target="_top" xlink:title="ZendDbSchema_Db_Schema_AbstractSchema\\getName">
<polygon fill="white" stroke="black" points="340.5,-80.5 340.5,-101.5 607.5,-101.5 607.5,-80.5 340.5,-80.5"/>
<text text-anchor="middle" x="474" y="-88.5" font-family="Helvetica,sans-Serif" font-size="10.00">ZendDbSchema_Db_Schema_AbstractSchema\getName</text>
</a>
</g>
<!-- Node1&#45;&gt;Node3 -->
<g id="edge4" class="edge"><title>Node1&#45;&gt;Node3</title>
<path fill="none" stroke="midnightblue" d="M276.119,-79.2213C293.98,-80.2845 312.308,-81.3754 330.257,-82.4439"/>
<polygon fill="midnightblue" stroke="midnightblue" points="330.289,-85.9519 340.479,-83.0523 330.705,-78.9643 330.289,-85.9519"/>
</g>
<!-- Node6 -->
<g id="node11" class="node"><title>Node6</title>
<a xlink:href="classZendDbSchema__Db__Schema__Table__Manager__AbstractManager.html#ac96e8e5950ad6ff3387a51340d17e719" target="_top" xlink:title="ZendDbSchema_Db_Schema_Table_Manager_AbstractManager\\has">
<polygon fill="white" stroke="black" points="315.5,-40.5 315.5,-61.5 632.5,-61.5 632.5,-40.5 315.5,-40.5"/>
<text text-anchor="middle" x="474" y="-48.5" font-family="Helvetica,sans-Serif" font-size="10.00">ZendDbSchema_Db_Schema_Table_Manager_AbstractManager\has</text>
</a>
</g>
<!-- Node1&#45;&gt;Node6 -->
<g id="edge10" class="edge"><title>Node1&#45;&gt;Node6</title>
<path fill="none" stroke="midnightblue" d="M276.119,-62.7787C285.724,-62.2069 295.464,-61.6272 305.207,-61.0472"/>
<polygon fill="midnightblue" stroke="midnightblue" points="305.582,-64.5312 315.356,-60.4431 305.166,-57.5435 305.582,-64.5312"/>
</g>
<!-- Node7 -->
<g id="node13" class="node"><title>Node7</title>
<a xlink:href="classZendDbSchema__Db__Schema__AbstractSchema.html#adacb1417b461310c5c87f72c459c1985" target="_top" xlink:title="ZendDbSchema_Db_Schema_AbstractSchema\\getOriginName">
<polygon fill="white" stroke="black" points="327.5,-0.5 327.5,-21.5 620.5,-21.5 620.5,-0.5 327.5,-0.5"/>
<text text-anchor="middle" x="474" y="-8.5" font-family="Helvetica,sans-Serif" font-size="10.00">ZendDbSchema_Db_Schema_AbstractSchema\getOriginName</text>
</a>
</g>
<!-- Node1&#45;&gt;Node7 -->
<g id="edge12" class="edge"><title>Node1&#45;&gt;Node7</title>
<path fill="none" stroke="midnightblue" d="M178.54,-60.4313C213.651,-51.5786 265.906,-39.1212 312,-31 329.031,-27.9994 347.147,-25.2929 364.864,-22.9107"/>
<polygon fill="midnightblue" stroke="midnightblue" points="365.78,-26.3205 375.238,-21.5459 364.867,-19.3803 365.78,-26.3205"/>
</g>
<!-- Node4 -->
<g id="node7" class="node"><title>Node4</title>
<a xlink:href="classZendDbSchema__Db__Schema__AbstractSchema.html#a54d32c6f15463eaad2321a9f0e7225d7" target="_top" xlink:title="ZendDbSchema_Db_Schema_AbstractSchema\\__get">
<polygon fill="white" stroke="black" points="672.5,-40.5 672.5,-61.5 923.5,-61.5 923.5,-40.5 672.5,-40.5"/>
<text text-anchor="middle" x="798" y="-48.5" font-family="Helvetica,sans-Serif" font-size="10.00">ZendDbSchema_Db_Schema_AbstractSchema\__get</text>
</a>
</g>
<!-- Node3&#45;&gt;Node4 -->
<g id="edge6" class="edge"><title>Node3&#45;&gt;Node4</title>
<path fill="none" stroke="midnightblue" d="M559.127,-80.4905C603.227,-75.046 657.221,-68.3801 702.712,-62.764"/>
<polygon fill="midnightblue" stroke="midnightblue" points="703.384,-66.2077 712.879,-61.5087 702.526,-59.2604 703.384,-66.2077"/>
</g>
<!-- Node5 -->
<g id="node9" class="node"><title>Node5</title>
<a xlink:href="classZendDbSchema__Db__Schema__AbstractSchema.html#ac4e121ba7932163eb1950fabe06fb9db" target="_top" xlink:title="ZendDbSchema_Db_Schema_AbstractSchema\\__isset">
<polygon fill="white" stroke="black" points="960.5,-40.5 960.5,-61.5 1219.5,-61.5 1219.5,-40.5 960.5,-40.5"/>
<text text-anchor="middle" x="1090" y="-48.5" font-family="Helvetica,sans-Serif" font-size="10.00">ZendDbSchema_Db_Schema_AbstractSchema\__isset</text>
</a>
</g>
<!-- Node4&#45;&gt;Node5 -->
<g id="edge8" class="edge"><title>Node4&#45;&gt;Node5</title>
<path fill="none" stroke="midnightblue" d="M923.529,-51C932.401,-51 941.376,-51 950.32,-51"/>
<polygon fill="midnightblue" stroke="midnightblue" points="950.397,-54.5001 960.397,-51 950.397,-47.5001 950.397,-54.5001"/>
</g>
<!-- Node7&#45;&gt;Node4 -->
<g id="edge14" class="edge"><title>Node7&#45;&gt;Node4</title>
<path fill="none" stroke="midnightblue" d="M559.127,-21.5095C603.227,-26.954 657.221,-33.6199 702.712,-39.236"/>
<polygon fill="midnightblue" stroke="midnightblue" points="702.526,-42.7396 712.879,-40.4913 703.384,-35.7923 702.526,-42.7396"/>
</g>
</g>
</svg>
