<?xml version="1.0" encoding="UTF-8" standalone="no"?>
<!DOCTYPE svg PUBLIC "-//W3C//DTD SVG 1.1//EN"
 "http://www.w3.org/Graphics/SVG/1.1/DTD/svg11.dtd">
<!-- Generated by graphviz version 2.26.3 (20100126.1600)
 -->
<!-- Title: G Pages: 1 -->
<svg width="1224pt" height="70pt"
 viewBox="0.00 0.00 1224.00 70.00" xmlns="http://www.w3.org/2000/svg" xmlns:xlink="http://www.w3.org/1999/xlink">
<g id="graph1" class="graph" transform="scale(1 1) rotate(0) translate(4 66)">
<title>G</title>
<polygon fill="white" stroke="white" points="-4,5 -4,-66 1221,-66 1221,5 -4,5"/>
<!-- Node1 -->
<g id="node1" class="node"><title>Node1</title>
<polygon fill="#bfbfbf" stroke="black" points="0,-20.5 0,-41.5 296,-41.5 296,-20.5 0,-20.5"/>
<text text-anchor="middle" x="148" y="-28.5" font-family="Helvetica,sans-Serif" font-size="10.00">ZendDbSchema_Db_Schema_Generator_Mysql\addPrimaryKey</text>
</g>
<!-- Node2 -->
<g id="node3" class="node"><title>Node2</title>
<a xlink:href="classZendDbSchema__Db__Schema__Table__PrimaryKey.html#a228207d6e07e3ab95b8b25415077a6a1" target="_top" xlink:title="ZendDbSchema_Db_Schema_Table_PrimaryKey\\getColumns">
<polygon fill="white" stroke="black" points="338.5,-40.5 338.5,-61.5 625.5,-61.5 625.5,-40.5 338.5,-40.5"/>
<text text-anchor="middle" x="482" y="-48.5" font-family="Helvetica,sans-Serif" font-size="10.00">ZendDbSchema_Db_Schema_Table_PrimaryKey\getColumns</text>
</a>
</g>
<!-- Node1&#45;&gt;Node2 -->
<g id="edge2" class="edge"><title>Node1&#45;&gt;Node2</title>
<path fill="none" stroke="midnightblue" d="M296.442,-39.8888C307.005,-40.5212 317.667,-41.1597 328.258,-41.7939"/>
<polygon fill="midnightblue" stroke="midnightblue" points="328.194,-45.2962 338.385,-42.4003 328.612,-38.3087 328.194,-45.2962"/>
</g>
<!-- Node5 -->
<g id="node9" class="node"><title>Node5</title>
<a xlink:href="classZendDbSchema__Db__Schema__Table__AbstractDefinition.html#a224b6a0c1df1d6ed40e03657782ef6fc" target="_top" xlink:title="ZendDbSchema_Db_Schema_Table_AbstractDefinition\\getTable">
<polygon fill="white" stroke="black" points="332.5,-0.5 332.5,-21.5 631.5,-21.5 631.5,-0.5 332.5,-0.5"/>
<text text-anchor="middle" x="482" y="-8.5" font-family="Helvetica,sans-Serif" font-size="10.00">ZendDbSchema_Db_Schema_Table_AbstractDefinition\getTable</text>
</a>
</g>
<!-- Node1&#45;&gt;Node5 -->
<g id="edge8" class="edge"><title>Node1&#45;&gt;Node5</title>
<path fill="none" stroke="midnightblue" d="M296.442,-22.1112C305.02,-21.5976 313.664,-21.08 322.282,-20.5639"/>
<polygon fill="midnightblue" stroke="midnightblue" points="322.609,-24.0507 332.382,-19.9592 322.19,-17.0633 322.609,-24.0507"/>
</g>
<!-- Node3 -->
<g id="node5" class="node"><title>Node3</title>
<a xlink:href="classZendDbSchema__Db__Schema__AbstractSchema.html#a54d32c6f15463eaad2321a9f0e7225d7" target="_top" xlink:title="ZendDbSchema_Db_Schema_AbstractSchema\\__get">
<polygon fill="white" stroke="black" points="668.5,-40.5 668.5,-61.5 919.5,-61.5 919.5,-40.5 668.5,-40.5"/>
<text text-anchor="middle" x="794" y="-48.5" font-family="Helvetica,sans-Serif" font-size="10.00">ZendDbSchema_Db_Schema_AbstractSchema\__get</text>
</a>
</g>
<!-- Node2&#45;&gt;Node3 -->
<g id="edge4" class="edge"><title>Node2&#45;&gt;Node3</title>
<path fill="none" stroke="midnightblue" d="M625.672,-51C636.458,-51 647.324,-51 658.061,-51"/>
<polygon fill="midnightblue" stroke="midnightblue" points="658.309,-54.5001 668.309,-51 658.309,-47.5001 658.309,-54.5001"/>
</g>
<!-- Node4 -->
<g id="node7" class="node"><title>Node4</title>
<a xlink:href="classZendDbSchema__Db__Schema__AbstractSchema.html#ac4e121ba7932163eb1950fabe06fb9db" target="_top" xlink:title="ZendDbSchema_Db_Schema_AbstractSchema\\__isset">
<polygon fill="white" stroke="black" points="956.5,-40.5 956.5,-61.5 1215.5,-61.5 1215.5,-40.5 956.5,-40.5"/>
<text text-anchor="middle" x="1086" y="-48.5" font-family="Helvetica,sans-Serif" font-size="10.00">ZendDbSchema_Db_Schema_AbstractSchema\__isset</text>
</a>
</g>
<!-- Node3&#45;&gt;Node4 -->
<g id="edge6" class="edge"><title>Node3&#45;&gt;Node4</title>
<path fill="none" stroke="midnightblue" d="M919.529,-51C928.401,-51 937.376,-51 946.32,-51"/>
<polygon fill="midnightblue" stroke="midnightblue" points="946.397,-54.5001 956.397,-51 946.397,-47.5001 946.397,-54.5001"/>
</g>
</g>
</svg>
