<?xml version="1.0" encoding="UTF-8" standalone="no"?>
<!DOCTYPE svg PUBLIC "-//W3C//DTD SVG 1.1//EN"
 "http://www.w3.org/Graphics/SVG/1.1/DTD/svg11.dtd">
<!-- Generated by graphviz version 2.26.3 (20100126.1600)
 -->
<!-- Title: G Pages: 1 -->
<svg width="900pt" height="30pt"
 viewBox="0.00 0.00 900.00 30.00" xmlns="http://www.w3.org/2000/svg" xmlns:xlink="http://www.w3.org/1999/xlink">
<g id="graph1" class="graph" transform="scale(1 1) rotate(0) translate(4 26)">
<title>G</title>
<polygon fill="white" stroke="white" points="-4,5 -4,-26 897,-26 897,5 -4,5"/>
<!-- Node1 -->
<g id="node1" class="node"><title>Node1</title>
<polygon fill="#bfbfbf" stroke="black" points="0,-0.5 0,-21.5 250,-21.5 250,-0.5 0,-0.5"/>
<text text-anchor="middle" x="125" y="-8.5" font-family="Helvetica,sans-Serif" font-size="10.00">ZendDbSchema_Db_Migration_Skeleton\getFilename</text>
</g>
<!-- Node2 -->
<g id="node3" class="node"><title>Node2</title>
<a xlink:href="classZendDbSchema__Tool__Project__Provider__Migration.html#a01f328a7b171f989907b86ab88a070df" target="_top" xlink:title="ZendDbSchema_Tool_Project_Provider_Migration\\createResource">
<polygon fill="white" stroke="black" points="286.5,-0.5 286.5,-21.5 591.5,-21.5 591.5,-0.5 286.5,-0.5"/>
<text text-anchor="middle" x="439" y="-8.5" font-family="Helvetica,sans-Serif" font-size="10.00">ZendDbSchema_Tool_Project_Provider_Migration\createResource</text>
</a>
</g>
<!-- Node1&#45;&gt;Node2 -->
<g id="edge2" class="edge"><title>Node1&#45;&gt;Node2</title>
<path fill="none" stroke="midnightblue" d="M260.159,-11C268.852,-11 277.636,-11 286.401,-11"/>
<polygon fill="midnightblue" stroke="midnightblue" points="260.003,-7.5001 250.003,-11 260.003,-14.5001 260.003,-7.5001"/>
</g>
<!-- Node3 -->
<g id="node5" class="node"><title>Node3</title>
<a xlink:href="classZendDbSchema__Tool__Project__Provider__Migration.html#a50a6e8f60a7d71a74883b26797fa9f25" target="_top" xlink:title="ZendDbSchema_Tool_Project_Provider_Migration\\create">
<polygon fill="white" stroke="black" points="628.5,-0.5 628.5,-21.5 891.5,-21.5 891.5,-0.5 628.5,-0.5"/>
<text text-anchor="middle" x="760" y="-8.5" font-family="Helvetica,sans-Serif" font-size="10.00">ZendDbSchema_Tool_Project_Provider_Migration\create</text>
</a>
</g>
<!-- Node2&#45;&gt;Node3 -->
<g id="edge4" class="edge"><title>Node2&#45;&gt;Node3</title>
<path fill="none" stroke="midnightblue" d="M601.602,-11C610.544,-11 619.477,-11 628.29,-11"/>
<polygon fill="midnightblue" stroke="midnightblue" points="601.509,-7.5001 591.509,-11 601.509,-14.5001 601.509,-7.5001"/>
</g>
</g>
</svg>
