<?xml version="1.0" encoding="UTF-8" standalone="no"?>
<!DOCTYPE svg PUBLIC "-//W3C//DTD SVG 1.1//EN"
 "http://www.w3.org/Graphics/SVG/1.1/DTD/svg11.dtd">
<!-- Generated by graphviz version 2.26.3 (20100126.1600)
 -->
<!-- Title: G Pages: 1 -->
<svg width="1768pt" height="70pt"
 viewBox="0.00 0.00 1768.00 70.00" xmlns="http://www.w3.org/2000/svg" xmlns:xlink="http://www.w3.org/1999/xlink">
<g id="graph1" class="graph" transform="scale(1 1) rotate(0) translate(4 66)">
<title>G</title>
<polygon fill="white" stroke="white" points="-4,5 -4,-66 1765,-66 1765,5 -4,5"/>
<!-- Node1 -->
<g id="node1" class="node"><title>Node1</title>
<polygon fill="#bfbfbf" stroke="black" points="0.5,-20.5 0.5,-41.5 261.5,-41.5 261.5,-20.5 0.5,-20.5"/>
<text text-anchor="middle" x="131" y="-28.5" font-family="Helvetica,sans-Serif" font-size="10.00">ZendDbSchema_Db_Schema_AbstractEntity\__wakeup</text>
</g>
<!-- Node2 -->
<g id="node3" class="node"><title>Node2</title>
<a xlink:href="classZendDbSchema__Db__Schema__AbstractEntity.html#aa35a80275bd3c811dd8ad39835a985a9" target="_top" xlink:title="ZendDbSchema_Db_Schema_AbstractEntity\\reload">
<polygon fill="white" stroke="black" points="298.5,-20.5 298.5,-41.5 541.5,-41.5 541.5,-20.5 298.5,-20.5"/>
<text text-anchor="middle" x="420" y="-28.5" font-family="Helvetica,sans-Serif" font-size="10.00">ZendDbSchema_Db_Schema_AbstractEntity\reload</text>
</a>
</g>
<!-- Node1&#45;&gt;Node2 -->
<g id="edge2" class="edge"><title>Node1&#45;&gt;Node2</title>
<path fill="none" stroke="midnightblue" d="M261.549,-31C270.461,-31 279.444,-31 288.362,-31"/>
<polygon fill="midnightblue" stroke="midnightblue" points="288.395,-34.5001 298.395,-31 288.395,-27.5001 288.395,-34.5001"/>
</g>
<!-- Node3 -->
<g id="node5" class="node"><title>Node3</title>
<a xlink:href="classZendDbSchema__Db__Schema__AbstractSchema.html#adacb1417b461310c5c87f72c459c1985" target="_top" xlink:title="ZendDbSchema_Db_Schema_AbstractSchema\\getOriginName">
<polygon fill="white" stroke="black" points="578.5,-40.5 578.5,-61.5 871.5,-61.5 871.5,-40.5 578.5,-40.5"/>
<text text-anchor="middle" x="725" y="-48.5" font-family="Helvetica,sans-Serif" font-size="10.00">ZendDbSchema_Db_Schema_AbstractSchema\getOriginName</text>
</a>
</g>
<!-- Node2&#45;&gt;Node3 -->
<g id="edge4" class="edge"><title>Node2&#45;&gt;Node3</title>
<path fill="none" stroke="midnightblue" d="M541.859,-38.9908C550.599,-39.5639 559.48,-40.1462 568.379,-40.7298"/>
<polygon fill="midnightblue" stroke="midnightblue" points="568.22,-44.2268 578.428,-41.3887 568.678,-37.2418 568.22,-44.2268"/>
</g>
<!-- Node7 -->
<g id="node13" class="node"><title>Node7</title>
<a xlink:href="classZendDbSchema__Db__Schema__AbstractEntity.html#ab317ba1e66cc14d78922314962f7d0ff" target="_top" xlink:title="ZendDbSchema_Db_Schema_AbstractEntity\\_doReload">
<polygon fill="white" stroke="black" points="593.5,-0.5 593.5,-21.5 856.5,-21.5 856.5,-0.5 593.5,-0.5"/>
<text text-anchor="middle" x="725" y="-8.5" font-family="Helvetica,sans-Serif" font-size="10.00">ZendDbSchema_Db_Schema_AbstractEntity\_doReload</text>
</a>
</g>
<!-- Node2&#45;&gt;Node7 -->
<g id="edge12" class="edge"><title>Node2&#45;&gt;Node7</title>
<path fill="none" stroke="midnightblue" d="M541.859,-23.0092C555.478,-22.1162 569.437,-21.2009 583.277,-20.2933"/>
<polygon fill="midnightblue" stroke="midnightblue" points="583.578,-23.7812 593.327,-19.6343 583.119,-16.7962 583.578,-23.7812"/>
</g>
<!-- Node4 -->
<g id="node7" class="node"><title>Node4</title>
<a xlink:href="classZendDbSchema__Db__Schema__AbstractSchema.html#a55787c21deddba427842809d589c2df6" target="_top" xlink:title="ZendDbSchema_Db_Schema_AbstractSchema\\getName">
<polygon fill="white" stroke="black" points="908.5,-40.5 908.5,-61.5 1175.5,-61.5 1175.5,-40.5 908.5,-40.5"/>
<text text-anchor="middle" x="1042" y="-48.5" font-family="Helvetica,sans-Serif" font-size="10.00">ZendDbSchema_Db_Schema_AbstractSchema\getName</text>
</a>
</g>
<!-- Node3&#45;&gt;Node4 -->
<g id="edge6" class="edge"><title>Node3&#45;&gt;Node4</title>
<path fill="none" stroke="midnightblue" d="M871.9,-51C880.631,-51 889.408,-51 898.127,-51"/>
<polygon fill="midnightblue" stroke="midnightblue" points="898.327,-54.5001 908.327,-51 898.327,-47.5001 898.327,-54.5001"/>
</g>
<!-- Node5 -->
<g id="node9" class="node"><title>Node5</title>
<a xlink:href="classZendDbSchema__Db__Schema__AbstractSchema.html#a54d32c6f15463eaad2321a9f0e7225d7" target="_top" xlink:title="ZendDbSchema_Db_Schema_AbstractSchema\\__get">
<polygon fill="white" stroke="black" points="1212.5,-40.5 1212.5,-61.5 1463.5,-61.5 1463.5,-40.5 1212.5,-40.5"/>
<text text-anchor="middle" x="1338" y="-48.5" font-family="Helvetica,sans-Serif" font-size="10.00">ZendDbSchema_Db_Schema_AbstractSchema\__get</text>
</a>
</g>
<!-- Node4&#45;&gt;Node5 -->
<g id="edge8" class="edge"><title>Node4&#45;&gt;Node5</title>
<path fill="none" stroke="midnightblue" d="M1175.71,-51C1184.41,-51 1193.18,-51 1201.89,-51"/>
<polygon fill="midnightblue" stroke="midnightblue" points="1202.08,-54.5001 1212.08,-51 1202.08,-47.5001 1202.08,-54.5001"/>
</g>
<!-- Node6 -->
<g id="node11" class="node"><title>Node6</title>
<a xlink:href="classZendDbSchema__Db__Schema__AbstractSchema.html#ac4e121ba7932163eb1950fabe06fb9db" target="_top" xlink:title="ZendDbSchema_Db_Schema_AbstractSchema\\__isset">
<polygon fill="white" stroke="black" points="1500.5,-40.5 1500.5,-61.5 1759.5,-61.5 1759.5,-40.5 1500.5,-40.5"/>
<text text-anchor="middle" x="1630" y="-48.5" font-family="Helvetica,sans-Serif" font-size="10.00">ZendDbSchema_Db_Schema_AbstractSchema\__isset</text>
</a>
</g>
<!-- Node5&#45;&gt;Node6 -->
<g id="edge10" class="edge"><title>Node5&#45;&gt;Node6</title>
<path fill="none" stroke="midnightblue" d="M1463.53,-51C1472.4,-51 1481.38,-51 1490.32,-51"/>
<polygon fill="midnightblue" stroke="midnightblue" points="1490.4,-54.5001 1500.4,-51 1490.4,-47.5001 1490.4,-54.5001"/>
</g>
</g>
</svg>
