<?xml version="1.0" encoding="UTF-8" standalone="no"?>
<!DOCTYPE svg PUBLIC "-//W3C//DTD SVG 1.1//EN"
 "http://www.w3.org/Graphics/SVG/1.1/DTD/svg11.dtd">
<!-- Generated by graphviz version 2.26.3 (20100126.1600)
 -->
<!-- Title: G Pages: 1 -->
<svg width="866pt" height="70pt"
 viewBox="0.00 0.00 866.00 70.00" xmlns="http://www.w3.org/2000/svg" xmlns:xlink="http://www.w3.org/1999/xlink">
<g id="graph1" class="graph" transform="scale(1 1) rotate(0) translate(4 66)">
<title>G</title>
<polygon fill="white" stroke="white" points="-4,5 -4,-66 863,-66 863,5 -4,5"/>
<!-- Node1 -->
<g id="node1" class="node"><title>Node1</title>
<polygon fill="#bfbfbf" stroke="black" points="0,-20.5 0,-41.5 246,-41.5 246,-20.5 0,-20.5"/>
<text text-anchor="middle" x="123" y="-28.5" font-family="Helvetica,sans-Serif" font-size="10.00">ZendDbSchema_Db_Schema_AbstractEntity\isValid</text>
</g>
<!-- Node2 -->
<g id="node3" class="node"><title>Node2</title>
<a xlink:href="classZendDbSchema__Db__Schema__AbstractEntity.html#a8a351350714cc32bf14e6e9464a156a6" target="_top" xlink:title="ZendDbSchema_Db_Schema_AbstractEntity\\getValidator">
<polygon fill="white" stroke="black" points="282.5,-20.5 282.5,-41.5 551.5,-41.5 551.5,-20.5 282.5,-20.5"/>
<text text-anchor="middle" x="417" y="-28.5" font-family="Helvetica,sans-Serif" font-size="10.00">ZendDbSchema_Db_Schema_AbstractEntity\getValidator</text>
</a>
</g>
<!-- Node1&#45;&gt;Node2 -->
<g id="edge2" class="edge"><title>Node1&#45;&gt;Node2</title>
<path fill="none" stroke="midnightblue" d="M246.405,-31C254.875,-31 263.454,-31 272.023,-31"/>
<polygon fill="midnightblue" stroke="midnightblue" points="272.071,-34.5001 282.071,-31 272.071,-27.5001 272.071,-34.5001"/>
</g>
<!-- Node3 -->
<g id="node5" class="node"><title>Node3</title>
<a xlink:href="classZendDbSchema__Db__Schema__AbstractEntity.html#ad6dfc39cc6d92633fd92170db18c9573" target="_top" xlink:title="ZendDbSchema_Db_Schema_AbstractEntity\\getAdapter">
<polygon fill="white" stroke="black" points="591,-40.5 591,-61.5 855,-61.5 855,-40.5 591,-40.5"/>
<text text-anchor="middle" x="723" y="-48.5" font-family="Helvetica,sans-Serif" font-size="10.00">ZendDbSchema_Db_Schema_AbstractEntity\getAdapter</text>
</a>
</g>
<!-- Node2&#45;&gt;Node3 -->
<g id="edge4" class="edge"><title>Node2&#45;&gt;Node3</title>
<path fill="none" stroke="midnightblue" d="M551.661,-39.8014C561.301,-40.4314 571.039,-41.0679 580.719,-41.7006"/>
<polygon fill="midnightblue" stroke="midnightblue" points="580.573,-45.1984 590.78,-42.3582 581.029,-38.2133 580.573,-45.1984"/>
</g>
<!-- Node4 -->
<g id="node7" class="node"><title>Node4</title>
<a xlink:href="classZendDbSchema__Db__Schema__AbstractEntity.html#a4e1ecaacf160f0f990958cfe6ab7b37c" target="_top" xlink:title="ZendDbSchema_Db_Schema_AbstractEntity\\setValidator">
<polygon fill="white" stroke="black" points="588.5,-0.5 588.5,-21.5 857.5,-21.5 857.5,-0.5 588.5,-0.5"/>
<text text-anchor="middle" x="723" y="-8.5" font-family="Helvetica,sans-Serif" font-size="10.00">ZendDbSchema_Db_Schema_AbstractEntity\setValidator</text>
</a>
</g>
<!-- Node2&#45;&gt;Node4 -->
<g id="edge6" class="edge"><title>Node2&#45;&gt;Node4</title>
<path fill="none" stroke="midnightblue" d="M551.661,-22.1986C560.515,-21.6199 569.452,-21.0358 578.352,-20.4541"/>
<polygon fill="midnightblue" stroke="midnightblue" points="578.627,-23.9437 588.377,-19.7989 578.17,-16.9586 578.627,-23.9437"/>
</g>
</g>
</svg>
