<?xml version="1.0" encoding="UTF-8" standalone="no"?>
<!DOCTYPE svg PUBLIC "-//W3C//DTD SVG 1.1//EN"
 "http://www.w3.org/Graphics/SVG/1.1/DTD/svg11.dtd">
<!-- Generated by graphviz version 2.26.3 (20100126.1600)
 -->
<!-- Title: G Pages: 1 -->
<svg width="836pt" height="30pt"
 viewBox="0.00 0.00 836.00 30.00" xmlns="http://www.w3.org/2000/svg" xmlns:xlink="http://www.w3.org/1999/xlink">
<g id="graph1" class="graph" transform="scale(1 1) rotate(0) translate(4 26)">
<title>G</title>
<polygon fill="white" stroke="white" points="-4,5 -4,-26 833,-26 833,5 -4,5"/>
<!-- Node1 -->
<g id="node1" class="node"><title>Node1</title>
<polygon fill="#bfbfbf" stroke="black" points="0.5,-0.5 0.5,-21.5 279.5,-21.5 279.5,-0.5 0.5,-0.5"/>
<text text-anchor="middle" x="140" y="-8.5" font-family="Helvetica,sans-Serif" font-size="10.00">ZendDbSchema_Db_Schema_AbstractEntity\_getCreateSql</text>
</g>
<!-- Node2 -->
<g id="node3" class="node"><title>Node2</title>
<a xlink:href="classZendDbSchema__Db__Schema__AbstractEntity.html#a22dab8db0a3727fb5c12ce5933c2f82e" target="_top" xlink:title="ZendDbSchema_Db_Schema_AbstractEntity\\toSql">
<polygon fill="white" stroke="black" points="316.5,-0.5 316.5,-21.5 555.5,-21.5 555.5,-0.5 316.5,-0.5"/>
<text text-anchor="middle" x="436" y="-8.5" font-family="Helvetica,sans-Serif" font-size="10.00">ZendDbSchema_Db_Schema_AbstractEntity\toSql</text>
</a>
</g>
<!-- Node1&#45;&gt;Node2 -->
<g id="edge2" class="edge"><title>Node1&#45;&gt;Node2</title>
<path fill="none" stroke="midnightblue" d="M289.844,-11C298.774,-11 307.695,-11 316.477,-11"/>
<polygon fill="midnightblue" stroke="midnightblue" points="289.766,-7.5001 279.766,-11 289.765,-14.5001 289.766,-7.5001"/>
</g>
<!-- Node3 -->
<g id="node5" class="node"><title>Node3</title>
<a xlink:href="classZendDbSchema__Db__Schema__Database.html#ab6d2c76fffa17e1773287588fc91a5f5" target="_top" xlink:title="ZendDbSchema_Db_Schema_Database\\_doSave">
<polygon fill="white" stroke="black" points="592.5,-0.5 592.5,-21.5 827.5,-21.5 827.5,-0.5 592.5,-0.5"/>
<text text-anchor="middle" x="710" y="-8.5" font-family="Helvetica,sans-Serif" font-size="10.00">ZendDbSchema_Db_Schema_Database\_doSave</text>
</a>
</g>
<!-- Node2&#45;&gt;Node3 -->
<g id="edge4" class="edge"><title>Node2&#45;&gt;Node3</title>
<path fill="none" stroke="midnightblue" d="M566.023,-11C574.768,-11 583.552,-11 592.231,-11"/>
<polygon fill="midnightblue" stroke="midnightblue" points="565.782,-7.5001 555.782,-11 565.782,-14.5001 565.782,-7.5001"/>
</g>
</g>
</svg>
