<?xml version="1.0" encoding="UTF-8" standalone="no"?>
<!DOCTYPE svg PUBLIC "-//W3C//DTD SVG 1.1//EN"
 "http://www.w3.org/Graphics/SVG/1.1/DTD/svg11.dtd">
<!-- Generated by graphviz version 2.26.3 (20100126.1600)
 -->
<!-- Title: G Pages: 1 -->
<svg width="530pt" height="70pt"
 viewBox="0.00 0.00 530.00 70.00" xmlns="http://www.w3.org/2000/svg" xmlns:xlink="http://www.w3.org/1999/xlink">
<g id="graph1" class="graph" transform="scale(1 1) rotate(0) translate(4 66)">
<title>G</title>
<polygon fill="white" stroke="white" points="-4,5 -4,-66 527,-66 527,5 -4,5"/>
<!-- Node1 -->
<g id="node1" class="node"><title>Node1</title>
<polygon fill="#bfbfbf" stroke="black" points="0,-20.5 0,-41.5 266,-41.5 266,-20.5 0,-20.5"/>
<text text-anchor="middle" x="133" y="-28.5" font-family="Helvetica,sans-Serif" font-size="10.00">ZendDbSchema_Db_Migration_Manager\compareVersion</text>
</g>
<!-- Node2 -->
<g id="node3" class="node"><title>Node2</title>
<a xlink:href="classZendDbSchema__Db__Migration__Manager.html#a265c3edbe064cb4a34289b505046768a" target="_top" xlink:title="ZendDbSchema_Db_Migration_Manager\\down">
<polygon fill="white" stroke="black" points="302.5,-40.5 302.5,-61.5 521.5,-61.5 521.5,-40.5 302.5,-40.5"/>
<text text-anchor="middle" x="412" y="-48.5" font-family="Helvetica,sans-Serif" font-size="10.00">ZendDbSchema_Db_Migration_Manager\down</text>
</a>
</g>
<!-- Node1&#45;&gt;Node2 -->
<g id="edge2" class="edge"><title>Node1&#45;&gt;Node2</title>
<path fill="none" stroke="midnightblue" d="M276.544,-41.2899C285.208,-41.911 293.852,-42.5306 302.34,-43.1391"/>
<polygon fill="midnightblue" stroke="midnightblue" points="276.596,-37.7847 266.371,-40.5607 276.096,-44.7668 276.596,-37.7847"/>
</g>
<!-- Node3 -->
<g id="node5" class="node"><title>Node3</title>
<a xlink:href="classZendDbSchema__Db__Migration__Manager.html#a260901608e7ed2fb5ffef1bf8387e2e9" target="_top" xlink:title="ZendDbSchema_Db_Migration_Manager\\up">
<polygon fill="white" stroke="black" points="309,-0.5 309,-21.5 515,-21.5 515,-0.5 309,-0.5"/>
<text text-anchor="middle" x="412" y="-8.5" font-family="Helvetica,sans-Serif" font-size="10.00">ZendDbSchema_Db_Migration_Manager\up</text>
</a>
</g>
<!-- Node1&#45;&gt;Node3 -->
<g id="edge4" class="edge"><title>Node1&#45;&gt;Node3</title>
<path fill="none" stroke="midnightblue" d="M276.426,-20.7186C287.372,-19.9339 298.287,-19.1515 308.899,-18.3908"/>
<polygon fill="midnightblue" stroke="midnightblue" points="276.096,-17.2332 266.371,-21.4393 276.596,-24.2153 276.096,-17.2332"/>
</g>
</g>
</svg>
