<?xml version="1.0" encoding="UTF-8" standalone="no"?>
<!DOCTYPE svg PUBLIC "-//W3C//DTD SVG 1.1//EN"
 "http://www.w3.org/Graphics/SVG/1.1/DTD/svg11.dtd">
<!-- Generated by graphviz version 2.26.3 (20100126.1600)
 -->
<!-- Title: G Pages: 1 -->
<svg width="1194pt" height="70pt"
 viewBox="0.00 0.00 1194.00 70.00" xmlns="http://www.w3.org/2000/svg" xmlns:xlink="http://www.w3.org/1999/xlink">
<g id="graph1" class="graph" transform="scale(1 1) rotate(0) translate(4 66)">
<title>G</title>
<polygon fill="white" stroke="white" points="-4,5 -4,-66 1191,-66 1191,5 -4,5"/>
<!-- Node1 -->
<g id="node1" class="node"><title>Node1</title>
<polygon fill="#bfbfbf" stroke="black" points="0,-20.5 0,-41.5 298,-41.5 298,-20.5 0,-20.5"/>
<text text-anchor="middle" x="149" y="-28.5" font-family="Helvetica,sans-Serif" font-size="10.00">ZendDbSchema_Db_Schema_Generator_Mysql\createDatabase</text>
</g>
<!-- Node2 -->
<g id="node3" class="node"><title>Node2</title>
<a xlink:href="classZendDbSchema__Db__Schema__Database.html#a71126f98bb7da60fcd0ac00c101467c8" target="_top" xlink:title="ZendDbSchema_Db_Schema_Database\\getCharset">
<polygon fill="white" stroke="black" points="345.5,-40.5 345.5,-61.5 590.5,-61.5 590.5,-40.5 345.5,-40.5"/>
<text text-anchor="middle" x="468" y="-48.5" font-family="Helvetica,sans-Serif" font-size="10.00">ZendDbSchema_Db_Schema_Database\getCharset</text>
</a>
</g>
<!-- Node1&#45;&gt;Node2 -->
<g id="edge2" class="edge"><title>Node1&#45;&gt;Node2</title>
<path fill="none" stroke="midnightblue" d="M298.226,-40.3559C310.514,-41.1263 322.884,-41.9018 335.043,-42.6641"/>
<polygon fill="midnightblue" stroke="midnightblue" points="335,-46.1682 345.199,-43.3009 335.438,-39.1819 335,-46.1682"/>
</g>
<!-- Node5 -->
<g id="node9" class="node"><title>Node5</title>
<a xlink:href="classZendDbSchema__Db__Schema__AbstractSchema.html#a55787c21deddba427842809d589c2df6" target="_top" xlink:title="ZendDbSchema_Db_Schema_AbstractSchema\\getName">
<polygon fill="white" stroke="black" points="334.5,-0.5 334.5,-21.5 601.5,-21.5 601.5,-0.5 334.5,-0.5"/>
<text text-anchor="middle" x="468" y="-8.5" font-family="Helvetica,sans-Serif" font-size="10.00">ZendDbSchema_Db_Schema_AbstractSchema\getName</text>
</a>
</g>
<!-- Node1&#45;&gt;Node5 -->
<g id="edge8" class="edge"><title>Node1&#45;&gt;Node5</title>
<path fill="none" stroke="midnightblue" d="M298.226,-21.6441C306.851,-21.1034 315.515,-20.5602 324.119,-20.0207"/>
<polygon fill="midnightblue" stroke="midnightblue" points="324.423,-23.5086 334.185,-19.3897 323.985,-16.5223 324.423,-23.5086"/>
</g>
<!-- Node3 -->
<g id="node5" class="node"><title>Node3</title>
<a xlink:href="classZendDbSchema__Db__Schema__AbstractSchema.html#a54d32c6f15463eaad2321a9f0e7225d7" target="_top" xlink:title="ZendDbSchema_Db_Schema_AbstractSchema\\__get">
<polygon fill="white" stroke="black" points="638.5,-20.5 638.5,-41.5 889.5,-41.5 889.5,-20.5 638.5,-20.5"/>
<text text-anchor="middle" x="764" y="-28.5" font-family="Helvetica,sans-Serif" font-size="10.00">ZendDbSchema_Db_Schema_AbstractSchema\__get</text>
</a>
</g>
<!-- Node2&#45;&gt;Node3 -->
<g id="edge4" class="edge"><title>Node2&#45;&gt;Node3</title>
<path fill="none" stroke="midnightblue" d="M590.531,-42.7209C602.955,-41.8814 615.627,-41.0252 628.18,-40.177"/>
<polygon fill="midnightblue" stroke="midnightblue" points="628.474,-43.6652 638.215,-39.499 628.002,-36.6812 628.474,-43.6652"/>
</g>
<!-- Node4 -->
<g id="node7" class="node"><title>Node4</title>
<a xlink:href="classZendDbSchema__Db__Schema__AbstractSchema.html#ac4e121ba7932163eb1950fabe06fb9db" target="_top" xlink:title="ZendDbSchema_Db_Schema_AbstractSchema\\__isset">
<polygon fill="white" stroke="black" points="926.5,-20.5 926.5,-41.5 1185.5,-41.5 1185.5,-20.5 926.5,-20.5"/>
<text text-anchor="middle" x="1056" y="-28.5" font-family="Helvetica,sans-Serif" font-size="10.00">ZendDbSchema_Db_Schema_AbstractSchema\__isset</text>
</a>
</g>
<!-- Node3&#45;&gt;Node4 -->
<g id="edge6" class="edge"><title>Node3&#45;&gt;Node4</title>
<path fill="none" stroke="midnightblue" d="M889.529,-31C898.401,-31 907.376,-31 916.32,-31"/>
<polygon fill="midnightblue" stroke="midnightblue" points="916.397,-34.5001 926.397,-31 916.397,-27.5001 916.397,-34.5001"/>
</g>
<!-- Node5&#45;&gt;Node3 -->
<g id="edge10" class="edge"><title>Node5&#45;&gt;Node3</title>
<path fill="none" stroke="midnightblue" d="M601.711,-20.0345C610.411,-20.6223 619.176,-21.2146 627.887,-21.8032"/>
<polygon fill="midnightblue" stroke="midnightblue" points="627.866,-25.3097 638.08,-22.4919 628.338,-18.3256 627.866,-25.3097"/>
</g>
</g>
</svg>
