<?xml version="1.0" encoding="UTF-8" standalone="no"?>
<!DOCTYPE svg PUBLIC "-//W3C//DTD SVG 1.1//EN"
 "http://www.w3.org/Graphics/SVG/1.1/DTD/svg11.dtd">
<!-- Generated by graphviz version 2.26.3 (20100126.1600)
 -->
<!-- Title: G Pages: 1 -->
<svg width="576pt" height="316pt"
 viewBox="0.00 0.00 576.00 316.00" xmlns="http://www.w3.org/2000/svg" xmlns:xlink="http://www.w3.org/1999/xlink">
<g id="graph1" class="graph" transform="scale(1 1) rotate(0) translate(4 312)">
<title>G</title>
<polygon fill="white" stroke="white" points="-4,5 -4,-312 573,-312 573,5 -4,5"/>
<!-- Node1 -->
<g id="node1" class="node"><title>Node1</title>
<polygon fill="#bfbfbf" stroke="black" points="0,-119 0,-153 156,-153 156,-119 0,-119"/>
<text text-anchor="start" x="8" y="-140" font-family="Helvetica,sans-Serif" font-size="10.00">ZendDbSchema_Db_Schema</text>
<text text-anchor="middle" x="78" y="-127" font-family="Helvetica,sans-Serif" font-size="10.00">_Table_ForeignKey\getColumns</text>
</g>
<!-- Node2 -->
<g id="node3" class="node"><title>Node2</title>
<a xlink:href="classZendDbSchema__Db__Schema__Generator__Pgsql__Table.html#a3365ef877cee87ce2f038f4476256a94" target="_top" xlink:title="ZendDbSchema_Db_Schema\l_Generator_Pgsql_Table\l\\addForeignKey">
<polygon fill="white" stroke="black" points="204,-260.5 204,-307.5 350,-307.5 350,-260.5 204,-260.5"/>
<text text-anchor="start" x="212" y="-294.5" font-family="Helvetica,sans-Serif" font-size="10.00">ZendDbSchema_Db_Schema</text>
<text text-anchor="start" x="212" y="-281.5" font-family="Helvetica,sans-Serif" font-size="10.00">_Generator_Pgsql_Table</text>
<text text-anchor="middle" x="277" y="-268.5" font-family="Helvetica,sans-Serif" font-size="10.00">\addForeignKey</text>
</a>
</g>
<!-- Node1&#45;&gt;Node2 -->
<g id="edge2" class="edge"><title>Node1&#45;&gt;Node2</title>
<path fill="none" stroke="midnightblue" d="M97.5244,-161.166C118.497,-186.755 153.973,-226.083 192,-251 197.164,-254.384 202.727,-257.502 208.448,-260.358"/>
<polygon fill="midnightblue" stroke="midnightblue" points="99.9866,-158.644 90.9853,-153.056 94.5372,-163.037 99.9866,-158.644"/>
</g>
<!-- Node4 -->
<g id="node7" class="node"><title>Node4</title>
<a xlink:href="classZendDbSchema__Db__Schema__Generator__Mysql__Table.html#ab0e8de60124040b8a92e5c9f3e2d63d0" target="_top" xlink:title="ZendDbSchema_Db_Schema\l_Generator_Mysql_Table\l\\addForeignKey">
<polygon fill="white" stroke="black" points="204,-194.5 204,-241.5 350,-241.5 350,-194.5 204,-194.5"/>
<text text-anchor="start" x="212" y="-228.5" font-family="Helvetica,sans-Serif" font-size="10.00">ZendDbSchema_Db_Schema</text>
<text text-anchor="start" x="212" y="-215.5" font-family="Helvetica,sans-Serif" font-size="10.00">_Generator_Mysql_Table</text>
<text text-anchor="middle" x="277" y="-202.5" font-family="Helvetica,sans-Serif" font-size="10.00">\addForeignKey</text>
</a>
</g>
<!-- Node1&#45;&gt;Node4 -->
<g id="edge6" class="edge"><title>Node1&#45;&gt;Node4</title>
<path fill="none" stroke="midnightblue" d="M125.984,-157.075C146.282,-165.872 170.224,-176.096 192,-185 199.619,-188.115 207.65,-191.327 215.612,-194.466"/>
<polygon fill="midnightblue" stroke="midnightblue" points="127.204,-153.789 116.638,-153.013 124.414,-160.209 127.204,-153.789"/>
</g>
<!-- Node6 -->
<g id="node11" class="node"><title>Node6</title>
<a xlink:href="classZendDbSchema__Db__Schema__Table__ForeignKey.html#a275e68bc4f9eebe1af1ec77e6d0b731e" target="_top" xlink:title="ZendDbSchema_Db_Schema\l_Table_ForeignKey\\hasColumn">
<polygon fill="white" stroke="black" points="200.5,-142 200.5,-176 353.5,-176 353.5,-142 200.5,-142"/>
<text text-anchor="start" x="208.5" y="-163" font-family="Helvetica,sans-Serif" font-size="10.00">ZendDbSchema_Db_Schema</text>
<text text-anchor="middle" x="277" y="-150" font-family="Helvetica,sans-Serif" font-size="10.00">_Table_ForeignKey\hasColumn</text>
</a>
</g>
<!-- Node1&#45;&gt;Node6 -->
<g id="edge10" class="edge"><title>Node1&#45;&gt;Node6</title>
<path fill="none" stroke="midnightblue" d="M166.08,-146.18C177.538,-147.504 189.201,-148.852 200.451,-150.153"/>
<polygon fill="midnightblue" stroke="midnightblue" points="166.415,-142.696 156.079,-145.024 165.611,-149.649 166.415,-142.696"/>
</g>
<!-- Node7 -->
<g id="node13" class="node"><title>Node7</title>
<a xlink:href="classZendDbSchema__Db__Schema__Table__ForeignKey.html#a810c76bf8102391ec3d304647c369146" target="_top" xlink:title="ZendDbSchema_Db_Schema\l_Table_ForeignKey\\removeColumn">
<polygon fill="white" stroke="black" points="398,-120 398,-154 568,-154 568,-120 398,-120"/>
<text text-anchor="start" x="406" y="-141" font-family="Helvetica,sans-Serif" font-size="10.00">ZendDbSchema_Db_Schema</text>
<text text-anchor="middle" x="483" y="-128" font-family="Helvetica,sans-Serif" font-size="10.00">_Table_ForeignKey\removeColumn</text>
</a>
</g>
<!-- Node1&#45;&gt;Node7 -->
<g id="edge16" class="edge"><title>Node1&#45;&gt;Node7</title>
<path fill="none" stroke="midnightblue" d="M166.342,-133.446C175.011,-133.264 183.676,-133.11 192,-133 267.549,-132.006 286.455,-131.752 362,-133 373.559,-133.191 385.736,-133.485 397.732,-133.828"/>
<polygon fill="midnightblue" stroke="midnightblue" points="166.103,-129.95 156.183,-133.67 166.258,-136.948 166.103,-129.95"/>
</g>
<!-- Node8 -->
<g id="node15" class="node"><title>Node8</title>
<a xlink:href="classZendDbSchema__Db__Schema__Table__ForeignKey.html#ab37a34d3b9b9913fddc255471eb79c00" target="_top" xlink:title="ZendDbSchema_Db_Schema\l_Table_ForeignKey\\hasRefColumn">
<polygon fill="white" stroke="black" points="192.5,-52 192.5,-86 361.5,-86 361.5,-52 192.5,-52"/>
<text text-anchor="start" x="200.5" y="-73" font-family="Helvetica,sans-Serif" font-size="10.00">ZendDbSchema_Db_Schema</text>
<text text-anchor="middle" x="277" y="-60" font-family="Helvetica,sans-Serif" font-size="10.00">_Table_ForeignKey\hasRefColumn</text>
</a>
</g>
<!-- Node1&#45;&gt;Node8 -->
<g id="edge14" class="edge"><title>Node1&#45;&gt;Node8</title>
<path fill="none" stroke="midnightblue" d="M138.447,-115.648C166.55,-106.187 199.594,-95.0614 226.362,-86.0491"/>
<polygon fill="midnightblue" stroke="midnightblue" points="137.091,-112.412 128.731,-118.92 139.325,-119.046 137.091,-112.412"/>
</g>
<!-- Node9 -->
<g id="node18" class="node"><title>Node9</title>
<a xlink:href="classZendDbSchema__Db__Schema__Table__ForeignKey.html#acad90fc706fe3c4aa734b073fa551152" target="_top" xlink:title="ZendDbSchema_Db_Schema\l_Table_ForeignKey\\setColumn">
<polygon fill="white" stroke="black" points="201.5,-0 201.5,-34 352.5,-34 352.5,-0 201.5,-0"/>
<text text-anchor="start" x="209.5" y="-21" font-family="Helvetica,sans-Serif" font-size="10.00">ZendDbSchema_Db_Schema</text>
<text text-anchor="middle" x="277" y="-8" font-family="Helvetica,sans-Serif" font-size="10.00">_Table_ForeignKey\setColumn</text>
</a>
</g>
<!-- Node1&#45;&gt;Node9 -->
<g id="edge18" class="edge"><title>Node1&#45;&gt;Node9</title>
<path fill="none" stroke="midnightblue" d="M101.788,-111.877C123.558,-91.0208 157.537,-61.4072 192,-43 198.261,-39.6556 205.017,-36.6736 211.887,-34.0318"/>
<polygon fill="midnightblue" stroke="midnightblue" points="99.3418,-109.373 94.616,-118.856 104.224,-114.39 99.3418,-109.373"/>
</g>
<!-- Node3 -->
<g id="node5" class="node"><title>Node3</title>
<a xlink:href="classZendDbSchema__Db__Schema__Generator__Pgsql__Table.html#af690e11fe350fcc7da00de979233e2b5" target="_top" xlink:title="ZendDbSchema_Db_Schema\l_Generator_Pgsql_Table\l\\alterForeignKey">
<polygon fill="white" stroke="black" points="410,-260.5 410,-307.5 556,-307.5 556,-260.5 410,-260.5"/>
<text text-anchor="start" x="418" y="-294.5" font-family="Helvetica,sans-Serif" font-size="10.00">ZendDbSchema_Db_Schema</text>
<text text-anchor="start" x="418" y="-281.5" font-family="Helvetica,sans-Serif" font-size="10.00">_Generator_Pgsql_Table</text>
<text text-anchor="middle" x="483" y="-268.5" font-family="Helvetica,sans-Serif" font-size="10.00">\alterForeignKey</text>
</a>
</g>
<!-- Node2&#45;&gt;Node3 -->
<g id="edge4" class="edge"><title>Node2&#45;&gt;Node3</title>
<path fill="none" stroke="midnightblue" d="M360.286,-284C376.64,-284 393.683,-284 409.681,-284"/>
<polygon fill="midnightblue" stroke="midnightblue" points="360.208,-280.5 350.208,-284 360.208,-287.5 360.208,-280.5"/>
</g>
<!-- Node5 -->
<g id="node9" class="node"><title>Node5</title>
<a xlink:href="classZendDbSchema__Db__Schema__Generator__Mysql__Table.html#a3b806bcbce70989120035d56ee12071c" target="_top" xlink:title="ZendDbSchema_Db_Schema\l_Generator_Mysql_Table\l\\alterForeignKey">
<polygon fill="white" stroke="black" points="410,-194.5 410,-241.5 556,-241.5 556,-194.5 410,-194.5"/>
<text text-anchor="start" x="418" y="-228.5" font-family="Helvetica,sans-Serif" font-size="10.00">ZendDbSchema_Db_Schema</text>
<text text-anchor="start" x="418" y="-215.5" font-family="Helvetica,sans-Serif" font-size="10.00">_Generator_Mysql_Table</text>
<text text-anchor="middle" x="483" y="-202.5" font-family="Helvetica,sans-Serif" font-size="10.00">\alterForeignKey</text>
</a>
</g>
<!-- Node4&#45;&gt;Node5 -->
<g id="edge8" class="edge"><title>Node4&#45;&gt;Node5</title>
<path fill="none" stroke="midnightblue" d="M360.286,-218C376.64,-218 393.683,-218 409.681,-218"/>
<polygon fill="midnightblue" stroke="midnightblue" points="360.208,-214.5 350.208,-218 360.208,-221.5 360.208,-214.5"/>
</g>
<!-- Node6&#45;&gt;Node7 -->
<g id="edge12" class="edge"><title>Node6&#45;&gt;Node7</title>
<path fill="none" stroke="midnightblue" d="M363.947,-149.714C375.194,-148.513 386.703,-147.284 397.92,-146.086"/>
<polygon fill="midnightblue" stroke="midnightblue" points="363.279,-146.266 353.707,-150.808 364.022,-153.226 363.279,-146.266"/>
</g>
</g>
</svg>
