<?xml version="1.0" encoding="UTF-8" standalone="no"?>
<!DOCTYPE svg PUBLIC "-//W3C//DTD SVG 1.1//EN"
 "http://www.w3.org/Graphics/SVG/1.1/DTD/svg11.dtd">
<!-- Generated by graphviz version 2.26.3 (20100126.1600)
 -->
<!-- Title: G Pages: 1 -->
<svg width="1094pt" height="70pt"
 viewBox="0.00 0.00 1094.00 70.00" xmlns="http://www.w3.org/2000/svg" xmlns:xlink="http://www.w3.org/1999/xlink">
<g id="graph1" class="graph" transform="scale(1 1) rotate(0) translate(4 66)">
<title>G</title>
<polygon fill="white" stroke="white" points="-4,5 -4,-66 1091,-66 1091,5 -4,5"/>
<!-- Node1 -->
<g id="node1" class="node"><title>Node1</title>
<polygon fill="#bfbfbf" stroke="black" points="0.5,-20.5 0.5,-41.5 263.5,-41.5 263.5,-20.5 0.5,-20.5"/>
<text text-anchor="middle" x="132" y="-28.5" font-family="Helvetica,sans-Serif" font-size="10.00">ZendDbSchema_Tool_Project_Provider_Migration\status</text>
</g>
<!-- Node2 -->
<g id="node3" class="node"><title>Node2</title>
<a xlink:href="classZendDbSchema__Db__Migration__Manager.html#a87a8f6699a75e4b89a0657ae0999203b" target="_top" xlink:title="ZendDbSchema_Db_Migration_Manager\\isDirty">
<polygon fill="white" stroke="black" points="300,-20.5 300,-41.5 524,-41.5 524,-20.5 300,-20.5"/>
<text text-anchor="middle" x="412" y="-28.5" font-family="Helvetica,sans-Serif" font-size="10.00">ZendDbSchema_Db_Migration_Manager\isDirty</text>
</a>
</g>
<!-- Node1&#45;&gt;Node2 -->
<g id="edge2" class="edge"><title>Node1&#45;&gt;Node2</title>
<path fill="none" stroke="midnightblue" d="M263.801,-31C272.467,-31 281.174,-31 289.791,-31"/>
<polygon fill="midnightblue" stroke="midnightblue" points="289.856,-34.5001 299.856,-31 289.856,-27.5001 289.856,-34.5001"/>
</g>
<!-- Node3 -->
<g id="node5" class="node"><title>Node3</title>
<a xlink:href="classZendDbSchema__Db__Migration__Manager.html#a3d4f62489e72876f97bec3cd4448979d" target="_top" xlink:title="ZendDbSchema_Db_Migration_Manager\\getChange">
<polygon fill="white" stroke="black" points="560.5,-20.5 560.5,-41.5 803.5,-41.5 803.5,-20.5 560.5,-20.5"/>
<text text-anchor="middle" x="682" y="-28.5" font-family="Helvetica,sans-Serif" font-size="10.00">ZendDbSchema_Db_Migration_Manager\getChange</text>
</a>
</g>
<!-- Node2&#45;&gt;Node3 -->
<g id="edge4" class="edge"><title>Node2&#45;&gt;Node3</title>
<path fill="none" stroke="midnightblue" d="M524.159,-31C532.698,-31 541.363,-31 550.011,-31"/>
<polygon fill="midnightblue" stroke="midnightblue" points="550.148,-34.5001 560.148,-31 550.147,-27.5001 550.148,-34.5001"/>
</g>
<!-- Node4 -->
<g id="node7" class="node"><title>Node4</title>
<a xlink:href="classZendDbSchema__Db__Migration__Manager.html#ab66af8a9dc5cdb099b8266b68166c4e0" target="_top" xlink:title="ZendDbSchema_Db_Migration_Manager\\getVersion">
<polygon fill="white" stroke="black" points="842,-40.5 842,-61.5 1084,-61.5 1084,-40.5 842,-40.5"/>
<text text-anchor="middle" x="963" y="-48.5" font-family="Helvetica,sans-Serif" font-size="10.00">ZendDbSchema_Db_Migration_Manager\getVersion</text>
</a>
</g>
<!-- Node3&#45;&gt;Node4 -->
<g id="edge6" class="edge"><title>Node3&#45;&gt;Node4</title>
<path fill="none" stroke="midnightblue" d="M803.616,-39.656C812.875,-40.315 822.246,-40.9819 831.562,-41.645"/>
<polygon fill="midnightblue" stroke="midnightblue" points="831.42,-45.1437 841.644,-42.3625 831.917,-38.1613 831.42,-45.1437"/>
</g>
<!-- Node5 -->
<g id="node9" class="node"><title>Node5</title>
<a xlink:href="classZendDbSchema__Db__Migration__Manager.html#a9973d07f9ffe306e00ea2f9f4beb92e4" target="_top" xlink:title="ZendDbSchema_Db_Migration_Manager\\hasChange">
<polygon fill="white" stroke="black" points="840.5,-0.5 840.5,-21.5 1085.5,-21.5 1085.5,-0.5 840.5,-0.5"/>
<text text-anchor="middle" x="963" y="-8.5" font-family="Helvetica,sans-Serif" font-size="10.00">ZendDbSchema_Db_Migration_Manager\hasChange</text>
</a>
</g>
<!-- Node3&#45;&gt;Node5 -->
<g id="edge8" class="edge"><title>Node3&#45;&gt;Node5</title>
<path fill="none" stroke="midnightblue" d="M803.616,-22.344C812.453,-21.7151 821.392,-21.0789 830.289,-20.4456"/>
<polygon fill="midnightblue" stroke="midnightblue" points="830.582,-23.9337 840.308,-19.7325 830.085,-16.9514 830.582,-23.9337"/>
</g>
</g>
</svg>
