<?xml version="1.0" encoding="UTF-8" standalone="no"?>
<!DOCTYPE svg PUBLIC "-//W3C//DTD SVG 1.1//EN"
 "http://www.w3.org/Graphics/SVG/1.1/DTD/svg11.dtd">
<!-- Generated by graphviz version 2.26.3 (20100126.1600)
 -->
<!-- Title: G Pages: 1 -->
<svg width="1284pt" height="150pt"
 viewBox="0.00 0.00 1284.00 150.00" xmlns="http://www.w3.org/2000/svg" xmlns:xlink="http://www.w3.org/1999/xlink">
<g id="graph1" class="graph" transform="scale(1 1) rotate(0) translate(4 146)">
<title>G</title>
<polygon fill="white" stroke="white" points="-4,5 -4,-146 1281,-146 1281,5 -4,5"/>
<!-- Node1 -->
<g id="node1" class="node"><title>Node1</title>
<polygon fill="#bfbfbf" stroke="black" points="0,-60.5 0,-81.5 290,-81.5 290,-60.5 0,-60.5"/>
<text text-anchor="middle" x="145" y="-68.5" font-family="Helvetica,sans-Serif" font-size="10.00">ZendDbSchema_Db_Schema_Generator_Mysql\alterDatabase</text>
</g>
<!-- Node2 -->
<g id="node3" class="node"><title>Node2</title>
<a xlink:href="classZendDbSchema__Db__Schema__AbstractSchema.html#a1680a8fd22360f74d29b641d7257a52f" target="_top" xlink:title="ZendDbSchema_Db_Schema_AbstractSchema\\isExist">
<polygon fill="white" stroke="black" points="331.5,-120.5 331.5,-141.5 588.5,-141.5 588.5,-120.5 331.5,-120.5"/>
<text text-anchor="middle" x="460" y="-128.5" font-family="Helvetica,sans-Serif" font-size="10.00">ZendDbSchema_Db_Schema_AbstractSchema\isExist</text>
</a>
</g>
<!-- Node1&#45;&gt;Node2 -->
<g id="edge2" class="edge"><title>Node1&#45;&gt;Node2</title>
<path fill="none" stroke="midnightblue" d="M188.716,-81.5532C225.268,-90.1618 278.848,-102.282 326,-111 341.179,-113.806 357.381,-116.488 373.085,-118.925"/>
<polygon fill="midnightblue" stroke="midnightblue" points="372.902,-122.438 383.317,-120.49 373.961,-115.518 372.902,-122.438"/>
</g>
<!-- Node5 -->
<g id="node9" class="node"><title>Node5</title>
<a xlink:href="classZendDbSchema__Db__Schema__AbstractSchema.html#a55787c21deddba427842809d589c2df6" target="_top" xlink:title="ZendDbSchema_Db_Schema_AbstractSchema\\getName">
<polygon fill="white" stroke="black" points="326.5,-40.5 326.5,-61.5 593.5,-61.5 593.5,-40.5 326.5,-40.5"/>
<text text-anchor="middle" x="460" y="-48.5" font-family="Helvetica,sans-Serif" font-size="10.00">ZendDbSchema_Db_Schema_AbstractSchema\getName</text>
</a>
</g>
<!-- Node1&#45;&gt;Node5 -->
<g id="edge8" class="edge"><title>Node1&#45;&gt;Node5</title>
<path fill="none" stroke="midnightblue" d="M290.053,-61.7903C298.757,-61.2376 307.512,-60.6817 316.211,-60.1294"/>
<polygon fill="midnightblue" stroke="midnightblue" points="316.633,-63.6098 326.391,-59.4831 316.189,-56.6239 316.633,-63.6098"/>
</g>
<!-- Node8 -->
<g id="node15" class="node"><title>Node8</title>
<a xlink:href="classZendDbSchema__Db__Schema__AbstractSchema.html#ae859790a91bbcb9c4dc52a6139e5999e" target="_top" xlink:title="ZendDbSchema_Db_Schema_AbstractSchema\\isDirty">
<polygon fill="white" stroke="black" points="332,-80.5 332,-101.5 588,-101.5 588,-80.5 332,-80.5"/>
<text text-anchor="middle" x="460" y="-88.5" font-family="Helvetica,sans-Serif" font-size="10.00">ZendDbSchema_Db_Schema_AbstractSchema\isDirty</text>
</a>
</g>
<!-- Node1&#45;&gt;Node8 -->
<g id="edge14" class="edge"><title>Node1&#45;&gt;Node8</title>
<path fill="none" stroke="midnightblue" d="M290.053,-80.2097C300.576,-80.8779 311.174,-81.5507 321.657,-82.2163"/>
<polygon fill="midnightblue" stroke="midnightblue" points="321.465,-85.7111 331.666,-82.8518 321.908,-78.7251 321.465,-85.7111"/>
</g>
<!-- Node9 -->
<g id="node20" class="node"><title>Node9</title>
<a xlink:href="classZendDbSchema__Db__Schema__Database.html#a71126f98bb7da60fcd0ac00c101467c8" target="_top" xlink:title="ZendDbSchema_Db_Schema_Database\\getCharset">
<polygon fill="white" stroke="black" points="337.5,-0.5 337.5,-21.5 582.5,-21.5 582.5,-0.5 337.5,-0.5"/>
<text text-anchor="middle" x="460" y="-8.5" font-family="Helvetica,sans-Serif" font-size="10.00">ZendDbSchema_Db_Schema_Database\getCharset</text>
</a>
</g>
<!-- Node1&#45;&gt;Node9 -->
<g id="edge22" class="edge"><title>Node1&#45;&gt;Node9</title>
<path fill="none" stroke="midnightblue" d="M188.716,-60.4468C225.268,-51.8382 278.848,-39.7181 326,-31 341.179,-28.1935 357.381,-25.5116 373.085,-23.0749"/>
<polygon fill="midnightblue" stroke="midnightblue" points="373.961,-26.4817 383.317,-21.5102 372.902,-19.5622 373.961,-26.4817"/>
</g>
<!-- Node3 -->
<g id="node5" class="node"><title>Node3</title>
<a xlink:href="classZendDbSchema__Db__Schema__AbstractSchema.html#a46da7a60c7e5fd605607afbc1dac4baa" target="_top" xlink:title="ZendDbSchema_Db_Schema_AbstractSchema\\getCleanSchema">
<polygon fill="white" stroke="black" points="630,-118.5 630,-139.5 932,-139.5 932,-118.5 630,-118.5"/>
<text text-anchor="middle" x="781" y="-126.5" font-family="Helvetica,sans-Serif" font-size="10.00">ZendDbSchema_Db_Schema_AbstractSchema\getCleanSchema</text>
</a>
</g>
<!-- Node2&#45;&gt;Node3 -->
<g id="edge4" class="edge"><title>Node2&#45;&gt;Node3</title>
<path fill="none" stroke="midnightblue" d="M588.713,-130.198C598.852,-130.135 609.166,-130.071 619.487,-130.006"/>
<polygon fill="midnightblue" stroke="midnightblue" points="619.824,-133.504 629.802,-129.942 619.781,-126.505 619.824,-133.504"/>
</g>
<!-- Node4 -->
<g id="node7" class="node"><title>Node4</title>
<a xlink:href="classZendDbSchema__Db__Schema__AbstractSchema.html#af99e5bb9adfe0da8c94d3d3848efe7b5" target="_top" xlink:title="ZendDbSchema_Db_Schema_AbstractSchema\\_getCleanSchema">
<polygon fill="white" stroke="black" points="968,-118.5 968,-139.5 1276,-139.5 1276,-118.5 968,-118.5"/>
<text text-anchor="middle" x="1122" y="-126.5" font-family="Helvetica,sans-Serif" font-size="10.00">ZendDbSchema_Db_Schema_AbstractSchema\_getCleanSchema</text>
</a>
</g>
<!-- Node3&#45;&gt;Node4 -->
<g id="edge6" class="edge"><title>Node3&#45;&gt;Node4</title>
<path fill="none" stroke="midnightblue" d="M932.057,-129C940.572,-129 949.152,-129 957.712,-129"/>
<polygon fill="midnightblue" stroke="midnightblue" points="957.745,-132.5 967.745,-129 957.745,-125.5 957.745,-132.5"/>
</g>
<!-- Node6 -->
<g id="node11" class="node"><title>Node6</title>
<a xlink:href="classZendDbSchema__Db__Schema__AbstractSchema.html#a54d32c6f15463eaad2321a9f0e7225d7" target="_top" xlink:title="ZendDbSchema_Db_Schema_AbstractSchema\\__get">
<polygon fill="white" stroke="black" points="655.5,-40.5 655.5,-61.5 906.5,-61.5 906.5,-40.5 655.5,-40.5"/>
<text text-anchor="middle" x="781" y="-48.5" font-family="Helvetica,sans-Serif" font-size="10.00">ZendDbSchema_Db_Schema_AbstractSchema\__get</text>
</a>
</g>
<!-- Node5&#45;&gt;Node6 -->
<g id="edge10" class="edge"><title>Node5&#45;&gt;Node6</title>
<path fill="none" stroke="midnightblue" d="M593.808,-51C610.69,-51 627.977,-51 644.894,-51"/>
<polygon fill="midnightblue" stroke="midnightblue" points="645.372,-54.5001 655.372,-51 645.372,-47.5001 645.372,-54.5001"/>
</g>
<!-- Node7 -->
<g id="node13" class="node"><title>Node7</title>
<a xlink:href="classZendDbSchema__Db__Schema__AbstractSchema.html#ac4e121ba7932163eb1950fabe06fb9db" target="_top" xlink:title="ZendDbSchema_Db_Schema_AbstractSchema\\__isset">
<polygon fill="white" stroke="black" points="992.5,-59.5 992.5,-80.5 1251.5,-80.5 1251.5,-59.5 992.5,-59.5"/>
<text text-anchor="middle" x="1122" y="-67.5" font-family="Helvetica,sans-Serif" font-size="10.00">ZendDbSchema_Db_Schema_AbstractSchema\__isset</text>
</a>
</g>
<!-- Node6&#45;&gt;Node7 -->
<g id="edge12" class="edge"><title>Node6&#45;&gt;Node7</title>
<path fill="none" stroke="midnightblue" d="M906.523,-57.994C931.142,-59.3657 957.108,-60.8125 982.161,-62.2084"/>
<polygon fill="midnightblue" stroke="midnightblue" points="982.279,-65.7203 992.458,-62.7821 982.668,-58.7311 982.279,-65.7203"/>
</g>
<!-- Node8&#45;&gt;Node3 -->
<g id="edge16" class="edge"><title>Node8&#45;&gt;Node3</title>
<path fill="none" stroke="midnightblue" d="M548.99,-101.535C590.301,-106.425 639.558,-112.256 682.037,-117.285"/>
<polygon fill="midnightblue" stroke="midnightblue" points="681.773,-120.778 692.115,-118.478 682.596,-113.826 681.773,-120.778"/>
</g>
<!-- Node8&#45;&gt;Node6 -->
<g id="edge20" class="edge"><title>Node8&#45;&gt;Node6</title>
<path fill="none" stroke="midnightblue" d="M544.339,-80.4905C588.031,-75.046 641.525,-68.3801 686.594,-62.764"/>
<polygon fill="midnightblue" stroke="midnightblue" points="687.177,-66.2185 696.668,-61.5087 686.312,-59.2722 687.177,-66.2185"/>
</g>
<!-- Node8&#45;&gt;Node7 -->
<g id="edge18" class="edge"><title>Node8&#45;&gt;Node7</title>
<path fill="none" stroke="midnightblue" d="M588.033,-86.9385C701.159,-83.3499 865.803,-78.1271 982.304,-74.4314"/>
<polygon fill="midnightblue" stroke="midnightblue" points="982.481,-77.9277 992.365,-74.1123 982.259,-70.9312 982.481,-77.9277"/>
</g>
<!-- Node9&#45;&gt;Node6 -->
<g id="edge24" class="edge"><title>Node9&#45;&gt;Node6</title>
<path fill="none" stroke="midnightblue" d="M544.339,-21.5095C588.031,-26.954 641.525,-33.6199 686.594,-39.236"/>
<polygon fill="midnightblue" stroke="midnightblue" points="686.312,-42.7278 696.668,-40.4913 687.177,-35.7815 686.312,-42.7278"/>
</g>
</g>
</svg>
