<?xml version="1.0" encoding="UTF-8" standalone="no"?>
<!DOCTYPE svg PUBLIC "-//W3C//DTD SVG 1.1//EN"
 "http://www.w3.org/Graphics/SVG/1.1/DTD/svg11.dtd">
<!-- Generated by graphviz version 2.26.3 (20100126.1600)
 -->
<!-- Title: G Pages: 1 -->
<svg width="1850pt" height="168pt"
 viewBox="0.00 0.00 1850.00 168.00" xmlns="http://www.w3.org/2000/svg" xmlns:xlink="http://www.w3.org/1999/xlink">
<g id="graph1" class="graph" transform="scale(1 1) rotate(0) translate(4 164)">
<title>G</title>
<polygon fill="white" stroke="white" points="-4,5 -4,-164 1847,-164 1847,5 -4,5"/>
<!-- Node1 -->
<g id="node1" class="node"><title>Node1</title>
<polygon fill="#bfbfbf" stroke="black" points="0.5,-0.5 0.5,-21.5 309.5,-21.5 309.5,-0.5 0.5,-0.5"/>
<text text-anchor="middle" x="155" y="-8.5" font-family="Helvetica,sans-Serif" font-size="10.00">ZendDbSchema_Db_Schema_Validator_Mysql\validatePrimaryKey</text>
</g>
<!-- Node2 -->
<g id="node3" class="node"><title>Node2</title>
<a xlink:href="classZendDbSchema__Db__Schema__Validator__Mysql.html#a0cf7ff88ff35c9636c0bb80f08416cb3" target="_top" xlink:title="ZendDbSchema_Db_Schema_Validator_Mysql\\validateIndex">
<polygon fill="white" stroke="black" points="346,-20.5 346,-41.5 628,-41.5 628,-20.5 346,-20.5"/>
<text text-anchor="middle" x="487" y="-28.5" font-family="Helvetica,sans-Serif" font-size="10.00">ZendDbSchema_Db_Schema_Validator_Mysql\validateIndex</text>
</a>
</g>
<!-- Node1&#45;&gt;Node2 -->
<g id="edge2" class="edge"><title>Node1&#45;&gt;Node2</title>
<path fill="none" stroke="midnightblue" d="M309.822,-20.3266C318.449,-20.8463 327.116,-21.3684 335.73,-21.8874"/>
<polygon fill="midnightblue" stroke="midnightblue" points="335.62,-25.3869 345.812,-22.4947 336.041,-18.3996 335.62,-25.3869"/>
</g>
<!-- Node7 -->
<g id="node13" class="node"><title>Node7</title>
<a xlink:href="classZendDbSchema__Db__Schema__AbstractSchema.html#a54d32c6f15463eaad2321a9f0e7225d7" target="_top" xlink:title="ZendDbSchema_Db_Schema_AbstractSchema\\__get">
<polygon fill="white" stroke="black" points="1294.5,-19.5 1294.5,-40.5 1545.5,-40.5 1545.5,-19.5 1294.5,-19.5"/>
<text text-anchor="middle" x="1420" y="-27.5" font-family="Helvetica,sans-Serif" font-size="10.00">ZendDbSchema_Db_Schema_AbstractSchema\__get</text>
</a>
</g>
<!-- Node1&#45;&gt;Node7 -->
<g id="edge18" class="edge"><title>Node1&#45;&gt;Node7</title>
<path fill="none" stroke="midnightblue" d="M309.717,-10.0719C402.104,-9.74909 521.767,-9.7355 628,-11 908.06,-14.3336 978.003,-19.2099 1258,-26 1266.58,-26.2081 1275.42,-26.4235 1284.33,-26.6414"/>
<polygon fill="midnightblue" stroke="midnightblue" points="1284.33,-30.1423 1294.41,-26.8882 1284.5,-23.1444 1284.33,-30.1423"/>
</g>
<!-- Node3 -->
<g id="node5" class="node"><title>Node3</title>
<a xlink:href="classZendDbSchema__Db__Schema__Table__Index.html#a1a12fc2660c9e16579d6d8dbd7c57c3b" target="_top" xlink:title="ZendDbSchema_Db_Schema_Table_Index\\getSchema">
<polygon fill="white" stroke="black" points="664.5,-78.5 664.5,-99.5 921.5,-99.5 921.5,-78.5 664.5,-78.5"/>
<text text-anchor="middle" x="793" y="-86.5" font-family="Helvetica,sans-Serif" font-size="10.00">ZendDbSchema_Db_Schema_Table_Index\getSchema</text>
</a>
</g>
<!-- Node2&#45;&gt;Node3 -->
<g id="edge4" class="edge"><title>Node2&#45;&gt;Node3</title>
<path fill="none" stroke="midnightblue" d="M542.414,-41.5034C594.46,-51.3683 672.362,-66.1341 727.469,-76.5791"/>
<polygon fill="midnightblue" stroke="midnightblue" points="727.005,-80.0534 737.482,-78.4769 728.309,-73.1758 727.005,-80.0534"/>
</g>
<!-- Node2&#45;&gt;Node7 -->
<g id="edge16" class="edge"><title>Node2&#45;&gt;Node7</title>
<path fill="none" stroke="midnightblue" d="M628.196,-30.8487C805.971,-30.6581 1109.25,-30.3331 1284.36,-30.1454"/>
<polygon fill="midnightblue" stroke="midnightblue" points="1284.42,-33.6454 1294.42,-30.1346 1284.41,-26.6454 1284.42,-33.6454"/>
</g>
<!-- Node4 -->
<g id="node7" class="node"><title>Node4</title>
<a xlink:href="classZendDbSchema__Db__Schema__AbstractSchema.html#a219012c80be57ace4b1db43a9c48eb3d" target="_top" xlink:title="ZendDbSchema_Db_Schema_AbstractSchema\\getSchema">
<polygon fill="white" stroke="black" points="969.5,-138.5 969.5,-159.5 1246.5,-159.5 1246.5,-138.5 969.5,-138.5"/>
<text text-anchor="middle" x="1108" y="-146.5" font-family="Helvetica,sans-Serif" font-size="10.00">ZendDbSchema_Db_Schema_AbstractSchema\getSchema</text>
</a>
</g>
<!-- Node3&#45;&gt;Node4 -->
<g id="edge6" class="edge"><title>Node3&#45;&gt;Node4</title>
<path fill="none" stroke="midnightblue" d="M831.425,-99.5312C864.708,-108.36 914.253,-120.804 958,-129 973.825,-131.965 990.668,-134.656 1007.14,-137.035"/>
<polygon fill="midnightblue" stroke="midnightblue" points="1006.94,-140.542 1017.33,-138.475 1007.92,-133.61 1006.94,-140.542"/>
</g>
<!-- Node5 -->
<g id="node9" class="node"><title>Node5</title>
<a xlink:href="classZendDbSchema__Db__Schema__Table__AbstractDefinition.html#a224b6a0c1df1d6ed40e03657782ef6fc" target="_top" xlink:title="ZendDbSchema_Db_Schema_Table_AbstractDefinition\\getTable">
<polygon fill="white" stroke="black" points="958.5,-98.5 958.5,-119.5 1257.5,-119.5 1257.5,-98.5 958.5,-98.5"/>
<text text-anchor="middle" x="1108" y="-106.5" font-family="Helvetica,sans-Serif" font-size="10.00">ZendDbSchema_Db_Schema_Table_AbstractDefinition\getTable</text>
</a>
</g>
<!-- Node3&#45;&gt;Node5 -->
<g id="edge8" class="edge"><title>Node3&#45;&gt;Node5</title>
<path fill="none" stroke="midnightblue" d="M921.577,-97.1636C930.414,-97.7247 939.378,-98.2938 948.35,-98.8635"/>
<polygon fill="midnightblue" stroke="midnightblue" points="948.277,-102.366 958.479,-99.5066 948.721,-95.3799 948.277,-102.366"/>
</g>
<!-- Node6 -->
<g id="node11" class="node"><title>Node6</title>
<a xlink:href="classZendDbSchema__Db__Schema__AbstractSchema.html#adacb1417b461310c5c87f72c459c1985" target="_top" xlink:title="ZendDbSchema_Db_Schema_AbstractSchema\\getOriginName">
<polygon fill="white" stroke="black" points="961.5,-58.5 961.5,-79.5 1254.5,-79.5 1254.5,-58.5 961.5,-58.5"/>
<text text-anchor="middle" x="1108" y="-66.5" font-family="Helvetica,sans-Serif" font-size="10.00">ZendDbSchema_Db_Schema_AbstractSchema\getOriginName</text>
</a>
</g>
<!-- Node3&#45;&gt;Node6 -->
<g id="edge10" class="edge"><title>Node3&#45;&gt;Node6</title>
<path fill="none" stroke="midnightblue" d="M921.577,-80.8364C931.299,-80.2191 941.173,-79.5922 951.045,-78.9654"/>
<polygon fill="midnightblue" stroke="midnightblue" points="951.566,-82.4395 961.324,-78.3127 951.122,-75.4535 951.566,-82.4395"/>
</g>
<!-- Node6&#45;&gt;Node7 -->
<g id="edge12" class="edge"><title>Node6&#45;&gt;Node7</title>
<path fill="none" stroke="midnightblue" d="M1192.02,-58.4974C1233.29,-53.3384 1283.17,-47.1034 1325.74,-41.7824"/>
<polygon fill="midnightblue" stroke="midnightblue" points="1326.34,-45.2347 1335.83,-40.5213 1325.47,-38.2888 1326.34,-45.2347"/>
</g>
<!-- Node8 -->
<g id="node15" class="node"><title>Node8</title>
<a xlink:href="classZendDbSchema__Db__Schema__AbstractSchema.html#ac4e121ba7932163eb1950fabe06fb9db" target="_top" xlink:title="ZendDbSchema_Db_Schema_AbstractSchema\\__isset">
<polygon fill="white" stroke="black" points="1582.5,-19.5 1582.5,-40.5 1841.5,-40.5 1841.5,-19.5 1582.5,-19.5"/>
<text text-anchor="middle" x="1712" y="-27.5" font-family="Helvetica,sans-Serif" font-size="10.00">ZendDbSchema_Db_Schema_AbstractSchema\__isset</text>
</a>
</g>
<!-- Node7&#45;&gt;Node8 -->
<g id="edge14" class="edge"><title>Node7&#45;&gt;Node8</title>
<path fill="none" stroke="midnightblue" d="M1545.53,-30C1554.4,-30 1563.38,-30 1572.32,-30"/>
<polygon fill="midnightblue" stroke="midnightblue" points="1572.4,-33.5001 1582.4,-30 1572.4,-26.5001 1572.4,-33.5001"/>
</g>
</g>
</svg>
