<?xml version="1.0" encoding="UTF-8" standalone="no"?>
<!DOCTYPE svg PUBLIC "-//W3C//DTD SVG 1.1//EN"
 "http://www.w3.org/Graphics/SVG/1.1/DTD/svg11.dtd">
<!-- Generated by graphviz version 2.26.3 (20100126.1600)
 -->
<!-- Title: G Pages: 1 -->
<svg width="554pt" height="94pt"
 viewBox="0.00 0.00 554.00 94.00" xmlns="http://www.w3.org/2000/svg" xmlns:xlink="http://www.w3.org/1999/xlink">
<g id="graph1" class="graph" transform="scale(1 1) rotate(0) translate(4 90)">
<title>G</title>
<polygon fill="white" stroke="white" points="-4,5 -4,-90 551,-90 551,5 -4,5"/>
<!-- Node1 -->
<g id="node1" class="node"><title>Node1</title>
<polygon fill="#bfbfbf" stroke="black" points="0.5,-26 0.5,-60 147.5,-60 147.5,-26 0.5,-26"/>
<text text-anchor="start" x="8.5" y="-47" font-family="Helvetica,sans-Serif" font-size="10.00">ZendDbSchema_Tool_Project</text>
<text text-anchor="middle" x="74" y="-34" font-family="Helvetica,sans-Serif" font-size="10.00">_Provider_Migration\create</text>
</g>
<!-- Node2 -->
<g id="node3" class="node"><title>Node2</title>
<a xlink:href="classZendDbSchema__Tool__Project__Provider__Migration.html#a01f328a7b171f989907b86ab88a070df" target="_top" xlink:title="ZendDbSchema_Tool_Project\l_Provider_Migration\\createResource">
<polygon fill="white" stroke="black" points="184.5,-26 184.5,-60 359.5,-60 359.5,-26 184.5,-26"/>
<text text-anchor="start" x="192.5" y="-47" font-family="Helvetica,sans-Serif" font-size="10.00">ZendDbSchema_Tool_Project</text>
<text text-anchor="middle" x="272" y="-34" font-family="Helvetica,sans-Serif" font-size="10.00">_Provider_Migration\createResource</text>
</a>
</g>
<!-- Node1&#45;&gt;Node2 -->
<g id="edge2" class="edge"><title>Node1&#45;&gt;Node2</title>
<path fill="none" stroke="midnightblue" d="M147.728,-43C156.356,-43 165.258,-43 174.147,-43"/>
<polygon fill="midnightblue" stroke="midnightblue" points="174.164,-46.5001 184.163,-43 174.163,-39.5001 174.164,-46.5001"/>
</g>
<!-- Node3 -->
<g id="node5" class="node"><title>Node3</title>
<a xlink:href="classZendDbSchema__Db__Migration__Skeleton.html#a51234b84a2f9886f3e08d63519a6eb9d" target="_top" xlink:title="ZendDbSchema_Db_Migration\l_Skeleton\\generateVersion">
<polygon fill="white" stroke="black" points="396,-52 396,-86 546,-86 546,-52 396,-52"/>
<text text-anchor="start" x="404" y="-73" font-family="Helvetica,sans-Serif" font-size="10.00">ZendDbSchema_Db_Migration</text>
<text text-anchor="middle" x="471" y="-60" font-family="Helvetica,sans-Serif" font-size="10.00">_Skeleton\generateVersion</text>
</a>
</g>
<!-- Node2&#45;&gt;Node3 -->
<g id="edge4" class="edge"><title>Node2&#45;&gt;Node3</title>
<path fill="none" stroke="midnightblue" d="M359.574,-54.4418C368.268,-55.5777 377.085,-56.7297 385.755,-57.8625"/>
<polygon fill="midnightblue" stroke="midnightblue" points="385.479,-61.3561 395.849,-59.1812 386.386,-54.4151 385.479,-61.3561"/>
</g>
<!-- Node4 -->
<g id="node7" class="node"><title>Node4</title>
<a xlink:href="classZendDbSchema__Db__Migration__Skeleton.html#a1dabe0c3a95ba3b2f0a479ff1eee3351" target="_top" xlink:title="ZendDbSchema_Db_Migration\l_Skeleton\\getFilename">
<polygon fill="white" stroke="black" points="396,-0 396,-34 546,-34 546,-0 396,-0"/>
<text text-anchor="start" x="404" y="-21" font-family="Helvetica,sans-Serif" font-size="10.00">ZendDbSchema_Db_Migration</text>
<text text-anchor="middle" x="471" y="-8" font-family="Helvetica,sans-Serif" font-size="10.00">_Skeleton\getFilename</text>
</a>
</g>
<!-- Node2&#45;&gt;Node4 -->
<g id="edge6" class="edge"><title>Node2&#45;&gt;Node4</title>
<path fill="none" stroke="midnightblue" d="M359.574,-31.5582C368.268,-30.4223 377.085,-29.2703 385.755,-28.1375"/>
<polygon fill="midnightblue" stroke="midnightblue" points="386.386,-31.5849 395.849,-26.8188 385.479,-24.6439 386.386,-31.5849"/>
</g>
</g>
</svg>
