<?xml version="1.0" encoding="UTF-8" standalone="no"?>
<!DOCTYPE svg PUBLIC "-//W3C//DTD SVG 1.1//EN"
 "http://www.w3.org/Graphics/SVG/1.1/DTD/svg11.dtd">
<!-- Generated by graphviz version 2.26.3 (20100126.1600)
 -->
<!-- Title: G Pages: 1 -->
<svg width="838pt" height="30pt"
 viewBox="0.00 0.00 838.00 30.00" xmlns="http://www.w3.org/2000/svg" xmlns:xlink="http://www.w3.org/1999/xlink">
<g id="graph1" class="graph" transform="scale(1 1) rotate(0) translate(4 26)">
<title>G</title>
<polygon fill="white" stroke="white" points="-4,5 -4,-26 835,-26 835,5 -4,5"/>
<!-- Node1 -->
<g id="node1" class="node"><title>Node1</title>
<polygon fill="#bfbfbf" stroke="black" points="0.5,-0.5 0.5,-21.5 275.5,-21.5 275.5,-0.5 0.5,-0.5"/>
<text text-anchor="middle" x="138" y="-8.5" font-family="Helvetica,sans-Serif" font-size="10.00">ZendDbSchema_Db_Adapter_Mysqli\showCreateDatabase</text>
</g>
<!-- Node2 -->
<g id="node3" class="node"><title>Node2</title>
<a xlink:href="classZendDbSchema__Db__Adapter__Mysqli.html#a6ccb0e30dd7c6eae3e91079f1f978444" target="_top" xlink:title="ZendDbSchema_Db_Adapter_Mysqli\\hasDatabase">
<polygon fill="white" stroke="black" points="312.5,-0.5 312.5,-21.5 551.5,-21.5 551.5,-0.5 312.5,-0.5"/>
<text text-anchor="middle" x="432" y="-8.5" font-family="Helvetica,sans-Serif" font-size="10.00">ZendDbSchema_Db_Adapter_Mysqli\hasDatabase</text>
</a>
</g>
<!-- Node1&#45;&gt;Node2 -->
<g id="edge2" class="edge"><title>Node1&#45;&gt;Node2</title>
<path fill="none" stroke="midnightblue" d="M275.531,-11C284.339,-11 293.193,-11 301.965,-11"/>
<polygon fill="midnightblue" stroke="midnightblue" points="302.217,-14.5001 312.217,-11 302.217,-7.5001 302.217,-14.5001"/>
</g>
<!-- Node3 -->
<g id="node5" class="node"><title>Node3</title>
<a xlink:href="classZendDbSchema__Db__Adapter__Mysqli.html#abc74258342f5cd4b637feb4561b6ab37" target="_top" xlink:title="ZendDbSchema_Db_Adapter_Mysqli\\listDatabases">
<polygon fill="white" stroke="black" points="588.5,-0.5 588.5,-21.5 829.5,-21.5 829.5,-0.5 588.5,-0.5"/>
<text text-anchor="middle" x="709" y="-8.5" font-family="Helvetica,sans-Serif" font-size="10.00">ZendDbSchema_Db_Adapter_Mysqli\listDatabases</text>
</a>
</g>
<!-- Node2&#45;&gt;Node3 -->
<g id="edge4" class="edge"><title>Node2&#45;&gt;Node3</title>
<path fill="none" stroke="midnightblue" d="M551.885,-11C560.608,-11 569.431,-11 578.212,-11"/>
<polygon fill="midnightblue" stroke="midnightblue" points="578.494,-14.5001 588.494,-11 578.494,-7.5001 578.494,-14.5001"/>
</g>
</g>
</svg>
