<?xml version="1.0" encoding="UTF-8" standalone="no"?>
<!DOCTYPE svg PUBLIC "-//W3C//DTD SVG 1.1//EN"
 "http://www.w3.org/Graphics/SVG/1.1/DTD/svg11.dtd">
<!-- Generated by graphviz version 2.26.3 (20100126.1600)
 -->
<!-- Title: G Pages: 1 -->
<svg width="594pt" height="150pt"
 viewBox="0.00 0.00 594.00 150.00" xmlns="http://www.w3.org/2000/svg" xmlns:xlink="http://www.w3.org/1999/xlink">
<g id="graph1" class="graph" transform="scale(1 1) rotate(0) translate(4 146)">
<title>G</title>
<polygon fill="white" stroke="white" points="-4,5 -4,-146 591,-146 591,5 -4,5"/>
<!-- Node1 -->
<g id="node1" class="node"><title>Node1</title>
<polygon fill="#bfbfbf" stroke="black" points="0.5,-60.5 0.5,-81.5 247.5,-81.5 247.5,-60.5 0.5,-60.5"/>
<text text-anchor="middle" x="124" y="-68.5" font-family="Helvetica,sans-Serif" font-size="10.00">ZendDbSchema_Db_Migration_Manager\__construct</text>
</g>
<!-- Node2 -->
<g id="node3" class="node"><title>Node2</title>
<a xlink:href="classZendDbSchema__Db__Migration__Manager.html#ad93c4a0057b1965de0add4c68157c119" target="_top" xlink:title="ZendDbSchema_Db_Migration_Manager\\getPath">
<polygon fill="white" stroke="black" points="320,-120.5 320,-141.5 550,-141.5 550,-120.5 320,-120.5"/>
<text text-anchor="middle" x="435" y="-128.5" font-family="Helvetica,sans-Serif" font-size="10.00">ZendDbSchema_Db_Migration_Manager\getPath</text>
</a>
</g>
<!-- Node1&#45;&gt;Node2 -->
<g id="edge2" class="edge"><title>Node1&#45;&gt;Node2</title>
<path fill="none" stroke="midnightblue" d="M161.235,-81.5822C193.494,-90.4433 241.529,-102.905 284,-111 299.704,-113.993 316.411,-116.688 332.773,-119.058"/>
<polygon fill="midnightblue" stroke="midnightblue" points="332.511,-122.556 342.903,-120.492 333.492,-115.625 332.511,-122.556"/>
</g>
<!-- Node3 -->
<g id="node5" class="node"><title>Node3</title>
<a xlink:href="classZendDbSchema__Db__Migration__Manager.html#a94ed8ced2994cf50dcfd35a4ad831c94" target="_top" xlink:title="ZendDbSchema_Db_Migration_Manager\\getMigrationClassName">
<polygon fill="white" stroke="black" points="284.5,-80.5 284.5,-101.5 585.5,-101.5 585.5,-80.5 284.5,-80.5"/>
<text text-anchor="middle" x="435" y="-88.5" font-family="Helvetica,sans-Serif" font-size="10.00">ZendDbSchema_Db_Migration_Manager\getMigrationClassName</text>
</a>
</g>
<!-- Node1&#45;&gt;Node3 -->
<g id="edge4" class="edge"><title>Node1&#45;&gt;Node3</title>
<path fill="none" stroke="midnightblue" d="M247.809,-78.962C256.547,-79.5239 265.425,-80.0948 274.325,-80.6672"/>
<polygon fill="midnightblue" stroke="midnightblue" points="274.173,-84.1646 284.377,-81.3136 274.622,-77.179 274.173,-84.1646"/>
</g>
<!-- Node4 -->
<g id="node7" class="node"><title>Node4</title>
<a xlink:href="classZendDbSchema__Db__Migration__Manager.html#ab66af8a9dc5cdb099b8266b68166c4e0" target="_top" xlink:title="ZendDbSchema_Db_Migration_Manager\\getVersion">
<polygon fill="white" stroke="black" points="314,-40.5 314,-61.5 556,-61.5 556,-40.5 314,-40.5"/>
<text text-anchor="middle" x="435" y="-48.5" font-family="Helvetica,sans-Serif" font-size="10.00">ZendDbSchema_Db_Migration_Manager\getVersion</text>
</a>
</g>
<!-- Node1&#45;&gt;Node4 -->
<g id="edge6" class="edge"><title>Node1&#45;&gt;Node4</title>
<path fill="none" stroke="midnightblue" d="M247.809,-63.038C266.175,-61.8569 285.156,-60.6363 303.669,-59.4457"/>
<polygon fill="midnightblue" stroke="midnightblue" points="304.144,-62.9225 313.899,-58.7878 303.695,-55.9369 304.144,-62.9225"/>
</g>
<!-- Node5 -->
<g id="node9" class="node"><title>Node5</title>
<a xlink:href="classZendDbSchema__Db__Migration__Manager.html#a0bf69842e44f9aa3a736deb020f0f1fa" target="_top" xlink:title="ZendDbSchema_Db_Migration_Manager\\init">
<polygon fill="white" stroke="black" points="330.5,-0.5 330.5,-21.5 539.5,-21.5 539.5,-0.5 330.5,-0.5"/>
<text text-anchor="middle" x="435" y="-8.5" font-family="Helvetica,sans-Serif" font-size="10.00">ZendDbSchema_Db_Migration_Manager\init</text>
</a>
</g>
<!-- Node1&#45;&gt;Node5 -->
<g id="edge8" class="edge"><title>Node1&#45;&gt;Node5</title>
<path fill="none" stroke="midnightblue" d="M161.235,-60.4178C193.494,-51.5567 241.529,-39.0945 284,-31 299.704,-28.007 316.411,-25.3123 332.773,-22.9419"/>
<polygon fill="midnightblue" stroke="midnightblue" points="333.492,-26.375 342.903,-21.5081 332.511,-19.4441 333.492,-26.375"/>
</g>
</g>
</svg>
