<?xml version="1.0" encoding="UTF-8" standalone="no"?>
<!DOCTYPE svg PUBLIC "-//W3C//DTD SVG 1.1//EN"
 "http://www.w3.org/Graphics/SVG/1.1/DTD/svg11.dtd">
<!-- Generated by graphviz version 2.26.3 (20100126.1600)
 -->
<!-- Title: G Pages: 1 -->
<svg width="578pt" height="340pt"
 viewBox="0.00 0.00 578.00 340.00" xmlns="http://www.w3.org/2000/svg" xmlns:xlink="http://www.w3.org/1999/xlink">
<g id="graph1" class="graph" transform="scale(1 1) rotate(0) translate(4 336)">
<title>G</title>
<polygon fill="white" stroke="white" points="-4,5 -4,-336 575,-336 575,5 -4,5"/>
<!-- Node1 -->
<g id="node1" class="node"><title>Node1</title>
<polygon fill="#bfbfbf" stroke="black" points="0,-156 0,-190 146,-190 146,-156 0,-156"/>
<text text-anchor="start" x="8" y="-177" font-family="Helvetica,sans-Serif" font-size="10.00">ZendDbSchema_Db_Schema</text>
<text text-anchor="middle" x="73" y="-164" font-family="Helvetica,sans-Serif" font-size="10.00">_Table\isDirty</text>
</g>
<!-- Node2 -->
<g id="node3" class="node"><title>Node2</title>
<a xlink:href="classZendDbSchema__Db__Schema__AbstractSchema.html#a46da7a60c7e5fd605607afbc1dac4baa" target="_top" xlink:title="ZendDbSchema_Db_Schema\l_AbstractSchema\\getCleanSchema">
<polygon fill="white" stroke="black" points="182.5,-298 182.5,-332 355.5,-332 355.5,-298 182.5,-298"/>
<text text-anchor="start" x="190.5" y="-319" font-family="Helvetica,sans-Serif" font-size="10.00">ZendDbSchema_Db_Schema</text>
<text text-anchor="middle" x="269" y="-306" font-family="Helvetica,sans-Serif" font-size="10.00">_AbstractSchema\getCleanSchema</text>
</a>
</g>
<!-- Node1&#45;&gt;Node2 -->
<g id="edge2" class="edge"><title>Node1&#45;&gt;Node2</title>
<path fill="none" stroke="midnightblue" d="M85.5931,-190.022C104.199,-214.077 141.256,-257.977 182,-284 187.72,-287.653 193.927,-290.946 200.303,-293.897"/>
<polygon fill="midnightblue" stroke="midnightblue" points="199.162,-297.218 209.73,-297.98 201.944,-290.794 199.162,-297.218"/>
</g>
<!-- Node4 -->
<g id="node7" class="node"><title>Node4</title>
<a xlink:href="classZendDbSchema__Db__Schema__AbstractSchema.html#ac4e121ba7932163eb1950fabe06fb9db" target="_top" xlink:title="ZendDbSchema_Db_Schema\l_AbstractSchema\\__isset">
<polygon fill="white" stroke="black" points="408,-227 408,-261 554,-261 554,-227 408,-227"/>
<text text-anchor="start" x="416" y="-248" font-family="Helvetica,sans-Serif" font-size="10.00">ZendDbSchema_Db_Schema</text>
<text text-anchor="middle" x="481" y="-235" font-family="Helvetica,sans-Serif" font-size="10.00">_AbstractSchema\__isset</text>
</a>
</g>
<!-- Node1&#45;&gt;Node4 -->
<g id="edge6" class="edge"><title>Node1&#45;&gt;Node4</title>
<path fill="none" stroke="midnightblue" d="M89.5895,-190.079C109.467,-209.195 144.777,-239.054 182,-251 252.249,-273.546 336.629,-268.908 397.811,-260.316"/>
<polygon fill="midnightblue" stroke="midnightblue" points="398.422,-263.764 407.807,-258.849 397.405,-256.838 398.422,-263.764"/>
</g>
<!-- Node5 -->
<g id="node9" class="node"><title>Node5</title>
<a xlink:href="classZendDbSchema__Db__Schema__AbstractSchema.html#a54d32c6f15463eaad2321a9f0e7225d7" target="_top" xlink:title="ZendDbSchema_Db_Schema\l_AbstractSchema\\__get">
<polygon fill="white" stroke="black" points="196,-208 196,-242 342,-242 342,-208 196,-208"/>
<text text-anchor="start" x="204" y="-229" font-family="Helvetica,sans-Serif" font-size="10.00">ZendDbSchema_Db_Schema</text>
<text text-anchor="middle" x="269" y="-216" font-family="Helvetica,sans-Serif" font-size="10.00">_AbstractSchema\__get</text>
</a>
</g>
<!-- Node1&#45;&gt;Node5 -->
<g id="edge8" class="edge"><title>Node1&#45;&gt;Node5</title>
<path fill="none" stroke="midnightblue" d="M137.178,-190.027C155.622,-194.92 175.887,-200.297 194.879,-205.335"/>
<polygon fill="midnightblue" stroke="midnightblue" points="194.115,-208.754 204.678,-207.935 195.91,-201.988 194.115,-208.754"/>
</g>
<!-- Node6 -->
<g id="node12" class="node"><title>Node6</title>
<a xlink:href="classZendDbSchema__Db__Schema__Table.html#a214354faa96de67a26b787c2c8741850" target="_top" xlink:title="ZendDbSchema_Db_Schema\l_Table\\columns">
<polygon fill="white" stroke="black" points="196,-156 196,-190 342,-190 342,-156 196,-156"/>
<text text-anchor="start" x="204" y="-177" font-family="Helvetica,sans-Serif" font-size="10.00">ZendDbSchema_Db_Schema</text>
<text text-anchor="middle" x="269" y="-164" font-family="Helvetica,sans-Serif" font-size="10.00">_Table\columns</text>
</a>
</g>
<!-- Node1&#45;&gt;Node6 -->
<g id="edge12" class="edge"><title>Node1&#45;&gt;Node6</title>
<path fill="none" stroke="midnightblue" d="M146.262,-173C159.046,-173 172.43,-173 185.466,-173"/>
<polygon fill="midnightblue" stroke="midnightblue" points="185.827,-176.5 195.827,-173 185.827,-169.5 185.827,-176.5"/>
</g>
<!-- Node7 -->
<g id="node14" class="node"><title>Node7</title>
<a xlink:href="classZendDbSchema__Db__Schema__Table.html#a47df29d95af8f655dd7506cfb649ec40" target="_top" xlink:title="ZendDbSchema_Db_Schema\l_Table\\indexes">
<polygon fill="white" stroke="black" points="196,-104 196,-138 342,-138 342,-104 196,-104"/>
<text text-anchor="start" x="204" y="-125" font-family="Helvetica,sans-Serif" font-size="10.00">ZendDbSchema_Db_Schema</text>
<text text-anchor="middle" x="269" y="-112" font-family="Helvetica,sans-Serif" font-size="10.00">_Table\indexes</text>
</a>
</g>
<!-- Node1&#45;&gt;Node7 -->
<g id="edge14" class="edge"><title>Node1&#45;&gt;Node7</title>
<path fill="none" stroke="midnightblue" d="M137.178,-155.973C155.622,-151.08 175.887,-145.703 194.879,-140.665"/>
<polygon fill="midnightblue" stroke="midnightblue" points="195.91,-144.012 204.678,-138.065 194.115,-137.246 195.91,-144.012"/>
</g>
<!-- Node8 -->
<g id="node16" class="node"><title>Node8</title>
<a xlink:href="classZendDbSchema__Db__Schema__Table.html#acff371c2884c9688b5ede2deaf09f25c" target="_top" xlink:title="ZendDbSchema_Db_Schema\l_Table\\foreigns">
<polygon fill="white" stroke="black" points="196,-52 196,-86 342,-86 342,-52 196,-52"/>
<text text-anchor="start" x="204" y="-73" font-family="Helvetica,sans-Serif" font-size="10.00">ZendDbSchema_Db_Schema</text>
<text text-anchor="middle" x="269" y="-60" font-family="Helvetica,sans-Serif" font-size="10.00">_Table\foreigns</text>
</a>
</g>
<!-- Node1&#45;&gt;Node8 -->
<g id="edge16" class="edge"><title>Node1&#45;&gt;Node8</title>
<path fill="none" stroke="midnightblue" d="M92.6046,-155.885C113.493,-138.42 148.151,-111.592 182,-95 185.822,-93.1266 189.805,-91.3591 193.874,-89.6961"/>
<polygon fill="midnightblue" stroke="midnightblue" points="195.405,-92.8575 203.485,-86.0046 192.895,-86.3229 195.405,-92.8575"/>
</g>
<!-- Node9 -->
<g id="node18" class="node"><title>Node9</title>
<a xlink:href="classZendDbSchema__Db__Schema__Table.html#a9d445dd6a92cc3a50aa6d8dad8395f0a" target="_top" xlink:title="ZendDbSchema_Db_Schema\l_Table\\primary">
<polygon fill="white" stroke="black" points="196,-0 196,-34 342,-34 342,-0 196,-0"/>
<text text-anchor="start" x="204" y="-21" font-family="Helvetica,sans-Serif" font-size="10.00">ZendDbSchema_Db_Schema</text>
<text text-anchor="middle" x="269" y="-8" font-family="Helvetica,sans-Serif" font-size="10.00">_Table\primary</text>
</a>
</g>
<!-- Node1&#45;&gt;Node9 -->
<g id="edge18" class="edge"><title>Node1&#45;&gt;Node9</title>
<path fill="none" stroke="midnightblue" d="M82.7254,-155.908C99.4281,-128.088 136.228,-73.101 182,-43 184.408,-41.4165 186.916,-39.9266 189.496,-38.5249"/>
<polygon fill="midnightblue" stroke="midnightblue" points="191.085,-41.6443 198.515,-34.0918 187.997,-35.3622 191.085,-41.6443"/>
</g>
<!-- Node3 -->
<g id="node5" class="node"><title>Node3</title>
<a xlink:href="classZendDbSchema__Db__Schema__AbstractSchema.html#af99e5bb9adfe0da8c94d3d3848efe7b5" target="_top" xlink:title="ZendDbSchema_Db_Schema\l_AbstractSchema\\_getCleanSchema">
<polygon fill="white" stroke="black" points="392,-298 392,-332 570,-332 570,-298 392,-298"/>
<text text-anchor="start" x="400" y="-319" font-family="Helvetica,sans-Serif" font-size="10.00">ZendDbSchema_Db_Schema</text>
<text text-anchor="middle" x="481" y="-306" font-family="Helvetica,sans-Serif" font-size="10.00">_AbstractSchema\_getCleanSchema</text>
</a>
</g>
<!-- Node2&#45;&gt;Node3 -->
<g id="edge4" class="edge"><title>Node2&#45;&gt;Node3</title>
<path fill="none" stroke="midnightblue" d="M355.534,-315C364.175,-315 372.994,-315 381.752,-315"/>
<polygon fill="midnightblue" stroke="midnightblue" points="381.99,-318.5 391.99,-315 381.99,-311.5 381.99,-318.5"/>
</g>
<!-- Node5&#45;&gt;Node4 -->
<g id="edge10" class="edge"><title>Node5&#45;&gt;Node4</title>
<path fill="none" stroke="midnightblue" d="M342.255,-231.565C360.129,-233.167 379.38,-234.893 397.685,-236.533"/>
<polygon fill="midnightblue" stroke="midnightblue" points="397.469,-240.028 407.742,-237.434 398.094,-233.056 397.469,-240.028"/>
</g>
</g>
</svg>
