<?xml version="1.0" encoding="UTF-8" standalone="no"?>
<!DOCTYPE svg PUBLIC "-//W3C//DTD SVG 1.1//EN"
 "http://www.w3.org/Graphics/SVG/1.1/DTD/svg11.dtd">
<!-- Generated by graphviz version 2.26.3 (20100126.1600)
 -->
<!-- Title: G Pages: 1 -->
<svg width="1252pt" height="150pt"
 viewBox="0.00 0.00 1252.00 150.00" xmlns="http://www.w3.org/2000/svg" xmlns:xlink="http://www.w3.org/1999/xlink">
<g id="graph1" class="graph" transform="scale(1 1) rotate(0) translate(4 146)">
<title>G</title>
<polygon fill="white" stroke="white" points="-4,5 -4,-146 1249,-146 1249,5 -4,5"/>
<!-- Node1 -->
<g id="node1" class="node"><title>Node1</title>
<polygon fill="#bfbfbf" stroke="black" points="0.5,-60.5 0.5,-81.5 329.5,-81.5 329.5,-60.5 0.5,-60.5"/>
<text text-anchor="middle" x="165" y="-68.5" font-family="Helvetica,sans-Serif" font-size="10.00">ZendDbSchema_Db_Schema_Generator_Mysql\generateDatabaseAlter</text>
</g>
<!-- Node2 -->
<g id="node3" class="node"><title>Node2</title>
<a xlink:href="classZendDbSchema__Db__Schema__AbstractSchema.html#a1680a8fd22360f74d29b641d7257a52f" target="_top" xlink:title="ZendDbSchema_Db_Schema_AbstractSchema\\isExist">
<polygon fill="white" stroke="black" points="371.5,-120.5 371.5,-141.5 628.5,-141.5 628.5,-120.5 371.5,-120.5"/>
<text text-anchor="middle" x="500" y="-128.5" font-family="Helvetica,sans-Serif" font-size="10.00">ZendDbSchema_Db_Schema_AbstractSchema\isExist</text>
</a>
</g>
<!-- Node1&#45;&gt;Node2 -->
<g id="edge2" class="edge"><title>Node1&#45;&gt;Node2</title>
<path fill="none" stroke="midnightblue" d="M214.437,-81.5302C255.047,-90.0133 314.121,-101.972 366,-111 381.832,-113.755 398.758,-116.464 415.065,-118.956"/>
<polygon fill="midnightblue" stroke="midnightblue" points="414.713,-122.442 425.124,-120.477 415.76,-115.521 414.713,-122.442"/>
</g>
<!-- Node4 -->
<g id="node7" class="node"><title>Node4</title>
<a xlink:href="classZendDbSchema__Db__Schema__AbstractSchema.html#a55787c21deddba427842809d589c2df6" target="_top" xlink:title="ZendDbSchema_Db_Schema_AbstractSchema\\getName">
<polygon fill="white" stroke="black" points="366.5,-40.5 366.5,-61.5 633.5,-61.5 633.5,-40.5 366.5,-40.5"/>
<text text-anchor="middle" x="500" y="-48.5" font-family="Helvetica,sans-Serif" font-size="10.00">ZendDbSchema_Db_Schema_AbstractSchema\getName</text>
</a>
</g>
<!-- Node1&#45;&gt;Node4 -->
<g id="edge6" class="edge"><title>Node1&#45;&gt;Node4</title>
<path fill="none" stroke="midnightblue" d="M329.556,-61.1758C338.357,-60.6503 347.168,-60.1243 355.894,-59.6034"/>
<polygon fill="midnightblue" stroke="midnightblue" points="356.317,-63.0844 366.091,-58.9946 355.9,-56.0968 356.317,-63.0844"/>
</g>
<!-- Node7 -->
<g id="node13" class="node"><title>Node7</title>
<a xlink:href="classZendDbSchema__Db__Schema__AbstractSchema.html#ae859790a91bbcb9c4dc52a6139e5999e" target="_top" xlink:title="ZendDbSchema_Db_Schema_AbstractSchema\\isDirty">
<polygon fill="white" stroke="black" points="372,-80.5 372,-101.5 628,-101.5 628,-80.5 372,-80.5"/>
<text text-anchor="middle" x="500" y="-88.5" font-family="Helvetica,sans-Serif" font-size="10.00">ZendDbSchema_Db_Schema_AbstractSchema\isDirty</text>
</a>
</g>
<!-- Node1&#45;&gt;Node7 -->
<g id="edge12" class="edge"><title>Node1&#45;&gt;Node7</title>
<path fill="none" stroke="midnightblue" d="M329.556,-80.8242C340.34,-81.468 351.14,-82.1128 361.777,-82.7479"/>
<polygon fill="midnightblue" stroke="midnightblue" points="361.73,-86.2512 371.921,-83.3535 362.147,-79.2636 361.73,-86.2512"/>
</g>
<!-- Node8 -->
<g id="node18" class="node"><title>Node8</title>
<a xlink:href="classZendDbSchema__Db__Schema__Database.html#a71126f98bb7da60fcd0ac00c101467c8" target="_top" xlink:title="ZendDbSchema_Db_Schema_Database\\getCharset">
<polygon fill="white" stroke="black" points="377.5,-0.5 377.5,-21.5 622.5,-21.5 622.5,-0.5 377.5,-0.5"/>
<text text-anchor="middle" x="500" y="-8.5" font-family="Helvetica,sans-Serif" font-size="10.00">ZendDbSchema_Db_Schema_Database\getCharset</text>
</a>
</g>
<!-- Node1&#45;&gt;Node8 -->
<g id="edge20" class="edge"><title>Node1&#45;&gt;Node8</title>
<path fill="none" stroke="midnightblue" d="M214.437,-60.4698C255.047,-51.9867 314.121,-40.0282 366,-31 381.832,-28.2448 398.758,-25.5358 415.065,-23.0445"/>
<polygon fill="midnightblue" stroke="midnightblue" points="415.76,-26.4793 425.124,-21.5229 414.713,-19.558 415.76,-26.4793"/>
</g>
<!-- Node3 -->
<g id="node5" class="node"><title>Node3</title>
<a xlink:href="classZendDbSchema__Db__Schema__AbstractSchema.html#a219012c80be57ace4b1db43a9c48eb3d" target="_top" xlink:title="ZendDbSchema_Db_Schema_AbstractSchema\\getSchema">
<polygon fill="white" stroke="black" points="670.5,-119.5 670.5,-140.5 947.5,-140.5 947.5,-119.5 670.5,-119.5"/>
<text text-anchor="middle" x="809" y="-127.5" font-family="Helvetica,sans-Serif" font-size="10.00">ZendDbSchema_Db_Schema_AbstractSchema\getSchema</text>
</a>
</g>
<!-- Node2&#45;&gt;Node3 -->
<g id="edge4" class="edge"><title>Node2&#45;&gt;Node3</title>
<path fill="none" stroke="midnightblue" d="M628.806,-130.583C639.222,-130.549 649.798,-130.515 660.338,-130.481"/>
<polygon fill="midnightblue" stroke="midnightblue" points="660.437,-133.981 670.426,-130.448 660.415,-126.981 660.437,-133.981"/>
</g>
<!-- Node5 -->
<g id="node9" class="node"><title>Node5</title>
<a xlink:href="classZendDbSchema__Db__Schema__AbstractSchema.html#a54d32c6f15463eaad2321a9f0e7225d7" target="_top" xlink:title="ZendDbSchema_Db_Schema_AbstractSchema\\__get">
<polygon fill="white" stroke="black" points="683.5,-40.5 683.5,-61.5 934.5,-61.5 934.5,-40.5 683.5,-40.5"/>
<text text-anchor="middle" x="809" y="-48.5" font-family="Helvetica,sans-Serif" font-size="10.00">ZendDbSchema_Db_Schema_AbstractSchema\__get</text>
</a>
</g>
<!-- Node4&#45;&gt;Node5 -->
<g id="edge8" class="edge"><title>Node4&#45;&gt;Node5</title>
<path fill="none" stroke="midnightblue" d="M633.735,-51C646.862,-51 660.194,-51 673.34,-51"/>
<polygon fill="midnightblue" stroke="midnightblue" points="673.351,-54.5001 683.351,-51 673.351,-47.5001 673.351,-54.5001"/>
</g>
<!-- Node6 -->
<g id="node11" class="node"><title>Node6</title>
<a xlink:href="classZendDbSchema__Db__Schema__AbstractSchema.html#ac4e121ba7932163eb1950fabe06fb9db" target="_top" xlink:title="ZendDbSchema_Db_Schema_AbstractSchema\\__isset">
<polygon fill="white" stroke="black" points="984.5,-59.5 984.5,-80.5 1243.5,-80.5 1243.5,-59.5 984.5,-59.5"/>
<text text-anchor="middle" x="1114" y="-67.5" font-family="Helvetica,sans-Serif" font-size="10.00">ZendDbSchema_Db_Schema_AbstractSchema\__isset</text>
</a>
</g>
<!-- Node5&#45;&gt;Node6 -->
<g id="edge10" class="edge"><title>Node5&#45;&gt;Node6</title>
<path fill="none" stroke="midnightblue" d="M934.816,-58.8377C947.635,-59.6363 960.713,-60.451 973.673,-61.2583"/>
<polygon fill="midnightblue" stroke="midnightblue" points="973.836,-64.7752 984.034,-61.9038 974.271,-57.7887 973.836,-64.7752"/>
</g>
<!-- Node7&#45;&gt;Node3 -->
<g id="edge14" class="edge"><title>Node7&#45;&gt;Node3</title>
<path fill="none" stroke="midnightblue" d="M583.213,-101.503C624.088,-106.662 673.489,-112.897 715.647,-118.218"/>
<polygon fill="midnightblue" stroke="midnightblue" points="715.279,-121.699 725.639,-119.479 716.156,-114.754 715.279,-121.699"/>
</g>
<!-- Node7&#45;&gt;Node5 -->
<g id="edge18" class="edge"><title>Node7&#45;&gt;Node5</title>
<path fill="none" stroke="midnightblue" d="M581.186,-80.4905C623.156,-75.0575 674.523,-68.4081 717.85,-62.7994"/>
<polygon fill="midnightblue" stroke="midnightblue" points="718.352,-66.2636 727.82,-61.5087 717.454,-59.3215 718.352,-66.2636"/>
</g>
<!-- Node7&#45;&gt;Node6 -->
<g id="edge16" class="edge"><title>Node7&#45;&gt;Node6</title>
<path fill="none" stroke="midnightblue" d="M628.341,-86.6105C729.387,-83.1545 870.039,-78.344 973.983,-74.7889"/>
<polygon fill="midnightblue" stroke="midnightblue" points="974.367,-78.2779 984.242,-74.438 974.128,-71.282 974.367,-78.2779"/>
</g>
<!-- Node8&#45;&gt;Node5 -->
<g id="edge22" class="edge"><title>Node8&#45;&gt;Node5</title>
<path fill="none" stroke="midnightblue" d="M581.186,-21.5095C623.156,-26.9425 674.523,-33.5919 717.85,-39.2006"/>
<polygon fill="midnightblue" stroke="midnightblue" points="717.454,-42.6785 727.82,-40.4913 718.352,-35.7364 717.454,-42.6785"/>
</g>
</g>
</svg>
