<?xml version="1.0" encoding="UTF-8" standalone="no"?>
<!DOCTYPE svg PUBLIC "-//W3C//DTD SVG 1.1//EN"
 "http://www.w3.org/Graphics/SVG/1.1/DTD/svg11.dtd">
<!-- Generated by graphviz version 2.26.3 (20100126.1600)
 -->
<!-- Title: G Pages: 1 -->
<svg width="278pt" height="342pt"
 viewBox="0.00 0.00 278.00 342.00" xmlns="http://www.w3.org/2000/svg" xmlns:xlink="http://www.w3.org/1999/xlink">
<g id="graph1" class="graph" transform="scale(1 1) rotate(0) translate(4 338)">
<title>G</title>
<polygon fill="white" stroke="white" points="-4,5 -4,-338 275,-338 275,5 -4,5"/>
<!-- Node1 -->
<g id="node1" class="node"><title>Node1</title>
<polygon fill="#bfbfbf" stroke="black" points="24.5,-1 24.5,-155 245.5,-155 245.5,-1 24.5,-1"/>
<text text-anchor="middle" x="135" y="-142" font-family="Helvetica,sans-Serif" font-size="10.00">ZendDbSchema_Db_Schema_Validator_Mysql</text>
<polyline fill="none" stroke="black" points="24.5,-134 245.5,-134 "/>
<text text-anchor="start" x="32.5" y="-121" font-family="Helvetica,sans-Serif" font-size="10.00"># $_databaseEngines</text>
<text text-anchor="start" x="32.5" y="-108" font-family="Helvetica,sans-Serif" font-size="10.00"># $_columnTypes</text>
<text text-anchor="start" x="32.5" y="-95" font-family="Helvetica,sans-Serif" font-size="10.00"># $_tableIndexes</text>
<polyline fill="none" stroke="black" points="24.5,-87 245.5,-87 "/>
<text text-anchor="start" x="32.5" y="-74" font-family="Helvetica,sans-Serif" font-size="10.00">+ validateDatabase()</text>
<text text-anchor="start" x="32.5" y="-61" font-family="Helvetica,sans-Serif" font-size="10.00">+ validateTable()</text>
<text text-anchor="start" x="32.5" y="-48" font-family="Helvetica,sans-Serif" font-size="10.00">+ validateColumn()</text>
<text text-anchor="start" x="32.5" y="-35" font-family="Helvetica,sans-Serif" font-size="10.00">+ validateIndex()</text>
<text text-anchor="start" x="32.5" y="-22" font-family="Helvetica,sans-Serif" font-size="10.00">+ validatePrimaryKey()</text>
<text text-anchor="start" x="32.5" y="-9" font-family="Helvetica,sans-Serif" font-size="10.00">+ validateForeignKey()</text>
</g>
<!-- Node2 -->
<g id="node2" class="node"><title>Node2</title>
<a xlink:href="classZendDbSchema__Db__Schema__Validator__AbstractValidator.html" target="_top" xlink:title="{ZendDbSchema_Db_Schema_Validator_AbstractValidator\n||+ validateDatabase()\l+ validateTable()\l+ validateColumn()\l+ validateIndex()\l+ validatePrimaryKey()\l+ validateForeignKey()\l+ validate()\l}">
<polygon fill="white" stroke="black" points="0,-192.5 0,-333.5 270,-333.5 270,-192.5 0,-192.5"/>
<text text-anchor="middle" x="135" y="-320.5" font-family="Helvetica,sans-Serif" font-size="10.00">ZendDbSchema_Db_Schema_Validator_AbstractValidator</text>
<polyline fill="none" stroke="black" points="0,-312.5 270,-312.5 "/>
<text text-anchor="middle" x="135" y="-299.5" font-family="Helvetica,sans-Serif" font-size="10.00"> </text>
<polyline fill="none" stroke="black" points="0,-291.5 270,-291.5 "/>
<text text-anchor="start" x="8" y="-278.5" font-family="Helvetica,sans-Serif" font-size="10.00">+ validateDatabase()</text>
<text text-anchor="start" x="8" y="-265.5" font-family="Helvetica,sans-Serif" font-size="10.00">+ validateTable()</text>
<text text-anchor="start" x="8" y="-252.5" font-family="Helvetica,sans-Serif" font-size="10.00">+ validateColumn()</text>
<text text-anchor="start" x="8" y="-239.5" font-family="Helvetica,sans-Serif" font-size="10.00">+ validateIndex()</text>
<text text-anchor="start" x="8" y="-226.5" font-family="Helvetica,sans-Serif" font-size="10.00">+ validatePrimaryKey()</text>
<text text-anchor="start" x="8" y="-213.5" font-family="Helvetica,sans-Serif" font-size="10.00">+ validateForeignKey()</text>
<text text-anchor="start" x="8" y="-200.5" font-family="Helvetica,sans-Serif" font-size="10.00">+ validate()</text>
</a>
</g>
<!-- Node2&#45;&gt;Node1 -->
<g id="edge2" class="edge"><title>Node2&#45;&gt;Node1</title>
<path fill="none" stroke="midnightblue" d="M135,-182.21C135,-173.229 135,-164.098 135,-155.164"/>
<polygon fill="none" stroke="midnightblue" points="131.5,-182.268 135,-192.268 138.5,-182.268 131.5,-182.268"/>
</g>
</g>
</svg>
