<?xml version="1.0" encoding="UTF-8" standalone="no"?>
<!DOCTYPE svg PUBLIC "-//W3C//DTD SVG 1.1//EN"
 "http://www.w3.org/Graphics/SVG/1.1/DTD/svg11.dtd">
<!-- Generated by graphviz version 2.26.3 (20100126.1600)
 -->
<!-- Title: G Pages: 1 -->
<svg width="900pt" height="108pt"
 viewBox="0.00 0.00 900.00 108.00" xmlns="http://www.w3.org/2000/svg" xmlns:xlink="http://www.w3.org/1999/xlink">
<g id="graph1" class="graph" transform="scale(1 1) rotate(0) translate(4 104)">
<title>G</title>
<polygon fill="white" stroke="white" points="-4,5 -4,-104 897,-104 897,5 -4,5"/>
<!-- Node1 -->
<g id="node1" class="node"><title>Node1</title>
<polygon fill="#bfbfbf" stroke="black" points="0,-22.5 0,-69.5 146,-69.5 146,-22.5 0,-22.5"/>
<text text-anchor="start" x="8" y="-56.5" font-family="Helvetica,sans-Serif" font-size="10.00">ZendDbSchema_Db_Schema</text>
<text text-anchor="start" x="8" y="-43.5" font-family="Helvetica,sans-Serif" font-size="10.00">_Generator_Mysql_Table</text>
<text text-anchor="middle" x="73" y="-30.5" font-family="Helvetica,sans-Serif" font-size="10.00">\dropForeignKey</text>
</g>
<!-- Node2 -->
<g id="node3" class="node"><title>Node2</title>
<a xlink:href="classZendDbSchema__Db__Schema__Table__AbstractDefinition.html#a224b6a0c1df1d6ed40e03657782ef6fc" target="_top" xlink:title="ZendDbSchema_Db_Schema\l_Table_AbstractDefinition\l\\getTable">
<polygon fill="white" stroke="black" points="191,-52.5 191,-99.5 337,-99.5 337,-52.5 191,-52.5"/>
<text text-anchor="start" x="199" y="-86.5" font-family="Helvetica,sans-Serif" font-size="10.00">ZendDbSchema_Db_Schema</text>
<text text-anchor="start" x="199" y="-73.5" font-family="Helvetica,sans-Serif" font-size="10.00">_Table_AbstractDefinition</text>
<text text-anchor="middle" x="264" y="-60.5" font-family="Helvetica,sans-Serif" font-size="10.00">\getTable</text>
</a>
</g>
<!-- Node1&#45;&gt;Node2 -->
<g id="edge2" class="edge"><title>Node1&#45;&gt;Node2</title>
<path fill="none" stroke="midnightblue" d="M146.026,-57.4701C157.348,-59.2484 169.117,-61.0969 180.646,-62.9077"/>
<polygon fill="midnightblue" stroke="midnightblue" points="180.276,-66.3925 190.698,-64.4866 181.362,-59.4772 180.276,-66.3925"/>
</g>
<!-- Node3 -->
<g id="node5" class="node"><title>Node3</title>
<a xlink:href="classZendDbSchema__Db__Schema__AbstractSchema.html#adacb1417b461310c5c87f72c459c1985" target="_top" xlink:title="ZendDbSchema_Db_Schema\l_AbstractSchema\\getOriginName">
<polygon fill="white" stroke="black" points="182.5,-0 182.5,-34 345.5,-34 345.5,-0 182.5,-0"/>
<text text-anchor="start" x="190.5" y="-21" font-family="Helvetica,sans-Serif" font-size="10.00">ZendDbSchema_Db_Schema</text>
<text text-anchor="middle" x="264" y="-8" font-family="Helvetica,sans-Serif" font-size="10.00">_AbstractSchema\getOriginName</text>
</a>
</g>
<!-- Node1&#45;&gt;Node3 -->
<g id="edge4" class="edge"><title>Node1&#45;&gt;Node3</title>
<path fill="none" stroke="midnightblue" d="M146.026,-34.9122C154.673,-33.5994 163.58,-32.2471 172.441,-30.9016"/>
<polygon fill="midnightblue" stroke="midnightblue" points="173.049,-34.3495 182.411,-29.3879 171.999,-27.4288 173.049,-34.3495"/>
</g>
<!-- Node4 -->
<g id="node7" class="node"><title>Node4</title>
<a xlink:href="classZendDbSchema__Db__Schema__AbstractSchema.html#a55787c21deddba427842809d589c2df6" target="_top" xlink:title="ZendDbSchema_Db_Schema\l_AbstractSchema\\getName">
<polygon fill="white" stroke="black" points="382,-0 382,-34 528,-34 528,-0 382,-0"/>
<text text-anchor="start" x="390" y="-21" font-family="Helvetica,sans-Serif" font-size="10.00">ZendDbSchema_Db_Schema</text>
<text text-anchor="middle" x="455" y="-8" font-family="Helvetica,sans-Serif" font-size="10.00">_AbstractSchema\getName</text>
</a>
</g>
<!-- Node3&#45;&gt;Node4 -->
<g id="edge6" class="edge"><title>Node3&#45;&gt;Node4</title>
<path fill="none" stroke="midnightblue" d="M345.555,-17C354.227,-17 363.057,-17 371.748,-17"/>
<polygon fill="midnightblue" stroke="midnightblue" points="371.87,-20.5001 381.87,-17 371.87,-13.5001 371.87,-20.5001"/>
</g>
<!-- Node5 -->
<g id="node9" class="node"><title>Node5</title>
<a xlink:href="classZendDbSchema__Db__Schema__AbstractSchema.html#a54d32c6f15463eaad2321a9f0e7225d7" target="_top" xlink:title="ZendDbSchema_Db_Schema\l_AbstractSchema\\__get">
<polygon fill="white" stroke="black" points="564,-0 564,-34 710,-34 710,-0 564,-0"/>
<text text-anchor="start" x="572" y="-21" font-family="Helvetica,sans-Serif" font-size="10.00">ZendDbSchema_Db_Schema</text>
<text text-anchor="middle" x="637" y="-8" font-family="Helvetica,sans-Serif" font-size="10.00">_AbstractSchema\__get</text>
</a>
</g>
<!-- Node4&#45;&gt;Node5 -->
<g id="edge8" class="edge"><title>Node4&#45;&gt;Node5</title>
<path fill="none" stroke="midnightblue" d="M528.24,-17C536.596,-17 545.161,-17 553.636,-17"/>
<polygon fill="midnightblue" stroke="midnightblue" points="553.91,-20.5001 563.91,-17 553.91,-13.5001 553.91,-20.5001"/>
</g>
<!-- Node6 -->
<g id="node11" class="node"><title>Node6</title>
<a xlink:href="classZendDbSchema__Db__Schema__AbstractSchema.html#ac4e121ba7932163eb1950fabe06fb9db" target="_top" xlink:title="ZendDbSchema_Db_Schema\l_AbstractSchema\\__isset">
<polygon fill="white" stroke="black" points="746,-0 746,-34 892,-34 892,-0 746,-0"/>
<text text-anchor="start" x="754" y="-21" font-family="Helvetica,sans-Serif" font-size="10.00">ZendDbSchema_Db_Schema</text>
<text text-anchor="middle" x="819" y="-8" font-family="Helvetica,sans-Serif" font-size="10.00">_AbstractSchema\__isset</text>
</a>
</g>
<!-- Node5&#45;&gt;Node6 -->
<g id="edge10" class="edge"><title>Node5&#45;&gt;Node6</title>
<path fill="none" stroke="midnightblue" d="M710.24,-17C718.596,-17 727.161,-17 735.636,-17"/>
<polygon fill="midnightblue" stroke="midnightblue" points="735.91,-20.5001 745.91,-17 735.91,-13.5001 735.91,-20.5001"/>
</g>
</g>
</svg>
