<?xml version="1.0" encoding="UTF-8" standalone="no"?>
<!DOCTYPE svg PUBLIC "-//W3C//DTD SVG 1.1//EN"
 "http://www.w3.org/Graphics/SVG/1.1/DTD/svg11.dtd">
<!-- Generated by graphviz version 2.26.3 (20100126.1600)
 -->
<!-- Title: G Pages: 1 -->
<svg width="932pt" height="190pt"
 viewBox="0.00 0.00 932.00 190.00" xmlns="http://www.w3.org/2000/svg" xmlns:xlink="http://www.w3.org/1999/xlink">
<g id="graph1" class="graph" transform="scale(1 1) rotate(0) translate(4 186)">
<title>G</title>
<polygon fill="white" stroke="white" points="-4,5 -4,-186 929,-186 929,5 -4,5"/>
<!-- Node1 -->
<g id="node1" class="node"><title>Node1</title>
<polygon fill="#bfbfbf" stroke="black" points="0.5,-103 0.5,-137 171.5,-137 171.5,-103 0.5,-103"/>
<text text-anchor="start" x="8.5" y="-124" font-family="Helvetica,sans-Serif" font-size="10.00">ZendDbSchema_Db_Schema</text>
<text text-anchor="middle" x="86" y="-111" font-family="Helvetica,sans-Serif" font-size="10.00">_Table_PrimaryKey\removeColumn</text>
</g>
<!-- Node2 -->
<g id="node3" class="node"><title>Node2</title>
<a xlink:href="classZendDbSchema__Db__Schema__Table__PrimaryKey.html#a97ed55c2479299d4e75e98154f12c409" target="_top" xlink:title="ZendDbSchema_Db_Schema\l_Table_PrimaryKey\\hasColumn">
<polygon fill="white" stroke="black" points="209.5,-148 209.5,-182 364.5,-182 364.5,-148 209.5,-148"/>
<text text-anchor="start" x="217.5" y="-169" font-family="Helvetica,sans-Serif" font-size="10.00">ZendDbSchema_Db_Schema</text>
<text text-anchor="middle" x="287" y="-156" font-family="Helvetica,sans-Serif" font-size="10.00">_Table_PrimaryKey\hasColumn</text>
</a>
</g>
<!-- Node1&#45;&gt;Node2 -->
<g id="edge2" class="edge"><title>Node1&#45;&gt;Node2</title>
<path fill="none" stroke="midnightblue" d="M161.989,-137.013C174.746,-139.869 188.064,-142.85 201.051,-145.758"/>
<polygon fill="midnightblue" stroke="midnightblue" points="200.38,-149.194 210.903,-147.963 201.909,-142.363 200.38,-149.194"/>
</g>
<!-- Node3 -->
<g id="node5" class="node"><title>Node3</title>
<a xlink:href="classZendDbSchema__Db__Schema__Table__PrimaryKey.html#a228207d6e07e3ab95b8b25415077a6a1" target="_top" xlink:title="ZendDbSchema_Db_Schema\l_Table_PrimaryKey\\getColumns">
<polygon fill="white" stroke="black" points="402,-140 402,-174 560,-174 560,-140 402,-140"/>
<text text-anchor="start" x="410" y="-161" font-family="Helvetica,sans-Serif" font-size="10.00">ZendDbSchema_Db_Schema</text>
<text text-anchor="middle" x="481" y="-148" font-family="Helvetica,sans-Serif" font-size="10.00">_Table_PrimaryKey\getColumns</text>
</a>
</g>
<!-- Node1&#45;&gt;Node3 -->
<g id="edge10" class="edge"><title>Node1&#45;&gt;Node3</title>
<path fill="none" stroke="midnightblue" d="M171.646,-123.866C227.167,-126.852 300.996,-131.721 366,-139 374.372,-139.937 383.067,-141.047 391.758,-142.247"/>
<polygon fill="midnightblue" stroke="midnightblue" points="391.545,-145.752 401.938,-143.694 392.53,-138.822 391.545,-145.752"/>
</g>
<!-- Node6 -->
<g id="node12" class="node"><title>Node6</title>
<a xlink:href="classZendDbSchema__Db__Schema__Table__PrimaryKey.html#a01cfcffd92c38bc521628d49d5c74927" target="_top" xlink:title="ZendDbSchema_Db_Schema\l_Table_PrimaryKey\\setColumns">
<polygon fill="white" stroke="black" points="208,-58 208,-92 366,-92 366,-58 208,-58"/>
<text text-anchor="start" x="216" y="-79" font-family="Helvetica,sans-Serif" font-size="10.00">ZendDbSchema_Db_Schema</text>
<text text-anchor="middle" x="287" y="-66" font-family="Helvetica,sans-Serif" font-size="10.00">_Table_PrimaryKey\setColumns</text>
</a>
</g>
<!-- Node1&#45;&gt;Node6 -->
<g id="edge12" class="edge"><title>Node1&#45;&gt;Node6</title>
<path fill="none" stroke="midnightblue" d="M161.989,-102.987C174.746,-100.131 188.064,-97.1498 201.051,-94.2423"/>
<polygon fill="midnightblue" stroke="midnightblue" points="201.909,-97.6369 210.903,-92.0366 200.38,-90.806 201.909,-97.6369"/>
</g>
<!-- Node2&#45;&gt;Node3 -->
<g id="edge4" class="edge"><title>Node2&#45;&gt;Node3</title>
<path fill="none" stroke="midnightblue" d="M364.51,-161.804C373.405,-161.437 382.528,-161.061 391.564,-160.688"/>
<polygon fill="midnightblue" stroke="midnightblue" points="391.863,-164.179 401.71,-160.27 391.574,-157.185 391.863,-164.179"/>
</g>
<!-- Node4 -->
<g id="node7" class="node"><title>Node4</title>
<a xlink:href="classZendDbSchema__Db__Schema__AbstractSchema.html#a54d32c6f15463eaad2321a9f0e7225d7" target="_top" xlink:title="ZendDbSchema_Db_Schema\l_AbstractSchema\\__get">
<polygon fill="white" stroke="black" points="596,-140 596,-174 742,-174 742,-140 596,-140"/>
<text text-anchor="start" x="604" y="-161" font-family="Helvetica,sans-Serif" font-size="10.00">ZendDbSchema_Db_Schema</text>
<text text-anchor="middle" x="669" y="-148" font-family="Helvetica,sans-Serif" font-size="10.00">_AbstractSchema\__get</text>
</a>
</g>
<!-- Node3&#45;&gt;Node4 -->
<g id="edge6" class="edge"><title>Node3&#45;&gt;Node4</title>
<path fill="none" stroke="midnightblue" d="M560.184,-157C568.602,-157 577.183,-157 585.648,-157"/>
<polygon fill="midnightblue" stroke="midnightblue" points="585.896,-160.5 595.896,-157 585.896,-153.5 585.896,-160.5"/>
</g>
<!-- Node5 -->
<g id="node9" class="node"><title>Node5</title>
<a xlink:href="classZendDbSchema__Db__Schema__AbstractSchema.html#ac4e121ba7932163eb1950fabe06fb9db" target="_top" xlink:title="ZendDbSchema_Db_Schema\l_AbstractSchema\\__isset">
<polygon fill="white" stroke="black" points="778,-140 778,-174 924,-174 924,-140 778,-140"/>
<text text-anchor="start" x="786" y="-161" font-family="Helvetica,sans-Serif" font-size="10.00">ZendDbSchema_Db_Schema</text>
<text text-anchor="middle" x="851" y="-148" font-family="Helvetica,sans-Serif" font-size="10.00">_AbstractSchema\__isset</text>
</a>
</g>
<!-- Node4&#45;&gt;Node5 -->
<g id="edge8" class="edge"><title>Node4&#45;&gt;Node5</title>
<path fill="none" stroke="midnightblue" d="M742.24,-157C750.596,-157 759.161,-157 767.636,-157"/>
<polygon fill="midnightblue" stroke="midnightblue" points="767.91,-160.5 777.91,-157 767.91,-153.5 767.91,-160.5"/>
</g>
<!-- Node7 -->
<g id="node14" class="node"><title>Node7</title>
<a xlink:href="classZendDbSchema__Db__Schema__Table__AbstractDefinition.html#a65498451683b2cf8fd1dc65f7f03581d" target="_top" xlink:title="ZendDbSchema_Db_Schema\l_Table_AbstractDefinition\\__set">
<polygon fill="white" stroke="black" points="403,-58 403,-92 559,-92 559,-58 403,-58"/>
<text text-anchor="start" x="411" y="-79" font-family="Helvetica,sans-Serif" font-size="10.00">ZendDbSchema_Db_Schema</text>
<text text-anchor="middle" x="481" y="-66" font-family="Helvetica,sans-Serif" font-size="10.00">_Table_AbstractDefinition\__set</text>
</a>
</g>
<!-- Node6&#45;&gt;Node7 -->
<g id="edge14" class="edge"><title>Node6&#45;&gt;Node7</title>
<path fill="none" stroke="midnightblue" d="M366.187,-75C374.847,-75 383.703,-75 392.467,-75"/>
<polygon fill="midnightblue" stroke="midnightblue" points="392.694,-78.5001 402.694,-75 392.694,-71.5001 392.694,-78.5001"/>
</g>
<!-- Node8 -->
<g id="node16" class="node"><title>Node8</title>
<a xlink:href="classZendDbSchema__Db__Schema__Table__AbstractDefinition.html#a224b6a0c1df1d6ed40e03657782ef6fc" target="_top" xlink:title="ZendDbSchema_Db_Schema\l_Table_AbstractDefinition\l\\getTable">
<polygon fill="white" stroke="black" points="596,-66.5 596,-113.5 742,-113.5 742,-66.5 596,-66.5"/>
<text text-anchor="start" x="604" y="-100.5" font-family="Helvetica,sans-Serif" font-size="10.00">ZendDbSchema_Db_Schema</text>
<text text-anchor="start" x="604" y="-87.5" font-family="Helvetica,sans-Serif" font-size="10.00">_Table_AbstractDefinition</text>
<text text-anchor="middle" x="669" y="-74.5" font-family="Helvetica,sans-Serif" font-size="10.00">\getTable</text>
</a>
</g>
<!-- Node7&#45;&gt;Node8 -->
<g id="edge16" class="edge"><title>Node7&#45;&gt;Node8</title>
<path fill="none" stroke="midnightblue" d="M559.096,-81.231C567.965,-81.9387 577.029,-82.6618 585.958,-83.3743"/>
<polygon fill="midnightblue" stroke="midnightblue" points="585.72,-86.8663 595.966,-84.1728 586.276,-79.8885 585.72,-86.8663"/>
</g>
<!-- Node9 -->
<g id="node18" class="node"><title>Node9</title>
<a xlink:href="classZendDbSchema__Db__Schema__Table__AbstractDefinition.html#a2fb894602c4b7fbba5dd1d180f93c181" target="_top" xlink:title="ZendDbSchema_Db_Schema\l_Table_AbstractDefinition\l\\_getSchemaKey">
<polygon fill="white" stroke="black" points="596,-0.5 596,-47.5 742,-47.5 742,-0.5 596,-0.5"/>
<text text-anchor="start" x="604" y="-34.5" font-family="Helvetica,sans-Serif" font-size="10.00">ZendDbSchema_Db_Schema</text>
<text text-anchor="start" x="604" y="-21.5" font-family="Helvetica,sans-Serif" font-size="10.00">_Table_AbstractDefinition</text>
<text text-anchor="middle" x="669" y="-8.5" font-family="Helvetica,sans-Serif" font-size="10.00">\_getSchemaKey</text>
</a>
</g>
<!-- Node7&#45;&gt;Node9 -->
<g id="edge18" class="edge"><title>Node7&#45;&gt;Node9</title>
<path fill="none" stroke="midnightblue" d="M543.863,-57.9468C557.392,-54.2765 571.893,-50.343 586.053,-46.5015"/>
<polygon fill="midnightblue" stroke="midnightblue" points="587.052,-49.8572 595.786,-43.8611 585.219,-43.1014 587.052,-49.8572"/>
</g>
</g>
</svg>
