<?xml version="1.0" encoding="UTF-8" standalone="no"?>
<!DOCTYPE svg PUBLIC "-//W3C//DTD SVG 1.1//EN"
 "http://www.w3.org/Graphics/SVG/1.1/DTD/svg11.dtd">
<!-- Generated by graphviz version 2.26.3 (20100126.1600)
 -->
<!-- Title: G Pages: 1 -->
<svg width="832pt" height="188pt"
 viewBox="0.00 0.00 832.00 188.00" xmlns="http://www.w3.org/2000/svg" xmlns:xlink="http://www.w3.org/1999/xlink">
<g id="graph1" class="graph" transform="scale(1 1) rotate(0) translate(4 184)">
<title>G</title>
<polygon fill="white" stroke="white" points="-4,5 -4,-184 829,-184 829,5 -4,5"/>
<!-- Node1 -->
<g id="node1" class="node"><title>Node1</title>
<polygon fill="#bfbfbf" stroke="black" points="0.5,-79.5 0.5,-100.5 213.5,-100.5 213.5,-79.5 0.5,-79.5"/>
<text text-anchor="middle" x="107" y="-87.5" font-family="Helvetica,sans-Serif" font-size="10.00">ZendDbSchema_Db_Schema_Table\foreigns</text>
</g>
<!-- Node2 -->
<g id="node3" class="node"><title>Node2</title>
<a xlink:href="classZendDbSchema__Db__Schema__Table.html#a27720321b5699ac0f5cd673450e0b1ec" target="_top" xlink:title="ZendDbSchema_Db_Schema_Table\\_getManagerByItem">
<polygon fill="white" stroke="black" points="250,-158.5 250,-179.5 516,-179.5 516,-158.5 250,-158.5"/>
<text text-anchor="middle" x="383" y="-166.5" font-family="Helvetica,sans-Serif" font-size="10.00">ZendDbSchema_Db_Schema_Table\_getManagerByItem</text>
</a>
</g>
<!-- Node1&#45;&gt;Node2 -->
<g id="edge2" class="edge"><title>Node1&#45;&gt;Node2</title>
<path fill="none" stroke="midnightblue" d="M137.243,-105.002C165.679,-118.494 209.773,-137.854 250,-149 263.726,-152.803 278.463,-155.929 292.948,-158.485"/>
<polygon fill="midnightblue" stroke="midnightblue" points="138.758,-101.847 128.228,-100.672 135.727,-108.157 138.758,-101.847"/>
</g>
<!-- Node4 -->
<g id="node7" class="node"><title>Node4</title>
<a xlink:href="classZendDbSchema__Db__Schema__Table.html#a21a2a75870207a989576655fec7507c3" target="_top" xlink:title="ZendDbSchema_Db_Schema_Table\\isDirty">
<polygon fill="white" stroke="black" points="279.5,-118.5 279.5,-139.5 486.5,-139.5 486.5,-118.5 279.5,-118.5"/>
<text text-anchor="middle" x="383" y="-126.5" font-family="Helvetica,sans-Serif" font-size="10.00">ZendDbSchema_Db_Schema_Table\isDirty</text>
</a>
</g>
<!-- Node1&#45;&gt;Node4 -->
<g id="edge6" class="edge"><title>Node1&#45;&gt;Node4</title>
<path fill="none" stroke="midnightblue" d="M191.679,-101.965C229.002,-107.239 272.476,-113.382 308.541,-118.479"/>
<polygon fill="midnightblue" stroke="midnightblue" points="191.717,-98.4362 181.326,-100.503 190.738,-105.367 191.717,-98.4362"/>
</g>
<!-- Node6 -->
<g id="node11" class="node"><title>Node6</title>
<a xlink:href="classZendDbSchema__Db__Schema__Table.html#a6178edaeea7e08d97e2196dd991532f9" target="_top" xlink:title="ZendDbSchema_Db_Schema_Table\\toSql">
<polygon fill="white" stroke="black" points="587.5,-78.5 587.5,-99.5 788.5,-99.5 788.5,-78.5 587.5,-78.5"/>
<text text-anchor="middle" x="688" y="-86.5" font-family="Helvetica,sans-Serif" font-size="10.00">ZendDbSchema_Db_Schema_Table\toSql</text>
</a>
</g>
<!-- Node1&#45;&gt;Node6 -->
<g id="edge20" class="edge"><title>Node1&#45;&gt;Node6</title>
<path fill="none" stroke="midnightblue" d="M223.722,-89.7991C330.315,-89.6156 486.264,-89.3472 587.456,-89.1731"/>
<polygon fill="midnightblue" stroke="midnightblue" points="223.558,-86.2993 213.564,-89.8166 223.57,-93.2993 223.558,-86.2993"/>
</g>
<!-- Node7 -->
<g id="node13" class="node"><title>Node7</title>
<a xlink:href="classZendDbSchema__Db__Schema__Table.html#abeba5309be6269e72b2818fcabc01fec" target="_top" xlink:title="ZendDbSchema_Db_Schema_Table\\setFromArray">
<polygon fill="white" stroke="black" points="264,-40.5 264,-61.5 502,-61.5 502,-40.5 264,-40.5"/>
<text text-anchor="middle" x="383" y="-48.5" font-family="Helvetica,sans-Serif" font-size="10.00">ZendDbSchema_Db_Schema_Table\setFromArray</text>
</a>
</g>
<!-- Node1&#45;&gt;Node7 -->
<g id="edge12" class="edge"><title>Node1&#45;&gt;Node7</title>
<path fill="none" stroke="midnightblue" d="M191.679,-78.0345C229.002,-72.7605 272.476,-66.6176 308.541,-61.5213"/>
<polygon fill="midnightblue" stroke="midnightblue" points="190.738,-74.6326 181.326,-79.4974 191.717,-81.5638 190.738,-74.6326"/>
</g>
<!-- Node9 -->
<g id="node17" class="node"><title>Node9</title>
<a xlink:href="classZendDbSchema__Db__Schema__Table.html#aad47d08cebd042ad8e64d825b65859ab" target="_top" xlink:title="ZendDbSchema_Db_Schema_Table\\toArray">
<polygon fill="white" stroke="black" points="278,-0.5 278,-21.5 488,-21.5 488,-0.5 278,-0.5"/>
<text text-anchor="middle" x="383" y="-8.5" font-family="Helvetica,sans-Serif" font-size="10.00">ZendDbSchema_Db_Schema_Table\toArray</text>
</a>
</g>
<!-- Node1&#45;&gt;Node9 -->
<g id="edge16" class="edge"><title>Node1&#45;&gt;Node9</title>
<path fill="none" stroke="midnightblue" d="M137.243,-74.9978C165.679,-61.5062 209.773,-42.1456 250,-31 263.726,-27.1969 278.463,-24.0707 292.948,-21.5147"/>
<polygon fill="midnightblue" stroke="midnightblue" points="135.727,-71.8432 128.228,-79.3278 138.758,-78.1531 135.727,-71.8432"/>
</g>
<!-- Node3 -->
<g id="node5" class="node"><title>Node3</title>
<a xlink:href="classZendDbSchema__Db__Schema__Table.html#aa51f7ef4e3b157d408deec87d519c4ca" target="_top" xlink:title="ZendDbSchema_Db_Schema_Table\\add">
<polygon fill="white" stroke="black" points="591,-158.5 591,-179.5 785,-179.5 785,-158.5 591,-158.5"/>
<text text-anchor="middle" x="688" y="-166.5" font-family="Helvetica,sans-Serif" font-size="10.00">ZendDbSchema_Db_Schema_Table\add</text>
</a>
</g>
<!-- Node2&#45;&gt;Node3 -->
<g id="edge4" class="edge"><title>Node2&#45;&gt;Node3</title>
<path fill="none" stroke="midnightblue" d="M526.622,-169C548.33,-169 570.278,-169 590.7,-169"/>
<polygon fill="midnightblue" stroke="midnightblue" points="526.334,-165.5 516.334,-169 526.334,-172.5 526.334,-165.5"/>
</g>
<!-- Node5 -->
<g id="node9" class="node"><title>Node5</title>
<a xlink:href="classZendDbSchema__Db__Schema__Generator__Mysql.html#aebe278ab07f38d58f8f440f9cad01565" target="_top" xlink:title="ZendDbSchema_Db_Schema_Generator_Mysql\\alterTable">
<polygon fill="white" stroke="black" points="552,-118.5 552,-139.5 824,-139.5 824,-118.5 552,-118.5"/>
<text text-anchor="middle" x="688" y="-126.5" font-family="Helvetica,sans-Serif" font-size="10.00">ZendDbSchema_Db_Schema_Generator_Mysql\alterTable</text>
</a>
</g>
<!-- Node4&#45;&gt;Node5 -->
<g id="edge8" class="edge"><title>Node4&#45;&gt;Node5</title>
<path fill="none" stroke="midnightblue" d="M496.865,-129C514.818,-129 533.536,-129 551.931,-129"/>
<polygon fill="midnightblue" stroke="midnightblue" points="496.685,-125.5 486.685,-129 496.685,-132.5 496.685,-125.5"/>
</g>
<!-- Node4&#45;&gt;Node6 -->
<g id="edge10" class="edge"><title>Node4&#45;&gt;Node6</title>
<path fill="none" stroke="midnightblue" d="M473.247,-117.164C515.957,-111.563 566.533,-104.93 607.871,-99.5087"/>
<polygon fill="midnightblue" stroke="midnightblue" points="472.595,-113.72 463.135,-118.49 473.505,-120.66 472.595,-113.72"/>
</g>
<!-- Node8 -->
<g id="node15" class="node"><title>Node8</title>
<a xlink:href="classZendDbSchema__Db__Schema__Table.html#a1fcef515c845c7770e17f997f80cafa9" target="_top" xlink:title="ZendDbSchema_Db_Schema_Table\\__clone">
<polygon fill="white" stroke="black" points="582,-19.5 582,-40.5 794,-40.5 794,-19.5 582,-19.5"/>
<text text-anchor="middle" x="688" y="-27.5" font-family="Helvetica,sans-Serif" font-size="10.00">ZendDbSchema_Db_Schema_Table\__clone</text>
</a>
</g>
<!-- Node7&#45;&gt;Node8 -->
<g id="edge14" class="edge"><title>Node7&#45;&gt;Node8</title>
<path fill="none" stroke="midnightblue" d="M512.437,-42.0879C535.549,-40.4966 559.384,-38.8555 581.753,-37.3154"/>
<polygon fill="midnightblue" stroke="midnightblue" points="511.967,-38.6119 502.231,-42.7906 512.448,-45.5954 511.967,-38.6119"/>
</g>
<!-- Node9&#45;&gt;Node8 -->
<g id="edge18" class="edge"><title>Node9&#45;&gt;Node8</title>
<path fill="none" stroke="midnightblue" d="M498.397,-18.1887C525.786,-19.8949 554.875,-21.7069 581.83,-23.3861"/>
<polygon fill="midnightblue" stroke="midnightblue" points="498.589,-14.6939 488.391,-17.5653 498.154,-21.6804 498.589,-14.6939"/>
</g>
</g>
</svg>
