<?xml version="1.0" encoding="UTF-8" standalone="no"?>
<!DOCTYPE svg PUBLIC "-//W3C//DTD SVG 1.1//EN"
 "http://www.w3.org/Graphics/SVG/1.1/DTD/svg11.dtd">
<!-- Generated by graphviz version 2.26.3 (20100126.1600)
 -->
<!-- Title: G Pages: 1 -->
<svg width="766pt" height="94pt"
 viewBox="0.00 0.00 766.00 94.00" xmlns="http://www.w3.org/2000/svg" xmlns:xlink="http://www.w3.org/1999/xlink">
<g id="graph1" class="graph" transform="scale(1 1) rotate(0) translate(4 90)">
<title>G</title>
<polygon fill="white" stroke="white" points="-4,5 -4,-90 763,-90 763,5 -4,5"/>
<!-- Node1 -->
<g id="node1" class="node"><title>Node1</title>
<polygon fill="#bfbfbf" stroke="black" points="0,-26 0,-60 146,-60 146,-26 0,-26"/>
<text text-anchor="start" x="8" y="-47" font-family="Helvetica,sans-Serif" font-size="10.00">ZendDbSchema_Db_Schema</text>
<text text-anchor="middle" x="73" y="-34" font-family="Helvetica,sans-Serif" font-size="10.00">_AbstractSchema\getDropSql</text>
</g>
<!-- Node2 -->
<g id="node3" class="node"><title>Node2</title>
<a xlink:href="classZendDbSchema__Db__Schema__AbstractSchema.html#a1680a8fd22360f74d29b641d7257a52f" target="_top" xlink:title="ZendDbSchema_Db_Schema\l_AbstractSchema\\isExist">
<polygon fill="white" stroke="black" points="185,-52 185,-86 331,-86 331,-52 185,-52"/>
<text text-anchor="start" x="193" y="-73" font-family="Helvetica,sans-Serif" font-size="10.00">ZendDbSchema_Db_Schema</text>
<text text-anchor="middle" x="258" y="-60" font-family="Helvetica,sans-Serif" font-size="10.00">_AbstractSchema\isExist</text>
</a>
</g>
<!-- Node1&#45;&gt;Node2 -->
<g id="edge2" class="edge"><title>Node1&#45;&gt;Node2</title>
<path fill="none" stroke="midnightblue" d="M146.117,-53.2759C155.562,-54.6033 165.289,-55.9703 174.88,-57.3183"/>
<polygon fill="midnightblue" stroke="midnightblue" points="174.419,-60.7877 184.808,-58.7136 175.393,-53.8559 174.419,-60.7877"/>
</g>
<!-- Node5 -->
<g id="node9" class="node"><title>Node5</title>
<a xlink:href="classZendDbSchema__Db__Schema__AbstractSchema.html#abf887d2836071992af679430ddf1b922" target="_top" xlink:title="ZendDbSchema_Db_Schema\l_AbstractSchema\\_getDropSql">
<polygon fill="white" stroke="black" points="182,-0 182,-34 334,-34 334,-0 182,-0"/>
<text text-anchor="start" x="190" y="-21" font-family="Helvetica,sans-Serif" font-size="10.00">ZendDbSchema_Db_Schema</text>
<text text-anchor="middle" x="258" y="-8" font-family="Helvetica,sans-Serif" font-size="10.00">_AbstractSchema\_getDropSql</text>
</a>
</g>
<!-- Node1&#45;&gt;Node5 -->
<g id="edge8" class="edge"><title>Node1&#45;&gt;Node5</title>
<path fill="none" stroke="midnightblue" d="M146.117,-32.7241C154.538,-31.5407 163.183,-30.3257 171.756,-29.1208"/>
<polygon fill="midnightblue" stroke="midnightblue" points="172.353,-32.5713 181.769,-27.7136 171.379,-25.6394 172.353,-32.5713"/>
</g>
<!-- Node3 -->
<g id="node5" class="node"><title>Node3</title>
<a xlink:href="classZendDbSchema__Db__Schema__AbstractSchema.html#a46da7a60c7e5fd605607afbc1dac4baa" target="_top" xlink:title="ZendDbSchema_Db_Schema\l_AbstractSchema\\getCleanSchema">
<polygon fill="white" stroke="black" points="370.5,-52 370.5,-86 543.5,-86 543.5,-52 370.5,-52"/>
<text text-anchor="start" x="378.5" y="-73" font-family="Helvetica,sans-Serif" font-size="10.00">ZendDbSchema_Db_Schema</text>
<text text-anchor="middle" x="457" y="-60" font-family="Helvetica,sans-Serif" font-size="10.00">_AbstractSchema\getCleanSchema</text>
</a>
</g>
<!-- Node2&#45;&gt;Node3 -->
<g id="edge4" class="edge"><title>Node2&#45;&gt;Node3</title>
<path fill="none" stroke="midnightblue" d="M331.252,-69C340.711,-69 350.511,-69 360.275,-69"/>
<polygon fill="midnightblue" stroke="midnightblue" points="360.422,-72.5001 370.422,-69 360.422,-65.5001 360.422,-72.5001"/>
</g>
<!-- Node4 -->
<g id="node7" class="node"><title>Node4</title>
<a xlink:href="classZendDbSchema__Db__Schema__AbstractSchema.html#af99e5bb9adfe0da8c94d3d3848efe7b5" target="_top" xlink:title="ZendDbSchema_Db_Schema\l_AbstractSchema\\_getCleanSchema">
<polygon fill="white" stroke="black" points="580,-52 580,-86 758,-86 758,-52 580,-52"/>
<text text-anchor="start" x="588" y="-73" font-family="Helvetica,sans-Serif" font-size="10.00">ZendDbSchema_Db_Schema</text>
<text text-anchor="middle" x="669" y="-60" font-family="Helvetica,sans-Serif" font-size="10.00">_AbstractSchema\_getCleanSchema</text>
</a>
</g>
<!-- Node3&#45;&gt;Node4 -->
<g id="edge6" class="edge"><title>Node3&#45;&gt;Node4</title>
<path fill="none" stroke="midnightblue" d="M543.534,-69C552.175,-69 560.994,-69 569.752,-69"/>
<polygon fill="midnightblue" stroke="midnightblue" points="569.99,-72.5001 579.99,-69 569.99,-65.5001 569.99,-72.5001"/>
</g>
</g>
</svg>
