<?xml version="1.0" encoding="UTF-8" standalone="no"?>
<!DOCTYPE svg PUBLIC "-//W3C//DTD SVG 1.1//EN"
 "http://www.w3.org/Graphics/SVG/1.1/DTD/svg11.dtd">
<!-- Generated by graphviz version 2.26.3 (20100126.1600)
 -->
<!-- Title: G Pages: 1 -->
<svg width="810pt" height="70pt"
 viewBox="0.00 0.00 810.00 70.00" xmlns="http://www.w3.org/2000/svg" xmlns:xlink="http://www.w3.org/1999/xlink">
<g id="graph1" class="graph" transform="scale(1 1) rotate(0) translate(4 66)">
<title>G</title>
<polygon fill="white" stroke="white" points="-4,5 -4,-66 807,-66 807,5 -4,5"/>
<!-- Node1 -->
<g id="node1" class="node"><title>Node1</title>
<polygon fill="#bfbfbf" stroke="black" points="0.5,-20.5 0.5,-41.5 233.5,-41.5 233.5,-20.5 0.5,-20.5"/>
<text text-anchor="middle" x="117" y="-28.5" font-family="Helvetica,sans-Serif" font-size="10.00">ZendDbSchema_Db_Migration_Manager\compare</text>
</g>
<!-- Node2 -->
<g id="node3" class="node"><title>Node2</title>
<a xlink:href="classZendDbSchema__Db__Migration__Manager.html#adfbbc8dad4cd716aeb610eafaec049b1" target="_top" xlink:title="ZendDbSchema_Db_Migration_Manager\\getMigration">
<polygon fill="white" stroke="black" points="270.5,-1.5 270.5,-22.5 519.5,-22.5 519.5,-1.5 270.5,-1.5"/>
<text text-anchor="middle" x="395" y="-9.5" font-family="Helvetica,sans-Serif" font-size="10.00">ZendDbSchema_Db_Migration_Manager\getMigration</text>
</a>
</g>
<!-- Node1&#45;&gt;Node2 -->
<g id="edge2" class="edge"><title>Node1&#45;&gt;Node2</title>
<path fill="none" stroke="midnightblue" d="M233.689,-23.0249C242.339,-22.4336 251.108,-21.8343 259.857,-21.2364"/>
<polygon fill="midnightblue" stroke="midnightblue" points="260.372,-24.7095 270.11,-20.5357 259.894,-17.7258 260.372,-24.7095"/>
</g>
<!-- Node3 -->
<g id="node5" class="node"><title>Node3</title>
<a xlink:href="classZendDbSchema__Db__Migration__Manager.html#ab66af8a9dc5cdb099b8266b68166c4e0" target="_top" xlink:title="ZendDbSchema_Db_Migration_Manager\\getVersion">
<polygon fill="white" stroke="black" points="558,-40.5 558,-61.5 800,-61.5 800,-40.5 558,-40.5"/>
<text text-anchor="middle" x="679" y="-48.5" font-family="Helvetica,sans-Serif" font-size="10.00">ZendDbSchema_Db_Migration_Manager\getVersion</text>
</a>
</g>
<!-- Node1&#45;&gt;Node3 -->
<g id="edge8" class="edge"><title>Node1&#45;&gt;Node3</title>
<path fill="none" stroke="midnightblue" d="M233.788,-35.1562C325.325,-38.4137 452.678,-42.9458 547.736,-46.3287"/>
<polygon fill="midnightblue" stroke="midnightblue" points="547.877,-49.8358 557.995,-46.6938 548.126,-42.8403 547.877,-49.8358"/>
</g>
<!-- Node2&#45;&gt;Node3 -->
<g id="edge4" class="edge"><title>Node2&#45;&gt;Node3</title>
<path fill="none" stroke="midnightblue" d="M471.48,-22.5026C508.731,-27.618 553.687,-33.7915 592.218,-39.0827"/>
<polygon fill="midnightblue" stroke="midnightblue" points="592,-42.5856 602.383,-40.4787 592.952,-35.6506 592,-42.5856"/>
</g>
<!-- Node4 -->
<g id="node7" class="node"><title>Node4</title>
<a xlink:href="classZendDbSchema__Db__Migration__Manager.html#a9cc145e81602dbdd849728a5f8b28565" target="_top" xlink:title="ZendDbSchema_Db_Migration_Manager\\hasVersion">
<polygon fill="white" stroke="black" points="556.5,-0.5 556.5,-21.5 801.5,-21.5 801.5,-0.5 556.5,-0.5"/>
<text text-anchor="middle" x="679" y="-8.5" font-family="Helvetica,sans-Serif" font-size="10.00">ZendDbSchema_Db_Migration_Manager\hasVersion</text>
</a>
</g>
<!-- Node2&#45;&gt;Node4 -->
<g id="edge6" class="edge"><title>Node2&#45;&gt;Node4</title>
<path fill="none" stroke="midnightblue" d="M519.567,-11.5614C528.446,-11.5301 537.418,-11.4985 546.34,-11.4671"/>
<polygon fill="midnightblue" stroke="midnightblue" points="546.397,-14.967 556.385,-11.4317 546.373,-7.96707 546.397,-14.967"/>
</g>
</g>
</svg>
