<?xml version="1.0" encoding="UTF-8" standalone="no"?>
<!DOCTYPE svg PUBLIC "-//W3C//DTD SVG 1.1//EN"
 "http://www.w3.org/Graphics/SVG/1.1/DTD/svg11.dtd">
<!-- Generated by graphviz version 2.26.3 (20100126.1600)
 -->
<!-- Title: G Pages: 1 -->
<svg width="1012pt" height="70pt"
 viewBox="0.00 0.00 1012.00 70.00" xmlns="http://www.w3.org/2000/svg" xmlns:xlink="http://www.w3.org/1999/xlink">
<g id="graph1" class="graph" transform="scale(1 1) rotate(0) translate(4 66)">
<title>G</title>
<polygon fill="white" stroke="white" points="-4,5 -4,-66 1009,-66 1009,5 -4,5"/>
<!-- Node1 -->
<g id="node1" class="node"><title>Node1</title>
<polygon fill="#bfbfbf" stroke="black" points="0,-20.5 0,-41.5 240,-41.5 240,-20.5 0,-20.5"/>
<text text-anchor="middle" x="120" y="-28.5" font-family="Helvetica,sans-Serif" font-size="10.00">ZendDbSchema_Db_Migration_Manager\getIterator</text>
</g>
<!-- Node2 -->
<g id="node3" class="node"><title>Node2</title>
<a xlink:href="classZendDbSchema__Db__Migration__Manager.html#a45f1f55c26694ff5fb0806e4547a3dc8" target="_top" xlink:title="ZendDbSchema_Db_Migration_Manager\\getList">
<polygon fill="white" stroke="black" points="278.5,-40.5 278.5,-61.5 503.5,-61.5 503.5,-40.5 278.5,-40.5"/>
<text text-anchor="middle" x="391" y="-48.5" font-family="Helvetica,sans-Serif" font-size="10.00">ZendDbSchema_Db_Migration_Manager\getList</text>
</a>
</g>
<!-- Node1&#45;&gt;Node2 -->
<g id="edge2" class="edge"><title>Node1&#45;&gt;Node2</title>
<path fill="none" stroke="midnightblue" d="M250.232,-40.6112C259.638,-41.3054 269.077,-42.002 278.369,-42.6878"/>
<polygon fill="midnightblue" stroke="midnightblue" points="250.279,-37.1052 240.048,-39.8596 249.763,-44.0862 250.279,-37.1052"/>
</g>
<!-- Node3 -->
<g id="node5" class="node"><title>Node3</title>
<a xlink:href="classZendDbSchema__Db__Migration__Manager.html#acb171835d37a1596a4ac6db273bf07ae" target="_top" xlink:title="ZendDbSchema_Db_Migration_Manager\\getNext">
<polygon fill="white" stroke="black" points="276,-0.5 276,-21.5 506,-21.5 506,-0.5 276,-0.5"/>
<text text-anchor="middle" x="391" y="-8.5" font-family="Helvetica,sans-Serif" font-size="10.00">ZendDbSchema_Db_Migration_Manager\getNext</text>
</a>
</g>
<!-- Node1&#45;&gt;Node3 -->
<g id="edge4" class="edge"><title>Node1&#45;&gt;Node3</title>
<path fill="none" stroke="midnightblue" d="M250.112,-21.3976C258.704,-20.7636 267.324,-20.1274 275.835,-19.4992"/>
<polygon fill="midnightblue" stroke="midnightblue" points="249.763,-17.9138 240.048,-22.1404 250.279,-24.8948 249.763,-17.9138"/>
</g>
<!-- Node4 -->
<g id="node7" class="node"><title>Node4</title>
<a xlink:href="classZendDbSchema__Db__Migration__Manager.html#afbaee9196407b68350626e8601a44a9a" target="_top" xlink:title="ZendDbSchema_Db_Migration_Manager\\rollup">
<polygon fill="white" stroke="black" points="542.5,-0.5 542.5,-21.5 761.5,-21.5 761.5,-0.5 542.5,-0.5"/>
<text text-anchor="middle" x="652" y="-8.5" font-family="Helvetica,sans-Serif" font-size="10.00">ZendDbSchema_Db_Migration_Manager\rollup</text>
</a>
</g>
<!-- Node3&#45;&gt;Node4 -->
<g id="edge6" class="edge"><title>Node3&#45;&gt;Node4</title>
<path fill="none" stroke="midnightblue" d="M516.41,-11C525.094,-11 533.809,-11 542.4,-11"/>
<polygon fill="midnightblue" stroke="midnightblue" points="516.238,-7.5001 506.238,-11 516.238,-14.5001 516.238,-7.5001"/>
</g>
<!-- Node5 -->
<g id="node9" class="node"><title>Node5</title>
<a xlink:href="classZendDbSchema__Db__Migration__Manager.html#a260901608e7ed2fb5ffef1bf8387e2e9" target="_top" xlink:title="ZendDbSchema_Db_Migration_Manager\\up">
<polygon fill="white" stroke="black" points="798,-0.5 798,-21.5 1004,-21.5 1004,-0.5 798,-0.5"/>
<text text-anchor="middle" x="901" y="-8.5" font-family="Helvetica,sans-Serif" font-size="10.00">ZendDbSchema_Db_Migration_Manager\up</text>
</a>
</g>
<!-- Node4&#45;&gt;Node5 -->
<g id="edge8" class="edge"><title>Node4&#45;&gt;Node5</title>
<path fill="none" stroke="midnightblue" d="M771.74,-11C780.418,-11 789.126,-11 797.697,-11"/>
<polygon fill="midnightblue" stroke="midnightblue" points="771.577,-7.5001 761.577,-11 771.577,-14.5001 771.577,-7.5001"/>
</g>
</g>
</svg>
