<?xml version="1.0" encoding="UTF-8" standalone="no"?>
<!DOCTYPE svg PUBLIC "-//W3C//DTD SVG 1.1//EN"
 "http://www.w3.org/Graphics/SVG/1.1/DTD/svg11.dtd">
<!-- Generated by graphviz version 2.26.3 (20100126.1600)
 -->
<!-- Title: G Pages: 1 -->
<svg width="892pt" height="70pt"
 viewBox="0.00 0.00 892.00 70.00" xmlns="http://www.w3.org/2000/svg" xmlns:xlink="http://www.w3.org/1999/xlink">
<g id="graph1" class="graph" transform="scale(1 1) rotate(0) translate(4 66)">
<title>G</title>
<polygon fill="white" stroke="white" points="-4,5 -4,-66 889,-66 889,5 -4,5"/>
<!-- Node1 -->
<g id="node1" class="node"><title>Node1</title>
<polygon fill="#bfbfbf" stroke="black" points="0,-20.5 0,-41.5 296,-41.5 296,-20.5 0,-20.5"/>
<text text-anchor="middle" x="148" y="-28.5" font-family="Helvetica,sans-Serif" font-size="10.00">ZendDbSchema_Db_Schema_AbstractEntity\getDefaultAdapter</text>
</g>
<!-- Node2 -->
<g id="node3" class="node"><title>Node2</title>
<a xlink:href="classZendDbSchema__Db__Schema__AbstractEntity.html#aac1437b528d32a91276307cd6a5d96bc" target="_top" xlink:title="ZendDbSchema_Db_Schema_AbstractEntity\\__construct">
<polygon fill="white" stroke="black" points="332,-40.5 332,-61.5 600,-61.5 600,-40.5 332,-40.5"/>
<text text-anchor="middle" x="466" y="-48.5" font-family="Helvetica,sans-Serif" font-size="10.00">ZendDbSchema_Db_Schema_AbstractEntity\__construct</text>
</a>
</g>
<!-- Node1&#45;&gt;Node2 -->
<g id="edge2" class="edge"><title>Node1&#45;&gt;Node2</title>
<path fill="none" stroke="midnightblue" d="M306.28,-40.9547C314.793,-41.4901 323.308,-42.0257 331.729,-42.5553"/>
<polygon fill="midnightblue" stroke="midnightblue" points="306.493,-37.4613 296.293,-40.3266 306.054,-44.4475 306.493,-37.4613"/>
</g>
<!-- Node3 -->
<g id="node5" class="node"><title>Node3</title>
<a xlink:href="classZendDbSchema__Db__Migration__Skeleton.html#a1d08bca816aaff3ac27087d5e5daa2ff" target="_top" xlink:title="ZendDbSchema_Db_Migration_Skeleton\\getAdapter">
<polygon fill="white" stroke="black" points="344,-0.5 344,-21.5 588,-21.5 588,-0.5 344,-0.5"/>
<text text-anchor="middle" x="466" y="-8.5" font-family="Helvetica,sans-Serif" font-size="10.00">ZendDbSchema_Db_Migration_Skeleton\getAdapter</text>
</a>
</g>
<!-- Node1&#45;&gt;Node3 -->
<g id="edge4" class="edge"><title>Node1&#45;&gt;Node3</title>
<path fill="none" stroke="midnightblue" d="M306.348,-21.041C318.894,-20.2519 331.446,-19.4625 343.691,-18.6924"/>
<polygon fill="midnightblue" stroke="midnightblue" points="306.054,-17.5525 296.293,-21.6734 306.493,-24.5387 306.054,-17.5525"/>
</g>
<!-- Node4 -->
<g id="node7" class="node"><title>Node4</title>
<a xlink:href="classZendDbSchema__Db__Migration__Skeleton.html#a58a0cbc3ea2139c107db1c19d4a6b60d" target="_top" xlink:title="ZendDbSchema_Db_Migration_Skeleton\\addSchema">
<polygon fill="white" stroke="black" points="636,-0.5 636,-21.5 884,-21.5 884,-0.5 636,-0.5"/>
<text text-anchor="middle" x="760" y="-8.5" font-family="Helvetica,sans-Serif" font-size="10.00">ZendDbSchema_Db_Migration_Skeleton\addSchema</text>
</a>
</g>
<!-- Node3&#45;&gt;Node4 -->
<g id="edge6" class="edge"><title>Node3&#45;&gt;Node4</title>
<path fill="none" stroke="midnightblue" d="M598.157,-11C610.711,-11 623.41,-11 635.883,-11"/>
<polygon fill="midnightblue" stroke="midnightblue" points="598.128,-7.5001 588.128,-11 598.128,-14.5001 598.128,-7.5001"/>
</g>
</g>
</svg>
