<?xml version="1.0" encoding="UTF-8" standalone="no"?>
<!DOCTYPE svg PUBLIC "-//W3C//DTD SVG 1.1//EN"
 "http://www.w3.org/Graphics/SVG/1.1/DTD/svg11.dtd">
<!-- Generated by graphviz version 2.26.3 (20100126.1600)
 -->
<!-- Title: G Pages: 1 -->
<svg width="758pt" height="406pt"
 viewBox="0.00 0.00 758.00 406.00" xmlns="http://www.w3.org/2000/svg" xmlns:xlink="http://www.w3.org/1999/xlink">
<g id="graph1" class="graph" transform="scale(1 1) rotate(0) translate(4 402)">
<title>G</title>
<polygon fill="white" stroke="white" points="-4,5 -4,-402 755,-402 755,5 -4,5"/>
<!-- Node1 -->
<g id="node1" class="node"><title>Node1</title>
<polygon fill="#bfbfbf" stroke="black" points="0,-93.5 0,-140.5 146,-140.5 146,-93.5 0,-93.5"/>
<text text-anchor="start" x="8" y="-127.5" font-family="Helvetica,sans-Serif" font-size="10.00">ZendDbSchema_Db_Schema</text>
<text text-anchor="start" x="8" y="-114.5" font-family="Helvetica,sans-Serif" font-size="10.00">_Table_AbstractDefinition</text>
<text text-anchor="middle" x="73" y="-101.5" font-family="Helvetica,sans-Serif" font-size="10.00">\_getSchemaKey</text>
</g>
<!-- Node2 -->
<g id="node3" class="node"><title>Node2</title>
<a xlink:href="classZendDbSchema__Db__Schema__Table__AbstractDefinition.html#a65498451683b2cf8fd1dc65f7f03581d" target="_top" xlink:title="ZendDbSchema_Db_Schema\l_Table_AbstractDefinition\\__set">
<polygon fill="white" stroke="black" points="182,-130 182,-164 338,-164 338,-130 182,-130"/>
<text text-anchor="start" x="190" y="-151" font-family="Helvetica,sans-Serif" font-size="10.00">ZendDbSchema_Db_Schema</text>
<text text-anchor="middle" x="260" y="-138" font-family="Helvetica,sans-Serif" font-size="10.00">_Table_AbstractDefinition\__set</text>
</a>
</g>
<!-- Node1&#45;&gt;Node2 -->
<g id="edge2" class="edge"><title>Node1&#45;&gt;Node2</title>
<path fill="none" stroke="midnightblue" d="M156.044,-130.323C164.574,-131.691 173.221,-133.078 181.697,-134.438"/>
<polygon fill="midnightblue" stroke="midnightblue" points="156.531,-126.856 146.103,-128.728 155.422,-133.768 156.531,-126.856"/>
</g>
<!-- Node15 -->
<g id="node29" class="node"><title>Node15</title>
<a xlink:href="classZendDbSchema__Db__Schema__Table__AbstractDefinition.html#a355febe0ff6ed1a3b95ae1edd91b807e" target="_top" xlink:title="ZendDbSchema_Db_Schema\l_Table_AbstractDefinition\l\\_getCleanSchema">
<polygon fill="white" stroke="black" points="187,-64.5 187,-111.5 333,-111.5 333,-64.5 187,-64.5"/>
<text text-anchor="start" x="195" y="-98.5" font-family="Helvetica,sans-Serif" font-size="10.00">ZendDbSchema_Db_Schema</text>
<text text-anchor="start" x="195" y="-85.5" font-family="Helvetica,sans-Serif" font-size="10.00">_Table_AbstractDefinition</text>
<text text-anchor="middle" x="260" y="-72.5" font-family="Helvetica,sans-Serif" font-size="10.00">\_getCleanSchema</text>
</a>
</g>
<!-- Node1&#45;&gt;Node15 -->
<g id="edge28" class="edge"><title>Node1&#45;&gt;Node15</title>
<path fill="none" stroke="midnightblue" d="M156.259,-104.088C166.489,-102.502 176.885,-100.89 186.948,-99.3289"/>
<polygon fill="midnightblue" stroke="midnightblue" points="155.448,-100.672 146.103,-105.663 156.521,-107.589 155.448,-100.672"/>
</g>
<!-- Node3 -->
<g id="node5" class="node"><title>Node3</title>
<a xlink:href="classZendDbSchema__Db__Schema__Table__Index.html#a77b65e961a7da9ca89fdebd682338fcf" target="_top" xlink:title="ZendDbSchema_Db_Schema\l_Table_Index\\setColumns">
<polygon fill="white" stroke="black" points="385,-312 385,-346 531,-346 531,-312 385,-312"/>
<text text-anchor="start" x="393" y="-333" font-family="Helvetica,sans-Serif" font-size="10.00">ZendDbSchema_Db_Schema</text>
<text text-anchor="middle" x="458" y="-320" font-family="Helvetica,sans-Serif" font-size="10.00">_Table_Index\setColumns</text>
</a>
</g>
<!-- Node2&#45;&gt;Node3 -->
<g id="edge4" class="edge"><title>Node2&#45;&gt;Node3</title>
<path fill="none" stroke="midnightblue" d="M286.235,-171.115C326.817,-208.418 403.825,-279.203 439.278,-311.791"/>
<polygon fill="midnightblue" stroke="midnightblue" points="288.358,-168.313 278.627,-164.122 283.621,-173.466 288.358,-168.313"/>
</g>
<!-- Node6 -->
<g id="node11" class="node"><title>Node6</title>
<a xlink:href="classZendDbSchema__Db__Schema__Table__PrimaryKey.html#a01cfcffd92c38bc521628d49d5c74927" target="_top" xlink:title="ZendDbSchema_Db_Schema\l_Table_PrimaryKey\\setColumns">
<polygon fill="white" stroke="black" points="379,-208 379,-242 537,-242 537,-208 379,-208"/>
<text text-anchor="start" x="387" y="-229" font-family="Helvetica,sans-Serif" font-size="10.00">ZendDbSchema_Db_Schema</text>
<text text-anchor="middle" x="458" y="-216" font-family="Helvetica,sans-Serif" font-size="10.00">_Table_PrimaryKey\setColumns</text>
</a>
</g>
<!-- Node2&#45;&gt;Node6 -->
<g id="edge10" class="edge"><title>Node2&#45;&gt;Node6</title>
<path fill="none" stroke="midnightblue" d="M303.726,-168.532C324.713,-178.455 350.379,-189.999 374,-199 382.131,-202.098 390.806,-205.106 399.379,-207.91"/>
<polygon fill="midnightblue" stroke="midnightblue" points="304.969,-165.247 294.436,-164.101 301.955,-171.565 304.969,-165.247"/>
</g>
<!-- Node9 -->
<g id="node17" class="node"><title>Node9</title>
<a xlink:href="classZendDbSchema__Db__Schema__Table__ForeignKey.html#afb0c42af85a63c6347973ce79d2e7d80" target="_top" xlink:title="ZendDbSchema_Db_Schema\l_Table_ForeignKey\\setColumns">
<polygon fill="white" stroke="black" points="380,-156 380,-190 536,-190 536,-156 380,-156"/>
<text text-anchor="start" x="388" y="-177" font-family="Helvetica,sans-Serif" font-size="10.00">ZendDbSchema_Db_Schema</text>
<text text-anchor="middle" x="458" y="-164" font-family="Helvetica,sans-Serif" font-size="10.00">_Table_ForeignKey\setColumns</text>
</a>
</g>
<!-- Node2&#45;&gt;Node9 -->
<g id="edge16" class="edge"><title>Node2&#45;&gt;Node9</title>
<path fill="none" stroke="midnightblue" d="M348.311,-158.596C358.869,-159.983 369.591,-161.391 379.989,-162.756"/>
<polygon fill="midnightblue" stroke="midnightblue" points="348.625,-155.108 338.255,-157.276 347.714,-162.048 348.625,-155.108"/>
</g>
<!-- Node12 -->
<g id="node23" class="node"><title>Node12</title>
<a xlink:href="classZendDbSchema__Db__Schema__Table__ForeignKey.html#a0c51ff09d6df59b68f8f5ff4ec1ed32d" target="_top" xlink:title="ZendDbSchema_Db_Schema\l_Table_ForeignKey\\setOnDelete">
<polygon fill="white" stroke="black" points="379,-104 379,-138 537,-138 537,-104 379,-104"/>
<text text-anchor="start" x="387" y="-125" font-family="Helvetica,sans-Serif" font-size="10.00">ZendDbSchema_Db_Schema</text>
<text text-anchor="middle" x="458" y="-112" font-family="Helvetica,sans-Serif" font-size="10.00">_Table_ForeignKey\setOnDelete</text>
</a>
</g>
<!-- Node2&#45;&gt;Node12 -->
<g id="edge22" class="edge"><title>Node2&#45;&gt;Node12</title>
<path fill="none" stroke="midnightblue" d="M348.309,-135.404C358.429,-134.075 368.699,-132.726 378.691,-131.414"/>
<polygon fill="midnightblue" stroke="midnightblue" points="347.714,-131.952 338.255,-136.724 348.625,-138.892 347.714,-131.952"/>
</g>
<!-- Node13 -->
<g id="node25" class="node"><title>Node13</title>
<a xlink:href="classZendDbSchema__Db__Schema__Table__ForeignKey.html#ae8ffd9c6bad60eaf6ef05cdd1f5c56fb" target="_top" xlink:title="ZendDbSchema_Db_Schema\l_Table_ForeignKey\\setOnUpdate">
<polygon fill="white" stroke="black" points="377.5,-52 377.5,-86 538.5,-86 538.5,-52 377.5,-52"/>
<text text-anchor="start" x="385.5" y="-73" font-family="Helvetica,sans-Serif" font-size="10.00">ZendDbSchema_Db_Schema</text>
<text text-anchor="middle" x="458" y="-60" font-family="Helvetica,sans-Serif" font-size="10.00">_Table_ForeignKey\setOnUpdate</text>
</a>
</g>
<!-- Node2&#45;&gt;Node13 -->
<g id="edge24" class="edge"><title>Node2&#45;&gt;Node13</title>
<path fill="none" stroke="midnightblue" d="M327.207,-126.087C330.905,-124.477 334.527,-122.78 338,-121 355.564,-111.998 356.34,-103.812 374,-95 380.557,-91.7283 387.608,-88.7695 394.737,-86.1212"/>
<polygon fill="midnightblue" stroke="midnightblue" points="325.818,-122.874 317.898,-129.912 328.478,-129.349 325.818,-122.874"/>
</g>
<!-- Node14 -->
<g id="node27" class="node"><title>Node14</title>
<a xlink:href="classZendDbSchema__Db__Schema__Table__ForeignKey.html#a333403da95af60a2b4bd18952d1136f3" target="_top" xlink:title="ZendDbSchema_Db_Schema\l_Table_ForeignKey\\setReferences">
<polygon fill="white" stroke="black" points="374.5,-0 374.5,-34 541.5,-34 541.5,-0 374.5,-0"/>
<text text-anchor="start" x="382.5" y="-21" font-family="Helvetica,sans-Serif" font-size="10.00">ZendDbSchema_Db_Schema</text>
<text text-anchor="middle" x="458" y="-8" font-family="Helvetica,sans-Serif" font-size="10.00">_Table_ForeignKey\setReferences</text>
</a>
</g>
<!-- Node2&#45;&gt;Node14 -->
<g id="edge26" class="edge"><title>Node2&#45;&gt;Node14</title>
<path fill="none" stroke="midnightblue" d="M333.895,-124.377C335.313,-123.303 336.684,-122.178 338,-121 366.45,-95.5364 345.277,-68.1552 374,-43 377.905,-39.5803 382.254,-36.6104 386.861,-34.031"/>
<polygon fill="midnightblue" stroke="midnightblue" points="331.771,-121.584 325.323,-129.991 335.606,-127.44 331.771,-121.584"/>
</g>
<!-- Node4 -->
<g id="node7" class="node"><title>Node4</title>
<a xlink:href="classZendDbSchema__Db__Schema__Table__Index.html#a6717d976c5b0d47369d3c87ef17b1e9b" target="_top" xlink:title="ZendDbSchema_Db_Schema\l_Table_Index\\addColumn">
<polygon fill="white" stroke="black" points="591,-364 591,-398 737,-398 737,-364 591,-364"/>
<text text-anchor="start" x="599" y="-385" font-family="Helvetica,sans-Serif" font-size="10.00">ZendDbSchema_Db_Schema</text>
<text text-anchor="middle" x="664" y="-372" font-family="Helvetica,sans-Serif" font-size="10.00">_Table_Index\addColumn</text>
</a>
</g>
<!-- Node3&#45;&gt;Node4 -->
<g id="edge6" class="edge"><title>Node3&#45;&gt;Node4</title>
<path fill="none" stroke="midnightblue" d="M535.198,-348.487C555.309,-353.563 576.823,-358.994 596.396,-363.935"/>
<polygon fill="midnightblue" stroke="midnightblue" points="536.005,-345.081 525.452,-346.027 534.291,-351.868 536.005,-345.081"/>
</g>
<!-- Node5 -->
<g id="node9" class="node"><title>Node5</title>
<a xlink:href="classZendDbSchema__Db__Schema__Table__Index.html#a3cfd358621bb3330ef9e7ffcf2f7b229" target="_top" xlink:title="ZendDbSchema_Db_Schema\l_Table_Index\\removeColumn">
<polygon fill="white" stroke="black" points="591,-312 591,-346 737,-346 737,-312 591,-312"/>
<text text-anchor="start" x="599" y="-333" font-family="Helvetica,sans-Serif" font-size="10.00">ZendDbSchema_Db_Schema</text>
<text text-anchor="middle" x="664" y="-320" font-family="Helvetica,sans-Serif" font-size="10.00">_Table_Index\removeColumn</text>
</a>
</g>
<!-- Node3&#45;&gt;Node5 -->
<g id="edge8" class="edge"><title>Node3&#45;&gt;Node5</title>
<path fill="none" stroke="midnightblue" d="M541.286,-329C557.64,-329 574.683,-329 590.681,-329"/>
<polygon fill="midnightblue" stroke="midnightblue" points="541.208,-325.5 531.208,-329 541.208,-332.5 541.208,-325.5"/>
</g>
<!-- Node7 -->
<g id="node13" class="node"><title>Node7</title>
<a xlink:href="classZendDbSchema__Db__Schema__Table__PrimaryKey.html#a0b84ee828c689a3da5790e123583f691" target="_top" xlink:title="ZendDbSchema_Db_Schema\l_Table_PrimaryKey\\addColumn">
<polygon fill="white" stroke="black" points="586.5,-260 586.5,-294 741.5,-294 741.5,-260 586.5,-260"/>
<text text-anchor="start" x="594.5" y="-281" font-family="Helvetica,sans-Serif" font-size="10.00">ZendDbSchema_Db_Schema</text>
<text text-anchor="middle" x="664" y="-268" font-family="Helvetica,sans-Serif" font-size="10.00">_Table_PrimaryKey\addColumn</text>
</a>
</g>
<!-- Node6&#45;&gt;Node7 -->
<g id="edge12" class="edge"><title>Node6&#45;&gt;Node7</title>
<path fill="none" stroke="midnightblue" d="M535.198,-244.487C555.309,-249.563 576.823,-254.994 596.396,-259.935"/>
<polygon fill="midnightblue" stroke="midnightblue" points="536.005,-241.081 525.452,-242.027 534.291,-247.868 536.005,-241.081"/>
</g>
<!-- Node8 -->
<g id="node15" class="node"><title>Node8</title>
<a xlink:href="classZendDbSchema__Db__Schema__Table__PrimaryKey.html#a6deb586d1cc0935f5c0d50afa47667de" target="_top" xlink:title="ZendDbSchema_Db_Schema\l_Table_PrimaryKey\\removeColumn">
<polygon fill="white" stroke="black" points="578.5,-208 578.5,-242 749.5,-242 749.5,-208 578.5,-208"/>
<text text-anchor="start" x="586.5" y="-229" font-family="Helvetica,sans-Serif" font-size="10.00">ZendDbSchema_Db_Schema</text>
<text text-anchor="middle" x="664" y="-216" font-family="Helvetica,sans-Serif" font-size="10.00">_Table_PrimaryKey\removeColumn</text>
</a>
</g>
<!-- Node6&#45;&gt;Node8 -->
<g id="edge14" class="edge"><title>Node6&#45;&gt;Node8</title>
<path fill="none" stroke="midnightblue" d="M547.276,-225C557.573,-225 568.057,-225 578.306,-225"/>
<polygon fill="midnightblue" stroke="midnightblue" points="547.056,-221.5 537.056,-225 547.056,-228.5 547.056,-221.5"/>
</g>
<!-- Node10 -->
<g id="node19" class="node"><title>Node10</title>
<a xlink:href="classZendDbSchema__Db__Schema__Table__ForeignKey.html#acad90fc706fe3c4aa734b073fa551152" target="_top" xlink:title="ZendDbSchema_Db_Schema\l_Table_ForeignKey\\setColumn">
<polygon fill="white" stroke="black" points="588.5,-156 588.5,-190 739.5,-190 739.5,-156 588.5,-156"/>
<text text-anchor="start" x="596.5" y="-177" font-family="Helvetica,sans-Serif" font-size="10.00">ZendDbSchema_Db_Schema</text>
<text text-anchor="middle" x="664" y="-164" font-family="Helvetica,sans-Serif" font-size="10.00">_Table_ForeignKey\setColumn</text>
</a>
</g>
<!-- Node9&#45;&gt;Node10 -->
<g id="edge18" class="edge"><title>Node9&#45;&gt;Node10</title>
<path fill="none" stroke="midnightblue" d="M546.273,-173C560.253,-173 574.603,-173 588.263,-173"/>
<polygon fill="midnightblue" stroke="midnightblue" points="546.174,-169.5 536.173,-173 546.173,-176.5 546.174,-169.5"/>
</g>
<!-- Node11 -->
<g id="node21" class="node"><title>Node11</title>
<a xlink:href="classZendDbSchema__Db__Schema__Table__ForeignKey.html#a810c76bf8102391ec3d304647c369146" target="_top" xlink:title="ZendDbSchema_Db_Schema\l_Table_ForeignKey\\removeColumn">
<polygon fill="white" stroke="black" points="579,-104 579,-138 749,-138 749,-104 579,-104"/>
<text text-anchor="start" x="587" y="-125" font-family="Helvetica,sans-Serif" font-size="10.00">ZendDbSchema_Db_Schema</text>
<text text-anchor="middle" x="664" y="-112" font-family="Helvetica,sans-Serif" font-size="10.00">_Table_ForeignKey\removeColumn</text>
</a>
</g>
<!-- Node9&#45;&gt;Node11 -->
<g id="edge20" class="edge"><title>Node9&#45;&gt;Node11</title>
<path fill="none" stroke="midnightblue" d="M535.198,-153.513C555.309,-148.437 576.823,-143.006 596.396,-138.065"/>
<polygon fill="midnightblue" stroke="midnightblue" points="534.291,-150.132 525.452,-155.973 536.005,-156.919 534.291,-150.132"/>
</g>
</g>
</svg>
