<?xml version="1.0" encoding="UTF-8" standalone="no"?>
<!DOCTYPE svg PUBLIC "-//W3C//DTD SVG 1.1//EN"
 "http://www.w3.org/Graphics/SVG/1.1/DTD/svg11.dtd">
<!-- Generated by graphviz version 2.26.3 (20100126.1600)
 -->
<!-- Title: G Pages: 1 -->
<svg width="1470pt" height="110pt"
 viewBox="0.00 0.00 1470.00 110.00" xmlns="http://www.w3.org/2000/svg" xmlns:xlink="http://www.w3.org/1999/xlink">
<g id="graph1" class="graph" transform="scale(1 1) rotate(0) translate(4 106)">
<title>G</title>
<polygon fill="white" stroke="white" points="-4,5 -4,-106 1467,-106 1467,5 -4,5"/>
<!-- Node1 -->
<g id="node1" class="node"><title>Node1</title>
<polygon fill="#bfbfbf" stroke="black" points="0.5,-40.5 0.5,-61.5 243.5,-61.5 243.5,-40.5 0.5,-40.5"/>
<text text-anchor="middle" x="122" y="-48.5" font-family="Helvetica,sans-Serif" font-size="10.00">ZendDbSchema_Db_Schema_Database\_doReload</text>
</g>
<!-- Node2 -->
<g id="node3" class="node"><title>Node2</title>
<a xlink:href="classZendDbSchema__Db__Schema__AbstractEntity.html#a55d492a6272ad16645df99d5d37e80d5" target="_top" xlink:title="ZendDbSchema_Db_Schema_AbstractEntity\\getLoader">
<polygon fill="white" stroke="black" points="297,-80.5 297,-101.5 557,-101.5 557,-80.5 297,-80.5"/>
<text text-anchor="middle" x="427" y="-88.5" font-family="Helvetica,sans-Serif" font-size="10.00">ZendDbSchema_Db_Schema_AbstractEntity\getLoader</text>
</a>
</g>
<!-- Node1&#45;&gt;Node2 -->
<g id="edge2" class="edge"><title>Node1&#45;&gt;Node2</title>
<path fill="none" stroke="midnightblue" d="M202.135,-61.5095C243.475,-66.9311 294.05,-73.5639 336.76,-79.1652"/>
<polygon fill="midnightblue" stroke="midnightblue" points="336.501,-82.6611 346.871,-80.4913 337.411,-75.7206 336.501,-82.6611"/>
</g>
<!-- Node3 -->
<g id="node5" class="node"><title>Node3</title>
<a xlink:href="classZendDbSchema__Db__Schema__AbstractEntity.html#ad6dfc39cc6d92633fd92170db18c9573" target="_top" xlink:title="ZendDbSchema_Db_Schema_AbstractEntity\\getAdapter">
<polygon fill="white" stroke="black" points="295,-40.5 295,-61.5 559,-61.5 559,-40.5 295,-40.5"/>
<text text-anchor="middle" x="427" y="-48.5" font-family="Helvetica,sans-Serif" font-size="10.00">ZendDbSchema_Db_Schema_AbstractEntity\getAdapter</text>
</a>
</g>
<!-- Node1&#45;&gt;Node3 -->
<g id="edge4" class="edge"><title>Node1&#45;&gt;Node3</title>
<path fill="none" stroke="midnightblue" d="M243.859,-51C257.213,-51 270.895,-51 284.471,-51"/>
<polygon fill="midnightblue" stroke="midnightblue" points="284.824,-54.5001 294.824,-51 284.824,-47.5001 284.824,-54.5001"/>
</g>
<!-- Node4 -->
<g id="node7" class="node"><title>Node4</title>
<a xlink:href="classZendDbSchema__Db__Schema__AbstractSchema.html#adacb1417b461310c5c87f72c459c1985" target="_top" xlink:title="ZendDbSchema_Db_Schema_AbstractSchema\\getOriginName">
<polygon fill="white" stroke="black" points="280.5,-0.5 280.5,-21.5 573.5,-21.5 573.5,-0.5 280.5,-0.5"/>
<text text-anchor="middle" x="427" y="-8.5" font-family="Helvetica,sans-Serif" font-size="10.00">ZendDbSchema_Db_Schema_AbstractSchema\getOriginName</text>
</a>
</g>
<!-- Node1&#45;&gt;Node4 -->
<g id="edge6" class="edge"><title>Node1&#45;&gt;Node4</title>
<path fill="none" stroke="midnightblue" d="M202.135,-40.4905C243.475,-35.0689 294.05,-28.4361 336.76,-22.8348"/>
<polygon fill="midnightblue" stroke="midnightblue" points="337.411,-26.2794 346.871,-21.5087 336.501,-19.3389 337.411,-26.2794"/>
</g>
<!-- Node5 -->
<g id="node9" class="node"><title>Node5</title>
<a xlink:href="classZendDbSchema__Db__Schema__AbstractSchema.html#a55787c21deddba427842809d589c2df6" target="_top" xlink:title="ZendDbSchema_Db_Schema_AbstractSchema\\getName">
<polygon fill="white" stroke="black" points="610.5,-0.5 610.5,-21.5 877.5,-21.5 877.5,-0.5 610.5,-0.5"/>
<text text-anchor="middle" x="744" y="-8.5" font-family="Helvetica,sans-Serif" font-size="10.00">ZendDbSchema_Db_Schema_AbstractSchema\getName</text>
</a>
</g>
<!-- Node4&#45;&gt;Node5 -->
<g id="edge8" class="edge"><title>Node4&#45;&gt;Node5</title>
<path fill="none" stroke="midnightblue" d="M573.9,-11C582.631,-11 591.408,-11 600.127,-11"/>
<polygon fill="midnightblue" stroke="midnightblue" points="600.327,-14.5001 610.327,-11 600.327,-7.5001 600.327,-14.5001"/>
</g>
<!-- Node6 -->
<g id="node11" class="node"><title>Node6</title>
<a xlink:href="classZendDbSchema__Db__Schema__AbstractSchema.html#a54d32c6f15463eaad2321a9f0e7225d7" target="_top" xlink:title="ZendDbSchema_Db_Schema_AbstractSchema\\__get">
<polygon fill="white" stroke="black" points="914.5,-0.5 914.5,-21.5 1165.5,-21.5 1165.5,-0.5 914.5,-0.5"/>
<text text-anchor="middle" x="1040" y="-8.5" font-family="Helvetica,sans-Serif" font-size="10.00">ZendDbSchema_Db_Schema_AbstractSchema\__get</text>
</a>
</g>
<!-- Node5&#45;&gt;Node6 -->
<g id="edge10" class="edge"><title>Node5&#45;&gt;Node6</title>
<path fill="none" stroke="midnightblue" d="M877.711,-11C886.411,-11 895.176,-11 903.887,-11"/>
<polygon fill="midnightblue" stroke="midnightblue" points="904.08,-14.5001 914.08,-11 904.08,-7.5001 904.08,-14.5001"/>
</g>
<!-- Node7 -->
<g id="node13" class="node"><title>Node7</title>
<a xlink:href="classZendDbSchema__Db__Schema__AbstractSchema.html#ac4e121ba7932163eb1950fabe06fb9db" target="_top" xlink:title="ZendDbSchema_Db_Schema_AbstractSchema\\__isset">
<polygon fill="white" stroke="black" points="1202.5,-0.5 1202.5,-21.5 1461.5,-21.5 1461.5,-0.5 1202.5,-0.5"/>
<text text-anchor="middle" x="1332" y="-8.5" font-family="Helvetica,sans-Serif" font-size="10.00">ZendDbSchema_Db_Schema_AbstractSchema\__isset</text>
</a>
</g>
<!-- Node6&#45;&gt;Node7 -->
<g id="edge12" class="edge"><title>Node6&#45;&gt;Node7</title>
<path fill="none" stroke="midnightblue" d="M1165.53,-11C1174.4,-11 1183.38,-11 1192.32,-11"/>
<polygon fill="midnightblue" stroke="midnightblue" points="1192.4,-14.5001 1202.4,-11 1192.4,-7.5001 1192.4,-14.5001"/>
</g>
</g>
</svg>
