<?xml version="1.0" encoding="UTF-8" standalone="no"?>
<!DOCTYPE svg PUBLIC "-//W3C//DTD SVG 1.1//EN"
 "http://www.w3.org/Graphics/SVG/1.1/DTD/svg11.dtd">
<!-- Generated by graphviz version 2.26.3 (20100126.1600)
 -->
<!-- Title: G Pages: 1 -->
<svg width="540pt" height="70pt"
 viewBox="0.00 0.00 540.00 70.00" xmlns="http://www.w3.org/2000/svg" xmlns:xlink="http://www.w3.org/1999/xlink">
<g id="graph1" class="graph" transform="scale(1 1) rotate(0) translate(4 66)">
<title>G</title>
<polygon fill="white" stroke="white" points="-4,5 -4,-66 537,-66 537,5 -4,5"/>
<!-- Node1 -->
<g id="node1" class="node"><title>Node1</title>
<polygon fill="#bfbfbf" stroke="black" points="0.5,-20.5 0.5,-41.5 249.5,-41.5 249.5,-20.5 0.5,-20.5"/>
<text text-anchor="middle" x="125" y="-28.5" font-family="Helvetica,sans-Serif" font-size="10.00">ZendDbSchema_Db_Migration_Manager\getMigration</text>
</g>
<!-- Node2 -->
<g id="node3" class="node"><title>Node2</title>
<a xlink:href="classZendDbSchema__Db__Migration__Manager.html#ab66af8a9dc5cdb099b8266b68166c4e0" target="_top" xlink:title="ZendDbSchema_Db_Migration_Manager\\getVersion">
<polygon fill="white" stroke="black" points="288,-40.5 288,-61.5 530,-61.5 530,-40.5 288,-40.5"/>
<text text-anchor="middle" x="409" y="-48.5" font-family="Helvetica,sans-Serif" font-size="10.00">ZendDbSchema_Db_Migration_Manager\getVersion</text>
</a>
</g>
<!-- Node1&#45;&gt;Node2 -->
<g id="edge2" class="edge"><title>Node1&#45;&gt;Node2</title>
<path fill="none" stroke="midnightblue" d="M249.567,-39.7723C258.87,-40.4274 268.274,-41.0897 277.617,-41.7477"/>
<polygon fill="midnightblue" stroke="midnightblue" points="277.502,-45.2482 287.723,-42.4594 277.994,-38.2655 277.502,-45.2482"/>
</g>
<!-- Node3 -->
<g id="node5" class="node"><title>Node3</title>
<a xlink:href="classZendDbSchema__Db__Migration__Manager.html#a9cc145e81602dbdd849728a5f8b28565" target="_top" xlink:title="ZendDbSchema_Db_Migration_Manager\\hasVersion">
<polygon fill="white" stroke="black" points="286.5,-0.5 286.5,-21.5 531.5,-21.5 531.5,-0.5 286.5,-0.5"/>
<text text-anchor="middle" x="409" y="-8.5" font-family="Helvetica,sans-Serif" font-size="10.00">ZendDbSchema_Db_Migration_Manager\hasVersion</text>
</a>
</g>
<!-- Node1&#45;&gt;Node3 -->
<g id="edge4" class="edge"><title>Node1&#45;&gt;Node3</title>
<path fill="none" stroke="midnightblue" d="M249.567,-22.2277C258.446,-21.6024 267.418,-20.9706 276.34,-20.3423"/>
<polygon fill="midnightblue" stroke="midnightblue" points="276.656,-23.8288 286.385,-19.6349 276.164,-16.8461 276.656,-23.8288"/>
</g>
</g>
</svg>
