<?xml version="1.0" encoding="UTF-8" standalone="no"?>
<!DOCTYPE svg PUBLIC "-//W3C//DTD SVG 1.1//EN"
 "http://www.w3.org/Graphics/SVG/1.1/DTD/svg11.dtd">
<!-- Generated by graphviz version 2.26.3 (20100126.1600)
 -->
<!-- Title: G Pages: 1 -->
<svg width="960pt" height="330pt"
 viewBox="0.00 0.00 960.00 330.00" xmlns="http://www.w3.org/2000/svg" xmlns:xlink="http://www.w3.org/1999/xlink">
<g id="graph1" class="graph" transform="scale(1 1) rotate(0) translate(4 326)">
<title>G</title>
<polygon fill="white" stroke="white" points="-4,5 -4,-326 957,-326 957,5 -4,5"/>
<!-- Node1 -->
<g id="node1" class="node"><title>Node1</title>
<polygon fill="#bfbfbf" stroke="black" points="0,-133.5 0,-180.5 146,-180.5 146,-133.5 0,-133.5"/>
<text text-anchor="start" x="8" y="-167.5" font-family="Helvetica,sans-Serif" font-size="10.00">ZendDbSchema_Db_Schema</text>
<text text-anchor="start" x="8" y="-154.5" font-family="Helvetica,sans-Serif" font-size="10.00">_Generator_Pgsql_Table</text>
<text text-anchor="middle" x="73" y="-141.5" font-family="Helvetica,sans-Serif" font-size="10.00">\alterColumn</text>
</g>
<!-- Node2 -->
<g id="node3" class="node"><title>Node2</title>
<a xlink:href="classZendDbSchema__Db__Schema__Table__AbstractDefinition.html#a224b6a0c1df1d6ed40e03657782ef6fc" target="_top" xlink:title="ZendDbSchema_Db_Schema\l_Table_AbstractDefinition\l\\getTable">
<polygon fill="white" stroke="black" points="191,-274.5 191,-321.5 337,-321.5 337,-274.5 191,-274.5"/>
<text text-anchor="start" x="199" y="-308.5" font-family="Helvetica,sans-Serif" font-size="10.00">ZendDbSchema_Db_Schema</text>
<text text-anchor="start" x="199" y="-295.5" font-family="Helvetica,sans-Serif" font-size="10.00">_Table_AbstractDefinition</text>
<text text-anchor="middle" x="264" y="-282.5" font-family="Helvetica,sans-Serif" font-size="10.00">\getTable</text>
</a>
</g>
<!-- Node1&#45;&gt;Node2 -->
<g id="edge2" class="edge"><title>Node1&#45;&gt;Node2</title>
<path fill="none" stroke="midnightblue" d="M92.0859,-180.844C112.291,-204.794 146.164,-241.435 182,-265 184.404,-266.581 186.896,-268.107 189.45,-269.579"/>
<polygon fill="midnightblue" stroke="midnightblue" points="187.871,-272.704 198.334,-274.368 191.193,-266.542 187.871,-272.704"/>
</g>
<!-- Node3 -->
<g id="node5" class="node"><title>Node3</title>
<a xlink:href="classZendDbSchema__Db__Schema__Table__AbstractDefinition.html#a92b77fa23ce49db1c39edcc583ec6cfe" target="_top" xlink:title="ZendDbSchema_Db_Schema\l_Table_AbstractDefinition\l\\isDirty">
<polygon fill="white" stroke="black" points="191,-208.5 191,-255.5 337,-255.5 337,-208.5 191,-208.5"/>
<text text-anchor="start" x="199" y="-242.5" font-family="Helvetica,sans-Serif" font-size="10.00">ZendDbSchema_Db_Schema</text>
<text text-anchor="start" x="199" y="-229.5" font-family="Helvetica,sans-Serif" font-size="10.00">_Table_AbstractDefinition</text>
<text text-anchor="middle" x="264" y="-216.5" font-family="Helvetica,sans-Serif" font-size="10.00">\isDirty</text>
</a>
</g>
<!-- Node1&#45;&gt;Node3 -->
<g id="edge4" class="edge"><title>Node1&#45;&gt;Node3</title>
<path fill="none" stroke="midnightblue" d="M132.91,-180.525C152.46,-188.201 174.332,-196.79 194.524,-204.719"/>
<polygon fill="midnightblue" stroke="midnightblue" points="193.387,-208.033 203.975,-208.43 195.946,-201.517 193.387,-208.033"/>
</g>
<!-- Node5 -->
<g id="node9" class="node"><title>Node5</title>
<a xlink:href="classZendDbSchema__Db__Schema__AbstractSchema.html#a55787c21deddba427842809d589c2df6" target="_top" xlink:title="ZendDbSchema_Db_Schema\l_AbstractSchema\\getName">
<polygon fill="white" stroke="black" points="396,-118 396,-152 542,-152 542,-118 396,-118"/>
<text text-anchor="start" x="404" y="-139" font-family="Helvetica,sans-Serif" font-size="10.00">ZendDbSchema_Db_Schema</text>
<text text-anchor="middle" x="469" y="-126" font-family="Helvetica,sans-Serif" font-size="10.00">_AbstractSchema\getName</text>
</a>
</g>
<!-- Node1&#45;&gt;Node5 -->
<g id="edge8" class="edge"><title>Node1&#45;&gt;Node5</title>
<path fill="none" stroke="midnightblue" d="M146.28,-160.058C158.217,-160.45 170.451,-160.788 182,-161 254.877,-162.337 273.506,-168.578 346,-161 360.551,-159.479 375.915,-156.972 390.668,-154.099"/>
<polygon fill="midnightblue" stroke="midnightblue" points="391.658,-157.47 400.767,-152.06 390.272,-150.609 391.658,-157.47"/>
</g>
<!-- Node8 -->
<g id="node15" class="node"><title>Node8</title>
<a xlink:href="classZendDbSchema__Db__Schema__AbstractSchema.html#a1680a8fd22360f74d29b641d7257a52f" target="_top" xlink:title="ZendDbSchema_Db_Schema\l_AbstractSchema\\isExist">
<polygon fill="white" stroke="black" points="191,-0 191,-34 337,-34 337,-0 191,-0"/>
<text text-anchor="start" x="199" y="-21" font-family="Helvetica,sans-Serif" font-size="10.00">ZendDbSchema_Db_Schema</text>
<text text-anchor="middle" x="264" y="-8" font-family="Helvetica,sans-Serif" font-size="10.00">_AbstractSchema\isExist</text>
</a>
</g>
<!-- Node1&#45;&gt;Node8 -->
<g id="edge14" class="edge"><title>Node1&#45;&gt;Node8</title>
<path fill="none" stroke="midnightblue" d="M89.9929,-133.087C109.461,-107.35 143.658,-66.9014 182,-43 184.495,-41.4446 187.091,-39.9746 189.759,-38.5862"/>
<polygon fill="midnightblue" stroke="midnightblue" points="191.522,-41.6234 199.056,-34.1739 188.521,-35.2994 191.522,-41.6234"/>
</g>
<!-- Node11 -->
<g id="node21" class="node"><title>Node11</title>
<a xlink:href="classZendDbSchema__Db__Schema__AbstractSchema.html#adacb1417b461310c5c87f72c459c1985" target="_top" xlink:title="ZendDbSchema_Db_Schema\l_AbstractSchema\\getOriginName">
<polygon fill="white" stroke="black" points="182.5,-118 182.5,-152 345.5,-152 345.5,-118 182.5,-118"/>
<text text-anchor="start" x="190.5" y="-139" font-family="Helvetica,sans-Serif" font-size="10.00">ZendDbSchema_Db_Schema</text>
<text text-anchor="middle" x="264" y="-126" font-family="Helvetica,sans-Serif" font-size="10.00">_AbstractSchema\getOriginName</text>
</a>
</g>
<!-- Node1&#45;&gt;Node11 -->
<g id="edge20" class="edge"><title>Node1&#45;&gt;Node11</title>
<path fill="none" stroke="midnightblue" d="M146.026,-148.589C154.673,-147.593 163.58,-146.567 172.441,-145.546"/>
<polygon fill="midnightblue" stroke="midnightblue" points="172.877,-149.019 182.411,-144.398 172.076,-142.065 172.877,-149.019"/>
</g>
<!-- Node12 -->
<g id="node24" class="node"><title>Node12</title>
<a xlink:href="classZendDbSchema__Db__Schema__Generator__Pgsql__Table.html#ad02c019065d6f7e1e6a1ba713b6c9934" target="_top" xlink:title="ZendDbSchema_Db_Schema\l_Generator_Pgsql_Table\l\\_columnSql">
<polygon fill="white" stroke="black" points="191,-52.5 191,-99.5 337,-99.5 337,-52.5 191,-52.5"/>
<text text-anchor="start" x="199" y="-86.5" font-family="Helvetica,sans-Serif" font-size="10.00">ZendDbSchema_Db_Schema</text>
<text text-anchor="start" x="199" y="-73.5" font-family="Helvetica,sans-Serif" font-size="10.00">_Generator_Pgsql_Table</text>
<text text-anchor="middle" x="264" y="-60.5" font-family="Helvetica,sans-Serif" font-size="10.00">\_columnSql</text>
</a>
</g>
<!-- Node1&#45;&gt;Node12 -->
<g id="edge24" class="edge"><title>Node1&#45;&gt;Node12</title>
<path fill="none" stroke="midnightblue" d="M125.521,-133.463C143.391,-125.564 163.516,-116.787 182,-109 186.366,-107.161 190.872,-105.285 195.42,-103.408"/>
<polygon fill="midnightblue" stroke="midnightblue" points="196.861,-106.6 204.785,-99.5667 194.205,-100.124 196.861,-106.6"/>
</g>
<!-- Node4 -->
<g id="node7" class="node"><title>Node4</title>
<a xlink:href="classZendDbSchema__Db__Schema__Table__AbstractDefinition.html#ae3276a6f60f556eb468d3f2ef102a3ab" target="_top" xlink:title="ZendDbSchema_Db_Schema\l_Table_AbstractDefinition\l\\isDeleted">
<polygon fill="white" stroke="black" points="396,-208.5 396,-255.5 542,-255.5 542,-208.5 396,-208.5"/>
<text text-anchor="start" x="404" y="-242.5" font-family="Helvetica,sans-Serif" font-size="10.00">ZendDbSchema_Db_Schema</text>
<text text-anchor="start" x="404" y="-229.5" font-family="Helvetica,sans-Serif" font-size="10.00">_Table_AbstractDefinition</text>
<text text-anchor="middle" x="469" y="-216.5" font-family="Helvetica,sans-Serif" font-size="10.00">\isDeleted</text>
</a>
</g>
<!-- Node3&#45;&gt;Node4 -->
<g id="edge6" class="edge"><title>Node3&#45;&gt;Node4</title>
<path fill="none" stroke="midnightblue" d="M337.141,-232C352.799,-232 369.456,-232 385.471,-232"/>
<polygon fill="midnightblue" stroke="midnightblue" points="385.887,-235.5 395.887,-232 385.887,-228.5 385.887,-235.5"/>
</g>
<!-- Node6 -->
<g id="node11" class="node"><title>Node6</title>
<a xlink:href="classZendDbSchema__Db__Schema__AbstractSchema.html#a54d32c6f15463eaad2321a9f0e7225d7" target="_top" xlink:title="ZendDbSchema_Db_Schema\l_AbstractSchema\\__get">
<polygon fill="white" stroke="black" points="608,-91 608,-125 754,-125 754,-91 608,-91"/>
<text text-anchor="start" x="616" y="-112" font-family="Helvetica,sans-Serif" font-size="10.00">ZendDbSchema_Db_Schema</text>
<text text-anchor="middle" x="681" y="-99" font-family="Helvetica,sans-Serif" font-size="10.00">_AbstractSchema\__get</text>
</a>
</g>
<!-- Node5&#45;&gt;Node6 -->
<g id="edge10" class="edge"><title>Node5&#45;&gt;Node6</title>
<path fill="none" stroke="midnightblue" d="M542.255,-125.67C560.129,-123.394 579.38,-120.942 597.685,-118.611"/>
<polygon fill="midnightblue" stroke="midnightblue" points="598.264,-122.065 607.742,-117.33 597.38,-115.122 598.264,-122.065"/>
</g>
<!-- Node7 -->
<g id="node13" class="node"><title>Node7</title>
<a xlink:href="classZendDbSchema__Db__Schema__AbstractSchema.html#ac4e121ba7932163eb1950fabe06fb9db" target="_top" xlink:title="ZendDbSchema_Db_Schema\l_AbstractSchema\\__isset">
<polygon fill="white" stroke="black" points="806,-91 806,-125 952,-125 952,-91 806,-91"/>
<text text-anchor="start" x="814" y="-112" font-family="Helvetica,sans-Serif" font-size="10.00">ZendDbSchema_Db_Schema</text>
<text text-anchor="middle" x="879" y="-99" font-family="Helvetica,sans-Serif" font-size="10.00">_AbstractSchema\__isset</text>
</a>
</g>
<!-- Node6&#45;&gt;Node7 -->
<g id="edge12" class="edge"><title>Node6&#45;&gt;Node7</title>
<path fill="none" stroke="midnightblue" d="M754.165,-108C767.596,-108 781.71,-108 795.419,-108"/>
<polygon fill="midnightblue" stroke="midnightblue" points="795.805,-111.5 805.805,-108 795.805,-104.5 795.805,-111.5"/>
</g>
<!-- Node9 -->
<g id="node17" class="node"><title>Node9</title>
<a xlink:href="classZendDbSchema__Db__Schema__AbstractSchema.html#a46da7a60c7e5fd605607afbc1dac4baa" target="_top" xlink:title="ZendDbSchema_Db_Schema\l_AbstractSchema\\getCleanSchema">
<polygon fill="white" stroke="black" points="382.5,-0 382.5,-34 555.5,-34 555.5,-0 382.5,-0"/>
<text text-anchor="start" x="390.5" y="-21" font-family="Helvetica,sans-Serif" font-size="10.00">ZendDbSchema_Db_Schema</text>
<text text-anchor="middle" x="469" y="-8" font-family="Helvetica,sans-Serif" font-size="10.00">_AbstractSchema\getCleanSchema</text>
</a>
</g>
<!-- Node8&#45;&gt;Node9 -->
<g id="edge16" class="edge"><title>Node8&#45;&gt;Node9</title>
<path fill="none" stroke="midnightblue" d="M337.141,-17C348.436,-17 360.25,-17 371.969,-17"/>
<polygon fill="midnightblue" stroke="midnightblue" points="372.227,-20.5001 382.227,-17 372.227,-13.5001 372.227,-20.5001"/>
</g>
<!-- Node10 -->
<g id="node19" class="node"><title>Node10</title>
<a xlink:href="classZendDbSchema__Db__Schema__AbstractSchema.html#af99e5bb9adfe0da8c94d3d3848efe7b5" target="_top" xlink:title="ZendDbSchema_Db_Schema\l_AbstractSchema\\_getCleanSchema">
<polygon fill="white" stroke="black" points="592,-0 592,-34 770,-34 770,-0 592,-0"/>
<text text-anchor="start" x="600" y="-21" font-family="Helvetica,sans-Serif" font-size="10.00">ZendDbSchema_Db_Schema</text>
<text text-anchor="middle" x="681" y="-8" font-family="Helvetica,sans-Serif" font-size="10.00">_AbstractSchema\_getCleanSchema</text>
</a>
</g>
<!-- Node9&#45;&gt;Node10 -->
<g id="edge18" class="edge"><title>Node9&#45;&gt;Node10</title>
<path fill="none" stroke="midnightblue" d="M555.534,-17C564.175,-17 572.994,-17 581.752,-17"/>
<polygon fill="midnightblue" stroke="midnightblue" points="581.99,-20.5001 591.99,-17 581.99,-13.5001 581.99,-20.5001"/>
</g>
<!-- Node11&#45;&gt;Node5 -->
<g id="edge22" class="edge"><title>Node11&#45;&gt;Node5</title>
<path fill="none" stroke="midnightblue" d="M345.61,-135C358.868,-135 372.612,-135 385.905,-135"/>
<polygon fill="midnightblue" stroke="midnightblue" points="385.966,-138.5 395.966,-135 385.966,-131.5 385.966,-138.5"/>
</g>
<!-- Node13 -->
<g id="node26" class="node"><title>Node13</title>
<a xlink:href="classZendDbSchema__Db__Schema__Table__Column.html#aeeed5820cfc4fac67507a196e9faa638" target="_top" xlink:title="ZendDbSchema_Db_Schema\l_Table_Column\\isNullable">
<polygon fill="white" stroke="black" points="396,-62 396,-96 542,-96 542,-62 396,-62"/>
<text text-anchor="start" x="404" y="-83" font-family="Helvetica,sans-Serif" font-size="10.00">ZendDbSchema_Db_Schema</text>
<text text-anchor="middle" x="469" y="-70" font-family="Helvetica,sans-Serif" font-size="10.00">_Table_Column\isNullable</text>
</a>
</g>
<!-- Node12&#45;&gt;Node13 -->
<g id="edge26" class="edge"><title>Node12&#45;&gt;Node13</title>
<path fill="none" stroke="midnightblue" d="M337.141,-77.0704C352.799,-77.2995 369.456,-77.5433 385.471,-77.7776"/>
<polygon fill="midnightblue" stroke="midnightblue" points="385.837,-81.2833 395.887,-77.93 385.939,-74.284 385.837,-81.2833"/>
</g>
<!-- Node13&#45;&gt;Node6 -->
<g id="edge28" class="edge"><title>Node13&#45;&gt;Node6</title>
<path fill="none" stroke="midnightblue" d="M542.255,-89.0208C560.129,-91.4658 579.38,-94.0992 597.685,-96.6031"/>
<polygon fill="midnightblue" stroke="midnightblue" points="597.36,-100.091 607.742,-97.9788 598.309,-93.1557 597.36,-100.091"/>
</g>
</g>
</svg>
