<?xml version="1.0" encoding="UTF-8" standalone="no"?>
<!DOCTYPE svg PUBLIC "-//W3C//DTD SVG 1.1//EN"
 "http://www.w3.org/Graphics/SVG/1.1/DTD/svg11.dtd">
<!-- Generated by graphviz version 2.26.3 (20100126.1600)
 -->
<!-- Title: G Pages: 1 -->
<svg width="1882pt" height="168pt"
 viewBox="0.00 0.00 1882.00 168.43" xmlns="http://www.w3.org/2000/svg" xmlns:xlink="http://www.w3.org/1999/xlink">
<g id="graph1" class="graph" transform="scale(1 1) rotate(0) translate(4 164.426)">
<title>G</title>
<polygon fill="white" stroke="white" points="-4,5 -4,-164.426 1879,-164.426 1879,5 -4,5"/>
<!-- Node1 -->
<g id="node1" class="node"><title>Node1</title>
<polygon fill="#bfbfbf" stroke="black" points="0,-79.5 0,-100.5 272,-100.5 272,-79.5 0,-79.5"/>
<text text-anchor="middle" x="136" y="-87.5" font-family="Helvetica,sans-Serif" font-size="10.00">ZendDbSchema_Db_Schema_Generator_Mysql\alterIndex</text>
</g>
<!-- Node2 -->
<g id="node3" class="node"><title>Node2</title>
<a xlink:href="classZendDbSchema__Db__Schema__Generator__Mysql.html#a5546e56c0c78f9c9d3e830fb5ffcd72d" target="_top" xlink:title="ZendDbSchema_Db_Schema_Generator_Mysql\\createIndex">
<polygon fill="white" stroke="black" points="308,-79.5 308,-100.5 588,-100.5 588,-79.5 308,-79.5"/>
<text text-anchor="middle" x="448" y="-87.5" font-family="Helvetica,sans-Serif" font-size="10.00">ZendDbSchema_Db_Schema_Generator_Mysql\createIndex</text>
</a>
</g>
<!-- Node1&#45;&gt;Node2 -->
<g id="edge2" class="edge"><title>Node1&#45;&gt;Node2</title>
<path fill="none" stroke="midnightblue" d="M272.394,-90C280.879,-90 289.444,-90 297.984,-90"/>
<polygon fill="midnightblue" stroke="midnightblue" points="297.993,-93.5001 307.993,-90 297.992,-86.5001 297.993,-93.5001"/>
</g>
<!-- Node3 -->
<g id="node5" class="node"><title>Node3</title>
<a xlink:href="classZendDbSchema__Db__Schema__AbstractSchema.html#a55787c21deddba427842809d589c2df6" target="_top" xlink:title="ZendDbSchema_Db_Schema_AbstractSchema\\getName">
<polygon fill="white" stroke="black" points="949.5,-119.5 949.5,-140.5 1216.5,-140.5 1216.5,-119.5 949.5,-119.5"/>
<text text-anchor="middle" x="1083" y="-127.5" font-family="Helvetica,sans-Serif" font-size="10.00">ZendDbSchema_Db_Schema_AbstractSchema\getName</text>
</a>
</g>
<!-- Node2&#45;&gt;Node3 -->
<g id="edge4" class="edge"><title>Node2&#45;&gt;Node3</title>
<path fill="none" stroke="midnightblue" d="M471.293,-100.522C504.411,-114.847 567.385,-139.763 624,-149 759.24,-171.065 919.693,-154.955 1010.6,-141.972"/>
<polygon fill="midnightblue" stroke="midnightblue" points="1011.14,-145.432 1020.53,-140.528 1010.13,-138.505 1011.14,-145.432"/>
</g>
<!-- Node6 -->
<g id="node11" class="node"><title>Node6</title>
<a xlink:href="classZendDbSchema__Db__Schema__Table__AbstractDefinition.html#a224b6a0c1df1d6ed40e03657782ef6fc" target="_top" xlink:title="ZendDbSchema_Db_Schema_Table_AbstractDefinition\\getTable">
<polygon fill="white" stroke="black" points="933.5,-79.5 933.5,-100.5 1232.5,-100.5 1232.5,-79.5 933.5,-79.5"/>
<text text-anchor="middle" x="1083" y="-87.5" font-family="Helvetica,sans-Serif" font-size="10.00">ZendDbSchema_Db_Schema_Table_AbstractDefinition\getTable</text>
</a>
</g>
<!-- Node2&#45;&gt;Node6 -->
<g id="edge10" class="edge"><title>Node2&#45;&gt;Node6</title>
<path fill="none" stroke="midnightblue" d="M588.14,-90C687.11,-90 819.934,-90 923.055,-90"/>
<polygon fill="midnightblue" stroke="midnightblue" points="923.255,-93.5001 933.255,-90 923.255,-86.5001 923.255,-93.5001"/>
</g>
<!-- Node7 -->
<g id="node13" class="node"><title>Node7</title>
<a xlink:href="classZendDbSchema__Db__Schema__Table__Index.html#ad0edf2869c08ce408566798f4305b8dc" target="_top" xlink:title="ZendDbSchema_Db_Schema_Table_Index\\getColumns">
<polygon fill="white" stroke="black" points="630,-40.5 630,-61.5 890,-61.5 890,-40.5 630,-40.5"/>
<text text-anchor="middle" x="760" y="-48.5" font-family="Helvetica,sans-Serif" font-size="10.00">ZendDbSchema_Db_Schema_Table_Index\getColumns</text>
</a>
</g>
<!-- Node2&#45;&gt;Node7 -->
<g id="edge12" class="edge"><title>Node2&#45;&gt;Node7</title>
<path fill="none" stroke="midnightblue" d="M532.021,-79.4974C573.292,-74.3384 623.173,-68.1034 665.741,-62.7824"/>
<polygon fill="midnightblue" stroke="midnightblue" points="666.341,-66.2347 675.829,-61.5213 665.472,-59.2888 666.341,-66.2347"/>
</g>
<!-- Node8 -->
<g id="node16" class="node"><title>Node8</title>
<a xlink:href="classZendDbSchema__Db__Schema__AbstractSchema.html#a1680a8fd22360f74d29b641d7257a52f" target="_top" xlink:title="ZendDbSchema_Db_Schema_AbstractSchema\\isExist">
<polygon fill="white" stroke="black" points="631.5,-0.5 631.5,-21.5 888.5,-21.5 888.5,-0.5 631.5,-0.5"/>
<text text-anchor="middle" x="760" y="-8.5" font-family="Helvetica,sans-Serif" font-size="10.00">ZendDbSchema_Db_Schema_AbstractSchema\isExist</text>
</a>
</g>
<!-- Node2&#45;&gt;Node8 -->
<g id="edge16" class="edge"><title>Node2&#45;&gt;Node8</title>
<path fill="none" stroke="midnightblue" d="M474.702,-79.3907C508.818,-66.2231 569.933,-43.9296 624,-31 636.392,-28.0365 649.531,-25.4392 662.566,-23.1842"/>
<polygon fill="midnightblue" stroke="midnightblue" points="663.212,-26.6249 672.499,-21.5262 662.06,-19.7204 663.212,-26.6249"/>
</g>
<!-- Node11 -->
<g id="node22" class="node"><title>Node11</title>
<a xlink:href="classZendDbSchema__Db__Schema__Generator__Mysql.html#a196fb89cf511d31c7124169247de1a6d" target="_top" xlink:title="ZendDbSchema_Db_Schema_Generator_Mysql\\dropIndex">
<polygon fill="white" stroke="black" points="624,-118.5 624,-139.5 896,-139.5 896,-118.5 624,-118.5"/>
<text text-anchor="middle" x="760" y="-126.5" font-family="Helvetica,sans-Serif" font-size="10.00">ZendDbSchema_Db_Schema_Generator_Mysql\dropIndex</text>
</a>
</g>
<!-- Node2&#45;&gt;Node11 -->
<g id="edge22" class="edge"><title>Node2&#45;&gt;Node11</title>
<path fill="none" stroke="midnightblue" d="M532.021,-100.503C573.292,-105.662 623.173,-111.897 665.741,-117.218"/>
<polygon fill="midnightblue" stroke="midnightblue" points="665.472,-120.711 675.829,-118.479 666.341,-113.765 665.472,-120.711"/>
</g>
<!-- Node4 -->
<g id="node7" class="node"><title>Node4</title>
<a xlink:href="classZendDbSchema__Db__Schema__AbstractSchema.html#a54d32c6f15463eaad2321a9f0e7225d7" target="_top" xlink:title="ZendDbSchema_Db_Schema_AbstractSchema\\__get">
<polygon fill="white" stroke="black" points="1298.5,-79.5 1298.5,-100.5 1549.5,-100.5 1549.5,-79.5 1298.5,-79.5"/>
<text text-anchor="middle" x="1424" y="-87.5" font-family="Helvetica,sans-Serif" font-size="10.00">ZendDbSchema_Db_Schema_AbstractSchema\__get</text>
</a>
</g>
<!-- Node3&#45;&gt;Node4 -->
<g id="edge6" class="edge"><title>Node3&#45;&gt;Node4</title>
<path fill="none" stroke="midnightblue" d="M1172.59,-119.49C1219.2,-114.023 1276.31,-107.324 1324.32,-101.693"/>
<polygon fill="midnightblue" stroke="midnightblue" points="1324.89,-105.15 1334.41,-100.509 1324.07,-98.1977 1324.89,-105.15"/>
</g>
<!-- Node5 -->
<g id="node9" class="node"><title>Node5</title>
<a xlink:href="classZendDbSchema__Db__Schema__AbstractSchema.html#ac4e121ba7932163eb1950fabe06fb9db" target="_top" xlink:title="ZendDbSchema_Db_Schema_AbstractSchema\\__isset">
<polygon fill="white" stroke="black" points="1614.5,-79.5 1614.5,-100.5 1873.5,-100.5 1873.5,-79.5 1614.5,-79.5"/>
<text text-anchor="middle" x="1744" y="-87.5" font-family="Helvetica,sans-Serif" font-size="10.00">ZendDbSchema_Db_Schema_AbstractSchema\__isset</text>
</a>
</g>
<!-- Node4&#45;&gt;Node5 -->
<g id="edge8" class="edge"><title>Node4&#45;&gt;Node5</title>
<path fill="none" stroke="midnightblue" d="M1549.55,-90C1567.5,-90 1586.06,-90 1604.26,-90"/>
<polygon fill="midnightblue" stroke="midnightblue" points="1604.33,-93.5001 1614.33,-90 1604.33,-86.5001 1604.33,-93.5001"/>
</g>
<!-- Node7&#45;&gt;Node4 -->
<g id="edge14" class="edge"><title>Node7&#45;&gt;Node4</title>
<path fill="none" stroke="midnightblue" d="M890.143,-53.9459C985.448,-56.6559 1117.87,-61.5695 1234,-70 1263.74,-72.1591 1296.02,-75.2682 1325.4,-78.3938"/>
<polygon fill="midnightblue" stroke="midnightblue" points="1325.34,-81.9077 1335.66,-79.4985 1326.09,-74.9479 1325.34,-81.9077"/>
</g>
<!-- Node9 -->
<g id="node18" class="node"><title>Node9</title>
<a xlink:href="classZendDbSchema__Db__Schema__AbstractSchema.html#a46da7a60c7e5fd605607afbc1dac4baa" target="_top" xlink:title="ZendDbSchema_Db_Schema_AbstractSchema\\getCleanSchema">
<polygon fill="white" stroke="black" points="932,-0.5 932,-21.5 1234,-21.5 1234,-0.5 932,-0.5"/>
<text text-anchor="middle" x="1083" y="-8.5" font-family="Helvetica,sans-Serif" font-size="10.00">ZendDbSchema_Db_Schema_AbstractSchema\getCleanSchema</text>
</a>
</g>
<!-- Node8&#45;&gt;Node9 -->
<g id="edge18" class="edge"><title>Node8&#45;&gt;Node9</title>
<path fill="none" stroke="midnightblue" d="M888.586,-11C899.496,-11 910.616,-11 921.734,-11"/>
<polygon fill="midnightblue" stroke="midnightblue" points="921.938,-14.5001 931.938,-11 921.938,-7.5001 921.938,-14.5001"/>
</g>
<!-- Node10 -->
<g id="node20" class="node"><title>Node10</title>
<a xlink:href="classZendDbSchema__Db__Schema__AbstractSchema.html#af99e5bb9adfe0da8c94d3d3848efe7b5" target="_top" xlink:title="ZendDbSchema_Db_Schema_AbstractSchema\\_getCleanSchema">
<polygon fill="white" stroke="black" points="1270,-0.5 1270,-21.5 1578,-21.5 1578,-0.5 1270,-0.5"/>
<text text-anchor="middle" x="1424" y="-8.5" font-family="Helvetica,sans-Serif" font-size="10.00">ZendDbSchema_Db_Schema_AbstractSchema\_getCleanSchema</text>
</a>
</g>
<!-- Node9&#45;&gt;Node10 -->
<g id="edge20" class="edge"><title>Node9&#45;&gt;Node10</title>
<path fill="none" stroke="midnightblue" d="M1234.06,-11C1242.57,-11 1251.15,-11 1259.71,-11"/>
<polygon fill="midnightblue" stroke="midnightblue" points="1259.74,-14.5001 1269.74,-11 1259.74,-7.5001 1259.74,-14.5001"/>
</g>
<!-- Node11&#45;&gt;Node3 -->
<g id="edge24" class="edge"><title>Node11&#45;&gt;Node3</title>
<path fill="none" stroke="midnightblue" d="M896.045,-129.421C910.265,-129.465 924.756,-129.51 939.06,-129.554"/>
<polygon fill="midnightblue" stroke="midnightblue" points="939.426,-133.055 949.437,-129.586 939.448,-126.055 939.426,-133.055"/>
</g>
<!-- Node11&#45;&gt;Node6 -->
<g id="edge26" class="edge"><title>Node11&#45;&gt;Node6</title>
<path fill="none" stroke="midnightblue" d="M846.983,-118.497C889.8,-113.328 941.567,-107.077 985.696,-101.749"/>
<polygon fill="midnightblue" stroke="midnightblue" points="986.353,-105.195 995.862,-100.521 985.514,-98.2454 986.353,-105.195"/>
</g>
</g>
</svg>
