<?xml version="1.0" encoding="UTF-8" standalone="no"?>
<!DOCTYPE svg PUBLIC "-//W3C//DTD SVG 1.1//EN"
 "http://www.w3.org/Graphics/SVG/1.1/DTD/svg11.dtd">
<!-- Generated by graphviz version 2.26.3 (20100126.1600)
 -->
<!-- Title: G Pages: 1 -->
<svg width="868pt" height="70pt"
 viewBox="0.00 0.00 868.00 70.00" xmlns="http://www.w3.org/2000/svg" xmlns:xlink="http://www.w3.org/1999/xlink">
<g id="graph1" class="graph" transform="scale(1 1) rotate(0) translate(4 66)">
<title>G</title>
<polygon fill="white" stroke="white" points="-4,5 -4,-66 865,-66 865,5 -4,5"/>
<!-- Node1 -->
<g id="node1" class="node"><title>Node1</title>
<polygon fill="#bfbfbf" stroke="black" points="0,-20.5 0,-41.5 248,-41.5 248,-20.5 0,-20.5"/>
<text text-anchor="middle" x="124" y="-28.5" font-family="Helvetica,sans-Serif" font-size="10.00">ZendDbSchema_Db_Migration_Skeleton\addSchema</text>
</g>
<!-- Node2 -->
<g id="node3" class="node"><title>Node2</title>
<a xlink:href="classZendDbSchema__Db__Migration__Skeleton.html#a1d08bca816aaff3ac27087d5e5daa2ff" target="_top" xlink:title="ZendDbSchema_Db_Migration_Skeleton\\getAdapter">
<polygon fill="white" stroke="black" points="284,-20.5 284,-41.5 528,-41.5 528,-20.5 284,-20.5"/>
<text text-anchor="middle" x="406" y="-28.5" font-family="Helvetica,sans-Serif" font-size="10.00">ZendDbSchema_Db_Migration_Skeleton\getAdapter</text>
</a>
</g>
<!-- Node1&#45;&gt;Node2 -->
<g id="edge2" class="edge"><title>Node1&#45;&gt;Node2</title>
<path fill="none" stroke="midnightblue" d="M248.1,-31C256.504,-31 264.99,-31 273.435,-31"/>
<polygon fill="midnightblue" stroke="midnightblue" points="273.708,-34.5001 283.708,-31 273.707,-27.5001 273.708,-34.5001"/>
</g>
<!-- Node3 -->
<g id="node5" class="node"><title>Node3</title>
<a xlink:href="classZendDbSchema__Db__Schema__AbstractEntity.html#aeeb617d5d385796ccbe95e0aa85cf491" target="_top" xlink:title="ZendDbSchema_Db_Schema_AbstractEntity\\getDefaultAdapter">
<polygon fill="white" stroke="black" points="564,-40.5 564,-61.5 860,-61.5 860,-40.5 564,-40.5"/>
<text text-anchor="middle" x="712" y="-48.5" font-family="Helvetica,sans-Serif" font-size="10.00">ZendDbSchema_Db_Schema_AbstractEntity\getDefaultAdapter</text>
</a>
</g>
<!-- Node2&#45;&gt;Node3 -->
<g id="edge4" class="edge"><title>Node2&#45;&gt;Node3</title>
<path fill="none" stroke="midnightblue" d="M528.259,-38.9908C536.694,-39.5421 545.259,-40.1019 553.846,-40.6632"/>
<polygon fill="midnightblue" stroke="midnightblue" points="553.723,-44.1625 563.93,-41.3222 554.18,-37.1774 553.723,-44.1625"/>
</g>
<!-- Node4 -->
<g id="node7" class="node"><title>Node4</title>
<a xlink:href="classZendDbSchema__Db__Migration__Skeleton.html#aa36d3a36801a4fe2dc5369f4fe68a516" target="_top" xlink:title="ZendDbSchema_Db_Migration_Skeleton\\setAdapter">
<polygon fill="white" stroke="black" points="590,-0.5 590,-21.5 834,-21.5 834,-0.5 590,-0.5"/>
<text text-anchor="middle" x="712" y="-8.5" font-family="Helvetica,sans-Serif" font-size="10.00">ZendDbSchema_Db_Migration_Skeleton\setAdapter</text>
</a>
</g>
<!-- Node2&#45;&gt;Node4 -->
<g id="edge6" class="edge"><title>Node2&#45;&gt;Node4</title>
<path fill="none" stroke="midnightblue" d="M528.259,-23.0092C545.236,-21.8996 562.74,-20.7556 579.887,-19.6348"/>
<polygon fill="midnightblue" stroke="midnightblue" points="580.185,-23.1229 589.936,-18.9781 579.729,-16.1378 580.185,-23.1229"/>
</g>
</g>
</svg>
