<?xml version="1.0" encoding="UTF-8" standalone="no"?>
<!DOCTYPE svg PUBLIC "-//W3C//DTD SVG 1.1//EN"
 "http://www.w3.org/Graphics/SVG/1.1/DTD/svg11.dtd">
<!-- Generated by graphviz version 2.26.3 (20100126.1600)
 -->
<!-- Title: G Pages: 1 -->
<svg width="1606pt" height="249pt"
 viewBox="0.00 0.00 1606.00 249.00" xmlns="http://www.w3.org/2000/svg" xmlns:xlink="http://www.w3.org/1999/xlink">
<g id="graph1" class="graph" transform="scale(1 1) rotate(0) translate(4 245)">
<title>G</title>
<polygon fill="white" stroke="white" points="-4,5 -4,-245 1603,-245 1603,5 -4,5"/>
<!-- Node1 -->
<g id="node1" class="node"><title>Node1</title>
<polygon fill="#bfbfbf" stroke="black" points="0.5,-119.5 0.5,-140.5 281.5,-140.5 281.5,-119.5 0.5,-119.5"/>
<text text-anchor="middle" x="141" y="-127.5" font-family="Helvetica,sans-Serif" font-size="10.00">ZendDbSchema_Db_Schema_Generator_Mysql\alterColumn</text>
</g>
<!-- Node2 -->
<g id="node3" class="node"><title>Node2</title>
<a xlink:href="classZendDbSchema__Db__Schema__Table__AbstractDefinition.html#a224b6a0c1df1d6ed40e03657782ef6fc" target="_top" xlink:title="ZendDbSchema_Db_Schema_Table_AbstractDefinition\\getTable">
<polygon fill="white" stroke="black" points="318.5,-219.5 318.5,-240.5 617.5,-240.5 617.5,-219.5 318.5,-219.5"/>
<text text-anchor="middle" x="468" y="-227.5" font-family="Helvetica,sans-Serif" font-size="10.00">ZendDbSchema_Db_Schema_Table_AbstractDefinition\getTable</text>
</a>
</g>
<!-- Node1&#45;&gt;Node2 -->
<g id="edge2" class="edge"><title>Node1&#45;&gt;Node2</title>
<path fill="none" stroke="midnightblue" d="M159.43,-140.524C190.872,-157.967 257.37,-192.662 318,-210 328.25,-212.931 339.019,-215.435 349.886,-217.575"/>
<polygon fill="midnightblue" stroke="midnightblue" points="349.408,-221.046 359.88,-219.438 350.691,-214.164 349.408,-221.046"/>
</g>
<!-- Node3 -->
<g id="node5" class="node"><title>Node3</title>
<a xlink:href="classZendDbSchema__Db__Schema__Table__AbstractDefinition.html#a92b77fa23ce49db1c39edcc583ec6cfe" target="_top" xlink:title="ZendDbSchema_Db_Schema_Table_AbstractDefinition\\isDirty">
<polygon fill="white" stroke="black" points="323,-179.5 323,-200.5 613,-200.5 613,-179.5 323,-179.5"/>
<text text-anchor="middle" x="468" y="-187.5" font-family="Helvetica,sans-Serif" font-size="10.00">ZendDbSchema_Db_Schema_Table_AbstractDefinition\isDirty</text>
</a>
</g>
<!-- Node1&#45;&gt;Node3 -->
<g id="edge4" class="edge"><title>Node1&#45;&gt;Node3</title>
<path fill="none" stroke="midnightblue" d="M182.627,-140.518C218.36,-149.279 271.331,-161.633 318,-170 334.429,-172.946 351.942,-175.661 368.989,-178.079"/>
<polygon fill="midnightblue" stroke="midnightblue" points="368.573,-181.555 378.96,-179.468 369.539,-174.621 368.573,-181.555"/>
</g>
<!-- Node5 -->
<g id="node9" class="node"><title>Node5</title>
<a xlink:href="classZendDbSchema__Db__Schema__AbstractSchema.html#a55787c21deddba427842809d589c2df6" target="_top" xlink:title="ZendDbSchema_Db_Schema_AbstractSchema\\getName">
<polygon fill="white" stroke="black" points="672.5,-80.5 672.5,-101.5 939.5,-101.5 939.5,-80.5 672.5,-80.5"/>
<text text-anchor="middle" x="806" y="-88.5" font-family="Helvetica,sans-Serif" font-size="10.00">ZendDbSchema_Db_Schema_AbstractSchema\getName</text>
</a>
</g>
<!-- Node1&#45;&gt;Node5 -->
<g id="edge8" class="edge"><title>Node1&#45;&gt;Node5</title>
<path fill="none" stroke="midnightblue" d="M176.872,-119.423C212.349,-109.552 268.374,-95.5376 318,-90 433.274,-77.1369 564.82,-78.3178 662.266,-82.2004"/>
<polygon fill="midnightblue" stroke="midnightblue" points="662.345,-85.7066 672.481,-82.6223 662.634,-78.7125 662.345,-85.7066"/>
</g>
<!-- Node8 -->
<g id="node15" class="node"><title>Node8</title>
<a xlink:href="classZendDbSchema__Db__Schema__AbstractSchema.html#a1680a8fd22360f74d29b641d7257a52f" target="_top" xlink:title="ZendDbSchema_Db_Schema_AbstractSchema\\isExist">
<polygon fill="white" stroke="black" points="339.5,-139.5 339.5,-160.5 596.5,-160.5 596.5,-139.5 339.5,-139.5"/>
<text text-anchor="middle" x="468" y="-147.5" font-family="Helvetica,sans-Serif" font-size="10.00">ZendDbSchema_Db_Schema_AbstractSchema\isExist</text>
</a>
</g>
<!-- Node1&#45;&gt;Node8 -->
<g id="edge14" class="edge"><title>Node1&#45;&gt;Node8</title>
<path fill="none" stroke="midnightblue" d="M281.575,-138.598C297.337,-139.562 313.389,-140.544 329.129,-141.506"/>
<polygon fill="midnightblue" stroke="midnightblue" points="329.226,-145.019 339.421,-142.136 329.653,-138.032 329.226,-145.019"/>
</g>
<!-- Node11 -->
<g id="node21" class="node"><title>Node11</title>
<a xlink:href="classZendDbSchema__Db__Schema__AbstractSchema.html#adacb1417b461310c5c87f72c459c1985" target="_top" xlink:title="ZendDbSchema_Db_Schema_AbstractSchema\\getOriginName">
<polygon fill="white" stroke="black" points="321.5,-99.5 321.5,-120.5 614.5,-120.5 614.5,-99.5 321.5,-99.5"/>
<text text-anchor="middle" x="468" y="-107.5" font-family="Helvetica,sans-Serif" font-size="10.00">ZendDbSchema_Db_Schema_AbstractSchema\getOriginName</text>
</a>
</g>
<!-- Node1&#45;&gt;Node11 -->
<g id="edge20" class="edge"><title>Node1&#45;&gt;Node11</title>
<path fill="none" stroke="midnightblue" d="M281.575,-121.402C291.339,-120.805 301.215,-120.201 311.058,-119.599"/>
<polygon fill="midnightblue" stroke="midnightblue" points="311.531,-123.077 321.299,-118.973 311.104,-116.09 311.531,-123.077"/>
</g>
<!-- Node12 -->
<g id="node24" class="node"><title>Node12</title>
<a xlink:href="classZendDbSchema__Db__Schema__Generator__Mysql.html#ab808aafb85b6359cacdb4cc3fe757d6b" target="_top" xlink:title="ZendDbSchema_Db_Schema_Generator_Mysql\\_columnSql">
<polygon fill="white" stroke="black" points="328,-21.5 328,-42.5 608,-42.5 608,-21.5 328,-21.5"/>
<text text-anchor="middle" x="468" y="-29.5" font-family="Helvetica,sans-Serif" font-size="10.00">ZendDbSchema_Db_Schema_Generator_Mysql\_columnSql</text>
</a>
</g>
<!-- Node1&#45;&gt;Node12 -->
<g id="edge24" class="edge"><title>Node1&#45;&gt;Node12</title>
<path fill="none" stroke="midnightblue" d="M162.237,-119.391C194.908,-103.5 259.828,-73.6118 318,-57 335.968,-51.8689 355.467,-47.6641 374.276,-44.2656"/>
<polygon fill="midnightblue" stroke="midnightblue" points="375.088,-47.6769 384.338,-42.5106 373.885,-40.781 375.088,-47.6769"/>
</g>
<!-- Node4 -->
<g id="node7" class="node"><title>Node4</title>
<a xlink:href="classZendDbSchema__Db__Schema__Table__AbstractDefinition.html#ae3276a6f60f556eb468d3f2ef102a3ab" target="_top" xlink:title="ZendDbSchema_Db_Schema_Table_AbstractDefinition\\isDeleted">
<polygon fill="white" stroke="black" points="654.5,-179.5 654.5,-200.5 957.5,-200.5 957.5,-179.5 654.5,-179.5"/>
<text text-anchor="middle" x="806" y="-187.5" font-family="Helvetica,sans-Serif" font-size="10.00">ZendDbSchema_Db_Schema_Table_AbstractDefinition\isDeleted</text>
</a>
</g>
<!-- Node3&#45;&gt;Node4 -->
<g id="edge6" class="edge"><title>Node3&#45;&gt;Node4</title>
<path fill="none" stroke="midnightblue" d="M613.304,-190C623.503,-190 633.819,-190 644.1,-190"/>
<polygon fill="midnightblue" stroke="midnightblue" points="644.364,-193.5 654.364,-190 644.364,-186.5 644.364,-193.5"/>
</g>
<!-- Node6 -->
<g id="node11" class="node"><title>Node6</title>
<a xlink:href="classZendDbSchema__Db__Schema__AbstractSchema.html#a54d32c6f15463eaad2321a9f0e7225d7" target="_top" xlink:title="ZendDbSchema_Db_Schema_AbstractSchema\\__get">
<polygon fill="white" stroke="black" points="1022.5,-40.5 1022.5,-61.5 1273.5,-61.5 1273.5,-40.5 1022.5,-40.5"/>
<text text-anchor="middle" x="1148" y="-48.5" font-family="Helvetica,sans-Serif" font-size="10.00">ZendDbSchema_Db_Schema_AbstractSchema\__get</text>
</a>
</g>
<!-- Node5&#45;&gt;Node6 -->
<g id="edge10" class="edge"><title>Node5&#45;&gt;Node6</title>
<path fill="none" stroke="midnightblue" d="M895.856,-80.4905C942.602,-75.0231 999.879,-68.324 1048.02,-62.6932"/>
<polygon fill="midnightblue" stroke="midnightblue" points="1048.62,-66.1468 1058.15,-61.5087 1047.81,-59.1942 1048.62,-66.1468"/>
</g>
<!-- Node7 -->
<g id="node13" class="node"><title>Node7</title>
<a xlink:href="classZendDbSchema__Db__Schema__AbstractSchema.html#ac4e121ba7932163eb1950fabe06fb9db" target="_top" xlink:title="ZendDbSchema_Db_Schema_AbstractSchema\\__isset">
<polygon fill="white" stroke="black" points="1338.5,-40.5 1338.5,-61.5 1597.5,-61.5 1597.5,-40.5 1338.5,-40.5"/>
<text text-anchor="middle" x="1468" y="-48.5" font-family="Helvetica,sans-Serif" font-size="10.00">ZendDbSchema_Db_Schema_AbstractSchema\__isset</text>
</a>
</g>
<!-- Node6&#45;&gt;Node7 -->
<g id="edge12" class="edge"><title>Node6&#45;&gt;Node7</title>
<path fill="none" stroke="midnightblue" d="M1273.55,-51C1291.5,-51 1310.06,-51 1328.26,-51"/>
<polygon fill="midnightblue" stroke="midnightblue" points="1328.33,-54.5001 1338.33,-51 1328.33,-47.5001 1328.33,-54.5001"/>
</g>
<!-- Node9 -->
<g id="node17" class="node"><title>Node9</title>
<a xlink:href="classZendDbSchema__Db__Schema__AbstractSchema.html#a46da7a60c7e5fd605607afbc1dac4baa" target="_top" xlink:title="ZendDbSchema_Db_Schema_AbstractSchema\\getCleanSchema">
<polygon fill="white" stroke="black" points="655,-139.5 655,-160.5 957,-160.5 957,-139.5 655,-139.5"/>
<text text-anchor="middle" x="806" y="-147.5" font-family="Helvetica,sans-Serif" font-size="10.00">ZendDbSchema_Db_Schema_AbstractSchema\getCleanSchema</text>
</a>
</g>
<!-- Node8&#45;&gt;Node9 -->
<g id="edge16" class="edge"><title>Node8&#45;&gt;Node9</title>
<path fill="none" stroke="midnightblue" d="M596.748,-150C612.506,-150 628.76,-150 644.918,-150"/>
<polygon fill="midnightblue" stroke="midnightblue" points="644.96,-153.5 654.96,-150 644.96,-146.5 644.96,-153.5"/>
</g>
<!-- Node10 -->
<g id="node19" class="node"><title>Node10</title>
<a xlink:href="classZendDbSchema__Db__Schema__AbstractSchema.html#af99e5bb9adfe0da8c94d3d3848efe7b5" target="_top" xlink:title="ZendDbSchema_Db_Schema_AbstractSchema\\_getCleanSchema">
<polygon fill="white" stroke="black" points="994,-139.5 994,-160.5 1302,-160.5 1302,-139.5 994,-139.5"/>
<text text-anchor="middle" x="1148" y="-147.5" font-family="Helvetica,sans-Serif" font-size="10.00">ZendDbSchema_Db_Schema_AbstractSchema\_getCleanSchema</text>
</a>
</g>
<!-- Node9&#45;&gt;Node10 -->
<g id="edge18" class="edge"><title>Node9&#45;&gt;Node10</title>
<path fill="none" stroke="midnightblue" d="M957.002,-150C965.907,-150 974.887,-150 983.841,-150"/>
<polygon fill="midnightblue" stroke="midnightblue" points="983.934,-153.5 993.934,-150 983.934,-146.5 983.934,-153.5"/>
</g>
<!-- Node11&#45;&gt;Node5 -->
<g id="edge22" class="edge"><title>Node11&#45;&gt;Node5</title>
<path fill="none" stroke="midnightblue" d="M614.777,-101.749C630.488,-100.866 646.459,-99.9683 662.135,-99.0871"/>
<polygon fill="midnightblue" stroke="midnightblue" points="662.601,-102.567 672.388,-98.5107 662.208,-95.5776 662.601,-102.567"/>
</g>
<!-- Node13 -->
<g id="node26" class="node"><title>Node13</title>
<a xlink:href="classZendDbSchema__Db__Schema__Table__Column.html#aeeed5820cfc4fac67507a196e9faa638" target="_top" xlink:title="ZendDbSchema_Db_Schema_Table_Column\\isNullable">
<polygon fill="white" stroke="black" points="676,-0.5 676,-21.5 936,-21.5 936,-0.5 676,-0.5"/>
<text text-anchor="middle" x="806" y="-8.5" font-family="Helvetica,sans-Serif" font-size="10.00">ZendDbSchema_Db_Schema_Table_Column\isNullable</text>
</a>
</g>
<!-- Node12&#45;&gt;Node13 -->
<g id="edge26" class="edge"><title>Node12&#45;&gt;Node13</title>
<path fill="none" stroke="midnightblue" d="M608.406,-23.2765C627.317,-22.1016 646.719,-20.8961 665.629,-19.7212"/>
<polygon fill="midnightblue" stroke="midnightblue" points="666.008,-23.2046 675.772,-19.0911 665.574,-16.218 666.008,-23.2046"/>
</g>
<!-- Node14 -->
<g id="node29" class="node"><title>Node14</title>
<a xlink:href="classZendDbSchema__Db__Schema__Table__Column.html#a49887d783c47fa509e229ca61dd113ef" target="_top" xlink:title="ZendDbSchema_Db_Schema_Table_Column\\isSigned">
<polygon fill="white" stroke="black" points="678.5,-40.5 678.5,-61.5 933.5,-61.5 933.5,-40.5 678.5,-40.5"/>
<text text-anchor="middle" x="806" y="-48.5" font-family="Helvetica,sans-Serif" font-size="10.00">ZendDbSchema_Db_Schema_Table_Column\isSigned</text>
</a>
</g>
<!-- Node12&#45;&gt;Node14 -->
<g id="edge30" class="edge"><title>Node12&#45;&gt;Node14</title>
<path fill="none" stroke="midnightblue" d="M608.406,-39.8926C628.176,-41.004 648.484,-42.1455 668.204,-43.2541"/>
<polygon fill="midnightblue" stroke="midnightblue" points="668.277,-46.7636 678.458,-43.8305 668.67,-39.7746 668.277,-46.7636"/>
</g>
<!-- Node13&#45;&gt;Node6 -->
<g id="edge28" class="edge"><title>Node13&#45;&gt;Node6</title>
<path fill="none" stroke="midnightblue" d="M895.856,-21.5095C942.602,-26.9769 999.879,-33.676 1048.02,-39.3068"/>
<polygon fill="midnightblue" stroke="midnightblue" points="1047.81,-42.8058 1058.15,-40.4913 1048.62,-35.8532 1047.81,-42.8058"/>
</g>
<!-- Node14&#45;&gt;Node6 -->
<g id="edge32" class="edge"><title>Node14&#45;&gt;Node6</title>
<path fill="none" stroke="midnightblue" d="M933.835,-51C959.377,-51 986.295,-51 1012.1,-51"/>
<polygon fill="midnightblue" stroke="midnightblue" points="1012.31,-54.5001 1022.31,-51 1012.31,-47.5001 1012.31,-54.5001"/>
</g>
</g>
</svg>
