<?xml version="1.0" encoding="UTF-8" standalone="no"?>
<!DOCTYPE svg PUBLIC "-//W3C//DTD SVG 1.1//EN"
 "http://www.w3.org/Graphics/SVG/1.1/DTD/svg11.dtd">
<!-- Generated by graphviz version 2.26.3 (20100126.1600)
 -->
<!-- Title: G Pages: 1 -->
<svg width="558pt" height="70pt"
 viewBox="0.00 0.00 558.00 70.00" xmlns="http://www.w3.org/2000/svg" xmlns:xlink="http://www.w3.org/1999/xlink">
<g id="graph1" class="graph" transform="scale(1 1) rotate(0) translate(4 66)">
<title>G</title>
<polygon fill="white" stroke="white" points="-4,5 -4,-66 555,-66 555,5 -4,5"/>
<!-- Node1 -->
<g id="node1" class="node"><title>Node1</title>
<polygon fill="#bfbfbf" stroke="black" points="0.5,-20.5 0.5,-41.5 269.5,-41.5 269.5,-20.5 0.5,-20.5"/>
<text text-anchor="middle" x="135" y="-28.5" font-family="Helvetica,sans-Serif" font-size="10.00">ZendDbSchema_Db_Schema_AbstractSchema\getParser</text>
</g>
<!-- Node2 -->
<g id="node3" class="node"><title>Node2</title>
<a xlink:href="classZendDbSchema__Db__Schema__Database.html#aad388b374fd5913946204230760b2d86" target="_top" xlink:title="ZendDbSchema_Db_Schema_Database\\_doReload">
<polygon fill="white" stroke="black" points="306.5,-40.5 306.5,-61.5 549.5,-61.5 549.5,-40.5 306.5,-40.5"/>
<text text-anchor="middle" x="428" y="-48.5" font-family="Helvetica,sans-Serif" font-size="10.00">ZendDbSchema_Db_Schema_Database\_doReload</text>
</a>
</g>
<!-- Node1&#45;&gt;Node2 -->
<g id="edge2" class="edge"><title>Node1&#45;&gt;Node2</title>
<path fill="none" stroke="midnightblue" d="M279.919,-40.8921C288.782,-41.4971 297.653,-42.1026 306.402,-42.6998"/>
<polygon fill="midnightblue" stroke="midnightblue" points="280.138,-37.3989 269.922,-40.2097 279.661,-44.3827 280.138,-37.3989"/>
</g>
<!-- Node3 -->
<g id="node5" class="node"><title>Node3</title>
<a xlink:href="classZendDbSchema__Db__Schema__Table.html#abc05b1f219611fefdd0e9eaeff1761d9" target="_top" xlink:title="ZendDbSchema_Db_Schema_Table\\_doReload">
<polygon fill="white" stroke="black" points="315.5,-0.5 315.5,-21.5 540.5,-21.5 540.5,-0.5 315.5,-0.5"/>
<text text-anchor="middle" x="428" y="-8.5" font-family="Helvetica,sans-Serif" font-size="10.00">ZendDbSchema_Db_Schema_Table\_doReload</text>
</a>
</g>
<!-- Node1&#45;&gt;Node3 -->
<g id="edge4" class="edge"><title>Node1&#45;&gt;Node3</title>
<path fill="none" stroke="midnightblue" d="M280.251,-21.0853C292.016,-20.2822 303.791,-19.4784 315.274,-18.6946"/>
<polygon fill="midnightblue" stroke="midnightblue" points="279.661,-17.6173 269.922,-21.7903 280.138,-24.6011 279.661,-17.6173"/>
</g>
</g>
</svg>
