<?xml version="1.0" encoding="UTF-8" standalone="no"?>
<!DOCTYPE svg PUBLIC "-//W3C//DTD SVG 1.1//EN"
 "http://www.w3.org/Graphics/SVG/1.1/DTD/svg11.dtd">
<!-- Generated by graphviz version 2.26.3 (20100126.1600)
 -->
<!-- Title: G Pages: 1 -->
<svg width="594pt" height="70pt"
 viewBox="0.00 0.00 594.00 70.00" xmlns="http://www.w3.org/2000/svg" xmlns:xlink="http://www.w3.org/1999/xlink">
<g id="graph1" class="graph" transform="scale(1 1) rotate(0) translate(4 66)">
<title>G</title>
<polygon fill="white" stroke="white" points="-4,5 -4,-66 591,-66 591,5 -4,5"/>
<!-- Node1 -->
<g id="node1" class="node"><title>Node1</title>
<polygon fill="#bfbfbf" stroke="black" points="0.5,-20.5 0.5,-41.5 301.5,-41.5 301.5,-20.5 0.5,-20.5"/>
<text text-anchor="middle" x="151" y="-28.5" font-family="Helvetica,sans-Serif" font-size="10.00">ZendDbSchema_Db_Migration_Manager\getMigrationClassName</text>
</g>
<!-- Node2 -->
<g id="node3" class="node"><title>Node2</title>
<a xlink:href="classZendDbSchema__Db__Migration__Manager.html#af33cb75756ed27dd86665110800003a4" target="_top" xlink:title="ZendDbSchema_Db_Migration_Manager\\__construct">
<polygon fill="white" stroke="black" points="338.5,-40.5 338.5,-61.5 585.5,-61.5 585.5,-40.5 338.5,-40.5"/>
<text text-anchor="middle" x="462" y="-48.5" font-family="Helvetica,sans-Serif" font-size="10.00">ZendDbSchema_Db_Migration_Manager\__construct</text>
</a>
</g>
<!-- Node1&#45;&gt;Node2 -->
<g id="edge2" class="edge"><title>Node1&#45;&gt;Node2</title>
<path fill="none" stroke="midnightblue" d="M311.976,-41.3522C320.858,-41.9233 329.716,-42.493 338.434,-43.0536"/>
<polygon fill="midnightblue" stroke="midnightblue" points="312.149,-37.8561 301.945,-40.7071 311.7,-44.8417 312.149,-37.8561"/>
</g>
<!-- Node3 -->
<g id="node5" class="node"><title>Node3</title>
<a xlink:href="classZendDbSchema__Db__Migration__Manager.html#a9eb1ab3bdc90966e0aec756093b861e2" target="_top" xlink:title="ZendDbSchema_Db_Migration_Manager\\skeleton">
<polygon fill="white" stroke="black" points="345.5,-0.5 345.5,-21.5 578.5,-21.5 578.5,-0.5 345.5,-0.5"/>
<text text-anchor="middle" x="462" y="-8.5" font-family="Helvetica,sans-Serif" font-size="10.00">ZendDbSchema_Db_Migration_Manager\skeleton</text>
</a>
</g>
<!-- Node1&#45;&gt;Node3 -->
<g id="edge4" class="edge"><title>Node1&#45;&gt;Node3</title>
<path fill="none" stroke="midnightblue" d="M312.176,-20.635C323.312,-19.9189 334.408,-19.2052 345.238,-18.5088"/>
<polygon fill="midnightblue" stroke="midnightblue" points="311.7,-17.1583 301.945,-21.2929 312.149,-24.1439 311.7,-17.1583"/>
</g>
</g>
</svg>
