<?xml version="1.0" encoding="UTF-8" standalone="no"?>
<!DOCTYPE svg PUBLIC "-//W3C//DTD SVG 1.1//EN"
 "http://www.w3.org/Graphics/SVG/1.1/DTD/svg11.dtd">
<!-- Generated by graphviz version 2.26.3 (20100126.1600)
 -->
<!-- Title: G Pages: 1 -->
<svg width="1476pt" height="186pt"
 viewBox="0.00 0.00 1476.00 185.66" xmlns="http://www.w3.org/2000/svg" xmlns:xlink="http://www.w3.org/1999/xlink">
<g id="graph1" class="graph" transform="scale(1 1) rotate(0) translate(4 181.657)">
<title>G</title>
<polygon fill="white" stroke="white" points="-4,5 -4,-181.657 1473,-181.657 1473,5 -4,5"/>
<!-- Node1 -->
<g id="node1" class="node"><title>Node1</title>
<polygon fill="#bfbfbf" stroke="black" points="0,-111.5 0,-158.5 150,-158.5 150,-111.5 0,-111.5"/>
<text text-anchor="start" x="8" y="-145.5" font-family="Helvetica,sans-Serif" font-size="10.00">ZendDbSchema_Db_Schema</text>
<text text-anchor="start" x="8" y="-132.5" font-family="Helvetica,sans-Serif" font-size="10.00">_Table_DefinitionManager</text>
<text text-anchor="middle" x="75" y="-119.5" font-family="Helvetica,sans-Serif" font-size="10.00">_AbstractManager\__construct</text>
</g>
<!-- Node2 -->
<g id="node3" class="node"><title>Node2</title>
<a xlink:href="classZendDbSchema__Db__Schema__Table__DefinitionManager__AbstractManager.html#a7503e344823c2a1e1e3beb80b8541116" target="_top" xlink:title="ZendDbSchema_Db_Schema\l_Table_DefinitionManager\l_AbstractManager\\refresh">
<polygon fill="white" stroke="black" points="186,-111.5 186,-158.5 332,-158.5 332,-111.5 186,-111.5"/>
<text text-anchor="start" x="194" y="-145.5" font-family="Helvetica,sans-Serif" font-size="10.00">ZendDbSchema_Db_Schema</text>
<text text-anchor="start" x="194" y="-132.5" font-family="Helvetica,sans-Serif" font-size="10.00">_Table_DefinitionManager</text>
<text text-anchor="middle" x="259" y="-119.5" font-family="Helvetica,sans-Serif" font-size="10.00">_AbstractManager\refresh</text>
</a>
</g>
<!-- Node1&#45;&gt;Node2 -->
<g id="edge2" class="edge"><title>Node1&#45;&gt;Node2</title>
<path fill="none" stroke="midnightblue" d="M150.105,-135C158.605,-135 167.303,-135 175.897,-135"/>
<polygon fill="midnightblue" stroke="midnightblue" points="175.92,-138.5 185.92,-135 175.92,-131.5 175.92,-138.5"/>
</g>
<!-- Node3 -->
<g id="node5" class="node"><title>Node3</title>
<a xlink:href="classZendDbSchema__Db__Schema__Table__DefinitionManager__AbstractManager.html#ac62cf058c89132b0ff9223d9fcefdb8a" target="_top" xlink:title="ZendDbSchema_Db_Schema\l_Table_DefinitionManager\l_AbstractManager\\_getItemClass">
<polygon fill="white" stroke="black" points="758.5,-118.5 758.5,-165.5 921.5,-165.5 921.5,-118.5 758.5,-118.5"/>
<text text-anchor="start" x="766.5" y="-152.5" font-family="Helvetica,sans-Serif" font-size="10.00">ZendDbSchema_Db_Schema</text>
<text text-anchor="start" x="766.5" y="-139.5" font-family="Helvetica,sans-Serif" font-size="10.00">_Table_DefinitionManager</text>
<text text-anchor="middle" x="840" y="-126.5" font-family="Helvetica,sans-Serif" font-size="10.00">_AbstractManager\_getItemClass</text>
</a>
</g>
<!-- Node2&#45;&gt;Node3 -->
<g id="edge4" class="edge"><title>Node2&#45;&gt;Node3</title>
<path fill="none" stroke="midnightblue" d="M325.742,-158.572C339.545,-162.49 354.113,-165.944 368,-168 499.139,-187.416 652.709,-171.978 748.19,-157.94"/>
<polygon fill="midnightblue" stroke="midnightblue" points="748.733,-161.398 758.105,-156.456 747.697,-154.475 748.733,-161.398"/>
</g>
<!-- Node4 -->
<g id="node7" class="node"><title>Node4</title>
<a xlink:href="classZendDbSchema__Db__Schema__Table__DefinitionManager__AbstractManager.html#ab930802b470913f09f29877ed094a760" target="_top" xlink:title="ZendDbSchema_Db_Schema\l_Table_DefinitionManager\l_AbstractManager\\_getSchemaKey">
<polygon fill="white" stroke="black" points="368.5,-111.5 368.5,-158.5 539.5,-158.5 539.5,-111.5 368.5,-111.5"/>
<text text-anchor="start" x="376.5" y="-145.5" font-family="Helvetica,sans-Serif" font-size="10.00">ZendDbSchema_Db_Schema</text>
<text text-anchor="start" x="376.5" y="-132.5" font-family="Helvetica,sans-Serif" font-size="10.00">_Table_DefinitionManager</text>
<text text-anchor="middle" x="454" y="-119.5" font-family="Helvetica,sans-Serif" font-size="10.00">_AbstractManager\_getSchemaKey</text>
</a>
</g>
<!-- Node2&#45;&gt;Node4 -->
<g id="edge6" class="edge"><title>Node2&#45;&gt;Node4</title>
<path fill="none" stroke="midnightblue" d="M332.166,-135C340.632,-135 349.36,-135 358.072,-135"/>
<polygon fill="midnightblue" stroke="midnightblue" points="358.274,-138.5 368.274,-135 358.274,-131.5 358.274,-138.5"/>
</g>
<!-- Node5 -->
<g id="node9" class="node"><title>Node5</title>
<a xlink:href="classZendDbSchema__Db__Schema__Table__DefinitionManager__AbstractManager.html#a40677ee7cb91e19c1587bdda9e73d3d5" target="_top" xlink:title="ZendDbSchema_Db_Schema\l_Table_DefinitionManager\l_AbstractManager\\setFromArray">
<polygon fill="white" stroke="black" points="375,-45.5 375,-92.5 533,-92.5 533,-45.5 375,-45.5"/>
<text text-anchor="start" x="383" y="-79.5" font-family="Helvetica,sans-Serif" font-size="10.00">ZendDbSchema_Db_Schema</text>
<text text-anchor="start" x="383" y="-66.5" font-family="Helvetica,sans-Serif" font-size="10.00">_Table_DefinitionManager</text>
<text text-anchor="middle" x="454" y="-53.5" font-family="Helvetica,sans-Serif" font-size="10.00">_AbstractManager\setFromArray</text>
</a>
</g>
<!-- Node2&#45;&gt;Node5 -->
<g id="edge8" class="edge"><title>Node2&#45;&gt;Node5</title>
<path fill="none" stroke="midnightblue" d="M328.574,-111.452C343.468,-106.411 359.311,-101.048 374.546,-95.8921"/>
<polygon fill="midnightblue" stroke="midnightblue" points="376.103,-99.0602 384.453,-92.5389 373.859,-92.4297 376.103,-99.0602"/>
</g>
<!-- Node5&#45;&gt;Node3 -->
<g id="edge10" class="edge"><title>Node5&#45;&gt;Node3</title>
<path fill="none" stroke="midnightblue" d="M515.804,-92.5563C542.638,-102.641 569.46,-112.472 576,-114 632.383,-127.173 697.002,-134.16 748.197,-137.86"/>
<polygon fill="midnightblue" stroke="midnightblue" points="748.033,-141.357 758.251,-138.557 748.517,-134.374 748.033,-141.357"/>
</g>
<!-- Node6 -->
<g id="node12" class="node"><title>Node6</title>
<a xlink:href="classZendDbSchema__Db__Schema__Table__DefinitionManager__AbstractManager.html#ad0261d0db60ff459f97adc23b2d16931" target="_top" xlink:title="ZendDbSchema_Db_Schema\l_Table_DefinitionManager\l_AbstractManager\\has">
<polygon fill="white" stroke="black" points="767,-0.5 767,-47.5 913,-47.5 913,-0.5 767,-0.5"/>
<text text-anchor="start" x="775" y="-34.5" font-family="Helvetica,sans-Serif" font-size="10.00">ZendDbSchema_Db_Schema</text>
<text text-anchor="start" x="775" y="-21.5" font-family="Helvetica,sans-Serif" font-size="10.00">_Table_DefinitionManager</text>
<text text-anchor="middle" x="840" y="-8.5" font-family="Helvetica,sans-Serif" font-size="10.00">_AbstractManager\has</text>
</a>
</g>
<!-- Node5&#45;&gt;Node6 -->
<g id="edge12" class="edge"><title>Node5&#45;&gt;Node6</title>
<path fill="none" stroke="midnightblue" d="M533.268,-54.4112C547.467,-52.0677 562.149,-49.8187 576,-48 636.318,-40.0798 704.734,-33.9399 756.802,-29.8535"/>
<polygon fill="midnightblue" stroke="midnightblue" points="757.291,-33.3262 766.991,-29.0637 756.75,-26.3471 757.291,-33.3262"/>
</g>
<!-- Node7 -->
<g id="node14" class="node"><title>Node7</title>
<a xlink:href="classZendDbSchema__Db__Schema__Table__DefinitionManager__AbstractManager.html#a6d815884ca03c003ac7f8d633e97f7c6" target="_top" xlink:title="ZendDbSchema_Db_Schema\l_Table_DefinitionManager\l_AbstractManager\\add">
<polygon fill="white" stroke="black" points="576,-57.5 576,-104.5 722,-104.5 722,-57.5 576,-57.5"/>
<text text-anchor="start" x="584" y="-91.5" font-family="Helvetica,sans-Serif" font-size="10.00">ZendDbSchema_Db_Schema</text>
<text text-anchor="start" x="584" y="-78.5" font-family="Helvetica,sans-Serif" font-size="10.00">_Table_DefinitionManager</text>
<text text-anchor="middle" x="649" y="-65.5" font-family="Helvetica,sans-Serif" font-size="10.00">_AbstractManager\add</text>
</a>
</g>
<!-- Node5&#45;&gt;Node7 -->
<g id="edge14" class="edge"><title>Node5&#45;&gt;Node7</title>
<path fill="none" stroke="midnightblue" d="M533.033,-73.8636C543.753,-74.5233 554.783,-75.202 565.578,-75.8663"/>
<polygon fill="midnightblue" stroke="midnightblue" points="565.642,-79.3768 575.838,-76.4977 566.072,-72.39 565.642,-79.3768"/>
</g>
<!-- Node7&#45;&gt;Node3 -->
<g id="edge16" class="edge"><title>Node7&#45;&gt;Node3</title>
<path fill="none" stroke="midnightblue" d="M722.026,-104.323C733.38,-107.949 745.184,-111.718 756.744,-115.41"/>
<polygon fill="midnightblue" stroke="midnightblue" points="755.791,-118.78 766.382,-118.488 757.921,-112.112 755.791,-118.78"/>
</g>
<!-- Node7&#45;&gt;Node6 -->
<g id="edge26" class="edge"><title>Node7&#45;&gt;Node6</title>
<path fill="none" stroke="midnightblue" d="M722.026,-59.2068C733.463,-55.7938 745.355,-52.2449 756.995,-48.7711"/>
<polygon fill="midnightblue" stroke="midnightblue" points="758.117,-52.089 766.698,-45.8755 756.115,-45.3814 758.117,-52.089"/>
</g>
<!-- Node8 -->
<g id="node17" class="node"><title>Node8</title>
<a xlink:href="classZendDbSchema__Db__Schema__AbstractSchema.html#adacb1417b461310c5c87f72c459c1985" target="_top" xlink:title="ZendDbSchema_Db_Schema\l_AbstractSchema\\getOriginName">
<polygon fill="white" stroke="black" points="758.5,-66 758.5,-100 921.5,-100 921.5,-66 758.5,-66"/>
<text text-anchor="start" x="766.5" y="-87" font-family="Helvetica,sans-Serif" font-size="10.00">ZendDbSchema_Db_Schema</text>
<text text-anchor="middle" x="840" y="-74" font-family="Helvetica,sans-Serif" font-size="10.00">_AbstractSchema\getOriginName</text>
</a>
</g>
<!-- Node7&#45;&gt;Node8 -->
<g id="edge18" class="edge"><title>Node7&#45;&gt;Node8</title>
<path fill="none" stroke="midnightblue" d="M722.026,-81.7647C730.58,-81.8542 739.388,-81.9465 748.155,-82.0383"/>
<polygon fill="midnightblue" stroke="midnightblue" points="748.375,-85.5407 758.411,-82.1457 748.448,-78.5411 748.375,-85.5407"/>
</g>
<!-- Node9 -->
<g id="node19" class="node"><title>Node9</title>
<a xlink:href="classZendDbSchema__Db__Schema__AbstractSchema.html#a55787c21deddba427842809d589c2df6" target="_top" xlink:title="ZendDbSchema_Db_Schema\l_AbstractSchema\\getName">
<polygon fill="white" stroke="black" points="958,-66 958,-100 1104,-100 1104,-66 958,-66"/>
<text text-anchor="start" x="966" y="-87" font-family="Helvetica,sans-Serif" font-size="10.00">ZendDbSchema_Db_Schema</text>
<text text-anchor="middle" x="1031" y="-74" font-family="Helvetica,sans-Serif" font-size="10.00">_AbstractSchema\getName</text>
</a>
</g>
<!-- Node8&#45;&gt;Node9 -->
<g id="edge20" class="edge"><title>Node8&#45;&gt;Node9</title>
<path fill="none" stroke="midnightblue" d="M921.555,-83C930.227,-83 939.057,-83 947.748,-83"/>
<polygon fill="midnightblue" stroke="midnightblue" points="947.87,-86.5001 957.87,-83 947.87,-79.5001 947.87,-86.5001"/>
</g>
<!-- Node10 -->
<g id="node21" class="node"><title>Node10</title>
<a xlink:href="classZendDbSchema__Db__Schema__AbstractSchema.html#a54d32c6f15463eaad2321a9f0e7225d7" target="_top" xlink:title="ZendDbSchema_Db_Schema\l_AbstractSchema\\__get">
<polygon fill="white" stroke="black" points="1140,-66 1140,-100 1286,-100 1286,-66 1140,-66"/>
<text text-anchor="start" x="1148" y="-87" font-family="Helvetica,sans-Serif" font-size="10.00">ZendDbSchema_Db_Schema</text>
<text text-anchor="middle" x="1213" y="-74" font-family="Helvetica,sans-Serif" font-size="10.00">_AbstractSchema\__get</text>
</a>
</g>
<!-- Node9&#45;&gt;Node10 -->
<g id="edge22" class="edge"><title>Node9&#45;&gt;Node10</title>
<path fill="none" stroke="midnightblue" d="M1104.24,-83C1112.6,-83 1121.16,-83 1129.64,-83"/>
<polygon fill="midnightblue" stroke="midnightblue" points="1129.91,-86.5001 1139.91,-83 1129.91,-79.5001 1129.91,-86.5001"/>
</g>
<!-- Node11 -->
<g id="node23" class="node"><title>Node11</title>
<a xlink:href="classZendDbSchema__Db__Schema__AbstractSchema.html#ac4e121ba7932163eb1950fabe06fb9db" target="_top" xlink:title="ZendDbSchema_Db_Schema\l_AbstractSchema\\__isset">
<polygon fill="white" stroke="black" points="1322,-66 1322,-100 1468,-100 1468,-66 1322,-66"/>
<text text-anchor="start" x="1330" y="-87" font-family="Helvetica,sans-Serif" font-size="10.00">ZendDbSchema_Db_Schema</text>
<text text-anchor="middle" x="1395" y="-74" font-family="Helvetica,sans-Serif" font-size="10.00">_AbstractSchema\__isset</text>
</a>
</g>
<!-- Node10&#45;&gt;Node11 -->
<g id="edge24" class="edge"><title>Node10&#45;&gt;Node11</title>
<path fill="none" stroke="midnightblue" d="M1286.24,-83C1294.6,-83 1303.16,-83 1311.64,-83"/>
<polygon fill="midnightblue" stroke="midnightblue" points="1311.91,-86.5001 1321.91,-83 1311.91,-79.5001 1311.91,-86.5001"/>
</g>
</g>
</svg>
