<?xml version="1.0" encoding="UTF-8" standalone="no"?>
<!DOCTYPE svg PUBLIC "-//W3C//DTD SVG 1.1//EN"
 "http://www.w3.org/Graphics/SVG/1.1/DTD/svg11.dtd">
<!-- Generated by graphviz version 2.26.3 (20100126.1600)
 -->
<!-- Title: G Pages: 1 -->
<svg width="848pt" height="228pt"
 viewBox="0.00 0.00 848.00 228.00" xmlns="http://www.w3.org/2000/svg" xmlns:xlink="http://www.w3.org/1999/xlink">
<g id="graph1" class="graph" transform="scale(1 1) rotate(0) translate(4 224)">
<title>G</title>
<polygon fill="white" stroke="white" points="-4,5 -4,-224 845,-224 845,5 -4,5"/>
<!-- Node1 -->
<g id="node1" class="node"><title>Node1</title>
<polygon fill="#bfbfbf" stroke="black" points="0.5,-98.5 0.5,-119.5 215.5,-119.5 215.5,-98.5 0.5,-98.5"/>
<text text-anchor="middle" x="108" y="-106.5" font-family="Helvetica,sans-Serif" font-size="10.00">ZendDbSchema_Db_Schema_Table\columns</text>
</g>
<!-- Node2 -->
<g id="node3" class="node"><title>Node2</title>
<a xlink:href="classZendDbSchema__Db__Schema__Table.html#a27720321b5699ac0f5cd673450e0b1ec" target="_top" xlink:title="ZendDbSchema_Db_Schema_Table\\_getManagerByItem">
<polygon fill="white" stroke="black" points="259,-198.5 259,-219.5 525,-219.5 525,-198.5 259,-198.5"/>
<text text-anchor="middle" x="392" y="-206.5" font-family="Helvetica,sans-Serif" font-size="10.00">ZendDbSchema_Db_Schema_Table\_getManagerByItem</text>
</a>
</g>
<!-- Node1&#45;&gt;Node2 -->
<g id="edge2" class="edge"><title>Node1&#45;&gt;Node2</title>
<path fill="none" stroke="midnightblue" d="M131.202,-125.427C158.672,-144.012 206.459,-173.681 252,-189 263.403,-192.836 275.57,-195.936 287.79,-198.441"/>
<polygon fill="midnightblue" stroke="midnightblue" points="132.922,-122.363 122.697,-119.586 128.959,-128.133 132.922,-122.363"/>
</g>
<!-- Node4 -->
<g id="node7" class="node"><title>Node4</title>
<a xlink:href="classZendDbSchema__Db__Schema__Generator__Mysql.html#add2a0dcdb35c6ef230b09ad31d141b29" target="_top" xlink:title="ZendDbSchema_Db_Schema_Generator_Mysql\\createTable">
<polygon fill="white" stroke="black" points="252,-158.5 252,-179.5 532,-179.5 532,-158.5 252,-158.5"/>
<text text-anchor="middle" x="392" y="-166.5" font-family="Helvetica,sans-Serif" font-size="10.00">ZendDbSchema_Db_Schema_Generator_Mysql\createTable</text>
</a>
</g>
<!-- Node1&#45;&gt;Node4 -->
<g id="edge6" class="edge"><title>Node1&#45;&gt;Node4</title>
<path fill="none" stroke="midnightblue" d="M150.793,-122.45C179.251,-131.007 217.583,-141.793 252,-149 269.302,-152.623 287.946,-155.79 305.809,-158.471"/>
<polygon fill="midnightblue" stroke="midnightblue" points="151.747,-119.083 141.162,-119.527 149.714,-125.781 151.747,-119.083"/>
</g>
<!-- Node5 -->
<g id="node9" class="node"><title>Node5</title>
<a xlink:href="classZendDbSchema__Db__Schema__Table.html#a21a2a75870207a989576655fec7507c3" target="_top" xlink:title="ZendDbSchema_Db_Schema_Table\\isDirty">
<polygon fill="white" stroke="black" points="288.5,-118.5 288.5,-139.5 495.5,-139.5 495.5,-118.5 288.5,-118.5"/>
<text text-anchor="middle" x="392" y="-126.5" font-family="Helvetica,sans-Serif" font-size="10.00">ZendDbSchema_Db_Schema_Table\isDirty</text>
</a>
</g>
<!-- Node1&#45;&gt;Node5 -->
<g id="edge8" class="edge"><title>Node1&#45;&gt;Node5</title>
<path fill="none" stroke="midnightblue" d="M225.842,-117.299C246.482,-118.752 267.824,-120.255 288.054,-121.68"/>
<polygon fill="midnightblue" stroke="midnightblue" points="225.994,-113.801 215.773,-116.59 225.503,-120.784 225.994,-113.801"/>
</g>
<!-- Node7 -->
<g id="node13" class="node"><title>Node7</title>
<a xlink:href="classZendDbSchema__Db__Schema__Table.html#a6178edaeea7e08d97e2196dd991532f9" target="_top" xlink:title="ZendDbSchema_Db_Schema_Table\\toSql">
<polygon fill="white" stroke="black" points="603.5,-79.5 603.5,-100.5 804.5,-100.5 804.5,-79.5 603.5,-79.5"/>
<text text-anchor="middle" x="704" y="-87.5" font-family="Helvetica,sans-Serif" font-size="10.00">ZendDbSchema_Db_Schema_Table\toSql</text>
</a>
</g>
<!-- Node1&#45;&gt;Node7 -->
<g id="edge22" class="edge"><title>Node1&#45;&gt;Node7</title>
<path fill="none" stroke="midnightblue" d="M225.75,-105.246C335.959,-101.733 498.852,-96.54 603.204,-93.2133"/>
<polygon fill="midnightblue" stroke="midnightblue" points="225.469,-101.753 215.586,-105.57 225.692,-108.75 225.469,-101.753"/>
</g>
<!-- Node8 -->
<g id="node15" class="node"><title>Node8</title>
<a xlink:href="classZendDbSchema__Db__Schema__Table.html#abeba5309be6269e72b2818fcabc01fec" target="_top" xlink:title="ZendDbSchema_Db_Schema_Table\\setFromArray">
<polygon fill="white" stroke="black" points="273,-40.5 273,-61.5 511,-61.5 511,-40.5 273,-40.5"/>
<text text-anchor="middle" x="392" y="-48.5" font-family="Helvetica,sans-Serif" font-size="10.00">ZendDbSchema_Db_Schema_Table\setFromArray</text>
</a>
</g>
<!-- Node1&#45;&gt;Node8 -->
<g id="edge14" class="edge"><title>Node1&#45;&gt;Node8</title>
<path fill="none" stroke="midnightblue" d="M161.406,-96.1108C188.48,-89.7423 221.916,-82.1295 252,-76 277.161,-70.8737 304.984,-65.7865 329.154,-61.5527"/>
<polygon fill="midnightblue" stroke="midnightblue" points="160.288,-92.7786 151.361,-98.4851 161.898,-99.5909 160.288,-92.7786"/>
</g>
<!-- Node10 -->
<g id="node19" class="node"><title>Node10</title>
<a xlink:href="classZendDbSchema__Db__Schema__Table.html#aad47d08cebd042ad8e64d825b65859ab" target="_top" xlink:title="ZendDbSchema_Db_Schema_Table\\toArray">
<polygon fill="white" stroke="black" points="287,-0.5 287,-21.5 497,-21.5 497,-0.5 287,-0.5"/>
<text text-anchor="middle" x="392" y="-8.5" font-family="Helvetica,sans-Serif" font-size="10.00">ZendDbSchema_Db_Schema_Table\toArray</text>
</a>
</g>
<!-- Node1&#45;&gt;Node10 -->
<g id="edge18" class="edge"><title>Node1&#45;&gt;Node10</title>
<path fill="none" stroke="midnightblue" d="M131.711,-92.7102C159.311,-74.5895 206.887,-45.9079 252,-31 263.656,-27.1481 276.1,-24.0379 288.579,-21.5267"/>
<polygon fill="midnightblue" stroke="midnightblue" points="129.53,-89.9577 123.149,-98.4155 133.411,-95.7829 129.53,-89.9577"/>
</g>
<!-- Node3 -->
<g id="node5" class="node"><title>Node3</title>
<a xlink:href="classZendDbSchema__Db__Schema__Table.html#aa51f7ef4e3b157d408deec87d519c4ca" target="_top" xlink:title="ZendDbSchema_Db_Schema_Table\\add">
<polygon fill="white" stroke="black" points="607,-198.5 607,-219.5 801,-219.5 801,-198.5 607,-198.5"/>
<text text-anchor="middle" x="704" y="-206.5" font-family="Helvetica,sans-Serif" font-size="10.00">ZendDbSchema_Db_Schema_Table\add</text>
</a>
</g>
<!-- Node2&#45;&gt;Node3 -->
<g id="edge4" class="edge"><title>Node2&#45;&gt;Node3</title>
<path fill="none" stroke="midnightblue" d="M535.507,-209C559.581,-209 584.054,-209 606.613,-209"/>
<polygon fill="midnightblue" stroke="midnightblue" points="535.221,-205.5 525.221,-209 535.221,-212.5 535.221,-205.5"/>
</g>
<!-- Node6 -->
<g id="node11" class="node"><title>Node6</title>
<a xlink:href="classZendDbSchema__Db__Schema__Generator__Mysql.html#aebe278ab07f38d58f8f440f9cad01565" target="_top" xlink:title="ZendDbSchema_Db_Schema_Generator_Mysql\\alterTable">
<polygon fill="white" stroke="black" points="568,-119.5 568,-140.5 840,-140.5 840,-119.5 568,-119.5"/>
<text text-anchor="middle" x="704" y="-127.5" font-family="Helvetica,sans-Serif" font-size="10.00">ZendDbSchema_Db_Schema_Generator_Mysql\alterTable</text>
</a>
</g>
<!-- Node5&#45;&gt;Node6 -->
<g id="edge10" class="edge"><title>Node5&#45;&gt;Node6</title>
<path fill="none" stroke="midnightblue" d="M505.984,-129.365C526.08,-129.43 547.181,-129.497 567.812,-129.563"/>
<polygon fill="midnightblue" stroke="midnightblue" points="505.903,-125.865 495.891,-129.333 505.88,-132.865 505.903,-125.865"/>
</g>
<!-- Node5&#45;&gt;Node7 -->
<g id="edge12" class="edge"><title>Node5&#45;&gt;Node7</title>
<path fill="none" stroke="midnightblue" d="M486.105,-117.237C528.654,-111.918 578.537,-105.683 619.829,-100.521"/>
<polygon fill="midnightblue" stroke="midnightblue" points="485.509,-113.784 476.021,-118.497 486.378,-120.73 485.509,-113.784"/>
</g>
<!-- Node9 -->
<g id="node17" class="node"><title>Node9</title>
<a xlink:href="classZendDbSchema__Db__Schema__Table.html#a1fcef515c845c7770e17f997f80cafa9" target="_top" xlink:title="ZendDbSchema_Db_Schema_Table\\__clone">
<polygon fill="white" stroke="black" points="598,-20.5 598,-41.5 810,-41.5 810,-20.5 598,-20.5"/>
<text text-anchor="middle" x="704" y="-28.5" font-family="Helvetica,sans-Serif" font-size="10.00">ZendDbSchema_Db_Schema_Table\__clone</text>
</a>
</g>
<!-- Node8&#45;&gt;Node9 -->
<g id="edge16" class="edge"><title>Node8&#45;&gt;Node9</title>
<path fill="none" stroke="midnightblue" d="M521.363,-42.7075C546.806,-41.0765 573.223,-39.3832 597.797,-37.8079"/>
<polygon fill="midnightblue" stroke="midnightblue" points="521.045,-39.2206 511.289,-43.3532 521.493,-46.2063 521.045,-39.2206"/>
</g>
<!-- Node10&#45;&gt;Node9 -->
<g id="edge20" class="edge"><title>Node10&#45;&gt;Node9</title>
<path fill="none" stroke="midnightblue" d="M507.18,-18.3833C536.887,-20.2876 568.717,-22.328 597.935,-24.201"/>
<polygon fill="midnightblue" stroke="midnightblue" points="507.397,-14.8902 497.194,-17.7432 506.95,-21.8758 507.397,-14.8902"/>
</g>
</g>
</svg>
