<?xml version="1.0" encoding="UTF-8" standalone="no"?>
<!DOCTYPE svg PUBLIC "-//W3C//DTD SVG 1.1//EN"
 "http://www.w3.org/Graphics/SVG/1.1/DTD/svg11.dtd">
<!-- Generated by graphviz version 2.26.3 (20100126.1600)
 -->
<!-- Title: G Pages: 1 -->
<svg width="916pt" height="120pt"
 viewBox="0.00 0.00 916.00 120.00" xmlns="http://www.w3.org/2000/svg" xmlns:xlink="http://www.w3.org/1999/xlink">
<g id="graph1" class="graph" transform="scale(1 1) rotate(0) translate(4 116)">
<title>G</title>
<polygon fill="white" stroke="white" points="-4,5 -4,-116 913,-116 913,5 -4,5"/>
<!-- Node1 -->
<g id="node1" class="node"><title>Node1</title>
<polygon fill="#bfbfbf" stroke="black" points="0.5,-12.5 0.5,-59.5 163.5,-59.5 163.5,-12.5 0.5,-12.5"/>
<text text-anchor="start" x="8.5" y="-46.5" font-family="Helvetica,sans-Serif" font-size="10.00">ZendDbSchema_Db_Schema</text>
<text text-anchor="start" x="8.5" y="-33.5" font-family="Helvetica,sans-Serif" font-size="10.00">_Table_DefinitionManager</text>
<text text-anchor="middle" x="82" y="-20.5" font-family="Helvetica,sans-Serif" font-size="10.00">_AbstractManager\_getItemClass</text>
</g>
<!-- Node2 -->
<g id="node3" class="node"><title>Node2</title>
<a xlink:href="classZendDbSchema__Db__Schema__Table__DefinitionManager__AbstractManager.html#a6d815884ca03c003ac7f8d633e97f7c6" target="_top" xlink:title="ZendDbSchema_Db_Schema\l_Table_DefinitionManager\l_AbstractManager\\add">
<polygon fill="white" stroke="black" points="200,-64.5 200,-111.5 346,-111.5 346,-64.5 200,-64.5"/>
<text text-anchor="start" x="208" y="-98.5" font-family="Helvetica,sans-Serif" font-size="10.00">ZendDbSchema_Db_Schema</text>
<text text-anchor="start" x="208" y="-85.5" font-family="Helvetica,sans-Serif" font-size="10.00">_Table_DefinitionManager</text>
<text text-anchor="middle" x="273" y="-72.5" font-family="Helvetica,sans-Serif" font-size="10.00">_AbstractManager\add</text>
</a>
</g>
<!-- Node1&#45;&gt;Node2 -->
<g id="edge2" class="edge"><title>Node1&#45;&gt;Node2</title>
<path fill="none" stroke="midnightblue" d="M173.22,-60.8346C182.158,-63.268 191.146,-65.7151 199.87,-68.0903"/>
<polygon fill="midnightblue" stroke="midnightblue" points="174.123,-57.4534 163.555,-58.2035 172.285,-64.2076 174.123,-57.4534"/>
</g>
<!-- Node3 -->
<g id="node5" class="node"><title>Node3</title>
<a xlink:href="classZendDbSchema__Db__Schema__Table__DefinitionManager__AbstractManager.html#a40677ee7cb91e19c1587bdda9e73d3d5" target="_top" xlink:title="ZendDbSchema_Db_Schema\l_Table_DefinitionManager\l_AbstractManager\\setFromArray">
<polygon fill="white" stroke="black" points="382,-26.5 382,-73.5 540,-73.5 540,-26.5 382,-26.5"/>
<text text-anchor="start" x="390" y="-60.5" font-family="Helvetica,sans-Serif" font-size="10.00">ZendDbSchema_Db_Schema</text>
<text text-anchor="start" x="390" y="-47.5" font-family="Helvetica,sans-Serif" font-size="10.00">_Table_DefinitionManager</text>
<text text-anchor="middle" x="461" y="-34.5" font-family="Helvetica,sans-Serif" font-size="10.00">_AbstractManager\setFromArray</text>
</a>
</g>
<!-- Node1&#45;&gt;Node3 -->
<g id="edge12" class="edge"><title>Node1&#45;&gt;Node3</title>
<path fill="none" stroke="midnightblue" d="M173.804,-39.3912C237.441,-41.7419 321.31,-44.8399 381.972,-47.0808"/>
<polygon fill="midnightblue" stroke="midnightblue" points="173.893,-35.8922 163.771,-39.0206 173.635,-42.8874 173.893,-35.8922"/>
</g>
<!-- Node4 -->
<g id="node7" class="node"><title>Node4</title>
<a xlink:href="classZendDbSchema__Db__Schema__Table__DefinitionManager__AbstractManager.html#a7503e344823c2a1e1e3beb80b8541116" target="_top" xlink:title="ZendDbSchema_Db_Schema\l_Table_DefinitionManager\l_AbstractManager\\refresh">
<polygon fill="white" stroke="black" points="576,-0.5 576,-47.5 722,-47.5 722,-0.5 576,-0.5"/>
<text text-anchor="start" x="584" y="-34.5" font-family="Helvetica,sans-Serif" font-size="10.00">ZendDbSchema_Db_Schema</text>
<text text-anchor="start" x="584" y="-21.5" font-family="Helvetica,sans-Serif" font-size="10.00">_Table_DefinitionManager</text>
<text text-anchor="middle" x="649" y="-8.5" font-family="Helvetica,sans-Serif" font-size="10.00">_AbstractManager\refresh</text>
</a>
</g>
<!-- Node1&#45;&gt;Node4 -->
<g id="edge10" class="edge"><title>Node1&#45;&gt;Node4</title>
<path fill="none" stroke="midnightblue" d="M173.84,-28.6738C233.186,-24.3131 312.104,-19.2111 382,-17 452.187,-14.7796 469.814,-14.7486 540,-17 551.561,-17.3709 563.802,-17.9624 575.741,-18.6484"/>
<polygon fill="midnightblue" stroke="midnightblue" points="173.457,-25.1926 163.743,-29.4225 173.974,-32.1734 173.457,-25.1926"/>
</g>
<!-- Node2&#45;&gt;Node3 -->
<g id="edge4" class="edge"><title>Node2&#45;&gt;Node3</title>
<path fill="none" stroke="midnightblue" d="M356.143,-71.1944C364.655,-69.4741 373.286,-67.7293 381.754,-66.0178"/>
<polygon fill="midnightblue" stroke="midnightblue" points="355.332,-67.7875 346.224,-73.1994 356.719,-74.6487 355.332,-67.7875"/>
</g>
<!-- Node3&#45;&gt;Node4 -->
<g id="edge6" class="edge"><title>Node3&#45;&gt;Node4</title>
<path fill="none" stroke="midnightblue" d="M550.234,-37.6591C558.831,-36.4702 567.481,-35.2739 575.896,-34.1101"/>
<polygon fill="midnightblue" stroke="midnightblue" points="549.61,-34.212 540.184,-39.049 550.569,-41.146 549.61,-34.212"/>
</g>
<!-- Node5 -->
<g id="node9" class="node"><title>Node5</title>
<a xlink:href="classZendDbSchema__Db__Schema__Table__DefinitionManager__AbstractManager.html#a5cf66698784c55ebbd70292e268505af" target="_top" xlink:title="ZendDbSchema_Db_Schema\l_Table_DefinitionManager\l_AbstractManager\\__construct">
<polygon fill="white" stroke="black" points="758,-0.5 758,-47.5 908,-47.5 908,-0.5 758,-0.5"/>
<text text-anchor="start" x="766" y="-34.5" font-family="Helvetica,sans-Serif" font-size="10.00">ZendDbSchema_Db_Schema</text>
<text text-anchor="start" x="766" y="-21.5" font-family="Helvetica,sans-Serif" font-size="10.00">_Table_DefinitionManager</text>
<text text-anchor="middle" x="833" y="-8.5" font-family="Helvetica,sans-Serif" font-size="10.00">_AbstractManager\__construct</text>
</a>
</g>
<!-- Node4&#45;&gt;Node5 -->
<g id="edge8" class="edge"><title>Node4&#45;&gt;Node5</title>
<path fill="none" stroke="midnightblue" d="M732.505,-24C740.968,-24 749.527,-24 757.894,-24"/>
<polygon fill="midnightblue" stroke="midnightblue" points="732.25,-20.5001 722.25,-24 732.25,-27.5001 732.25,-20.5001"/>
</g>
</g>
</svg>
