<?xml version="1.0" encoding="UTF-8" standalone="no"?>
<!DOCTYPE svg PUBLIC "-//W3C//DTD SVG 1.1//EN"
 "http://www.w3.org/Graphics/SVG/1.1/DTD/svg11.dtd">
<!-- Generated by graphviz version 2.26.3 (20100126.1600)
 -->
<!-- Title: G Pages: 1 -->
<svg width="806pt" height="84pt"
 viewBox="0.00 0.00 806.00 84.33" xmlns="http://www.w3.org/2000/svg" xmlns:xlink="http://www.w3.org/1999/xlink">
<g id="graph1" class="graph" transform="scale(1 1) rotate(0) translate(4 80.3253)">
<title>G</title>
<polygon fill="white" stroke="white" points="-4,5 -4,-80.3253 803,-80.3253 803,5 -4,5"/>
<!-- Node1 -->
<g id="node1" class="node"><title>Node1</title>
<polygon fill="#bfbfbf" stroke="black" points="0,-40.5 0,-61.5 232,-61.5 232,-40.5 0,-40.5"/>
<text text-anchor="middle" x="116" y="-48.5" font-family="Helvetica,sans-Serif" font-size="10.00">ZendDbSchema_Db_Migration_Manager\rolldown</text>
</g>
<!-- Node2 -->
<g id="node3" class="node"><title>Node2</title>
<a xlink:href="classZendDbSchema__Db__Migration__Manager.html#a3d4f62489e72876f97bec3cd4448979d" target="_top" xlink:title="ZendDbSchema_Db_Migration_Manager\\getChange">
<polygon fill="white" stroke="black" points="270.5,-0.5 270.5,-21.5 513.5,-21.5 513.5,-0.5 270.5,-0.5"/>
<text text-anchor="middle" x="392" y="-8.5" font-family="Helvetica,sans-Serif" font-size="10.00">ZendDbSchema_Db_Migration_Manager\getChange</text>
</a>
</g>
<!-- Node1&#45;&gt;Node2 -->
<g id="edge2" class="edge"><title>Node1&#45;&gt;Node2</title>
<path fill="none" stroke="midnightblue" d="M188.516,-40.4905C225.609,-35.1146 270.919,-28.5479 309.36,-22.9768"/>
<polygon fill="midnightblue" stroke="midnightblue" points="310.095,-26.4069 319.49,-21.5087 309.091,-19.4793 310.095,-26.4069"/>
</g>
<!-- Node3 -->
<g id="node5" class="node"><title>Node3</title>
<a xlink:href="classZendDbSchema__Db__Migration__Manager.html#ab66af8a9dc5cdb099b8266b68166c4e0" target="_top" xlink:title="ZendDbSchema_Db_Migration_Manager\\getVersion">
<polygon fill="white" stroke="black" points="554,-40.5 554,-61.5 796,-61.5 796,-40.5 554,-40.5"/>
<text text-anchor="middle" x="675" y="-48.5" font-family="Helvetica,sans-Serif" font-size="10.00">ZendDbSchema_Db_Migration_Manager\getVersion</text>
</a>
</g>
<!-- Node1&#45;&gt;Node3 -->
<g id="edge14" class="edge"><title>Node1&#45;&gt;Node3</title>
<path fill="none" stroke="midnightblue" d="M181.654,-61.5469C208.365,-65.339 239.581,-69.1384 268,-71 377.986,-78.2049 405.993,-77.8915 516,-71 542.229,-69.3568 570.75,-66.2032 596.3,-62.8776"/>
<polygon fill="midnightblue" stroke="midnightblue" points="596.854,-66.3348 606.306,-61.5473 595.932,-59.3959 596.854,-66.3348"/>
</g>
<!-- Node5 -->
<g id="node9" class="node"><title>Node5</title>
<a xlink:href="classZendDbSchema__Db__Migration__Manager.html#a3e9a5dfa3447c5eb1b4bbcc8817549c3" target="_top" xlink:title="ZendDbSchema_Db_Migration_Manager\\getPrevious">
<polygon fill="white" stroke="black" points="268,-40.5 268,-61.5 516,-61.5 516,-40.5 268,-40.5"/>
<text text-anchor="middle" x="392" y="-48.5" font-family="Helvetica,sans-Serif" font-size="10.00">ZendDbSchema_Db_Migration_Manager\getPrevious</text>
</a>
</g>
<!-- Node1&#45;&gt;Node5 -->
<g id="edge8" class="edge"><title>Node1&#45;&gt;Node5</title>
<path fill="none" stroke="midnightblue" d="M232.249,-51C240.72,-51 249.303,-51 257.866,-51"/>
<polygon fill="midnightblue" stroke="midnightblue" points="257.902,-54.5001 267.902,-51 257.902,-47.5001 257.902,-54.5001"/>
</g>
<!-- Node2&#45;&gt;Node3 -->
<g id="edge4" class="edge"><title>Node2&#45;&gt;Node3</title>
<path fill="none" stroke="midnightblue" d="M466.355,-21.5095C504.47,-26.8968 551.046,-33.48 590.515,-39.0587"/>
<polygon fill="midnightblue" stroke="midnightblue" points="590.259,-42.5572 600.651,-40.4913 591.239,-35.6261 590.259,-42.5572"/>
</g>
<!-- Node4 -->
<g id="node7" class="node"><title>Node4</title>
<a xlink:href="classZendDbSchema__Db__Migration__Manager.html#a9973d07f9ffe306e00ea2f9f4beb92e4" target="_top" xlink:title="ZendDbSchema_Db_Migration_Manager\\hasChange">
<polygon fill="white" stroke="black" points="552.5,-0.5 552.5,-21.5 797.5,-21.5 797.5,-0.5 552.5,-0.5"/>
<text text-anchor="middle" x="675" y="-8.5" font-family="Helvetica,sans-Serif" font-size="10.00">ZendDbSchema_Db_Migration_Manager\hasChange</text>
</a>
</g>
<!-- Node2&#45;&gt;Node4 -->
<g id="edge6" class="edge"><title>Node2&#45;&gt;Node4</title>
<path fill="none" stroke="midnightblue" d="M513.66,-11C523.011,-11 532.481,-11 541.9,-11"/>
<polygon fill="midnightblue" stroke="midnightblue" points="542.094,-14.5001 552.094,-11 542.094,-7.5001 542.094,-14.5001"/>
</g>
<!-- Node5&#45;&gt;Node3 -->
<g id="edge10" class="edge"><title>Node5&#45;&gt;Node3</title>
<path fill="none" stroke="midnightblue" d="M516.128,-51C525.192,-51 534.352,-51 543.458,-51"/>
<polygon fill="midnightblue" stroke="midnightblue" points="543.706,-54.5001 553.706,-51 543.706,-47.5001 543.706,-54.5001"/>
</g>
<!-- Node5&#45;&gt;Node4 -->
<g id="edge12" class="edge"><title>Node5&#45;&gt;Node4</title>
<path fill="none" stroke="midnightblue" d="M466.355,-40.4905C504.47,-35.1032 551.046,-28.52 590.515,-22.9413"/>
<polygon fill="midnightblue" stroke="midnightblue" points="591.239,-26.3739 600.651,-21.5087 590.259,-19.4428 591.239,-26.3739"/>
</g>
</g>
</svg>
