<?xml version="1.0" encoding="UTF-8" standalone="no"?>
<!DOCTYPE svg PUBLIC "-//W3C//DTD SVG 1.1//EN"
 "http://www.w3.org/Graphics/SVG/1.1/DTD/svg11.dtd">
<!-- Generated by graphviz version 2.26.3 (20100126.1600)
 -->
<!-- Title: G Pages: 1 -->
<svg width="474pt" height="110pt"
 viewBox="0.00 0.00 474.00 110.00" xmlns="http://www.w3.org/2000/svg" xmlns:xlink="http://www.w3.org/1999/xlink">
<g id="graph1" class="graph" transform="scale(1 1) rotate(0) translate(4 106)">
<title>G</title>
<polygon fill="white" stroke="white" points="-4,5 -4,-106 471,-106 471,5 -4,5"/>
<!-- Node1 -->
<g id="node1" class="node"><title>Node1</title>
<polygon fill="#bfbfbf" stroke="black" points="0.5,-40.5 0.5,-61.5 211.5,-61.5 211.5,-40.5 0.5,-40.5"/>
<text text-anchor="middle" x="106" y="-48.5" font-family="Helvetica,sans-Serif" font-size="10.00">ZendDbSchema_Db_Schema_Table\primary</text>
</g>
<!-- Node2 -->
<g id="node3" class="node"><title>Node2</title>
<a xlink:href="classZendDbSchema__Db__Schema__Table.html#a61af671b27825f5b54d6eb1d2adce0bd" target="_top" xlink:title="ZendDbSchema_Db_Schema_Table\\_doSave">
<polygon fill="white" stroke="black" points="248.5,-80.5 248.5,-101.5 465.5,-101.5 465.5,-80.5 248.5,-80.5"/>
<text text-anchor="middle" x="357" y="-88.5" font-family="Helvetica,sans-Serif" font-size="10.00">ZendDbSchema_Db_Schema_Table\_doSave</text>
</a>
</g>
<!-- Node1&#45;&gt;Node2 -->
<g id="edge2" class="edge"><title>Node1&#45;&gt;Node2</title>
<path fill="none" stroke="midnightblue" d="M182.054,-63.1201C216.82,-68.6606 257.612,-75.1613 291.058,-80.4913"/>
<polygon fill="midnightblue" stroke="midnightblue" points="182.374,-59.627 171.947,-61.5095 181.272,-66.5398 182.374,-59.627"/>
</g>
<!-- Node3 -->
<g id="node5" class="node"><title>Node3</title>
<a xlink:href="classZendDbSchema__Db__Schema__Table.html#aad47d08cebd042ad8e64d825b65859ab" target="_top" xlink:title="ZendDbSchema_Db_Schema_Table\\toArray">
<polygon fill="white" stroke="black" points="252,-40.5 252,-61.5 462,-61.5 462,-40.5 252,-40.5"/>
<text text-anchor="middle" x="357" y="-48.5" font-family="Helvetica,sans-Serif" font-size="10.00">ZendDbSchema_Db_Schema_Table\toArray</text>
</a>
</g>
<!-- Node1&#45;&gt;Node3 -->
<g id="edge4" class="edge"><title>Node1&#45;&gt;Node3</title>
<path fill="none" stroke="midnightblue" d="M222.028,-51C231.957,-51 241.967,-51 251.805,-51"/>
<polygon fill="midnightblue" stroke="midnightblue" points="221.719,-47.5001 211.719,-51 221.719,-54.5001 221.719,-47.5001"/>
</g>
<!-- Node4 -->
<g id="node7" class="node"><title>Node4</title>
<a xlink:href="classZendDbSchema__Db__Schema__Table.html#a6178edaeea7e08d97e2196dd991532f9" target="_top" xlink:title="ZendDbSchema_Db_Schema_Table\\toSql">
<polygon fill="white" stroke="black" points="256.5,-0.5 256.5,-21.5 457.5,-21.5 457.5,-0.5 256.5,-0.5"/>
<text text-anchor="middle" x="357" y="-8.5" font-family="Helvetica,sans-Serif" font-size="10.00">ZendDbSchema_Db_Schema_Table\toSql</text>
</a>
</g>
<!-- Node1&#45;&gt;Node4 -->
<g id="edge6" class="edge"><title>Node1&#45;&gt;Node4</title>
<path fill="none" stroke="midnightblue" d="M182.054,-38.8799C216.82,-33.3394 257.612,-26.8387 291.058,-21.5087"/>
<polygon fill="midnightblue" stroke="midnightblue" points="181.272,-35.4602 171.947,-40.4905 182.374,-42.373 181.272,-35.4602"/>
</g>
</g>
</svg>
