<?xml version="1.0" encoding="UTF-8" standalone="no"?>
<!DOCTYPE svg PUBLIC "-//W3C//DTD SVG 1.1//EN"
 "http://www.w3.org/Graphics/SVG/1.1/DTD/svg11.dtd">
<!-- Generated by graphviz version 2.26.3 (20100126.1600)
 -->
<!-- Title: G Pages: 1 -->
<svg width="760pt" height="340pt"
 viewBox="0.00 0.00 760.00 340.00" xmlns="http://www.w3.org/2000/svg" xmlns:xlink="http://www.w3.org/1999/xlink">
<g id="graph1" class="graph" transform="scale(1 1) rotate(0) translate(4 336)">
<title>G</title>
<polygon fill="white" stroke="white" points="-4,5 -4,-336 757,-336 757,5 -4,5"/>
<!-- Node1 -->
<g id="node1" class="node"><title>Node1</title>
<polygon fill="#bfbfbf" stroke="black" points="0,-130 0,-164 146,-164 146,-130 0,-130"/>
<text text-anchor="start" x="8" y="-151" font-family="Helvetica,sans-Serif" font-size="10.00">ZendDbSchema_Db_Schema</text>
<text text-anchor="middle" x="73" y="-138" font-family="Helvetica,sans-Serif" font-size="10.00">_Table\toSql</text>
</g>
<!-- Node2 -->
<g id="node3" class="node"><title>Node2</title>
<a xlink:href="classZendDbSchema__Db__Schema__AbstractSchema.html#a1680a8fd22360f74d29b641d7257a52f" target="_top" xlink:title="ZendDbSchema_Db_Schema\l_AbstractSchema\\isExist">
<polygon fill="white" stroke="black" points="182,-284 182,-318 328,-318 328,-284 182,-284"/>
<text text-anchor="start" x="190" y="-305" font-family="Helvetica,sans-Serif" font-size="10.00">ZendDbSchema_Db_Schema</text>
<text text-anchor="middle" x="255" y="-292" font-family="Helvetica,sans-Serif" font-size="10.00">_AbstractSchema\isExist</text>
</a>
</g>
<!-- Node1&#45;&gt;Node2 -->
<g id="edge2" class="edge"><title>Node1&#45;&gt;Node2</title>
<path fill="none" stroke="midnightblue" d="M88.29,-164.037C108.551,-186.119 145.951,-225.2 182,-254 192.886,-262.697 205.428,-271.241 217.011,-278.609"/>
<polygon fill="midnightblue" stroke="midnightblue" points="215.303,-281.669 225.639,-283.997 219.011,-275.731 215.303,-281.669"/>
</g>
<!-- Node5 -->
<g id="node9" class="node"><title>Node5</title>
<a xlink:href="classZendDbSchema__Db__Schema__Table.html#a21a2a75870207a989576655fec7507c3" target="_top" xlink:title="ZendDbSchema_Db_Schema\l_Table\\isDirty">
<polygon fill="white" stroke="black" points="182,-154 182,-188 328,-188 328,-154 182,-154"/>
<text text-anchor="start" x="190" y="-175" font-family="Helvetica,sans-Serif" font-size="10.00">ZendDbSchema_Db_Schema</text>
<text text-anchor="middle" x="255" y="-162" font-family="Helvetica,sans-Serif" font-size="10.00">_Table\isDirty</text>
</a>
</g>
<!-- Node1&#45;&gt;Node5 -->
<g id="edge8" class="edge"><title>Node1&#45;&gt;Node5</title>
<path fill="none" stroke="midnightblue" d="M146.24,-156.658C154.688,-157.772 163.349,-158.914 171.916,-160.044"/>
<polygon fill="midnightblue" stroke="midnightblue" points="171.538,-163.524 181.91,-161.362 172.454,-156.584 171.538,-163.524"/>
</g>
<!-- Node8 -->
<g id="node17" class="node"><title>Node8</title>
<a xlink:href="classZendDbSchema__Db__Schema__Table.html#a214354faa96de67a26b787c2c8741850" target="_top" xlink:title="ZendDbSchema_Db_Schema\l_Table\\columns">
<polygon fill="white" stroke="black" points="378,-246 378,-280 524,-280 524,-246 378,-246"/>
<text text-anchor="start" x="386" y="-267" font-family="Helvetica,sans-Serif" font-size="10.00">ZendDbSchema_Db_Schema</text>
<text text-anchor="middle" x="451" y="-254" font-family="Helvetica,sans-Serif" font-size="10.00">_Table\columns</text>
</a>
</g>
<!-- Node1&#45;&gt;Node8 -->
<g id="edge26" class="edge"><title>Node1&#45;&gt;Node8</title>
<path fill="none" stroke="midnightblue" d="M106.2,-164.225C127.453,-174.748 155.852,-187.887 182,-197 243.129,-218.303 314.354,-235.453 368.153,-246.926"/>
<polygon fill="midnightblue" stroke="midnightblue" points="367.482,-250.361 377.989,-249.002 368.927,-243.512 367.482,-250.361"/>
</g>
<!-- Node9 -->
<g id="node19" class="node"><title>Node9</title>
<a xlink:href="classZendDbSchema__Db__Schema__Table.html#a47df29d95af8f655dd7506cfb649ec40" target="_top" xlink:title="ZendDbSchema_Db_Schema\l_Table\\indexes">
<polygon fill="white" stroke="black" points="378,-104 378,-138 524,-138 524,-104 378,-104"/>
<text text-anchor="start" x="386" y="-125" font-family="Helvetica,sans-Serif" font-size="10.00">ZendDbSchema_Db_Schema</text>
<text text-anchor="middle" x="451" y="-112" font-family="Helvetica,sans-Serif" font-size="10.00">_Table\indexes</text>
</a>
</g>
<!-- Node1&#45;&gt;Node9 -->
<g id="edge28" class="edge"><title>Node1&#45;&gt;Node9</title>
<path fill="none" stroke="midnightblue" d="M146.33,-141.956C209.841,-137.588 301.665,-131.272 367.885,-126.717"/>
<polygon fill="midnightblue" stroke="midnightblue" points="368.137,-130.208 377.874,-126.03 367.657,-123.224 368.137,-130.208"/>
</g>
<!-- Node10 -->
<g id="node21" class="node"><title>Node10</title>
<a xlink:href="classZendDbSchema__Db__Schema__Table.html#acff371c2884c9688b5ede2deaf09f25c" target="_top" xlink:title="ZendDbSchema_Db_Schema\l_Table\\foreigns">
<polygon fill="white" stroke="black" points="378,-52 378,-86 524,-86 524,-52 378,-52"/>
<text text-anchor="start" x="386" y="-73" font-family="Helvetica,sans-Serif" font-size="10.00">ZendDbSchema_Db_Schema</text>
<text text-anchor="middle" x="451" y="-60" font-family="Helvetica,sans-Serif" font-size="10.00">_Table\foreigns</text>
</a>
</g>
<!-- Node1&#45;&gt;Node10 -->
<g id="edge32" class="edge"><title>Node1&#45;&gt;Node10</title>
<path fill="none" stroke="midnightblue" d="M146.33,-131.868C209.841,-118.763 301.665,-99.8152 367.885,-86.1507"/>
<polygon fill="midnightblue" stroke="midnightblue" points="368.787,-89.5383 377.874,-84.0896 367.373,-82.6828 368.787,-89.5383"/>
</g>
<!-- Node11 -->
<g id="node23" class="node"><title>Node11</title>
<a xlink:href="classZendDbSchema__Db__Schema__Table.html#a9d445dd6a92cc3a50aa6d8dad8395f0a" target="_top" xlink:title="ZendDbSchema_Db_Schema\l_Table\\primary">
<polygon fill="white" stroke="black" points="378,-0 378,-34 524,-34 524,-0 378,-0"/>
<text text-anchor="start" x="386" y="-21" font-family="Helvetica,sans-Serif" font-size="10.00">ZendDbSchema_Db_Schema</text>
<text text-anchor="middle" x="451" y="-8" font-family="Helvetica,sans-Serif" font-size="10.00">_Table\primary</text>
</a>
</g>
<!-- Node1&#45;&gt;Node11 -->
<g id="edge30" class="edge"><title>Node1&#45;&gt;Node11</title>
<path fill="none" stroke="midnightblue" d="M103.792,-129.834C125.255,-118.349 154.804,-103.475 182,-93 242.965,-69.5178 314.199,-49.716 368.042,-36.2174"/>
<polygon fill="midnightblue" stroke="midnightblue" points="369.027,-39.5793 377.887,-33.7708 367.338,-32.786 369.027,-39.5793"/>
</g>
<!-- Node3 -->
<g id="node5" class="node"><title>Node3</title>
<a xlink:href="classZendDbSchema__Db__Schema__AbstractSchema.html#a46da7a60c7e5fd605607afbc1dac4baa" target="_top" xlink:title="ZendDbSchema_Db_Schema\l_AbstractSchema\\getCleanSchema">
<polygon fill="white" stroke="black" points="364.5,-298 364.5,-332 537.5,-332 537.5,-298 364.5,-298"/>
<text text-anchor="start" x="372.5" y="-319" font-family="Helvetica,sans-Serif" font-size="10.00">ZendDbSchema_Db_Schema</text>
<text text-anchor="middle" x="451" y="-306" font-family="Helvetica,sans-Serif" font-size="10.00">_AbstractSchema\getCleanSchema</text>
</a>
</g>
<!-- Node2&#45;&gt;Node3 -->
<g id="edge4" class="edge"><title>Node2&#45;&gt;Node3</title>
<path fill="none" stroke="midnightblue" d="M328.262,-306.233C336.702,-306.836 345.405,-307.457 354.095,-308.078"/>
<polygon fill="midnightblue" stroke="midnightblue" points="354.052,-311.584 364.276,-308.805 354.551,-304.602 354.052,-311.584"/>
</g>
<!-- Node4 -->
<g id="node7" class="node"><title>Node4</title>
<a xlink:href="classZendDbSchema__Db__Schema__AbstractSchema.html#af99e5bb9adfe0da8c94d3d3848efe7b5" target="_top" xlink:title="ZendDbSchema_Db_Schema\l_AbstractSchema\\_getCleanSchema">
<polygon fill="white" stroke="black" points="574,-298 574,-332 752,-332 752,-298 574,-298"/>
<text text-anchor="start" x="582" y="-319" font-family="Helvetica,sans-Serif" font-size="10.00">ZendDbSchema_Db_Schema</text>
<text text-anchor="middle" x="663" y="-306" font-family="Helvetica,sans-Serif" font-size="10.00">_AbstractSchema\_getCleanSchema</text>
</a>
</g>
<!-- Node3&#45;&gt;Node4 -->
<g id="edge6" class="edge"><title>Node3&#45;&gt;Node4</title>
<path fill="none" stroke="midnightblue" d="M537.534,-315C546.175,-315 554.994,-315 563.752,-315"/>
<polygon fill="midnightblue" stroke="midnightblue" points="563.99,-318.5 573.99,-315 563.99,-311.5 563.99,-318.5"/>
</g>
<!-- Node5&#45;&gt;Node3 -->
<g id="edge10" class="edge"><title>Node5&#45;&gt;Node3</title>
<path fill="none" stroke="midnightblue" d="M266.262,-188.145C284.01,-213.829 320.934,-262.137 364,-289 366.591,-290.616 369.289,-292.137 372.062,-293.567"/>
<polygon fill="midnightblue" stroke="midnightblue" points="370.596,-296.746 381.135,-297.833 373.575,-290.411 370.596,-296.746"/>
</g>
<!-- Node6 -->
<g id="node12" class="node"><title>Node6</title>
<a xlink:href="classZendDbSchema__Db__Schema__AbstractSchema.html#ac4e121ba7932163eb1950fabe06fb9db" target="_top" xlink:title="ZendDbSchema_Db_Schema\l_AbstractSchema\\__isset">
<polygon fill="white" stroke="black" points="590,-179 590,-213 736,-213 736,-179 590,-179"/>
<text text-anchor="start" x="598" y="-200" font-family="Helvetica,sans-Serif" font-size="10.00">ZendDbSchema_Db_Schema</text>
<text text-anchor="middle" x="663" y="-187" font-family="Helvetica,sans-Serif" font-size="10.00">_AbstractSchema\__isset</text>
</a>
</g>
<!-- Node5&#45;&gt;Node6 -->
<g id="edge12" class="edge"><title>Node5&#45;&gt;Node6</title>
<path fill="none" stroke="midnightblue" d="M310.21,-188.049C327.281,-192.542 346.264,-196.758 364,-199 436.421,-208.153 519.493,-206.346 579.666,-202.857"/>
<polygon fill="midnightblue" stroke="midnightblue" points="580.104,-206.337 589.873,-202.237 579.679,-199.35 580.104,-206.337"/>
</g>
<!-- Node7 -->
<g id="node14" class="node"><title>Node7</title>
<a xlink:href="classZendDbSchema__Db__Schema__AbstractSchema.html#a54d32c6f15463eaad2321a9f0e7225d7" target="_top" xlink:title="ZendDbSchema_Db_Schema\l_AbstractSchema\\__get">
<polygon fill="white" stroke="black" points="378,-156 378,-190 524,-190 524,-156 378,-156"/>
<text text-anchor="start" x="386" y="-177" font-family="Helvetica,sans-Serif" font-size="10.00">ZendDbSchema_Db_Schema</text>
<text text-anchor="middle" x="451" y="-164" font-family="Helvetica,sans-Serif" font-size="10.00">_AbstractSchema\__get</text>
</a>
</g>
<!-- Node5&#45;&gt;Node7 -->
<g id="edge14" class="edge"><title>Node5&#45;&gt;Node7</title>
<path fill="none" stroke="midnightblue" d="M328.262,-171.748C341.046,-171.878 354.43,-172.015 367.466,-172.148"/>
<polygon fill="midnightblue" stroke="midnightblue" points="367.792,-175.651 377.827,-172.253 367.863,-168.651 367.792,-175.651"/>
</g>
<!-- Node5&#45;&gt;Node8 -->
<g id="edge18" class="edge"><title>Node5&#45;&gt;Node8</title>
<path fill="none" stroke="midnightblue" d="M282.559,-188.127C304.203,-201.156 335.37,-218.999 364,-232 371.956,-235.613 380.466,-239.092 388.935,-242.331"/>
<polygon fill="midnightblue" stroke="midnightblue" points="387.855,-245.663 398.448,-245.88 390.302,-239.105 387.855,-245.663"/>
</g>
<!-- Node5&#45;&gt;Node9 -->
<g id="edge20" class="edge"><title>Node5&#45;&gt;Node9</title>
<path fill="none" stroke="midnightblue" d="M321.904,-153.933C338.683,-149.652 356.819,-145.026 374.045,-140.631"/>
<polygon fill="midnightblue" stroke="midnightblue" points="375.241,-143.939 384.065,-138.075 373.51,-137.156 375.241,-143.939"/>
</g>
<!-- Node5&#45;&gt;Node10 -->
<g id="edge22" class="edge"><title>Node5&#45;&gt;Node10</title>
<path fill="none" stroke="midnightblue" d="M275.464,-153.721C296.49,-136.72 330.758,-111.043 364,-95 367.833,-93.15 371.826,-91.4011 375.901,-89.7524"/>
<polygon fill="midnightblue" stroke="midnightblue" points="377.426,-92.9171 385.525,-86.0871 374.934,-86.3754 377.426,-92.9171"/>
</g>
<!-- Node5&#45;&gt;Node11 -->
<g id="edge24" class="edge"><title>Node5&#45;&gt;Node11</title>
<path fill="none" stroke="midnightblue" d="M265.065,-153.731C281.989,-126.207 318.771,-72.497 364,-43 366.414,-41.4257 368.927,-39.9437 371.512,-38.5488"/>
<polygon fill="midnightblue" stroke="midnightblue" points="373.096,-41.6704 380.543,-34.1342 370.022,-35.3816 373.096,-41.6704"/>
</g>
<!-- Node7&#45;&gt;Node6 -->
<g id="edge16" class="edge"><title>Node7&#45;&gt;Node6</title>
<path fill="none" stroke="midnightblue" d="M524.255,-180.948C542.129,-182.887 561.38,-184.975 579.685,-186.961"/>
<polygon fill="midnightblue" stroke="midnightblue" points="579.423,-190.453 589.742,-188.052 580.178,-183.494 579.423,-190.453"/>
</g>
</g>
</svg>
