<?xml version="1.0" encoding="UTF-8" standalone="no"?>
<!DOCTYPE svg PUBLIC "-//W3C//DTD SVG 1.1//EN"
 "http://www.w3.org/Graphics/SVG/1.1/DTD/svg11.dtd">
<!-- Generated by graphviz version 2.26.3 (20100126.1600)
 -->
<!-- Title: G Pages: 1 -->
<svg width="592pt" height="110pt"
 viewBox="0.00 0.00 592.00 110.00" xmlns="http://www.w3.org/2000/svg" xmlns:xlink="http://www.w3.org/1999/xlink">
<g id="graph1" class="graph" transform="scale(1 1) rotate(0) translate(4 106)">
<title>G</title>
<polygon fill="white" stroke="white" points="-4,5 -4,-106 589,-106 589,5 -4,5"/>
<!-- Node1 -->
<g id="node1" class="node"><title>Node1</title>
<polygon fill="#bfbfbf" stroke="black" points="0.5,-40.5 0.5,-61.5 287.5,-61.5 287.5,-40.5 0.5,-40.5"/>
<text text-anchor="middle" x="144" y="-48.5" font-family="Helvetica,sans-Serif" font-size="10.00">ZendDbSchema_Tool_Project_Provider_Schema\_getSchema</text>
</g>
<!-- Node2 -->
<g id="node3" class="node"><title>Node2</title>
<a xlink:href="classZendDbSchema__Tool__Project__Provider__Schema.html#a5f0f3101bb7b9e252f6d6bed1ddadbe5" target="_top" xlink:title="ZendDbSchema_Tool_Project_Provider_Schema\\pull">
<polygon fill="white" stroke="black" points="330,-80.5 330,-101.5 578,-101.5 578,-80.5 330,-80.5"/>
<text text-anchor="middle" x="454" y="-88.5" font-family="Helvetica,sans-Serif" font-size="10.00">ZendDbSchema_Tool_Project_Provider_Schema\pull</text>
</a>
</g>
<!-- Node1&#45;&gt;Node2 -->
<g id="edge2" class="edge"><title>Node1&#45;&gt;Node2</title>
<path fill="none" stroke="midnightblue" d="M235.452,-62.8002C278.92,-68.409 330.453,-75.0584 372.557,-80.4913"/>
<polygon fill="midnightblue" stroke="midnightblue" points="235.815,-59.3181 225.449,-61.5095 234.919,-66.2606 235.815,-59.3181"/>
</g>
<!-- Node3 -->
<g id="node5" class="node"><title>Node3</title>
<a xlink:href="classZendDbSchema__Tool__Project__Provider__Schema.html#aa7746bd0ed044ad415b1b7b884f7a007" target="_top" xlink:title="ZendDbSchema_Tool_Project_Provider_Schema\\push">
<polygon fill="white" stroke="black" points="327,-40.5 327,-61.5 581,-61.5 581,-40.5 327,-40.5"/>
<text text-anchor="middle" x="454" y="-48.5" font-family="Helvetica,sans-Serif" font-size="10.00">ZendDbSchema_Tool_Project_Provider_Schema\push</text>
</a>
</g>
<!-- Node1&#45;&gt;Node3 -->
<g id="edge4" class="edge"><title>Node1&#45;&gt;Node3</title>
<path fill="none" stroke="midnightblue" d="M297.716,-51C307.378,-51 317.046,-51 326.571,-51"/>
<polygon fill="midnightblue" stroke="midnightblue" points="297.657,-47.5001 287.656,-51 297.656,-54.5001 297.657,-47.5001"/>
</g>
<!-- Node4 -->
<g id="node7" class="node"><title>Node4</title>
<a xlink:href="classZendDbSchema__Tool__Project__Provider__Schema.html#a5741419511310dc38038399e9f4ac5e1" target="_top" xlink:title="ZendDbSchema_Tool_Project_Provider_Schema\\status">
<polygon fill="white" stroke="black" points="324,-0.5 324,-21.5 584,-21.5 584,-0.5 324,-0.5"/>
<text text-anchor="middle" x="454" y="-8.5" font-family="Helvetica,sans-Serif" font-size="10.00">ZendDbSchema_Tool_Project_Provider_Schema\status</text>
</a>
</g>
<!-- Node1&#45;&gt;Node4 -->
<g id="edge6" class="edge"><title>Node1&#45;&gt;Node4</title>
<path fill="none" stroke="midnightblue" d="M235.452,-39.1998C278.92,-33.591 330.453,-26.9416 372.557,-21.5087"/>
<polygon fill="midnightblue" stroke="midnightblue" points="234.919,-35.7394 225.449,-40.4905 235.815,-42.6819 234.919,-35.7394"/>
</g>
</g>
</svg>
