<?xml version="1.0" encoding="UTF-8" standalone="no"?>
<!DOCTYPE svg PUBLIC "-//W3C//DTD SVG 1.1//EN"
 "http://www.w3.org/Graphics/SVG/1.1/DTD/svg11.dtd">
<!-- Generated by graphviz version 2.26.3 (20100126.1600)
 -->
<!-- Title: G Pages: 1 -->
<svg width="1094pt" height="174pt"
 viewBox="0.00 0.00 1094.00 174.00" xmlns="http://www.w3.org/2000/svg" xmlns:xlink="http://www.w3.org/1999/xlink">
<g id="graph1" class="graph" transform="scale(1 1) rotate(0) translate(4 170)">
<title>G</title>
<polygon fill="white" stroke="white" points="-4,5 -4,-170 1091,-170 1091,5 -4,5"/>
<!-- Node1 -->
<g id="node1" class="node"><title>Node1</title>
<polygon fill="#bfbfbf" stroke="black" points="0,-59.5 0,-106.5 158,-106.5 158,-59.5 0,-59.5"/>
<text text-anchor="start" x="8" y="-93.5" font-family="Helvetica,sans-Serif" font-size="10.00">ZendDbSchema_Db_Schema</text>
<text text-anchor="start" x="8" y="-80.5" font-family="Helvetica,sans-Serif" font-size="10.00">_Table_DefinitionManager</text>
<text text-anchor="middle" x="79" y="-67.5" font-family="Helvetica,sans-Serif" font-size="10.00">_AbstractManager\setFromArray</text>
</g>
<!-- Node2 -->
<g id="node3" class="node"><title>Node2</title>
<a xlink:href="classZendDbSchema__Db__Schema__Table__DefinitionManager__AbstractManager.html#ac62cf058c89132b0ff9223d9fcefdb8a" target="_top" xlink:title="ZendDbSchema_Db_Schema\l_Table_DefinitionManager\l_AbstractManager\\_getItemClass">
<polygon fill="white" stroke="black" points="376.5,-118.5 376.5,-165.5 539.5,-165.5 539.5,-118.5 376.5,-118.5"/>
<text text-anchor="start" x="384.5" y="-152.5" font-family="Helvetica,sans-Serif" font-size="10.00">ZendDbSchema_Db_Schema</text>
<text text-anchor="start" x="384.5" y="-139.5" font-family="Helvetica,sans-Serif" font-size="10.00">_Table_DefinitionManager</text>
<text text-anchor="middle" x="458" y="-126.5" font-family="Helvetica,sans-Serif" font-size="10.00">_AbstractManager\_getItemClass</text>
</a>
</g>
<!-- Node1&#45;&gt;Node2 -->
<g id="edge2" class="edge"><title>Node1&#45;&gt;Node2</title>
<path fill="none" stroke="midnightblue" d="M153.687,-106.55C167.012,-110.143 180.841,-113.485 194,-116 250.722,-126.839 315.215,-133.297 366.258,-137.066"/>
<polygon fill="midnightblue" stroke="midnightblue" points="366.056,-140.561 376.281,-137.785 366.557,-133.579 366.056,-140.561"/>
</g>
<!-- Node3 -->
<g id="node5" class="node"><title>Node3</title>
<a xlink:href="classZendDbSchema__Db__Schema__Table__DefinitionManager__AbstractManager.html#ad0261d0db60ff459f97adc23b2d16931" target="_top" xlink:title="ZendDbSchema_Db_Schema\l_Table_DefinitionManager\l_AbstractManager\\has">
<polygon fill="white" stroke="black" points="385,-0.5 385,-47.5 531,-47.5 531,-0.5 385,-0.5"/>
<text text-anchor="start" x="393" y="-34.5" font-family="Helvetica,sans-Serif" font-size="10.00">ZendDbSchema_Db_Schema</text>
<text text-anchor="start" x="393" y="-21.5" font-family="Helvetica,sans-Serif" font-size="10.00">_Table_DefinitionManager</text>
<text text-anchor="middle" x="458" y="-8.5" font-family="Helvetica,sans-Serif" font-size="10.00">_AbstractManager\has</text>
</a>
</g>
<!-- Node1&#45;&gt;Node3 -->
<g id="edge4" class="edge"><title>Node1&#45;&gt;Node3</title>
<path fill="none" stroke="midnightblue" d="M153.687,-59.4501C167.012,-55.8568 180.841,-52.5145 194,-50 253.903,-38.5535 322.473,-31.992 374.714,-28.3246"/>
<polygon fill="midnightblue" stroke="midnightblue" points="375.198,-31.7999 384.937,-27.6291 374.723,-24.816 375.198,-31.7999"/>
</g>
<!-- Node4 -->
<g id="node7" class="node"><title>Node4</title>
<a xlink:href="classZendDbSchema__Db__Schema__Table__DefinitionManager__AbstractManager.html#a6d815884ca03c003ac7f8d633e97f7c6" target="_top" xlink:title="ZendDbSchema_Db_Schema\l_Table_DefinitionManager\l_AbstractManager\\add">
<polygon fill="white" stroke="black" points="194,-59.5 194,-106.5 340,-106.5 340,-59.5 194,-59.5"/>
<text text-anchor="start" x="202" y="-93.5" font-family="Helvetica,sans-Serif" font-size="10.00">ZendDbSchema_Db_Schema</text>
<text text-anchor="start" x="202" y="-80.5" font-family="Helvetica,sans-Serif" font-size="10.00">_Table_DefinitionManager</text>
<text text-anchor="middle" x="267" y="-67.5" font-family="Helvetica,sans-Serif" font-size="10.00">_AbstractManager\add</text>
</a>
</g>
<!-- Node1&#45;&gt;Node4 -->
<g id="edge6" class="edge"><title>Node1&#45;&gt;Node4</title>
<path fill="none" stroke="midnightblue" d="M158.184,-83C166.602,-83 175.183,-83 183.648,-83"/>
<polygon fill="midnightblue" stroke="midnightblue" points="183.896,-86.5001 193.896,-83 183.896,-79.5001 183.896,-86.5001"/>
</g>
<!-- Node4&#45;&gt;Node2 -->
<g id="edge8" class="edge"><title>Node4&#45;&gt;Node2</title>
<path fill="none" stroke="midnightblue" d="M340.026,-105.558C350.508,-108.796 361.373,-112.152 372.076,-115.458"/>
<polygon fill="midnightblue" stroke="midnightblue" points="371.256,-118.868 381.844,-118.475 373.322,-112.18 371.256,-118.868"/>
</g>
<!-- Node4&#45;&gt;Node3 -->
<g id="edge18" class="edge"><title>Node4&#45;&gt;Node3</title>
<path fill="none" stroke="midnightblue" d="M340.026,-60.4421C351.463,-56.9094 363.355,-53.2359 374.995,-49.6403"/>
<polygon fill="midnightblue" stroke="midnightblue" points="376.176,-52.9386 384.698,-46.643 374.11,-46.2504 376.176,-52.9386"/>
</g>
<!-- Node5 -->
<g id="node10" class="node"><title>Node5</title>
<a xlink:href="classZendDbSchema__Db__Schema__AbstractSchema.html#adacb1417b461310c5c87f72c459c1985" target="_top" xlink:title="ZendDbSchema_Db_Schema\l_AbstractSchema\\getOriginName">
<polygon fill="white" stroke="black" points="376.5,-66 376.5,-100 539.5,-100 539.5,-66 376.5,-66"/>
<text text-anchor="start" x="384.5" y="-87" font-family="Helvetica,sans-Serif" font-size="10.00">ZendDbSchema_Db_Schema</text>
<text text-anchor="middle" x="458" y="-74" font-family="Helvetica,sans-Serif" font-size="10.00">_AbstractSchema\getOriginName</text>
</a>
</g>
<!-- Node4&#45;&gt;Node5 -->
<g id="edge10" class="edge"><title>Node4&#45;&gt;Node5</title>
<path fill="none" stroke="midnightblue" d="M340.026,-83C348.58,-83 357.388,-83 366.155,-83"/>
<polygon fill="midnightblue" stroke="midnightblue" points="366.411,-86.5001 376.411,-83 366.411,-79.5001 366.411,-86.5001"/>
</g>
<!-- Node6 -->
<g id="node12" class="node"><title>Node6</title>
<a xlink:href="classZendDbSchema__Db__Schema__AbstractSchema.html#a55787c21deddba427842809d589c2df6" target="_top" xlink:title="ZendDbSchema_Db_Schema\l_AbstractSchema\\getName">
<polygon fill="white" stroke="black" points="576,-66 576,-100 722,-100 722,-66 576,-66"/>
<text text-anchor="start" x="584" y="-87" font-family="Helvetica,sans-Serif" font-size="10.00">ZendDbSchema_Db_Schema</text>
<text text-anchor="middle" x="649" y="-74" font-family="Helvetica,sans-Serif" font-size="10.00">_AbstractSchema\getName</text>
</a>
</g>
<!-- Node5&#45;&gt;Node6 -->
<g id="edge12" class="edge"><title>Node5&#45;&gt;Node6</title>
<path fill="none" stroke="midnightblue" d="M539.555,-83C548.227,-83 557.057,-83 565.748,-83"/>
<polygon fill="midnightblue" stroke="midnightblue" points="565.87,-86.5001 575.87,-83 565.87,-79.5001 565.87,-86.5001"/>
</g>
<!-- Node7 -->
<g id="node14" class="node"><title>Node7</title>
<a xlink:href="classZendDbSchema__Db__Schema__AbstractSchema.html#a54d32c6f15463eaad2321a9f0e7225d7" target="_top" xlink:title="ZendDbSchema_Db_Schema\l_AbstractSchema\\__get">
<polygon fill="white" stroke="black" points="758,-66 758,-100 904,-100 904,-66 758,-66"/>
<text text-anchor="start" x="766" y="-87" font-family="Helvetica,sans-Serif" font-size="10.00">ZendDbSchema_Db_Schema</text>
<text text-anchor="middle" x="831" y="-74" font-family="Helvetica,sans-Serif" font-size="10.00">_AbstractSchema\__get</text>
</a>
</g>
<!-- Node6&#45;&gt;Node7 -->
<g id="edge14" class="edge"><title>Node6&#45;&gt;Node7</title>
<path fill="none" stroke="midnightblue" d="M722.24,-83C730.596,-83 739.161,-83 747.636,-83"/>
<polygon fill="midnightblue" stroke="midnightblue" points="747.91,-86.5001 757.91,-83 747.91,-79.5001 747.91,-86.5001"/>
</g>
<!-- Node8 -->
<g id="node16" class="node"><title>Node8</title>
<a xlink:href="classZendDbSchema__Db__Schema__AbstractSchema.html#ac4e121ba7932163eb1950fabe06fb9db" target="_top" xlink:title="ZendDbSchema_Db_Schema\l_AbstractSchema\\__isset">
<polygon fill="white" stroke="black" points="940,-66 940,-100 1086,-100 1086,-66 940,-66"/>
<text text-anchor="start" x="948" y="-87" font-family="Helvetica,sans-Serif" font-size="10.00">ZendDbSchema_Db_Schema</text>
<text text-anchor="middle" x="1013" y="-74" font-family="Helvetica,sans-Serif" font-size="10.00">_AbstractSchema\__isset</text>
</a>
</g>
<!-- Node7&#45;&gt;Node8 -->
<g id="edge16" class="edge"><title>Node7&#45;&gt;Node8</title>
<path fill="none" stroke="midnightblue" d="M904.24,-83C912.596,-83 921.161,-83 929.636,-83"/>
<polygon fill="midnightblue" stroke="midnightblue" points="929.91,-86.5001 939.91,-83 929.91,-79.5001 929.91,-86.5001"/>
</g>
</g>
</svg>
