<?xml version="1.0" encoding="UTF-8" standalone="no"?>
<!DOCTYPE svg PUBLIC "-//W3C//DTD SVG 1.1//EN"
 "http://www.w3.org/Graphics/SVG/1.1/DTD/svg11.dtd">
<!-- Generated by graphviz version 2.26.3 (20100126.1600)
 -->
<!-- Title: G Pages: 1 -->
<svg width="898pt" height="268pt"
 viewBox="0.00 0.00 898.00 268.00" xmlns="http://www.w3.org/2000/svg" xmlns:xlink="http://www.w3.org/1999/xlink">
<g id="graph1" class="graph" transform="scale(1 1) rotate(0) translate(4 264)">
<title>G</title>
<polygon fill="white" stroke="white" points="-4,5 -4,-264 895,-264 895,5 -4,5"/>
<!-- Node1 -->
<g id="node1" class="node"><title>Node1</title>
<polygon fill="#bfbfbf" stroke="black" points="0.5,-120.5 0.5,-141.5 207.5,-141.5 207.5,-120.5 0.5,-120.5"/>
<text text-anchor="middle" x="104" y="-128.5" font-family="Helvetica,sans-Serif" font-size="10.00">ZendDbSchema_Db_Schema_Table\isDirty</text>
</g>
<!-- Node2 -->
<g id="node3" class="node"><title>Node2</title>
<a xlink:href="classZendDbSchema__Db__Schema__AbstractSchema.html#a46da7a60c7e5fd605607afbc1dac4baa" target="_top" xlink:title="ZendDbSchema_Db_Schema_AbstractSchema\\getCleanSchema">
<polygon fill="white" stroke="black" points="244,-238.5 244,-259.5 546,-259.5 546,-238.5 244,-238.5"/>
<text text-anchor="middle" x="395" y="-246.5" font-family="Helvetica,sans-Serif" font-size="10.00">ZendDbSchema_Db_Schema_AbstractSchema\getCleanSchema</text>
</a>
</g>
<!-- Node1&#45;&gt;Node2 -->
<g id="edge2" class="edge"><title>Node1&#45;&gt;Node2</title>
<path fill="none" stroke="midnightblue" d="M116.101,-141.682C139.186,-161.422 191.873,-203.469 244,-224 256.733,-229.015 270.453,-233.024 284.249,-236.229"/>
<polygon fill="midnightblue" stroke="midnightblue" points="283.779,-239.708 294.295,-238.423 285.272,-232.87 283.779,-239.708"/>
</g>
<!-- Node4 -->
<g id="node7" class="node"><title>Node4</title>
<a xlink:href="classZendDbSchema__Db__Schema__AbstractSchema.html#ac4e121ba7932163eb1950fabe06fb9db" target="_top" xlink:title="ZendDbSchema_Db_Schema_AbstractSchema\\__isset">
<polygon fill="white" stroke="black" points="606.5,-179.5 606.5,-200.5 865.5,-200.5 865.5,-179.5 606.5,-179.5"/>
<text text-anchor="middle" x="736" y="-187.5" font-family="Helvetica,sans-Serif" font-size="10.00">ZendDbSchema_Db_Schema_AbstractSchema\__isset</text>
</a>
</g>
<!-- Node1&#45;&gt;Node4 -->
<g id="edge6" class="edge"><title>Node1&#45;&gt;Node4</title>
<path fill="none" stroke="midnightblue" d="M122.229,-141.68C148.218,-156.225 197.892,-181.536 244,-191 379.902,-218.895 541.405,-210.991 641.317,-201.485"/>
<polygon fill="midnightblue" stroke="midnightblue" points="641.777,-204.957 651.39,-200.501 641.097,-197.99 641.777,-204.957"/>
</g>
<!-- Node5 -->
<g id="node9" class="node"><title>Node5</title>
<a xlink:href="classZendDbSchema__Db__Schema__AbstractSchema.html#a54d32c6f15463eaad2321a9f0e7225d7" target="_top" xlink:title="ZendDbSchema_Db_Schema_AbstractSchema\\__get">
<polygon fill="white" stroke="black" points="269.5,-160.5 269.5,-181.5 520.5,-181.5 520.5,-160.5 269.5,-160.5"/>
<text text-anchor="middle" x="395" y="-168.5" font-family="Helvetica,sans-Serif" font-size="10.00">ZendDbSchema_Db_Schema_AbstractSchema\__get</text>
</a>
</g>
<!-- Node1&#45;&gt;Node5 -->
<g id="edge8" class="edge"><title>Node1&#45;&gt;Node5</title>
<path fill="none" stroke="midnightblue" d="M176.643,-141.521C198.307,-144.62 222.109,-147.987 244,-151 263.497,-153.684 284.421,-156.498 304.293,-159.139"/>
<polygon fill="midnightblue" stroke="midnightblue" points="303.89,-162.616 314.263,-160.461 304.81,-155.677 303.89,-162.616"/>
</g>
<!-- Node6 -->
<g id="node12" class="node"><title>Node6</title>
<a xlink:href="classZendDbSchema__Db__Schema__Table.html#a214354faa96de67a26b787c2c8741850" target="_top" xlink:title="ZendDbSchema_Db_Schema_Table\\columns">
<polygon fill="white" stroke="black" points="287.5,-120.5 287.5,-141.5 502.5,-141.5 502.5,-120.5 287.5,-120.5"/>
<text text-anchor="middle" x="395" y="-128.5" font-family="Helvetica,sans-Serif" font-size="10.00">ZendDbSchema_Db_Schema_Table\columns</text>
</a>
</g>
<!-- Node1&#45;&gt;Node6 -->
<g id="edge12" class="edge"><title>Node1&#45;&gt;Node6</title>
<path fill="none" stroke="midnightblue" d="M207.825,-131C230.29,-131 254.203,-131 277.162,-131"/>
<polygon fill="midnightblue" stroke="midnightblue" points="277.284,-134.5 287.284,-131 277.283,-127.5 277.284,-134.5"/>
</g>
<!-- Node7 -->
<g id="node14" class="node"><title>Node7</title>
<a xlink:href="classZendDbSchema__Db__Schema__Table.html#a47df29d95af8f655dd7506cfb649ec40" target="_top" xlink:title="ZendDbSchema_Db_Schema_Table\\indexes">
<polygon fill="white" stroke="black" points="289,-80.5 289,-101.5 501,-101.5 501,-80.5 289,-80.5"/>
<text text-anchor="middle" x="395" y="-88.5" font-family="Helvetica,sans-Serif" font-size="10.00">ZendDbSchema_Db_Schema_Table\indexes</text>
</a>
</g>
<!-- Node1&#45;&gt;Node7 -->
<g id="edge14" class="edge"><title>Node1&#45;&gt;Node7</title>
<path fill="none" stroke="midnightblue" d="M176.643,-120.479C198.307,-117.38 222.109,-114.013 244,-111 263.497,-108.316 284.421,-105.502 304.293,-102.861"/>
<polygon fill="midnightblue" stroke="midnightblue" points="304.81,-106.323 314.263,-101.539 303.89,-99.3841 304.81,-106.323"/>
</g>
<!-- Node8 -->
<g id="node16" class="node"><title>Node8</title>
<a xlink:href="classZendDbSchema__Db__Schema__Table.html#acff371c2884c9688b5ede2deaf09f25c" target="_top" xlink:title="ZendDbSchema_Db_Schema_Table\\foreigns">
<polygon fill="white" stroke="black" points="288.5,-40.5 288.5,-61.5 501.5,-61.5 501.5,-40.5 288.5,-40.5"/>
<text text-anchor="middle" x="395" y="-48.5" font-family="Helvetica,sans-Serif" font-size="10.00">ZendDbSchema_Db_Schema_Table\foreigns</text>
</a>
</g>
<!-- Node1&#45;&gt;Node8 -->
<g id="edge16" class="edge"><title>Node1&#45;&gt;Node8</title>
<path fill="none" stroke="midnightblue" d="M123.777,-120.465C150.341,-106.801 199.379,-83.267 244,-71 254.945,-67.991 266.466,-65.4287 278.06,-63.248"/>
<polygon fill="midnightblue" stroke="midnightblue" points="279.027,-66.6309 288.256,-61.4282 277.797,-59.7398 279.027,-66.6309"/>
</g>
<!-- Node9 -->
<g id="node18" class="node"><title>Node9</title>
<a xlink:href="classZendDbSchema__Db__Schema__Table.html#a9d445dd6a92cc3a50aa6d8dad8395f0a" target="_top" xlink:title="ZendDbSchema_Db_Schema_Table\\primary">
<polygon fill="white" stroke="black" points="289.5,-0.5 289.5,-21.5 500.5,-21.5 500.5,-0.5 289.5,-0.5"/>
<text text-anchor="middle" x="395" y="-8.5" font-family="Helvetica,sans-Serif" font-size="10.00">ZendDbSchema_Db_Schema_Table\primary</text>
</a>
</g>
<!-- Node1&#45;&gt;Node9 -->
<g id="edge18" class="edge"><title>Node1&#45;&gt;Node9</title>
<path fill="none" stroke="midnightblue" d="M114.83,-120.315C136.951,-99.2133 189.823,-52.3859 244,-31 255.257,-26.5564 267.315,-23.0623 279.528,-20.3204"/>
<polygon fill="midnightblue" stroke="midnightblue" points="280.266,-23.742 289.343,-18.2789 278.84,-16.8886 280.266,-23.742"/>
</g>
<!-- Node3 -->
<g id="node5" class="node"><title>Node3</title>
<a xlink:href="classZendDbSchema__Db__Schema__AbstractSchema.html#af99e5bb9adfe0da8c94d3d3848efe7b5" target="_top" xlink:title="ZendDbSchema_Db_Schema_AbstractSchema\\_getCleanSchema">
<polygon fill="white" stroke="black" points="582,-238.5 582,-259.5 890,-259.5 890,-238.5 582,-238.5"/>
<text text-anchor="middle" x="736" y="-246.5" font-family="Helvetica,sans-Serif" font-size="10.00">ZendDbSchema_Db_Schema_AbstractSchema\_getCleanSchema</text>
</a>
</g>
<!-- Node2&#45;&gt;Node3 -->
<g id="edge4" class="edge"><title>Node2&#45;&gt;Node3</title>
<path fill="none" stroke="midnightblue" d="M546.057,-249C554.572,-249 563.152,-249 571.712,-249"/>
<polygon fill="midnightblue" stroke="midnightblue" points="571.745,-252.5 581.745,-249 571.745,-245.5 571.745,-252.5"/>
</g>
<!-- Node5&#45;&gt;Node4 -->
<g id="edge10" class="edge"><title>Node5&#45;&gt;Node4</title>
<path fill="none" stroke="midnightblue" d="M520.523,-177.994C545.142,-179.366 571.108,-180.812 596.161,-182.208"/>
<polygon fill="midnightblue" stroke="midnightblue" points="596.279,-185.72 606.458,-182.782 596.668,-178.731 596.279,-185.72"/>
</g>
</g>
</svg>
