<?xml version="1.0" encoding="UTF-8" standalone="no"?>
<!DOCTYPE svg PUBLIC "-//W3C//DTD SVG 1.1//EN"
 "http://www.w3.org/Graphics/SVG/1.1/DTD/svg11.dtd">
<!-- Generated by graphviz version 2.26.3 (20100126.1600)
 -->
<!-- Title: G Pages: 1 -->
<svg width="812pt" height="30pt"
 viewBox="0.00 0.00 812.00 30.00" xmlns="http://www.w3.org/2000/svg" xmlns:xlink="http://www.w3.org/1999/xlink">
<g id="graph1" class="graph" transform="scale(1 1) rotate(0) translate(4 26)">
<title>G</title>
<polygon fill="white" stroke="white" points="-4,5 -4,-26 809,-26 809,5 -4,5"/>
<!-- Node1 -->
<g id="node1" class="node"><title>Node1</title>
<polygon fill="#bfbfbf" stroke="black" points="0.5,-0.5 0.5,-21.5 245.5,-21.5 245.5,-0.5 0.5,-0.5"/>
<text text-anchor="middle" x="123" y="-8.5" font-family="Helvetica,sans-Serif" font-size="10.00">ZendDbSchema_Db_Schema_Database\setCharset</text>
</g>
<!-- Node2 -->
<g id="node3" class="node"><title>Node2</title>
<a xlink:href="classZendDbSchema__Db__Schema__Database.html#a16cacd680a6a027a88ec41f6d8211982" target="_top" xlink:title="ZendDbSchema_Db_Schema_Database\\__set">
<polygon fill="white" stroke="black" points="282.5,-0.5 282.5,-21.5 503.5,-21.5 503.5,-0.5 282.5,-0.5"/>
<text text-anchor="middle" x="393" y="-8.5" font-family="Helvetica,sans-Serif" font-size="10.00">ZendDbSchema_Db_Schema_Database\__set</text>
</a>
</g>
<!-- Node1&#45;&gt;Node2 -->
<g id="edge2" class="edge"><title>Node1&#45;&gt;Node2</title>
<path fill="none" stroke="midnightblue" d="M245.754,-11C254.465,-11 263.245,-11 271.946,-11"/>
<polygon fill="midnightblue" stroke="midnightblue" points="272.116,-14.5001 282.116,-11 272.116,-7.5001 272.116,-14.5001"/>
</g>
<!-- Node3 -->
<g id="node5" class="node"><title>Node3</title>
<a xlink:href="classZendDbSchema__Db__Schema__AbstractEntity.html#ad6dfc39cc6d92633fd92170db18c9573" target="_top" xlink:title="ZendDbSchema_Db_Schema_AbstractEntity\\getAdapter">
<polygon fill="white" stroke="black" points="540,-0.5 540,-21.5 804,-21.5 804,-0.5 540,-0.5"/>
<text text-anchor="middle" x="672" y="-8.5" font-family="Helvetica,sans-Serif" font-size="10.00">ZendDbSchema_Db_Schema_AbstractEntity\getAdapter</text>
</a>
</g>
<!-- Node2&#45;&gt;Node3 -->
<g id="edge4" class="edge"><title>Node2&#45;&gt;Node3</title>
<path fill="none" stroke="midnightblue" d="M503.669,-11C512.198,-11 520.878,-11 529.573,-11"/>
<polygon fill="midnightblue" stroke="midnightblue" points="529.779,-14.5001 539.778,-11 529.778,-7.5001 529.779,-14.5001"/>
</g>
</g>
</svg>
