<?xml version="1.0" encoding="UTF-8" standalone="no"?>
<!DOCTYPE svg PUBLIC "-//W3C//DTD SVG 1.1//EN"
 "http://www.w3.org/Graphics/SVG/1.1/DTD/svg11.dtd">
<!-- Generated by graphviz version 2.26.3 (20100126.1600)
 -->
<!-- Title: G Pages: 1 -->
<svg width="576pt" height="406pt"
 viewBox="0.00 0.00 576.00 406.00" xmlns="http://www.w3.org/2000/svg" xmlns:xlink="http://www.w3.org/1999/xlink">
<g id="graph1" class="graph" transform="scale(1 1) rotate(0) translate(4 402)">
<title>G</title>
<polygon fill="white" stroke="white" points="-4,5 -4,-402 573,-402 573,5 -4,5"/>
<!-- Node1 -->
<g id="node1" class="node"><title>Node1</title>
<polygon fill="#bfbfbf" stroke="black" points="0,-130 0,-164 156,-164 156,-130 0,-130"/>
<text text-anchor="start" x="8" y="-151" font-family="Helvetica,sans-Serif" font-size="10.00">ZendDbSchema_Db_Schema</text>
<text text-anchor="middle" x="78" y="-138" font-family="Helvetica,sans-Serif" font-size="10.00">_Table_AbstractDefinition\__set</text>
</g>
<!-- Node2 -->
<g id="node3" class="node"><title>Node2</title>
<a xlink:href="classZendDbSchema__Db__Schema__Table__Index.html#a77b65e961a7da9ca89fdebd682338fcf" target="_top" xlink:title="ZendDbSchema_Db_Schema\l_Table_Index\\setColumns">
<polygon fill="white" stroke="black" points="203,-312 203,-346 349,-346 349,-312 203,-312"/>
<text text-anchor="start" x="211" y="-333" font-family="Helvetica,sans-Serif" font-size="10.00">ZendDbSchema_Db_Schema</text>
<text text-anchor="middle" x="276" y="-320" font-family="Helvetica,sans-Serif" font-size="10.00">_Table_Index\setColumns</text>
</a>
</g>
<!-- Node1&#45;&gt;Node2 -->
<g id="edge2" class="edge"><title>Node1&#45;&gt;Node2</title>
<path fill="none" stroke="midnightblue" d="M104.235,-171.115C144.817,-208.418 221.825,-279.203 257.278,-311.791"/>
<polygon fill="midnightblue" stroke="midnightblue" points="106.358,-168.313 96.6274,-164.122 101.621,-173.466 106.358,-168.313"/>
</g>
<!-- Node5 -->
<g id="node9" class="node"><title>Node5</title>
<a xlink:href="classZendDbSchema__Db__Schema__Table__PrimaryKey.html#a01cfcffd92c38bc521628d49d5c74927" target="_top" xlink:title="ZendDbSchema_Db_Schema\l_Table_PrimaryKey\\setColumns">
<polygon fill="white" stroke="black" points="197,-208 197,-242 355,-242 355,-208 197,-208"/>
<text text-anchor="start" x="205" y="-229" font-family="Helvetica,sans-Serif" font-size="10.00">ZendDbSchema_Db_Schema</text>
<text text-anchor="middle" x="276" y="-216" font-family="Helvetica,sans-Serif" font-size="10.00">_Table_PrimaryKey\setColumns</text>
</a>
</g>
<!-- Node1&#45;&gt;Node5 -->
<g id="edge8" class="edge"><title>Node1&#45;&gt;Node5</title>
<path fill="none" stroke="midnightblue" d="M121.726,-168.532C142.713,-178.455 168.379,-189.999 192,-199 200.131,-202.098 208.806,-205.106 217.379,-207.91"/>
<polygon fill="midnightblue" stroke="midnightblue" points="122.969,-165.247 112.436,-164.101 119.955,-171.565 122.969,-165.247"/>
</g>
<!-- Node8 -->
<g id="node15" class="node"><title>Node8</title>
<a xlink:href="classZendDbSchema__Db__Schema__Table__ForeignKey.html#afb0c42af85a63c6347973ce79d2e7d80" target="_top" xlink:title="ZendDbSchema_Db_Schema\l_Table_ForeignKey\\setColumns">
<polygon fill="white" stroke="black" points="198,-156 198,-190 354,-190 354,-156 198,-156"/>
<text text-anchor="start" x="206" y="-177" font-family="Helvetica,sans-Serif" font-size="10.00">ZendDbSchema_Db_Schema</text>
<text text-anchor="middle" x="276" y="-164" font-family="Helvetica,sans-Serif" font-size="10.00">_Table_ForeignKey\setColumns</text>
</a>
</g>
<!-- Node1&#45;&gt;Node8 -->
<g id="edge14" class="edge"><title>Node1&#45;&gt;Node8</title>
<path fill="none" stroke="midnightblue" d="M166.311,-158.596C176.869,-159.983 187.591,-161.391 197.989,-162.756"/>
<polygon fill="midnightblue" stroke="midnightblue" points="166.625,-155.108 156.255,-157.276 165.714,-162.048 166.625,-155.108"/>
</g>
<!-- Node11 -->
<g id="node21" class="node"><title>Node11</title>
<a xlink:href="classZendDbSchema__Db__Schema__Table__ForeignKey.html#a0c51ff09d6df59b68f8f5ff4ec1ed32d" target="_top" xlink:title="ZendDbSchema_Db_Schema\l_Table_ForeignKey\\setOnDelete">
<polygon fill="white" stroke="black" points="197,-104 197,-138 355,-138 355,-104 197,-104"/>
<text text-anchor="start" x="205" y="-125" font-family="Helvetica,sans-Serif" font-size="10.00">ZendDbSchema_Db_Schema</text>
<text text-anchor="middle" x="276" y="-112" font-family="Helvetica,sans-Serif" font-size="10.00">_Table_ForeignKey\setOnDelete</text>
</a>
</g>
<!-- Node1&#45;&gt;Node11 -->
<g id="edge20" class="edge"><title>Node1&#45;&gt;Node11</title>
<path fill="none" stroke="midnightblue" d="M166.309,-135.404C176.429,-134.075 186.699,-132.726 196.691,-131.414"/>
<polygon fill="midnightblue" stroke="midnightblue" points="165.714,-131.952 156.255,-136.724 166.625,-138.892 165.714,-131.952"/>
</g>
<!-- Node12 -->
<g id="node23" class="node"><title>Node12</title>
<a xlink:href="classZendDbSchema__Db__Schema__Table__ForeignKey.html#ae8ffd9c6bad60eaf6ef05cdd1f5c56fb" target="_top" xlink:title="ZendDbSchema_Db_Schema\l_Table_ForeignKey\\setOnUpdate">
<polygon fill="white" stroke="black" points="195.5,-52 195.5,-86 356.5,-86 356.5,-52 195.5,-52"/>
<text text-anchor="start" x="203.5" y="-73" font-family="Helvetica,sans-Serif" font-size="10.00">ZendDbSchema_Db_Schema</text>
<text text-anchor="middle" x="276" y="-60" font-family="Helvetica,sans-Serif" font-size="10.00">_Table_ForeignKey\setOnUpdate</text>
</a>
</g>
<!-- Node1&#45;&gt;Node12 -->
<g id="edge22" class="edge"><title>Node1&#45;&gt;Node12</title>
<path fill="none" stroke="midnightblue" d="M121.726,-125.468C142.713,-115.545 168.379,-104.001 192,-95 200.131,-91.9016 208.806,-88.894 217.379,-86.0904"/>
<polygon fill="midnightblue" stroke="midnightblue" points="119.955,-122.435 112.436,-129.899 122.969,-128.753 119.955,-122.435"/>
</g>
<!-- Node13 -->
<g id="node25" class="node"><title>Node13</title>
<a xlink:href="classZendDbSchema__Db__Schema__Table__ForeignKey.html#a333403da95af60a2b4bd18952d1136f3" target="_top" xlink:title="ZendDbSchema_Db_Schema\l_Table_ForeignKey\\setReferences">
<polygon fill="white" stroke="black" points="192.5,-0 192.5,-34 359.5,-34 359.5,-0 192.5,-0"/>
<text text-anchor="start" x="200.5" y="-21" font-family="Helvetica,sans-Serif" font-size="10.00">ZendDbSchema_Db_Schema</text>
<text text-anchor="middle" x="276" y="-8" font-family="Helvetica,sans-Serif" font-size="10.00">_Table_ForeignKey\setReferences</text>
</a>
</g>
<!-- Node1&#45;&gt;Node13 -->
<g id="edge24" class="edge"><title>Node1&#45;&gt;Node13</title>
<path fill="none" stroke="midnightblue" d="M99.1268,-122.247C120.394,-98.7696 155.235,-64.0438 192,-43 197.83,-39.6632 204.137,-36.7054 210.585,-34.0949"/>
<polygon fill="midnightblue" stroke="midnightblue" points="96.4892,-119.946 92.4517,-129.741 101.716,-124.601 96.4892,-119.946"/>
</g>
<!-- Node3 -->
<g id="node5" class="node"><title>Node3</title>
<a xlink:href="classZendDbSchema__Db__Schema__Table__Index.html#a6717d976c5b0d47369d3c87ef17b1e9b" target="_top" xlink:title="ZendDbSchema_Db_Schema\l_Table_Index\\addColumn">
<polygon fill="white" stroke="black" points="409,-364 409,-398 555,-398 555,-364 409,-364"/>
<text text-anchor="start" x="417" y="-385" font-family="Helvetica,sans-Serif" font-size="10.00">ZendDbSchema_Db_Schema</text>
<text text-anchor="middle" x="482" y="-372" font-family="Helvetica,sans-Serif" font-size="10.00">_Table_Index\addColumn</text>
</a>
</g>
<!-- Node2&#45;&gt;Node3 -->
<g id="edge4" class="edge"><title>Node2&#45;&gt;Node3</title>
<path fill="none" stroke="midnightblue" d="M353.198,-348.487C373.309,-353.563 394.823,-358.994 414.396,-363.935"/>
<polygon fill="midnightblue" stroke="midnightblue" points="354.005,-345.081 343.452,-346.027 352.291,-351.868 354.005,-345.081"/>
</g>
<!-- Node4 -->
<g id="node7" class="node"><title>Node4</title>
<a xlink:href="classZendDbSchema__Db__Schema__Table__Index.html#a3cfd358621bb3330ef9e7ffcf2f7b229" target="_top" xlink:title="ZendDbSchema_Db_Schema\l_Table_Index\\removeColumn">
<polygon fill="white" stroke="black" points="409,-312 409,-346 555,-346 555,-312 409,-312"/>
<text text-anchor="start" x="417" y="-333" font-family="Helvetica,sans-Serif" font-size="10.00">ZendDbSchema_Db_Schema</text>
<text text-anchor="middle" x="482" y="-320" font-family="Helvetica,sans-Serif" font-size="10.00">_Table_Index\removeColumn</text>
</a>
</g>
<!-- Node2&#45;&gt;Node4 -->
<g id="edge6" class="edge"><title>Node2&#45;&gt;Node4</title>
<path fill="none" stroke="midnightblue" d="M359.286,-329C375.64,-329 392.683,-329 408.681,-329"/>
<polygon fill="midnightblue" stroke="midnightblue" points="359.208,-325.5 349.208,-329 359.208,-332.5 359.208,-325.5"/>
</g>
<!-- Node6 -->
<g id="node11" class="node"><title>Node6</title>
<a xlink:href="classZendDbSchema__Db__Schema__Table__PrimaryKey.html#a0b84ee828c689a3da5790e123583f691" target="_top" xlink:title="ZendDbSchema_Db_Schema\l_Table_PrimaryKey\\addColumn">
<polygon fill="white" stroke="black" points="404.5,-260 404.5,-294 559.5,-294 559.5,-260 404.5,-260"/>
<text text-anchor="start" x="412.5" y="-281" font-family="Helvetica,sans-Serif" font-size="10.00">ZendDbSchema_Db_Schema</text>
<text text-anchor="middle" x="482" y="-268" font-family="Helvetica,sans-Serif" font-size="10.00">_Table_PrimaryKey\addColumn</text>
</a>
</g>
<!-- Node5&#45;&gt;Node6 -->
<g id="edge10" class="edge"><title>Node5&#45;&gt;Node6</title>
<path fill="none" stroke="midnightblue" d="M353.198,-244.487C373.309,-249.563 394.823,-254.994 414.396,-259.935"/>
<polygon fill="midnightblue" stroke="midnightblue" points="354.005,-241.081 343.452,-242.027 352.291,-247.868 354.005,-241.081"/>
</g>
<!-- Node7 -->
<g id="node13" class="node"><title>Node7</title>
<a xlink:href="classZendDbSchema__Db__Schema__Table__PrimaryKey.html#a6deb586d1cc0935f5c0d50afa47667de" target="_top" xlink:title="ZendDbSchema_Db_Schema\l_Table_PrimaryKey\\removeColumn">
<polygon fill="white" stroke="black" points="396.5,-208 396.5,-242 567.5,-242 567.5,-208 396.5,-208"/>
<text text-anchor="start" x="404.5" y="-229" font-family="Helvetica,sans-Serif" font-size="10.00">ZendDbSchema_Db_Schema</text>
<text text-anchor="middle" x="482" y="-216" font-family="Helvetica,sans-Serif" font-size="10.00">_Table_PrimaryKey\removeColumn</text>
</a>
</g>
<!-- Node5&#45;&gt;Node7 -->
<g id="edge12" class="edge"><title>Node5&#45;&gt;Node7</title>
<path fill="none" stroke="midnightblue" d="M365.276,-225C375.573,-225 386.057,-225 396.306,-225"/>
<polygon fill="midnightblue" stroke="midnightblue" points="365.056,-221.5 355.056,-225 365.056,-228.5 365.056,-221.5"/>
</g>
<!-- Node9 -->
<g id="node17" class="node"><title>Node9</title>
<a xlink:href="classZendDbSchema__Db__Schema__Table__ForeignKey.html#acad90fc706fe3c4aa734b073fa551152" target="_top" xlink:title="ZendDbSchema_Db_Schema\l_Table_ForeignKey\\setColumn">
<polygon fill="white" stroke="black" points="406.5,-156 406.5,-190 557.5,-190 557.5,-156 406.5,-156"/>
<text text-anchor="start" x="414.5" y="-177" font-family="Helvetica,sans-Serif" font-size="10.00">ZendDbSchema_Db_Schema</text>
<text text-anchor="middle" x="482" y="-164" font-family="Helvetica,sans-Serif" font-size="10.00">_Table_ForeignKey\setColumn</text>
</a>
</g>
<!-- Node8&#45;&gt;Node9 -->
<g id="edge16" class="edge"><title>Node8&#45;&gt;Node9</title>
<path fill="none" stroke="midnightblue" d="M364.273,-173C378.253,-173 392.603,-173 406.263,-173"/>
<polygon fill="midnightblue" stroke="midnightblue" points="364.174,-169.5 354.173,-173 364.173,-176.5 364.174,-169.5"/>
</g>
<!-- Node10 -->
<g id="node19" class="node"><title>Node10</title>
<a xlink:href="classZendDbSchema__Db__Schema__Table__ForeignKey.html#a810c76bf8102391ec3d304647c369146" target="_top" xlink:title="ZendDbSchema_Db_Schema\l_Table_ForeignKey\\removeColumn">
<polygon fill="white" stroke="black" points="397,-104 397,-138 567,-138 567,-104 397,-104"/>
<text text-anchor="start" x="405" y="-125" font-family="Helvetica,sans-Serif" font-size="10.00">ZendDbSchema_Db_Schema</text>
<text text-anchor="middle" x="482" y="-112" font-family="Helvetica,sans-Serif" font-size="10.00">_Table_ForeignKey\removeColumn</text>
</a>
</g>
<!-- Node8&#45;&gt;Node10 -->
<g id="edge18" class="edge"><title>Node8&#45;&gt;Node10</title>
<path fill="none" stroke="midnightblue" d="M353.198,-153.513C373.309,-148.437 394.823,-143.006 414.396,-138.065"/>
<polygon fill="midnightblue" stroke="midnightblue" points="352.291,-150.132 343.452,-155.973 354.005,-156.919 352.291,-150.132"/>
</g>
</g>
</svg>
