<?xml version="1.0" encoding="UTF-8" standalone="no"?>
<!DOCTYPE svg PUBLIC "-//W3C//DTD SVG 1.1//EN"
 "http://www.w3.org/Graphics/SVG/1.1/DTD/svg11.dtd">
<!-- Generated by graphviz version 2.26.3 (20100126.1600)
 -->
<!-- Title: G Pages: 1 -->
<svg width="948pt" height="70pt"
 viewBox="0.00 0.00 948.00 70.00" xmlns="http://www.w3.org/2000/svg" xmlns:xlink="http://www.w3.org/1999/xlink">
<g id="graph1" class="graph" transform="scale(1 1) rotate(0) translate(4 66)">
<title>G</title>
<polygon fill="white" stroke="white" points="-4,5 -4,-66 945,-66 945,5 -4,5"/>
<!-- Node1 -->
<g id="node1" class="node"><title>Node1</title>
<polygon fill="#bfbfbf" stroke="black" points="0,-20.5 0,-41.5 288,-41.5 288,-20.5 0,-20.5"/>
<text text-anchor="middle" x="144" y="-28.5" font-family="Helvetica,sans-Serif" font-size="10.00">ZendDbSchema_Db_Schema_Table_AbstractDefinition\reload</text>
</g>
<!-- Node2 -->
<g id="node3" class="node"><title>Node2</title>
<a xlink:href="classZendDbSchema__Db__Schema__Table__AbstractDefinition.html#ad79a83e9aa0cbaa289df7cf5c2d13188" target="_top" xlink:title="ZendDbSchema_Db_Schema_Table_AbstractDefinition\\refresh">
<polygon fill="white" stroke="black" points="324,-20.5 324,-41.5 616,-41.5 616,-20.5 324,-20.5"/>
<text text-anchor="middle" x="470" y="-28.5" font-family="Helvetica,sans-Serif" font-size="10.00">ZendDbSchema_Db_Schema_Table_AbstractDefinition\refresh</text>
</a>
</g>
<!-- Node1&#45;&gt;Node2 -->
<g id="edge2" class="edge"><title>Node1&#45;&gt;Node2</title>
<path fill="none" stroke="midnightblue" d="M298.629,-31C307.023,-31 315.446,-31 323.809,-31"/>
<polygon fill="midnightblue" stroke="midnightblue" points="298.412,-27.5001 288.412,-31 298.412,-34.5001 298.412,-27.5001"/>
</g>
<!-- Node3 -->
<g id="node5" class="node"><title>Node3</title>
<a xlink:href="classZendDbSchema__Db__Schema__Table__PrimaryKey.html#a8189591ab7ced58307298ecc8f27779d" target="_top" xlink:title="ZendDbSchema_Db_Schema_Table_PrimaryKey\\__construct">
<polygon fill="white" stroke="black" points="653,-40.5 653,-61.5 939,-61.5 939,-40.5 653,-40.5"/>
<text text-anchor="middle" x="796" y="-48.5" font-family="Helvetica,sans-Serif" font-size="10.00">ZendDbSchema_Db_Schema_Table_PrimaryKey\__construct</text>
</a>
</g>
<!-- Node2&#45;&gt;Node3 -->
<g id="edge4" class="edge"><title>Node2&#45;&gt;Node3</title>
<path fill="none" stroke="midnightblue" d="M626.332,-40.5909C635.222,-41.1363 644.138,-41.6833 652.975,-42.2254"/>
<polygon fill="midnightblue" stroke="midnightblue" points="626.508,-37.0952 616.312,-39.9762 626.079,-44.0821 626.508,-37.0952"/>
</g>
<!-- Node4 -->
<g id="node7" class="node"><title>Node4</title>
<a xlink:href="classZendDbSchema__Db__Schema__Table__AbstractDefinition.html#a41800b80353287bf0d9e32fdb72d0b04" target="_top" xlink:title="ZendDbSchema_Db_Schema_Table_AbstractDefinition\\delete">
<polygon fill="white" stroke="black" points="652,-0.5 652,-21.5 940,-21.5 940,-0.5 652,-0.5"/>
<text text-anchor="middle" x="796" y="-8.5" font-family="Helvetica,sans-Serif" font-size="10.00">ZendDbSchema_Db_Schema_Table_AbstractDefinition\delete</text>
</a>
</g>
<!-- Node2&#45;&gt;Node4 -->
<g id="edge6" class="edge"><title>Node2&#45;&gt;Node4</title>
<path fill="none" stroke="midnightblue" d="M626.332,-21.4091C634.882,-20.8845 643.456,-20.3585 651.961,-19.8368"/>
<polygon fill="midnightblue" stroke="midnightblue" points="626.079,-17.9179 616.312,-22.0238 626.508,-24.9048 626.079,-17.9179"/>
</g>
</g>
</svg>
