<?xml version="1.0" encoding="UTF-8" standalone="no"?>
<!DOCTYPE svg PUBLIC "-//W3C//DTD SVG 1.1//EN"
 "http://www.w3.org/Graphics/SVG/1.1/DTD/svg11.dtd">
<!-- Generated by graphviz version 2.26.3 (20100126.1600)
 -->
<!-- Title: G Pages: 1 -->
<svg width="1320pt" height="444pt"
 viewBox="0.00 0.00 1320.00 444.00" xmlns="http://www.w3.org/2000/svg" xmlns:xlink="http://www.w3.org/1999/xlink">
<g id="graph1" class="graph" transform="scale(1 1) rotate(0) translate(4 440)">
<title>G</title>
<polygon fill="white" stroke="white" points="-4,5 -4,-440 1317,-440 1317,5 -4,5"/>
<!-- Node1 -->
<g id="node1" class="node"><title>Node1</title>
<polygon fill="#bfbfbf" stroke="black" points="0,-178 0,-212 146,-212 146,-178 0,-178"/>
<text text-anchor="start" x="8" y="-199" font-family="Helvetica,sans-Serif" font-size="10.00">ZendDbSchema_Db_Schema</text>
<text text-anchor="middle" x="73" y="-186" font-family="Helvetica,sans-Serif" font-size="10.00">_AbstractEntity\save</text>
</g>
<!-- Node2 -->
<g id="node3" class="node"><title>Node2</title>
<a xlink:href="classZendDbSchema__Db__Schema__AbstractSchema.html#ae859790a91bbcb9c4dc52a6139e5999e" target="_top" xlink:title="ZendDbSchema_Db_Schema\l_AbstractSchema\\isDirty">
<polygon fill="white" stroke="black" points="371,-350 371,-384 517,-384 517,-350 371,-350"/>
<text text-anchor="start" x="379" y="-371" font-family="Helvetica,sans-Serif" font-size="10.00">ZendDbSchema_Db_Schema</text>
<text text-anchor="middle" x="444" y="-358" font-family="Helvetica,sans-Serif" font-size="10.00">_AbstractSchema\isDirty</text>
</a>
</g>
<!-- Node1&#45;&gt;Node2 -->
<g id="edge2" class="edge"><title>Node1&#45;&gt;Node2</title>
<path fill="none" stroke="midnightblue" d="M80.1163,-212.212C94.2476,-243.939 129.12,-311.129 182,-341 236.027,-371.519 306.428,-376.982 360.646,-375.381"/>
<polygon fill="midnightblue" stroke="midnightblue" points="361.059,-378.867 370.918,-374.988 360.792,-371.873 361.059,-378.867"/>
</g>
<!-- Node7 -->
<g id="node14" class="node"><title>Node7</title>
<a xlink:href="classZendDbSchema__Db__Schema__AbstractEntity.html#a453f0e0a50f718a89f7f024e61a3e2c2" target="_top" xlink:title="ZendDbSchema_Db_Schema\l_AbstractEntity\\_save">
<polygon fill="white" stroke="black" points="182,-104 182,-138 328,-138 328,-104 182,-104"/>
<text text-anchor="start" x="190" y="-125" font-family="Helvetica,sans-Serif" font-size="10.00">ZendDbSchema_Db_Schema</text>
<text text-anchor="middle" x="255" y="-112" font-family="Helvetica,sans-Serif" font-size="10.00">_AbstractEntity\_save</text>
</a>
</g>
<!-- Node1&#45;&gt;Node7 -->
<g id="edge14" class="edge"><title>Node1&#45;&gt;Node7</title>
<path fill="none" stroke="midnightblue" d="M110.048,-177.885C131.007,-168.405 157.791,-156.627 182,-147 186.454,-145.229 191.081,-143.447 195.749,-141.692"/>
<polygon fill="midnightblue" stroke="midnightblue" points="197.179,-144.895 205.341,-138.14 194.748,-138.331 197.179,-144.895"/>
</g>
<!-- Node8 -->
<g id="node16" class="node"><title>Node8</title>
<a xlink:href="classZendDbSchema__Db__Schema__AbstractEntity.html#a7ddb87869e3021260c12bb57df4ba8c1" target="_top" xlink:title="ZendDbSchema_Db_Schema\l_AbstractEntity\\exec">
<polygon fill="white" stroke="black" points="182,-52 182,-86 328,-86 328,-52 182,-52"/>
<text text-anchor="start" x="190" y="-73" font-family="Helvetica,sans-Serif" font-size="10.00">ZendDbSchema_Db_Schema</text>
<text text-anchor="middle" x="255" y="-60" font-family="Helvetica,sans-Serif" font-size="10.00">_AbstractEntity\exec</text>
</a>
</g>
<!-- Node1&#45;&gt;Node8 -->
<g id="edge16" class="edge"><title>Node1&#45;&gt;Node8</title>
<path fill="none" stroke="midnightblue" d="M87.6049,-177.891C107.125,-155.971 143.725,-118.061 182,-95 184.766,-93.3337 187.654,-91.7513 190.619,-90.2517"/>
<polygon fill="midnightblue" stroke="midnightblue" points="192.121,-93.4129 199.691,-86.0004 189.151,-87.0743 192.121,-93.4129"/>
</g>
<!-- Node10 -->
<g id="node20" class="node"><title>Node10</title>
<a xlink:href="classZendDbSchema__Db__Schema__AbstractSchema.html#ada5af8e6e7a4c5407b7ca67d03900b31" target="_top" xlink:title="ZendDbSchema_Db_Schema\l_AbstractSchema\\toSql">
<polygon fill="white" stroke="black" points="182,-298 182,-332 328,-332 328,-298 182,-298"/>
<text text-anchor="start" x="190" y="-319" font-family="Helvetica,sans-Serif" font-size="10.00">ZendDbSchema_Db_Schema</text>
<text text-anchor="middle" x="255" y="-306" font-family="Helvetica,sans-Serif" font-size="10.00">_AbstractSchema\toSql</text>
</a>
</g>
<!-- Node1&#45;&gt;Node10 -->
<g id="edge20" class="edge"><title>Node1&#45;&gt;Node10</title>
<path fill="none" stroke="midnightblue" d="M99.0762,-212.193C130.971,-233.223 185.07,-268.892 220.415,-292.197"/>
<polygon fill="midnightblue" stroke="midnightblue" points="218.697,-295.256 228.972,-297.839 222.55,-289.412 218.697,-295.256"/>
</g>
<!-- Node11 -->
<g id="node23" class="node"><title>Node11</title>
<a xlink:href="classZendDbSchema__Db__Schema__AbstractSchema.html#a1680a8fd22360f74d29b641d7257a52f" target="_top" xlink:title="ZendDbSchema_Db_Schema\l_AbstractSchema\\isExist">
<polygon fill="white" stroke="black" points="371,-402 371,-436 517,-436 517,-402 371,-402"/>
<text text-anchor="start" x="379" y="-423" font-family="Helvetica,sans-Serif" font-size="10.00">ZendDbSchema_Db_Schema</text>
<text text-anchor="middle" x="444" y="-410" font-family="Helvetica,sans-Serif" font-size="10.00">_AbstractSchema\isExist</text>
</a>
</g>
<!-- Node1&#45;&gt;Node11 -->
<g id="edge32" class="edge"><title>Node1&#45;&gt;Node11</title>
<path fill="none" stroke="midnightblue" d="M78.2473,-212.216C90.2056,-248.308 123.1,-331.863 182,-372 234.308,-407.645 305.648,-418.602 360.678,-421.084"/>
<polygon fill="midnightblue" stroke="midnightblue" points="360.634,-424.585 370.755,-421.453 360.89,-417.589 360.634,-424.585"/>
</g>
<!-- Node14 -->
<g id="node31" class="node"><title>Node14</title>
<a xlink:href="classZendDbSchema__Db__Schema__AbstractEntity.html#af43e389f058e86574090ef18a335e4ce" target="_top" xlink:title="ZendDbSchema_Db_Schema\l_AbstractEntity\\_postSave">
<polygon fill="white" stroke="black" points="182,-0 182,-34 328,-34 328,-0 182,-0"/>
<text text-anchor="start" x="190" y="-21" font-family="Helvetica,sans-Serif" font-size="10.00">ZendDbSchema_Db_Schema</text>
<text text-anchor="middle" x="255" y="-8" font-family="Helvetica,sans-Serif" font-size="10.00">_AbstractEntity\_postSave</text>
</a>
</g>
<!-- Node1&#45;&gt;Node14 -->
<g id="edge34" class="edge"><title>Node1&#45;&gt;Node14</title>
<path fill="none" stroke="midnightblue" d="M80.9301,-177.794C96.164,-146.558 132.453,-80.3088 182,-43 183.834,-41.6192 185.747,-40.3069 187.722,-39.0602"/>
<polygon fill="midnightblue" stroke="midnightblue" points="189.712,-41.9569 196.713,-34.0047 186.281,-35.8553 189.712,-41.9569"/>
</g>
<!-- Node15 -->
<g id="node33" class="node"><title>Node15</title>
<a xlink:href="classZendDbSchema__Db__Schema__AbstractSchema.html#a55787c21deddba427842809d589c2df6" target="_top" xlink:title="ZendDbSchema_Db_Schema\l_AbstractSchema\\getName">
<polygon fill="white" stroke="black" points="786,-201 786,-235 932,-235 932,-201 786,-201"/>
<text text-anchor="start" x="794" y="-222" font-family="Helvetica,sans-Serif" font-size="10.00">ZendDbSchema_Db_Schema</text>
<text text-anchor="middle" x="859" y="-209" font-family="Helvetica,sans-Serif" font-size="10.00">_AbstractSchema\getName</text>
</a>
</g>
<!-- Node1&#45;&gt;Node15 -->
<g id="edge36" class="edge"><title>Node1&#45;&gt;Node15</title>
<path fill="none" stroke="midnightblue" d="M146.287,-197.776C158.223,-198.203 170.455,-198.626 182,-199 395.967,-205.928 648.022,-212.612 775.76,-215.895"/>
<polygon fill="midnightblue" stroke="midnightblue" points="775.775,-219.396 785.861,-216.154 775.954,-212.399 775.775,-219.396"/>
</g>
<!-- Node16 -->
<g id="node36" class="node"><title>Node16</title>
<a xlink:href="classZendDbSchema__Db__Schema__AbstractEntity.html#abee9675e11d86dace1abed3d94a0fda1" target="_top" xlink:title="ZendDbSchema_Db_Schema\l_AbstractEntity\\refresh">
<polygon fill="white" stroke="black" points="182,-156 182,-190 328,-190 328,-156 182,-156"/>
<text text-anchor="start" x="190" y="-177" font-family="Helvetica,sans-Serif" font-size="10.00">ZendDbSchema_Db_Schema</text>
<text text-anchor="middle" x="255" y="-164" font-family="Helvetica,sans-Serif" font-size="10.00">_AbstractEntity\refresh</text>
</a>
</g>
<!-- Node1&#45;&gt;Node16 -->
<g id="edge40" class="edge"><title>Node1&#45;&gt;Node16</title>
<path fill="none" stroke="midnightblue" d="M146.24,-186.147C154.688,-185.126 163.349,-184.079 171.916,-183.043"/>
<polygon fill="midnightblue" stroke="midnightblue" points="172.403,-186.51 181.91,-181.835 171.562,-179.56 172.403,-186.51"/>
</g>
<!-- Node3 -->
<g id="node5" class="node"><title>Node3</title>
<a xlink:href="classZendDbSchema__Db__Schema__AbstractSchema.html#a46da7a60c7e5fd605607afbc1dac4baa" target="_top" xlink:title="ZendDbSchema_Db_Schema\l_AbstractSchema\\getCleanSchema">
<polygon fill="white" stroke="black" points="560.5,-398 560.5,-432 733.5,-432 733.5,-398 560.5,-398"/>
<text text-anchor="start" x="568.5" y="-419" font-family="Helvetica,sans-Serif" font-size="10.00">ZendDbSchema_Db_Schema</text>
<text text-anchor="middle" x="647" y="-406" font-family="Helvetica,sans-Serif" font-size="10.00">_AbstractSchema\getCleanSchema</text>
</a>
</g>
<!-- Node2&#45;&gt;Node3 -->
<g id="edge4" class="edge"><title>Node2&#45;&gt;Node3</title>
<path fill="none" stroke="midnightblue" d="M516.142,-384.058C531.997,-387.807 548.897,-391.803 565.104,-395.636"/>
<polygon fill="midnightblue" stroke="midnightblue" points="564.553,-399.102 575.091,-397.997 566.164,-392.29 564.553,-399.102"/>
</g>
<!-- Node5 -->
<g id="node9" class="node"><title>Node5</title>
<a xlink:href="classZendDbSchema__Db__Schema__AbstractSchema.html#ac4e121ba7932163eb1950fabe06fb9db" target="_top" xlink:title="ZendDbSchema_Db_Schema\l_AbstractSchema\\__isset">
<polygon fill="white" stroke="black" points="1166,-327 1166,-361 1312,-361 1312,-327 1166,-327"/>
<text text-anchor="start" x="1174" y="-348" font-family="Helvetica,sans-Serif" font-size="10.00">ZendDbSchema_Db_Schema</text>
<text text-anchor="middle" x="1239" y="-335" font-family="Helvetica,sans-Serif" font-size="10.00">_AbstractSchema\__isset</text>
</a>
</g>
<!-- Node2&#45;&gt;Node5 -->
<g id="edge8" class="edge"><title>Node2&#45;&gt;Node5</title>
<path fill="none" stroke="midnightblue" d="M517.105,-365.191C642.513,-362.039 906.723,-355.189 1130,-348 1138.3,-347.733 1146.95,-347.44 1155.59,-347.138"/>
<polygon fill="midnightblue" stroke="midnightblue" points="1155.84,-350.631 1165.71,-346.78 1155.6,-343.636 1155.84,-350.631"/>
</g>
<!-- Node6 -->
<g id="node11" class="node"><title>Node6</title>
<a xlink:href="classZendDbSchema__Db__Schema__AbstractSchema.html#a54d32c6f15463eaad2321a9f0e7225d7" target="_top" xlink:title="ZendDbSchema_Db_Schema\l_AbstractSchema\\__get">
<polygon fill="white" stroke="black" points="984,-305 984,-339 1130,-339 1130,-305 984,-305"/>
<text text-anchor="start" x="992" y="-326" font-family="Helvetica,sans-Serif" font-size="10.00">ZendDbSchema_Db_Schema</text>
<text text-anchor="middle" x="1057" y="-313" font-family="Helvetica,sans-Serif" font-size="10.00">_AbstractSchema\__get</text>
</a>
</g>
<!-- Node2&#45;&gt;Node6 -->
<g id="edge10" class="edge"><title>Node2&#45;&gt;Node6</title>
<path fill="none" stroke="midnightblue" d="M517.26,-357.507C531.425,-355.856 546.163,-354.266 560,-353 705.098,-339.73 874.554,-330.497 973.41,-325.736"/>
<polygon fill="midnightblue" stroke="midnightblue" points="973.814,-329.221 983.636,-325.248 973.48,-322.229 973.814,-329.221"/>
</g>
<!-- Node4 -->
<g id="node7" class="node"><title>Node4</title>
<a xlink:href="classZendDbSchema__Db__Schema__AbstractSchema.html#af99e5bb9adfe0da8c94d3d3848efe7b5" target="_top" xlink:title="ZendDbSchema_Db_Schema\l_AbstractSchema\\_getCleanSchema">
<polygon fill="white" stroke="black" points="770,-398 770,-432 948,-432 948,-398 770,-398"/>
<text text-anchor="start" x="778" y="-419" font-family="Helvetica,sans-Serif" font-size="10.00">ZendDbSchema_Db_Schema</text>
<text text-anchor="middle" x="859" y="-406" font-family="Helvetica,sans-Serif" font-size="10.00">_AbstractSchema\_getCleanSchema</text>
</a>
</g>
<!-- Node3&#45;&gt;Node4 -->
<g id="edge6" class="edge"><title>Node3&#45;&gt;Node4</title>
<path fill="none" stroke="midnightblue" d="M733.534,-415C742.175,-415 750.994,-415 759.752,-415"/>
<polygon fill="midnightblue" stroke="midnightblue" points="759.99,-418.5 769.99,-415 759.99,-411.5 759.99,-418.5"/>
</g>
<!-- Node6&#45;&gt;Node5 -->
<g id="edge12" class="edge"><title>Node6&#45;&gt;Node5</title>
<path fill="none" stroke="midnightblue" d="M1130.24,-330.853C1138.69,-331.874 1147.35,-332.921 1155.92,-333.957"/>
<polygon fill="midnightblue" stroke="midnightblue" points="1155.56,-337.44 1165.91,-335.165 1156.4,-330.49 1155.56,-337.44"/>
</g>
<!-- Node9 -->
<g id="node18" class="node"><title>Node9</title>
<a xlink:href="classZendDbSchema__Db__Schema__AbstractEntity.html#ad6dfc39cc6d92633fd92170db18c9573" target="_top" xlink:title="ZendDbSchema_Db_Schema\l_AbstractEntity\\getAdapter">
<polygon fill="white" stroke="black" points="371,-52 371,-86 517,-86 517,-52 371,-52"/>
<text text-anchor="start" x="379" y="-73" font-family="Helvetica,sans-Serif" font-size="10.00">ZendDbSchema_Db_Schema</text>
<text text-anchor="middle" x="444" y="-60" font-family="Helvetica,sans-Serif" font-size="10.00">_AbstractEntity\getAdapter</text>
</a>
</g>
<!-- Node8&#45;&gt;Node9 -->
<g id="edge18" class="edge"><title>Node8&#45;&gt;Node9</title>
<path fill="none" stroke="midnightblue" d="M328.072,-69C338.699,-69 349.708,-69 360.521,-69"/>
<polygon fill="midnightblue" stroke="midnightblue" points="360.81,-72.5001 370.81,-69 360.81,-65.5001 360.81,-72.5001"/>
</g>
<!-- Node10&#45;&gt;Node2 -->
<g id="edge22" class="edge"><title>Node10&#45;&gt;Node2</title>
<path fill="none" stroke="midnightblue" d="M316.886,-332.027C334.589,-336.898 354.034,-342.247 372.274,-347.266"/>
<polygon fill="midnightblue" stroke="midnightblue" points="371.405,-350.657 381.975,-349.935 373.262,-343.908 371.405,-350.657"/>
</g>
<!-- Node10&#45;&gt;Node11 -->
<g id="edge24" class="edge"><title>Node10&#45;&gt;Node11</title>
<path fill="none" stroke="midnightblue" d="M275.075,-332.275C296.068,-349.614 330.559,-376.111 364,-393 367.564,-394.8 371.28,-396.512 375.074,-398.135"/>
<polygon fill="midnightblue" stroke="midnightblue" points="374.041,-401.492 384.625,-401.983 376.657,-394.999 374.041,-401.492"/>
</g>
<!-- Node12 -->
<g id="node26" class="node"><title>Node12</title>
<a xlink:href="classZendDbSchema__Db__Schema__AbstractSchema.html#a2b880c7261b3f4b988f1a2b74e188c75" target="_top" xlink:title="ZendDbSchema_Db_Schema\l_AbstractSchema\\_getAlterSql">
<polygon fill="white" stroke="black" points="368.5,-246 368.5,-280 519.5,-280 519.5,-246 368.5,-246"/>
<text text-anchor="start" x="376.5" y="-267" font-family="Helvetica,sans-Serif" font-size="10.00">ZendDbSchema_Db_Schema</text>
<text text-anchor="middle" x="444" y="-254" font-family="Helvetica,sans-Serif" font-size="10.00">_AbstractSchema\_getAlterSql</text>
</a>
</g>
<!-- Node10&#45;&gt;Node12 -->
<g id="edge28" class="edge"><title>Node10&#45;&gt;Node12</title>
<path fill="none" stroke="midnightblue" d="M316.886,-297.973C334.589,-293.102 354.034,-287.753 372.274,-282.734"/>
<polygon fill="midnightblue" stroke="midnightblue" points="373.262,-286.092 381.975,-280.065 371.405,-279.343 373.262,-286.092"/>
</g>
<!-- Node13 -->
<g id="node28" class="node"><title>Node13</title>
<a xlink:href="classZendDbSchema__Db__Schema__AbstractSchema.html#a52321b7526257809f382a28a96ab562e" target="_top" xlink:title="ZendDbSchema_Db_Schema\l_AbstractSchema\\_getCreateSql">
<polygon fill="white" stroke="black" points="364,-298 364,-332 524,-332 524,-298 364,-298"/>
<text text-anchor="start" x="372" y="-319" font-family="Helvetica,sans-Serif" font-size="10.00">ZendDbSchema_Db_Schema</text>
<text text-anchor="middle" x="444" y="-306" font-family="Helvetica,sans-Serif" font-size="10.00">_AbstractSchema\_getCreateSql</text>
</a>
</g>
<!-- Node10&#45;&gt;Node13 -->
<g id="edge30" class="edge"><title>Node10&#45;&gt;Node13</title>
<path fill="none" stroke="midnightblue" d="M328.072,-315C336.509,-315 345.186,-315 353.815,-315"/>
<polygon fill="midnightblue" stroke="midnightblue" points="353.906,-318.5 363.906,-315 353.906,-311.5 353.906,-318.5"/>
</g>
<!-- Node11&#45;&gt;Node3 -->
<g id="edge26" class="edge"><title>Node11&#45;&gt;Node3</title>
<path fill="none" stroke="midnightblue" d="M517.001,-417.562C527.792,-417.349 539.051,-417.127 550.234,-416.907"/>
<polygon fill="midnightblue" stroke="midnightblue" points="550.537,-420.402 560.466,-416.705 550.399,-413.403 550.537,-420.402"/>
</g>
<!-- Node15&#45;&gt;Node6 -->
<g id="edge38" class="edge"><title>Node15&#45;&gt;Node6</title>
<path fill="none" stroke="midnightblue" d="M891.696,-235.173C925.617,-252.991 978.759,-280.904 1015.59,-300.251"/>
<polygon fill="midnightblue" stroke="midnightblue" points="1014.1,-303.422 1024.58,-304.974 1017.36,-297.225 1014.1,-303.422"/>
</g>
<!-- Node17 -->
<g id="node38" class="node"><title>Node17</title>
<a xlink:href="classZendDbSchema__Db__Schema__AbstractEntity.html#aa35a80275bd3c811dd8ad39835a985a9" target="_top" xlink:title="ZendDbSchema_Db_Schema\l_AbstractEntity\\reload">
<polygon fill="white" stroke="black" points="371,-156 371,-190 517,-190 517,-156 371,-156"/>
<text text-anchor="start" x="379" y="-177" font-family="Helvetica,sans-Serif" font-size="10.00">ZendDbSchema_Db_Schema</text>
<text text-anchor="middle" x="444" y="-164" font-family="Helvetica,sans-Serif" font-size="10.00">_AbstractEntity\reload</text>
</a>
</g>
<!-- Node16&#45;&gt;Node17 -->
<g id="edge42" class="edge"><title>Node16&#45;&gt;Node17</title>
<path fill="none" stroke="midnightblue" d="M328.072,-173C338.699,-173 349.708,-173 360.521,-173"/>
<polygon fill="midnightblue" stroke="midnightblue" points="360.81,-176.5 370.81,-173 360.81,-169.5 360.81,-176.5"/>
</g>
<!-- Node18 -->
<g id="node40" class="node"><title>Node18</title>
<a xlink:href="classZendDbSchema__Db__Schema__AbstractSchema.html#adacb1417b461310c5c87f72c459c1985" target="_top" xlink:title="ZendDbSchema_Db_Schema\l_AbstractSchema\\getOriginName">
<polygon fill="white" stroke="black" points="565.5,-156 565.5,-190 728.5,-190 728.5,-156 565.5,-156"/>
<text text-anchor="start" x="573.5" y="-177" font-family="Helvetica,sans-Serif" font-size="10.00">ZendDbSchema_Db_Schema</text>
<text text-anchor="middle" x="647" y="-164" font-family="Helvetica,sans-Serif" font-size="10.00">_AbstractSchema\getOriginName</text>
</a>
</g>
<!-- Node17&#45;&gt;Node18 -->
<g id="edge44" class="edge"><title>Node17&#45;&gt;Node18</title>
<path fill="none" stroke="midnightblue" d="M517.001,-173C529.378,-173 542.371,-173 555.157,-173"/>
<polygon fill="midnightblue" stroke="midnightblue" points="555.352,-176.5 565.352,-173 555.352,-169.5 555.352,-176.5"/>
</g>
<!-- Node19 -->
<g id="node43" class="node"><title>Node19</title>
<a xlink:href="classZendDbSchema__Db__Schema__AbstractEntity.html#ab317ba1e66cc14d78922314962f7d0ff" target="_top" xlink:title="ZendDbSchema_Db_Schema\l_AbstractEntity\\_doReload">
<polygon fill="white" stroke="black" points="574,-104 574,-138 720,-138 720,-104 574,-104"/>
<text text-anchor="start" x="582" y="-125" font-family="Helvetica,sans-Serif" font-size="10.00">ZendDbSchema_Db_Schema</text>
<text text-anchor="middle" x="647" y="-112" font-family="Helvetica,sans-Serif" font-size="10.00">_AbstractEntity\_doReload</text>
</a>
</g>
<!-- Node17&#45;&gt;Node19 -->
<g id="edge48" class="edge"><title>Node17&#45;&gt;Node19</title>
<path fill="none" stroke="midnightblue" d="M510.47,-155.973C529.66,-151.058 550.755,-145.654 570.503,-140.595"/>
<polygon fill="midnightblue" stroke="midnightblue" points="571.562,-143.937 580.381,-138.065 569.825,-137.156 571.562,-143.937"/>
</g>
<!-- Node18&#45;&gt;Node15 -->
<g id="edge46" class="edge"><title>Node18&#45;&gt;Node15</title>
<path fill="none" stroke="midnightblue" d="M727.148,-190.013C743.073,-193.393 759.827,-196.949 775.849,-200.35"/>
<polygon fill="midnightblue" stroke="midnightblue" points="775.208,-203.792 785.717,-202.445 776.662,-196.944 775.208,-203.792"/>
</g>
</g>
</svg>
