<?xml version="1.0" encoding="UTF-8" standalone="no"?>
<!DOCTYPE svg PUBLIC "-//W3C//DTD SVG 1.1//EN"
 "http://www.w3.org/Graphics/SVG/1.1/DTD/svg11.dtd">
<!-- Generated by graphviz version 2.26.3 (20100126.1600)
 -->
<!-- Title: G Pages: 1 -->
<svg width="940pt" height="506pt"
 viewBox="0.00 0.00 940.00 506.00" xmlns="http://www.w3.org/2000/svg" xmlns:xlink="http://www.w3.org/1999/xlink">
<g id="graph1" class="graph" transform="scale(1 1) rotate(0) translate(4 502)">
<title>G</title>
<polygon fill="white" stroke="white" points="-4,5 -4,-502 937,-502 937,5 -4,5"/>
<!-- Node1 -->
<g id="node1" class="node"><title>Node1</title>
<polygon fill="#bfbfbf" stroke="black" points="0.5,-238.5 0.5,-259.5 257.5,-259.5 257.5,-238.5 0.5,-238.5"/>
<text text-anchor="middle" x="129" y="-246.5" font-family="Helvetica,sans-Serif" font-size="10.00">ZendDbSchema_Db_Schema_AbstractSchema\isExist</text>
</g>
<!-- Node2 -->
<g id="node3" class="node"><title>Node2</title>
<a xlink:href="classZendDbSchema__Db__Schema__Generator__Mysql.html#a57a5e637e2c19faee40597d96d6b71b3" target="_top" xlink:title="ZendDbSchema_Db_Schema_Generator_Mysql\\alterColumn">
<polygon fill="white" stroke="black" points="312.5,-476.5 312.5,-497.5 593.5,-497.5 593.5,-476.5 312.5,-476.5"/>
<text text-anchor="middle" x="453" y="-484.5" font-family="Helvetica,sans-Serif" font-size="10.00">ZendDbSchema_Db_Schema_Generator_Mysql\alterColumn</text>
</a>
</g>
<!-- Node1&#45;&gt;Node2 -->
<g id="edge2" class="edge"><title>Node1&#45;&gt;Node2</title>
<path fill="none" stroke="midnightblue" d="M137.442,-268.933C157.349,-313.195 211.82,-419.507 294,-467 300.383,-470.689 307.149,-473.829 314.149,-476.493"/>
<polygon fill="midnightblue" stroke="midnightblue" points="140.547,-267.298 133.325,-259.546 134.137,-270.11 140.547,-267.298"/>
</g>
<!-- Node3 -->
<g id="node5" class="node"><title>Node3</title>
<a xlink:href="classZendDbSchema__Db__Schema__Generator__Mysql.html#a5ffe10ce956b3e189c364d2bd03acf88" target="_top" xlink:title="ZendDbSchema_Db_Schema_Generator_Mysql\\alterDatabase">
<polygon fill="white" stroke="black" points="308,-436.5 308,-457.5 598,-457.5 598,-436.5 308,-436.5"/>
<text text-anchor="middle" x="453" y="-444.5" font-family="Helvetica,sans-Serif" font-size="10.00">ZendDbSchema_Db_Schema_Generator_Mysql\alterDatabase</text>
</a>
</g>
<!-- Node1&#45;&gt;Node3 -->
<g id="edge4" class="edge"><title>Node1&#45;&gt;Node3</title>
<path fill="none" stroke="midnightblue" d="M140.363,-268.394C163.713,-306.256 221.08,-389.573 294,-427 301.178,-430.684 308.77,-433.79 316.59,-436.402"/>
<polygon fill="midnightblue" stroke="midnightblue" points="143.338,-266.551 135.17,-259.803 137.348,-270.172 143.338,-266.551"/>
</g>
<!-- Node4 -->
<g id="node7" class="node"><title>Node4</title>
<a xlink:href="classZendDbSchema__Db__Schema__Generator__Mysql.html#a16b347a1c95888775b09d14505bae2b2" target="_top" xlink:title="ZendDbSchema_Db_Schema_Generator_Mysql\\alterForeignKey">
<polygon fill="white" stroke="black" points="304.5,-396.5 304.5,-417.5 601.5,-417.5 601.5,-396.5 304.5,-396.5"/>
<text text-anchor="middle" x="453" y="-404.5" font-family="Helvetica,sans-Serif" font-size="10.00">ZendDbSchema_Db_Schema_Generator_Mysql\alterForeignKey</text>
</a>
</g>
<!-- Node1&#45;&gt;Node4 -->
<g id="edge6" class="edge"><title>Node1&#45;&gt;Node4</title>
<path fill="none" stroke="midnightblue" d="M144.381,-267.405C171.207,-298.082 229.846,-359.054 294,-387 302.672,-390.778 311.846,-393.905 321.234,-396.487"/>
<polygon fill="midnightblue" stroke="midnightblue" points="146.852,-264.911 137.68,-259.608 141.544,-269.474 146.852,-264.911"/>
</g>
<!-- Node5 -->
<g id="node9" class="node"><title>Node5</title>
<a xlink:href="classZendDbSchema__Db__Schema__Generator__Mysql.html#aebe278ab07f38d58f8f440f9cad01565" target="_top" xlink:title="ZendDbSchema_Db_Schema_Generator_Mysql\\alterTable">
<polygon fill="white" stroke="black" points="317,-356.5 317,-377.5 589,-377.5 589,-356.5 317,-356.5"/>
<text text-anchor="middle" x="453" y="-364.5" font-family="Helvetica,sans-Serif" font-size="10.00">ZendDbSchema_Db_Schema_Generator_Mysql\alterTable</text>
</a>
</g>
<!-- Node1&#45;&gt;Node5 -->
<g id="edge8" class="edge"><title>Node1&#45;&gt;Node5</title>
<path fill="none" stroke="midnightblue" d="M150.726,-265.934C180.976,-288.531 238.356,-327.907 294,-347 305.184,-350.838 317.037,-353.952 329.028,-356.478"/>
<polygon fill="midnightblue" stroke="midnightblue" points="152.673,-263.018 142.588,-259.769 148.445,-268.598 152.673,-263.018"/>
</g>
<!-- Node6 -->
<g id="node11" class="node"><title>Node6</title>
<a xlink:href="classZendDbSchema__Db__Schema__Generator__Mysql.html#a5546e56c0c78f9c9d3e830fb5ffcd72d" target="_top" xlink:title="ZendDbSchema_Db_Schema_Generator_Mysql\\createIndex">
<polygon fill="white" stroke="black" points="313,-316.5 313,-337.5 593,-337.5 593,-316.5 313,-316.5"/>
<text text-anchor="middle" x="453" y="-324.5" font-family="Helvetica,sans-Serif" font-size="10.00">ZendDbSchema_Db_Schema_Generator_Mysql\createIndex</text>
</a>
</g>
<!-- Node1&#45;&gt;Node6 -->
<g id="edge10" class="edge"><title>Node1&#45;&gt;Node6</title>
<path fill="none" stroke="midnightblue" d="M166.97,-263.051C200.111,-274.866 249.699,-291.469 294,-302 318.603,-307.848 345.682,-312.686 370.411,-316.497"/>
<polygon fill="midnightblue" stroke="midnightblue" points="167.831,-259.641 157.237,-259.55 165.462,-266.228 167.831,-259.641"/>
</g>
<!-- Node8 -->
<g id="node15" class="node"><title>Node8</title>
<a xlink:href="classZendDbSchema__Db__Schema__AbstractEntity.html#a26fcff2268495fcdbfa265f394ee93d9" target="_top" xlink:title="ZendDbSchema_Db_Schema_AbstractEntity\\delete">
<polygon fill="white" stroke="black" points="668.5,-237.5 668.5,-258.5 911.5,-258.5 911.5,-237.5 668.5,-237.5"/>
<text text-anchor="middle" x="790" y="-245.5" font-family="Helvetica,sans-Serif" font-size="10.00">ZendDbSchema_Db_Schema_AbstractEntity\delete</text>
</a>
</g>
<!-- Node1&#45;&gt;Node8 -->
<g id="edge14" class="edge"><title>Node1&#45;&gt;Node8</title>
<path fill="none" stroke="midnightblue" d="M210.331,-260.834C236.936,-264.176 266.672,-267.35 294,-269 435.076,-277.519 470.91,-277.294 612,-269 646.791,-266.955 685.21,-262.68 717.424,-258.517"/>
<polygon fill="midnightblue" stroke="midnightblue" points="210.663,-257.348 200.3,-259.548 209.773,-264.291 210.663,-257.348"/>
</g>
<!-- Node9 -->
<g id="node17" class="node"><title>Node9</title>
<a xlink:href="classZendDbSchema__Db__Schema__Generator__Mysql.html#ab3c87af9fdc6ba8d911b1162a67dc0be" target="_top" xlink:title="ZendDbSchema_Db_Schema_Generator_Mysql\\dropDatabase">
<polygon fill="white" stroke="black" points="308,-238.5 308,-259.5 598,-259.5 598,-238.5 308,-238.5"/>
<text text-anchor="middle" x="453" y="-246.5" font-family="Helvetica,sans-Serif" font-size="10.00">ZendDbSchema_Db_Schema_Generator_Mysql\dropDatabase</text>
</a>
</g>
<!-- Node1&#45;&gt;Node9 -->
<g id="edge16" class="edge"><title>Node1&#45;&gt;Node9</title>
<path fill="none" stroke="midnightblue" d="M267.639,-249C280.936,-249 294.448,-249 307.805,-249"/>
<polygon fill="midnightblue" stroke="midnightblue" points="267.519,-245.5 257.519,-249 267.519,-252.5 267.519,-245.5"/>
</g>
<!-- Node10 -->
<g id="node19" class="node"><title>Node10</title>
<a xlink:href="classZendDbSchema__Db__Schema__Generator__Mysql.html#a963a138b593e5e9e3a6b9a8e540a4a10" target="_top" xlink:title="ZendDbSchema_Db_Schema_Generator_Mysql\\dropTable">
<polygon fill="white" stroke="black" points="317,-198.5 317,-219.5 589,-219.5 589,-198.5 317,-198.5"/>
<text text-anchor="middle" x="453" y="-206.5" font-family="Helvetica,sans-Serif" font-size="10.00">ZendDbSchema_Db_Schema_Generator_Mysql\dropTable</text>
</a>
</g>
<!-- Node1&#45;&gt;Node10 -->
<g id="edge18" class="edge"><title>Node1&#45;&gt;Node10</title>
<path fill="none" stroke="midnightblue" d="M224.295,-237.235C269.786,-231.619 323.78,-224.953 367.879,-219.509"/>
<polygon fill="midnightblue" stroke="midnightblue" points="223.623,-233.791 214.127,-238.49 224.481,-240.739 223.623,-233.791"/>
</g>
<!-- Node11 -->
<g id="node21" class="node"><title>Node11</title>
<a xlink:href="classZendDbSchema__Db__Schema__AbstractSchema.html#aec661ede88f500caaf2a09e98c31d3b0" target="_top" xlink:title="ZendDbSchema_Db_Schema_AbstractSchema\\getDropSql">
<polygon fill="white" stroke="black" points="315,-158.5 315,-179.5 591,-179.5 591,-158.5 315,-158.5"/>
<text text-anchor="middle" x="453" y="-166.5" font-family="Helvetica,sans-Serif" font-size="10.00">ZendDbSchema_Db_Schema_AbstractSchema\getDropSql</text>
</a>
</g>
<!-- Node1&#45;&gt;Node11 -->
<g id="edge20" class="edge"><title>Node1&#45;&gt;Node11</title>
<path fill="none" stroke="midnightblue" d="M162.358,-234.361C195.214,-220.547 247.144,-200.315 294,-189 309.821,-185.179 326.714,-182.061 343.363,-179.522"/>
<polygon fill="midnightblue" stroke="midnightblue" points="160.634,-231.291 152.801,-238.425 163.373,-237.732 160.634,-231.291"/>
</g>
<!-- Node13 -->
<g id="node26" class="node"><title>Node13</title>
<a xlink:href="classZendDbSchema__Db__Schema__Table__AbstractDefinition.html#a018fe3e134417675da482608579910a5" target="_top" xlink:title="ZendDbSchema_Db_Schema_Table_AbstractDefinition\\markDeleted">
<polygon fill="white" stroke="black" points="294.5,-118.5 294.5,-139.5 611.5,-139.5 611.5,-118.5 294.5,-118.5"/>
<text text-anchor="middle" x="453" y="-126.5" font-family="Helvetica,sans-Serif" font-size="10.00">ZendDbSchema_Db_Schema_Table_AbstractDefinition\markDeleted</text>
</a>
</g>
<!-- Node1&#45;&gt;Node13 -->
<g id="edge26" class="edge"><title>Node1&#45;&gt;Node13</title>
<path fill="none" stroke="midnightblue" d="M150.2,-232.064C180.253,-209.054 237.856,-168.545 294,-149 305.036,-145.158 316.73,-142.039 328.57,-139.508"/>
<polygon fill="midnightblue" stroke="midnightblue" points="147.884,-229.432 142.133,-238.33 152.178,-234.96 147.884,-229.432"/>
</g>
<!-- Node14 -->
<g id="node28" class="node"><title>Node14</title>
<a xlink:href="classZendDbSchema__Db__Schema__AbstractEntity.html#a5b1c93da76c3708f90d330b4643e55b2" target="_top" xlink:title="ZendDbSchema_Db_Schema_AbstractEntity\\save">
<polygon fill="white" stroke="black" points="671,-60.5 671,-81.5 909,-81.5 909,-60.5 671,-60.5"/>
<text text-anchor="middle" x="790" y="-68.5" font-family="Helvetica,sans-Serif" font-size="10.00">ZendDbSchema_Db_Schema_AbstractEntity\save</text>
</a>
</g>
<!-- Node1&#45;&gt;Node14 -->
<g id="edge28" class="edge"><title>Node1&#45;&gt;Node14</title>
<path fill="none" stroke="midnightblue" d="M143.789,-230.447C170.127,-198.968 228.574,-135.897 294,-109 359.799,-81.9501 546.332,-73.9782 670.95,-71.7319"/>
<polygon fill="midnightblue" stroke="midnightblue" points="140.874,-228.482 137.233,-238.432 146.284,-232.925 140.874,-228.482"/>
</g>
<!-- Node15 -->
<g id="node30" class="node"><title>Node15</title>
<a xlink:href="classZendDbSchema__Db__Schema__Table.html#a6178edaeea7e08d97e2196dd991532f9" target="_top" xlink:title="ZendDbSchema_Db_Schema_Table\\toSql">
<polygon fill="white" stroke="black" points="352.5,-40.5 352.5,-61.5 553.5,-61.5 553.5,-40.5 352.5,-40.5"/>
<text text-anchor="middle" x="453" y="-48.5" font-family="Helvetica,sans-Serif" font-size="10.00">ZendDbSchema_Db_Schema_Table\toSql</text>
</a>
</g>
<!-- Node1&#45;&gt;Node15 -->
<g id="edge30" class="edge"><title>Node1&#45;&gt;Node15</title>
<path fill="none" stroke="midnightblue" d="M141.253,-229.348C165.428,-192.436 223.124,-113.125 294,-76 311.822,-66.6646 332.197,-60.6029 352.278,-56.7118"/>
<polygon fill="midnightblue" stroke="midnightblue" points="138.048,-227.862 135.589,-238.168 143.938,-231.644 138.048,-227.862"/>
</g>
<!-- Node16 -->
<g id="node32" class="node"><title>Node16</title>
<a xlink:href="classZendDbSchema__Db__Schema__AbstractSchema.html#ada5af8e6e7a4c5407b7ca67d03900b31" target="_top" xlink:title="ZendDbSchema_Db_Schema_AbstractSchema\\toSql">
<polygon fill="white" stroke="black" points="328,-0.5 328,-21.5 578,-21.5 578,-0.5 328,-0.5"/>
<text text-anchor="middle" x="453" y="-8.5" font-family="Helvetica,sans-Serif" font-size="10.00">ZendDbSchema_Db_Schema_AbstractSchema\toSql</text>
</a>
</g>
<!-- Node1&#45;&gt;Node16 -->
<g id="edge32" class="edge"><title>Node1&#45;&gt;Node16</title>
<path fill="none" stroke="midnightblue" d="M137.442,-229.067C157.349,-184.805 211.82,-78.4927 294,-31 304.478,-24.9444 315.987,-20.3693 327.872,-16.9464"/>
<polygon fill="midnightblue" stroke="midnightblue" points="134.137,-227.89 133.325,-238.454 140.547,-230.702 134.137,-227.89"/>
</g>
<!-- Node7 -->
<g id="node13" class="node"><title>Node7</title>
<a xlink:href="classZendDbSchema__Db__Schema__Generator__Mysql.html#a0f94d6cabe125b387efa64fc7160a9e5" target="_top" xlink:title="ZendDbSchema_Db_Schema_Generator_Mysql\\alterIndex">
<polygon fill="white" stroke="black" points="654,-316.5 654,-337.5 926,-337.5 926,-316.5 654,-316.5"/>
<text text-anchor="middle" x="790" y="-324.5" font-family="Helvetica,sans-Serif" font-size="10.00">ZendDbSchema_Db_Schema_Generator_Mysql\alterIndex</text>
</a>
</g>
<!-- Node6&#45;&gt;Node7 -->
<g id="edge12" class="edge"><title>Node6&#45;&gt;Node7</title>
<path fill="none" stroke="midnightblue" d="M603.81,-327C620.462,-327 637.347,-327 653.804,-327"/>
<polygon fill="midnightblue" stroke="midnightblue" points="603.478,-323.5 593.478,-327 603.478,-330.5 603.478,-323.5"/>
</g>
<!-- Node11&#45;&gt;Node8 -->
<g id="edge22" class="edge"><title>Node11&#45;&gt;Node8</title>
<path fill="none" stroke="midnightblue" d="M570.256,-181.113C584.393,-183.349 598.571,-185.96 612,-189 667.091,-201.47 729.268,-224.137 763.621,-237.452"/>
<polygon fill="midnightblue" stroke="midnightblue" points="570.393,-177.594 559.981,-179.551 569.341,-184.514 570.393,-177.594"/>
</g>
<!-- Node12 -->
<g id="node24" class="node"><title>Node12</title>
<a xlink:href="classZendDbSchema__Db__Schema__Table__AbstractDefinition.html#a75c1b3ef1005c2d6aa371ecef07d530d" target="_top" xlink:title="ZendDbSchema_Db_Schema_Table_AbstractDefinition\\toSql">
<polygon fill="white" stroke="black" points="648,-158.5 648,-179.5 932,-179.5 932,-158.5 648,-158.5"/>
<text text-anchor="middle" x="790" y="-166.5" font-family="Helvetica,sans-Serif" font-size="10.00">ZendDbSchema_Db_Schema_Table_AbstractDefinition\toSql</text>
</a>
</g>
<!-- Node11&#45;&gt;Node12 -->
<g id="edge24" class="edge"><title>Node11&#45;&gt;Node12</title>
<path fill="none" stroke="midnightblue" d="M601.18,-169C616.666,-169 632.384,-169 647.801,-169"/>
<polygon fill="midnightblue" stroke="midnightblue" points="601.043,-165.5 591.043,-169 601.043,-172.5 601.043,-165.5"/>
</g>
<!-- Node16&#45;&gt;Node14 -->
<g id="edge34" class="edge"><title>Node16&#45;&gt;Node14</title>
<path fill="none" stroke="midnightblue" d="M559.028,-22.8986C576.759,-25.3001 594.932,-28.0159 612,-31 659.112,-39.237 712.576,-51.6735 748.507,-60.4897"/>
<polygon fill="midnightblue" stroke="midnightblue" points="559.025,-19.3676 548.651,-21.5214 558.104,-26.3067 559.025,-19.3676"/>
</g>
<!-- Node17 -->
<g id="node35" class="node"><title>Node17</title>
<a xlink:href="classZendDbSchema__Db__Schema__AbstractSchema.html#aafc458a7c19c74314889da4a99e457ff" target="_top" xlink:title="ZendDbSchema_Db_Schema_AbstractSchema\\__toString">
<polygon fill="white" stroke="black" points="654,-0.5 654,-21.5 926,-21.5 926,-0.5 654,-0.5"/>
<text text-anchor="middle" x="790" y="-8.5" font-family="Helvetica,sans-Serif" font-size="10.00">ZendDbSchema_Db_Schema_AbstractSchema\__toString</text>
</a>
</g>
<!-- Node16&#45;&gt;Node17 -->
<g id="edge36" class="edge"><title>Node16&#45;&gt;Node17</title>
<path fill="none" stroke="midnightblue" d="M588.218,-11C609.843,-11 632.229,-11 653.874,-11"/>
<polygon fill="midnightblue" stroke="midnightblue" points="588.007,-7.5001 578.007,-11 588.007,-14.5001 588.007,-7.5001"/>
</g>
</g>
</svg>
