<?xml version="1.0" encoding="UTF-8" standalone="no"?>
<!DOCTYPE svg PUBLIC "-//W3C//DTD SVG 1.1//EN"
 "http://www.w3.org/Graphics/SVG/1.1/DTD/svg11.dtd">
<!-- Generated by graphviz version 2.26.3 (20100126.1600)
 -->
<!-- Title: G Pages: 1 -->
<svg width="596pt" height="110pt"
 viewBox="0.00 0.00 596.00 110.00" xmlns="http://www.w3.org/2000/svg" xmlns:xlink="http://www.w3.org/1999/xlink">
<g id="graph1" class="graph" transform="scale(1 1) rotate(0) translate(4 106)">
<title>G</title>
<polygon fill="white" stroke="white" points="-4,5 -4,-106 593,-106 593,5 -4,5"/>
<!-- Node1 -->
<g id="node1" class="node"><title>Node1</title>
<polygon fill="#bfbfbf" stroke="black" points="0.5,-40.5 0.5,-61.5 291.5,-61.5 291.5,-40.5 0.5,-40.5"/>
<text text-anchor="middle" x="146" y="-48.5" font-family="Helvetica,sans-Serif" font-size="10.00">ZendDbSchema_Tool_Project_Provider_Schema\_getFilename</text>
</g>
<!-- Node2 -->
<g id="node3" class="node"><title>Node2</title>
<a xlink:href="classZendDbSchema__Tool__Project__Provider__Schema.html#a5f0f3101bb7b9e252f6d6bed1ddadbe5" target="_top" xlink:title="ZendDbSchema_Tool_Project_Provider_Schema\\pull">
<polygon fill="white" stroke="black" points="334,-80.5 334,-101.5 582,-101.5 582,-80.5 334,-80.5"/>
<text text-anchor="middle" x="458" y="-88.5" font-family="Helvetica,sans-Serif" font-size="10.00">ZendDbSchema_Tool_Project_Provider_Schema\pull</text>
</a>
</g>
<!-- Node1&#45;&gt;Node2 -->
<g id="edge2" class="edge"><title>Node1&#45;&gt;Node2</title>
<path fill="none" stroke="midnightblue" d="M238.042,-62.8002C281.79,-68.409 333.656,-75.0584 376.032,-80.4913"/>
<polygon fill="midnightblue" stroke="midnightblue" points="238.338,-59.3097 227.974,-61.5095 237.448,-66.2528 238.338,-59.3097"/>
</g>
<!-- Node3 -->
<g id="node5" class="node"><title>Node3</title>
<a xlink:href="classZendDbSchema__Tool__Project__Provider__Schema.html#aa7746bd0ed044ad415b1b7b884f7a007" target="_top" xlink:title="ZendDbSchema_Tool_Project_Provider_Schema\\push">
<polygon fill="white" stroke="black" points="331,-40.5 331,-61.5 585,-61.5 585,-40.5 331,-40.5"/>
<text text-anchor="middle" x="458" y="-48.5" font-family="Helvetica,sans-Serif" font-size="10.00">ZendDbSchema_Tool_Project_Provider_Schema\push</text>
</a>
</g>
<!-- Node1&#45;&gt;Node3 -->
<g id="edge4" class="edge"><title>Node1&#45;&gt;Node3</title>
<path fill="none" stroke="midnightblue" d="M302.022,-51C311.692,-51 321.362,-51 330.883,-51"/>
<polygon fill="midnightblue" stroke="midnightblue" points="301.952,-47.5001 291.952,-51 301.951,-54.5001 301.952,-47.5001"/>
</g>
<!-- Node4 -->
<g id="node7" class="node"><title>Node4</title>
<a xlink:href="classZendDbSchema__Tool__Project__Provider__Schema.html#a5741419511310dc38038399e9f4ac5e1" target="_top" xlink:title="ZendDbSchema_Tool_Project_Provider_Schema\\status">
<polygon fill="white" stroke="black" points="328,-0.5 328,-21.5 588,-21.5 588,-0.5 328,-0.5"/>
<text text-anchor="middle" x="458" y="-8.5" font-family="Helvetica,sans-Serif" font-size="10.00">ZendDbSchema_Tool_Project_Provider_Schema\status</text>
</a>
</g>
<!-- Node1&#45;&gt;Node4 -->
<g id="edge6" class="edge"><title>Node1&#45;&gt;Node4</title>
<path fill="none" stroke="midnightblue" d="M238.042,-39.1998C281.79,-33.591 333.656,-26.9416 376.032,-21.5087"/>
<polygon fill="midnightblue" stroke="midnightblue" points="237.448,-35.7472 227.974,-40.4905 238.338,-42.6903 237.448,-35.7472"/>
</g>
</g>
</svg>
