<?xml version="1.0" encoding="UTF-8" standalone="no"?>
<!DOCTYPE svg PUBLIC "-//W3C//DTD SVG 1.1//EN"
 "http://www.w3.org/Graphics/SVG/1.1/DTD/svg11.dtd">
<!-- Generated by graphviz version 2.26.3 (20100126.1600)
 -->
<!-- Title: G Pages: 1 -->
<svg width="790pt" height="110pt"
 viewBox="0.00 0.00 790.00 110.00" xmlns="http://www.w3.org/2000/svg" xmlns:xlink="http://www.w3.org/1999/xlink">
<g id="graph1" class="graph" transform="scale(1 1) rotate(0) translate(4 106)">
<title>G</title>
<polygon fill="white" stroke="white" points="-4,5 -4,-106 787,-106 787,5 -4,5"/>
<!-- Node1 -->
<g id="node1" class="node"><title>Node1</title>
<polygon fill="#bfbfbf" stroke="black" points="0.5,-60.5 0.5,-81.5 219.5,-81.5 219.5,-60.5 0.5,-60.5"/>
<text text-anchor="middle" x="110" y="-68.5" font-family="Helvetica,sans-Serif" font-size="10.00">ZendDbSchema_Db_Migration_Manager\rollup</text>
</g>
<!-- Node2 -->
<g id="node3" class="node"><title>Node2</title>
<a xlink:href="classZendDbSchema__Db__Migration__Manager.html#acb171835d37a1596a4ac6db273bf07ae" target="_top" xlink:title="ZendDbSchema_Db_Migration_Manager\\getNext">
<polygon fill="white" stroke="black" points="263,-40.5 263,-61.5 493,-61.5 493,-40.5 263,-40.5"/>
<text text-anchor="middle" x="378" y="-48.5" font-family="Helvetica,sans-Serif" font-size="10.00">ZendDbSchema_Db_Migration_Manager\getNext</text>
</a>
</g>
<!-- Node1&#45;&gt;Node2 -->
<g id="edge2" class="edge"><title>Node1&#45;&gt;Node2</title>
<path fill="none" stroke="midnightblue" d="M219.779,-62.8075C230.625,-61.9981 241.69,-61.1724 252.677,-60.3524"/>
<polygon fill="midnightblue" stroke="midnightblue" points="253.025,-63.8363 262.737,-59.6017 252.504,-56.8557 253.025,-63.8363"/>
</g>
<!-- Node6 -->
<g id="node11" class="node"><title>Node6</title>
<a xlink:href="classZendDbSchema__Db__Migration__Manager.html#a3d4f62489e72876f97bec3cd4448979d" target="_top" xlink:title="ZendDbSchema_Db_Migration_Manager\\getChange">
<polygon fill="white" stroke="black" points="256.5,-80.5 256.5,-101.5 499.5,-101.5 499.5,-80.5 256.5,-80.5"/>
<text text-anchor="middle" x="378" y="-88.5" font-family="Helvetica,sans-Serif" font-size="10.00">ZendDbSchema_Db_Migration_Manager\getChange</text>
</a>
</g>
<!-- Node1&#45;&gt;Node6 -->
<g id="edge10" class="edge"><title>Node1&#45;&gt;Node6</title>
<path fill="none" stroke="midnightblue" d="M219.779,-79.1925C228.496,-79.843 237.355,-80.5041 246.201,-81.1643"/>
<polygon fill="midnightblue" stroke="midnightblue" points="245.942,-84.6546 256.175,-81.9086 246.463,-77.674 245.942,-84.6546"/>
</g>
<!-- Node3 -->
<g id="node5" class="node"><title>Node3</title>
<a xlink:href="classZendDbSchema__Db__Migration__Manager.html#ab66af8a9dc5cdb099b8266b68166c4e0" target="_top" xlink:title="ZendDbSchema_Db_Migration_Manager\\getVersion">
<polygon fill="white" stroke="black" points="538,-40.5 538,-61.5 780,-61.5 780,-40.5 538,-40.5"/>
<text text-anchor="middle" x="659" y="-48.5" font-family="Helvetica,sans-Serif" font-size="10.00">ZendDbSchema_Db_Migration_Manager\getVersion</text>
</a>
</g>
<!-- Node2&#45;&gt;Node3 -->
<g id="edge4" class="edge"><title>Node2&#45;&gt;Node3</title>
<path fill="none" stroke="midnightblue" d="M493.104,-51C504.475,-51 516.076,-51 527.595,-51"/>
<polygon fill="midnightblue" stroke="midnightblue" points="527.688,-54.5001 537.688,-51 527.688,-47.5001 527.688,-54.5001"/>
</g>
<!-- Node4 -->
<g id="node7" class="node"><title>Node4</title>
<a xlink:href="classZendDbSchema__Db__Migration__Manager.html#a9973d07f9ffe306e00ea2f9f4beb92e4" target="_top" xlink:title="ZendDbSchema_Db_Migration_Manager\\hasChange">
<polygon fill="white" stroke="black" points="536.5,-80.5 536.5,-101.5 781.5,-101.5 781.5,-80.5 536.5,-80.5"/>
<text text-anchor="middle" x="659" y="-88.5" font-family="Helvetica,sans-Serif" font-size="10.00">ZendDbSchema_Db_Migration_Manager\hasChange</text>
</a>
</g>
<!-- Node2&#45;&gt;Node4 -->
<g id="edge6" class="edge"><title>Node2&#45;&gt;Node4</title>
<path fill="none" stroke="midnightblue" d="M451.829,-61.5095C489.595,-66.8854 535.726,-73.4521 574.863,-79.0232"/>
<polygon fill="midnightblue" stroke="midnightblue" points="574.783,-82.547 585.176,-80.4913 575.769,-75.6169 574.783,-82.547"/>
</g>
<!-- Node5 -->
<g id="node9" class="node"><title>Node5</title>
<a xlink:href="classZendDbSchema__Db__Migration__Manager.html#a09b440110f77079a37794ccdb0922d41" target="_top" xlink:title="ZendDbSchema_Db_Migration_Manager\\getIterator">
<polygon fill="white" stroke="black" points="539,-0.5 539,-21.5 779,-21.5 779,-0.5 539,-0.5"/>
<text text-anchor="middle" x="659" y="-8.5" font-family="Helvetica,sans-Serif" font-size="10.00">ZendDbSchema_Db_Migration_Manager\getIterator</text>
</a>
</g>
<!-- Node2&#45;&gt;Node5 -->
<g id="edge8" class="edge"><title>Node2&#45;&gt;Node5</title>
<path fill="none" stroke="midnightblue" d="M451.829,-40.4905C489.595,-35.1146 535.726,-28.5479 574.863,-22.9768"/>
<polygon fill="midnightblue" stroke="midnightblue" points="575.769,-26.3831 585.176,-21.5087 574.783,-19.453 575.769,-26.3831"/>
</g>
<!-- Node6&#45;&gt;Node3 -->
<g id="edge12" class="edge"><title>Node6&#45;&gt;Node3</title>
<path fill="none" stroke="midnightblue" d="M451.829,-80.4905C489.595,-75.1146 535.726,-68.5479 574.863,-62.9768"/>
<polygon fill="midnightblue" stroke="midnightblue" points="575.769,-66.3831 585.176,-61.5087 574.783,-59.453 575.769,-66.3831"/>
</g>
<!-- Node6&#45;&gt;Node4 -->
<g id="edge14" class="edge"><title>Node6&#45;&gt;Node4</title>
<path fill="none" stroke="midnightblue" d="M499.616,-91C508.453,-91 517.392,-91 526.289,-91"/>
<polygon fill="midnightblue" stroke="midnightblue" points="526.308,-94.5001 536.308,-91 526.308,-87.5001 526.308,-94.5001"/>
</g>
</g>
</svg>
