<?xml version="1.0" encoding="UTF-8" standalone="no"?>
<!DOCTYPE svg PUBLIC "-//W3C//DTD SVG 1.1//EN"
 "http://www.w3.org/Graphics/SVG/1.1/DTD/svg11.dtd">
<!-- Generated by graphviz version 2.26.3 (20100126.1600)
 -->
<!-- Title: G Pages: 1 -->
<svg width="898pt" height="30pt"
 viewBox="0.00 0.00 898.00 30.00" xmlns="http://www.w3.org/2000/svg" xmlns:xlink="http://www.w3.org/1999/xlink">
<g id="graph1" class="graph" transform="scale(1 1) rotate(0) translate(4 26)">
<title>G</title>
<polygon fill="white" stroke="white" points="-4,5 -4,-26 895,-26 895,5 -4,5"/>
<!-- Node1 -->
<g id="node1" class="node"><title>Node1</title>
<polygon fill="#bfbfbf" stroke="black" points="0,-0.5 0,-21.5 296,-21.5 296,-0.5 0,-0.5"/>
<text text-anchor="middle" x="148" y="-8.5" font-family="Helvetica,sans-Serif" font-size="10.00">ZendDbSchema_Db_Adapter_Pdo_Mysql\showCreateDatabase</text>
</g>
<!-- Node2 -->
<g id="node3" class="node"><title>Node2</title>
<a xlink:href="classZendDbSchema__Db__Adapter__Pdo__Mysql.html#a5b5112b727eccc4b13c3a04b6b1e49ab" target="_top" xlink:title="ZendDbSchema_Db_Adapter_Pdo_Mysql\\hasDatabase">
<polygon fill="white" stroke="black" points="332.5,-0.5 332.5,-21.5 591.5,-21.5 591.5,-0.5 332.5,-0.5"/>
<text text-anchor="middle" x="462" y="-8.5" font-family="Helvetica,sans-Serif" font-size="10.00">ZendDbSchema_Db_Adapter_Pdo_Mysql\hasDatabase</text>
</a>
</g>
<!-- Node1&#45;&gt;Node2 -->
<g id="edge2" class="edge"><title>Node1&#45;&gt;Node2</title>
<path fill="none" stroke="midnightblue" d="M296.265,-11C304.939,-11 313.648,-11 322.287,-11"/>
<polygon fill="midnightblue" stroke="midnightblue" points="322.39,-14.5001 332.39,-11 322.39,-7.5001 322.39,-14.5001"/>
</g>
<!-- Node3 -->
<g id="node5" class="node"><title>Node3</title>
<a xlink:href="classZendDbSchema__Db__Adapter__Pdo__Mysql.html#afa634812c724a9fcf35aeea357707d64" target="_top" xlink:title="ZendDbSchema_Db_Adapter_Pdo_Mysql\\listDatabases">
<polygon fill="white" stroke="black" points="628.5,-0.5 628.5,-21.5 889.5,-21.5 889.5,-0.5 628.5,-0.5"/>
<text text-anchor="middle" x="759" y="-8.5" font-family="Helvetica,sans-Serif" font-size="10.00">ZendDbSchema_Db_Adapter_Pdo_Mysql\listDatabases</text>
</a>
</g>
<!-- Node2&#45;&gt;Node3 -->
<g id="edge4" class="edge"><title>Node2&#45;&gt;Node3</title>
<path fill="none" stroke="midnightblue" d="M591.836,-11C600.475,-11 609.199,-11 617.89,-11"/>
<polygon fill="midnightblue" stroke="midnightblue" points="618.069,-14.5001 628.069,-11 618.069,-7.5001 618.069,-14.5001"/>
</g>
</g>
</svg>
