<?xml version="1.0" encoding="UTF-8" standalone="no"?>
<!DOCTYPE svg PUBLIC "-//W3C//DTD SVG 1.1//EN"
 "http://www.w3.org/Graphics/SVG/1.1/DTD/svg11.dtd">
<!-- Generated by graphviz version 2.26.3 (20100126.1600)
 -->
<!-- Title: G Pages: 1 -->
<svg width="1956pt" height="1190pt"
 viewBox="0.00 0.00 1956.00 1190.00" xmlns="http://www.w3.org/2000/svg" xmlns:xlink="http://www.w3.org/1999/xlink">
<g id="graph1" class="graph" transform="scale(1 1) rotate(0) translate(4 1186)">
<title>G</title>
<polygon fill="white" stroke="white" points="-4,5 -4,-1186 1953,-1186 1953,5 -4,5"/>
<!-- Node1 -->
<g id="node1" class="node"><title>Node1</title>
<polygon fill="#bfbfbf" stroke="black" points="0.5,-960.5 0.5,-981.5 275.5,-981.5 275.5,-960.5 0.5,-960.5"/>
<text text-anchor="middle" x="138" y="-968.5" font-family="Helvetica,sans-Serif" font-size="10.00">ZendDbSchema_Db_Schema_AbstractSchema\setAdapter</text>
</g>
<!-- Node2 -->
<g id="node3" class="node"><title>Node2</title>
<a xlink:href="classZendDbSchema__Db__Schema__AbstractSchema.html#a47d95912f6bf6d26d023597887dafacb" target="_top" xlink:title="ZendDbSchema_Db_Schema_AbstractSchema\\getAdapter">
<polygon fill="white" stroke="black" points="312.5,-960.5 312.5,-981.5 587.5,-981.5 587.5,-960.5 312.5,-960.5"/>
<text text-anchor="middle" x="450" y="-968.5" font-family="Helvetica,sans-Serif" font-size="10.00">ZendDbSchema_Db_Schema_AbstractSchema\getAdapter</text>
</a>
</g>
<!-- Node1&#45;&gt;Node2 -->
<g id="edge2" class="edge"><title>Node1&#45;&gt;Node2</title>
<path fill="none" stroke="midnightblue" d="M285.977,-971C294.703,-971 303.462,-971 312.145,-971"/>
<polygon fill="midnightblue" stroke="midnightblue" points="285.756,-967.5 275.756,-971 285.756,-974.5 285.756,-967.5"/>
</g>
<!-- Node3 -->
<g id="node5" class="node"><title>Node3</title>
<a xlink:href="classZendDbSchema__Db__Schema__Database.html#a5fec6a5dbc863948512354d9cee4b7f0" target="_top" xlink:title="ZendDbSchema_Db_Schema_Database\\_doDelete">
<polygon fill="white" stroke="black" points="653.5,-1117.5 653.5,-1138.5 894.5,-1138.5 894.5,-1117.5 653.5,-1117.5"/>
<text text-anchor="middle" x="774" y="-1125.5" font-family="Helvetica,sans-Serif" font-size="10.00">ZendDbSchema_Db_Schema_Database\_doDelete</text>
</a>
</g>
<!-- Node2&#45;&gt;Node3 -->
<g id="edge4" class="edge"><title>Node2&#45;&gt;Node3</title>
<path fill="none" stroke="midnightblue" d="M466.551,-989.265C495.278,-1019.64 557.677,-1079.98 624,-1108 633.317,-1111.94 643.225,-1115.14 653.334,-1117.75"/>
<polygon fill="midnightblue" stroke="midnightblue" points="469.054,-986.817 459.678,-981.883 463.931,-991.587 469.054,-986.817"/>
</g>
<!-- Node4 -->
<g id="node7" class="node"><title>Node4</title>
<a xlink:href="classZendDbSchema__Db__Schema__Table.html#a2870bcdf57c17db72028f4e67a583fff" target="_top" xlink:title="ZendDbSchema_Db_Schema_Table\\_doDelete">
<polygon fill="white" stroke="black" points="662.5,-1077.5 662.5,-1098.5 885.5,-1098.5 885.5,-1077.5 662.5,-1077.5"/>
<text text-anchor="middle" x="774" y="-1085.5" font-family="Helvetica,sans-Serif" font-size="10.00">ZendDbSchema_Db_Schema_Table\_doDelete</text>
</a>
</g>
<!-- Node2&#45;&gt;Node4 -->
<g id="edge6" class="edge"><title>Node2&#45;&gt;Node4</title>
<path fill="none" stroke="midnightblue" d="M474.452,-987.203C507.125,-1008.07 567.48,-1043.91 624,-1063 642.384,-1069.21 662.576,-1073.91 682.023,-1077.47"/>
<polygon fill="midnightblue" stroke="midnightblue" points="476.296,-984.228 465.997,-981.742 472.498,-990.108 476.296,-984.228"/>
</g>
<!-- Node5 -->
<g id="node9" class="node"><title>Node5</title>
<a xlink:href="classZendDbSchema__Db__Schema__Database.html#aad388b374fd5913946204230760b2d86" target="_top" xlink:title="ZendDbSchema_Db_Schema_Database\\_doReload">
<polygon fill="white" stroke="black" points="987.5,-1160.5 987.5,-1181.5 1230.5,-1181.5 1230.5,-1160.5 987.5,-1160.5"/>
<text text-anchor="middle" x="1109" y="-1168.5" font-family="Helvetica,sans-Serif" font-size="10.00">ZendDbSchema_Db_Schema_Database\_doReload</text>
</a>
</g>
<!-- Node2&#45;&gt;Node5 -->
<g id="edge8" class="edge"><title>Node2&#45;&gt;Node5</title>
<path fill="none" stroke="midnightblue" d="M485.441,-985.367C520.18,-998.884 574.916,-1018.69 624,-1030 689.484,-1045.09 870.251,-1027.67 924,-1068 956.161,-1092.13 927.929,-1126.75 960,-1151 968.223,-1157.22 977.456,-1161.99 987.191,-1165.62"/>
<polygon fill="midnightblue" stroke="midnightblue" points="486.35,-981.963 475.763,-981.562 483.789,-988.478 486.35,-981.963"/>
</g>
<!-- Node6 -->
<g id="node11" class="node"><title>Node6</title>
<a xlink:href="classZendDbSchema__Db__Schema__Table.html#abc05b1f219611fefdd0e9eaeff1761d9" target="_top" xlink:title="ZendDbSchema_Db_Schema_Table\\_doReload">
<polygon fill="white" stroke="black" points="996.5,-1120.5 996.5,-1141.5 1221.5,-1141.5 1221.5,-1120.5 996.5,-1120.5"/>
<text text-anchor="middle" x="1109" y="-1128.5" font-family="Helvetica,sans-Serif" font-size="10.00">ZendDbSchema_Db_Schema_Table\_doReload</text>
</a>
</g>
<!-- Node2&#45;&gt;Node6 -->
<g id="edge10" class="edge"><title>Node2&#45;&gt;Node6</title>
<path fill="none" stroke="midnightblue" d="M493.362,-957.736C584.028,-932.895 795.839,-890.361 924,-990 968.296,-1024.44 917.36,-1074.53 960,-1111 970.513,-1119.99 983.059,-1126.12 996.346,-1130.18"/>
<polygon fill="midnightblue" stroke="midnightblue" points="492.372,-954.379 483.687,-960.447 494.261,-961.119 492.372,-954.379"/>
</g>
<!-- Node7 -->
<g id="node13" class="node"><title>Node7</title>
<a xlink:href="classZendDbSchema__Db__Schema__AbstractSchema.html#a5696bfca3324b0dfbdf3c10d224f5759" target="_top" xlink:title="ZendDbSchema_Db_Schema_AbstractSchema\\getGenerator">
<polygon fill="white" stroke="black" points="632,-800.5 632,-821.5 916,-821.5 916,-800.5 632,-800.5"/>
<text text-anchor="middle" x="774" y="-808.5" font-family="Helvetica,sans-Serif" font-size="10.00">ZendDbSchema_Db_Schema_AbstractSchema\getGenerator</text>
</a>
</g>
<!-- Node2&#45;&gt;Node7 -->
<g id="edge12" class="edge"><title>Node2&#45;&gt;Node7</title>
<path fill="none" stroke="midnightblue" d="M480.867,-955.757C546.172,-923.508 696.898,-849.075 752.71,-821.514"/>
<polygon fill="midnightblue" stroke="midnightblue" points="478.926,-952.812 471.509,-960.378 482.026,-959.088 478.926,-952.812"/>
</g>
<!-- Node24 -->
<g id="node47" class="node"><title>Node24</title>
<a xlink:href="classZendDbSchema__Db__Schema__AbstractSchema.html#adda416f89a3cc16bd28d90b14036b63d" target="_top" xlink:title="ZendDbSchema_Db_Schema_AbstractSchema\\getParser">
<polygon fill="white" stroke="black" points="639.5,-999.5 639.5,-1020.5 908.5,-1020.5 908.5,-999.5 639.5,-999.5"/>
<text text-anchor="middle" x="774" y="-1007.5" font-family="Helvetica,sans-Serif" font-size="10.00">ZendDbSchema_Db_Schema_AbstractSchema\getParser</text>
</a>
</g>
<!-- Node2&#45;&gt;Node24 -->
<g id="edge46" class="edge"><title>Node2&#45;&gt;Node24</title>
<path fill="none" stroke="midnightblue" d="M547.444,-982.729C591.692,-988.055 643.621,-994.306 686.592,-999.479"/>
<polygon fill="midnightblue" stroke="midnightblue" points="547.599,-979.223 537.252,-981.503 546.762,-986.173 547.599,-979.223"/>
</g>
<!-- Node25 -->
<g id="node51" class="node"><title>Node25</title>
<a xlink:href="classZendDbSchema__Db__Schema__AbstractSchema.html#afda46eab0c365f4c9a743b7185c51d6c" target="_top" xlink:title="ZendDbSchema_Db_Schema_AbstractSchema\\getValidator">
<polygon fill="white" stroke="black" points="634.5,-440.5 634.5,-461.5 913.5,-461.5 913.5,-440.5 634.5,-440.5"/>
<text text-anchor="middle" x="774" y="-448.5" font-family="Helvetica,sans-Serif" font-size="10.00">ZendDbSchema_Db_Schema_AbstractSchema\getValidator</text>
</a>
</g>
<!-- Node2&#45;&gt;Node25 -->
<g id="edge52" class="edge"><title>Node2&#45;&gt;Node25</title>
<path fill="none" stroke="midnightblue" d="M462.203,-951.415C515.473,-865.919 726.774,-526.795 767.27,-461.801"/>
<polygon fill="midnightblue" stroke="midnightblue" points="459.085,-949.801 456.767,-960.139 465.026,-953.503 459.085,-949.801"/>
</g>
<!-- Node49 -->
<g id="node103" class="node"><title>Node49</title>
<a xlink:href="classZendDbSchema__Db__Schema__Validator__Mysql.html#ab77a7fe20e34115d4b2679521b8918c0" target="_top" xlink:title="ZendDbSchema_Db_Schema_Validator_Mysql\\validateDatabase">
<polygon fill="white" stroke="black" points="624,-400.5 624,-421.5 924,-421.5 924,-400.5 624,-400.5"/>
<text text-anchor="middle" x="774" y="-408.5" font-family="Helvetica,sans-Serif" font-size="10.00">ZendDbSchema_Db_Schema_Validator_Mysql\validateDatabase</text>
</a>
</g>
<!-- Node2&#45;&gt;Node49 -->
<g id="edge108" class="edge"><title>Node2&#45;&gt;Node49</title>
<path fill="none" stroke="midnightblue" d="M453.629,-950.443C469.96,-860.327 539.539,-501.538 624,-431 628.235,-427.463 632.784,-424.373 637.568,-421.678"/>
<polygon fill="midnightblue" stroke="midnightblue" points="450.147,-950.027 451.828,-960.488 457.038,-951.262 450.147,-950.027"/>
</g>
<!-- Node50 -->
<g id="node105" class="node"><title>Node50</title>
<a xlink:href="classZendDbSchema__Db__Schema__Validator__Mysql.html#a0c68fa05f88c3a6f603b04709133ef68" target="_top" xlink:title="ZendDbSchema_Db_Schema_Validator_Mysql\\validateTable">
<polygon fill="white" stroke="black" points="633,-360.5 633,-381.5 915,-381.5 915,-360.5 633,-360.5"/>
<text text-anchor="middle" x="774" y="-368.5" font-family="Helvetica,sans-Serif" font-size="10.00">ZendDbSchema_Db_Schema_Validator_Mysql\validateTable</text>
</a>
</g>
<!-- Node2&#45;&gt;Node50 -->
<g id="edge110" class="edge"><title>Node2&#45;&gt;Node50</title>
<path fill="none" stroke="midnightblue" d="M453.2,-950.141C468.157,-855.469 534.246,-467.516 624,-391 628.199,-387.421 632.718,-384.294 637.476,-381.57"/>
<polygon fill="midnightblue" stroke="midnightblue" points="449.716,-949.772 451.632,-960.192 456.632,-950.851 449.716,-949.772"/>
</g>
<!-- Node8 -->
<g id="node15" class="node"><title>Node8</title>
<a xlink:href="classZendDbSchema__Db__Schema__Table__PrimaryKey.html#a3f48dd085068f13258957efeb0f7257b" target="_top" xlink:title="ZendDbSchema_Db_Schema_Table_PrimaryKey\\_getAlterSql">
<polygon fill="white" stroke="black" points="965,-840.5 965,-861.5 1253,-861.5 1253,-840.5 965,-840.5"/>
<text text-anchor="middle" x="1109" y="-848.5" font-family="Helvetica,sans-Serif" font-size="10.00">ZendDbSchema_Db_Schema_Table_PrimaryKey\_getAlterSql</text>
</a>
</g>
<!-- Node7&#45;&gt;Node8 -->
<g id="edge14" class="edge"><title>Node7&#45;&gt;Node8</title>
<path fill="none" stroke="midnightblue" d="M872.234,-822.729C919.331,-828.353 975.298,-835.036 1020.99,-840.491"/>
<polygon fill="midnightblue" stroke="midnightblue" points="872.362,-819.22 862.017,-821.51 871.532,-826.171 872.362,-819.22"/>
</g>
<!-- Node9 -->
<g id="node17" class="node"><title>Node9</title>
<a xlink:href="classZendDbSchema__Db__Schema__Database.html#a4f5a636c4e7d8ab57f6e090cdf8841dc" target="_top" xlink:title="ZendDbSchema_Db_Schema_Database\\_getAlterSql">
<polygon fill="white" stroke="black" points="984,-800.5 984,-821.5 1234,-821.5 1234,-800.5 984,-800.5"/>
<text text-anchor="middle" x="1109" y="-808.5" font-family="Helvetica,sans-Serif" font-size="10.00">ZendDbSchema_Db_Schema_Database\_getAlterSql</text>
</a>
</g>
<!-- Node7&#45;&gt;Node9 -->
<g id="edge16" class="edge"><title>Node7&#45;&gt;Node9</title>
<path fill="none" stroke="midnightblue" d="M926.152,-811C945.49,-811 965.102,-811 983.948,-811"/>
<polygon fill="midnightblue" stroke="midnightblue" points="926.07,-807.5 916.07,-811 926.07,-814.5 926.07,-807.5"/>
</g>
<!-- Node10 -->
<g id="node19" class="node"><title>Node10</title>
<a xlink:href="classZendDbSchema__Db__Schema__Table__ForeignKey.html#ae7cb55b4ec471ccb54ef38ef4bb33558" target="_top" xlink:title="ZendDbSchema_Db_Schema_Table_ForeignKey\\_getAlterSql">
<polygon fill="white" stroke="black" points="965.5,-760.5 965.5,-781.5 1252.5,-781.5 1252.5,-760.5 965.5,-760.5"/>
<text text-anchor="middle" x="1109" y="-768.5" font-family="Helvetica,sans-Serif" font-size="10.00">ZendDbSchema_Db_Schema_Table_ForeignKey\_getAlterSql</text>
</a>
</g>
<!-- Node7&#45;&gt;Node10 -->
<g id="edge18" class="edge"><title>Node7&#45;&gt;Node10</title>
<path fill="none" stroke="midnightblue" d="M872.234,-799.271C919.331,-793.647 975.298,-786.964 1020.99,-781.509"/>
<polygon fill="midnightblue" stroke="midnightblue" points="871.532,-795.829 862.017,-800.49 872.362,-802.78 871.532,-795.829"/>
</g>
<!-- Node11 -->
<g id="node21" class="node"><title>Node11</title>
<a xlink:href="classZendDbSchema__Db__Schema__Table__Index.html#ab87e33f2415eaf43730ca6d43ec540b6" target="_top" xlink:title="ZendDbSchema_Db_Schema_Table_Index\\_getAlterSql">
<polygon fill="white" stroke="black" points="978.5,-720.5 978.5,-741.5 1239.5,-741.5 1239.5,-720.5 978.5,-720.5"/>
<text text-anchor="middle" x="1109" y="-728.5" font-family="Helvetica,sans-Serif" font-size="10.00">ZendDbSchema_Db_Schema_Table_Index\_getAlterSql</text>
</a>
</g>
<!-- Node7&#45;&gt;Node11 -->
<g id="edge20" class="edge"><title>Node7&#45;&gt;Node11</title>
<path fill="none" stroke="midnightblue" d="M810.705,-797.005C847.836,-783.362 907.143,-762.972 960,-751 976.546,-747.252 994.295,-744.119 1011.57,-741.528"/>
<polygon fill="midnightblue" stroke="midnightblue" points="809.463,-793.733 801.302,-800.49 811.895,-800.296 809.463,-793.733"/>
</g>
<!-- Node12 -->
<g id="node23" class="node"><title>Node12</title>
<a xlink:href="classZendDbSchema__Db__Schema__Table__Column.html#ae49fb9ae5b0f6d6258dc71f644e00991" target="_top" xlink:title="ZendDbSchema_Db_Schema_Table_Column\\_getAlterSql">
<polygon fill="white" stroke="black" points="973.5,-680.5 973.5,-701.5 1244.5,-701.5 1244.5,-680.5 973.5,-680.5"/>
<text text-anchor="middle" x="1109" y="-688.5" font-family="Helvetica,sans-Serif" font-size="10.00">ZendDbSchema_Db_Schema_Table_Column\_getAlterSql</text>
</a>
</g>
<!-- Node7&#45;&gt;Node12 -->
<g id="edge22" class="edge"><title>Node7&#45;&gt;Node12</title>
<path fill="none" stroke="midnightblue" d="M797.413,-794.794C831.505,-772.062 897.568,-731.231 960,-711 971.918,-707.138 984.605,-704.021 997.354,-701.506"/>
<polygon fill="midnightblue" stroke="midnightblue" points="795.397,-791.932 789.065,-800.426 799.312,-797.734 795.397,-791.932"/>
</g>
<!-- Node13 -->
<g id="node25" class="node"><title>Node13</title>
<a xlink:href="classZendDbSchema__Db__Schema__Table.html#a385e32fefac9fd4c6e4274c1e0c0b810" target="_top" xlink:title="ZendDbSchema_Db_Schema_Table\\_getAlterSql">
<polygon fill="white" stroke="black" points="993,-640.5 993,-661.5 1225,-661.5 1225,-640.5 993,-640.5"/>
<text text-anchor="middle" x="1109" y="-648.5" font-family="Helvetica,sans-Serif" font-size="10.00">ZendDbSchema_Db_Schema_Table\_getAlterSql</text>
</a>
</g>
<!-- Node7&#45;&gt;Node13 -->
<g id="edge24" class="edge"><title>Node7&#45;&gt;Node13</title>
<path fill="none" stroke="midnightblue" d="M791.429,-792.809C822.212,-761.946 889.634,-699.869 960,-671 970.383,-666.74 981.482,-663.347 992.763,-660.65"/>
<polygon fill="midnightblue" stroke="midnightblue" points="788.591,-790.703 784.078,-800.289 793.583,-795.61 788.591,-790.703"/>
</g>
<!-- Node14 -->
<g id="node27" class="node"><title>Node14</title>
<a xlink:href="classZendDbSchema__Db__Schema__Table__PrimaryKey.html#a97fe22c0e5758e1ee04616ccf3218e2a" target="_top" xlink:title="ZendDbSchema_Db_Schema_Table_PrimaryKey\\_getCreateSql">
<polygon fill="white" stroke="black" points="960.5,-600.5 960.5,-621.5 1257.5,-621.5 1257.5,-600.5 960.5,-600.5"/>
<text text-anchor="middle" x="1109" y="-608.5" font-family="Helvetica,sans-Serif" font-size="10.00">ZendDbSchema_Db_Schema_Table_PrimaryKey\_getCreateSql</text>
</a>
</g>
<!-- Node7&#45;&gt;Node14 -->
<g id="edge26" class="edge"><title>Node7&#45;&gt;Node14</title>
<path fill="none" stroke="midnightblue" d="M787.075,-791.918C814.268,-753.943 881.006,-669.277 960,-631 967.751,-627.244 975.98,-624.124 984.434,-621.539"/>
<polygon fill="midnightblue" stroke="midnightblue" points="784.207,-789.911 781.312,-800.102 789.931,-793.941 784.207,-789.911"/>
</g>
<!-- Node15 -->
<g id="node29" class="node"><title>Node15</title>
<a xlink:href="classZendDbSchema__Db__Schema__Database.html#a48ad6cd38cc07c3c350335d21d7c11e9" target="_top" xlink:title="ZendDbSchema_Db_Schema_Database\\_getCreateSql">
<polygon fill="white" stroke="black" points="979.5,-560.5 979.5,-581.5 1238.5,-581.5 1238.5,-560.5 979.5,-560.5"/>
<text text-anchor="middle" x="1109" y="-568.5" font-family="Helvetica,sans-Serif" font-size="10.00">ZendDbSchema_Db_Schema_Database\_getCreateSql</text>
</a>
</g>
<!-- Node7&#45;&gt;Node15 -->
<g id="edge28" class="edge"><title>Node7&#45;&gt;Node15</title>
<path fill="none" stroke="midnightblue" d="M783.924,-791.464C807.572,-747.177 871.915,-639.257 960,-591 966.753,-587.301 973.927,-584.188 981.338,-581.577"/>
<polygon fill="midnightblue" stroke="midnightblue" points="780.801,-789.884 779.265,-800.367 787.003,-793.13 780.801,-789.884"/>
</g>
<!-- Node16 -->
<g id="node31" class="node"><title>Node16</title>
<a xlink:href="classZendDbSchema__Db__Schema__Table__Column.html#a2312222bd78d06775dacb19b92638b69" target="_top" xlink:title="ZendDbSchema_Db_Schema_Table_Column\\_getCreateSql">
<polygon fill="white" stroke="black" points="969,-520.5 969,-541.5 1249,-541.5 1249,-520.5 969,-520.5"/>
<text text-anchor="middle" x="1109" y="-528.5" font-family="Helvetica,sans-Serif" font-size="10.00">ZendDbSchema_Db_Schema_Table_Column\_getCreateSql</text>
</a>
</g>
<!-- Node7&#45;&gt;Node16 -->
<g id="edge30" class="edge"><title>Node7&#45;&gt;Node16</title>
<path fill="none" stroke="midnightblue" d="M781.62,-791.083C801.928,-740.998 862.545,-609.633 960,-551 966.15,-547.3 972.698,-544.164 979.488,-541.513"/>
<polygon fill="midnightblue" stroke="midnightblue" points="778.326,-789.895 777.899,-800.481 784.834,-792.471 778.326,-789.895"/>
</g>
<!-- Node17 -->
<g id="node33" class="node"><title>Node17</title>
<a xlink:href="classZendDbSchema__Db__Schema__Table__ForeignKey.html#a8b8ab754bf3b5bcda1e8c70e83a6b7b9" target="_top" xlink:title="ZendDbSchema_Db_Schema_Table_ForeignKey\\_getCreateSql">
<polygon fill="white" stroke="black" points="961,-480.5 961,-501.5 1257,-501.5 1257,-480.5 961,-480.5"/>
<text text-anchor="middle" x="1109" y="-488.5" font-family="Helvetica,sans-Serif" font-size="10.00">ZendDbSchema_Db_Schema_Table_ForeignKey\_getCreateSql</text>
</a>
</g>
<!-- Node7&#45;&gt;Node17 -->
<g id="edge32" class="edge"><title>Node7&#45;&gt;Node17</title>
<path fill="none" stroke="midnightblue" d="M779.849,-790.721C797.021,-735.213 852.941,-580.321 960,-511 965.587,-507.383 971.539,-504.287 977.728,-501.646"/>
<polygon fill="midnightblue" stroke="midnightblue" points="776.454,-789.859 776.928,-800.443 783.158,-791.873 776.454,-789.859"/>
</g>
<!-- Node18 -->
<g id="node35" class="node"><title>Node18</title>
<a xlink:href="classZendDbSchema__Db__Schema__Table__Index.html#afec61cbe6c22bd42e30103bc3d37ef2d" target="_top" xlink:title="ZendDbSchema_Db_Schema_Table_Index\\_getCreateSql">
<polygon fill="white" stroke="black" points="974,-1080.5 974,-1101.5 1244,-1101.5 1244,-1080.5 974,-1080.5"/>
<text text-anchor="middle" x="1109" y="-1088.5" font-family="Helvetica,sans-Serif" font-size="10.00">ZendDbSchema_Db_Schema_Table_Index\_getCreateSql</text>
</a>
</g>
<!-- Node7&#45;&gt;Node18 -->
<g id="edge34" class="edge"><title>Node7&#45;&gt;Node18</title>
<path fill="none" stroke="midnightblue" d="M797.282,-827.649C830.128,-852.306 889.866,-901.624 924,-957 951.88,-1002.23 919.333,-1036.8 960,-1071 964.295,-1074.61 968.919,-1077.76 973.788,-1080.49"/>
<polygon fill="midnightblue" stroke="midnightblue" points="799.279,-824.773 789.158,-821.643 795.118,-830.402 799.279,-824.773"/>
</g>
<!-- Node19 -->
<g id="node37" class="node"><title>Node19</title>
<a xlink:href="classZendDbSchema__Db__Schema__Table.html#aefb813dece15a26017e580acc64e3406" target="_top" xlink:title="ZendDbSchema_Db_Schema_Table\\_getCreateSql">
<polygon fill="white" stroke="black" points="988.5,-1040.5 988.5,-1061.5 1229.5,-1061.5 1229.5,-1040.5 988.5,-1040.5"/>
<text text-anchor="middle" x="1109" y="-1048.5" font-family="Helvetica,sans-Serif" font-size="10.00">ZendDbSchema_Db_Schema_Table\_getCreateSql</text>
</a>
</g>
<!-- Node7&#45;&gt;Node19 -->
<g id="edge36" class="edge"><title>Node7&#45;&gt;Node19</title>
<path fill="none" stroke="midnightblue" d="M796.123,-828.304C827.64,-853.817 885.862,-904.233 924,-957 945.425,-986.642 930.355,-1009.58 960,-1031 968.568,-1037.19 978.154,-1041.92 988.222,-1045.5"/>
<polygon fill="midnightblue" stroke="midnightblue" points="797.975,-825.304 787.981,-821.787 793.601,-830.769 797.975,-825.304"/>
</g>
<!-- Node20 -->
<g id="node39" class="node"><title>Node20</title>
<a xlink:href="classZendDbSchema__Db__Schema__Table__PrimaryKey.html#a1da04c2b8330ad70171fd6b1802d14f2" target="_top" xlink:title="ZendDbSchema_Db_Schema_Table_PrimaryKey\\_getDeleteSql">
<polygon fill="white" stroke="black" points="961,-1000.5 961,-1021.5 1257,-1021.5 1257,-1000.5 961,-1000.5"/>
<text text-anchor="middle" x="1109" y="-1008.5" font-family="Helvetica,sans-Serif" font-size="10.00">ZendDbSchema_Db_Schema_Table_PrimaryKey\_getDeleteSql</text>
</a>
</g>
<!-- Node7&#45;&gt;Node20 -->
<g id="edge38" class="edge"><title>Node7&#45;&gt;Node20</title>
<path fill="none" stroke="midnightblue" d="M792.164,-828.721C838.454,-873.865 957.396,-989.738 960,-991 967.751,-994.756 975.98,-997.876 984.434,-1000.46"/>
<polygon fill="midnightblue" stroke="midnightblue" points="794.499,-826.109 784.896,-821.633 789.611,-831.121 794.499,-826.109"/>
</g>
<!-- Node21 -->
<g id="node41" class="node"><title>Node21</title>
<a xlink:href="classZendDbSchema__Db__Schema__Table__Index.html#a54a12dab52e17f1218fafcd13b334d16" target="_top" xlink:title="ZendDbSchema_Db_Schema_Table_Index\\_getDeleteSql">
<polygon fill="white" stroke="black" points="974.5,-960.5 974.5,-981.5 1243.5,-981.5 1243.5,-960.5 974.5,-960.5"/>
<text text-anchor="middle" x="1109" y="-968.5" font-family="Helvetica,sans-Serif" font-size="10.00">ZendDbSchema_Db_Schema_Table_Index\_getDeleteSql</text>
</a>
</g>
<!-- Node7&#45;&gt;Node21 -->
<g id="edge40" class="edge"><title>Node7&#45;&gt;Node21</title>
<path fill="none" stroke="midnightblue" d="M791.429,-829.191C822.212,-860.054 889.634,-922.131 960,-951 969.297,-954.814 979.167,-957.933 989.228,-960.48"/>
<polygon fill="midnightblue" stroke="midnightblue" points="793.583,-826.39 784.078,-821.711 788.591,-831.297 793.583,-826.39"/>
</g>
<!-- Node22 -->
<g id="node43" class="node"><title>Node22</title>
<a xlink:href="classZendDbSchema__Db__Schema__Table__Column.html#a9b1cc87143098c64df381066af91222c" target="_top" xlink:title="ZendDbSchema_Db_Schema_Table_Column\\_getDeleteSql">
<polygon fill="white" stroke="black" points="969.5,-920.5 969.5,-941.5 1248.5,-941.5 1248.5,-920.5 969.5,-920.5"/>
<text text-anchor="middle" x="1109" y="-928.5" font-family="Helvetica,sans-Serif" font-size="10.00">ZendDbSchema_Db_Schema_Table_Column\_getDeleteSql</text>
</a>
</g>
<!-- Node7&#45;&gt;Node22 -->
<g id="edge42" class="edge"><title>Node7&#45;&gt;Node22</title>
<path fill="none" stroke="midnightblue" d="M797.413,-827.206C831.505,-849.938 897.568,-890.769 960,-911 971.918,-914.862 984.605,-917.979 997.354,-920.494"/>
<polygon fill="midnightblue" stroke="midnightblue" points="799.312,-824.266 789.065,-821.574 795.397,-830.068 799.312,-824.266"/>
</g>
<!-- Node23 -->
<g id="node45" class="node"><title>Node23</title>
<a xlink:href="classZendDbSchema__Db__Schema__Table__ForeignKey.html#acc96fbb08d8271259f56bd77c37f2da4" target="_top" xlink:title="ZendDbSchema_Db_Schema_Table_ForeignKey\\_getDeleteSql">
<polygon fill="white" stroke="black" points="961.5,-880.5 961.5,-901.5 1256.5,-901.5 1256.5,-880.5 961.5,-880.5"/>
<text text-anchor="middle" x="1109" y="-888.5" font-family="Helvetica,sans-Serif" font-size="10.00">ZendDbSchema_Db_Schema_Table_ForeignKey\_getDeleteSql</text>
</a>
</g>
<!-- Node7&#45;&gt;Node23 -->
<g id="edge44" class="edge"><title>Node7&#45;&gt;Node23</title>
<path fill="none" stroke="midnightblue" d="M810.705,-824.995C847.836,-838.638 907.143,-859.028 960,-871 976.546,-874.748 994.295,-877.881 1011.57,-880.472"/>
<polygon fill="midnightblue" stroke="midnightblue" points="811.895,-821.704 801.302,-821.51 809.463,-828.267 811.895,-821.704"/>
</g>
<!-- Node24&#45;&gt;Node5 -->
<g id="edge48" class="edge"><title>Node24&#45;&gt;Node5</title>
<path fill="none" stroke="midnightblue" d="M910.974,-1025.55C915.572,-1028.32 919.939,-1031.46 924,-1035 964.672,-1070.49 918.77,-1116.16 960,-1151 968.074,-1157.82 977.322,-1162.99 987.171,-1166.85"/>
<polygon fill="midnightblue" stroke="midnightblue" points="912.33,-1022.3 901.865,-1020.65 909.016,-1028.47 912.33,-1022.3"/>
</g>
<!-- Node24&#45;&gt;Node6 -->
<g id="edge50" class="edge"><title>Node24&#45;&gt;Node6</title>
<path fill="none" stroke="midnightblue" d="M907.4,-1024.76C913.241,-1027.69 918.815,-1031.08 924,-1035 953.827,-1057.52 929.82,-1088.95 960,-1111 970.854,-1118.93 983.371,-1124.48 996.442,-1128.28"/>
<polygon fill="midnightblue" stroke="midnightblue" points="908.574,-1021.44 898.02,-1020.51 905.687,-1027.82 908.574,-1021.44"/>
</g>
<!-- Node26 -->
<g id="node53" class="node"><title>Node26</title>
<a xlink:href="classZendDbSchema__Db__Schema__AbstractSchema.html#ab4282a1fd6f4d9f23d01de8328072c71" target="_top" xlink:title="ZendDbSchema_Db_Schema_AbstractSchema\\__set">
<polygon fill="white" stroke="red" points="983.5,-360.5 983.5,-381.5 1234.5,-381.5 1234.5,-360.5 983.5,-360.5"/>
<text text-anchor="middle" x="1109" y="-368.5" font-family="Helvetica,sans-Serif" font-size="10.00">ZendDbSchema_Db_Schema_AbstractSchema\__set</text>
</a>
</g>
<!-- Node25&#45;&gt;Node26 -->
<g id="edge54" class="edge"><title>Node25&#45;&gt;Node26</title>
<path fill="none" stroke="midnightblue" d="M911.305,-436.892C915.657,-435.119 919.902,-433.161 924,-431 945.156,-419.844 938.849,-402.165 960,-391 967.386,-387.101 975.254,-383.864 983.367,-381.185"/>
<polygon fill="midnightblue" stroke="midnightblue" points="909.779,-433.725 901.621,-440.484 912.214,-440.288 909.779,-433.725"/>
</g>
<!-- Node46 -->
<g id="node97" class="node"><title>Node46</title>
<a xlink:href="classZendDbSchema__Db__Schema__AbstractSchema.html#a64e2e307b4dd0bf4785258f82e9fcc1b" target="_top" xlink:title="ZendDbSchema_Db_Schema_AbstractSchema\\__unset">
<polygon fill="white" stroke="black" points="978,-320.5 978,-341.5 1240,-341.5 1240,-320.5 978,-320.5"/>
<text text-anchor="middle" x="1109" y="-328.5" font-family="Helvetica,sans-Serif" font-size="10.00">ZendDbSchema_Db_Schema_AbstractSchema\__unset</text>
</a>
</g>
<!-- Node25&#45;&gt;Node46 -->
<g id="edge102" class="edge"><title>Node25&#45;&gt;Node46</title>
<path fill="none" stroke="midnightblue" d="M917.453,-435.463C919.695,-434.065 921.88,-432.579 924,-431 955.268,-407.708 928.743,-374.306 960,-351 965.545,-346.866 971.538,-343.373 977.828,-340.433"/>
<polygon fill="midnightblue" stroke="midnightblue" points="915.576,-432.502 908.543,-440.426 918.982,-438.618 915.576,-432.502"/>
</g>
<!-- Node47 -->
<g id="node99" class="node"><title>Node47</title>
<a xlink:href="classZendDbSchema__Db__Schema__Table__AbstractDefinition.html#ad1a0b678c2352296b55af83c59142e59" target="_top" xlink:title="ZendDbSchema_Db_Schema_Table_AbstractDefinition\\save">
<polygon fill="white" stroke="black" points="967.5,-440.5 967.5,-461.5 1250.5,-461.5 1250.5,-440.5 967.5,-440.5"/>
<text text-anchor="middle" x="1109" y="-448.5" font-family="Helvetica,sans-Serif" font-size="10.00">ZendDbSchema_Db_Schema_Table_AbstractDefinition\save</text>
</a>
</g>
<!-- Node25&#45;&gt;Node47 -->
<g id="edge104" class="edge"><title>Node25&#45;&gt;Node47</title>
<path fill="none" stroke="midnightblue" d="M923.682,-451C938.23,-451 952.96,-451 967.426,-451"/>
<polygon fill="midnightblue" stroke="midnightblue" points="923.644,-447.5 913.644,-451 923.644,-454.5 923.644,-447.5"/>
</g>
<!-- Node48 -->
<g id="node101" class="node"><title>Node48</title>
<a xlink:href="classZendDbSchema__Db__Schema__AbstractEntity.html#a5b1c93da76c3708f90d330b4643e55b2" target="_top" xlink:title="ZendDbSchema_Db_Schema_AbstractEntity\\save">
<polygon fill="white" stroke="black" points="990,-400.5 990,-421.5 1228,-421.5 1228,-400.5 990,-400.5"/>
<text text-anchor="middle" x="1109" y="-408.5" font-family="Helvetica,sans-Serif" font-size="10.00">ZendDbSchema_Db_Schema_AbstractEntity\save</text>
</a>
</g>
<!-- Node25&#45;&gt;Node48 -->
<g id="edge106" class="edge"><title>Node25&#45;&gt;Node48</title>
<path fill="none" stroke="midnightblue" d="M872.234,-439.271C919.331,-433.647 975.298,-426.964 1020.99,-421.509"/>
<polygon fill="midnightblue" stroke="midnightblue" points="871.532,-435.829 862.017,-440.49 872.362,-442.78 871.532,-435.829"/>
</g>
<!-- Node27 -->
<g id="node55" class="node"><title>Node27</title>
<a xlink:href="classZendDbSchema__Db__Schema__AbstractEntity.html#a845c851f8d9549a8f1a3aa9bc1da3658" target="_top" xlink:title="ZendDbSchema_Db_Schema_AbstractEntity\\__clone">
<polygon fill="white" stroke="black" points="1319.5,-712.5 1319.5,-733.5 1570.5,-733.5 1570.5,-712.5 1319.5,-712.5"/>
<text text-anchor="middle" x="1445" y="-720.5" font-family="Helvetica,sans-Serif" font-size="10.00">ZendDbSchema_Db_Schema_AbstractEntity\__clone</text>
</a>
</g>
<!-- Node26&#45;&gt;Node27 -->
<g id="edge56" class="edge"><title>Node26&#45;&gt;Node27</title>
<path fill="none" stroke="midnightblue" d="M1243.69,-379.622C1248.85,-382.824 1253.66,-386.589 1258,-391 1354.33,-488.95 1199.18,-598.586 1294,-698 1301.24,-705.595 1309.85,-711.442 1319.22,-715.899"/>
<polygon fill="midnightblue" stroke="midnightblue" points="1245.16,-376.436 1234.7,-374.751 1241.82,-382.591 1245.16,-376.436"/>
</g>
<!-- Node28 -->
<g id="node57" class="node"><title>Node28</title>
<a xlink:href="classZendDbSchema__Db__Schema__Table__Index.html#a6717d976c5b0d47369d3c87ef17b1e9b" target="_top" xlink:title="ZendDbSchema_Db_Schema_Table_Index\\addColumn">
<polygon fill="white" stroke="red" points="1661.5,-659.5 1661.5,-680.5 1918.5,-680.5 1918.5,-659.5 1661.5,-659.5"/>
<text text-anchor="middle" x="1790" y="-667.5" font-family="Helvetica,sans-Serif" font-size="10.00">ZendDbSchema_Db_Schema_Table_Index\addColumn</text>
</a>
</g>
<!-- Node26&#45;&gt;Node28 -->
<g id="edge58" class="edge"><title>Node26&#45;&gt;Node28</title>
<path fill="none" stroke="midnightblue" d="M1243.61,-379.696C1248.79,-382.878 1253.63,-386.619 1258,-391 1344.73,-477.971 1202.08,-583.54 1294,-665 1354.5,-718.616 1593.05,-696.277 1715.94,-680.556"/>
<polygon fill="midnightblue" stroke="midnightblue" points="1245.06,-376.499 1234.59,-374.855 1241.75,-382.667 1245.06,-376.499"/>
</g>
<!-- Node29 -->
<g id="node59" class="node"><title>Node29</title>
<a xlink:href="classZendDbSchema__Db__Schema__Table__ForeignKey.html#a2197861c0661243f1ebcf43a7e7771f2" target="_top" xlink:title="ZendDbSchema_Db_Schema_Table_ForeignKey\\addRefColumn">
<polygon fill="white" stroke="black" points="1640.5,-551.5 1640.5,-572.5 1939.5,-572.5 1939.5,-551.5 1640.5,-551.5"/>
<text text-anchor="middle" x="1790" y="-559.5" font-family="Helvetica,sans-Serif" font-size="10.00">ZendDbSchema_Db_Schema_Table_ForeignKey\addRefColumn</text>
</a>
</g>
<!-- Node26&#45;&gt;Node29 -->
<g id="edge60" class="edge"><title>Node26&#45;&gt;Node29</title>
<path fill="none" stroke="midnightblue" d="M1243.55,-380.46C1248.7,-383.451 1253.56,-386.941 1258,-391 1311.18,-439.569 1238.29,-503.351 1294,-549 1353.51,-597.763 1571.45,-584.806 1697.77,-572.519"/>
<polygon fill="midnightblue" stroke="midnightblue" points="1245.11,-377.328 1234.62,-375.886 1241.92,-383.559 1245.11,-377.328"/>
</g>
<!-- Node30 -->
<g id="node61" class="node"><title>Node30</title>
<a xlink:href="classZendDbSchema__Db__Schema__Table__Index.html#af7c29da0f52c5270ffa3587a95295f82" target="_top" xlink:title="ZendDbSchema_Db_Schema_Table_Index\\hasColumn">
<polygon fill="white" stroke="black" points="1316.5,-634.5 1316.5,-655.5 1573.5,-655.5 1573.5,-634.5 1316.5,-634.5"/>
<text text-anchor="middle" x="1445" y="-642.5" font-family="Helvetica,sans-Serif" font-size="10.00">ZendDbSchema_Db_Schema_Table_Index\hasColumn</text>
</a>
</g>
<!-- Node26&#45;&gt;Node30 -->
<g id="edge62" class="edge"><title>Node26&#45;&gt;Node30</title>
<path fill="none" stroke="midnightblue" d="M1243.69,-379.962C1248.83,-383.079 1253.64,-386.733 1258,-391 1331.67,-463.028 1221.45,-546.852 1294,-620 1300.55,-626.603 1308.13,-631.868 1316.34,-636.037"/>
<polygon fill="midnightblue" stroke="midnightblue" points="1245.23,-376.815 1234.75,-375.207 1241.94,-382.994 1245.23,-376.815"/>
</g>
<!-- Node31 -->
<g id="node64" class="node"><title>Node31</title>
<a xlink:href="classZendDbSchema__Db__Schema__Table__Index.html#a3cfd358621bb3330ef9e7ffcf2f7b229" target="_top" xlink:title="ZendDbSchema_Db_Schema_Table_Index\\removeColumn">
<polygon fill="white" stroke="black" points="1653,-600.5 1653,-621.5 1927,-621.5 1927,-600.5 1653,-600.5"/>
<text text-anchor="middle" x="1790" y="-608.5" font-family="Helvetica,sans-Serif" font-size="10.00">ZendDbSchema_Db_Schema_Table_Index\removeColumn</text>
</a>
</g>
<!-- Node26&#45;&gt;Node31 -->
<g id="edge74" class="edge"><title>Node26&#45;&gt;Node31</title>
<path fill="none" stroke="midnightblue" d="M1243.52,-380.137C1248.7,-383.208 1253.57,-386.804 1258,-391 1320.1,-449.786 1229.85,-523.456 1294,-580 1345.5,-625.393 1524.61,-626.332 1652.8,-620.543"/>
<polygon fill="midnightblue" stroke="midnightblue" points="1245,-376.965 1234.52,-375.452 1241.77,-383.174 1245,-376.965"/>
</g>
<!-- Node32 -->
<g id="node66" class="node"><title>Node32</title>
<a xlink:href="classZendDbSchema__Db__Schema__Table__ForeignKey.html#aee976a90aff6a23580c6bbd11baf2ec0" target="_top" xlink:title="ZendDbSchema_Db_Schema_Table_ForeignKey\\hasRefColumn">
<polygon fill="white" stroke="black" points="1295.5,-518.5 1295.5,-539.5 1594.5,-539.5 1594.5,-518.5 1295.5,-518.5"/>
<text text-anchor="middle" x="1445" y="-526.5" font-family="Helvetica,sans-Serif" font-size="10.00">ZendDbSchema_Db_Schema_Table_ForeignKey\hasRefColumn</text>
</a>
</g>
<!-- Node26&#45;&gt;Node32 -->
<g id="edge68" class="edge"><title>Node26&#45;&gt;Node32</title>
<path fill="none" stroke="midnightblue" d="M1243.95,-381.381C1248.91,-384.143 1253.63,-387.331 1258,-391 1298.39,-424.872 1254.14,-469.513 1294,-504 1300.73,-509.824 1308.29,-514.552 1316.34,-518.371"/>
<polygon fill="midnightblue" stroke="midnightblue" points="1245.28,-378.134 1234.76,-376.856 1242.18,-384.414 1245.28,-378.134"/>
</g>
<!-- Node33 -->
<g id="node69" class="node"><title>Node33</title>
<a xlink:href="classZendDbSchema__Db__Schema__Table__ForeignKey.html#ab1730184f38846e90fc31b891a3d9b8c" target="_top" xlink:title="ZendDbSchema_Db_Schema_Table_ForeignKey\\removeRefColumn">
<polygon fill="white" stroke="black" points="1632.5,-493.5 1632.5,-514.5 1947.5,-514.5 1947.5,-493.5 1632.5,-493.5"/>
<text text-anchor="middle" x="1790" y="-501.5" font-family="Helvetica,sans-Serif" font-size="10.00">ZendDbSchema_Db_Schema_Table_ForeignKey\removeRefColumn</text>
</a>
</g>
<!-- Node26&#45;&gt;Node33 -->
<g id="edge76" class="edge"><title>Node26&#45;&gt;Node33</title>
<path fill="none" stroke="midnightblue" d="M1243.87,-382.246C1248.82,-384.782 1253.55,-387.685 1258,-391 1289.26,-414.306 1261.98,-448.754 1294,-471 1321.49,-490.096 1497.78,-498.166 1632.46,-501.561"/>
<polygon fill="midnightblue" stroke="midnightblue" points="1245.31,-379.055 1234.76,-378.068 1242.39,-385.418 1245.31,-379.055"/>
</g>
<!-- Node34 -->
<g id="node73" class="node"><title>Node34</title>
<a xlink:href="classZendDbSchema__Db__Schema__Database.html#acfc530f3381e35f7d57676c4dcff3620" target="_top" xlink:title="ZendDbSchema_Db_Schema_Database\\setCharset">
<polygon fill="white" stroke="black" points="1322.5,-440.5 1322.5,-461.5 1567.5,-461.5 1567.5,-440.5 1322.5,-440.5"/>
<text text-anchor="middle" x="1445" y="-448.5" font-family="Helvetica,sans-Serif" font-size="10.00">ZendDbSchema_Db_Schema_Database\setCharset</text>
</a>
</g>
<!-- Node26&#45;&gt;Node34 -->
<g id="edge78" class="edge"><title>Node26&#45;&gt;Node34</title>
<path fill="none" stroke="midnightblue" d="M1244.38,-384.733C1249.06,-386.603 1253.61,-388.685 1258,-391 1279.15,-402.165 1272.84,-419.853 1294,-431 1302.89,-435.683 1312.47,-439.417 1322.34,-442.38"/>
<polygon fill="midnightblue" stroke="midnightblue" points="1245.23,-381.316 1234.63,-381.185 1242.83,-387.894 1245.23,-381.316"/>
</g>
<!-- Node35 -->
<g id="node75" class="node"><title>Node35</title>
<a xlink:href="classZendDbSchema__Db__Schema__Table__Index.html#a77b65e961a7da9ca89fdebd682338fcf" target="_top" xlink:title="ZendDbSchema_Db_Schema_Table_Index\\setColumns">
<polygon fill="white" stroke="black" points="1315,-400.5 1315,-421.5 1575,-421.5 1575,-400.5 1315,-400.5"/>
<text text-anchor="middle" x="1445" y="-408.5" font-family="Helvetica,sans-Serif" font-size="10.00">ZendDbSchema_Db_Schema_Table_Index\setColumns</text>
</a>
</g>
<!-- Node26&#45;&gt;Node35 -->
<g id="edge80" class="edge"><title>Node26&#45;&gt;Node35</title>
<path fill="none" stroke="midnightblue" d="M1207.23,-382.694C1254.53,-388.325 1310.8,-395.024 1356.73,-400.491"/>
<polygon fill="midnightblue" stroke="midnightblue" points="1207.62,-379.216 1197.28,-381.51 1206.8,-386.167 1207.62,-379.216"/>
</g>
<!-- Node36 -->
<g id="node77" class="node"><title>Node36</title>
<a xlink:href="classZendDbSchema__Db__Schema__Table__Column.html#aae45b2b24302735971d487e6037ee732" target="_top" xlink:title="ZendDbSchema_Db_Schema_Table_Column\\setComment">
<polygon fill="white" stroke="black" points="1308,-360.5 1308,-381.5 1582,-381.5 1582,-360.5 1308,-360.5"/>
<text text-anchor="middle" x="1445" y="-368.5" font-family="Helvetica,sans-Serif" font-size="10.00">ZendDbSchema_Db_Schema_Table_Column\setComment</text>
</a>
</g>
<!-- Node26&#45;&gt;Node36 -->
<g id="edge82" class="edge"><title>Node26&#45;&gt;Node36</title>
<path fill="none" stroke="midnightblue" d="M1244.72,-371C1265.49,-371 1286.93,-371 1307.73,-371"/>
<polygon fill="midnightblue" stroke="midnightblue" points="1244.59,-367.5 1234.59,-371 1244.59,-374.5 1244.59,-367.5"/>
</g>
<!-- Node37 -->
<g id="node79" class="node"><title>Node37</title>
<a xlink:href="classZendDbSchema__Db__Schema__Table__Column.html#ab4eed7ec6d80aa36d4447566e1ae0294" target="_top" xlink:title="ZendDbSchema_Db_Schema_Table_Column\\setDefault">
<polygon fill="white" stroke="black" points="1313.5,-320.5 1313.5,-341.5 1576.5,-341.5 1576.5,-320.5 1313.5,-320.5"/>
<text text-anchor="middle" x="1445" y="-328.5" font-family="Helvetica,sans-Serif" font-size="10.00">ZendDbSchema_Db_Schema_Table_Column\setDefault</text>
</a>
</g>
<!-- Node26&#45;&gt;Node37 -->
<g id="edge84" class="edge"><title>Node26&#45;&gt;Node37</title>
<path fill="none" stroke="midnightblue" d="M1207.23,-359.306C1254.53,-353.675 1310.8,-346.976 1356.73,-341.509"/>
<polygon fill="midnightblue" stroke="midnightblue" points="1206.8,-355.833 1197.28,-360.49 1207.62,-362.784 1206.8,-355.833"/>
</g>
<!-- Node38 -->
<g id="node81" class="node"><title>Node38</title>
<a xlink:href="classZendDbSchema__Db__Schema__AbstractSchema.html#acd81590f02c831ff4c4a442c5cf47074" target="_top" xlink:title="ZendDbSchema_Db_Schema_AbstractSchema\\setFromArray">
<polygon fill="white" stroke="red" points="1301.5,-280.5 1301.5,-301.5 1588.5,-301.5 1588.5,-280.5 1301.5,-280.5"/>
<text text-anchor="middle" x="1445" y="-288.5" font-family="Helvetica,sans-Serif" font-size="10.00">ZendDbSchema_Db_Schema_AbstractSchema\setFromArray</text>
</a>
</g>
<!-- Node26&#45;&gt;Node38 -->
<g id="edge86" class="edge"><title>Node26&#45;&gt;Node38</title>
<path fill="none" stroke="midnightblue" d="M1244.38,-357.267C1249.06,-355.397 1253.61,-353.315 1258,-351 1279.15,-339.835 1272.84,-322.147 1294,-311 1301.02,-307.303 1308.47,-304.197 1316.15,-301.596"/>
<polygon fill="midnightblue" stroke="midnightblue" points="1242.83,-354.106 1234.63,-360.815 1245.23,-360.684 1242.83,-354.106"/>
</g>
<!-- Node39 -->
<g id="node83" class="node"><title>Node39</title>
<a xlink:href="classZendDbSchema__Db__Schema__Table__Column.html#a2f7872172e98a14cbe7d06e295e0106e" target="_top" xlink:title="ZendDbSchema_Db_Schema_Table_Column\\setLength">
<polygon fill="white" stroke="black" points="1315,-240.5 1315,-261.5 1575,-261.5 1575,-240.5 1315,-240.5"/>
<text text-anchor="middle" x="1445" y="-248.5" font-family="Helvetica,sans-Serif" font-size="10.00">ZendDbSchema_Db_Schema_Table_Column\setLength</text>
</a>
</g>
<!-- Node26&#45;&gt;Node39 -->
<g id="edge88" class="edge"><title>Node26&#45;&gt;Node39</title>
<path fill="none" stroke="midnightblue" d="M1243.87,-359.754C1248.82,-357.218 1253.55,-354.315 1258,-351 1289.26,-327.694 1262.72,-294.279 1294,-271 1300.47,-266.185 1307.54,-262.233 1314.98,-259.007"/>
<polygon fill="midnightblue" stroke="midnightblue" points="1242.39,-356.582 1234.76,-363.932 1245.31,-362.945 1242.39,-356.582"/>
</g>
<!-- Node40 -->
<g id="node85" class="node"><title>Node40</title>
<a xlink:href="classZendDbSchema__Db__Schema__AbstractSchema.html#a281403d9e41839e925bade11d8b69b91" target="_top" xlink:title="ZendDbSchema_Db_Schema_AbstractSchema\\setName">
<polygon fill="white" stroke="black" points="1311.5,-200.5 1311.5,-221.5 1578.5,-221.5 1578.5,-200.5 1311.5,-200.5"/>
<text text-anchor="middle" x="1445" y="-208.5" font-family="Helvetica,sans-Serif" font-size="10.00">ZendDbSchema_Db_Schema_AbstractSchema\setName</text>
</a>
</g>
<!-- Node26&#45;&gt;Node40 -->
<g id="edge90" class="edge"><title>Node26&#45;&gt;Node40</title>
<path fill="none" stroke="midnightblue" d="M1243.81,-360.831C1248.83,-358.016 1253.59,-354.759 1258,-351 1300.36,-314.858 1251.61,-267.105 1294,-231 1299.33,-226.456 1305.18,-222.638 1311.38,-219.446"/>
<polygon fill="midnightblue" stroke="midnightblue" points="1241.92,-357.861 1234.51,-365.433 1245.03,-364.135 1241.92,-357.861"/>
</g>
<!-- Node41 -->
<g id="node87" class="node"><title>Node41</title>
<a xlink:href="classZendDbSchema__Db__Schema__Table__Column.html#aa4350a230e6b0e41d9fb9da7c4d3df8b" target="_top" xlink:title="ZendDbSchema_Db_Schema_Table_Column\\setNullable">
<polygon fill="white" stroke="black" points="1312,-160.5 1312,-181.5 1578,-181.5 1578,-160.5 1312,-160.5"/>
<text text-anchor="middle" x="1445" y="-168.5" font-family="Helvetica,sans-Serif" font-size="10.00">ZendDbSchema_Db_Schema_Table_Column\setNullable</text>
</a>
</g>
<!-- Node26&#45;&gt;Node41 -->
<g id="edge92" class="edge"><title>Node26&#45;&gt;Node41</title>
<path fill="none" stroke="midnightblue" d="M1243.56,-361.555C1248.71,-358.56 1253.56,-355.065 1258,-351 1311.75,-301.774 1240.2,-240.179 1294,-191 1299.37,-186.093 1305.32,-182.01 1311.68,-178.63"/>
<polygon fill="midnightblue" stroke="midnightblue" points="1241.94,-358.456 1234.64,-366.135 1245.13,-364.684 1241.94,-358.456"/>
</g>
<!-- Node42 -->
<g id="node89" class="node"><title>Node42</title>
<a xlink:href="classZendDbSchema__Db__Schema__Table__ForeignKey.html#a0c51ff09d6df59b68f8f5ff4ec1ed32d" target="_top" xlink:title="ZendDbSchema_Db_Schema_Table_ForeignKey\\setOnDelete">
<polygon fill="white" stroke="black" points="1301,-120.5 1301,-141.5 1589,-141.5 1589,-120.5 1301,-120.5"/>
<text text-anchor="middle" x="1445" y="-128.5" font-family="Helvetica,sans-Serif" font-size="10.00">ZendDbSchema_Db_Schema_Table_ForeignKey\setOnDelete</text>
</a>
</g>
<!-- Node26&#45;&gt;Node42 -->
<g id="edge94" class="edge"><title>Node26&#45;&gt;Node42</title>
<path fill="none" stroke="midnightblue" d="M1243.57,-361.918C1248.74,-358.832 1253.59,-355.218 1258,-351 1323.27,-288.578 1228.67,-213.365 1294,-151 1297.73,-147.439 1301.77,-144.305 1306.04,-141.553"/>
<polygon fill="midnightblue" stroke="midnightblue" points="1241.82,-358.883 1234.59,-366.625 1245.07,-365.083 1241.82,-358.883"/>
</g>
<!-- Node43 -->
<g id="node91" class="node"><title>Node43</title>
<a xlink:href="classZendDbSchema__Db__Schema__Table__ForeignKey.html#ae8ffd9c6bad60eaf6ef05cdd1f5c56fb" target="_top" xlink:title="ZendDbSchema_Db_Schema_Table_ForeignKey\\setOnUpdate">
<polygon fill="white" stroke="black" points="1299.5,-80.5 1299.5,-101.5 1590.5,-101.5 1590.5,-80.5 1299.5,-80.5"/>
<text text-anchor="middle" x="1445" y="-88.5" font-family="Helvetica,sans-Serif" font-size="10.00">ZendDbSchema_Db_Schema_Table_ForeignKey\setOnUpdate</text>
</a>
</g>
<!-- Node26&#45;&gt;Node43 -->
<g id="edge96" class="edge"><title>Node26&#45;&gt;Node43</title>
<path fill="none" stroke="midnightblue" d="M1243.73,-362.076C1248.85,-358.949 1253.65,-355.282 1258,-351 1334.86,-275.323 1217.08,-186.61 1294,-111 1297.58,-107.478 1301.47,-104.368 1305.59,-101.63"/>
<polygon fill="midnightblue" stroke="midnightblue" points="1241.97,-359.044 1234.81,-366.845 1245.27,-365.217 1241.97,-359.044"/>
</g>
<!-- Node44 -->
<g id="node93" class="node"><title>Node44</title>
<a xlink:href="classZendDbSchema__Db__Schema__Table__ForeignKey.html#a5788c3c190f6f311cdb1fea25ebcaa0c" target="_top" xlink:title="ZendDbSchema_Db_Schema_Table_ForeignKey\\setRefColumns">
<polygon fill="white" stroke="black" points="1294,-40.5 1294,-61.5 1596,-61.5 1596,-40.5 1294,-40.5"/>
<text text-anchor="middle" x="1445" y="-48.5" font-family="Helvetica,sans-Serif" font-size="10.00">ZendDbSchema_Db_Schema_Table_ForeignKey\setRefColumns</text>
</a>
</g>
<!-- Node26&#45;&gt;Node44 -->
<g id="edge98" class="edge"><title>Node26&#45;&gt;Node44</title>
<path fill="none" stroke="midnightblue" d="M1243.63,-362.319C1248.81,-359.132 1253.64,-355.387 1258,-351 1346.47,-262.034 1205.45,-159.889 1294,-71 1297.55,-67.4404 1301.4,-64.2991 1305.49,-61.5335"/>
<polygon fill="midnightblue" stroke="midnightblue" points="1241.76,-359.348 1234.61,-367.166 1245.08,-365.513 1241.76,-359.348"/>
</g>
<!-- Node45 -->
<g id="node95" class="node"><title>Node45</title>
<a xlink:href="classZendDbSchema__Db__Schema__Table__ForeignKey.html#ad19f20b206f05763eecf5aac88e20dbe" target="_top" xlink:title="ZendDbSchema_Db_Schema_Table_ForeignKey\\setReference">
<polygon fill="white" stroke="black" points="1299,-0.5 1299,-21.5 1591,-21.5 1591,-0.5 1299,-0.5"/>
<text text-anchor="middle" x="1445" y="-8.5" font-family="Helvetica,sans-Serif" font-size="10.00">ZendDbSchema_Db_Schema_Table_ForeignKey\setReference</text>
</a>
</g>
<!-- Node26&#45;&gt;Node45 -->
<g id="edge100" class="edge"><title>Node26&#45;&gt;Node45</title>
<path fill="none" stroke="midnightblue" d="M1243.71,-362.404C1248.87,-359.195 1253.67,-355.421 1258,-351 1358.11,-248.722 1193.8,-133.19 1294,-31 1297.43,-27.5069 1301.14,-24.4142 1305.1,-21.6823"/>
<polygon fill="midnightblue" stroke="midnightblue" points="1241.85,-359.435 1234.73,-367.284 1245.19,-365.586 1241.85,-359.435"/>
</g>
<!-- Node30&#45;&gt;Node28 -->
<g id="edge64" class="edge"><title>Node30&#45;&gt;Node28</title>
<path fill="none" stroke="midnightblue" d="M1584.08,-655.078C1609.65,-656.931 1636.24,-658.858 1661.49,-660.687"/>
<polygon fill="midnightblue" stroke="midnightblue" points="1584.18,-651.577 1573.96,-654.345 1583.68,-658.558 1584.18,-651.577"/>
</g>
<!-- Node30&#45;&gt;Node31 -->
<g id="edge66" class="edge"><title>Node30&#45;&gt;Node31</title>
<path fill="none" stroke="midnightblue" d="M1561.96,-633.473C1601.29,-629.598 1644.93,-625.297 1683.41,-621.505"/>
<polygon fill="midnightblue" stroke="midnightblue" points="1561.41,-630.011 1551.8,-634.475 1562.09,-636.977 1561.41,-630.011"/>
</g>
<!-- Node32&#45;&gt;Node29 -->
<g id="edge70" class="edge"><title>Node32&#45;&gt;Node29</title>
<path fill="none" stroke="midnightblue" d="M1565.51,-540.527C1602.75,-544.089 1643.56,-547.993 1680.05,-551.483"/>
<polygon fill="midnightblue" stroke="midnightblue" points="1565.4,-537 1555.11,-539.532 1564.73,-543.968 1565.4,-537"/>
</g>
<!-- Node32&#45;&gt;Node33 -->
<g id="edge72" class="edge"><title>Node32&#45;&gt;Node33</title>
<path fill="none" stroke="midnightblue" d="M1600.5,-517.732C1615.26,-516.662 1630.2,-515.58 1644.86,-514.518"/>
<polygon fill="midnightblue" stroke="midnightblue" points="1600.03,-514.257 1590.31,-518.47 1600.54,-521.238 1600.03,-514.257"/>
</g>
</g>
</svg>
