<?xml version="1.0" encoding="UTF-8" standalone="no"?>
<!DOCTYPE svg PUBLIC "-//W3C//DTD SVG 1.1//EN"
 "http://www.w3.org/Graphics/SVG/1.1/DTD/svg11.dtd">
<!-- Generated by graphviz version 2.26.3 (20100126.1600)
 -->
<!-- Title: G Pages: 1 -->
<svg width="830pt" height="30pt"
 viewBox="0.00 0.00 830.00 30.00" xmlns="http://www.w3.org/2000/svg" xmlns:xlink="http://www.w3.org/1999/xlink">
<g id="graph1" class="graph" transform="scale(1 1) rotate(0) translate(4 26)">
<title>G</title>
<polygon fill="white" stroke="white" points="-4,5 -4,-26 827,-26 827,5 -4,5"/>
<!-- Node1 -->
<g id="node1" class="node"><title>Node1</title>
<polygon fill="#bfbfbf" stroke="black" points="0,-0.5 0,-21.5 260,-21.5 260,-0.5 0,-0.5"/>
<text text-anchor="middle" x="130" y="-8.5" font-family="Helvetica,sans-Serif" font-size="10.00">ZendDbSchema_Tool_Project_Provider_Migration\show</text>
</g>
<!-- Node2 -->
<g id="node3" class="node"><title>Node2</title>
<a xlink:href="classZendDbSchema__Db__Migration__Change.html#abd5253380521e63e91099a6ab3b89387" target="_top" xlink:title="ZendDbSchema_Db_Migration_Change\\fromFile">
<polygon fill="white" stroke="black" points="296.5,-0.5 296.5,-21.5 523.5,-21.5 523.5,-0.5 296.5,-0.5"/>
<text text-anchor="middle" x="410" y="-8.5" font-family="Helvetica,sans-Serif" font-size="10.00">ZendDbSchema_Db_Migration_Change\fromFile</text>
</a>
</g>
<!-- Node1&#45;&gt;Node2 -->
<g id="edge2" class="edge"><title>Node1&#45;&gt;Node2</title>
<path fill="none" stroke="midnightblue" d="M260.163,-11C268.786,-11 277.458,-11 286.049,-11"/>
<polygon fill="midnightblue" stroke="midnightblue" points="286.088,-14.5001 296.088,-11 286.088,-7.5001 286.088,-14.5001"/>
</g>
<!-- Node3 -->
<g id="node5" class="node"><title>Node3</title>
<a xlink:href="classZendDbSchema__Db__Migration__Skeleton.html#a5846d949a449ef981b1c1e1be9eed03a" target="_top" xlink:title="ZendDbSchema_Db_Migration_Skeleton\\getClassName">
<polygon fill="white" stroke="black" points="560,-0.5 560,-21.5 822,-21.5 822,-0.5 560,-0.5"/>
<text text-anchor="middle" x="691" y="-8.5" font-family="Helvetica,sans-Serif" font-size="10.00">ZendDbSchema_Db_Migration_Skeleton\getClassName</text>
</a>
</g>
<!-- Node2&#45;&gt;Node3 -->
<g id="edge4" class="edge"><title>Node2&#45;&gt;Node3</title>
<path fill="none" stroke="midnightblue" d="M523.888,-11C532.417,-11 541.082,-11 549.751,-11"/>
<polygon fill="midnightblue" stroke="midnightblue" points="549.921,-14.5001 559.921,-11 549.921,-7.5001 549.921,-14.5001"/>
</g>
</g>
</svg>
