<?xml version="1.0" encoding="UTF-8" standalone="no"?>
<!DOCTYPE svg PUBLIC "-//W3C//DTD SVG 1.1//EN"
 "http://www.w3.org/Graphics/SVG/1.1/DTD/svg11.dtd">
<!-- Generated by graphviz version 2.26.3 (20100126.1600)
 -->
<!-- Title: G Pages: 1 -->
<svg width="1250pt" height="70pt"
 viewBox="0.00 0.00 1250.00 70.00" xmlns="http://www.w3.org/2000/svg" xmlns:xlink="http://www.w3.org/1999/xlink">
<g id="graph1" class="graph" transform="scale(1 1) rotate(0) translate(4 66)">
<title>G</title>
<polygon fill="white" stroke="white" points="-4,5 -4,-66 1247,-66 1247,5 -4,5"/>
<!-- Node1 -->
<g id="node1" class="node"><title>Node1</title>
<polygon fill="#bfbfbf" stroke="black" points="0.5,-20.5 0.5,-41.5 321.5,-41.5 321.5,-20.5 0.5,-20.5"/>
<text text-anchor="middle" x="161" y="-28.5" font-family="Helvetica,sans-Serif" font-size="10.00">ZendDbSchema_Db_Schema_Generator_Mysql\generateColumnDrop</text>
</g>
<!-- Node2 -->
<g id="node3" class="node"><title>Node2</title>
<a xlink:href="classZendDbSchema__Db__Schema__AbstractSchema.html#a55787c21deddba427842809d589c2df6" target="_top" xlink:title="ZendDbSchema_Db_Schema_AbstractSchema\\getName">
<polygon fill="white" stroke="black" points="374.5,-40.5 374.5,-61.5 641.5,-61.5 641.5,-40.5 374.5,-40.5"/>
<text text-anchor="middle" x="508" y="-48.5" font-family="Helvetica,sans-Serif" font-size="10.00">ZendDbSchema_Db_Schema_AbstractSchema\getName</text>
</a>
</g>
<!-- Node1&#45;&gt;Node2 -->
<g id="edge2" class="edge"><title>Node1&#45;&gt;Node2</title>
<path fill="none" stroke="midnightblue" d="M321.549,-40.2535C335.755,-41.0724 350.078,-41.8979 364.133,-42.708"/>
<polygon fill="midnightblue" stroke="midnightblue" points="364.13,-46.2135 374.315,-43.2948 364.533,-39.2251 364.13,-46.2135"/>
</g>
<!-- Node5 -->
<g id="node9" class="node"><title>Node5</title>
<a xlink:href="classZendDbSchema__Db__Schema__Table__AbstractDefinition.html#a224b6a0c1df1d6ed40e03657782ef6fc" target="_top" xlink:title="ZendDbSchema_Db_Schema_Table_AbstractDefinition\\getTable">
<polygon fill="white" stroke="black" points="358.5,-0.5 358.5,-21.5 657.5,-21.5 657.5,-0.5 358.5,-0.5"/>
<text text-anchor="middle" x="508" y="-8.5" font-family="Helvetica,sans-Serif" font-size="10.00">ZendDbSchema_Db_Schema_Table_AbstractDefinition\getTable</text>
</a>
</g>
<!-- Node1&#45;&gt;Node5 -->
<g id="edge8" class="edge"><title>Node1&#45;&gt;Node5</title>
<path fill="none" stroke="midnightblue" d="M321.549,-21.7465C330.444,-21.2338 339.385,-20.7184 348.277,-20.2059"/>
<polygon fill="midnightblue" stroke="midnightblue" points="348.509,-23.6985 358.291,-19.6288 348.106,-16.7101 348.509,-23.6985"/>
</g>
<!-- Node3 -->
<g id="node5" class="node"><title>Node3</title>
<a xlink:href="classZendDbSchema__Db__Schema__AbstractSchema.html#a54d32c6f15463eaad2321a9f0e7225d7" target="_top" xlink:title="ZendDbSchema_Db_Schema_AbstractSchema\\__get">
<polygon fill="white" stroke="black" points="694.5,-40.5 694.5,-61.5 945.5,-61.5 945.5,-40.5 694.5,-40.5"/>
<text text-anchor="middle" x="820" y="-48.5" font-family="Helvetica,sans-Serif" font-size="10.00">ZendDbSchema_Db_Schema_AbstractSchema\__get</text>
</a>
</g>
<!-- Node2&#45;&gt;Node3 -->
<g id="edge4" class="edge"><title>Node2&#45;&gt;Node3</title>
<path fill="none" stroke="midnightblue" d="M641.674,-51C655.648,-51 669.867,-51 683.869,-51"/>
<polygon fill="midnightblue" stroke="midnightblue" points="684.019,-54.5001 694.019,-51 684.019,-47.5001 684.019,-54.5001"/>
</g>
<!-- Node4 -->
<g id="node7" class="node"><title>Node4</title>
<a xlink:href="classZendDbSchema__Db__Schema__AbstractSchema.html#ac4e121ba7932163eb1950fabe06fb9db" target="_top" xlink:title="ZendDbSchema_Db_Schema_AbstractSchema\\__isset">
<polygon fill="white" stroke="black" points="982.5,-40.5 982.5,-61.5 1241.5,-61.5 1241.5,-40.5 982.5,-40.5"/>
<text text-anchor="middle" x="1112" y="-48.5" font-family="Helvetica,sans-Serif" font-size="10.00">ZendDbSchema_Db_Schema_AbstractSchema\__isset</text>
</a>
</g>
<!-- Node3&#45;&gt;Node4 -->
<g id="edge6" class="edge"><title>Node3&#45;&gt;Node4</title>
<path fill="none" stroke="midnightblue" d="M945.529,-51C954.401,-51 963.376,-51 972.32,-51"/>
<polygon fill="midnightblue" stroke="midnightblue" points="972.397,-54.5001 982.397,-51 972.397,-47.5001 972.397,-54.5001"/>
</g>
</g>
</svg>
