<?xml version="1.0" encoding="UTF-8" standalone="no"?>
<!DOCTYPE svg PUBLIC "-//W3C//DTD SVG 1.1//EN"
 "http://www.w3.org/Graphics/SVG/1.1/DTD/svg11.dtd">
<!-- Generated by graphviz version 2.26.3 (20100126.1600)
 -->
<!-- Title: G Pages: 1 -->
<svg width="764pt" height="116pt"
 viewBox="0.00 0.00 764.00 116.00" xmlns="http://www.w3.org/2000/svg" xmlns:xlink="http://www.w3.org/1999/xlink">
<g id="graph1" class="graph" transform="scale(1 1) rotate(0) translate(4 112)">
<title>G</title>
<polygon fill="white" stroke="white" points="-4,5 -4,-112 761,-112 761,5 -4,5"/>
<!-- Node1 -->
<g id="node1" class="node"><title>Node1</title>
<polygon fill="#bfbfbf" stroke="black" points="0.5,-26 0.5,-60 149.5,-60 149.5,-26 0.5,-26"/>
<text text-anchor="start" x="8.5" y="-47" font-family="Helvetica,sans-Serif" font-size="10.00">ZendDbSchema_Db_Schema</text>
<text text-anchor="middle" x="75" y="-34" font-family="Helvetica,sans-Serif" font-size="10.00">_AbstractSchema\__construct</text>
</g>
<!-- Node2 -->
<g id="node3" class="node"><title>Node2</title>
<a xlink:href="classZendDbSchema__Db__Schema__AbstractSchema.html#a84673a5d69f10fec5b31294bf53f6d56" target="_top" xlink:title="ZendDbSchema_Db_Schema\l_AbstractSchema\\refresh">
<polygon fill="white" stroke="black" points="186,-52 186,-86 332,-86 332,-52 186,-52"/>
<text text-anchor="start" x="194" y="-73" font-family="Helvetica,sans-Serif" font-size="10.00">ZendDbSchema_Db_Schema</text>
<text text-anchor="middle" x="259" y="-60" font-family="Helvetica,sans-Serif" font-size="10.00">_AbstractSchema\refresh</text>
</a>
</g>
<!-- Node1&#45;&gt;Node2 -->
<g id="edge2" class="edge"><title>Node1&#45;&gt;Node2</title>
<path fill="none" stroke="midnightblue" d="M149.575,-53.5377C158.167,-54.7518 166.969,-55.9956 175.667,-57.2247"/>
<polygon fill="midnightblue" stroke="midnightblue" points="175.42,-60.7245 185.812,-58.6582 176.4,-53.7934 175.42,-60.7245"/>
</g>
<!-- Node7 -->
<g id="node14" class="node"><title>Node7</title>
<a xlink:href="classZendDbSchema__Db__Schema__AbstractSchema.html#abdb3f6e9b394b51512ce1567bb252b63" target="_top" xlink:title="ZendDbSchema_Db_Schema\l_AbstractSchema\\init">
<polygon fill="white" stroke="black" points="186,-0 186,-34 332,-34 332,-0 186,-0"/>
<text text-anchor="start" x="194" y="-21" font-family="Helvetica,sans-Serif" font-size="10.00">ZendDbSchema_Db_Schema</text>
<text text-anchor="middle" x="259" y="-8" font-family="Helvetica,sans-Serif" font-size="10.00">_AbstractSchema\init</text>
</a>
</g>
<!-- Node1&#45;&gt;Node7 -->
<g id="edge14" class="edge"><title>Node1&#45;&gt;Node7</title>
<path fill="none" stroke="midnightblue" d="M149.575,-32.4623C158.167,-31.2482 166.969,-30.0044 175.667,-28.7753"/>
<polygon fill="midnightblue" stroke="midnightblue" points="176.4,-32.2066 185.812,-27.3418 175.42,-25.2755 176.4,-32.2066"/>
</g>
<!-- Node3 -->
<g id="node5" class="node"><title>Node3</title>
<a xlink:href="classZendDbSchema__Db__Schema__AbstractSchema.html#ab4282a1fd6f4d9f23d01de8328072c71" target="_top" xlink:title="ZendDbSchema_Db_Schema\l_AbstractSchema\\__set">
<polygon fill="white" stroke="black" points="594,-74 594,-108 740,-108 740,-74 594,-74"/>
<text text-anchor="start" x="602" y="-95" font-family="Helvetica,sans-Serif" font-size="10.00">ZendDbSchema_Db_Schema</text>
<text text-anchor="middle" x="667" y="-82" font-family="Helvetica,sans-Serif" font-size="10.00">_AbstractSchema\__set</text>
</a>
</g>
<!-- Node2&#45;&gt;Node3 -->
<g id="edge4" class="edge"><title>Node2&#45;&gt;Node3</title>
<path fill="none" stroke="midnightblue" d="M319.371,-86.0562C335.073,-89.7585 352.06,-93.1252 368,-95 440.5,-103.527 523.565,-101.48 583.715,-97.9022"/>
<polygon fill="midnightblue" stroke="midnightblue" points="584.154,-101.382 593.917,-97.2676 583.719,-94.3952 584.154,-101.382"/>
</g>
<!-- Node4 -->
<g id="node7" class="node"><title>Node4</title>
<a xlink:href="classZendDbSchema__Db__Schema__AbstractSchema.html#a46da7a60c7e5fd605607afbc1dac4baa" target="_top" xlink:title="ZendDbSchema_Db_Schema\l_AbstractSchema\\getCleanSchema">
<polygon fill="white" stroke="black" points="368.5,-0 368.5,-34 541.5,-34 541.5,-0 368.5,-0"/>
<text text-anchor="start" x="376.5" y="-21" font-family="Helvetica,sans-Serif" font-size="10.00">ZendDbSchema_Db_Schema</text>
<text text-anchor="middle" x="455" y="-8" font-family="Helvetica,sans-Serif" font-size="10.00">_AbstractSchema\getCleanSchema</text>
</a>
</g>
<!-- Node2&#45;&gt;Node4 -->
<g id="edge6" class="edge"><title>Node2&#45;&gt;Node4</title>
<path fill="none" stroke="midnightblue" d="M323.178,-51.9733C341.622,-47.08 361.887,-41.7033 380.879,-36.6647"/>
<polygon fill="midnightblue" stroke="midnightblue" points="381.91,-40.0124 390.678,-34.065 380.115,-33.2465 381.91,-40.0124"/>
</g>
<!-- Node6 -->
<g id="node11" class="node"><title>Node6</title>
<a xlink:href="classZendDbSchema__Db__Schema__AbstractSchema.html#acd81590f02c831ff4c4a442c5cf47074" target="_top" xlink:title="ZendDbSchema_Db_Schema\l_AbstractSchema\\setFromArray">
<polygon fill="white" stroke="black" points="376.5,-52 376.5,-86 533.5,-86 533.5,-52 376.5,-52"/>
<text text-anchor="start" x="384.5" y="-73" font-family="Helvetica,sans-Serif" font-size="10.00">ZendDbSchema_Db_Schema</text>
<text text-anchor="middle" x="455" y="-60" font-family="Helvetica,sans-Serif" font-size="10.00">_AbstractSchema\setFromArray</text>
</a>
</g>
<!-- Node2&#45;&gt;Node6 -->
<g id="edge10" class="edge"><title>Node2&#45;&gt;Node6</title>
<path fill="none" stroke="midnightblue" d="M332.262,-69C343.251,-69 354.683,-69 365.957,-69"/>
<polygon fill="midnightblue" stroke="midnightblue" points="366.248,-72.5001 376.248,-69 366.248,-65.5001 366.248,-72.5001"/>
</g>
<!-- Node5 -->
<g id="node9" class="node"><title>Node5</title>
<a xlink:href="classZendDbSchema__Db__Schema__AbstractSchema.html#af99e5bb9adfe0da8c94d3d3848efe7b5" target="_top" xlink:title="ZendDbSchema_Db_Schema\l_AbstractSchema\\_getCleanSchema">
<polygon fill="white" stroke="black" points="578,-0 578,-34 756,-34 756,-0 578,-0"/>
<text text-anchor="start" x="586" y="-21" font-family="Helvetica,sans-Serif" font-size="10.00">ZendDbSchema_Db_Schema</text>
<text text-anchor="middle" x="667" y="-8" font-family="Helvetica,sans-Serif" font-size="10.00">_AbstractSchema\_getCleanSchema</text>
</a>
</g>
<!-- Node4&#45;&gt;Node5 -->
<g id="edge8" class="edge"><title>Node4&#45;&gt;Node5</title>
<path fill="none" stroke="midnightblue" d="M541.534,-17C550.175,-17 558.994,-17 567.752,-17"/>
<polygon fill="midnightblue" stroke="midnightblue" points="567.99,-20.5001 577.99,-17 567.99,-13.5001 567.99,-20.5001"/>
</g>
<!-- Node6&#45;&gt;Node3 -->
<g id="edge12" class="edge"><title>Node6&#45;&gt;Node3</title>
<path fill="none" stroke="midnightblue" d="M533.64,-77.1607C549.936,-78.8519 567.159,-80.6392 583.619,-82.3472"/>
<polygon fill="midnightblue" stroke="midnightblue" points="583.446,-85.848 593.753,-83.3989 584.168,-78.8854 583.446,-85.848"/>
</g>
</g>
</svg>
