<?xml version="1.0" encoding="UTF-8" standalone="no"?>
<!DOCTYPE svg PUBLIC "-//W3C//DTD SVG 1.1//EN"
 "http://www.w3.org/Graphics/SVG/1.1/DTD/svg11.dtd">
<!-- Generated by graphviz version 2.26.3 (20100126.1600)
 -->
<!-- Title: G Pages: 1 -->
<svg width="804pt" height="30pt"
 viewBox="0.00 0.00 804.00 30.00" xmlns="http://www.w3.org/2000/svg" xmlns:xlink="http://www.w3.org/1999/xlink">
<g id="graph1" class="graph" transform="scale(1 1) rotate(0) translate(4 26)">
<title>G</title>
<polygon fill="white" stroke="white" points="-4,5 -4,-26 801,-26 801,5 -4,5"/>
<!-- Node1 -->
<g id="node1" class="node"><title>Node1</title>
<polygon fill="#bfbfbf" stroke="black" points="0.5,-0.5 0.5,-21.5 243.5,-21.5 243.5,-0.5 0.5,-0.5"/>
<text text-anchor="middle" x="122" y="-8.5" font-family="Helvetica,sans-Serif" font-size="10.00">ZendDbSchema_Db_Migration_Skeleton\getVersion</text>
</g>
<!-- Node2 -->
<g id="node3" class="node"><title>Node2</title>
<a xlink:href="classZendDbSchema__Db__Migration__Skeleton.html#a7613e2ec6a61b621fd7897a29934269d" target="_top" xlink:title="ZendDbSchema_Db_Migration_Skeleton\\setVersion">
<polygon fill="white" stroke="black" points="280.5,-0.5 280.5,-21.5 523.5,-21.5 523.5,-0.5 280.5,-0.5"/>
<text text-anchor="middle" x="402" y="-8.5" font-family="Helvetica,sans-Serif" font-size="10.00">ZendDbSchema_Db_Migration_Skeleton\setVersion</text>
</a>
</g>
<!-- Node1&#45;&gt;Node2 -->
<g id="edge2" class="edge"><title>Node1&#45;&gt;Node2</title>
<path fill="none" stroke="midnightblue" d="M243.59,-11C252.289,-11 261.084,-11 269.838,-11"/>
<polygon fill="midnightblue" stroke="midnightblue" points="270.087,-14.5001 280.087,-11 270.087,-7.5001 270.087,-14.5001"/>
</g>
<!-- Node3 -->
<g id="node5" class="node"><title>Node3</title>
<a xlink:href="classZendDbSchema__Db__Migration__Skeleton.html#a9d8f00f78a02bdc4e028a210c2797c62" target="_top" xlink:title="ZendDbSchema_Db_Migration_Skeleton\\getClass">
<polygon fill="white" stroke="black" points="560,-0.5 560,-21.5 796,-21.5 796,-0.5 560,-0.5"/>
<text text-anchor="middle" x="678" y="-8.5" font-family="Helvetica,sans-Serif" font-size="10.00">ZendDbSchema_Db_Migration_Skeleton\getClass</text>
</a>
</g>
<!-- Node2&#45;&gt;Node3 -->
<g id="edge4" class="edge"><title>Node2&#45;&gt;Node3</title>
<path fill="none" stroke="midnightblue" d="M523.861,-11C532.476,-11 541.176,-11 549.824,-11"/>
<polygon fill="midnightblue" stroke="midnightblue" points="549.944,-14.5001 559.944,-11 549.944,-7.5001 549.944,-14.5001"/>
</g>
</g>
</svg>
