<?xml version="1.0" encoding="UTF-8" standalone="no"?>
<!DOCTYPE svg PUBLIC "-//W3C//DTD SVG 1.1//EN"
 "http://www.w3.org/Graphics/SVG/1.1/DTD/svg11.dtd">
<!-- Generated by graphviz version 2.26.3 (20100126.1600)
 -->
<!-- Title: G Pages: 1 -->
<svg width="470pt" height="150pt"
 viewBox="0.00 0.00 470.00 150.00" xmlns="http://www.w3.org/2000/svg" xmlns:xlink="http://www.w3.org/1999/xlink">
<g id="graph1" class="graph" transform="scale(1 1) rotate(0) translate(4 146)">
<title>G</title>
<polygon fill="white" stroke="white" points="-4,5 -4,-146 467,-146 467,5 -4,5"/>
<!-- Node1 -->
<g id="node1" class="node"><title>Node1</title>
<polygon fill="#bfbfbf" stroke="black" points="0,-60.5 0,-81.5 210,-81.5 210,-60.5 0,-60.5"/>
<text text-anchor="middle" x="105" y="-68.5" font-family="Helvetica,sans-Serif" font-size="10.00">ZendDbSchema_Db_Schema_Table\toArray</text>
</g>
<!-- Node2 -->
<g id="node3" class="node"><title>Node2</title>
<a xlink:href="classZendDbSchema__Db__Schema__Table.html#a214354faa96de67a26b787c2c8741850" target="_top" xlink:title="ZendDbSchema_Db_Schema_Table\\columns">
<polygon fill="white" stroke="black" points="246.5,-120.5 246.5,-141.5 461.5,-141.5 461.5,-120.5 246.5,-120.5"/>
<text text-anchor="middle" x="354" y="-128.5" font-family="Helvetica,sans-Serif" font-size="10.00">ZendDbSchema_Db_Schema_Table\columns</text>
</a>
</g>
<!-- Node1&#45;&gt;Node2 -->
<g id="edge2" class="edge"><title>Node1&#45;&gt;Node2</title>
<path fill="none" stroke="midnightblue" d="M138.673,-81.51C167.095,-90.15 208.959,-102.336 246,-111 257.46,-113.68 269.671,-116.231 281.606,-118.558"/>
<polygon fill="midnightblue" stroke="midnightblue" points="281.064,-122.018 291.543,-120.459 282.379,-115.143 281.064,-122.018"/>
</g>
<!-- Node3 -->
<g id="node5" class="node"><title>Node3</title>
<a xlink:href="classZendDbSchema__Db__Schema__Table.html#a9d445dd6a92cc3a50aa6d8dad8395f0a" target="_top" xlink:title="ZendDbSchema_Db_Schema_Table\\primary">
<polygon fill="white" stroke="black" points="248.5,-80.5 248.5,-101.5 459.5,-101.5 459.5,-80.5 248.5,-80.5"/>
<text text-anchor="middle" x="354" y="-88.5" font-family="Helvetica,sans-Serif" font-size="10.00">ZendDbSchema_Db_Schema_Table\primary</text>
</a>
</g>
<!-- Node1&#45;&gt;Node3 -->
<g id="edge4" class="edge"><title>Node1&#45;&gt;Node3</title>
<path fill="none" stroke="midnightblue" d="M210.238,-79.4528C219.497,-80.1966 228.903,-80.9521 238.243,-81.7022"/>
<polygon fill="midnightblue" stroke="midnightblue" points="238.094,-85.2014 248.342,-82.5134 238.654,-78.2239 238.094,-85.2014"/>
</g>
<!-- Node4 -->
<g id="node7" class="node"><title>Node4</title>
<a xlink:href="classZendDbSchema__Db__Schema__Table.html#a47df29d95af8f655dd7506cfb649ec40" target="_top" xlink:title="ZendDbSchema_Db_Schema_Table\\indexes">
<polygon fill="white" stroke="black" points="248,-40.5 248,-61.5 460,-61.5 460,-40.5 248,-40.5"/>
<text text-anchor="middle" x="354" y="-48.5" font-family="Helvetica,sans-Serif" font-size="10.00">ZendDbSchema_Db_Schema_Table\indexes</text>
</a>
</g>
<!-- Node1&#45;&gt;Node4 -->
<g id="edge6" class="edge"><title>Node1&#45;&gt;Node4</title>
<path fill="none" stroke="midnightblue" d="M210.238,-62.5472C219.4,-61.8112 228.705,-61.0638 237.948,-60.3214"/>
<polygon fill="midnightblue" stroke="midnightblue" points="238.256,-63.8081 247.943,-59.5186 237.695,-56.8306 238.256,-63.8081"/>
</g>
<!-- Node5 -->
<g id="node9" class="node"><title>Node5</title>
<a xlink:href="classZendDbSchema__Db__Schema__Table.html#acff371c2884c9688b5ede2deaf09f25c" target="_top" xlink:title="ZendDbSchema_Db_Schema_Table\\foreigns">
<polygon fill="white" stroke="black" points="247.5,-0.5 247.5,-21.5 460.5,-21.5 460.5,-0.5 247.5,-0.5"/>
<text text-anchor="middle" x="354" y="-8.5" font-family="Helvetica,sans-Serif" font-size="10.00">ZendDbSchema_Db_Schema_Table\foreigns</text>
</a>
</g>
<!-- Node1&#45;&gt;Node5 -->
<g id="edge8" class="edge"><title>Node1&#45;&gt;Node5</title>
<path fill="none" stroke="midnightblue" d="M138.673,-60.49C167.095,-51.85 208.959,-39.6638 246,-31 257.46,-28.3196 269.671,-25.7691 281.606,-23.4418"/>
<polygon fill="midnightblue" stroke="midnightblue" points="282.379,-26.8575 291.543,-21.5413 281.064,-19.9821 282.379,-26.8575"/>
</g>
</g>
</svg>
