<?xml version="1.0" encoding="UTF-8" standalone="no"?>
<!DOCTYPE svg PUBLIC "-//W3C//DTD SVG 1.1//EN"
 "http://www.w3.org/Graphics/SVG/1.1/DTD/svg11.dtd">
<!-- Generated by graphviz version 2.26.3 (20100126.1600)
 -->
<!-- Title: G Pages: 1 -->
<svg width="1608pt" height="110pt"
 viewBox="0.00 0.00 1608.00 110.00" xmlns="http://www.w3.org/2000/svg" xmlns:xlink="http://www.w3.org/1999/xlink">
<g id="graph1" class="graph" transform="scale(1 1) rotate(0) translate(4 106)">
<title>G</title>
<polygon fill="white" stroke="white" points="-4,5 -4,-106 1605,-106 1605,5 -4,5"/>
<!-- Node1 -->
<g id="node1" class="node"><title>Node1</title>
<polygon fill="#bfbfbf" stroke="black" points="0,-40.5 0,-61.5 342,-61.5 342,-40.5 0,-40.5"/>
<text text-anchor="middle" x="171" y="-48.5" font-family="Helvetica,sans-Serif" font-size="10.00">ZendDbSchema_Db_Schema_Table_AbstractDefinition\_getCleanSchema</text>
</g>
<!-- Node2 -->
<g id="node3" class="node"><title>Node2</title>
<a xlink:href="classZendDbSchema__Db__Schema__Table__AbstractDefinition.html#a224b6a0c1df1d6ed40e03657782ef6fc" target="_top" xlink:title="ZendDbSchema_Db_Schema_Table_AbstractDefinition\\getTable">
<polygon fill="white" stroke="black" points="395.5,-80.5 395.5,-101.5 694.5,-101.5 694.5,-80.5 395.5,-80.5"/>
<text text-anchor="middle" x="545" y="-88.5" font-family="Helvetica,sans-Serif" font-size="10.00">ZendDbSchema_Db_Schema_Table_AbstractDefinition\getTable</text>
</a>
</g>
<!-- Node1&#45;&gt;Node2 -->
<g id="edge2" class="edge"><title>Node1&#45;&gt;Node2</title>
<path fill="none" stroke="midnightblue" d="M269.264,-61.5095C320.704,-67.0112 383.807,-73.7601 436.658,-79.4127"/>
<polygon fill="midnightblue" stroke="midnightblue" points="436.428,-82.9079 446.744,-80.4913 437.172,-75.9476 436.428,-82.9079"/>
</g>
<!-- Node3 -->
<g id="node5" class="node"><title>Node3</title>
<a xlink:href="classZendDbSchema__Db__Schema__AbstractSchema.html#adacb1417b461310c5c87f72c459c1985" target="_top" xlink:title="ZendDbSchema_Db_Schema_AbstractSchema\\getOriginName">
<polygon fill="white" stroke="black" points="398.5,-40.5 398.5,-61.5 691.5,-61.5 691.5,-40.5 398.5,-40.5"/>
<text text-anchor="middle" x="545" y="-48.5" font-family="Helvetica,sans-Serif" font-size="10.00">ZendDbSchema_Db_Schema_AbstractSchema\getOriginName</text>
</a>
</g>
<!-- Node1&#45;&gt;Node3 -->
<g id="edge4" class="edge"><title>Node1&#45;&gt;Node3</title>
<path fill="none" stroke="midnightblue" d="M342.129,-51C357.366,-51 372.745,-51 387.857,-51"/>
<polygon fill="midnightblue" stroke="midnightblue" points="388.271,-54.5001 398.271,-51 388.271,-47.5001 388.271,-54.5001"/>
</g>
<!-- Node7 -->
<g id="node13" class="node"><title>Node7</title>
<a xlink:href="classZendDbSchema__Db__Schema__Table__AbstractDefinition.html#a2fb894602c4b7fbba5dd1d180f93c181" target="_top" xlink:title="ZendDbSchema_Db_Schema_Table_AbstractDefinition\\_getSchemaKey">
<polygon fill="white" stroke="black" points="378,-0.5 378,-21.5 712,-21.5 712,-0.5 378,-0.5"/>
<text text-anchor="middle" x="545" y="-8.5" font-family="Helvetica,sans-Serif" font-size="10.00">ZendDbSchema_Db_Schema_Table_AbstractDefinition\_getSchemaKey</text>
</a>
</g>
<!-- Node1&#45;&gt;Node7 -->
<g id="edge12" class="edge"><title>Node1&#45;&gt;Node7</title>
<path fill="none" stroke="midnightblue" d="M269.264,-40.4905C320.704,-34.9888 383.807,-28.2399 436.658,-22.5873"/>
<polygon fill="midnightblue" stroke="midnightblue" points="437.172,-26.0524 446.744,-21.5087 436.428,-19.0921 437.172,-26.0524"/>
</g>
<!-- Node4 -->
<g id="node7" class="node"><title>Node4</title>
<a xlink:href="classZendDbSchema__Db__Schema__AbstractSchema.html#a55787c21deddba427842809d589c2df6" target="_top" xlink:title="ZendDbSchema_Db_Schema_AbstractSchema\\getName">
<polygon fill="white" stroke="black" points="748.5,-40.5 748.5,-61.5 1015.5,-61.5 1015.5,-40.5 748.5,-40.5"/>
<text text-anchor="middle" x="882" y="-48.5" font-family="Helvetica,sans-Serif" font-size="10.00">ZendDbSchema_Db_Schema_AbstractSchema\getName</text>
</a>
</g>
<!-- Node3&#45;&gt;Node4 -->
<g id="edge6" class="edge"><title>Node3&#45;&gt;Node4</title>
<path fill="none" stroke="midnightblue" d="M691.833,-51C707.256,-51 722.925,-51 738.312,-51"/>
<polygon fill="midnightblue" stroke="midnightblue" points="738.378,-54.5001 748.378,-51 738.378,-47.5001 738.378,-54.5001"/>
</g>
<!-- Node5 -->
<g id="node9" class="node"><title>Node5</title>
<a xlink:href="classZendDbSchema__Db__Schema__AbstractSchema.html#a54d32c6f15463eaad2321a9f0e7225d7" target="_top" xlink:title="ZendDbSchema_Db_Schema_AbstractSchema\\__get">
<polygon fill="white" stroke="black" points="1052.5,-40.5 1052.5,-61.5 1303.5,-61.5 1303.5,-40.5 1052.5,-40.5"/>
<text text-anchor="middle" x="1178" y="-48.5" font-family="Helvetica,sans-Serif" font-size="10.00">ZendDbSchema_Db_Schema_AbstractSchema\__get</text>
</a>
</g>
<!-- Node4&#45;&gt;Node5 -->
<g id="edge8" class="edge"><title>Node4&#45;&gt;Node5</title>
<path fill="none" stroke="midnightblue" d="M1015.71,-51C1024.41,-51 1033.18,-51 1041.89,-51"/>
<polygon fill="midnightblue" stroke="midnightblue" points="1042.08,-54.5001 1052.08,-51 1042.08,-47.5001 1042.08,-54.5001"/>
</g>
<!-- Node6 -->
<g id="node11" class="node"><title>Node6</title>
<a xlink:href="classZendDbSchema__Db__Schema__AbstractSchema.html#ac4e121ba7932163eb1950fabe06fb9db" target="_top" xlink:title="ZendDbSchema_Db_Schema_AbstractSchema\\__isset">
<polygon fill="white" stroke="black" points="1340.5,-40.5 1340.5,-61.5 1599.5,-61.5 1599.5,-40.5 1340.5,-40.5"/>
<text text-anchor="middle" x="1470" y="-48.5" font-family="Helvetica,sans-Serif" font-size="10.00">ZendDbSchema_Db_Schema_AbstractSchema\__isset</text>
</a>
</g>
<!-- Node5&#45;&gt;Node6 -->
<g id="edge10" class="edge"><title>Node5&#45;&gt;Node6</title>
<path fill="none" stroke="midnightblue" d="M1303.53,-51C1312.4,-51 1321.38,-51 1330.32,-51"/>
<polygon fill="midnightblue" stroke="midnightblue" points="1330.4,-54.5001 1340.4,-51 1330.4,-47.5001 1330.4,-54.5001"/>
</g>
</g>
</svg>
