<?xml version="1.0" encoding="UTF-8" standalone="no"?>
<!DOCTYPE svg PUBLIC "-//W3C//DTD SVG 1.1//EN"
 "http://www.w3.org/Graphics/SVG/1.1/DTD/svg11.dtd">
<!-- Generated by graphviz version 2.26.3 (20100126.1600)
 -->
<!-- Title: G Pages: 1 -->
<svg width="630pt" height="70pt"
 viewBox="0.00 0.00 630.00 70.00" xmlns="http://www.w3.org/2000/svg" xmlns:xlink="http://www.w3.org/1999/xlink">
<g id="graph1" class="graph" transform="scale(1 1) rotate(0) translate(4 66)">
<title>G</title>
<polygon fill="white" stroke="white" points="-4,5 -4,-66 627,-66 627,5 -4,5"/>
<!-- Node1 -->
<g id="node1" class="node"><title>Node1</title>
<polygon fill="#bfbfbf" stroke="black" points="0,-20.5 0,-41.5 286,-41.5 286,-20.5 0,-20.5"/>
<text text-anchor="middle" x="143" y="-28.5" font-family="Helvetica,sans-Serif" font-size="10.00">ZendDbSchema_Db_Schema_Table_ForeignKey\setColumns</text>
</g>
<!-- Node2 -->
<g id="node3" class="node"><title>Node2</title>
<a xlink:href="classZendDbSchema__Db__Schema__Table__ForeignKey.html#a810c76bf8102391ec3d304647c369146" target="_top" xlink:title="ZendDbSchema_Db_Schema_Table_ForeignKey\\removeColumn">
<polygon fill="white" stroke="black" points="322.5,-40.5 322.5,-61.5 621.5,-61.5 621.5,-40.5 322.5,-40.5"/>
<text text-anchor="middle" x="472" y="-48.5" font-family="Helvetica,sans-Serif" font-size="10.00">ZendDbSchema_Db_Schema_Table_ForeignKey\removeColumn</text>
</a>
</g>
<!-- Node1&#45;&gt;Node2 -->
<g id="edge2" class="edge"><title>Node1&#45;&gt;Node2</title>
<path fill="none" stroke="midnightblue" d="M296.459,-40.3288C305.093,-40.8537 313.768,-41.381 322.388,-41.905"/>
<polygon fill="midnightblue" stroke="midnightblue" points="296.541,-36.8274 286.347,-39.7141 296.116,-43.8145 296.541,-36.8274"/>
</g>
<!-- Node3 -->
<g id="node5" class="node"><title>Node3</title>
<a xlink:href="classZendDbSchema__Db__Schema__Table__ForeignKey.html#acad90fc706fe3c4aa734b073fa551152" target="_top" xlink:title="ZendDbSchema_Db_Schema_Table_ForeignKey\\setColumn">
<polygon fill="white" stroke="black" points="331.5,-0.5 331.5,-21.5 612.5,-21.5 612.5,-0.5 331.5,-0.5"/>
<text text-anchor="middle" x="472" y="-8.5" font-family="Helvetica,sans-Serif" font-size="10.00">ZendDbSchema_Db_Schema_Table_ForeignKey\setColumn</text>
</a>
</g>
<!-- Node1&#45;&gt;Node3 -->
<g id="edge4" class="edge"><title>Node1&#45;&gt;Node3</title>
<path fill="none" stroke="midnightblue" d="M296.559,-21.6651C308.207,-20.957 319.928,-20.2445 331.488,-19.5417"/>
<polygon fill="midnightblue" stroke="midnightblue" points="296.116,-18.1855 286.347,-22.2859 296.541,-25.1726 296.116,-18.1855"/>
</g>
</g>
</svg>
