<?xml version="1.0" encoding="UTF-8" standalone="no"?>
<!DOCTYPE svg PUBLIC "-//W3C//DTD SVG 1.1//EN"
 "http://www.w3.org/Graphics/SVG/1.1/DTD/svg11.dtd">
<!-- Generated by graphviz version 2.26.3 (20100126.1600)
 -->
<!-- Title: G Pages: 1 -->
<svg width="1272pt" height="188pt"
 viewBox="0.00 0.00 1272.00 188.00" xmlns="http://www.w3.org/2000/svg" xmlns:xlink="http://www.w3.org/1999/xlink">
<g id="graph1" class="graph" transform="scale(1 1) rotate(0) translate(4 184)">
<title>G</title>
<polygon fill="white" stroke="white" points="-4,5 -4,-184 1269,-184 1269,5 -4,5"/>
<!-- Node1 -->
<g id="node1" class="node"><title>Node1</title>
<polygon fill="#bfbfbf" stroke="black" points="0,-99.5 0,-120.5 300,-120.5 300,-99.5 0,-99.5"/>
<text text-anchor="middle" x="150" y="-107.5" font-family="Helvetica,sans-Serif" font-size="10.00">ZendDbSchema_Db_Schema_Validator_Mysql\validateDatabase</text>
</g>
<!-- Node2 -->
<g id="node3" class="node"><title>Node2</title>
<a xlink:href="classZendDbSchema__Db__Schema__AbstractSchema.html#adacb1417b461310c5c87f72c459c1985" target="_top" xlink:title="ZendDbSchema_Db_Schema_AbstractSchema\\getOriginName">
<polygon fill="white" stroke="black" points="336.5,-158.5 336.5,-179.5 629.5,-179.5 629.5,-158.5 336.5,-158.5"/>
<text text-anchor="middle" x="483" y="-166.5" font-family="Helvetica,sans-Serif" font-size="10.00">ZendDbSchema_Db_Schema_AbstractSchema\getOriginName</text>
</a>
</g>
<!-- Node1&#45;&gt;Node2 -->
<g id="edge2" class="edge"><title>Node1&#45;&gt;Node2</title>
<path fill="none" stroke="midnightblue" d="M206.54,-120.522C243.385,-127.333 292.52,-136.329 336,-144 360.091,-148.25 386.428,-152.769 410.068,-156.779"/>
<polygon fill="midnightblue" stroke="midnightblue" points="409.577,-160.246 420.021,-158.465 410.745,-153.344 409.577,-160.246"/>
</g>
<!-- Node3 -->
<g id="node5" class="node"><title>Node3</title>
<a xlink:href="classZendDbSchema__Db__Schema__AbstractSchema.html#a54d32c6f15463eaad2321a9f0e7225d7" target="_top" xlink:title="ZendDbSchema_Db_Schema_AbstractSchema\\__get">
<polygon fill="white" stroke="black" points="679.5,-139.5 679.5,-160.5 930.5,-160.5 930.5,-139.5 679.5,-139.5"/>
<text text-anchor="middle" x="805" y="-147.5" font-family="Helvetica,sans-Serif" font-size="10.00">ZendDbSchema_Db_Schema_AbstractSchema\__get</text>
</a>
</g>
<!-- Node1&#45;&gt;Node3 -->
<g id="edge22" class="edge"><title>Node1&#45;&gt;Node3</title>
<path fill="none" stroke="midnightblue" d="M300.27,-119.177C411.409,-125.964 561.515,-135.131 669.088,-141.7"/>
<polygon fill="midnightblue" stroke="midnightblue" points="669.168,-145.211 679.363,-142.327 669.595,-138.224 669.168,-145.211"/>
</g>
<!-- Node5 -->
<g id="node9" class="node"><title>Node5</title>
<a xlink:href="classZendDbSchema__Db__Schema__AbstractSchema.html#a1680a8fd22360f74d29b641d7257a52f" target="_top" xlink:title="ZendDbSchema_Db_Schema_AbstractSchema\\isExist">
<polygon fill="white" stroke="black" points="354.5,-80.5 354.5,-101.5 611.5,-101.5 611.5,-80.5 354.5,-80.5"/>
<text text-anchor="middle" x="483" y="-88.5" font-family="Helvetica,sans-Serif" font-size="10.00">ZendDbSchema_Db_Schema_AbstractSchema\isExist</text>
</a>
</g>
<!-- Node1&#45;&gt;Node5 -->
<g id="edge8" class="edge"><title>Node1&#45;&gt;Node5</title>
<path fill="none" stroke="midnightblue" d="M300.425,-101.417C315.059,-100.582 329.861,-99.7377 344.372,-98.9097"/>
<polygon fill="midnightblue" stroke="midnightblue" points="344.581,-102.404 354.366,-98.3395 344.182,-95.4149 344.581,-102.404"/>
</g>
<!-- Node7 -->
<g id="node13" class="node"><title>Node7</title>
<a xlink:href="classZendDbSchema__Db__Schema__AbstractSchema.html#a47d95912f6bf6d26d023597887dafacb" target="_top" xlink:title="ZendDbSchema_Db_Schema_AbstractSchema\\getAdapter">
<polygon fill="white" stroke="black" points="345.5,-40.5 345.5,-61.5 620.5,-61.5 620.5,-40.5 345.5,-40.5"/>
<text text-anchor="middle" x="483" y="-48.5" font-family="Helvetica,sans-Serif" font-size="10.00">ZendDbSchema_Db_Schema_AbstractSchema\getAdapter</text>
</a>
</g>
<!-- Node1&#45;&gt;Node7 -->
<g id="edge12" class="edge"><title>Node1&#45;&gt;Node7</title>
<path fill="none" stroke="midnightblue" d="M195.688,-99.4686C233.233,-91.0441 287.881,-79.3072 336,-71 352.655,-68.1247 370.43,-65.4093 387.657,-62.9609"/>
<polygon fill="midnightblue" stroke="midnightblue" points="388.307,-66.4042 397.724,-61.5509 387.336,-59.4718 388.307,-66.4042"/>
</g>
<!-- Node2&#45;&gt;Node3 -->
<g id="edge4" class="edge"><title>Node2&#45;&gt;Node3</title>
<path fill="none" stroke="midnightblue" d="M629.866,-160.334C642.823,-159.569 655.903,-158.798 668.767,-158.039"/>
<polygon fill="midnightblue" stroke="midnightblue" points="669.255,-161.516 679.031,-157.433 668.842,-154.528 669.255,-161.516"/>
</g>
<!-- Node4 -->
<g id="node7" class="node"><title>Node4</title>
<a xlink:href="classZendDbSchema__Db__Schema__AbstractSchema.html#ac4e121ba7932163eb1950fabe06fb9db" target="_top" xlink:title="ZendDbSchema_Db_Schema_AbstractSchema\\__isset">
<polygon fill="white" stroke="black" points="992.5,-139.5 992.5,-160.5 1251.5,-160.5 1251.5,-139.5 992.5,-139.5"/>
<text text-anchor="middle" x="1122" y="-147.5" font-family="Helvetica,sans-Serif" font-size="10.00">ZendDbSchema_Db_Schema_AbstractSchema\__isset</text>
</a>
</g>
<!-- Node3&#45;&gt;Node4 -->
<g id="edge6" class="edge"><title>Node3&#45;&gt;Node4</title>
<path fill="none" stroke="midnightblue" d="M930.742,-150C947.649,-150 965.075,-150 982.206,-150"/>
<polygon fill="midnightblue" stroke="midnightblue" points="982.252,-153.5 992.252,-150 982.252,-146.5 982.252,-153.5"/>
</g>
<!-- Node6 -->
<g id="node11" class="node"><title>Node6</title>
<a xlink:href="classZendDbSchema__Db__Schema__AbstractSchema.html#a219012c80be57ace4b1db43a9c48eb3d" target="_top" xlink:title="ZendDbSchema_Db_Schema_AbstractSchema\\getSchema">
<polygon fill="white" stroke="black" points="666.5,-80.5 666.5,-101.5 943.5,-101.5 943.5,-80.5 666.5,-80.5"/>
<text text-anchor="middle" x="805" y="-88.5" font-family="Helvetica,sans-Serif" font-size="10.00">ZendDbSchema_Db_Schema_AbstractSchema\getSchema</text>
</a>
</g>
<!-- Node5&#45;&gt;Node6 -->
<g id="edge10" class="edge"><title>Node5&#45;&gt;Node6</title>
<path fill="none" stroke="midnightblue" d="M611.651,-91C626.24,-91 641.198,-91 656.02,-91"/>
<polygon fill="midnightblue" stroke="midnightblue" points="656.253,-94.5001 666.253,-91 656.253,-87.5001 656.253,-94.5001"/>
</g>
<!-- Node8 -->
<g id="node15" class="node"><title>Node8</title>
<a xlink:href="classZendDbSchema__Db__Schema__AbstractSchema.html#a6349649e5e09d67a5b5e0abe96298db8" target="_top" xlink:title="ZendDbSchema_Db_Schema_AbstractSchema\\setAdapter">
<polygon fill="white" stroke="black" points="667.5,-40.5 667.5,-61.5 942.5,-61.5 942.5,-40.5 667.5,-40.5"/>
<text text-anchor="middle" x="805" y="-48.5" font-family="Helvetica,sans-Serif" font-size="10.00">ZendDbSchema_Db_Schema_AbstractSchema\setAdapter</text>
</a>
</g>
<!-- Node7&#45;&gt;Node8 -->
<g id="edge14" class="edge"><title>Node7&#45;&gt;Node8</title>
<path fill="none" stroke="midnightblue" d="M620.958,-51C632.96,-51 645.137,-51 657.213,-51"/>
<polygon fill="midnightblue" stroke="midnightblue" points="657.328,-54.5001 667.328,-51 657.328,-47.5001 657.328,-54.5001"/>
</g>
<!-- Node9 -->
<g id="node17" class="node"><title>Node9</title>
<a xlink:href="classZendDbSchema__Db__Schema__AbstractSchema.html#a53a1974dbc8822792a8d7b9c618d3a02" target="_top" xlink:title="ZendDbSchema_Db_Schema_AbstractSchema\\setGenerator">
<polygon fill="white" stroke="black" points="980,-80.5 980,-101.5 1264,-101.5 1264,-80.5 980,-80.5"/>
<text text-anchor="middle" x="1122" y="-88.5" font-family="Helvetica,sans-Serif" font-size="10.00">ZendDbSchema_Db_Schema_AbstractSchema\setGenerator</text>
</a>
</g>
<!-- Node8&#45;&gt;Node9 -->
<g id="edge16" class="edge"><title>Node8&#45;&gt;Node9</title>
<path fill="none" stroke="midnightblue" d="M888.288,-61.5095C931.435,-66.954 984.263,-73.6199 1028.77,-79.236"/>
<polygon fill="midnightblue" stroke="midnightblue" points="1028.36,-82.7118 1038.72,-80.4913 1029.24,-75.7668 1028.36,-82.7118"/>
</g>
<!-- Node10 -->
<g id="node19" class="node"><title>Node10</title>
<a xlink:href="classZendDbSchema__Db__Schema__AbstractSchema.html#aa0e6c9f8d58702dc41d988f064f62698" target="_top" xlink:title="ZendDbSchema_Db_Schema_AbstractSchema\\setParser">
<polygon fill="white" stroke="black" points="987.5,-40.5 987.5,-61.5 1256.5,-61.5 1256.5,-40.5 987.5,-40.5"/>
<text text-anchor="middle" x="1122" y="-48.5" font-family="Helvetica,sans-Serif" font-size="10.00">ZendDbSchema_Db_Schema_AbstractSchema\setParser</text>
</a>
</g>
<!-- Node8&#45;&gt;Node10 -->
<g id="edge18" class="edge"><title>Node8&#45;&gt;Node10</title>
<path fill="none" stroke="midnightblue" d="M942.658,-51C954.16,-51 965.81,-51 977.362,-51"/>
<polygon fill="midnightblue" stroke="midnightblue" points="977.482,-54.5001 987.482,-51 977.482,-47.5001 977.482,-54.5001"/>
</g>
<!-- Node11 -->
<g id="node21" class="node"><title>Node11</title>
<a xlink:href="classZendDbSchema__Db__Schema__AbstractSchema.html#ac0161e2c24dafba8433fb86205a147fe" target="_top" xlink:title="ZendDbSchema_Db_Schema_AbstractSchema\\setValidator">
<polygon fill="white" stroke="black" points="982.5,-0.5 982.5,-21.5 1261.5,-21.5 1261.5,-0.5 982.5,-0.5"/>
<text text-anchor="middle" x="1122" y="-8.5" font-family="Helvetica,sans-Serif" font-size="10.00">ZendDbSchema_Db_Schema_AbstractSchema\setValidator</text>
</a>
</g>
<!-- Node8&#45;&gt;Node11 -->
<g id="edge20" class="edge"><title>Node8&#45;&gt;Node11</title>
<path fill="none" stroke="midnightblue" d="M888.288,-40.4905C931.435,-35.046 984.263,-28.3801 1028.77,-22.764"/>
<polygon fill="midnightblue" stroke="midnightblue" points="1029.24,-26.2332 1038.72,-21.5087 1028.36,-19.2882 1029.24,-26.2332"/>
</g>
</g>
</svg>
