<?xml version="1.0" encoding="UTF-8" standalone="no"?>
<!DOCTYPE svg PUBLIC "-//W3C//DTD SVG 1.1//EN"
 "http://www.w3.org/Graphics/SVG/1.1/DTD/svg11.dtd">
<!-- Generated by graphviz version 2.26.3 (20100126.1600)
 -->
<!-- Title: G Pages: 1 -->
<svg width="922pt" height="70pt"
 viewBox="0.00 0.00 922.00 70.00" xmlns="http://www.w3.org/2000/svg" xmlns:xlink="http://www.w3.org/1999/xlink">
<g id="graph1" class="graph" transform="scale(1 1) rotate(0) translate(4 66)">
<title>G</title>
<polygon fill="white" stroke="white" points="-4,5 -4,-66 919,-66 919,5 -4,5"/>
<!-- Node1 -->
<g id="node1" class="node"><title>Node1</title>
<polygon fill="#bfbfbf" stroke="black" points="0.5,-20.5 0.5,-41.5 281.5,-41.5 281.5,-20.5 0.5,-20.5"/>
<text text-anchor="middle" x="141" y="-28.5" font-family="Helvetica,sans-Serif" font-size="10.00">ZendDbSchema_Db_Schema_AbstractSchema\_getDropSql</text>
</g>
<!-- Node2 -->
<g id="node3" class="node"><title>Node2</title>
<a xlink:href="classZendDbSchema__Db__Schema__AbstractSchema.html#aec661ede88f500caaf2a09e98c31d3b0" target="_top" xlink:title="ZendDbSchema_Db_Schema_AbstractSchema\\getDropSql">
<polygon fill="white" stroke="black" points="318,-20.5 318,-41.5 594,-41.5 594,-20.5 318,-20.5"/>
<text text-anchor="middle" x="456" y="-28.5" font-family="Helvetica,sans-Serif" font-size="10.00">ZendDbSchema_Db_Schema_AbstractSchema\getDropSql</text>
</a>
</g>
<!-- Node1&#45;&gt;Node2 -->
<g id="edge2" class="edge"><title>Node1&#45;&gt;Node2</title>
<path fill="none" stroke="midnightblue" d="M292.03,-31C300.661,-31 309.318,-31 317.897,-31"/>
<polygon fill="midnightblue" stroke="midnightblue" points="291.916,-27.5001 281.916,-31 291.916,-34.5001 291.916,-27.5001"/>
</g>
<!-- Node3 -->
<g id="node5" class="node"><title>Node3</title>
<a xlink:href="classZendDbSchema__Db__Schema__AbstractEntity.html#a26fcff2268495fcdbfa265f394ee93d9" target="_top" xlink:title="ZendDbSchema_Db_Schema_AbstractEntity\\delete">
<polygon fill="white" stroke="black" points="650.5,-40.5 650.5,-61.5 893.5,-61.5 893.5,-40.5 650.5,-40.5"/>
<text text-anchor="middle" x="772" y="-48.5" font-family="Helvetica,sans-Serif" font-size="10.00">ZendDbSchema_Db_Schema_AbstractEntity\delete</text>
</a>
</g>
<!-- Node2&#45;&gt;Node3 -->
<g id="edge4" class="edge"><title>Node2&#45;&gt;Node3</title>
<path fill="none" stroke="midnightblue" d="M604.289,-40.3854C619.767,-41.365 635.37,-42.3525 650.5,-43.3101"/>
<polygon fill="midnightblue" stroke="midnightblue" points="604.344,-36.8819 594.143,-39.7432 603.901,-43.8679 604.344,-36.8819"/>
</g>
<!-- Node4 -->
<g id="node7" class="node"><title>Node4</title>
<a xlink:href="classZendDbSchema__Db__Schema__Table__AbstractDefinition.html#a75c1b3ef1005c2d6aa371ecef07d530d" target="_top" xlink:title="ZendDbSchema_Db_Schema_Table_AbstractDefinition\\toSql">
<polygon fill="white" stroke="black" points="630,-0.5 630,-21.5 914,-21.5 914,-0.5 630,-0.5"/>
<text text-anchor="middle" x="772" y="-8.5" font-family="Helvetica,sans-Serif" font-size="10.00">ZendDbSchema_Db_Schema_Table_AbstractDefinition\toSql</text>
</a>
</g>
<!-- Node2&#45;&gt;Node4 -->
<g id="edge6" class="edge"><title>Node2&#45;&gt;Node4</title>
<path fill="none" stroke="midnightblue" d="M604.399,-21.6077C612.828,-21.0742 621.293,-20.5384 629.698,-20.0065"/>
<polygon fill="midnightblue" stroke="midnightblue" points="603.901,-18.1321 594.143,-22.2568 604.344,-25.1181 603.901,-18.1321"/>
</g>
</g>
</svg>
