<?xml version="1.0" encoding="UTF-8" standalone="no"?>
<!DOCTYPE svg PUBLIC "-//W3C//DTD SVG 1.1//EN"
 "http://www.w3.org/Graphics/SVG/1.1/DTD/svg11.dtd">
<!-- Generated by graphviz version 2.26.3 (20100126.1600)
 -->
<!-- Title: G Pages: 1 -->
<svg width="532pt" height="94pt"
 viewBox="0.00 0.00 532.00 94.00" xmlns="http://www.w3.org/2000/svg" xmlns:xlink="http://www.w3.org/1999/xlink">
<g id="graph1" class="graph" transform="scale(1 1) rotate(0) translate(4 90)">
<title>G</title>
<polygon fill="white" stroke="white" points="-4,5 -4,-90 529,-90 529,5 -4,5"/>
<!-- Node1 -->
<g id="node1" class="node"><title>Node1</title>
<polygon fill="#bfbfbf" stroke="black" points="0,-26 0,-60 160,-60 160,-26 0,-26"/>
<text text-anchor="start" x="8" y="-47" font-family="Helvetica,sans-Serif" font-size="10.00">ZendDbSchema_Db_Schema</text>
<text text-anchor="middle" x="80" y="-34" font-family="Helvetica,sans-Serif" font-size="10.00">_AbstractSchema\_getCreateSql</text>
</g>
<!-- Node2 -->
<g id="node3" class="node"><title>Node2</title>
<a xlink:href="classZendDbSchema__Db__Schema__AbstractSchema.html#ada5af8e6e7a4c5407b7ca67d03900b31" target="_top" xlink:title="ZendDbSchema_Db_Schema\l_AbstractSchema\\toSql">
<polygon fill="white" stroke="black" points="196,-26 196,-60 342,-60 342,-26 196,-26"/>
<text text-anchor="start" x="204" y="-47" font-family="Helvetica,sans-Serif" font-size="10.00">ZendDbSchema_Db_Schema</text>
<text text-anchor="middle" x="269" y="-34" font-family="Helvetica,sans-Serif" font-size="10.00">_AbstractSchema\toSql</text>
</a>
</g>
<!-- Node1&#45;&gt;Node2 -->
<g id="edge2" class="edge"><title>Node1&#45;&gt;Node2</title>
<path fill="none" stroke="midnightblue" d="M170.226,-43C178.84,-43 187.502,-43 195.923,-43"/>
<polygon fill="midnightblue" stroke="midnightblue" points="170.153,-39.5001 160.153,-43 170.153,-46.5001 170.153,-39.5001"/>
</g>
<!-- Node3 -->
<g id="node5" class="node"><title>Node3</title>
<a xlink:href="classZendDbSchema__Db__Schema__AbstractEntity.html#a5b1c93da76c3708f90d330b4643e55b2" target="_top" xlink:title="ZendDbSchema_Db_Schema\l_AbstractEntity\\save">
<polygon fill="white" stroke="black" points="378,-52 378,-86 524,-86 524,-52 378,-52"/>
<text text-anchor="start" x="386" y="-73" font-family="Helvetica,sans-Serif" font-size="10.00">ZendDbSchema_Db_Schema</text>
<text text-anchor="middle" x="451" y="-60" font-family="Helvetica,sans-Serif" font-size="10.00">_AbstractEntity\save</text>
</a>
</g>
<!-- Node2&#45;&gt;Node3 -->
<g id="edge4" class="edge"><title>Node2&#45;&gt;Node3</title>
<path fill="none" stroke="midnightblue" d="M352.237,-54.8909C360.804,-56.1149 369.464,-57.3521 377.91,-58.5586"/>
<polygon fill="midnightblue" stroke="midnightblue" points="352.634,-51.4123 342.24,-53.4628 351.644,-58.3419 352.634,-51.4123"/>
</g>
<!-- Node4 -->
<g id="node7" class="node"><title>Node4</title>
<a xlink:href="classZendDbSchema__Db__Schema__AbstractSchema.html#aafc458a7c19c74314889da4a99e457ff" target="_top" xlink:title="ZendDbSchema_Db_Schema\l_AbstractSchema\\__toString">
<polygon fill="white" stroke="black" points="378,-0 378,-34 524,-34 524,-0 378,-0"/>
<text text-anchor="start" x="386" y="-21" font-family="Helvetica,sans-Serif" font-size="10.00">ZendDbSchema_Db_Schema</text>
<text text-anchor="middle" x="451" y="-8" font-family="Helvetica,sans-Serif" font-size="10.00">_AbstractSchema\__toString</text>
</a>
</g>
<!-- Node2&#45;&gt;Node4 -->
<g id="edge6" class="edge"><title>Node2&#45;&gt;Node4</title>
<path fill="none" stroke="midnightblue" d="M352.237,-31.1091C360.804,-29.8851 369.464,-28.6479 377.91,-27.4414"/>
<polygon fill="midnightblue" stroke="midnightblue" points="351.644,-27.6581 342.24,-32.5372 352.634,-34.5877 351.644,-27.6581"/>
</g>
</g>
</svg>
