<?xml version="1.0" encoding="UTF-8" standalone="no"?>
<!DOCTYPE svg PUBLIC "-//W3C//DTD SVG 1.1//EN"
 "http://www.w3.org/Graphics/SVG/1.1/DTD/svg11.dtd">
<!-- Generated by graphviz version 2.26.3 (20100126.1600)
 -->
<!-- Title: G Pages: 1 -->
<svg width="530pt" height="94pt"
 viewBox="0.00 0.00 530.00 94.00" xmlns="http://www.w3.org/2000/svg" xmlns:xlink="http://www.w3.org/1999/xlink">
<g id="graph1" class="graph" transform="scale(1 1) rotate(0) translate(4 90)">
<title>G</title>
<polygon fill="white" stroke="white" points="-4,5 -4,-90 527,-90 527,5 -4,5"/>
<!-- Node1 -->
<g id="node1" class="node"><title>Node1</title>
<polygon fill="#bfbfbf" stroke="black" points="0,-26 0,-60 150,-60 150,-26 0,-26"/>
<text text-anchor="start" x="8" y="-47" font-family="Helvetica,sans-Serif" font-size="10.00">ZendDbSchema_Db_Migration</text>
<text text-anchor="middle" x="75" y="-34" font-family="Helvetica,sans-Serif" font-size="10.00">_Manager\isDirty</text>
</g>
<!-- Node2 -->
<g id="node3" class="node"><title>Node2</title>
<a xlink:href="classZendDbSchema__Db__Migration__Manager.html#a3d4f62489e72876f97bec3cd4448979d" target="_top" xlink:title="ZendDbSchema_Db_Migration\l_Manager\\getChange">
<polygon fill="white" stroke="black" points="186,-26 186,-60 336,-60 336,-26 186,-26"/>
<text text-anchor="start" x="194" y="-47" font-family="Helvetica,sans-Serif" font-size="10.00">ZendDbSchema_Db_Migration</text>
<text text-anchor="middle" x="261" y="-34" font-family="Helvetica,sans-Serif" font-size="10.00">_Manager\getChange</text>
</a>
</g>
<!-- Node1&#45;&gt;Node2 -->
<g id="edge2" class="edge"><title>Node1&#45;&gt;Node2</title>
<path fill="none" stroke="midnightblue" d="M150.117,-43C158.596,-43 167.281,-43 175.875,-43"/>
<polygon fill="midnightblue" stroke="midnightblue" points="175.905,-46.5001 185.905,-43 175.905,-39.5001 175.905,-46.5001"/>
</g>
<!-- Node3 -->
<g id="node5" class="node"><title>Node3</title>
<a xlink:href="classZendDbSchema__Db__Migration__Manager.html#ab66af8a9dc5cdb099b8266b68166c4e0" target="_top" xlink:title="ZendDbSchema_Db_Migration\l_Manager\\getVersion">
<polygon fill="white" stroke="black" points="372,-52 372,-86 522,-86 522,-52 372,-52"/>
<text text-anchor="start" x="380" y="-73" font-family="Helvetica,sans-Serif" font-size="10.00">ZendDbSchema_Db_Migration</text>
<text text-anchor="middle" x="447" y="-60" font-family="Helvetica,sans-Serif" font-size="10.00">_Manager\getVersion</text>
</a>
</g>
<!-- Node2&#45;&gt;Node3 -->
<g id="edge4" class="edge"><title>Node2&#45;&gt;Node3</title>
<path fill="none" stroke="midnightblue" d="M336.117,-53.5003C344.596,-54.6854 353.281,-55.8994 361.875,-57.1008"/>
<polygon fill="midnightblue" stroke="midnightblue" points="361.517,-60.5846 371.905,-58.5028 362.486,-53.652 361.517,-60.5846"/>
</g>
<!-- Node4 -->
<g id="node7" class="node"><title>Node4</title>
<a xlink:href="classZendDbSchema__Db__Migration__Manager.html#a9973d07f9ffe306e00ea2f9f4beb92e4" target="_top" xlink:title="ZendDbSchema_Db_Migration\l_Manager\\hasChange">
<polygon fill="white" stroke="black" points="372,-0 372,-34 522,-34 522,-0 372,-0"/>
<text text-anchor="start" x="380" y="-21" font-family="Helvetica,sans-Serif" font-size="10.00">ZendDbSchema_Db_Migration</text>
<text text-anchor="middle" x="447" y="-8" font-family="Helvetica,sans-Serif" font-size="10.00">_Manager\hasChange</text>
</a>
</g>
<!-- Node2&#45;&gt;Node4 -->
<g id="edge6" class="edge"><title>Node2&#45;&gt;Node4</title>
<path fill="none" stroke="midnightblue" d="M336.117,-32.4997C344.596,-31.3146 353.281,-30.1006 361.875,-28.8992"/>
<polygon fill="midnightblue" stroke="midnightblue" points="362.486,-32.348 371.905,-27.4972 361.517,-25.4154 362.486,-32.348"/>
</g>
</g>
</svg>
