<?xml version="1.0" encoding="UTF-8" standalone="no"?>
<!DOCTYPE svg PUBLIC "-//W3C//DTD SVG 1.1//EN"
 "http://www.w3.org/Graphics/SVG/1.1/DTD/svg11.dtd">
<!-- Generated by graphviz version 2.26.3 (20100126.1600)
 -->
<!-- Title: G Pages: 1 -->
<svg width="1290pt" height="186pt"
 viewBox="0.00 0.00 1290.00 185.66" xmlns="http://www.w3.org/2000/svg" xmlns:xlink="http://www.w3.org/1999/xlink">
<g id="graph1" class="graph" transform="scale(1 1) rotate(0) translate(4 181.657)">
<title>G</title>
<polygon fill="white" stroke="white" points="-4,5 -4,-181.657 1287,-181.657 1287,5 -4,5"/>
<!-- Node1 -->
<g id="node1" class="node"><title>Node1</title>
<polygon fill="#bfbfbf" stroke="black" points="0,-111.5 0,-158.5 146,-158.5 146,-111.5 0,-111.5"/>
<text text-anchor="start" x="8" y="-145.5" font-family="Helvetica,sans-Serif" font-size="10.00">ZendDbSchema_Db_Schema</text>
<text text-anchor="start" x="8" y="-132.5" font-family="Helvetica,sans-Serif" font-size="10.00">_Table_DefinitionManager</text>
<text text-anchor="middle" x="73" y="-119.5" font-family="Helvetica,sans-Serif" font-size="10.00">_AbstractManager\refresh</text>
</g>
<!-- Node2 -->
<g id="node3" class="node"><title>Node2</title>
<a xlink:href="classZendDbSchema__Db__Schema__Table__DefinitionManager__AbstractManager.html#ac62cf058c89132b0ff9223d9fcefdb8a" target="_top" xlink:title="ZendDbSchema_Db_Schema\l_Table_DefinitionManager\l_AbstractManager\\_getItemClass">
<polygon fill="white" stroke="black" points="572.5,-118.5 572.5,-165.5 735.5,-165.5 735.5,-118.5 572.5,-118.5"/>
<text text-anchor="start" x="580.5" y="-152.5" font-family="Helvetica,sans-Serif" font-size="10.00">ZendDbSchema_Db_Schema</text>
<text text-anchor="start" x="580.5" y="-139.5" font-family="Helvetica,sans-Serif" font-size="10.00">_Table_DefinitionManager</text>
<text text-anchor="middle" x="654" y="-126.5" font-family="Helvetica,sans-Serif" font-size="10.00">_AbstractManager\_getItemClass</text>
</a>
</g>
<!-- Node1&#45;&gt;Node2 -->
<g id="edge2" class="edge"><title>Node1&#45;&gt;Node2</title>
<path fill="none" stroke="midnightblue" d="M139.742,-158.572C153.545,-162.49 168.113,-165.944 182,-168 313.139,-187.416 466.709,-171.978 562.19,-157.94"/>
<polygon fill="midnightblue" stroke="midnightblue" points="562.733,-161.398 572.105,-156.456 561.697,-154.475 562.733,-161.398"/>
</g>
<!-- Node3 -->
<g id="node5" class="node"><title>Node3</title>
<a xlink:href="classZendDbSchema__Db__Schema__Table__DefinitionManager__AbstractManager.html#ab930802b470913f09f29877ed094a760" target="_top" xlink:title="ZendDbSchema_Db_Schema\l_Table_DefinitionManager\l_AbstractManager\\_getSchemaKey">
<polygon fill="white" stroke="black" points="182.5,-111.5 182.5,-158.5 353.5,-158.5 353.5,-111.5 182.5,-111.5"/>
<text text-anchor="start" x="190.5" y="-145.5" font-family="Helvetica,sans-Serif" font-size="10.00">ZendDbSchema_Db_Schema</text>
<text text-anchor="start" x="190.5" y="-132.5" font-family="Helvetica,sans-Serif" font-size="10.00">_Table_DefinitionManager</text>
<text text-anchor="middle" x="268" y="-119.5" font-family="Helvetica,sans-Serif" font-size="10.00">_AbstractManager\_getSchemaKey</text>
</a>
</g>
<!-- Node1&#45;&gt;Node3 -->
<g id="edge4" class="edge"><title>Node1&#45;&gt;Node3</title>
<path fill="none" stroke="midnightblue" d="M146.166,-135C154.632,-135 163.36,-135 172.072,-135"/>
<polygon fill="midnightblue" stroke="midnightblue" points="172.274,-138.5 182.274,-135 172.274,-131.5 172.274,-138.5"/>
</g>
<!-- Node4 -->
<g id="node7" class="node"><title>Node4</title>
<a xlink:href="classZendDbSchema__Db__Schema__Table__DefinitionManager__AbstractManager.html#a40677ee7cb91e19c1587bdda9e73d3d5" target="_top" xlink:title="ZendDbSchema_Db_Schema\l_Table_DefinitionManager\l_AbstractManager\\setFromArray">
<polygon fill="white" stroke="black" points="189,-45.5 189,-92.5 347,-92.5 347,-45.5 189,-45.5"/>
<text text-anchor="start" x="197" y="-79.5" font-family="Helvetica,sans-Serif" font-size="10.00">ZendDbSchema_Db_Schema</text>
<text text-anchor="start" x="197" y="-66.5" font-family="Helvetica,sans-Serif" font-size="10.00">_Table_DefinitionManager</text>
<text text-anchor="middle" x="268" y="-53.5" font-family="Helvetica,sans-Serif" font-size="10.00">_AbstractManager\setFromArray</text>
</a>
</g>
<!-- Node1&#45;&gt;Node4 -->
<g id="edge6" class="edge"><title>Node1&#45;&gt;Node4</title>
<path fill="none" stroke="midnightblue" d="M142.574,-111.452C157.468,-106.411 173.311,-101.048 188.546,-95.8921"/>
<polygon fill="midnightblue" stroke="midnightblue" points="190.103,-99.0602 198.453,-92.5389 187.859,-92.4297 190.103,-99.0602"/>
</g>
<!-- Node4&#45;&gt;Node2 -->
<g id="edge8" class="edge"><title>Node4&#45;&gt;Node2</title>
<path fill="none" stroke="midnightblue" d="M329.804,-92.5563C356.638,-102.641 383.46,-112.472 390,-114 446.383,-127.173 511.002,-134.16 562.197,-137.86"/>
<polygon fill="midnightblue" stroke="midnightblue" points="562.033,-141.357 572.251,-138.557 562.517,-134.374 562.033,-141.357"/>
</g>
<!-- Node5 -->
<g id="node10" class="node"><title>Node5</title>
<a xlink:href="classZendDbSchema__Db__Schema__Table__DefinitionManager__AbstractManager.html#ad0261d0db60ff459f97adc23b2d16931" target="_top" xlink:title="ZendDbSchema_Db_Schema\l_Table_DefinitionManager\l_AbstractManager\\has">
<polygon fill="white" stroke="black" points="581,-0.5 581,-47.5 727,-47.5 727,-0.5 581,-0.5"/>
<text text-anchor="start" x="589" y="-34.5" font-family="Helvetica,sans-Serif" font-size="10.00">ZendDbSchema_Db_Schema</text>
<text text-anchor="start" x="589" y="-21.5" font-family="Helvetica,sans-Serif" font-size="10.00">_Table_DefinitionManager</text>
<text text-anchor="middle" x="654" y="-8.5" font-family="Helvetica,sans-Serif" font-size="10.00">_AbstractManager\has</text>
</a>
</g>
<!-- Node4&#45;&gt;Node5 -->
<g id="edge10" class="edge"><title>Node4&#45;&gt;Node5</title>
<path fill="none" stroke="midnightblue" d="M347.268,-54.4112C361.467,-52.0677 376.149,-49.8187 390,-48 450.318,-40.0798 518.734,-33.9399 570.802,-29.8535"/>
<polygon fill="midnightblue" stroke="midnightblue" points="571.291,-33.3262 580.991,-29.0637 570.75,-26.3471 571.291,-33.3262"/>
</g>
<!-- Node6 -->
<g id="node12" class="node"><title>Node6</title>
<a xlink:href="classZendDbSchema__Db__Schema__Table__DefinitionManager__AbstractManager.html#a6d815884ca03c003ac7f8d633e97f7c6" target="_top" xlink:title="ZendDbSchema_Db_Schema\l_Table_DefinitionManager\l_AbstractManager\\add">
<polygon fill="white" stroke="black" points="390,-57.5 390,-104.5 536,-104.5 536,-57.5 390,-57.5"/>
<text text-anchor="start" x="398" y="-91.5" font-family="Helvetica,sans-Serif" font-size="10.00">ZendDbSchema_Db_Schema</text>
<text text-anchor="start" x="398" y="-78.5" font-family="Helvetica,sans-Serif" font-size="10.00">_Table_DefinitionManager</text>
<text text-anchor="middle" x="463" y="-65.5" font-family="Helvetica,sans-Serif" font-size="10.00">_AbstractManager\add</text>
</a>
</g>
<!-- Node4&#45;&gt;Node6 -->
<g id="edge12" class="edge"><title>Node4&#45;&gt;Node6</title>
<path fill="none" stroke="midnightblue" d="M347.033,-73.8636C357.753,-74.5233 368.783,-75.202 379.578,-75.8663"/>
<polygon fill="midnightblue" stroke="midnightblue" points="379.642,-79.3768 389.838,-76.4977 380.072,-72.39 379.642,-79.3768"/>
</g>
<!-- Node6&#45;&gt;Node2 -->
<g id="edge14" class="edge"><title>Node6&#45;&gt;Node2</title>
<path fill="none" stroke="midnightblue" d="M536.026,-104.323C547.38,-107.949 559.184,-111.718 570.744,-115.41"/>
<polygon fill="midnightblue" stroke="midnightblue" points="569.791,-118.78 580.382,-118.488 571.921,-112.112 569.791,-118.78"/>
</g>
<!-- Node6&#45;&gt;Node5 -->
<g id="edge24" class="edge"><title>Node6&#45;&gt;Node5</title>
<path fill="none" stroke="midnightblue" d="M536.026,-59.2068C547.463,-55.7938 559.355,-52.2449 570.995,-48.7711"/>
<polygon fill="midnightblue" stroke="midnightblue" points="572.117,-52.089 580.698,-45.8755 570.115,-45.3814 572.117,-52.089"/>
</g>
<!-- Node7 -->
<g id="node15" class="node"><title>Node7</title>
<a xlink:href="classZendDbSchema__Db__Schema__AbstractSchema.html#adacb1417b461310c5c87f72c459c1985" target="_top" xlink:title="ZendDbSchema_Db_Schema\l_AbstractSchema\\getOriginName">
<polygon fill="white" stroke="black" points="572.5,-66 572.5,-100 735.5,-100 735.5,-66 572.5,-66"/>
<text text-anchor="start" x="580.5" y="-87" font-family="Helvetica,sans-Serif" font-size="10.00">ZendDbSchema_Db_Schema</text>
<text text-anchor="middle" x="654" y="-74" font-family="Helvetica,sans-Serif" font-size="10.00">_AbstractSchema\getOriginName</text>
</a>
</g>
<!-- Node6&#45;&gt;Node7 -->
<g id="edge16" class="edge"><title>Node6&#45;&gt;Node7</title>
<path fill="none" stroke="midnightblue" d="M536.026,-81.7647C544.58,-81.8542 553.388,-81.9465 562.155,-82.0383"/>
<polygon fill="midnightblue" stroke="midnightblue" points="562.375,-85.5407 572.411,-82.1457 562.448,-78.5411 562.375,-85.5407"/>
</g>
<!-- Node8 -->
<g id="node17" class="node"><title>Node8</title>
<a xlink:href="classZendDbSchema__Db__Schema__AbstractSchema.html#a55787c21deddba427842809d589c2df6" target="_top" xlink:title="ZendDbSchema_Db_Schema\l_AbstractSchema\\getName">
<polygon fill="white" stroke="black" points="772,-66 772,-100 918,-100 918,-66 772,-66"/>
<text text-anchor="start" x="780" y="-87" font-family="Helvetica,sans-Serif" font-size="10.00">ZendDbSchema_Db_Schema</text>
<text text-anchor="middle" x="845" y="-74" font-family="Helvetica,sans-Serif" font-size="10.00">_AbstractSchema\getName</text>
</a>
</g>
<!-- Node7&#45;&gt;Node8 -->
<g id="edge18" class="edge"><title>Node7&#45;&gt;Node8</title>
<path fill="none" stroke="midnightblue" d="M735.555,-83C744.227,-83 753.057,-83 761.748,-83"/>
<polygon fill="midnightblue" stroke="midnightblue" points="761.87,-86.5001 771.87,-83 761.87,-79.5001 761.87,-86.5001"/>
</g>
<!-- Node9 -->
<g id="node19" class="node"><title>Node9</title>
<a xlink:href="classZendDbSchema__Db__Schema__AbstractSchema.html#a54d32c6f15463eaad2321a9f0e7225d7" target="_top" xlink:title="ZendDbSchema_Db_Schema\l_AbstractSchema\\__get">
<polygon fill="white" stroke="black" points="954,-66 954,-100 1100,-100 1100,-66 954,-66"/>
<text text-anchor="start" x="962" y="-87" font-family="Helvetica,sans-Serif" font-size="10.00">ZendDbSchema_Db_Schema</text>
<text text-anchor="middle" x="1027" y="-74" font-family="Helvetica,sans-Serif" font-size="10.00">_AbstractSchema\__get</text>
</a>
</g>
<!-- Node8&#45;&gt;Node9 -->
<g id="edge20" class="edge"><title>Node8&#45;&gt;Node9</title>
<path fill="none" stroke="midnightblue" d="M918.24,-83C926.596,-83 935.161,-83 943.636,-83"/>
<polygon fill="midnightblue" stroke="midnightblue" points="943.91,-86.5001 953.91,-83 943.91,-79.5001 943.91,-86.5001"/>
</g>
<!-- Node10 -->
<g id="node21" class="node"><title>Node10</title>
<a xlink:href="classZendDbSchema__Db__Schema__AbstractSchema.html#ac4e121ba7932163eb1950fabe06fb9db" target="_top" xlink:title="ZendDbSchema_Db_Schema\l_AbstractSchema\\__isset">
<polygon fill="white" stroke="black" points="1136,-66 1136,-100 1282,-100 1282,-66 1136,-66"/>
<text text-anchor="start" x="1144" y="-87" font-family="Helvetica,sans-Serif" font-size="10.00">ZendDbSchema_Db_Schema</text>
<text text-anchor="middle" x="1209" y="-74" font-family="Helvetica,sans-Serif" font-size="10.00">_AbstractSchema\__isset</text>
</a>
</g>
<!-- Node9&#45;&gt;Node10 -->
<g id="edge22" class="edge"><title>Node9&#45;&gt;Node10</title>
<path fill="none" stroke="midnightblue" d="M1100.24,-83C1108.6,-83 1117.16,-83 1125.64,-83"/>
<polygon fill="midnightblue" stroke="midnightblue" points="1125.91,-86.5001 1135.91,-83 1125.91,-79.5001 1125.91,-86.5001"/>
</g>
</g>
</svg>
