<?xml version="1.0" encoding="UTF-8" standalone="no"?>
<!DOCTYPE svg PUBLIC "-//W3C//DTD SVG 1.1//EN"
 "http://www.w3.org/Graphics/SVG/1.1/DTD/svg11.dtd">
<!-- Generated by graphviz version 2.26.3 (20100126.1600)
 -->
<!-- Title: G Pages: 1 -->
<svg width="956pt" height="198pt"
 viewBox="0.00 0.00 956.00 198.00" xmlns="http://www.w3.org/2000/svg" xmlns:xlink="http://www.w3.org/1999/xlink">
<g id="graph1" class="graph" transform="scale(1 1) rotate(0) translate(4 194)">
<title>G</title>
<polygon fill="white" stroke="white" points="-4,5 -4,-194 953,-194 953,5 -4,5"/>
<!-- Node1 -->
<g id="node1" class="node"><title>Node1</title>
<polygon fill="#bfbfbf" stroke="black" points="0,-78 0,-112 146,-112 146,-78 0,-78"/>
<text text-anchor="start" x="8" y="-99" font-family="Helvetica,sans-Serif" font-size="10.00">ZendDbSchema_Db_Schema</text>
<text text-anchor="middle" x="73" y="-86" font-family="Helvetica,sans-Serif" font-size="10.00">_AbstractSchema\__toString</text>
</g>
<!-- Node2 -->
<g id="node3" class="node"><title>Node2</title>
<a xlink:href="classZendDbSchema__Db__Schema__AbstractSchema.html#ada5af8e6e7a4c5407b7ca67d03900b31" target="_top" xlink:title="ZendDbSchema_Db_Schema\l_AbstractSchema\\toSql">
<polygon fill="white" stroke="black" points="182,-78 182,-112 328,-112 328,-78 182,-78"/>
<text text-anchor="start" x="190" y="-99" font-family="Helvetica,sans-Serif" font-size="10.00">ZendDbSchema_Db_Schema</text>
<text text-anchor="middle" x="255" y="-86" font-family="Helvetica,sans-Serif" font-size="10.00">_AbstractSchema\toSql</text>
</a>
</g>
<!-- Node1&#45;&gt;Node2 -->
<g id="edge2" class="edge"><title>Node1&#45;&gt;Node2</title>
<path fill="none" stroke="midnightblue" d="M146.24,-95C154.596,-95 163.161,-95 171.636,-95"/>
<polygon fill="midnightblue" stroke="midnightblue" points="171.91,-98.5001 181.91,-95 171.91,-91.5001 171.91,-98.5001"/>
</g>
<!-- Node3 -->
<g id="node5" class="node"><title>Node3</title>
<a xlink:href="classZendDbSchema__Db__Schema__AbstractSchema.html#ae859790a91bbcb9c4dc52a6139e5999e" target="_top" xlink:title="ZendDbSchema_Db_Schema\l_AbstractSchema\\isDirty">
<polygon fill="white" stroke="black" points="371,-104 371,-138 517,-138 517,-104 371,-104"/>
<text text-anchor="start" x="379" y="-125" font-family="Helvetica,sans-Serif" font-size="10.00">ZendDbSchema_Db_Schema</text>
<text text-anchor="middle" x="444" y="-112" font-family="Helvetica,sans-Serif" font-size="10.00">_AbstractSchema\isDirty</text>
</a>
</g>
<!-- Node2&#45;&gt;Node3 -->
<g id="edge4" class="edge"><title>Node2&#45;&gt;Node3</title>
<path fill="none" stroke="midnightblue" d="M328.072,-105.052C338.809,-106.529 349.935,-108.06 360.856,-109.562"/>
<polygon fill="midnightblue" stroke="midnightblue" points="360.427,-113.036 370.81,-110.932 361.381,-106.101 360.427,-113.036"/>
</g>
<!-- Node8 -->
<g id="node16" class="node"><title>Node8</title>
<a xlink:href="classZendDbSchema__Db__Schema__AbstractSchema.html#a1680a8fd22360f74d29b641d7257a52f" target="_top" xlink:title="ZendDbSchema_Db_Schema\l_AbstractSchema\\isExist">
<polygon fill="white" stroke="black" points="371,-156 371,-190 517,-190 517,-156 371,-156"/>
<text text-anchor="start" x="379" y="-177" font-family="Helvetica,sans-Serif" font-size="10.00">ZendDbSchema_Db_Schema</text>
<text text-anchor="middle" x="444" y="-164" font-family="Helvetica,sans-Serif" font-size="10.00">_AbstractSchema\isExist</text>
</a>
</g>
<!-- Node2&#45;&gt;Node8 -->
<g id="edge16" class="edge"><title>Node2&#45;&gt;Node8</title>
<path fill="none" stroke="midnightblue" d="M287.892,-112.079C309.264,-122.828 337.905,-136.587 364,-147 368.711,-148.88 373.617,-150.729 378.577,-152.519"/>
<polygon fill="midnightblue" stroke="midnightblue" points="377.553,-155.869 388.148,-155.886 379.875,-149.266 377.553,-155.869"/>
</g>
<!-- Node9 -->
<g id="node19" class="node"><title>Node9</title>
<a xlink:href="classZendDbSchema__Db__Schema__AbstractSchema.html#a2b880c7261b3f4b988f1a2b74e188c75" target="_top" xlink:title="ZendDbSchema_Db_Schema\l_AbstractSchema\\_getAlterSql">
<polygon fill="white" stroke="black" points="368.5,-52 368.5,-86 519.5,-86 519.5,-52 368.5,-52"/>
<text text-anchor="start" x="376.5" y="-73" font-family="Helvetica,sans-Serif" font-size="10.00">ZendDbSchema_Db_Schema</text>
<text text-anchor="middle" x="444" y="-60" font-family="Helvetica,sans-Serif" font-size="10.00">_AbstractSchema\_getAlterSql</text>
</a>
</g>
<!-- Node2&#45;&gt;Node9 -->
<g id="edge20" class="edge"><title>Node2&#45;&gt;Node9</title>
<path fill="none" stroke="midnightblue" d="M328.072,-84.9477C337.967,-83.5866 348.192,-82.18 358.282,-80.7919"/>
<polygon fill="midnightblue" stroke="midnightblue" points="358.88,-84.2426 368.31,-79.4124 357.926,-77.3079 358.88,-84.2426"/>
</g>
<!-- Node10 -->
<g id="node21" class="node"><title>Node10</title>
<a xlink:href="classZendDbSchema__Db__Schema__AbstractSchema.html#a52321b7526257809f382a28a96ab562e" target="_top" xlink:title="ZendDbSchema_Db_Schema\l_AbstractSchema\\_getCreateSql">
<polygon fill="white" stroke="black" points="364,-0 364,-34 524,-34 524,-0 364,-0"/>
<text text-anchor="start" x="372" y="-21" font-family="Helvetica,sans-Serif" font-size="10.00">ZendDbSchema_Db_Schema</text>
<text text-anchor="middle" x="444" y="-8" font-family="Helvetica,sans-Serif" font-size="10.00">_AbstractSchema\_getCreateSql</text>
</a>
</g>
<!-- Node2&#45;&gt;Node10 -->
<g id="edge22" class="edge"><title>Node2&#45;&gt;Node10</title>
<path fill="none" stroke="midnightblue" d="M287.892,-77.9214C309.264,-67.1721 337.905,-53.4129 364,-43 368.711,-41.12 373.617,-39.2715 378.577,-37.4805"/>
<polygon fill="midnightblue" stroke="midnightblue" points="379.875,-40.7342 388.148,-34.1143 377.553,-34.1308 379.875,-40.7342"/>
</g>
<!-- Node4 -->
<g id="node7" class="node"><title>Node4</title>
<a xlink:href="classZendDbSchema__Db__Schema__AbstractSchema.html#a46da7a60c7e5fd605607afbc1dac4baa" target="_top" xlink:title="ZendDbSchema_Db_Schema\l_AbstractSchema\\getCleanSchema">
<polygon fill="white" stroke="black" points="560.5,-154 560.5,-188 733.5,-188 733.5,-154 560.5,-154"/>
<text text-anchor="start" x="568.5" y="-175" font-family="Helvetica,sans-Serif" font-size="10.00">ZendDbSchema_Db_Schema</text>
<text text-anchor="middle" x="647" y="-162" font-family="Helvetica,sans-Serif" font-size="10.00">_AbstractSchema\getCleanSchema</text>
</a>
</g>
<!-- Node3&#45;&gt;Node4 -->
<g id="edge6" class="edge"><title>Node3&#45;&gt;Node4</title>
<path fill="none" stroke="midnightblue" d="M513.293,-138.067C530.834,-142.388 549.807,-147.061 567.797,-151.492"/>
<polygon fill="midnightblue" stroke="midnightblue" points="567.128,-154.932 577.675,-153.925 568.802,-148.135 567.128,-154.932"/>
</g>
<!-- Node6 -->
<g id="node11" class="node"><title>Node6</title>
<a xlink:href="classZendDbSchema__Db__Schema__AbstractSchema.html#ac4e121ba7932163eb1950fabe06fb9db" target="_top" xlink:title="ZendDbSchema_Db_Schema\l_AbstractSchema\\__isset">
<polygon fill="white" stroke="black" points="786,-82 786,-116 932,-116 932,-82 786,-82"/>
<text text-anchor="start" x="794" y="-103" font-family="Helvetica,sans-Serif" font-size="10.00">ZendDbSchema_Db_Schema</text>
<text text-anchor="middle" x="859" y="-90" font-family="Helvetica,sans-Serif" font-size="10.00">_AbstractSchema\__isset</text>
</a>
</g>
<!-- Node3&#45;&gt;Node6 -->
<g id="edge10" class="edge"><title>Node3&#45;&gt;Node6</title>
<path fill="none" stroke="midnightblue" d="M517.238,-117.117C589.466,-113.289 699.729,-107.443 775.362,-103.434"/>
<polygon fill="midnightblue" stroke="midnightblue" points="775.996,-106.905 785.797,-102.881 775.626,-99.915 775.996,-106.905"/>
</g>
<!-- Node7 -->
<g id="node13" class="node"><title>Node7</title>
<a xlink:href="classZendDbSchema__Db__Schema__AbstractSchema.html#a54d32c6f15463eaad2321a9f0e7225d7" target="_top" xlink:title="ZendDbSchema_Db_Schema\l_AbstractSchema\\__get">
<polygon fill="white" stroke="black" points="574,-61 574,-95 720,-95 720,-61 574,-61"/>
<text text-anchor="start" x="582" y="-82" font-family="Helvetica,sans-Serif" font-size="10.00">ZendDbSchema_Db_Schema</text>
<text text-anchor="middle" x="647" y="-69" font-family="Helvetica,sans-Serif" font-size="10.00">_AbstractSchema\__get</text>
</a>
</g>
<!-- Node3&#45;&gt;Node7 -->
<g id="edge12" class="edge"><title>Node3&#45;&gt;Node7</title>
<path fill="none" stroke="midnightblue" d="M517.001,-105.537C532.2,-102.317 548.326,-98.9014 563.859,-95.6112"/>
<polygon fill="midnightblue" stroke="midnightblue" points="564.907,-98.9668 573.965,-93.4705 563.457,-92.1188 564.907,-98.9668"/>
</g>
<!-- Node5 -->
<g id="node9" class="node"><title>Node5</title>
<a xlink:href="classZendDbSchema__Db__Schema__AbstractSchema.html#af99e5bb9adfe0da8c94d3d3848efe7b5" target="_top" xlink:title="ZendDbSchema_Db_Schema\l_AbstractSchema\\_getCleanSchema">
<polygon fill="white" stroke="black" points="770,-154 770,-188 948,-188 948,-154 770,-154"/>
<text text-anchor="start" x="778" y="-175" font-family="Helvetica,sans-Serif" font-size="10.00">ZendDbSchema_Db_Schema</text>
<text text-anchor="middle" x="859" y="-162" font-family="Helvetica,sans-Serif" font-size="10.00">_AbstractSchema\_getCleanSchema</text>
</a>
</g>
<!-- Node4&#45;&gt;Node5 -->
<g id="edge8" class="edge"><title>Node4&#45;&gt;Node5</title>
<path fill="none" stroke="midnightblue" d="M733.534,-171C742.175,-171 750.994,-171 759.752,-171"/>
<polygon fill="midnightblue" stroke="midnightblue" points="759.99,-174.5 769.99,-171 759.99,-167.5 759.99,-174.5"/>
</g>
<!-- Node7&#45;&gt;Node6 -->
<g id="edge14" class="edge"><title>Node7&#45;&gt;Node6</title>
<path fill="none" stroke="midnightblue" d="M720.255,-85.2564C738.129,-87.0269 757.38,-88.9339 775.685,-90.7471"/>
<polygon fill="midnightblue" stroke="midnightblue" points="775.446,-94.2404 785.742,-91.7433 776.136,-87.2745 775.446,-94.2404"/>
</g>
<!-- Node8&#45;&gt;Node4 -->
<g id="edge18" class="edge"><title>Node8&#45;&gt;Node4</title>
<path fill="none" stroke="midnightblue" d="M517.001,-172.281C527.792,-172.174 539.051,-172.064 550.234,-171.953"/>
<polygon fill="midnightblue" stroke="midnightblue" points="550.501,-175.451 560.466,-171.853 550.432,-168.451 550.501,-175.451"/>
</g>
</g>
</svg>
