<?xml version="1.0" encoding="UTF-8" standalone="no"?>
<!DOCTYPE svg PUBLIC "-//W3C//DTD SVG 1.1//EN"
 "http://www.w3.org/Graphics/SVG/1.1/DTD/svg11.dtd">
<!-- Generated by graphviz version 2.26.3 (20100126.1600)
 -->
<!-- Title: G Pages: 1 -->
<svg width="884pt" height="70pt"
 viewBox="0.00 0.00 884.00 70.00" xmlns="http://www.w3.org/2000/svg" xmlns:xlink="http://www.w3.org/1999/xlink">
<g id="graph1" class="graph" transform="scale(1 1) rotate(0) translate(4 66)">
<title>G</title>
<polygon fill="white" stroke="white" points="-4,5 -4,-66 881,-66 881,5 -4,5"/>
<!-- Node1 -->
<g id="node1" class="node"><title>Node1</title>
<polygon fill="#bfbfbf" stroke="black" points="0.5,-20.5 0.5,-41.5 281.5,-41.5 281.5,-20.5 0.5,-20.5"/>
<text text-anchor="middle" x="141" y="-28.5" font-family="Helvetica,sans-Serif" font-size="10.00">ZendDbSchema_Db_Schema_AbstractSchema\_getAlterSql</text>
</g>
<!-- Node2 -->
<g id="node3" class="node"><title>Node2</title>
<a xlink:href="classZendDbSchema__Db__Schema__AbstractSchema.html#ada5af8e6e7a4c5407b7ca67d03900b31" target="_top" xlink:title="ZendDbSchema_Db_Schema_AbstractSchema\\toSql">
<polygon fill="white" stroke="black" points="318,-20.5 318,-41.5 568,-41.5 568,-20.5 318,-20.5"/>
<text text-anchor="middle" x="443" y="-28.5" font-family="Helvetica,sans-Serif" font-size="10.00">ZendDbSchema_Db_Schema_AbstractSchema\toSql</text>
</a>
</g>
<!-- Node1&#45;&gt;Node2 -->
<g id="edge2" class="edge"><title>Node1&#45;&gt;Node2</title>
<path fill="none" stroke="midnightblue" d="M291.966,-31C300.604,-31 309.243,-31 317.768,-31"/>
<polygon fill="midnightblue" stroke="midnightblue" points="291.832,-27.5001 281.832,-31 291.832,-34.5001 291.832,-27.5001"/>
</g>
<!-- Node3 -->
<g id="node5" class="node"><title>Node3</title>
<a xlink:href="classZendDbSchema__Db__Schema__AbstractEntity.html#a5b1c93da76c3708f90d330b4643e55b2" target="_top" xlink:title="ZendDbSchema_Db_Schema_AbstractEntity\\save">
<polygon fill="white" stroke="black" points="621,-40.5 621,-61.5 859,-61.5 859,-40.5 621,-40.5"/>
<text text-anchor="middle" x="740" y="-48.5" font-family="Helvetica,sans-Serif" font-size="10.00">ZendDbSchema_Db_Schema_AbstractEntity\save</text>
</a>
</g>
<!-- Node2&#45;&gt;Node3 -->
<g id="edge4" class="edge"><title>Node2&#45;&gt;Node3</title>
<path fill="none" stroke="midnightblue" d="M578.355,-40.1148C592.496,-41.0671 606.797,-42.0301 620.74,-42.969"/>
<polygon fill="midnightblue" stroke="midnightblue" points="578.307,-36.6037 568.094,-39.4238 577.836,-43.5879 578.307,-36.6037"/>
</g>
<!-- Node4 -->
<g id="node7" class="node"><title>Node4</title>
<a xlink:href="classZendDbSchema__Db__Schema__AbstractSchema.html#aafc458a7c19c74314889da4a99e457ff" target="_top" xlink:title="ZendDbSchema_Db_Schema_AbstractSchema\\__toString">
<polygon fill="white" stroke="black" points="604,-0.5 604,-21.5 876,-21.5 876,-0.5 604,-0.5"/>
<text text-anchor="middle" x="740" y="-8.5" font-family="Helvetica,sans-Serif" font-size="10.00">ZendDbSchema_Db_Schema_AbstractSchema\__toString</text>
</a>
</g>
<!-- Node2&#45;&gt;Node4 -->
<g id="edge6" class="edge"><title>Node2&#45;&gt;Node4</title>
<path fill="none" stroke="midnightblue" d="M578.31,-21.8882C586.714,-21.3223 595.176,-20.7525 603.585,-20.1862"/>
<polygon fill="midnightblue" stroke="midnightblue" points="577.836,-18.4121 568.094,-22.5762 578.307,-25.3963 577.836,-18.4121"/>
</g>
</g>
</svg>
