<?xml version="1.0" encoding="UTF-8" standalone="no"?>
<!DOCTYPE svg PUBLIC "-//W3C//DTD SVG 1.1//EN"
 "http://www.w3.org/Graphics/SVG/1.1/DTD/svg11.dtd">
<!-- Generated by graphviz version 2.26.3 (20100126.1600)
 -->
<!-- Title: G Pages: 1 -->
<svg width="2276pt" height="1170pt"
 viewBox="0.00 0.00 2276.00 1170.00" xmlns="http://www.w3.org/2000/svg" xmlns:xlink="http://www.w3.org/1999/xlink">
<g id="graph1" class="graph" transform="scale(1 1) rotate(0) translate(4 1166)">
<title>G</title>
<polygon fill="white" stroke="white" points="-4,5 -4,-1166 2273,-1166 2273,5 -4,5"/>
<!-- Node1 -->
<g id="node1" class="node"><title>Node1</title>
<polygon fill="#bfbfbf" stroke="black" points="0,-940.5 0,-961.5 284,-961.5 284,-940.5 0,-940.5"/>
<text text-anchor="middle" x="142" y="-948.5" font-family="Helvetica,sans-Serif" font-size="10.00">ZendDbSchema_Db_Schema_AbstractSchema\setGenerator</text>
</g>
<!-- Node2 -->
<g id="node3" class="node"><title>Node2</title>
<a xlink:href="classZendDbSchema__Db__Schema__AbstractSchema.html#a6349649e5e09d67a5b5e0abe96298db8" target="_top" xlink:title="ZendDbSchema_Db_Schema_AbstractSchema\\setAdapter">
<polygon fill="white" stroke="black" points="320.5,-940.5 320.5,-961.5 595.5,-961.5 595.5,-940.5 320.5,-940.5"/>
<text text-anchor="middle" x="458" y="-948.5" font-family="Helvetica,sans-Serif" font-size="10.00">ZendDbSchema_Db_Schema_AbstractSchema\setAdapter</text>
</a>
</g>
<!-- Node1&#45;&gt;Node2 -->
<g id="edge2" class="edge"><title>Node1&#45;&gt;Node2</title>
<path fill="none" stroke="midnightblue" d="M294.398,-951C303.026,-951 311.677,-951 320.247,-951"/>
<polygon fill="midnightblue" stroke="midnightblue" points="294.285,-947.5 284.285,-951 294.285,-954.5 294.285,-947.5"/>
</g>
<!-- Node3 -->
<g id="node5" class="node"><title>Node3</title>
<a xlink:href="classZendDbSchema__Db__Schema__AbstractSchema.html#a47d95912f6bf6d26d023597887dafacb" target="_top" xlink:title="ZendDbSchema_Db_Schema_AbstractSchema\\getAdapter">
<polygon fill="white" stroke="black" points="632.5,-940.5 632.5,-961.5 907.5,-961.5 907.5,-940.5 632.5,-940.5"/>
<text text-anchor="middle" x="770" y="-948.5" font-family="Helvetica,sans-Serif" font-size="10.00">ZendDbSchema_Db_Schema_AbstractSchema\getAdapter</text>
</a>
</g>
<!-- Node2&#45;&gt;Node3 -->
<g id="edge4" class="edge"><title>Node2&#45;&gt;Node3</title>
<path fill="none" stroke="midnightblue" d="M605.977,-951C614.703,-951 623.462,-951 632.145,-951"/>
<polygon fill="midnightblue" stroke="midnightblue" points="605.756,-947.5 595.756,-951 605.756,-954.5 605.756,-947.5"/>
</g>
<!-- Node4 -->
<g id="node7" class="node"><title>Node4</title>
<a xlink:href="classZendDbSchema__Db__Schema__Database.html#a5fec6a5dbc863948512354d9cee4b7f0" target="_top" xlink:title="ZendDbSchema_Db_Schema_Database\\_doDelete">
<polygon fill="white" stroke="black" points="973.5,-1097.5 973.5,-1118.5 1214.5,-1118.5 1214.5,-1097.5 973.5,-1097.5"/>
<text text-anchor="middle" x="1094" y="-1105.5" font-family="Helvetica,sans-Serif" font-size="10.00">ZendDbSchema_Db_Schema_Database\_doDelete</text>
</a>
</g>
<!-- Node3&#45;&gt;Node4 -->
<g id="edge6" class="edge"><title>Node3&#45;&gt;Node4</title>
<path fill="none" stroke="midnightblue" d="M786.551,-969.265C815.278,-999.643 877.677,-1059.98 944,-1088 953.317,-1091.94 963.225,-1095.14 973.334,-1097.75"/>
<polygon fill="midnightblue" stroke="midnightblue" points="789.054,-966.817 779.678,-961.883 783.931,-971.587 789.054,-966.817"/>
</g>
<!-- Node5 -->
<g id="node9" class="node"><title>Node5</title>
<a xlink:href="classZendDbSchema__Db__Schema__Table.html#a2870bcdf57c17db72028f4e67a583fff" target="_top" xlink:title="ZendDbSchema_Db_Schema_Table\\_doDelete">
<polygon fill="white" stroke="black" points="982.5,-1057.5 982.5,-1078.5 1205.5,-1078.5 1205.5,-1057.5 982.5,-1057.5"/>
<text text-anchor="middle" x="1094" y="-1065.5" font-family="Helvetica,sans-Serif" font-size="10.00">ZendDbSchema_Db_Schema_Table\_doDelete</text>
</a>
</g>
<!-- Node3&#45;&gt;Node5 -->
<g id="edge8" class="edge"><title>Node3&#45;&gt;Node5</title>
<path fill="none" stroke="midnightblue" d="M794.452,-967.203C827.125,-988.068 887.48,-1023.91 944,-1043 962.384,-1049.21 982.576,-1053.91 1002.02,-1057.47"/>
<polygon fill="midnightblue" stroke="midnightblue" points="796.296,-964.228 785.997,-961.742 792.498,-970.108 796.296,-964.228"/>
</g>
<!-- Node6 -->
<g id="node11" class="node"><title>Node6</title>
<a xlink:href="classZendDbSchema__Db__Schema__Database.html#aad388b374fd5913946204230760b2d86" target="_top" xlink:title="ZendDbSchema_Db_Schema_Database\\_doReload">
<polygon fill="white" stroke="black" points="1307.5,-1140.5 1307.5,-1161.5 1550.5,-1161.5 1550.5,-1140.5 1307.5,-1140.5"/>
<text text-anchor="middle" x="1429" y="-1148.5" font-family="Helvetica,sans-Serif" font-size="10.00">ZendDbSchema_Db_Schema_Database\_doReload</text>
</a>
</g>
<!-- Node3&#45;&gt;Node6 -->
<g id="edge10" class="edge"><title>Node3&#45;&gt;Node6</title>
<path fill="none" stroke="midnightblue" d="M805.441,-965.367C840.18,-978.884 894.916,-998.691 944,-1010 1009.48,-1025.09 1190.25,-1007.67 1244,-1048 1276.16,-1072.13 1247.93,-1106.75 1280,-1131 1288.22,-1137.22 1297.46,-1141.99 1307.19,-1145.62"/>
<polygon fill="midnightblue" stroke="midnightblue" points="806.35,-961.963 795.763,-961.562 803.789,-968.478 806.35,-961.963"/>
</g>
<!-- Node7 -->
<g id="node13" class="node"><title>Node7</title>
<a xlink:href="classZendDbSchema__Db__Schema__Table.html#abc05b1f219611fefdd0e9eaeff1761d9" target="_top" xlink:title="ZendDbSchema_Db_Schema_Table\\_doReload">
<polygon fill="white" stroke="black" points="1316.5,-1100.5 1316.5,-1121.5 1541.5,-1121.5 1541.5,-1100.5 1316.5,-1100.5"/>
<text text-anchor="middle" x="1429" y="-1108.5" font-family="Helvetica,sans-Serif" font-size="10.00">ZendDbSchema_Db_Schema_Table\_doReload</text>
</a>
</g>
<!-- Node3&#45;&gt;Node7 -->
<g id="edge12" class="edge"><title>Node3&#45;&gt;Node7</title>
<path fill="none" stroke="midnightblue" d="M813.362,-937.736C904.028,-912.895 1115.84,-870.361 1244,-970 1288.3,-1004.44 1237.36,-1054.53 1280,-1091 1290.51,-1099.99 1303.06,-1106.12 1316.35,-1110.18"/>
<polygon fill="midnightblue" stroke="midnightblue" points="812.372,-934.379 803.687,-940.447 814.261,-941.119 812.372,-934.379"/>
</g>
<!-- Node8 -->
<g id="node15" class="node"><title>Node8</title>
<a xlink:href="classZendDbSchema__Db__Schema__AbstractSchema.html#a5696bfca3324b0dfbdf3c10d224f5759" target="_top" xlink:title="ZendDbSchema_Db_Schema_AbstractSchema\\getGenerator">
<polygon fill="white" stroke="black" points="952,-780.5 952,-801.5 1236,-801.5 1236,-780.5 952,-780.5"/>
<text text-anchor="middle" x="1094" y="-788.5" font-family="Helvetica,sans-Serif" font-size="10.00">ZendDbSchema_Db_Schema_AbstractSchema\getGenerator</text>
</a>
</g>
<!-- Node3&#45;&gt;Node8 -->
<g id="edge14" class="edge"><title>Node3&#45;&gt;Node8</title>
<path fill="none" stroke="midnightblue" d="M800.867,-935.757C866.172,-903.508 1016.9,-829.075 1072.71,-801.514"/>
<polygon fill="midnightblue" stroke="midnightblue" points="798.926,-932.812 791.509,-940.378 802.026,-939.088 798.926,-932.812"/>
</g>
<!-- Node25 -->
<g id="node49" class="node"><title>Node25</title>
<a xlink:href="classZendDbSchema__Db__Schema__AbstractSchema.html#adda416f89a3cc16bd28d90b14036b63d" target="_top" xlink:title="ZendDbSchema_Db_Schema_AbstractSchema\\getParser">
<polygon fill="white" stroke="black" points="959.5,-979.5 959.5,-1000.5 1228.5,-1000.5 1228.5,-979.5 959.5,-979.5"/>
<text text-anchor="middle" x="1094" y="-987.5" font-family="Helvetica,sans-Serif" font-size="10.00">ZendDbSchema_Db_Schema_AbstractSchema\getParser</text>
</a>
</g>
<!-- Node3&#45;&gt;Node25 -->
<g id="edge48" class="edge"><title>Node3&#45;&gt;Node25</title>
<path fill="none" stroke="midnightblue" d="M867.444,-962.729C911.692,-968.055 963.621,-974.306 1006.59,-979.479"/>
<polygon fill="midnightblue" stroke="midnightblue" points="867.599,-959.223 857.252,-961.503 866.762,-966.173 867.599,-959.223"/>
</g>
<!-- Node26 -->
<g id="node53" class="node"><title>Node26</title>
<a xlink:href="classZendDbSchema__Db__Schema__AbstractSchema.html#afda46eab0c365f4c9a743b7185c51d6c" target="_top" xlink:title="ZendDbSchema_Db_Schema_AbstractSchema\\getValidator">
<polygon fill="white" stroke="black" points="954.5,-420.5 954.5,-441.5 1233.5,-441.5 1233.5,-420.5 954.5,-420.5"/>
<text text-anchor="middle" x="1094" y="-428.5" font-family="Helvetica,sans-Serif" font-size="10.00">ZendDbSchema_Db_Schema_AbstractSchema\getValidator</text>
</a>
</g>
<!-- Node3&#45;&gt;Node26 -->
<g id="edge54" class="edge"><title>Node3&#45;&gt;Node26</title>
<path fill="none" stroke="midnightblue" d="M782.203,-931.415C835.473,-845.919 1046.77,-506.795 1087.27,-441.801"/>
<polygon fill="midnightblue" stroke="midnightblue" points="779.085,-929.801 776.767,-940.139 785.026,-933.503 779.085,-929.801"/>
</g>
<!-- Node49 -->
<g id="node103" class="node"><title>Node49</title>
<a xlink:href="classZendDbSchema__Db__Schema__Validator__Mysql.html#ab77a7fe20e34115d4b2679521b8918c0" target="_top" xlink:title="ZendDbSchema_Db_Schema_Validator_Mysql\\validateDatabase">
<polygon fill="white" stroke="black" points="944,-380.5 944,-401.5 1244,-401.5 1244,-380.5 944,-380.5"/>
<text text-anchor="middle" x="1094" y="-388.5" font-family="Helvetica,sans-Serif" font-size="10.00">ZendDbSchema_Db_Schema_Validator_Mysql\validateDatabase</text>
</a>
</g>
<!-- Node3&#45;&gt;Node49 -->
<g id="edge108" class="edge"><title>Node3&#45;&gt;Node49</title>
<path fill="none" stroke="midnightblue" d="M773.629,-930.443C789.96,-840.327 859.539,-481.538 944,-411 948.235,-407.463 952.784,-404.373 957.568,-401.678"/>
<polygon fill="midnightblue" stroke="midnightblue" points="770.147,-930.027 771.828,-940.488 777.038,-931.262 770.147,-930.027"/>
</g>
<!-- Node50 -->
<g id="node105" class="node"><title>Node50</title>
<a xlink:href="classZendDbSchema__Db__Schema__Validator__Mysql.html#a0c68fa05f88c3a6f603b04709133ef68" target="_top" xlink:title="ZendDbSchema_Db_Schema_Validator_Mysql\\validateTable">
<polygon fill="white" stroke="black" points="953,-340.5 953,-361.5 1235,-361.5 1235,-340.5 953,-340.5"/>
<text text-anchor="middle" x="1094" y="-348.5" font-family="Helvetica,sans-Serif" font-size="10.00">ZendDbSchema_Db_Schema_Validator_Mysql\validateTable</text>
</a>
</g>
<!-- Node3&#45;&gt;Node50 -->
<g id="edge110" class="edge"><title>Node3&#45;&gt;Node50</title>
<path fill="none" stroke="midnightblue" d="M773.2,-930.141C788.157,-835.469 854.246,-447.516 944,-371 948.199,-367.421 952.718,-364.294 957.476,-361.57"/>
<polygon fill="midnightblue" stroke="midnightblue" points="769.716,-929.772 771.632,-940.192 776.632,-930.851 769.716,-929.772"/>
</g>
<!-- Node9 -->
<g id="node17" class="node"><title>Node9</title>
<a xlink:href="classZendDbSchema__Db__Schema__Table__PrimaryKey.html#a3f48dd085068f13258957efeb0f7257b" target="_top" xlink:title="ZendDbSchema_Db_Schema_Table_PrimaryKey\\_getAlterSql">
<polygon fill="white" stroke="black" points="1285,-820.5 1285,-841.5 1573,-841.5 1573,-820.5 1285,-820.5"/>
<text text-anchor="middle" x="1429" y="-828.5" font-family="Helvetica,sans-Serif" font-size="10.00">ZendDbSchema_Db_Schema_Table_PrimaryKey\_getAlterSql</text>
</a>
</g>
<!-- Node8&#45;&gt;Node9 -->
<g id="edge16" class="edge"><title>Node8&#45;&gt;Node9</title>
<path fill="none" stroke="midnightblue" d="M1192.23,-802.729C1239.33,-808.353 1295.3,-815.036 1340.99,-820.491"/>
<polygon fill="midnightblue" stroke="midnightblue" points="1192.36,-799.22 1182.02,-801.51 1191.53,-806.171 1192.36,-799.22"/>
</g>
<!-- Node10 -->
<g id="node19" class="node"><title>Node10</title>
<a xlink:href="classZendDbSchema__Db__Schema__Database.html#a4f5a636c4e7d8ab57f6e090cdf8841dc" target="_top" xlink:title="ZendDbSchema_Db_Schema_Database\\_getAlterSql">
<polygon fill="white" stroke="black" points="1304,-780.5 1304,-801.5 1554,-801.5 1554,-780.5 1304,-780.5"/>
<text text-anchor="middle" x="1429" y="-788.5" font-family="Helvetica,sans-Serif" font-size="10.00">ZendDbSchema_Db_Schema_Database\_getAlterSql</text>
</a>
</g>
<!-- Node8&#45;&gt;Node10 -->
<g id="edge18" class="edge"><title>Node8&#45;&gt;Node10</title>
<path fill="none" stroke="midnightblue" d="M1246.15,-791C1265.49,-791 1285.1,-791 1303.95,-791"/>
<polygon fill="midnightblue" stroke="midnightblue" points="1246.07,-787.5 1236.07,-791 1246.07,-794.5 1246.07,-787.5"/>
</g>
<!-- Node11 -->
<g id="node21" class="node"><title>Node11</title>
<a xlink:href="classZendDbSchema__Db__Schema__Table__ForeignKey.html#ae7cb55b4ec471ccb54ef38ef4bb33558" target="_top" xlink:title="ZendDbSchema_Db_Schema_Table_ForeignKey\\_getAlterSql">
<polygon fill="white" stroke="black" points="1285.5,-740.5 1285.5,-761.5 1572.5,-761.5 1572.5,-740.5 1285.5,-740.5"/>
<text text-anchor="middle" x="1429" y="-748.5" font-family="Helvetica,sans-Serif" font-size="10.00">ZendDbSchema_Db_Schema_Table_ForeignKey\_getAlterSql</text>
</a>
</g>
<!-- Node8&#45;&gt;Node11 -->
<g id="edge20" class="edge"><title>Node8&#45;&gt;Node11</title>
<path fill="none" stroke="midnightblue" d="M1192.23,-779.271C1239.33,-773.647 1295.3,-766.964 1340.99,-761.509"/>
<polygon fill="midnightblue" stroke="midnightblue" points="1191.53,-775.829 1182.02,-780.49 1192.36,-782.78 1191.53,-775.829"/>
</g>
<!-- Node12 -->
<g id="node23" class="node"><title>Node12</title>
<a xlink:href="classZendDbSchema__Db__Schema__Table__Index.html#ab87e33f2415eaf43730ca6d43ec540b6" target="_top" xlink:title="ZendDbSchema_Db_Schema_Table_Index\\_getAlterSql">
<polygon fill="white" stroke="black" points="1298.5,-700.5 1298.5,-721.5 1559.5,-721.5 1559.5,-700.5 1298.5,-700.5"/>
<text text-anchor="middle" x="1429" y="-708.5" font-family="Helvetica,sans-Serif" font-size="10.00">ZendDbSchema_Db_Schema_Table_Index\_getAlterSql</text>
</a>
</g>
<!-- Node8&#45;&gt;Node12 -->
<g id="edge22" class="edge"><title>Node8&#45;&gt;Node12</title>
<path fill="none" stroke="midnightblue" d="M1130.7,-777.005C1167.84,-763.362 1227.14,-742.972 1280,-731 1296.55,-727.252 1314.3,-724.119 1331.57,-721.528"/>
<polygon fill="midnightblue" stroke="midnightblue" points="1129.46,-773.733 1121.3,-780.49 1131.9,-780.296 1129.46,-773.733"/>
</g>
<!-- Node13 -->
<g id="node25" class="node"><title>Node13</title>
<a xlink:href="classZendDbSchema__Db__Schema__Table__Column.html#ae49fb9ae5b0f6d6258dc71f644e00991" target="_top" xlink:title="ZendDbSchema_Db_Schema_Table_Column\\_getAlterSql">
<polygon fill="white" stroke="black" points="1293.5,-660.5 1293.5,-681.5 1564.5,-681.5 1564.5,-660.5 1293.5,-660.5"/>
<text text-anchor="middle" x="1429" y="-668.5" font-family="Helvetica,sans-Serif" font-size="10.00">ZendDbSchema_Db_Schema_Table_Column\_getAlterSql</text>
</a>
</g>
<!-- Node8&#45;&gt;Node13 -->
<g id="edge24" class="edge"><title>Node8&#45;&gt;Node13</title>
<path fill="none" stroke="midnightblue" d="M1117.41,-774.794C1151.5,-752.062 1217.57,-711.231 1280,-691 1291.92,-687.138 1304.6,-684.021 1317.35,-681.506"/>
<polygon fill="midnightblue" stroke="midnightblue" points="1115.4,-771.932 1109.06,-780.426 1119.31,-777.734 1115.4,-771.932"/>
</g>
<!-- Node14 -->
<g id="node27" class="node"><title>Node14</title>
<a xlink:href="classZendDbSchema__Db__Schema__Table.html#a385e32fefac9fd4c6e4274c1e0c0b810" target="_top" xlink:title="ZendDbSchema_Db_Schema_Table\\_getAlterSql">
<polygon fill="white" stroke="black" points="1313,-620.5 1313,-641.5 1545,-641.5 1545,-620.5 1313,-620.5"/>
<text text-anchor="middle" x="1429" y="-628.5" font-family="Helvetica,sans-Serif" font-size="10.00">ZendDbSchema_Db_Schema_Table\_getAlterSql</text>
</a>
</g>
<!-- Node8&#45;&gt;Node14 -->
<g id="edge26" class="edge"><title>Node8&#45;&gt;Node14</title>
<path fill="none" stroke="midnightblue" d="M1111.43,-772.809C1142.21,-741.946 1209.63,-679.869 1280,-651 1290.38,-646.74 1301.48,-643.347 1312.76,-640.65"/>
<polygon fill="midnightblue" stroke="midnightblue" points="1108.59,-770.703 1104.08,-780.289 1113.58,-775.61 1108.59,-770.703"/>
</g>
<!-- Node15 -->
<g id="node29" class="node"><title>Node15</title>
<a xlink:href="classZendDbSchema__Db__Schema__Table__PrimaryKey.html#a97fe22c0e5758e1ee04616ccf3218e2a" target="_top" xlink:title="ZendDbSchema_Db_Schema_Table_PrimaryKey\\_getCreateSql">
<polygon fill="white" stroke="black" points="1280.5,-580.5 1280.5,-601.5 1577.5,-601.5 1577.5,-580.5 1280.5,-580.5"/>
<text text-anchor="middle" x="1429" y="-588.5" font-family="Helvetica,sans-Serif" font-size="10.00">ZendDbSchema_Db_Schema_Table_PrimaryKey\_getCreateSql</text>
</a>
</g>
<!-- Node8&#45;&gt;Node15 -->
<g id="edge28" class="edge"><title>Node8&#45;&gt;Node15</title>
<path fill="none" stroke="midnightblue" d="M1107.08,-771.918C1134.27,-733.943 1201.01,-649.277 1280,-611 1287.75,-607.244 1295.98,-604.124 1304.43,-601.539"/>
<polygon fill="midnightblue" stroke="midnightblue" points="1104.21,-769.911 1101.31,-780.102 1109.93,-773.941 1104.21,-769.911"/>
</g>
<!-- Node16 -->
<g id="node31" class="node"><title>Node16</title>
<a xlink:href="classZendDbSchema__Db__Schema__Database.html#a48ad6cd38cc07c3c350335d21d7c11e9" target="_top" xlink:title="ZendDbSchema_Db_Schema_Database\\_getCreateSql">
<polygon fill="white" stroke="black" points="1299.5,-540.5 1299.5,-561.5 1558.5,-561.5 1558.5,-540.5 1299.5,-540.5"/>
<text text-anchor="middle" x="1429" y="-548.5" font-family="Helvetica,sans-Serif" font-size="10.00">ZendDbSchema_Db_Schema_Database\_getCreateSql</text>
</a>
</g>
<!-- Node8&#45;&gt;Node16 -->
<g id="edge30" class="edge"><title>Node8&#45;&gt;Node16</title>
<path fill="none" stroke="midnightblue" d="M1103.92,-771.464C1127.57,-727.177 1191.91,-619.257 1280,-571 1286.75,-567.301 1293.93,-564.188 1301.34,-561.577"/>
<polygon fill="midnightblue" stroke="midnightblue" points="1100.8,-769.884 1099.26,-780.367 1107,-773.13 1100.8,-769.884"/>
</g>
<!-- Node17 -->
<g id="node33" class="node"><title>Node17</title>
<a xlink:href="classZendDbSchema__Db__Schema__Table__Column.html#a2312222bd78d06775dacb19b92638b69" target="_top" xlink:title="ZendDbSchema_Db_Schema_Table_Column\\_getCreateSql">
<polygon fill="white" stroke="black" points="1289,-500.5 1289,-521.5 1569,-521.5 1569,-500.5 1289,-500.5"/>
<text text-anchor="middle" x="1429" y="-508.5" font-family="Helvetica,sans-Serif" font-size="10.00">ZendDbSchema_Db_Schema_Table_Column\_getCreateSql</text>
</a>
</g>
<!-- Node8&#45;&gt;Node17 -->
<g id="edge32" class="edge"><title>Node8&#45;&gt;Node17</title>
<path fill="none" stroke="midnightblue" d="M1101.62,-771.083C1121.93,-720.998 1182.55,-589.633 1280,-531 1286.15,-527.3 1292.7,-524.164 1299.49,-521.513"/>
<polygon fill="midnightblue" stroke="midnightblue" points="1098.33,-769.895 1097.9,-780.481 1104.83,-772.471 1098.33,-769.895"/>
</g>
<!-- Node18 -->
<g id="node35" class="node"><title>Node18</title>
<a xlink:href="classZendDbSchema__Db__Schema__Table__ForeignKey.html#a8b8ab754bf3b5bcda1e8c70e83a6b7b9" target="_top" xlink:title="ZendDbSchema_Db_Schema_Table_ForeignKey\\_getCreateSql">
<polygon fill="white" stroke="black" points="1281,-460.5 1281,-481.5 1577,-481.5 1577,-460.5 1281,-460.5"/>
<text text-anchor="middle" x="1429" y="-468.5" font-family="Helvetica,sans-Serif" font-size="10.00">ZendDbSchema_Db_Schema_Table_ForeignKey\_getCreateSql</text>
</a>
</g>
<!-- Node8&#45;&gt;Node18 -->
<g id="edge34" class="edge"><title>Node8&#45;&gt;Node18</title>
<path fill="none" stroke="midnightblue" d="M1099.85,-770.721C1117.02,-715.213 1172.94,-560.321 1280,-491 1285.59,-487.383 1291.54,-484.287 1297.73,-481.646"/>
<polygon fill="midnightblue" stroke="midnightblue" points="1096.45,-769.859 1096.93,-780.443 1103.16,-771.873 1096.45,-769.859"/>
</g>
<!-- Node19 -->
<g id="node37" class="node"><title>Node19</title>
<a xlink:href="classZendDbSchema__Db__Schema__Table__Index.html#afec61cbe6c22bd42e30103bc3d37ef2d" target="_top" xlink:title="ZendDbSchema_Db_Schema_Table_Index\\_getCreateSql">
<polygon fill="white" stroke="black" points="1294,-1060.5 1294,-1081.5 1564,-1081.5 1564,-1060.5 1294,-1060.5"/>
<text text-anchor="middle" x="1429" y="-1068.5" font-family="Helvetica,sans-Serif" font-size="10.00">ZendDbSchema_Db_Schema_Table_Index\_getCreateSql</text>
</a>
</g>
<!-- Node8&#45;&gt;Node19 -->
<g id="edge36" class="edge"><title>Node8&#45;&gt;Node19</title>
<path fill="none" stroke="midnightblue" d="M1117.28,-807.649C1150.13,-832.306 1209.87,-881.624 1244,-937 1271.88,-982.231 1239.33,-1016.8 1280,-1051 1284.29,-1054.61 1288.92,-1057.76 1293.79,-1060.49"/>
<polygon fill="midnightblue" stroke="midnightblue" points="1119.28,-804.773 1109.16,-801.643 1115.12,-810.402 1119.28,-804.773"/>
</g>
<!-- Node20 -->
<g id="node39" class="node"><title>Node20</title>
<a xlink:href="classZendDbSchema__Db__Schema__Table.html#aefb813dece15a26017e580acc64e3406" target="_top" xlink:title="ZendDbSchema_Db_Schema_Table\\_getCreateSql">
<polygon fill="white" stroke="black" points="1308.5,-1020.5 1308.5,-1041.5 1549.5,-1041.5 1549.5,-1020.5 1308.5,-1020.5"/>
<text text-anchor="middle" x="1429" y="-1028.5" font-family="Helvetica,sans-Serif" font-size="10.00">ZendDbSchema_Db_Schema_Table\_getCreateSql</text>
</a>
</g>
<!-- Node8&#45;&gt;Node20 -->
<g id="edge38" class="edge"><title>Node8&#45;&gt;Node20</title>
<path fill="none" stroke="midnightblue" d="M1116.12,-808.304C1147.64,-833.817 1205.86,-884.233 1244,-937 1265.42,-966.642 1250.36,-989.579 1280,-1011 1288.57,-1017.19 1298.15,-1021.92 1308.22,-1025.5"/>
<polygon fill="midnightblue" stroke="midnightblue" points="1117.98,-805.304 1107.98,-801.787 1113.6,-810.769 1117.98,-805.304"/>
</g>
<!-- Node21 -->
<g id="node41" class="node"><title>Node21</title>
<a xlink:href="classZendDbSchema__Db__Schema__Table__PrimaryKey.html#a1da04c2b8330ad70171fd6b1802d14f2" target="_top" xlink:title="ZendDbSchema_Db_Schema_Table_PrimaryKey\\_getDeleteSql">
<polygon fill="white" stroke="black" points="1281,-980.5 1281,-1001.5 1577,-1001.5 1577,-980.5 1281,-980.5"/>
<text text-anchor="middle" x="1429" y="-988.5" font-family="Helvetica,sans-Serif" font-size="10.00">ZendDbSchema_Db_Schema_Table_PrimaryKey\_getDeleteSql</text>
</a>
</g>
<!-- Node8&#45;&gt;Node21 -->
<g id="edge40" class="edge"><title>Node8&#45;&gt;Node21</title>
<path fill="none" stroke="midnightblue" d="M1112.16,-808.721C1158.45,-853.865 1277.4,-969.738 1280,-971 1287.75,-974.756 1295.98,-977.876 1304.43,-980.461"/>
<polygon fill="midnightblue" stroke="midnightblue" points="1114.5,-806.109 1104.9,-801.633 1109.61,-811.121 1114.5,-806.109"/>
</g>
<!-- Node22 -->
<g id="node43" class="node"><title>Node22</title>
<a xlink:href="classZendDbSchema__Db__Schema__Table__Index.html#a54a12dab52e17f1218fafcd13b334d16" target="_top" xlink:title="ZendDbSchema_Db_Schema_Table_Index\\_getDeleteSql">
<polygon fill="white" stroke="black" points="1294.5,-940.5 1294.5,-961.5 1563.5,-961.5 1563.5,-940.5 1294.5,-940.5"/>
<text text-anchor="middle" x="1429" y="-948.5" font-family="Helvetica,sans-Serif" font-size="10.00">ZendDbSchema_Db_Schema_Table_Index\_getDeleteSql</text>
</a>
</g>
<!-- Node8&#45;&gt;Node22 -->
<g id="edge42" class="edge"><title>Node8&#45;&gt;Node22</title>
<path fill="none" stroke="midnightblue" d="M1111.43,-809.191C1142.21,-840.054 1209.63,-902.131 1280,-931 1289.3,-934.814 1299.17,-937.933 1309.23,-940.48"/>
<polygon fill="midnightblue" stroke="midnightblue" points="1113.58,-806.39 1104.08,-801.711 1108.59,-811.297 1113.58,-806.39"/>
</g>
<!-- Node23 -->
<g id="node45" class="node"><title>Node23</title>
<a xlink:href="classZendDbSchema__Db__Schema__Table__Column.html#a9b1cc87143098c64df381066af91222c" target="_top" xlink:title="ZendDbSchema_Db_Schema_Table_Column\\_getDeleteSql">
<polygon fill="white" stroke="black" points="1289.5,-900.5 1289.5,-921.5 1568.5,-921.5 1568.5,-900.5 1289.5,-900.5"/>
<text text-anchor="middle" x="1429" y="-908.5" font-family="Helvetica,sans-Serif" font-size="10.00">ZendDbSchema_Db_Schema_Table_Column\_getDeleteSql</text>
</a>
</g>
<!-- Node8&#45;&gt;Node23 -->
<g id="edge44" class="edge"><title>Node8&#45;&gt;Node23</title>
<path fill="none" stroke="midnightblue" d="M1117.41,-807.206C1151.5,-829.938 1217.57,-870.769 1280,-891 1291.92,-894.862 1304.6,-897.979 1317.35,-900.494"/>
<polygon fill="midnightblue" stroke="midnightblue" points="1119.31,-804.266 1109.06,-801.574 1115.4,-810.068 1119.31,-804.266"/>
</g>
<!-- Node24 -->
<g id="node47" class="node"><title>Node24</title>
<a xlink:href="classZendDbSchema__Db__Schema__Table__ForeignKey.html#acc96fbb08d8271259f56bd77c37f2da4" target="_top" xlink:title="ZendDbSchema_Db_Schema_Table_ForeignKey\\_getDeleteSql">
<polygon fill="white" stroke="black" points="1281.5,-860.5 1281.5,-881.5 1576.5,-881.5 1576.5,-860.5 1281.5,-860.5"/>
<text text-anchor="middle" x="1429" y="-868.5" font-family="Helvetica,sans-Serif" font-size="10.00">ZendDbSchema_Db_Schema_Table_ForeignKey\_getDeleteSql</text>
</a>
</g>
<!-- Node8&#45;&gt;Node24 -->
<g id="edge46" class="edge"><title>Node8&#45;&gt;Node24</title>
<path fill="none" stroke="midnightblue" d="M1130.7,-804.995C1167.84,-818.638 1227.14,-839.028 1280,-851 1296.55,-854.748 1314.3,-857.881 1331.57,-860.472"/>
<polygon fill="midnightblue" stroke="midnightblue" points="1131.9,-801.704 1121.3,-801.51 1129.46,-808.267 1131.9,-801.704"/>
</g>
<!-- Node25&#45;&gt;Node6 -->
<g id="edge50" class="edge"><title>Node25&#45;&gt;Node6</title>
<path fill="none" stroke="midnightblue" d="M1230.97,-1005.55C1235.57,-1008.32 1239.94,-1011.46 1244,-1015 1284.67,-1050.49 1238.77,-1096.16 1280,-1131 1288.07,-1137.82 1297.32,-1142.99 1307.17,-1146.85"/>
<polygon fill="midnightblue" stroke="midnightblue" points="1232.33,-1002.3 1221.87,-1000.65 1229.02,-1008.47 1232.33,-1002.3"/>
</g>
<!-- Node25&#45;&gt;Node7 -->
<g id="edge52" class="edge"><title>Node25&#45;&gt;Node7</title>
<path fill="none" stroke="midnightblue" d="M1227.4,-1004.76C1233.24,-1007.69 1238.82,-1011.08 1244,-1015 1273.83,-1037.52 1249.82,-1068.95 1280,-1091 1290.85,-1098.93 1303.37,-1104.48 1316.44,-1108.28"/>
<polygon fill="midnightblue" stroke="midnightblue" points="1228.57,-1001.44 1218.02,-1000.51 1225.69,-1007.82 1228.57,-1001.44"/>
</g>
<!-- Node27 -->
<g id="node55" class="node"><title>Node27</title>
<a xlink:href="classZendDbSchema__Db__Schema__AbstractSchema.html#ab4282a1fd6f4d9f23d01de8328072c71" target="_top" xlink:title="ZendDbSchema_Db_Schema_AbstractSchema\\__set">
<polygon fill="white" stroke="red" points="1303.5,-340.5 1303.5,-361.5 1554.5,-361.5 1554.5,-340.5 1303.5,-340.5"/>
<text text-anchor="middle" x="1429" y="-348.5" font-family="Helvetica,sans-Serif" font-size="10.00">ZendDbSchema_Db_Schema_AbstractSchema\__set</text>
</a>
</g>
<!-- Node26&#45;&gt;Node27 -->
<g id="edge56" class="edge"><title>Node26&#45;&gt;Node27</title>
<path fill="none" stroke="midnightblue" d="M1231.31,-416.892C1235.66,-415.119 1239.9,-413.161 1244,-411 1265.16,-399.844 1258.85,-382.165 1280,-371 1287.39,-367.101 1295.25,-363.864 1303.37,-361.185"/>
<polygon fill="midnightblue" stroke="midnightblue" points="1229.78,-413.725 1221.62,-420.484 1232.21,-420.288 1229.78,-413.725"/>
</g>
<!-- Node46 -->
<g id="node97" class="node"><title>Node46</title>
<a xlink:href="classZendDbSchema__Db__Schema__AbstractSchema.html#a64e2e307b4dd0bf4785258f82e9fcc1b" target="_top" xlink:title="ZendDbSchema_Db_Schema_AbstractSchema\\__unset">
<polygon fill="white" stroke="black" points="1298,-300.5 1298,-321.5 1560,-321.5 1560,-300.5 1298,-300.5"/>
<text text-anchor="middle" x="1429" y="-308.5" font-family="Helvetica,sans-Serif" font-size="10.00">ZendDbSchema_Db_Schema_AbstractSchema\__unset</text>
</a>
</g>
<!-- Node26&#45;&gt;Node46 -->
<g id="edge102" class="edge"><title>Node26&#45;&gt;Node46</title>
<path fill="none" stroke="midnightblue" d="M1237.45,-415.463C1239.69,-414.065 1241.88,-412.579 1244,-411 1275.27,-387.708 1248.74,-354.306 1280,-331 1285.54,-326.866 1291.54,-323.373 1297.83,-320.433"/>
<polygon fill="midnightblue" stroke="midnightblue" points="1235.58,-412.502 1228.54,-420.426 1238.98,-418.618 1235.58,-412.502"/>
</g>
<!-- Node47 -->
<g id="node99" class="node"><title>Node47</title>
<a xlink:href="classZendDbSchema__Db__Schema__Table__AbstractDefinition.html#ad1a0b678c2352296b55af83c59142e59" target="_top" xlink:title="ZendDbSchema_Db_Schema_Table_AbstractDefinition\\save">
<polygon fill="white" stroke="black" points="1287.5,-420.5 1287.5,-441.5 1570.5,-441.5 1570.5,-420.5 1287.5,-420.5"/>
<text text-anchor="middle" x="1429" y="-428.5" font-family="Helvetica,sans-Serif" font-size="10.00">ZendDbSchema_Db_Schema_Table_AbstractDefinition\save</text>
</a>
</g>
<!-- Node26&#45;&gt;Node47 -->
<g id="edge104" class="edge"><title>Node26&#45;&gt;Node47</title>
<path fill="none" stroke="midnightblue" d="M1243.68,-431C1258.23,-431 1272.96,-431 1287.43,-431"/>
<polygon fill="midnightblue" stroke="midnightblue" points="1243.64,-427.5 1233.64,-431 1243.64,-434.5 1243.64,-427.5"/>
</g>
<!-- Node48 -->
<g id="node101" class="node"><title>Node48</title>
<a xlink:href="classZendDbSchema__Db__Schema__AbstractEntity.html#a5b1c93da76c3708f90d330b4643e55b2" target="_top" xlink:title="ZendDbSchema_Db_Schema_AbstractEntity\\save">
<polygon fill="white" stroke="black" points="1310,-380.5 1310,-401.5 1548,-401.5 1548,-380.5 1310,-380.5"/>
<text text-anchor="middle" x="1429" y="-388.5" font-family="Helvetica,sans-Serif" font-size="10.00">ZendDbSchema_Db_Schema_AbstractEntity\save</text>
</a>
</g>
<!-- Node26&#45;&gt;Node48 -->
<g id="edge106" class="edge"><title>Node26&#45;&gt;Node48</title>
<path fill="none" stroke="midnightblue" d="M1192.23,-419.271C1239.33,-413.647 1295.3,-406.964 1340.99,-401.509"/>
<polygon fill="midnightblue" stroke="midnightblue" points="1191.53,-415.829 1182.02,-420.49 1192.36,-422.78 1191.53,-415.829"/>
</g>
<!-- Node28 -->
<g id="node57" class="node"><title>Node28</title>
<a xlink:href="classZendDbSchema__Db__Schema__AbstractEntity.html#a845c851f8d9549a8f1a3aa9bc1da3658" target="_top" xlink:title="ZendDbSchema_Db_Schema_AbstractEntity\\__clone">
<polygon fill="white" stroke="black" points="1639.5,-672.5 1639.5,-693.5 1890.5,-693.5 1890.5,-672.5 1639.5,-672.5"/>
<text text-anchor="middle" x="1765" y="-680.5" font-family="Helvetica,sans-Serif" font-size="10.00">ZendDbSchema_Db_Schema_AbstractEntity\__clone</text>
</a>
</g>
<!-- Node27&#45;&gt;Node28 -->
<g id="edge58" class="edge"><title>Node27&#45;&gt;Node28</title>
<path fill="none" stroke="midnightblue" d="M1563.65,-359.665C1568.82,-362.855 1573.64,-366.607 1578,-371 1668.51,-462.294 1524.9,-565.33 1614,-658 1621.27,-665.566 1629.9,-671.393 1639.28,-675.836"/>
<polygon fill="midnightblue" stroke="midnightblue" points="1565.1,-356.472 1554.64,-354.811 1561.78,-362.635 1565.1,-356.472"/>
</g>
<!-- Node29 -->
<g id="node59" class="node"><title>Node29</title>
<a xlink:href="classZendDbSchema__Db__Schema__Table__Index.html#a6717d976c5b0d47369d3c87ef17b1e9b" target="_top" xlink:title="ZendDbSchema_Db_Schema_Table_Index\\addColumn">
<polygon fill="white" stroke="red" points="1981.5,-619.5 1981.5,-640.5 2238.5,-640.5 2238.5,-619.5 1981.5,-619.5"/>
<text text-anchor="middle" x="2110" y="-627.5" font-family="Helvetica,sans-Serif" font-size="10.00">ZendDbSchema_Db_Schema_Table_Index\addColumn</text>
</a>
</g>
<!-- Node27&#45;&gt;Node29 -->
<g id="edge60" class="edge"><title>Node27&#45;&gt;Node29</title>
<path fill="none" stroke="midnightblue" d="M1563.56,-359.751C1568.75,-362.919 1573.61,-366.642 1578,-371 1658.92,-451.325 1528.28,-549.815 1614,-625 1674.69,-678.237 1912.56,-656.172 2035.5,-640.553"/>
<polygon fill="midnightblue" stroke="midnightblue" points="1564.99,-356.546 1554.52,-354.931 1561.69,-362.723 1564.99,-356.546"/>
</g>
<!-- Node30 -->
<g id="node61" class="node"><title>Node30</title>
<a xlink:href="classZendDbSchema__Db__Schema__Table__ForeignKey.html#a2197861c0661243f1ebcf43a7e7771f2" target="_top" xlink:title="ZendDbSchema_Db_Schema_Table_ForeignKey\\addRefColumn">
<polygon fill="white" stroke="black" points="1960.5,-511.5 1960.5,-532.5 2259.5,-532.5 2259.5,-511.5 1960.5,-511.5"/>
<text text-anchor="middle" x="2110" y="-519.5" font-family="Helvetica,sans-Serif" font-size="10.00">ZendDbSchema_Db_Schema_Table_ForeignKey\addRefColumn</text>
</a>
</g>
<!-- Node27&#45;&gt;Node30 -->
<g id="edge62" class="edge"><title>Node27&#45;&gt;Node30</title>
<path fill="none" stroke="midnightblue" d="M1563.98,-360.97C1568.96,-363.839 1573.66,-367.162 1578,-371 1625.46,-413.011 1564.35,-469.593 1614,-509 1673.84,-556.495 1888.87,-544.415 2015.31,-532.515"/>
<polygon fill="midnightblue" stroke="midnightblue" points="1565.26,-357.692 1554.76,-356.285 1562.09,-363.933 1565.26,-357.692"/>
</g>
<!-- Node31 -->
<g id="node63" class="node"><title>Node31</title>
<a xlink:href="classZendDbSchema__Db__Schema__Table__Index.html#af7c29da0f52c5270ffa3587a95295f82" target="_top" xlink:title="ZendDbSchema_Db_Schema_Table_Index\\hasColumn">
<polygon fill="white" stroke="black" points="1636.5,-594.5 1636.5,-615.5 1893.5,-615.5 1893.5,-594.5 1636.5,-594.5"/>
<text text-anchor="middle" x="1765" y="-602.5" font-family="Helvetica,sans-Serif" font-size="10.00">ZendDbSchema_Db_Schema_Table_Index\hasColumn</text>
</a>
</g>
<!-- Node27&#45;&gt;Node31 -->
<g id="edge64" class="edge"><title>Node27&#45;&gt;Node31</title>
<path fill="none" stroke="midnightblue" d="M1563.61,-360.041C1568.77,-363.138 1573.61,-366.765 1578,-371 1645.88,-436.4 1547.13,-513.567 1614,-580 1620.6,-586.555 1628.21,-591.785 1636.45,-595.929"/>
<polygon fill="midnightblue" stroke="midnightblue" points="1565.13,-356.882 1554.65,-355.318 1561.86,-363.075 1565.13,-356.882"/>
</g>
<!-- Node32 -->
<g id="node66" class="node"><title>Node32</title>
<a xlink:href="classZendDbSchema__Db__Schema__Table__Index.html#a3cfd358621bb3330ef9e7ffcf2f7b229" target="_top" xlink:title="ZendDbSchema_Db_Schema_Table_Index\\removeColumn">
<polygon fill="white" stroke="black" points="1973,-560.5 1973,-581.5 2247,-581.5 2247,-560.5 1973,-560.5"/>
<text text-anchor="middle" x="2110" y="-568.5" font-family="Helvetica,sans-Serif" font-size="10.00">ZendDbSchema_Db_Schema_Table_Index\removeColumn</text>
</a>
</g>
<!-- Node27&#45;&gt;Node32 -->
<g id="edge76" class="edge"><title>Node27&#45;&gt;Node32</title>
<path fill="none" stroke="midnightblue" d="M1563.62,-360.382C1568.75,-363.394 1573.58,-366.909 1578,-371 1634.34,-423.188 1555.84,-489.845 1614,-540 1665.94,-584.797 1844.7,-585.906 1972.7,-580.315"/>
<polygon fill="midnightblue" stroke="midnightblue" points="1565.21,-357.262 1554.72,-355.778 1561.99,-363.48 1565.21,-357.262"/>
</g>
<!-- Node33 -->
<g id="node68" class="node"><title>Node33</title>
<a xlink:href="classZendDbSchema__Db__Schema__Table__ForeignKey.html#aee976a90aff6a23580c6bbd11baf2ec0" target="_top" xlink:title="ZendDbSchema_Db_Schema_Table_ForeignKey\\hasRefColumn">
<polygon fill="white" stroke="black" points="1615.5,-478.5 1615.5,-499.5 1914.5,-499.5 1914.5,-478.5 1615.5,-478.5"/>
<text text-anchor="middle" x="1765" y="-486.5" font-family="Helvetica,sans-Serif" font-size="10.00">ZendDbSchema_Db_Schema_Table_ForeignKey\hasRefColumn</text>
</a>
</g>
<!-- Node27&#45;&gt;Node33 -->
<g id="edge70" class="edge"><title>Node27&#45;&gt;Node33</title>
<path fill="none" stroke="midnightblue" d="M1563.89,-361.834C1568.85,-364.478 1573.58,-367.516 1578,-371 1612.81,-398.435 1579.61,-436.035 1614,-464 1621.22,-469.868 1629.28,-474.599 1637.83,-478.393"/>
<polygon fill="midnightblue" stroke="midnightblue" points="1565.26,-358.613 1554.73,-357.49 1562.26,-364.938 1565.26,-358.613"/>
</g>
<!-- Node34 -->
<g id="node71" class="node"><title>Node34</title>
<a xlink:href="classZendDbSchema__Db__Schema__Table__ForeignKey.html#ab1730184f38846e90fc31b891a3d9b8c" target="_top" xlink:title="ZendDbSchema_Db_Schema_Table_ForeignKey\\removeRefColumn">
<polygon fill="white" stroke="black" points="1952.5,-453.5 1952.5,-474.5 2267.5,-474.5 2267.5,-453.5 1952.5,-453.5"/>
<text text-anchor="middle" x="2110" y="-461.5" font-family="Helvetica,sans-Serif" font-size="10.00">ZendDbSchema_Db_Schema_Table_ForeignKey\removeRefColumn</text>
</a>
</g>
<!-- Node27&#45;&gt;Node34 -->
<g id="edge78" class="edge"><title>Node27&#45;&gt;Node34</title>
<path fill="none" stroke="midnightblue" d="M1564.22,-363.301C1569,-365.56 1573.62,-368.115 1578,-371 1603.98,-388.092 1587.46,-414.788 1614,-431 1642.51,-448.42 1818.06,-456.841 1952.31,-460.775"/>
<polygon fill="midnightblue" stroke="midnightblue" points="1565.4,-360.002 1554.83,-359.312 1562.67,-366.445 1565.4,-360.002"/>
</g>
<!-- Node35 -->
<g id="node75" class="node"><title>Node35</title>
<a xlink:href="classZendDbSchema__Db__Schema__Database.html#acfc530f3381e35f7d57676c4dcff3620" target="_top" xlink:title="ZendDbSchema_Db_Schema_Database\\setCharset">
<polygon fill="white" stroke="black" points="1642.5,-400.5 1642.5,-421.5 1887.5,-421.5 1887.5,-400.5 1642.5,-400.5"/>
<text text-anchor="middle" x="1765" y="-408.5" font-family="Helvetica,sans-Serif" font-size="10.00">ZendDbSchema_Db_Schema_Database\setCharset</text>
</a>
</g>
<!-- Node27&#45;&gt;Node35 -->
<g id="edge80" class="edge"><title>Node27&#45;&gt;Node35</title>
<path fill="none" stroke="midnightblue" d="M1551.4,-363.639C1560.5,-365.729 1569.45,-368.164 1578,-371 1595.37,-376.762 1596.62,-385.253 1614,-391 1625.67,-394.861 1638.09,-397.979 1650.59,-400.497"/>
<polygon fill="midnightblue" stroke="midnightblue" points="1552.01,-360.189 1541.5,-361.503 1550.53,-367.032 1552.01,-360.189"/>
</g>
<!-- Node36 -->
<g id="node77" class="node"><title>Node36</title>
<a xlink:href="classZendDbSchema__Db__Schema__Table__Index.html#a77b65e961a7da9ca89fdebd682338fcf" target="_top" xlink:title="ZendDbSchema_Db_Schema_Table_Index\\setColumns">
<polygon fill="white" stroke="black" points="1635,-360.5 1635,-381.5 1895,-381.5 1895,-360.5 1635,-360.5"/>
<text text-anchor="middle" x="1765" y="-368.5" font-family="Helvetica,sans-Serif" font-size="10.00">ZendDbSchema_Db_Schema_Table_Index\setColumns</text>
</a>
</g>
<!-- Node27&#45;&gt;Node36 -->
<g id="edge82" class="edge"><title>Node27&#45;&gt;Node36</title>
<path fill="none" stroke="midnightblue" d="M1564.79,-359.083C1587.89,-360.458 1611.84,-361.883 1634.79,-363.25"/>
<polygon fill="midnightblue" stroke="midnightblue" points="1564.78,-355.576 1554.59,-358.476 1564.37,-362.564 1564.78,-355.576"/>
</g>
<!-- Node37 -->
<g id="node79" class="node"><title>Node37</title>
<a xlink:href="classZendDbSchema__Db__Schema__Table__Column.html#aae45b2b24302735971d487e6037ee732" target="_top" xlink:title="ZendDbSchema_Db_Schema_Table_Column\\setComment">
<polygon fill="white" stroke="black" points="1628,-320.5 1628,-341.5 1902,-341.5 1902,-320.5 1628,-320.5"/>
<text text-anchor="middle" x="1765" y="-328.5" font-family="Helvetica,sans-Serif" font-size="10.00">ZendDbSchema_Db_Schema_Table_Column\setComment</text>
</a>
</g>
<!-- Node27&#45;&gt;Node37 -->
<g id="edge84" class="edge"><title>Node27&#45;&gt;Node37</title>
<path fill="none" stroke="midnightblue" d="M1564.72,-342.921C1585.49,-341.685 1606.93,-340.409 1627.73,-339.171"/>
<polygon fill="midnightblue" stroke="midnightblue" points="1564.37,-339.436 1554.59,-343.524 1564.78,-346.424 1564.37,-339.436"/>
</g>
<!-- Node38 -->
<g id="node81" class="node"><title>Node38</title>
<a xlink:href="classZendDbSchema__Db__Schema__Table__Column.html#ab4eed7ec6d80aa36d4447566e1ae0294" target="_top" xlink:title="ZendDbSchema_Db_Schema_Table_Column\\setDefault">
<polygon fill="white" stroke="black" points="1633.5,-280.5 1633.5,-301.5 1896.5,-301.5 1896.5,-280.5 1633.5,-280.5"/>
<text text-anchor="middle" x="1765" y="-288.5" font-family="Helvetica,sans-Serif" font-size="10.00">ZendDbSchema_Db_Schema_Table_Column\setDefault</text>
</a>
</g>
<!-- Node27&#45;&gt;Node38 -->
<g id="edge86" class="edge"><title>Node27&#45;&gt;Node38</title>
<path fill="none" stroke="midnightblue" d="M1551.4,-338.361C1560.5,-336.271 1569.45,-333.836 1578,-331 1595.37,-325.238 1596.62,-316.747 1614,-311 1625.67,-307.139 1638.09,-304.021 1650.59,-301.503"/>
<polygon fill="midnightblue" stroke="midnightblue" points="1550.53,-334.968 1541.5,-340.497 1552.01,-341.811 1550.53,-334.968"/>
</g>
<!-- Node39 -->
<g id="node83" class="node"><title>Node39</title>
<a xlink:href="classZendDbSchema__Db__Schema__AbstractSchema.html#acd81590f02c831ff4c4a442c5cf47074" target="_top" xlink:title="ZendDbSchema_Db_Schema_AbstractSchema\\setFromArray">
<polygon fill="white" stroke="red" points="1621.5,-240.5 1621.5,-261.5 1908.5,-261.5 1908.5,-240.5 1621.5,-240.5"/>
<text text-anchor="middle" x="1765" y="-248.5" font-family="Helvetica,sans-Serif" font-size="10.00">ZendDbSchema_Db_Schema_AbstractSchema\setFromArray</text>
</a>
</g>
<!-- Node27&#45;&gt;Node39 -->
<g id="edge88" class="edge"><title>Node27&#45;&gt;Node39</title>
<path fill="none" stroke="midnightblue" d="M1564.22,-338.699C1569,-336.44 1573.62,-333.885 1578,-331 1603.98,-313.908 1588,-288.069 1614,-271 1619.53,-267.371 1625.41,-264.261 1631.54,-261.601"/>
<polygon fill="midnightblue" stroke="midnightblue" points="1562.67,-335.555 1554.83,-342.688 1565.4,-341.998 1562.67,-335.555"/>
</g>
<!-- Node40 -->
<g id="node85" class="node"><title>Node40</title>
<a xlink:href="classZendDbSchema__Db__Schema__Table__Column.html#a2f7872172e98a14cbe7d06e295e0106e" target="_top" xlink:title="ZendDbSchema_Db_Schema_Table_Column\\setLength">
<polygon fill="white" stroke="black" points="1635,-200.5 1635,-221.5 1895,-221.5 1895,-200.5 1635,-200.5"/>
<text text-anchor="middle" x="1765" y="-208.5" font-family="Helvetica,sans-Serif" font-size="10.00">ZendDbSchema_Db_Schema_Table_Column\setLength</text>
</a>
</g>
<!-- Node27&#45;&gt;Node40 -->
<g id="edge90" class="edge"><title>Node27&#45;&gt;Node40</title>
<path fill="none" stroke="midnightblue" d="M1563.78,-340.414C1568.79,-337.707 1573.56,-334.587 1578,-331 1614.75,-301.322 1577.22,-260.646 1614,-231 1620.38,-225.855 1627.43,-221.663 1634.9,-218.268"/>
<polygon fill="midnightblue" stroke="midnightblue" points="1562.02,-337.373 1554.52,-344.851 1565.05,-343.686 1562.02,-337.373"/>
</g>
<!-- Node41 -->
<g id="node87" class="node"><title>Node41</title>
<a xlink:href="classZendDbSchema__Db__Schema__AbstractSchema.html#a281403d9e41839e925bade11d8b69b91" target="_top" xlink:title="ZendDbSchema_Db_Schema_AbstractSchema\\setName">
<polygon fill="white" stroke="black" points="1631.5,-160.5 1631.5,-181.5 1898.5,-181.5 1898.5,-160.5 1631.5,-160.5"/>
<text text-anchor="middle" x="1765" y="-168.5" font-family="Helvetica,sans-Serif" font-size="10.00">ZendDbSchema_Db_Schema_AbstractSchema\setName</text>
</a>
</g>
<!-- Node27&#45;&gt;Node41 -->
<g id="edge92" class="edge"><title>Node27&#45;&gt;Node41</title>
<path fill="none" stroke="midnightblue" d="M1564,-341.049C1568.97,-338.175 1573.67,-334.846 1578,-331 1626.03,-288.335 1565.93,-233.623 1614,-191 1619.24,-186.351 1625.02,-182.45 1631.16,-179.192"/>
<polygon fill="midnightblue" stroke="midnightblue" points="1562.11,-338.086 1554.78,-345.742 1565.28,-344.325 1562.11,-338.086"/>
</g>
<!-- Node42 -->
<g id="node89" class="node"><title>Node42</title>
<a xlink:href="classZendDbSchema__Db__Schema__Table__Column.html#aa4350a230e6b0e41d9fb9da7c4d3df8b" target="_top" xlink:title="ZendDbSchema_Db_Schema_Table_Column\\setNullable">
<polygon fill="white" stroke="black" points="1632,-120.5 1632,-141.5 1898,-141.5 1898,-120.5 1632,-120.5"/>
<text text-anchor="middle" x="1765" y="-128.5" font-family="Helvetica,sans-Serif" font-size="10.00">ZendDbSchema_Db_Schema_Table_Column\setNullable</text>
</a>
</g>
<!-- Node27&#45;&gt;Node42 -->
<g id="edge94" class="edge"><title>Node27&#45;&gt;Node42</title>
<path fill="none" stroke="midnightblue" d="M1563.69,-341.686C1568.8,-338.656 1573.61,-335.118 1578,-331 1637.5,-275.185 1554.45,-206.763 1614,-151 1619.4,-145.939 1625.43,-141.746 1631.89,-138.292"/>
<polygon fill="midnightblue" stroke="midnightblue" points="1562.05,-338.59 1554.81,-346.317 1565.29,-344.796 1562.05,-338.59"/>
</g>
<!-- Node43 -->
<g id="node91" class="node"><title>Node43</title>
<a xlink:href="classZendDbSchema__Db__Schema__Table__ForeignKey.html#a0c51ff09d6df59b68f8f5ff4ec1ed32d" target="_top" xlink:title="ZendDbSchema_Db_Schema_Table_ForeignKey\\setOnDelete">
<polygon fill="white" stroke="black" points="1621,-80.5 1621,-101.5 1909,-101.5 1909,-80.5 1621,-80.5"/>
<text text-anchor="middle" x="1765" y="-88.5" font-family="Helvetica,sans-Serif" font-size="10.00">ZendDbSchema_Db_Schema_Table_ForeignKey\setOnDelete</text>
</a>
</g>
<!-- Node27&#45;&gt;Node43 -->
<g id="edge96" class="edge"><title>Node27&#45;&gt;Node43</title>
<path fill="none" stroke="midnightblue" d="M1563.66,-342.005C1568.8,-338.896 1573.62,-335.253 1578,-331 1649.06,-261.956 1542.88,-179.982 1614,-111 1617.61,-107.502 1621.51,-104.413 1625.65,-101.691"/>
<polygon fill="midnightblue" stroke="midnightblue" points="1561.91,-338.971 1554.71,-346.745 1565.18,-345.156 1561.91,-338.971"/>
</g>
<!-- Node44 -->
<g id="node93" class="node"><title>Node44</title>
<a xlink:href="classZendDbSchema__Db__Schema__Table__ForeignKey.html#ae8ffd9c6bad60eaf6ef05cdd1f5c56fb" target="_top" xlink:title="ZendDbSchema_Db_Schema_Table_ForeignKey\\setOnUpdate">
<polygon fill="white" stroke="black" points="1619.5,-40.5 1619.5,-61.5 1910.5,-61.5 1910.5,-40.5 1619.5,-40.5"/>
<text text-anchor="middle" x="1765" y="-48.5" font-family="Helvetica,sans-Serif" font-size="10.00">ZendDbSchema_Db_Schema_Table_ForeignKey\setOnUpdate</text>
</a>
</g>
<!-- Node27&#45;&gt;Node44 -->
<g id="edge98" class="edge"><title>Node27&#45;&gt;Node44</title>
<path fill="none" stroke="midnightblue" d="M1563.58,-342.266C1568.77,-339.094 1573.62,-335.365 1578,-331 1660.66,-248.682 1531.27,-153.246 1614,-71 1617.56,-67.4577 1621.43,-64.3311 1625.53,-61.5779"/>
<polygon fill="midnightblue" stroke="midnightblue" points="1561.71,-339.294 1554.54,-347.093 1565.01,-345.469 1561.71,-339.294"/>
</g>
<!-- Node45 -->
<g id="node95" class="node"><title>Node45</title>
<a xlink:href="classZendDbSchema__Db__Schema__Table__ForeignKey.html#a5788c3c190f6f311cdb1fea25ebcaa0c" target="_top" xlink:title="ZendDbSchema_Db_Schema_Table_ForeignKey\\setRefColumns">
<polygon fill="white" stroke="black" points="1614,-0.5 1614,-21.5 1916,-21.5 1916,-0.5 1614,-0.5"/>
<text text-anchor="middle" x="1765" y="-8.5" font-family="Helvetica,sans-Serif" font-size="10.00">ZendDbSchema_Db_Schema_Table_ForeignKey\setRefColumns</text>
</a>
</g>
<!-- Node27&#45;&gt;Node45 -->
<g id="edge100" class="edge"><title>Node27&#45;&gt;Node45</title>
<path fill="none" stroke="midnightblue" d="M1563.67,-342.364C1568.84,-339.166 1573.66,-335.405 1578,-331 1672.29,-235.38 1519.63,-126.537 1614,-31 1617.44,-27.5196 1621.17,-24.4377 1625.13,-21.715"/>
<polygon fill="midnightblue" stroke="midnightblue" points="1561.81,-339.394 1554.68,-347.229 1565.14,-345.552 1561.81,-339.394"/>
</g>
<!-- Node31&#45;&gt;Node29 -->
<g id="edge66" class="edge"><title>Node31&#45;&gt;Node29</title>
<path fill="none" stroke="midnightblue" d="M1904.08,-615.078C1929.65,-616.931 1956.24,-618.858 1981.49,-620.687"/>
<polygon fill="midnightblue" stroke="midnightblue" points="1904.18,-611.577 1893.96,-614.345 1903.68,-618.558 1904.18,-611.577"/>
</g>
<!-- Node31&#45;&gt;Node32 -->
<g id="edge68" class="edge"><title>Node31&#45;&gt;Node32</title>
<path fill="none" stroke="midnightblue" d="M1881.96,-593.473C1921.29,-589.598 1964.93,-585.297 2003.41,-581.505"/>
<polygon fill="midnightblue" stroke="midnightblue" points="1881.41,-590.011 1871.8,-594.475 1882.09,-596.977 1881.41,-590.011"/>
</g>
<!-- Node33&#45;&gt;Node30 -->
<g id="edge72" class="edge"><title>Node33&#45;&gt;Node30</title>
<path fill="none" stroke="midnightblue" d="M1885.51,-500.527C1922.75,-504.089 1963.56,-507.993 2000.05,-511.483"/>
<polygon fill="midnightblue" stroke="midnightblue" points="1885.4,-497 1875.11,-499.532 1884.73,-503.968 1885.4,-497"/>
</g>
<!-- Node33&#45;&gt;Node34 -->
<g id="edge74" class="edge"><title>Node33&#45;&gt;Node34</title>
<path fill="none" stroke="midnightblue" d="M1920.5,-477.732C1935.26,-476.662 1950.2,-475.58 1964.86,-474.518"/>
<polygon fill="midnightblue" stroke="midnightblue" points="1920.03,-474.257 1910.31,-478.47 1920.54,-481.238 1920.03,-474.257"/>
</g>
</g>
</svg>
