<?xml version="1.0" encoding="UTF-8" standalone="no"?>
<!DOCTYPE svg PUBLIC "-//W3C//DTD SVG 1.1//EN"
 "http://www.w3.org/Graphics/SVG/1.1/DTD/svg11.dtd">
<!-- Generated by graphviz version 2.26.3 (20100126.1600)
 -->
<!-- Title: G Pages: 1 -->
<svg width="1360pt" height="1088pt"
 viewBox="0.00 0.00 1360.00 1088.00" xmlns="http://www.w3.org/2000/svg" xmlns:xlink="http://www.w3.org/1999/xlink">
<g id="graph1" class="graph" transform="scale(1 1) rotate(0) translate(4 1084)">
<title>G</title>
<polygon fill="white" stroke="white" points="-4,5 -4,-1084 1357,-1084 1357,5 -4,5"/>
<!-- Node1 -->
<g id="node1" class="node"><title>Node1</title>
<polygon fill="#bfbfbf" stroke="black" points="0.5,-478.5 0.5,-499.5 299.5,-499.5 299.5,-478.5 0.5,-478.5"/>
<text text-anchor="middle" x="150" y="-486.5" font-family="Helvetica,sans-Serif" font-size="10.00">ZendDbSchema_Db_Schema_Table_AbstractDefinition\getTable</text>
</g>
<!-- Node2 -->
<g id="node3" class="node"><title>Node2</title>
<a xlink:href="classZendDbSchema__Db__Schema__Table__AbstractDefinition.html#a65498451683b2cf8fd1dc65f7f03581d" target="_top" xlink:title="ZendDbSchema_Db_Schema_Table_AbstractDefinition\\__set">
<polygon fill="white" stroke="black" points="364,-958.5 364,-979.5 650,-979.5 650,-958.5 364,-958.5"/>
<text text-anchor="middle" x="507" y="-966.5" font-family="Helvetica,sans-Serif" font-size="10.00">ZendDbSchema_Db_Schema_Table_AbstractDefinition\__set</text>
</a>
</g>
<!-- Node1&#45;&gt;Node2 -->
<g id="edge2" class="edge"><title>Node1&#45;&gt;Node2</title>
<path fill="none" stroke="midnightblue" d="M151.294,-509.989C157.094,-584.185 187.428,-835.705 336,-949 344.438,-955.434 353.823,-960.468 363.732,-964.367"/>
<polygon fill="midnightblue" stroke="midnightblue" points="154.76,-509.379 150.559,-499.652 147.777,-509.875 154.76,-509.379"/>
</g>
<!-- Node15 -->
<g id="node29" class="node"><title>Node15</title>
<a xlink:href="classZendDbSchema__Db__Schema__Table__PrimaryKey.html#a3f48dd085068f13258957efeb0f7257b" target="_top" xlink:title="ZendDbSchema_Db_Schema_Table_PrimaryKey\\_getAlterSql">
<polygon fill="white" stroke="black" points="363,-918.5 363,-939.5 651,-939.5 651,-918.5 363,-918.5"/>
<text text-anchor="middle" x="507" y="-926.5" font-family="Helvetica,sans-Serif" font-size="10.00">ZendDbSchema_Db_Schema_Table_PrimaryKey\_getAlterSql</text>
</a>
</g>
<!-- Node1&#45;&gt;Node15 -->
<g id="edge28" class="edge"><title>Node1&#45;&gt;Node15</title>
<path fill="none" stroke="midnightblue" d="M152.161,-510.012C160.588,-580.112 197.963,-807.26 336,-909 344.181,-915.03 353.205,-919.81 362.703,-923.568"/>
<polygon fill="midnightblue" stroke="midnightblue" points="155.609,-509.358 151.01,-499.813 148.653,-510.143 155.609,-509.358"/>
</g>
<!-- Node16 -->
<g id="node31" class="node"><title>Node16</title>
<a xlink:href="classZendDbSchema__Db__Schema__Table__Index.html#ab87e33f2415eaf43730ca6d43ec540b6" target="_top" xlink:title="ZendDbSchema_Db_Schema_Table_Index\\_getAlterSql">
<polygon fill="white" stroke="black" points="376.5,-878.5 376.5,-899.5 637.5,-899.5 637.5,-878.5 376.5,-878.5"/>
<text text-anchor="middle" x="507" y="-886.5" font-family="Helvetica,sans-Serif" font-size="10.00">ZendDbSchema_Db_Schema_Table_Index\_getAlterSql</text>
</a>
</g>
<!-- Node1&#45;&gt;Node16 -->
<g id="edge30" class="edge"><title>Node1&#45;&gt;Node16</title>
<path fill="none" stroke="midnightblue" d="M153.146,-509.756C164.27,-575.247 208.206,-778.533 336,-869 348.076,-877.549 361.875,-883.539 376.28,-887.641"/>
<polygon fill="midnightblue" stroke="midnightblue" points="156.591,-509.132 151.535,-499.821 149.681,-510.253 156.591,-509.132"/>
</g>
<!-- Node17 -->
<g id="node33" class="node"><title>Node17</title>
<a xlink:href="classZendDbSchema__Db__Schema__Table__ForeignKey.html#ae7cb55b4ec471ccb54ef38ef4bb33558" target="_top" xlink:title="ZendDbSchema_Db_Schema_Table_ForeignKey\\_getAlterSql">
<polygon fill="white" stroke="black" points="363.5,-838.5 363.5,-859.5 650.5,-859.5 650.5,-838.5 363.5,-838.5"/>
<text text-anchor="middle" x="507" y="-846.5" font-family="Helvetica,sans-Serif" font-size="10.00">ZendDbSchema_Db_Schema_Table_ForeignKey\_getAlterSql</text>
</a>
</g>
<!-- Node1&#45;&gt;Node17 -->
<g id="edge32" class="edge"><title>Node1&#45;&gt;Node17</title>
<path fill="none" stroke="midnightblue" d="M154.335,-509.574C168.323,-570.332 218.366,-749.67 336,-829 344.426,-834.682 353.63,-839.208 363.256,-842.784"/>
<polygon fill="midnightblue" stroke="midnightblue" points="157.718,-508.663 152.135,-499.659 150.885,-510.18 157.718,-508.663"/>
</g>
<!-- Node18 -->
<g id="node35" class="node"><title>Node18</title>
<a xlink:href="classZendDbSchema__Db__Schema__Table__Column.html#ae49fb9ae5b0f6d6258dc71f644e00991" target="_top" xlink:title="ZendDbSchema_Db_Schema_Table_Column\\_getAlterSql">
<polygon fill="white" stroke="black" points="371.5,-798.5 371.5,-819.5 642.5,-819.5 642.5,-798.5 371.5,-798.5"/>
<text text-anchor="middle" x="507" y="-806.5" font-family="Helvetica,sans-Serif" font-size="10.00">ZendDbSchema_Db_Schema_Table_Column\_getAlterSql</text>
</a>
</g>
<!-- Node1&#45;&gt;Node18 -->
<g id="edge34" class="edge"><title>Node1&#45;&gt;Node18</title>
<path fill="none" stroke="midnightblue" d="M155.788,-509.374C172.802,-565.129 228.356,-720.592 336,-789 346.848,-795.894 358.875,-801.036 371.381,-804.82"/>
<polygon fill="midnightblue" stroke="midnightblue" points="159.091,-508.202 152.895,-499.608 152.38,-510.191 159.091,-508.202"/>
</g>
<!-- Node19 -->
<g id="node37" class="node"><title>Node19</title>
<a xlink:href="classZendDbSchema__Db__Schema__Table__PrimaryKey.html#afdfa6a0c9057c00d4c3074feba837586" target="_top" xlink:title="ZendDbSchema_Db_Schema_Table_PrimaryKey\\_getCleanSchema">
<polygon fill="white" stroke="black" points="349.5,-758.5 349.5,-779.5 664.5,-779.5 664.5,-758.5 349.5,-758.5"/>
<text text-anchor="middle" x="507" y="-766.5" font-family="Helvetica,sans-Serif" font-size="10.00">ZendDbSchema_Db_Schema_Table_PrimaryKey\_getCleanSchema</text>
</a>
</g>
<!-- Node1&#45;&gt;Node19 -->
<g id="edge36" class="edge"><title>Node1&#45;&gt;Node19</title>
<path fill="none" stroke="midnightblue" d="M157.561,-509.017C177.731,-559.334 238.05,-691.198 336,-749 342.178,-752.646 348.701,-755.784 355.449,-758.477"/>
<polygon fill="midnightblue" stroke="midnightblue" points="160.769,-507.611 153.867,-499.573 154.25,-510.161 160.769,-507.611"/>
</g>
<!-- Node20 -->
<g id="node39" class="node"><title>Node20</title>
<a xlink:href="classZendDbSchema__Db__Schema__Table__AbstractDefinition.html#a355febe0ff6ed1a3b95ae1edd91b807e" target="_top" xlink:title="ZendDbSchema_Db_Schema_Table_AbstractDefinition\\_getCleanSchema">
<polygon fill="white" stroke="black" points="336,-718.5 336,-739.5 678,-739.5 678,-718.5 336,-718.5"/>
<text text-anchor="middle" x="507" y="-726.5" font-family="Helvetica,sans-Serif" font-size="10.00">ZendDbSchema_Db_Schema_Table_AbstractDefinition\_getCleanSchema</text>
</a>
</g>
<!-- Node1&#45;&gt;Node20 -->
<g id="edge38" class="edge"><title>Node1&#45;&gt;Node20</title>
<path fill="none" stroke="midnightblue" d="M159.868,-508.641C183.397,-553.147 247.508,-661.493 336,-709 342.847,-712.676 350.067,-715.811 357.514,-718.478"/>
<polygon fill="midnightblue" stroke="midnightblue" points="162.94,-506.962 155.232,-499.692 156.724,-510.181 162.94,-506.962"/>
</g>
<!-- Node21 -->
<g id="node41" class="node"><title>Node21</title>
<a xlink:href="classZendDbSchema__Db__Schema__Table__PrimaryKey.html#a97fe22c0e5758e1ee04616ccf3218e2a" target="_top" xlink:title="ZendDbSchema_Db_Schema_Table_PrimaryKey\\_getCreateSql">
<polygon fill="white" stroke="black" points="358.5,-678.5 358.5,-699.5 655.5,-699.5 655.5,-678.5 358.5,-678.5"/>
<text text-anchor="middle" x="507" y="-686.5" font-family="Helvetica,sans-Serif" font-size="10.00">ZendDbSchema_Db_Schema_Table_PrimaryKey\_getCreateSql</text>
</a>
</g>
<!-- Node1&#45;&gt;Node21 -->
<g id="edge40" class="edge"><title>Node1&#45;&gt;Node21</title>
<path fill="none" stroke="midnightblue" d="M162.98,-508.139C190.048,-546.291 256.644,-631.377 336,-669 343.832,-672.713 352.085,-675.842 360.561,-678.471"/>
<polygon fill="midnightblue" stroke="midnightblue" points="165.555,-505.711 156.966,-499.507 159.811,-509.713 165.555,-505.711"/>
</g>
<!-- Node22 -->
<g id="node43" class="node"><title>Node22</title>
<a xlink:href="classZendDbSchema__Db__Schema__Table__Index.html#afec61cbe6c22bd42e30103bc3d37ef2d" target="_top" xlink:title="ZendDbSchema_Db_Schema_Table_Index\\_getCreateSql">
<polygon fill="white" stroke="black" points="372,-638.5 372,-659.5 642,-659.5 642,-638.5 372,-638.5"/>
<text text-anchor="middle" x="507" y="-646.5" font-family="Helvetica,sans-Serif" font-size="10.00">ZendDbSchema_Db_Schema_Table_Index\_getCreateSql</text>
</a>
</g>
<!-- Node1&#45;&gt;Node22 -->
<g id="edge42" class="edge"><title>Node1&#45;&gt;Node22</title>
<path fill="none" stroke="midnightblue" d="M167.378,-507.317C198.083,-538.372 265.391,-600.73 336,-629 347.377,-633.555 359.496,-637.164 371.827,-640.013"/>
<polygon fill="midnightblue" stroke="midnightblue" points="169.53,-504.511 160.046,-499.788 164.515,-509.395 169.53,-504.511"/>
</g>
<!-- Node23 -->
<g id="node45" class="node"><title>Node23</title>
<a xlink:href="classZendDbSchema__Db__Schema__Table__ForeignKey.html#a8b8ab754bf3b5bcda1e8c70e83a6b7b9" target="_top" xlink:title="ZendDbSchema_Db_Schema_Table_ForeignKey\\_getCreateSql">
<polygon fill="white" stroke="black" points="359,-598.5 359,-619.5 655,-619.5 655,-598.5 359,-598.5"/>
<text text-anchor="middle" x="507" y="-606.5" font-family="Helvetica,sans-Serif" font-size="10.00">ZendDbSchema_Db_Schema_Table_ForeignKey\_getCreateSql</text>
</a>
</g>
<!-- Node1&#45;&gt;Node23 -->
<g id="edge44" class="edge"><title>Node1&#45;&gt;Node23</title>
<path fill="none" stroke="midnightblue" d="M173.367,-505.351C207.403,-528.258 273.398,-569.301 336,-589 348.117,-592.813 360.924,-595.911 373.858,-598.427"/>
<polygon fill="midnightblue" stroke="midnightblue" points="175.268,-502.411 165.033,-499.672 171.326,-508.196 175.268,-502.411"/>
</g>
<!-- Node24 -->
<g id="node47" class="node"><title>Node24</title>
<a xlink:href="classZendDbSchema__Db__Schema__Table__Column.html#a2312222bd78d06775dacb19b92638b69" target="_top" xlink:title="ZendDbSchema_Db_Schema_Table_Column\\_getCreateSql">
<polygon fill="white" stroke="black" points="367,-558.5 367,-579.5 647,-579.5 647,-558.5 367,-558.5"/>
<text text-anchor="middle" x="507" y="-566.5" font-family="Helvetica,sans-Serif" font-size="10.00">ZendDbSchema_Db_Schema_Table_Column\_getCreateSql</text>
</a>
</g>
<!-- Node1&#45;&gt;Node24 -->
<g id="edge46" class="edge"><title>Node1&#45;&gt;Node24</title>
<path fill="none" stroke="midnightblue" d="M186.343,-503.067C223.421,-516.859 282.891,-537.445 336,-549 353.524,-552.813 372.227,-555.937 390.593,-558.486"/>
<polygon fill="midnightblue" stroke="midnightblue" points="187.553,-499.783 176.96,-499.544 185.092,-506.336 187.553,-499.783"/>
</g>
<!-- Node25 -->
<g id="node49" class="node"><title>Node25</title>
<a xlink:href="classZendDbSchema__Db__Schema__Table__PrimaryKey.html#a5d6a6e6e9b5772601a0592fd6bfd81b2" target="_top" xlink:title="ZendDbSchema_Db_Schema_Table_PrimaryKey\\_getDropSql">
<polygon fill="white" stroke="black" points="362.5,-518.5 362.5,-539.5 651.5,-539.5 651.5,-518.5 362.5,-518.5"/>
<text text-anchor="middle" x="507" y="-526.5" font-family="Helvetica,sans-Serif" font-size="10.00">ZendDbSchema_Db_Schema_Table_PrimaryKey\_getDropSql</text>
</a>
</g>
<!-- Node1&#45;&gt;Node25 -->
<g id="edge48" class="edge"><title>Node1&#45;&gt;Node25</title>
<path fill="none" stroke="midnightblue" d="M253.739,-500.623C304.125,-506.269 364.211,-513.001 413.21,-518.491"/>
<polygon fill="midnightblue" stroke="midnightblue" points="254.125,-497.145 243.798,-499.51 253.346,-504.101 254.125,-497.145"/>
</g>
<!-- Node26 -->
<g id="node51" class="node"><title>Node26</title>
<a xlink:href="classZendDbSchema__Db__Schema__Table__Index.html#adc6b5ff31c7e12a81b902493186f5758" target="_top" xlink:title="ZendDbSchema_Db_Schema_Table_Index\\_getDropSql">
<polygon fill="white" stroke="black" points="376,-478.5 376,-499.5 638,-499.5 638,-478.5 376,-478.5"/>
<text text-anchor="middle" x="507" y="-486.5" font-family="Helvetica,sans-Serif" font-size="10.00">ZendDbSchema_Db_Schema_Table_Index\_getDropSql</text>
</a>
</g>
<!-- Node1&#45;&gt;Node26 -->
<g id="edge50" class="edge"><title>Node1&#45;&gt;Node26</title>
<path fill="none" stroke="midnightblue" d="M309.708,-489C331.798,-489 354.277,-489 375.771,-489"/>
<polygon fill="midnightblue" stroke="midnightblue" points="309.59,-485.5 299.59,-489 309.59,-492.5 309.59,-485.5"/>
</g>
<!-- Node27 -->
<g id="node53" class="node"><title>Node27</title>
<a xlink:href="classZendDbSchema__Db__Schema__Table__ForeignKey.html#af8a9854e00b6cb81885bfce513ef022c" target="_top" xlink:title="ZendDbSchema_Db_Schema_Table_ForeignKey\\_getDropSql">
<polygon fill="white" stroke="black" points="363.5,-438.5 363.5,-459.5 650.5,-459.5 650.5,-438.5 363.5,-438.5"/>
<text text-anchor="middle" x="507" y="-446.5" font-family="Helvetica,sans-Serif" font-size="10.00">ZendDbSchema_Db_Schema_Table_ForeignKey\_getDropSql</text>
</a>
</g>
<!-- Node1&#45;&gt;Node27 -->
<g id="edge52" class="edge"><title>Node1&#45;&gt;Node27</title>
<path fill="none" stroke="midnightblue" d="M253.739,-477.377C304.125,-471.731 364.211,-464.999 413.21,-459.509"/>
<polygon fill="midnightblue" stroke="midnightblue" points="253.346,-473.899 243.798,-478.49 254.125,-480.855 253.346,-473.899"/>
</g>
<!-- Node28 -->
<g id="node55" class="node"><title>Node28</title>
<a xlink:href="classZendDbSchema__Db__Schema__Table__Column.html#af3a3fb0c74c60844c282de6286543a56" target="_top" xlink:title="ZendDbSchema_Db_Schema_Table_Column\\_getDropSql">
<polygon fill="white" stroke="black" points="371,-398.5 371,-419.5 643,-419.5 643,-398.5 371,-398.5"/>
<text text-anchor="middle" x="507" y="-406.5" font-family="Helvetica,sans-Serif" font-size="10.00">ZendDbSchema_Db_Schema_Table_Column\_getDropSql</text>
</a>
</g>
<!-- Node1&#45;&gt;Node28 -->
<g id="edge54" class="edge"><title>Node1&#45;&gt;Node28</title>
<path fill="none" stroke="midnightblue" d="M186.343,-474.933C223.421,-461.141 282.891,-440.555 336,-429 353.524,-425.187 372.227,-422.063 390.593,-419.514"/>
<polygon fill="midnightblue" stroke="midnightblue" points="185.092,-471.664 176.96,-478.456 187.553,-478.217 185.092,-471.664"/>
</g>
<!-- Node29 -->
<g id="node57" class="node"><title>Node29</title>
<a xlink:href="classZendDbSchema__Db__Schema__Generator__Mysql.html#a4b0c6d7fbd4d21f027facb6e495d1f6b" target="_top" xlink:title="ZendDbSchema_Db_Schema_Generator_Mysql\\addForeignKey">
<polygon fill="white" stroke="black" points="360,-318.5 360,-339.5 654,-339.5 654,-318.5 360,-318.5"/>
<text text-anchor="middle" x="507" y="-326.5" font-family="Helvetica,sans-Serif" font-size="10.00">ZendDbSchema_Db_Schema_Generator_Mysql\addForeignKey</text>
</a>
</g>
<!-- Node1&#45;&gt;Node29 -->
<g id="edge56" class="edge"><title>Node1&#45;&gt;Node29</title>
<path fill="none" stroke="midnightblue" d="M167.378,-470.683C198.083,-439.628 265.391,-377.27 336,-349 345.434,-345.223 355.379,-342.096 365.532,-339.514"/>
<polygon fill="midnightblue" stroke="midnightblue" points="164.515,-468.605 160.046,-478.212 169.53,-473.489 164.515,-468.605"/>
</g>
<!-- Node31 -->
<g id="node61" class="node"><title>Node31</title>
<a xlink:href="classZendDbSchema__Db__Schema__Generator__Mysql.html#ad1d5ebbad469fcd572d46f08f9f0e5ab" target="_top" xlink:title="ZendDbSchema_Db_Schema_Generator_Mysql\\addPrimaryKey">
<polygon fill="white" stroke="black" points="359,-238.5 359,-259.5 655,-259.5 655,-238.5 359,-238.5"/>
<text text-anchor="middle" x="507" y="-246.5" font-family="Helvetica,sans-Serif" font-size="10.00">ZendDbSchema_Db_Schema_Generator_Mysql\addPrimaryKey</text>
</a>
</g>
<!-- Node1&#45;&gt;Node31 -->
<g id="edge60" class="edge"><title>Node1&#45;&gt;Node31</title>
<path fill="none" stroke="midnightblue" d="M159.868,-469.359C183.397,-424.853 247.508,-316.507 336,-269 343.242,-265.112 350.902,-261.829 358.805,-259.065"/>
<polygon fill="midnightblue" stroke="midnightblue" points="156.724,-467.819 155.232,-478.308 162.94,-471.038 156.724,-467.819"/>
</g>
<!-- Node33 -->
<g id="node65" class="node"><title>Node33</title>
<a xlink:href="classZendDbSchema__Db__Schema__Generator__Mysql.html#a57a5e637e2c19faee40597d96d6b71b3" target="_top" xlink:title="ZendDbSchema_Db_Schema_Generator_Mysql\\alterColumn">
<polygon fill="white" stroke="black" points="366.5,-278.5 366.5,-299.5 647.5,-299.5 647.5,-278.5 366.5,-278.5"/>
<text text-anchor="middle" x="507" y="-286.5" font-family="Helvetica,sans-Serif" font-size="10.00">ZendDbSchema_Db_Schema_Generator_Mysql\alterColumn</text>
</a>
</g>
<!-- Node1&#45;&gt;Node33 -->
<g id="edge64" class="edge"><title>Node1&#45;&gt;Node33</title>
<path fill="none" stroke="midnightblue" d="M162.98,-469.861C190.048,-431.709 256.644,-346.623 336,-309 345.588,-304.454 355.805,-300.785 366.292,-297.836"/>
<polygon fill="midnightblue" stroke="midnightblue" points="159.811,-468.287 156.966,-478.493 165.555,-472.289 159.811,-468.287"/>
</g>
<!-- Node34 -->
<g id="node67" class="node"><title>Node34</title>
<a xlink:href="classZendDbSchema__Db__Schema__Generator__Mysql.html#a5546e56c0c78f9c9d3e830fb5ffcd72d" target="_top" xlink:title="ZendDbSchema_Db_Schema_Generator_Mysql\\createIndex">
<polygon fill="white" stroke="black" points="724,-98.5 724,-119.5 1004,-119.5 1004,-98.5 724,-98.5"/>
<text text-anchor="middle" x="864" y="-106.5" font-family="Helvetica,sans-Serif" font-size="10.00">ZendDbSchema_Db_Schema_Generator_Mysql\createIndex</text>
</a>
</g>
<!-- Node1&#45;&gt;Node34 -->
<g id="edge66" class="edge"><title>Node1&#45;&gt;Node34</title>
<path fill="none" stroke="midnightblue" d="M152.657,-468.053C162.402,-401.138 202.864,-192.062 336,-109 407.696,-64.2694 649.997,-83.9701 779.97,-98.4955"/>
<polygon fill="midnightblue" stroke="midnightblue" points="149.158,-467.804 151.262,-478.188 156.093,-468.758 149.158,-467.804"/>
</g>
<!-- Node36 -->
<g id="node71" class="node"><title>Node36</title>
<a xlink:href="classZendDbSchema__Db__Schema__Generator__Mysql.html#a6fef0a3176c0e99d533b1790c7ae0301" target="_top" xlink:title="ZendDbSchema_Db_Schema_Generator_Mysql\\dropColumn">
<polygon fill="white" stroke="black" points="366.5,-198.5 366.5,-219.5 647.5,-219.5 647.5,-198.5 366.5,-198.5"/>
<text text-anchor="middle" x="507" y="-206.5" font-family="Helvetica,sans-Serif" font-size="10.00">ZendDbSchema_Db_Schema_Generator_Mysql\dropColumn</text>
</a>
</g>
<!-- Node1&#45;&gt;Node36 -->
<g id="edge70" class="edge"><title>Node1&#45;&gt;Node36</title>
<path fill="none" stroke="midnightblue" d="M157.561,-468.983C177.731,-418.666 238.05,-286.802 336,-229 345.396,-223.455 355.588,-219.085 366.16,-215.667"/>
<polygon fill="midnightblue" stroke="midnightblue" points="154.25,-467.839 153.867,-478.427 160.769,-470.389 154.25,-467.839"/>
</g>
<!-- Node37 -->
<g id="node73" class="node"><title>Node37</title>
<a xlink:href="classZendDbSchema__Db__Schema__Generator__Mysql.html#afa7990c889464576d30d4a110e9b0fac" target="_top" xlink:title="ZendDbSchema_Db_Schema_Generator_Mysql\\dropForeignKey">
<polygon fill="white" stroke="black" points="358.5,-358.5 358.5,-379.5 655.5,-379.5 655.5,-358.5 358.5,-358.5"/>
<text text-anchor="middle" x="507" y="-366.5" font-family="Helvetica,sans-Serif" font-size="10.00">ZendDbSchema_Db_Schema_Generator_Mysql\dropForeignKey</text>
</a>
</g>
<!-- Node1&#45;&gt;Node37 -->
<g id="edge72" class="edge"><title>Node1&#45;&gt;Node37</title>
<path fill="none" stroke="midnightblue" d="M173.367,-472.649C207.403,-449.742 273.398,-408.699 336,-389 348.117,-385.187 360.924,-382.089 373.858,-379.573"/>
<polygon fill="midnightblue" stroke="midnightblue" points="171.326,-469.804 165.033,-478.328 175.268,-475.589 171.326,-469.804"/>
</g>
<!-- Node38 -->
<g id="node76" class="node"><title>Node38</title>
<a xlink:href="classZendDbSchema__Db__Schema__Generator__Mysql.html#a196fb89cf511d31c7124169247de1a6d" target="_top" xlink:title="ZendDbSchema_Db_Schema_Generator_Mysql\\dropIndex">
<polygon fill="white" stroke="black" points="371,-118.5 371,-139.5 643,-139.5 643,-118.5 371,-118.5"/>
<text text-anchor="middle" x="507" y="-126.5" font-family="Helvetica,sans-Serif" font-size="10.00">ZendDbSchema_Db_Schema_Generator_Mysql\dropIndex</text>
</a>
</g>
<!-- Node1&#45;&gt;Node38 -->
<g id="edge76" class="edge"><title>Node1&#45;&gt;Node38</title>
<path fill="none" stroke="midnightblue" d="M154.335,-468.426C168.323,-407.668 218.366,-228.33 336,-149 346.656,-141.814 358.557,-136.478 370.983,-132.572"/>
<polygon fill="midnightblue" stroke="midnightblue" points="150.885,-467.82 152.135,-478.341 157.718,-469.337 150.885,-467.82"/>
</g>
<!-- Node39 -->
<g id="node79" class="node"><title>Node39</title>
<a xlink:href="classZendDbSchema__Db__Schema__Generator__Mysql.html#acc787f589296a3638f713b91456acafb" target="_top" xlink:title="ZendDbSchema_Db_Schema_Generator_Mysql\\dropPrimaryKey">
<polygon fill="white" stroke="black" points="357.5,-158.5 357.5,-179.5 656.5,-179.5 656.5,-158.5 357.5,-158.5"/>
<text text-anchor="middle" x="507" y="-166.5" font-family="Helvetica,sans-Serif" font-size="10.00">ZendDbSchema_Db_Schema_Generator_Mysql\dropPrimaryKey</text>
</a>
</g>
<!-- Node1&#45;&gt;Node39 -->
<g id="edge80" class="edge"><title>Node1&#45;&gt;Node39</title>
<path fill="none" stroke="midnightblue" d="M155.788,-468.626C172.802,-412.871 228.356,-257.408 336,-189 342.685,-184.752 349.819,-181.168 357.236,-178.158"/>
<polygon fill="midnightblue" stroke="midnightblue" points="152.38,-467.809 152.895,-478.392 159.091,-469.798 152.38,-467.809"/>
</g>
<!-- Node40 -->
<g id="node82" class="node"><title>Node40</title>
<a xlink:href="classZendDbSchema__Db__Schema__Table__AbstractDefinition.html#ac68ae73bec9d9081f7a887ab3e62c53c" target="_top" xlink:title="ZendDbSchema_Db_Schema_Table_AbstractDefinition\\isValid">
<polygon fill="white" stroke="black" points="361.5,-40.5 361.5,-61.5 652.5,-61.5 652.5,-40.5 361.5,-40.5"/>
<text text-anchor="middle" x="507" y="-48.5" font-family="Helvetica,sans-Serif" font-size="10.00">ZendDbSchema_Db_Schema_Table_AbstractDefinition\isValid</text>
</a>
</g>
<!-- Node1&#45;&gt;Node40 -->
<g id="edge84" class="edge"><title>Node1&#45;&gt;Node40</title>
<path fill="none" stroke="midnightblue" d="M152.396,-468.477C161.567,-399.984 201.02,-177.849 336,-76 343.784,-70.1268 352.347,-65.3419 361.367,-61.4636"/>
<polygon fill="midnightblue" stroke="midnightblue" points="148.918,-468.08 151.134,-478.44 155.863,-468.959 148.918,-468.08"/>
</g>
<!-- Node41 -->
<g id="node84" class="node"><title>Node41</title>
<a xlink:href="classZendDbSchema__Db__Schema__Table__AbstractDefinition.html#a75c1b3ef1005c2d6aa371ecef07d530d" target="_top" xlink:title="ZendDbSchema_Db_Schema_Table_AbstractDefinition\\toSql">
<polygon fill="white" stroke="black" points="365,-0.5 365,-21.5 649,-21.5 649,-0.5 365,-0.5"/>
<text text-anchor="middle" x="507" y="-8.5" font-family="Helvetica,sans-Serif" font-size="10.00">ZendDbSchema_Db_Schema_Table_AbstractDefinition\toSql</text>
</a>
</g>
<!-- Node1&#45;&gt;Node41 -->
<g id="edge86" class="edge"><title>Node1&#45;&gt;Node41</title>
<path fill="none" stroke="midnightblue" d="M151.327,-468.099C157.238,-394.216 187.897,-143.759 336,-31 344.68,-24.3912 354.362,-19.2604 364.582,-15.3204"/>
<polygon fill="midnightblue" stroke="midnightblue" points="147.813,-468.165 150.577,-478.393 154.794,-468.674 147.813,-468.165"/>
</g>
<!-- Node3 -->
<g id="node5" class="node"><title>Node3</title>
<a xlink:href="classZendDbSchema__Db__Schema__Table__Index.html#a77b65e961a7da9ca89fdebd682338fcf" target="_top" xlink:title="ZendDbSchema_Db_Schema_Table_Index\\setColumns">
<polygon fill="white" stroke="black" points="734,-938.5 734,-959.5 994,-959.5 994,-938.5 734,-938.5"/>
<text text-anchor="middle" x="864" y="-946.5" font-family="Helvetica,sans-Serif" font-size="10.00">ZendDbSchema_Db_Schema_Table_Index\setColumns</text>
</a>
</g>
<!-- Node2&#45;&gt;Node3 -->
<g id="edge4" class="edge"><title>Node2&#45;&gt;Node3</title>
<path fill="none" stroke="midnightblue" d="M660.238,-960.415C684.748,-959.042 709.906,-957.633 733.815,-956.293"/>
<polygon fill="midnightblue" stroke="midnightblue" points="659.937,-956.927 650.149,-960.98 660.329,-963.916 659.937,-956.927"/>
</g>
<!-- Node6 -->
<g id="node11" class="node"><title>Node6</title>
<a xlink:href="classZendDbSchema__Db__Schema__Table__PrimaryKey.html#a01cfcffd92c38bc521628d49d5c74927" target="_top" xlink:title="ZendDbSchema_Db_Schema_Table_PrimaryKey\\setColumns">
<polygon fill="white" stroke="black" points="720.5,-898.5 720.5,-919.5 1007.5,-919.5 1007.5,-898.5 720.5,-898.5"/>
<text text-anchor="middle" x="864" y="-906.5" font-family="Helvetica,sans-Serif" font-size="10.00">ZendDbSchema_Db_Schema_Table_PrimaryKey\setColumns</text>
</a>
</g>
<!-- Node2&#45;&gt;Node6 -->
<g id="edge10" class="edge"><title>Node2&#45;&gt;Node6</title>
<path fill="none" stroke="midnightblue" d="M651.12,-956.288C660.3,-954.207 669.33,-951.794 678,-949 695.421,-943.386 696.625,-934.755 714,-929 725.597,-925.159 737.93,-922.054 750.349,-919.543"/>
<polygon fill="midnightblue" stroke="midnightblue" points="650.161,-952.914 641.109,-958.42 651.619,-959.761 650.161,-952.914"/>
</g>
<!-- Node9 -->
<g id="node17" class="node"><title>Node9</title>
<a xlink:href="classZendDbSchema__Db__Schema__Table__ForeignKey.html#afb0c42af85a63c6347973ce79d2e7d80" target="_top" xlink:title="ZendDbSchema_Db_Schema_Table_ForeignKey\\setColumns">
<polygon fill="white" stroke="black" points="721,-818.5 721,-839.5 1007,-839.5 1007,-818.5 721,-818.5"/>
<text text-anchor="middle" x="864" y="-826.5" font-family="Helvetica,sans-Serif" font-size="10.00">ZendDbSchema_Db_Schema_Table_ForeignKey\setColumns</text>
</a>
</g>
<!-- Node2&#45;&gt;Node9 -->
<g id="edge16" class="edge"><title>Node2&#45;&gt;Node9</title>
<path fill="none" stroke="midnightblue" d="M659.606,-958.789C666.012,-956.001 672.18,-952.759 678,-949 704.125,-932.129 690.324,-909.163 714,-889 743.361,-863.995 784.455,-848.542 816.208,-839.593"/>
<polygon fill="midnightblue" stroke="midnightblue" points="658.081,-955.628 650.065,-962.556 660.651,-962.139 658.081,-955.628"/>
</g>
<!-- Node12 -->
<g id="node23" class="node"><title>Node12</title>
<a xlink:href="classZendDbSchema__Db__Schema__Table__ForeignKey.html#a0c51ff09d6df59b68f8f5ff4ec1ed32d" target="_top" xlink:title="ZendDbSchema_Db_Schema_Table_ForeignKey\\setOnDelete">
<polygon fill="white" stroke="black" points="720,-1058.5 720,-1079.5 1008,-1079.5 1008,-1058.5 720,-1058.5"/>
<text text-anchor="middle" x="864" y="-1066.5" font-family="Helvetica,sans-Serif" font-size="10.00">ZendDbSchema_Db_Schema_Table_ForeignKey\setOnDelete</text>
</a>
</g>
<!-- Node2&#45;&gt;Node12 -->
<g id="edge22" class="edge"><title>Node2&#45;&gt;Node12</title>
<path fill="none" stroke="midnightblue" d="M538.295,-983.785C578.184,-1002 649.693,-1032.53 714,-1049 728.889,-1052.81 744.806,-1055.93 760.504,-1058.46"/>
<polygon fill="midnightblue" stroke="midnightblue" points="539.642,-980.552 529.095,-979.546 536.713,-986.909 539.642,-980.552"/>
</g>
<!-- Node13 -->
<g id="node25" class="node"><title>Node13</title>
<a xlink:href="classZendDbSchema__Db__Schema__Table__ForeignKey.html#ae8ffd9c6bad60eaf6ef05cdd1f5c56fb" target="_top" xlink:title="ZendDbSchema_Db_Schema_Table_ForeignKey\\setOnUpdate">
<polygon fill="white" stroke="black" points="718.5,-1018.5 718.5,-1039.5 1009.5,-1039.5 1009.5,-1018.5 718.5,-1018.5"/>
<text text-anchor="middle" x="864" y="-1026.5" font-family="Helvetica,sans-Serif" font-size="10.00">ZendDbSchema_Db_Schema_Table_ForeignKey\setOnUpdate</text>
</a>
</g>
<!-- Node2&#45;&gt;Node13 -->
<g id="edge24" class="edge"><title>Node2&#45;&gt;Node13</title>
<path fill="none" stroke="midnightblue" d="M566.934,-981.541C608.176,-989.935 664.274,-1000.89 714,-1009 734.873,-1012.41 757.451,-1015.65 778.598,-1018.49"/>
<polygon fill="midnightblue" stroke="midnightblue" points="567.546,-978.094 557.048,-979.52 566.144,-984.952 567.546,-978.094"/>
</g>
<!-- Node14 -->
<g id="node27" class="node"><title>Node14</title>
<a xlink:href="classZendDbSchema__Db__Schema__Table__ForeignKey.html#a333403da95af60a2b4bd18952d1136f3" target="_top" xlink:title="ZendDbSchema_Db_Schema_Table_ForeignKey\\setReferences">
<polygon fill="white" stroke="black" points="715.5,-978.5 715.5,-999.5 1012.5,-999.5 1012.5,-978.5 715.5,-978.5"/>
<text text-anchor="middle" x="864" y="-986.5" font-family="Helvetica,sans-Serif" font-size="10.00">ZendDbSchema_Db_Schema_Table_ForeignKey\setReferences</text>
</a>
</g>
<!-- Node2&#45;&gt;Node14 -->
<g id="edge26" class="edge"><title>Node2&#45;&gt;Node14</title>
<path fill="none" stroke="midnightblue" d="M660.243,-977.585C678.489,-978.607 697.095,-979.65 715.276,-980.668"/>
<polygon fill="midnightblue" stroke="midnightblue" points="660.329,-974.084 650.149,-977.02 659.937,-981.073 660.329,-974.084"/>
</g>
<!-- Node4 -->
<g id="node7" class="node"><title>Node4</title>
<a xlink:href="classZendDbSchema__Db__Schema__Table__Index.html#a6717d976c5b0d47369d3c87ef17b1e9b" target="_top" xlink:title="ZendDbSchema_Db_Schema_Table_Index\\addColumn">
<polygon fill="white" stroke="black" points="1072.5,-938.5 1072.5,-959.5 1329.5,-959.5 1329.5,-938.5 1072.5,-938.5"/>
<text text-anchor="middle" x="1201" y="-946.5" font-family="Helvetica,sans-Serif" font-size="10.00">ZendDbSchema_Db_Schema_Table_Index\addColumn</text>
</a>
</g>
<!-- Node3&#45;&gt;Node4 -->
<g id="edge6" class="edge"><title>Node3&#45;&gt;Node4</title>
<path fill="none" stroke="midnightblue" d="M1004.57,-949C1027.07,-949 1050.24,-949 1072.44,-949"/>
<polygon fill="midnightblue" stroke="midnightblue" points="1004.29,-945.5 994.293,-949 1004.29,-952.5 1004.29,-945.5"/>
</g>
<!-- Node5 -->
<g id="node9" class="node"><title>Node5</title>
<a xlink:href="classZendDbSchema__Db__Schema__Table__Index.html#a3cfd358621bb3330ef9e7ffcf2f7b229" target="_top" xlink:title="ZendDbSchema_Db_Schema_Table_Index\\removeColumn">
<polygon fill="white" stroke="black" points="1064,-978.5 1064,-999.5 1338,-999.5 1338,-978.5 1064,-978.5"/>
<text text-anchor="middle" x="1201" y="-986.5" font-family="Helvetica,sans-Serif" font-size="10.00">ZendDbSchema_Db_Schema_Table_Index\removeColumn</text>
</a>
</g>
<!-- Node3&#45;&gt;Node5 -->
<g id="edge8" class="edge"><title>Node3&#45;&gt;Node5</title>
<path fill="none" stroke="midnightblue" d="M962.523,-960.694C1009.96,-966.325 1066.4,-973.024 1112.46,-978.491"/>
<polygon fill="midnightblue" stroke="midnightblue" points="962.886,-957.213 952.543,-959.51 962.061,-964.164 962.886,-957.213"/>
</g>
<!-- Node7 -->
<g id="node13" class="node"><title>Node7</title>
<a xlink:href="classZendDbSchema__Db__Schema__Table__PrimaryKey.html#a0b84ee828c689a3da5790e123583f691" target="_top" xlink:title="ZendDbSchema_Db_Schema_Table_PrimaryKey\\addColumn">
<polygon fill="white" stroke="black" points="1059,-858.5 1059,-879.5 1343,-879.5 1343,-858.5 1059,-858.5"/>
<text text-anchor="middle" x="1201" y="-866.5" font-family="Helvetica,sans-Serif" font-size="10.00">ZendDbSchema_Db_Schema_Table_PrimaryKey\addColumn</text>
</a>
</g>
<!-- Node6&#45;&gt;Node7 -->
<g id="edge12" class="edge"><title>Node6&#45;&gt;Node7</title>
<path fill="none" stroke="midnightblue" d="M962.523,-897.306C1009.96,-891.675 1066.4,-884.976 1112.46,-879.509"/>
<polygon fill="midnightblue" stroke="midnightblue" points="962.061,-893.836 952.543,-898.49 962.886,-900.787 962.061,-893.836"/>
</g>
<!-- Node8 -->
<g id="node15" class="node"><title>Node8</title>
<a xlink:href="classZendDbSchema__Db__Schema__Table__PrimaryKey.html#a6deb586d1cc0935f5c0d50afa47667de" target="_top" xlink:title="ZendDbSchema_Db_Schema_Table_PrimaryKey\\removeColumn">
<polygon fill="white" stroke="black" points="1050.5,-898.5 1050.5,-919.5 1351.5,-919.5 1351.5,-898.5 1050.5,-898.5"/>
<text text-anchor="middle" x="1201" y="-906.5" font-family="Helvetica,sans-Serif" font-size="10.00">ZendDbSchema_Db_Schema_Table_PrimaryKey\removeColumn</text>
</a>
</g>
<!-- Node6&#45;&gt;Node8 -->
<g id="edge14" class="edge"><title>Node6&#45;&gt;Node8</title>
<path fill="none" stroke="midnightblue" d="M1018.13,-909C1028.84,-909 1039.63,-909 1050.32,-909"/>
<polygon fill="midnightblue" stroke="midnightblue" points="1017.9,-905.5 1007.9,-909 1017.9,-912.5 1017.9,-905.5"/>
</g>
<!-- Node10 -->
<g id="node19" class="node"><title>Node10</title>
<a xlink:href="classZendDbSchema__Db__Schema__Table__ForeignKey.html#acad90fc706fe3c4aa734b073fa551152" target="_top" xlink:title="ZendDbSchema_Db_Schema_Table_ForeignKey\\setColumn">
<polygon fill="white" stroke="black" points="1060.5,-778.5 1060.5,-799.5 1341.5,-799.5 1341.5,-778.5 1060.5,-778.5"/>
<text text-anchor="middle" x="1201" y="-786.5" font-family="Helvetica,sans-Serif" font-size="10.00">ZendDbSchema_Db_Schema_Table_ForeignKey\setColumn</text>
</a>
</g>
<!-- Node9&#45;&gt;Node10 -->
<g id="edge18" class="edge"><title>Node9&#45;&gt;Node10</title>
<path fill="none" stroke="midnightblue" d="M962.523,-817.306C1009.96,-811.675 1066.4,-804.976 1112.46,-799.509"/>
<polygon fill="midnightblue" stroke="midnightblue" points="962.061,-813.836 952.543,-818.49 962.886,-820.787 962.061,-813.836"/>
</g>
<!-- Node11 -->
<g id="node21" class="node"><title>Node11</title>
<a xlink:href="classZendDbSchema__Db__Schema__Table__ForeignKey.html#a810c76bf8102391ec3d304647c369146" target="_top" xlink:title="ZendDbSchema_Db_Schema_Table_ForeignKey\\removeColumn">
<polygon fill="white" stroke="black" points="1051.5,-818.5 1051.5,-839.5 1350.5,-839.5 1350.5,-818.5 1051.5,-818.5"/>
<text text-anchor="middle" x="1201" y="-826.5" font-family="Helvetica,sans-Serif" font-size="10.00">ZendDbSchema_Db_Schema_Table_ForeignKey\removeColumn</text>
</a>
</g>
<!-- Node9&#45;&gt;Node11 -->
<g id="edge20" class="edge"><title>Node9&#45;&gt;Node11</title>
<path fill="none" stroke="midnightblue" d="M1017.65,-829C1028.83,-829 1040.1,-829 1051.26,-829"/>
<polygon fill="midnightblue" stroke="midnightblue" points="1017.41,-825.5 1007.41,-829 1017.41,-832.5 1017.41,-825.5"/>
</g>
<!-- Node30 -->
<g id="node59" class="node"><title>Node30</title>
<a xlink:href="classZendDbSchema__Db__Schema__Generator__Mysql.html#a16b347a1c95888775b09d14505bae2b2" target="_top" xlink:title="ZendDbSchema_Db_Schema_Generator_Mysql\\alterForeignKey">
<polygon fill="white" stroke="black" points="715.5,-338.5 715.5,-359.5 1012.5,-359.5 1012.5,-338.5 715.5,-338.5"/>
<text text-anchor="middle" x="864" y="-346.5" font-family="Helvetica,sans-Serif" font-size="10.00">ZendDbSchema_Db_Schema_Generator_Mysql\alterForeignKey</text>
</a>
</g>
<!-- Node29&#45;&gt;Node30 -->
<g id="edge58" class="edge"><title>Node29&#45;&gt;Node30</title>
<path fill="none" stroke="midnightblue" d="M664.029,-337.797C681.108,-338.754 698.453,-339.726 715.426,-340.677"/>
<polygon fill="midnightblue" stroke="midnightblue" points="664.189,-334.301 654.009,-337.236 663.797,-341.29 664.189,-334.301"/>
</g>
<!-- Node32 -->
<g id="node63" class="node"><title>Node32</title>
<a xlink:href="classZendDbSchema__Db__Schema__Generator__Mysql.html#a2991a5e882a0b6015c0972668215d612" target="_top" xlink:title="ZendDbSchema_Db_Schema_Generator_Mysql\\alterPrimaryKey">
<polygon fill="white" stroke="black" points="714.5,-198.5 714.5,-219.5 1013.5,-219.5 1013.5,-198.5 714.5,-198.5"/>
<text text-anchor="middle" x="864" y="-206.5" font-family="Helvetica,sans-Serif" font-size="10.00">ZendDbSchema_Db_Schema_Generator_Mysql\alterPrimaryKey</text>
</a>
</g>
<!-- Node31&#45;&gt;Node32 -->
<g id="edge62" class="edge"><title>Node31&#45;&gt;Node32</title>
<path fill="none" stroke="midnightblue" d="M610.739,-237.377C661.125,-231.731 721.211,-224.999 770.21,-219.509"/>
<polygon fill="midnightblue" stroke="midnightblue" points="610.346,-233.899 600.798,-238.49 611.125,-240.855 610.346,-233.899"/>
</g>
<!-- Node35 -->
<g id="node69" class="node"><title>Node35</title>
<a xlink:href="classZendDbSchema__Db__Schema__Generator__Mysql.html#a0f94d6cabe125b387efa64fc7160a9e5" target="_top" xlink:title="ZendDbSchema_Db_Schema_Generator_Mysql\\alterIndex">
<polygon fill="white" stroke="black" points="1065,-98.5 1065,-119.5 1337,-119.5 1337,-98.5 1065,-98.5"/>
<text text-anchor="middle" x="1201" y="-106.5" font-family="Helvetica,sans-Serif" font-size="10.00">ZendDbSchema_Db_Schema_Generator_Mysql\alterIndex</text>
</a>
</g>
<!-- Node34&#45;&gt;Node35 -->
<g id="edge68" class="edge"><title>Node34&#45;&gt;Node35</title>
<path fill="none" stroke="midnightblue" d="M1014.81,-109C1031.46,-109 1048.35,-109 1064.8,-109"/>
<polygon fill="midnightblue" stroke="midnightblue" points="1014.48,-105.5 1004.48,-109 1014.48,-112.5 1014.48,-105.5"/>
</g>
<!-- Node37&#45;&gt;Node30 -->
<g id="edge74" class="edge"><title>Node37&#45;&gt;Node30</title>
<path fill="none" stroke="midnightblue" d="M665.764,-360.106C682.212,-359.184 698.887,-358.25 715.22,-357.335"/>
<polygon fill="midnightblue" stroke="midnightblue" points="665.345,-356.624 655.557,-360.677 665.737,-363.613 665.345,-356.624"/>
</g>
<!-- Node38&#45;&gt;Node34 -->
<g id="edge78" class="edge"><title>Node38&#45;&gt;Node34</title>
<path fill="none" stroke="midnightblue" d="M653.505,-120.792C676.751,-119.49 700.746,-118.146 723.842,-116.852"/>
<polygon fill="midnightblue" stroke="midnightblue" points="653.028,-117.314 643.24,-121.368 653.42,-124.303 653.028,-117.314"/>
</g>
<!-- Node39&#45;&gt;Node32 -->
<g id="edge82" class="edge"><title>Node39&#45;&gt;Node32</title>
<path fill="none" stroke="midnightblue" d="M610.739,-180.623C661.125,-186.269 721.211,-193.001 770.21,-198.491"/>
<polygon fill="midnightblue" stroke="midnightblue" points="611.125,-177.145 600.798,-179.51 610.346,-184.101 611.125,-177.145"/>
</g>
</g>
</svg>
