<?xml version="1.0" encoding="UTF-8" standalone="no"?>
<!DOCTYPE svg PUBLIC "-//W3C//DTD SVG 1.1//EN"
 "http://www.w3.org/Graphics/SVG/1.1/DTD/svg11.dtd">
<!-- Generated by graphviz version 2.26.3 (20100126.1600)
 -->
<!-- Title: G Pages: 1 -->
<svg width="1392pt" height="310pt"
 viewBox="0.00 0.00 1392.00 310.00" xmlns="http://www.w3.org/2000/svg" xmlns:xlink="http://www.w3.org/1999/xlink">
<g id="graph1" class="graph" transform="scale(1 1) rotate(0) translate(4 306)">
<title>G</title>
<polygon fill="white" stroke="white" points="-4,5 -4,-306 1389,-306 1389,5 -4,5"/>
<!-- Node1 -->
<g id="node1" class="node"><title>Node1</title>
<polygon fill="#bfbfbf" stroke="black" points="0,-80.5 0,-101.5 334,-101.5 334,-80.5 0,-80.5"/>
<text text-anchor="middle" x="167" y="-88.5" font-family="Helvetica,sans-Serif" font-size="10.00">ZendDbSchema_Db_Schema_Table_AbstractDefinition\_getSchemaKey</text>
</g>
<!-- Node2 -->
<g id="node3" class="node"><title>Node2</title>
<a xlink:href="classZendDbSchema__Db__Schema__Table__AbstractDefinition.html#a65498451683b2cf8fd1dc65f7f03581d" target="_top" xlink:title="ZendDbSchema_Db_Schema_Table_AbstractDefinition\\__set">
<polygon fill="white" stroke="black" points="398,-100.5 398,-121.5 684,-121.5 684,-100.5 398,-100.5"/>
<text text-anchor="middle" x="541" y="-108.5" font-family="Helvetica,sans-Serif" font-size="10.00">ZendDbSchema_Db_Schema_Table_AbstractDefinition\__set</text>
</a>
</g>
<!-- Node1&#45;&gt;Node2 -->
<g id="edge2" class="edge"><title>Node1&#45;&gt;Node2</title>
<path fill="none" stroke="midnightblue" d="M344.049,-100.468C362.101,-101.433 380.278,-102.405 397.902,-103.348"/>
<polygon fill="midnightblue" stroke="midnightblue" points="344.21,-96.9716 334.037,-99.9325 343.836,-103.962 344.21,-96.9716"/>
</g>
<!-- Node15 -->
<g id="node29" class="node"><title>Node15</title>
<a xlink:href="classZendDbSchema__Db__Schema__Table__AbstractDefinition.html#a355febe0ff6ed1a3b95ae1edd91b807e" target="_top" xlink:title="ZendDbSchema_Db_Schema_Table_AbstractDefinition\\_getCleanSchema">
<polygon fill="white" stroke="black" points="370,-60.5 370,-81.5 712,-81.5 712,-60.5 370,-60.5"/>
<text text-anchor="middle" x="541" y="-68.5" font-family="Helvetica,sans-Serif" font-size="10.00">ZendDbSchema_Db_Schema_Table_AbstractDefinition\_getCleanSchema</text>
</a>
</g>
<!-- Node1&#45;&gt;Node15 -->
<g id="edge28" class="edge"><title>Node1&#45;&gt;Node15</title>
<path fill="none" stroke="midnightblue" d="M344.077,-81.5307C352.643,-81.0725 361.238,-80.6129 369.788,-80.1557"/>
<polygon fill="midnightblue" stroke="midnightblue" points="343.836,-78.0384 334.037,-82.0675 344.21,-85.0284 343.836,-78.0384"/>
</g>
<!-- Node3 -->
<g id="node5" class="node"><title>Node3</title>
<a xlink:href="classZendDbSchema__Db__Schema__Table__Index.html#a77b65e961a7da9ca89fdebd682338fcf" target="_top" xlink:title="ZendDbSchema_Db_Schema_Table_Index\\setColumns">
<polygon fill="white" stroke="black" points="767,-240.5 767,-261.5 1027,-261.5 1027,-240.5 767,-240.5"/>
<text text-anchor="middle" x="897" y="-248.5" font-family="Helvetica,sans-Serif" font-size="10.00">ZendDbSchema_Db_Schema_Table_Index\setColumns</text>
</a>
</g>
<!-- Node2&#45;&gt;Node3 -->
<g id="edge4" class="edge"><title>Node2&#45;&gt;Node3</title>
<path fill="none" stroke="midnightblue" d="M577.259,-125.259C648.788,-153.389 806.61,-215.454 869.932,-240.355"/>
<polygon fill="midnightblue" stroke="midnightblue" points="578.345,-121.925 567.758,-121.523 575.783,-128.44 578.345,-121.925"/>
</g>
<!-- Node6 -->
<g id="node11" class="node"><title>Node6</title>
<a xlink:href="classZendDbSchema__Db__Schema__Table__PrimaryKey.html#a01cfcffd92c38bc521628d49d5c74927" target="_top" xlink:title="ZendDbSchema_Db_Schema_Table_PrimaryKey\\setColumns">
<polygon fill="white" stroke="black" points="753.5,-160.5 753.5,-181.5 1040.5,-181.5 1040.5,-160.5 753.5,-160.5"/>
<text text-anchor="middle" x="897" y="-168.5" font-family="Helvetica,sans-Serif" font-size="10.00">ZendDbSchema_Db_Schema_Table_PrimaryKey\setColumns</text>
</a>
</g>
<!-- Node2&#45;&gt;Node6 -->
<g id="edge10" class="edge"><title>Node2&#45;&gt;Node6</title>
<path fill="none" stroke="midnightblue" d="M600.937,-123.527C642.179,-131.914 698.278,-142.866 748,-151 768.735,-154.392 791.163,-157.629 812.169,-160.472"/>
<polygon fill="midnightblue" stroke="midnightblue" points="601.548,-120.08 591.05,-121.508 600.147,-126.938 601.548,-120.08"/>
</g>
<!-- Node9 -->
<g id="node17" class="node"><title>Node9</title>
<a xlink:href="classZendDbSchema__Db__Schema__Table__ForeignKey.html#afb0c42af85a63c6347973ce79d2e7d80" target="_top" xlink:title="ZendDbSchema_Db_Schema_Table_ForeignKey\\setColumns">
<polygon fill="white" stroke="black" points="754,-120.5 754,-141.5 1040,-141.5 1040,-120.5 754,-120.5"/>
<text text-anchor="middle" x="897" y="-128.5" font-family="Helvetica,sans-Serif" font-size="10.00">ZendDbSchema_Db_Schema_Table_ForeignKey\setColumns</text>
</a>
</g>
<!-- Node2&#45;&gt;Node9 -->
<g id="edge16" class="edge"><title>Node2&#45;&gt;Node9</title>
<path fill="none" stroke="midnightblue" d="M694.025,-119.597C713.877,-120.712 734.153,-121.851 753.837,-122.957"/>
<polygon fill="midnightblue" stroke="midnightblue" points="694.184,-116.1 684.004,-119.034 693.792,-123.089 694.184,-116.1"/>
</g>
<!-- Node12 -->
<g id="node23" class="node"><title>Node12</title>
<a xlink:href="classZendDbSchema__Db__Schema__Table__ForeignKey.html#a0c51ff09d6df59b68f8f5ff4ec1ed32d" target="_top" xlink:title="ZendDbSchema_Db_Schema_Table_ForeignKey\\setOnDelete">
<polygon fill="white" stroke="black" points="753,-80.5 753,-101.5 1041,-101.5 1041,-80.5 753,-80.5"/>
<text text-anchor="middle" x="897" y="-88.5" font-family="Helvetica,sans-Serif" font-size="10.00">ZendDbSchema_Db_Schema_Table_ForeignKey\setOnDelete</text>
</a>
</g>
<!-- Node2&#45;&gt;Node12 -->
<g id="edge22" class="edge"><title>Node2&#45;&gt;Node12</title>
<path fill="none" stroke="midnightblue" d="M694.167,-102.395C713.681,-101.299 733.602,-100.18 752.966,-99.0918"/>
<polygon fill="midnightblue" stroke="midnightblue" points="693.792,-98.9106 684.004,-102.966 694.184,-105.9 693.792,-98.9106"/>
</g>
<!-- Node13 -->
<g id="node25" class="node"><title>Node13</title>
<a xlink:href="classZendDbSchema__Db__Schema__Table__ForeignKey.html#ae8ffd9c6bad60eaf6ef05cdd1f5c56fb" target="_top" xlink:title="ZendDbSchema_Db_Schema_Table_ForeignKey\\setOnUpdate">
<polygon fill="white" stroke="black" points="751.5,-40.5 751.5,-61.5 1042.5,-61.5 1042.5,-40.5 751.5,-40.5"/>
<text text-anchor="middle" x="897" y="-48.5" font-family="Helvetica,sans-Serif" font-size="10.00">ZendDbSchema_Db_Schema_Table_ForeignKey\setOnUpdate</text>
</a>
</g>
<!-- Node2&#45;&gt;Node13 -->
<g id="edge24" class="edge"><title>Node2&#45;&gt;Node13</title>
<path fill="none" stroke="midnightblue" d="M685.12,-98.2884C694.3,-96.2066 703.33,-93.7942 712,-91 729.421,-85.3857 730.627,-76.7622 748,-71 759.643,-67.1381 772.034,-64.0201 784.504,-61.5031"/>
<polygon fill="midnightblue" stroke="midnightblue" points="684.161,-94.9141 675.109,-100.42 685.619,-101.761 684.161,-94.9141"/>
</g>
<!-- Node14 -->
<g id="node27" class="node"><title>Node14</title>
<a xlink:href="classZendDbSchema__Db__Schema__Table__ForeignKey.html#a333403da95af60a2b4bd18952d1136f3" target="_top" xlink:title="ZendDbSchema_Db_Schema_Table_ForeignKey\\setReferences">
<polygon fill="white" stroke="black" points="748.5,-0.5 748.5,-21.5 1045.5,-21.5 1045.5,-0.5 748.5,-0.5"/>
<text text-anchor="middle" x="897" y="-8.5" font-family="Helvetica,sans-Serif" font-size="10.00">ZendDbSchema_Db_Schema_Table_ForeignKey\setReferences</text>
</a>
</g>
<!-- Node2&#45;&gt;Node14 -->
<g id="edge26" class="edge"><title>Node2&#45;&gt;Node14</title>
<path fill="none" stroke="midnightblue" d="M693.606,-100.789C700.012,-98.0005 706.18,-94.7586 712,-91 738.125,-74.1293 722.02,-48.0922 748,-31 753.56,-27.342 759.491,-24.2144 765.663,-21.5476"/>
<polygon fill="midnightblue" stroke="midnightblue" points="692.081,-97.6279 684.065,-104.556 694.651,-104.139 692.081,-97.6279"/>
</g>
<!-- Node4 -->
<g id="node7" class="node"><title>Node4</title>
<a xlink:href="classZendDbSchema__Db__Schema__Table__Index.html#a6717d976c5b0d47369d3c87ef17b1e9b" target="_top" xlink:title="ZendDbSchema_Db_Schema_Table_Index\\addColumn">
<polygon fill="white" stroke="black" points="1104.5,-280.5 1104.5,-301.5 1361.5,-301.5 1361.5,-280.5 1104.5,-280.5"/>
<text text-anchor="middle" x="1233" y="-288.5" font-family="Helvetica,sans-Serif" font-size="10.00">ZendDbSchema_Db_Schema_Table_Index\addColumn</text>
</a>
</g>
<!-- Node3&#45;&gt;Node4 -->
<g id="edge6" class="edge"><title>Node3&#45;&gt;Node4</title>
<path fill="none" stroke="midnightblue" d="M995.23,-262.694C1042.53,-268.325 1098.8,-275.024 1144.73,-280.491"/>
<polygon fill="midnightblue" stroke="midnightblue" points="995.624,-259.216 985.28,-261.51 994.796,-266.167 995.624,-259.216"/>
</g>
<!-- Node5 -->
<g id="node9" class="node"><title>Node5</title>
<a xlink:href="classZendDbSchema__Db__Schema__Table__Index.html#a3cfd358621bb3330ef9e7ffcf2f7b229" target="_top" xlink:title="ZendDbSchema_Db_Schema_Table_Index\\removeColumn">
<polygon fill="white" stroke="black" points="1096,-240.5 1096,-261.5 1370,-261.5 1370,-240.5 1096,-240.5"/>
<text text-anchor="middle" x="1233" y="-248.5" font-family="Helvetica,sans-Serif" font-size="10.00">ZendDbSchema_Db_Schema_Table_Index\removeColumn</text>
</a>
</g>
<!-- Node3&#45;&gt;Node5 -->
<g id="edge8" class="edge"><title>Node3&#45;&gt;Node5</title>
<path fill="none" stroke="midnightblue" d="M1037.42,-251C1056.72,-251 1076.51,-251 1095.74,-251"/>
<polygon fill="midnightblue" stroke="midnightblue" points="1037.39,-247.5 1027.39,-251 1037.39,-254.5 1037.39,-247.5"/>
</g>
<!-- Node7 -->
<g id="node13" class="node"><title>Node7</title>
<a xlink:href="classZendDbSchema__Db__Schema__Table__PrimaryKey.html#a0b84ee828c689a3da5790e123583f691" target="_top" xlink:title="ZendDbSchema_Db_Schema_Table_PrimaryKey\\addColumn">
<polygon fill="white" stroke="black" points="1091,-200.5 1091,-221.5 1375,-221.5 1375,-200.5 1091,-200.5"/>
<text text-anchor="middle" x="1233" y="-208.5" font-family="Helvetica,sans-Serif" font-size="10.00">ZendDbSchema_Db_Schema_Table_PrimaryKey\addColumn</text>
</a>
</g>
<!-- Node6&#45;&gt;Node7 -->
<g id="edge12" class="edge"><title>Node6&#45;&gt;Node7</title>
<path fill="none" stroke="midnightblue" d="M995.23,-182.694C1042.53,-188.325 1098.8,-195.024 1144.73,-200.491"/>
<polygon fill="midnightblue" stroke="midnightblue" points="995.624,-179.216 985.28,-181.51 994.796,-186.167 995.624,-179.216"/>
</g>
<!-- Node8 -->
<g id="node15" class="node"><title>Node8</title>
<a xlink:href="classZendDbSchema__Db__Schema__Table__PrimaryKey.html#a6deb586d1cc0935f5c0d50afa47667de" target="_top" xlink:title="ZendDbSchema_Db_Schema_Table_PrimaryKey\\removeColumn">
<polygon fill="white" stroke="black" points="1082.5,-160.5 1082.5,-181.5 1383.5,-181.5 1383.5,-160.5 1082.5,-160.5"/>
<text text-anchor="middle" x="1233" y="-168.5" font-family="Helvetica,sans-Serif" font-size="10.00">ZendDbSchema_Db_Schema_Table_PrimaryKey\removeColumn</text>
</a>
</g>
<!-- Node6&#45;&gt;Node8 -->
<g id="edge14" class="edge"><title>Node6&#45;&gt;Node8</title>
<path fill="none" stroke="midnightblue" d="M1051.28,-171C1061.63,-171 1072.05,-171 1082.38,-171"/>
<polygon fill="midnightblue" stroke="midnightblue" points="1050.96,-167.5 1040.96,-171 1050.96,-174.5 1050.96,-167.5"/>
</g>
<!-- Node10 -->
<g id="node19" class="node"><title>Node10</title>
<a xlink:href="classZendDbSchema__Db__Schema__Table__ForeignKey.html#acad90fc706fe3c4aa734b073fa551152" target="_top" xlink:title="ZendDbSchema_Db_Schema_Table_ForeignKey\\setColumn">
<polygon fill="white" stroke="black" points="1092.5,-120.5 1092.5,-141.5 1373.5,-141.5 1373.5,-120.5 1092.5,-120.5"/>
<text text-anchor="middle" x="1233" y="-128.5" font-family="Helvetica,sans-Serif" font-size="10.00">ZendDbSchema_Db_Schema_Table_ForeignKey\setColumn</text>
</a>
</g>
<!-- Node9&#45;&gt;Node10 -->
<g id="edge18" class="edge"><title>Node9&#45;&gt;Node10</title>
<path fill="none" stroke="midnightblue" d="M1050.59,-131C1064.53,-131 1078.6,-131 1092.42,-131"/>
<polygon fill="midnightblue" stroke="midnightblue" points="1050.47,-127.5 1040.47,-131 1050.47,-134.5 1050.47,-127.5"/>
</g>
<!-- Node11 -->
<g id="node21" class="node"><title>Node11</title>
<a xlink:href="classZendDbSchema__Db__Schema__Table__ForeignKey.html#a810c76bf8102391ec3d304647c369146" target="_top" xlink:title="ZendDbSchema_Db_Schema_Table_ForeignKey\\removeColumn">
<polygon fill="white" stroke="black" points="1083.5,-80.5 1083.5,-101.5 1382.5,-101.5 1382.5,-80.5 1083.5,-80.5"/>
<text text-anchor="middle" x="1233" y="-88.5" font-family="Helvetica,sans-Serif" font-size="10.00">ZendDbSchema_Db_Schema_Table_ForeignKey\removeColumn</text>
</a>
</g>
<!-- Node9&#45;&gt;Node11 -->
<g id="edge20" class="edge"><title>Node9&#45;&gt;Node11</title>
<path fill="none" stroke="midnightblue" d="M995.23,-119.306C1042.53,-113.675 1098.8,-106.976 1144.73,-101.509"/>
<polygon fill="midnightblue" stroke="midnightblue" points="994.796,-115.833 985.28,-120.49 995.624,-122.784 994.796,-115.833"/>
</g>
</g>
</svg>
