<?xml version="1.0" encoding="UTF-8" standalone="no"?>
<!DOCTYPE svg PUBLIC "-//W3C//DTD SVG 1.1//EN"
 "http://www.w3.org/Graphics/SVG/1.1/DTD/svg11.dtd">
<!-- Generated by graphviz version 2.26.3 (20100126.1600)
 -->
<!-- Title: G Pages: 1 -->
<svg width="1696pt" height="110pt"
 viewBox="0.00 0.00 1696.00 110.00" xmlns="http://www.w3.org/2000/svg" xmlns:xlink="http://www.w3.org/1999/xlink">
<g id="graph1" class="graph" transform="scale(1 1) rotate(0) translate(4 106)">
<title>G</title>
<polygon fill="white" stroke="white" points="-4,5 -4,-106 1693,-106 1693,5 -4,5"/>
<!-- Node1 -->
<g id="node1" class="node"><title>Node1</title>
<polygon fill="#bfbfbf" stroke="black" points="0,-40.5 0,-61.5 358,-61.5 358,-40.5 0,-40.5"/>
<text text-anchor="middle" x="179" y="-48.5" font-family="Helvetica,sans-Serif" font-size="10.00">ZendDbSchema_Db_Schema_Table_DefinitionManager_AbstractManager\add</text>
</g>
<!-- Node2 -->
<g id="node3" class="node"><title>Node2</title>
<a xlink:href="classZendDbSchema__Db__Schema__Table__DefinitionManager__AbstractManager.html#ac62cf058c89132b0ff9223d9fcefdb8a" target="_top" xlink:title="ZendDbSchema_Db_Schema_Table_DefinitionManager_AbstractManager\\_getItemClass">
<polygon fill="white" stroke="black" points="394,-80.5 394,-101.5 800,-101.5 800,-80.5 394,-80.5"/>
<text text-anchor="middle" x="597" y="-88.5" font-family="Helvetica,sans-Serif" font-size="10.00">ZendDbSchema_Db_Schema_Table_DefinitionManager_AbstractManager\_getItemClass</text>
</a>
</g>
<!-- Node1&#45;&gt;Node2 -->
<g id="edge2" class="edge"><title>Node1&#45;&gt;Node2</title>
<path fill="none" stroke="midnightblue" d="M288.825,-61.5095C346.675,-67.0455 417.723,-73.8443 477.016,-79.5183"/>
<polygon fill="midnightblue" stroke="midnightblue" points="476.896,-83.0227 487.184,-80.4913 477.563,-76.0545 476.896,-83.0227"/>
</g>
<!-- Node3 -->
<g id="node5" class="node"><title>Node3</title>
<a xlink:href="classZendDbSchema__Db__Schema__AbstractSchema.html#adacb1417b461310c5c87f72c459c1985" target="_top" xlink:title="ZendDbSchema_Db_Schema_AbstractSchema\\getOriginName">
<polygon fill="white" stroke="black" points="450.5,-40.5 450.5,-61.5 743.5,-61.5 743.5,-40.5 450.5,-40.5"/>
<text text-anchor="middle" x="597" y="-48.5" font-family="Helvetica,sans-Serif" font-size="10.00">ZendDbSchema_Db_Schema_AbstractSchema\getOriginName</text>
</a>
</g>
<!-- Node1&#45;&gt;Node3 -->
<g id="edge4" class="edge"><title>Node1&#45;&gt;Node3</title>
<path fill="none" stroke="midnightblue" d="M358.089,-51C385.4,-51 413.407,-51 440.193,-51"/>
<polygon fill="midnightblue" stroke="midnightblue" points="440.394,-54.5001 450.394,-51 440.394,-47.5001 440.394,-54.5001"/>
</g>
<!-- Node7 -->
<g id="node13" class="node"><title>Node7</title>
<a xlink:href="classZendDbSchema__Db__Schema__Table__DefinitionManager__AbstractManager.html#ad0261d0db60ff459f97adc23b2d16931" target="_top" xlink:title="ZendDbSchema_Db_Schema_Table_DefinitionManager_AbstractManager\\has">
<polygon fill="white" stroke="black" points="418,-0.5 418,-21.5 776,-21.5 776,-0.5 418,-0.5"/>
<text text-anchor="middle" x="597" y="-8.5" font-family="Helvetica,sans-Serif" font-size="10.00">ZendDbSchema_Db_Schema_Table_DefinitionManager_AbstractManager\has</text>
</a>
</g>
<!-- Node1&#45;&gt;Node7 -->
<g id="edge12" class="edge"><title>Node1&#45;&gt;Node7</title>
<path fill="none" stroke="midnightblue" d="M288.825,-40.4905C346.675,-34.9545 417.723,-28.1557 477.016,-22.4817"/>
<polygon fill="midnightblue" stroke="midnightblue" points="477.563,-25.9455 487.184,-21.5087 476.896,-18.9773 477.563,-25.9455"/>
</g>
<!-- Node4 -->
<g id="node7" class="node"><title>Node4</title>
<a xlink:href="classZendDbSchema__Db__Schema__AbstractSchema.html#a55787c21deddba427842809d589c2df6" target="_top" xlink:title="ZendDbSchema_Db_Schema_AbstractSchema\\getName">
<polygon fill="white" stroke="black" points="836.5,-40.5 836.5,-61.5 1103.5,-61.5 1103.5,-40.5 836.5,-40.5"/>
<text text-anchor="middle" x="970" y="-48.5" font-family="Helvetica,sans-Serif" font-size="10.00">ZendDbSchema_Db_Schema_AbstractSchema\getName</text>
</a>
</g>
<!-- Node3&#45;&gt;Node4 -->
<g id="edge6" class="edge"><title>Node3&#45;&gt;Node4</title>
<path fill="none" stroke="midnightblue" d="M743.616,-51C770.748,-51 799.06,-51 826.11,-51"/>
<polygon fill="midnightblue" stroke="midnightblue" points="826.41,-54.5001 836.409,-51 826.409,-47.5001 826.41,-54.5001"/>
</g>
<!-- Node5 -->
<g id="node9" class="node"><title>Node5</title>
<a xlink:href="classZendDbSchema__Db__Schema__AbstractSchema.html#a54d32c6f15463eaad2321a9f0e7225d7" target="_top" xlink:title="ZendDbSchema_Db_Schema_AbstractSchema\\__get">
<polygon fill="white" stroke="black" points="1140.5,-40.5 1140.5,-61.5 1391.5,-61.5 1391.5,-40.5 1140.5,-40.5"/>
<text text-anchor="middle" x="1266" y="-48.5" font-family="Helvetica,sans-Serif" font-size="10.00">ZendDbSchema_Db_Schema_AbstractSchema\__get</text>
</a>
</g>
<!-- Node4&#45;&gt;Node5 -->
<g id="edge8" class="edge"><title>Node4&#45;&gt;Node5</title>
<path fill="none" stroke="midnightblue" d="M1103.71,-51C1112.41,-51 1121.18,-51 1129.89,-51"/>
<polygon fill="midnightblue" stroke="midnightblue" points="1130.08,-54.5001 1140.08,-51 1130.08,-47.5001 1130.08,-54.5001"/>
</g>
<!-- Node6 -->
<g id="node11" class="node"><title>Node6</title>
<a xlink:href="classZendDbSchema__Db__Schema__AbstractSchema.html#ac4e121ba7932163eb1950fabe06fb9db" target="_top" xlink:title="ZendDbSchema_Db_Schema_AbstractSchema\\__isset">
<polygon fill="white" stroke="black" points="1428.5,-40.5 1428.5,-61.5 1687.5,-61.5 1687.5,-40.5 1428.5,-40.5"/>
<text text-anchor="middle" x="1558" y="-48.5" font-family="Helvetica,sans-Serif" font-size="10.00">ZendDbSchema_Db_Schema_AbstractSchema\__isset</text>
</a>
</g>
<!-- Node5&#45;&gt;Node6 -->
<g id="edge10" class="edge"><title>Node5&#45;&gt;Node6</title>
<path fill="none" stroke="midnightblue" d="M1391.53,-51C1400.4,-51 1409.38,-51 1418.32,-51"/>
<polygon fill="midnightblue" stroke="midnightblue" points="1418.4,-54.5001 1428.4,-51 1418.4,-47.5001 1418.4,-54.5001"/>
</g>
</g>
</svg>
