<?xml version="1.0" encoding="UTF-8" standalone="no"?>
<!DOCTYPE svg PUBLIC "-//W3C//DTD SVG 1.1//EN"
 "http://www.w3.org/Graphics/SVG/1.1/DTD/svg11.dtd">
<!-- Generated by graphviz version 2.26.3 (20100126.1600)
 -->
<!-- Title: G Pages: 1 -->
<svg width="346pt" height="316pt"
 viewBox="0.00 0.00 346.00 316.00" xmlns="http://www.w3.org/2000/svg" xmlns:xlink="http://www.w3.org/1999/xlink">
<g id="graph1" class="graph" transform="scale(1 1) rotate(0) translate(4 312)">
<title>G</title>
<polygon fill="white" stroke="white" points="-4,5 -4,-312 343,-312 343,5 -4,5"/>
<!-- Node1 -->
<g id="node1" class="node"><title>Node1</title>
<polygon fill="#bfbfbf" stroke="black" points="12,-0.5 12,-63.5 326,-63.5 326,-0.5 12,-0.5"/>
<text text-anchor="middle" x="169" y="-50.5" font-family="Helvetica,sans-Serif" font-size="10.00">ZendDbSchema_Db_Schema_Table_DefinitionManager_ForeignKey</text>
<polyline fill="none" stroke="black" points="12,-42.5 326,-42.5 "/>
<text text-anchor="middle" x="169" y="-29.5" font-family="Helvetica,sans-Serif" font-size="10.00"> </text>
<polyline fill="none" stroke="black" points="12,-21.5 326,-21.5 "/>
<text text-anchor="start" x="20" y="-8.5" font-family="Helvetica,sans-Serif" font-size="10.00"># _getItemClass()</text>
</g>
<!-- Node2 -->
<g id="node2" class="node"><title>Node2</title>
<a xlink:href="classZendDbSchema__Db__Schema__Table__DefinitionManager__AbstractManager.html" target="_top" xlink:title="{ZendDbSchema_Db_Schema_Table_DefinitionManager_AbstractManager\n|# $_data\l# $_table\l|+ __construct()\l+ refresh()\l+ setFromArray()\l+ add()\l+ isDirty()\l+ toArray()\l+ getIterator()\l+ has()\l+ get()\l+ count()\l# _getItemClass()\l}">
<polygon fill="white" stroke="black" points="-0.5,-101 -0.5,-307 338.5,-307 338.5,-101 -0.5,-101"/>
<text text-anchor="middle" x="169" y="-294" font-family="Helvetica,sans-Serif" font-size="10.00">ZendDbSchema_Db_Schema_Table_DefinitionManager_AbstractManager</text>
<polyline fill="none" stroke="black" points="-0.5,-286 338.5,-286 "/>
<text text-anchor="start" x="7.5" y="-273" font-family="Helvetica,sans-Serif" font-size="10.00"># $_data</text>
<text text-anchor="start" x="7.5" y="-260" font-family="Helvetica,sans-Serif" font-size="10.00"># $_table</text>
<polyline fill="none" stroke="black" points="-0.5,-252 338.5,-252 "/>
<text text-anchor="start" x="7.5" y="-239" font-family="Helvetica,sans-Serif" font-size="10.00">+ __construct()</text>
<text text-anchor="start" x="7.5" y="-226" font-family="Helvetica,sans-Serif" font-size="10.00">+ refresh()</text>
<text text-anchor="start" x="7.5" y="-213" font-family="Helvetica,sans-Serif" font-size="10.00">+ setFromArray()</text>
<text text-anchor="start" x="7.5" y="-200" font-family="Helvetica,sans-Serif" font-size="10.00">+ add()</text>
<text text-anchor="start" x="7.5" y="-187" font-family="Helvetica,sans-Serif" font-size="10.00">+ isDirty()</text>
<text text-anchor="start" x="7.5" y="-174" font-family="Helvetica,sans-Serif" font-size="10.00">+ toArray()</text>
<text text-anchor="start" x="7.5" y="-161" font-family="Helvetica,sans-Serif" font-size="10.00">+ getIterator()</text>
<text text-anchor="start" x="7.5" y="-148" font-family="Helvetica,sans-Serif" font-size="10.00">+ has()</text>
<text text-anchor="start" x="7.5" y="-135" font-family="Helvetica,sans-Serif" font-size="10.00">+ get()</text>
<text text-anchor="start" x="7.5" y="-122" font-family="Helvetica,sans-Serif" font-size="10.00">+ count()</text>
<text text-anchor="start" x="7.5" y="-109" font-family="Helvetica,sans-Serif" font-size="10.00"># _getItemClass()</text>
</a>
</g>
<!-- Node2&#45;&gt;Node1 -->
<g id="edge2" class="edge"><title>Node2&#45;&gt;Node1</title>
<path fill="none" stroke="midnightblue" d="M169,-90.704C169,-81.0112 169,-71.8346 169,-63.7416"/>
<polygon fill="none" stroke="midnightblue" points="165.5,-90.9679 169,-100.968 172.5,-90.968 165.5,-90.9679"/>
</g>
</g>
</svg>
