<?xml version="1.0" encoding="UTF-8" standalone="no"?>
<!DOCTYPE svg PUBLIC "-//W3C//DTD SVG 1.1//EN"
 "http://www.w3.org/Graphics/SVG/1.1/DTD/svg11.dtd">
<!-- Generated by graphviz version 2.26.3 (20100126.1600)
 -->
<!-- Title: G Pages: 1 -->
<svg width="1320pt" height="49pt"
 viewBox="0.00 0.00 1320.00 49.00" xmlns="http://www.w3.org/2000/svg" xmlns:xlink="http://www.w3.org/1999/xlink">
<g id="graph1" class="graph" transform="scale(1 1) rotate(0) translate(4 45)">
<title>G</title>
<polygon fill="white" stroke="white" points="-4,5 -4,-45 1317,-45 1317,5 -4,5"/>
<!-- Node1 -->
<g id="node1" class="node"><title>Node1</title>
<polygon fill="#bfbfbf" stroke="black" points="0,-19.5 0,-40.5 236,-40.5 236,-19.5 0,-19.5"/>
<text text-anchor="middle" x="118" y="-27.5" font-family="Helvetica,sans-Serif" font-size="10.00">ZendDbSchema_Db_Migration_Skeleton\getClass</text>
</g>
<!-- Node2 -->
<g id="node3" class="node"><title>Node2</title>
<a xlink:href="classZendDbSchema__Db__Migration__Skeleton.html#a061e25b67825b88e94acf79944db19a6" target="_top" xlink:title="ZendDbSchema_Db_Migration_Skeleton\\getFile">
<polygon fill="white" stroke="black" points="832,-19.5 832,-40.5 1058,-40.5 1058,-19.5 832,-19.5"/>
<text text-anchor="middle" x="945" y="-27.5" font-family="Helvetica,sans-Serif" font-size="10.00">ZendDbSchema_Db_Migration_Skeleton\getFile</text>
</a>
</g>
<!-- Node1&#45;&gt;Node2 -->
<g id="edge2" class="edge"><title>Node1&#45;&gt;Node2</title>
<path fill="none" stroke="midnightblue" d="M246.343,-30.8961C255.026,-30.9374 263.641,-30.9729 272,-31 504.888,-31.7561 563.112,-31.7815 796,-31 807.641,-30.9609 819.793,-30.9047 831.917,-30.8386"/>
<polygon fill="midnightblue" stroke="midnightblue" points="246.148,-27.3952 236.131,-30.8451 246.113,-34.3951 246.148,-27.3952"/>
</g>
<!-- Node4 -->
<g id="node7" class="node"><title>Node4</title>
<a xlink:href="classZendDbSchema__Db__Migration__Skeleton.html#a7613e2ec6a61b621fd7897a29934269d" target="_top" xlink:title="ZendDbSchema_Db_Migration_Skeleton\\setVersion">
<polygon fill="white" stroke="black" points="272.5,-0.5 272.5,-21.5 515.5,-21.5 515.5,-0.5 272.5,-0.5"/>
<text text-anchor="middle" x="394" y="-8.5" font-family="Helvetica,sans-Serif" font-size="10.00">ZendDbSchema_Db_Migration_Skeleton\setVersion</text>
</a>
</g>
<!-- Node1&#45;&gt;Node4 -->
<g id="edge6" class="edge"><title>Node1&#45;&gt;Node4</title>
<path fill="none" stroke="midnightblue" d="M246.413,-21.16C255.097,-20.5622 263.832,-19.9608 272.48,-19.3655"/>
<polygon fill="midnightblue" stroke="midnightblue" points="245.986,-17.681 236.25,-21.8596 246.467,-24.6645 245.986,-17.681"/>
</g>
<!-- Node3 -->
<g id="node5" class="node"><title>Node3</title>
<a xlink:href="classZendDbSchema__Db__Migration__Skeleton.html#a71668c68edcf35f36f111963a9b625df" target="_top" xlink:title="ZendDbSchema_Db_Migration_Skeleton\\write">
<polygon fill="white" stroke="black" points="1094,-19.5 1094,-40.5 1312,-40.5 1312,-19.5 1094,-19.5"/>
<text text-anchor="middle" x="1203" y="-27.5" font-family="Helvetica,sans-Serif" font-size="10.00">ZendDbSchema_Db_Migration_Skeleton\write</text>
</a>
</g>
<!-- Node2&#45;&gt;Node3 -->
<g id="edge4" class="edge"><title>Node2&#45;&gt;Node3</title>
<path fill="none" stroke="midnightblue" d="M1068.41,-30C1076.84,-30 1085.29,-30 1093.64,-30"/>
<polygon fill="midnightblue" stroke="midnightblue" points="1068.16,-26.5001 1058.16,-30 1068.16,-33.5001 1068.16,-26.5001"/>
</g>
<!-- Node5 -->
<g id="node9" class="node"><title>Node5</title>
<a xlink:href="classZendDbSchema__Db__Migration__Skeleton.html#afb677840482d948597ec10dc0fd37aab" target="_top" xlink:title="ZendDbSchema_Db_Migration_Skeleton\\getVersion">
<polygon fill="white" stroke="black" points="552.5,-0.5 552.5,-21.5 795.5,-21.5 795.5,-0.5 552.5,-0.5"/>
<text text-anchor="middle" x="674" y="-8.5" font-family="Helvetica,sans-Serif" font-size="10.00">ZendDbSchema_Db_Migration_Skeleton\getVersion</text>
</a>
</g>
<!-- Node4&#45;&gt;Node5 -->
<g id="edge8" class="edge"><title>Node4&#45;&gt;Node5</title>
<path fill="none" stroke="midnightblue" d="M525.838,-11C534.591,-11 543.386,-11 552.087,-11"/>
<polygon fill="midnightblue" stroke="midnightblue" points="525.591,-7.5001 515.59,-11 525.59,-14.5001 525.591,-7.5001"/>
</g>
<!-- Node5&#45;&gt;Node2 -->
<g id="edge10" class="edge"><title>Node5&#45;&gt;Node2</title>
<path fill="none" stroke="midnightblue" d="M805.864,-20.2451C814.6,-20.8576 823.356,-21.4714 831.986,-22.0765"/>
<polygon fill="midnightblue" stroke="midnightblue" points="805.848,-16.7354 795.628,-19.5274 805.358,-23.7183 805.848,-16.7354"/>
</g>
</g>
</svg>
