<?xml version="1.0" encoding="UTF-8" standalone="no"?>
<!DOCTYPE svg PUBLIC "-//W3C//DTD SVG 1.1//EN"
 "http://www.w3.org/Graphics/SVG/1.1/DTD/svg11.dtd">
<!-- Generated by graphviz version 2.26.3 (20100126.1600)
 -->
<!-- Title: G Pages: 1 -->
<svg width="830pt" height="90pt"
 viewBox="0.00 0.00 830.00 90.00" xmlns="http://www.w3.org/2000/svg" xmlns:xlink="http://www.w3.org/1999/xlink">
<g id="graph1" class="graph" transform="scale(1 1) rotate(0) translate(4 86)">
<title>G</title>
<polygon fill="white" stroke="white" points="-4,5 -4,-86 827,-86 827,5 -4,5"/>
<!-- Node1 -->
<g id="node1" class="node"><title>Node1</title>
<polygon fill="#bfbfbf" stroke="black" points="0.5,-40.5 0.5,-61.5 243.5,-61.5 243.5,-40.5 0.5,-40.5"/>
<text text-anchor="middle" x="122" y="-48.5" font-family="Helvetica,sans-Serif" font-size="10.00">ZendDbSchema_Db_Schema_AbstractEntity\reload</text>
</g>
<!-- Node2 -->
<g id="node3" class="node"><title>Node2</title>
<a xlink:href="classZendDbSchema__Db__Schema__AbstractEntity.html#ad92ca2449257a587b336367f109cdde2" target="_top" xlink:title="ZendDbSchema_Db_Schema_AbstractEntity\\__wakeup">
<polygon fill="white" stroke="black" points="280.5,-60.5 280.5,-81.5 541.5,-81.5 541.5,-60.5 280.5,-60.5"/>
<text text-anchor="middle" x="411" y="-68.5" font-family="Helvetica,sans-Serif" font-size="10.00">ZendDbSchema_Db_Schema_AbstractEntity\__wakeup</text>
</a>
</g>
<!-- Node1&#45;&gt;Node2 -->
<g id="edge2" class="edge"><title>Node1&#45;&gt;Node2</title>
<path fill="none" stroke="midnightblue" d="M253.92,-60.1294C262.636,-60.7326 271.414,-61.3401 280.125,-61.9429"/>
<polygon fill="midnightblue" stroke="midnightblue" points="253.942,-56.6227 243.724,-59.4238 253.459,-63.606 253.942,-56.6227"/>
</g>
<!-- Node3 -->
<g id="node5" class="node"><title>Node3</title>
<a xlink:href="classZendDbSchema__Db__Schema__AbstractEntity.html#abee9675e11d86dace1abed3d94a0fda1" target="_top" xlink:title="ZendDbSchema_Db_Schema_AbstractEntity\\refresh">
<polygon fill="white" stroke="black" points="287.5,-20.5 287.5,-41.5 534.5,-41.5 534.5,-20.5 287.5,-20.5"/>
<text text-anchor="middle" x="411" y="-28.5" font-family="Helvetica,sans-Serif" font-size="10.00">ZendDbSchema_Db_Schema_AbstractEntity\refresh</text>
</a>
</g>
<!-- Node1&#45;&gt;Node3 -->
<g id="edge4" class="edge"><title>Node1&#45;&gt;Node3</title>
<path fill="none" stroke="midnightblue" d="M253.855,-41.8751C264.924,-41.109 276.094,-40.3361 287.1,-39.5744"/>
<polygon fill="midnightblue" stroke="midnightblue" points="253.459,-38.394 243.724,-42.5762 253.942,-45.3773 253.459,-38.394"/>
</g>
<!-- Node4 -->
<g id="node7" class="node"><title>Node4</title>
<a xlink:href="classZendDbSchema__Db__Schema__AbstractEntity.html#a26fcff2268495fcdbfa265f394ee93d9" target="_top" xlink:title="ZendDbSchema_Db_Schema_AbstractEntity\\delete">
<polygon fill="white" stroke="black" points="578.5,-40.5 578.5,-61.5 821.5,-61.5 821.5,-40.5 578.5,-40.5"/>
<text text-anchor="middle" x="700" y="-48.5" font-family="Helvetica,sans-Serif" font-size="10.00">ZendDbSchema_Db_Schema_AbstractEntity\delete</text>
</a>
</g>
<!-- Node3&#45;&gt;Node4 -->
<g id="edge6" class="edge"><title>Node3&#45;&gt;Node4</title>
<path fill="none" stroke="midnightblue" d="M544.984,-40.2722C556.085,-41.0405 567.27,-41.8145 578.274,-42.5761"/>
<polygon fill="midnightblue" stroke="midnightblue" points="545.037,-36.7677 534.82,-39.5688 544.554,-43.751 545.037,-36.7677"/>
</g>
<!-- Node5 -->
<g id="node9" class="node"><title>Node5</title>
<a xlink:href="classZendDbSchema__Db__Schema__AbstractEntity.html#a5b1c93da76c3708f90d330b4643e55b2" target="_top" xlink:title="ZendDbSchema_Db_Schema_AbstractEntity\\save">
<polygon fill="white" stroke="black" points="581,-0.5 581,-21.5 819,-21.5 819,-0.5 581,-0.5"/>
<text text-anchor="middle" x="700" y="-8.5" font-family="Helvetica,sans-Serif" font-size="10.00">ZendDbSchema_Db_Schema_AbstractEntity\save</text>
</a>
</g>
<!-- Node3&#45;&gt;Node5 -->
<g id="edge8" class="edge"><title>Node3&#45;&gt;Node5</title>
<path fill="none" stroke="midnightblue" d="M544.81,-21.7398C556.74,-20.9142 568.767,-20.0818 580.565,-19.2654"/>
<polygon fill="midnightblue" stroke="midnightblue" points="544.554,-18.249 534.82,-22.4312 545.037,-25.2323 544.554,-18.249"/>
</g>
</g>
</svg>
