<?xml version="1.0" encoding="UTF-8" standalone="no"?>
<!DOCTYPE svg PUBLIC "-//W3C//DTD SVG 1.1//EN"
 "http://www.w3.org/Graphics/SVG/1.1/DTD/svg11.dtd">
<!-- Generated by graphviz version 2.26.3 (20100126.1600)
 -->
<!-- Title: G Pages: 1 -->
<svg width="604pt" height="70pt"
 viewBox="0.00 0.00 604.00 70.00" xmlns="http://www.w3.org/2000/svg" xmlns:xlink="http://www.w3.org/1999/xlink">
<g id="graph1" class="graph" transform="scale(1 1) rotate(0) translate(4 66)">
<title>G</title>
<polygon fill="white" stroke="white" points="-4,5 -4,-66 601,-66 601,5 -4,5"/>
<!-- Node1 -->
<g id="node1" class="node"><title>Node1</title>
<polygon fill="#bfbfbf" stroke="black" points="0,-20.5 0,-41.5 276,-41.5 276,-20.5 0,-20.5"/>
<text text-anchor="middle" x="138" y="-28.5" font-family="Helvetica,sans-Serif" font-size="10.00">ZendDbSchema_Db_Schema_AbstractSchema\getDropSql</text>
</g>
<!-- Node2 -->
<g id="node3" class="node"><title>Node2</title>
<a xlink:href="classZendDbSchema__Db__Schema__AbstractEntity.html#a26fcff2268495fcdbfa265f394ee93d9" target="_top" xlink:title="ZendDbSchema_Db_Schema_AbstractEntity\\delete">
<polygon fill="white" stroke="black" points="332.5,-40.5 332.5,-61.5 575.5,-61.5 575.5,-40.5 332.5,-40.5"/>
<text text-anchor="middle" x="454" y="-48.5" font-family="Helvetica,sans-Serif" font-size="10.00">ZendDbSchema_Db_Schema_AbstractEntity\delete</text>
</a>
</g>
<!-- Node1&#45;&gt;Node2 -->
<g id="edge2" class="edge"><title>Node1&#45;&gt;Node2</title>
<path fill="none" stroke="midnightblue" d="M286.289,-40.3854C301.767,-41.365 317.37,-42.3525 332.5,-43.3101"/>
<polygon fill="midnightblue" stroke="midnightblue" points="286.344,-36.8819 276.143,-39.7432 285.901,-43.8679 286.344,-36.8819"/>
</g>
<!-- Node3 -->
<g id="node5" class="node"><title>Node3</title>
<a xlink:href="classZendDbSchema__Db__Schema__Table__AbstractDefinition.html#a75c1b3ef1005c2d6aa371ecef07d530d" target="_top" xlink:title="ZendDbSchema_Db_Schema_Table_AbstractDefinition\\toSql">
<polygon fill="white" stroke="black" points="312,-0.5 312,-21.5 596,-21.5 596,-0.5 312,-0.5"/>
<text text-anchor="middle" x="454" y="-8.5" font-family="Helvetica,sans-Serif" font-size="10.00">ZendDbSchema_Db_Schema_Table_AbstractDefinition\toSql</text>
</a>
</g>
<!-- Node1&#45;&gt;Node3 -->
<g id="edge4" class="edge"><title>Node1&#45;&gt;Node3</title>
<path fill="none" stroke="midnightblue" d="M286.399,-21.6077C294.828,-21.0742 303.293,-20.5384 311.698,-20.0065"/>
<polygon fill="midnightblue" stroke="midnightblue" points="285.901,-18.1321 276.143,-22.2568 286.344,-25.1181 285.901,-18.1321"/>
</g>
</g>
</svg>
