<?xml version="1.0" encoding="UTF-8" standalone="no"?>
<!DOCTYPE svg PUBLIC "-//W3C//DTD SVG 1.1//EN"
 "http://www.w3.org/Graphics/SVG/1.1/DTD/svg11.dtd">
<!-- Generated by graphviz version 2.26.3 (20100126.1600)
 -->
<!-- Title: G Pages: 1 -->
<svg width="1944pt" height="210pt"
 viewBox="0.00 0.00 1944.00 210.48" xmlns="http://www.w3.org/2000/svg" xmlns:xlink="http://www.w3.org/1999/xlink">
<g id="graph1" class="graph" transform="scale(1 1) rotate(0) translate(4 206.476)">
<title>G</title>
<polygon fill="white" stroke="white" points="-4,5 -4,-206.476 1941,-206.476 1941,5 -4,5"/>
<!-- Node1 -->
<g id="node1" class="node"><title>Node1</title>
<polygon fill="#bfbfbf" stroke="black" points="0.5,-98.5 0.5,-119.5 311.5,-119.5 311.5,-98.5 0.5,-98.5"/>
<text text-anchor="middle" x="156" y="-106.5" font-family="Helvetica,sans-Serif" font-size="10.00">ZendDbSchema_Db_Schema_Generator_Mysql\generateIndexAlter</text>
</g>
<!-- Node2 -->
<g id="node3" class="node"><title>Node2</title>
<a xlink:href="classZendDbSchema__Db__Schema__Generator__Mysql.html#aa07a714e7f2d8de324512a5b5d67d200" target="_top" xlink:title="ZendDbSchema_Db_Schema_Generator_Mysql\\generateIndexCreate">
<polygon fill="white" stroke="black" points="348,-98.5 348,-119.5 668,-119.5 668,-98.5 348,-98.5"/>
<text text-anchor="middle" x="508" y="-106.5" font-family="Helvetica,sans-Serif" font-size="10.00">ZendDbSchema_Db_Schema_Generator_Mysql\generateIndexCreate</text>
</a>
</g>
<!-- Node1&#45;&gt;Node2 -->
<g id="edge2" class="edge"><title>Node1&#45;&gt;Node2</title>
<path fill="none" stroke="midnightblue" d="M311.673,-109C320.337,-109 329.068,-109 337.779,-109"/>
<polygon fill="midnightblue" stroke="midnightblue" points="337.992,-112.5 347.992,-109 337.992,-105.5 337.992,-112.5"/>
</g>
<!-- Node3 -->
<g id="node5" class="node"><title>Node3</title>
<a xlink:href="classZendDbSchema__Db__Schema__AbstractSchema.html#a55787c21deddba427842809d589c2df6" target="_top" xlink:title="ZendDbSchema_Db_Schema_AbstractSchema\\getName">
<polygon fill="white" stroke="black" points="1068.5,-159.5 1068.5,-180.5 1335.5,-180.5 1335.5,-159.5 1068.5,-159.5"/>
<text text-anchor="middle" x="1202" y="-167.5" font-family="Helvetica,sans-Serif" font-size="10.00">ZendDbSchema_Db_Schema_AbstractSchema\getName</text>
</a>
</g>
<!-- Node2&#45;&gt;Node3 -->
<g id="edge4" class="edge"><title>Node2&#45;&gt;Node3</title>
<path fill="none" stroke="midnightblue" d="M527.279,-119.554C561.585,-137.665 636.019,-173.97 704,-187 854.577,-215.861 1035.34,-196.614 1132.33,-182.036"/>
<polygon fill="midnightblue" stroke="midnightblue" points="1132.96,-185.482 1142.31,-180.508 1131.9,-178.562 1132.96,-185.482"/>
</g>
<!-- Node6 -->
<g id="node11" class="node"><title>Node6</title>
<a xlink:href="classZendDbSchema__Db__Schema__Table__AbstractDefinition.html#a224b6a0c1df1d6ed40e03657782ef6fc" target="_top" xlink:title="ZendDbSchema_Db_Schema_Table_AbstractDefinition\\getTable">
<polygon fill="white" stroke="black" points="1052.5,-119.5 1052.5,-140.5 1351.5,-140.5 1351.5,-119.5 1052.5,-119.5"/>
<text text-anchor="middle" x="1202" y="-127.5" font-family="Helvetica,sans-Serif" font-size="10.00">ZendDbSchema_Db_Schema_Table_AbstractDefinition\getTable</text>
</a>
</g>
<!-- Node2&#45;&gt;Node6 -->
<g id="edge10" class="edge"><title>Node2&#45;&gt;Node6</title>
<path fill="none" stroke="midnightblue" d="M668.089,-113.844C780.387,-117.242 929.912,-121.767 1042.16,-125.163"/>
<polygon fill="midnightblue" stroke="midnightblue" points="1042.11,-128.663 1052.22,-125.468 1042.33,-121.667 1042.11,-128.663"/>
</g>
<!-- Node7 -->
<g id="node13" class="node"><title>Node7</title>
<a xlink:href="classZendDbSchema__Db__Schema__Table__Index.html#ad0edf2869c08ce408566798f4305b8dc" target="_top" xlink:title="ZendDbSchema_Db_Schema_Table_Index\\getColumns">
<polygon fill="white" stroke="black" points="1072,-79.5 1072,-100.5 1332,-100.5 1332,-79.5 1072,-79.5"/>
<text text-anchor="middle" x="1202" y="-87.5" font-family="Helvetica,sans-Serif" font-size="10.00">ZendDbSchema_Db_Schema_Table_Index\getColumns</text>
</a>
</g>
<!-- Node2&#45;&gt;Node7 -->
<g id="edge12" class="edge"><title>Node2&#45;&gt;Node7</title>
<path fill="none" stroke="midnightblue" d="M668.089,-104.617C786.993,-101.362 947.632,-96.964 1061.56,-93.8449"/>
<polygon fill="midnightblue" stroke="midnightblue" points="1061.85,-97.3385 1071.75,-93.566 1061.66,-90.3411 1061.85,-97.3385"/>
</g>
<!-- Node8 -->
<g id="node16" class="node"><title>Node8</title>
<a xlink:href="classZendDbSchema__Db__Schema__Table__AbstractDefinition.html#a630d65e68b1bb78943849de330e499e1" target="_top" xlink:title="ZendDbSchema_Db_Schema_Table_AbstractDefinition\\getType">
<polygon fill="white" stroke="black" points="711.5,-40.5 711.5,-61.5 1008.5,-61.5 1008.5,-40.5 711.5,-40.5"/>
<text text-anchor="middle" x="860" y="-48.5" font-family="Helvetica,sans-Serif" font-size="10.00">ZendDbSchema_Db_Schema_Table_AbstractDefinition\getType</text>
</a>
</g>
<!-- Node2&#45;&gt;Node8 -->
<g id="edge16" class="edge"><title>Node2&#45;&gt;Node8</title>
<path fill="none" stroke="midnightblue" d="M569.772,-98.4712C608.348,-91.928 659.054,-83.3851 704,-76 729.925,-71.7403 758.289,-67.1683 783.638,-63.114"/>
<polygon fill="midnightblue" stroke="midnightblue" points="784.238,-66.5627 793.561,-61.5288 783.134,-59.6503 784.238,-66.5627"/>
</g>
<!-- Node9 -->
<g id="node19" class="node"><title>Node9</title>
<a xlink:href="classZendDbSchema__Db__Schema__AbstractSchema.html#a1680a8fd22360f74d29b641d7257a52f" target="_top" xlink:title="ZendDbSchema_Db_Schema_AbstractSchema\\isExist">
<polygon fill="white" stroke="black" points="731.5,-0.5 731.5,-21.5 988.5,-21.5 988.5,-0.5 731.5,-0.5"/>
<text text-anchor="middle" x="860" y="-8.5" font-family="Helvetica,sans-Serif" font-size="10.00">ZendDbSchema_Db_Schema_AbstractSchema\isExist</text>
</a>
</g>
<!-- Node2&#45;&gt;Node9 -->
<g id="edge20" class="edge"><title>Node2&#45;&gt;Node9</title>
<path fill="none" stroke="midnightblue" d="M529.442,-98.3825C564.863,-81.3253 638.229,-48.0135 704,-31 715.681,-27.9784 727.977,-25.4041 740.328,-23.2126"/>
<polygon fill="midnightblue" stroke="midnightblue" points="740.959,-26.6557 750.235,-21.5359 739.791,-19.7538 740.959,-26.6557"/>
</g>
<!-- Node11 -->
<g id="node23" class="node"><title>Node11</title>
<a xlink:href="classZendDbSchema__Db__Schema__Generator__Mysql.html#a36c7e3f32e391e1a0a767faa8d4ae078" target="_top" xlink:title="ZendDbSchema_Db_Schema_Generator_Mysql\\generateIndexDrop">
<polygon fill="white" stroke="black" points="704.5,-156.5 704.5,-177.5 1015.5,-177.5 1015.5,-156.5 704.5,-156.5"/>
<text text-anchor="middle" x="860" y="-164.5" font-family="Helvetica,sans-Serif" font-size="10.00">ZendDbSchema_Db_Schema_Generator_Mysql\generateIndexDrop</text>
</a>
</g>
<!-- Node2&#45;&gt;Node11 -->
<g id="edge24" class="edge"><title>Node2&#45;&gt;Node11</title>
<path fill="none" stroke="midnightblue" d="M569.772,-119.529C608.348,-126.072 659.054,-134.615 704,-142 729.925,-146.26 758.289,-150.832 783.638,-154.886"/>
<polygon fill="midnightblue" stroke="midnightblue" points="783.134,-158.35 793.561,-156.471 784.238,-151.437 783.134,-158.35"/>
</g>
<!-- Node4 -->
<g id="node7" class="node"><title>Node4</title>
<a xlink:href="classZendDbSchema__Db__Schema__AbstractSchema.html#a54d32c6f15463eaad2321a9f0e7225d7" target="_top" xlink:title="ZendDbSchema_Db_Schema_AbstractSchema\\__get">
<polygon fill="white" stroke="black" points="1388.5,-79.5 1388.5,-100.5 1639.5,-100.5 1639.5,-79.5 1388.5,-79.5"/>
<text text-anchor="middle" x="1514" y="-87.5" font-family="Helvetica,sans-Serif" font-size="10.00">ZendDbSchema_Db_Schema_AbstractSchema\__get</text>
</a>
</g>
<!-- Node3&#45;&gt;Node4 -->
<g id="edge6" class="edge"><title>Node3&#45;&gt;Node4</title>
<path fill="none" stroke="midnightblue" d="M1304.24,-159.468C1320.34,-156.921 1336.7,-153.803 1352,-150 1398.03,-138.559 1449.01,-118.357 1481.26,-104.584"/>
<polygon fill="midnightblue" stroke="midnightblue" points="1482.85,-107.711 1490.64,-100.533 1480.07,-101.284 1482.85,-107.711"/>
</g>
<!-- Node5 -->
<g id="node9" class="node"><title>Node5</title>
<a xlink:href="classZendDbSchema__Db__Schema__AbstractSchema.html#ac4e121ba7932163eb1950fabe06fb9db" target="_top" xlink:title="ZendDbSchema_Db_Schema_AbstractSchema\\__isset">
<polygon fill="white" stroke="black" points="1676.5,-79.5 1676.5,-100.5 1935.5,-100.5 1935.5,-79.5 1676.5,-79.5"/>
<text text-anchor="middle" x="1806" y="-87.5" font-family="Helvetica,sans-Serif" font-size="10.00">ZendDbSchema_Db_Schema_AbstractSchema\__isset</text>
</a>
</g>
<!-- Node4&#45;&gt;Node5 -->
<g id="edge8" class="edge"><title>Node4&#45;&gt;Node5</title>
<path fill="none" stroke="midnightblue" d="M1639.53,-90C1648.4,-90 1657.38,-90 1666.32,-90"/>
<polygon fill="midnightblue" stroke="midnightblue" points="1666.4,-93.5001 1676.4,-90 1666.4,-86.5001 1666.4,-93.5001"/>
</g>
<!-- Node7&#45;&gt;Node4 -->
<g id="edge14" class="edge"><title>Node7&#45;&gt;Node4</title>
<path fill="none" stroke="midnightblue" d="M1332.06,-90C1347.28,-90 1362.85,-90 1378.15,-90"/>
<polygon fill="midnightblue" stroke="midnightblue" points="1378.16,-93.5001 1388.16,-90 1378.16,-86.5001 1378.16,-93.5001"/>
</g>
<!-- Node8&#45;&gt;Node4 -->
<g id="edge18" class="edge"><title>Node8&#45;&gt;Node4</title>
<path fill="none" stroke="midnightblue" d="M1008.75,-53.4855C1106.45,-55.9206 1236.98,-60.6955 1352,-70 1377.2,-72.0384 1404.51,-75.0847 1429.4,-78.1891"/>
<polygon fill="midnightblue" stroke="midnightblue" points="1429.17,-81.6887 1439.53,-79.4731 1430.05,-74.7442 1429.17,-81.6887"/>
</g>
<!-- Node10 -->
<g id="node21" class="node"><title>Node10</title>
<a xlink:href="classZendDbSchema__Db__Schema__AbstractSchema.html#a219012c80be57ace4b1db43a9c48eb3d" target="_top" xlink:title="ZendDbSchema_Db_Schema_AbstractSchema\\getSchema">
<polygon fill="white" stroke="black" points="1063.5,-0.5 1063.5,-21.5 1340.5,-21.5 1340.5,-0.5 1063.5,-0.5"/>
<text text-anchor="middle" x="1202" y="-8.5" font-family="Helvetica,sans-Serif" font-size="10.00">ZendDbSchema_Db_Schema_AbstractSchema\getSchema</text>
</a>
</g>
<!-- Node9&#45;&gt;Node10 -->
<g id="edge22" class="edge"><title>Node9&#45;&gt;Node10</title>
<path fill="none" stroke="midnightblue" d="M988.808,-11C1009.81,-11 1031.72,-11 1053.16,-11"/>
<polygon fill="midnightblue" stroke="midnightblue" points="1053.31,-14.5001 1063.31,-11 1053.31,-7.5001 1053.31,-14.5001"/>
</g>
<!-- Node11&#45;&gt;Node3 -->
<g id="edge26" class="edge"><title>Node11&#45;&gt;Node3</title>
<path fill="none" stroke="midnightblue" d="M1015.99,-168.368C1030.09,-168.492 1044.34,-168.617 1058.33,-168.74"/>
<polygon fill="midnightblue" stroke="midnightblue" points="1058.44,-172.241 1068.47,-168.829 1058.5,-165.241 1058.44,-172.241"/>
</g>
<!-- Node11&#45;&gt;Node6 -->
<g id="edge28" class="edge"><title>Node11&#45;&gt;Node6</title>
<path fill="none" stroke="midnightblue" d="M957.089,-156.496C999.96,-151.858 1050.51,-146.39 1094.51,-141.629"/>
<polygon fill="midnightblue" stroke="midnightblue" points="1095.1,-145.085 1104.67,-140.53 1094.35,-138.126 1095.1,-145.085"/>
</g>
</g>
</svg>
