<?xml version="1.0" encoding="UTF-8" standalone="no"?>
<!DOCTYPE svg PUBLIC "-//W3C//DTD SVG 1.1//EN"
 "http://www.w3.org/Graphics/SVG/1.1/DTD/svg11.dtd">
<!-- Generated by graphviz version 2.26.3 (20100126.1600)
 -->
<!-- Title: G Pages: 1 -->
<svg width="746pt" height="150pt"
 viewBox="0.00 0.00 746.00 150.00" xmlns="http://www.w3.org/2000/svg" xmlns:xlink="http://www.w3.org/1999/xlink">
<g id="graph1" class="graph" transform="scale(1 1) rotate(0) translate(4 146)">
<title>G</title>
<polygon fill="white" stroke="white" points="-4,5 -4,-146 743,-146 743,5 -4,5"/>
<!-- Node1 -->
<g id="node1" class="node"><title>Node1</title>
<polygon fill="#bfbfbf" stroke="black" points="0,-60.5 0,-81.5 212,-81.5 212,-60.5 0,-60.5"/>
<text text-anchor="middle" x="106" y="-68.5" font-family="Helvetica,sans-Serif" font-size="10.00">ZendDbSchema_Db_Schema_Table\__clone</text>
</g>
<!-- Node2 -->
<g id="node3" class="node"><title>Node2</title>
<a xlink:href="classZendDbSchema__Db__Schema__Table.html#aad47d08cebd042ad8e64d825b65859ab" target="_top" xlink:title="ZendDbSchema_Db_Schema_Table\\toArray">
<polygon fill="white" stroke="black" points="262,-80.5 262,-101.5 472,-101.5 472,-80.5 262,-80.5"/>
<text text-anchor="middle" x="367" y="-88.5" font-family="Helvetica,sans-Serif" font-size="10.00">ZendDbSchema_Db_Schema_Table\toArray</text>
</a>
</g>
<!-- Node1&#45;&gt;Node2 -->
<g id="edge2" class="edge"><title>Node1&#45;&gt;Node2</title>
<path fill="none" stroke="midnightblue" d="M212.159,-79.1348C225.205,-80.1344 238.587,-81.1599 251.759,-82.1693"/>
<polygon fill="midnightblue" stroke="midnightblue" points="251.543,-85.6629 261.782,-82.9373 252.078,-78.6834 251.543,-85.6629"/>
</g>
<!-- Node7 -->
<g id="node13" class="node"><title>Node7</title>
<a xlink:href="classZendDbSchema__Db__Schema__Table.html#abeba5309be6269e72b2818fcabc01fec" target="_top" xlink:title="ZendDbSchema_Db_Schema_Table\\setFromArray">
<polygon fill="white" stroke="black" points="248,-40.5 248,-61.5 486,-61.5 486,-40.5 248,-40.5"/>
<text text-anchor="middle" x="367" y="-48.5" font-family="Helvetica,sans-Serif" font-size="10.00">ZendDbSchema_Db_Schema_Table\setFromArray</text>
</a>
</g>
<!-- Node1&#45;&gt;Node7 -->
<g id="edge12" class="edge"><title>Node1&#45;&gt;Node7</title>
<path fill="none" stroke="midnightblue" d="M212.159,-62.8652C220.578,-62.2201 229.138,-61.5642 237.69,-60.9088"/>
<polygon fill="midnightblue" stroke="midnightblue" points="238.015,-64.3943 247.718,-60.1403 237.48,-57.4147 238.015,-64.3943"/>
</g>
<!-- Node3 -->
<g id="node5" class="node"><title>Node3</title>
<a xlink:href="classZendDbSchema__Db__Schema__Table.html#a214354faa96de67a26b787c2c8741850" target="_top" xlink:title="ZendDbSchema_Db_Schema_Table\\columns">
<polygon fill="white" stroke="black" points="522.5,-40.5 522.5,-61.5 737.5,-61.5 737.5,-40.5 522.5,-40.5"/>
<text text-anchor="middle" x="630" y="-48.5" font-family="Helvetica,sans-Serif" font-size="10.00">ZendDbSchema_Db_Schema_Table\columns</text>
</a>
</g>
<!-- Node2&#45;&gt;Node3 -->
<g id="edge4" class="edge"><title>Node2&#45;&gt;Node3</title>
<path fill="none" stroke="midnightblue" d="M436.1,-80.4905C471.296,-75.1375 514.255,-68.6038 550.784,-63.048"/>
<polygon fill="midnightblue" stroke="midnightblue" points="551.545,-66.4726 560.905,-61.5087 550.493,-59.5522 551.545,-66.4726"/>
</g>
<!-- Node4 -->
<g id="node7" class="node"><title>Node4</title>
<a xlink:href="classZendDbSchema__Db__Schema__Table.html#a9d445dd6a92cc3a50aa6d8dad8395f0a" target="_top" xlink:title="ZendDbSchema_Db_Schema_Table\\primary">
<polygon fill="white" stroke="black" points="524.5,-0.5 524.5,-21.5 735.5,-21.5 735.5,-0.5 524.5,-0.5"/>
<text text-anchor="middle" x="630" y="-8.5" font-family="Helvetica,sans-Serif" font-size="10.00">ZendDbSchema_Db_Schema_Table\primary</text>
</a>
</g>
<!-- Node2&#45;&gt;Node4 -->
<g id="edge6" class="edge"><title>Node2&#45;&gt;Node4</title>
<path fill="none" stroke="midnightblue" d="M464.039,-80.4269C471.692,-77.8849 479.114,-74.7819 486,-71 506.964,-59.4862 501.132,-42.6874 522,-31 525.944,-28.7913 530.083,-26.8202 534.347,-25.0616"/>
<polygon fill="midnightblue" stroke="midnightblue" points="535.694,-28.2953 543.857,-21.5413 533.264,-21.7306 535.694,-28.2953"/>
</g>
<!-- Node5 -->
<g id="node9" class="node"><title>Node5</title>
<a xlink:href="classZendDbSchema__Db__Schema__Table.html#a47df29d95af8f655dd7506cfb649ec40" target="_top" xlink:title="ZendDbSchema_Db_Schema_Table\\indexes">
<polygon fill="white" stroke="black" points="524,-120.5 524,-141.5 736,-141.5 736,-120.5 524,-120.5"/>
<text text-anchor="middle" x="630" y="-128.5" font-family="Helvetica,sans-Serif" font-size="10.00">ZendDbSchema_Db_Schema_Table\indexes</text>
</a>
</g>
<!-- Node2&#45;&gt;Node5 -->
<g id="edge8" class="edge"><title>Node2&#45;&gt;Node5</title>
<path fill="none" stroke="midnightblue" d="M436.1,-101.51C471.296,-106.862 514.255,-113.396 550.784,-118.952"/>
<polygon fill="midnightblue" stroke="midnightblue" points="550.493,-122.448 560.905,-120.491 551.545,-115.527 550.493,-122.448"/>
</g>
<!-- Node6 -->
<g id="node11" class="node"><title>Node6</title>
<a xlink:href="classZendDbSchema__Db__Schema__Table.html#acff371c2884c9688b5ede2deaf09f25c" target="_top" xlink:title="ZendDbSchema_Db_Schema_Table\\foreigns">
<polygon fill="white" stroke="black" points="523.5,-80.5 523.5,-101.5 736.5,-101.5 736.5,-80.5 523.5,-80.5"/>
<text text-anchor="middle" x="630" y="-88.5" font-family="Helvetica,sans-Serif" font-size="10.00">ZendDbSchema_Db_Schema_Table\foreigns</text>
</a>
</g>
<!-- Node2&#45;&gt;Node6 -->
<g id="edge10" class="edge"><title>Node2&#45;&gt;Node6</title>
<path fill="none" stroke="midnightblue" d="M472.078,-91C485.532,-91 499.371,-91 512.999,-91"/>
<polygon fill="midnightblue" stroke="midnightblue" points="513.37,-94.5001 523.37,-91 513.37,-87.5001 513.37,-94.5001"/>
</g>
<!-- Node7&#45;&gt;Node3 -->
<g id="edge14" class="edge"><title>Node7&#45;&gt;Node3</title>
<path fill="none" stroke="midnightblue" d="M486.188,-51C494.882,-51 503.648,-51 512.334,-51"/>
<polygon fill="midnightblue" stroke="midnightblue" points="512.483,-54.5001 522.482,-51 512.482,-47.5001 512.483,-54.5001"/>
</g>
<!-- Node7&#45;&gt;Node4 -->
<g id="edge20" class="edge"><title>Node7&#45;&gt;Node4</title>
<path fill="none" stroke="midnightblue" d="M436.1,-40.4905C471.296,-35.1375 514.255,-28.6038 550.784,-23.048"/>
<polygon fill="midnightblue" stroke="midnightblue" points="551.545,-26.4726 560.905,-21.5087 550.493,-19.5522 551.545,-26.4726"/>
</g>
<!-- Node7&#45;&gt;Node5 -->
<g id="edge16" class="edge"><title>Node7&#45;&gt;Node5</title>
<path fill="none" stroke="midnightblue" d="M464.039,-61.5731C471.692,-64.1151 479.114,-67.2181 486,-71 506.964,-82.5138 501.132,-99.3126 522,-111 525.944,-113.209 530.083,-115.18 534.347,-116.938"/>
<polygon fill="midnightblue" stroke="midnightblue" points="533.264,-120.269 543.857,-120.459 535.694,-113.705 533.264,-120.269"/>
</g>
<!-- Node7&#45;&gt;Node6 -->
<g id="edge18" class="edge"><title>Node7&#45;&gt;Node6</title>
<path fill="none" stroke="midnightblue" d="M436.1,-61.5095C471.296,-66.8625 514.255,-73.3962 550.784,-78.952"/>
<polygon fill="midnightblue" stroke="midnightblue" points="550.493,-82.4478 560.905,-80.4913 551.545,-75.5274 550.493,-82.4478"/>
</g>
</g>
</svg>
