<?xml version="1.0" encoding="UTF-8" standalone="no"?>
<!DOCTYPE svg PUBLIC "-//W3C//DTD SVG 1.1//EN"
 "http://www.w3.org/Graphics/SVG/1.1/DTD/svg11.dtd">
<!-- Generated by graphviz version 2.26.3 (20100126.1600)
 -->
<!-- Title: G Pages: 1 -->
<svg width="1186pt" height="268pt"
 viewBox="0.00 0.00 1186.00 268.00" xmlns="http://www.w3.org/2000/svg" xmlns:xlink="http://www.w3.org/1999/xlink">
<g id="graph1" class="graph" transform="scale(1 1) rotate(0) translate(4 264)">
<title>G</title>
<polygon fill="white" stroke="white" points="-4,5 -4,-264 1183,-264 1183,5 -4,5"/>
<!-- Node1 -->
<g id="node1" class="node"><title>Node1</title>
<polygon fill="#bfbfbf" stroke="black" points="0.5,-99.5 0.5,-120.5 201.5,-120.5 201.5,-99.5 0.5,-99.5"/>
<text text-anchor="middle" x="101" y="-107.5" font-family="Helvetica,sans-Serif" font-size="10.00">ZendDbSchema_Db_Schema_Table\toSql</text>
</g>
<!-- Node2 -->
<g id="node3" class="node"><title>Node2</title>
<a xlink:href="classZendDbSchema__Db__Schema__AbstractSchema.html#a1680a8fd22360f74d29b641d7257a52f" target="_top" xlink:title="ZendDbSchema_Db_Schema_AbstractSchema\\isExist">
<polygon fill="white" stroke="black" points="238.5,-227.5 238.5,-248.5 495.5,-248.5 495.5,-227.5 238.5,-227.5"/>
<text text-anchor="middle" x="367" y="-235.5" font-family="Helvetica,sans-Serif" font-size="10.00">ZendDbSchema_Db_Schema_AbstractSchema\isExist</text>
</a>
</g>
<!-- Node1&#45;&gt;Node2 -->
<g id="edge2" class="edge"><title>Node1&#45;&gt;Node2</title>
<path fill="none" stroke="midnightblue" d="M113.362,-120.509C136.402,-139.591 188.106,-180.078 238,-203 258.297,-212.325 281.568,-219.586 302.707,-225.016"/>
<polygon fill="midnightblue" stroke="midnightblue" points="302.022,-228.452 312.57,-227.459 303.705,-221.657 302.022,-228.452"/>
</g>
<!-- Node5 -->
<g id="node9" class="node"><title>Node5</title>
<a xlink:href="classZendDbSchema__Db__Schema__Table.html#a21a2a75870207a989576655fec7507c3" target="_top" xlink:title="ZendDbSchema_Db_Schema_Table\\isDirty">
<polygon fill="white" stroke="black" points="263.5,-119.5 263.5,-140.5 470.5,-140.5 470.5,-119.5 263.5,-119.5"/>
<text text-anchor="middle" x="367" y="-127.5" font-family="Helvetica,sans-Serif" font-size="10.00">ZendDbSchema_Db_Schema_Table\isDirty</text>
</a>
</g>
<!-- Node1&#45;&gt;Node5 -->
<g id="edge8" class="edge"><title>Node1&#45;&gt;Node5</title>
<path fill="none" stroke="midnightblue" d="M201.563,-117.561C218.412,-118.828 236.001,-120.15 253.155,-121.44"/>
<polygon fill="midnightblue" stroke="midnightblue" points="252.962,-124.936 263.196,-122.195 253.487,-117.955 252.962,-124.936"/>
</g>
<!-- Node8 -->
<g id="node17" class="node"><title>Node8</title>
<a xlink:href="classZendDbSchema__Db__Schema__Table.html#a214354faa96de67a26b787c2c8741850" target="_top" xlink:title="ZendDbSchema_Db_Schema_Table\\columns">
<polygon fill="white" stroke="black" points="575.5,-198.5 575.5,-219.5 790.5,-219.5 790.5,-198.5 575.5,-198.5"/>
<text text-anchor="middle" x="683" y="-206.5" font-family="Helvetica,sans-Serif" font-size="10.00">ZendDbSchema_Db_Schema_Table\columns</text>
</a>
</g>
<!-- Node1&#45;&gt;Node8 -->
<g id="edge26" class="edge"><title>Node1&#45;&gt;Node8</title>
<path fill="none" stroke="midnightblue" d="M131.943,-120.503C159.488,-129.498 201.028,-142.199 238,-150 347.881,-173.184 475.054,-188.962 565.238,-198.325"/>
<polygon fill="midnightblue" stroke="midnightblue" points="564.916,-201.811 575.222,-199.351 565.632,-194.847 564.916,-201.811"/>
</g>
<!-- Node9 -->
<g id="node19" class="node"><title>Node9</title>
<a xlink:href="classZendDbSchema__Db__Schema__Table.html#a47df29d95af8f655dd7506cfb649ec40" target="_top" xlink:title="ZendDbSchema_Db_Schema_Table\\indexes">
<polygon fill="white" stroke="black" points="577,-80.5 577,-101.5 789,-101.5 789,-80.5 577,-80.5"/>
<text text-anchor="middle" x="683" y="-88.5" font-family="Helvetica,sans-Serif" font-size="10.00">ZendDbSchema_Db_Schema_Table\indexes</text>
</a>
</g>
<!-- Node1&#45;&gt;Node9 -->
<g id="edge28" class="edge"><title>Node1&#45;&gt;Node9</title>
<path fill="none" stroke="midnightblue" d="M201.712,-106.712C303.199,-103.399 459.672,-98.2908 566.46,-94.8046"/>
<polygon fill="midnightblue" stroke="midnightblue" points="566.755,-98.2969 576.636,-94.4724 566.527,-91.3006 566.755,-98.2969"/>
</g>
<!-- Node10 -->
<g id="node21" class="node"><title>Node10</title>
<a xlink:href="classZendDbSchema__Db__Schema__Table.html#acff371c2884c9688b5ede2deaf09f25c" target="_top" xlink:title="ZendDbSchema_Db_Schema_Table\\foreigns">
<polygon fill="white" stroke="black" points="576.5,-40.5 576.5,-61.5 789.5,-61.5 789.5,-40.5 576.5,-40.5"/>
<text text-anchor="middle" x="683" y="-48.5" font-family="Helvetica,sans-Serif" font-size="10.00">ZendDbSchema_Db_Schema_Table\foreigns</text>
</a>
</g>
<!-- Node1&#45;&gt;Node10 -->
<g id="edge32" class="edge"><title>Node1&#45;&gt;Node10</title>
<path fill="none" stroke="midnightblue" d="M188.673,-99.4976C205.06,-97.6094 222.046,-95.7022 238,-94 349.286,-82.126 476.386,-69.9862 566.179,-61.6471"/>
<polygon fill="midnightblue" stroke="midnightblue" points="566.758,-65.1086 576.392,-60.7001 566.111,-58.1385 566.758,-65.1086"/>
</g>
<!-- Node11 -->
<g id="node23" class="node"><title>Node11</title>
<a xlink:href="classZendDbSchema__Db__Schema__Table.html#a9d445dd6a92cc3a50aa6d8dad8395f0a" target="_top" xlink:title="ZendDbSchema_Db_Schema_Table\\primary">
<polygon fill="white" stroke="black" points="577.5,-0.5 577.5,-21.5 788.5,-21.5 788.5,-0.5 577.5,-0.5"/>
<text text-anchor="middle" x="683" y="-8.5" font-family="Helvetica,sans-Serif" font-size="10.00">ZendDbSchema_Db_Schema_Table\primary</text>
</a>
</g>
<!-- Node1&#45;&gt;Node11 -->
<g id="edge30" class="edge"><title>Node1&#45;&gt;Node11</title>
<path fill="none" stroke="midnightblue" d="M127.853,-99.434C155.16,-89.1066 198.901,-73.7047 238,-65 348.378,-40.4262 476.817,-26.3515 567.256,-18.7742"/>
<polygon fill="midnightblue" stroke="midnightblue" points="567.585,-22.2591 577.264,-17.9493 567.01,-15.2827 567.585,-22.2591"/>
</g>
<!-- Node3 -->
<g id="node5" class="node"><title>Node3</title>
<a xlink:href="classZendDbSchema__Db__Schema__AbstractSchema.html#a46da7a60c7e5fd605607afbc1dac4baa" target="_top" xlink:title="ZendDbSchema_Db_Schema_AbstractSchema\\getCleanSchema">
<polygon fill="white" stroke="black" points="532,-238.5 532,-259.5 834,-259.5 834,-238.5 532,-238.5"/>
<text text-anchor="middle" x="683" y="-246.5" font-family="Helvetica,sans-Serif" font-size="10.00">ZendDbSchema_Db_Schema_AbstractSchema\getCleanSchema</text>
</a>
</g>
<!-- Node2&#45;&gt;Node3 -->
<g id="edge4" class="edge"><title>Node2&#45;&gt;Node3</title>
<path fill="none" stroke="midnightblue" d="M495.529,-242.474C504.126,-242.773 512.844,-243.077 521.576,-243.381"/>
<polygon fill="midnightblue" stroke="midnightblue" points="521.71,-246.888 531.826,-243.738 521.954,-239.892 521.71,-246.888"/>
</g>
<!-- Node4 -->
<g id="node7" class="node"><title>Node4</title>
<a xlink:href="classZendDbSchema__Db__Schema__AbstractSchema.html#af99e5bb9adfe0da8c94d3d3848efe7b5" target="_top" xlink:title="ZendDbSchema_Db_Schema_AbstractSchema\\_getCleanSchema">
<polygon fill="white" stroke="black" points="870,-238.5 870,-259.5 1178,-259.5 1178,-238.5 870,-238.5"/>
<text text-anchor="middle" x="1024" y="-246.5" font-family="Helvetica,sans-Serif" font-size="10.00">ZendDbSchema_Db_Schema_AbstractSchema\_getCleanSchema</text>
</a>
</g>
<!-- Node3&#45;&gt;Node4 -->
<g id="edge6" class="edge"><title>Node3&#45;&gt;Node4</title>
<path fill="none" stroke="midnightblue" d="M834.057,-249C842.572,-249 851.152,-249 859.712,-249"/>
<polygon fill="midnightblue" stroke="midnightblue" points="859.745,-252.5 869.745,-249 859.745,-245.5 859.745,-252.5"/>
</g>
<!-- Node5&#45;&gt;Node3 -->
<g id="edge10" class="edge"><title>Node5&#45;&gt;Node3</title>
<path fill="none" stroke="midnightblue" d="M380.165,-140.525C406.956,-161.321 470.501,-207.518 532,-229 539.895,-231.758 548.144,-234.139 556.539,-236.196"/>
<polygon fill="midnightblue" stroke="midnightblue" points="555.919,-239.644 566.448,-238.463 557.481,-232.821 555.919,-239.644"/>
</g>
<!-- Node6 -->
<g id="node12" class="node"><title>Node6</title>
<a xlink:href="classZendDbSchema__Db__Schema__AbstractSchema.html#ac4e121ba7932163eb1950fabe06fb9db" target="_top" xlink:title="ZendDbSchema_Db_Schema_AbstractSchema\\__isset">
<polygon fill="white" stroke="black" points="894.5,-140.5 894.5,-161.5 1153.5,-161.5 1153.5,-140.5 894.5,-140.5"/>
<text text-anchor="middle" x="1024" y="-148.5" font-family="Helvetica,sans-Serif" font-size="10.00">ZendDbSchema_Db_Schema_AbstractSchema\__isset</text>
</a>
</g>
<!-- Node5&#45;&gt;Node6 -->
<g id="edge12" class="edge"><title>Node5&#45;&gt;Node6</title>
<path fill="none" stroke="midnightblue" d="M434.25,-140.517C464.106,-144.679 499.723,-148.954 532,-151 650.678,-158.522 785.782,-157.863 884.348,-155.696"/>
<polygon fill="midnightblue" stroke="midnightblue" points="884.455,-159.194 894.372,-155.468 884.295,-152.196 884.455,-159.194"/>
</g>
<!-- Node7 -->
<g id="node14" class="node"><title>Node7</title>
<a xlink:href="classZendDbSchema__Db__Schema__AbstractSchema.html#a54d32c6f15463eaad2321a9f0e7225d7" target="_top" xlink:title="ZendDbSchema_Db_Schema_AbstractSchema\\__get">
<polygon fill="white" stroke="black" points="557.5,-120.5 557.5,-141.5 808.5,-141.5 808.5,-120.5 557.5,-120.5"/>
<text text-anchor="middle" x="683" y="-128.5" font-family="Helvetica,sans-Serif" font-size="10.00">ZendDbSchema_Db_Schema_AbstractSchema\__get</text>
</a>
</g>
<!-- Node5&#45;&gt;Node7 -->
<g id="edge14" class="edge"><title>Node5&#45;&gt;Node7</title>
<path fill="none" stroke="midnightblue" d="M470.908,-130.329C495.285,-130.406 521.615,-130.489 547.157,-130.57"/>
<polygon fill="midnightblue" stroke="midnightblue" points="547.27,-134.07 557.281,-130.602 547.292,-127.07 547.27,-134.07"/>
</g>
<!-- Node5&#45;&gt;Node8 -->
<g id="edge18" class="edge"><title>Node5&#45;&gt;Node8</title>
<path fill="none" stroke="midnightblue" d="M394.942,-140.593C427.458,-152.579 482.963,-171.99 532,-184 552.295,-188.97 574.368,-193.246 595.213,-196.785"/>
<polygon fill="midnightblue" stroke="midnightblue" points="594.897,-200.28 605.334,-198.463 596.042,-193.374 594.897,-200.28"/>
</g>
<!-- Node5&#45;&gt;Node9 -->
<g id="edge20" class="edge"><title>Node5&#45;&gt;Node9</title>
<path fill="none" stroke="midnightblue" d="M452.098,-119.497C493.987,-114.328 544.632,-108.077 587.805,-102.749"/>
<polygon fill="midnightblue" stroke="midnightblue" points="588.254,-106.22 597.75,-101.521 587.397,-99.2727 588.254,-106.22"/>
</g>
<!-- Node5&#45;&gt;Node10 -->
<g id="edge22" class="edge"><title>Node5&#45;&gt;Node10</title>
<path fill="none" stroke="midnightblue" d="M391.38,-119.437C423.147,-106.106 480.7,-83.4206 532,-71 544.493,-67.9751 557.687,-65.3779 570.863,-63.155"/>
<polygon fill="midnightblue" stroke="midnightblue" points="571.612,-66.5794 580.924,-61.5271 570.494,-59.6693 571.612,-66.5794"/>
</g>
<!-- Node5&#45;&gt;Node11 -->
<g id="edge24" class="edge"><title>Node5&#45;&gt;Node11</title>
<path fill="none" stroke="midnightblue" d="M380.165,-119.475C406.956,-98.6786 470.501,-52.4816 532,-31 543.215,-27.0827 555.143,-23.9243 567.19,-21.3792"/>
<polygon fill="midnightblue" stroke="midnightblue" points="568.189,-24.7497 577.323,-19.3823 566.835,-17.8818 568.189,-24.7497"/>
</g>
<!-- Node7&#45;&gt;Node6 -->
<g id="edge16" class="edge"><title>Node7&#45;&gt;Node6</title>
<path fill="none" stroke="midnightblue" d="M808.523,-138.362C833.142,-139.806 859.108,-141.329 884.161,-142.798"/>
<polygon fill="midnightblue" stroke="midnightblue" points="884.27,-146.311 894.458,-143.402 884.68,-139.323 884.27,-146.311"/>
</g>
</g>
</svg>
