<?xml version="1.0" encoding="UTF-8" standalone="no"?>
<!DOCTYPE svg PUBLIC "-//W3C//DTD SVG 1.1//EN"
 "http://www.w3.org/Graphics/SVG/1.1/DTD/svg11.dtd">
<!-- Generated by graphviz version 2.26.3 (20100126.1600)
 -->
<!-- Title: G Pages: 1 -->
<svg width="596pt" height="150pt"
 viewBox="0.00 0.00 596.00 150.00" xmlns="http://www.w3.org/2000/svg" xmlns:xlink="http://www.w3.org/1999/xlink">
<g id="graph1" class="graph" transform="scale(1 1) rotate(0) translate(4 146)">
<title>G</title>
<polygon fill="white" stroke="white" points="-4,5 -4,-146 593,-146 593,5 -4,5"/>
<!-- Node1 -->
<g id="node1" class="node"><title>Node1</title>
<polygon fill="#bfbfbf" stroke="black" points="0,-60.5 0,-81.5 260,-81.5 260,-60.5 0,-60.5"/>
<text text-anchor="middle" x="130" y="-68.5" font-family="Helvetica,sans-Serif" font-size="10.00">ZendDbSchema_Tool_Project_Provider_Schema\status</text>
</g>
<!-- Node2 -->
<g id="node3" class="node"><title>Node2</title>
<a xlink:href="classZendDbSchema__Tool__Project__Provider__Schema.html#a4bfcbf170571b61e24662b9d8bb8c95c" target="_top" xlink:title="ZendDbSchema_Tool_Project_Provider_Schema\\_bootstrap">
<polygon fill="white" stroke="black" points="303,-120.5 303,-141.5 581,-141.5 581,-120.5 303,-120.5"/>
<text text-anchor="middle" x="442" y="-128.5" font-family="Helvetica,sans-Serif" font-size="10.00">ZendDbSchema_Tool_Project_Provider_Schema\_bootstrap</text>
</a>
</g>
<!-- Node1&#45;&gt;Node2 -->
<g id="edge2" class="edge"><title>Node1&#45;&gt;Node2</title>
<path fill="none" stroke="midnightblue" d="M169.003,-81.5705C202.492,-90.3644 252.157,-102.736 296,-111 311.615,-113.943 328.247,-116.635 344.483,-119.025"/>
<polygon fill="midnightblue" stroke="midnightblue" points="344.132,-122.511 354.529,-120.474 345.131,-115.582 344.132,-122.511"/>
</g>
<!-- Node3 -->
<g id="node5" class="node"><title>Node3</title>
<a xlink:href="classZendDbSchema__Tool__Project__Provider__Schema.html#ae00f032a9818a3227d29bde827856256" target="_top" xlink:title="ZendDbSchema_Tool_Project_Provider_Schema\\_getSchema">
<polygon fill="white" stroke="black" points="298.5,-80.5 298.5,-101.5 585.5,-101.5 585.5,-80.5 298.5,-80.5"/>
<text text-anchor="middle" x="442" y="-88.5" font-family="Helvetica,sans-Serif" font-size="10.00">ZendDbSchema_Tool_Project_Provider_Schema\_getSchema</text>
</a>
</g>
<!-- Node1&#45;&gt;Node3 -->
<g id="edge4" class="edge"><title>Node1&#45;&gt;Node3</title>
<path fill="none" stroke="midnightblue" d="M260.057,-79.337C269.328,-79.9313 278.724,-80.5336 288.11,-81.1353"/>
<polygon fill="midnightblue" stroke="midnightblue" points="288.082,-84.6405 298.285,-81.7875 288.53,-77.6549 288.082,-84.6405"/>
</g>
<!-- Node4 -->
<g id="node7" class="node"><title>Node4</title>
<a xlink:href="classZendDbSchema__Tool__Project__Provider__Schema.html#a7ec839cde120f748f3b0d6f24fa56d34" target="_top" xlink:title="ZendDbSchema_Tool_Project_Provider_Schema\\_getFilename">
<polygon fill="white" stroke="black" points="296.5,-40.5 296.5,-61.5 587.5,-61.5 587.5,-40.5 296.5,-40.5"/>
<text text-anchor="middle" x="442" y="-48.5" font-family="Helvetica,sans-Serif" font-size="10.00">ZendDbSchema_Tool_Project_Provider_Schema\_getFilename</text>
</a>
</g>
<!-- Node1&#45;&gt;Node4 -->
<g id="edge6" class="edge"><title>Node1&#45;&gt;Node4</title>
<path fill="none" stroke="midnightblue" d="M260.057,-62.663C268.65,-62.1122 277.35,-61.5545 286.051,-60.9967"/>
<polygon fill="midnightblue" stroke="midnightblue" points="286.503,-64.4751 296.258,-60.3424 286.055,-57.4894 286.503,-64.4751"/>
</g>
<!-- Node5 -->
<g id="node9" class="node"><title>Node5</title>
<a xlink:href="classZendDbSchema__Tool__Project__Provider__Schema.html#a4bab978eff99970636ddf863266e9d96" target="_top" xlink:title="ZendDbSchema_Tool_Project_Provider_Schema\\_findfile">
<polygon fill="white" stroke="black" points="309,-0.5 309,-21.5 575,-21.5 575,-0.5 309,-0.5"/>
<text text-anchor="middle" x="442" y="-8.5" font-family="Helvetica,sans-Serif" font-size="10.00">ZendDbSchema_Tool_Project_Provider_Schema\_findfile</text>
</a>
</g>
<!-- Node1&#45;&gt;Node5 -->
<g id="edge8" class="edge"><title>Node1&#45;&gt;Node5</title>
<path fill="none" stroke="midnightblue" d="M169.003,-60.4295C202.492,-51.6356 252.157,-39.2636 296,-31 311.615,-28.0568 328.247,-25.3645 344.483,-22.9746"/>
<polygon fill="midnightblue" stroke="midnightblue" points="345.131,-26.4175 354.529,-21.5261 344.132,-19.4892 345.131,-26.4175"/>
</g>
</g>
</svg>
