<?xml version="1.0" encoding="UTF-8" standalone="no"?>
<!DOCTYPE svg PUBLIC "-//W3C//DTD SVG 1.1//EN"
 "http://www.w3.org/Graphics/SVG/1.1/DTD/svg11.dtd">
<!-- Generated by graphviz version 2.26.3 (20100126.1600)
 -->
<!-- Title: G Pages: 1 -->
<svg width="1284pt" height="70pt"
 viewBox="0.00 0.00 1284.00 70.00" xmlns="http://www.w3.org/2000/svg" xmlns:xlink="http://www.w3.org/1999/xlink">
<g id="graph1" class="graph" transform="scale(1 1) rotate(0) translate(4 66)">
<title>G</title>
<polygon fill="white" stroke="white" points="-4,5 -4,-66 1281,-66 1281,5 -4,5"/>
<!-- Node1 -->
<g id="node1" class="node"><title>Node1</title>
<polygon fill="#bfbfbf" stroke="black" points="0,-20.5 0,-41.5 276,-41.5 276,-20.5 0,-20.5"/>
<text text-anchor="middle" x="138" y="-28.5" font-family="Helvetica,sans-Serif" font-size="10.00">ZendDbSchema_Db_Schema_AbstractSchema\getDropSql</text>
</g>
<!-- Node2 -->
<g id="node3" class="node"><title>Node2</title>
<a xlink:href="classZendDbSchema__Db__Schema__AbstractSchema.html#a1680a8fd22360f74d29b641d7257a52f" target="_top" xlink:title="ZendDbSchema_Db_Schema_AbstractSchema\\isExist">
<polygon fill="white" stroke="black" points="324.5,-40.5 324.5,-61.5 581.5,-61.5 581.5,-40.5 324.5,-40.5"/>
<text text-anchor="middle" x="453" y="-48.5" font-family="Helvetica,sans-Serif" font-size="10.00">ZendDbSchema_Db_Schema_AbstractSchema\isExist</text>
</a>
</g>
<!-- Node1&#45;&gt;Node2 -->
<g id="edge2" class="edge"><title>Node1&#45;&gt;Node2</title>
<path fill="none" stroke="midnightblue" d="M276.164,-39.7723C288.816,-40.5756 301.637,-41.3897 314.294,-42.1933"/>
<polygon fill="midnightblue" stroke="midnightblue" points="314.202,-45.6944 324.404,-42.8351 314.645,-38.7084 314.202,-45.6944"/>
</g>
<!-- Node5 -->
<g id="node9" class="node"><title>Node5</title>
<a xlink:href="classZendDbSchema__Db__Schema__AbstractSchema.html#abf887d2836071992af679430ddf1b922" target="_top" xlink:title="ZendDbSchema_Db_Schema_AbstractSchema\\_getDropSql">
<polygon fill="white" stroke="black" points="312.5,-0.5 312.5,-21.5 593.5,-21.5 593.5,-0.5 312.5,-0.5"/>
<text text-anchor="middle" x="453" y="-8.5" font-family="Helvetica,sans-Serif" font-size="10.00">ZendDbSchema_Db_Schema_AbstractSchema\_getDropSql</text>
</a>
</g>
<!-- Node1&#45;&gt;Node5 -->
<g id="edge8" class="edge"><title>Node1&#45;&gt;Node5</title>
<path fill="none" stroke="midnightblue" d="M276.164,-22.2277C284.718,-21.6846 293.35,-21.1365 301.956,-20.5901"/>
<polygon fill="midnightblue" stroke="midnightblue" points="302.283,-24.0765 312.041,-19.9498 301.839,-17.0906 302.283,-24.0765"/>
</g>
<!-- Node3 -->
<g id="node5" class="node"><title>Node3</title>
<a xlink:href="classZendDbSchema__Db__Schema__AbstractSchema.html#a46da7a60c7e5fd605607afbc1dac4baa" target="_top" xlink:title="ZendDbSchema_Db_Schema_AbstractSchema\\getCleanSchema">
<polygon fill="white" stroke="black" points="630,-40.5 630,-61.5 932,-61.5 932,-40.5 630,-40.5"/>
<text text-anchor="middle" x="781" y="-48.5" font-family="Helvetica,sans-Serif" font-size="10.00">ZendDbSchema_Db_Schema_AbstractSchema\getCleanSchema</text>
</a>
</g>
<!-- Node2&#45;&gt;Node3 -->
<g id="edge4" class="edge"><title>Node2&#45;&gt;Node3</title>
<path fill="none" stroke="midnightblue" d="M581.693,-51C594.155,-51 606.903,-51 619.63,-51"/>
<polygon fill="midnightblue" stroke="midnightblue" points="619.826,-54.5001 629.826,-51 619.826,-47.5001 619.826,-54.5001"/>
</g>
<!-- Node4 -->
<g id="node7" class="node"><title>Node4</title>
<a xlink:href="classZendDbSchema__Db__Schema__AbstractSchema.html#af99e5bb9adfe0da8c94d3d3848efe7b5" target="_top" xlink:title="ZendDbSchema_Db_Schema_AbstractSchema\\_getCleanSchema">
<polygon fill="white" stroke="black" points="968,-40.5 968,-61.5 1276,-61.5 1276,-40.5 968,-40.5"/>
<text text-anchor="middle" x="1122" y="-48.5" font-family="Helvetica,sans-Serif" font-size="10.00">ZendDbSchema_Db_Schema_AbstractSchema\_getCleanSchema</text>
</a>
</g>
<!-- Node3&#45;&gt;Node4 -->
<g id="edge6" class="edge"><title>Node3&#45;&gt;Node4</title>
<path fill="none" stroke="midnightblue" d="M932.057,-51C940.572,-51 949.152,-51 957.712,-51"/>
<polygon fill="midnightblue" stroke="midnightblue" points="957.745,-54.5001 967.745,-51 957.745,-47.5001 957.745,-54.5001"/>
</g>
</g>
</svg>
