<?xml version="1.0" encoding="UTF-8" standalone="no"?>
<!DOCTYPE svg PUBLIC "-//W3C//DTD SVG 1.1//EN"
 "http://www.w3.org/Graphics/SVG/1.1/DTD/svg11.dtd">
<!-- Generated by graphviz version 2.26.3 (20100126.1600)
 -->
<!-- Title: G Pages: 1 -->
<svg width="578pt" height="116pt"
 viewBox="0.00 0.00 578.00 116.00" xmlns="http://www.w3.org/2000/svg" xmlns:xlink="http://www.w3.org/1999/xlink">
<g id="graph1" class="graph" transform="scale(1 1) rotate(0) translate(4 112)">
<title>G</title>
<polygon fill="white" stroke="white" points="-4,5 -4,-112 575,-112 575,5 -4,5"/>
<!-- Node1 -->
<g id="node1" class="node"><title>Node1</title>
<polygon fill="#bfbfbf" stroke="black" points="0,-52 0,-86 146,-86 146,-52 0,-52"/>
<text text-anchor="start" x="8" y="-73" font-family="Helvetica,sans-Serif" font-size="10.00">ZendDbSchema_Db_Schema</text>
<text text-anchor="middle" x="73" y="-60" font-family="Helvetica,sans-Serif" font-size="10.00">_AbstractSchema\refresh</text>
</g>
<!-- Node2 -->
<g id="node3" class="node"><title>Node2</title>
<a xlink:href="classZendDbSchema__Db__Schema__AbstractSchema.html#ab4282a1fd6f4d9f23d01de8328072c71" target="_top" xlink:title="ZendDbSchema_Db_Schema\l_AbstractSchema\\__set">
<polygon fill="white" stroke="black" points="408,-74 408,-108 554,-108 554,-74 408,-74"/>
<text text-anchor="start" x="416" y="-95" font-family="Helvetica,sans-Serif" font-size="10.00">ZendDbSchema_Db_Schema</text>
<text text-anchor="middle" x="481" y="-82" font-family="Helvetica,sans-Serif" font-size="10.00">_AbstractSchema\__set</text>
</a>
</g>
<!-- Node1&#45;&gt;Node2 -->
<g id="edge2" class="edge"><title>Node1&#45;&gt;Node2</title>
<path fill="none" stroke="midnightblue" d="M133.371,-86.0562C149.073,-89.7585 166.06,-93.1252 182,-95 254.5,-103.527 337.565,-101.48 397.715,-97.9022"/>
<polygon fill="midnightblue" stroke="midnightblue" points="398.154,-101.382 407.917,-97.2676 397.719,-94.3952 398.154,-101.382"/>
</g>
<!-- Node3 -->
<g id="node5" class="node"><title>Node3</title>
<a xlink:href="classZendDbSchema__Db__Schema__AbstractSchema.html#a46da7a60c7e5fd605607afbc1dac4baa" target="_top" xlink:title="ZendDbSchema_Db_Schema\l_AbstractSchema\\getCleanSchema">
<polygon fill="white" stroke="black" points="182.5,-0 182.5,-34 355.5,-34 355.5,-0 182.5,-0"/>
<text text-anchor="start" x="190.5" y="-21" font-family="Helvetica,sans-Serif" font-size="10.00">ZendDbSchema_Db_Schema</text>
<text text-anchor="middle" x="269" y="-8" font-family="Helvetica,sans-Serif" font-size="10.00">_AbstractSchema\getCleanSchema</text>
</a>
</g>
<!-- Node1&#45;&gt;Node3 -->
<g id="edge4" class="edge"><title>Node1&#45;&gt;Node3</title>
<path fill="none" stroke="midnightblue" d="M137.178,-51.9733C155.622,-47.08 175.887,-41.7033 194.879,-36.6647"/>
<polygon fill="midnightblue" stroke="midnightblue" points="195.91,-40.0124 204.678,-34.065 194.115,-33.2465 195.91,-40.0124"/>
</g>
<!-- Node5 -->
<g id="node9" class="node"><title>Node5</title>
<a xlink:href="classZendDbSchema__Db__Schema__AbstractSchema.html#acd81590f02c831ff4c4a442c5cf47074" target="_top" xlink:title="ZendDbSchema_Db_Schema\l_AbstractSchema\\setFromArray">
<polygon fill="white" stroke="black" points="190.5,-52 190.5,-86 347.5,-86 347.5,-52 190.5,-52"/>
<text text-anchor="start" x="198.5" y="-73" font-family="Helvetica,sans-Serif" font-size="10.00">ZendDbSchema_Db_Schema</text>
<text text-anchor="middle" x="269" y="-60" font-family="Helvetica,sans-Serif" font-size="10.00">_AbstractSchema\setFromArray</text>
</a>
</g>
<!-- Node1&#45;&gt;Node5 -->
<g id="edge8" class="edge"><title>Node1&#45;&gt;Node5</title>
<path fill="none" stroke="midnightblue" d="M146.262,-69C157.251,-69 168.683,-69 179.957,-69"/>
<polygon fill="midnightblue" stroke="midnightblue" points="180.248,-72.5001 190.248,-69 180.248,-65.5001 180.248,-72.5001"/>
</g>
<!-- Node4 -->
<g id="node7" class="node"><title>Node4</title>
<a xlink:href="classZendDbSchema__Db__Schema__AbstractSchema.html#af99e5bb9adfe0da8c94d3d3848efe7b5" target="_top" xlink:title="ZendDbSchema_Db_Schema\l_AbstractSchema\\_getCleanSchema">
<polygon fill="white" stroke="black" points="392,-0 392,-34 570,-34 570,-0 392,-0"/>
<text text-anchor="start" x="400" y="-21" font-family="Helvetica,sans-Serif" font-size="10.00">ZendDbSchema_Db_Schema</text>
<text text-anchor="middle" x="481" y="-8" font-family="Helvetica,sans-Serif" font-size="10.00">_AbstractSchema\_getCleanSchema</text>
</a>
</g>
<!-- Node3&#45;&gt;Node4 -->
<g id="edge6" class="edge"><title>Node3&#45;&gt;Node4</title>
<path fill="none" stroke="midnightblue" d="M355.534,-17C364.175,-17 372.994,-17 381.752,-17"/>
<polygon fill="midnightblue" stroke="midnightblue" points="381.99,-20.5001 391.99,-17 381.99,-13.5001 381.99,-20.5001"/>
</g>
<!-- Node5&#45;&gt;Node2 -->
<g id="edge10" class="edge"><title>Node5&#45;&gt;Node2</title>
<path fill="none" stroke="midnightblue" d="M347.64,-77.1607C363.936,-78.8519 381.159,-80.6392 397.619,-82.3472"/>
<polygon fill="midnightblue" stroke="midnightblue" points="397.446,-85.848 407.753,-83.3989 398.168,-78.8854 397.446,-85.848"/>
</g>
</g>
</svg>
