<?xml version="1.0" encoding="UTF-8" standalone="no"?>
<!DOCTYPE svg PUBLIC "-//W3C//DTD SVG 1.1//EN"
 "http://www.w3.org/Graphics/SVG/1.1/DTD/svg11.dtd">
<!-- Generated by graphviz version 2.26.3 (20100126.1600)
 -->
<!-- Title: G Pages: 1 -->
<svg width="854pt" height="150pt"
 viewBox="0.00 0.00 854.00 150.00" xmlns="http://www.w3.org/2000/svg" xmlns:xlink="http://www.w3.org/1999/xlink">
<g id="graph1" class="graph" transform="scale(1 1) rotate(0) translate(4 146)">
<title>G</title>
<polygon fill="white" stroke="white" points="-4,5 -4,-146 851,-146 851,5 -4,5"/>
<!-- Node1 -->
<g id="node1" class="node"><title>Node1</title>
<polygon fill="#bfbfbf" stroke="black" points="0.5,-60.5 0.5,-81.5 243.5,-81.5 243.5,-60.5 0.5,-60.5"/>
<text text-anchor="middle" x="122" y="-68.5" font-family="Helvetica,sans-Serif" font-size="10.00">ZendDbSchema_Db_Migration_Manager\getChange</text>
</g>
<!-- Node2 -->
<g id="node3" class="node"><title>Node2</title>
<a xlink:href="classZendDbSchema__Db__Migration__Manager.html#a3f8150b5e2fc90623a10c7890af80185" target="_top" xlink:title="ZendDbSchema_Db_Migration_Manager\\compareVersion">
<polygon fill="white" stroke="black" points="280,-80.5 280,-101.5 546,-101.5 546,-80.5 280,-80.5"/>
<text text-anchor="middle" x="413" y="-88.5" font-family="Helvetica,sans-Serif" font-size="10.00">ZendDbSchema_Db_Migration_Manager\compareVersion</text>
</a>
</g>
<!-- Node1&#45;&gt;Node2 -->
<g id="edge2" class="edge"><title>Node1&#45;&gt;Node2</title>
<path fill="none" stroke="midnightblue" d="M253.755,-80.0553C262.332,-80.6448 270.972,-81.2386 279.556,-81.8286"/>
<polygon fill="midnightblue" stroke="midnightblue" points="253.941,-76.5599 243.724,-79.3659 253.461,-83.5434 253.941,-76.5599"/>
</g>
<!-- Node5 -->
<g id="node9" class="node"><title>Node5</title>
<a xlink:href="classZendDbSchema__Db__Migration__Manager.html#a87a8f6699a75e4b89a0657ae0999203b" target="_top" xlink:title="ZendDbSchema_Db_Migration_Manager\\isDirty">
<polygon fill="white" stroke="black" points="301,-0.5 301,-21.5 525,-21.5 525,-0.5 301,-0.5"/>
<text text-anchor="middle" x="413" y="-8.5" font-family="Helvetica,sans-Serif" font-size="10.00">ZendDbSchema_Db_Migration_Manager\isDirty</text>
</a>
</g>
<!-- Node1&#45;&gt;Node5 -->
<g id="edge8" class="edge"><title>Node1&#45;&gt;Node5</title>
<path fill="none" stroke="midnightblue" d="M169.184,-57.7562C200.443,-49.3042 242.454,-38.5565 280,-31 297.512,-27.4756 316.434,-24.2717 334.36,-21.5113"/>
<polygon fill="midnightblue" stroke="midnightblue" points="168.16,-54.4074 159.432,-60.4128 170,-61.1613 168.16,-54.4074"/>
</g>
<!-- Node7 -->
<g id="node13" class="node"><title>Node7</title>
<a xlink:href="classZendDbSchema__Db__Migration__Manager.html#a3acd09811b23c39aa97fed97b4012ac9" target="_top" xlink:title="ZendDbSchema_Db_Migration_Manager\\rolldown">
<polygon fill="white" stroke="black" points="297,-120.5 297,-141.5 529,-141.5 529,-120.5 297,-120.5"/>
<text text-anchor="middle" x="413" y="-128.5" font-family="Helvetica,sans-Serif" font-size="10.00">ZendDbSchema_Db_Migration_Manager\rolldown</text>
</a>
</g>
<!-- Node1&#45;&gt;Node7 -->
<g id="edge12" class="edge"><title>Node1&#45;&gt;Node7</title>
<path fill="none" stroke="midnightblue" d="M169.184,-84.2438C200.443,-92.6958 242.454,-103.443 280,-111 297.512,-114.524 316.434,-117.728 334.36,-120.489"/>
<polygon fill="midnightblue" stroke="midnightblue" points="170,-80.8387 159.432,-81.5872 168.16,-87.5926 170,-80.8387"/>
</g>
<!-- Node8 -->
<g id="node16" class="node"><title>Node8</title>
<a xlink:href="classZendDbSchema__Db__Migration__Manager.html#afbaee9196407b68350626e8601a44a9a" target="_top" xlink:title="ZendDbSchema_Db_Migration_Manager\\rollup">
<polygon fill="white" stroke="black" points="303.5,-40.5 303.5,-61.5 522.5,-61.5 522.5,-40.5 303.5,-40.5"/>
<text text-anchor="middle" x="413" y="-48.5" font-family="Helvetica,sans-Serif" font-size="10.00">ZendDbSchema_Db_Migration_Manager\rollup</text>
</a>
</g>
<!-- Node1&#45;&gt;Node8 -->
<g id="edge16" class="edge"><title>Node1&#45;&gt;Node8</title>
<path fill="none" stroke="midnightblue" d="M253.969,-61.93C270.483,-60.795 287.232,-59.6438 303.355,-58.5358"/>
<polygon fill="midnightblue" stroke="midnightblue" points="253.461,-58.4566 243.724,-62.6341 253.941,-65.4401 253.461,-58.4566"/>
</g>
<!-- Node3 -->
<g id="node5" class="node"><title>Node3</title>
<a xlink:href="classZendDbSchema__Db__Migration__Manager.html#a265c3edbe064cb4a34289b505046768a" target="_top" xlink:title="ZendDbSchema_Db_Migration_Manager\\down">
<polygon fill="white" stroke="black" points="604.5,-110.5 604.5,-131.5 823.5,-131.5 823.5,-110.5 604.5,-110.5"/>
<text text-anchor="middle" x="714" y="-118.5" font-family="Helvetica,sans-Serif" font-size="10.00">ZendDbSchema_Db_Migration_Manager\down</text>
</a>
</g>
<!-- Node2&#45;&gt;Node3 -->
<g id="edge4" class="edge"><title>Node2&#45;&gt;Node3</title>
<path fill="none" stroke="midnightblue" d="M528.687,-102.53C554.962,-105.149 582.734,-107.917 608.556,-110.491"/>
<polygon fill="midnightblue" stroke="midnightblue" points="528.996,-99.0438 518.698,-101.535 528.302,-106.009 528.996,-99.0438"/>
</g>
<!-- Node4 -->
<g id="node7" class="node"><title>Node4</title>
<a xlink:href="classZendDbSchema__Db__Migration__Manager.html#a260901608e7ed2fb5ffef1bf8387e2e9" target="_top" xlink:title="ZendDbSchema_Db_Migration_Manager\\up">
<polygon fill="white" stroke="black" points="611,-50.5 611,-71.5 817,-71.5 817,-50.5 611,-50.5"/>
<text text-anchor="middle" x="714" y="-58.5" font-family="Helvetica,sans-Serif" font-size="10.00">ZendDbSchema_Db_Migration_Manager\up</text>
</a>
</g>
<!-- Node2&#45;&gt;Node4 -->
<g id="edge6" class="edge"><title>Node2&#45;&gt;Node4</title>
<path fill="none" stroke="midnightblue" d="M528.951,-79.4434C555.923,-76.7552 584.46,-73.911 610.837,-71.282"/>
<polygon fill="midnightblue" stroke="midnightblue" points="528.302,-75.9907 518.698,-80.4653 528.996,-82.9562 528.302,-75.9907"/>
</g>
<!-- Node6 -->
<g id="node11" class="node"><title>Node6</title>
<a xlink:href="classZendDbSchema__Tool__Project__Provider__Migration.html#a6818e8df15f087c869ed9edf28d97f1f" target="_top" xlink:title="ZendDbSchema_Tool_Project_Provider_Migration\\status">
<polygon fill="white" stroke="black" points="582.5,-0.5 582.5,-21.5 845.5,-21.5 845.5,-0.5 582.5,-0.5"/>
<text text-anchor="middle" x="714" y="-8.5" font-family="Helvetica,sans-Serif" font-size="10.00">ZendDbSchema_Tool_Project_Provider_Migration\status</text>
</a>
</g>
<!-- Node5&#45;&gt;Node6 -->
<g id="edge10" class="edge"><title>Node5&#45;&gt;Node6</title>
<path fill="none" stroke="midnightblue" d="M535.202,-11C550.705,-11 566.624,-11 582.268,-11"/>
<polygon fill="midnightblue" stroke="midnightblue" points="535.081,-7.5001 525.081,-11 535.081,-14.5001 535.081,-7.5001"/>
</g>
<!-- Node7&#45;&gt;Node3 -->
<g id="edge14" class="edge"><title>Node7&#45;&gt;Node3</title>
<path fill="none" stroke="midnightblue" d="M539.55,-126.796C561.088,-126.08 583.297,-125.342 604.352,-124.643"/>
<polygon fill="midnightblue" stroke="midnightblue" points="539.253,-123.304 529.374,-127.134 539.485,-130.3 539.253,-123.304"/>
</g>
<!-- Node8&#45;&gt;Node4 -->
<g id="edge18" class="edge"><title>Node8&#45;&gt;Node4</title>
<path fill="none" stroke="midnightblue" d="M532.706,-54.9769C558.472,-55.833 585.496,-56.7307 610.579,-57.5641"/>
<polygon fill="midnightblue" stroke="midnightblue" points="532.63,-51.4726 522.519,-54.6385 532.398,-58.4687 532.63,-51.4726"/>
</g>
</g>
</svg>
