<?xml version="1.0" encoding="UTF-8" standalone="no"?>
<!DOCTYPE svg PUBLIC "-//W3C//DTD SVG 1.1//EN"
 "http://www.w3.org/Graphics/SVG/1.1/DTD/svg11.dtd">
<!-- Generated by graphviz version 2.26.3 (20100126.1600)
 -->
<!-- Title: G Pages: 1 -->
<svg width="2148pt" height="240pt"
 viewBox="0.00 0.00 2148.00 239.61" xmlns="http://www.w3.org/2000/svg" xmlns:xlink="http://www.w3.org/1999/xlink">
<g id="graph1" class="graph" transform="scale(1 1) rotate(0) translate(4 235.614)">
<title>G</title>
<polygon fill="white" stroke="white" points="-4,5 -4,-235.614 2145,-235.614 2145,5 -4,5"/>
<!-- Node1 -->
<g id="node1" class="node"><title>Node1</title>
<polygon fill="#bfbfbf" stroke="black" points="0.5,-120.5 0.5,-141.5 243.5,-141.5 243.5,-120.5 0.5,-120.5"/>
<text text-anchor="middle" x="122" y="-128.5" font-family="Helvetica,sans-Serif" font-size="10.00">ZendDbSchema_Db_Schema_AbstractEntity\delete</text>
</g>
<!-- Node2 -->
<g id="node3" class="node"><title>Node2</title>
<a xlink:href="classZendDbSchema__Db__Schema__AbstractSchema.html#a1680a8fd22360f74d29b641d7257a52f" target="_top" xlink:title="ZendDbSchema_Db_Schema_AbstractSchema\\isExist">
<polygon fill="white" stroke="black" points="604.5,-199.5 604.5,-220.5 861.5,-220.5 861.5,-199.5 604.5,-199.5"/>
<text text-anchor="middle" x="733" y="-207.5" font-family="Helvetica,sans-Serif" font-size="10.00">ZendDbSchema_Db_Schema_AbstractSchema\isExist</text>
</a>
</g>
<!-- Node1&#45;&gt;Node2 -->
<g id="edge2" class="edge"><title>Node1&#45;&gt;Node2</title>
<path fill="none" stroke="midnightblue" d="M136.76,-141.505C163.668,-159.938 223.179,-197.435 280,-211 406.267,-241.144 558.034,-232 649.924,-221.7"/>
<polygon fill="midnightblue" stroke="midnightblue" points="650.468,-225.161 660.001,-220.539 649.666,-218.207 650.468,-225.161"/>
</g>
<!-- Node5 -->
<g id="node9" class="node"><title>Node5</title>
<a xlink:href="classZendDbSchema__Db__Schema__AbstractEntity.html#a3aee3f3f8c86d17aeba34b520c0c407d" target="_top" xlink:title="ZendDbSchema_Db_Schema_AbstractEntity\\_delete">
<polygon fill="white" stroke="black" points="294,-180.5 294,-201.5 542,-201.5 542,-180.5 294,-180.5"/>
<text text-anchor="middle" x="418" y="-188.5" font-family="Helvetica,sans-Serif" font-size="10.00">ZendDbSchema_Db_Schema_AbstractEntity\_delete</text>
</a>
</g>
<!-- Node1&#45;&gt;Node5 -->
<g id="edge8" class="edge"><title>Node1&#45;&gt;Node5</title>
<path fill="none" stroke="midnightblue" d="M159.102,-141.557C190.965,-150.342 238.229,-162.709 280,-171 294.706,-173.919 310.374,-176.596 325.677,-178.978"/>
<polygon fill="midnightblue" stroke="midnightblue" points="325.254,-182.454 335.667,-180.5 326.308,-175.533 325.254,-182.454"/>
</g>
<!-- Node6 -->
<g id="node11" class="node"><title>Node6</title>
<a xlink:href="classZendDbSchema__Db__Schema__AbstractEntity.html#a7ddb87869e3021260c12bb57df4ba8c1" target="_top" xlink:title="ZendDbSchema_Db_Schema_AbstractEntity\\exec">
<polygon fill="white" stroke="black" points="299,-100.5 299,-121.5 537,-121.5 537,-100.5 299,-100.5"/>
<text text-anchor="middle" x="418" y="-108.5" font-family="Helvetica,sans-Serif" font-size="10.00">ZendDbSchema_Db_Schema_AbstractEntity\exec</text>
</a>
</g>
<!-- Node1&#45;&gt;Node6 -->
<g id="edge10" class="edge"><title>Node1&#45;&gt;Node6</title>
<path fill="none" stroke="midnightblue" d="M243.676,-122.779C258.445,-121.781 273.576,-120.758 288.454,-119.753"/>
<polygon fill="midnightblue" stroke="midnightblue" points="288.966,-123.227 298.707,-119.06 288.494,-116.243 288.966,-123.227"/>
</g>
<!-- Node8 -->
<g id="node15" class="node"><title>Node8</title>
<a xlink:href="classZendDbSchema__Db__Schema__AbstractSchema.html#aec661ede88f500caaf2a09e98c31d3b0" target="_top" xlink:title="ZendDbSchema_Db_Schema_AbstractSchema\\getDropSql">
<polygon fill="white" stroke="black" points="280,-140.5 280,-161.5 556,-161.5 556,-140.5 280,-140.5"/>
<text text-anchor="middle" x="418" y="-148.5" font-family="Helvetica,sans-Serif" font-size="10.00">ZendDbSchema_Db_Schema_AbstractSchema\getDropSql</text>
</a>
</g>
<!-- Node1&#45;&gt;Node8 -->
<g id="edge14" class="edge"><title>Node1&#45;&gt;Node8</title>
<path fill="none" stroke="midnightblue" d="M243.676,-139.221C252.272,-139.802 260.99,-140.391 269.709,-140.98"/>
<polygon fill="midnightblue" stroke="midnightblue" points="269.725,-144.489 279.938,-141.671 270.197,-137.505 269.725,-144.489"/>
</g>
<!-- Node10 -->
<g id="node20" class="node"><title>Node10</title>
<a xlink:href="classZendDbSchema__Db__Schema__AbstractEntity.html#a29b327cec2bd92fcdaecd4854c72efd7" target="_top" xlink:title="ZendDbSchema_Db_Schema_AbstractEntity\\_postDelete">
<polygon fill="white" stroke="black" points="283.5,-60.5 283.5,-81.5 552.5,-81.5 552.5,-60.5 283.5,-60.5"/>
<text text-anchor="middle" x="418" y="-68.5" font-family="Helvetica,sans-Serif" font-size="10.00">ZendDbSchema_Db_Schema_AbstractEntity\_postDelete</text>
</a>
</g>
<!-- Node1&#45;&gt;Node10 -->
<g id="edge20" class="edge"><title>Node1&#45;&gt;Node10</title>
<path fill="none" stroke="midnightblue" d="M159.102,-120.443C190.965,-111.658 238.229,-99.2909 280,-91 294.706,-88.081 310.374,-85.4038 325.677,-83.0222"/>
<polygon fill="midnightblue" stroke="midnightblue" points="326.308,-86.4665 335.667,-81.5003 325.254,-79.5464 326.308,-86.4665"/>
</g>
<!-- Node11 -->
<g id="node22" class="node"><title>Node11</title>
<a xlink:href="classZendDbSchema__Db__Schema__AbstractEntity.html#abee9675e11d86dace1abed3d94a0fda1" target="_top" xlink:title="ZendDbSchema_Db_Schema_AbstractEntity\\refresh">
<polygon fill="white" stroke="black" points="294.5,-20.5 294.5,-41.5 541.5,-41.5 541.5,-20.5 294.5,-20.5"/>
<text text-anchor="middle" x="418" y="-28.5" font-family="Helvetica,sans-Serif" font-size="10.00">ZendDbSchema_Db_Schema_AbstractEntity\refresh</text>
</a>
</g>
<!-- Node1&#45;&gt;Node11 -->
<g id="edge22" class="edge"><title>Node1&#45;&gt;Node11</title>
<path fill="none" stroke="midnightblue" d="M138.3,-120.476C166.143,-103.033 225.181,-68.3375 280,-51 288.994,-48.1556 298.447,-45.7137 308.011,-43.6177"/>
<polygon fill="midnightblue" stroke="midnightblue" points="308.917,-47.0047 318.003,-41.5563 307.502,-40.149 308.917,-47.0047"/>
</g>
<!-- Node3 -->
<g id="node5" class="node"><title>Node3</title>
<a xlink:href="classZendDbSchema__Db__Schema__AbstractSchema.html#a46da7a60c7e5fd605607afbc1dac4baa" target="_top" xlink:title="ZendDbSchema_Db_Schema_AbstractSchema\\getCleanSchema">
<polygon fill="white" stroke="black" points="910,-199.5 910,-220.5 1212,-220.5 1212,-199.5 910,-199.5"/>
<text text-anchor="middle" x="1061" y="-207.5" font-family="Helvetica,sans-Serif" font-size="10.00">ZendDbSchema_Db_Schema_AbstractSchema\getCleanSchema</text>
</a>
</g>
<!-- Node2&#45;&gt;Node3 -->
<g id="edge4" class="edge"><title>Node2&#45;&gt;Node3</title>
<path fill="none" stroke="midnightblue" d="M861.693,-210C874.155,-210 886.903,-210 899.63,-210"/>
<polygon fill="midnightblue" stroke="midnightblue" points="899.826,-213.5 909.826,-210 899.826,-206.5 899.826,-213.5"/>
</g>
<!-- Node4 -->
<g id="node7" class="node"><title>Node4</title>
<a xlink:href="classZendDbSchema__Db__Schema__AbstractSchema.html#af99e5bb9adfe0da8c94d3d3848efe7b5" target="_top" xlink:title="ZendDbSchema_Db_Schema_AbstractSchema\\_getCleanSchema">
<polygon fill="white" stroke="black" points="1248,-199.5 1248,-220.5 1556,-220.5 1556,-199.5 1248,-199.5"/>
<text text-anchor="middle" x="1402" y="-207.5" font-family="Helvetica,sans-Serif" font-size="10.00">ZendDbSchema_Db_Schema_AbstractSchema\_getCleanSchema</text>
</a>
</g>
<!-- Node3&#45;&gt;Node4 -->
<g id="edge6" class="edge"><title>Node3&#45;&gt;Node4</title>
<path fill="none" stroke="midnightblue" d="M1212.06,-210C1220.57,-210 1229.15,-210 1237.71,-210"/>
<polygon fill="midnightblue" stroke="midnightblue" points="1237.74,-213.5 1247.74,-210 1237.74,-206.5 1237.74,-213.5"/>
</g>
<!-- Node7 -->
<g id="node13" class="node"><title>Node7</title>
<a xlink:href="classZendDbSchema__Db__Schema__AbstractEntity.html#ad6dfc39cc6d92633fd92170db18c9573" target="_top" xlink:title="ZendDbSchema_Db_Schema_AbstractEntity\\getAdapter">
<polygon fill="white" stroke="black" points="601,-100.5 601,-121.5 865,-121.5 865,-100.5 601,-100.5"/>
<text text-anchor="middle" x="733" y="-108.5" font-family="Helvetica,sans-Serif" font-size="10.00">ZendDbSchema_Db_Schema_AbstractEntity\getAdapter</text>
</a>
</g>
<!-- Node6&#45;&gt;Node7 -->
<g id="edge12" class="edge"><title>Node6&#45;&gt;Node7</title>
<path fill="none" stroke="midnightblue" d="M537.088,-111C554.492,-111 572.562,-111 590.377,-111"/>
<polygon fill="midnightblue" stroke="midnightblue" points="590.829,-114.5 600.829,-111 590.829,-107.5 590.829,-114.5"/>
</g>
<!-- Node8&#45;&gt;Node2 -->
<g id="edge16" class="edge"><title>Node8&#45;&gt;Node2</title>
<path fill="none" stroke="midnightblue" d="M497.703,-161.541C516.841,-164.35 537.186,-167.569 556,-171 597.698,-178.605 644.52,-189.005 679.529,-197.152"/>
<polygon fill="midnightblue" stroke="midnightblue" points="679.001,-200.623 689.535,-199.495 680.596,-193.807 679.001,-200.623"/>
</g>
<!-- Node9 -->
<g id="node18" class="node"><title>Node9</title>
<a xlink:href="classZendDbSchema__Db__Schema__AbstractSchema.html#abf887d2836071992af679430ddf1b922" target="_top" xlink:title="ZendDbSchema_Db_Schema_AbstractSchema\\_getDropSql">
<polygon fill="white" stroke="black" points="592.5,-140.5 592.5,-161.5 873.5,-161.5 873.5,-140.5 592.5,-140.5"/>
<text text-anchor="middle" x="733" y="-148.5" font-family="Helvetica,sans-Serif" font-size="10.00">ZendDbSchema_Db_Schema_AbstractSchema\_getDropSql</text>
</a>
</g>
<!-- Node8&#45;&gt;Node9 -->
<g id="edge18" class="edge"><title>Node8&#45;&gt;Node9</title>
<path fill="none" stroke="midnightblue" d="M556.164,-151C564.718,-151 573.35,-151 581.956,-151"/>
<polygon fill="midnightblue" stroke="midnightblue" points="582.041,-154.5 592.041,-151 582.041,-147.5 582.041,-154.5"/>
</g>
<!-- Node12 -->
<g id="node24" class="node"><title>Node12</title>
<a xlink:href="classZendDbSchema__Db__Schema__AbstractEntity.html#aa35a80275bd3c811dd8ad39835a985a9" target="_top" xlink:title="ZendDbSchema_Db_Schema_AbstractEntity\\reload">
<polygon fill="white" stroke="black" points="611.5,-20.5 611.5,-41.5 854.5,-41.5 854.5,-20.5 611.5,-20.5"/>
<text text-anchor="middle" x="733" y="-28.5" font-family="Helvetica,sans-Serif" font-size="10.00">ZendDbSchema_Db_Schema_AbstractEntity\reload</text>
</a>
</g>
<!-- Node11&#45;&gt;Node12 -->
<g id="edge24" class="edge"><title>Node11&#45;&gt;Node12</title>
<path fill="none" stroke="midnightblue" d="M541.592,-31C561.114,-31 581.364,-31 601.067,-31"/>
<polygon fill="midnightblue" stroke="midnightblue" points="601.313,-34.5001 611.313,-31 601.313,-27.5001 601.313,-34.5001"/>
</g>
<!-- Node13 -->
<g id="node26" class="node"><title>Node13</title>
<a xlink:href="classZendDbSchema__Db__Schema__AbstractSchema.html#adacb1417b461310c5c87f72c459c1985" target="_top" xlink:title="ZendDbSchema_Db_Schema_AbstractSchema\\getOriginName">
<polygon fill="white" stroke="black" points="914.5,-0.5 914.5,-21.5 1207.5,-21.5 1207.5,-0.5 914.5,-0.5"/>
<text text-anchor="middle" x="1061" y="-8.5" font-family="Helvetica,sans-Serif" font-size="10.00">ZendDbSchema_Db_Schema_AbstractSchema\getOriginName</text>
</a>
</g>
<!-- Node12&#45;&gt;Node13 -->
<g id="edge26" class="edge"><title>Node12&#45;&gt;Node13</title>
<path fill="none" stroke="midnightblue" d="M854.669,-23.5812C870.748,-22.6007 887.41,-21.5847 903.977,-20.5745"/>
<polygon fill="midnightblue" stroke="midnightblue" points="904.506,-24.0489 914.274,-19.9467 904.08,-17.0619 904.506,-24.0489"/>
</g>
<!-- Node17 -->
<g id="node34" class="node"><title>Node17</title>
<a xlink:href="classZendDbSchema__Db__Schema__AbstractEntity.html#ab317ba1e66cc14d78922314962f7d0ff" target="_top" xlink:title="ZendDbSchema_Db_Schema_AbstractEntity\\_doReload">
<polygon fill="white" stroke="black" points="929.5,-40.5 929.5,-61.5 1192.5,-61.5 1192.5,-40.5 929.5,-40.5"/>
<text text-anchor="middle" x="1061" y="-48.5" font-family="Helvetica,sans-Serif" font-size="10.00">ZendDbSchema_Db_Schema_AbstractEntity\_doReload</text>
</a>
</g>
<!-- Node12&#45;&gt;Node17 -->
<g id="edge34" class="edge"><title>Node12&#45;&gt;Node17</title>
<path fill="none" stroke="midnightblue" d="M854.669,-38.4188C875.68,-39.7 897.687,-41.0419 919.176,-42.3522"/>
<polygon fill="midnightblue" stroke="midnightblue" points="919.147,-45.8568 929.341,-42.972 919.573,-38.8698 919.147,-45.8568"/>
</g>
<!-- Node14 -->
<g id="node28" class="node"><title>Node14</title>
<a xlink:href="classZendDbSchema__Db__Schema__AbstractSchema.html#a55787c21deddba427842809d589c2df6" target="_top" xlink:title="ZendDbSchema_Db_Schema_AbstractSchema\\getName">
<polygon fill="white" stroke="black" points="1268.5,-0.5 1268.5,-21.5 1535.5,-21.5 1535.5,-0.5 1268.5,-0.5"/>
<text text-anchor="middle" x="1402" y="-8.5" font-family="Helvetica,sans-Serif" font-size="10.00">ZendDbSchema_Db_Schema_AbstractSchema\getName</text>
</a>
</g>
<!-- Node13&#45;&gt;Node14 -->
<g id="edge28" class="edge"><title>Node13&#45;&gt;Node14</title>
<path fill="none" stroke="midnightblue" d="M1207.59,-11C1224.34,-11 1241.39,-11 1258.1,-11"/>
<polygon fill="midnightblue" stroke="midnightblue" points="1258.45,-14.5001 1268.45,-11 1258.45,-7.5001 1258.45,-14.5001"/>
</g>
<!-- Node15 -->
<g id="node30" class="node"><title>Node15</title>
<a xlink:href="classZendDbSchema__Db__Schema__AbstractSchema.html#a54d32c6f15463eaad2321a9f0e7225d7" target="_top" xlink:title="ZendDbSchema_Db_Schema_AbstractSchema\\__get">
<polygon fill="white" stroke="black" points="1592.5,-0.5 1592.5,-21.5 1843.5,-21.5 1843.5,-0.5 1592.5,-0.5"/>
<text text-anchor="middle" x="1718" y="-8.5" font-family="Helvetica,sans-Serif" font-size="10.00">ZendDbSchema_Db_Schema_AbstractSchema\__get</text>
</a>
</g>
<!-- Node14&#45;&gt;Node15 -->
<g id="edge30" class="edge"><title>Node14&#45;&gt;Node15</title>
<path fill="none" stroke="midnightblue" d="M1535.55,-11C1551.03,-11 1566.83,-11 1582.33,-11"/>
<polygon fill="midnightblue" stroke="midnightblue" points="1582.47,-14.5001 1592.47,-11 1582.47,-7.5001 1582.47,-14.5001"/>
</g>
<!-- Node16 -->
<g id="node32" class="node"><title>Node16</title>
<a xlink:href="classZendDbSchema__Db__Schema__AbstractSchema.html#ac4e121ba7932163eb1950fabe06fb9db" target="_top" xlink:title="ZendDbSchema_Db_Schema_AbstractSchema\\__isset">
<polygon fill="white" stroke="black" points="1880.5,-0.5 1880.5,-21.5 2139.5,-21.5 2139.5,-0.5 1880.5,-0.5"/>
<text text-anchor="middle" x="2010" y="-8.5" font-family="Helvetica,sans-Serif" font-size="10.00">ZendDbSchema_Db_Schema_AbstractSchema\__isset</text>
</a>
</g>
<!-- Node15&#45;&gt;Node16 -->
<g id="edge32" class="edge"><title>Node15&#45;&gt;Node16</title>
<path fill="none" stroke="midnightblue" d="M1843.53,-11C1852.4,-11 1861.38,-11 1870.32,-11"/>
<polygon fill="midnightblue" stroke="midnightblue" points="1870.4,-14.5001 1880.4,-11 1870.4,-7.5001 1870.4,-14.5001"/>
</g>
</g>
</svg>
