<?xml version="1.0" encoding="UTF-8" standalone="no"?>
<!DOCTYPE svg PUBLIC "-//W3C//DTD SVG 1.1//EN"
 "http://www.w3.org/Graphics/SVG/1.1/DTD/svg11.dtd">
<!-- Generated by graphviz version 2.26.3 (20100126.1600)
 -->
<!-- Title: G Pages: 1 -->
<svg width="1588pt" height="306pt"
 viewBox="0.00 0.00 1588.00 306.00" xmlns="http://www.w3.org/2000/svg" xmlns:xlink="http://www.w3.org/1999/xlink">
<g id="graph1" class="graph" transform="scale(1 1) rotate(0) translate(4 302)">
<title>G</title>
<polygon fill="white" stroke="white" points="-4,5 -4,-302 1585,-302 1585,5 -4,5"/>
<!-- Node1 -->
<g id="node1" class="node"><title>Node1</title>
<polygon fill="#bfbfbf" stroke="black" points="0,-113.5 0,-134.5 272,-134.5 272,-113.5 0,-113.5"/>
<text text-anchor="middle" x="136" y="-121.5" font-family="Helvetica,sans-Serif" font-size="10.00">ZendDbSchema_Db_Schema_Generator_Mysql\alterTable</text>
</g>
<!-- Node2 -->
<g id="node3" class="node"><title>Node2</title>
<a xlink:href="classZendDbSchema__Db__Schema__AbstractSchema.html#a1680a8fd22360f74d29b641d7257a52f" target="_top" xlink:title="ZendDbSchema_Db_Schema_AbstractSchema\\isExist">
<polygon fill="white" stroke="black" points="326.5,-236.5 326.5,-257.5 583.5,-257.5 583.5,-236.5 326.5,-236.5"/>
<text text-anchor="middle" x="455" y="-244.5" font-family="Helvetica,sans-Serif" font-size="10.00">ZendDbSchema_Db_Schema_AbstractSchema\isExist</text>
</a>
</g>
<!-- Node1&#45;&gt;Node2 -->
<g id="edge2" class="edge"><title>Node1&#45;&gt;Node2</title>
<path fill="none" stroke="midnightblue" d="M163.474,-134.593C220.83,-156.709 353.334,-207.799 418.065,-232.759"/>
<polygon fill="midnightblue" stroke="midnightblue" points="416.889,-236.056 427.479,-236.388 419.408,-229.525 416.889,-236.056"/>
</g>
<!-- Node5 -->
<g id="node9" class="node"><title>Node5</title>
<a xlink:href="classZendDbSchema__Db__Schema__AbstractSchema.html#a55787c21deddba427842809d589c2df6" target="_top" xlink:title="ZendDbSchema_Db_Schema_AbstractSchema\\getName">
<polygon fill="white" stroke="black" points="655.5,-0.5 655.5,-21.5 922.5,-21.5 922.5,-0.5 655.5,-0.5"/>
<text text-anchor="middle" x="789" y="-8.5" font-family="Helvetica,sans-Serif" font-size="10.00">ZendDbSchema_Db_Schema_AbstractSchema\getName</text>
</a>
</g>
<!-- Node1&#45;&gt;Node5 -->
<g id="edge8" class="edge"><title>Node1&#45;&gt;Node5</title>
<path fill="none" stroke="midnightblue" d="M171.636,-113.434C206.232,-103.471 260.356,-88.6661 308,-79 453.251,-49.531 491.2,-51.3973 638,-31 657.494,-28.2914 678.416,-25.4672 698.288,-22.8237"/>
<polygon fill="midnightblue" stroke="midnightblue" points="698.805,-26.2858 708.258,-21.5007 697.885,-19.3466 698.805,-26.2858"/>
</g>
<!-- Node8 -->
<g id="node15" class="node"><title>Node8</title>
<a xlink:href="classZendDbSchema__Db__Schema__Table.html#a21a2a75870207a989576655fec7507c3" target="_top" xlink:title="ZendDbSchema_Db_Schema_Table\\isDirty">
<polygon fill="white" stroke="black" points="351.5,-138.5 351.5,-159.5 558.5,-159.5 558.5,-138.5 351.5,-138.5"/>
<text text-anchor="middle" x="455" y="-146.5" font-family="Helvetica,sans-Serif" font-size="10.00">ZendDbSchema_Db_Schema_Table\isDirty</text>
</a>
</g>
<!-- Node1&#45;&gt;Node8 -->
<g id="edge14" class="edge"><title>Node1&#45;&gt;Node8</title>
<path fill="none" stroke="midnightblue" d="M270.36,-134.53C293.944,-136.378 318.28,-138.285 341.235,-140.084"/>
<polygon fill="midnightblue" stroke="midnightblue" points="341.085,-143.583 351.328,-140.875 341.632,-136.605 341.085,-143.583"/>
</g>
<!-- Node13 -->
<g id="node28" class="node"><title>Node13</title>
<a xlink:href="classZendDbSchema__Db__Schema__AbstractSchema.html#adacb1417b461310c5c87f72c459c1985" target="_top" xlink:title="ZendDbSchema_Db_Schema_AbstractSchema\\getOriginName">
<polygon fill="white" stroke="black" points="308.5,-88.5 308.5,-109.5 601.5,-109.5 601.5,-88.5 308.5,-88.5"/>
<text text-anchor="middle" x="455" y="-96.5" font-family="Helvetica,sans-Serif" font-size="10.00">ZendDbSchema_Db_Schema_AbstractSchema\getOriginName</text>
</a>
</g>
<!-- Node1&#45;&gt;Node13 -->
<g id="edge30" class="edge"><title>Node1&#45;&gt;Node13</title>
<path fill="none" stroke="midnightblue" d="M270.36,-113.47C283.658,-112.428 297.194,-111.367 310.587,-110.318"/>
<polygon fill="midnightblue" stroke="midnightblue" points="311.099,-113.788 320.795,-109.518 310.552,-106.81 311.099,-113.788"/>
</g>
<!-- Node3 -->
<g id="node5" class="node"><title>Node3</title>
<a xlink:href="classZendDbSchema__Db__Schema__AbstractSchema.html#a46da7a60c7e5fd605607afbc1dac4baa" target="_top" xlink:title="ZendDbSchema_Db_Schema_AbstractSchema\\getCleanSchema">
<polygon fill="white" stroke="black" points="638,-276.5 638,-297.5 940,-297.5 940,-276.5 638,-276.5"/>
<text text-anchor="middle" x="789" y="-284.5" font-family="Helvetica,sans-Serif" font-size="10.00">ZendDbSchema_Db_Schema_AbstractSchema\getCleanSchema</text>
</a>
</g>
<!-- Node2&#45;&gt;Node3 -->
<g id="edge4" class="edge"><title>Node2&#45;&gt;Node3</title>
<path fill="none" stroke="midnightblue" d="M542.755,-257.51C588.311,-262.965 644.11,-269.648 691.066,-275.271"/>
<polygon fill="midnightblue" stroke="midnightblue" points="690.907,-278.777 701.252,-276.491 691.739,-271.827 690.907,-278.777"/>
</g>
<!-- Node4 -->
<g id="node7" class="node"><title>Node4</title>
<a xlink:href="classZendDbSchema__Db__Schema__AbstractSchema.html#af99e5bb9adfe0da8c94d3d3848efe7b5" target="_top" xlink:title="ZendDbSchema_Db_Schema_AbstractSchema\\_getCleanSchema">
<polygon fill="white" stroke="black" points="976,-276.5 976,-297.5 1284,-297.5 1284,-276.5 976,-276.5"/>
<text text-anchor="middle" x="1130" y="-284.5" font-family="Helvetica,sans-Serif" font-size="10.00">ZendDbSchema_Db_Schema_AbstractSchema\_getCleanSchema</text>
</a>
</g>
<!-- Node3&#45;&gt;Node4 -->
<g id="edge6" class="edge"><title>Node3&#45;&gt;Node4</title>
<path fill="none" stroke="midnightblue" d="M940.057,-287C948.572,-287 957.152,-287 965.712,-287"/>
<polygon fill="midnightblue" stroke="midnightblue" points="965.745,-290.5 975.745,-287 965.745,-283.5 965.745,-290.5"/>
</g>
<!-- Node6 -->
<g id="node11" class="node"><title>Node6</title>
<a xlink:href="classZendDbSchema__Db__Schema__AbstractSchema.html#a54d32c6f15463eaad2321a9f0e7225d7" target="_top" xlink:title="ZendDbSchema_Db_Schema_AbstractSchema\\__get">
<polygon fill="white" stroke="black" points="1004.5,-119.5 1004.5,-140.5 1255.5,-140.5 1255.5,-119.5 1004.5,-119.5"/>
<text text-anchor="middle" x="1130" y="-127.5" font-family="Helvetica,sans-Serif" font-size="10.00">ZendDbSchema_Db_Schema_AbstractSchema\__get</text>
</a>
</g>
<!-- Node5&#45;&gt;Node6 -->
<g id="edge10" class="edge"><title>Node5&#45;&gt;Node6</title>
<path fill="none" stroke="midnightblue" d="M901.69,-21.503C914.755,-24.0185 927.77,-27.1362 940,-31 1003.16,-50.9555 1070.39,-91.0557 1105.47,-113.616"/>
<polygon fill="midnightblue" stroke="midnightblue" points="1103.78,-116.696 1114.07,-119.217 1107.6,-110.829 1103.78,-116.696"/>
</g>
<!-- Node7 -->
<g id="node13" class="node"><title>Node7</title>
<a xlink:href="classZendDbSchema__Db__Schema__AbstractSchema.html#ac4e121ba7932163eb1950fabe06fb9db" target="_top" xlink:title="ZendDbSchema_Db_Schema_AbstractSchema\\__isset">
<polygon fill="white" stroke="black" points="1320.5,-178.5 1320.5,-199.5 1579.5,-199.5 1579.5,-178.5 1320.5,-178.5"/>
<text text-anchor="middle" x="1450" y="-186.5" font-family="Helvetica,sans-Serif" font-size="10.00">ZendDbSchema_Db_Schema_AbstractSchema\__isset</text>
</a>
</g>
<!-- Node6&#45;&gt;Node7 -->
<g id="edge12" class="edge"><title>Node6&#45;&gt;Node7</title>
<path fill="none" stroke="midnightblue" d="M1187.21,-140.548C1242.07,-150.663 1324.9,-165.934 1382.86,-176.62"/>
<polygon fill="midnightblue" stroke="midnightblue" points="1382.55,-180.122 1393.02,-178.494 1383.82,-173.238 1382.55,-180.122"/>
</g>
<!-- Node8&#45;&gt;Node3 -->
<g id="edge16" class="edge"><title>Node8&#45;&gt;Node3</title>
<path fill="none" stroke="midnightblue" d="M479.915,-159.584C510.199,-173.027 562.185,-197.996 602,-227 620.037,-240.139 618.081,-251.94 638,-262 647.257,-266.675 657.2,-270.506 667.407,-273.641"/>
<polygon fill="midnightblue" stroke="midnightblue" points="666.683,-277.074 677.259,-276.439 668.595,-270.34 666.683,-277.074"/>
</g>
<!-- Node8&#45;&gt;Node6 -->
<g id="edge20" class="edge"><title>Node8&#45;&gt;Node6</title>
<path fill="none" stroke="midnightblue" d="M558.621,-146.083C675.382,-142.797 865.614,-137.442 994.182,-133.823"/>
<polygon fill="midnightblue" stroke="midnightblue" points="994.591,-137.313 1004.49,-133.533 994.394,-130.316 994.591,-137.313"/>
</g>
<!-- Node8&#45;&gt;Node7 -->
<g id="edge18" class="edge"><title>Node8&#45;&gt;Node7</title>
<path fill="none" stroke="midnightblue" d="M472.36,-159.523C503.945,-177.982 573.513,-215.52 638,-229 916.387,-287.191 1259.6,-228.995 1393.12,-201.579"/>
<polygon fill="midnightblue" stroke="midnightblue" points="1394.04,-204.962 1403.12,-199.501 1392.62,-198.108 1394.04,-204.962"/>
</g>
<!-- Node9 -->
<g id="node20" class="node"><title>Node9</title>
<a xlink:href="classZendDbSchema__Db__Schema__Table.html#a214354faa96de67a26b787c2c8741850" target="_top" xlink:title="ZendDbSchema_Db_Schema_Table\\columns">
<polygon fill="white" stroke="black" points="681.5,-80.5 681.5,-101.5 896.5,-101.5 896.5,-80.5 681.5,-80.5"/>
<text text-anchor="middle" x="789" y="-88.5" font-family="Helvetica,sans-Serif" font-size="10.00">ZendDbSchema_Db_Schema_Table\columns</text>
</a>
</g>
<!-- Node8&#45;&gt;Node9 -->
<g id="edge22" class="edge"><title>Node8&#45;&gt;Node9</title>
<path fill="none" stroke="midnightblue" d="M512.248,-138.459C548.309,-131.873 595.85,-123.289 638,-116 662.854,-111.702 690.037,-107.154 714.405,-103.133"/>
<polygon fill="midnightblue" stroke="midnightblue" points="715.005,-106.581 724.303,-101.502 713.867,-99.6741 715.005,-106.581"/>
</g>
<!-- Node10 -->
<g id="node22" class="node"><title>Node10</title>
<a xlink:href="classZendDbSchema__Db__Schema__Table.html#a47df29d95af8f655dd7506cfb649ec40" target="_top" xlink:title="ZendDbSchema_Db_Schema_Table\\indexes">
<polygon fill="white" stroke="black" points="683,-40.5 683,-61.5 895,-61.5 895,-40.5 683,-40.5"/>
<text text-anchor="middle" x="789" y="-48.5" font-family="Helvetica,sans-Serif" font-size="10.00">ZendDbSchema_Db_Schema_Table\indexes</text>
</a>
</g>
<!-- Node8&#45;&gt;Node10 -->
<g id="edge24" class="edge"><title>Node8&#45;&gt;Node10</title>
<path fill="none" stroke="midnightblue" d="M556.416,-138.414C572.444,-133.95 588.245,-127.707 602,-119 624.532,-104.738 614.985,-84.4691 638,-71 648.715,-64.7291 660.579,-60.0856 672.81,-56.6836"/>
<polygon fill="midnightblue" stroke="midnightblue" points="673.83,-60.0362 682.682,-54.214 672.131,-53.2454 673.83,-60.0362"/>
</g>
<!-- Node11 -->
<g id="node24" class="node"><title>Node11</title>
<a xlink:href="classZendDbSchema__Db__Schema__Table.html#acff371c2884c9688b5ede2deaf09f25c" target="_top" xlink:title="ZendDbSchema_Db_Schema_Table\\foreigns">
<polygon fill="white" stroke="black" points="682.5,-198.5 682.5,-219.5 895.5,-219.5 895.5,-198.5 682.5,-198.5"/>
<text text-anchor="middle" x="789" y="-206.5" font-family="Helvetica,sans-Serif" font-size="10.00">ZendDbSchema_Db_Schema_Table\foreigns</text>
</a>
</g>
<!-- Node8&#45;&gt;Node11 -->
<g id="edge26" class="edge"><title>Node8&#45;&gt;Node11</title>
<path fill="none" stroke="midnightblue" d="M498.428,-159.565C535.381,-168.296 589.95,-180.582 638,-189 654.766,-191.937 672.647,-194.662 690.022,-197.095"/>
<polygon fill="midnightblue" stroke="midnightblue" points="689.798,-200.597 700.182,-198.494 690.753,-193.663 689.798,-200.597"/>
</g>
<!-- Node12 -->
<g id="node26" class="node"><title>Node12</title>
<a xlink:href="classZendDbSchema__Db__Schema__Table.html#a9d445dd6a92cc3a50aa6d8dad8395f0a" target="_top" xlink:title="ZendDbSchema_Db_Schema_Table\\primary">
<polygon fill="white" stroke="black" points="683.5,-158.5 683.5,-179.5 894.5,-179.5 894.5,-158.5 683.5,-158.5"/>
<text text-anchor="middle" x="789" y="-166.5" font-family="Helvetica,sans-Serif" font-size="10.00">ZendDbSchema_Db_Schema_Table\primary</text>
</a>
</g>
<!-- Node8&#45;&gt;Node12 -->
<g id="edge28" class="edge"><title>Node8&#45;&gt;Node12</title>
<path fill="none" stroke="midnightblue" d="M558.849,-155.218C595.082,-157.388 635.967,-159.836 673.117,-162.061"/>
<polygon fill="midnightblue" stroke="midnightblue" points="673.297,-165.578 683.489,-162.682 673.716,-158.59 673.297,-165.578"/>
</g>
<!-- Node13&#45;&gt;Node5 -->
<g id="edge32" class="edge"><title>Node13&#45;&gt;Node5</title>
<path fill="none" stroke="midnightblue" d="M500.555,-88.472C530.2,-80.7995 569.291,-69.1119 602,-54 619.236,-46.0368 620.165,-37.5123 638,-31 645.336,-28.3214 652.988,-25.9947 660.787,-23.9743"/>
<polygon fill="midnightblue" stroke="midnightblue" points="661.83,-27.3231 670.731,-21.5755 660.189,-20.5183 661.83,-27.3231"/>
</g>
</g>
</svg>
