<?xml version="1.0" encoding="UTF-8" standalone="no"?>
<!DOCTYPE svg PUBLIC "-//W3C//DTD SVG 1.1//EN"
 "http://www.w3.org/Graphics/SVG/1.1/DTD/svg11.dtd">
<!-- Generated by graphviz version 2.26.3 (20100126.1600)
 -->
<!-- Title: G Pages: 1 -->
<svg width="894pt" height="138pt"
 viewBox="0.00 0.00 894.00 138.00" xmlns="http://www.w3.org/2000/svg" xmlns:xlink="http://www.w3.org/1999/xlink">
<g id="graph1" class="graph" transform="scale(1 1) rotate(0) translate(4 134)">
<title>G</title>
<polygon fill="white" stroke="white" points="-4,5 -4,-134 891,-134 891,5 -4,5"/>
<!-- Node1 -->
<g id="node1" class="node"><title>Node1</title>
<polygon fill="#bfbfbf" stroke="black" points="0,-49.5 0,-70.5 260,-70.5 260,-49.5 0,-49.5"/>
<text text-anchor="middle" x="130" y="-57.5" font-family="Helvetica,sans-Serif" font-size="10.00">ZendDbSchema_Db_Schema_Table_Index\getColumns</text>
</g>
<!-- Node2 -->
<g id="node3" class="node"><title>Node2</title>
<a xlink:href="classZendDbSchema__Db__Schema__Table__Index.html#a6717d976c5b0d47369d3c87ef17b1e9b" target="_top" xlink:title="ZendDbSchema_Db_Schema_Table_Index\\addColumn">
<polygon fill="white" stroke="black" points="620.5,-58.5 620.5,-79.5 877.5,-79.5 877.5,-58.5 620.5,-58.5"/>
<text text-anchor="middle" x="749" y="-66.5" font-family="Helvetica,sans-Serif" font-size="10.00">ZendDbSchema_Db_Schema_Table_Index\addColumn</text>
</a>
</g>
<!-- Node1&#45;&gt;Node2 -->
<g id="edge2" class="edge"><title>Node1&#45;&gt;Node2</title>
<path fill="none" stroke="midnightblue" d="M270.195,-62.0384C375.334,-63.5671 518.127,-65.6432 620.361,-67.1296"/>
<polygon fill="midnightblue" stroke="midnightblue" points="270.19,-58.538 260.14,-61.8922 270.088,-65.5373 270.19,-58.538"/>
</g>
<!-- Node3 -->
<g id="node5" class="node"><title>Node3</title>
<a xlink:href="classZendDbSchema__Db__Schema__Generator__Mysql.html#a5546e56c0c78f9c9d3e830fb5ffcd72d" target="_top" xlink:title="ZendDbSchema_Db_Schema_Generator_Mysql\\createIndex">
<polygon fill="white" stroke="black" points="296,-108.5 296,-129.5 576,-129.5 576,-108.5 296,-108.5"/>
<text text-anchor="middle" x="436" y="-116.5" font-family="Helvetica,sans-Serif" font-size="10.00">ZendDbSchema_Db_Schema_Generator_Mysql\createIndex</text>
</a>
</g>
<!-- Node1&#45;&gt;Node3 -->
<g id="edge4" class="edge"><title>Node1&#45;&gt;Node3</title>
<path fill="none" stroke="midnightblue" d="M189.652,-72.5983C221.226,-79.1705 260.675,-87.2294 296,-94 321.825,-98.9497 350.392,-104.108 374.951,-108.444"/>
<polygon fill="midnightblue" stroke="midnightblue" points="190.196,-69.1366 179.692,-70.5202 188.766,-75.989 190.196,-69.1366"/>
</g>
<!-- Node5 -->
<g id="node9" class="node"><title>Node5</title>
<a xlink:href="classZendDbSchema__Db__Schema__Table__Index.html#af7c29da0f52c5270ffa3587a95295f82" target="_top" xlink:title="ZendDbSchema_Db_Schema_Table_Index\\hasColumn">
<polygon fill="white" stroke="black" points="307.5,-30.5 307.5,-51.5 564.5,-51.5 564.5,-30.5 307.5,-30.5"/>
<text text-anchor="middle" x="436" y="-38.5" font-family="Helvetica,sans-Serif" font-size="10.00">ZendDbSchema_Db_Schema_Table_Index\hasColumn</text>
</a>
</g>
<!-- Node1&#45;&gt;Node5 -->
<g id="edge8" class="edge"><title>Node1&#45;&gt;Node5</title>
<path fill="none" stroke="midnightblue" d="M270.503,-51.276C282.788,-50.5131 295.182,-49.7436 307.365,-48.9872"/>
<polygon fill="midnightblue" stroke="midnightblue" points="269.979,-47.8017 260.215,-51.9147 270.413,-54.7882 269.979,-47.8017"/>
</g>
<!-- Node6 -->
<g id="node12" class="node"><title>Node6</title>
<a xlink:href="classZendDbSchema__Db__Schema__Table__Index.html#a3cfd358621bb3330ef9e7ffcf2f7b229" target="_top" xlink:title="ZendDbSchema_Db_Schema_Table_Index\\removeColumn">
<polygon fill="white" stroke="black" points="612,-0.5 612,-21.5 886,-21.5 886,-0.5 612,-0.5"/>
<text text-anchor="middle" x="749" y="-8.5" font-family="Helvetica,sans-Serif" font-size="10.00">ZendDbSchema_Db_Schema_Table_Index\removeColumn</text>
</a>
</g>
<!-- Node1&#45;&gt;Node6 -->
<g id="edge14" class="edge"><title>Node1&#45;&gt;Node6</title>
<path fill="none" stroke="midnightblue" d="M175.067,-46.7189C208.194,-37.6194 254.481,-26.2767 296,-21 401.35,-7.61093 521.564,-5.56223 611.669,-6.61674"/>
<polygon fill="midnightblue" stroke="midnightblue" points="173.921,-43.4048 165.228,-49.4617 175.801,-50.1477 173.921,-43.4048"/>
</g>
<!-- Node4 -->
<g id="node7" class="node"><title>Node4</title>
<a xlink:href="classZendDbSchema__Db__Schema__Generator__Mysql.html#a0f94d6cabe125b387efa64fc7160a9e5" target="_top" xlink:title="ZendDbSchema_Db_Schema_Generator_Mysql\\alterIndex">
<polygon fill="white" stroke="black" points="613,-108.5 613,-129.5 885,-129.5 885,-108.5 613,-108.5"/>
<text text-anchor="middle" x="749" y="-116.5" font-family="Helvetica,sans-Serif" font-size="10.00">ZendDbSchema_Db_Schema_Generator_Mysql\alterIndex</text>
</a>
</g>
<!-- Node3&#45;&gt;Node4 -->
<g id="edge6" class="edge"><title>Node3&#45;&gt;Node4</title>
<path fill="none" stroke="midnightblue" d="M586.06,-119C594.967,-119 603.902,-119 612.749,-119"/>
<polygon fill="midnightblue" stroke="midnightblue" points="586.021,-115.5 576.021,-119 586.021,-122.5 586.021,-115.5"/>
</g>
<!-- Node5&#45;&gt;Node2 -->
<g id="edge10" class="edge"><title>Node5&#45;&gt;Node2</title>
<path fill="none" stroke="midnightblue" d="M563.671,-52.4211C586.08,-54.4257 609.305,-56.5033 631.422,-58.4819"/>
<polygon fill="midnightblue" stroke="midnightblue" points="563.712,-48.9108 553.44,-51.5058 563.089,-55.883 563.712,-48.9108"/>
</g>
<!-- Node5&#45;&gt;Node6 -->
<g id="edge12" class="edge"><title>Node5&#45;&gt;Node6</title>
<path fill="none" stroke="midnightblue" d="M555.939,-29.5043C583.367,-26.8754 612.382,-24.0944 639.353,-21.5093"/>
<polygon fill="midnightblue" stroke="midnightblue" points="555.532,-26.0271 545.912,-30.4653 556.2,-32.9952 555.532,-26.0271"/>
</g>
</g>
</svg>
