<?xml version="1.0" encoding="UTF-8" standalone="no"?>
<!DOCTYPE svg PUBLIC "-//W3C//DTD SVG 1.1//EN"
 "http://www.w3.org/Graphics/SVG/1.1/DTD/svg11.dtd">
<!-- Generated by graphviz version 2.26.3 (20100126.1600)
 -->
<!-- Title: G Pages: 1 -->
<svg width="962pt" height="1341pt"
 viewBox="0.00 0.00 962.00 1341.04" xmlns="http://www.w3.org/2000/svg" xmlns:xlink="http://www.w3.org/1999/xlink">
<g id="graph1" class="graph" transform="scale(1 1) rotate(0) translate(4 1337.04)">
<title>G</title>
<polygon fill="white" stroke="white" points="-4,5 -4,-1337.04 959,-1337.04 959,5 -4,5"/>
<!-- Node1 -->
<g id="node1" class="node"><title>Node1</title>
<polygon fill="#bfbfbf" stroke="black" points="0,-441 0,-475 178,-475 178,-441 0,-441"/>
<text text-anchor="start" x="8" y="-462" font-family="Helvetica,sans-Serif" font-size="10.00">ZendDbSchema_Db_Schema</text>
<text text-anchor="middle" x="89" y="-449" font-family="Helvetica,sans-Serif" font-size="10.00">_AbstractSchema\_getCleanSchema</text>
</g>
<!-- Node2 -->
<g id="node3" class="node"><title>Node2</title>
<a xlink:href="classZendDbSchema__Db__Schema__AbstractSchema.html#a46da7a60c7e5fd605607afbc1dac4baa" target="_top" xlink:title="ZendDbSchema_Db_Schema\l_AbstractSchema\\getCleanSchema">
<polygon fill="white" stroke="black" points="214.5,-441 214.5,-475 387.5,-475 387.5,-441 214.5,-441"/>
<text text-anchor="start" x="222.5" y="-462" font-family="Helvetica,sans-Serif" font-size="10.00">ZendDbSchema_Db_Schema</text>
<text text-anchor="middle" x="301" y="-449" font-family="Helvetica,sans-Serif" font-size="10.00">_AbstractSchema\getCleanSchema</text>
</a>
</g>
<!-- Node1&#45;&gt;Node2 -->
<g id="edge2" class="edge"><title>Node1&#45;&gt;Node2</title>
<path fill="none" stroke="midnightblue" d="M188.372,-458C196.994,-458 205.673,-458 214.183,-458"/>
<polygon fill="midnightblue" stroke="midnightblue" points="188.293,-454.5 178.293,-458 188.293,-461.5 188.293,-454.5"/>
</g>
<!-- Node3 -->
<g id="node5" class="node"><title>Node3</title>
<a xlink:href="classZendDbSchema__Db__Schema__AbstractSchema.html#a1680a8fd22360f74d29b641d7257a52f" target="_top" xlink:title="ZendDbSchema_Db_Schema\l_AbstractSchema\\isExist">
<polygon fill="white" stroke="black" points="424,-677 424,-711 570,-711 570,-677 424,-677"/>
<text text-anchor="start" x="432" y="-698" font-family="Helvetica,sans-Serif" font-size="10.00">ZendDbSchema_Db_Schema</text>
<text text-anchor="middle" x="497" y="-685" font-family="Helvetica,sans-Serif" font-size="10.00">_AbstractSchema\isExist</text>
</a>
</g>
<!-- Node2&#45;&gt;Node3 -->
<g id="edge4" class="edge"><title>Node2&#45;&gt;Node3</title>
<path fill="none" stroke="midnightblue" d="M321.881,-483.142C361.963,-531.404 448.732,-635.882 482.831,-676.939"/>
<polygon fill="midnightblue" stroke="midnightblue" points="324.494,-480.81 315.412,-475.354 319.109,-485.283 324.494,-480.81"/>
</g>
<!-- Node28 -->
<g id="node57" class="node"><title>Node28</title>
<a xlink:href="classZendDbSchema__Db__Schema__AbstractSchema.html#ae859790a91bbcb9c4dc52a6139e5999e" target="_top" xlink:title="ZendDbSchema_Db_Schema\l_AbstractSchema\\isDirty">
<polygon fill="white" stroke="black" points="424,-1208 424,-1242 570,-1242 570,-1208 424,-1208"/>
<text text-anchor="start" x="432" y="-1229" font-family="Helvetica,sans-Serif" font-size="10.00">ZendDbSchema_Db_Schema</text>
<text text-anchor="middle" x="497" y="-1216" font-family="Helvetica,sans-Serif" font-size="10.00">_AbstractSchema\isDirty</text>
</a>
</g>
<!-- Node2&#45;&gt;Node28 -->
<g id="edge58" class="edge"><title>Node2&#45;&gt;Node28</title>
<path fill="none" stroke="midnightblue" d="M307.937,-485.147C339.282,-607.809 467.262,-1108.63 492.621,-1207.86"/>
<polygon fill="midnightblue" stroke="midnightblue" points="311.236,-483.917 305.369,-475.095 304.453,-485.651 311.236,-483.917"/>
</g>
<!-- Node29 -->
<g id="node63" class="node"><title>Node29</title>
<a xlink:href="classZendDbSchema__Db__Schema__AbstractSchema.html#a84673a5d69f10fec5b31294bf53f6d56" target="_top" xlink:title="ZendDbSchema_Db_Schema\l_AbstractSchema\\refresh">
<polygon fill="white" stroke="black" points="424,-52 424,-86 570,-86 570,-52 424,-52"/>
<text text-anchor="start" x="432" y="-73" font-family="Helvetica,sans-Serif" font-size="10.00">ZendDbSchema_Db_Schema</text>
<text text-anchor="middle" x="497" y="-60" font-family="Helvetica,sans-Serif" font-size="10.00">_AbstractSchema\refresh</text>
</a>
</g>
<!-- Node2&#45;&gt;Node29 -->
<g id="edge68" class="edge"><title>Node2&#45;&gt;Node29</title>
<path fill="none" stroke="midnightblue" d="M312.563,-431.73C333.62,-384.299 380.108,-281.442 424,-197 445.001,-156.596 472.09,-110.496 486.648,-86.1547"/>
<polygon fill="midnightblue" stroke="midnightblue" points="309.314,-430.423 308.466,-440.984 315.715,-433.257 309.314,-430.423"/>
</g>
<!-- Node32 -->
<g id="node69" class="node"><title>Node32</title>
<a xlink:href="classZendDbSchema__Db__Schema__Table.html#a21a2a75870207a989576655fec7507c3" target="_top" xlink:title="ZendDbSchema_Db_Schema\l_Table\\isDirty">
<polygon fill="white" stroke="black" points="424,-206 424,-240 570,-240 570,-206 424,-206"/>
<text text-anchor="start" x="432" y="-227" font-family="Helvetica,sans-Serif" font-size="10.00">ZendDbSchema_Db_Schema</text>
<text text-anchor="middle" x="497" y="-214" font-family="Helvetica,sans-Serif" font-size="10.00">_Table\isDirty</text>
</a>
</g>
<!-- Node2&#45;&gt;Node32 -->
<g id="edge74" class="edge"><title>Node2&#45;&gt;Node32</title>
<path fill="none" stroke="midnightblue" d="M321.864,-432.985C361.835,-385.06 448.281,-281.413 482.567,-240.305"/>
<polygon fill="midnightblue" stroke="midnightblue" points="319.13,-430.799 315.412,-440.72 324.505,-435.282 319.13,-430.799"/>
</g>
<!-- Node4 -->
<g id="node7" class="node"><title>Node4</title>
<a xlink:href="classZendDbSchema__Db__Schema__AbstractEntity.html#a5b1c93da76c3708f90d330b4643e55b2" target="_top" xlink:title="ZendDbSchema_Db_Schema\l_AbstractEntity\\save">
<polygon fill="white" stroke="black" points="803,-1234 803,-1268 949,-1268 949,-1234 803,-1234"/>
<text text-anchor="start" x="811" y="-1255" font-family="Helvetica,sans-Serif" font-size="10.00">ZendDbSchema_Db_Schema</text>
<text text-anchor="middle" x="876" y="-1242" font-family="Helvetica,sans-Serif" font-size="10.00">_AbstractEntity\save</text>
</a>
</g>
<!-- Node3&#45;&gt;Node4 -->
<g id="edge6" class="edge"><title>Node3&#45;&gt;Node4</title>
<path fill="none" stroke="midnightblue" d="M500.781,-721.308C512.598,-802.78 551.343,-1041.77 606,-1095 657.123,-1144.79 708.274,-1086.03 762,-1133 795.057,-1161.9 766.167,-1194.76 798,-1225 801.519,-1228.34 805.478,-1231.26 809.7,-1233.8"/>
<polygon fill="midnightblue" stroke="midnightblue" points="504.232,-720.722 499.353,-711.318 497.303,-721.713 504.232,-720.722"/>
</g>
<!-- Node5 -->
<g id="node9" class="node"><title>Node5</title>
<a xlink:href="classZendDbSchema__Db__Schema__AbstractEntity.html#a26fcff2268495fcdbfa265f394ee93d9" target="_top" xlink:title="ZendDbSchema_Db_Schema\l_AbstractEntity\\delete">
<polygon fill="white" stroke="black" points="803,-733 803,-767 949,-767 949,-733 803,-733"/>
<text text-anchor="start" x="811" y="-754" font-family="Helvetica,sans-Serif" font-size="10.00">ZendDbSchema_Db_Schema</text>
<text text-anchor="middle" x="876" y="-741" font-family="Helvetica,sans-Serif" font-size="10.00">_AbstractEntity\delete</text>
</a>
</g>
<!-- Node3&#45;&gt;Node5 -->
<g id="edge8" class="edge"><title>Node3&#45;&gt;Node5</title>
<path fill="none" stroke="midnightblue" d="M505.53,-720.711C519.502,-759.394 551.322,-829.589 606,-859 667.06,-891.844 697.651,-884.813 762,-859 808.254,-840.446 846.36,-793.181 864.525,-767.407"/>
<polygon fill="midnightblue" stroke="midnightblue" points="508.796,-719.445 502.209,-711.147 502.183,-721.742 508.796,-719.445"/>
</g>
<!-- Node6 -->
<g id="node11" class="node"><title>Node6</title>
<a xlink:href="classZendDbSchema__Db__Schema__AbstractSchema.html#aec661ede88f500caaf2a09e98c31d3b0" target="_top" xlink:title="ZendDbSchema_Db_Schema\l_AbstractSchema\\getDropSql">
<polygon fill="white" stroke="black" points="611,-552 611,-586 757,-586 757,-552 611,-552"/>
<text text-anchor="start" x="619" y="-573" font-family="Helvetica,sans-Serif" font-size="10.00">ZendDbSchema_Db_Schema</text>
<text text-anchor="middle" x="684" y="-560" font-family="Helvetica,sans-Serif" font-size="10.00">_AbstractSchema\getDropSql</text>
</a>
</g>
<!-- Node3&#45;&gt;Node6 -->
<g id="edge10" class="edge"><title>Node3&#45;&gt;Node6</title>
<path fill="none" stroke="midnightblue" d="M518.555,-669.263C539.071,-647.074 571.81,-615.012 606,-595 611.667,-591.683 617.815,-588.719 624.09,-586.087"/>
<polygon fill="midnightblue" stroke="midnightblue" points="515.704,-667.196 511.57,-676.951 520.885,-671.904 515.704,-667.196"/>
</g>
<!-- Node8 -->
<g id="node16" class="node"><title>Node8</title>
<a xlink:href="classZendDbSchema__Db__Schema__AbstractSchema.html#ada5af8e6e7a4c5407b7ca67d03900b31" target="_top" xlink:title="ZendDbSchema_Db_Schema\l_AbstractSchema\\toSql">
<polygon fill="white" stroke="black" points="611,-1208 611,-1242 757,-1242 757,-1208 611,-1208"/>
<text text-anchor="start" x="619" y="-1229" font-family="Helvetica,sans-Serif" font-size="10.00">ZendDbSchema_Db_Schema</text>
<text text-anchor="middle" x="684" y="-1216" font-family="Helvetica,sans-Serif" font-size="10.00">_AbstractSchema\toSql</text>
</a>
</g>
<!-- Node3&#45;&gt;Node8 -->
<g id="edge16" class="edge"><title>Node3&#45;&gt;Node8</title>
<path fill="none" stroke="midnightblue" d="M499.364,-721.285C508.064,-815.706 541.214,-1126.73 606,-1199 609.049,-1202.4 612.554,-1205.36 616.354,-1207.93"/>
<polygon fill="midnightblue" stroke="midnightblue" points="502.831,-720.761 498.445,-711.117 495.859,-721.391 502.831,-720.761"/>
</g>
<!-- Node10 -->
<g id="node21" class="node"><title>Node10</title>
<a xlink:href="classZendDbSchema__Db__Schema__Generator__Mysql__Database.html#a98cc5d4cbab5e5c8b32d7b02fa9cb0dc" target="_top" xlink:title="ZendDbSchema_Db_Schema\l_Generator_Mysql_Database\l\\alterDatabase">
<polygon fill="white" stroke="black" points="611,-1260.5 611,-1307.5 757,-1307.5 757,-1260.5 611,-1260.5"/>
<text text-anchor="start" x="619" y="-1294.5" font-family="Helvetica,sans-Serif" font-size="10.00">ZendDbSchema_Db_Schema</text>
<text text-anchor="start" x="619" y="-1281.5" font-family="Helvetica,sans-Serif" font-size="10.00">_Generator_Mysql_Database</text>
<text text-anchor="middle" x="684" y="-1268.5" font-family="Helvetica,sans-Serif" font-size="10.00">\alterDatabase</text>
</a>
</g>
<!-- Node3&#45;&gt;Node10 -->
<g id="edge22" class="edge"><title>Node3&#45;&gt;Node10</title>
<path fill="none" stroke="midnightblue" d="M498.983,-721.227C506.77,-821.33 538.208,-1167.49 606,-1251 608.78,-1254.42 611.98,-1257.5 615.463,-1260.26"/>
<polygon fill="midnightblue" stroke="midnightblue" points="502.456,-720.738 498.207,-711.033 495.477,-721.27 502.456,-720.738"/>
</g>
<!-- Node11 -->
<g id="node23" class="node"><title>Node11</title>
<a xlink:href="classZendDbSchema__Db__Schema__Generator__Mysql__Database.html#a94a1d9e8d2eaa3740bd9b62cc3a8973e" target="_top" xlink:title="ZendDbSchema_Db_Schema\l_Generator_Mysql_Database\l\\dropDatabase">
<polygon fill="white" stroke="black" points="611,-972.5 611,-1019.5 757,-1019.5 757,-972.5 611,-972.5"/>
<text text-anchor="start" x="619" y="-1006.5" font-family="Helvetica,sans-Serif" font-size="10.00">ZendDbSchema_Db_Schema</text>
<text text-anchor="start" x="619" y="-993.5" font-family="Helvetica,sans-Serif" font-size="10.00">_Generator_Mysql_Database</text>
<text text-anchor="middle" x="684" y="-980.5" font-family="Helvetica,sans-Serif" font-size="10.00">\dropDatabase</text>
</a>
</g>
<!-- Node3&#45;&gt;Node11 -->
<g id="edge24" class="edge"><title>Node3&#45;&gt;Node11</title>
<path fill="none" stroke="midnightblue" d="M500.995,-721.332C510.143,-774.628 537.361,-893.306 606,-963 609.405,-966.457 613.228,-969.571 617.305,-972.374"/>
<polygon fill="midnightblue" stroke="midnightblue" points="504.421,-720.59 499.354,-711.285 497.512,-721.719 504.421,-720.59"/>
</g>
<!-- Node12 -->
<g id="node25" class="node"><title>Node12</title>
<a xlink:href="classZendDbSchema__Db__Schema__Generator__Pgsql__Database.html#a4d4b5c6abc51a4ab72fc480602f502c3" target="_top" xlink:title="ZendDbSchema_Db_Schema\l_Generator_Pgsql_Database\l\\alterDatabase">
<polygon fill="white" stroke="black" points="611,-1142.5 611,-1189.5 757,-1189.5 757,-1142.5 611,-1142.5"/>
<text text-anchor="start" x="619" y="-1176.5" font-family="Helvetica,sans-Serif" font-size="10.00">ZendDbSchema_Db_Schema</text>
<text text-anchor="start" x="619" y="-1163.5" font-family="Helvetica,sans-Serif" font-size="10.00">_Generator_Pgsql_Database</text>
<text text-anchor="middle" x="684" y="-1150.5" font-family="Helvetica,sans-Serif" font-size="10.00">\alterDatabase</text>
</a>
</g>
<!-- Node3&#45;&gt;Node12 -->
<g id="edge26" class="edge"><title>Node3&#45;&gt;Node12</title>
<path fill="none" stroke="midnightblue" d="M500.798,-721.309C513.067,-806.226 553.888,-1063.79 606,-1128 610.461,-1133.5 615.914,-1138.26 621.843,-1142.36"/>
<polygon fill="midnightblue" stroke="midnightblue" points="504.26,-720.794 499.382,-711.39 497.33,-721.784 504.26,-720.794"/>
</g>
<!-- Node13 -->
<g id="node27" class="node"><title>Node13</title>
<a xlink:href="classZendDbSchema__Db__Schema__Generator__Pgsql__Database.html#ad5abe9239fea98c39605aeb77f6ca268" target="_top" xlink:title="ZendDbSchema_Db_Schema\l_Generator_Pgsql_Database\l\\dropDatabase">
<polygon fill="white" stroke="black" points="611,-906.5 611,-953.5 757,-953.5 757,-906.5 611,-906.5"/>
<text text-anchor="start" x="619" y="-940.5" font-family="Helvetica,sans-Serif" font-size="10.00">ZendDbSchema_Db_Schema</text>
<text text-anchor="start" x="619" y="-927.5" font-family="Helvetica,sans-Serif" font-size="10.00">_Generator_Pgsql_Database</text>
<text text-anchor="middle" x="684" y="-914.5" font-family="Helvetica,sans-Serif" font-size="10.00">\dropDatabase</text>
</a>
</g>
<!-- Node3&#45;&gt;Node13 -->
<g id="edge28" class="edge"><title>Node3&#45;&gt;Node13</title>
<path fill="none" stroke="midnightblue" d="M505.734,-720.737C520.464,-762.199 553.844,-842.384 606,-892 611.675,-897.399 618.263,-902.172 625.159,-906.352"/>
<polygon fill="midnightblue" stroke="midnightblue" points="508.967,-719.378 502.391,-711.072 502.352,-721.667 508.967,-719.378"/>
</g>
<!-- Node14 -->
<g id="node29" class="node"><title>Node14</title>
<a xlink:href="classZendDbSchema__Db__Schema__Generator__Mysql__Table.html#ab073dc755f15a13bd94772846df4249c" target="_top" xlink:title="ZendDbSchema_Db_Schema\l_Generator_Mysql_Table\l\\alterTable">
<polygon fill="white" stroke="black" points="611,-170.5 611,-217.5 757,-217.5 757,-170.5 611,-170.5"/>
<text text-anchor="start" x="619" y="-204.5" font-family="Helvetica,sans-Serif" font-size="10.00">ZendDbSchema_Db_Schema</text>
<text text-anchor="start" x="619" y="-191.5" font-family="Helvetica,sans-Serif" font-size="10.00">_Generator_Mysql_Table</text>
<text text-anchor="middle" x="684" y="-178.5" font-family="Helvetica,sans-Serif" font-size="10.00">\alterTable</text>
</a>
</g>
<!-- Node3&#45;&gt;Node14 -->
<g id="edge30" class="edge"><title>Node3&#45;&gt;Node14</title>
<path fill="none" stroke="midnightblue" d="M500.122,-666.61C510.809,-577.141 548.468,-295.314 606,-227 608.936,-223.514 612.305,-220.388 615.959,-217.586"/>
<polygon fill="midnightblue" stroke="midnightblue" points="496.619,-666.431 498.926,-676.772 503.571,-667.25 496.619,-666.431"/>
</g>
<!-- Node15 -->
<g id="node31" class="node"><title>Node15</title>
<a xlink:href="classZendDbSchema__Db__Schema__Generator__Mysql__Table.html#a83d5cec1c67e8961773da5a47d213301" target="_top" xlink:title="ZendDbSchema_Db_Schema\l_Generator_Mysql_Table\l\\dropTable">
<polygon fill="white" stroke="black" points="611,-802.5 611,-849.5 757,-849.5 757,-802.5 611,-802.5"/>
<text text-anchor="start" x="619" y="-836.5" font-family="Helvetica,sans-Serif" font-size="10.00">ZendDbSchema_Db_Schema</text>
<text text-anchor="start" x="619" y="-823.5" font-family="Helvetica,sans-Serif" font-size="10.00">_Generator_Mysql_Table</text>
<text text-anchor="middle" x="684" y="-810.5" font-family="Helvetica,sans-Serif" font-size="10.00">\dropTable</text>
</a>
</g>
<!-- Node3&#45;&gt;Node15 -->
<g id="edge32" class="edge"><title>Node3&#45;&gt;Node15</title>
<path fill="none" stroke="midnightblue" d="M519.656,-718.872C540.468,-740.609 573.005,-771.907 606,-793 611.203,-796.326 616.799,-799.449 622.517,-802.346"/>
<polygon fill="midnightblue" stroke="midnightblue" points="521.949,-716.202 512.539,-711.332 516.858,-721.007 521.949,-716.202"/>
</g>
<!-- Node16 -->
<g id="node33" class="node"><title>Node16</title>
<a xlink:href="classZendDbSchema__Db__Schema__Generator__Mysql__Table.html#aa8814727b4633316559e8865c62d9146" target="_top" xlink:title="ZendDbSchema_Db_Schema\l_Generator_Mysql_Table\l\\alterColumn">
<polygon fill="white" stroke="black" points="611,-736.5 611,-783.5 757,-783.5 757,-736.5 611,-736.5"/>
<text text-anchor="start" x="619" y="-770.5" font-family="Helvetica,sans-Serif" font-size="10.00">ZendDbSchema_Db_Schema</text>
<text text-anchor="start" x="619" y="-757.5" font-family="Helvetica,sans-Serif" font-size="10.00">_Generator_Mysql_Table</text>
<text text-anchor="middle" x="684" y="-744.5" font-family="Helvetica,sans-Serif" font-size="10.00">\alterColumn</text>
</a>
</g>
<!-- Node3&#45;&gt;Node16 -->
<g id="edge34" class="edge"><title>Node3&#45;&gt;Node16</title>
<path fill="none" stroke="midnightblue" d="M555.101,-714.506C574.808,-721.462 596.976,-729.286 617.299,-736.459"/>
<polygon fill="midnightblue" stroke="midnightblue" points="556.239,-711.196 545.644,-711.168 553.909,-717.797 556.239,-711.196"/>
</g>
<!-- Node17 -->
<g id="node35" class="node"><title>Node17</title>
<a xlink:href="classZendDbSchema__Db__Schema__Generator__Mysql__Table.html#ab62df69dc345afb27186d6eecc66e753" target="_top" xlink:title="ZendDbSchema_Db_Schema\l_Generator_Mysql_Table\l\\createIndex">
<polygon fill="white" stroke="black" points="611,-420.5 611,-467.5 757,-467.5 757,-420.5 611,-420.5"/>
<text text-anchor="start" x="619" y="-454.5" font-family="Helvetica,sans-Serif" font-size="10.00">ZendDbSchema_Db_Schema</text>
<text text-anchor="start" x="619" y="-441.5" font-family="Helvetica,sans-Serif" font-size="10.00">_Generator_Mysql_Table</text>
<text text-anchor="middle" x="684" y="-428.5" font-family="Helvetica,sans-Serif" font-size="10.00">\createIndex</text>
</a>
</g>
<!-- Node3&#45;&gt;Node17 -->
<g id="edge36" class="edge"><title>Node3&#45;&gt;Node17</title>
<path fill="none" stroke="midnightblue" d="M503.946,-666.957C516.821,-621.85 548.462,-530.901 606,-477 609.648,-473.582 613.704,-470.49 617.993,-467.698"/>
<polygon fill="midnightblue" stroke="midnightblue" points="500.494,-666.308 501.208,-676.879 507.242,-668.171 500.494,-666.308"/>
</g>
<!-- Node19 -->
<g id="node39" class="node"><title>Node19</title>
<a xlink:href="classZendDbSchema__Db__Schema__Generator__Mysql__Table.html#a3b806bcbce70989120035d56ee12071c" target="_top" xlink:title="ZendDbSchema_Db_Schema\l_Generator_Mysql_Table\l\\alterForeignKey">
<polygon fill="white" stroke="black" points="611,-670.5 611,-717.5 757,-717.5 757,-670.5 611,-670.5"/>
<text text-anchor="start" x="619" y="-704.5" font-family="Helvetica,sans-Serif" font-size="10.00">ZendDbSchema_Db_Schema</text>
<text text-anchor="start" x="619" y="-691.5" font-family="Helvetica,sans-Serif" font-size="10.00">_Generator_Mysql_Table</text>
<text text-anchor="middle" x="684" y="-678.5" font-family="Helvetica,sans-Serif" font-size="10.00">\alterForeignKey</text>
</a>
</g>
<!-- Node3&#45;&gt;Node19 -->
<g id="edge40" class="edge"><title>Node3&#45;&gt;Node19</title>
<path fill="none" stroke="midnightblue" d="M580.259,-694C590.489,-694 600.885,-694 610.948,-694"/>
<polygon fill="midnightblue" stroke="midnightblue" points="580.103,-690.5 570.103,-694 580.102,-697.5 580.103,-690.5"/>
</g>
<!-- Node20 -->
<g id="node41" class="node"><title>Node20</title>
<a xlink:href="classZendDbSchema__Db__Schema__Generator__Pgsql__Table.html#a5273ef7520b31135bc524b432754762d" target="_top" xlink:title="ZendDbSchema_Db_Schema\l_Generator_Pgsql_Table\l\\alterTable">
<polygon fill="white" stroke="black" points="611,-104.5 611,-151.5 757,-151.5 757,-104.5 611,-104.5"/>
<text text-anchor="start" x="619" y="-138.5" font-family="Helvetica,sans-Serif" font-size="10.00">ZendDbSchema_Db_Schema</text>
<text text-anchor="start" x="619" y="-125.5" font-family="Helvetica,sans-Serif" font-size="10.00">_Generator_Pgsql_Table</text>
<text text-anchor="middle" x="684" y="-112.5" font-family="Helvetica,sans-Serif" font-size="10.00">\alterTable</text>
</a>
</g>
<!-- Node3&#45;&gt;Node20 -->
<g id="edge42" class="edge"><title>Node3&#45;&gt;Node20</title>
<path fill="none" stroke="midnightblue" d="M501.017,-667.006C516.512,-564.224 573.166,-201.097 606,-161 608.795,-157.587 612.006,-154.521 615.497,-151.767"/>
<polygon fill="midnightblue" stroke="midnightblue" points="497.553,-666.505 499.529,-676.914 504.475,-667.544 497.553,-666.505"/>
</g>
<!-- Node21 -->
<g id="node43" class="node"><title>Node21</title>
<a xlink:href="classZendDbSchema__Db__Schema__Generator__Pgsql__Table.html#abfd240c872df10ff0b021ff86af52641" target="_top" xlink:title="ZendDbSchema_Db_Schema\l_Generator_Pgsql_Table\l\\dropTable">
<polygon fill="white" stroke="black" points="611,-604.5 611,-651.5 757,-651.5 757,-604.5 611,-604.5"/>
<text text-anchor="start" x="619" y="-638.5" font-family="Helvetica,sans-Serif" font-size="10.00">ZendDbSchema_Db_Schema</text>
<text text-anchor="start" x="619" y="-625.5" font-family="Helvetica,sans-Serif" font-size="10.00">_Generator_Pgsql_Table</text>
<text text-anchor="middle" x="684" y="-612.5" font-family="Helvetica,sans-Serif" font-size="10.00">\dropTable</text>
</a>
</g>
<!-- Node3&#45;&gt;Node21 -->
<g id="edge44" class="edge"><title>Node3&#45;&gt;Node21</title>
<path fill="none" stroke="midnightblue" d="M555.101,-673.494C574.808,-666.538 596.976,-658.714 617.299,-651.541"/>
<polygon fill="midnightblue" stroke="midnightblue" points="553.909,-670.203 545.644,-676.832 556.239,-676.804 553.909,-670.203"/>
</g>
<!-- Node22 -->
<g id="node45" class="node"><title>Node22</title>
<a xlink:href="classZendDbSchema__Db__Schema__Generator__Pgsql__Table.html#a2530efde9e464bbbcfbd166c622023d0" target="_top" xlink:title="ZendDbSchema_Db_Schema\l_Generator_Pgsql_Table\l\\alterColumn">
<polygon fill="white" stroke="black" points="611,-486.5 611,-533.5 757,-533.5 757,-486.5 611,-486.5"/>
<text text-anchor="start" x="619" y="-520.5" font-family="Helvetica,sans-Serif" font-size="10.00">ZendDbSchema_Db_Schema</text>
<text text-anchor="start" x="619" y="-507.5" font-family="Helvetica,sans-Serif" font-size="10.00">_Generator_Pgsql_Table</text>
<text text-anchor="middle" x="684" y="-494.5" font-family="Helvetica,sans-Serif" font-size="10.00">\alterColumn</text>
</a>
</g>
<!-- Node3&#45;&gt;Node22 -->
<g id="edge46" class="edge"><title>Node3&#45;&gt;Node22</title>
<path fill="none" stroke="midnightblue" d="M510.171,-667.627C527.886,-634.518 562.276,-577.847 606,-543 610.254,-539.609 614.909,-536.509 619.758,-533.687"/>
<polygon fill="midnightblue" stroke="midnightblue" points="506.959,-666.217 505.42,-676.7 513.16,-669.465 506.959,-666.217"/>
</g>
<!-- Node23 -->
<g id="node47" class="node"><title>Node23</title>
<a xlink:href="classZendDbSchema__Db__Schema__Generator__Pgsql__Table.html#a8bbaca639d104255bc1eeebb0c2f7da7" target="_top" xlink:title="ZendDbSchema_Db_Schema\l_Generator_Pgsql_Table\l\\createIndex">
<polygon fill="white" stroke="black" points="611,-1038.5 611,-1085.5 757,-1085.5 757,-1038.5 611,-1038.5"/>
<text text-anchor="start" x="619" y="-1072.5" font-family="Helvetica,sans-Serif" font-size="10.00">ZendDbSchema_Db_Schema</text>
<text text-anchor="start" x="619" y="-1059.5" font-family="Helvetica,sans-Serif" font-size="10.00">_Generator_Pgsql_Table</text>
<text text-anchor="middle" x="684" y="-1046.5" font-family="Helvetica,sans-Serif" font-size="10.00">\createIndex</text>
</a>
</g>
<!-- Node3&#45;&gt;Node23 -->
<g id="edge48" class="edge"><title>Node3&#45;&gt;Node23</title>
<path fill="none" stroke="midnightblue" d="M498.426,-721.263C503.1,-783.665 522.902,-938.459 606,-1029 609.182,-1032.47 612.786,-1035.58 616.659,-1038.38"/>
<polygon fill="midnightblue" stroke="midnightblue" points="501.902,-720.798 497.737,-711.056 494.918,-721.269 501.902,-720.798"/>
</g>
<!-- Node25 -->
<g id="node51" class="node"><title>Node25</title>
<a xlink:href="classZendDbSchema__Db__Schema__Generator__Pgsql__Table.html#af690e11fe350fcc7da00de979233e2b5" target="_top" xlink:title="ZendDbSchema_Db_Schema\l_Generator_Pgsql_Table\l\\alterForeignKey">
<polygon fill="white" stroke="black" points="611,-354.5 611,-401.5 757,-401.5 757,-354.5 611,-354.5"/>
<text text-anchor="start" x="619" y="-388.5" font-family="Helvetica,sans-Serif" font-size="10.00">ZendDbSchema_Db_Schema</text>
<text text-anchor="start" x="619" y="-375.5" font-family="Helvetica,sans-Serif" font-size="10.00">_Generator_Pgsql_Table</text>
<text text-anchor="middle" x="684" y="-362.5" font-family="Helvetica,sans-Serif" font-size="10.00">\alterForeignKey</text>
</a>
</g>
<!-- Node3&#45;&gt;Node25 -->
<g id="edge52" class="edge"><title>Node3&#45;&gt;Node25</title>
<path fill="none" stroke="midnightblue" d="M500.336,-666.817C508.48,-611.566 534.252,-485.125 606,-411 609.375,-407.513 613.175,-404.377 617.236,-401.56"/>
<polygon fill="midnightblue" stroke="midnightblue" points="496.848,-666.494 498.934,-676.881 503.781,-667.46 496.848,-666.494"/>
</g>
<!-- Node26 -->
<g id="node53" class="node"><title>Node26</title>
<a xlink:href="classZendDbSchema__Db__Schema__Table.html#a6178edaeea7e08d97e2196dd991532f9" target="_top" xlink:title="ZendDbSchema_Db_Schema\l_Table\\toSql">
<polygon fill="white" stroke="black" points="611,-236 611,-270 757,-270 757,-236 611,-236"/>
<text text-anchor="start" x="619" y="-257" font-family="Helvetica,sans-Serif" font-size="10.00">ZendDbSchema_Db_Schema</text>
<text text-anchor="middle" x="684" y="-244" font-family="Helvetica,sans-Serif" font-size="10.00">_Table\toSql</text>
</a>
</g>
<!-- Node3&#45;&gt;Node26 -->
<g id="edge54" class="edge"><title>Node3&#45;&gt;Node26</title>
<path fill="none" stroke="midnightblue" d="M500.735,-666.775C512.615,-583.872 551.956,-336.671 606,-279 609.123,-275.667 612.685,-272.761 616.526,-270.227"/>
<polygon fill="midnightblue" stroke="midnightblue" points="497.266,-666.309 499.332,-676.7 504.197,-667.288 497.266,-666.309"/>
</g>
<!-- Node27 -->
<g id="node55" class="node"><title>Node27</title>
<a xlink:href="classZendDbSchema__Db__Schema__Table__AbstractDefinition.html#a018fe3e134417675da482608579910a5" target="_top" xlink:title="ZendDbSchema_Db_Schema\l_Table_AbstractDefinition\l\\markDeleted">
<polygon fill="white" stroke="black" points="611,-288.5 611,-335.5 757,-335.5 757,-288.5 611,-288.5"/>
<text text-anchor="start" x="619" y="-322.5" font-family="Helvetica,sans-Serif" font-size="10.00">ZendDbSchema_Db_Schema</text>
<text text-anchor="start" x="619" y="-309.5" font-family="Helvetica,sans-Serif" font-size="10.00">_Table_AbstractDefinition</text>
<text text-anchor="middle" x="684" y="-296.5" font-family="Helvetica,sans-Serif" font-size="10.00">\markDeleted</text>
</a>
</g>
<!-- Node3&#45;&gt;Node27 -->
<g id="edge56" class="edge"><title>Node3&#45;&gt;Node27</title>
<path fill="none" stroke="midnightblue" d="M502.429,-666.718C517.505,-593.312 561.697,-393.848 606,-345 609.161,-341.515 612.75,-338.385 616.612,-335.577"/>
<polygon fill="midnightblue" stroke="midnightblue" points="498.982,-666.104 500.42,-676.601 505.842,-667.499 498.982,-666.104"/>
</g>
<!-- Node6&#45;&gt;Node5 -->
<g id="edge12" class="edge"><title>Node6&#45;&gt;Node5</title>
<path fill="none" stroke="midnightblue" d="M756.163,-591.107C758.173,-592.338 760.125,-593.635 762,-595 813.854,-632.744 852.052,-701.06 867.91,-732.858"/>
<polygon fill="midnightblue" stroke="midnightblue" points="757.477,-587.837 747.023,-586.118 754.123,-593.982 757.477,-587.837"/>
</g>
<!-- Node7 -->
<g id="node14" class="node"><title>Node7</title>
<a xlink:href="classZendDbSchema__Db__Schema__Table__AbstractDefinition.html#a75c1b3ef1005c2d6aa371ecef07d530d" target="_top" xlink:title="ZendDbSchema_Db_Schema\l_Table_AbstractDefinition\\toSql">
<polygon fill="white" stroke="black" points="798.5,-552 798.5,-586 953.5,-586 953.5,-552 798.5,-552"/>
<text text-anchor="start" x="806.5" y="-573" font-family="Helvetica,sans-Serif" font-size="10.00">ZendDbSchema_Db_Schema</text>
<text text-anchor="middle" x="876" y="-560" font-family="Helvetica,sans-Serif" font-size="10.00">_Table_AbstractDefinition\toSql</text>
</a>
</g>
<!-- Node6&#45;&gt;Node7 -->
<g id="edge14" class="edge"><title>Node6&#45;&gt;Node7</title>
<path fill="none" stroke="midnightblue" d="M767.33,-569C777.609,-569 788.086,-569 798.277,-569"/>
<polygon fill="midnightblue" stroke="midnightblue" points="767.135,-565.5 757.135,-569 767.135,-572.5 767.135,-565.5"/>
</g>
<!-- Node8&#45;&gt;Node4 -->
<g id="edge18" class="edge"><title>Node8&#45;&gt;Node4</title>
<path fill="none" stroke="midnightblue" d="M767.394,-1236.29C779.163,-1237.89 791.191,-1239.52 802.751,-1241.08"/>
<polygon fill="midnightblue" stroke="midnightblue" points="767.514,-1232.78 757.135,-1234.9 766.575,-1239.71 767.514,-1232.78"/>
</g>
<!-- Node9 -->
<g id="node19" class="node"><title>Node9</title>
<a xlink:href="classZendDbSchema__Db__Schema__AbstractSchema.html#aafc458a7c19c74314889da4a99e457ff" target="_top" xlink:title="ZendDbSchema_Db_Schema\l_AbstractSchema\\__toString">
<polygon fill="white" stroke="black" points="803,-1182 803,-1216 949,-1216 949,-1182 803,-1182"/>
<text text-anchor="start" x="811" y="-1203" font-family="Helvetica,sans-Serif" font-size="10.00">ZendDbSchema_Db_Schema</text>
<text text-anchor="middle" x="876" y="-1190" font-family="Helvetica,sans-Serif" font-size="10.00">_AbstractSchema\__toString</text>
</a>
</g>
<!-- Node8&#45;&gt;Node9 -->
<g id="edge20" class="edge"><title>Node8&#45;&gt;Node9</title>
<path fill="none" stroke="midnightblue" d="M767.394,-1213.71C779.163,-1212.11 791.191,-1210.48 802.751,-1208.92"/>
<polygon fill="midnightblue" stroke="midnightblue" points="766.575,-1210.29 757.135,-1215.1 767.514,-1217.22 766.575,-1210.29"/>
</g>
<!-- Node18 -->
<g id="node37" class="node"><title>Node18</title>
<a xlink:href="classZendDbSchema__Db__Schema__Generator__Mysql__Table.html#a60e78ff04eba0a328b1df8ff7abbcd04" target="_top" xlink:title="ZendDbSchema_Db_Schema\l_Generator_Mysql_Table\l\\alterIndex">
<polygon fill="white" stroke="black" points="803,-420.5 803,-467.5 949,-467.5 949,-420.5 803,-420.5"/>
<text text-anchor="start" x="811" y="-454.5" font-family="Helvetica,sans-Serif" font-size="10.00">ZendDbSchema_Db_Schema</text>
<text text-anchor="start" x="811" y="-441.5" font-family="Helvetica,sans-Serif" font-size="10.00">_Generator_Mysql_Table</text>
<text text-anchor="middle" x="876" y="-428.5" font-family="Helvetica,sans-Serif" font-size="10.00">\alterIndex</text>
</a>
</g>
<!-- Node17&#45;&gt;Node18 -->
<g id="edge38" class="edge"><title>Node17&#45;&gt;Node18</title>
<path fill="none" stroke="midnightblue" d="M767.394,-444C779.163,-444 791.191,-444 802.751,-444"/>
<polygon fill="midnightblue" stroke="midnightblue" points="767.135,-440.5 757.135,-444 767.135,-447.5 767.135,-440.5"/>
</g>
<!-- Node24 -->
<g id="node49" class="node"><title>Node24</title>
<a xlink:href="classZendDbSchema__Db__Schema__Generator__Pgsql__Table.html#aad7fecb50c0c15801fc00e5dffc69910" target="_top" xlink:title="ZendDbSchema_Db_Schema\l_Generator_Pgsql_Table\l\\alterIndex">
<polygon fill="white" stroke="black" points="803,-1038.5 803,-1085.5 949,-1085.5 949,-1038.5 803,-1038.5"/>
<text text-anchor="start" x="811" y="-1072.5" font-family="Helvetica,sans-Serif" font-size="10.00">ZendDbSchema_Db_Schema</text>
<text text-anchor="start" x="811" y="-1059.5" font-family="Helvetica,sans-Serif" font-size="10.00">_Generator_Pgsql_Table</text>
<text text-anchor="middle" x="876" y="-1046.5" font-family="Helvetica,sans-Serif" font-size="10.00">\alterIndex</text>
</a>
</g>
<!-- Node23&#45;&gt;Node24 -->
<g id="edge50" class="edge"><title>Node23&#45;&gt;Node24</title>
<path fill="none" stroke="midnightblue" d="M767.394,-1062C779.163,-1062 791.191,-1062 802.751,-1062"/>
<polygon fill="midnightblue" stroke="midnightblue" points="767.135,-1058.5 757.135,-1062 767.135,-1065.5 767.135,-1058.5"/>
</g>
<!-- Node28&#45;&gt;Node4 -->
<g id="edge60" class="edge"><title>Node28&#45;&gt;Node4</title>
<path fill="none" stroke="midnightblue" d="M517.348,-1250.14C537.238,-1272.53 569.751,-1303.75 606,-1317 671.118,-1340.81 695.04,-1334.98 762,-1317 797.117,-1307.57 832.589,-1284.39 854.428,-1268.18"/>
<polygon fill="midnightblue" stroke="midnightblue" points="519.794,-1247.61 510.607,-1242.33 514.496,-1252.19 519.794,-1247.61"/>
</g>
<!-- Node28&#45;&gt;Node8 -->
<g id="edge62" class="edge"><title>Node28&#45;&gt;Node8</title>
<path fill="none" stroke="midnightblue" d="M580.259,-1225C590.489,-1225 600.885,-1225 610.948,-1225"/>
<polygon fill="midnightblue" stroke="midnightblue" points="580.103,-1221.5 570.103,-1225 580.102,-1228.5 580.103,-1221.5"/>
</g>
<!-- Node28&#45;&gt;Node10 -->
<g id="edge64" class="edge"><title>Node28&#45;&gt;Node10</title>
<path fill="none" stroke="midnightblue" d="M560.918,-1245.17C577.007,-1250.24 594.399,-1255.73 610.9,-1260.94"/>
<polygon fill="midnightblue" stroke="midnightblue" points="561.678,-1241.74 551.088,-1242.07 559.572,-1248.41 561.678,-1241.74"/>
</g>
<!-- Node28&#45;&gt;Node12 -->
<g id="edge66" class="edge"><title>Node28&#45;&gt;Node12</title>
<path fill="none" stroke="midnightblue" d="M560.918,-1204.83C577.007,-1199.76 594.399,-1194.27 610.9,-1189.06"/>
<polygon fill="midnightblue" stroke="midnightblue" points="559.572,-1201.59 551.088,-1207.93 561.678,-1208.26 559.572,-1201.59"/>
</g>
<!-- Node30 -->
<g id="node65" class="node"><title>Node30</title>
<a xlink:href="classZendDbSchema__Db__Schema__AbstractSchema.html#a95b8986f7fa3a4e26be024d3a621e4f6" target="_top" xlink:title="ZendDbSchema_Db_Schema\l_AbstractSchema\\__construct">
<polygon fill="white" stroke="black" points="609.5,-0 609.5,-34 758.5,-34 758.5,-0 609.5,-0"/>
<text text-anchor="start" x="617.5" y="-21" font-family="Helvetica,sans-Serif" font-size="10.00">ZendDbSchema_Db_Schema</text>
<text text-anchor="middle" x="684" y="-8" font-family="Helvetica,sans-Serif" font-size="10.00">_AbstractSchema\__construct</text>
</a>
</g>
<!-- Node29&#45;&gt;Node30 -->
<g id="edge70" class="edge"><title>Node29&#45;&gt;Node30</title>
<path fill="none" stroke="midnightblue" d="M568.075,-49.236C586.044,-44.2392 605.187,-38.9159 622.632,-34.065"/>
<polygon fill="midnightblue" stroke="midnightblue" points="566.928,-45.922 558.231,-51.9733 568.803,-52.6661 566.928,-45.922"/>
</g>
<!-- Node31 -->
<g id="node67" class="node"><title>Node31</title>
<a xlink:href="classZendDbSchema__Db__Schema__Table__PrimaryKey.html#a8189591ab7ced58307298ecc8f27779d" target="_top" xlink:title="ZendDbSchema_Db_Schema\l_Table_PrimaryKey\\__construct">
<polygon fill="white" stroke="black" points="606,-52 606,-86 762,-86 762,-52 606,-52"/>
<text text-anchor="start" x="614" y="-73" font-family="Helvetica,sans-Serif" font-size="10.00">ZendDbSchema_Db_Schema</text>
<text text-anchor="middle" x="684" y="-60" font-family="Helvetica,sans-Serif" font-size="10.00">_Table_PrimaryKey\__construct</text>
</a>
</g>
<!-- Node29&#45;&gt;Node31 -->
<g id="edge72" class="edge"><title>Node29&#45;&gt;Node31</title>
<path fill="none" stroke="midnightblue" d="M580.323,-69C588.762,-69 597.313,-69 605.697,-69"/>
<polygon fill="midnightblue" stroke="midnightblue" points="580.103,-65.5001 570.103,-69 580.102,-72.5001 580.103,-65.5001"/>
</g>
<!-- Node32&#45;&gt;Node14 -->
<g id="edge76" class="edge"><title>Node32&#45;&gt;Node14</title>
<path fill="none" stroke="midnightblue" d="M580.259,-210.088C590.489,-208.502 600.885,-206.89 610.948,-205.329"/>
<polygon fill="midnightblue" stroke="midnightblue" points="579.448,-206.672 570.103,-211.663 580.521,-213.589 579.448,-206.672"/>
</g>
<!-- Node32&#45;&gt;Node20 -->
<g id="edge78" class="edge"><title>Node32&#45;&gt;Node20</title>
<path fill="none" stroke="midnightblue" d="M534.029,-200.505C554.854,-188.22 581.514,-173.092 606,-161 612.46,-157.81 619.305,-154.632 626.15,-151.578"/>
<polygon fill="midnightblue" stroke="midnightblue" points="532.004,-197.637 525.194,-205.753 535.579,-203.655 532.004,-197.637"/>
</g>
<!-- Node32&#45;&gt;Node26 -->
<g id="edge80" class="edge"><title>Node32&#45;&gt;Node26</title>
<path fill="none" stroke="midnightblue" d="M580.259,-236.357C590.489,-237.998 600.885,-239.666 610.948,-241.28"/>
<polygon fill="midnightblue" stroke="midnightblue" points="580.531,-232.856 570.103,-234.728 579.422,-239.768 580.531,-232.856"/>
</g>
</g>
</svg>
