<?xml version="1.0" encoding="UTF-8" standalone="no"?>
<!DOCTYPE svg PUBLIC "-//W3C//DTD SVG 1.1//EN"
 "http://www.w3.org/Graphics/SVG/1.1/DTD/svg11.dtd">
<!-- Generated by graphviz version 2.26.3 (20100126.1600)
 -->
<!-- Title: G Pages: 1 -->
<svg width="898pt" height="109pt"
 viewBox="0.00 0.00 898.00 109.00" xmlns="http://www.w3.org/2000/svg" xmlns:xlink="http://www.w3.org/1999/xlink">
<g id="graph1" class="graph" transform="scale(1 1) rotate(0) translate(4 105)">
<title>G</title>
<polygon fill="white" stroke="white" points="-4,5 -4,-105 895,-105 895,5 -4,5"/>
<!-- Node1 -->
<g id="node1" class="node"><title>Node1</title>
<polygon fill="#bfbfbf" stroke="black" points="0,-40.5 0,-61.5 256,-61.5 256,-40.5 0,-40.5"/>
<text text-anchor="middle" x="128" y="-48.5" font-family="Helvetica,sans-Serif" font-size="10.00">ZendDbSchema_Db_Schema_AbstractSchema\isDirty</text>
</g>
<!-- Node2 -->
<g id="node3" class="node"><title>Node2</title>
<a xlink:href="classZendDbSchema__Db__Schema__Generator__Mysql.html#a5ffe10ce956b3e189c364d2bd03acf88" target="_top" xlink:title="ZendDbSchema_Db_Schema_Generator_Mysql\\alterDatabase">
<polygon fill="white" stroke="black" points="292,-79.5 292,-100.5 582,-100.5 582,-79.5 292,-79.5"/>
<text text-anchor="middle" x="437" y="-87.5" font-family="Helvetica,sans-Serif" font-size="10.00">ZendDbSchema_Db_Schema_Generator_Mysql\alterDatabase</text>
</a>
</g>
<!-- Node1&#45;&gt;Node2 -->
<g id="edge2" class="edge"><title>Node1&#45;&gt;Node2</title>
<path fill="none" stroke="midnightblue" d="M221.2,-62.7631C263.34,-68.0818 312.743,-74.3171 353.639,-79.4787"/>
<polygon fill="midnightblue" stroke="midnightblue" points="221.572,-59.2824 211.213,-61.5026 220.696,-66.2273 221.572,-59.2824"/>
</g>
<!-- Node3 -->
<g id="node5" class="node"><title>Node3</title>
<a xlink:href="classZendDbSchema__Db__Schema__AbstractEntity.html#a5b1c93da76c3708f90d330b4643e55b2" target="_top" xlink:title="ZendDbSchema_Db_Schema_AbstractEntity\\save">
<polygon fill="white" stroke="black" points="635,-40.5 635,-61.5 873,-61.5 873,-40.5 635,-40.5"/>
<text text-anchor="middle" x="754" y="-48.5" font-family="Helvetica,sans-Serif" font-size="10.00">ZendDbSchema_Db_Schema_AbstractEntity\save</text>
</a>
</g>
<!-- Node1&#45;&gt;Node3 -->
<g id="edge4" class="edge"><title>Node1&#45;&gt;Node3</title>
<path fill="none" stroke="midnightblue" d="M266.408,-51C376.865,-51 529.974,-51 634.987,-51"/>
<polygon fill="midnightblue" stroke="midnightblue" points="266.191,-47.5001 256.191,-51 266.191,-54.5001 266.191,-47.5001"/>
</g>
<!-- Node4 -->
<g id="node7" class="node"><title>Node4</title>
<a xlink:href="classZendDbSchema__Db__Schema__AbstractSchema.html#ada5af8e6e7a4c5407b7ca67d03900b31" target="_top" xlink:title="ZendDbSchema_Db_Schema_AbstractSchema\\toSql">
<polygon fill="white" stroke="black" points="312,-1.5 312,-22.5 562,-22.5 562,-1.5 312,-1.5"/>
<text text-anchor="middle" x="437" y="-9.5" font-family="Helvetica,sans-Serif" font-size="10.00">ZendDbSchema_Db_Schema_AbstractSchema\toSql</text>
</a>
</g>
<!-- Node1&#45;&gt;Node4 -->
<g id="edge6" class="edge"><title>Node1&#45;&gt;Node4</title>
<path fill="none" stroke="midnightblue" d="M221.2,-39.2369C263.34,-33.9182 312.743,-27.6829 353.639,-22.5213"/>
<polygon fill="midnightblue" stroke="midnightblue" points="220.696,-35.7727 211.213,-40.4974 221.572,-42.7176 220.696,-35.7727"/>
</g>
<!-- Node4&#45;&gt;Node3 -->
<g id="edge8" class="edge"><title>Node4&#45;&gt;Node3</title>
<path fill="none" stroke="midnightblue" d="M532.339,-23.7294C575.63,-29.0555 626.438,-35.3062 668.48,-40.4787"/>
<polygon fill="midnightblue" stroke="midnightblue" points="532.72,-20.2499 522.367,-22.5026 531.865,-27.1976 532.72,-20.2499"/>
</g>
<!-- Node5 -->
<g id="node10" class="node"><title>Node5</title>
<a xlink:href="classZendDbSchema__Db__Schema__AbstractSchema.html#aafc458a7c19c74314889da4a99e457ff" target="_top" xlink:title="ZendDbSchema_Db_Schema_AbstractSchema\\__toString">
<polygon fill="white" stroke="black" points="618,-0.5 618,-21.5 890,-21.5 890,-0.5 618,-0.5"/>
<text text-anchor="middle" x="754" y="-8.5" font-family="Helvetica,sans-Serif" font-size="10.00">ZendDbSchema_Db_Schema_AbstractSchema\__toString</text>
</a>
</g>
<!-- Node4&#45;&gt;Node5 -->
<g id="edge10" class="edge"><title>Node4&#45;&gt;Node5</title>
<path fill="none" stroke="midnightblue" d="M572.615,-11.5722C587.608,-11.5249 602.879,-11.4767 617.878,-11.4294"/>
<polygon fill="midnightblue" stroke="midnightblue" points="572.276,-8.07315 562.287,-11.6048 572.298,-15.0731 572.276,-8.07315"/>
</g>
</g>
</svg>
