<?xml version="1.0" encoding="UTF-8" standalone="no"?>
<!DOCTYPE svg PUBLIC "-//W3C//DTD SVG 1.1//EN"
 "http://www.w3.org/Graphics/SVG/1.1/DTD/svg11.dtd">
<!-- Generated by graphviz version 2.26.3 (20100126.1600)
 -->
<!-- Title: G Pages: 1 -->
<svg width="1140pt" height="150pt"
 viewBox="0.00 0.00 1140.00 150.00" xmlns="http://www.w3.org/2000/svg" xmlns:xlink="http://www.w3.org/1999/xlink">
<g id="graph1" class="graph" transform="scale(1 1) rotate(0) translate(4 146)">
<title>G</title>
<polygon fill="white" stroke="white" points="-4,5 -4,-146 1137,-146 1137,5 -4,5"/>
<!-- Node1 -->
<g id="node1" class="node"><title>Node1</title>
<polygon fill="#bfbfbf" stroke="black" points="0.5,-60.5 0.5,-81.5 245.5,-81.5 245.5,-60.5 0.5,-60.5"/>
<text text-anchor="middle" x="123" y="-68.5" font-family="Helvetica,sans-Serif" font-size="10.00">ZendDbSchema_Db_Migration_Manager\hasChange</text>
</g>
<!-- Node2 -->
<g id="node3" class="node"><title>Node2</title>
<a xlink:href="classZendDbSchema__Db__Migration__Manager.html#a3f8150b5e2fc90623a10c7890af80185" target="_top" xlink:title="ZendDbSchema_Db_Migration_Manager\\compareVersion">
<polygon fill="white" stroke="black" points="566,-80.5 566,-101.5 832,-101.5 832,-80.5 566,-80.5"/>
<text text-anchor="middle" x="699" y="-88.5" font-family="Helvetica,sans-Serif" font-size="10.00">ZendDbSchema_Db_Migration_Manager\compareVersion</text>
</a>
</g>
<!-- Node1&#45;&gt;Node2 -->
<g id="edge2" class="edge"><title>Node1&#45;&gt;Node2</title>
<path fill="none" stroke="midnightblue" d="M255.557,-75.6027C348.644,-78.8349 472.666,-83.1412 565.878,-86.3777"/>
<polygon fill="midnightblue" stroke="midnightblue" points="255.623,-72.1029 245.507,-75.2537 255.38,-79.0987 255.623,-72.1029"/>
</g>
<!-- Node5 -->
<g id="node9" class="node"><title>Node5</title>
<a xlink:href="classZendDbSchema__Db__Migration__Manager.html#a3d4f62489e72876f97bec3cd4448979d" target="_top" xlink:title="ZendDbSchema_Db_Migration_Manager\\getChange">
<polygon fill="white" stroke="black" points="284.5,-41.5 284.5,-62.5 527.5,-62.5 527.5,-41.5 284.5,-41.5"/>
<text text-anchor="middle" x="406" y="-49.5" font-family="Helvetica,sans-Serif" font-size="10.00">ZendDbSchema_Db_Migration_Manager\getChange</text>
</a>
</g>
<!-- Node1&#45;&gt;Node5 -->
<g id="edge8" class="edge"><title>Node1&#45;&gt;Node5</title>
<path fill="none" stroke="midnightblue" d="M256.032,-62.0685C265.401,-61.4395 274.819,-60.8072 284.123,-60.1826"/>
<polygon fill="midnightblue" stroke="midnightblue" points="255.636,-58.5871 245.893,-62.7492 256.105,-65.5714 255.636,-58.5871"/>
</g>
<!-- Node10 -->
<g id="node22" class="node"><title>Node10</title>
<a xlink:href="classZendDbSchema__Db__Migration__Manager.html#acb171835d37a1596a4ac6db273bf07ae" target="_top" xlink:title="ZendDbSchema_Db_Migration_Manager\\getNext">
<polygon fill="white" stroke="black" points="291,-0.5 291,-21.5 521,-21.5 521,-0.5 291,-0.5"/>
<text text-anchor="middle" x="406" y="-8.5" font-family="Helvetica,sans-Serif" font-size="10.00">ZendDbSchema_Db_Migration_Manager\getNext</text>
</a>
</g>
<!-- Node1&#45;&gt;Node10 -->
<g id="edge24" class="edge"><title>Node1&#45;&gt;Node10</title>
<path fill="none" stroke="midnightblue" d="M172.459,-57.8848C203.735,-49.8363 245.082,-39.6432 282,-32 300.281,-28.2153 320.182,-24.6162 338.582,-21.5009"/>
<polygon fill="midnightblue" stroke="midnightblue" points="171.481,-54.5226 162.677,-60.4167 173.235,-61.2993 171.481,-54.5226"/>
</g>
<!-- Node11 -->
<g id="node25" class="node"><title>Node11</title>
<a xlink:href="classZendDbSchema__Db__Migration__Manager.html#a3e9a5dfa3447c5eb1b4bbcc8817549c3" target="_top" xlink:title="ZendDbSchema_Db_Migration_Manager\\getPrevious">
<polygon fill="white" stroke="black" points="282,-119.5 282,-140.5 530,-140.5 530,-119.5 282,-119.5"/>
<text text-anchor="middle" x="406" y="-127.5" font-family="Helvetica,sans-Serif" font-size="10.00">ZendDbSchema_Db_Migration_Manager\getPrevious</text>
</a>
</g>
<!-- Node1&#45;&gt;Node11 -->
<g id="edge28" class="edge"><title>Node1&#45;&gt;Node11</title>
<path fill="none" stroke="midnightblue" d="M181.57,-83.6958C211.584,-90.1581 248.726,-98.0884 282,-105 305.33,-109.846 331.158,-115.075 353.176,-119.492"/>
<polygon fill="midnightblue" stroke="midnightblue" points="182.194,-80.25 171.681,-81.5641 180.719,-87.0928 182.194,-80.25"/>
</g>
<!-- Node3 -->
<g id="node5" class="node"><title>Node3</title>
<a xlink:href="classZendDbSchema__Db__Migration__Manager.html#a265c3edbe064cb4a34289b505046768a" target="_top" xlink:title="ZendDbSchema_Db_Migration_Manager\\down">
<polygon fill="white" stroke="black" points="890.5,-100.5 890.5,-121.5 1109.5,-121.5 1109.5,-100.5 890.5,-100.5"/>
<text text-anchor="middle" x="1000" y="-108.5" font-family="Helvetica,sans-Serif" font-size="10.00">ZendDbSchema_Db_Migration_Manager\down</text>
</a>
</g>
<!-- Node2&#45;&gt;Node3 -->
<g id="edge4" class="edge"><title>Node2&#45;&gt;Node3</title>
<path fill="none" stroke="midnightblue" d="M842.338,-100.524C858.433,-101.594 874.637,-102.67 890.212,-103.705"/>
<polygon fill="midnightblue" stroke="midnightblue" points="842.548,-97.0304 832.337,-99.8596 842.083,-104.015 842.548,-97.0304"/>
</g>
<!-- Node4 -->
<g id="node7" class="node"><title>Node4</title>
<a xlink:href="classZendDbSchema__Db__Migration__Manager.html#a260901608e7ed2fb5ffef1bf8387e2e9" target="_top" xlink:title="ZendDbSchema_Db_Migration_Manager\\up">
<polygon fill="white" stroke="black" points="897,-0.5 897,-21.5 1103,-21.5 1103,-0.5 897,-0.5"/>
<text text-anchor="middle" x="1000" y="-8.5" font-family="Helvetica,sans-Serif" font-size="10.00">ZendDbSchema_Db_Migration_Manager\up</text>
</a>
</g>
<!-- Node2&#45;&gt;Node4 -->
<g id="edge6" class="edge"><title>Node2&#45;&gt;Node4</title>
<path fill="none" stroke="midnightblue" d="M819.433,-76.8963C823.753,-75.1333 827.958,-73.1747 832,-71 853.062,-59.6675 846.944,-42.3443 868,-31 876.978,-26.1628 886.77,-22.3976 896.829,-19.4788"/>
<polygon fill="midnightblue" stroke="midnightblue" points="817.98,-73.702 809.813,-80.451 820.406,-80.2681 817.98,-73.702"/>
</g>
<!-- Node5&#45;&gt;Node2 -->
<g id="edge10" class="edge"><title>Node5&#45;&gt;Node2</title>
<path fill="none" stroke="midnightblue" d="M494.88,-63.8305C534.728,-69.1344 581.341,-75.3389 619.955,-80.4787"/>
<polygon fill="midnightblue" stroke="midnightblue" points="495.278,-60.3527 484.904,-62.5026 494.355,-67.2915 495.278,-60.3527"/>
</g>
<!-- Node6 -->
<g id="node12" class="node"><title>Node6</title>
<a xlink:href="classZendDbSchema__Db__Migration__Manager.html#a87a8f6699a75e4b89a0657ae0999203b" target="_top" xlink:title="ZendDbSchema_Db_Migration_Manager\\isDirty">
<polygon fill="white" stroke="black" points="587,-40.5 587,-61.5 811,-61.5 811,-40.5 587,-40.5"/>
<text text-anchor="middle" x="699" y="-48.5" font-family="Helvetica,sans-Serif" font-size="10.00">ZendDbSchema_Db_Migration_Manager\isDirty</text>
</a>
</g>
<!-- Node5&#45;&gt;Node6 -->
<g id="edge12" class="edge"><title>Node5&#45;&gt;Node6</title>
<path fill="none" stroke="midnightblue" d="M537.812,-51.5501C554.094,-51.4946 570.621,-51.4382 586.576,-51.3837"/>
<polygon fill="midnightblue" stroke="midnightblue" points="537.701,-48.0504 527.713,-51.5846 537.725,-55.0503 537.701,-48.0504"/>
</g>
<!-- Node8 -->
<g id="node16" class="node"><title>Node8</title>
<a xlink:href="classZendDbSchema__Db__Migration__Manager.html#a3acd09811b23c39aa97fed97b4012ac9" target="_top" xlink:title="ZendDbSchema_Db_Migration_Manager\\rolldown">
<polygon fill="white" stroke="black" points="583,-120.5 583,-141.5 815,-141.5 815,-120.5 583,-120.5"/>
<text text-anchor="middle" x="699" y="-128.5" font-family="Helvetica,sans-Serif" font-size="10.00">ZendDbSchema_Db_Migration_Manager\rolldown</text>
</a>
</g>
<!-- Node5&#45;&gt;Node8 -->
<g id="edge16" class="edge"><title>Node5&#45;&gt;Node8</title>
<path fill="none" stroke="midnightblue" d="M439.212,-66.5172C471.139,-79.9253 521.041,-99.4592 566,-111 580.588,-114.745 596.268,-117.872 611.563,-120.455"/>
<polygon fill="midnightblue" stroke="midnightblue" points="440.479,-63.2526 429.906,-62.5684 437.744,-69.6965 440.479,-63.2526"/>
</g>
<!-- Node9 -->
<g id="node19" class="node"><title>Node9</title>
<a xlink:href="classZendDbSchema__Db__Migration__Manager.html#afbaee9196407b68350626e8601a44a9a" target="_top" xlink:title="ZendDbSchema_Db_Migration_Manager\\rollup">
<polygon fill="white" stroke="black" points="589.5,-0.5 589.5,-21.5 808.5,-21.5 808.5,-0.5 589.5,-0.5"/>
<text text-anchor="middle" x="699" y="-8.5" font-family="Helvetica,sans-Serif" font-size="10.00">ZendDbSchema_Db_Migration_Manager\rollup</text>
</a>
</g>
<!-- Node5&#45;&gt;Node9 -->
<g id="edge20" class="edge"><title>Node5&#45;&gt;Node9</title>
<path fill="none" stroke="midnightblue" d="M491.011,-40.1043C533.024,-34.2253 583.28,-27.1928 623.867,-21.5135"/>
<polygon fill="midnightblue" stroke="midnightblue" points="490.493,-36.6426 481.074,-41.4947 491.463,-43.5751 490.493,-36.6426"/>
</g>
<!-- Node7 -->
<g id="node14" class="node"><title>Node7</title>
<a xlink:href="classZendDbSchema__Tool__Project__Provider__Migration.html#a6818e8df15f087c869ed9edf28d97f1f" target="_top" xlink:title="ZendDbSchema_Tool_Project_Provider_Migration\\status">
<polygon fill="white" stroke="black" points="868.5,-40.5 868.5,-61.5 1131.5,-61.5 1131.5,-40.5 868.5,-40.5"/>
<text text-anchor="middle" x="1000" y="-48.5" font-family="Helvetica,sans-Serif" font-size="10.00">ZendDbSchema_Tool_Project_Provider_Migration\status</text>
</a>
</g>
<!-- Node6&#45;&gt;Node7 -->
<g id="edge14" class="edge"><title>Node6&#45;&gt;Node7</title>
<path fill="none" stroke="midnightblue" d="M821.202,-51C836.705,-51 852.624,-51 868.268,-51"/>
<polygon fill="midnightblue" stroke="midnightblue" points="821.081,-47.5001 811.081,-51 821.081,-54.5001 821.081,-47.5001"/>
</g>
<!-- Node8&#45;&gt;Node3 -->
<g id="edge18" class="edge"><title>Node8&#45;&gt;Node3</title>
<path fill="none" stroke="midnightblue" d="M825.55,-122.591C847.088,-121.16 869.297,-119.685 890.352,-118.286"/>
<polygon fill="midnightblue" stroke="midnightblue" points="825.12,-119.112 815.374,-123.267 825.585,-126.097 825.12,-119.112"/>
</g>
<!-- Node9&#45;&gt;Node4 -->
<g id="edge22" class="edge"><title>Node9&#45;&gt;Node4</title>
<path fill="none" stroke="midnightblue" d="M818.706,-11C844.472,-11 871.496,-11 896.579,-11"/>
<polygon fill="midnightblue" stroke="midnightblue" points="818.519,-7.5001 808.519,-11 818.519,-14.5001 818.519,-7.5001"/>
</g>
<!-- Node10&#45;&gt;Node9 -->
<g id="edge26" class="edge"><title>Node10&#45;&gt;Node9</title>
<path fill="none" stroke="midnightblue" d="M531.425,-11C550.732,-11 570.539,-11 589.465,-11"/>
<polygon fill="midnightblue" stroke="midnightblue" points="531.381,-7.5001 521.381,-11 531.381,-14.5001 531.381,-7.5001"/>
</g>
<!-- Node11&#45;&gt;Node8 -->
<g id="edge30" class="edge"><title>Node11&#45;&gt;Node8</title>
<path fill="none" stroke="midnightblue" d="M540.536,-130.459C554.697,-130.507 569.008,-130.556 582.936,-130.604"/>
<polygon fill="midnightblue" stroke="midnightblue" points="540.27,-126.958 530.258,-130.424 540.246,-133.958 540.27,-126.958"/>
</g>
</g>
</svg>
