<?xml version="1.0" encoding="UTF-8" standalone="no"?>
<!DOCTYPE svg PUBLIC "-//W3C//DTD SVG 1.1//EN"
 "http://www.w3.org/Graphics/SVG/1.1/DTD/svg11.dtd">
<!-- Generated by graphviz version 2.26.3 (20100126.1600)
 -->
<!-- Title: G Pages: 1 -->
<svg width="1028pt" height="110pt"
 viewBox="0.00 0.00 1028.00 110.00" xmlns="http://www.w3.org/2000/svg" xmlns:xlink="http://www.w3.org/1999/xlink">
<g id="graph1" class="graph" transform="scale(1 1) rotate(0) translate(4 106)">
<title>G</title>
<polygon fill="white" stroke="white" points="-4,5 -4,-106 1025,-106 1025,5 -4,5"/>
<!-- Node1 -->
<g id="node1" class="node"><title>Node1</title>
<polygon fill="#bfbfbf" stroke="black" points="0.5,-20.5 0.5,-41.5 297.5,-41.5 297.5,-20.5 0.5,-20.5"/>
<text text-anchor="middle" x="149" y="-28.5" font-family="Helvetica,sans-Serif" font-size="10.00">ZendDbSchema_Db_Schema_Table_AbstractDefinition\getType</text>
</g>
<!-- Node2 -->
<g id="node3" class="node"><title>Node2</title>
<a xlink:href="classZendDbSchema__Db__Schema__Generator__Mysql.html#a821999152ed945432417614dffc3a3e2" target="_top" xlink:title="ZendDbSchema_Db_Schema_Generator_Mysql\\_generateColumnSql">
<polygon fill="white" stroke="black" points="334,-40.5 334,-61.5 654,-61.5 654,-40.5 334,-40.5"/>
<text text-anchor="middle" x="494" y="-48.5" font-family="Helvetica,sans-Serif" font-size="10.00">ZendDbSchema_Db_Schema_Generator_Mysql\_generateColumnSql</text>
</a>
</g>
<!-- Node1&#45;&gt;Node2 -->
<g id="edge2" class="edge"><title>Node1&#45;&gt;Node2</title>
<path fill="none" stroke="midnightblue" d="M307.759,-40.2034C316.467,-40.7082 325.222,-41.2158 333.934,-41.7208"/>
<polygon fill="midnightblue" stroke="midnightblue" points="307.75,-36.6971 297.564,-39.6124 307.344,-43.6854 307.75,-36.6971"/>
</g>
<!-- Node5 -->
<g id="node9" class="node"><title>Node5</title>
<a xlink:href="classZendDbSchema__Db__Schema__Generator__Mysql.html#aa07a714e7f2d8de324512a5b5d67d200" target="_top" xlink:title="ZendDbSchema_Db_Schema_Generator_Mysql\\generateIndexCreate">
<polygon fill="white" stroke="black" points="334,-0.5 334,-21.5 654,-21.5 654,-0.5 334,-0.5"/>
<text text-anchor="middle" x="494" y="-8.5" font-family="Helvetica,sans-Serif" font-size="10.00">ZendDbSchema_Db_Schema_Generator_Mysql\generateIndexCreate</text>
</a>
</g>
<!-- Node1&#45;&gt;Node5 -->
<g id="edge8" class="edge"><title>Node1&#45;&gt;Node5</title>
<path fill="none" stroke="midnightblue" d="M307.759,-21.7966C316.467,-21.2918 325.222,-20.7842 333.934,-20.2792"/>
<polygon fill="midnightblue" stroke="midnightblue" points="307.344,-18.3146 297.564,-22.3876 307.75,-25.3029 307.344,-18.3146"/>
</g>
<!-- Node3 -->
<g id="node5" class="node"><title>Node3</title>
<a xlink:href="classZendDbSchema__Db__Schema__Generator__Mysql.html#a2d40826abb29af27b4f398fa9270979f" target="_top" xlink:title="ZendDbSchema_Db_Schema_Generator_Mysql\\generateColumnAlter">
<polygon fill="white" stroke="black" points="695,-80.5 695,-101.5 1015,-101.5 1015,-80.5 695,-80.5"/>
<text text-anchor="middle" x="855" y="-88.5" font-family="Helvetica,sans-Serif" font-size="10.00">ZendDbSchema_Db_Schema_Generator_Mysql\generateColumnAlter</text>
</a>
</g>
<!-- Node2&#45;&gt;Node3 -->
<g id="edge4" class="edge"><title>Node2&#45;&gt;Node3</title>
<path fill="none" stroke="midnightblue" d="M598.902,-62.6234C649.852,-68.2689 710.611,-75.0012 760.159,-80.4913"/>
<polygon fill="midnightblue" stroke="midnightblue" points="599.173,-59.1322 588.849,-61.5095 598.402,-66.0896 599.173,-59.1322"/>
</g>
<!-- Node4 -->
<g id="node7" class="node"><title>Node4</title>
<a xlink:href="classZendDbSchema__Db__Schema__Generator__Mysql.html#a419c7276fb546c08e9d25b390ba87bac" target="_top" xlink:title="ZendDbSchema_Db_Schema_Generator_Mysql\\generateColumnCreate">
<polygon fill="white" stroke="black" points="690.5,-40.5 690.5,-61.5 1019.5,-61.5 1019.5,-40.5 690.5,-40.5"/>
<text text-anchor="middle" x="855" y="-48.5" font-family="Helvetica,sans-Serif" font-size="10.00">ZendDbSchema_Db_Schema_Generator_Mysql\generateColumnCreate</text>
</a>
</g>
<!-- Node2&#45;&gt;Node4 -->
<g id="edge6" class="edge"><title>Node2&#45;&gt;Node4</title>
<path fill="none" stroke="midnightblue" d="M664.3,-51C672.938,-51 681.607,-51 690.227,-51"/>
<polygon fill="midnightblue" stroke="midnightblue" points="664.179,-47.5001 654.179,-51 664.179,-54.5001 664.179,-47.5001"/>
</g>
<!-- Node6 -->
<g id="node11" class="node"><title>Node6</title>
<a xlink:href="classZendDbSchema__Db__Schema__Generator__Mysql.html#adb01a2e7be3ed89209a246cc747a26c1" target="_top" xlink:title="ZendDbSchema_Db_Schema_Generator_Mysql\\generateIndexAlter">
<polygon fill="white" stroke="black" points="699.5,-0.5 699.5,-21.5 1010.5,-21.5 1010.5,-0.5 699.5,-0.5"/>
<text text-anchor="middle" x="855" y="-8.5" font-family="Helvetica,sans-Serif" font-size="10.00">ZendDbSchema_Db_Schema_Generator_Mysql\generateIndexAlter</text>
</a>
</g>
<!-- Node5&#45;&gt;Node6 -->
<g id="edge10" class="edge"><title>Node5&#45;&gt;Node6</title>
<path fill="none" stroke="midnightblue" d="M664.387,-11C676.024,-11 687.717,-11 699.273,-11"/>
<polygon fill="midnightblue" stroke="midnightblue" points="664.179,-7.5001 654.179,-11 664.179,-14.5001 664.179,-7.5001"/>
</g>
</g>
</svg>
