<?xml version="1.0" encoding="UTF-8" standalone="no"?>
<!DOCTYPE svg PUBLIC "-//W3C//DTD SVG 1.1//EN"
 "http://www.w3.org/Graphics/SVG/1.1/DTD/svg11.dtd">
<!-- Generated by graphviz version 2.26.3 (20100126.1600)
 -->
<!-- Title: G Pages: 1 -->
<svg width="518pt" height="219pt"
 viewBox="0.00 0.00 518.00 219.00" xmlns="http://www.w3.org/2000/svg" xmlns:xlink="http://www.w3.org/1999/xlink">
<g id="graph1" class="graph" transform="scale(1 1) rotate(0) translate(4 215)">
<title>G</title>
<polygon fill="white" stroke="white" points="-4,5 -4,-215 515,-215 515,5 -4,5"/>
<!-- Node1 -->
<g id="node1" class="node"><title>Node1</title>
<polygon fill="#bfbfbf" stroke="black" points="0,-78 0,-112 146,-112 146,-78 0,-78"/>
<text text-anchor="start" x="8" y="-99" font-family="Helvetica,sans-Serif" font-size="10.00">ZendDbSchema_Db_Schema</text>
<text text-anchor="middle" x="73" y="-86" font-family="Helvetica,sans-Serif" font-size="10.00">_AbstractSchema\isDirty</text>
</g>
<!-- Node2 -->
<g id="node3" class="node"><title>Node2</title>
<a xlink:href="classZendDbSchema__Db__Schema__Generator__Mysql__Database.html#a98cc5d4cbab5e5c8b32d7b02fa9cb0dc" target="_top" xlink:title="ZendDbSchema_Db_Schema\l_Generator_Mysql_Database\l\\alterDatabase">
<polygon fill="white" stroke="black" points="182,-163.5 182,-210.5 328,-210.5 328,-163.5 182,-163.5"/>
<text text-anchor="start" x="190" y="-197.5" font-family="Helvetica,sans-Serif" font-size="10.00">ZendDbSchema_Db_Schema</text>
<text text-anchor="start" x="190" y="-184.5" font-family="Helvetica,sans-Serif" font-size="10.00">_Generator_Mysql_Database</text>
<text text-anchor="middle" x="255" y="-171.5" font-family="Helvetica,sans-Serif" font-size="10.00">\alterDatabase</text>
</a>
</g>
<!-- Node1&#45;&gt;Node2 -->
<g id="edge2" class="edge"><title>Node1&#45;&gt;Node2</title>
<path fill="none" stroke="midnightblue" d="M112.021,-117C132.643,-128.402 158.49,-142.342 182,-154 188.355,-157.151 195.075,-160.357 201.763,-163.469"/>
<polygon fill="midnightblue" stroke="midnightblue" points="113.676,-113.915 103.234,-112.12 110.277,-120.035 113.676,-113.915"/>
</g>
<!-- Node3 -->
<g id="node5" class="node"><title>Node3</title>
<a xlink:href="classZendDbSchema__Db__Schema__Generator__Pgsql__Database.html#a4d4b5c6abc51a4ab72fc480602f502c3" target="_top" xlink:title="ZendDbSchema_Db_Schema\l_Generator_Pgsql_Database\l\\alterDatabase">
<polygon fill="white" stroke="black" points="182,-97.5 182,-144.5 328,-144.5 328,-97.5 182,-97.5"/>
<text text-anchor="start" x="190" y="-131.5" font-family="Helvetica,sans-Serif" font-size="10.00">ZendDbSchema_Db_Schema</text>
<text text-anchor="start" x="190" y="-118.5" font-family="Helvetica,sans-Serif" font-size="10.00">_Generator_Pgsql_Database</text>
<text text-anchor="middle" x="255" y="-105.5" font-family="Helvetica,sans-Serif" font-size="10.00">\alterDatabase</text>
</a>
</g>
<!-- Node1&#45;&gt;Node3 -->
<g id="edge4" class="edge"><title>Node1&#45;&gt;Node3</title>
<path fill="none" stroke="midnightblue" d="M156.237,-106.891C164.804,-108.115 173.464,-109.352 181.91,-110.559"/>
<polygon fill="midnightblue" stroke="midnightblue" points="156.634,-103.412 146.24,-105.463 155.644,-110.342 156.634,-103.412"/>
</g>
<!-- Node4 -->
<g id="node7" class="node"><title>Node4</title>
<a xlink:href="classZendDbSchema__Db__Schema__AbstractEntity.html#a5b1c93da76c3708f90d330b4643e55b2" target="_top" xlink:title="ZendDbSchema_Db_Schema\l_AbstractEntity\\save">
<polygon fill="white" stroke="black" points="364,-52 364,-86 510,-86 510,-52 364,-52"/>
<text text-anchor="start" x="372" y="-73" font-family="Helvetica,sans-Serif" font-size="10.00">ZendDbSchema_Db_Schema</text>
<text text-anchor="middle" x="437" y="-60" font-family="Helvetica,sans-Serif" font-size="10.00">_AbstractEntity\save</text>
</a>
</g>
<!-- Node1&#45;&gt;Node4 -->
<g id="edge6" class="edge"><title>Node1&#45;&gt;Node4</title>
<path fill="none" stroke="midnightblue" d="M156.464,-89.0383C219.07,-84.5664 303.946,-78.5039 363.894,-74.2219"/>
<polygon fill="midnightblue" stroke="midnightblue" points="155.948,-85.5661 146.223,-89.7698 156.447,-92.5483 155.948,-85.5661"/>
</g>
<!-- Node5 -->
<g id="node9" class="node"><title>Node5</title>
<a xlink:href="classZendDbSchema__Db__Schema__AbstractSchema.html#ada5af8e6e7a4c5407b7ca67d03900b31" target="_top" xlink:title="ZendDbSchema_Db_Schema\l_AbstractSchema\\toSql">
<polygon fill="white" stroke="black" points="182,-7 182,-41 328,-41 328,-7 182,-7"/>
<text text-anchor="start" x="190" y="-28" font-family="Helvetica,sans-Serif" font-size="10.00">ZendDbSchema_Db_Schema</text>
<text text-anchor="middle" x="255" y="-15" font-family="Helvetica,sans-Serif" font-size="10.00">_AbstractSchema\toSql</text>
</a>
</g>
<!-- Node1&#45;&gt;Node5 -->
<g id="edge8" class="edge"><title>Node1&#45;&gt;Node5</title>
<path fill="none" stroke="midnightblue" d="M125.913,-74.3581C152.964,-63.8051 185.495,-51.1148 211.131,-41.1136"/>
<polygon fill="midnightblue" stroke="midnightblue" points="124.638,-71.0987 116.594,-77.9937 127.182,-77.62 124.638,-71.0987"/>
</g>
<!-- Node5&#45;&gt;Node4 -->
<g id="edge10" class="edge"><title>Node5&#45;&gt;Node4</title>
<path fill="none" stroke="midnightblue" d="M333.763,-43.4745C345.192,-46.3001 356.882,-49.1907 368.096,-51.9634"/>
<polygon fill="midnightblue" stroke="midnightblue" points="334.354,-40.0152 323.806,-41.0126 332.674,-46.8106 334.354,-40.0152"/>
</g>
<!-- Node6 -->
<g id="node12" class="node"><title>Node6</title>
<a xlink:href="classZendDbSchema__Db__Schema__AbstractSchema.html#aafc458a7c19c74314889da4a99e457ff" target="_top" xlink:title="ZendDbSchema_Db_Schema\l_AbstractSchema\\__toString">
<polygon fill="white" stroke="black" points="364,-0 364,-34 510,-34 510,-0 364,-0"/>
<text text-anchor="start" x="372" y="-21" font-family="Helvetica,sans-Serif" font-size="10.00">ZendDbSchema_Db_Schema</text>
<text text-anchor="middle" x="437" y="-8" font-family="Helvetica,sans-Serif" font-size="10.00">_AbstractSchema\__toString</text>
</a>
</g>
<!-- Node5&#45;&gt;Node6 -->
<g id="edge12" class="edge"><title>Node5&#45;&gt;Node6</title>
<path fill="none" stroke="midnightblue" d="M338.237,-20.7986C346.804,-20.4691 355.464,-20.136 363.91,-19.8111"/>
<polygon fill="midnightblue" stroke="midnightblue" points="338.098,-17.3012 328.24,-21.1831 338.367,-24.2961 338.098,-17.3012"/>
</g>
</g>
</svg>
