<?xml version="1.0" encoding="UTF-8" standalone="no"?>
<!DOCTYPE svg PUBLIC "-//W3C//DTD SVG 1.1//EN"
 "http://www.w3.org/Graphics/SVG/1.1/DTD/svg11.dtd">
<!-- Generated by graphviz version 2.26.3 (20100126.1600)
 -->
<!-- Title: G Pages: 1 -->
<svg width="306pt" height="316pt"
 viewBox="0.00 0.00 306.00 316.00" xmlns="http://www.w3.org/2000/svg" xmlns:xlink="http://www.w3.org/1999/xlink">
<g id="graph1" class="graph" transform="scale(1 1) rotate(0) translate(4 312)">
<title>G</title>
<polygon fill="white" stroke="white" points="-4,5 -4,-312 303,-312 303,5 -4,5"/>
<!-- Node1 -->
<g id="node1" class="node"><title>Node1</title>
<polygon fill="#bfbfbf" stroke="black" points="20.5,-0.5 20.5,-89.5 277.5,-89.5 277.5,-0.5 20.5,-0.5"/>
<text text-anchor="middle" x="149" y="-76.5" font-family="Helvetica,sans-Serif" font-size="10.00">ZendDbSchema_Db_Schema_Table_Manager_Column</text>
<polyline fill="none" stroke="black" points="20.5,-68.5 277.5,-68.5 "/>
<text text-anchor="middle" x="149" y="-55.5" font-family="Helvetica,sans-Serif" font-size="10.00"> </text>
<polyline fill="none" stroke="black" points="20.5,-47.5 277.5,-47.5 "/>
<text text-anchor="start" x="28.5" y="-34.5" font-family="Helvetica,sans-Serif" font-size="10.00">+ add()</text>
<text text-anchor="start" x="28.5" y="-21.5" font-family="Helvetica,sans-Serif" font-size="10.00">+ refresh()</text>
<text text-anchor="start" x="28.5" y="-8.5" font-family="Helvetica,sans-Serif" font-size="10.00"># _getItemClass()</text>
</g>
<!-- Node2 -->
<g id="node2" class="node"><title>Node2</title>
<a xlink:href="classZendDbSchema__Db__Schema__Table__Manager__AbstractManager.html" target="_top" xlink:title="{ZendDbSchema_Db_Schema_Table_Manager_AbstractManager\n|# $_data\l# $_table\l|+ add()\l+ refresh()\l+ __construct()\l+ isDirty()\l+ toArray()\l+ getIterator()\l+ has()\l+ get()\l# _getItemClass()\l}">
<polygon fill="white" stroke="black" points="0,-127 0,-307 298,-307 298,-127 0,-127"/>
<text text-anchor="middle" x="149" y="-294" font-family="Helvetica,sans-Serif" font-size="10.00">ZendDbSchema_Db_Schema_Table_Manager_AbstractManager</text>
<polyline fill="none" stroke="black" points="0,-286 298,-286 "/>
<text text-anchor="start" x="8" y="-273" font-family="Helvetica,sans-Serif" font-size="10.00"># $_data</text>
<text text-anchor="start" x="8" y="-260" font-family="Helvetica,sans-Serif" font-size="10.00"># $_table</text>
<polyline fill="none" stroke="black" points="0,-252 298,-252 "/>
<text text-anchor="start" x="8" y="-239" font-family="Helvetica,sans-Serif" font-size="10.00">+ add()</text>
<text text-anchor="start" x="8" y="-226" font-family="Helvetica,sans-Serif" font-size="10.00">+ refresh()</text>
<text text-anchor="start" x="8" y="-213" font-family="Helvetica,sans-Serif" font-size="10.00">+ __construct()</text>
<text text-anchor="start" x="8" y="-200" font-family="Helvetica,sans-Serif" font-size="10.00">+ isDirty()</text>
<text text-anchor="start" x="8" y="-187" font-family="Helvetica,sans-Serif" font-size="10.00">+ toArray()</text>
<text text-anchor="start" x="8" y="-174" font-family="Helvetica,sans-Serif" font-size="10.00">+ getIterator()</text>
<text text-anchor="start" x="8" y="-161" font-family="Helvetica,sans-Serif" font-size="10.00">+ has()</text>
<text text-anchor="start" x="8" y="-148" font-family="Helvetica,sans-Serif" font-size="10.00">+ get()</text>
<text text-anchor="start" x="8" y="-135" font-family="Helvetica,sans-Serif" font-size="10.00"># _getItemClass()</text>
</a>
</g>
<!-- Node2&#45;&gt;Node1 -->
<g id="edge2" class="edge"><title>Node2&#45;&gt;Node1</title>
<path fill="none" stroke="midnightblue" d="M149,-116.957C149,-107.411 149,-98.1017 149,-89.518"/>
<polygon fill="none" stroke="midnightblue" points="145.5,-116.97 149,-126.97 152.5,-116.97 145.5,-116.97"/>
</g>
</g>
</svg>
