<?xml version="1.0" encoding="UTF-8" standalone="no"?>
<!DOCTYPE svg PUBLIC "-//W3C//DTD SVG 1.1//EN"
 "http://www.w3.org/Graphics/SVG/1.1/DTD/svg11.dtd">
<!-- Generated by graphviz version 2.26.3 (20100126.1600)
 -->
<!-- Title: G Pages: 1 -->
<svg width="1504pt" height="130pt"
 viewBox="0.00 0.00 1504.00 130.00" xmlns="http://www.w3.org/2000/svg" xmlns:xlink="http://www.w3.org/1999/xlink">
<g id="graph1" class="graph" transform="scale(1 1) rotate(0) translate(4 126)">
<title>G</title>
<polygon fill="white" stroke="white" points="-4,5 -4,-126 1501,-126 1501,5 -4,5"/>
<!-- Node1 -->
<g id="node1" class="node"><title>Node1</title>
<polygon fill="#bfbfbf" stroke="black" points="0,-10.5 0,-31.5 282,-31.5 282,-10.5 0,-10.5"/>
<text text-anchor="middle" x="141" y="-18.5" font-family="Helvetica,sans-Serif" font-size="10.00">ZendDbSchema_Db_Schema_Validator_Mysql\validateIndex</text>
</g>
<!-- Node2 -->
<g id="node3" class="node"><title>Node2</title>
<a xlink:href="classZendDbSchema__Db__Schema__Table__Index.html#a1a12fc2660c9e16579d6d8dbd7c57c3b" target="_top" xlink:title="ZendDbSchema_Db_Schema_Table_Index\\getSchema">
<polygon fill="white" stroke="black" points="318.5,-40.5 318.5,-61.5 575.5,-61.5 575.5,-40.5 318.5,-40.5"/>
<text text-anchor="middle" x="447" y="-48.5" font-family="Helvetica,sans-Serif" font-size="10.00">ZendDbSchema_Db_Schema_Table_Index\getSchema</text>
</a>
</g>
<!-- Node1&#45;&gt;Node2 -->
<g id="edge2" class="edge"><title>Node1&#45;&gt;Node2</title>
<path fill="none" stroke="midnightblue" d="M248.454,-31.5347C274.718,-34.1096 302.953,-36.8778 329.654,-39.4955"/>
<polygon fill="midnightblue" stroke="midnightblue" points="329.511,-42.9982 339.805,-40.4907 330.194,-36.0316 329.511,-42.9982"/>
</g>
<!-- Node6 -->
<g id="node11" class="node"><title>Node6</title>
<a xlink:href="classZendDbSchema__Db__Schema__AbstractSchema.html#a54d32c6f15463eaad2321a9f0e7225d7" target="_top" xlink:title="ZendDbSchema_Db_Schema_AbstractSchema\\__get">
<polygon fill="white" stroke="black" points="948.5,-0.5 948.5,-21.5 1199.5,-21.5 1199.5,-0.5 948.5,-0.5"/>
<text text-anchor="middle" x="1074" y="-8.5" font-family="Helvetica,sans-Serif" font-size="10.00">ZendDbSchema_Db_Schema_AbstractSchema\__get</text>
</a>
</g>
<!-- Node1&#45;&gt;Node6 -->
<g id="edge14" class="edge"><title>Node1&#45;&gt;Node6</title>
<path fill="none" stroke="midnightblue" d="M282.166,-17.2208C375.722,-14.9089 501.182,-12.1763 612,-11 721.581,-9.83685 845.79,-9.91526 937.801,-10.2413"/>
<polygon fill="midnightblue" stroke="midnightblue" points="937.997,-13.7419 948.01,-10.2789 938.023,-6.74198 937.997,-13.7419"/>
</g>
<!-- Node3 -->
<g id="node5" class="node"><title>Node3</title>
<a xlink:href="classZendDbSchema__Db__Schema__AbstractSchema.html#a219012c80be57ace4b1db43a9c48eb3d" target="_top" xlink:title="ZendDbSchema_Db_Schema_AbstractSchema\\getSchema">
<polygon fill="white" stroke="black" points="623.5,-100.5 623.5,-121.5 900.5,-121.5 900.5,-100.5 623.5,-100.5"/>
<text text-anchor="middle" x="762" y="-108.5" font-family="Helvetica,sans-Serif" font-size="10.00">ZendDbSchema_Db_Schema_AbstractSchema\getSchema</text>
</a>
</g>
<!-- Node2&#45;&gt;Node3 -->
<g id="edge4" class="edge"><title>Node2&#45;&gt;Node3</title>
<path fill="none" stroke="midnightblue" d="M485.425,-61.5312C518.708,-70.3604 568.253,-82.8044 612,-91 627.825,-93.9646 644.668,-96.6559 661.137,-99.0349"/>
<polygon fill="midnightblue" stroke="midnightblue" points="660.938,-102.542 671.33,-100.475 661.918,-95.6104 660.938,-102.542"/>
</g>
<!-- Node4 -->
<g id="node7" class="node"><title>Node4</title>
<a xlink:href="classZendDbSchema__Db__Schema__Table__AbstractDefinition.html#a224b6a0c1df1d6ed40e03657782ef6fc" target="_top" xlink:title="ZendDbSchema_Db_Schema_Table_AbstractDefinition\\getTable">
<polygon fill="white" stroke="black" points="612.5,-60.5 612.5,-81.5 911.5,-81.5 911.5,-60.5 612.5,-60.5"/>
<text text-anchor="middle" x="762" y="-68.5" font-family="Helvetica,sans-Serif" font-size="10.00">ZendDbSchema_Db_Schema_Table_AbstractDefinition\getTable</text>
</a>
</g>
<!-- Node2&#45;&gt;Node4 -->
<g id="edge6" class="edge"><title>Node2&#45;&gt;Node4</title>
<path fill="none" stroke="midnightblue" d="M575.577,-59.1636C584.414,-59.7247 593.378,-60.2938 602.35,-60.8635"/>
<polygon fill="midnightblue" stroke="midnightblue" points="602.277,-64.3658 612.479,-61.5066 602.721,-57.3799 602.277,-64.3658"/>
</g>
<!-- Node5 -->
<g id="node9" class="node"><title>Node5</title>
<a xlink:href="classZendDbSchema__Db__Schema__AbstractSchema.html#adacb1417b461310c5c87f72c459c1985" target="_top" xlink:title="ZendDbSchema_Db_Schema_AbstractSchema\\getOriginName">
<polygon fill="white" stroke="black" points="615.5,-20.5 615.5,-41.5 908.5,-41.5 908.5,-20.5 615.5,-20.5"/>
<text text-anchor="middle" x="762" y="-28.5" font-family="Helvetica,sans-Serif" font-size="10.00">ZendDbSchema_Db_Schema_AbstractSchema\getOriginName</text>
</a>
</g>
<!-- Node2&#45;&gt;Node5 -->
<g id="edge8" class="edge"><title>Node2&#45;&gt;Node5</title>
<path fill="none" stroke="midnightblue" d="M575.577,-42.8364C585.299,-42.2191 595.173,-41.5922 605.045,-40.9654"/>
<polygon fill="midnightblue" stroke="midnightblue" points="605.566,-44.4395 615.324,-40.3127 605.122,-37.4535 605.566,-44.4395"/>
</g>
<!-- Node5&#45;&gt;Node6 -->
<g id="edge10" class="edge"><title>Node5&#45;&gt;Node6</title>
<path fill="none" stroke="midnightblue" d="M908.864,-21.5856C918.6,-20.9615 928.384,-20.3343 938.063,-19.7139"/>
<polygon fill="midnightblue" stroke="midnightblue" points="938.35,-23.2028 948.106,-19.0701 937.902,-16.2171 938.35,-23.2028"/>
</g>
<!-- Node7 -->
<g id="node13" class="node"><title>Node7</title>
<a xlink:href="classZendDbSchema__Db__Schema__AbstractSchema.html#ac4e121ba7932163eb1950fabe06fb9db" target="_top" xlink:title="ZendDbSchema_Db_Schema_AbstractSchema\\__isset">
<polygon fill="white" stroke="black" points="1236.5,-0.5 1236.5,-21.5 1495.5,-21.5 1495.5,-0.5 1236.5,-0.5"/>
<text text-anchor="middle" x="1366" y="-8.5" font-family="Helvetica,sans-Serif" font-size="10.00">ZendDbSchema_Db_Schema_AbstractSchema\__isset</text>
</a>
</g>
<!-- Node6&#45;&gt;Node7 -->
<g id="edge12" class="edge"><title>Node6&#45;&gt;Node7</title>
<path fill="none" stroke="midnightblue" d="M1199.53,-11C1208.4,-11 1217.38,-11 1226.32,-11"/>
<polygon fill="midnightblue" stroke="midnightblue" points="1226.4,-14.5001 1236.4,-11 1226.4,-7.5001 1226.4,-14.5001"/>
</g>
</g>
</svg>
