<?xml version="1.0" encoding="UTF-8" standalone="no"?>
<!DOCTYPE svg PUBLIC "-//W3C//DTD SVG 1.1//EN"
 "http://www.w3.org/Graphics/SVG/1.1/DTD/svg11.dtd">
<!-- Generated by graphviz version 2.26.3 (20100126.1600)
 -->
<!-- Title: G Pages: 1 -->
<svg width="784pt" height="150pt"
 viewBox="0.00 0.00 784.00 150.00" xmlns="http://www.w3.org/2000/svg" xmlns:xlink="http://www.w3.org/1999/xlink">
<g id="graph1" class="graph" transform="scale(1 1) rotate(0) translate(4 146)">
<title>G</title>
<polygon fill="white" stroke="white" points="-4,5 -4,-146 781,-146 781,5 -4,5"/>
<!-- Node1 -->
<g id="node1" class="node"><title>Node1</title>
<polygon fill="#bfbfbf" stroke="black" points="0.5,-60.5 0.5,-81.5 249.5,-81.5 249.5,-60.5 0.5,-60.5"/>
<text text-anchor="middle" x="125" y="-68.5" font-family="Helvetica,sans-Serif" font-size="10.00">ZendDbSchema_Db_Migration_Manager\getMigration</text>
</g>
<!-- Node2 -->
<g id="node3" class="node"><title>Node2</title>
<a xlink:href="classZendDbSchema__Db__Migration__Manager.html#a7404180549710f939f7a5ea25ec4e106" target="_top" xlink:title="ZendDbSchema_Db_Migration_Manager\\compare">
<polygon fill="white" stroke="black" points="286.5,-40.5 286.5,-61.5 519.5,-61.5 519.5,-40.5 286.5,-40.5"/>
<text text-anchor="middle" x="403" y="-48.5" font-family="Helvetica,sans-Serif" font-size="10.00">ZendDbSchema_Db_Migration_Manager\compare</text>
</a>
</g>
<!-- Node1&#45;&gt;Node2 -->
<g id="edge2" class="edge"><title>Node1&#45;&gt;Node2</title>
<path fill="none" stroke="midnightblue" d="M260.026,-61.2859C268.778,-60.6562 277.552,-60.025 286.208,-59.4023"/>
<polygon fill="midnightblue" stroke="midnightblue" points="259.492,-57.8152 249.769,-62.0238 259.995,-64.7971 259.492,-57.8152"/>
</g>
<!-- Node5 -->
<g id="node9" class="node"><title>Node5</title>
<a xlink:href="classZendDbSchema__Db__Migration__Manager.html#a87a8f6699a75e4b89a0657ae0999203b" target="_top" xlink:title="ZendDbSchema_Db_Migration_Manager\\isDirty">
<polygon fill="white" stroke="black" points="291,-80.5 291,-101.5 515,-101.5 515,-80.5 291,-80.5"/>
<text text-anchor="middle" x="403" y="-88.5" font-family="Helvetica,sans-Serif" font-size="10.00">ZendDbSchema_Db_Migration_Manager\isDirty</text>
</a>
</g>
<!-- Node1&#45;&gt;Node5 -->
<g id="edge8" class="edge"><title>Node1&#45;&gt;Node5</title>
<path fill="none" stroke="midnightblue" d="M259.758,-80.6948C270.194,-81.4456 280.662,-82.1987 290.926,-82.9371"/>
<polygon fill="midnightblue" stroke="midnightblue" points="259.995,-77.2029 249.769,-79.9762 259.492,-84.1848 259.995,-77.2029"/>
</g>
<!-- Node6 -->
<g id="node11" class="node"><title>Node6</title>
<a xlink:href="classZendDbSchema__Db__Migration__Manager.html#a3acd09811b23c39aa97fed97b4012ac9" target="_top" xlink:title="ZendDbSchema_Db_Migration_Manager\\rolldown">
<polygon fill="white" stroke="black" points="287,-120.5 287,-141.5 519,-141.5 519,-120.5 287,-120.5"/>
<text text-anchor="middle" x="403" y="-128.5" font-family="Helvetica,sans-Serif" font-size="10.00">ZendDbSchema_Db_Migration_Manager\rolldown</text>
</a>
</g>
<!-- Node1&#45;&gt;Node6 -->
<g id="edge10" class="edge"><title>Node1&#45;&gt;Node6</title>
<path fill="none" stroke="midnightblue" d="M173.788,-84.1223C205.601,-92.4306 248.099,-103.064 286,-111 302.237,-114.4 319.831,-117.639 336.324,-120.483"/>
<polygon fill="midnightblue" stroke="midnightblue" points="174.415,-80.6684 163.854,-81.5128 172.636,-87.4387 174.415,-80.6684"/>
</g>
<!-- Node7 -->
<g id="node14" class="node"><title>Node7</title>
<a xlink:href="classZendDbSchema__Db__Migration__Manager.html#afbaee9196407b68350626e8601a44a9a" target="_top" xlink:title="ZendDbSchema_Db_Migration_Manager\\rollup">
<polygon fill="white" stroke="black" points="293.5,-0.5 293.5,-21.5 512.5,-21.5 512.5,-0.5 293.5,-0.5"/>
<text text-anchor="middle" x="403" y="-8.5" font-family="Helvetica,sans-Serif" font-size="10.00">ZendDbSchema_Db_Migration_Manager\rollup</text>
</a>
</g>
<!-- Node1&#45;&gt;Node7 -->
<g id="edge14" class="edge"><title>Node1&#45;&gt;Node7</title>
<path fill="none" stroke="midnightblue" d="M173.788,-57.8777C205.601,-49.5694 248.099,-38.9362 286,-31 302.237,-27.6002 319.831,-24.3609 336.324,-21.5174"/>
<polygon fill="midnightblue" stroke="midnightblue" points="172.636,-54.5613 163.854,-60.4872 174.415,-61.3316 172.636,-54.5613"/>
</g>
<!-- Node3 -->
<g id="node5" class="node"><title>Node3</title>
<a xlink:href="classZendDbSchema__Db__Migration__Manager.html#a265c3edbe064cb4a34289b505046768a" target="_top" xlink:title="ZendDbSchema_Db_Migration_Manager\\down">
<polygon fill="white" stroke="black" points="556.5,-60.5 556.5,-81.5 775.5,-81.5 775.5,-60.5 556.5,-60.5"/>
<text text-anchor="middle" x="666" y="-68.5" font-family="Helvetica,sans-Serif" font-size="10.00">ZendDbSchema_Db_Migration_Manager\down</text>
</a>
</g>
<!-- Node2&#45;&gt;Node3 -->
<g id="edge4" class="edge"><title>Node2&#45;&gt;Node3</title>
<path fill="none" stroke="midnightblue" d="M529.566,-60.6248C538.497,-61.3039 547.458,-61.9854 556.285,-62.6566"/>
<polygon fill="midnightblue" stroke="midnightblue" points="529.741,-57.1281 519.504,-59.8596 529.21,-64.1079 529.741,-57.1281"/>
</g>
<!-- Node4 -->
<g id="node7" class="node"><title>Node4</title>
<a xlink:href="classZendDbSchema__Db__Migration__Manager.html#a260901608e7ed2fb5ffef1bf8387e2e9" target="_top" xlink:title="ZendDbSchema_Db_Migration_Manager\\up">
<polygon fill="white" stroke="black" points="563,-10.5 563,-31.5 769,-31.5 769,-10.5 563,-10.5"/>
<text text-anchor="middle" x="666" y="-18.5" font-family="Helvetica,sans-Serif" font-size="10.00">ZendDbSchema_Db_Migration_Manager\up</text>
</a>
</g>
<!-- Node2&#45;&gt;Node4 -->
<g id="edge6" class="edge"><title>Node2&#45;&gt;Node4</title>
<path fill="none" stroke="midnightblue" d="M505.297,-39.3311C527.894,-36.7535 551.703,-34.0377 573.868,-31.5093"/>
<polygon fill="midnightblue" stroke="midnightblue" points="504.893,-35.8544 495.354,-40.4653 505.686,-42.8093 504.893,-35.8544"/>
</g>
<!-- Node6&#45;&gt;Node3 -->
<g id="edge12" class="edge"><title>Node6&#45;&gt;Node3</title>
<path fill="none" stroke="midnightblue" d="M481.149,-118.737C494.166,-116.381 507.496,-113.775 520,-111 558.486,-102.46 601.996,-90.195 631.43,-81.5021"/>
<polygon fill="midnightblue" stroke="midnightblue" points="480.51,-115.296 471.275,-120.489 481.732,-122.188 480.51,-115.296"/>
</g>
<!-- Node7&#45;&gt;Node4 -->
<g id="edge16" class="edge"><title>Node7&#45;&gt;Node4</title>
<path fill="none" stroke="midnightblue" d="M522.816,-15.5558C536.189,-16.0642 549.724,-16.5788 562.862,-17.0784"/>
<polygon fill="midnightblue" stroke="midnightblue" points="522.757,-12.0511 512.631,-15.1685 522.491,-19.046 522.757,-12.0511"/>
</g>
</g>
</svg>
