<?xml version="1.0" encoding="UTF-8" standalone="no"?>
<!DOCTYPE svg PUBLIC "-//W3C//DTD SVG 1.1//EN"
 "http://www.w3.org/Graphics/SVG/1.1/DTD/svg11.dtd">
<!-- Generated by graphviz version 2.26.3 (20100126.1600)
 -->
<!-- Title: G Pages: 1 -->
<svg width="860pt" height="230pt"
 viewBox="0.00 0.00 860.00 230.00" xmlns="http://www.w3.org/2000/svg" xmlns:xlink="http://www.w3.org/1999/xlink">
<g id="graph1" class="graph" transform="scale(1 1) rotate(0) translate(4 226)">
<title>G</title>
<polygon fill="white" stroke="white" points="-4,5 -4,-226 857,-226 857,5 -4,5"/>
<!-- Node1 -->
<g id="node1" class="node"><title>Node1</title>
<polygon fill="#bfbfbf" stroke="black" points="0,-100.5 0,-121.5 264,-121.5 264,-100.5 0,-100.5"/>
<text text-anchor="middle" x="132" y="-108.5" font-family="Helvetica,sans-Serif" font-size="10.00">ZendDbSchema_Db_Schema_AbstractEntity\getAdapter</text>
</g>
<!-- Node2 -->
<g id="node3" class="node"><title>Node2</title>
<a xlink:href="classZendDbSchema__Db__Schema__Table.html#aca1c83f883007a2210ea4f470804d4d1" target="_top" xlink:title="ZendDbSchema_Db_Schema_Table\\__set">
<polygon fill="white" stroke="black" points="333.5,-200.5 333.5,-221.5 536.5,-221.5 536.5,-200.5 333.5,-200.5"/>
<text text-anchor="middle" x="435" y="-208.5" font-family="Helvetica,sans-Serif" font-size="10.00">ZendDbSchema_Db_Schema_Table\__set</text>
</a>
</g>
<!-- Node1&#45;&gt;Node2 -->
<g id="edge2" class="edge"><title>Node1&#45;&gt;Node2</title>
<path fill="none" stroke="midnightblue" d="M158.76,-126.831C191.095,-145.218 247.686,-175.061 300,-191 312.579,-194.833 326.049,-197.943 339.432,-200.465"/>
<polygon fill="midnightblue" stroke="midnightblue" points="160.334,-123.699 149.921,-121.745 156.843,-129.766 160.334,-123.699"/>
</g>
<!-- Node3 -->
<g id="node5" class="node"><title>Node3</title>
<a xlink:href="classZendDbSchema__Db__Schema__Database.html#a16cacd680a6a027a88ec41f6d8211982" target="_top" xlink:title="ZendDbSchema_Db_Schema_Database\\__set">
<polygon fill="white" stroke="black" points="324.5,-160.5 324.5,-181.5 545.5,-181.5 545.5,-160.5 324.5,-160.5"/>
<text text-anchor="middle" x="435" y="-168.5" font-family="Helvetica,sans-Serif" font-size="10.00">ZendDbSchema_Db_Schema_Database\__set</text>
</a>
</g>
<!-- Node1&#45;&gt;Node3 -->
<g id="edge4" class="edge"><title>Node1&#45;&gt;Node3</title>
<path fill="none" stroke="midnightblue" d="M181.789,-124.052C215.091,-132.486 259.98,-143.286 300,-151 318.03,-154.475 337.517,-157.679 355.924,-160.458"/>
<polygon fill="midnightblue" stroke="midnightblue" points="182.398,-120.596 171.844,-121.517 180.669,-127.379 182.398,-120.596"/>
</g>
<!-- Node5 -->
<g id="node9" class="node"><title>Node5</title>
<a xlink:href="classZendDbSchema__Db__Schema__Database.html#aad388b374fd5913946204230760b2d86" target="_top" xlink:title="ZendDbSchema_Db_Schema_Database\\_doReload">
<polygon fill="white" stroke="black" points="313.5,-120.5 313.5,-141.5 556.5,-141.5 556.5,-120.5 313.5,-120.5"/>
<text text-anchor="middle" x="435" y="-128.5" font-family="Helvetica,sans-Serif" font-size="10.00">ZendDbSchema_Db_Schema_Database\_doReload</text>
</a>
</g>
<!-- Node1&#45;&gt;Node5 -->
<g id="edge8" class="edge"><title>Node1&#45;&gt;Node5</title>
<path fill="none" stroke="midnightblue" d="M274.06,-120.377C287.224,-121.246 300.484,-122.121 313.439,-122.976"/>
<polygon fill="midnightblue" stroke="midnightblue" points="274.228,-116.88 264.019,-119.714 273.767,-123.865 274.228,-116.88"/>
</g>
<!-- Node6 -->
<g id="node11" class="node"><title>Node6</title>
<a xlink:href="classZendDbSchema__Db__Schema__Table.html#abc05b1f219611fefdd0e9eaeff1761d9" target="_top" xlink:title="ZendDbSchema_Db_Schema_Table\\_doReload">
<polygon fill="white" stroke="black" points="322.5,-80.5 322.5,-101.5 547.5,-101.5 547.5,-80.5 322.5,-80.5"/>
<text text-anchor="middle" x="435" y="-88.5" font-family="Helvetica,sans-Serif" font-size="10.00">ZendDbSchema_Db_Schema_Table\_doReload</text>
</a>
</g>
<!-- Node1&#45;&gt;Node6 -->
<g id="edge10" class="edge"><title>Node1&#45;&gt;Node6</title>
<path fill="none" stroke="midnightblue" d="M274.083,-101.622C290.287,-100.552 306.635,-99.4729 322.383,-98.4335"/>
<polygon fill="midnightblue" stroke="midnightblue" points="273.767,-98.1348 264.019,-102.286 274.228,-105.12 273.767,-98.1348"/>
</g>
<!-- Node7 -->
<g id="node13" class="node"><title>Node7</title>
<a xlink:href="classZendDbSchema__Db__Schema__AbstractEntity.html#a7ddb87869e3021260c12bb57df4ba8c1" target="_top" xlink:title="ZendDbSchema_Db_Schema_AbstractEntity\\exec">
<polygon fill="white" stroke="black" points="316,-40.5 316,-61.5 554,-61.5 554,-40.5 316,-40.5"/>
<text text-anchor="middle" x="435" y="-48.5" font-family="Helvetica,sans-Serif" font-size="10.00">ZendDbSchema_Db_Schema_AbstractEntity\exec</text>
</a>
</g>
<!-- Node1&#45;&gt;Node7 -->
<g id="edge12" class="edge"><title>Node1&#45;&gt;Node7</title>
<path fill="none" stroke="midnightblue" d="M181.789,-97.948C215.091,-89.5141 259.98,-78.7137 300,-71 318.03,-67.5247 337.517,-64.3206 355.924,-61.5421"/>
<polygon fill="midnightblue" stroke="midnightblue" points="180.669,-94.6214 171.844,-100.483 182.398,-101.404 180.669,-94.6214"/>
</g>
<!-- Node10 -->
<g id="node19" class="node"><title>Node10</title>
<a xlink:href="classZendDbSchema__Db__Schema__AbstractEntity.html#a8a351350714cc32bf14e6e9464a156a6" target="_top" xlink:title="ZendDbSchema_Db_Schema_AbstractEntity\\getValidator">
<polygon fill="white" stroke="black" points="300.5,-0.5 300.5,-21.5 569.5,-21.5 569.5,-0.5 300.5,-0.5"/>
<text text-anchor="middle" x="435" y="-8.5" font-family="Helvetica,sans-Serif" font-size="10.00">ZendDbSchema_Db_Schema_AbstractEntity\getValidator</text>
</a>
</g>
<!-- Node1&#45;&gt;Node10 -->
<g id="edge18" class="edge"><title>Node1&#45;&gt;Node10</title>
<path fill="none" stroke="midnightblue" d="M158.76,-95.169C191.095,-76.7816 247.686,-46.9393 300,-31 312.579,-27.1674 326.049,-24.0566 339.432,-21.5347"/>
<polygon fill="midnightblue" stroke="midnightblue" points="156.843,-92.2339 149.921,-100.255 160.334,-98.3012 156.843,-92.2339"/>
</g>
<!-- Node4 -->
<g id="node7" class="node"><title>Node4</title>
<a xlink:href="classZendDbSchema__Db__Schema__Database.html#acfc530f3381e35f7d57676c4dcff3620" target="_top" xlink:title="ZendDbSchema_Db_Schema_Database\\setCharset">
<polygon fill="white" stroke="black" points="606.5,-160.5 606.5,-181.5 851.5,-181.5 851.5,-160.5 606.5,-160.5"/>
<text text-anchor="middle" x="729" y="-168.5" font-family="Helvetica,sans-Serif" font-size="10.00">ZendDbSchema_Db_Schema_Database\setCharset</text>
</a>
</g>
<!-- Node3&#45;&gt;Node4 -->
<g id="edge6" class="edge"><title>Node3&#45;&gt;Node4</title>
<path fill="none" stroke="midnightblue" d="M555.96,-171C572.496,-171 589.487,-171 606.058,-171"/>
<polygon fill="midnightblue" stroke="midnightblue" points="555.73,-167.5 545.73,-171 555.73,-174.5 555.73,-167.5"/>
</g>
<!-- Node8 -->
<g id="node15" class="node"><title>Node8</title>
<a xlink:href="classZendDbSchema__Db__Schema__AbstractEntity.html#a26fcff2268495fcdbfa265f394ee93d9" target="_top" xlink:title="ZendDbSchema_Db_Schema_AbstractEntity\\delete">
<polygon fill="white" stroke="black" points="607.5,-80.5 607.5,-101.5 850.5,-101.5 850.5,-80.5 607.5,-80.5"/>
<text text-anchor="middle" x="729" y="-88.5" font-family="Helvetica,sans-Serif" font-size="10.00">ZendDbSchema_Db_Schema_AbstractEntity\delete</text>
</a>
</g>
<!-- Node7&#45;&gt;Node8 -->
<g id="edge14" class="edge"><title>Node7&#45;&gt;Node8</title>
<path fill="none" stroke="midnightblue" d="M522.253,-62.8711C563.368,-68.465 611.997,-75.0813 651.761,-80.4913"/>
<polygon fill="midnightblue" stroke="midnightblue" points="522.626,-59.3897 512.245,-61.5095 521.682,-66.3258 522.626,-59.3897"/>
</g>
<!-- Node9 -->
<g id="node17" class="node"><title>Node9</title>
<a xlink:href="classZendDbSchema__Db__Schema__AbstractEntity.html#a5b1c93da76c3708f90d330b4643e55b2" target="_top" xlink:title="ZendDbSchema_Db_Schema_AbstractEntity\\save">
<polygon fill="white" stroke="black" points="610,-40.5 610,-61.5 848,-61.5 848,-40.5 610,-40.5"/>
<text text-anchor="middle" x="729" y="-48.5" font-family="Helvetica,sans-Serif" font-size="10.00">ZendDbSchema_Db_Schema_AbstractEntity\save</text>
</a>
</g>
<!-- Node7&#45;&gt;Node9 -->
<g id="edge16" class="edge"><title>Node7&#45;&gt;Node9</title>
<path fill="none" stroke="midnightblue" d="M564.509,-51C579.53,-51 594.797,-51 609.673,-51"/>
<polygon fill="midnightblue" stroke="midnightblue" points="564.157,-47.5001 554.157,-51 564.157,-54.5001 564.157,-47.5001"/>
</g>
<!-- Node11 -->
<g id="node21" class="node"><title>Node11</title>
<a xlink:href="classZendDbSchema__Db__Schema__AbstractEntity.html#a1b1330ae833b7d75146f26744c790e41" target="_top" xlink:title="ZendDbSchema_Db_Schema_AbstractEntity\\isValid">
<polygon fill="white" stroke="black" points="606,-0.5 606,-21.5 852,-21.5 852,-0.5 606,-0.5"/>
<text text-anchor="middle" x="729" y="-8.5" font-family="Helvetica,sans-Serif" font-size="10.00">ZendDbSchema_Db_Schema_AbstractEntity\isValid</text>
</a>
</g>
<!-- Node10&#45;&gt;Node11 -->
<g id="edge20" class="edge"><title>Node10&#45;&gt;Node11</title>
<path fill="none" stroke="midnightblue" d="M579.75,-11C588.471,-11 597.202,-11 605.822,-11"/>
<polygon fill="midnightblue" stroke="midnightblue" points="579.524,-7.5001 569.524,-11 579.524,-14.5001 579.524,-7.5001"/>
</g>
</g>
</svg>
