<?xml version="1.0" encoding="UTF-8" standalone="no"?>
<!DOCTYPE svg PUBLIC "-//W3C//DTD SVG 1.1//EN"
 "http://www.w3.org/Graphics/SVG/1.1/DTD/svg11.dtd">
<!-- Generated by graphviz version 2.26.3 (20100126.1600)
 -->
<!-- Title: G Pages: 1 -->
<svg width="1048pt" height="30pt"
 viewBox="0.00 0.00 1048.00 30.00" xmlns="http://www.w3.org/2000/svg" xmlns:xlink="http://www.w3.org/1999/xlink">
<g id="graph1" class="graph" transform="scale(1 1) rotate(0) translate(4 26)">
<title>G</title>
<polygon fill="white" stroke="white" points="-4,5 -4,-26 1045,-26 1045,5 -4,5"/>
<!-- Node1 -->
<g id="node1" class="node"><title>Node1</title>
<polygon fill="#bfbfbf" stroke="black" points="0.5,-0.5 0.5,-21.5 243.5,-21.5 243.5,-0.5 0.5,-0.5"/>
<text text-anchor="middle" x="122" y="-8.5" font-family="Helvetica,sans-Serif" font-size="10.00">ZendDbSchema_Db_Migration_Skeleton\setVersion</text>
</g>
<!-- Node2 -->
<g id="node3" class="node"><title>Node2</title>
<a xlink:href="classZendDbSchema__Db__Migration__Skeleton.html#afb677840482d948597ec10dc0fd37aab" target="_top" xlink:title="ZendDbSchema_Db_Migration_Skeleton\\getVersion">
<polygon fill="white" stroke="black" points="280.5,-0.5 280.5,-21.5 523.5,-21.5 523.5,-0.5 280.5,-0.5"/>
<text text-anchor="middle" x="402" y="-8.5" font-family="Helvetica,sans-Serif" font-size="10.00">ZendDbSchema_Db_Migration_Skeleton\getVersion</text>
</a>
</g>
<!-- Node1&#45;&gt;Node2 -->
<g id="edge2" class="edge"><title>Node1&#45;&gt;Node2</title>
<path fill="none" stroke="midnightblue" d="M253.838,-11C262.591,-11 271.386,-11 280.087,-11"/>
<polygon fill="midnightblue" stroke="midnightblue" points="253.591,-7.5001 243.59,-11 253.59,-14.5001 253.591,-7.5001"/>
</g>
<!-- Node3 -->
<g id="node5" class="node"><title>Node3</title>
<a xlink:href="classZendDbSchema__Db__Migration__Skeleton.html#a061e25b67825b88e94acf79944db19a6" target="_top" xlink:title="ZendDbSchema_Db_Migration_Skeleton\\getFile">
<polygon fill="white" stroke="black" points="560,-0.5 560,-21.5 786,-21.5 786,-0.5 560,-0.5"/>
<text text-anchor="middle" x="673" y="-8.5" font-family="Helvetica,sans-Serif" font-size="10.00">ZendDbSchema_Db_Migration_Skeleton\getFile</text>
</a>
</g>
<!-- Node2&#45;&gt;Node3 -->
<g id="edge4" class="edge"><title>Node2&#45;&gt;Node3</title>
<path fill="none" stroke="midnightblue" d="M533.864,-11C542.6,-11 551.356,-11 559.986,-11"/>
<polygon fill="midnightblue" stroke="midnightblue" points="533.628,-7.5001 523.628,-11 533.628,-14.5001 533.628,-7.5001"/>
</g>
<!-- Node4 -->
<g id="node7" class="node"><title>Node4</title>
<a xlink:href="classZendDbSchema__Db__Migration__Skeleton.html#a71668c68edcf35f36f111963a9b625df" target="_top" xlink:title="ZendDbSchema_Db_Migration_Skeleton\\write">
<polygon fill="white" stroke="black" points="822,-0.5 822,-21.5 1040,-21.5 1040,-0.5 822,-0.5"/>
<text text-anchor="middle" x="931" y="-8.5" font-family="Helvetica,sans-Serif" font-size="10.00">ZendDbSchema_Db_Migration_Skeleton\write</text>
</a>
</g>
<!-- Node3&#45;&gt;Node4 -->
<g id="edge6" class="edge"><title>Node3&#45;&gt;Node4</title>
<path fill="none" stroke="midnightblue" d="M796.413,-11C804.836,-11 813.292,-11 821.636,-11"/>
<polygon fill="midnightblue" stroke="midnightblue" points="796.163,-7.5001 786.163,-11 796.163,-14.5001 796.163,-7.5001"/>
</g>
</g>
</svg>
