<?xml version="1.0" encoding="UTF-8" standalone="no"?>
<!DOCTYPE svg PUBLIC "-//W3C//DTD SVG 1.1//EN"
 "http://www.w3.org/Graphics/SVG/1.1/DTD/svg11.dtd">
<!-- Generated by graphviz version 2.26.3 (20100126.1600)
 -->
<!-- Title: G Pages: 1 -->
<svg width="540pt" height="122pt"
 viewBox="0.00 0.00 540.00 122.00" xmlns="http://www.w3.org/2000/svg" xmlns:xlink="http://www.w3.org/1999/xlink">
<g id="graph1" class="graph" transform="scale(1 1) rotate(0) translate(4 118)">
<title>G</title>
<polygon fill="white" stroke="white" points="-4,5 -4,-118 537,-118 537,5 -4,5"/>
<!-- Node1 -->
<g id="node1" class="node"><title>Node1</title>
<polygon fill="#bfbfbf" stroke="black" points="0,-40 0,-74 158,-74 158,-40 0,-40"/>
<text text-anchor="start" x="8" y="-61" font-family="Helvetica,sans-Serif" font-size="10.00">ZendDbSchema_Db_Schema</text>
<text text-anchor="middle" x="79" y="-48" font-family="Helvetica,sans-Serif" font-size="10.00">_Table_PrimaryKey\setColumns</text>
</g>
<!-- Node2 -->
<g id="node3" class="node"><title>Node2</title>
<a xlink:href="classZendDbSchema__Db__Schema__Table__AbstractDefinition.html#a65498451683b2cf8fd1dc65f7f03581d" target="_top" xlink:title="ZendDbSchema_Db_Schema\l_Table_AbstractDefinition\\__set">
<polygon fill="white" stroke="black" points="194,-40 194,-74 350,-74 350,-40 194,-40"/>
<text text-anchor="start" x="202" y="-61" font-family="Helvetica,sans-Serif" font-size="10.00">ZendDbSchema_Db_Schema</text>
<text text-anchor="middle" x="272" y="-48" font-family="Helvetica,sans-Serif" font-size="10.00">_Table_AbstractDefinition\__set</text>
</a>
</g>
<!-- Node1&#45;&gt;Node2 -->
<g id="edge2" class="edge"><title>Node1&#45;&gt;Node2</title>
<path fill="none" stroke="midnightblue" d="M158.057,-57C166.42,-57 174.964,-57 183.426,-57"/>
<polygon fill="midnightblue" stroke="midnightblue" points="183.69,-60.5001 193.69,-57 183.69,-53.5001 183.69,-60.5001"/>
</g>
<!-- Node3 -->
<g id="node5" class="node"><title>Node3</title>
<a xlink:href="classZendDbSchema__Db__Schema__Table__AbstractDefinition.html#a224b6a0c1df1d6ed40e03657782ef6fc" target="_top" xlink:title="ZendDbSchema_Db_Schema\l_Table_AbstractDefinition\l\\getTable">
<polygon fill="white" stroke="black" points="386,-66.5 386,-113.5 532,-113.5 532,-66.5 386,-66.5"/>
<text text-anchor="start" x="394" y="-100.5" font-family="Helvetica,sans-Serif" font-size="10.00">ZendDbSchema_Db_Schema</text>
<text text-anchor="start" x="394" y="-87.5" font-family="Helvetica,sans-Serif" font-size="10.00">_Table_AbstractDefinition</text>
<text text-anchor="middle" x="459" y="-74.5" font-family="Helvetica,sans-Serif" font-size="10.00">\getTable</text>
</a>
</g>
<!-- Node2&#45;&gt;Node3 -->
<g id="edge4" class="edge"><title>Node2&#45;&gt;Node3</title>
<path fill="none" stroke="midnightblue" d="M350.221,-70.8038C358.71,-72.3017 367.371,-73.8301 375.914,-75.3378"/>
<polygon fill="midnightblue" stroke="midnightblue" points="375.416,-78.8039 385.872,-77.0951 376.633,-71.9104 375.416,-78.8039"/>
</g>
<!-- Node4 -->
<g id="node7" class="node"><title>Node4</title>
<a xlink:href="classZendDbSchema__Db__Schema__Table__AbstractDefinition.html#a2fb894602c4b7fbba5dd1d180f93c181" target="_top" xlink:title="ZendDbSchema_Db_Schema\l_Table_AbstractDefinition\l\\_getSchemaKey">
<polygon fill="white" stroke="black" points="386,-0.5 386,-47.5 532,-47.5 532,-0.5 386,-0.5"/>
<text text-anchor="start" x="394" y="-34.5" font-family="Helvetica,sans-Serif" font-size="10.00">ZendDbSchema_Db_Schema</text>
<text text-anchor="start" x="394" y="-21.5" font-family="Helvetica,sans-Serif" font-size="10.00">_Table_AbstractDefinition</text>
<text text-anchor="middle" x="459" y="-8.5" font-family="Helvetica,sans-Serif" font-size="10.00">\_getSchemaKey</text>
</a>
</g>
<!-- Node2&#45;&gt;Node4 -->
<g id="edge6" class="edge"><title>Node2&#45;&gt;Node4</title>
<path fill="none" stroke="midnightblue" d="M350.221,-43.1962C358.71,-41.6983 367.371,-40.1699 375.914,-38.6622"/>
<polygon fill="midnightblue" stroke="midnightblue" points="376.633,-42.0896 385.872,-36.9049 375.416,-35.1961 376.633,-42.0896"/>
</g>
</g>
</svg>
