<?xml version="1.0" encoding="UTF-8" standalone="no"?>
<!DOCTYPE svg PUBLIC "-//W3C//DTD SVG 1.1//EN"
 "http://www.w3.org/Graphics/SVG/1.1/DTD/svg11.dtd">
<!-- Generated by graphviz version 2.26.3 (20100126.1600)
 -->
<!-- Title: G Pages: 1 -->
<svg width="906pt" height="70pt"
 viewBox="0.00 0.00 906.00 70.00" xmlns="http://www.w3.org/2000/svg" xmlns:xlink="http://www.w3.org/1999/xlink">
<g id="graph1" class="graph" transform="scale(1 1) rotate(0) translate(4 66)">
<title>G</title>
<polygon fill="white" stroke="white" points="-4,5 -4,-66 903,-66 903,5 -4,5"/>
<!-- Node1 -->
<g id="node1" class="node"><title>Node1</title>
<polygon fill="#bfbfbf" stroke="black" points="0.5,-20.5 0.5,-41.5 255.5,-41.5 255.5,-20.5 0.5,-20.5"/>
<text text-anchor="middle" x="128" y="-28.5" font-family="Helvetica,sans-Serif" font-size="10.00">ZendDbSchema_Db_Schema_Table_Column\isSigned</text>
</g>
<!-- Node2 -->
<g id="node3" class="node"><title>Node2</title>
<a xlink:href="classZendDbSchema__Db__Schema__Generator__Mysql.html#ab808aafb85b6359cacdb4cc3fe757d6b" target="_top" xlink:title="ZendDbSchema_Db_Schema_Generator_Mysql\\_columnSql">
<polygon fill="white" stroke="black" points="292,-20.5 292,-41.5 572,-41.5 572,-20.5 292,-20.5"/>
<text text-anchor="middle" x="432" y="-28.5" font-family="Helvetica,sans-Serif" font-size="10.00">ZendDbSchema_Db_Schema_Generator_Mysql\_columnSql</text>
</a>
</g>
<!-- Node1&#45;&gt;Node2 -->
<g id="edge2" class="edge"><title>Node1&#45;&gt;Node2</title>
<path fill="none" stroke="midnightblue" d="M265.79,-31C274.499,-31 283.271,-31 291.99,-31"/>
<polygon fill="midnightblue" stroke="midnightblue" points="265.602,-27.5001 255.602,-31 265.602,-34.5001 265.602,-27.5001"/>
</g>
<!-- Node3 -->
<g id="node5" class="node"><title>Node3</title>
<a xlink:href="classZendDbSchema__Db__Schema__Generator__Mysql.html#a57a5e637e2c19faee40597d96d6b71b3" target="_top" xlink:title="ZendDbSchema_Db_Schema_Generator_Mysql\\alterColumn">
<polygon fill="white" stroke="black" points="612.5,-40.5 612.5,-61.5 893.5,-61.5 893.5,-40.5 612.5,-40.5"/>
<text text-anchor="middle" x="753" y="-48.5" font-family="Helvetica,sans-Serif" font-size="10.00">ZendDbSchema_Db_Schema_Generator_Mysql\alterColumn</text>
</a>
</g>
<!-- Node2&#45;&gt;Node3 -->
<g id="edge4" class="edge"><title>Node2&#45;&gt;Node3</title>
<path fill="none" stroke="midnightblue" d="M582.602,-40.3833C592.484,-40.999 602.416,-41.6178 612.248,-42.2304"/>
<polygon fill="midnightblue" stroke="midnightblue" points="582.527,-36.8719 572.328,-39.7432 582.091,-43.8584 582.527,-36.8719"/>
</g>
<!-- Node4 -->
<g id="node7" class="node"><title>Node4</title>
<a xlink:href="classZendDbSchema__Db__Schema__Generator__Mysql.html#a86040ff7c424a0ad7e5f4aadeec20a4c" target="_top" xlink:title="ZendDbSchema_Db_Schema_Generator_Mysql\\createColumn">
<polygon fill="white" stroke="black" points="608,-0.5 608,-21.5 898,-21.5 898,-0.5 608,-0.5"/>
<text text-anchor="middle" x="753" y="-8.5" font-family="Helvetica,sans-Serif" font-size="10.00">ZendDbSchema_Db_Schema_Generator_Mysql\createColumn</text>
</a>
</g>
<!-- Node2&#45;&gt;Node4 -->
<g id="edge6" class="edge"><title>Node2&#45;&gt;Node4</title>
<path fill="none" stroke="midnightblue" d="M582.322,-21.6342C590.855,-21.1025 599.426,-20.5685 607.939,-20.0381"/>
<polygon fill="midnightblue" stroke="midnightblue" points="582.091,-18.1416 572.328,-22.2568 582.527,-25.1281 582.091,-18.1416"/>
</g>
</g>
</svg>
