<?xml version="1.0" encoding="UTF-8" standalone="no"?>
<!DOCTYPE svg PUBLIC "-//W3C//DTD SVG 1.1//EN"
 "http://www.w3.org/Graphics/SVG/1.1/DTD/svg11.dtd">
<!-- Generated by graphviz version 2.26.3 (20100126.1600)
 -->
<!-- Title: G Pages: 1 -->
<svg width="566pt" height="248pt"
 viewBox="0.00 0.00 566.00 248.00" xmlns="http://www.w3.org/2000/svg" xmlns:xlink="http://www.w3.org/1999/xlink">
<g id="graph1" class="graph" transform="scale(1 1) rotate(0) translate(4 244)">
<title>G</title>
<polygon fill="white" stroke="white" points="-4,5 -4,-244 563,-244 563,5 -4,5"/>
<!-- Node1 -->
<g id="node1" class="node"><title>Node1</title>
<polygon fill="#bfbfbf" stroke="black" points="0,-81 0,-115 158,-115 158,-81 0,-81"/>
<text text-anchor="start" x="8" y="-102" font-family="Helvetica,sans-Serif" font-size="10.00">ZendDbSchema_Db_Schema</text>
<text text-anchor="middle" x="79" y="-89" font-family="Helvetica,sans-Serif" font-size="10.00">_Table_PrimaryKey\getColumns</text>
</g>
<!-- Node2 -->
<g id="node3" class="node"><title>Node2</title>
<a xlink:href="classZendDbSchema__Db__Schema__Table__PrimaryKey.html#a0b84ee828c689a3da5790e123583f691" target="_top" xlink:title="ZendDbSchema_Db_Schema\l_Table_PrimaryKey\\addColumn">
<polygon fill="white" stroke="black" points="394.5,-71 394.5,-105 549.5,-105 549.5,-71 394.5,-71"/>
<text text-anchor="start" x="402.5" y="-92" font-family="Helvetica,sans-Serif" font-size="10.00">ZendDbSchema_Db_Schema</text>
<text text-anchor="middle" x="472" y="-79" font-family="Helvetica,sans-Serif" font-size="10.00">_Table_PrimaryKey\addColumn</text>
</a>
</g>
<!-- Node1&#45;&gt;Node2 -->
<g id="edge2" class="edge"><title>Node1&#45;&gt;Node2</title>
<path fill="none" stroke="midnightblue" d="M168.347,-95.7265C236.48,-93.9929 329.372,-91.6292 394.41,-89.9743"/>
<polygon fill="midnightblue" stroke="midnightblue" points="167.964,-92.235 158.057,-95.9884 168.142,-99.2328 167.964,-92.235"/>
</g>
<!-- Node3 -->
<g id="node5" class="node"><title>Node3</title>
<a xlink:href="classZendDbSchema__Db__Schema__Generator__Pgsql__Table.html#a25c94e6add05e3ead557398dd62ae214" target="_top" xlink:title="ZendDbSchema_Db_Schema\l_Generator_Pgsql_Table\l\\addPrimaryKey">
<polygon fill="white" stroke="black" points="199,-126.5 199,-173.5 345,-173.5 345,-126.5 199,-126.5"/>
<text text-anchor="start" x="207" y="-160.5" font-family="Helvetica,sans-Serif" font-size="10.00">ZendDbSchema_Db_Schema</text>
<text text-anchor="start" x="207" y="-147.5" font-family="Helvetica,sans-Serif" font-size="10.00">_Generator_Pgsql_Table</text>
<text text-anchor="middle" x="272" y="-134.5" font-family="Helvetica,sans-Serif" font-size="10.00">\addPrimaryKey</text>
</a>
</g>
<!-- Node1&#45;&gt;Node3 -->
<g id="edge4" class="edge"><title>Node1&#45;&gt;Node3</title>
<path fill="none" stroke="midnightblue" d="M152.129,-117.703C167.456,-121.833 183.62,-126.188 198.945,-130.317"/>
<polygon fill="midnightblue" stroke="midnightblue" points="152.762,-114.249 142.195,-115.027 150.941,-121.008 152.762,-114.249"/>
</g>
<!-- Node4 -->
<g id="node7" class="node"><title>Node4</title>
<a xlink:href="classZendDbSchema__Db__Schema__Generator__Mysql__Table.html#a9daf95057d9d7a294b6ef45487818503" target="_top" xlink:title="ZendDbSchema_Db_Schema\l_Generator_Mysql_Table\l\\addPrimaryKey">
<polygon fill="white" stroke="black" points="199,-192.5 199,-239.5 345,-239.5 345,-192.5 199,-192.5"/>
<text text-anchor="start" x="207" y="-226.5" font-family="Helvetica,sans-Serif" font-size="10.00">ZendDbSchema_Db_Schema</text>
<text text-anchor="start" x="207" y="-213.5" font-family="Helvetica,sans-Serif" font-size="10.00">_Generator_Mysql_Table</text>
<text text-anchor="middle" x="272" y="-200.5" font-family="Helvetica,sans-Serif" font-size="10.00">\addPrimaryKey</text>
</a>
</g>
<!-- Node1&#45;&gt;Node4 -->
<g id="edge6" class="edge"><title>Node1&#45;&gt;Node4</title>
<path fill="none" stroke="midnightblue" d="M106.983,-121.623C129.509,-139.898 162.501,-165.033 194,-183 199.747,-186.278 205.884,-189.424 212.096,-192.382"/>
<polygon fill="midnightblue" stroke="midnightblue" points="109.131,-118.859 99.1787,-115.227 104.694,-124.273 109.131,-118.859"/>
</g>
<!-- Node6 -->
<g id="node11" class="node"><title>Node6</title>
<a xlink:href="classZendDbSchema__Db__Schema__Table__PrimaryKey.html#a97ed55c2479299d4e75e98154f12c409" target="_top" xlink:title="ZendDbSchema_Db_Schema\l_Table_PrimaryKey\\hasColumn">
<polygon fill="white" stroke="black" points="194.5,-36 194.5,-70 349.5,-70 349.5,-36 194.5,-36"/>
<text text-anchor="start" x="202.5" y="-57" font-family="Helvetica,sans-Serif" font-size="10.00">ZendDbSchema_Db_Schema</text>
<text text-anchor="middle" x="272" y="-44" font-family="Helvetica,sans-Serif" font-size="10.00">_Table_PrimaryKey\hasColumn</text>
</a>
</g>
<!-- Node1&#45;&gt;Node6 -->
<g id="edge10" class="edge"><title>Node1&#45;&gt;Node6</title>
<path fill="none" stroke="midnightblue" d="M161.79,-78.6967C174.142,-75.8167 186.8,-72.8653 198.932,-70.0366"/>
<polygon fill="midnightblue" stroke="midnightblue" points="160.909,-75.3081 151.965,-80.9874 162.499,-82.1252 160.909,-75.3081"/>
</g>
<!-- Node7 -->
<g id="node14" class="node"><title>Node7</title>
<a xlink:href="classZendDbSchema__Db__Schema__Table__PrimaryKey.html#a6deb586d1cc0935f5c0d50afa47667de" target="_top" xlink:title="ZendDbSchema_Db_Schema\l_Table_PrimaryKey\\removeColumn">
<polygon fill="white" stroke="black" points="386.5,-0 386.5,-34 557.5,-34 557.5,-0 386.5,-0"/>
<text text-anchor="start" x="394.5" y="-21" font-family="Helvetica,sans-Serif" font-size="10.00">ZendDbSchema_Db_Schema</text>
<text text-anchor="middle" x="472" y="-8" font-family="Helvetica,sans-Serif" font-size="10.00">_Table_PrimaryKey\removeColumn</text>
</a>
</g>
<!-- Node1&#45;&gt;Node7 -->
<g id="edge16" class="edge"><title>Node1&#45;&gt;Node7</title>
<path fill="none" stroke="midnightblue" d="M107.371,-74.6313C129.48,-57.9435 161.746,-36.7844 194,-27 256.391,-8.0734 330.288,-6.32753 386.206,-8.90542"/>
<polygon fill="midnightblue" stroke="midnightblue" points="105.191,-71.8925 99.4159,-80.7751 109.47,-77.4326 105.191,-71.8925"/>
</g>
<!-- Node5 -->
<g id="node9" class="node"><title>Node5</title>
<a xlink:href="classZendDbSchema__Db__Schema__Generator__Mysql__Table.html#ade1a7272ca13e357fed6a1f96179bb8c" target="_top" xlink:title="ZendDbSchema_Db_Schema\l_Generator_Mysql_Table\l\\alterPrimaryKey">
<polygon fill="white" stroke="black" points="399,-192.5 399,-239.5 545,-239.5 545,-192.5 399,-192.5"/>
<text text-anchor="start" x="407" y="-226.5" font-family="Helvetica,sans-Serif" font-size="10.00">ZendDbSchema_Db_Schema</text>
<text text-anchor="start" x="407" y="-213.5" font-family="Helvetica,sans-Serif" font-size="10.00">_Generator_Mysql_Table</text>
<text text-anchor="middle" x="472" y="-200.5" font-family="Helvetica,sans-Serif" font-size="10.00">\alterPrimaryKey</text>
</a>
</g>
<!-- Node4&#45;&gt;Node5 -->
<g id="edge8" class="edge"><title>Node4&#45;&gt;Node5</title>
<path fill="none" stroke="midnightblue" d="M355.437,-216C369.837,-216 384.707,-216 398.81,-216"/>
<polygon fill="midnightblue" stroke="midnightblue" points="355.054,-212.5 345.054,-216 355.054,-219.5 355.054,-212.5"/>
</g>
<!-- Node6&#45;&gt;Node2 -->
<g id="edge12" class="edge"><title>Node6&#45;&gt;Node2</title>
<path fill="none" stroke="midnightblue" d="M359.701,-68.3477C371.266,-70.3715 383.053,-72.4343 394.432,-74.4256"/>
<polygon fill="midnightblue" stroke="midnightblue" points="360.065,-64.8583 349.611,-66.582 358.858,-71.7535 360.065,-64.8583"/>
</g>
<!-- Node6&#45;&gt;Node7 -->
<g id="edge14" class="edge"><title>Node6&#45;&gt;Node7</title>
<path fill="none" stroke="midnightblue" d="M359.607,-37.2307C368.524,-35.6257 377.575,-33.9966 386.469,-32.3955"/>
<polygon fill="midnightblue" stroke="midnightblue" points="358.833,-33.8137 349.611,-39.0299 360.073,-40.703 358.833,-33.8137"/>
</g>
</g>
</svg>
