<?xml version="1.0" encoding="UTF-8" standalone="no"?>
<!DOCTYPE svg PUBLIC "-//W3C//DTD SVG 1.1//EN"
 "http://www.w3.org/Graphics/SVG/1.1/DTD/svg11.dtd">
<!-- Generated by graphviz version 2.26.3 (20100126.1600)
 -->
<!-- Title: G Pages: 1 -->
<svg width="528pt" height="141pt"
 viewBox="0.00 0.00 528.00 141.00" xmlns="http://www.w3.org/2000/svg" xmlns:xlink="http://www.w3.org/1999/xlink">
<g id="graph1" class="graph" transform="scale(1 1) rotate(0) translate(4 137)">
<title>G</title>
<polygon fill="white" stroke="white" points="-4,5 -4,-137 525,-137 525,5 -4,5"/>
<!-- Node1 -->
<g id="node1" class="node"><title>Node1</title>
<polygon fill="#bfbfbf" stroke="black" points="0,-22.5 0,-69.5 146,-69.5 146,-22.5 0,-22.5"/>
<text text-anchor="start" x="8" y="-56.5" font-family="Helvetica,sans-Serif" font-size="10.00">ZendDbSchema_Db_Schema</text>
<text text-anchor="start" x="8" y="-43.5" font-family="Helvetica,sans-Serif" font-size="10.00">_Table_AbstractDefinition</text>
<text text-anchor="middle" x="73" y="-30.5" font-family="Helvetica,sans-Serif" font-size="10.00">\isDeleted</text>
</g>
<!-- Node2 -->
<g id="node3" class="node"><title>Node2</title>
<a xlink:href="classZendDbSchema__Db__Schema__Table__AbstractDefinition.html#a92b77fa23ce49db1c39edcc583ec6cfe" target="_top" xlink:title="ZendDbSchema_Db_Schema\l_Table_AbstractDefinition\l\\isDirty">
<polygon fill="white" stroke="black" points="187,-52.5 187,-99.5 333,-99.5 333,-52.5 187,-52.5"/>
<text text-anchor="start" x="195" y="-86.5" font-family="Helvetica,sans-Serif" font-size="10.00">ZendDbSchema_Db_Schema</text>
<text text-anchor="start" x="195" y="-73.5" font-family="Helvetica,sans-Serif" font-size="10.00">_Table_AbstractDefinition</text>
<text text-anchor="middle" x="260" y="-60.5" font-family="Helvetica,sans-Serif" font-size="10.00">\isDirty</text>
</a>
</g>
<!-- Node1&#45;&gt;Node2 -->
<g id="edge2" class="edge"><title>Node1&#45;&gt;Node2</title>
<path fill="none" stroke="midnightblue" d="M156.259,-59.3571C166.489,-60.9983 176.885,-62.666 186.948,-64.2805"/>
<polygon fill="midnightblue" stroke="midnightblue" points="156.531,-55.856 146.103,-57.7277 155.422,-62.7676 156.531,-55.856"/>
</g>
<!-- Node5 -->
<g id="node9" class="node"><title>Node5</title>
<a xlink:href="classZendDbSchema__Db__Schema__Table__AbstractDefinition.html#a75c1b3ef1005c2d6aa371ecef07d530d" target="_top" xlink:title="ZendDbSchema_Db_Schema\l_Table_AbstractDefinition\\toSql">
<polygon fill="white" stroke="black" points="182.5,-0 182.5,-34 337.5,-34 337.5,-0 182.5,-0"/>
<text text-anchor="start" x="190.5" y="-21" font-family="Helvetica,sans-Serif" font-size="10.00">ZendDbSchema_Db_Schema</text>
<text text-anchor="middle" x="260" y="-8" font-family="Helvetica,sans-Serif" font-size="10.00">_Table_AbstractDefinition\toSql</text>
</a>
</g>
<!-- Node1&#45;&gt;Node5 -->
<g id="edge8" class="edge"><title>Node1&#45;&gt;Node5</title>
<path fill="none" stroke="midnightblue" d="M156.22,-33.0942C164.901,-31.748 173.702,-30.3832 182.318,-29.047"/>
<polygon fill="midnightblue" stroke="midnightblue" points="155.448,-29.672 146.103,-34.6632 156.521,-36.5893 155.448,-29.672"/>
</g>
<!-- Node3 -->
<g id="node5" class="node"><title>Node3</title>
<a xlink:href="classZendDbSchema__Db__Schema__Generator__Mysql__Table.html#aa8814727b4633316559e8865c62d9146" target="_top" xlink:title="ZendDbSchema_Db_Schema\l_Generator_Mysql_Table\l\\alterColumn">
<polygon fill="white" stroke="black" points="374,-85.5 374,-132.5 520,-132.5 520,-85.5 374,-85.5"/>
<text text-anchor="start" x="382" y="-119.5" font-family="Helvetica,sans-Serif" font-size="10.00">ZendDbSchema_Db_Schema</text>
<text text-anchor="start" x="382" y="-106.5" font-family="Helvetica,sans-Serif" font-size="10.00">_Generator_Mysql_Table</text>
<text text-anchor="middle" x="447" y="-93.5" font-family="Helvetica,sans-Serif" font-size="10.00">\alterColumn</text>
</a>
</g>
<!-- Node2&#45;&gt;Node3 -->
<g id="edge4" class="edge"><title>Node2&#45;&gt;Node3</title>
<path fill="none" stroke="midnightblue" d="M343.259,-90.6928C353.489,-92.4981 363.885,-94.3326 373.948,-96.1085"/>
<polygon fill="midnightblue" stroke="midnightblue" points="343.559,-87.1916 333.103,-88.9004 342.342,-94.0851 343.559,-87.1916"/>
</g>
<!-- Node4 -->
<g id="node7" class="node"><title>Node4</title>
<a xlink:href="classZendDbSchema__Db__Schema__Generator__Pgsql__Table.html#a2530efde9e464bbbcfbd166c622023d0" target="_top" xlink:title="ZendDbSchema_Db_Schema\l_Generator_Pgsql_Table\l\\alterColumn">
<polygon fill="white" stroke="black" points="374,-19.5 374,-66.5 520,-66.5 520,-19.5 374,-19.5"/>
<text text-anchor="start" x="382" y="-53.5" font-family="Helvetica,sans-Serif" font-size="10.00">ZendDbSchema_Db_Schema</text>
<text text-anchor="start" x="382" y="-40.5" font-family="Helvetica,sans-Serif" font-size="10.00">_Generator_Pgsql_Table</text>
<text text-anchor="middle" x="447" y="-27.5" font-family="Helvetica,sans-Serif" font-size="10.00">\alterColumn</text>
</a>
</g>
<!-- Node2&#45;&gt;Node4 -->
<g id="edge6" class="edge"><title>Node2&#45;&gt;Node4</title>
<path fill="none" stroke="midnightblue" d="M343.259,-61.3072C353.489,-59.5019 363.885,-57.6674 373.948,-55.8915"/>
<polygon fill="midnightblue" stroke="midnightblue" points="342.342,-57.9149 333.103,-63.0996 343.559,-64.8084 342.342,-57.9149"/>
</g>
</g>
</svg>
