<?xml version="1.0" encoding="UTF-8" standalone="no"?>
<!DOCTYPE svg PUBLIC "-//W3C//DTD SVG 1.1//EN"
 "http://www.w3.org/Graphics/SVG/1.1/DTD/svg11.dtd">
<!-- Generated by graphviz version 2.26.3 (20100126.1600)
 -->
<!-- Title: G Pages: 1 -->
<svg width="538pt" height="70pt"
 viewBox="0.00 0.00 538.00 70.00" xmlns="http://www.w3.org/2000/svg" xmlns:xlink="http://www.w3.org/1999/xlink">
<g id="graph1" class="graph" transform="scale(1 1) rotate(0) translate(4 66)">
<title>G</title>
<polygon fill="white" stroke="white" points="-4,5 -4,-66 535,-66 535,5 -4,5"/>
<!-- Node1 -->
<g id="node1" class="node"><title>Node1</title>
<polygon fill="#bfbfbf" stroke="black" points="0,-20.5 0,-41.5 248,-41.5 248,-20.5 0,-20.5"/>
<text text-anchor="middle" x="124" y="-28.5" font-family="Helvetica,sans-Serif" font-size="10.00">ZendDbSchema_Db_Migration_Manager\getPrevious</text>
</g>
<!-- Node2 -->
<g id="node3" class="node"><title>Node2</title>
<a xlink:href="classZendDbSchema__Db__Migration__Manager.html#ab66af8a9dc5cdb099b8266b68166c4e0" target="_top" xlink:title="ZendDbSchema_Db_Migration_Manager\\getVersion">
<polygon fill="white" stroke="black" points="286,-40.5 286,-61.5 528,-61.5 528,-40.5 286,-40.5"/>
<text text-anchor="middle" x="407" y="-48.5" font-family="Helvetica,sans-Serif" font-size="10.00">ZendDbSchema_Db_Migration_Manager\getVersion</text>
</a>
</g>
<!-- Node1&#45;&gt;Node2 -->
<g id="edge2" class="edge"><title>Node1&#45;&gt;Node2</title>
<path fill="none" stroke="midnightblue" d="M248.128,-39.7723C257.192,-40.4129 266.352,-41.0602 275.458,-41.7037"/>
<polygon fill="midnightblue" stroke="midnightblue" points="275.484,-45.2142 285.706,-42.428 275.978,-38.2317 275.484,-45.2142"/>
</g>
<!-- Node3 -->
<g id="node5" class="node"><title>Node3</title>
<a xlink:href="classZendDbSchema__Db__Migration__Manager.html#a9973d07f9ffe306e00ea2f9f4beb92e4" target="_top" xlink:title="ZendDbSchema_Db_Migration_Manager\\hasChange">
<polygon fill="white" stroke="black" points="284.5,-0.5 284.5,-21.5 529.5,-21.5 529.5,-0.5 284.5,-0.5"/>
<text text-anchor="middle" x="407" y="-8.5" font-family="Helvetica,sans-Serif" font-size="10.00">ZendDbSchema_Db_Migration_Manager\hasChange</text>
</a>
</g>
<!-- Node1&#45;&gt;Node3 -->
<g id="edge4" class="edge"><title>Node1&#45;&gt;Node3</title>
<path fill="none" stroke="midnightblue" d="M248.128,-22.2277C256.774,-21.6167 265.508,-20.9994 274.198,-20.3853"/>
<polygon fill="midnightblue" stroke="midnightblue" points="274.643,-23.8626 284.372,-19.6663 274.15,-16.8801 274.643,-23.8626"/>
</g>
</g>
</svg>
