<?xml version="1.0" encoding="UTF-8" standalone="no"?>
<!DOCTYPE svg PUBLIC "-//W3C//DTD SVG 1.1//EN"
 "http://www.w3.org/Graphics/SVG/1.1/DTD/svg11.dtd">
<!-- Generated by graphviz version 2.26.3 (20100126.1600)
 -->
<!-- Title: G Pages: 1 -->
<svg width="972pt" height="30pt"
 viewBox="0.00 0.00 972.00 30.00" xmlns="http://www.w3.org/2000/svg" xmlns:xlink="http://www.w3.org/1999/xlink">
<g id="graph1" class="graph" transform="scale(1 1) rotate(0) translate(4 26)">
<title>G</title>
<polygon fill="white" stroke="white" points="-4,5 -4,-26 969,-26 969,5 -4,5"/>
<!-- Node1 -->
<g id="node1" class="node"><title>Node1</title>
<polygon fill="#bfbfbf" stroke="black" points="0,-0.5 0,-21.5 324,-21.5 324,-0.5 0,-0.5"/>
<text text-anchor="middle" x="162" y="-8.5" font-family="Helvetica,sans-Serif" font-size="10.00">ZendDbSchema_Db_Schema_Table_AbstractDefinition\_getCreateSql</text>
</g>
<!-- Node2 -->
<g id="node3" class="node"><title>Node2</title>
<a xlink:href="classZendDbSchema__Db__Schema__Table__AbstractDefinition.html#a75c1b3ef1005c2d6aa371ecef07d530d" target="_top" xlink:title="ZendDbSchema_Db_Schema_Table_AbstractDefinition\\toSql">
<polygon fill="white" stroke="black" points="360,-0.5 360,-21.5 644,-21.5 644,-0.5 360,-0.5"/>
<text text-anchor="middle" x="502" y="-8.5" font-family="Helvetica,sans-Serif" font-size="10.00">ZendDbSchema_Db_Schema_Table_AbstractDefinition\toSql</text>
</a>
</g>
<!-- Node1&#45;&gt;Node2 -->
<g id="edge2" class="edge"><title>Node1&#45;&gt;Node2</title>
<path fill="none" stroke="midnightblue" d="M334.143,-11C342.756,-11 351.362,-11 359.872,-11"/>
<polygon fill="midnightblue" stroke="midnightblue" points="334.034,-7.5001 324.034,-11 334.034,-14.5001 334.034,-7.5001"/>
</g>
<!-- Node3 -->
<g id="node5" class="node"><title>Node3</title>
<a xlink:href="classZendDbSchema__Db__Schema__Table__AbstractDefinition.html#ad1a0b678c2352296b55af83c59142e59" target="_top" xlink:title="ZendDbSchema_Db_Schema_Table_AbstractDefinition\\save">
<polygon fill="white" stroke="black" points="680.5,-0.5 680.5,-21.5 963.5,-21.5 963.5,-0.5 680.5,-0.5"/>
<text text-anchor="middle" x="822" y="-8.5" font-family="Helvetica,sans-Serif" font-size="10.00">ZendDbSchema_Db_Schema_Table_AbstractDefinition\save</text>
</a>
</g>
<!-- Node2&#45;&gt;Node3 -->
<g id="edge4" class="edge"><title>Node2&#45;&gt;Node3</title>
<path fill="none" stroke="midnightblue" d="M654.387,-11C663.064,-11 671.771,-11 680.406,-11"/>
<polygon fill="midnightblue" stroke="midnightblue" points="654.22,-7.5001 644.22,-11 654.22,-14.5001 654.22,-7.5001"/>
</g>
</g>
</svg>
