<?xml version="1.0" encoding="UTF-8" standalone="no"?>
<!DOCTYPE svg PUBLIC "-//W3C//DTD SVG 1.1//EN"
 "http://www.w3.org/Graphics/SVG/1.1/DTD/svg11.dtd">
<!-- Generated by graphviz version 2.26.3 (20100126.1600)
 -->
<!-- Title: G Pages: 1 -->
<svg width="528pt" height="122pt"
 viewBox="0.00 0.00 528.00 122.00" xmlns="http://www.w3.org/2000/svg" xmlns:xlink="http://www.w3.org/1999/xlink">
<g id="graph1" class="graph" transform="scale(1 1) rotate(0) translate(4 118)">
<title>G</title>
<polygon fill="white" stroke="white" points="-4,5 -4,-118 525,-118 525,5 -4,5"/>
<!-- Node1 -->
<g id="node1" class="node"><title>Node1</title>
<polygon fill="#bfbfbf" stroke="black" points="0,-40 0,-74 146,-74 146,-40 0,-40"/>
<text text-anchor="start" x="8" y="-61" font-family="Helvetica,sans-Serif" font-size="10.00">ZendDbSchema_Db_Schema</text>
<text text-anchor="middle" x="73" y="-48" font-family="Helvetica,sans-Serif" font-size="10.00">_Table_Index\setColumns</text>
</g>
<!-- Node2 -->
<g id="node3" class="node"><title>Node2</title>
<a xlink:href="classZendDbSchema__Db__Schema__Table__AbstractDefinition.html#a65498451683b2cf8fd1dc65f7f03581d" target="_top" xlink:title="ZendDbSchema_Db_Schema\l_Table_AbstractDefinition\\__set">
<polygon fill="white" stroke="black" points="182,-40 182,-74 338,-74 338,-40 182,-40"/>
<text text-anchor="start" x="190" y="-61" font-family="Helvetica,sans-Serif" font-size="10.00">ZendDbSchema_Db_Schema</text>
<text text-anchor="middle" x="260" y="-48" font-family="Helvetica,sans-Serif" font-size="10.00">_Table_AbstractDefinition\__set</text>
</a>
</g>
<!-- Node1&#45;&gt;Node2 -->
<g id="edge2" class="edge"><title>Node1&#45;&gt;Node2</title>
<path fill="none" stroke="midnightblue" d="M146.103,-57C154.496,-57 163.12,-57 171.686,-57"/>
<polygon fill="midnightblue" stroke="midnightblue" points="171.697,-60.5001 181.697,-57 171.697,-53.5001 171.697,-60.5001"/>
</g>
<!-- Node3 -->
<g id="node5" class="node"><title>Node3</title>
<a xlink:href="classZendDbSchema__Db__Schema__Table__AbstractDefinition.html#a224b6a0c1df1d6ed40e03657782ef6fc" target="_top" xlink:title="ZendDbSchema_Db_Schema\l_Table_AbstractDefinition\l\\getTable">
<polygon fill="white" stroke="black" points="374,-66.5 374,-113.5 520,-113.5 520,-66.5 374,-66.5"/>
<text text-anchor="start" x="382" y="-100.5" font-family="Helvetica,sans-Serif" font-size="10.00">ZendDbSchema_Db_Schema</text>
<text text-anchor="start" x="382" y="-87.5" font-family="Helvetica,sans-Serif" font-size="10.00">_Table_AbstractDefinition</text>
<text text-anchor="middle" x="447" y="-74.5" font-family="Helvetica,sans-Serif" font-size="10.00">\getTable</text>
</a>
</g>
<!-- Node2&#45;&gt;Node3 -->
<g id="edge4" class="edge"><title>Node2&#45;&gt;Node3</title>
<path fill="none" stroke="midnightblue" d="M338.221,-70.8038C346.71,-72.3017 355.371,-73.8301 363.914,-75.3378"/>
<polygon fill="midnightblue" stroke="midnightblue" points="363.416,-78.8039 373.872,-77.0951 364.633,-71.9104 363.416,-78.8039"/>
</g>
<!-- Node4 -->
<g id="node7" class="node"><title>Node4</title>
<a xlink:href="classZendDbSchema__Db__Schema__Table__AbstractDefinition.html#a2fb894602c4b7fbba5dd1d180f93c181" target="_top" xlink:title="ZendDbSchema_Db_Schema\l_Table_AbstractDefinition\l\\_getSchemaKey">
<polygon fill="white" stroke="black" points="374,-0.5 374,-47.5 520,-47.5 520,-0.5 374,-0.5"/>
<text text-anchor="start" x="382" y="-34.5" font-family="Helvetica,sans-Serif" font-size="10.00">ZendDbSchema_Db_Schema</text>
<text text-anchor="start" x="382" y="-21.5" font-family="Helvetica,sans-Serif" font-size="10.00">_Table_AbstractDefinition</text>
<text text-anchor="middle" x="447" y="-8.5" font-family="Helvetica,sans-Serif" font-size="10.00">\_getSchemaKey</text>
</a>
</g>
<!-- Node2&#45;&gt;Node4 -->
<g id="edge6" class="edge"><title>Node2&#45;&gt;Node4</title>
<path fill="none" stroke="midnightblue" d="M338.221,-43.1962C346.71,-41.6983 355.371,-40.1699 363.914,-38.6622"/>
<polygon fill="midnightblue" stroke="midnightblue" points="364.633,-42.0896 373.872,-36.9049 363.416,-35.1961 364.633,-42.0896"/>
</g>
</g>
</svg>
