<?xml version="1.0" encoding="UTF-8" standalone="no"?>
<!DOCTYPE svg PUBLIC "-//W3C//DTD SVG 1.1//EN"
 "http://www.w3.org/Graphics/SVG/1.1/DTD/svg11.dtd">
<!-- Generated by graphviz version 2.26.3 (20100126.1600)
 -->
<!-- Title: G Pages: 1 -->
<svg width="1520pt" height="110pt"
 viewBox="0.00 0.00 1520.00 110.00" xmlns="http://www.w3.org/2000/svg" xmlns:xlink="http://www.w3.org/1999/xlink">
<g id="graph1" class="graph" transform="scale(1 1) rotate(0) translate(4 106)">
<title>G</title>
<polygon fill="white" stroke="white" points="-4,5 -4,-106 1517,-106 1517,5 -4,5"/>
<!-- Node1 -->
<g id="node1" class="node"><title>Node1</title>
<polygon fill="#bfbfbf" stroke="black" points="0.5,-40.5 0.5,-61.5 251.5,-61.5 251.5,-40.5 0.5,-40.5"/>
<text text-anchor="middle" x="126" y="-48.5" font-family="Helvetica,sans-Serif" font-size="10.00">ZendDbSchema_Db_Schema_AbstractSchema\__set</text>
</g>
<!-- Node2 -->
<g id="node3" class="node"><title>Node2</title>
<a xlink:href="classZendDbSchema__Db__Schema__AbstractSchema.html#afda46eab0c365f4c9a743b7185c51d6c" target="_top" xlink:title="ZendDbSchema_Db_Schema_AbstractSchema\\getValidator">
<polygon fill="white" stroke="black" points="288.5,-40.5 288.5,-61.5 567.5,-61.5 567.5,-40.5 288.5,-40.5"/>
<text text-anchor="middle" x="428" y="-48.5" font-family="Helvetica,sans-Serif" font-size="10.00">ZendDbSchema_Db_Schema_AbstractSchema\getValidator</text>
</a>
</g>
<!-- Node1&#45;&gt;Node2 -->
<g id="edge2" class="edge"><title>Node1&#45;&gt;Node2</title>
<path fill="none" stroke="midnightblue" d="M251.888,-51C260.497,-51 269.217,-51 277.933,-51"/>
<polygon fill="midnightblue" stroke="midnightblue" points="278.156,-54.5001 288.156,-51 278.156,-47.5001 278.156,-54.5001"/>
</g>
<!-- Node3 -->
<g id="node5" class="node"><title>Node3</title>
<a xlink:href="classZendDbSchema__Db__Schema__AbstractSchema.html#a47d95912f6bf6d26d023597887dafacb" target="_top" xlink:title="ZendDbSchema_Db_Schema_AbstractSchema\\getAdapter">
<polygon fill="white" stroke="black" points="604.5,-40.5 604.5,-61.5 879.5,-61.5 879.5,-40.5 604.5,-40.5"/>
<text text-anchor="middle" x="742" y="-48.5" font-family="Helvetica,sans-Serif" font-size="10.00">ZendDbSchema_Db_Schema_AbstractSchema\getAdapter</text>
</a>
</g>
<!-- Node2&#45;&gt;Node3 -->
<g id="edge4" class="edge"><title>Node2&#45;&gt;Node3</title>
<path fill="none" stroke="midnightblue" d="M567.554,-51C576.265,-51 585.05,-51 593.797,-51"/>
<polygon fill="midnightblue" stroke="midnightblue" points="594.043,-54.5001 604.043,-51 594.043,-47.5001 594.043,-54.5001"/>
</g>
<!-- Node4 -->
<g id="node7" class="node"><title>Node4</title>
<a xlink:href="classZendDbSchema__Db__Schema__AbstractSchema.html#a6349649e5e09d67a5b5e0abe96298db8" target="_top" xlink:title="ZendDbSchema_Db_Schema_AbstractSchema\\setAdapter">
<polygon fill="white" stroke="black" points="916.5,-40.5 916.5,-61.5 1191.5,-61.5 1191.5,-40.5 916.5,-40.5"/>
<text text-anchor="middle" x="1054" y="-48.5" font-family="Helvetica,sans-Serif" font-size="10.00">ZendDbSchema_Db_Schema_AbstractSchema\setAdapter</text>
</a>
</g>
<!-- Node3&#45;&gt;Node4 -->
<g id="edge6" class="edge"><title>Node3&#45;&gt;Node4</title>
<path fill="none" stroke="midnightblue" d="M879.756,-51C888.438,-51 897.197,-51 905.923,-51"/>
<polygon fill="midnightblue" stroke="midnightblue" points="906.145,-54.5001 916.145,-51 906.145,-47.5001 906.145,-54.5001"/>
</g>
<!-- Node5 -->
<g id="node9" class="node"><title>Node5</title>
<a xlink:href="classZendDbSchema__Db__Schema__AbstractSchema.html#a53a1974dbc8822792a8d7b9c618d3a02" target="_top" xlink:title="ZendDbSchema_Db_Schema_AbstractSchema\\setGenerator">
<polygon fill="white" stroke="black" points="1228,-80.5 1228,-101.5 1512,-101.5 1512,-80.5 1228,-80.5"/>
<text text-anchor="middle" x="1370" y="-88.5" font-family="Helvetica,sans-Serif" font-size="10.00">ZendDbSchema_Db_Schema_AbstractSchema\setGenerator</text>
</a>
</g>
<!-- Node4&#45;&gt;Node5 -->
<g id="edge8" class="edge"><title>Node4&#45;&gt;Node5</title>
<path fill="none" stroke="midnightblue" d="M1137.03,-61.5095C1179.95,-66.9425 1232.48,-73.5919 1276.78,-79.2006"/>
<polygon fill="midnightblue" stroke="midnightblue" points="1276.62,-82.7077 1286.98,-80.4913 1277.5,-75.7631 1276.62,-82.7077"/>
</g>
<!-- Node6 -->
<g id="node11" class="node"><title>Node6</title>
<a xlink:href="classZendDbSchema__Db__Schema__AbstractSchema.html#aa0e6c9f8d58702dc41d988f064f62698" target="_top" xlink:title="ZendDbSchema_Db_Schema_AbstractSchema\\setParser">
<polygon fill="white" stroke="black" points="1235.5,-40.5 1235.5,-61.5 1504.5,-61.5 1504.5,-40.5 1235.5,-40.5"/>
<text text-anchor="middle" x="1370" y="-48.5" font-family="Helvetica,sans-Serif" font-size="10.00">ZendDbSchema_Db_Schema_AbstractSchema\setParser</text>
</a>
</g>
<!-- Node4&#45;&gt;Node6 -->
<g id="edge10" class="edge"><title>Node4&#45;&gt;Node6</title>
<path fill="none" stroke="midnightblue" d="M1191.68,-51C1202.76,-51 1213.98,-51 1225.1,-51"/>
<polygon fill="midnightblue" stroke="midnightblue" points="1225.29,-54.5001 1235.29,-51 1225.29,-47.5001 1225.29,-54.5001"/>
</g>
<!-- Node7 -->
<g id="node13" class="node"><title>Node7</title>
<a xlink:href="classZendDbSchema__Db__Schema__AbstractSchema.html#ac0161e2c24dafba8433fb86205a147fe" target="_top" xlink:title="ZendDbSchema_Db_Schema_AbstractSchema\\setValidator">
<polygon fill="white" stroke="black" points="1230.5,-0.5 1230.5,-21.5 1509.5,-21.5 1509.5,-0.5 1230.5,-0.5"/>
<text text-anchor="middle" x="1370" y="-8.5" font-family="Helvetica,sans-Serif" font-size="10.00">ZendDbSchema_Db_Schema_AbstractSchema\setValidator</text>
</a>
</g>
<!-- Node4&#45;&gt;Node7 -->
<g id="edge12" class="edge"><title>Node4&#45;&gt;Node7</title>
<path fill="none" stroke="midnightblue" d="M1137.03,-40.4905C1179.95,-35.0575 1232.48,-28.4081 1276.78,-22.7994"/>
<polygon fill="midnightblue" stroke="midnightblue" points="1277.5,-26.2369 1286.98,-21.5087 1276.62,-19.2923 1277.5,-26.2369"/>
</g>
</g>
</svg>
