<?xml version="1.0" encoding="UTF-8" standalone="no"?>
<!DOCTYPE svg PUBLIC "-//W3C//DTD SVG 1.1//EN"
 "http://www.w3.org/Graphics/SVG/1.1/DTD/svg11.dtd">
<!-- Generated by graphviz version 2.26.3 (20100126.1600)
 -->
<!-- Title: G Pages: 1 -->
<svg width="812pt" height="148pt"
 viewBox="0.00 0.00 812.00 148.00" xmlns="http://www.w3.org/2000/svg" xmlns:xlink="http://www.w3.org/1999/xlink">
<g id="graph1" class="graph" transform="scale(1 1) rotate(0) translate(4 144)">
<title>G</title>
<polygon fill="white" stroke="white" points="-4,5 -4,-144 809,-144 809,5 -4,5"/>
<!-- Node1 -->
<g id="node1" class="node"><title>Node1</title>
<polygon fill="#bfbfbf" stroke="black" points="0,-58.5 0,-79.5 202,-79.5 202,-58.5 0,-58.5"/>
<text text-anchor="middle" x="101" y="-66.5" font-family="Helvetica,sans-Serif" font-size="10.00">ZendDbSchema_Db_Schema_Table\index</text>
</g>
<!-- Node2 -->
<g id="node3" class="node"><title>Node2</title>
<a xlink:href="classZendDbSchema__Db__Schema__Table.html#a61af671b27825f5b54d6eb1d2adce0bd" target="_top" xlink:title="ZendDbSchema_Db_Schema_Table\\_doSave">
<polygon fill="white" stroke="black" points="238.5,-118.5 238.5,-139.5 455.5,-139.5 455.5,-118.5 238.5,-118.5"/>
<text text-anchor="middle" x="347" y="-126.5" font-family="Helvetica,sans-Serif" font-size="10.00">ZendDbSchema_Db_Schema_Table\_doSave</text>
</a>
</g>
<!-- Node1&#45;&gt;Node2 -->
<g id="edge2" class="edge"><title>Node1&#45;&gt;Node2</title>
<path fill="none" stroke="midnightblue" d="M143.546,-82.6461C170.443,-90.9674 206.039,-101.423 238,-109 252.602,-112.462 268.425,-115.671 283.369,-118.459"/>
<polygon fill="midnightblue" stroke="midnightblue" points="144.278,-79.2081 133.689,-79.5718 142.194,-85.8906 144.278,-79.2081"/>
</g>
<!-- Node3 -->
<g id="node5" class="node"><title>Node3</title>
<a xlink:href="classZendDbSchema__Db__Schema__Table.html#a21a2a75870207a989576655fec7507c3" target="_top" xlink:title="ZendDbSchema_Db_Schema_Table\\isDirty">
<polygon fill="white" stroke="black" points="243.5,-78.5 243.5,-99.5 450.5,-99.5 450.5,-78.5 243.5,-78.5"/>
<text text-anchor="middle" x="347" y="-86.5" font-family="Helvetica,sans-Serif" font-size="10.00">ZendDbSchema_Db_Schema_Table\isDirty</text>
</a>
</g>
<!-- Node1&#45;&gt;Node3 -->
<g id="edge4" class="edge"><title>Node1&#45;&gt;Node3</title>
<path fill="none" stroke="midnightblue" d="M212.095,-78.0321C222.544,-78.8816 233.109,-79.7405 243.484,-80.584"/>
<polygon fill="midnightblue" stroke="midnightblue" points="212.373,-74.5433 202.123,-77.2213 211.806,-81.5203 212.373,-74.5433"/>
</g>
<!-- Node5 -->
<g id="node9" class="node"><title>Node5</title>
<a xlink:href="classZendDbSchema__Db__Schema__Table.html#a6178edaeea7e08d97e2196dd991532f9" target="_top" xlink:title="ZendDbSchema_Db_Schema_Table\\toSql">
<polygon fill="white" stroke="black" points="547.5,-39.5 547.5,-60.5 748.5,-60.5 748.5,-39.5 547.5,-39.5"/>
<text text-anchor="middle" x="648" y="-47.5" font-family="Helvetica,sans-Serif" font-size="10.00">ZendDbSchema_Db_Schema_Table\toSql</text>
</a>
</g>
<!-- Node1&#45;&gt;Node5 -->
<g id="edge12" class="edge"><title>Node1&#45;&gt;Node5</title>
<path fill="none" stroke="midnightblue" d="M212.543,-65.1256C310.737,-61.7148 452.467,-56.7918 547.281,-53.4985"/>
<polygon fill="midnightblue" stroke="midnightblue" points="212.157,-61.6368 202.285,-65.4819 212.4,-68.6325 212.157,-61.6368"/>
</g>
<!-- Node6 -->
<g id="node11" class="node"><title>Node6</title>
<a xlink:href="classZendDbSchema__Db__Schema__Table.html#aad47d08cebd042ad8e64d825b65859ab" target="_top" xlink:title="ZendDbSchema_Db_Schema_Table\\toArray">
<polygon fill="white" stroke="black" points="242,-0.5 242,-21.5 452,-21.5 452,-0.5 242,-0.5"/>
<text text-anchor="middle" x="347" y="-8.5" font-family="Helvetica,sans-Serif" font-size="10.00">ZendDbSchema_Db_Schema_Table\toArray</text>
</a>
</g>
<!-- Node1&#45;&gt;Node6 -->
<g id="edge10" class="edge"><title>Node1&#45;&gt;Node6</title>
<path fill="none" stroke="midnightblue" d="M153.97,-56.0983C179.373,-49.9474 210.247,-42.5249 238,-36 258.506,-31.1788 281.21,-25.9536 300.565,-21.5328"/>
<polygon fill="midnightblue" stroke="midnightblue" points="153.057,-52.7181 144.163,-58.4754 154.706,-59.5211 153.057,-52.7181"/>
</g>
<!-- Node4 -->
<g id="node7" class="node"><title>Node4</title>
<a xlink:href="classZendDbSchema__Db__Schema__Generator__Mysql.html#a15b587d8eb6c4f85445e4ef4cd32b8cb" target="_top" xlink:title="ZendDbSchema_Db_Schema_Generator_Mysql\\generateTableAlter">
<polygon fill="white" stroke="black" points="492.5,-79.5 492.5,-100.5 803.5,-100.5 803.5,-79.5 492.5,-79.5"/>
<text text-anchor="middle" x="648" y="-87.5" font-family="Helvetica,sans-Serif" font-size="10.00">ZendDbSchema_Db_Schema_Generator_Mysql\generateTableAlter</text>
</a>
</g>
<!-- Node3&#45;&gt;Node4 -->
<g id="edge6" class="edge"><title>Node3&#45;&gt;Node4</title>
<path fill="none" stroke="midnightblue" d="M460.824,-89.3782C471.151,-89.4125 481.723,-89.4476 492.329,-89.4828"/>
<polygon fill="midnightblue" stroke="midnightblue" points="460.599,-85.8775 450.587,-89.3441 460.575,-92.8774 460.599,-85.8775"/>
</g>
<!-- Node3&#45;&gt;Node5 -->
<g id="edge8" class="edge"><title>Node3&#45;&gt;Node5</title>
<path fill="none" stroke="midnightblue" d="M437.142,-77.1487C455.304,-74.7721 474.261,-72.2993 492,-70 515.829,-66.9113 541.709,-63.5828 565.415,-60.5443"/>
<polygon fill="midnightblue" stroke="midnightblue" points="436.608,-73.6887 427.147,-78.4574 437.517,-80.6294 436.608,-73.6887"/>
</g>
</g>
</svg>
