<?xml version="1.0" encoding="UTF-8" standalone="no"?>
<!DOCTYPE svg PUBLIC "-//W3C//DTD SVG 1.1//EN"
 "http://www.w3.org/Graphics/SVG/1.1/DTD/svg11.dtd">
<!-- Generated by graphviz version 2.26.3 (20100126.1600)
 -->
<!-- Title: G Pages: 1 -->
<svg width="896pt" height="150pt"
 viewBox="0.00 0.00 896.00 150.00" xmlns="http://www.w3.org/2000/svg" xmlns:xlink="http://www.w3.org/1999/xlink">
<g id="graph1" class="graph" transform="scale(1 1) rotate(0) translate(4 146)">
<title>G</title>
<polygon fill="white" stroke="white" points="-4,5 -4,-146 893,-146 893,5 -4,5"/>
<!-- Node1 -->
<g id="node1" class="node"><title>Node1</title>
<polygon fill="#bfbfbf" stroke="black" points="0,-60.5 0,-81.5 248,-81.5 248,-60.5 0,-60.5"/>
<text text-anchor="middle" x="124" y="-68.5" font-family="Helvetica,sans-Serif" font-size="10.00">ZendDbSchema_Tool_Project_Provider_Schema\pull</text>
</g>
<!-- Node2 -->
<g id="node3" class="node"><title>Node2</title>
<a xlink:href="classZendDbSchema__Tool__Project__Provider__Schema.html#a4bfcbf170571b61e24662b9d8bb8c95c" target="_top" xlink:title="ZendDbSchema_Tool_Project_Provider_Schema\\_bootstrap">
<polygon fill="white" stroke="black" points="296,-120.5 296,-141.5 574,-141.5 574,-120.5 296,-120.5"/>
<text text-anchor="middle" x="435" y="-128.5" font-family="Helvetica,sans-Serif" font-size="10.00">ZendDbSchema_Tool_Project_Provider_Schema\_bootstrap</text>
</a>
</g>
<!-- Node1&#45;&gt;Node2 -->
<g id="edge2" class="edge"><title>Node1&#45;&gt;Node2</title>
<path fill="none" stroke="midnightblue" d="M161.235,-81.5822C193.494,-90.4433 241.529,-102.905 284,-111 299.704,-113.993 316.411,-116.688 332.773,-119.058"/>
<polygon fill="midnightblue" stroke="midnightblue" points="332.511,-122.556 342.903,-120.492 333.492,-115.625 332.511,-122.556"/>
</g>
<!-- Node3 -->
<g id="node5" class="node"><title>Node3</title>
<a xlink:href="classZendDbSchema__Tool__Project__Provider__Schema.html#ae00f032a9818a3227d29bde827856256" target="_top" xlink:title="ZendDbSchema_Tool_Project_Provider_Schema\\_getSchema">
<polygon fill="white" stroke="black" points="291.5,-80.5 291.5,-101.5 578.5,-101.5 578.5,-80.5 291.5,-80.5"/>
<text text-anchor="middle" x="435" y="-88.5" font-family="Helvetica,sans-Serif" font-size="10.00">ZendDbSchema_Tool_Project_Provider_Schema\_getSchema</text>
</a>
</g>
<!-- Node1&#45;&gt;Node3 -->
<g id="edge4" class="edge"><title>Node1&#45;&gt;Node3</title>
<path fill="none" stroke="midnightblue" d="M248.256,-78.9908C259.137,-79.6905 270.231,-80.4039 281.313,-81.1166"/>
<polygon fill="midnightblue" stroke="midnightblue" points="281.276,-84.6214 291.48,-81.7704 281.725,-77.6358 281.276,-84.6214"/>
</g>
<!-- Node4 -->
<g id="node7" class="node"><title>Node4</title>
<a xlink:href="classZendDbSchema__Tool__Project__Provider__Schema.html#a7ec839cde120f748f3b0d6f24fa56d34" target="_top" xlink:title="ZendDbSchema_Tool_Project_Provider_Schema\\_getFilename">
<polygon fill="white" stroke="black" points="289.5,-40.5 289.5,-61.5 580.5,-61.5 580.5,-40.5 289.5,-40.5"/>
<text text-anchor="middle" x="435" y="-48.5" font-family="Helvetica,sans-Serif" font-size="10.00">ZendDbSchema_Tool_Project_Provider_Schema\_getFilename</text>
</a>
</g>
<!-- Node1&#45;&gt;Node4 -->
<g id="edge6" class="edge"><title>Node1&#45;&gt;Node4</title>
<path fill="none" stroke="midnightblue" d="M248.256,-63.0092C258.513,-62.3496 268.96,-61.6778 279.407,-61.006"/>
<polygon fill="midnightblue" stroke="midnightblue" points="279.662,-64.4969 289.417,-60.3623 279.213,-57.5113 279.662,-64.4969"/>
</g>
<!-- Node5 -->
<g id="node9" class="node"><title>Node5</title>
<a xlink:href="classZendDbSchema__Tool__Project__Provider__Schema.html#ae23994cc878a689226c458de95a7ecd1" target="_top" xlink:title="ZendDbSchema_Tool_Project_Provider_Schema\\createResource">
<polygon fill="white" stroke="black" points="284,-0.5 284,-21.5 586,-21.5 586,-0.5 284,-0.5"/>
<text text-anchor="middle" x="435" y="-8.5" font-family="Helvetica,sans-Serif" font-size="10.00">ZendDbSchema_Tool_Project_Provider_Schema\createResource</text>
</a>
</g>
<!-- Node1&#45;&gt;Node5 -->
<g id="edge8" class="edge"><title>Node1&#45;&gt;Node5</title>
<path fill="none" stroke="midnightblue" d="M161.235,-60.4178C193.494,-51.5567 241.529,-39.0945 284,-31 299.704,-28.007 316.411,-25.3123 332.773,-22.9419"/>
<polygon fill="midnightblue" stroke="midnightblue" points="333.492,-26.375 342.903,-21.5081 332.511,-19.4441 333.492,-26.375"/>
</g>
<!-- Node6 -->
<g id="node11" class="node"><title>Node6</title>
<a xlink:href="classZendDbSchema__Tool__Project__Provider__Schema.html#a4bab978eff99970636ddf863266e9d96" target="_top" xlink:title="ZendDbSchema_Tool_Project_Provider_Schema\\_findfile">
<polygon fill="white" stroke="black" points="622,-0.5 622,-21.5 888,-21.5 888,-0.5 622,-0.5"/>
<text text-anchor="middle" x="755" y="-8.5" font-family="Helvetica,sans-Serif" font-size="10.00">ZendDbSchema_Tool_Project_Provider_Schema\_findfile</text>
</a>
</g>
<!-- Node5&#45;&gt;Node6 -->
<g id="edge10" class="edge"><title>Node5&#45;&gt;Node6</title>
<path fill="none" stroke="midnightblue" d="M586.098,-11C594.705,-11 603.346,-11 611.922,-11"/>
<polygon fill="midnightblue" stroke="midnightblue" points="611.954,-14.5001 621.954,-11 611.954,-7.5001 611.954,-14.5001"/>
</g>
</g>
</svg>
