<?xml version="1.0" encoding="UTF-8" standalone="no"?>
<!DOCTYPE svg PUBLIC "-//W3C//DTD SVG 1.1//EN"
 "http://www.w3.org/Graphics/SVG/1.1/DTD/svg11.dtd">
<!-- Generated by graphviz version 2.26.3 (20100126.1600)
 -->
<!-- Title: G Pages: 1 -->
<svg width="1200pt" height="148pt"
 viewBox="0.00 0.00 1200.00 148.00" xmlns="http://www.w3.org/2000/svg" xmlns:xlink="http://www.w3.org/1999/xlink">
<g id="graph1" class="graph" transform="scale(1 1) rotate(0) translate(4 144)">
<title>G</title>
<polygon fill="white" stroke="white" points="-4,5 -4,-144 1197,-144 1197,5 -4,5"/>
<!-- Node1 -->
<g id="node1" class="node"><title>Node1</title>
<polygon fill="#bfbfbf" stroke="black" points="0.5,-59.5 0.5,-80.5 251.5,-80.5 251.5,-59.5 0.5,-59.5"/>
<text text-anchor="middle" x="126" y="-67.5" font-family="Helvetica,sans-Serif" font-size="10.00">ZendDbSchema_Db_Schema_AbstractSchema\__set</text>
</g>
<!-- Node2 -->
<g id="node3" class="node"><title>Node2</title>
<a xlink:href="classZendDbSchema__Db__Schema__AbstractSchema.html#aad51a69a1cfd48479c393fcab4f11257" target="_top" xlink:title="ZendDbSchema_Db_Schema_AbstractSchema\\__clone">
<polygon fill="white" stroke="black" points="301.5,-118.5 301.5,-139.5 562.5,-139.5 562.5,-118.5 301.5,-118.5"/>
<text text-anchor="middle" x="432" y="-126.5" font-family="Helvetica,sans-Serif" font-size="10.00">ZendDbSchema_Db_Schema_AbstractSchema\__clone</text>
</a>
</g>
<!-- Node1&#45;&gt;Node2 -->
<g id="edge2" class="edge"><title>Node1&#45;&gt;Node2</title>
<path fill="none" stroke="midnightblue" d="M184.247,-82.7389C215.043,-89.3439 253.514,-97.3896 288,-104 314.291,-109.04 343.368,-114.171 368.471,-118.463"/>
<polygon fill="midnightblue" stroke="midnightblue" points="184.626,-79.2405 174.114,-80.5583 183.154,-86.0839 184.626,-79.2405"/>
</g>
<!-- Node3 -->
<g id="node5" class="node"><title>Node3</title>
<a xlink:href="classZendDbSchema__Db__Schema__AbstractSchema.html#a84673a5d69f10fec5b31294bf53f6d56" target="_top" xlink:title="ZendDbSchema_Db_Schema_AbstractSchema\\refresh">
<polygon fill="white" stroke="black" points="612.5,-59.5 612.5,-80.5 869.5,-80.5 869.5,-59.5 612.5,-59.5"/>
<text text-anchor="middle" x="741" y="-67.5" font-family="Helvetica,sans-Serif" font-size="10.00">ZendDbSchema_Db_Schema_AbstractSchema\refresh</text>
</a>
</g>
<!-- Node1&#45;&gt;Node3 -->
<g id="edge4" class="edge"><title>Node1&#45;&gt;Node3</title>
<path fill="none" stroke="midnightblue" d="M261.668,-70.8991C270.579,-70.9391 279.417,-70.9735 288,-71 415.999,-71.3951 448.001,-71.3879 576,-71 587.745,-70.9644 599.96,-70.9146 612.194,-70.856"/>
<polygon fill="midnightblue" stroke="midnightblue" points="261.602,-67.3989 251.586,-70.8517 261.569,-74.3988 261.602,-67.3989"/>
</g>
<!-- Node6 -->
<g id="node11" class="node"><title>Node6</title>
<a xlink:href="classZendDbSchema__Db__Schema__AbstractSchema.html#acd81590f02c831ff4c4a442c5cf47074" target="_top" xlink:title="ZendDbSchema_Db_Schema_AbstractSchema\\setFromArray">
<polygon fill="white" stroke="black" points="288.5,-40.5 288.5,-61.5 575.5,-61.5 575.5,-40.5 288.5,-40.5"/>
<text text-anchor="middle" x="432" y="-48.5" font-family="Helvetica,sans-Serif" font-size="10.00">ZendDbSchema_Db_Schema_AbstractSchema\setFromArray</text>
</a>
</g>
<!-- Node1&#45;&gt;Node6 -->
<g id="edge10" class="edge"><title>Node1&#45;&gt;Node6</title>
<path fill="none" stroke="midnightblue" d="M261.988,-61.5563C270.713,-61.0145 279.513,-60.4681 288.272,-59.9243"/>
<polygon fill="midnightblue" stroke="midnightblue" points="261.55,-58.0766 251.787,-62.1897 261.984,-65.0632 261.55,-58.0766"/>
</g>
<!-- Node7 -->
<g id="node14" class="node"><title>Node7</title>
<a xlink:href="classZendDbSchema__Db__Schema__AbstractSchema.html#a281403d9e41839e925bade11d8b69b91" target="_top" xlink:title="ZendDbSchema_Db_Schema_AbstractSchema\\setName">
<polygon fill="white" stroke="black" points="298.5,-0.5 298.5,-21.5 565.5,-21.5 565.5,-0.5 298.5,-0.5"/>
<text text-anchor="middle" x="432" y="-8.5" font-family="Helvetica,sans-Serif" font-size="10.00">ZendDbSchema_Db_Schema_AbstractSchema\setName</text>
</a>
</g>
<!-- Node1&#45;&gt;Node7 -->
<g id="edge14" class="edge"><title>Node1&#45;&gt;Node7</title>
<path fill="none" stroke="midnightblue" d="M175.037,-56.8662C207.026,-48.6284 249.785,-38.2357 288,-31 306.724,-27.4549 326.928,-24.2612 346.111,-21.5201"/>
<polygon fill="midnightblue" stroke="midnightblue" points="173.849,-53.5585 165.049,-59.4584 175.608,-60.334 173.849,-53.5585"/>
</g>
<!-- Node4 -->
<g id="node7" class="node"><title>Node4</title>
<a xlink:href="classZendDbSchema__Db__Schema__AbstractSchema.html#a95b8986f7fa3a4e26be024d3a621e4f6" target="_top" xlink:title="ZendDbSchema_Db_Schema_AbstractSchema\\__construct">
<polygon fill="white" stroke="black" points="910,-79.5 910,-100.5 1188,-100.5 1188,-79.5 910,-79.5"/>
<text text-anchor="middle" x="1049" y="-87.5" font-family="Helvetica,sans-Serif" font-size="10.00">ZendDbSchema_Db_Schema_AbstractSchema\__construct</text>
</a>
</g>
<!-- Node3&#45;&gt;Node4 -->
<g id="edge6" class="edge"><title>Node3&#45;&gt;Node4</title>
<path fill="none" stroke="midnightblue" d="M880.078,-79.0311C889.943,-79.6716 899.89,-80.3175 909.756,-80.9582"/>
<polygon fill="midnightblue" stroke="midnightblue" points="880.041,-75.5213 869.835,-78.3659 879.587,-82.5066 880.041,-75.5213"/>
</g>
<!-- Node5 -->
<g id="node9" class="node"><title>Node5</title>
<a xlink:href="classZendDbSchema__Db__Schema__Table__PrimaryKey.html#a8189591ab7ced58307298ecc8f27779d" target="_top" xlink:title="ZendDbSchema_Db_Schema_Table_PrimaryKey\\__construct">
<polygon fill="white" stroke="black" points="906,-39.5 906,-60.5 1192,-60.5 1192,-39.5 906,-39.5"/>
<text text-anchor="middle" x="1049" y="-47.5" font-family="Helvetica,sans-Serif" font-size="10.00">ZendDbSchema_Db_Schema_Table_PrimaryKey\__construct</text>
</a>
</g>
<!-- Node3&#45;&gt;Node5 -->
<g id="edge8" class="edge"><title>Node3&#45;&gt;Node5</title>
<path fill="none" stroke="midnightblue" d="M879.892,-60.9811C888.488,-60.4228 897.149,-59.8605 905.764,-59.301"/>
<polygon fill="midnightblue" stroke="midnightblue" points="879.587,-57.4934 869.835,-61.6341 880.041,-64.4786 879.587,-57.4934"/>
</g>
<!-- Node6&#45;&gt;Node3 -->
<g id="edge12" class="edge"><title>Node6&#45;&gt;Node3</title>
<path fill="none" stroke="midnightblue" d="M585.743,-60.4535C594.694,-61.0039 603.649,-61.5545 612.487,-62.0979"/>
<polygon fill="midnightblue" stroke="midnightblue" points="585.841,-56.9529 575.645,-59.8325 585.411,-63.9397 585.841,-56.9529"/>
</g>
</g>
</svg>
