<?xml version="1.0" encoding="UTF-8" standalone="no"?>
<!DOCTYPE svg PUBLIC "-//W3C//DTD SVG 1.1//EN"
 "http://www.w3.org/Graphics/SVG/1.1/DTD/svg11.dtd">
<!-- Generated by graphviz version 2.26.3 (20100126.1600)
 -->
<!-- Title: G Pages: 1 -->
<svg width="530pt" height="146pt"
 viewBox="0.00 0.00 530.00 146.00" xmlns="http://www.w3.org/2000/svg" xmlns:xlink="http://www.w3.org/1999/xlink">
<g id="graph1" class="graph" transform="scale(1 1) rotate(0) translate(4 142)">
<title>G</title>
<polygon fill="white" stroke="white" points="-4,5 -4,-142 527,-142 527,5 -4,5"/>
<!-- Node1 -->
<g id="node1" class="node"><title>Node1</title>
<polygon fill="#bfbfbf" stroke="black" points="0,-78 0,-112 150,-112 150,-78 0,-78"/>
<text text-anchor="start" x="8" y="-99" font-family="Helvetica,sans-Serif" font-size="10.00">ZendDbSchema_Db_Migration</text>
<text text-anchor="middle" x="75" y="-86" font-family="Helvetica,sans-Serif" font-size="10.00">_Manager\rollup</text>
</g>
<!-- Node2 -->
<g id="node3" class="node"><title>Node2</title>
<a xlink:href="classZendDbSchema__Db__Migration__Manager.html#acb171835d37a1596a4ac6db273bf07ae" target="_top" xlink:title="ZendDbSchema_Db_Migration\l_Manager\\getNext">
<polygon fill="white" stroke="black" points="186,-52 186,-86 336,-86 336,-52 186,-52"/>
<text text-anchor="start" x="194" y="-73" font-family="Helvetica,sans-Serif" font-size="10.00">ZendDbSchema_Db_Migration</text>
<text text-anchor="middle" x="261" y="-60" font-family="Helvetica,sans-Serif" font-size="10.00">_Manager\getNext</text>
</a>
</g>
<!-- Node1&#45;&gt;Node2 -->
<g id="edge2" class="edge"><title>Node1&#45;&gt;Node2</title>
<path fill="none" stroke="midnightblue" d="M150.117,-84.4997C158.596,-83.3146 167.281,-82.1006 175.875,-80.8992"/>
<polygon fill="midnightblue" stroke="midnightblue" points="176.486,-84.348 185.905,-79.4972 175.517,-77.4154 176.486,-84.348"/>
</g>
<!-- Node6 -->
<g id="node11" class="node"><title>Node6</title>
<a xlink:href="classZendDbSchema__Db__Migration__Manager.html#a3d4f62489e72876f97bec3cd4448979d" target="_top" xlink:title="ZendDbSchema_Db_Migration\l_Manager\\getChange">
<polygon fill="white" stroke="black" points="186,-104 186,-138 336,-138 336,-104 186,-104"/>
<text text-anchor="start" x="194" y="-125" font-family="Helvetica,sans-Serif" font-size="10.00">ZendDbSchema_Db_Migration</text>
<text text-anchor="middle" x="261" y="-112" font-family="Helvetica,sans-Serif" font-size="10.00">_Manager\getChange</text>
</a>
</g>
<!-- Node1&#45;&gt;Node6 -->
<g id="edge10" class="edge"><title>Node1&#45;&gt;Node6</title>
<path fill="none" stroke="midnightblue" d="M150.117,-105.5C158.596,-106.685 167.281,-107.899 175.875,-109.101"/>
<polygon fill="midnightblue" stroke="midnightblue" points="175.517,-112.585 185.905,-110.503 176.486,-105.652 175.517,-112.585"/>
</g>
<!-- Node3 -->
<g id="node5" class="node"><title>Node3</title>
<a xlink:href="classZendDbSchema__Db__Migration__Manager.html#ab66af8a9dc5cdb099b8266b68166c4e0" target="_top" xlink:title="ZendDbSchema_Db_Migration\l_Manager\\getVersion">
<polygon fill="white" stroke="black" points="372,-52 372,-86 522,-86 522,-52 372,-52"/>
<text text-anchor="start" x="380" y="-73" font-family="Helvetica,sans-Serif" font-size="10.00">ZendDbSchema_Db_Migration</text>
<text text-anchor="middle" x="447" y="-60" font-family="Helvetica,sans-Serif" font-size="10.00">_Manager\getVersion</text>
</a>
</g>
<!-- Node2&#45;&gt;Node3 -->
<g id="edge4" class="edge"><title>Node2&#45;&gt;Node3</title>
<path fill="none" stroke="midnightblue" d="M336.117,-69C344.596,-69 353.281,-69 361.875,-69"/>
<polygon fill="midnightblue" stroke="midnightblue" points="361.905,-72.5001 371.905,-69 361.905,-65.5001 361.905,-72.5001"/>
</g>
<!-- Node4 -->
<g id="node7" class="node"><title>Node4</title>
<a xlink:href="classZendDbSchema__Db__Migration__Manager.html#a9973d07f9ffe306e00ea2f9f4beb92e4" target="_top" xlink:title="ZendDbSchema_Db_Migration\l_Manager\\hasChange">
<polygon fill="white" stroke="black" points="372,-104 372,-138 522,-138 522,-104 372,-104"/>
<text text-anchor="start" x="380" y="-125" font-family="Helvetica,sans-Serif" font-size="10.00">ZendDbSchema_Db_Migration</text>
<text text-anchor="middle" x="447" y="-112" font-family="Helvetica,sans-Serif" font-size="10.00">_Manager\hasChange</text>
</a>
</g>
<!-- Node2&#45;&gt;Node4 -->
<g id="edge6" class="edge"><title>Node2&#45;&gt;Node4</title>
<path fill="none" stroke="midnightblue" d="M321.903,-86.0267C339.246,-90.8752 358.285,-96.1981 376.165,-101.197"/>
<polygon fill="midnightblue" stroke="midnightblue" points="375.387,-104.613 385.96,-103.935 377.271,-97.8717 375.387,-104.613"/>
</g>
<!-- Node5 -->
<g id="node9" class="node"><title>Node5</title>
<a xlink:href="classZendDbSchema__Db__Migration__Manager.html#a09b440110f77079a37794ccdb0922d41" target="_top" xlink:title="ZendDbSchema_Db_Migration\l_Manager\\getIterator">
<polygon fill="white" stroke="black" points="372,-0 372,-34 522,-34 522,-0 372,-0"/>
<text text-anchor="start" x="380" y="-21" font-family="Helvetica,sans-Serif" font-size="10.00">ZendDbSchema_Db_Migration</text>
<text text-anchor="middle" x="447" y="-8" font-family="Helvetica,sans-Serif" font-size="10.00">_Manager\getIterator</text>
</a>
</g>
<!-- Node2&#45;&gt;Node5 -->
<g id="edge8" class="edge"><title>Node2&#45;&gt;Node5</title>
<path fill="none" stroke="midnightblue" d="M321.903,-51.9733C339.246,-47.1248 358.285,-41.8019 376.165,-36.8035"/>
<polygon fill="midnightblue" stroke="midnightblue" points="377.271,-40.1283 385.96,-34.065 375.387,-33.3868 377.271,-40.1283"/>
</g>
<!-- Node6&#45;&gt;Node3 -->
<g id="edge12" class="edge"><title>Node6&#45;&gt;Node3</title>
<path fill="none" stroke="midnightblue" d="M321.903,-103.973C339.246,-99.1248 358.285,-93.8019 376.165,-88.8035"/>
<polygon fill="midnightblue" stroke="midnightblue" points="377.271,-92.1283 385.96,-86.065 375.387,-85.3868 377.271,-92.1283"/>
</g>
<!-- Node6&#45;&gt;Node4 -->
<g id="edge14" class="edge"><title>Node6&#45;&gt;Node4</title>
<path fill="none" stroke="midnightblue" d="M336.117,-121C344.596,-121 353.281,-121 361.875,-121"/>
<polygon fill="midnightblue" stroke="midnightblue" points="361.905,-124.5 371.905,-121 361.905,-117.5 361.905,-124.5"/>
</g>
</g>
</svg>
