<?xml version="1.0" encoding="UTF-8" standalone="no"?>
<!DOCTYPE svg PUBLIC "-//W3C//DTD SVG 1.1//EN"
 "http://www.w3.org/Graphics/SVG/1.1/DTD/svg11.dtd">
<!-- Generated by graphviz version 2.26.3 (20100126.1600)
 -->
<!-- Title: G Pages: 1 -->
<svg width="1100pt" height="70pt"
 viewBox="0.00 0.00 1100.00 70.00" xmlns="http://www.w3.org/2000/svg" xmlns:xlink="http://www.w3.org/1999/xlink">
<g id="graph1" class="graph" transform="scale(1 1) rotate(0) translate(4 66)">
<title>G</title>
<polygon fill="white" stroke="white" points="-4,5 -4,-66 1097,-66 1097,5 -4,5"/>
<!-- Node1 -->
<g id="node1" class="node"><title>Node1</title>
<polygon fill="#bfbfbf" stroke="black" points="0.5,-20.5 0.5,-41.5 247.5,-41.5 247.5,-20.5 0.5,-20.5"/>
<text text-anchor="middle" x="124" y="-28.5" font-family="Helvetica,sans-Serif" font-size="10.00">ZendDbSchema_Db_Migration_Manager\__construct</text>
</g>
<!-- Node2 -->
<g id="node3" class="node"><title>Node2</title>
<a xlink:href="classZendDbSchema__Db__Migration__Manager.html#a2450580273691865299544ba500e01b2" target="_top" xlink:title="ZendDbSchema_Db_Migration_Manager\\addChange">
<polygon fill="white" stroke="black" points="284.5,-40.5 284.5,-61.5 529.5,-61.5 529.5,-40.5 284.5,-40.5"/>
<text text-anchor="middle" x="407" y="-48.5" font-family="Helvetica,sans-Serif" font-size="10.00">ZendDbSchema_Db_Migration_Manager\addChange</text>
</a>
</g>
<!-- Node1&#45;&gt;Node2 -->
<g id="edge2" class="edge"><title>Node1&#45;&gt;Node2</title>
<path fill="none" stroke="midnightblue" d="M247.716,-39.7432C256.577,-40.3694 265.533,-41.0023 274.441,-41.6319"/>
<polygon fill="midnightblue" stroke="midnightblue" points="274.25,-45.127 284.471,-42.3407 274.743,-38.1444 274.25,-45.127"/>
</g>
<!-- Node5 -->
<g id="node9" class="node"><title>Node5</title>
<a xlink:href="classZendDbSchema__Db__Migration__Manager.html#a0bf69842e44f9aa3a736deb020f0f1fa" target="_top" xlink:title="ZendDbSchema_Db_Migration_Manager\\init">
<polygon fill="white" stroke="black" points="302.5,-0.5 302.5,-21.5 511.5,-21.5 511.5,-0.5 302.5,-0.5"/>
<text text-anchor="middle" x="407" y="-8.5" font-family="Helvetica,sans-Serif" font-size="10.00">ZendDbSchema_Db_Migration_Manager\init</text>
</a>
</g>
<!-- Node1&#45;&gt;Node5 -->
<g id="edge8" class="edge"><title>Node1&#45;&gt;Node5</title>
<path fill="none" stroke="midnightblue" d="M247.716,-22.2568C262.459,-21.2149 277.464,-20.1545 292.077,-19.1218"/>
<polygon fill="midnightblue" stroke="midnightblue" points="292.394,-22.6082 302.122,-18.4118 291.9,-15.6256 292.394,-22.6082"/>
</g>
<!-- Node3 -->
<g id="node5" class="node"><title>Node3</title>
<a xlink:href="classZendDbSchema__Db__Migration__Change.html#abd5253380521e63e91099a6ab3b89387" target="_top" xlink:title="ZendDbSchema_Db_Migration_Change\\fromFile">
<polygon fill="white" stroke="black" points="566.5,-40.5 566.5,-61.5 793.5,-61.5 793.5,-40.5 566.5,-40.5"/>
<text text-anchor="middle" x="680" y="-48.5" font-family="Helvetica,sans-Serif" font-size="10.00">ZendDbSchema_Db_Migration_Change\fromFile</text>
</a>
</g>
<!-- Node2&#45;&gt;Node3 -->
<g id="edge4" class="edge"><title>Node2&#45;&gt;Node3</title>
<path fill="none" stroke="midnightblue" d="M529.525,-51C538.287,-51 547.126,-51 555.897,-51"/>
<polygon fill="midnightblue" stroke="midnightblue" points="556.152,-54.5001 566.152,-51 556.152,-47.5001 556.152,-54.5001"/>
</g>
<!-- Node4 -->
<g id="node7" class="node"><title>Node4</title>
<a xlink:href="classZendDbSchema__Db__Migration__Skeleton.html#a5846d949a449ef981b1c1e1be9eed03a" target="_top" xlink:title="ZendDbSchema_Db_Migration_Skeleton\\getClassName">
<polygon fill="white" stroke="black" points="830,-40.5 830,-61.5 1092,-61.5 1092,-40.5 830,-40.5"/>
<text text-anchor="middle" x="961" y="-48.5" font-family="Helvetica,sans-Serif" font-size="10.00">ZendDbSchema_Db_Migration_Skeleton\getClassName</text>
</a>
</g>
<!-- Node3&#45;&gt;Node4 -->
<g id="edge6" class="edge"><title>Node3&#45;&gt;Node4</title>
<path fill="none" stroke="midnightblue" d="M793.888,-51C802.417,-51 811.082,-51 819.751,-51"/>
<polygon fill="midnightblue" stroke="midnightblue" points="819.921,-54.5001 829.921,-51 819.921,-47.5001 819.921,-54.5001"/>
</g>
</g>
</svg>
