<?xml version="1.0" encoding="UTF-8" standalone="no"?>
<!DOCTYPE svg PUBLIC "-//W3C//DTD SVG 1.1//EN"
 "http://www.w3.org/Graphics/SVG/1.1/DTD/svg11.dtd">
<!-- Generated by graphviz version 2.26.3 (20100126.1600)
 -->
<!-- Title: G Pages: 1 -->
<svg width="1196pt" height="110pt"
 viewBox="0.00 0.00 1196.00 110.00" xmlns="http://www.w3.org/2000/svg" xmlns:xlink="http://www.w3.org/1999/xlink">
<g id="graph1" class="graph" transform="scale(1 1) rotate(0) translate(4 106)">
<title>G</title>
<polygon fill="white" stroke="white" points="-4,5 -4,-106 1193,-106 1193,5 -4,5"/>
<!-- Node1 -->
<g id="node1" class="node"><title>Node1</title>
<polygon fill="#bfbfbf" stroke="black" points="0.5,-40.5 0.5,-61.5 267.5,-61.5 267.5,-40.5 0.5,-40.5"/>
<text text-anchor="middle" x="134" y="-48.5" font-family="Helvetica,sans-Serif" font-size="10.00">ZendDbSchema_Db_Schema_Table_Column\getSchema</text>
</g>
<!-- Node2 -->
<g id="node3" class="node"><title>Node2</title>
<a xlink:href="classZendDbSchema__Db__Schema__AbstractSchema.html#a219012c80be57ace4b1db43a9c48eb3d" target="_top" xlink:title="ZendDbSchema_Db_Schema_AbstractSchema\\getSchema">
<polygon fill="white" stroke="black" points="315.5,-80.5 315.5,-101.5 592.5,-101.5 592.5,-80.5 315.5,-80.5"/>
<text text-anchor="middle" x="454" y="-88.5" font-family="Helvetica,sans-Serif" font-size="10.00">ZendDbSchema_Db_Schema_AbstractSchema\getSchema</text>
</a>
</g>
<!-- Node1&#45;&gt;Node2 -->
<g id="edge2" class="edge"><title>Node1&#45;&gt;Node2</title>
<path fill="none" stroke="midnightblue" d="M218.076,-61.5095C261.632,-66.954 314.959,-73.6199 359.888,-79.236"/>
<polygon fill="midnightblue" stroke="midnightblue" points="359.573,-82.7238 369.93,-80.4913 360.442,-75.7779 359.573,-82.7238"/>
</g>
<!-- Node3 -->
<g id="node5" class="node"><title>Node3</title>
<a xlink:href="classZendDbSchema__Db__Schema__Table__AbstractDefinition.html#a224b6a0c1df1d6ed40e03657782ef6fc" target="_top" xlink:title="ZendDbSchema_Db_Schema_Table_AbstractDefinition\\getTable">
<polygon fill="white" stroke="black" points="304.5,-40.5 304.5,-61.5 603.5,-61.5 603.5,-40.5 304.5,-40.5"/>
<text text-anchor="middle" x="454" y="-48.5" font-family="Helvetica,sans-Serif" font-size="10.00">ZendDbSchema_Db_Schema_Table_AbstractDefinition\getTable</text>
</a>
</g>
<!-- Node1&#45;&gt;Node3 -->
<g id="edge4" class="edge"><title>Node1&#45;&gt;Node3</title>
<path fill="none" stroke="midnightblue" d="M267.855,-51C276.627,-51 285.508,-51 294.387,-51"/>
<polygon fill="midnightblue" stroke="midnightblue" points="294.405,-54.5001 304.405,-51 294.405,-47.5001 294.405,-54.5001"/>
</g>
<!-- Node4 -->
<g id="node7" class="node"><title>Node4</title>
<a xlink:href="classZendDbSchema__Db__Schema__AbstractSchema.html#adacb1417b461310c5c87f72c459c1985" target="_top" xlink:title="ZendDbSchema_Db_Schema_AbstractSchema\\getOriginName">
<polygon fill="white" stroke="black" points="307.5,-0.5 307.5,-21.5 600.5,-21.5 600.5,-0.5 307.5,-0.5"/>
<text text-anchor="middle" x="454" y="-8.5" font-family="Helvetica,sans-Serif" font-size="10.00">ZendDbSchema_Db_Schema_AbstractSchema\getOriginName</text>
</a>
</g>
<!-- Node1&#45;&gt;Node4 -->
<g id="edge6" class="edge"><title>Node1&#45;&gt;Node4</title>
<path fill="none" stroke="midnightblue" d="M218.076,-40.4905C261.632,-35.046 314.959,-28.3801 359.888,-22.764"/>
<polygon fill="midnightblue" stroke="midnightblue" points="360.442,-26.2221 369.93,-21.5087 359.573,-19.2762 360.442,-26.2221"/>
</g>
<!-- Node5 -->
<g id="node9" class="node"><title>Node5</title>
<a xlink:href="classZendDbSchema__Db__Schema__AbstractSchema.html#a54d32c6f15463eaad2321a9f0e7225d7" target="_top" xlink:title="ZendDbSchema_Db_Schema_AbstractSchema\\__get">
<polygon fill="white" stroke="black" points="640.5,-0.5 640.5,-21.5 891.5,-21.5 891.5,-0.5 640.5,-0.5"/>
<text text-anchor="middle" x="766" y="-8.5" font-family="Helvetica,sans-Serif" font-size="10.00">ZendDbSchema_Db_Schema_AbstractSchema\__get</text>
</a>
</g>
<!-- Node4&#45;&gt;Node5 -->
<g id="edge8" class="edge"><title>Node4&#45;&gt;Node5</title>
<path fill="none" stroke="midnightblue" d="M600.864,-11C610.6,-11 620.384,-11 630.063,-11"/>
<polygon fill="midnightblue" stroke="midnightblue" points="630.106,-14.5001 640.106,-11 630.106,-7.5001 630.106,-14.5001"/>
</g>
<!-- Node6 -->
<g id="node11" class="node"><title>Node6</title>
<a xlink:href="classZendDbSchema__Db__Schema__AbstractSchema.html#ac4e121ba7932163eb1950fabe06fb9db" target="_top" xlink:title="ZendDbSchema_Db_Schema_AbstractSchema\\__isset">
<polygon fill="white" stroke="black" points="928.5,-0.5 928.5,-21.5 1187.5,-21.5 1187.5,-0.5 928.5,-0.5"/>
<text text-anchor="middle" x="1058" y="-8.5" font-family="Helvetica,sans-Serif" font-size="10.00">ZendDbSchema_Db_Schema_AbstractSchema\__isset</text>
</a>
</g>
<!-- Node5&#45;&gt;Node6 -->
<g id="edge10" class="edge"><title>Node5&#45;&gt;Node6</title>
<path fill="none" stroke="midnightblue" d="M891.529,-11C900.401,-11 909.376,-11 918.32,-11"/>
<polygon fill="midnightblue" stroke="midnightblue" points="918.397,-14.5001 928.397,-11 918.397,-7.5001 918.397,-14.5001"/>
</g>
</g>
</svg>
