<?xml version="1.0" encoding="UTF-8" standalone="no"?>
<!DOCTYPE svg PUBLIC "-//W3C//DTD SVG 1.1//EN"
 "http://www.w3.org/Graphics/SVG/1.1/DTD/svg11.dtd">
<!-- Generated by graphviz version 2.26.3 (20100126.1600)
 -->
<!-- Title: G Pages: 1 -->
<svg width="1266pt" height="190pt"
 viewBox="0.00 0.00 1266.00 190.00" xmlns="http://www.w3.org/2000/svg" xmlns:xlink="http://www.w3.org/1999/xlink">
<g id="graph1" class="graph" transform="scale(1 1) rotate(0) translate(4 186)">
<title>G</title>
<polygon fill="white" stroke="white" points="-4,5 -4,-186 1263,-186 1263,5 -4,5"/>
<!-- Node1 -->
<g id="node1" class="node"><title>Node1</title>
<polygon fill="#bfbfbf" stroke="black" points="0,-80.5 0,-101.5 250,-101.5 250,-80.5 0,-80.5"/>
<text text-anchor="middle" x="125" y="-88.5" font-family="Helvetica,sans-Serif" font-size="10.00">ZendDbSchema_Db_Schema_AbstractSchema\toSql</text>
</g>
<!-- Node2 -->
<g id="node3" class="node"><title>Node2</title>
<a xlink:href="classZendDbSchema__Db__Schema__AbstractSchema.html#aabe6ffa040ca4515338bed29f72c047f" target="_top" xlink:title="ZendDbSchema_Db_Schema_AbstractSchema\\isValid">
<polygon fill="white" stroke="black" points="302.5,-160.5 302.5,-181.5 559.5,-181.5 559.5,-160.5 302.5,-160.5"/>
<text text-anchor="middle" x="431" y="-168.5" font-family="Helvetica,sans-Serif" font-size="10.00">ZendDbSchema_Db_Schema_AbstractSchema\isValid</text>
</a>
</g>
<!-- Node1&#45;&gt;Node2 -->
<g id="edge2" class="edge"><title>Node1&#45;&gt;Node2</title>
<path fill="none" stroke="midnightblue" d="M148.217,-101.503C179.056,-115.022 235.526,-138.279 286,-151 297.861,-153.989 310.387,-156.562 322.91,-158.768"/>
<polygon fill="midnightblue" stroke="midnightblue" points="322.496,-162.248 332.939,-160.46 323.661,-155.345 322.496,-162.248"/>
</g>
<!-- Node3 -->
<g id="node5" class="node"><title>Node3</title>
<a xlink:href="classZendDbSchema__Db__Schema__AbstractSchema.html#ae859790a91bbcb9c4dc52a6139e5999e" target="_top" xlink:title="ZendDbSchema_Db_Schema_AbstractSchema\\isDirty">
<polygon fill="white" stroke="black" points="303,-80.5 303,-101.5 559,-101.5 559,-80.5 303,-80.5"/>
<text text-anchor="middle" x="431" y="-88.5" font-family="Helvetica,sans-Serif" font-size="10.00">ZendDbSchema_Db_Schema_AbstractSchema\isDirty</text>
</a>
</g>
<!-- Node1&#45;&gt;Node3 -->
<g id="edge4" class="edge"><title>Node1&#45;&gt;Node3</title>
<path fill="none" stroke="midnightblue" d="M250.345,-91C264.29,-91 278.553,-91 292.648,-91"/>
<polygon fill="midnightblue" stroke="midnightblue" points="292.875,-94.5001 302.875,-91 292.875,-87.5001 292.875,-94.5001"/>
</g>
<!-- Node8 -->
<g id="node16" class="node"><title>Node8</title>
<a xlink:href="classZendDbSchema__Db__Schema__AbstractSchema.html#a1680a8fd22360f74d29b641d7257a52f" target="_top" xlink:title="ZendDbSchema_Db_Schema_AbstractSchema\\isExist">
<polygon fill="white" stroke="black" points="302.5,-120.5 302.5,-141.5 559.5,-141.5 559.5,-120.5 302.5,-120.5"/>
<text text-anchor="middle" x="431" y="-128.5" font-family="Helvetica,sans-Serif" font-size="10.00">ZendDbSchema_Db_Schema_AbstractSchema\isExist</text>
</a>
</g>
<!-- Node1&#45;&gt;Node8 -->
<g id="edge16" class="edge"><title>Node1&#45;&gt;Node8</title>
<path fill="none" stroke="midnightblue" d="M205.398,-101.51C246.873,-106.931 297.614,-113.564 340.464,-119.165"/>
<polygon fill="midnightblue" stroke="midnightblue" points="340.239,-122.666 350.608,-120.491 341.146,-115.725 340.239,-122.666"/>
</g>
<!-- Node9 -->
<g id="node19" class="node"><title>Node9</title>
<a xlink:href="classZendDbSchema__Db__Schema__AbstractSchema.html#a2b880c7261b3f4b988f1a2b74e188c75" target="_top" xlink:title="ZendDbSchema_Db_Schema_AbstractSchema\\_getAlterSql">
<polygon fill="white" stroke="black" points="290.5,-40.5 290.5,-61.5 571.5,-61.5 571.5,-40.5 290.5,-40.5"/>
<text text-anchor="middle" x="431" y="-48.5" font-family="Helvetica,sans-Serif" font-size="10.00">ZendDbSchema_Db_Schema_AbstractSchema\_getAlterSql</text>
</a>
</g>
<!-- Node1&#45;&gt;Node9 -->
<g id="edge20" class="edge"><title>Node1&#45;&gt;Node9</title>
<path fill="none" stroke="midnightblue" d="M205.398,-80.4905C246.873,-75.0689 297.614,-68.4361 340.464,-62.8348"/>
<polygon fill="midnightblue" stroke="midnightblue" points="341.146,-66.2754 350.608,-61.5087 340.239,-59.3345 341.146,-66.2754"/>
</g>
<!-- Node10 -->
<g id="node21" class="node"><title>Node10</title>
<a xlink:href="classZendDbSchema__Db__Schema__AbstractSchema.html#a52321b7526257809f382a28a96ab562e" target="_top" xlink:title="ZendDbSchema_Db_Schema_AbstractSchema\\_getCreateSql">
<polygon fill="white" stroke="black" points="286,-0.5 286,-21.5 576,-21.5 576,-0.5 286,-0.5"/>
<text text-anchor="middle" x="431" y="-8.5" font-family="Helvetica,sans-Serif" font-size="10.00">ZendDbSchema_Db_Schema_AbstractSchema\_getCreateSql</text>
</a>
</g>
<!-- Node1&#45;&gt;Node10 -->
<g id="edge22" class="edge"><title>Node1&#45;&gt;Node10</title>
<path fill="none" stroke="midnightblue" d="M148.217,-80.4965C179.056,-66.9779 235.526,-43.7213 286,-31 297.861,-28.0107 310.387,-25.4384 322.91,-23.2321"/>
<polygon fill="midnightblue" stroke="midnightblue" points="323.661,-26.655 332.939,-21.5401 322.496,-19.7525 323.661,-26.655"/>
</g>
<!-- Node4 -->
<g id="node7" class="node"><title>Node4</title>
<a xlink:href="classZendDbSchema__Db__Schema__AbstractSchema.html#a46da7a60c7e5fd605607afbc1dac4baa" target="_top" xlink:title="ZendDbSchema_Db_Schema_AbstractSchema\\getCleanSchema">
<polygon fill="white" stroke="black" points="612,-119.5 612,-140.5 914,-140.5 914,-119.5 612,-119.5"/>
<text text-anchor="middle" x="763" y="-127.5" font-family="Helvetica,sans-Serif" font-size="10.00">ZendDbSchema_Db_Schema_AbstractSchema\getCleanSchema</text>
</a>
</g>
<!-- Node3&#45;&gt;Node4 -->
<g id="edge6" class="edge"><title>Node3&#45;&gt;Node4</title>
<path fill="none" stroke="midnightblue" d="M520.407,-101.503C564.509,-106.683 617.85,-112.949 663.271,-118.285"/>
<polygon fill="midnightblue" stroke="midnightblue" points="663.094,-121.788 673.434,-119.479 663.91,-114.836 663.094,-121.788"/>
</g>
<!-- Node6 -->
<g id="node11" class="node"><title>Node6</title>
<a xlink:href="classZendDbSchema__Db__Schema__AbstractSchema.html#ac4e121ba7932163eb1950fabe06fb9db" target="_top" xlink:title="ZendDbSchema_Db_Schema_AbstractSchema\\__isset">
<polygon fill="white" stroke="black" points="974.5,-60.5 974.5,-81.5 1233.5,-81.5 1233.5,-60.5 974.5,-60.5"/>
<text text-anchor="middle" x="1104" y="-68.5" font-family="Helvetica,sans-Serif" font-size="10.00">ZendDbSchema_Db_Schema_AbstractSchema\__isset</text>
</a>
</g>
<!-- Node3&#45;&gt;Node6 -->
<g id="edge10" class="edge"><title>Node3&#45;&gt;Node6</title>
<path fill="none" stroke="midnightblue" d="M559.17,-87.1911C674.883,-83.7524 844.78,-78.7034 964.009,-75.1602"/>
<polygon fill="midnightblue" stroke="midnightblue" points="964.41,-78.6499 974.302,-74.8543 964.202,-71.653 964.41,-78.6499"/>
</g>
<!-- Node7 -->
<g id="node13" class="node"><title>Node7</title>
<a xlink:href="classZendDbSchema__Db__Schema__AbstractSchema.html#a54d32c6f15463eaad2321a9f0e7225d7" target="_top" xlink:title="ZendDbSchema_Db_Schema_AbstractSchema\\__get">
<polygon fill="white" stroke="black" points="637.5,-41.5 637.5,-62.5 888.5,-62.5 888.5,-41.5 637.5,-41.5"/>
<text text-anchor="middle" x="763" y="-49.5" font-family="Helvetica,sans-Serif" font-size="10.00">ZendDbSchema_Db_Schema_AbstractSchema\__get</text>
</a>
</g>
<!-- Node3&#45;&gt;Node7 -->
<g id="edge12" class="edge"><title>Node3&#45;&gt;Node7</title>
<path fill="none" stroke="midnightblue" d="M520.407,-80.4974C564.509,-75.3167 617.85,-69.0507 663.271,-63.7151"/>
<polygon fill="midnightblue" stroke="midnightblue" points="663.91,-67.1642 673.434,-62.5213 663.094,-60.212 663.91,-67.1642"/>
</g>
<!-- Node5 -->
<g id="node9" class="node"><title>Node5</title>
<a xlink:href="classZendDbSchema__Db__Schema__AbstractSchema.html#af99e5bb9adfe0da8c94d3d3848efe7b5" target="_top" xlink:title="ZendDbSchema_Db_Schema_AbstractSchema\\_getCleanSchema">
<polygon fill="white" stroke="black" points="950,-119.5 950,-140.5 1258,-140.5 1258,-119.5 950,-119.5"/>
<text text-anchor="middle" x="1104" y="-127.5" font-family="Helvetica,sans-Serif" font-size="10.00">ZendDbSchema_Db_Schema_AbstractSchema\_getCleanSchema</text>
</a>
</g>
<!-- Node4&#45;&gt;Node5 -->
<g id="edge8" class="edge"><title>Node4&#45;&gt;Node5</title>
<path fill="none" stroke="midnightblue" d="M914.057,-130C922.572,-130 931.152,-130 939.712,-130"/>
<polygon fill="midnightblue" stroke="midnightblue" points="939.745,-133.5 949.745,-130 939.745,-126.5 939.745,-133.5"/>
</g>
<!-- Node7&#45;&gt;Node6 -->
<g id="edge14" class="edge"><title>Node7&#45;&gt;Node6</title>
<path fill="none" stroke="midnightblue" d="M888.523,-58.994C913.142,-60.3657 939.108,-61.8125 964.161,-63.2084"/>
<polygon fill="midnightblue" stroke="midnightblue" points="964.279,-66.7203 974.458,-63.7821 964.668,-59.7311 964.279,-66.7203"/>
</g>
<!-- Node8&#45;&gt;Node4 -->
<g id="edge18" class="edge"><title>Node8&#45;&gt;Node4</title>
<path fill="none" stroke="midnightblue" d="M559.835,-130.612C573.549,-130.571 587.619,-130.528 601.646,-130.486"/>
<polygon fill="midnightblue" stroke="midnightblue" points="601.856,-133.985 611.845,-130.455 601.835,-126.986 601.856,-133.985"/>
</g>
</g>
</svg>
