<?xml version="1.0" encoding="UTF-8" standalone="no"?>
<!DOCTYPE svg PUBLIC "-//W3C//DTD SVG 1.1//EN"
 "http://www.w3.org/Graphics/SVG/1.1/DTD/svg11.dtd">
<!-- Generated by graphviz version 2.26.3 (20100126.1600)
 -->
<!-- Title: G Pages: 1 -->
<svg width="1222pt" height="110pt"
 viewBox="0.00 0.00 1222.00 110.00" xmlns="http://www.w3.org/2000/svg" xmlns:xlink="http://www.w3.org/1999/xlink">
<g id="graph1" class="graph" transform="scale(1 1) rotate(0) translate(4 106)">
<title>G</title>
<polygon fill="white" stroke="white" points="-4,5 -4,-106 1219,-106 1219,5 -4,5"/>
<!-- Node1 -->
<g id="node1" class="node"><title>Node1</title>
<polygon fill="#bfbfbf" stroke="black" points="0.5,-40.5 0.5,-61.5 269.5,-61.5 269.5,-40.5 0.5,-40.5"/>
<text text-anchor="middle" x="135" y="-48.5" font-family="Helvetica,sans-Serif" font-size="10.00">ZendDbSchema_Db_Schema_AbstractSchema\getParser</text>
</g>
<!-- Node2 -->
<g id="node3" class="node"><title>Node2</title>
<a xlink:href="classZendDbSchema__Db__Schema__AbstractSchema.html#a47d95912f6bf6d26d023597887dafacb" target="_top" xlink:title="ZendDbSchema_Db_Schema_AbstractSchema\\getAdapter">
<polygon fill="white" stroke="black" points="306.5,-40.5 306.5,-61.5 581.5,-61.5 581.5,-40.5 306.5,-40.5"/>
<text text-anchor="middle" x="444" y="-48.5" font-family="Helvetica,sans-Serif" font-size="10.00">ZendDbSchema_Db_Schema_AbstractSchema\getAdapter</text>
</a>
</g>
<!-- Node1&#45;&gt;Node2 -->
<g id="edge2" class="edge"><title>Node1&#45;&gt;Node2</title>
<path fill="none" stroke="midnightblue" d="M269.633,-51C278.495,-51 287.446,-51 296.367,-51"/>
<polygon fill="midnightblue" stroke="midnightblue" points="296.419,-54.5001 306.419,-51 296.419,-47.5001 296.419,-54.5001"/>
</g>
<!-- Node3 -->
<g id="node5" class="node"><title>Node3</title>
<a xlink:href="classZendDbSchema__Db__Schema__AbstractSchema.html#a6349649e5e09d67a5b5e0abe96298db8" target="_top" xlink:title="ZendDbSchema_Db_Schema_AbstractSchema\\setAdapter">
<polygon fill="white" stroke="black" points="618.5,-40.5 618.5,-61.5 893.5,-61.5 893.5,-40.5 618.5,-40.5"/>
<text text-anchor="middle" x="756" y="-48.5" font-family="Helvetica,sans-Serif" font-size="10.00">ZendDbSchema_Db_Schema_AbstractSchema\setAdapter</text>
</a>
</g>
<!-- Node2&#45;&gt;Node3 -->
<g id="edge4" class="edge"><title>Node2&#45;&gt;Node3</title>
<path fill="none" stroke="midnightblue" d="M581.756,-51C590.438,-51 599.197,-51 607.923,-51"/>
<polygon fill="midnightblue" stroke="midnightblue" points="608.145,-54.5001 618.145,-51 608.145,-47.5001 608.145,-54.5001"/>
</g>
<!-- Node4 -->
<g id="node7" class="node"><title>Node4</title>
<a xlink:href="classZendDbSchema__Db__Schema__AbstractSchema.html#a53a1974dbc8822792a8d7b9c618d3a02" target="_top" xlink:title="ZendDbSchema_Db_Schema_AbstractSchema\\setGenerator">
<polygon fill="white" stroke="black" points="930,-80.5 930,-101.5 1214,-101.5 1214,-80.5 930,-80.5"/>
<text text-anchor="middle" x="1072" y="-88.5" font-family="Helvetica,sans-Serif" font-size="10.00">ZendDbSchema_Db_Schema_AbstractSchema\setGenerator</text>
</a>
</g>
<!-- Node3&#45;&gt;Node4 -->
<g id="edge6" class="edge"><title>Node3&#45;&gt;Node4</title>
<path fill="none" stroke="midnightblue" d="M839.025,-61.5095C881.946,-66.9425 934.476,-73.5919 978.785,-79.2006"/>
<polygon fill="midnightblue" stroke="midnightblue" points="978.621,-82.7077 988.981,-80.4913 979.5,-75.7631 978.621,-82.7077"/>
</g>
<!-- Node5 -->
<g id="node9" class="node"><title>Node5</title>
<a xlink:href="classZendDbSchema__Db__Schema__AbstractSchema.html#aa0e6c9f8d58702dc41d988f064f62698" target="_top" xlink:title="ZendDbSchema_Db_Schema_AbstractSchema\\setParser">
<polygon fill="white" stroke="black" points="937.5,-40.5 937.5,-61.5 1206.5,-61.5 1206.5,-40.5 937.5,-40.5"/>
<text text-anchor="middle" x="1072" y="-48.5" font-family="Helvetica,sans-Serif" font-size="10.00">ZendDbSchema_Db_Schema_AbstractSchema\setParser</text>
</a>
</g>
<!-- Node3&#45;&gt;Node5 -->
<g id="edge8" class="edge"><title>Node3&#45;&gt;Node5</title>
<path fill="none" stroke="midnightblue" d="M893.683,-51C904.761,-51 915.975,-51 927.102,-51"/>
<polygon fill="midnightblue" stroke="midnightblue" points="927.289,-54.5001 937.289,-51 927.289,-47.5001 927.289,-54.5001"/>
</g>
<!-- Node6 -->
<g id="node11" class="node"><title>Node6</title>
<a xlink:href="classZendDbSchema__Db__Schema__AbstractSchema.html#ac0161e2c24dafba8433fb86205a147fe" target="_top" xlink:title="ZendDbSchema_Db_Schema_AbstractSchema\\setValidator">
<polygon fill="white" stroke="black" points="932.5,-0.5 932.5,-21.5 1211.5,-21.5 1211.5,-0.5 932.5,-0.5"/>
<text text-anchor="middle" x="1072" y="-8.5" font-family="Helvetica,sans-Serif" font-size="10.00">ZendDbSchema_Db_Schema_AbstractSchema\setValidator</text>
</a>
</g>
<!-- Node3&#45;&gt;Node6 -->
<g id="edge10" class="edge"><title>Node3&#45;&gt;Node6</title>
<path fill="none" stroke="midnightblue" d="M839.025,-40.4905C881.946,-35.0575 934.476,-28.4081 978.785,-22.7994"/>
<polygon fill="midnightblue" stroke="midnightblue" points="979.5,-26.2369 988.981,-21.5087 978.621,-19.2923 979.5,-26.2369"/>
</g>
</g>
</svg>
