<?xml version="1.0" encoding="UTF-8" standalone="no"?>
<!DOCTYPE svg PUBLIC "-//W3C//DTD SVG 1.1//EN"
 "http://www.w3.org/Graphics/SVG/1.1/DTD/svg11.dtd">
<!-- Generated by graphviz version 2.26.3 (20100126.1600)
 -->
<!-- Title: G Pages: 1 -->
<svg width="630pt" height="70pt"
 viewBox="0.00 0.00 630.00 70.00" xmlns="http://www.w3.org/2000/svg" xmlns:xlink="http://www.w3.org/1999/xlink">
<g id="graph1" class="graph" transform="scale(1 1) rotate(0) translate(4 66)">
<title>G</title>
<polygon fill="white" stroke="white" points="-4,5 -4,-66 627,-66 627,5 -4,5"/>
<!-- Node1 -->
<g id="node1" class="node"><title>Node1</title>
<polygon fill="#bfbfbf" stroke="black" points="0,-20.5 0,-41.5 284,-41.5 284,-20.5 0,-20.5"/>
<text text-anchor="middle" x="142" y="-28.5" font-family="Helvetica,sans-Serif" font-size="10.00">ZendDbSchema_Db_Schema_Table_PrimaryKey\hasColumn</text>
</g>
<!-- Node2 -->
<g id="node3" class="node"><title>Node2</title>
<a xlink:href="classZendDbSchema__Db__Schema__Table__PrimaryKey.html#a0b84ee828c689a3da5790e123583f691" target="_top" xlink:title="ZendDbSchema_Db_Schema_Table_PrimaryKey\\addColumn">
<polygon fill="white" stroke="black" points="329,-40.5 329,-61.5 613,-61.5 613,-40.5 329,-40.5"/>
<text text-anchor="middle" x="471" y="-48.5" font-family="Helvetica,sans-Serif" font-size="10.00">ZendDbSchema_Db_Schema_Table_PrimaryKey\addColumn</text>
</a>
</g>
<!-- Node1&#45;&gt;Node2 -->
<g id="edge2" class="edge"><title>Node1&#45;&gt;Node2</title>
<path fill="none" stroke="midnightblue" d="M294.455,-40.2678C305.938,-40.9658 317.499,-41.6686 328.914,-42.3625"/>
<polygon fill="midnightblue" stroke="midnightblue" points="294.585,-36.7693 284.391,-39.656 294.16,-43.7564 294.585,-36.7693"/>
</g>
<!-- Node3 -->
<g id="node5" class="node"><title>Node3</title>
<a xlink:href="classZendDbSchema__Db__Schema__Table__PrimaryKey.html#a6deb586d1cc0935f5c0d50afa47667de" target="_top" xlink:title="ZendDbSchema_Db_Schema_Table_PrimaryKey\\removeColumn">
<polygon fill="white" stroke="black" points="320.5,-0.5 320.5,-21.5 621.5,-21.5 621.5,-0.5 320.5,-0.5"/>
<text text-anchor="middle" x="471" y="-8.5" font-family="Helvetica,sans-Serif" font-size="10.00">ZendDbSchema_Db_Schema_Table_PrimaryKey\removeColumn</text>
</a>
</g>
<!-- Node1&#45;&gt;Node3 -->
<g id="edge4" class="edge"><title>Node1&#45;&gt;Node3</title>
<path fill="none" stroke="midnightblue" d="M294.46,-21.7319C303.059,-21.2092 311.702,-20.6838 320.295,-20.1614"/>
<polygon fill="midnightblue" stroke="midnightblue" points="294.16,-18.2436 284.391,-22.344 294.585,-25.2307 294.16,-18.2436"/>
</g>
</g>
</svg>
