<?xml version="1.0" encoding="UTF-8" standalone="no"?>
<!DOCTYPE svg PUBLIC "-//W3C//DTD SVG 1.1//EN"
 "http://www.w3.org/Graphics/SVG/1.1/DTD/svg11.dtd">
<!-- Generated by graphviz version 2.26.3 (20100126.1600)
 -->
<!-- Title: G Pages: 1 -->
<svg width="1906pt" height="265pt"
 viewBox="0.00 0.00 1906.00 265.00" xmlns="http://www.w3.org/2000/svg" xmlns:xlink="http://www.w3.org/1999/xlink">
<g id="graph1" class="graph" transform="scale(1 1) rotate(0) translate(4 261)">
<title>G</title>
<polygon fill="white" stroke="white" points="-4,5 -4,-261 1903,-261 1903,5 -4,5"/>
<!-- Node1 -->
<g id="node1" class="node"><title>Node1</title>
<polygon fill="#bfbfbf" stroke="black" points="0.5,-175.5 0.5,-196.5 297.5,-196.5 297.5,-175.5 0.5,-175.5"/>
<text text-anchor="middle" x="149" y="-183.5" font-family="Helvetica,sans-Serif" font-size="10.00">ZendDbSchema_Db_Schema_Generator_Mysql\alterForeignKey</text>
</g>
<!-- Node2 -->
<g id="node3" class="node"><title>Node2</title>
<a xlink:href="classZendDbSchema__Db__Schema__AbstractSchema.html#a1680a8fd22360f74d29b641d7257a52f" target="_top" xlink:title="ZendDbSchema_Db_Schema_AbstractSchema\\isExist">
<polygon fill="white" stroke="black" points="354.5,-225.5 354.5,-246.5 611.5,-246.5 611.5,-225.5 354.5,-225.5"/>
<text text-anchor="middle" x="483" y="-233.5" font-family="Helvetica,sans-Serif" font-size="10.00">ZendDbSchema_Db_Schema_AbstractSchema\isExist</text>
</a>
</g>
<!-- Node1&#45;&gt;Node2 -->
<g id="edge2" class="edge"><title>Node1&#45;&gt;Node2</title>
<path fill="none" stroke="midnightblue" d="M219.425,-196.543C272.937,-204.553 346.606,-215.582 402.459,-223.943"/>
<polygon fill="midnightblue" stroke="midnightblue" points="402.264,-227.453 412.672,-225.472 403.3,-220.53 402.264,-227.453"/>
</g>
<!-- Node5 -->
<g id="node9" class="node"><title>Node5</title>
<a xlink:href="classZendDbSchema__Db__Schema__Generator__Mysql.html#afa7990c889464576d30d4a110e9b0fac" target="_top" xlink:title="ZendDbSchema_Db_Schema_Generator_Mysql\\dropForeignKey">
<polygon fill="white" stroke="black" points="334.5,-175.5 334.5,-196.5 631.5,-196.5 631.5,-175.5 334.5,-175.5"/>
<text text-anchor="middle" x="483" y="-183.5" font-family="Helvetica,sans-Serif" font-size="10.00">ZendDbSchema_Db_Schema_Generator_Mysql\dropForeignKey</text>
</a>
</g>
<!-- Node1&#45;&gt;Node5 -->
<g id="edge8" class="edge"><title>Node1&#45;&gt;Node5</title>
<path fill="none" stroke="midnightblue" d="M297.929,-186C306.619,-186 315.375,-186 324.101,-186"/>
<polygon fill="midnightblue" stroke="midnightblue" points="324.325,-189.5 334.325,-186 324.325,-182.5 324.325,-189.5"/>
</g>
<!-- Node11 -->
<g id="node21" class="node"><title>Node11</title>
<a xlink:href="classZendDbSchema__Db__Schema__Generator__Mysql.html#a4b0c6d7fbd4d21f027facb6e495d1f6b" target="_top" xlink:title="ZendDbSchema_Db_Schema_Generator_Mysql\\addForeignKey">
<polygon fill="white" stroke="black" points="336,-116.5 336,-137.5 630,-137.5 630,-116.5 336,-116.5"/>
<text text-anchor="middle" x="483" y="-124.5" font-family="Helvetica,sans-Serif" font-size="10.00">ZendDbSchema_Db_Schema_Generator_Mysql\addForeignKey</text>
</a>
</g>
<!-- Node1&#45;&gt;Node11 -->
<g id="edge20" class="edge"><title>Node1&#45;&gt;Node11</title>
<path fill="none" stroke="midnightblue" d="M208.713,-175.452C266.212,-165.295 353.139,-149.94 413.669,-139.247"/>
<polygon fill="midnightblue" stroke="midnightblue" points="414.285,-142.693 423.524,-137.506 413.067,-135.799 414.285,-142.693"/>
</g>
<!-- Node3 -->
<g id="node5" class="node"><title>Node3</title>
<a xlink:href="classZendDbSchema__Db__Schema__AbstractSchema.html#a46da7a60c7e5fd605607afbc1dac4baa" target="_top" xlink:title="ZendDbSchema_Db_Schema_AbstractSchema\\getCleanSchema">
<polygon fill="white" stroke="black" points="668,-235.5 668,-256.5 970,-256.5 970,-235.5 668,-235.5"/>
<text text-anchor="middle" x="819" y="-243.5" font-family="Helvetica,sans-Serif" font-size="10.00">ZendDbSchema_Db_Schema_AbstractSchema\getCleanSchema</text>
</a>
</g>
<!-- Node2&#45;&gt;Node3 -->
<g id="edge4" class="edge"><title>Node2&#45;&gt;Node3</title>
<path fill="none" stroke="midnightblue" d="M611.945,-239.838C626.975,-240.285 642.446,-240.745 657.84,-241.204"/>
<polygon fill="midnightblue" stroke="midnightblue" points="657.84,-244.705 667.939,-241.504 658.048,-237.708 657.84,-244.705"/>
</g>
<!-- Node4 -->
<g id="node7" class="node"><title>Node4</title>
<a xlink:href="classZendDbSchema__Db__Schema__AbstractSchema.html#af99e5bb9adfe0da8c94d3d3848efe7b5" target="_top" xlink:title="ZendDbSchema_Db_Schema_AbstractSchema\\_getCleanSchema">
<polygon fill="white" stroke="black" points="1006,-235.5 1006,-256.5 1314,-256.5 1314,-235.5 1006,-235.5"/>
<text text-anchor="middle" x="1160" y="-243.5" font-family="Helvetica,sans-Serif" font-size="10.00">ZendDbSchema_Db_Schema_AbstractSchema\_getCleanSchema</text>
</a>
</g>
<!-- Node3&#45;&gt;Node4 -->
<g id="edge6" class="edge"><title>Node3&#45;&gt;Node4</title>
<path fill="none" stroke="midnightblue" d="M970.057,-246C978.572,-246 987.152,-246 995.712,-246"/>
<polygon fill="midnightblue" stroke="midnightblue" points="995.745,-249.5 1005.74,-246 995.745,-242.5 995.745,-249.5"/>
</g>
<!-- Node6 -->
<g id="node11" class="node"><title>Node6</title>
<a xlink:href="classZendDbSchema__Db__Schema__Table__AbstractDefinition.html#a224b6a0c1df1d6ed40e03657782ef6fc" target="_top" xlink:title="ZendDbSchema_Db_Schema_Table_AbstractDefinition\\getTable">
<polygon fill="white" stroke="black" points="669.5,-195.5 669.5,-216.5 968.5,-216.5 968.5,-195.5 669.5,-195.5"/>
<text text-anchor="middle" x="819" y="-203.5" font-family="Helvetica,sans-Serif" font-size="10.00">ZendDbSchema_Db_Schema_Table_AbstractDefinition\getTable</text>
</a>
</g>
<!-- Node5&#45;&gt;Node6 -->
<g id="edge10" class="edge"><title>Node5&#45;&gt;Node6</title>
<path fill="none" stroke="midnightblue" d="M631.842,-194.86C640.897,-195.399 650.027,-195.942 659.126,-196.484"/>
<polygon fill="midnightblue" stroke="midnightblue" points="659.189,-199.994 669.379,-197.094 659.605,-193.006 659.189,-199.994"/>
</g>
<!-- Node7 -->
<g id="node13" class="node"><title>Node7</title>
<a xlink:href="classZendDbSchema__Db__Schema__AbstractSchema.html#adacb1417b461310c5c87f72c459c1985" target="_top" xlink:title="ZendDbSchema_Db_Schema_AbstractSchema\\getOriginName">
<polygon fill="white" stroke="black" points="672.5,-155.5 672.5,-176.5 965.5,-176.5 965.5,-155.5 672.5,-155.5"/>
<text text-anchor="middle" x="819" y="-163.5" font-family="Helvetica,sans-Serif" font-size="10.00">ZendDbSchema_Db_Schema_AbstractSchema\getOriginName</text>
</a>
</g>
<!-- Node5&#45;&gt;Node7 -->
<g id="edge12" class="edge"><title>Node5&#45;&gt;Node7</title>
<path fill="none" stroke="midnightblue" d="M631.842,-177.14C641.913,-176.541 652.078,-175.936 662.188,-175.334"/>
<polygon fill="midnightblue" stroke="midnightblue" points="662.5,-178.822 672.274,-174.734 662.084,-171.834 662.5,-178.822"/>
</g>
<!-- Node8 -->
<g id="node15" class="node"><title>Node8</title>
<a xlink:href="classZendDbSchema__Db__Schema__AbstractSchema.html#a55787c21deddba427842809d589c2df6" target="_top" xlink:title="ZendDbSchema_Db_Schema_AbstractSchema\\getName">
<polygon fill="white" stroke="black" points="1026.5,-158.5 1026.5,-179.5 1293.5,-179.5 1293.5,-158.5 1026.5,-158.5"/>
<text text-anchor="middle" x="1160" y="-166.5" font-family="Helvetica,sans-Serif" font-size="10.00">ZendDbSchema_Db_Schema_AbstractSchema\getName</text>
</a>
</g>
<!-- Node7&#45;&gt;Node8 -->
<g id="edge14" class="edge"><title>Node7&#45;&gt;Node8</title>
<path fill="none" stroke="midnightblue" d="M965.594,-167.29C982.336,-167.437 999.393,-167.587 1016.1,-167.734"/>
<polygon fill="midnightblue" stroke="midnightblue" points="1016.42,-171.237 1026.45,-167.825 1016.48,-164.237 1016.42,-171.237"/>
</g>
<!-- Node9 -->
<g id="node17" class="node"><title>Node9</title>
<a xlink:href="classZendDbSchema__Db__Schema__AbstractSchema.html#a54d32c6f15463eaad2321a9f0e7225d7" target="_top" xlink:title="ZendDbSchema_Db_Schema_AbstractSchema\\__get">
<polygon fill="white" stroke="black" points="1350.5,-78.5 1350.5,-99.5 1601.5,-99.5 1601.5,-78.5 1350.5,-78.5"/>
<text text-anchor="middle" x="1476" y="-86.5" font-family="Helvetica,sans-Serif" font-size="10.00">ZendDbSchema_Db_Schema_AbstractSchema\__get</text>
</a>
</g>
<!-- Node8&#45;&gt;Node9 -->
<g id="edge16" class="edge"><title>Node8&#45;&gt;Node9</title>
<path fill="none" stroke="midnightblue" d="M1265.79,-158.467C1282.05,-155.927 1298.56,-152.811 1314,-149 1360.05,-137.637 1411.02,-117.417 1443.27,-103.618"/>
<polygon fill="midnightblue" stroke="midnightblue" points="1444.86,-106.743 1452.65,-99.5591 1442.08,-100.319 1444.86,-106.743"/>
</g>
<!-- Node10 -->
<g id="node19" class="node"><title>Node10</title>
<a xlink:href="classZendDbSchema__Db__Schema__AbstractSchema.html#ac4e121ba7932163eb1950fabe06fb9db" target="_top" xlink:title="ZendDbSchema_Db_Schema_AbstractSchema\\__isset">
<polygon fill="white" stroke="black" points="1638.5,-78.5 1638.5,-99.5 1897.5,-99.5 1897.5,-78.5 1638.5,-78.5"/>
<text text-anchor="middle" x="1768" y="-86.5" font-family="Helvetica,sans-Serif" font-size="10.00">ZendDbSchema_Db_Schema_AbstractSchema\__isset</text>
</a>
</g>
<!-- Node9&#45;&gt;Node10 -->
<g id="edge18" class="edge"><title>Node9&#45;&gt;Node10</title>
<path fill="none" stroke="midnightblue" d="M1601.53,-89C1610.4,-89 1619.38,-89 1628.32,-89"/>
<polygon fill="midnightblue" stroke="midnightblue" points="1628.4,-92.5001 1638.4,-89 1628.4,-85.5001 1628.4,-92.5001"/>
</g>
<!-- Node11&#45;&gt;Node6 -->
<g id="edge40" class="edge"><title>Node11&#45;&gt;Node6</title>
<path fill="none" stroke="midnightblue" d="M536.447,-137.566C565.307,-144.118 601.227,-153.654 632,-166 648.987,-172.815 650.622,-180.253 668,-186 676.574,-188.835 685.547,-191.27 694.66,-193.361"/>
<polygon fill="midnightblue" stroke="midnightblue" points="694.08,-196.816 704.592,-195.497 695.552,-189.973 694.08,-196.816"/>
</g>
<!-- Node11&#45;&gt;Node7 -->
<g id="edge22" class="edge"><title>Node11&#45;&gt;Node7</title>
<path fill="none" stroke="midnightblue" d="M573.484,-137.503C618.212,-142.694 672.328,-148.976 718.359,-154.319"/>
<polygon fill="midnightblue" stroke="midnightblue" points="718.018,-157.802 728.355,-155.479 718.825,-150.849 718.018,-157.802"/>
</g>
<!-- Node12 -->
<g id="node24" class="node"><title>Node12</title>
<a xlink:href="classZendDbSchema__Db__Schema__Table__ForeignKey.html#a5cd45e4bc92ac5975975753e459b4c8c" target="_top" xlink:title="ZendDbSchema_Db_Schema_Table_ForeignKey\\getColumns">
<polygon fill="white" stroke="black" points="1017,-118.5 1017,-139.5 1303,-139.5 1303,-118.5 1017,-118.5"/>
<text text-anchor="middle" x="1160" y="-126.5" font-family="Helvetica,sans-Serif" font-size="10.00">ZendDbSchema_Db_Schema_Table_ForeignKey\getColumns</text>
</a>
</g>
<!-- Node11&#45;&gt;Node12 -->
<g id="edge24" class="edge"><title>Node11&#45;&gt;Node12</title>
<path fill="none" stroke="midnightblue" d="M630.316,-127.435C741.608,-127.764 893.924,-128.214 1006.66,-128.547"/>
<polygon fill="midnightblue" stroke="midnightblue" points="1006.75,-132.047 1016.76,-128.577 1006.77,-125.047 1006.75,-132.047"/>
</g>
<!-- Node13 -->
<g id="node27" class="node"><title>Node13</title>
<a xlink:href="classZendDbSchema__Db__Schema__Table__ForeignKey.html#a39c9a3febcb98b77692566eed81220c7" target="_top" xlink:title="ZendDbSchema_Db_Schema_Table_ForeignKey\\getReferences">
<polygon fill="white" stroke="black" points="1011.5,-78.5 1011.5,-99.5 1308.5,-99.5 1308.5,-78.5 1011.5,-78.5"/>
<text text-anchor="middle" x="1160" y="-86.5" font-family="Helvetica,sans-Serif" font-size="10.00">ZendDbSchema_Db_Schema_Table_ForeignKey\getReferences</text>
</a>
</g>
<!-- Node11&#45;&gt;Node13 -->
<g id="edge28" class="edge"><title>Node11&#45;&gt;Node13</title>
<path fill="none" stroke="midnightblue" d="M630.316,-118.731C739.815,-112.585 889.026,-104.21 1001.18,-97.9146"/>
<polygon fill="midnightblue" stroke="midnightblue" points="1001.44,-101.405 1011.23,-97.3504 1001.05,-94.4164 1001.44,-101.405"/>
</g>
<!-- Node14 -->
<g id="node30" class="node"><title>Node14</title>
<a xlink:href="classZendDbSchema__Db__Schema__Table__ForeignKey.html#a83644a5b874f111e17dbf08ffa3ea803" target="_top" xlink:title="ZendDbSchema_Db_Schema_Table_ForeignKey\\getOnDelete">
<polygon fill="white" stroke="black" points="1016,-38.5 1016,-59.5 1304,-59.5 1304,-38.5 1016,-38.5"/>
<text text-anchor="middle" x="1160" y="-46.5" font-family="Helvetica,sans-Serif" font-size="10.00">ZendDbSchema_Db_Schema_Table_ForeignKey\getOnDelete</text>
</a>
</g>
<!-- Node11&#45;&gt;Node14 -->
<g id="edge32" class="edge"><title>Node11&#45;&gt;Node14</title>
<path fill="none" stroke="midnightblue" d="M539.522,-116.462C576.074,-109.912 624.734,-101.684 668,-96 783.458,-80.8311 914.772,-68.5363 1012.68,-60.3314"/>
<polygon fill="midnightblue" stroke="midnightblue" points="1012.97,-63.8193 1022.65,-59.5006 1012.39,-56.8434 1012.97,-63.8193"/>
</g>
<!-- Node15 -->
<g id="node33" class="node"><title>Node15</title>
<a xlink:href="classZendDbSchema__Db__Schema__Table__ForeignKey.html#afb55f45baab8357ce8c295e4d71bf700" target="_top" xlink:title="ZendDbSchema_Db_Schema_Table_ForeignKey\\getOnUpdate">
<polygon fill="white" stroke="black" points="673.5,-0.5 673.5,-21.5 964.5,-21.5 964.5,-0.5 673.5,-0.5"/>
<text text-anchor="middle" x="819" y="-8.5" font-family="Helvetica,sans-Serif" font-size="10.00">ZendDbSchema_Db_Schema_Table_ForeignKey\getOnUpdate</text>
</a>
</g>
<!-- Node11&#45;&gt;Node15 -->
<g id="edge36" class="edge"><title>Node11&#45;&gt;Node15</title>
<path fill="none" stroke="midnightblue" d="M500.416,-116.437C532.416,-97.5131 603.236,-57.8631 668,-37 685.492,-31.3651 704.539,-26.8781 723.029,-23.3297"/>
<polygon fill="midnightblue" stroke="midnightblue" points="723.731,-26.7593 732.932,-21.5062 722.464,-19.8751 723.731,-26.7593"/>
</g>
<!-- Node12&#45;&gt;Node9 -->
<g id="edge26" class="edge"><title>Node12&#45;&gt;Node9</title>
<path fill="none" stroke="midnightblue" d="M1243.03,-118.49C1285.95,-113.057 1338.48,-106.408 1382.78,-100.799"/>
<polygon fill="midnightblue" stroke="midnightblue" points="1383.5,-104.237 1392.98,-99.5087 1382.62,-97.2923 1383.5,-104.237"/>
</g>
<!-- Node13&#45;&gt;Node9 -->
<g id="edge30" class="edge"><title>Node13&#45;&gt;Node9</title>
<path fill="none" stroke="midnightblue" d="M1308.75,-89C1319.19,-89 1329.69,-89 1340.06,-89"/>
<polygon fill="midnightblue" stroke="midnightblue" points="1340.38,-92.5001 1350.38,-89 1340.38,-85.5001 1340.38,-92.5001"/>
</g>
<!-- Node14&#45;&gt;Node9 -->
<g id="edge34" class="edge"><title>Node14&#45;&gt;Node9</title>
<path fill="none" stroke="midnightblue" d="M1243.03,-59.5095C1285.95,-64.9425 1338.48,-71.5919 1382.78,-77.2006"/>
<polygon fill="midnightblue" stroke="midnightblue" points="1382.62,-80.7077 1392.98,-78.4913 1383.5,-73.7631 1382.62,-80.7077"/>
</g>
<!-- Node15&#45;&gt;Node9 -->
<g id="edge38" class="edge"><title>Node15&#45;&gt;Node9</title>
<path fill="none" stroke="midnightblue" d="M964.71,-4.22851C1064.06,-2.54613 1198.12,-6.04842 1314,-29 1361.33,-38.3732 1413.14,-59.6569 1445.12,-74.1822"/>
<polygon fill="midnightblue" stroke="midnightblue" points="1443.83,-77.4429 1454.37,-78.4524 1446.76,-71.0863 1443.83,-77.4429"/>
</g>
</g>
</svg>
