<?xml version="1.0" encoding="UTF-8" standalone="no"?>
<!DOCTYPE svg PUBLIC "-//W3C//DTD SVG 1.1//EN"
 "http://www.w3.org/Graphics/SVG/1.1/DTD/svg11.dtd">
<!-- Generated by graphviz version 2.26.3 (20100126.1600)
 -->
<!-- Title: G Pages: 1 -->
<svg width="1856pt" height="129pt"
 viewBox="0.00 0.00 1856.00 129.00" xmlns="http://www.w3.org/2000/svg" xmlns:xlink="http://www.w3.org/1999/xlink">
<g id="graph1" class="graph" transform="scale(1 1) rotate(0) translate(4 125)">
<title>G</title>
<polygon fill="white" stroke="white" points="-4,5 -4,-125 1853,-125 1853,5 -4,5"/>
<!-- Node1 -->
<g id="node1" class="node"><title>Node1</title>
<polygon fill="#bfbfbf" stroke="black" points="0.5,-80.5 0.5,-101.5 299.5,-101.5 299.5,-80.5 0.5,-80.5"/>
<text text-anchor="middle" x="150" y="-88.5" font-family="Helvetica,sans-Serif" font-size="10.00">ZendDbSchema_Db_Schema_Table_ForeignKey\hasRefColumn</text>
</g>
<!-- Node2 -->
<g id="node3" class="node"><title>Node2</title>
<a xlink:href="classZendDbSchema__Db__Schema__AbstractSchema.html#ac4e121ba7932163eb1950fabe06fb9db" target="_top" xlink:title="ZendDbSchema_Db_Schema_AbstractSchema\\__isset">
<polygon fill="white" stroke="black" points="634.5,-99.5 634.5,-120.5 893.5,-120.5 893.5,-99.5 634.5,-99.5"/>
<text text-anchor="middle" x="764" y="-107.5" font-family="Helvetica,sans-Serif" font-size="10.00">ZendDbSchema_Db_Schema_AbstractSchema\__isset</text>
</a>
</g>
<!-- Node1&#45;&gt;Node2 -->
<g id="edge2" class="edge"><title>Node1&#45;&gt;Node2</title>
<path fill="none" stroke="midnightblue" d="M230.415,-101.548C263.112,-105.341 301.299,-109.14 336,-111 447.839,-116.996 476,-111.318 588,-111 599.697,-110.967 611.832,-110.921 624.011,-110.867"/>
<polygon fill="midnightblue" stroke="midnightblue" points="624.26,-114.366 634.244,-110.821 624.228,-107.367 624.26,-114.366"/>
</g>
<!-- Node3 -->
<g id="node5" class="node"><title>Node3</title>
<a xlink:href="classZendDbSchema__Db__Schema__AbstractSchema.html#ab4282a1fd6f4d9f23d01de8328072c71" target="_top" xlink:title="ZendDbSchema_Db_Schema_AbstractSchema\\__set">
<polygon fill="white" stroke="black" points="336.5,-40.5 336.5,-61.5 587.5,-61.5 587.5,-40.5 336.5,-40.5"/>
<text text-anchor="middle" x="462" y="-48.5" font-family="Helvetica,sans-Serif" font-size="10.00">ZendDbSchema_Db_Schema_AbstractSchema\__set</text>
</a>
</g>
<!-- Node1&#45;&gt;Node3 -->
<g id="edge4" class="edge"><title>Node1&#45;&gt;Node3</title>
<path fill="none" stroke="midnightblue" d="M231.974,-80.4905C274.352,-75.0575 326.217,-68.4081 369.965,-62.7994"/>
<polygon fill="midnightblue" stroke="midnightblue" points="370.558,-66.252 380.032,-61.5087 369.668,-59.3089 370.558,-66.252"/>
</g>
<!-- Node10 -->
<g id="node19" class="node"><title>Node10</title>
<a xlink:href="classZendDbSchema__Db__Schema__AbstractSchema.html#a54d32c6f15463eaad2321a9f0e7225d7" target="_top" xlink:title="ZendDbSchema_Db_Schema_AbstractSchema\\__get">
<polygon fill="white" stroke="black" points="336.5,-80.5 336.5,-101.5 587.5,-101.5 587.5,-80.5 336.5,-80.5"/>
<text text-anchor="middle" x="462" y="-88.5" font-family="Helvetica,sans-Serif" font-size="10.00">ZendDbSchema_Db_Schema_AbstractSchema\__get</text>
</a>
</g>
<!-- Node1&#45;&gt;Node10 -->
<g id="edge18" class="edge"><title>Node1&#45;&gt;Node10</title>
<path fill="none" stroke="midnightblue" d="M299.603,-91C308.371,-91 317.166,-91 325.876,-91"/>
<polygon fill="midnightblue" stroke="midnightblue" points="326.057,-94.5001 336.057,-91 326.057,-87.5001 326.057,-94.5001"/>
</g>
<!-- Node4 -->
<g id="node7" class="node"><title>Node4</title>
<a xlink:href="classZendDbSchema__Db__Schema__AbstractSchema.html#afda46eab0c365f4c9a743b7185c51d6c" target="_top" xlink:title="ZendDbSchema_Db_Schema_AbstractSchema\\getValidator">
<polygon fill="white" stroke="black" points="624.5,-40.5 624.5,-61.5 903.5,-61.5 903.5,-40.5 624.5,-40.5"/>
<text text-anchor="middle" x="764" y="-48.5" font-family="Helvetica,sans-Serif" font-size="10.00">ZendDbSchema_Db_Schema_AbstractSchema\getValidator</text>
</a>
</g>
<!-- Node3&#45;&gt;Node4 -->
<g id="edge6" class="edge"><title>Node3&#45;&gt;Node4</title>
<path fill="none" stroke="midnightblue" d="M587.888,-51C596.497,-51 605.217,-51 613.933,-51"/>
<polygon fill="midnightblue" stroke="midnightblue" points="614.156,-54.5001 624.156,-51 614.156,-47.5001 614.156,-54.5001"/>
</g>
<!-- Node5 -->
<g id="node9" class="node"><title>Node5</title>
<a xlink:href="classZendDbSchema__Db__Schema__AbstractSchema.html#a47d95912f6bf6d26d023597887dafacb" target="_top" xlink:title="ZendDbSchema_Db_Schema_AbstractSchema\\getAdapter">
<polygon fill="white" stroke="black" points="940.5,-40.5 940.5,-61.5 1215.5,-61.5 1215.5,-40.5 940.5,-40.5"/>
<text text-anchor="middle" x="1078" y="-48.5" font-family="Helvetica,sans-Serif" font-size="10.00">ZendDbSchema_Db_Schema_AbstractSchema\getAdapter</text>
</a>
</g>
<!-- Node4&#45;&gt;Node5 -->
<g id="edge8" class="edge"><title>Node4&#45;&gt;Node5</title>
<path fill="none" stroke="midnightblue" d="M903.554,-51C912.265,-51 921.05,-51 929.797,-51"/>
<polygon fill="midnightblue" stroke="midnightblue" points="930.043,-54.5001 940.043,-51 930.043,-47.5001 930.043,-54.5001"/>
</g>
<!-- Node6 -->
<g id="node11" class="node"><title>Node6</title>
<a xlink:href="classZendDbSchema__Db__Schema__AbstractSchema.html#a6349649e5e09d67a5b5e0abe96298db8" target="_top" xlink:title="ZendDbSchema_Db_Schema_AbstractSchema\\setAdapter">
<polygon fill="white" stroke="black" points="1252.5,-40.5 1252.5,-61.5 1527.5,-61.5 1527.5,-40.5 1252.5,-40.5"/>
<text text-anchor="middle" x="1390" y="-48.5" font-family="Helvetica,sans-Serif" font-size="10.00">ZendDbSchema_Db_Schema_AbstractSchema\setAdapter</text>
</a>
</g>
<!-- Node5&#45;&gt;Node6 -->
<g id="edge10" class="edge"><title>Node5&#45;&gt;Node6</title>
<path fill="none" stroke="midnightblue" d="M1215.76,-51C1224.44,-51 1233.2,-51 1241.92,-51"/>
<polygon fill="midnightblue" stroke="midnightblue" points="1242.14,-54.5001 1252.14,-51 1242.14,-47.5001 1242.14,-54.5001"/>
</g>
<!-- Node7 -->
<g id="node13" class="node"><title>Node7</title>
<a xlink:href="classZendDbSchema__Db__Schema__AbstractSchema.html#a53a1974dbc8822792a8d7b9c618d3a02" target="_top" xlink:title="ZendDbSchema_Db_Schema_AbstractSchema\\setGenerator">
<polygon fill="white" stroke="black" points="1564,-80.5 1564,-101.5 1848,-101.5 1848,-80.5 1564,-80.5"/>
<text text-anchor="middle" x="1706" y="-88.5" font-family="Helvetica,sans-Serif" font-size="10.00">ZendDbSchema_Db_Schema_AbstractSchema\setGenerator</text>
</a>
</g>
<!-- Node6&#45;&gt;Node7 -->
<g id="edge12" class="edge"><title>Node6&#45;&gt;Node7</title>
<path fill="none" stroke="midnightblue" d="M1473.03,-61.5095C1515.95,-66.9425 1568.48,-73.5919 1612.78,-79.2006"/>
<polygon fill="midnightblue" stroke="midnightblue" points="1612.62,-82.7077 1622.98,-80.4913 1613.5,-75.7631 1612.62,-82.7077"/>
</g>
<!-- Node8 -->
<g id="node15" class="node"><title>Node8</title>
<a xlink:href="classZendDbSchema__Db__Schema__AbstractSchema.html#aa0e6c9f8d58702dc41d988f064f62698" target="_top" xlink:title="ZendDbSchema_Db_Schema_AbstractSchema\\setParser">
<polygon fill="white" stroke="black" points="1571.5,-40.5 1571.5,-61.5 1840.5,-61.5 1840.5,-40.5 1571.5,-40.5"/>
<text text-anchor="middle" x="1706" y="-48.5" font-family="Helvetica,sans-Serif" font-size="10.00">ZendDbSchema_Db_Schema_AbstractSchema\setParser</text>
</a>
</g>
<!-- Node6&#45;&gt;Node8 -->
<g id="edge14" class="edge"><title>Node6&#45;&gt;Node8</title>
<path fill="none" stroke="midnightblue" d="M1527.68,-51C1538.76,-51 1549.98,-51 1561.1,-51"/>
<polygon fill="midnightblue" stroke="midnightblue" points="1561.29,-54.5001 1571.29,-51 1561.29,-47.5001 1561.29,-54.5001"/>
</g>
<!-- Node9 -->
<g id="node17" class="node"><title>Node9</title>
<a xlink:href="classZendDbSchema__Db__Schema__AbstractSchema.html#ac0161e2c24dafba8433fb86205a147fe" target="_top" xlink:title="ZendDbSchema_Db_Schema_AbstractSchema\\setValidator">
<polygon fill="white" stroke="black" points="1566.5,-0.5 1566.5,-21.5 1845.5,-21.5 1845.5,-0.5 1566.5,-0.5"/>
<text text-anchor="middle" x="1706" y="-8.5" font-family="Helvetica,sans-Serif" font-size="10.00">ZendDbSchema_Db_Schema_AbstractSchema\setValidator</text>
</a>
</g>
<!-- Node6&#45;&gt;Node9 -->
<g id="edge16" class="edge"><title>Node6&#45;&gt;Node9</title>
<path fill="none" stroke="midnightblue" d="M1473.03,-40.4905C1515.95,-35.0575 1568.48,-28.4081 1612.78,-22.7994"/>
<polygon fill="midnightblue" stroke="midnightblue" points="1613.5,-26.2369 1622.98,-21.5087 1612.62,-19.2923 1613.5,-26.2369"/>
</g>
<!-- Node10&#45;&gt;Node2 -->
<g id="edge20" class="edge"><title>Node10&#45;&gt;Node2</title>
<path fill="none" stroke="midnightblue" d="M587.888,-98.9201C599.9,-99.6759 612.131,-100.445 624.263,-101.209"/>
<polygon fill="midnightblue" stroke="midnightblue" points="624.225,-104.713 634.425,-101.848 624.664,-97.7268 624.225,-104.713"/>
</g>
</g>
</svg>
