<?xml version="1.0" encoding="UTF-8" standalone="no"?>
<!DOCTYPE svg PUBLIC "-//W3C//DTD SVG 1.1//EN"
 "http://www.w3.org/Graphics/SVG/1.1/DTD/svg11.dtd">
<!-- Generated by graphviz version 2.26.3 (20100126.1600)
 -->
<!-- Title: G Pages: 1 -->
<svg width="1566pt" height="138pt"
 viewBox="0.00 0.00 1566.00 138.00" xmlns="http://www.w3.org/2000/svg" xmlns:xlink="http://www.w3.org/1999/xlink">
<g id="graph1" class="graph" transform="scale(1 1) rotate(0) translate(4 134)">
<title>G</title>
<polygon fill="white" stroke="white" points="-4,5 -4,-134 1563,-134 1563,5 -4,5"/>
<!-- Node1 -->
<g id="node1" class="node"><title>Node1</title>
<polygon fill="#bfbfbf" stroke="black" points="0,-69.5 0,-90.5 274,-90.5 274,-69.5 0,-69.5"/>
<text text-anchor="middle" x="137" y="-77.5" font-family="Helvetica,sans-Serif" font-size="10.00">ZendDbSchema_Db_Schema_Table_Index\removeColumn</text>
</g>
<!-- Node2 -->
<g id="node3" class="node"><title>Node2</title>
<a xlink:href="classZendDbSchema__Db__Schema__Table__Index.html#af7c29da0f52c5270ffa3587a95295f82" target="_top" xlink:title="ZendDbSchema_Db_Schema_Table_Index\\hasColumn">
<polygon fill="white" stroke="black" points="311.5,-108.5 311.5,-129.5 568.5,-129.5 568.5,-108.5 311.5,-108.5"/>
<text text-anchor="middle" x="440" y="-116.5" font-family="Helvetica,sans-Serif" font-size="10.00">ZendDbSchema_Db_Schema_Table_Index\hasColumn</text>
</a>
</g>
<!-- Node1&#45;&gt;Node2 -->
<g id="edge2" class="edge"><title>Node1&#45;&gt;Node2</title>
<path fill="none" stroke="midnightblue" d="M218.597,-90.5026C258.594,-95.6507 306.916,-101.87 348.198,-107.184"/>
<polygon fill="midnightblue" stroke="midnightblue" points="347.892,-110.673 358.257,-108.479 348.786,-103.731 347.892,-110.673"/>
</g>
<!-- Node3 -->
<g id="node5" class="node"><title>Node3</title>
<a xlink:href="classZendDbSchema__Db__Schema__Table__Index.html#ad0edf2869c08ce408566798f4305b8dc" target="_top" xlink:title="ZendDbSchema_Db_Schema_Table_Index\\getColumns">
<polygon fill="white" stroke="black" points="619,-89.5 619,-110.5 879,-110.5 879,-89.5 619,-89.5"/>
<text text-anchor="middle" x="749" y="-97.5" font-family="Helvetica,sans-Serif" font-size="10.00">ZendDbSchema_Db_Schema_Table_Index\getColumns</text>
</a>
</g>
<!-- Node1&#45;&gt;Node3 -->
<g id="edge10" class="edge"><title>Node1&#45;&gt;Node3</title>
<path fill="none" stroke="midnightblue" d="M274.345,-84.4884C374.004,-87.7452 508.373,-92.1364 608.708,-95.4153"/>
<polygon fill="midnightblue" stroke="midnightblue" points="608.813,-98.9205 618.922,-95.7491 609.042,-91.9242 608.813,-98.9205"/>
</g>
<!-- Node6 -->
<g id="node12" class="node"><title>Node6</title>
<a xlink:href="classZendDbSchema__Db__Schema__Table__Index.html#a77b65e961a7da9ca89fdebd682338fcf" target="_top" xlink:title="ZendDbSchema_Db_Schema_Table_Index\\setColumns">
<polygon fill="white" stroke="black" points="310,-30.5 310,-51.5 570,-51.5 570,-30.5 310,-30.5"/>
<text text-anchor="middle" x="440" y="-38.5" font-family="Helvetica,sans-Serif" font-size="10.00">ZendDbSchema_Db_Schema_Table_Index\setColumns</text>
</a>
</g>
<!-- Node1&#45;&gt;Node6 -->
<g id="edge12" class="edge"><title>Node1&#45;&gt;Node6</title>
<path fill="none" stroke="midnightblue" d="M218.597,-69.4974C258.594,-64.3493 306.916,-58.1297 348.198,-52.8161"/>
<polygon fill="midnightblue" stroke="midnightblue" points="348.786,-56.2694 358.257,-51.5213 347.892,-49.3267 348.786,-56.2694"/>
</g>
<!-- Node2&#45;&gt;Node3 -->
<g id="edge4" class="edge"><title>Node2&#45;&gt;Node3</title>
<path fill="none" stroke="midnightblue" d="M568.806,-111.08C582.002,-110.268 595.456,-109.441 608.767,-108.623"/>
<polygon fill="midnightblue" stroke="midnightblue" points="609.145,-112.106 618.911,-107.999 608.715,-105.119 609.145,-112.106"/>
</g>
<!-- Node4 -->
<g id="node7" class="node"><title>Node4</title>
<a xlink:href="classZendDbSchema__Db__Schema__AbstractSchema.html#a54d32c6f15463eaad2321a9f0e7225d7" target="_top" xlink:title="ZendDbSchema_Db_Schema_AbstractSchema\\__get">
<polygon fill="white" stroke="black" points="969.5,-89.5 969.5,-110.5 1220.5,-110.5 1220.5,-89.5 969.5,-89.5"/>
<text text-anchor="middle" x="1095" y="-97.5" font-family="Helvetica,sans-Serif" font-size="10.00">ZendDbSchema_Db_Schema_AbstractSchema\__get</text>
</a>
</g>
<!-- Node3&#45;&gt;Node4 -->
<g id="edge6" class="edge"><title>Node3&#45;&gt;Node4</title>
<path fill="none" stroke="midnightblue" d="M879.315,-100C905.474,-100 933.021,-100 959.356,-100"/>
<polygon fill="midnightblue" stroke="midnightblue" points="959.385,-103.5 969.385,-100 959.385,-96.5001 959.385,-103.5"/>
</g>
<!-- Node5 -->
<g id="node9" class="node"><title>Node5</title>
<a xlink:href="classZendDbSchema__Db__Schema__AbstractSchema.html#ac4e121ba7932163eb1950fabe06fb9db" target="_top" xlink:title="ZendDbSchema_Db_Schema_AbstractSchema\\__isset">
<polygon fill="white" stroke="black" points="1298.5,-89.5 1298.5,-110.5 1557.5,-110.5 1557.5,-89.5 1298.5,-89.5"/>
<text text-anchor="middle" x="1428" y="-97.5" font-family="Helvetica,sans-Serif" font-size="10.00">ZendDbSchema_Db_Schema_AbstractSchema\__isset</text>
</a>
</g>
<!-- Node4&#45;&gt;Node5 -->
<g id="edge8" class="edge"><title>Node4&#45;&gt;Node5</title>
<path fill="none" stroke="midnightblue" d="M1220.89,-100C1242.85,-100 1265.82,-100 1288.13,-100"/>
<polygon fill="midnightblue" stroke="midnightblue" points="1288.33,-103.5 1298.33,-100 1288.33,-96.5001 1288.33,-103.5"/>
</g>
<!-- Node7 -->
<g id="node14" class="node"><title>Node7</title>
<a xlink:href="classZendDbSchema__Db__Schema__Table__AbstractDefinition.html#a65498451683b2cf8fd1dc65f7f03581d" target="_top" xlink:title="ZendDbSchema_Db_Schema_Table_AbstractDefinition\\__set">
<polygon fill="white" stroke="black" points="606,-30.5 606,-51.5 892,-51.5 892,-30.5 606,-30.5"/>
<text text-anchor="middle" x="749" y="-38.5" font-family="Helvetica,sans-Serif" font-size="10.00">ZendDbSchema_Db_Schema_Table_AbstractDefinition\__set</text>
</a>
</g>
<!-- Node6&#45;&gt;Node7 -->
<g id="edge14" class="edge"><title>Node6&#45;&gt;Node7</title>
<path fill="none" stroke="midnightblue" d="M570.148,-41C578.474,-41 586.896,-41 595.315,-41"/>
<polygon fill="midnightblue" stroke="midnightblue" points="595.576,-44.5001 605.576,-41 595.576,-37.5001 595.576,-44.5001"/>
</g>
<!-- Node8 -->
<g id="node16" class="node"><title>Node8</title>
<a xlink:href="classZendDbSchema__Db__Schema__Table__AbstractDefinition.html#a224b6a0c1df1d6ed40e03657782ef6fc" target="_top" xlink:title="ZendDbSchema_Db_Schema_Table_AbstractDefinition\\getTable">
<polygon fill="white" stroke="black" points="945.5,-40.5 945.5,-61.5 1244.5,-61.5 1244.5,-40.5 945.5,-40.5"/>
<text text-anchor="middle" x="1095" y="-48.5" font-family="Helvetica,sans-Serif" font-size="10.00">ZendDbSchema_Db_Schema_Table_AbstractDefinition\getTable</text>
</a>
</g>
<!-- Node7&#45;&gt;Node8 -->
<g id="edge16" class="edge"><title>Node7&#45;&gt;Node8</title>
<path fill="none" stroke="midnightblue" d="M892.229,-45.1396C906.366,-45.5482 920.777,-45.9647 935.068,-46.3777"/>
<polygon fill="midnightblue" stroke="midnightblue" points="935.351,-49.8872 945.448,-46.6777 935.553,-42.8901 935.351,-49.8872"/>
</g>
<!-- Node9 -->
<g id="node18" class="node"><title>Node9</title>
<a xlink:href="classZendDbSchema__Db__Schema__Table__AbstractDefinition.html#a2fb894602c4b7fbba5dd1d180f93c181" target="_top" xlink:title="ZendDbSchema_Db_Schema_Table_AbstractDefinition\\_getSchemaKey">
<polygon fill="white" stroke="black" points="928,-0.5 928,-21.5 1262,-21.5 1262,-0.5 928,-0.5"/>
<text text-anchor="middle" x="1095" y="-8.5" font-family="Helvetica,sans-Serif" font-size="10.00">ZendDbSchema_Db_Schema_Table_AbstractDefinition\_getSchemaKey</text>
</a>
</g>
<!-- Node7&#45;&gt;Node9 -->
<g id="edge18" class="edge"><title>Node7&#45;&gt;Node9</title>
<path fill="none" stroke="midnightblue" d="M870.5,-30.4653C900.59,-27.8563 932.968,-25.049 963.511,-22.4008"/>
<polygon fill="midnightblue" stroke="midnightblue" points="964.132,-25.8602 973.792,-21.5093 963.527,-18.8863 964.132,-25.8602"/>
</g>
</g>
</svg>
