<?xml version="1.0" encoding="UTF-8" standalone="no"?>
<!DOCTYPE svg PUBLIC "-//W3C//DTD SVG 1.1//EN"
 "http://www.w3.org/Graphics/SVG/1.1/DTD/svg11.dtd">
<!-- Generated by graphviz version 2.26.3 (20100126.1600)
 -->
<!-- Title: G Pages: 1 -->
<svg width="336pt" height="94pt"
 viewBox="0.00 0.00 336.00 94.00" xmlns="http://www.w3.org/2000/svg" xmlns:xlink="http://www.w3.org/1999/xlink">
<g id="graph1" class="graph" transform="scale(1 1) rotate(0) translate(4 90)">
<title>G</title>
<polygon fill="white" stroke="white" points="-4,5 -4,-90 333,-90 333,5 -4,5"/>
<!-- Node1 -->
<g id="node1" class="node"><title>Node1</title>
<polygon fill="#bfbfbf" stroke="black" points="0,-26 0,-60 146,-60 146,-26 0,-26"/>
<text text-anchor="start" x="8" y="-47" font-family="Helvetica,sans-Serif" font-size="10.00">ZendDbSchema_Db_Schema</text>
<text text-anchor="middle" x="73" y="-34" font-family="Helvetica,sans-Serif" font-size="10.00">_AbstractEntity\refresh</text>
</g>
<!-- Node2 -->
<g id="node3" class="node"><title>Node2</title>
<a xlink:href="classZendDbSchema__Db__Schema__AbstractEntity.html#a26fcff2268495fcdbfa265f394ee93d9" target="_top" xlink:title="ZendDbSchema_Db_Schema\l_AbstractEntity\\delete">
<polygon fill="white" stroke="black" points="182,-52 182,-86 328,-86 328,-52 182,-52"/>
<text text-anchor="start" x="190" y="-73" font-family="Helvetica,sans-Serif" font-size="10.00">ZendDbSchema_Db_Schema</text>
<text text-anchor="middle" x="255" y="-60" font-family="Helvetica,sans-Serif" font-size="10.00">_AbstractEntity\delete</text>
</a>
</g>
<!-- Node1&#45;&gt;Node2 -->
<g id="edge2" class="edge"><title>Node1&#45;&gt;Node2</title>
<path fill="none" stroke="midnightblue" d="M156.237,-54.8909C164.804,-56.1149 173.464,-57.3521 181.91,-58.5586"/>
<polygon fill="midnightblue" stroke="midnightblue" points="156.634,-51.4123 146.24,-53.4628 155.644,-58.3419 156.634,-51.4123"/>
</g>
<!-- Node3 -->
<g id="node5" class="node"><title>Node3</title>
<a xlink:href="classZendDbSchema__Db__Schema__AbstractEntity.html#a5b1c93da76c3708f90d330b4643e55b2" target="_top" xlink:title="ZendDbSchema_Db_Schema\l_AbstractEntity\\save">
<polygon fill="white" stroke="black" points="182,-0 182,-34 328,-34 328,-0 182,-0"/>
<text text-anchor="start" x="190" y="-21" font-family="Helvetica,sans-Serif" font-size="10.00">ZendDbSchema_Db_Schema</text>
<text text-anchor="middle" x="255" y="-8" font-family="Helvetica,sans-Serif" font-size="10.00">_AbstractEntity\save</text>
</a>
</g>
<!-- Node1&#45;&gt;Node3 -->
<g id="edge4" class="edge"><title>Node1&#45;&gt;Node3</title>
<path fill="none" stroke="midnightblue" d="M156.237,-31.1091C164.804,-29.8851 173.464,-28.6479 181.91,-27.4414"/>
<polygon fill="midnightblue" stroke="midnightblue" points="155.644,-27.6581 146.24,-32.5372 156.634,-34.5877 155.644,-27.6581"/>
</g>
</g>
</svg>
