<?xml version="1.0" encoding="UTF-8" standalone="no"?>
<!DOCTYPE svg PUBLIC "-//W3C//DTD SVG 1.1//EN"
 "http://www.w3.org/Graphics/SVG/1.1/DTD/svg11.dtd">
<!-- Generated by graphviz version 2.26.3 (20100126.1600)
 -->
<!-- Title: G Pages: 1 -->
<svg width="1220pt" height="90pt"
 viewBox="0.00 0.00 1220.00 90.00" xmlns="http://www.w3.org/2000/svg" xmlns:xlink="http://www.w3.org/1999/xlink">
<g id="graph1" class="graph" transform="scale(1 1) rotate(0) translate(4 86)">
<title>G</title>
<polygon fill="white" stroke="white" points="-4,5 -4,-86 1217,-86 1217,5 -4,5"/>
<!-- Node1 -->
<g id="node1" class="node"><title>Node1</title>
<polygon fill="#bfbfbf" stroke="black" points="0,-20.5 0,-41.5 292,-41.5 292,-20.5 0,-20.5"/>
<text text-anchor="middle" x="146" y="-28.5" font-family="Helvetica,sans-Serif" font-size="10.00">ZendDbSchema_Db_Schema_Validator_Mysql\validateColumn</text>
</g>
<!-- Node2 -->
<g id="node3" class="node"><title>Node2</title>
<a xlink:href="classZendDbSchema__Db__Schema__Table__AbstractDefinition.html#a224b6a0c1df1d6ed40e03657782ef6fc" target="_top" xlink:title="ZendDbSchema_Db_Schema_Table_AbstractDefinition\\getTable">
<polygon fill="white" stroke="black" points="328.5,-60.5 328.5,-81.5 627.5,-81.5 627.5,-60.5 328.5,-60.5"/>
<text text-anchor="middle" x="478" y="-68.5" font-family="Helvetica,sans-Serif" font-size="10.00">ZendDbSchema_Db_Schema_Table_AbstractDefinition\getTable</text>
</a>
</g>
<!-- Node1&#45;&gt;Node2 -->
<g id="edge2" class="edge"><title>Node1&#45;&gt;Node2</title>
<path fill="none" stroke="midnightblue" d="M233.229,-41.5095C278.513,-46.9654 333.978,-53.6479 380.653,-59.2714"/>
<polygon fill="midnightblue" stroke="midnightblue" points="380.431,-62.7699 390.778,-60.4913 381.268,-55.8202 380.431,-62.7699"/>
</g>
<!-- Node3 -->
<g id="node5" class="node"><title>Node3</title>
<a xlink:href="classZendDbSchema__Db__Schema__AbstractSchema.html#adacb1417b461310c5c87f72c459c1985" target="_top" xlink:title="ZendDbSchema_Db_Schema_AbstractSchema\\getOriginName">
<polygon fill="white" stroke="black" points="331.5,-20.5 331.5,-41.5 624.5,-41.5 624.5,-20.5 331.5,-20.5"/>
<text text-anchor="middle" x="478" y="-28.5" font-family="Helvetica,sans-Serif" font-size="10.00">ZendDbSchema_Db_Schema_AbstractSchema\getOriginName</text>
</a>
</g>
<!-- Node1&#45;&gt;Node3 -->
<g id="edge4" class="edge"><title>Node1&#45;&gt;Node3</title>
<path fill="none" stroke="midnightblue" d="M292.103,-31C301.787,-31 311.562,-31 321.295,-31"/>
<polygon fill="midnightblue" stroke="midnightblue" points="321.416,-34.5001 331.416,-31 321.416,-27.5001 321.416,-34.5001"/>
</g>
<!-- Node4 -->
<g id="node7" class="node"><title>Node4</title>
<a xlink:href="classZendDbSchema__Db__Schema__AbstractSchema.html#a54d32c6f15463eaad2321a9f0e7225d7" target="_top" xlink:title="ZendDbSchema_Db_Schema_AbstractSchema\\__get">
<polygon fill="white" stroke="black" points="664.5,-0.5 664.5,-21.5 915.5,-21.5 915.5,-0.5 664.5,-0.5"/>
<text text-anchor="middle" x="790" y="-8.5" font-family="Helvetica,sans-Serif" font-size="10.00">ZendDbSchema_Db_Schema_AbstractSchema\__get</text>
</a>
</g>
<!-- Node1&#45;&gt;Node4 -->
<g id="edge10" class="edge"><title>Node1&#45;&gt;Node4</title>
<path fill="none" stroke="midnightblue" d="M224.679,-20.4519C256.672,-16.6596 294.038,-12.8604 328,-11 437.616,-4.99521 562.081,-5.41128 654.184,-7.09889"/>
<polygon fill="midnightblue" stroke="midnightblue" points="654.339,-10.6024 664.404,-7.29378 654.472,-3.60365 654.339,-10.6024"/>
</g>
<!-- Node3&#45;&gt;Node4 -->
<g id="edge6" class="edge"><title>Node3&#45;&gt;Node4</title>
<path fill="none" stroke="midnightblue" d="M624.864,-21.5856C634.6,-20.9615 644.384,-20.3343 654.063,-19.7139"/>
<polygon fill="midnightblue" stroke="midnightblue" points="654.35,-23.2028 664.106,-19.0701 653.902,-16.2171 654.35,-23.2028"/>
</g>
<!-- Node5 -->
<g id="node9" class="node"><title>Node5</title>
<a xlink:href="classZendDbSchema__Db__Schema__AbstractSchema.html#ac4e121ba7932163eb1950fabe06fb9db" target="_top" xlink:title="ZendDbSchema_Db_Schema_AbstractSchema\\__isset">
<polygon fill="white" stroke="black" points="952.5,-0.5 952.5,-21.5 1211.5,-21.5 1211.5,-0.5 952.5,-0.5"/>
<text text-anchor="middle" x="1082" y="-8.5" font-family="Helvetica,sans-Serif" font-size="10.00">ZendDbSchema_Db_Schema_AbstractSchema\__isset</text>
</a>
</g>
<!-- Node4&#45;&gt;Node5 -->
<g id="edge8" class="edge"><title>Node4&#45;&gt;Node5</title>
<path fill="none" stroke="midnightblue" d="M915.529,-11C924.401,-11 933.376,-11 942.32,-11"/>
<polygon fill="midnightblue" stroke="midnightblue" points="942.397,-14.5001 952.397,-11 942.397,-7.5001 942.397,-14.5001"/>
</g>
</g>
</svg>
