<?xml version="1.0" encoding="UTF-8" standalone="no"?>
<!DOCTYPE svg PUBLIC "-//W3C//DTD SVG 1.1//EN"
 "http://www.w3.org/Graphics/SVG/1.1/DTD/svg11.dtd">
<!-- Generated by graphviz version 2.26.3 (20100126.1600)
 -->
<!-- Title: G Pages: 1 -->
<svg width="1550pt" height="138pt"
 viewBox="0.00 0.00 1550.00 138.00" xmlns="http://www.w3.org/2000/svg" xmlns:xlink="http://www.w3.org/1999/xlink">
<g id="graph1" class="graph" transform="scale(1 1) rotate(0) translate(4 134)">
<title>G</title>
<polygon fill="white" stroke="white" points="-4,5 -4,-134 1547,-134 1547,5 -4,5"/>
<!-- Node1 -->
<g id="node1" class="node"><title>Node1</title>
<polygon fill="#bfbfbf" stroke="black" points="0.5,-69.5 0.5,-90.5 257.5,-90.5 257.5,-69.5 0.5,-69.5"/>
<text text-anchor="middle" x="129" y="-77.5" font-family="Helvetica,sans-Serif" font-size="10.00">ZendDbSchema_Db_Schema_Table_Index\addColumn</text>
</g>
<!-- Node2 -->
<g id="node3" class="node"><title>Node2</title>
<a xlink:href="classZendDbSchema__Db__Schema__Table__Index.html#af7c29da0f52c5270ffa3587a95295f82" target="_top" xlink:title="ZendDbSchema_Db_Schema_Table_Index\\hasColumn">
<polygon fill="white" stroke="black" points="295.5,-108.5 295.5,-129.5 552.5,-129.5 552.5,-108.5 295.5,-108.5"/>
<text text-anchor="middle" x="424" y="-116.5" font-family="Helvetica,sans-Serif" font-size="10.00">ZendDbSchema_Db_Schema_Table_Index\hasColumn</text>
</a>
</g>
<!-- Node1&#45;&gt;Node2 -->
<g id="edge2" class="edge"><title>Node1&#45;&gt;Node2</title>
<path fill="none" stroke="midnightblue" d="M208.443,-90.5026C247.301,-95.6398 294.231,-101.844 334.367,-107.15"/>
<polygon fill="midnightblue" stroke="midnightblue" points="334.043,-110.638 344.415,-108.479 334.96,-103.698 334.043,-110.638"/>
</g>
<!-- Node3 -->
<g id="node5" class="node"><title>Node3</title>
<a xlink:href="classZendDbSchema__Db__Schema__Table__Index.html#ad0edf2869c08ce408566798f4305b8dc" target="_top" xlink:title="ZendDbSchema_Db_Schema_Table_Index\\getColumns">
<polygon fill="white" stroke="black" points="603,-89.5 603,-110.5 863,-110.5 863,-89.5 603,-89.5"/>
<text text-anchor="middle" x="733" y="-97.5" font-family="Helvetica,sans-Serif" font-size="10.00">ZendDbSchema_Db_Schema_Table_Index\getColumns</text>
</a>
</g>
<!-- Node1&#45;&gt;Node3 -->
<g id="edge10" class="edge"><title>Node1&#45;&gt;Node3</title>
<path fill="none" stroke="midnightblue" d="M257.832,-84.266C356.142,-87.5213 491.43,-92.001 592.514,-95.3481"/>
<polygon fill="midnightblue" stroke="midnightblue" points="592.694,-98.8559 602.804,-95.6889 592.926,-91.8598 592.694,-98.8559"/>
</g>
<!-- Node6 -->
<g id="node12" class="node"><title>Node6</title>
<a xlink:href="classZendDbSchema__Db__Schema__Table__Index.html#a77b65e961a7da9ca89fdebd682338fcf" target="_top" xlink:title="ZendDbSchema_Db_Schema_Table_Index\\setColumns">
<polygon fill="white" stroke="black" points="294,-30.5 294,-51.5 554,-51.5 554,-30.5 294,-30.5"/>
<text text-anchor="middle" x="424" y="-38.5" font-family="Helvetica,sans-Serif" font-size="10.00">ZendDbSchema_Db_Schema_Table_Index\setColumns</text>
</a>
</g>
<!-- Node1&#45;&gt;Node6 -->
<g id="edge12" class="edge"><title>Node1&#45;&gt;Node6</title>
<path fill="none" stroke="midnightblue" d="M208.443,-69.4974C247.301,-64.3602 294.231,-58.1559 334.367,-52.8498"/>
<polygon fill="midnightblue" stroke="midnightblue" points="334.96,-56.3019 344.415,-51.5213 334.043,-49.3622 334.96,-56.3019"/>
</g>
<!-- Node2&#45;&gt;Node3 -->
<g id="edge4" class="edge"><title>Node2&#45;&gt;Node3</title>
<path fill="none" stroke="midnightblue" d="M552.806,-111.08C566.002,-110.268 579.456,-109.441 592.767,-108.623"/>
<polygon fill="midnightblue" stroke="midnightblue" points="593.145,-112.106 602.911,-107.999 592.715,-105.119 593.145,-112.106"/>
</g>
<!-- Node4 -->
<g id="node7" class="node"><title>Node4</title>
<a xlink:href="classZendDbSchema__Db__Schema__AbstractSchema.html#a54d32c6f15463eaad2321a9f0e7225d7" target="_top" xlink:title="ZendDbSchema_Db_Schema_AbstractSchema\\__get">
<polygon fill="white" stroke="black" points="953.5,-89.5 953.5,-110.5 1204.5,-110.5 1204.5,-89.5 953.5,-89.5"/>
<text text-anchor="middle" x="1079" y="-97.5" font-family="Helvetica,sans-Serif" font-size="10.00">ZendDbSchema_Db_Schema_AbstractSchema\__get</text>
</a>
</g>
<!-- Node3&#45;&gt;Node4 -->
<g id="edge6" class="edge"><title>Node3&#45;&gt;Node4</title>
<path fill="none" stroke="midnightblue" d="M863.315,-100C889.474,-100 917.021,-100 943.356,-100"/>
<polygon fill="midnightblue" stroke="midnightblue" points="943.385,-103.5 953.385,-100 943.385,-96.5001 943.385,-103.5"/>
</g>
<!-- Node5 -->
<g id="node9" class="node"><title>Node5</title>
<a xlink:href="classZendDbSchema__Db__Schema__AbstractSchema.html#ac4e121ba7932163eb1950fabe06fb9db" target="_top" xlink:title="ZendDbSchema_Db_Schema_AbstractSchema\\__isset">
<polygon fill="white" stroke="black" points="1282.5,-89.5 1282.5,-110.5 1541.5,-110.5 1541.5,-89.5 1282.5,-89.5"/>
<text text-anchor="middle" x="1412" y="-97.5" font-family="Helvetica,sans-Serif" font-size="10.00">ZendDbSchema_Db_Schema_AbstractSchema\__isset</text>
</a>
</g>
<!-- Node4&#45;&gt;Node5 -->
<g id="edge8" class="edge"><title>Node4&#45;&gt;Node5</title>
<path fill="none" stroke="midnightblue" d="M1204.89,-100C1226.85,-100 1249.82,-100 1272.13,-100"/>
<polygon fill="midnightblue" stroke="midnightblue" points="1272.33,-103.5 1282.33,-100 1272.33,-96.5001 1272.33,-103.5"/>
</g>
<!-- Node7 -->
<g id="node14" class="node"><title>Node7</title>
<a xlink:href="classZendDbSchema__Db__Schema__Table__AbstractDefinition.html#a65498451683b2cf8fd1dc65f7f03581d" target="_top" xlink:title="ZendDbSchema_Db_Schema_Table_AbstractDefinition\\__set">
<polygon fill="white" stroke="black" points="590,-30.5 590,-51.5 876,-51.5 876,-30.5 590,-30.5"/>
<text text-anchor="middle" x="733" y="-38.5" font-family="Helvetica,sans-Serif" font-size="10.00">ZendDbSchema_Db_Schema_Table_AbstractDefinition\__set</text>
</a>
</g>
<!-- Node6&#45;&gt;Node7 -->
<g id="edge14" class="edge"><title>Node6&#45;&gt;Node7</title>
<path fill="none" stroke="midnightblue" d="M554.148,-41C562.474,-41 570.896,-41 579.315,-41"/>
<polygon fill="midnightblue" stroke="midnightblue" points="579.576,-44.5001 589.576,-41 579.576,-37.5001 579.576,-44.5001"/>
</g>
<!-- Node8 -->
<g id="node16" class="node"><title>Node8</title>
<a xlink:href="classZendDbSchema__Db__Schema__Table__AbstractDefinition.html#a224b6a0c1df1d6ed40e03657782ef6fc" target="_top" xlink:title="ZendDbSchema_Db_Schema_Table_AbstractDefinition\\getTable">
<polygon fill="white" stroke="black" points="929.5,-40.5 929.5,-61.5 1228.5,-61.5 1228.5,-40.5 929.5,-40.5"/>
<text text-anchor="middle" x="1079" y="-48.5" font-family="Helvetica,sans-Serif" font-size="10.00">ZendDbSchema_Db_Schema_Table_AbstractDefinition\getTable</text>
</a>
</g>
<!-- Node7&#45;&gt;Node8 -->
<g id="edge16" class="edge"><title>Node7&#45;&gt;Node8</title>
<path fill="none" stroke="midnightblue" d="M876.229,-45.1396C890.366,-45.5482 904.777,-45.9647 919.068,-46.3777"/>
<polygon fill="midnightblue" stroke="midnightblue" points="919.351,-49.8872 929.448,-46.6777 919.553,-42.8901 919.351,-49.8872"/>
</g>
<!-- Node9 -->
<g id="node18" class="node"><title>Node9</title>
<a xlink:href="classZendDbSchema__Db__Schema__Table__AbstractDefinition.html#a2fb894602c4b7fbba5dd1d180f93c181" target="_top" xlink:title="ZendDbSchema_Db_Schema_Table_AbstractDefinition\\_getSchemaKey">
<polygon fill="white" stroke="black" points="912,-0.5 912,-21.5 1246,-21.5 1246,-0.5 912,-0.5"/>
<text text-anchor="middle" x="1079" y="-8.5" font-family="Helvetica,sans-Serif" font-size="10.00">ZendDbSchema_Db_Schema_Table_AbstractDefinition\_getSchemaKey</text>
</a>
</g>
<!-- Node7&#45;&gt;Node9 -->
<g id="edge18" class="edge"><title>Node7&#45;&gt;Node9</title>
<path fill="none" stroke="midnightblue" d="M854.5,-30.4653C884.59,-27.8563 916.968,-25.049 947.511,-22.4008"/>
<polygon fill="midnightblue" stroke="midnightblue" points="948.132,-25.8602 957.792,-21.5093 947.527,-18.8863 948.132,-25.8602"/>
</g>
</g>
</svg>
