<?xml version="1.0" encoding="UTF-8" standalone="no"?>
<!DOCTYPE svg PUBLIC "-//W3C//DTD SVG 1.1//EN"
 "http://www.w3.org/Graphics/SVG/1.1/DTD/svg11.dtd">
<!-- Generated by graphviz version 2.26.3 (20100126.1600)
 -->
<!-- Title: G Pages: 1 -->
<svg width="2972pt" height="110pt"
 viewBox="0.00 0.00 2972.00 110.00" xmlns="http://www.w3.org/2000/svg" xmlns:xlink="http://www.w3.org/1999/xlink">
<g id="graph1" class="graph" transform="scale(1 1) rotate(0) translate(4 106)">
<title>G</title>
<polygon fill="white" stroke="white" points="-4,5 -4,-106 2969,-106 2969,5 -4,5"/>
<!-- Node1 -->
<g id="node1" class="node"><title>Node1</title>
<polygon fill="#bfbfbf" stroke="black" points="0.5,-40.5 0.5,-61.5 393.5,-61.5 393.5,-40.5 0.5,-40.5"/>
<text text-anchor="middle" x="197" y="-48.5" font-family="Helvetica,sans-Serif" font-size="10.00">ZendDbSchema_Db_Schema_Table_DefinitionManager_AbstractManager\__construct</text>
</g>
<!-- Node2 -->
<g id="node3" class="node"><title>Node2</title>
<a xlink:href="classZendDbSchema__Db__Schema__Table__DefinitionManager__AbstractManager.html#a7503e344823c2a1e1e3beb80b8541116" target="_top" xlink:title="ZendDbSchema_Db_Schema_Table_DefinitionManager_AbstractManager\\refresh">
<polygon fill="white" stroke="black" points="430,-40.5 430,-61.5 802,-61.5 802,-40.5 430,-40.5"/>
<text text-anchor="middle" x="616" y="-48.5" font-family="Helvetica,sans-Serif" font-size="10.00">ZendDbSchema_Db_Schema_Table_DefinitionManager_AbstractManager\refresh</text>
</a>
</g>
<!-- Node1&#45;&gt;Node2 -->
<g id="edge2" class="edge"><title>Node1&#45;&gt;Node2</title>
<path fill="none" stroke="midnightblue" d="M393.618,-51C402.329,-51 411.07,-51 419.78,-51"/>
<polygon fill="midnightblue" stroke="midnightblue" points="419.987,-54.5001 429.987,-51 419.987,-47.5001 419.987,-54.5001"/>
</g>
<!-- Node3 -->
<g id="node5" class="node"><title>Node3</title>
<a xlink:href="classZendDbSchema__Db__Schema__Table__DefinitionManager__AbstractManager.html#a40677ee7cb91e19c1587bdda9e73d3d5" target="_top" xlink:title="ZendDbSchema_Db_Schema_Table_DefinitionManager_AbstractManager\\setFromArray">
<polygon fill="white" stroke="black" points="838.5,-40.5 838.5,-61.5 1239.5,-61.5 1239.5,-40.5 838.5,-40.5"/>
<text text-anchor="middle" x="1039" y="-48.5" font-family="Helvetica,sans-Serif" font-size="10.00">ZendDbSchema_Db_Schema_Table_DefinitionManager_AbstractManager\setFromArray</text>
</a>
</g>
<!-- Node2&#45;&gt;Node3 -->
<g id="edge4" class="edge"><title>Node2&#45;&gt;Node3</title>
<path fill="none" stroke="midnightblue" d="M802.15,-51C810.752,-51 819.412,-51 828.07,-51"/>
<polygon fill="midnightblue" stroke="midnightblue" points="828.231,-54.5001 838.23,-51 828.23,-47.5001 828.231,-54.5001"/>
</g>
<!-- Node4 -->
<g id="node7" class="node"><title>Node4</title>
<a xlink:href="classZendDbSchema__Db__Schema__Table__DefinitionManager__AbstractManager.html#ac62cf058c89132b0ff9223d9fcefdb8a" target="_top" xlink:title="ZendDbSchema_Db_Schema_Table_DefinitionManager_AbstractManager\\_getItemClass">
<polygon fill="white" stroke="black" points="1670,-80.5 1670,-101.5 2076,-101.5 2076,-80.5 1670,-80.5"/>
<text text-anchor="middle" x="1873" y="-88.5" font-family="Helvetica,sans-Serif" font-size="10.00">ZendDbSchema_Db_Schema_Table_DefinitionManager_AbstractManager\_getItemClass</text>
</a>
</g>
<!-- Node3&#45;&gt;Node4 -->
<g id="edge6" class="edge"><title>Node3&#45;&gt;Node4</title>
<path fill="none" stroke="midnightblue" d="M1149.84,-61.5239C1189.6,-64.9889 1234.78,-68.5718 1276,-71 1403.12,-78.4883 1545.65,-83.3944 1659.55,-86.4726"/>
<polygon fill="midnightblue" stroke="midnightblue" points="1659.7,-89.9776 1669.79,-86.7464 1659.88,-82.9801 1659.7,-89.9776"/>
</g>
<!-- Node5 -->
<g id="node9" class="node"><title>Node5</title>
<a xlink:href="classZendDbSchema__Db__Schema__Table__DefinitionManager__AbstractManager.html#ad0261d0db60ff459f97adc23b2d16931" target="_top" xlink:title="ZendDbSchema_Db_Schema_Table_DefinitionManager_AbstractManager\\has">
<polygon fill="white" stroke="black" points="1694,-0.5 1694,-21.5 2052,-21.5 2052,-0.5 1694,-0.5"/>
<text text-anchor="middle" x="1873" y="-8.5" font-family="Helvetica,sans-Serif" font-size="10.00">ZendDbSchema_Db_Schema_Table_DefinitionManager_AbstractManager\has</text>
</a>
</g>
<!-- Node3&#45;&gt;Node5 -->
<g id="edge8" class="edge"><title>Node3&#45;&gt;Node5</title>
<path fill="none" stroke="midnightblue" d="M1149.84,-40.4761C1189.6,-37.0111 1234.78,-33.4282 1276,-31 1412.3,-22.9709 1566.32,-17.9104 1683.77,-14.8887"/>
<polygon fill="midnightblue" stroke="midnightblue" points="1684.04,-18.3832 1693.94,-14.6297 1683.86,-11.3854 1684.04,-18.3832"/>
</g>
<!-- Node6 -->
<g id="node11" class="node"><title>Node6</title>
<a xlink:href="classZendDbSchema__Db__Schema__Table__DefinitionManager__AbstractManager.html#a6d815884ca03c003ac7f8d633e97f7c6" target="_top" xlink:title="ZendDbSchema_Db_Schema_Table_DefinitionManager_AbstractManager\\add">
<polygon fill="white" stroke="black" points="1276,-40.5 1276,-61.5 1634,-61.5 1634,-40.5 1276,-40.5"/>
<text text-anchor="middle" x="1455" y="-48.5" font-family="Helvetica,sans-Serif" font-size="10.00">ZendDbSchema_Db_Schema_Table_DefinitionManager_AbstractManager\add</text>
</a>
</g>
<!-- Node3&#45;&gt;Node6 -->
<g id="edge10" class="edge"><title>Node3&#45;&gt;Node6</title>
<path fill="none" stroke="midnightblue" d="M1239.69,-51C1248.35,-51 1257.03,-51 1265.66,-51"/>
<polygon fill="midnightblue" stroke="midnightblue" points="1265.78,-54.5001 1275.78,-51 1265.78,-47.5001 1265.78,-54.5001"/>
</g>
<!-- Node6&#45;&gt;Node4 -->
<g id="edge12" class="edge"><title>Node6&#45;&gt;Node4</title>
<path fill="none" stroke="midnightblue" d="M1564.82,-61.5095C1622.68,-67.0455 1693.72,-73.8443 1753.02,-79.5183"/>
<polygon fill="midnightblue" stroke="midnightblue" points="1752.9,-83.0227 1763.18,-80.4913 1753.56,-76.0545 1752.9,-83.0227"/>
</g>
<!-- Node6&#45;&gt;Node5 -->
<g id="edge22" class="edge"><title>Node6&#45;&gt;Node5</title>
<path fill="none" stroke="midnightblue" d="M1564.82,-40.4905C1622.68,-34.9545 1693.72,-28.1557 1753.02,-22.4817"/>
<polygon fill="midnightblue" stroke="midnightblue" points="1753.56,-25.9455 1763.18,-21.5087 1752.9,-18.9773 1753.56,-25.9455"/>
</g>
<!-- Node7 -->
<g id="node14" class="node"><title>Node7</title>
<a xlink:href="classZendDbSchema__Db__Schema__AbstractSchema.html#adacb1417b461310c5c87f72c459c1985" target="_top" xlink:title="ZendDbSchema_Db_Schema_AbstractSchema\\getOriginName">
<polygon fill="white" stroke="black" points="1726.5,-40.5 1726.5,-61.5 2019.5,-61.5 2019.5,-40.5 1726.5,-40.5"/>
<text text-anchor="middle" x="1873" y="-48.5" font-family="Helvetica,sans-Serif" font-size="10.00">ZendDbSchema_Db_Schema_AbstractSchema\getOriginName</text>
</a>
</g>
<!-- Node6&#45;&gt;Node7 -->
<g id="edge14" class="edge"><title>Node6&#45;&gt;Node7</title>
<path fill="none" stroke="midnightblue" d="M1634.09,-51C1661.4,-51 1689.41,-51 1716.19,-51"/>
<polygon fill="midnightblue" stroke="midnightblue" points="1716.39,-54.5001 1726.39,-51 1716.39,-47.5001 1716.39,-54.5001"/>
</g>
<!-- Node8 -->
<g id="node16" class="node"><title>Node8</title>
<a xlink:href="classZendDbSchema__Db__Schema__AbstractSchema.html#a55787c21deddba427842809d589c2df6" target="_top" xlink:title="ZendDbSchema_Db_Schema_AbstractSchema\\getName">
<polygon fill="white" stroke="black" points="2112.5,-40.5 2112.5,-61.5 2379.5,-61.5 2379.5,-40.5 2112.5,-40.5"/>
<text text-anchor="middle" x="2246" y="-48.5" font-family="Helvetica,sans-Serif" font-size="10.00">ZendDbSchema_Db_Schema_AbstractSchema\getName</text>
</a>
</g>
<!-- Node7&#45;&gt;Node8 -->
<g id="edge16" class="edge"><title>Node7&#45;&gt;Node8</title>
<path fill="none" stroke="midnightblue" d="M2019.62,-51C2046.75,-51 2075.06,-51 2102.11,-51"/>
<polygon fill="midnightblue" stroke="midnightblue" points="2102.41,-54.5001 2112.41,-51 2102.41,-47.5001 2102.41,-54.5001"/>
</g>
<!-- Node9 -->
<g id="node18" class="node"><title>Node9</title>
<a xlink:href="classZendDbSchema__Db__Schema__AbstractSchema.html#a54d32c6f15463eaad2321a9f0e7225d7" target="_top" xlink:title="ZendDbSchema_Db_Schema_AbstractSchema\\__get">
<polygon fill="white" stroke="black" points="2416.5,-40.5 2416.5,-61.5 2667.5,-61.5 2667.5,-40.5 2416.5,-40.5"/>
<text text-anchor="middle" x="2542" y="-48.5" font-family="Helvetica,sans-Serif" font-size="10.00">ZendDbSchema_Db_Schema_AbstractSchema\__get</text>
</a>
</g>
<!-- Node8&#45;&gt;Node9 -->
<g id="edge18" class="edge"><title>Node8&#45;&gt;Node9</title>
<path fill="none" stroke="midnightblue" d="M2379.71,-51C2388.41,-51 2397.18,-51 2405.89,-51"/>
<polygon fill="midnightblue" stroke="midnightblue" points="2406.08,-54.5001 2416.08,-51 2406.08,-47.5001 2406.08,-54.5001"/>
</g>
<!-- Node10 -->
<g id="node20" class="node"><title>Node10</title>
<a xlink:href="classZendDbSchema__Db__Schema__AbstractSchema.html#ac4e121ba7932163eb1950fabe06fb9db" target="_top" xlink:title="ZendDbSchema_Db_Schema_AbstractSchema\\__isset">
<polygon fill="white" stroke="black" points="2704.5,-40.5 2704.5,-61.5 2963.5,-61.5 2963.5,-40.5 2704.5,-40.5"/>
<text text-anchor="middle" x="2834" y="-48.5" font-family="Helvetica,sans-Serif" font-size="10.00">ZendDbSchema_Db_Schema_AbstractSchema\__isset</text>
</a>
</g>
<!-- Node9&#45;&gt;Node10 -->
<g id="edge20" class="edge"><title>Node9&#45;&gt;Node10</title>
<path fill="none" stroke="midnightblue" d="M2667.53,-51C2676.4,-51 2685.38,-51 2694.32,-51"/>
<polygon fill="midnightblue" stroke="midnightblue" points="2694.4,-54.5001 2704.4,-51 2694.4,-47.5001 2694.4,-54.5001"/>
</g>
</g>
</svg>
