<?xml version="1.0" encoding="UTF-8" standalone="no"?>
<!DOCTYPE svg PUBLIC "-//W3C//DTD SVG 1.1//EN"
 "http://www.w3.org/Graphics/SVG/1.1/DTD/svg11.dtd">
<!-- Generated by graphviz version 2.26.3 (20100126.1600)
 -->
<!-- Title: G Pages: 1 -->
<svg width="2542pt" height="110pt"
 viewBox="0.00 0.00 2542.00 110.00" xmlns="http://www.w3.org/2000/svg" xmlns:xlink="http://www.w3.org/1999/xlink">
<g id="graph1" class="graph" transform="scale(1 1) rotate(0) translate(4 106)">
<title>G</title>
<polygon fill="white" stroke="white" points="-4,5 -4,-106 2539,-106 2539,5 -4,5"/>
<!-- Node1 -->
<g id="node1" class="node"><title>Node1</title>
<polygon fill="#bfbfbf" stroke="black" points="0,-40.5 0,-61.5 372,-61.5 372,-40.5 0,-40.5"/>
<text text-anchor="middle" x="186" y="-48.5" font-family="Helvetica,sans-Serif" font-size="10.00">ZendDbSchema_Db_Schema_Table_DefinitionManager_AbstractManager\refresh</text>
</g>
<!-- Node2 -->
<g id="node3" class="node"><title>Node2</title>
<a xlink:href="classZendDbSchema__Db__Schema__Table__DefinitionManager__AbstractManager.html#a40677ee7cb91e19c1587bdda9e73d3d5" target="_top" xlink:title="ZendDbSchema_Db_Schema_Table_DefinitionManager_AbstractManager\\setFromArray">
<polygon fill="white" stroke="black" points="408.5,-40.5 408.5,-61.5 809.5,-61.5 809.5,-40.5 408.5,-40.5"/>
<text text-anchor="middle" x="609" y="-48.5" font-family="Helvetica,sans-Serif" font-size="10.00">ZendDbSchema_Db_Schema_Table_DefinitionManager_AbstractManager\setFromArray</text>
</a>
</g>
<!-- Node1&#45;&gt;Node2 -->
<g id="edge2" class="edge"><title>Node1&#45;&gt;Node2</title>
<path fill="none" stroke="midnightblue" d="M372.15,-51C380.752,-51 389.412,-51 398.07,-51"/>
<polygon fill="midnightblue" stroke="midnightblue" points="398.231,-54.5001 408.23,-51 398.23,-47.5001 398.231,-54.5001"/>
</g>
<!-- Node3 -->
<g id="node5" class="node"><title>Node3</title>
<a xlink:href="classZendDbSchema__Db__Schema__Table__DefinitionManager__AbstractManager.html#ac62cf058c89132b0ff9223d9fcefdb8a" target="_top" xlink:title="ZendDbSchema_Db_Schema_Table_DefinitionManager_AbstractManager\\_getItemClass">
<polygon fill="white" stroke="black" points="1240,-80.5 1240,-101.5 1646,-101.5 1646,-80.5 1240,-80.5"/>
<text text-anchor="middle" x="1443" y="-88.5" font-family="Helvetica,sans-Serif" font-size="10.00">ZendDbSchema_Db_Schema_Table_DefinitionManager_AbstractManager\_getItemClass</text>
</a>
</g>
<!-- Node2&#45;&gt;Node3 -->
<g id="edge4" class="edge"><title>Node2&#45;&gt;Node3</title>
<path fill="none" stroke="midnightblue" d="M719.842,-61.5239C759.599,-64.9889 804.779,-68.5718 846,-71 973.122,-78.4883 1115.65,-83.3944 1229.55,-86.4726"/>
<polygon fill="midnightblue" stroke="midnightblue" points="1229.7,-89.9776 1239.79,-86.7464 1229.88,-82.9801 1229.7,-89.9776"/>
</g>
<!-- Node4 -->
<g id="node7" class="node"><title>Node4</title>
<a xlink:href="classZendDbSchema__Db__Schema__Table__DefinitionManager__AbstractManager.html#ad0261d0db60ff459f97adc23b2d16931" target="_top" xlink:title="ZendDbSchema_Db_Schema_Table_DefinitionManager_AbstractManager\\has">
<polygon fill="white" stroke="black" points="1264,-0.5 1264,-21.5 1622,-21.5 1622,-0.5 1264,-0.5"/>
<text text-anchor="middle" x="1443" y="-8.5" font-family="Helvetica,sans-Serif" font-size="10.00">ZendDbSchema_Db_Schema_Table_DefinitionManager_AbstractManager\has</text>
</a>
</g>
<!-- Node2&#45;&gt;Node4 -->
<g id="edge6" class="edge"><title>Node2&#45;&gt;Node4</title>
<path fill="none" stroke="midnightblue" d="M719.842,-40.4761C759.599,-37.0111 804.779,-33.4282 846,-31 982.303,-22.9709 1136.32,-17.9104 1253.77,-14.8887"/>
<polygon fill="midnightblue" stroke="midnightblue" points="1254.04,-18.3832 1263.94,-14.6297 1253.86,-11.3854 1254.04,-18.3832"/>
</g>
<!-- Node5 -->
<g id="node9" class="node"><title>Node5</title>
<a xlink:href="classZendDbSchema__Db__Schema__Table__DefinitionManager__AbstractManager.html#a6d815884ca03c003ac7f8d633e97f7c6" target="_top" xlink:title="ZendDbSchema_Db_Schema_Table_DefinitionManager_AbstractManager\\add">
<polygon fill="white" stroke="black" points="846,-40.5 846,-61.5 1204,-61.5 1204,-40.5 846,-40.5"/>
<text text-anchor="middle" x="1025" y="-48.5" font-family="Helvetica,sans-Serif" font-size="10.00">ZendDbSchema_Db_Schema_Table_DefinitionManager_AbstractManager\add</text>
</a>
</g>
<!-- Node2&#45;&gt;Node5 -->
<g id="edge8" class="edge"><title>Node2&#45;&gt;Node5</title>
<path fill="none" stroke="midnightblue" d="M809.689,-51C818.35,-51 827.029,-51 835.664,-51"/>
<polygon fill="midnightblue" stroke="midnightblue" points="835.777,-54.5001 845.777,-51 835.777,-47.5001 835.777,-54.5001"/>
</g>
<!-- Node5&#45;&gt;Node3 -->
<g id="edge10" class="edge"><title>Node5&#45;&gt;Node3</title>
<path fill="none" stroke="midnightblue" d="M1134.82,-61.5095C1192.68,-67.0455 1263.72,-73.8443 1323.02,-79.5183"/>
<polygon fill="midnightblue" stroke="midnightblue" points="1322.9,-83.0227 1333.18,-80.4913 1323.56,-76.0545 1322.9,-83.0227"/>
</g>
<!-- Node5&#45;&gt;Node4 -->
<g id="edge20" class="edge"><title>Node5&#45;&gt;Node4</title>
<path fill="none" stroke="midnightblue" d="M1134.82,-40.4905C1192.68,-34.9545 1263.72,-28.1557 1323.02,-22.4817"/>
<polygon fill="midnightblue" stroke="midnightblue" points="1323.56,-25.9455 1333.18,-21.5087 1322.9,-18.9773 1323.56,-25.9455"/>
</g>
<!-- Node6 -->
<g id="node12" class="node"><title>Node6</title>
<a xlink:href="classZendDbSchema__Db__Schema__AbstractSchema.html#adacb1417b461310c5c87f72c459c1985" target="_top" xlink:title="ZendDbSchema_Db_Schema_AbstractSchema\\getOriginName">
<polygon fill="white" stroke="black" points="1296.5,-40.5 1296.5,-61.5 1589.5,-61.5 1589.5,-40.5 1296.5,-40.5"/>
<text text-anchor="middle" x="1443" y="-48.5" font-family="Helvetica,sans-Serif" font-size="10.00">ZendDbSchema_Db_Schema_AbstractSchema\getOriginName</text>
</a>
</g>
<!-- Node5&#45;&gt;Node6 -->
<g id="edge12" class="edge"><title>Node5&#45;&gt;Node6</title>
<path fill="none" stroke="midnightblue" d="M1204.09,-51C1231.4,-51 1259.41,-51 1286.19,-51"/>
<polygon fill="midnightblue" stroke="midnightblue" points="1286.39,-54.5001 1296.39,-51 1286.39,-47.5001 1286.39,-54.5001"/>
</g>
<!-- Node7 -->
<g id="node14" class="node"><title>Node7</title>
<a xlink:href="classZendDbSchema__Db__Schema__AbstractSchema.html#a55787c21deddba427842809d589c2df6" target="_top" xlink:title="ZendDbSchema_Db_Schema_AbstractSchema\\getName">
<polygon fill="white" stroke="black" points="1682.5,-40.5 1682.5,-61.5 1949.5,-61.5 1949.5,-40.5 1682.5,-40.5"/>
<text text-anchor="middle" x="1816" y="-48.5" font-family="Helvetica,sans-Serif" font-size="10.00">ZendDbSchema_Db_Schema_AbstractSchema\getName</text>
</a>
</g>
<!-- Node6&#45;&gt;Node7 -->
<g id="edge14" class="edge"><title>Node6&#45;&gt;Node7</title>
<path fill="none" stroke="midnightblue" d="M1589.62,-51C1616.75,-51 1645.06,-51 1672.11,-51"/>
<polygon fill="midnightblue" stroke="midnightblue" points="1672.41,-54.5001 1682.41,-51 1672.41,-47.5001 1672.41,-54.5001"/>
</g>
<!-- Node8 -->
<g id="node16" class="node"><title>Node8</title>
<a xlink:href="classZendDbSchema__Db__Schema__AbstractSchema.html#a54d32c6f15463eaad2321a9f0e7225d7" target="_top" xlink:title="ZendDbSchema_Db_Schema_AbstractSchema\\__get">
<polygon fill="white" stroke="black" points="1986.5,-40.5 1986.5,-61.5 2237.5,-61.5 2237.5,-40.5 1986.5,-40.5"/>
<text text-anchor="middle" x="2112" y="-48.5" font-family="Helvetica,sans-Serif" font-size="10.00">ZendDbSchema_Db_Schema_AbstractSchema\__get</text>
</a>
</g>
<!-- Node7&#45;&gt;Node8 -->
<g id="edge16" class="edge"><title>Node7&#45;&gt;Node8</title>
<path fill="none" stroke="midnightblue" d="M1949.71,-51C1958.41,-51 1967.18,-51 1975.89,-51"/>
<polygon fill="midnightblue" stroke="midnightblue" points="1976.08,-54.5001 1986.08,-51 1976.08,-47.5001 1976.08,-54.5001"/>
</g>
<!-- Node9 -->
<g id="node18" class="node"><title>Node9</title>
<a xlink:href="classZendDbSchema__Db__Schema__AbstractSchema.html#ac4e121ba7932163eb1950fabe06fb9db" target="_top" xlink:title="ZendDbSchema_Db_Schema_AbstractSchema\\__isset">
<polygon fill="white" stroke="black" points="2274.5,-40.5 2274.5,-61.5 2533.5,-61.5 2533.5,-40.5 2274.5,-40.5"/>
<text text-anchor="middle" x="2404" y="-48.5" font-family="Helvetica,sans-Serif" font-size="10.00">ZendDbSchema_Db_Schema_AbstractSchema\__isset</text>
</a>
</g>
<!-- Node8&#45;&gt;Node9 -->
<g id="edge18" class="edge"><title>Node8&#45;&gt;Node9</title>
<path fill="none" stroke="midnightblue" d="M2237.53,-51C2246.4,-51 2255.38,-51 2264.32,-51"/>
<polygon fill="midnightblue" stroke="midnightblue" points="2264.4,-54.5001 2274.4,-51 2264.4,-47.5001 2264.4,-54.5001"/>
</g>
</g>
</svg>
