<?xml version="1.0" encoding="UTF-8" standalone="no"?>
<!DOCTYPE svg PUBLIC "-//W3C//DTD SVG 1.1//EN"
 "http://www.w3.org/Graphics/SVG/1.1/DTD/svg11.dtd">
<!-- Generated by graphviz version 2.26.3 (20100126.1600)
 -->
<!-- Title: G Pages: 1 -->
<svg width="970pt" height="50pt"
 viewBox="0.00 0.00 970.00 50.00" xmlns="http://www.w3.org/2000/svg" xmlns:xlink="http://www.w3.org/1999/xlink">
<g id="graph1" class="graph" transform="scale(1 1) rotate(0) translate(4 46)">
<title>G</title>
<polygon fill="white" stroke="white" points="-4,5 -4,-46 967,-46 967,5 -4,5"/>
<!-- Node1 -->
<g id="node1" class="node"><title>Node1</title>
<polygon fill="#bfbfbf" stroke="black" points="0,-0.5 0,-21.5 324,-21.5 324,-0.5 0,-0.5"/>
<text text-anchor="middle" x="162" y="-8.5" font-family="Helvetica,sans-Serif" font-size="10.00">ZendDbSchema_Db_Schema_Table_Manager_Column\_getItemClass</text>
</g>
<!-- Node2 -->
<g id="node3" class="node"><title>Node2</title>
<a xlink:href="classZendDbSchema__Db__Schema__Table__Manager__Column.html#a1265f7c88df7401761b8e5dde4e94da1" target="_top" xlink:title="ZendDbSchema_Db_Schema_Table_Manager_Column\\add">
<polygon fill="white" stroke="black" points="360,-20.5 360,-41.5 636,-41.5 636,-20.5 360,-20.5"/>
<text text-anchor="middle" x="498" y="-28.5" font-family="Helvetica,sans-Serif" font-size="10.00">ZendDbSchema_Db_Schema_Table_Manager_Column\add</text>
</a>
</g>
<!-- Node1&#45;&gt;Node2 -->
<g id="edge2" class="edge"><title>Node1&#45;&gt;Node2</title>
<path fill="none" stroke="midnightblue" d="M334.152,-21.2471C342.718,-21.757 351.27,-22.2661 359.718,-22.769"/>
<polygon fill="midnightblue" stroke="midnightblue" points="334.285,-17.749 324.095,-20.6485 333.869,-24.7366 334.285,-17.749"/>
</g>
<!-- Node3 -->
<g id="node5" class="node"><title>Node3</title>
<a xlink:href="classZendDbSchema__Db__Schema__Table__Manager__Column.html#a2fe390d7ee88040f30bb31329d4ed5b9" target="_top" xlink:title="ZendDbSchema_Db_Schema_Table_Manager_Column\\refresh">
<polygon fill="white" stroke="black" points="672,-0.5 672,-21.5 962,-21.5 962,-0.5 672,-0.5"/>
<text text-anchor="middle" x="817" y="-8.5" font-family="Helvetica,sans-Serif" font-size="10.00">ZendDbSchema_Db_Schema_Table_Manager_Column\refresh</text>
</a>
</g>
<!-- Node1&#45;&gt;Node3 -->
<g id="edge6" class="edge"><title>Node1&#45;&gt;Node3</title>
<path fill="none" stroke="midnightblue" d="M334.411,-11C439.485,-11 572.252,-11 671.921,-11"/>
<polygon fill="midnightblue" stroke="midnightblue" points="334.331,-7.5001 324.331,-11 334.331,-14.5001 334.331,-7.5001"/>
</g>
<!-- Node2&#45;&gt;Node3 -->
<g id="edge4" class="edge"><title>Node2&#45;&gt;Node3</title>
<path fill="none" stroke="midnightblue" d="M646.111,-21.714C654.694,-21.1759 663.32,-20.6351 671.891,-20.0978"/>
<polygon fill="midnightblue" stroke="midnightblue" points="645.824,-18.2251 636.063,-22.344 646.262,-25.2113 645.824,-18.2251"/>
</g>
</g>
</svg>
