<?xml version="1.0" encoding="UTF-8" standalone="no"?>
<!DOCTYPE svg PUBLIC "-//W3C//DTD SVG 1.1//EN"
 "http://www.w3.org/Graphics/SVG/1.1/DTD/svg11.dtd">
<!-- Generated by graphviz version 2.26.3 (20100126.1600)
 -->
<!-- Title: G Pages: 1 -->
<svg width="1618pt" height="138pt"
 viewBox="0.00 0.00 1618.00 138.00" xmlns="http://www.w3.org/2000/svg" xmlns:xlink="http://www.w3.org/1999/xlink">
<g id="graph1" class="graph" transform="scale(1 1) rotate(0) translate(4 134)">
<title>G</title>
<polygon fill="white" stroke="white" points="-4,5 -4,-134 1615,-134 1615,5 -4,5"/>
<!-- Node1 -->
<g id="node1" class="node"><title>Node1</title>
<polygon fill="#bfbfbf" stroke="black" points="0.5,-69.5 0.5,-90.5 299.5,-90.5 299.5,-69.5 0.5,-69.5"/>
<text text-anchor="middle" x="150" y="-77.5" font-family="Helvetica,sans-Serif" font-size="10.00">ZendDbSchema_Db_Schema_Table_ForeignKey\removeColumn</text>
</g>
<!-- Node2 -->
<g id="node3" class="node"><title>Node2</title>
<a xlink:href="classZendDbSchema__Db__Schema__Table__ForeignKey.html#a275e68bc4f9eebe1af1ec77e6d0b731e" target="_top" xlink:title="ZendDbSchema_Db_Schema_Table_ForeignKey\\hasColumn">
<polygon fill="white" stroke="black" points="337.5,-108.5 337.5,-129.5 620.5,-129.5 620.5,-108.5 337.5,-108.5"/>
<text text-anchor="middle" x="479" y="-116.5" font-family="Helvetica,sans-Serif" font-size="10.00">ZendDbSchema_Db_Schema_Table_ForeignKey\hasColumn</text>
</a>
</g>
<!-- Node1&#45;&gt;Node2 -->
<g id="edge2" class="edge"><title>Node1&#45;&gt;Node2</title>
<path fill="none" stroke="midnightblue" d="M238.599,-90.5026C282.303,-95.6833 335.162,-101.949 380.173,-107.285"/>
<polygon fill="midnightblue" stroke="midnightblue" points="379.901,-110.777 390.243,-108.479 380.725,-103.826 379.901,-110.777"/>
</g>
<!-- Node3 -->
<g id="node5" class="node"><title>Node3</title>
<a xlink:href="classZendDbSchema__Db__Schema__Table__ForeignKey.html#a5cd45e4bc92ac5975975753e459b4c8c" target="_top" xlink:title="ZendDbSchema_Db_Schema_Table_ForeignKey\\getColumns">
<polygon fill="white" stroke="black" points="658,-89.5 658,-110.5 944,-110.5 944,-89.5 658,-89.5"/>
<text text-anchor="middle" x="801" y="-97.5" font-family="Helvetica,sans-Serif" font-size="10.00">ZendDbSchema_Db_Schema_Table_ForeignKey\getColumns</text>
</a>
</g>
<!-- Node1&#45;&gt;Node3 -->
<g id="edge10" class="edge"><title>Node1&#45;&gt;Node3</title>
<path fill="none" stroke="midnightblue" d="M299.761,-84.601C404.055,-87.8051 542.727,-92.0653 647.772,-95.2925"/>
<polygon fill="midnightblue" stroke="midnightblue" points="647.727,-98.7927 657.83,-95.6015 647.943,-91.796 647.727,-98.7927"/>
</g>
<!-- Node6 -->
<g id="node12" class="node"><title>Node6</title>
<a xlink:href="classZendDbSchema__Db__Schema__Table__ForeignKey.html#afb0c42af85a63c6347973ce79d2e7d80" target="_top" xlink:title="ZendDbSchema_Db_Schema_Table_ForeignKey\\setColumns">
<polygon fill="white" stroke="black" points="336,-30.5 336,-51.5 622,-51.5 622,-30.5 336,-30.5"/>
<text text-anchor="middle" x="479" y="-38.5" font-family="Helvetica,sans-Serif" font-size="10.00">ZendDbSchema_Db_Schema_Table_ForeignKey\setColumns</text>
</a>
</g>
<!-- Node1&#45;&gt;Node6 -->
<g id="edge12" class="edge"><title>Node1&#45;&gt;Node6</title>
<path fill="none" stroke="midnightblue" d="M238.599,-69.4974C282.303,-64.3167 335.162,-58.0507 380.173,-52.7151"/>
<polygon fill="midnightblue" stroke="midnightblue" points="380.725,-56.1743 390.243,-51.5213 379.901,-49.2229 380.725,-56.1743"/>
</g>
<!-- Node2&#45;&gt;Node3 -->
<g id="edge4" class="edge"><title>Node2&#45;&gt;Node3</title>
<path fill="none" stroke="midnightblue" d="M620.702,-110.639C629.652,-110.111 638.682,-109.578 647.679,-109.047"/>
<polygon fill="midnightblue" stroke="midnightblue" points="648.042,-112.532 657.819,-108.449 647.63,-105.544 648.042,-112.532"/>
</g>
<!-- Node4 -->
<g id="node7" class="node"><title>Node4</title>
<a xlink:href="classZendDbSchema__Db__Schema__AbstractSchema.html#a54d32c6f15463eaad2321a9f0e7225d7" target="_top" xlink:title="ZendDbSchema_Db_Schema_AbstractSchema\\__get">
<polygon fill="white" stroke="black" points="1021.5,-89.5 1021.5,-110.5 1272.5,-110.5 1272.5,-89.5 1021.5,-89.5"/>
<text text-anchor="middle" x="1147" y="-97.5" font-family="Helvetica,sans-Serif" font-size="10.00">ZendDbSchema_Db_Schema_AbstractSchema\__get</text>
</a>
</g>
<!-- Node3&#45;&gt;Node4 -->
<g id="edge6" class="edge"><title>Node3&#45;&gt;Node4</title>
<path fill="none" stroke="midnightblue" d="M944.229,-100C966.397,-100 989.237,-100 1011.23,-100"/>
<polygon fill="midnightblue" stroke="midnightblue" points="1011.28,-103.5 1021.28,-100 1011.28,-96.5001 1011.28,-103.5"/>
</g>
<!-- Node5 -->
<g id="node9" class="node"><title>Node5</title>
<a xlink:href="classZendDbSchema__Db__Schema__AbstractSchema.html#ac4e121ba7932163eb1950fabe06fb9db" target="_top" xlink:title="ZendDbSchema_Db_Schema_AbstractSchema\\__isset">
<polygon fill="white" stroke="black" points="1350.5,-89.5 1350.5,-110.5 1609.5,-110.5 1609.5,-89.5 1350.5,-89.5"/>
<text text-anchor="middle" x="1480" y="-97.5" font-family="Helvetica,sans-Serif" font-size="10.00">ZendDbSchema_Db_Schema_AbstractSchema\__isset</text>
</a>
</g>
<!-- Node4&#45;&gt;Node5 -->
<g id="edge8" class="edge"><title>Node4&#45;&gt;Node5</title>
<path fill="none" stroke="midnightblue" d="M1272.89,-100C1294.85,-100 1317.82,-100 1340.13,-100"/>
<polygon fill="midnightblue" stroke="midnightblue" points="1340.33,-103.5 1350.33,-100 1340.33,-96.5001 1340.33,-103.5"/>
</g>
<!-- Node7 -->
<g id="node14" class="node"><title>Node7</title>
<a xlink:href="classZendDbSchema__Db__Schema__Table__AbstractDefinition.html#a65498451683b2cf8fd1dc65f7f03581d" target="_top" xlink:title="ZendDbSchema_Db_Schema_Table_AbstractDefinition\\__set">
<polygon fill="white" stroke="black" points="658,-30.5 658,-51.5 944,-51.5 944,-30.5 658,-30.5"/>
<text text-anchor="middle" x="801" y="-38.5" font-family="Helvetica,sans-Serif" font-size="10.00">ZendDbSchema_Db_Schema_Table_AbstractDefinition\__set</text>
</a>
</g>
<!-- Node6&#45;&gt;Node7 -->
<g id="edge14" class="edge"><title>Node6&#45;&gt;Node7</title>
<path fill="none" stroke="midnightblue" d="M622.109,-41C630.62,-41 639.199,-41 647.748,-41"/>
<polygon fill="midnightblue" stroke="midnightblue" points="647.765,-44.5001 657.765,-41 647.765,-37.5001 647.765,-44.5001"/>
</g>
<!-- Node8 -->
<g id="node16" class="node"><title>Node8</title>
<a xlink:href="classZendDbSchema__Db__Schema__Table__AbstractDefinition.html#a224b6a0c1df1d6ed40e03657782ef6fc" target="_top" xlink:title="ZendDbSchema_Db_Schema_Table_AbstractDefinition\\getTable">
<polygon fill="white" stroke="black" points="997.5,-40.5 997.5,-61.5 1296.5,-61.5 1296.5,-40.5 997.5,-40.5"/>
<text text-anchor="middle" x="1147" y="-48.5" font-family="Helvetica,sans-Serif" font-size="10.00">ZendDbSchema_Db_Schema_Table_AbstractDefinition\getTable</text>
</a>
</g>
<!-- Node7&#45;&gt;Node8 -->
<g id="edge16" class="edge"><title>Node7&#45;&gt;Node8</title>
<path fill="none" stroke="midnightblue" d="M944.229,-45.1396C958.366,-45.5482 972.777,-45.9647 987.068,-46.3777"/>
<polygon fill="midnightblue" stroke="midnightblue" points="987.351,-49.8872 997.448,-46.6777 987.553,-42.8901 987.351,-49.8872"/>
</g>
<!-- Node9 -->
<g id="node18" class="node"><title>Node9</title>
<a xlink:href="classZendDbSchema__Db__Schema__Table__AbstractDefinition.html#a2fb894602c4b7fbba5dd1d180f93c181" target="_top" xlink:title="ZendDbSchema_Db_Schema_Table_AbstractDefinition\\_getSchemaKey">
<polygon fill="white" stroke="black" points="980,-0.5 980,-21.5 1314,-21.5 1314,-0.5 980,-0.5"/>
<text text-anchor="middle" x="1147" y="-8.5" font-family="Helvetica,sans-Serif" font-size="10.00">ZendDbSchema_Db_Schema_Table_AbstractDefinition\_getSchemaKey</text>
</a>
</g>
<!-- Node7&#45;&gt;Node9 -->
<g id="edge18" class="edge"><title>Node7&#45;&gt;Node9</title>
<path fill="none" stroke="midnightblue" d="M922.5,-30.4653C952.59,-27.8563 984.968,-25.049 1015.51,-22.4008"/>
<polygon fill="midnightblue" stroke="midnightblue" points="1016.13,-25.8602 1025.79,-21.5093 1015.53,-18.8863 1016.13,-25.8602"/>
</g>
</g>
</svg>
