<?xml version="1.0" encoding="UTF-8" standalone="no"?>
<!DOCTYPE svg PUBLIC "-//W3C//DTD SVG 1.1//EN"
 "http://www.w3.org/Graphics/SVG/1.1/DTD/svg11.dtd">
<!-- Generated by graphviz version 2.26.3 (20100126.1600)
 -->
<!-- Title: G Pages: 1 -->
<svg width="942pt" height="50pt"
 viewBox="0.00 0.00 942.00 50.00" xmlns="http://www.w3.org/2000/svg" xmlns:xlink="http://www.w3.org/1999/xlink">
<g id="graph1" class="graph" transform="scale(1 1) rotate(0) translate(4 46)">
<title>G</title>
<polygon fill="white" stroke="white" points="-4,5 -4,-46 939,-46 939,5 -4,5"/>
<!-- Node1 -->
<g id="node1" class="node"><title>Node1</title>
<polygon fill="#bfbfbf" stroke="black" points="0,-0.5 0,-21.5 314,-21.5 314,-0.5 0,-0.5"/>
<text text-anchor="middle" x="157" y="-8.5" font-family="Helvetica,sans-Serif" font-size="10.00">ZendDbSchema_Db_Schema_Table_Manager_Index\_getItemClass</text>
</g>
<!-- Node2 -->
<g id="node3" class="node"><title>Node2</title>
<a xlink:href="classZendDbSchema__Db__Schema__Table__Manager__Index.html#aad5593d15638018cb662002f35f1a975" target="_top" xlink:title="ZendDbSchema_Db_Schema_Table_Manager_Index\\add">
<polygon fill="white" stroke="black" points="350,-20.5 350,-41.5 616,-41.5 616,-20.5 350,-20.5"/>
<text text-anchor="middle" x="483" y="-28.5" font-family="Helvetica,sans-Serif" font-size="10.00">ZendDbSchema_Db_Schema_Table_Manager_Index\add</text>
</a>
</g>
<!-- Node1&#45;&gt;Node2 -->
<g id="edge2" class="edge"><title>Node1&#45;&gt;Node2</title>
<path fill="none" stroke="midnightblue" d="M324.303,-21.264C332.848,-21.7882 341.378,-22.3115 349.797,-22.828"/>
<polygon fill="midnightblue" stroke="midnightblue" points="324.466,-17.7675 314.271,-20.6485 324.037,-24.7544 324.466,-17.7675"/>
</g>
<!-- Node3 -->
<g id="node5" class="node"><title>Node3</title>
<a xlink:href="classZendDbSchema__Db__Schema__Table__Manager__Index.html#ae736a0eff081db2c7de80e635021ccc9" target="_top" xlink:title="ZendDbSchema_Db_Schema_Table_Manager_Index\\refresh">
<polygon fill="white" stroke="black" points="652.5,-0.5 652.5,-21.5 933.5,-21.5 933.5,-0.5 652.5,-0.5"/>
<text text-anchor="middle" x="793" y="-8.5" font-family="Helvetica,sans-Serif" font-size="10.00">ZendDbSchema_Db_Schema_Table_Manager_Index\refresh</text>
</a>
</g>
<!-- Node1&#45;&gt;Node3 -->
<g id="edge6" class="edge"><title>Node1&#45;&gt;Node3</title>
<path fill="none" stroke="midnightblue" d="M324.328,-11C426.492,-11 555.642,-11 652.484,-11"/>
<polygon fill="midnightblue" stroke="midnightblue" points="324.214,-7.5001 314.214,-11 324.213,-14.5001 324.214,-7.5001"/>
</g>
<!-- Node2&#45;&gt;Node3 -->
<g id="edge4" class="edge"><title>Node2&#45;&gt;Node3</title>
<path fill="none" stroke="midnightblue" d="M626.41,-21.7477C635.075,-21.1887 643.789,-20.6265 652.442,-20.0683"/>
<polygon fill="midnightblue" stroke="midnightblue" points="626.021,-18.2655 616.267,-22.4021 626.472,-25.251 626.021,-18.2655"/>
</g>
</g>
</svg>
