<?xml version="1.0" encoding="UTF-8" standalone="no"?>
<!DOCTYPE svg PUBLIC "-//W3C//DTD SVG 1.1//EN"
 "http://www.w3.org/Graphics/SVG/1.1/DTD/svg11.dtd">
<!-- Generated by graphviz version 2.26.3 (20100126.1600)
 -->
<!-- Title: G Pages: 1 -->
<svg width="894pt" height="122pt"
 viewBox="0.00 0.00 894.00 122.00" xmlns="http://www.w3.org/2000/svg" xmlns:xlink="http://www.w3.org/1999/xlink">
<g id="graph1" class="graph" transform="scale(1 1) rotate(0) translate(4 118)">
<title>G</title>
<polygon fill="white" stroke="white" points="-4,5 -4,-118 891,-118 891,5 -4,5"/>
<!-- Node1 -->
<g id="node1" class="node"><title>Node1</title>
<polygon fill="#bfbfbf" stroke="black" points="0,-33.5 0,-80.5 146,-80.5 146,-33.5 0,-33.5"/>
<text text-anchor="start" x="8" y="-67.5" font-family="Helvetica,sans-Serif" font-size="10.00">ZendDbSchema_Db_Schema</text>
<text text-anchor="start" x="8" y="-54.5" font-family="Helvetica,sans-Serif" font-size="10.00">_Generator_Mysql_Table</text>
<text text-anchor="middle" x="73" y="-41.5" font-family="Helvetica,sans-Serif" font-size="10.00">\alterPrimaryKey</text>
</g>
<!-- Node2 -->
<g id="node3" class="node"><title>Node2</title>
<a xlink:href="classZendDbSchema__Db__Schema__Generator__Mysql__Table.html#a8204749fa41366650dee5e3e3d9fac03" target="_top" xlink:title="ZendDbSchema_Db_Schema\l_Generator_Mysql_Table\l\\dropPrimaryKey">
<polygon fill="white" stroke="black" points="182,-66.5 182,-113.5 328,-113.5 328,-66.5 182,-66.5"/>
<text text-anchor="start" x="190" y="-100.5" font-family="Helvetica,sans-Serif" font-size="10.00">ZendDbSchema_Db_Schema</text>
<text text-anchor="start" x="190" y="-87.5" font-family="Helvetica,sans-Serif" font-size="10.00">_Generator_Mysql_Table</text>
<text text-anchor="middle" x="255" y="-74.5" font-family="Helvetica,sans-Serif" font-size="10.00">\dropPrimaryKey</text>
</a>
</g>
<!-- Node1&#45;&gt;Node2 -->
<g id="edge2" class="edge"><title>Node1&#45;&gt;Node2</title>
<path fill="none" stroke="midnightblue" d="M146.24,-70.2797C154.688,-71.8116 163.349,-73.3819 171.916,-74.9352"/>
<polygon fill="midnightblue" stroke="midnightblue" points="171.446,-78.4071 181.91,-76.7475 172.695,-71.5194 171.446,-78.4071"/>
</g>
<!-- Node4 -->
<g id="node7" class="node"><title>Node4</title>
<a xlink:href="classZendDbSchema__Db__Schema__Generator__Mysql__Table.html#a9daf95057d9d7a294b6ef45487818503" target="_top" xlink:title="ZendDbSchema_Db_Schema\l_Generator_Mysql_Table\l\\addPrimaryKey">
<polygon fill="white" stroke="black" points="182,-0.5 182,-47.5 328,-47.5 328,-0.5 182,-0.5"/>
<text text-anchor="start" x="190" y="-34.5" font-family="Helvetica,sans-Serif" font-size="10.00">ZendDbSchema_Db_Schema</text>
<text text-anchor="start" x="190" y="-21.5" font-family="Helvetica,sans-Serif" font-size="10.00">_Generator_Mysql_Table</text>
<text text-anchor="middle" x="255" y="-8.5" font-family="Helvetica,sans-Serif" font-size="10.00">\addPrimaryKey</text>
</a>
</g>
<!-- Node1&#45;&gt;Node4 -->
<g id="edge6" class="edge"><title>Node1&#45;&gt;Node4</title>
<path fill="none" stroke="midnightblue" d="M146.24,-43.7203C154.688,-42.1884 163.349,-40.6181 171.916,-39.0648"/>
<polygon fill="midnightblue" stroke="midnightblue" points="172.695,-42.4806 181.91,-37.2525 171.446,-35.5929 172.695,-42.4806"/>
</g>
<!-- Node3 -->
<g id="node5" class="node"><title>Node3</title>
<a xlink:href="classZendDbSchema__Db__Schema__Table__AbstractDefinition.html#a224b6a0c1df1d6ed40e03657782ef6fc" target="_top" xlink:title="ZendDbSchema_Db_Schema\l_Table_AbstractDefinition\l\\getTable">
<polygon fill="white" stroke="black" points="370,-62.5 370,-109.5 516,-109.5 516,-62.5 370,-62.5"/>
<text text-anchor="start" x="378" y="-96.5" font-family="Helvetica,sans-Serif" font-size="10.00">ZendDbSchema_Db_Schema</text>
<text text-anchor="start" x="378" y="-83.5" font-family="Helvetica,sans-Serif" font-size="10.00">_Table_AbstractDefinition</text>
<text text-anchor="middle" x="443" y="-70.5" font-family="Helvetica,sans-Serif" font-size="10.00">\getTable</text>
</a>
</g>
<!-- Node2&#45;&gt;Node3 -->
<g id="edge4" class="edge"><title>Node2&#45;&gt;Node3</title>
<path fill="none" stroke="midnightblue" d="M328.224,-88.442C338.615,-88.2209 349.363,-87.9923 359.925,-87.7676"/>
<polygon fill="midnightblue" stroke="midnightblue" points="360.053,-91.2657 369.976,-87.5537 359.904,-84.2673 360.053,-91.2657"/>
</g>
<!-- Node4&#45;&gt;Node3 -->
<g id="edge14" class="edge"><title>Node4&#45;&gt;Node3</title>
<path fill="none" stroke="midnightblue" d="M326.343,-47.5279C337.948,-51.355 350.042,-55.3437 361.86,-59.2412"/>
<polygon fill="midnightblue" stroke="midnightblue" points="361.113,-62.68 371.706,-62.4881 363.305,-56.0322 361.113,-62.68"/>
</g>
<!-- Node5 -->
<g id="node9" class="node"><title>Node5</title>
<a xlink:href="classZendDbSchema__Db__Schema__Table__PrimaryKey.html#a228207d6e07e3ab95b8b25415077a6a1" target="_top" xlink:title="ZendDbSchema_Db_Schema\l_Table_PrimaryKey\\getColumns">
<polygon fill="white" stroke="black" points="364,-7 364,-41 522,-41 522,-7 364,-7"/>
<text text-anchor="start" x="372" y="-28" font-family="Helvetica,sans-Serif" font-size="10.00">ZendDbSchema_Db_Schema</text>
<text text-anchor="middle" x="443" y="-15" font-family="Helvetica,sans-Serif" font-size="10.00">_Table_PrimaryKey\getColumns</text>
</a>
</g>
<!-- Node4&#45;&gt;Node5 -->
<g id="edge8" class="edge"><title>Node4&#45;&gt;Node5</title>
<path fill="none" stroke="midnightblue" d="M328.224,-24C336.507,-24 345.016,-24 353.477,-24"/>
<polygon fill="midnightblue" stroke="midnightblue" points="353.754,-27.5001 363.754,-24 353.754,-20.5001 353.754,-27.5001"/>
</g>
<!-- Node6 -->
<g id="node11" class="node"><title>Node6</title>
<a xlink:href="classZendDbSchema__Db__Schema__AbstractSchema.html#a54d32c6f15463eaad2321a9f0e7225d7" target="_top" xlink:title="ZendDbSchema_Db_Schema\l_AbstractSchema\\__get">
<polygon fill="white" stroke="black" points="558,-7 558,-41 704,-41 704,-7 558,-7"/>
<text text-anchor="start" x="566" y="-28" font-family="Helvetica,sans-Serif" font-size="10.00">ZendDbSchema_Db_Schema</text>
<text text-anchor="middle" x="631" y="-15" font-family="Helvetica,sans-Serif" font-size="10.00">_AbstractSchema\__get</text>
</a>
</g>
<!-- Node5&#45;&gt;Node6 -->
<g id="edge10" class="edge"><title>Node5&#45;&gt;Node6</title>
<path fill="none" stroke="midnightblue" d="M522.184,-24C530.602,-24 539.183,-24 547.648,-24"/>
<polygon fill="midnightblue" stroke="midnightblue" points="547.896,-27.5001 557.896,-24 547.896,-20.5001 547.896,-27.5001"/>
</g>
<!-- Node7 -->
<g id="node13" class="node"><title>Node7</title>
<a xlink:href="classZendDbSchema__Db__Schema__AbstractSchema.html#ac4e121ba7932163eb1950fabe06fb9db" target="_top" xlink:title="ZendDbSchema_Db_Schema\l_AbstractSchema\\__isset">
<polygon fill="white" stroke="black" points="740,-7 740,-41 886,-41 886,-7 740,-7"/>
<text text-anchor="start" x="748" y="-28" font-family="Helvetica,sans-Serif" font-size="10.00">ZendDbSchema_Db_Schema</text>
<text text-anchor="middle" x="813" y="-15" font-family="Helvetica,sans-Serif" font-size="10.00">_AbstractSchema\__isset</text>
</a>
</g>
<!-- Node6&#45;&gt;Node7 -->
<g id="edge12" class="edge"><title>Node6&#45;&gt;Node7</title>
<path fill="none" stroke="midnightblue" d="M704.24,-24C712.596,-24 721.161,-24 729.636,-24"/>
<polygon fill="midnightblue" stroke="midnightblue" points="729.91,-27.5001 739.91,-24 729.91,-20.5001 729.91,-27.5001"/>
</g>
</g>
</svg>
