<?xml version="1.0" encoding="UTF-8" standalone="no"?>
<!DOCTYPE svg PUBLIC "-//W3C//DTD SVG 1.1//EN"
 "http://www.w3.org/Graphics/SVG/1.1/DTD/svg11.dtd">
<!-- Generated by graphviz version 2.26.3 (20100126.1600)
 -->
<!-- Title: G Pages: 1 -->
<svg width="1648pt" height="310pt"
 viewBox="0.00 0.00 1648.00 310.00" xmlns="http://www.w3.org/2000/svg" xmlns:xlink="http://www.w3.org/1999/xlink">
<g id="graph1" class="graph" transform="scale(1 1) rotate(0) translate(4 306)">
<title>G</title>
<polygon fill="white" stroke="white" points="-4,5 -4,-306 1645,-306 1645,5 -4,5"/>
<!-- Node1 -->
<g id="node1" class="node"><title>Node1</title>
<polygon fill="#bfbfbf" stroke="black" points="0,-210.5 0,-231.5 336,-231.5 336,-210.5 0,-210.5"/>
<text text-anchor="middle" x="168" y="-218.5" font-family="Helvetica,sans-Serif" font-size="10.00">ZendDbSchema_Db_Schema_Generator_Mysql\generateForeignKeyAlter</text>
</g>
<!-- Node2 -->
<g id="node3" class="node"><title>Node2</title>
<a xlink:href="classZendDbSchema__Db__Schema__AbstractSchema.html#a1680a8fd22360f74d29b641d7257a52f" target="_top" xlink:title="ZendDbSchema_Db_Schema_AbstractSchema\\isExist">
<polygon fill="white" stroke="black" points="416.5,-270.5 416.5,-291.5 673.5,-291.5 673.5,-270.5 416.5,-270.5"/>
<text text-anchor="middle" x="545" y="-278.5" font-family="Helvetica,sans-Serif" font-size="10.00">ZendDbSchema_Db_Schema_AbstractSchema\isExist</text>
</a>
</g>
<!-- Node1&#45;&gt;Node2 -->
<g id="edge2" class="edge"><title>Node1&#45;&gt;Node2</title>
<path fill="none" stroke="midnightblue" d="M234.1,-231.52C299.716,-241.963 400.194,-257.954 469.054,-268.913"/>
<polygon fill="midnightblue" stroke="midnightblue" points="468.55,-272.377 478.976,-270.492 469.651,-265.464 468.55,-272.377"/>
</g>
<!-- Node4 -->
<g id="node7" class="node"><title>Node4</title>
<a xlink:href="classZendDbSchema__Db__Schema__Generator__Mysql.html#a8541bb119e788d1920ffec48b824a6ce" target="_top" xlink:title="ZendDbSchema_Db_Schema_Generator_Mysql\\generateForeignKeyDrop">
<polygon fill="white" stroke="black" points="376.5,-210.5 376.5,-231.5 713.5,-231.5 713.5,-210.5 376.5,-210.5"/>
<text text-anchor="middle" x="545" y="-218.5" font-family="Helvetica,sans-Serif" font-size="10.00">ZendDbSchema_Db_Schema_Generator_Mysql\generateForeignKeyDrop</text>
</a>
</g>
<!-- Node1&#45;&gt;Node4 -->
<g id="edge6" class="edge"><title>Node1&#45;&gt;Node4</title>
<path fill="none" stroke="midnightblue" d="M336.102,-221C346.117,-221 356.208,-221 366.263,-221"/>
<polygon fill="midnightblue" stroke="midnightblue" points="366.301,-224.5 376.301,-221 366.301,-217.5 366.301,-224.5"/>
</g>
<!-- Node9 -->
<g id="node17" class="node"><title>Node9</title>
<a xlink:href="classZendDbSchema__Db__Schema__Generator__Mysql.html#a94215da08d94b0c784d2786c468f456b" target="_top" xlink:title="ZendDbSchema_Db_Schema_Generator_Mysql\\generateForeignKeyCreate">
<polygon fill="white" stroke="black" points="372.5,-150.5 372.5,-171.5 717.5,-171.5 717.5,-150.5 372.5,-150.5"/>
<text text-anchor="middle" x="545" y="-158.5" font-family="Helvetica,sans-Serif" font-size="10.00">ZendDbSchema_Db_Schema_Generator_Mysql\generateForeignKeyCreate</text>
</a>
</g>
<!-- Node1&#45;&gt;Node9 -->
<g id="edge16" class="edge"><title>Node1&#45;&gt;Node9</title>
<path fill="none" stroke="midnightblue" d="M234.1,-210.48C299.716,-200.037 400.194,-184.046 469.054,-173.087"/>
<polygon fill="midnightblue" stroke="midnightblue" points="469.651,-176.536 478.976,-171.508 468.55,-169.623 469.651,-176.536"/>
</g>
<!-- Node3 -->
<g id="node5" class="node"><title>Node3</title>
<a xlink:href="classZendDbSchema__Db__Schema__AbstractSchema.html#a219012c80be57ace4b1db43a9c48eb3d" target="_top" xlink:title="ZendDbSchema_Db_Schema_AbstractSchema\\getSchema">
<polygon fill="white" stroke="black" points="766.5,-280.5 766.5,-301.5 1043.5,-301.5 1043.5,-280.5 766.5,-280.5"/>
<text text-anchor="middle" x="905" y="-288.5" font-family="Helvetica,sans-Serif" font-size="10.00">ZendDbSchema_Db_Schema_AbstractSchema\getSchema</text>
</a>
</g>
<!-- Node2&#45;&gt;Node3 -->
<g id="edge4" class="edge"><title>Node2&#45;&gt;Node3</title>
<path fill="none" stroke="midnightblue" d="M673.697,-284.575C700.482,-285.319 728.921,-286.109 756.357,-286.871"/>
<polygon fill="midnightblue" stroke="midnightblue" points="756.321,-290.371 766.415,-287.15 756.516,-283.374 756.321,-290.371"/>
</g>
<!-- Node5 -->
<g id="node9" class="node"><title>Node5</title>
<a xlink:href="classZendDbSchema__Db__Schema__Table__AbstractDefinition.html#a224b6a0c1df1d6ed40e03657782ef6fc" target="_top" xlink:title="ZendDbSchema_Db_Schema_Table_AbstractDefinition\\getTable">
<polygon fill="white" stroke="black" points="755.5,-240.5 755.5,-261.5 1054.5,-261.5 1054.5,-240.5 755.5,-240.5"/>
<text text-anchor="middle" x="905" y="-248.5" font-family="Helvetica,sans-Serif" font-size="10.00">ZendDbSchema_Db_Schema_Table_AbstractDefinition\getTable</text>
</a>
</g>
<!-- Node4&#45;&gt;Node5 -->
<g id="edge8" class="edge"><title>Node4&#45;&gt;Node5</title>
<path fill="none" stroke="midnightblue" d="M671.163,-231.514C702.62,-234.135 736.492,-236.958 768.426,-239.619"/>
<polygon fill="midnightblue" stroke="midnightblue" points="768.464,-243.134 778.72,-240.477 769.045,-236.158 768.464,-243.134"/>
</g>
<!-- Node6 -->
<g id="node11" class="node"><title>Node6</title>
<a xlink:href="classZendDbSchema__Db__Schema__AbstractSchema.html#adacb1417b461310c5c87f72c459c1985" target="_top" xlink:title="ZendDbSchema_Db_Schema_AbstractSchema\\getOriginName">
<polygon fill="white" stroke="black" points="758.5,-200.5 758.5,-221.5 1051.5,-221.5 1051.5,-200.5 758.5,-200.5"/>
<text text-anchor="middle" x="905" y="-208.5" font-family="Helvetica,sans-Serif" font-size="10.00">ZendDbSchema_Db_Schema_AbstractSchema\getOriginName</text>
</a>
</g>
<!-- Node4&#45;&gt;Node6 -->
<g id="edge10" class="edge"><title>Node4&#45;&gt;Node6</title>
<path fill="none" stroke="midnightblue" d="M713.669,-216.315C725.194,-215.995 736.782,-215.673 748.241,-215.354"/>
<polygon fill="midnightblue" stroke="midnightblue" points="748.375,-218.852 758.274,-215.076 748.181,-211.855 748.375,-218.852"/>
</g>
<!-- Node7 -->
<g id="node13" class="node"><title>Node7</title>
<a xlink:href="classZendDbSchema__Db__Schema__AbstractSchema.html#a54d32c6f15463eaad2321a9f0e7225d7" target="_top" xlink:title="ZendDbSchema_Db_Schema_AbstractSchema\\__get">
<polygon fill="white" stroke="black" points="1092.5,-100.5 1092.5,-121.5 1343.5,-121.5 1343.5,-100.5 1092.5,-100.5"/>
<text text-anchor="middle" x="1218" y="-108.5" font-family="Helvetica,sans-Serif" font-size="10.00">ZendDbSchema_Db_Schema_AbstractSchema\__get</text>
</a>
</g>
<!-- Node6&#45;&gt;Node7 -->
<g id="edge12" class="edge"><title>Node6&#45;&gt;Node7</title>
<path fill="none" stroke="midnightblue" d="M1016.4,-200.463C1029.88,-197.954 1043.35,-194.847 1056,-191 1106.86,-175.535 1161.37,-145.487 1192.42,-126.941"/>
<polygon fill="midnightblue" stroke="midnightblue" points="1194.53,-129.756 1201.27,-121.583 1190.9,-123.768 1194.53,-129.756"/>
</g>
<!-- Node8 -->
<g id="node15" class="node"><title>Node8</title>
<a xlink:href="classZendDbSchema__Db__Schema__AbstractSchema.html#ac4e121ba7932163eb1950fabe06fb9db" target="_top" xlink:title="ZendDbSchema_Db_Schema_AbstractSchema\\__isset">
<polygon fill="white" stroke="black" points="1380.5,-100.5 1380.5,-121.5 1639.5,-121.5 1639.5,-100.5 1380.5,-100.5"/>
<text text-anchor="middle" x="1510" y="-108.5" font-family="Helvetica,sans-Serif" font-size="10.00">ZendDbSchema_Db_Schema_AbstractSchema\__isset</text>
</a>
</g>
<!-- Node7&#45;&gt;Node8 -->
<g id="edge14" class="edge"><title>Node7&#45;&gt;Node8</title>
<path fill="none" stroke="midnightblue" d="M1343.53,-111C1352.4,-111 1361.38,-111 1370.32,-111"/>
<polygon fill="midnightblue" stroke="midnightblue" points="1370.4,-114.5 1380.4,-111 1370.4,-107.5 1370.4,-114.5"/>
</g>
<!-- Node9&#45;&gt;Node5 -->
<g id="edge18" class="edge"><title>Node9&#45;&gt;Node5</title>
<path fill="none" stroke="midnightblue" d="M625.61,-171.563C655.677,-177.553 689.424,-186.807 718,-201 736.653,-210.265 734.926,-222.637 754,-231 759.508,-233.415 765.229,-235.559 771.081,-237.46"/>
<polygon fill="midnightblue" stroke="midnightblue" points="770.458,-240.927 781.041,-240.437 772.462,-234.22 770.458,-240.927"/>
</g>
<!-- Node9&#45;&gt;Node6 -->
<g id="edge20" class="edge"><title>Node9&#45;&gt;Node6</title>
<path fill="none" stroke="midnightblue" d="M617.034,-171.537C657.309,-177.379 708.428,-184.711 754,-191 773.497,-193.69 794.42,-196.507 814.292,-199.149"/>
<polygon fill="midnightblue" stroke="midnightblue" points="813.889,-202.626 824.262,-200.471 814.809,-195.687 813.889,-202.626"/>
</g>
<!-- Node10 -->
<g id="node21" class="node"><title>Node10</title>
<a xlink:href="classZendDbSchema__Db__Schema__Table__Index.html#ad0edf2869c08ce408566798f4305b8dc" target="_top" xlink:title="ZendDbSchema_Db_Schema_Table_Index\\getColumns">
<polygon fill="white" stroke="black" points="775,-160.5 775,-181.5 1035,-181.5 1035,-160.5 775,-160.5"/>
<text text-anchor="middle" x="905" y="-168.5" font-family="Helvetica,sans-Serif" font-size="10.00">ZendDbSchema_Db_Schema_Table_Index\getColumns</text>
</a>
</g>
<!-- Node9&#45;&gt;Node10 -->
<g id="edge22" class="edge"><title>Node9&#45;&gt;Node10</title>
<path fill="none" stroke="midnightblue" d="M717.619,-165.795C733.458,-166.235 749.373,-166.677 764.873,-167.108"/>
<polygon fill="midnightblue" stroke="midnightblue" points="764.901,-170.61 774.994,-167.389 765.095,-163.612 764.901,-170.61"/>
</g>
<!-- Node11 -->
<g id="node24" class="node"><title>Node11</title>
<a xlink:href="classZendDbSchema__Db__Schema__Table__ForeignKey.html#a05c24ed80a5171eefc833d0b6d420d0f" target="_top" xlink:title="ZendDbSchema_Db_Schema_Table_ForeignKey\\getReference">
<polygon fill="white" stroke="black" points="759,-120.5 759,-141.5 1051,-141.5 1051,-120.5 759,-120.5"/>
<text text-anchor="middle" x="905" y="-128.5" font-family="Helvetica,sans-Serif" font-size="10.00">ZendDbSchema_Db_Schema_Table_ForeignKey\getReference</text>
</a>
</g>
<!-- Node9&#45;&gt;Node11 -->
<g id="edge26" class="edge"><title>Node9&#45;&gt;Node11</title>
<path fill="none" stroke="midnightblue" d="M671.163,-150.486C702.62,-147.865 736.492,-145.042 768.426,-142.381"/>
<polygon fill="midnightblue" stroke="midnightblue" points="769.045,-145.842 778.72,-141.523 768.464,-138.866 769.045,-145.842"/>
</g>
<!-- Node12 -->
<g id="node27" class="node"><title>Node12</title>
<a xlink:href="classZendDbSchema__Db__Schema__Table__ForeignKey.html#acd5a4071e56936d38a5fd5cdbdf68113" target="_top" xlink:title="ZendDbSchema_Db_Schema_Table_ForeignKey\\getRefColumns">
<polygon fill="white" stroke="black" points="754,-80.5 754,-101.5 1056,-101.5 1056,-80.5 754,-80.5"/>
<text text-anchor="middle" x="905" y="-88.5" font-family="Helvetica,sans-Serif" font-size="10.00">ZendDbSchema_Db_Schema_Table_ForeignKey\getRefColumns</text>
</a>
</g>
<!-- Node9&#45;&gt;Node12 -->
<g id="edge30" class="edge"><title>Node9&#45;&gt;Node12</title>
<path fill="none" stroke="midnightblue" d="M583.649,-150.488C625.405,-139.428 694.022,-122.116 754,-111 769.934,-108.047 786.892,-105.362 803.471,-102.985"/>
<polygon fill="midnightblue" stroke="midnightblue" points="804.315,-106.401 813.732,-101.546 803.343,-99.4689 804.315,-106.401"/>
</g>
<!-- Node13 -->
<g id="node30" class="node"><title>Node13</title>
<a xlink:href="classZendDbSchema__Db__Schema__Table__ForeignKey.html#a83644a5b874f111e17dbf08ffa3ea803" target="_top" xlink:title="ZendDbSchema_Db_Schema_Table_ForeignKey\\getOnDelete">
<polygon fill="white" stroke="black" points="761,-40.5 761,-61.5 1049,-61.5 1049,-40.5 761,-40.5"/>
<text text-anchor="middle" x="905" y="-48.5" font-family="Helvetica,sans-Serif" font-size="10.00">ZendDbSchema_Db_Schema_Table_ForeignKey\getOnDelete</text>
</a>
</g>
<!-- Node9&#45;&gt;Node13 -->
<g id="edge34" class="edge"><title>Node9&#45;&gt;Node13</title>
<path fill="none" stroke="midnightblue" d="M564.511,-150.421C600.721,-131.288 681.26,-91.065 754,-71 764.746,-68.0359 776.046,-65.5056 787.428,-63.3468"/>
<polygon fill="midnightblue" stroke="midnightblue" points="788.218,-66.7609 797.439,-61.5436 786.977,-59.8717 788.218,-66.7609"/>
</g>
<!-- Node14 -->
<g id="node33" class="node"><title>Node14</title>
<a xlink:href="classZendDbSchema__Db__Schema__Table__ForeignKey.html#afb55f45baab8357ce8c295e4d71bf700" target="_top" xlink:title="ZendDbSchema_Db_Schema_Table_ForeignKey\\getOnUpdate">
<polygon fill="white" stroke="black" points="759.5,-0.5 759.5,-21.5 1050.5,-21.5 1050.5,-0.5 759.5,-0.5"/>
<text text-anchor="middle" x="905" y="-8.5" font-family="Helvetica,sans-Serif" font-size="10.00">ZendDbSchema_Db_Schema_Table_ForeignKey\getOnUpdate</text>
</a>
</g>
<!-- Node9&#45;&gt;Node14 -->
<g id="edge38" class="edge"><title>Node9&#45;&gt;Node14</title>
<path fill="none" stroke="midnightblue" d="M557.665,-150.353C588.768,-124.86 672.34,-60.2603 754,-31 761.61,-28.2731 769.556,-25.9123 777.649,-23.869"/>
<polygon fill="midnightblue" stroke="midnightblue" points="778.649,-27.2293 787.581,-21.5308 777.045,-20.4156 778.649,-27.2293"/>
</g>
<!-- Node10&#45;&gt;Node7 -->
<g id="edge24" class="edge"><title>Node10&#45;&gt;Node7</title>
<path fill="none" stroke="midnightblue" d="M997.089,-160.45C1016.6,-157.754 1037.03,-154.587 1056,-151 1094.79,-143.666 1138.18,-132.808 1170.28,-124.254"/>
<polygon fill="midnightblue" stroke="midnightblue" points="1171.54,-127.541 1180.29,-121.566 1169.72,-120.78 1171.54,-127.541"/>
</g>
<!-- Node11&#45;&gt;Node7 -->
<g id="edge28" class="edge"><title>Node11&#45;&gt;Node7</title>
<path fill="none" stroke="midnightblue" d="M1051.42,-121.644C1061.68,-120.988 1072,-120.329 1082.2,-119.677"/>
<polygon fill="midnightblue" stroke="midnightblue" points="1082.6,-123.159 1092.36,-119.028 1082.15,-116.173 1082.6,-123.159"/>
</g>
<!-- Node12&#45;&gt;Node7 -->
<g id="edge32" class="edge"><title>Node12&#45;&gt;Node7</title>
<path fill="none" stroke="midnightblue" d="M1056.46,-100.678C1065.09,-101.23 1073.75,-101.783 1082.32,-102.33"/>
<polygon fill="midnightblue" stroke="midnightblue" points="1082.14,-105.826 1092.34,-102.971 1082.58,-98.8399 1082.14,-105.826"/>
</g>
<!-- Node13&#45;&gt;Node7 -->
<g id="edge36" class="edge"><title>Node13&#45;&gt;Node7</title>
<path fill="none" stroke="midnightblue" d="M997.089,-61.5504C1016.6,-64.246 1037.03,-67.4134 1056,-71 1094.79,-78.3336 1138.18,-89.192 1170.28,-97.7456"/>
<polygon fill="midnightblue" stroke="midnightblue" points="1169.72,-101.22 1180.29,-100.434 1171.54,-94.4594 1169.72,-101.22"/>
</g>
<!-- Node14&#45;&gt;Node7 -->
<g id="edge40" class="edge"><title>Node14&#45;&gt;Node7</title>
<path fill="none" stroke="midnightblue" d="M1016.4,-21.5369C1029.88,-24.0464 1043.35,-27.1534 1056,-31 1106.86,-46.4648 1161.37,-76.5128 1192.42,-95.0591"/>
<polygon fill="midnightblue" stroke="midnightblue" points="1190.9,-98.2323 1201.27,-100.417 1194.53,-92.244 1190.9,-98.2323"/>
</g>
</g>
</svg>
