<?xml version="1.0" encoding="UTF-8" standalone="no"?>
<!DOCTYPE svg PUBLIC "-//W3C//DTD SVG 1.1//EN"
 "http://www.w3.org/Graphics/SVG/1.1/DTD/svg11.dtd">
<!-- Generated by graphviz version 2.26.3 (20100126.1600)
 -->
<!-- Title: G Pages: 1 -->
<svg width="1130pt" height="90pt"
 viewBox="0.00 0.00 1130.00 90.00" xmlns="http://www.w3.org/2000/svg" xmlns:xlink="http://www.w3.org/1999/xlink">
<g id="graph1" class="graph" transform="scale(1 1) rotate(0) translate(4 86)">
<title>G</title>
<polygon fill="white" stroke="white" points="-4,5 -4,-86 1127,-86 1127,5 -4,5"/>
<!-- Node1 -->
<g id="node1" class="node"><title>Node1</title>
<polygon fill="#bfbfbf" stroke="black" points="0.5,-20.5 0.5,-41.5 263.5,-41.5 263.5,-20.5 0.5,-20.5"/>
<text text-anchor="middle" x="132" y="-28.5" font-family="Helvetica,sans-Serif" font-size="10.00">ZendDbSchema_Db_Schema_AbstractEntity\_doReload</text>
</g>
<!-- Node2 -->
<g id="node3" class="node"><title>Node2</title>
<a xlink:href="classZendDbSchema__Db__Schema__AbstractEntity.html#aa35a80275bd3c811dd8ad39835a985a9" target="_top" xlink:title="ZendDbSchema_Db_Schema_AbstractEntity\\reload">
<polygon fill="white" stroke="black" points="300.5,-20.5 300.5,-41.5 543.5,-41.5 543.5,-20.5 300.5,-20.5"/>
<text text-anchor="middle" x="422" y="-28.5" font-family="Helvetica,sans-Serif" font-size="10.00">ZendDbSchema_Db_Schema_AbstractEntity\reload</text>
</a>
</g>
<!-- Node1&#45;&gt;Node2 -->
<g id="edge2" class="edge"><title>Node1&#45;&gt;Node2</title>
<path fill="none" stroke="midnightblue" d="M274.095,-31C282.836,-31 291.592,-31 300.234,-31"/>
<polygon fill="midnightblue" stroke="midnightblue" points="273.847,-27.5001 263.847,-31 273.847,-34.5001 273.847,-27.5001"/>
</g>
<!-- Node3 -->
<g id="node5" class="node"><title>Node3</title>
<a xlink:href="classZendDbSchema__Db__Schema__AbstractEntity.html#abee9675e11d86dace1abed3d94a0fda1" target="_top" xlink:title="ZendDbSchema_Db_Schema_AbstractEntity\\refresh">
<polygon fill="white" stroke="black" points="587.5,-40.5 587.5,-61.5 834.5,-61.5 834.5,-40.5 587.5,-40.5"/>
<text text-anchor="middle" x="711" y="-48.5" font-family="Helvetica,sans-Serif" font-size="10.00">ZendDbSchema_Db_Schema_AbstractEntity\refresh</text>
</a>
</g>
<!-- Node2&#45;&gt;Node3 -->
<g id="edge4" class="edge"><title>Node2&#45;&gt;Node3</title>
<path fill="none" stroke="midnightblue" d="M553.855,-40.1249C564.924,-40.891 576.094,-41.6639 587.1,-42.4256"/>
<polygon fill="midnightblue" stroke="midnightblue" points="553.942,-36.6227 543.724,-39.4238 553.459,-43.606 553.942,-36.6227"/>
</g>
<!-- Node6 -->
<g id="node11" class="node"><title>Node6</title>
<a xlink:href="classZendDbSchema__Db__Schema__AbstractEntity.html#ad92ca2449257a587b336367f109cdde2" target="_top" xlink:title="ZendDbSchema_Db_Schema_AbstractEntity\\__wakeup">
<polygon fill="white" stroke="black" points="580.5,-0.5 580.5,-21.5 841.5,-21.5 841.5,-0.5 580.5,-0.5"/>
<text text-anchor="middle" x="711" y="-8.5" font-family="Helvetica,sans-Serif" font-size="10.00">ZendDbSchema_Db_Schema_AbstractEntity\__wakeup</text>
</a>
</g>
<!-- Node2&#45;&gt;Node6 -->
<g id="edge10" class="edge"><title>Node2&#45;&gt;Node6</title>
<path fill="none" stroke="midnightblue" d="M553.92,-21.8706C562.636,-21.2674 571.414,-20.6599 580.125,-20.0571"/>
<polygon fill="midnightblue" stroke="midnightblue" points="553.459,-18.394 543.724,-22.5762 553.942,-25.3773 553.459,-18.394"/>
</g>
<!-- Node4 -->
<g id="node7" class="node"><title>Node4</title>
<a xlink:href="classZendDbSchema__Db__Schema__AbstractEntity.html#a5b1c93da76c3708f90d330b4643e55b2" target="_top" xlink:title="ZendDbSchema_Db_Schema_AbstractEntity\\save">
<polygon fill="white" stroke="black" points="881,-60.5 881,-81.5 1119,-81.5 1119,-60.5 881,-60.5"/>
<text text-anchor="middle" x="1000" y="-68.5" font-family="Helvetica,sans-Serif" font-size="10.00">ZendDbSchema_Db_Schema_AbstractEntity\save</text>
</a>
</g>
<!-- Node3&#45;&gt;Node4 -->
<g id="edge6" class="edge"><title>Node3&#45;&gt;Node4</title>
<path fill="none" stroke="midnightblue" d="M844.81,-60.2602C856.74,-61.0858 868.767,-61.9182 880.565,-62.7346"/>
<polygon fill="midnightblue" stroke="midnightblue" points="845.037,-56.7677 834.82,-59.5688 844.554,-63.751 845.037,-56.7677"/>
</g>
<!-- Node5 -->
<g id="node9" class="node"><title>Node5</title>
<a xlink:href="classZendDbSchema__Db__Schema__AbstractEntity.html#a26fcff2268495fcdbfa265f394ee93d9" target="_top" xlink:title="ZendDbSchema_Db_Schema_AbstractEntity\\delete">
<polygon fill="white" stroke="black" points="878.5,-20.5 878.5,-41.5 1121.5,-41.5 1121.5,-20.5 878.5,-20.5"/>
<text text-anchor="middle" x="1000" y="-28.5" font-family="Helvetica,sans-Serif" font-size="10.00">ZendDbSchema_Db_Schema_AbstractEntity\delete</text>
</a>
</g>
<!-- Node3&#45;&gt;Node5 -->
<g id="edge8" class="edge"><title>Node3&#45;&gt;Node5</title>
<path fill="none" stroke="midnightblue" d="M844.984,-41.7278C856.085,-40.9595 867.27,-40.1855 878.274,-39.4239"/>
<polygon fill="midnightblue" stroke="midnightblue" points="844.554,-38.249 834.82,-42.4312 845.037,-45.2323 844.554,-38.249"/>
</g>
</g>
</svg>
