<?xml version="1.0" encoding="UTF-8" standalone="no"?>
<!DOCTYPE svg PUBLIC "-//W3C//DTD SVG 1.1//EN"
 "http://www.w3.org/Graphics/SVG/1.1/DTD/svg11.dtd">
<!-- Generated by graphviz version 2.26.3 (20100126.1600)
 -->
<!-- Title: G Pages: 1 -->
<svg width="2134pt" height="110pt"
 viewBox="0.00 0.00 2134.00 110.00" xmlns="http://www.w3.org/2000/svg" xmlns:xlink="http://www.w3.org/1999/xlink">
<g id="graph1" class="graph" transform="scale(1 1) rotate(0) translate(4 106)">
<title>G</title>
<polygon fill="white" stroke="white" points="-4,5 -4,-106 2131,-106 2131,5 -4,5"/>
<!-- Node1 -->
<g id="node1" class="node"><title>Node1</title>
<polygon fill="#bfbfbf" stroke="black" points="0.5,-40.5 0.5,-61.5 401.5,-61.5 401.5,-40.5 0.5,-40.5"/>
<text text-anchor="middle" x="201" y="-48.5" font-family="Helvetica,sans-Serif" font-size="10.00">ZendDbSchema_Db_Schema_Table_DefinitionManager_AbstractManager\setFromArray</text>
</g>
<!-- Node2 -->
<g id="node3" class="node"><title>Node2</title>
<a xlink:href="classZendDbSchema__Db__Schema__Table__DefinitionManager__AbstractManager.html#ac62cf058c89132b0ff9223d9fcefdb8a" target="_top" xlink:title="ZendDbSchema_Db_Schema_Table_DefinitionManager_AbstractManager\\_getItemClass">
<polygon fill="white" stroke="black" points="832,-80.5 832,-101.5 1238,-101.5 1238,-80.5 832,-80.5"/>
<text text-anchor="middle" x="1035" y="-88.5" font-family="Helvetica,sans-Serif" font-size="10.00">ZendDbSchema_Db_Schema_Table_DefinitionManager_AbstractManager\_getItemClass</text>
</a>
</g>
<!-- Node1&#45;&gt;Node2 -->
<g id="edge2" class="edge"><title>Node1&#45;&gt;Node2</title>
<path fill="none" stroke="midnightblue" d="M311.842,-61.5239C351.599,-64.9889 396.779,-68.5718 438,-71 565.122,-78.4883 707.648,-83.3944 821.554,-86.4726"/>
<polygon fill="midnightblue" stroke="midnightblue" points="821.698,-89.9776 831.788,-86.7464 821.885,-82.9801 821.698,-89.9776"/>
</g>
<!-- Node3 -->
<g id="node5" class="node"><title>Node3</title>
<a xlink:href="classZendDbSchema__Db__Schema__Table__DefinitionManager__AbstractManager.html#ad0261d0db60ff459f97adc23b2d16931" target="_top" xlink:title="ZendDbSchema_Db_Schema_Table_DefinitionManager_AbstractManager\\has">
<polygon fill="white" stroke="black" points="856,-0.5 856,-21.5 1214,-21.5 1214,-0.5 856,-0.5"/>
<text text-anchor="middle" x="1035" y="-8.5" font-family="Helvetica,sans-Serif" font-size="10.00">ZendDbSchema_Db_Schema_Table_DefinitionManager_AbstractManager\has</text>
</a>
</g>
<!-- Node1&#45;&gt;Node3 -->
<g id="edge4" class="edge"><title>Node1&#45;&gt;Node3</title>
<path fill="none" stroke="midnightblue" d="M311.842,-40.4761C351.599,-37.0111 396.779,-33.4282 438,-31 574.303,-22.9709 728.316,-17.9104 845.769,-14.8887"/>
<polygon fill="midnightblue" stroke="midnightblue" points="846.037,-18.3832 855.944,-14.6297 845.859,-11.3854 846.037,-18.3832"/>
</g>
<!-- Node4 -->
<g id="node7" class="node"><title>Node4</title>
<a xlink:href="classZendDbSchema__Db__Schema__Table__DefinitionManager__AbstractManager.html#a6d815884ca03c003ac7f8d633e97f7c6" target="_top" xlink:title="ZendDbSchema_Db_Schema_Table_DefinitionManager_AbstractManager\\add">
<polygon fill="white" stroke="black" points="438,-40.5 438,-61.5 796,-61.5 796,-40.5 438,-40.5"/>
<text text-anchor="middle" x="617" y="-48.5" font-family="Helvetica,sans-Serif" font-size="10.00">ZendDbSchema_Db_Schema_Table_DefinitionManager_AbstractManager\add</text>
</a>
</g>
<!-- Node1&#45;&gt;Node4 -->
<g id="edge6" class="edge"><title>Node1&#45;&gt;Node4</title>
<path fill="none" stroke="midnightblue" d="M401.689,-51C410.35,-51 419.029,-51 427.664,-51"/>
<polygon fill="midnightblue" stroke="midnightblue" points="427.777,-54.5001 437.777,-51 427.777,-47.5001 427.777,-54.5001"/>
</g>
<!-- Node4&#45;&gt;Node2 -->
<g id="edge8" class="edge"><title>Node4&#45;&gt;Node2</title>
<path fill="none" stroke="midnightblue" d="M726.825,-61.5095C784.675,-67.0455 855.723,-73.8443 915.016,-79.5183"/>
<polygon fill="midnightblue" stroke="midnightblue" points="914.896,-83.0227 925.184,-80.4913 915.563,-76.0545 914.896,-83.0227"/>
</g>
<!-- Node4&#45;&gt;Node3 -->
<g id="edge18" class="edge"><title>Node4&#45;&gt;Node3</title>
<path fill="none" stroke="midnightblue" d="M726.825,-40.4905C784.675,-34.9545 855.723,-28.1557 915.016,-22.4817"/>
<polygon fill="midnightblue" stroke="midnightblue" points="915.563,-25.9455 925.184,-21.5087 914.896,-18.9773 915.563,-25.9455"/>
</g>
<!-- Node5 -->
<g id="node10" class="node"><title>Node5</title>
<a xlink:href="classZendDbSchema__Db__Schema__AbstractSchema.html#adacb1417b461310c5c87f72c459c1985" target="_top" xlink:title="ZendDbSchema_Db_Schema_AbstractSchema\\getOriginName">
<polygon fill="white" stroke="black" points="888.5,-40.5 888.5,-61.5 1181.5,-61.5 1181.5,-40.5 888.5,-40.5"/>
<text text-anchor="middle" x="1035" y="-48.5" font-family="Helvetica,sans-Serif" font-size="10.00">ZendDbSchema_Db_Schema_AbstractSchema\getOriginName</text>
</a>
</g>
<!-- Node4&#45;&gt;Node5 -->
<g id="edge10" class="edge"><title>Node4&#45;&gt;Node5</title>
<path fill="none" stroke="midnightblue" d="M796.089,-51C823.4,-51 851.407,-51 878.193,-51"/>
<polygon fill="midnightblue" stroke="midnightblue" points="878.394,-54.5001 888.394,-51 878.394,-47.5001 878.394,-54.5001"/>
</g>
<!-- Node6 -->
<g id="node12" class="node"><title>Node6</title>
<a xlink:href="classZendDbSchema__Db__Schema__AbstractSchema.html#a55787c21deddba427842809d589c2df6" target="_top" xlink:title="ZendDbSchema_Db_Schema_AbstractSchema\\getName">
<polygon fill="white" stroke="black" points="1274.5,-40.5 1274.5,-61.5 1541.5,-61.5 1541.5,-40.5 1274.5,-40.5"/>
<text text-anchor="middle" x="1408" y="-48.5" font-family="Helvetica,sans-Serif" font-size="10.00">ZendDbSchema_Db_Schema_AbstractSchema\getName</text>
</a>
</g>
<!-- Node5&#45;&gt;Node6 -->
<g id="edge12" class="edge"><title>Node5&#45;&gt;Node6</title>
<path fill="none" stroke="midnightblue" d="M1181.62,-51C1208.75,-51 1237.06,-51 1264.11,-51"/>
<polygon fill="midnightblue" stroke="midnightblue" points="1264.41,-54.5001 1274.41,-51 1264.41,-47.5001 1264.41,-54.5001"/>
</g>
<!-- Node7 -->
<g id="node14" class="node"><title>Node7</title>
<a xlink:href="classZendDbSchema__Db__Schema__AbstractSchema.html#a54d32c6f15463eaad2321a9f0e7225d7" target="_top" xlink:title="ZendDbSchema_Db_Schema_AbstractSchema\\__get">
<polygon fill="white" stroke="black" points="1578.5,-40.5 1578.5,-61.5 1829.5,-61.5 1829.5,-40.5 1578.5,-40.5"/>
<text text-anchor="middle" x="1704" y="-48.5" font-family="Helvetica,sans-Serif" font-size="10.00">ZendDbSchema_Db_Schema_AbstractSchema\__get</text>
</a>
</g>
<!-- Node6&#45;&gt;Node7 -->
<g id="edge14" class="edge"><title>Node6&#45;&gt;Node7</title>
<path fill="none" stroke="midnightblue" d="M1541.71,-51C1550.41,-51 1559.18,-51 1567.89,-51"/>
<polygon fill="midnightblue" stroke="midnightblue" points="1568.08,-54.5001 1578.08,-51 1568.08,-47.5001 1568.08,-54.5001"/>
</g>
<!-- Node8 -->
<g id="node16" class="node"><title>Node8</title>
<a xlink:href="classZendDbSchema__Db__Schema__AbstractSchema.html#ac4e121ba7932163eb1950fabe06fb9db" target="_top" xlink:title="ZendDbSchema_Db_Schema_AbstractSchema\\__isset">
<polygon fill="white" stroke="black" points="1866.5,-40.5 1866.5,-61.5 2125.5,-61.5 2125.5,-40.5 1866.5,-40.5"/>
<text text-anchor="middle" x="1996" y="-48.5" font-family="Helvetica,sans-Serif" font-size="10.00">ZendDbSchema_Db_Schema_AbstractSchema\__isset</text>
</a>
</g>
<!-- Node7&#45;&gt;Node8 -->
<g id="edge16" class="edge"><title>Node7&#45;&gt;Node8</title>
<path fill="none" stroke="midnightblue" d="M1829.53,-51C1838.4,-51 1847.38,-51 1856.32,-51"/>
<polygon fill="midnightblue" stroke="midnightblue" points="1856.4,-54.5001 1866.4,-51 1856.4,-47.5001 1856.4,-54.5001"/>
</g>
</g>
</svg>
