<?xml version="1.0" encoding="UTF-8" standalone="no"?>
<!DOCTYPE svg PUBLIC "-//W3C//DTD SVG 1.1//EN"
 "http://www.w3.org/Graphics/SVG/1.1/DTD/svg11.dtd">
<!-- Generated by graphviz version 2.26.3 (20100126.1600)
 -->
<!-- Title: G Pages: 1 -->
<svg width="618pt" height="70pt"
 viewBox="0.00 0.00 618.00 70.00" xmlns="http://www.w3.org/2000/svg" xmlns:xlink="http://www.w3.org/1999/xlink">
<g id="graph1" class="graph" transform="scale(1 1) rotate(0) translate(4 66)">
<title>G</title>
<polygon fill="white" stroke="white" points="-4,5 -4,-66 615,-66 615,5 -4,5"/>
<!-- Node1 -->
<g id="node1" class="node"><title>Node1</title>
<polygon fill="#bfbfbf" stroke="black" points="0.5,-20.5 0.5,-41.5 305.5,-41.5 305.5,-20.5 0.5,-20.5"/>
<text text-anchor="middle" x="153" y="-28.5" font-family="Helvetica,sans-Serif" font-size="10.00">ZendDbSchema_Tool_Project_Provider_Migration\createResource</text>
</g>
<!-- Node2 -->
<g id="node3" class="node"><title>Node2</title>
<a xlink:href="classZendDbSchema__Db__Migration__Skeleton.html#a51234b84a2f9886f3e08d63519a6eb9d" target="_top" xlink:title="ZendDbSchema_Db_Migration_Skeleton\\generateVersion">
<polygon fill="white" stroke="black" points="342.5,-40.5 342.5,-61.5 609.5,-61.5 609.5,-40.5 342.5,-40.5"/>
<text text-anchor="middle" x="476" y="-48.5" font-family="Helvetica,sans-Serif" font-size="10.00">ZendDbSchema_Db_Migration_Skeleton\generateVersion</text>
</a>
</g>
<!-- Node1&#45;&gt;Node2 -->
<g id="edge2" class="edge"><title>Node1&#45;&gt;Node2</title>
<path fill="none" stroke="midnightblue" d="M305.514,-40.4436C314.32,-40.9888 323.16,-41.5363 331.932,-42.0794"/>
<polygon fill="midnightblue" stroke="midnightblue" points="331.994,-45.5898 342.191,-42.7146 332.426,-38.6032 331.994,-45.5898"/>
</g>
<!-- Node3 -->
<g id="node5" class="node"><title>Node3</title>
<a xlink:href="classZendDbSchema__Db__Migration__Skeleton.html#a1dabe0c3a95ba3b2f0a479ff1eee3351" target="_top" xlink:title="ZendDbSchema_Db_Migration_Skeleton\\getFilename">
<polygon fill="white" stroke="black" points="351,-0.5 351,-21.5 601,-21.5 601,-0.5 351,-0.5"/>
<text text-anchor="middle" x="476" y="-8.5" font-family="Helvetica,sans-Serif" font-size="10.00">ZendDbSchema_Db_Migration_Skeleton\getFilename</text>
</a>
</g>
<!-- Node1&#45;&gt;Node3 -->
<g id="edge4" class="edge"><title>Node1&#45;&gt;Node3</title>
<path fill="none" stroke="midnightblue" d="M305.514,-21.5564C317.264,-20.8289 329.076,-20.0974 340.703,-19.3775"/>
<polygon fill="midnightblue" stroke="midnightblue" points="341.102,-22.8596 350.866,-18.7482 340.669,-15.873 341.102,-22.8596"/>
</g>
</g>
</svg>
