<?xml version="1.0" encoding="UTF-8" standalone="no"?>
<!DOCTYPE svg PUBLIC "-//W3C//DTD SVG 1.1//EN"
 "http://www.w3.org/Graphics/SVG/1.1/DTD/svg11.dtd">
<!-- Generated by graphviz version 2.26.3 (20100126.1600)
 -->
<!-- Title: G Pages: 1 -->
<svg width="946pt" height="108pt"
 viewBox="0.00 0.00 946.00 108.00" xmlns="http://www.w3.org/2000/svg" xmlns:xlink="http://www.w3.org/1999/xlink">
<g id="graph1" class="graph" transform="scale(1 1) rotate(0) translate(4 104)">
<title>G</title>
<polygon fill="white" stroke="white" points="-4,5 -4,-104 943,-104 943,5 -4,5"/>
<!-- Node1 -->
<g id="node1" class="node"><title>Node1</title>
<polygon fill="#bfbfbf" stroke="black" points="0,-39.5 0,-60.5 256,-60.5 256,-39.5 0,-39.5"/>
<text text-anchor="middle" x="128" y="-47.5" font-family="Helvetica,sans-Serif" font-size="10.00">ZendDbSchema_Db_Schema_AbstractSchema\isDirty</text>
</g>
<!-- Node2 -->
<g id="node3" class="node"><title>Node2</title>
<a xlink:href="classZendDbSchema__Db__Schema__AbstractSchema.html#a46da7a60c7e5fd605607afbc1dac4baa" target="_top" xlink:title="ZendDbSchema_Db_Schema_AbstractSchema\\getCleanSchema">
<polygon fill="white" stroke="black" points="292,-78.5 292,-99.5 594,-99.5 594,-78.5 292,-78.5"/>
<text text-anchor="middle" x="443" y="-86.5" font-family="Helvetica,sans-Serif" font-size="10.00">ZendDbSchema_Db_Schema_AbstractSchema\getCleanSchema</text>
</a>
</g>
<!-- Node1&#45;&gt;Node2 -->
<g id="edge2" class="edge"><title>Node1&#45;&gt;Node2</title>
<path fill="none" stroke="midnightblue" d="M212.829,-60.5026C254.497,-65.6616 304.858,-71.8966 347.834,-77.2176"/>
<polygon fill="midnightblue" stroke="midnightblue" points="347.666,-80.7233 358.02,-78.4787 348.526,-73.7764 347.666,-80.7233"/>
</g>
<!-- Node4 -->
<g id="node7" class="node"><title>Node4</title>
<a xlink:href="classZendDbSchema__Db__Schema__AbstractSchema.html#ac4e121ba7932163eb1950fabe06fb9db" target="_top" xlink:title="ZendDbSchema_Db_Schema_AbstractSchema\\__isset">
<polygon fill="white" stroke="black" points="654.5,-19.5 654.5,-40.5 913.5,-40.5 913.5,-19.5 654.5,-19.5"/>
<text text-anchor="middle" x="784" y="-27.5" font-family="Helvetica,sans-Serif" font-size="10.00">ZendDbSchema_Db_Schema_AbstractSchema\__isset</text>
</a>
</g>
<!-- Node1&#45;&gt;Node4 -->
<g id="edge6" class="edge"><title>Node1&#45;&gt;Node4</title>
<path fill="none" stroke="midnightblue" d="M256.041,-46.0963C367.61,-42.6948 529.092,-37.7716 644.043,-34.267"/>
<polygon fill="midnightblue" stroke="midnightblue" points="644.433,-37.7568 654.321,-33.9536 644.219,-30.7601 644.433,-37.7568"/>
</g>
<!-- Node5 -->
<g id="node9" class="node"><title>Node5</title>
<a xlink:href="classZendDbSchema__Db__Schema__AbstractSchema.html#a54d32c6f15463eaad2321a9f0e7225d7" target="_top" xlink:title="ZendDbSchema_Db_Schema_AbstractSchema\\__get">
<polygon fill="white" stroke="black" points="317.5,-0.5 317.5,-21.5 568.5,-21.5 568.5,-0.5 317.5,-0.5"/>
<text text-anchor="middle" x="443" y="-8.5" font-family="Helvetica,sans-Serif" font-size="10.00">ZendDbSchema_Db_Schema_AbstractSchema\__get</text>
</a>
</g>
<!-- Node1&#45;&gt;Node5 -->
<g id="edge8" class="edge"><title>Node1&#45;&gt;Node5</title>
<path fill="none" stroke="midnightblue" d="M212.829,-39.4974C254.497,-34.3384 304.858,-28.1034 347.834,-22.7824"/>
<polygon fill="midnightblue" stroke="midnightblue" points="348.526,-26.2236 358.02,-21.5213 347.666,-19.2767 348.526,-26.2236"/>
</g>
<!-- Node3 -->
<g id="node5" class="node"><title>Node3</title>
<a xlink:href="classZendDbSchema__Db__Schema__AbstractSchema.html#af99e5bb9adfe0da8c94d3d3848efe7b5" target="_top" xlink:title="ZendDbSchema_Db_Schema_AbstractSchema\\_getCleanSchema">
<polygon fill="white" stroke="black" points="630,-78.5 630,-99.5 938,-99.5 938,-78.5 630,-78.5"/>
<text text-anchor="middle" x="784" y="-86.5" font-family="Helvetica,sans-Serif" font-size="10.00">ZendDbSchema_Db_Schema_AbstractSchema\_getCleanSchema</text>
</a>
</g>
<!-- Node2&#45;&gt;Node3 -->
<g id="edge4" class="edge"><title>Node2&#45;&gt;Node3</title>
<path fill="none" stroke="midnightblue" d="M594.057,-89C602.572,-89 611.152,-89 619.712,-89"/>
<polygon fill="midnightblue" stroke="midnightblue" points="619.745,-92.5001 629.745,-89 619.745,-85.5001 619.745,-92.5001"/>
</g>
<!-- Node5&#45;&gt;Node4 -->
<g id="edge10" class="edge"><title>Node5&#45;&gt;Node4</title>
<path fill="none" stroke="midnightblue" d="M568.523,-17.994C593.142,-19.3657 619.108,-20.8125 644.161,-22.2084"/>
<polygon fill="midnightblue" stroke="midnightblue" points="644.279,-25.7203 654.458,-22.7821 644.668,-18.7311 644.279,-25.7203"/>
</g>
</g>
</svg>
