<?xml version="1.0" encoding="UTF-8" standalone="no"?>
<!DOCTYPE svg PUBLIC "-//W3C//DTD SVG 1.1//EN"
 "http://www.w3.org/Graphics/SVG/1.1/DTD/svg11.dtd">
<!-- Generated by graphviz version 2.26.3 (20100126.1600)
 -->
<!-- Title: G Pages: 1 -->
<svg width="710pt" height="230pt"
 viewBox="0.00 0.00 710.00 230.00" xmlns="http://www.w3.org/2000/svg" xmlns:xlink="http://www.w3.org/1999/xlink">
<g id="graph1" class="graph" transform="scale(1 1) rotate(0) translate(4 226)">
<title>G</title>
<polygon fill="white" stroke="white" points="-4,5 -4,-226 707,-226 707,5 -4,5"/>
<!-- Node1 -->
<g id="node1" class="node"><title>Node1</title>
<polygon fill="#bfbfbf" stroke="black" points="0.5,-100.5 0.5,-121.5 307.5,-121.5 307.5,-100.5 0.5,-100.5"/>
<text text-anchor="middle" x="154" y="-108.5" font-family="Helvetica,sans-Serif" font-size="10.00">ZendDbSchema_Db_Schema_Validator_AbstractValidator\validate</text>
</g>
<!-- Node2 -->
<g id="node3" class="node"><title>Node2</title>
<a xlink:href="classZendDbSchema__Db__Schema__Validator__AbstractValidator.html#abb84d37eb5e10ce0549831b7ad9d13f4" target="_top" xlink:title="ZendDbSchema_Db_Schema_Validator_AbstractValidator\\validateDatabase">
<polygon fill="white" stroke="black" points="348.5,-200.5 348.5,-221.5 697.5,-221.5 697.5,-200.5 348.5,-200.5"/>
<text text-anchor="middle" x="523" y="-208.5" font-family="Helvetica,sans-Serif" font-size="10.00">ZendDbSchema_Db_Schema_Validator_AbstractValidator\validateDatabase</text>
</a>
</g>
<!-- Node1&#45;&gt;Node2 -->
<g id="edge2" class="edge"><title>Node1&#45;&gt;Node2</title>
<path fill="none" stroke="midnightblue" d="M173.853,-121.624C207.706,-139.216 279.234,-174.124 344,-191 355.7,-194.048 367.948,-196.632 380.313,-198.822"/>
<polygon fill="midnightblue" stroke="midnightblue" points="379.804,-202.286 390.246,-200.496 380.967,-195.383 379.804,-202.286"/>
</g>
<!-- Node3 -->
<g id="node5" class="node"><title>Node3</title>
<a xlink:href="classZendDbSchema__Db__Schema__Validator__AbstractValidator.html#a097f3953952902e3a2d48e200427ed8b" target="_top" xlink:title="ZendDbSchema_Db_Schema_Validator_AbstractValidator\\validateTable">
<polygon fill="white" stroke="black" points="357.5,-160.5 357.5,-181.5 688.5,-181.5 688.5,-160.5 357.5,-160.5"/>
<text text-anchor="middle" x="523" y="-168.5" font-family="Helvetica,sans-Serif" font-size="10.00">ZendDbSchema_Db_Schema_Validator_AbstractValidator\validateTable</text>
</a>
</g>
<!-- Node1&#45;&gt;Node3 -->
<g id="edge4" class="edge"><title>Node1&#45;&gt;Node3</title>
<path fill="none" stroke="midnightblue" d="M197.926,-121.502C236.293,-130.374 293.578,-142.895 344,-151 363.148,-154.078 383.525,-156.838 403.411,-159.255"/>
<polygon fill="midnightblue" stroke="midnightblue" points="403.095,-162.742 413.439,-160.45 403.924,-155.791 403.095,-162.742"/>
</g>
<!-- Node4 -->
<g id="node7" class="node"><title>Node4</title>
<a xlink:href="classZendDbSchema__Db__Schema__Validator__AbstractValidator.html#a676a382f8473dc61a6f037c768d18d67" target="_top" xlink:title="ZendDbSchema_Db_Schema_Validator_AbstractValidator\\validateColumn">
<polygon fill="white" stroke="black" points="352.5,-120.5 352.5,-141.5 693.5,-141.5 693.5,-120.5 352.5,-120.5"/>
<text text-anchor="middle" x="523" y="-128.5" font-family="Helvetica,sans-Serif" font-size="10.00">ZendDbSchema_Db_Schema_Validator_AbstractValidator\validateColumn</text>
</a>
</g>
<!-- Node1&#45;&gt;Node4 -->
<g id="edge6" class="edge"><title>Node1&#45;&gt;Node4</title>
<path fill="none" stroke="midnightblue" d="M307.55,-119.323C318.953,-119.941 330.517,-120.567 342.063,-121.193"/>
<polygon fill="midnightblue" stroke="midnightblue" points="342.025,-124.696 352.2,-121.743 342.404,-117.706 342.025,-124.696"/>
</g>
<!-- Node5 -->
<g id="node9" class="node"><title>Node5</title>
<a xlink:href="classZendDbSchema__Db__Schema__Validator__AbstractValidator.html#ad23ee9d8c93ea569ed25aaf27b306a1a" target="_top" xlink:title="ZendDbSchema_Db_Schema_Validator_AbstractValidator\\validateIndex">
<polygon fill="white" stroke="black" points="357.5,-80.5 357.5,-101.5 688.5,-101.5 688.5,-80.5 357.5,-80.5"/>
<text text-anchor="middle" x="523" y="-88.5" font-family="Helvetica,sans-Serif" font-size="10.00">ZendDbSchema_Db_Schema_Validator_AbstractValidator\validateIndex</text>
</a>
</g>
<!-- Node1&#45;&gt;Node5 -->
<g id="edge8" class="edge"><title>Node1&#45;&gt;Node5</title>
<path fill="none" stroke="midnightblue" d="M307.55,-102.677C320.638,-101.968 333.94,-101.247 347.183,-100.529"/>
<polygon fill="midnightblue" stroke="midnightblue" points="347.497,-104.018 357.293,-99.9814 347.118,-97.0279 347.497,-104.018"/>
</g>
<!-- Node6 -->
<g id="node11" class="node"><title>Node6</title>
<a xlink:href="classZendDbSchema__Db__Schema__Validator__AbstractValidator.html#a9f62f245e92b12be87b633dfb5810470" target="_top" xlink:title="ZendDbSchema_Db_Schema_Validator_AbstractValidator\\validatePrimaryKey">
<polygon fill="white" stroke="black" points="344,-40.5 344,-61.5 702,-61.5 702,-40.5 344,-40.5"/>
<text text-anchor="middle" x="523" y="-48.5" font-family="Helvetica,sans-Serif" font-size="10.00">ZendDbSchema_Db_Schema_Validator_AbstractValidator\validatePrimaryKey</text>
</a>
</g>
<!-- Node1&#45;&gt;Node6 -->
<g id="edge10" class="edge"><title>Node1&#45;&gt;Node6</title>
<path fill="none" stroke="midnightblue" d="M197.926,-100.498C236.293,-91.6261 293.578,-79.1052 344,-71 363.148,-67.922 383.525,-65.1615 403.411,-62.7453"/>
<polygon fill="midnightblue" stroke="midnightblue" points="403.924,-66.209 413.439,-61.5503 403.095,-59.2582 403.924,-66.209"/>
</g>
<!-- Node7 -->
<g id="node13" class="node"><title>Node7</title>
<a xlink:href="classZendDbSchema__Db__Schema__Validator__AbstractValidator.html#a0fa9765711f41a11dd69511b9d1cc11b" target="_top" xlink:title="ZendDbSchema_Db_Schema_Validator_AbstractValidator\\validateForeignKey">
<polygon fill="white" stroke="black" points="345,-0.5 345,-21.5 701,-21.5 701,-0.5 345,-0.5"/>
<text text-anchor="middle" x="523" y="-8.5" font-family="Helvetica,sans-Serif" font-size="10.00">ZendDbSchema_Db_Schema_Validator_AbstractValidator\validateForeignKey</text>
</a>
</g>
<!-- Node1&#45;&gt;Node7 -->
<g id="edge12" class="edge"><title>Node1&#45;&gt;Node7</title>
<path fill="none" stroke="midnightblue" d="M173.853,-100.376C207.706,-82.7839 279.234,-47.8758 344,-31 355.7,-27.9515 367.948,-25.3677 380.313,-23.1776"/>
<polygon fill="midnightblue" stroke="midnightblue" points="380.967,-26.6169 390.246,-21.5043 379.804,-19.7142 380.967,-26.6169"/>
</g>
</g>
</svg>
