<?xml version="1.0" encoding="UTF-8" standalone="no"?>
<!DOCTYPE svg PUBLIC "-//W3C//DTD SVG 1.1//EN"
 "http://www.w3.org/Graphics/SVG/1.1/DTD/svg11.dtd">
<!-- Generated by graphviz version 2.26.3 (20100126.1600)
 -->
<!-- Title: G Pages: 1 -->
<svg width="834pt" height="150pt"
 viewBox="0.00 0.00 834.00 150.00" xmlns="http://www.w3.org/2000/svg" xmlns:xlink="http://www.w3.org/1999/xlink">
<g id="graph1" class="graph" transform="scale(1 1) rotate(0) translate(4 146)">
<title>G</title>
<polygon fill="white" stroke="white" points="-4,5 -4,-146 831,-146 831,5 -4,5"/>
<!-- Node1 -->
<g id="node1" class="node"><title>Node1</title>
<polygon fill="#bfbfbf" stroke="black" points="0.5,-60.5 0.5,-81.5 217.5,-81.5 217.5,-60.5 0.5,-60.5"/>
<text text-anchor="middle" x="109" y="-68.5" font-family="Helvetica,sans-Serif" font-size="10.00">ZendDbSchema_Db_Schema_Table\_doSave</text>
</g>
<!-- Node2 -->
<g id="node3" class="node"><title>Node2</title>
<a xlink:href="classZendDbSchema__Db__Schema__AbstractSchema.html#a1680a8fd22360f74d29b641d7257a52f" target="_top" xlink:title="ZendDbSchema_Db_Schema_AbstractSchema\\isExist">
<polygon fill="white" stroke="black" points="254.5,-120.5 254.5,-141.5 511.5,-141.5 511.5,-120.5 254.5,-120.5"/>
<text text-anchor="middle" x="383" y="-128.5" font-family="Helvetica,sans-Serif" font-size="10.00">ZendDbSchema_Db_Schema_AbstractSchema\isExist</text>
</a>
</g>
<!-- Node1&#45;&gt;Node2 -->
<g id="edge2" class="edge"><title>Node1&#45;&gt;Node2</title>
<path fill="none" stroke="midnightblue" d="M143.003,-81.5774C172.215,-90.3755 215.574,-102.75 254,-111 267.373,-113.871 281.61,-116.5 295.561,-118.842"/>
<polygon fill="midnightblue" stroke="midnightblue" points="295.217,-122.332 305.652,-120.495 296.349,-115.424 295.217,-122.332"/>
</g>
<!-- Node4 -->
<g id="node7" class="node"><title>Node4</title>
<a xlink:href="classZendDbSchema__Db__Schema__Table.html#a214354faa96de67a26b787c2c8741850" target="_top" xlink:title="ZendDbSchema_Db_Schema_Table\\columns">
<polygon fill="white" stroke="black" points="275.5,-80.5 275.5,-101.5 490.5,-101.5 490.5,-80.5 275.5,-80.5"/>
<text text-anchor="middle" x="383" y="-88.5" font-family="Helvetica,sans-Serif" font-size="10.00">ZendDbSchema_Db_Schema_Table\columns</text>
</a>
</g>
<!-- Node1&#45;&gt;Node4 -->
<g id="edge6" class="edge"><title>Node1&#45;&gt;Node4</title>
<path fill="none" stroke="midnightblue" d="M217.686,-78.9333C233.251,-80.0694 249.327,-81.2428 265.061,-82.3913"/>
<polygon fill="midnightblue" stroke="midnightblue" points="265.113,-85.9044 275.342,-83.1417 265.623,-78.9229 265.113,-85.9044"/>
</g>
<!-- Node5 -->
<g id="node9" class="node"><title>Node5</title>
<a xlink:href="classZendDbSchema__Db__Schema__Table.html#ad7f1a12ae1ef3841d3ffe89038f0aebe" target="_top" xlink:title="ZendDbSchema_Db_Schema_Table\\index">
<polygon fill="white" stroke="black" points="282,-40.5 282,-61.5 484,-61.5 484,-40.5 282,-40.5"/>
<text text-anchor="middle" x="383" y="-48.5" font-family="Helvetica,sans-Serif" font-size="10.00">ZendDbSchema_Db_Schema_Table\index</text>
</a>
</g>
<!-- Node1&#45;&gt;Node5 -->
<g id="edge8" class="edge"><title>Node1&#45;&gt;Node5</title>
<path fill="none" stroke="midnightblue" d="M217.686,-63.0667C235.296,-61.7813 253.56,-60.4482 271.242,-59.1575"/>
<polygon fill="midnightblue" stroke="midnightblue" points="271.858,-62.6219 281.577,-58.4031 271.349,-55.6405 271.858,-62.6219"/>
</g>
<!-- Node6 -->
<g id="node11" class="node"><title>Node6</title>
<a xlink:href="classZendDbSchema__Db__Schema__Table.html#a3992b8eb9d65141d6f42bced961d115d" target="_top" xlink:title="ZendDbSchema_Db_Schema_Table\\primary">
<polygon fill="white" stroke="black" points="277.5,-0.5 277.5,-21.5 488.5,-21.5 488.5,-0.5 277.5,-0.5"/>
<text text-anchor="middle" x="383" y="-8.5" font-family="Helvetica,sans-Serif" font-size="10.00">ZendDbSchema_Db_Schema_Table\primary</text>
</a>
</g>
<!-- Node1&#45;&gt;Node6 -->
<g id="edge10" class="edge"><title>Node1&#45;&gt;Node6</title>
<path fill="none" stroke="midnightblue" d="M143.003,-60.4226C172.215,-51.6245 215.574,-39.2501 254,-31 267.373,-28.1288 281.61,-25.4998 295.561,-23.1584"/>
<polygon fill="midnightblue" stroke="midnightblue" points="296.349,-26.576 305.652,-21.505 295.217,-19.6681 296.349,-26.576"/>
</g>
<!-- Node3 -->
<g id="node5" class="node"><title>Node3</title>
<a xlink:href="classZendDbSchema__Db__Schema__AbstractSchema.html#a219012c80be57ace4b1db43a9c48eb3d" target="_top" xlink:title="ZendDbSchema_Db_Schema_AbstractSchema\\getSchema">
<polygon fill="white" stroke="black" points="548.5,-120.5 548.5,-141.5 825.5,-141.5 825.5,-120.5 548.5,-120.5"/>
<text text-anchor="middle" x="687" y="-128.5" font-family="Helvetica,sans-Serif" font-size="10.00">ZendDbSchema_Db_Schema_AbstractSchema\getSchema</text>
</a>
</g>
<!-- Node2&#45;&gt;Node3 -->
<g id="edge4" class="edge"><title>Node2&#45;&gt;Node3</title>
<path fill="none" stroke="midnightblue" d="M511.923,-131C520.531,-131 529.239,-131 537.934,-131"/>
<polygon fill="midnightblue" stroke="midnightblue" points="538.129,-134.5 548.129,-131 538.129,-127.5 538.129,-134.5"/>
</g>
</g>
</svg>
