<?xml version="1.0" encoding="UTF-8" standalone="no"?>
<!DOCTYPE svg PUBLIC "-//W3C//DTD SVG 1.1//EN"
 "http://www.w3.org/Graphics/SVG/1.1/DTD/svg11.dtd">
<!-- Generated by graphviz version 2.26.3 (20100126.1600)
 -->
<!-- Title: G Pages: 1 -->
<svg width="904pt" height="30pt"
 viewBox="0.00 0.00 904.00 30.00" xmlns="http://www.w3.org/2000/svg" xmlns:xlink="http://www.w3.org/1999/xlink">
<g id="graph1" class="graph" transform="scale(1 1) rotate(0) translate(4 26)">
<title>G</title>
<polygon fill="white" stroke="white" points="-4,5 -4,-26 901,-26 901,5 -4,5"/>
<!-- Node1 -->
<g id="node1" class="node"><title>Node1</title>
<polygon fill="#bfbfbf" stroke="black" points="0,-0.5 0,-21.5 272,-21.5 272,-0.5 0,-0.5"/>
<text text-anchor="middle" x="136" y="-8.5" font-family="Helvetica,sans-Serif" font-size="10.00">ZendDbSchema_Db_Schema_Generator_Mysql\dropIndex</text>
</g>
<!-- Node2 -->
<g id="node3" class="node"><title>Node2</title>
<a xlink:href="classZendDbSchema__Db__Schema__Generator__Mysql.html#a5546e56c0c78f9c9d3e830fb5ffcd72d" target="_top" xlink:title="ZendDbSchema_Db_Schema_Generator_Mysql\\createIndex">
<polygon fill="white" stroke="black" points="308,-0.5 308,-21.5 588,-21.5 588,-0.5 308,-0.5"/>
<text text-anchor="middle" x="448" y="-8.5" font-family="Helvetica,sans-Serif" font-size="10.00">ZendDbSchema_Db_Schema_Generator_Mysql\createIndex</text>
</a>
</g>
<!-- Node1&#45;&gt;Node2 -->
<g id="edge2" class="edge"><title>Node1&#45;&gt;Node2</title>
<path fill="none" stroke="midnightblue" d="M282.663,-11C291.103,-11 299.579,-11 307.993,-11"/>
<polygon fill="midnightblue" stroke="midnightblue" points="282.394,-7.5001 272.394,-11 282.394,-14.5001 282.394,-7.5001"/>
</g>
<!-- Node3 -->
<g id="node5" class="node"><title>Node3</title>
<a xlink:href="classZendDbSchema__Db__Schema__Generator__Mysql.html#a0f94d6cabe125b387efa64fc7160a9e5" target="_top" xlink:title="ZendDbSchema_Db_Schema_Generator_Mysql\\alterIndex">
<polygon fill="white" stroke="black" points="624,-0.5 624,-21.5 896,-21.5 896,-0.5 624,-0.5"/>
<text text-anchor="middle" x="760" y="-8.5" font-family="Helvetica,sans-Serif" font-size="10.00">ZendDbSchema_Db_Schema_Generator_Mysql\alterIndex</text>
</a>
</g>
<!-- Node2&#45;&gt;Node3 -->
<g id="edge4" class="edge"><title>Node2&#45;&gt;Node3</title>
<path fill="none" stroke="midnightblue" d="M598.03,-11C606.564,-11 615.122,-11 623.602,-11"/>
<polygon fill="midnightblue" stroke="midnightblue" points="598.029,-7.5001 588.029,-11 598.029,-14.5001 598.029,-7.5001"/>
</g>
</g>
</svg>
