<?xml version="1.0" encoding="UTF-8" standalone="no"?>
<!DOCTYPE svg PUBLIC "-//W3C//DTD SVG 1.1//EN"
 "http://www.w3.org/Graphics/SVG/1.1/DTD/svg11.dtd">
<!-- Generated by graphviz version 2.26.3 (20100126.1600)
 -->
<!-- Title: G Pages: 1 -->
<svg width="626pt" height="630pt"
 viewBox="0.00 0.00 626.00 630.00" xmlns="http://www.w3.org/2000/svg" xmlns:xlink="http://www.w3.org/1999/xlink">
<g id="graph1" class="graph" transform="scale(1 1) rotate(0) translate(4 626)">
<title>G</title>
<polygon fill="white" stroke="white" points="-4,5 -4,-626 623,-626 623,5 -4,5"/>
<!-- Node1 -->
<g id="node1" class="node"><title>Node1</title>
<polygon fill="#bfbfbf" stroke="black" points="0,-300.5 0,-321.5 284,-321.5 284,-300.5 0,-300.5"/>
<text text-anchor="middle" x="142" y="-308.5" font-family="Helvetica,sans-Serif" font-size="10.00">ZendDbSchema_Db_Schema_AbstractSchema\getGenerator</text>
</g>
<!-- Node2 -->
<g id="node3" class="node"><title>Node2</title>
<a xlink:href="classZendDbSchema__Db__Schema__Table__PrimaryKey.html#a3f48dd085068f13258957efeb0f7257b" target="_top" xlink:title="ZendDbSchema_Db_Schema_Table_PrimaryKey\\_getAlterSql">
<polygon fill="white" stroke="black" points="325,-600.5 325,-621.5 613,-621.5 613,-600.5 325,-600.5"/>
<text text-anchor="middle" x="469" y="-608.5" font-family="Helvetica,sans-Serif" font-size="10.00">ZendDbSchema_Db_Schema_Table_PrimaryKey\_getAlterSql</text>
</a>
</g>
<!-- Node1&#45;&gt;Node2 -->
<g id="edge2" class="edge"><title>Node1&#45;&gt;Node2</title>
<path fill="none" stroke="midnightblue" d="M148.205,-331.332C165.54,-384.322 219.894,-526.979 320,-591 325.717,-594.656 331.809,-597.776 338.142,-600.431"/>
<polygon fill="midnightblue" stroke="midnightblue" points="151.512,-330.182 145.147,-321.712 144.841,-332.302 151.512,-330.182"/>
</g>
<!-- Node3 -->
<g id="node5" class="node"><title>Node3</title>
<a xlink:href="classZendDbSchema__Db__Schema__Database.html#a4f5a636c4e7d8ab57f6e090cdf8841dc" target="_top" xlink:title="ZendDbSchema_Db_Schema_Database\\_getAlterSql">
<polygon fill="white" stroke="black" points="344,-560.5 344,-581.5 594,-581.5 594,-560.5 344,-560.5"/>
<text text-anchor="middle" x="469" y="-568.5" font-family="Helvetica,sans-Serif" font-size="10.00">ZendDbSchema_Db_Schema_Database\_getAlterSql</text>
</a>
</g>
<!-- Node1&#45;&gt;Node3 -->
<g id="edge4" class="edge"><title>Node1&#45;&gt;Node3</title>
<path fill="none" stroke="midnightblue" d="M150.178,-330.978C170.732,-378.364 229.466,-497.584 320,-551 327.418,-555.377 335.4,-558.957 343.676,-561.875"/>
<polygon fill="midnightblue" stroke="midnightblue" points="153.397,-329.603 146.273,-321.762 146.952,-332.335 153.397,-329.603"/>
</g>
<!-- Node4 -->
<g id="node7" class="node"><title>Node4</title>
<a xlink:href="classZendDbSchema__Db__Schema__Table__ForeignKey.html#ae7cb55b4ec471ccb54ef38ef4bb33558" target="_top" xlink:title="ZendDbSchema_Db_Schema_Table_ForeignKey\\_getAlterSql">
<polygon fill="white" stroke="black" points="325.5,-520.5 325.5,-541.5 612.5,-541.5 612.5,-520.5 325.5,-520.5"/>
<text text-anchor="middle" x="469" y="-528.5" font-family="Helvetica,sans-Serif" font-size="10.00">ZendDbSchema_Db_Schema_Table_ForeignKey\_getAlterSql</text>
</a>
</g>
<!-- Node1&#45;&gt;Node4 -->
<g id="edge6" class="edge"><title>Node1&#45;&gt;Node4</title>
<path fill="none" stroke="midnightblue" d="M152.713,-330.422C176.62,-371.674 238.681,-467.784 320,-511 327.03,-514.736 334.499,-517.865 342.204,-520.48"/>
<polygon fill="midnightblue" stroke="midnightblue" points="155.692,-328.58 147.708,-321.614 149.605,-332.038 155.692,-328.58"/>
</g>
<!-- Node5 -->
<g id="node9" class="node"><title>Node5</title>
<a xlink:href="classZendDbSchema__Db__Schema__Table__Index.html#ab87e33f2415eaf43730ca6d43ec540b6" target="_top" xlink:title="ZendDbSchema_Db_Schema_Table_Index\\_getAlterSql">
<polygon fill="white" stroke="black" points="338.5,-480.5 338.5,-501.5 599.5,-501.5 599.5,-480.5 338.5,-480.5"/>
<text text-anchor="middle" x="469" y="-488.5" font-family="Helvetica,sans-Serif" font-size="10.00">ZendDbSchema_Db_Schema_Table_Index\_getAlterSql</text>
</a>
</g>
<!-- Node1&#45;&gt;Node5 -->
<g id="edge8" class="edge"><title>Node1&#45;&gt;Node5</title>
<path fill="none" stroke="midnightblue" d="M156.295,-329.804C183.759,-364.379 247.631,-437.563 320,-471 328.174,-474.777 336.851,-477.899 345.747,-480.474"/>
<polygon fill="midnightblue" stroke="midnightblue" points="158.737,-327.244 149.824,-321.516 153.219,-331.552 158.737,-327.244"/>
</g>
<!-- Node6 -->
<g id="node11" class="node"><title>Node6</title>
<a xlink:href="classZendDbSchema__Db__Schema__Table__Column.html#ae49fb9ae5b0f6d6258dc71f644e00991" target="_top" xlink:title="ZendDbSchema_Db_Schema_Table_Column\\_getAlterSql">
<polygon fill="white" stroke="black" points="333.5,-440.5 333.5,-461.5 604.5,-461.5 604.5,-440.5 333.5,-440.5"/>
<text text-anchor="middle" x="469" y="-448.5" font-family="Helvetica,sans-Serif" font-size="10.00">ZendDbSchema_Db_Schema_Table_Column\_getAlterSql</text>
</a>
</g>
<!-- Node1&#45;&gt;Node6 -->
<g id="edge10" class="edge"><title>Node1&#45;&gt;Node6</title>
<path fill="none" stroke="midnightblue" d="M161.247,-328.475C192.179,-355.453 255.996,-406.667 320,-431 330.003,-434.803 340.623,-437.9 351.407,-440.421"/>
<polygon fill="midnightblue" stroke="midnightblue" points="163.23,-325.556 153.422,-321.551 158.592,-330.798 163.23,-325.556"/>
</g>
<!-- Node7 -->
<g id="node13" class="node"><title>Node7</title>
<a xlink:href="classZendDbSchema__Db__Schema__Table.html#a385e32fefac9fd4c6e4274c1e0c0b810" target="_top" xlink:title="ZendDbSchema_Db_Schema_Table\\_getAlterSql">
<polygon fill="white" stroke="black" points="353,-400.5 353,-421.5 585,-421.5 585,-400.5 353,-400.5"/>
<text text-anchor="middle" x="469" y="-408.5" font-family="Helvetica,sans-Serif" font-size="10.00">ZendDbSchema_Db_Schema_Table\_getAlterSql</text>
</a>
</g>
<!-- Node1&#45;&gt;Node7 -->
<g id="edge12" class="edge"><title>Node1&#45;&gt;Node7</title>
<path fill="none" stroke="midnightblue" d="M169.456,-326.368C203.633,-344.776 264.31,-375.112 320,-391 333.428,-394.831 347.751,-397.934 362.008,-400.446"/>
<polygon fill="midnightblue" stroke="midnightblue" points="171.001,-323.224 160.545,-321.514 167.652,-329.371 171.001,-323.224"/>
</g>
<!-- Node8 -->
<g id="node15" class="node"><title>Node8</title>
<a xlink:href="classZendDbSchema__Db__Schema__Table__PrimaryKey.html#a97fe22c0e5758e1ee04616ccf3218e2a" target="_top" xlink:title="ZendDbSchema_Db_Schema_Table_PrimaryKey\\_getCreateSql">
<polygon fill="white" stroke="black" points="320.5,-360.5 320.5,-381.5 617.5,-381.5 617.5,-360.5 320.5,-360.5"/>
<text text-anchor="middle" x="469" y="-368.5" font-family="Helvetica,sans-Serif" font-size="10.00">ZendDbSchema_Db_Schema_Table_PrimaryKey\_getCreateSql</text>
</a>
</g>
<!-- Node1&#45;&gt;Node8 -->
<g id="edge14" class="edge"><title>Node1&#45;&gt;Node8</title>
<path fill="none" stroke="midnightblue" d="M194.31,-324.023C229.646,-332.508 277.436,-343.376 320,-351 339.654,-354.52 360.867,-357.723 380.952,-360.483"/>
<polygon fill="midnightblue" stroke="midnightblue" points="194.769,-320.534 184.227,-321.586 193.125,-327.338 194.769,-320.534"/>
</g>
<!-- Node9 -->
<g id="node17" class="node"><title>Node9</title>
<a xlink:href="classZendDbSchema__Db__Schema__Database.html#a48ad6cd38cc07c3c350335d21d7c11e9" target="_top" xlink:title="ZendDbSchema_Db_Schema_Database\\_getCreateSql">
<polygon fill="white" stroke="black" points="339.5,-320.5 339.5,-341.5 598.5,-341.5 598.5,-320.5 339.5,-320.5"/>
<text text-anchor="middle" x="469" y="-328.5" font-family="Helvetica,sans-Serif" font-size="10.00">ZendDbSchema_Db_Schema_Database\_getCreateSql</text>
</a>
</g>
<!-- Node1&#45;&gt;Node9 -->
<g id="edge16" class="edge"><title>Node1&#45;&gt;Node9</title>
<path fill="none" stroke="midnightblue" d="M294.407,-320.322C309.477,-321.243 324.674,-322.173 339.481,-323.078"/>
<polygon fill="midnightblue" stroke="midnightblue" points="294.195,-316.802 284,-319.685 293.768,-323.789 294.195,-316.802"/>
</g>
<!-- Node10 -->
<g id="node19" class="node"><title>Node10</title>
<a xlink:href="classZendDbSchema__Db__Schema__Table__Column.html#a2312222bd78d06775dacb19b92638b69" target="_top" xlink:title="ZendDbSchema_Db_Schema_Table_Column\\_getCreateSql">
<polygon fill="white" stroke="black" points="329,-280.5 329,-301.5 609,-301.5 609,-280.5 329,-280.5"/>
<text text-anchor="middle" x="469" y="-288.5" font-family="Helvetica,sans-Serif" font-size="10.00">ZendDbSchema_Db_Schema_Table_Column\_getCreateSql</text>
</a>
</g>
<!-- Node1&#45;&gt;Node10 -->
<g id="edge18" class="edge"><title>Node1&#45;&gt;Node10</title>
<path fill="none" stroke="midnightblue" d="M294.165,-301.693C305.761,-300.984 317.434,-300.27 328.948,-299.566"/>
<polygon fill="midnightblue" stroke="midnightblue" points="293.768,-298.211 284,-302.315 294.195,-305.198 293.768,-298.211"/>
</g>
<!-- Node11 -->
<g id="node21" class="node"><title>Node11</title>
<a xlink:href="classZendDbSchema__Db__Schema__Table__ForeignKey.html#a8b8ab754bf3b5bcda1e8c70e83a6b7b9" target="_top" xlink:title="ZendDbSchema_Db_Schema_Table_ForeignKey\\_getCreateSql">
<polygon fill="white" stroke="black" points="321,-240.5 321,-261.5 617,-261.5 617,-240.5 321,-240.5"/>
<text text-anchor="middle" x="469" y="-248.5" font-family="Helvetica,sans-Serif" font-size="10.00">ZendDbSchema_Db_Schema_Table_ForeignKey\_getCreateSql</text>
</a>
</g>
<!-- Node1&#45;&gt;Node11 -->
<g id="edge20" class="edge"><title>Node1&#45;&gt;Node11</title>
<path fill="none" stroke="midnightblue" d="M194.31,-297.977C229.646,-289.492 277.436,-278.624 320,-271 339.654,-267.48 360.867,-264.277 380.952,-261.517"/>
<polygon fill="midnightblue" stroke="midnightblue" points="193.125,-294.662 184.227,-300.414 194.769,-301.466 193.125,-294.662"/>
</g>
<!-- Node12 -->
<g id="node23" class="node"><title>Node12</title>
<a xlink:href="classZendDbSchema__Db__Schema__Table__Index.html#afec61cbe6c22bd42e30103bc3d37ef2d" target="_top" xlink:title="ZendDbSchema_Db_Schema_Table_Index\\_getCreateSql">
<polygon fill="white" stroke="black" points="334,-200.5 334,-221.5 604,-221.5 604,-200.5 334,-200.5"/>
<text text-anchor="middle" x="469" y="-208.5" font-family="Helvetica,sans-Serif" font-size="10.00">ZendDbSchema_Db_Schema_Table_Index\_getCreateSql</text>
</a>
</g>
<!-- Node1&#45;&gt;Node12 -->
<g id="edge22" class="edge"><title>Node1&#45;&gt;Node12</title>
<path fill="none" stroke="midnightblue" d="M169.456,-295.632C203.633,-277.224 264.31,-246.888 320,-231 333.428,-227.169 347.751,-224.066 362.008,-221.554"/>
<polygon fill="midnightblue" stroke="midnightblue" points="167.652,-292.629 160.545,-300.486 171.001,-298.776 167.652,-292.629"/>
</g>
<!-- Node13 -->
<g id="node25" class="node"><title>Node13</title>
<a xlink:href="classZendDbSchema__Db__Schema__Table.html#aefb813dece15a26017e580acc64e3406" target="_top" xlink:title="ZendDbSchema_Db_Schema_Table\\_getCreateSql">
<polygon fill="white" stroke="black" points="348.5,-160.5 348.5,-181.5 589.5,-181.5 589.5,-160.5 348.5,-160.5"/>
<text text-anchor="middle" x="469" y="-168.5" font-family="Helvetica,sans-Serif" font-size="10.00">ZendDbSchema_Db_Schema_Table\_getCreateSql</text>
</a>
</g>
<!-- Node1&#45;&gt;Node13 -->
<g id="edge24" class="edge"><title>Node1&#45;&gt;Node13</title>
<path fill="none" stroke="midnightblue" d="M161.247,-293.525C192.179,-266.547 255.996,-215.333 320,-191 330.003,-187.197 340.623,-184.1 351.407,-181.579"/>
<polygon fill="midnightblue" stroke="midnightblue" points="158.592,-291.202 153.422,-300.449 163.23,-296.444 158.592,-291.202"/>
</g>
<!-- Node14 -->
<g id="node27" class="node"><title>Node14</title>
<a xlink:href="classZendDbSchema__Db__Schema__Table__PrimaryKey.html#a1da04c2b8330ad70171fd6b1802d14f2" target="_top" xlink:title="ZendDbSchema_Db_Schema_Table_PrimaryKey\\_getDeleteSql">
<polygon fill="white" stroke="black" points="321,-120.5 321,-141.5 617,-141.5 617,-120.5 321,-120.5"/>
<text text-anchor="middle" x="469" y="-128.5" font-family="Helvetica,sans-Serif" font-size="10.00">ZendDbSchema_Db_Schema_Table_PrimaryKey\_getDeleteSql</text>
</a>
</g>
<!-- Node1&#45;&gt;Node14 -->
<g id="edge26" class="edge"><title>Node1&#45;&gt;Node14</title>
<path fill="none" stroke="midnightblue" d="M156.295,-292.196C183.759,-257.621 247.631,-184.437 320,-151 328.174,-147.223 336.851,-144.101 345.747,-141.526"/>
<polygon fill="midnightblue" stroke="midnightblue" points="153.219,-290.448 149.824,-300.484 158.737,-294.756 153.219,-290.448"/>
</g>
<!-- Node15 -->
<g id="node29" class="node"><title>Node15</title>
<a xlink:href="classZendDbSchema__Db__Schema__Table__Index.html#a54a12dab52e17f1218fafcd13b334d16" target="_top" xlink:title="ZendDbSchema_Db_Schema_Table_Index\\_getDeleteSql">
<polygon fill="white" stroke="black" points="334.5,-80.5 334.5,-101.5 603.5,-101.5 603.5,-80.5 334.5,-80.5"/>
<text text-anchor="middle" x="469" y="-88.5" font-family="Helvetica,sans-Serif" font-size="10.00">ZendDbSchema_Db_Schema_Table_Index\_getDeleteSql</text>
</a>
</g>
<!-- Node1&#45;&gt;Node15 -->
<g id="edge28" class="edge"><title>Node1&#45;&gt;Node15</title>
<path fill="none" stroke="midnightblue" d="M152.713,-291.578C176.62,-250.326 238.681,-154.216 320,-111 327.03,-107.264 334.499,-104.135 342.204,-101.52"/>
<polygon fill="midnightblue" stroke="midnightblue" points="149.605,-289.962 147.708,-300.386 155.692,-293.42 149.605,-289.962"/>
</g>
<!-- Node16 -->
<g id="node31" class="node"><title>Node16</title>
<a xlink:href="classZendDbSchema__Db__Schema__Table__Column.html#a9b1cc87143098c64df381066af91222c" target="_top" xlink:title="ZendDbSchema_Db_Schema_Table_Column\\_getDeleteSql">
<polygon fill="white" stroke="black" points="329.5,-40.5 329.5,-61.5 608.5,-61.5 608.5,-40.5 329.5,-40.5"/>
<text text-anchor="middle" x="469" y="-48.5" font-family="Helvetica,sans-Serif" font-size="10.00">ZendDbSchema_Db_Schema_Table_Column\_getDeleteSql</text>
</a>
</g>
<!-- Node1&#45;&gt;Node16 -->
<g id="edge30" class="edge"><title>Node1&#45;&gt;Node16</title>
<path fill="none" stroke="midnightblue" d="M150.178,-291.022C170.732,-243.636 229.466,-124.416 320,-71 326.182,-67.3527 332.755,-64.2582 339.564,-61.6399"/>
<polygon fill="midnightblue" stroke="midnightblue" points="146.952,-289.665 146.273,-300.238 153.397,-292.397 146.952,-289.665"/>
</g>
<!-- Node17 -->
<g id="node33" class="node"><title>Node17</title>
<a xlink:href="classZendDbSchema__Db__Schema__Table__ForeignKey.html#acc96fbb08d8271259f56bd77c37f2da4" target="_top" xlink:title="ZendDbSchema_Db_Schema_Table_ForeignKey\\_getDeleteSql">
<polygon fill="white" stroke="black" points="321.5,-0.5 321.5,-21.5 616.5,-21.5 616.5,-0.5 321.5,-0.5"/>
<text text-anchor="middle" x="469" y="-8.5" font-family="Helvetica,sans-Serif" font-size="10.00">ZendDbSchema_Db_Schema_Table_ForeignKey\_getDeleteSql</text>
</a>
</g>
<!-- Node1&#45;&gt;Node17 -->
<g id="edge32" class="edge"><title>Node1&#45;&gt;Node17</title>
<path fill="none" stroke="midnightblue" d="M148.205,-290.668C165.54,-237.678 219.894,-95.0206 320,-31 325.717,-27.3439 331.809,-24.2241 338.142,-21.5695"/>
<polygon fill="midnightblue" stroke="midnightblue" points="144.841,-289.698 145.147,-300.288 151.512,-291.818 144.841,-289.698"/>
</g>
</g>
</svg>
