<?xml version="1.0" encoding="UTF-8" standalone="no"?>
<!DOCTYPE svg PUBLIC "-//W3C//DTD SVG 1.1//EN"
 "http://www.w3.org/Graphics/SVG/1.1/DTD/svg11.dtd">
<!-- Generated by graphviz version 2.26.3 (20100126.1600)
 -->
<!-- Title: G Pages: 1 -->
<svg width="2084pt" height="50pt"
 viewBox="0.00 0.00 2084.00 50.00" xmlns="http://www.w3.org/2000/svg" xmlns:xlink="http://www.w3.org/1999/xlink">
<g id="graph1" class="graph" transform="scale(1 1) rotate(0) translate(4 46)">
<title>G</title>
<polygon fill="white" stroke="white" points="-4,5 -4,-46 2081,-46 2081,5 -4,5"/>
<!-- Node1 -->
<g id="node1" class="node"><title>Node1</title>
<polygon fill="#bfbfbf" stroke="black" points="0,-0.5 0,-21.5 406,-21.5 406,-0.5 0,-0.5"/>
<text text-anchor="middle" x="203" y="-8.5" font-family="Helvetica,sans-Serif" font-size="10.00">ZendDbSchema_Db_Schema_Table_DefinitionManager_AbstractManager\_getItemClass</text>
</g>
<!-- Node2 -->
<g id="node3" class="node"><title>Node2</title>
<a xlink:href="classZendDbSchema__Db__Schema__Table__DefinitionManager__AbstractManager.html#a6d815884ca03c003ac7f8d633e97f7c6" target="_top" xlink:title="ZendDbSchema_Db_Schema_Table_DefinitionManager_AbstractManager\\add">
<polygon fill="white" stroke="black" points="442,-20.5 442,-41.5 800,-41.5 800,-20.5 442,-20.5"/>
<text text-anchor="middle" x="621" y="-28.5" font-family="Helvetica,sans-Serif" font-size="10.00">ZendDbSchema_Db_Schema_Table_DefinitionManager_AbstractManager\add</text>
</a>
</g>
<!-- Node1&#45;&gt;Node2 -->
<g id="edge2" class="edge"><title>Node1&#45;&gt;Node2</title>
<path fill="none" stroke="midnightblue" d="M416.269,-21.2042C424.859,-21.6153 433.439,-22.0258 441.952,-22.4331"/>
<polygon fill="midnightblue" stroke="midnightblue" points="416.34,-17.7037 406.184,-20.7217 416.005,-24.6957 416.34,-17.7037"/>
</g>
<!-- Node3 -->
<g id="node5" class="node"><title>Node3</title>
<a xlink:href="classZendDbSchema__Db__Schema__Table__DefinitionManager__AbstractManager.html#a40677ee7cb91e19c1587bdda9e73d3d5" target="_top" xlink:title="ZendDbSchema_Db_Schema_Table_DefinitionManager_AbstractManager\\setFromArray">
<polygon fill="white" stroke="black" points="836.5,-0.5 836.5,-21.5 1237.5,-21.5 1237.5,-0.5 836.5,-0.5"/>
<text text-anchor="middle" x="1037" y="-8.5" font-family="Helvetica,sans-Serif" font-size="10.00">ZendDbSchema_Db_Schema_Table_DefinitionManager_AbstractManager\setFromArray</text>
</a>
</g>
<!-- Node1&#45;&gt;Node3 -->
<g id="edge10" class="edge"><title>Node1&#45;&gt;Node3</title>
<path fill="none" stroke="midnightblue" d="M416.246,-11C545.45,-11 709.256,-11 836.153,-11"/>
<polygon fill="midnightblue" stroke="midnightblue" points="416.219,-7.5001 406.219,-11 416.219,-14.5001 416.219,-7.5001"/>
</g>
<!-- Node2&#45;&gt;Node3 -->
<g id="edge4" class="edge"><title>Node2&#45;&gt;Node3</title>
<path fill="none" stroke="midnightblue" d="M810.284,-21.8998C818.948,-21.4833 827.655,-21.0647 836.345,-20.6469"/>
<polygon fill="midnightblue" stroke="midnightblue" points="809.958,-18.4113 800.138,-22.3876 810.294,-25.4033 809.958,-18.4113"/>
</g>
<!-- Node4 -->
<g id="node7" class="node"><title>Node4</title>
<a xlink:href="classZendDbSchema__Db__Schema__Table__DefinitionManager__AbstractManager.html#a7503e344823c2a1e1e3beb80b8541116" target="_top" xlink:title="ZendDbSchema_Db_Schema_Table_DefinitionManager_AbstractManager\\refresh">
<polygon fill="white" stroke="black" points="1274,-0.5 1274,-21.5 1646,-21.5 1646,-0.5 1274,-0.5"/>
<text text-anchor="middle" x="1460" y="-8.5" font-family="Helvetica,sans-Serif" font-size="10.00">ZendDbSchema_Db_Schema_Table_DefinitionManager_AbstractManager\refresh</text>
</a>
</g>
<!-- Node3&#45;&gt;Node4 -->
<g id="edge6" class="edge"><title>Node3&#45;&gt;Node4</title>
<path fill="none" stroke="midnightblue" d="M1247.84,-11C1256.51,-11 1265.19,-11 1273.81,-11"/>
<polygon fill="midnightblue" stroke="midnightblue" points="1247.66,-7.5001 1237.66,-11 1247.66,-14.5001 1247.66,-7.5001"/>
</g>
<!-- Node5 -->
<g id="node9" class="node"><title>Node5</title>
<a xlink:href="classZendDbSchema__Db__Schema__Table__DefinitionManager__AbstractManager.html#a5cf66698784c55ebbd70292e268505af" target="_top" xlink:title="ZendDbSchema_Db_Schema_Table_DefinitionManager_AbstractManager\\__construct">
<polygon fill="white" stroke="black" points="1682.5,-0.5 1682.5,-21.5 2075.5,-21.5 2075.5,-0.5 1682.5,-0.5"/>
<text text-anchor="middle" x="1879" y="-8.5" font-family="Helvetica,sans-Serif" font-size="10.00">ZendDbSchema_Db_Schema_Table_DefinitionManager_AbstractManager\__construct</text>
</a>
</g>
<!-- Node4&#45;&gt;Node5 -->
<g id="edge8" class="edge"><title>Node4&#45;&gt;Node5</title>
<path fill="none" stroke="midnightblue" d="M1656.38,-11C1665.06,-11 1673.76,-11 1682.43,-11"/>
<polygon fill="midnightblue" stroke="midnightblue" points="1656.22,-7.5001 1646.22,-11 1656.22,-14.5001 1656.22,-7.5001"/>
</g>
</g>
</svg>
