<?xml version="1.0" encoding="UTF-8" standalone="no"?>
<!DOCTYPE svg PUBLIC "-//W3C//DTD SVG 1.1//EN"
 "http://www.w3.org/Graphics/SVG/1.1/DTD/svg11.dtd">
<!-- Generated by graphviz version 2.26.3 (20100126.1600)
 -->
<!-- Title: G Pages: 1 -->
<svg width="1530pt" height="110pt"
 viewBox="0.00 0.00 1530.00 110.00" xmlns="http://www.w3.org/2000/svg" xmlns:xlink="http://www.w3.org/1999/xlink">
<g id="graph1" class="graph" transform="scale(1 1) rotate(0) translate(4 106)">
<title>G</title>
<polygon fill="white" stroke="white" points="-4,5 -4,-106 1527,-106 1527,5 -4,5"/>
<!-- Node1 -->
<g id="node1" class="node"><title>Node1</title>
<polygon fill="#bfbfbf" stroke="black" points="0.5,-59.5 0.5,-80.5 281.5,-80.5 281.5,-59.5 0.5,-59.5"/>
<text text-anchor="middle" x="141" y="-67.5" font-family="Helvetica,sans-Serif" font-size="10.00">ZendDbSchema_Db_Schema_Table_Manager_Index\refresh</text>
</g>
<!-- Node2 -->
<g id="node3" class="node"><title>Node2</title>
<a xlink:href="classZendDbSchema__Db__Schema__Table__Manager__Index.html#abf682839df69cd725db24701e901458f" target="_top" xlink:title="ZendDbSchema_Db_Schema_Table_Manager_Index\\_getItemClass">
<polygon fill="white" stroke="black" points="622,-80.5 622,-101.5 936,-101.5 936,-80.5 622,-80.5"/>
<text text-anchor="middle" x="779" y="-88.5" font-family="Helvetica,sans-Serif" font-size="10.00">ZendDbSchema_Db_Schema_Table_Manager_Index\_getItemClass</text>
</a>
</g>
<!-- Node1&#45;&gt;Node2 -->
<g id="edge2" class="edge"><title>Node1&#45;&gt;Node2</title>
<path fill="none" stroke="midnightblue" d="M281.802,-74.6345C379.109,-77.8374 508.987,-82.1124 611.598,-85.4899"/>
<polygon fill="midnightblue" stroke="midnightblue" points="611.646,-88.9933 621.756,-85.8243 611.876,-81.9971 611.646,-88.9933"/>
</g>
<!-- Node3 -->
<g id="node5" class="node"><title>Node3</title>
<a xlink:href="classZendDbSchema__Db__Schema__Table__Manager__Index.html#aad5593d15638018cb662002f35f1a975" target="_top" xlink:title="ZendDbSchema_Db_Schema_Table_Manager_Index\\add">
<polygon fill="white" stroke="black" points="318,-40.5 318,-61.5 584,-61.5 584,-40.5 318,-40.5"/>
<text text-anchor="middle" x="451" y="-48.5" font-family="Helvetica,sans-Serif" font-size="10.00">ZendDbSchema_Db_Schema_Table_Manager_Index\add</text>
</a>
</g>
<!-- Node1&#45;&gt;Node3 -->
<g id="edge4" class="edge"><title>Node1&#45;&gt;Node3</title>
<path fill="none" stroke="midnightblue" d="M281.94,-61.3617C290.562,-60.8333 299.242,-60.3013 307.874,-59.7723"/>
<polygon fill="midnightblue" stroke="midnightblue" points="308.209,-63.2583 317.977,-59.1531 307.781,-56.2715 308.209,-63.2583"/>
</g>
<!-- Node3&#45;&gt;Node2 -->
<g id="edge6" class="edge"><title>Node3&#45;&gt;Node2</title>
<path fill="none" stroke="midnightblue" d="M537.178,-61.5095C581.916,-66.9654 636.713,-73.6479 682.826,-79.2714"/>
<polygon fill="midnightblue" stroke="midnightblue" points="682.478,-82.7549 692.829,-80.4913 683.326,-75.8064 682.478,-82.7549"/>
</g>
<!-- Node4 -->
<g id="node8" class="node"><title>Node4</title>
<a xlink:href="classZendDbSchema__Db__Schema__AbstractSchema.html#a55787c21deddba427842809d589c2df6" target="_top" xlink:title="ZendDbSchema_Db_Schema_AbstractSchema\\getName">
<polygon fill="white" stroke="black" points="645.5,-40.5 645.5,-61.5 912.5,-61.5 912.5,-40.5 645.5,-40.5"/>
<text text-anchor="middle" x="779" y="-48.5" font-family="Helvetica,sans-Serif" font-size="10.00">ZendDbSchema_Db_Schema_AbstractSchema\getName</text>
</a>
</g>
<!-- Node3&#45;&gt;Node4 -->
<g id="edge8" class="edge"><title>Node3&#45;&gt;Node4</title>
<path fill="none" stroke="midnightblue" d="M584.41,-51C601.081,-51 618.188,-51 635.011,-51"/>
<polygon fill="midnightblue" stroke="midnightblue" points="635.442,-54.5001 645.442,-51 635.442,-47.5001 635.442,-54.5001"/>
</g>
<!-- Node7 -->
<g id="node14" class="node"><title>Node7</title>
<a xlink:href="classZendDbSchema__Db__Schema__Table__Manager__AbstractManager.html#ac96e8e5950ad6ff3387a51340d17e719" target="_top" xlink:title="ZendDbSchema_Db_Schema_Table_Manager_AbstractManager\\has">
<polygon fill="white" stroke="black" points="620.5,-0.5 620.5,-21.5 937.5,-21.5 937.5,-0.5 620.5,-0.5"/>
<text text-anchor="middle" x="779" y="-8.5" font-family="Helvetica,sans-Serif" font-size="10.00">ZendDbSchema_Db_Schema_Table_Manager_AbstractManager\has</text>
</a>
</g>
<!-- Node3&#45;&gt;Node7 -->
<g id="edge14" class="edge"><title>Node3&#45;&gt;Node7</title>
<path fill="none" stroke="midnightblue" d="M537.178,-40.4905C581.916,-35.0346 636.713,-28.3521 682.826,-22.7286"/>
<polygon fill="midnightblue" stroke="midnightblue" points="683.326,-26.1936 692.829,-21.5087 682.478,-19.2451 683.326,-26.1936"/>
</g>
<!-- Node5 -->
<g id="node10" class="node"><title>Node5</title>
<a xlink:href="classZendDbSchema__Db__Schema__AbstractSchema.html#a54d32c6f15463eaad2321a9f0e7225d7" target="_top" xlink:title="ZendDbSchema_Db_Schema_AbstractSchema\\__get">
<polygon fill="white" stroke="black" points="974.5,-40.5 974.5,-61.5 1225.5,-61.5 1225.5,-40.5 974.5,-40.5"/>
<text text-anchor="middle" x="1100" y="-48.5" font-family="Helvetica,sans-Serif" font-size="10.00">ZendDbSchema_Db_Schema_AbstractSchema\__get</text>
</a>
</g>
<!-- Node4&#45;&gt;Node5 -->
<g id="edge10" class="edge"><title>Node4&#45;&gt;Node5</title>
<path fill="none" stroke="midnightblue" d="M912.808,-51C929.69,-51 946.977,-51 963.894,-51"/>
<polygon fill="midnightblue" stroke="midnightblue" points="964.372,-54.5001 974.372,-51 964.372,-47.5001 964.372,-54.5001"/>
</g>
<!-- Node6 -->
<g id="node12" class="node"><title>Node6</title>
<a xlink:href="classZendDbSchema__Db__Schema__AbstractSchema.html#ac4e121ba7932163eb1950fabe06fb9db" target="_top" xlink:title="ZendDbSchema_Db_Schema_AbstractSchema\\__isset">
<polygon fill="white" stroke="black" points="1262.5,-40.5 1262.5,-61.5 1521.5,-61.5 1521.5,-40.5 1262.5,-40.5"/>
<text text-anchor="middle" x="1392" y="-48.5" font-family="Helvetica,sans-Serif" font-size="10.00">ZendDbSchema_Db_Schema_AbstractSchema\__isset</text>
</a>
</g>
<!-- Node5&#45;&gt;Node6 -->
<g id="edge12" class="edge"><title>Node5&#45;&gt;Node6</title>
<path fill="none" stroke="midnightblue" d="M1225.53,-51C1234.4,-51 1243.38,-51 1252.32,-51"/>
<polygon fill="midnightblue" stroke="midnightblue" points="1252.4,-54.5001 1262.4,-51 1252.4,-47.5001 1252.4,-54.5001"/>
</g>
</g>
</svg>
