<?xml version="1.0" encoding="UTF-8" standalone="no"?>
<!DOCTYPE svg PUBLIC "-//W3C//DTD SVG 1.1//EN"
 "http://www.w3.org/Graphics/SVG/1.1/DTD/svg11.dtd">
<!-- Generated by graphviz version 2.26.3 (20100126.1600)
 -->
<!-- Title: G Pages: 1 -->
<svg width="1574pt" height="190pt"
 viewBox="0.00 0.00 1574.00 190.00" xmlns="http://www.w3.org/2000/svg" xmlns:xlink="http://www.w3.org/1999/xlink">
<g id="graph1" class="graph" transform="scale(1 1) rotate(0) translate(4 186)">
<title>G</title>
<polygon fill="white" stroke="white" points="-4,5 -4,-186 1571,-186 1571,5 -4,5"/>
<!-- Node1 -->
<g id="node1" class="node"><title>Node1</title>
<polygon fill="#bfbfbf" stroke="black" points="0,-80.5 0,-101.5 272,-101.5 272,-80.5 0,-80.5"/>
<text text-anchor="middle" x="136" y="-88.5" font-family="Helvetica,sans-Serif" font-size="10.00">ZendDbSchema_Db_Schema_AbstractSchema\__toString</text>
</g>
<!-- Node2 -->
<g id="node3" class="node"><title>Node2</title>
<a xlink:href="classZendDbSchema__Db__Schema__AbstractSchema.html#ada5af8e6e7a4c5407b7ca67d03900b31" target="_top" xlink:title="ZendDbSchema_Db_Schema_AbstractSchema\\toSql">
<polygon fill="white" stroke="black" points="308,-80.5 308,-101.5 558,-101.5 558,-80.5 308,-80.5"/>
<text text-anchor="middle" x="433" y="-88.5" font-family="Helvetica,sans-Serif" font-size="10.00">ZendDbSchema_Db_Schema_AbstractSchema\toSql</text>
</a>
</g>
<!-- Node1&#45;&gt;Node2 -->
<g id="edge2" class="edge"><title>Node1&#45;&gt;Node2</title>
<path fill="none" stroke="midnightblue" d="M272.331,-91C280.678,-91 289.078,-91 297.422,-91"/>
<polygon fill="midnightblue" stroke="midnightblue" points="297.567,-94.5001 307.567,-91 297.566,-87.5001 297.567,-94.5001"/>
</g>
<!-- Node3 -->
<g id="node5" class="node"><title>Node3</title>
<a xlink:href="classZendDbSchema__Db__Schema__AbstractSchema.html#aabe6ffa040ca4515338bed29f72c047f" target="_top" xlink:title="ZendDbSchema_Db_Schema_AbstractSchema\\isValid">
<polygon fill="white" stroke="black" points="610.5,-160.5 610.5,-181.5 867.5,-181.5 867.5,-160.5 610.5,-160.5"/>
<text text-anchor="middle" x="739" y="-168.5" font-family="Helvetica,sans-Serif" font-size="10.00">ZendDbSchema_Db_Schema_AbstractSchema\isValid</text>
</a>
</g>
<!-- Node2&#45;&gt;Node3 -->
<g id="edge4" class="edge"><title>Node2&#45;&gt;Node3</title>
<path fill="none" stroke="midnightblue" d="M456.217,-101.503C487.056,-115.022 543.526,-138.279 594,-151 605.861,-153.989 618.387,-156.562 630.91,-158.768"/>
<polygon fill="midnightblue" stroke="midnightblue" points="630.496,-162.248 640.939,-160.46 631.661,-155.345 630.496,-162.248"/>
</g>
<!-- Node4 -->
<g id="node7" class="node"><title>Node4</title>
<a xlink:href="classZendDbSchema__Db__Schema__AbstractSchema.html#ae859790a91bbcb9c4dc52a6139e5999e" target="_top" xlink:title="ZendDbSchema_Db_Schema_AbstractSchema\\isDirty">
<polygon fill="white" stroke="black" points="611,-80.5 611,-101.5 867,-101.5 867,-80.5 611,-80.5"/>
<text text-anchor="middle" x="739" y="-88.5" font-family="Helvetica,sans-Serif" font-size="10.00">ZendDbSchema_Db_Schema_AbstractSchema\isDirty</text>
</a>
</g>
<!-- Node2&#45;&gt;Node4 -->
<g id="edge6" class="edge"><title>Node2&#45;&gt;Node4</title>
<path fill="none" stroke="midnightblue" d="M558.345,-91C572.29,-91 586.553,-91 600.648,-91"/>
<polygon fill="midnightblue" stroke="midnightblue" points="600.875,-94.5001 610.875,-91 600.875,-87.5001 600.875,-94.5001"/>
</g>
<!-- Node9 -->
<g id="node18" class="node"><title>Node9</title>
<a xlink:href="classZendDbSchema__Db__Schema__AbstractSchema.html#a1680a8fd22360f74d29b641d7257a52f" target="_top" xlink:title="ZendDbSchema_Db_Schema_AbstractSchema\\isExist">
<polygon fill="white" stroke="black" points="610.5,-120.5 610.5,-141.5 867.5,-141.5 867.5,-120.5 610.5,-120.5"/>
<text text-anchor="middle" x="739" y="-128.5" font-family="Helvetica,sans-Serif" font-size="10.00">ZendDbSchema_Db_Schema_AbstractSchema\isExist</text>
</a>
</g>
<!-- Node2&#45;&gt;Node9 -->
<g id="edge18" class="edge"><title>Node2&#45;&gt;Node9</title>
<path fill="none" stroke="midnightblue" d="M513.398,-101.51C554.873,-106.931 605.614,-113.564 648.464,-119.165"/>
<polygon fill="midnightblue" stroke="midnightblue" points="648.239,-122.666 658.608,-120.491 649.146,-115.725 648.239,-122.666"/>
</g>
<!-- Node10 -->
<g id="node21" class="node"><title>Node10</title>
<a xlink:href="classZendDbSchema__Db__Schema__AbstractSchema.html#a2b880c7261b3f4b988f1a2b74e188c75" target="_top" xlink:title="ZendDbSchema_Db_Schema_AbstractSchema\\_getAlterSql">
<polygon fill="white" stroke="black" points="598.5,-40.5 598.5,-61.5 879.5,-61.5 879.5,-40.5 598.5,-40.5"/>
<text text-anchor="middle" x="739" y="-48.5" font-family="Helvetica,sans-Serif" font-size="10.00">ZendDbSchema_Db_Schema_AbstractSchema\_getAlterSql</text>
</a>
</g>
<!-- Node2&#45;&gt;Node10 -->
<g id="edge22" class="edge"><title>Node2&#45;&gt;Node10</title>
<path fill="none" stroke="midnightblue" d="M513.398,-80.4905C554.873,-75.0689 605.614,-68.4361 648.464,-62.8348"/>
<polygon fill="midnightblue" stroke="midnightblue" points="649.146,-66.2754 658.608,-61.5087 648.239,-59.3345 649.146,-66.2754"/>
</g>
<!-- Node11 -->
<g id="node23" class="node"><title>Node11</title>
<a xlink:href="classZendDbSchema__Db__Schema__AbstractSchema.html#a52321b7526257809f382a28a96ab562e" target="_top" xlink:title="ZendDbSchema_Db_Schema_AbstractSchema\\_getCreateSql">
<polygon fill="white" stroke="black" points="594,-0.5 594,-21.5 884,-21.5 884,-0.5 594,-0.5"/>
<text text-anchor="middle" x="739" y="-8.5" font-family="Helvetica,sans-Serif" font-size="10.00">ZendDbSchema_Db_Schema_AbstractSchema\_getCreateSql</text>
</a>
</g>
<!-- Node2&#45;&gt;Node11 -->
<g id="edge24" class="edge"><title>Node2&#45;&gt;Node11</title>
<path fill="none" stroke="midnightblue" d="M456.217,-80.4965C487.056,-66.9779 543.526,-43.7213 594,-31 605.861,-28.0107 618.387,-25.4384 630.91,-23.2321"/>
<polygon fill="midnightblue" stroke="midnightblue" points="631.661,-26.655 640.939,-21.5401 630.496,-19.7525 631.661,-26.655"/>
</g>
<!-- Node5 -->
<g id="node9" class="node"><title>Node5</title>
<a xlink:href="classZendDbSchema__Db__Schema__AbstractSchema.html#a46da7a60c7e5fd605607afbc1dac4baa" target="_top" xlink:title="ZendDbSchema_Db_Schema_AbstractSchema\\getCleanSchema">
<polygon fill="white" stroke="black" points="920,-119.5 920,-140.5 1222,-140.5 1222,-119.5 920,-119.5"/>
<text text-anchor="middle" x="1071" y="-127.5" font-family="Helvetica,sans-Serif" font-size="10.00">ZendDbSchema_Db_Schema_AbstractSchema\getCleanSchema</text>
</a>
</g>
<!-- Node4&#45;&gt;Node5 -->
<g id="edge8" class="edge"><title>Node4&#45;&gt;Node5</title>
<path fill="none" stroke="midnightblue" d="M828.407,-101.503C872.509,-106.683 925.85,-112.949 971.271,-118.285"/>
<polygon fill="midnightblue" stroke="midnightblue" points="971.094,-121.788 981.434,-119.479 971.91,-114.836 971.094,-121.788"/>
</g>
<!-- Node7 -->
<g id="node13" class="node"><title>Node7</title>
<a xlink:href="classZendDbSchema__Db__Schema__AbstractSchema.html#ac4e121ba7932163eb1950fabe06fb9db" target="_top" xlink:title="ZendDbSchema_Db_Schema_AbstractSchema\\__isset">
<polygon fill="white" stroke="black" points="1282.5,-60.5 1282.5,-81.5 1541.5,-81.5 1541.5,-60.5 1282.5,-60.5"/>
<text text-anchor="middle" x="1412" y="-68.5" font-family="Helvetica,sans-Serif" font-size="10.00">ZendDbSchema_Db_Schema_AbstractSchema\__isset</text>
</a>
</g>
<!-- Node4&#45;&gt;Node7 -->
<g id="edge12" class="edge"><title>Node4&#45;&gt;Node7</title>
<path fill="none" stroke="midnightblue" d="M867.17,-87.1911C982.883,-83.7524 1152.78,-78.7034 1272.01,-75.1602"/>
<polygon fill="midnightblue" stroke="midnightblue" points="1272.41,-78.6499 1282.3,-74.8543 1272.2,-71.653 1272.41,-78.6499"/>
</g>
<!-- Node8 -->
<g id="node15" class="node"><title>Node8</title>
<a xlink:href="classZendDbSchema__Db__Schema__AbstractSchema.html#a54d32c6f15463eaad2321a9f0e7225d7" target="_top" xlink:title="ZendDbSchema_Db_Schema_AbstractSchema\\__get">
<polygon fill="white" stroke="black" points="945.5,-41.5 945.5,-62.5 1196.5,-62.5 1196.5,-41.5 945.5,-41.5"/>
<text text-anchor="middle" x="1071" y="-49.5" font-family="Helvetica,sans-Serif" font-size="10.00">ZendDbSchema_Db_Schema_AbstractSchema\__get</text>
</a>
</g>
<!-- Node4&#45;&gt;Node8 -->
<g id="edge14" class="edge"><title>Node4&#45;&gt;Node8</title>
<path fill="none" stroke="midnightblue" d="M828.407,-80.4974C872.509,-75.3167 925.85,-69.0507 971.271,-63.7151"/>
<polygon fill="midnightblue" stroke="midnightblue" points="971.91,-67.1642 981.434,-62.5213 971.094,-60.212 971.91,-67.1642"/>
</g>
<!-- Node6 -->
<g id="node11" class="node"><title>Node6</title>
<a xlink:href="classZendDbSchema__Db__Schema__AbstractSchema.html#af99e5bb9adfe0da8c94d3d3848efe7b5" target="_top" xlink:title="ZendDbSchema_Db_Schema_AbstractSchema\\_getCleanSchema">
<polygon fill="white" stroke="black" points="1258,-119.5 1258,-140.5 1566,-140.5 1566,-119.5 1258,-119.5"/>
<text text-anchor="middle" x="1412" y="-127.5" font-family="Helvetica,sans-Serif" font-size="10.00">ZendDbSchema_Db_Schema_AbstractSchema\_getCleanSchema</text>
</a>
</g>
<!-- Node5&#45;&gt;Node6 -->
<g id="edge10" class="edge"><title>Node5&#45;&gt;Node6</title>
<path fill="none" stroke="midnightblue" d="M1222.06,-130C1230.57,-130 1239.15,-130 1247.71,-130"/>
<polygon fill="midnightblue" stroke="midnightblue" points="1247.74,-133.5 1257.74,-130 1247.74,-126.5 1247.74,-133.5"/>
</g>
<!-- Node8&#45;&gt;Node7 -->
<g id="edge16" class="edge"><title>Node8&#45;&gt;Node7</title>
<path fill="none" stroke="midnightblue" d="M1196.52,-58.994C1221.14,-60.3657 1247.11,-61.8125 1272.16,-63.2084"/>
<polygon fill="midnightblue" stroke="midnightblue" points="1272.28,-66.7203 1282.46,-63.7821 1272.67,-59.7311 1272.28,-66.7203"/>
</g>
<!-- Node9&#45;&gt;Node5 -->
<g id="edge20" class="edge"><title>Node9&#45;&gt;Node5</title>
<path fill="none" stroke="midnightblue" d="M867.835,-130.612C881.549,-130.571 895.619,-130.528 909.646,-130.486"/>
<polygon fill="midnightblue" stroke="midnightblue" points="909.856,-133.985 919.845,-130.455 909.835,-126.986 909.856,-133.985"/>
</g>
</g>
</svg>
