<?xml version="1.0" encoding="UTF-8" standalone="no"?>
<!DOCTYPE svg PUBLIC "-//W3C//DTD SVG 1.1//EN"
 "http://www.w3.org/Graphics/SVG/1.1/DTD/svg11.dtd">
<!-- Generated by graphviz version 2.26.3 (20100126.1600)
 -->
<!-- Title: G Pages: 1 -->
<svg width="802pt" height="188pt"
 viewBox="0.00 0.00 802.00 188.00" xmlns="http://www.w3.org/2000/svg" xmlns:xlink="http://www.w3.org/1999/xlink">
<g id="graph1" class="graph" transform="scale(1 1) rotate(0) translate(4 184)">
<title>G</title>
<polygon fill="white" stroke="white" points="-4,5 -4,-184 799,-184 799,5 -4,5"/>
<!-- Node1 -->
<g id="node1" class="node"><title>Node1</title>
<polygon fill="#bfbfbf" stroke="black" points="0.5,-79.5 0.5,-100.5 211.5,-100.5 211.5,-79.5 0.5,-79.5"/>
<text text-anchor="middle" x="106" y="-87.5" font-family="Helvetica,sans-Serif" font-size="10.00">ZendDbSchema_Db_Schema_Table\primary</text>
</g>
<!-- Node2 -->
<g id="node3" class="node"><title>Node2</title>
<a xlink:href="classZendDbSchema__Db__Schema__Table.html#aa51f7ef4e3b157d408deec87d519c4ca" target="_top" xlink:title="ZendDbSchema_Db_Schema_Table\\add">
<polygon fill="white" stroke="black" points="270,-158.5 270,-179.5 464,-179.5 464,-158.5 270,-158.5"/>
<text text-anchor="middle" x="367" y="-166.5" font-family="Helvetica,sans-Serif" font-size="10.00">ZendDbSchema_Db_Schema_Table\add</text>
</a>
</g>
<!-- Node1&#45;&gt;Node2 -->
<g id="edge2" class="edge"><title>Node1&#45;&gt;Node2</title>
<path fill="none" stroke="midnightblue" d="M136.434,-105.026C164.705,-118.404 208.297,-137.577 248,-149 260.986,-152.736 274.982,-155.859 288.655,-158.441"/>
<polygon fill="midnightblue" stroke="midnightblue" points="137.635,-101.72 127.105,-100.557 134.612,-108.034 137.635,-101.72"/>
</g>
<!-- Node3 -->
<g id="node5" class="node"><title>Node3</title>
<a xlink:href="classZendDbSchema__Db__Schema__Table.html#a21a2a75870207a989576655fec7507c3" target="_top" xlink:title="ZendDbSchema_Db_Schema_Table\\isDirty">
<polygon fill="white" stroke="black" points="263.5,-118.5 263.5,-139.5 470.5,-139.5 470.5,-118.5 263.5,-118.5"/>
<text text-anchor="middle" x="367" y="-126.5" font-family="Helvetica,sans-Serif" font-size="10.00">ZendDbSchema_Db_Schema_Table\isDirty</text>
</a>
</g>
<!-- Node1&#45;&gt;Node3 -->
<g id="edge4" class="edge"><title>Node1&#45;&gt;Node3</title>
<path fill="none" stroke="midnightblue" d="M186.53,-102.033C221.723,-107.292 262.628,-113.404 296.588,-118.479"/>
<polygon fill="midnightblue" stroke="midnightblue" points="186.694,-98.5189 176.287,-100.503 185.659,-105.442 186.694,-98.5189"/>
</g>
<!-- Node5 -->
<g id="node9" class="node"><title>Node5</title>
<a xlink:href="classZendDbSchema__Db__Schema__Table.html#a6178edaeea7e08d97e2196dd991532f9" target="_top" xlink:title="ZendDbSchema_Db_Schema_Table\\toSql">
<polygon fill="white" stroke="black" points="557.5,-79.5 557.5,-100.5 758.5,-100.5 758.5,-79.5 557.5,-79.5"/>
<text text-anchor="middle" x="658" y="-87.5" font-family="Helvetica,sans-Serif" font-size="10.00">ZendDbSchema_Db_Schema_Table\toSql</text>
</a>
</g>
<!-- Node1&#45;&gt;Node5 -->
<g id="edge18" class="edge"><title>Node1&#45;&gt;Node5</title>
<path fill="none" stroke="midnightblue" d="M221.851,-90C321.103,-90 462.602,-90 557.234,-90"/>
<polygon fill="midnightblue" stroke="midnightblue" points="221.778,-86.5001 211.778,-90 221.778,-93.5001 221.778,-86.5001"/>
</g>
<!-- Node6 -->
<g id="node11" class="node"><title>Node6</title>
<a xlink:href="classZendDbSchema__Db__Schema__Table.html#abeba5309be6269e72b2818fcabc01fec" target="_top" xlink:title="ZendDbSchema_Db_Schema_Table\\setFromArray">
<polygon fill="white" stroke="black" points="248,-40.5 248,-61.5 486,-61.5 486,-40.5 248,-40.5"/>
<text text-anchor="middle" x="367" y="-48.5" font-family="Helvetica,sans-Serif" font-size="10.00">ZendDbSchema_Db_Schema_Table\setFromArray</text>
</a>
</g>
<!-- Node1&#45;&gt;Node6 -->
<g id="edge10" class="edge"><title>Node1&#45;&gt;Node6</title>
<path fill="none" stroke="midnightblue" d="M186.53,-77.9668C221.723,-72.708 262.628,-66.5958 296.588,-61.5213"/>
<polygon fill="midnightblue" stroke="midnightblue" points="185.659,-74.5579 176.287,-79.4974 186.694,-81.4811 185.659,-74.5579"/>
</g>
<!-- Node8 -->
<g id="node15" class="node"><title>Node8</title>
<a xlink:href="classZendDbSchema__Db__Schema__Table.html#aad47d08cebd042ad8e64d825b65859ab" target="_top" xlink:title="ZendDbSchema_Db_Schema_Table\\toArray">
<polygon fill="white" stroke="black" points="262,-0.5 262,-21.5 472,-21.5 472,-0.5 262,-0.5"/>
<text text-anchor="middle" x="367" y="-8.5" font-family="Helvetica,sans-Serif" font-size="10.00">ZendDbSchema_Db_Schema_Table\toArray</text>
</a>
</g>
<!-- Node1&#45;&gt;Node8 -->
<g id="edge14" class="edge"><title>Node1&#45;&gt;Node8</title>
<path fill="none" stroke="midnightblue" d="M136.434,-74.9744C164.705,-61.5958 208.297,-42.4231 248,-31 260.986,-27.2638 274.982,-24.1407 288.655,-21.5589"/>
<polygon fill="midnightblue" stroke="midnightblue" points="134.612,-71.9664 127.105,-79.4428 137.635,-78.2797 134.612,-71.9664"/>
</g>
<!-- Node4 -->
<g id="node7" class="node"><title>Node4</title>
<a xlink:href="classZendDbSchema__Db__Schema__Generator__Mysql.html#aebe278ab07f38d58f8f440f9cad01565" target="_top" xlink:title="ZendDbSchema_Db_Schema_Generator_Mysql\\alterTable">
<polygon fill="white" stroke="black" points="522,-119.5 522,-140.5 794,-140.5 794,-119.5 522,-119.5"/>
<text text-anchor="middle" x="658" y="-127.5" font-family="Helvetica,sans-Serif" font-size="10.00">ZendDbSchema_Db_Schema_Generator_Mysql\alterTable</text>
</a>
</g>
<!-- Node3&#45;&gt;Node4 -->
<g id="edge6" class="edge"><title>Node3&#45;&gt;Node4</title>
<path fill="none" stroke="midnightblue" d="M481.01,-129.392C494.436,-129.438 508.237,-129.485 521.926,-129.532"/>
<polygon fill="midnightblue" stroke="midnightblue" points="480.837,-125.891 470.825,-129.357 480.813,-132.891 480.837,-125.891"/>
</g>
<!-- Node3&#45;&gt;Node5 -->
<g id="edge8" class="edge"><title>Node3&#45;&gt;Node5</title>
<path fill="none" stroke="midnightblue" d="M455.525,-117.136C495.045,-111.839 541.225,-105.65 579.495,-100.521"/>
<polygon fill="midnightblue" stroke="midnightblue" points="454.812,-113.7 445.365,-118.497 455.742,-120.638 454.812,-113.7"/>
</g>
<!-- Node7 -->
<g id="node13" class="node"><title>Node7</title>
<a xlink:href="classZendDbSchema__Db__Schema__Table.html#a1fcef515c845c7770e17f997f80cafa9" target="_top" xlink:title="ZendDbSchema_Db_Schema_Table\\__clone">
<polygon fill="white" stroke="black" points="552,-20.5 552,-41.5 764,-41.5 764,-20.5 552,-20.5"/>
<text text-anchor="middle" x="658" y="-28.5" font-family="Helvetica,sans-Serif" font-size="10.00">ZendDbSchema_Db_Schema_Table\__clone</text>
</a>
</g>
<!-- Node6&#45;&gt;Node7 -->
<g id="edge12" class="edge"><title>Node6&#45;&gt;Node7</title>
<path fill="none" stroke="midnightblue" d="M496.405,-42.1062C514.852,-40.8384 533.648,-39.5465 551.588,-38.3135"/>
<polygon fill="midnightblue" stroke="midnightblue" points="495.937,-38.63 486.2,-42.8075 496.417,-45.6135 495.937,-38.63"/>
</g>
<!-- Node8&#45;&gt;Node7 -->
<g id="edge16" class="edge"><title>Node8&#45;&gt;Node7</title>
<path fill="none" stroke="midnightblue" d="M482.153,-18.9143C505.065,-20.489 529.028,-22.1359 551.63,-23.6893"/>
<polygon fill="midnightblue" stroke="midnightblue" points="482.274,-15.4145 472.058,-18.2205 481.794,-22.398 482.274,-15.4145"/>
</g>
</g>
</svg>
