<?xml version="1.0" encoding="UTF-8" standalone="no"?>
<!DOCTYPE svg PUBLIC "-//W3C//DTD SVG 1.1//EN"
 "http://www.w3.org/Graphics/SVG/1.1/DTD/svg11.dtd">
<!-- Generated by graphviz version 2.26.3 (20100126.1600)
 -->
<!-- Title: G Pages: 1 -->
<svg width="1216pt" height="70pt"
 viewBox="0.00 0.00 1216.00 70.00" xmlns="http://www.w3.org/2000/svg" xmlns:xlink="http://www.w3.org/1999/xlink">
<g id="graph1" class="graph" transform="scale(1 1) rotate(0) translate(4 66)">
<title>G</title>
<polygon fill="white" stroke="white" points="-4,5 -4,-66 1213,-66 1213,5 -4,5"/>
<!-- Node1 -->
<g id="node1" class="node"><title>Node1</title>
<polygon fill="#bfbfbf" stroke="black" points="0,-20.5 0,-41.5 320,-41.5 320,-20.5 0,-20.5"/>
<text text-anchor="middle" x="160" y="-28.5" font-family="Helvetica,sans-Serif" font-size="10.00">ZendDbSchema_Db_Schema_Generator_Mysql\generateTableCreate</text>
</g>
<!-- Node2 -->
<g id="node3" class="node"><title>Node2</title>
<a xlink:href="classZendDbSchema__Db__Schema__AbstractSchema.html#a55787c21deddba427842809d589c2df6" target="_top" xlink:title="ZendDbSchema_Db_Schema_AbstractSchema\\getName">
<polygon fill="white" stroke="black" points="356.5,-40.5 356.5,-61.5 623.5,-61.5 623.5,-40.5 356.5,-40.5"/>
<text text-anchor="middle" x="490" y="-48.5" font-family="Helvetica,sans-Serif" font-size="10.00">ZendDbSchema_Db_Schema_AbstractSchema\getName</text>
</a>
</g>
<!-- Node1&#45;&gt;Node2 -->
<g id="edge2" class="edge"><title>Node1&#45;&gt;Node2</title>
<path fill="none" stroke="midnightblue" d="M320.167,-40.7071C328.901,-41.2364 337.653,-41.7669 346.326,-42.2925"/>
<polygon fill="midnightblue" stroke="midnightblue" points="346.27,-45.7954 356.464,-42.9069 346.694,-38.8083 346.27,-45.7954"/>
</g>
<!-- Node5 -->
<g id="node9" class="node"><title>Node5</title>
<a xlink:href="classZendDbSchema__Db__Schema__Table.html#a214354faa96de67a26b787c2c8741850" target="_top" xlink:title="ZendDbSchema_Db_Schema_Table\\columns">
<polygon fill="white" stroke="black" points="382.5,-0.5 382.5,-21.5 597.5,-21.5 597.5,-0.5 382.5,-0.5"/>
<text text-anchor="middle" x="490" y="-8.5" font-family="Helvetica,sans-Serif" font-size="10.00">ZendDbSchema_Db_Schema_Table\columns</text>
</a>
</g>
<!-- Node1&#45;&gt;Node5 -->
<g id="edge8" class="edge"><title>Node1&#45;&gt;Node5</title>
<path fill="none" stroke="midnightblue" d="M320.167,-21.2929C337.574,-20.238 355.052,-19.1786 371.827,-18.162"/>
<polygon fill="midnightblue" stroke="midnightblue" points="372.404,-21.6335 382.174,-17.5349 371.981,-14.6464 372.404,-21.6335"/>
</g>
<!-- Node3 -->
<g id="node5" class="node"><title>Node3</title>
<a xlink:href="classZendDbSchema__Db__Schema__AbstractSchema.html#a54d32c6f15463eaad2321a9f0e7225d7" target="_top" xlink:title="ZendDbSchema_Db_Schema_AbstractSchema\\__get">
<polygon fill="white" stroke="black" points="660.5,-40.5 660.5,-61.5 911.5,-61.5 911.5,-40.5 660.5,-40.5"/>
<text text-anchor="middle" x="786" y="-48.5" font-family="Helvetica,sans-Serif" font-size="10.00">ZendDbSchema_Db_Schema_AbstractSchema\__get</text>
</a>
</g>
<!-- Node2&#45;&gt;Node3 -->
<g id="edge4" class="edge"><title>Node2&#45;&gt;Node3</title>
<path fill="none" stroke="midnightblue" d="M623.711,-51C632.411,-51 641.176,-51 649.887,-51"/>
<polygon fill="midnightblue" stroke="midnightblue" points="650.08,-54.5001 660.08,-51 650.08,-47.5001 650.08,-54.5001"/>
</g>
<!-- Node4 -->
<g id="node7" class="node"><title>Node4</title>
<a xlink:href="classZendDbSchema__Db__Schema__AbstractSchema.html#ac4e121ba7932163eb1950fabe06fb9db" target="_top" xlink:title="ZendDbSchema_Db_Schema_AbstractSchema\\__isset">
<polygon fill="white" stroke="black" points="948.5,-40.5 948.5,-61.5 1207.5,-61.5 1207.5,-40.5 948.5,-40.5"/>
<text text-anchor="middle" x="1078" y="-48.5" font-family="Helvetica,sans-Serif" font-size="10.00">ZendDbSchema_Db_Schema_AbstractSchema\__isset</text>
</a>
</g>
<!-- Node3&#45;&gt;Node4 -->
<g id="edge6" class="edge"><title>Node3&#45;&gt;Node4</title>
<path fill="none" stroke="midnightblue" d="M911.529,-51C920.401,-51 929.376,-51 938.32,-51"/>
<polygon fill="midnightblue" stroke="midnightblue" points="938.397,-54.5001 948.397,-51 938.397,-47.5001 938.397,-54.5001"/>
</g>
</g>
</svg>
