<?xml version="1.0" encoding="UTF-8" standalone="no"?>
<!DOCTYPE svg PUBLIC "-//W3C//DTD SVG 1.1//EN"
 "http://www.w3.org/Graphics/SVG/1.1/DTD/svg11.dtd">
<!-- Generated by graphviz version 2.26.3 (20100126.1600)
 -->
<!-- Title: G Pages: 1 -->
<svg width="1628pt" height="940pt"
 viewBox="0.00 0.00 1628.00 940.00" xmlns="http://www.w3.org/2000/svg" xmlns:xlink="http://www.w3.org/1999/xlink">
<g id="graph1" class="graph" transform="scale(1 1) rotate(0) translate(4 936)">
<title>G</title>
<polygon fill="white" stroke="white" points="-4,5 -4,-936 1625,-936 1625,5 -4,5"/>
<!-- Node1 -->
<g id="node1" class="node"><title>Node1</title>
<polygon fill="#bfbfbf" stroke="black" points="0.5,-59.5 0.5,-80.5 279.5,-80.5 279.5,-59.5 0.5,-59.5"/>
<text text-anchor="middle" x="140" y="-67.5" font-family="Helvetica,sans-Serif" font-size="10.00">ZendDbSchema_Db_Schema_AbstractSchema\getValidator</text>
</g>
<!-- Node2 -->
<g id="node3" class="node"><title>Node2</title>
<a xlink:href="classZendDbSchema__Db__Schema__AbstractSchema.html#ab4282a1fd6f4d9f23d01de8328072c71" target="_top" xlink:title="ZendDbSchema_Db_Schema_AbstractSchema\\__set">
<polygon fill="white" stroke="black" points="332.5,-498.5 332.5,-519.5 583.5,-519.5 583.5,-498.5 332.5,-498.5"/>
<text text-anchor="middle" x="458" y="-506.5" font-family="Helvetica,sans-Serif" font-size="10.00">ZendDbSchema_Db_Schema_AbstractSchema\__set</text>
</a>
</g>
<!-- Node1&#45;&gt;Node2 -->
<g id="edge2" class="edge"><title>Node1&#45;&gt;Node2</title>
<path fill="none" stroke="midnightblue" d="M153.766,-89.0035C208.254,-164.225 407.919,-439.864 450.129,-498.135"/>
<polygon fill="midnightblue" stroke="midnightblue" points="156.562,-86.897 147.861,-80.8517 150.893,-91.0035 156.562,-86.897"/>
</g>
<!-- Node17 -->
<g id="node37" class="node"><title>Node17</title>
<a xlink:href="classZendDbSchema__Db__Schema__AbstractEntity.html#a5b1c93da76c3708f90d330b4643e55b2" target="_top" xlink:title="ZendDbSchema_Db_Schema_AbstractEntity\\save">
<polygon fill="white" stroke="black" points="1354,-134.5 1354,-155.5 1592,-155.5 1592,-134.5 1354,-134.5"/>
<text text-anchor="middle" x="1473" y="-142.5" font-family="Helvetica,sans-Serif" font-size="10.00">ZendDbSchema_Db_Schema_AbstractEntity\save</text>
</a>
</g>
<!-- Node1&#45;&gt;Node17 -->
<g id="edge74" class="edge"><title>Node1&#45;&gt;Node17</title>
<path fill="none" stroke="midnightblue" d="M289.929,-76.5054C450.343,-83.6581 712.225,-95.8879 938,-109 1081,-117.305 1245.39,-128.633 1353.78,-136.349"/>
<polygon fill="midnightblue" stroke="midnightblue" points="289.657,-72.9899 279.511,-76.0417 289.346,-79.983 289.657,-72.9899"/>
</g>
<!-- Node32 -->
<g id="node67" class="node"><title>Node32</title>
<a xlink:href="classZendDbSchema__Db__Schema__AbstractSchema.html#a64e2e307b4dd0bf4785258f82e9fcc1b" target="_top" xlink:title="ZendDbSchema_Db_Schema_AbstractSchema\\__unset">
<polygon fill="white" stroke="black" points="327,-40.5 327,-61.5 589,-61.5 589,-40.5 327,-40.5"/>
<text text-anchor="middle" x="458" y="-48.5" font-family="Helvetica,sans-Serif" font-size="10.00">ZendDbSchema_Db_Schema_AbstractSchema\__unset</text>
</a>
</g>
<!-- Node1&#45;&gt;Node32 -->
<g id="edge70" class="edge"><title>Node1&#45;&gt;Node32</title>
<path fill="none" stroke="midnightblue" d="M290.141,-61.0293C302.309,-60.3023 314.547,-59.5711 326.567,-58.8529"/>
<polygon fill="midnightblue" stroke="midnightblue" points="289.716,-57.5484 279.942,-61.6387 290.133,-64.5359 289.716,-57.5484"/>
</g>
<!-- Node33 -->
<g id="node69" class="node"><title>Node33</title>
<a xlink:href="classZendDbSchema__Db__Schema__Table__AbstractDefinition.html#ad1a0b678c2352296b55af83c59142e59" target="_top" xlink:title="ZendDbSchema_Db_Schema_Table_AbstractDefinition\\save">
<polygon fill="white" stroke="black" points="316.5,-0.5 316.5,-21.5 599.5,-21.5 599.5,-0.5 316.5,-0.5"/>
<text text-anchor="middle" x="458" y="-8.5" font-family="Helvetica,sans-Serif" font-size="10.00">ZendDbSchema_Db_Schema_Table_AbstractDefinition\save</text>
</a>
</g>
<!-- Node1&#45;&gt;Node33 -->
<g id="edge72" class="edge"><title>Node1&#45;&gt;Node33</title>
<path fill="none" stroke="midnightblue" d="M193.154,-57.0856C227.959,-48.9107 274.516,-38.5058 316,-31 335.109,-27.5426 355.756,-24.3354 375.229,-21.5468"/>
<polygon fill="midnightblue" stroke="midnightblue" points="192.133,-53.7302 183.207,-59.4363 193.743,-60.5426 192.133,-53.7302"/>
</g>
<!-- Node3 -->
<g id="node5" class="node"><title>Node3</title>
<a xlink:href="classZendDbSchema__Db__Schema__AbstractEntity.html#a845c851f8d9549a8f1a3aa9bc1da3658" target="_top" xlink:title="ZendDbSchema_Db_Schema_AbstractEntity\\__clone">
<polygon fill="white" stroke="black" points="661.5,-870.5 661.5,-891.5 912.5,-891.5 912.5,-870.5 661.5,-870.5"/>
<text text-anchor="middle" x="787" y="-878.5" font-family="Helvetica,sans-Serif" font-size="10.00">ZendDbSchema_Db_Schema_AbstractEntity\__clone</text>
</a>
</g>
<!-- Node2&#45;&gt;Node3 -->
<g id="edge4" class="edge"><title>Node2&#45;&gt;Node3</title>
<path fill="none" stroke="midnightblue" d="M461.892,-529.698C474.563,-590.877 520.671,-771.832 636,-856 644.156,-861.953 653.218,-866.689 662.737,-870.439"/>
<polygon fill="midnightblue" stroke="midnightblue" points="465.291,-528.844 459.906,-519.719 458.425,-530.21 465.291,-528.844"/>
</g>
<!-- Node4 -->
<g id="node7" class="node"><title>Node4</title>
<a xlink:href="classZendDbSchema__Db__Schema__Table__Index.html#a6717d976c5b0d47369d3c87ef17b1e9b" target="_top" xlink:title="ZendDbSchema_Db_Schema_Table_Index\\addColumn">
<polygon fill="white" stroke="black" points="1003.5,-821.5 1003.5,-842.5 1260.5,-842.5 1260.5,-821.5 1003.5,-821.5"/>
<text text-anchor="middle" x="1132" y="-829.5" font-family="Helvetica,sans-Serif" font-size="10.00">ZendDbSchema_Db_Schema_Table_Index\addColumn</text>
</a>
</g>
<!-- Node2&#45;&gt;Node4 -->
<g id="edge6" class="edge"><title>Node2&#45;&gt;Node4</title>
<path fill="none" stroke="midnightblue" d="M462.318,-529.675C475.804,-588.332 523.173,-755.886 636,-823 698.501,-860.178 894.382,-852.222 1020.47,-842.501"/>
<polygon fill="midnightblue" stroke="midnightblue" points="465.699,-528.756 460.124,-519.747 458.864,-530.266 465.699,-528.756"/>
</g>
<!-- Node6 -->
<g id="node11" class="node"><title>Node6</title>
<a xlink:href="classZendDbSchema__Db__Schema__Table__ForeignKey.html#a2197861c0661243f1ebcf43a7e7771f2" target="_top" xlink:title="ZendDbSchema_Db_Schema_Table_ForeignKey\\addRefColumn">
<polygon fill="white" stroke="black" points="982.5,-704.5 982.5,-725.5 1281.5,-725.5 1281.5,-704.5 982.5,-704.5"/>
<text text-anchor="middle" x="1132" y="-712.5" font-family="Helvetica,sans-Serif" font-size="10.00">ZendDbSchema_Db_Schema_Table_ForeignKey\addRefColumn</text>
</a>
</g>
<!-- Node2&#45;&gt;Node6 -->
<g id="edge10" class="edge"><title>Node2&#45;&gt;Node6</title>
<path fill="none" stroke="midnightblue" d="M468.403,-528.969C491.705,-571.252 552.658,-669.046 636,-707 789.228,-776.78 997.689,-744.647 1087.66,-725.563"/>
<polygon fill="midnightblue" stroke="midnightblue" points="471.357,-527.072 463.532,-519.929 465.194,-530.393 471.357,-527.072"/>
</g>
<!-- Node7 -->
<g id="node13" class="node"><title>Node7</title>
<a xlink:href="classZendDbSchema__Db__Schema__Table__Index.html#af7c29da0f52c5270ffa3587a95295f82" target="_top" xlink:title="ZendDbSchema_Db_Schema_Table_Index\\hasColumn">
<polygon fill="white" stroke="black" points="658.5,-792.5 658.5,-813.5 915.5,-813.5 915.5,-792.5 658.5,-792.5"/>
<text text-anchor="middle" x="787" y="-800.5" font-family="Helvetica,sans-Serif" font-size="10.00">ZendDbSchema_Db_Schema_Table_Index\hasColumn</text>
</a>
</g>
<!-- Node2&#45;&gt;Node7 -->
<g id="edge12" class="edge"><title>Node2&#45;&gt;Node7</title>
<path fill="none" stroke="midnightblue" d="M464.93,-529.397C483.518,-580.723 539.706,-715.576 636,-778 645.253,-783.999 655.475,-788.709 666.107,-792.392"/>
<polygon fill="midnightblue" stroke="midnightblue" points="468.161,-528.034 461.533,-519.768 461.56,-530.363 468.161,-528.034"/>
</g>
<!-- Node8 -->
<g id="node16" class="node"><title>Node8</title>
<a xlink:href="classZendDbSchema__Db__Schema__Table__Index.html#a3cfd358621bb3330ef9e7ffcf2f7b229" target="_top" xlink:title="ZendDbSchema_Db_Schema_Table_Index\\removeColumn">
<polygon fill="white" stroke="black" points="995,-762.5 995,-783.5 1269,-783.5 1269,-762.5 995,-762.5"/>
<text text-anchor="middle" x="1132" y="-770.5" font-family="Helvetica,sans-Serif" font-size="10.00">ZendDbSchema_Db_Schema_Table_Index\removeColumn</text>
</a>
</g>
<!-- Node2&#45;&gt;Node8 -->
<g id="edge24" class="edge"><title>Node2&#45;&gt;Node8</title>
<path fill="none" stroke="midnightblue" d="M466.248,-529.118C486.787,-576.257 545.199,-693.519 636,-742 695.936,-774.002 869.866,-778.36 994.836,-776.977"/>
<polygon fill="midnightblue" stroke="midnightblue" points="469.372,-527.521 462.24,-519.686 462.929,-530.258 469.372,-527.521"/>
</g>
<!-- Node9 -->
<g id="node18" class="node"><title>Node9</title>
<a xlink:href="classZendDbSchema__Db__Schema__Table__ForeignKey.html#aee976a90aff6a23580c6bbd11baf2ec0" target="_top" xlink:title="ZendDbSchema_Db_Schema_Table_ForeignKey\\hasRefColumn">
<polygon fill="white" stroke="black" points="637.5,-676.5 637.5,-697.5 936.5,-697.5 936.5,-676.5 637.5,-676.5"/>
<text text-anchor="middle" x="787" y="-684.5" font-family="Helvetica,sans-Serif" font-size="10.00">ZendDbSchema_Db_Schema_Table_ForeignKey\hasRefColumn</text>
</a>
</g>
<!-- Node2&#45;&gt;Node9 -->
<g id="edge18" class="edge"><title>Node2&#45;&gt;Node9</title>
<path fill="none" stroke="midnightblue" d="M473.397,-527.72C501.767,-560.81 565.846,-629.226 636,-662 649.241,-668.186 663.762,-672.868 678.403,-676.406"/>
<polygon fill="midnightblue" stroke="midnightblue" points="475.792,-525.131 466.668,-519.746 470.442,-529.646 475.792,-525.131"/>
</g>
<!-- Node10 -->
<g id="node21" class="node"><title>Node10</title>
<a xlink:href="classZendDbSchema__Db__Schema__Table__ForeignKey.html#ab1730184f38846e90fc31b891a3d9b8c" target="_top" xlink:title="ZendDbSchema_Db_Schema_Table_ForeignKey\\removeRefColumn">
<polygon fill="white" stroke="black" points="974.5,-650.5 974.5,-671.5 1289.5,-671.5 1289.5,-650.5 974.5,-650.5"/>
<text text-anchor="middle" x="1132" y="-658.5" font-family="Helvetica,sans-Serif" font-size="10.00">ZendDbSchema_Db_Schema_Table_ForeignKey\removeRefColumn</text>
</a>
</g>
<!-- Node2&#45;&gt;Node10 -->
<g id="edge26" class="edge"><title>Node2&#45;&gt;Node10</title>
<path fill="none" stroke="midnightblue" d="M476.6,-526.594C507.095,-554.187 570.872,-606.779 636,-629 696.485,-649.636 853.033,-657.105 974.227,-659.735"/>
<polygon fill="midnightblue" stroke="midnightblue" points="478.638,-523.713 468.908,-519.521 473.899,-528.866 478.638,-523.713"/>
</g>
<!-- Node11 -->
<g id="node25" class="node"><title>Node11</title>
<a xlink:href="classZendDbSchema__Db__Schema__Database.html#acfc530f3381e35f7d57676c4dcff3620" target="_top" xlink:title="ZendDbSchema_Db_Schema_Database\\setCharset">
<polygon fill="white" stroke="black" points="664.5,-598.5 664.5,-619.5 909.5,-619.5 909.5,-598.5 664.5,-598.5"/>
<text text-anchor="middle" x="787" y="-606.5" font-family="Helvetica,sans-Serif" font-size="10.00">ZendDbSchema_Db_Schema_Database\setCharset</text>
</a>
</g>
<!-- Node2&#45;&gt;Node11 -->
<g id="edge28" class="edge"><title>Node2&#45;&gt;Node11</title>
<path fill="none" stroke="midnightblue" d="M485.451,-524.384C519.624,-542.808 580.296,-573.161 636,-589 649.481,-592.833 663.852,-595.937 678.167,-598.448"/>
<polygon fill="midnightblue" stroke="midnightblue" points="486.997,-521.24 476.541,-519.526 483.645,-527.386 486.997,-521.24"/>
</g>
<!-- Node12 -->
<g id="node27" class="node"><title>Node12</title>
<a xlink:href="classZendDbSchema__Db__Schema__Table__Index.html#a77b65e961a7da9ca89fdebd682338fcf" target="_top" xlink:title="ZendDbSchema_Db_Schema_Table_Index\\setColumns">
<polygon fill="white" stroke="black" points="657,-558.5 657,-579.5 917,-579.5 917,-558.5 657,-558.5"/>
<text text-anchor="middle" x="787" y="-566.5" font-family="Helvetica,sans-Serif" font-size="10.00">ZendDbSchema_Db_Schema_Table_Index\setColumns</text>
</a>
</g>
<!-- Node2&#45;&gt;Node12 -->
<g id="edge30" class="edge"><title>Node2&#45;&gt;Node12</title>
<path fill="none" stroke="midnightblue" d="M509.953,-521.963C545.321,-530.47 593.287,-541.388 636,-549 655.786,-552.526 677.132,-555.721 697.369,-558.471"/>
<polygon fill="midnightblue" stroke="midnightblue" points="510.407,-518.472 499.864,-519.52 508.76,-525.275 510.407,-518.472"/>
</g>
<!-- Node13 -->
<g id="node29" class="node"><title>Node13</title>
<a xlink:href="classZendDbSchema__Db__Schema__Table__Column.html#aae45b2b24302735971d487e6037ee732" target="_top" xlink:title="ZendDbSchema_Db_Schema_Table_Column\\setComment">
<polygon fill="white" stroke="black" points="650,-518.5 650,-539.5 924,-539.5 924,-518.5 650,-518.5"/>
<text text-anchor="middle" x="787" y="-526.5" font-family="Helvetica,sans-Serif" font-size="10.00">ZendDbSchema_Db_Schema_Table_Column\setComment</text>
</a>
</g>
<!-- Node2&#45;&gt;Node13 -->
<g id="edge32" class="edge"><title>Node2&#45;&gt;Node13</title>
<path fill="none" stroke="midnightblue" d="M593.971,-517.266C612.4,-518.386 631.323,-519.536 649.774,-520.658"/>
<polygon fill="midnightblue" stroke="midnightblue" points="593.983,-513.76 583.789,-516.647 593.558,-520.747 593.983,-513.76"/>
</g>
<!-- Node14 -->
<g id="node31" class="node"><title>Node14</title>
<a xlink:href="classZendDbSchema__Db__Schema__Table__Column.html#ab4eed7ec6d80aa36d4447566e1ae0294" target="_top" xlink:title="ZendDbSchema_Db_Schema_Table_Column\\setDefault">
<polygon fill="white" stroke="black" points="655.5,-478.5 655.5,-499.5 918.5,-499.5 918.5,-478.5 655.5,-478.5"/>
<text text-anchor="middle" x="787" y="-486.5" font-family="Helvetica,sans-Serif" font-size="10.00">ZendDbSchema_Db_Schema_Table_Column\setDefault</text>
</a>
</g>
<!-- Node2&#45;&gt;Node14 -->
<g id="edge34" class="edge"><title>Node2&#45;&gt;Node14</title>
<path fill="none" stroke="midnightblue" d="M593.999,-500.733C614.255,-499.501 635.106,-498.234 655.272,-497.008"/>
<polygon fill="midnightblue" stroke="midnightblue" points="593.558,-497.253 583.789,-501.353 593.983,-504.24 593.558,-497.253"/>
</g>
<!-- Node15 -->
<g id="node33" class="node"><title>Node15</title>
<a xlink:href="classZendDbSchema__Db__Schema__AbstractSchema.html#acd81590f02c831ff4c4a442c5cf47074" target="_top" xlink:title="ZendDbSchema_Db_Schema_AbstractSchema\\setFromArray">
<polygon fill="white" stroke="black" points="643.5,-438.5 643.5,-459.5 930.5,-459.5 930.5,-438.5 643.5,-438.5"/>
<text text-anchor="middle" x="787" y="-446.5" font-family="Helvetica,sans-Serif" font-size="10.00">ZendDbSchema_Db_Schema_AbstractSchema\setFromArray</text>
</a>
</g>
<!-- Node2&#45;&gt;Node15 -->
<g id="edge36" class="edge"><title>Node2&#45;&gt;Node15</title>
<path fill="none" stroke="midnightblue" d="M509.953,-496.037C545.321,-487.53 593.287,-476.612 636,-469 655.786,-465.474 677.132,-462.279 697.369,-459.529"/>
<polygon fill="midnightblue" stroke="midnightblue" points="508.76,-492.725 499.864,-498.48 510.407,-499.528 508.76,-492.725"/>
</g>
<!-- Node23 -->
<g id="node49" class="node"><title>Node23</title>
<a xlink:href="classZendDbSchema__Db__Schema__Table__Column.html#a2f7872172e98a14cbe7d06e295e0106e" target="_top" xlink:title="ZendDbSchema_Db_Schema_Table_Column\\setLength">
<polygon fill="white" stroke="black" points="657,-398.5 657,-419.5 917,-419.5 917,-398.5 657,-398.5"/>
<text text-anchor="middle" x="787" y="-406.5" font-family="Helvetica,sans-Serif" font-size="10.00">ZendDbSchema_Db_Schema_Table_Column\setLength</text>
</a>
</g>
<!-- Node2&#45;&gt;Node23 -->
<g id="edge52" class="edge"><title>Node2&#45;&gt;Node23</title>
<path fill="none" stroke="midnightblue" d="M485.451,-493.616C519.624,-475.192 580.296,-444.839 636,-429 649.481,-425.167 663.852,-422.063 678.167,-419.552"/>
<polygon fill="midnightblue" stroke="midnightblue" points="483.645,-490.614 476.541,-498.474 486.997,-496.76 483.645,-490.614"/>
</g>
<!-- Node24 -->
<g id="node51" class="node"><title>Node24</title>
<a xlink:href="classZendDbSchema__Db__Schema__AbstractSchema.html#a281403d9e41839e925bade11d8b69b91" target="_top" xlink:title="ZendDbSchema_Db_Schema_AbstractSchema\\setName">
<polygon fill="white" stroke="black" points="653.5,-358.5 653.5,-379.5 920.5,-379.5 920.5,-358.5 653.5,-358.5"/>
<text text-anchor="middle" x="787" y="-366.5" font-family="Helvetica,sans-Serif" font-size="10.00">ZendDbSchema_Db_Schema_AbstractSchema\setName</text>
</a>
</g>
<!-- Node2&#45;&gt;Node24 -->
<g id="edge54" class="edge"><title>Node2&#45;&gt;Node24</title>
<path fill="none" stroke="midnightblue" d="M477.242,-491.512C508.167,-464.516 571.974,-413.277 636,-389 646.014,-385.203 656.639,-382.107 667.431,-379.584"/>
<polygon fill="midnightblue" stroke="midnightblue" points="474.584,-489.191 469.419,-498.441 479.225,-494.431 474.584,-489.191"/>
</g>
<!-- Node25 -->
<g id="node53" class="node"><title>Node25</title>
<a xlink:href="classZendDbSchema__Db__Schema__Table__Column.html#aa4350a230e6b0e41d9fb9da7c4d3df8b" target="_top" xlink:title="ZendDbSchema_Db_Schema_Table_Column\\setNullable">
<polygon fill="white" stroke="black" points="654,-318.5 654,-339.5 920,-339.5 920,-318.5 654,-318.5"/>
<text text-anchor="middle" x="787" y="-326.5" font-family="Helvetica,sans-Serif" font-size="10.00">ZendDbSchema_Db_Schema_Table_Column\setNullable</text>
</a>
</g>
<!-- Node2&#45;&gt;Node25 -->
<g id="edge56" class="edge"><title>Node2&#45;&gt;Node25</title>
<path fill="none" stroke="midnightblue" d="M472.29,-490.184C499.745,-455.589 563.602,-382.373 636,-349 644.165,-345.236 652.825,-342.119 661.704,-339.544"/>
<polygon fill="midnightblue" stroke="midnightblue" points="469.212,-488.44 465.821,-498.477 474.731,-492.745 469.212,-488.44"/>
</g>
<!-- Node26 -->
<g id="node55" class="node"><title>Node26</title>
<a xlink:href="classZendDbSchema__Db__Schema__Table__ForeignKey.html#a0c51ff09d6df59b68f8f5ff4ec1ed32d" target="_top" xlink:title="ZendDbSchema_Db_Schema_Table_ForeignKey\\setOnDelete">
<polygon fill="white" stroke="black" points="643,-278.5 643,-299.5 931,-299.5 931,-278.5 643,-278.5"/>
<text text-anchor="middle" x="787" y="-286.5" font-family="Helvetica,sans-Serif" font-size="10.00">ZendDbSchema_Db_Schema_Table_ForeignKey\setOnDelete</text>
</a>
</g>
<!-- Node2&#45;&gt;Node26 -->
<g id="edge58" class="edge"><title>Node2&#45;&gt;Node26</title>
<path fill="none" stroke="midnightblue" d="M468.707,-489.567C492.603,-448.294 554.643,-352.145 636,-309 643.009,-305.283 650.448,-302.163 658.122,-299.55"/>
<polygon fill="midnightblue" stroke="midnightblue" points="465.597,-487.955 463.705,-498.38 471.685,-491.411 465.597,-487.955"/>
</g>
<!-- Node27 -->
<g id="node57" class="node"><title>Node27</title>
<a xlink:href="classZendDbSchema__Db__Schema__Table__ForeignKey.html#ae8ffd9c6bad60eaf6ef05cdd1f5c56fb" target="_top" xlink:title="ZendDbSchema_Db_Schema_Table_ForeignKey\\setOnUpdate">
<polygon fill="white" stroke="black" points="641.5,-238.5 641.5,-259.5 932.5,-259.5 932.5,-238.5 641.5,-238.5"/>
<text text-anchor="middle" x="787" y="-246.5" font-family="Helvetica,sans-Serif" font-size="10.00">ZendDbSchema_Db_Schema_Table_ForeignKey\setOnUpdate</text>
</a>
</g>
<!-- Node2&#45;&gt;Node27 -->
<g id="edge60" class="edge"><title>Node2&#45;&gt;Node27</title>
<path fill="none" stroke="midnightblue" d="M466.16,-489.04C486.69,-441.65 545.402,-322.347 636,-269 642.266,-265.31 648.929,-262.182 655.83,-259.538"/>
<polygon fill="midnightblue" stroke="midnightblue" points="462.832,-487.925 462.16,-498.499 469.279,-490.652 462.832,-487.925"/>
</g>
<!-- Node28 -->
<g id="node59" class="node"><title>Node28</title>
<a xlink:href="classZendDbSchema__Db__Schema__Table__ForeignKey.html#a5788c3c190f6f311cdb1fea25ebcaa0c" target="_top" xlink:title="ZendDbSchema_Db_Schema_Table_ForeignKey\\setRefColumns">
<polygon fill="white" stroke="black" points="636,-198.5 636,-219.5 938,-219.5 938,-198.5 636,-198.5"/>
<text text-anchor="middle" x="787" y="-206.5" font-family="Helvetica,sans-Serif" font-size="10.00">ZendDbSchema_Db_Schema_Table_ForeignKey\setRefColumns</text>
</a>
</g>
<!-- Node2&#45;&gt;Node28 -->
<g id="edge62" class="edge"><title>Node2&#45;&gt;Node28</title>
<path fill="none" stroke="midnightblue" d="M464.199,-488.658C481.518,-435.644 535.839,-292.933 636,-229 641.684,-225.372 647.734,-222.268 654.02,-219.62"/>
<polygon fill="midnightblue" stroke="midnightblue" points="460.833,-487.692 461.143,-498.283 467.505,-489.811 460.833,-487.692"/>
</g>
<!-- Node29 -->
<g id="node61" class="node"><title>Node29</title>
<a xlink:href="classZendDbSchema__Db__Schema__Table__ForeignKey.html#ad19f20b206f05763eecf5aac88e20dbe" target="_top" xlink:title="ZendDbSchema_Db_Schema_Table_ForeignKey\\setReference">
<polygon fill="white" stroke="black" points="641,-158.5 641,-179.5 933,-179.5 933,-158.5 641,-158.5"/>
<text text-anchor="middle" x="787" y="-166.5" font-family="Helvetica,sans-Serif" font-size="10.00">ZendDbSchema_Db_Schema_Table_ForeignKey\setReference</text>
</a>
</g>
<!-- Node2&#45;&gt;Node29 -->
<g id="edge64" class="edge"><title>Node2&#45;&gt;Node29</title>
<path fill="none" stroke="midnightblue" d="M462.586,-488.576C476.79,-430.521 525.887,-263.917 636,-189 641.357,-185.356 647.071,-182.225 653.026,-179.545"/>
<polygon fill="midnightblue" stroke="midnightblue" points="459.16,-487.857 460.268,-498.394 465.972,-489.466 459.16,-487.857"/>
</g>
<!-- Node30 -->
<g id="node63" class="node"><title>Node30</title>
<a xlink:href="classZendDbSchema__Db__Schema__Table__Column.html#a666cbc354c127b391874bbb63ae90612" target="_top" xlink:title="ZendDbSchema_Db_Schema_Table_Column\\setSigned">
<polygon fill="white" stroke="black" points="656.5,-118.5 656.5,-139.5 917.5,-139.5 917.5,-118.5 656.5,-118.5"/>
<text text-anchor="middle" x="787" y="-126.5" font-family="Helvetica,sans-Serif" font-size="10.00">ZendDbSchema_Db_Schema_Table_Column\setSigned</text>
</a>
</g>
<!-- Node2&#45;&gt;Node30 -->
<g id="edge66" class="edge"><title>Node2&#45;&gt;Node30</title>
<path fill="none" stroke="midnightblue" d="M461.348,-488.216C472.699,-425.146 515.945,-235.007 636,-149 642.342,-144.457 649.227,-140.695 656.446,-137.595"/>
<polygon fill="midnightblue" stroke="midnightblue" points="457.832,-488.013 459.588,-498.461 464.731,-489.198 457.832,-488.013"/>
</g>
<!-- Node31 -->
<g id="node65" class="node"><title>Node31</title>
<a xlink:href="classZendDbSchema__Db__Schema__Table__AbstractDefinition.html#a6976f882060256d1b0d2eec381ef2746" target="_top" xlink:title="ZendDbSchema_Db_Schema_Table_AbstractDefinition\\setType">
<polygon fill="white" stroke="black" points="638.5,-910.5 638.5,-931.5 935.5,-931.5 935.5,-910.5 638.5,-910.5"/>
<text text-anchor="middle" x="787" y="-918.5" font-family="Helvetica,sans-Serif" font-size="10.00">ZendDbSchema_Db_Schema_Table_AbstractDefinition\setType</text>
</a>
</g>
<!-- Node2&#45;&gt;Node31 -->
<g id="edge68" class="edge"><title>Node2&#45;&gt;Node31</title>
<path fill="none" stroke="midnightblue" d="M460.473,-529.833C469.587,-596.515 507.741,-805.88 636,-901 640.885,-904.623 646.112,-907.757 651.578,-910.459"/>
<polygon fill="midnightblue" stroke="midnightblue" points="463.922,-529.212 459.171,-519.743 456.979,-530.108 463.922,-529.212"/>
</g>
<!-- Node5 -->
<g id="node9" class="node"><title>Node5</title>
<a xlink:href="classZendDbSchema__Db__Schema__Table__PrimaryKey.html#a67fc19acdef929840ff904ffbb8574c7" target="_top" xlink:title="ZendDbSchema_Db_Schema_Table_PrimaryKey\\setFromArray">
<polygon fill="white" stroke="black" points="1326,-821.5 1326,-842.5 1620,-842.5 1620,-821.5 1326,-821.5"/>
<text text-anchor="middle" x="1473" y="-829.5" font-family="Helvetica,sans-Serif" font-size="10.00">ZendDbSchema_Db_Schema_Table_PrimaryKey\setFromArray</text>
</a>
</g>
<!-- Node4&#45;&gt;Node5 -->
<g id="edge8" class="edge"><title>Node4&#45;&gt;Node5</title>
<path fill="none" stroke="midnightblue" d="M1270.92,-832C1289.04,-832 1307.65,-832 1325.89,-832"/>
<polygon fill="midnightblue" stroke="midnightblue" points="1270.92,-828.5 1260.92,-832 1270.92,-835.5 1270.92,-828.5"/>
</g>
<!-- Node7&#45;&gt;Node4 -->
<g id="edge14" class="edge"><title>Node7&#45;&gt;Node4</title>
<path fill="none" stroke="midnightblue" d="M922.238,-814.368C950.098,-816.71 979.321,-819.166 1006.81,-821.477"/>
<polygon fill="midnightblue" stroke="midnightblue" points="922.299,-810.861 912.041,-813.511 921.712,-817.836 922.299,-810.861"/>
</g>
<!-- Node7&#45;&gt;Node8 -->
<g id="edge16" class="edge"><title>Node7&#45;&gt;Node8</title>
<path fill="none" stroke="midnightblue" d="M918.406,-791.573C948.872,-788.924 981.154,-786.117 1011.14,-783.509"/>
<polygon fill="midnightblue" stroke="midnightblue" points="917.808,-788.112 908.149,-792.465 918.415,-795.086 917.808,-788.112"/>
</g>
<!-- Node9&#45;&gt;Node6 -->
<g id="edge20" class="edge"><title>Node9&#45;&gt;Node6</title>
<path fill="none" stroke="midnightblue" d="M926.723,-698.34C951.731,-700.369 977.693,-702.477 1002.4,-704.482"/>
<polygon fill="midnightblue" stroke="midnightblue" points="926.697,-694.826 916.447,-697.506 926.131,-701.803 926.697,-694.826"/>
</g>
<!-- Node9&#45;&gt;Node10 -->
<g id="edge22" class="edge"><title>Node9&#45;&gt;Node10</title>
<path fill="none" stroke="midnightblue" d="M936.333,-675.746C954.962,-674.342 973.958,-672.91 992.43,-671.518"/>
<polygon fill="midnightblue" stroke="midnightblue" points="936.039,-672.258 926.33,-676.5 936.565,-679.238 936.039,-672.258"/>
</g>
<!-- Node16 -->
<g id="node35" class="node"><title>Node16</title>
<a xlink:href="classZendDbSchema__Db__Schema__AbstractSchema.html#abe3de4a43bc5df22c0e3dd270b0176f9" target="_top" xlink:title="ZendDbSchema_Db_Schema_AbstractSchema\\refresh">
<polygon fill="white" stroke="black" points="1003.5,-303.5 1003.5,-324.5 1260.5,-324.5 1260.5,-303.5 1003.5,-303.5"/>
<text text-anchor="middle" x="1132" y="-311.5" font-family="Helvetica,sans-Serif" font-size="10.00">ZendDbSchema_Db_Schema_AbstractSchema\refresh</text>
</a>
</g>
<!-- Node15&#45;&gt;Node16 -->
<g id="edge38" class="edge"><title>Node15&#45;&gt;Node16</title>
<path fill="none" stroke="midnightblue" d="M913.158,-436.217C921.655,-434.156 930.008,-431.768 938,-429 1011.63,-403.502 1088.01,-348.155 1118.38,-324.773"/>
<polygon fill="midnightblue" stroke="midnightblue" points="912.108,-432.866 903.129,-438.488 913.655,-439.693 912.108,-432.866"/>
</g>
<!-- Node20 -->
<g id="node43" class="node"><title>Node20</title>
<a xlink:href="classZendDbSchema__Db__Schema__Table__AbstractDefinition.html#ad79a83e9aa0cbaa289df7cf5c2d13188" target="_top" xlink:title="ZendDbSchema_Db_Schema_Table_AbstractDefinition\\refresh">
<polygon fill="white" stroke="black" points="986,-438.5 986,-459.5 1278,-459.5 1278,-438.5 986,-438.5"/>
<text text-anchor="middle" x="1132" y="-446.5" font-family="Helvetica,sans-Serif" font-size="10.00">ZendDbSchema_Db_Schema_Table_AbstractDefinition\refresh</text>
</a>
</g>
<!-- Node15&#45;&gt;Node20 -->
<g id="edge46" class="edge"><title>Node15&#45;&gt;Node20</title>
<path fill="none" stroke="midnightblue" d="M941.098,-449C956.004,-449 971.096,-449 985.922,-449"/>
<polygon fill="midnightblue" stroke="midnightblue" points="940.813,-445.5 930.813,-449 940.813,-452.5 940.813,-445.5"/>
</g>
<!-- Node16&#45;&gt;Node17 -->
<g id="edge40" class="edge"><title>Node16&#45;&gt;Node17</title>
<path fill="none" stroke="midnightblue" d="M1162.67,-298.797C1230.81,-265.031 1393.32,-184.49 1451.68,-155.568"/>
<polygon fill="midnightblue" stroke="midnightblue" points="1160.74,-295.852 1153.33,-303.428 1163.85,-302.124 1160.74,-295.852"/>
</g>
<!-- Node18 -->
<g id="node39" class="node"><title>Node18</title>
<a xlink:href="classZendDbSchema__Db__Schema__AbstractEntity.html#a26fcff2268495fcdbfa265f394ee93d9" target="_top" xlink:title="ZendDbSchema_Db_Schema_AbstractEntity\\delete">
<polygon fill="white" stroke="black" points="1351.5,-323.5 1351.5,-344.5 1594.5,-344.5 1594.5,-323.5 1351.5,-323.5"/>
<text text-anchor="middle" x="1473" y="-331.5" font-family="Helvetica,sans-Serif" font-size="10.00">ZendDbSchema_Db_Schema_AbstractEntity\delete</text>
</a>
</g>
<!-- Node16&#45;&gt;Node18 -->
<g id="edge42" class="edge"><title>Node16&#45;&gt;Node18</title>
<path fill="none" stroke="midnightblue" d="M1271.08,-322.157C1297.73,-323.72 1325.45,-325.346 1351.5,-326.874"/>
<polygon fill="midnightblue" stroke="midnightblue" points="1271.11,-318.653 1260.92,-321.561 1270.7,-325.641 1271.11,-318.653"/>
</g>
<!-- Node19 -->
<g id="node41" class="node"><title>Node19</title>
<a xlink:href="classZendDbSchema__Db__Schema__AbstractSchema.html#a95b8986f7fa3a4e26be024d3a621e4f6" target="_top" xlink:title="ZendDbSchema_Db_Schema_AbstractSchema\\__construct">
<polygon fill="white" stroke="black" points="1334,-283.5 1334,-304.5 1612,-304.5 1612,-283.5 1334,-283.5"/>
<text text-anchor="middle" x="1473" y="-291.5" font-family="Helvetica,sans-Serif" font-size="10.00">ZendDbSchema_Db_Schema_AbstractSchema\__construct</text>
</a>
</g>
<!-- Node16&#45;&gt;Node19 -->
<g id="edge44" class="edge"><title>Node16&#45;&gt;Node19</title>
<path fill="none" stroke="midnightblue" d="M1271.05,-305.845C1291.79,-304.628 1313.19,-303.373 1333.94,-302.156"/>
<polygon fill="midnightblue" stroke="midnightblue" points="1270.7,-302.359 1260.92,-306.439 1271.11,-309.347 1270.7,-302.359"/>
</g>
<!-- Node21 -->
<g id="node45" class="node"><title>Node21</title>
<a xlink:href="classZendDbSchema__Db__Schema__Table__AbstractDefinition.html#a41800b80353287bf0d9e32fdb72d0b04" target="_top" xlink:title="ZendDbSchema_Db_Schema_Table_AbstractDefinition\\delete">
<polygon fill="white" stroke="black" points="1329,-458.5 1329,-479.5 1617,-479.5 1617,-458.5 1329,-458.5"/>
<text text-anchor="middle" x="1473" y="-466.5" font-family="Helvetica,sans-Serif" font-size="10.00">ZendDbSchema_Db_Schema_Table_AbstractDefinition\delete</text>
</a>
</g>
<!-- Node20&#45;&gt;Node21 -->
<g id="edge48" class="edge"><title>Node20&#45;&gt;Node21</title>
<path fill="none" stroke="midnightblue" d="M1288.38,-458.172C1301.86,-458.962 1315.45,-459.76 1328.83,-460.544"/>
<polygon fill="midnightblue" stroke="midnightblue" points="1288.29,-454.66 1278.1,-457.569 1287.88,-461.648 1288.29,-454.66"/>
</g>
<!-- Node22 -->
<g id="node47" class="node"><title>Node22</title>
<a xlink:href="classZendDbSchema__Db__Schema__Table__PrimaryKey.html#a8189591ab7ced58307298ecc8f27779d" target="_top" xlink:title="ZendDbSchema_Db_Schema_Table_PrimaryKey\\__construct">
<polygon fill="white" stroke="black" points="1330,-418.5 1330,-439.5 1616,-439.5 1616,-418.5 1330,-418.5"/>
<text text-anchor="middle" x="1473" y="-426.5" font-family="Helvetica,sans-Serif" font-size="10.00">ZendDbSchema_Db_Schema_Table_PrimaryKey\__construct</text>
</a>
</g>
<!-- Node20&#45;&gt;Node22 -->
<g id="edge50" class="edge"><title>Node20&#45;&gt;Node22</title>
<path fill="none" stroke="midnightblue" d="M1288.19,-439.839C1302.1,-439.024 1316.13,-438.201 1329.91,-437.392"/>
<polygon fill="midnightblue" stroke="midnightblue" points="1287.88,-436.352 1278.1,-440.431 1288.29,-443.34 1287.88,-436.352"/>
</g>
</g>
</svg>
