<?xml version="1.0" encoding="UTF-8" standalone="no"?>
<!DOCTYPE svg PUBLIC "-//W3C//DTD SVG 1.1//EN"
 "http://www.w3.org/Graphics/SVG/1.1/DTD/svg11.dtd">
<!-- Generated by graphviz version 2.26.3 (20100126.1600)
 -->
<!-- Title: G Pages: 1 -->
<svg width="584pt" height="70pt"
 viewBox="0.00 0.00 584.00 70.00" xmlns="http://www.w3.org/2000/svg" xmlns:xlink="http://www.w3.org/1999/xlink">
<g id="graph1" class="graph" transform="scale(1 1) rotate(0) translate(4 66)">
<title>G</title>
<polygon fill="white" stroke="white" points="-4,5 -4,-66 581,-66 581,5 -4,5"/>
<!-- Node1 -->
<g id="node1" class="node"><title>Node1</title>
<polygon fill="#bfbfbf" stroke="black" points="0,-20.5 0,-41.5 244,-41.5 244,-20.5 0,-20.5"/>
<text text-anchor="middle" x="122" y="-28.5" font-family="Helvetica,sans-Serif" font-size="10.00">ZendDbSchema_Db_Migration_Skeleton\getAdapter</text>
</g>
<!-- Node2 -->
<g id="node3" class="node"><title>Node2</title>
<a xlink:href="classZendDbSchema__Db__Schema__AbstractEntity.html#aeeb617d5d385796ccbe95e0aa85cf491" target="_top" xlink:title="ZendDbSchema_Db_Schema_AbstractEntity\\getDefaultAdapter">
<polygon fill="white" stroke="black" points="280,-40.5 280,-61.5 576,-61.5 576,-40.5 280,-40.5"/>
<text text-anchor="middle" x="428" y="-48.5" font-family="Helvetica,sans-Serif" font-size="10.00">ZendDbSchema_Db_Schema_AbstractEntity\getDefaultAdapter</text>
</a>
</g>
<!-- Node1&#45;&gt;Node2 -->
<g id="edge2" class="edge"><title>Node1&#45;&gt;Node2</title>
<path fill="none" stroke="midnightblue" d="M244.259,-38.9908C252.694,-39.5421 261.259,-40.1019 269.846,-40.6632"/>
<polygon fill="midnightblue" stroke="midnightblue" points="269.723,-44.1625 279.93,-41.3222 270.18,-37.1774 269.723,-44.1625"/>
</g>
<!-- Node3 -->
<g id="node5" class="node"><title>Node3</title>
<a xlink:href="classZendDbSchema__Db__Migration__Skeleton.html#aa36d3a36801a4fe2dc5369f4fe68a516" target="_top" xlink:title="ZendDbSchema_Db_Migration_Skeleton\\setAdapter">
<polygon fill="white" stroke="black" points="306,-0.5 306,-21.5 550,-21.5 550,-0.5 306,-0.5"/>
<text text-anchor="middle" x="428" y="-8.5" font-family="Helvetica,sans-Serif" font-size="10.00">ZendDbSchema_Db_Migration_Skeleton\setAdapter</text>
</a>
</g>
<!-- Node1&#45;&gt;Node3 -->
<g id="edge4" class="edge"><title>Node1&#45;&gt;Node3</title>
<path fill="none" stroke="midnightblue" d="M244.259,-23.0092C261.236,-21.8996 278.74,-20.7556 295.887,-19.6348"/>
<polygon fill="midnightblue" stroke="midnightblue" points="296.185,-23.1229 305.936,-18.9781 295.729,-16.1378 296.185,-23.1229"/>
</g>
</g>
</svg>
