<?xml version="1.0" encoding="UTF-8" standalone="no"?>
<!DOCTYPE svg PUBLIC "-//W3C//DTD SVG 1.1//EN"
 "http://www.w3.org/Graphics/SVG/1.1/DTD/svg11.dtd">
<!-- Generated by graphviz version 2.26.3 (20100126.1600)
 -->
<!-- Title: G Pages: 1 -->
<svg width="526pt" height="110pt"
 viewBox="0.00 0.00 526.00 110.00" xmlns="http://www.w3.org/2000/svg" xmlns:xlink="http://www.w3.org/1999/xlink">
<g id="graph1" class="graph" transform="scale(1 1) rotate(0) translate(4 106)">
<title>G</title>
<polygon fill="white" stroke="white" points="-4,5 -4,-106 523,-106 523,5 -4,5"/>
<!-- Node1 -->
<g id="node1" class="node"><title>Node1</title>
<polygon fill="#bfbfbf" stroke="black" points="0,-40.5 0,-61.5 266,-61.5 266,-40.5 0,-40.5"/>
<text text-anchor="middle" x="133" y="-48.5" font-family="Helvetica,sans-Serif" font-size="10.00">ZendDbSchema_Db_Schema_Table\_getManagerByItem</text>
</g>
<!-- Node2 -->
<g id="node3" class="node"><title>Node2</title>
<a xlink:href="classZendDbSchema__Db__Schema__Table.html#a214354faa96de67a26b787c2c8741850" target="_top" xlink:title="ZendDbSchema_Db_Schema_Table\\columns">
<polygon fill="white" stroke="black" points="302.5,-80.5 302.5,-101.5 517.5,-101.5 517.5,-80.5 302.5,-80.5"/>
<text text-anchor="middle" x="410" y="-88.5" font-family="Helvetica,sans-Serif" font-size="10.00">ZendDbSchema_Db_Schema_Table\columns</text>
</a>
</g>
<!-- Node1&#45;&gt;Node2 -->
<g id="edge2" class="edge"><title>Node1&#45;&gt;Node2</title>
<path fill="none" stroke="midnightblue" d="M205.778,-61.5095C243.006,-66.8854 288.481,-73.4521 327.06,-79.0232"/>
<polygon fill="midnightblue" stroke="midnightblue" points="326.83,-82.5261 337.227,-80.4913 327.83,-75.5979 326.83,-82.5261"/>
</g>
<!-- Node3 -->
<g id="node5" class="node"><title>Node3</title>
<a xlink:href="classZendDbSchema__Db__Schema__Table.html#a47df29d95af8f655dd7506cfb649ec40" target="_top" xlink:title="ZendDbSchema_Db_Schema_Table\\indexes">
<polygon fill="white" stroke="black" points="304,-40.5 304,-61.5 516,-61.5 516,-40.5 304,-40.5"/>
<text text-anchor="middle" x="410" y="-48.5" font-family="Helvetica,sans-Serif" font-size="10.00">ZendDbSchema_Db_Schema_Table\indexes</text>
</a>
</g>
<!-- Node1&#45;&gt;Node3 -->
<g id="edge4" class="edge"><title>Node1&#45;&gt;Node3</title>
<path fill="none" stroke="midnightblue" d="M266.226,-51C275.39,-51 284.585,-51 293.649,-51"/>
<polygon fill="midnightblue" stroke="midnightblue" points="293.82,-54.5001 303.82,-51 293.82,-47.5001 293.82,-54.5001"/>
</g>
<!-- Node4 -->
<g id="node7" class="node"><title>Node4</title>
<a xlink:href="classZendDbSchema__Db__Schema__Table.html#acff371c2884c9688b5ede2deaf09f25c" target="_top" xlink:title="ZendDbSchema_Db_Schema_Table\\foreigns">
<polygon fill="white" stroke="black" points="303.5,-0.5 303.5,-21.5 516.5,-21.5 516.5,-0.5 303.5,-0.5"/>
<text text-anchor="middle" x="410" y="-8.5" font-family="Helvetica,sans-Serif" font-size="10.00">ZendDbSchema_Db_Schema_Table\foreigns</text>
</a>
</g>
<!-- Node1&#45;&gt;Node4 -->
<g id="edge6" class="edge"><title>Node1&#45;&gt;Node4</title>
<path fill="none" stroke="midnightblue" d="M205.778,-40.4905C243.006,-35.1146 288.481,-28.5479 327.06,-22.9768"/>
<polygon fill="midnightblue" stroke="midnightblue" points="327.83,-26.4021 337.227,-21.5087 326.83,-19.4739 327.83,-26.4021"/>
</g>
</g>
</svg>
