<?xml version="1.0" encoding="UTF-8" standalone="no"?>
<!DOCTYPE svg PUBLIC "-//W3C//DTD SVG 1.1//EN"
 "http://www.w3.org/Graphics/SVG/1.1/DTD/svg11.dtd">
<!-- Generated by graphviz version 2.26.3 (20100126.1600)
 -->
<!-- Title: G Pages: 1 -->
<svg width="1212pt" height="110pt"
 viewBox="0.00 0.00 1212.00 110.00" xmlns="http://www.w3.org/2000/svg" xmlns:xlink="http://www.w3.org/1999/xlink">
<g id="graph1" class="graph" transform="scale(1 1) rotate(0) translate(4 106)">
<title>G</title>
<polygon fill="white" stroke="white" points="-4,5 -4,-106 1209,-106 1209,5 -4,5"/>
<!-- Node1 -->
<g id="node1" class="node"><title>Node1</title>
<polygon fill="#bfbfbf" stroke="black" points="0,-40.5 0,-61.5 266,-61.5 266,-40.5 0,-40.5"/>
<text text-anchor="middle" x="133" y="-48.5" font-family="Helvetica,sans-Serif" font-size="10.00">ZendDbSchema_Db_Schema_Table_Manager_Index\add</text>
</g>
<!-- Node2 -->
<g id="node3" class="node"><title>Node2</title>
<a xlink:href="classZendDbSchema__Db__Schema__Table__Manager__Index.html#abf682839df69cd725db24701e901458f" target="_top" xlink:title="ZendDbSchema_Db_Schema_Table_Manager_Index\\_getItemClass">
<polygon fill="white" stroke="black" points="304,-80.5 304,-101.5 618,-101.5 618,-80.5 304,-80.5"/>
<text text-anchor="middle" x="461" y="-88.5" font-family="Helvetica,sans-Serif" font-size="10.00">ZendDbSchema_Db_Schema_Table_Manager_Index\_getItemClass</text>
</a>
</g>
<!-- Node1&#45;&gt;Node2 -->
<g id="edge2" class="edge"><title>Node1&#45;&gt;Node2</title>
<path fill="none" stroke="midnightblue" d="M219.178,-61.5095C263.916,-66.9654 318.713,-73.6479 364.826,-79.2714"/>
<polygon fill="midnightblue" stroke="midnightblue" points="364.478,-82.7549 374.829,-80.4913 365.326,-75.8064 364.478,-82.7549"/>
</g>
<!-- Node3 -->
<g id="node5" class="node"><title>Node3</title>
<a xlink:href="classZendDbSchema__Db__Schema__AbstractSchema.html#a55787c21deddba427842809d589c2df6" target="_top" xlink:title="ZendDbSchema_Db_Schema_AbstractSchema\\getName">
<polygon fill="white" stroke="black" points="327.5,-40.5 327.5,-61.5 594.5,-61.5 594.5,-40.5 327.5,-40.5"/>
<text text-anchor="middle" x="461" y="-48.5" font-family="Helvetica,sans-Serif" font-size="10.00">ZendDbSchema_Db_Schema_AbstractSchema\getName</text>
</a>
</g>
<!-- Node1&#45;&gt;Node3 -->
<g id="edge4" class="edge"><title>Node1&#45;&gt;Node3</title>
<path fill="none" stroke="midnightblue" d="M266.41,-51C283.081,-51 300.188,-51 317.011,-51"/>
<polygon fill="midnightblue" stroke="midnightblue" points="317.442,-54.5001 327.442,-51 317.442,-47.5001 317.442,-54.5001"/>
</g>
<!-- Node6 -->
<g id="node11" class="node"><title>Node6</title>
<a xlink:href="classZendDbSchema__Db__Schema__Table__Manager__AbstractManager.html#ac96e8e5950ad6ff3387a51340d17e719" target="_top" xlink:title="ZendDbSchema_Db_Schema_Table_Manager_AbstractManager\\has">
<polygon fill="white" stroke="black" points="302.5,-0.5 302.5,-21.5 619.5,-21.5 619.5,-0.5 302.5,-0.5"/>
<text text-anchor="middle" x="461" y="-8.5" font-family="Helvetica,sans-Serif" font-size="10.00">ZendDbSchema_Db_Schema_Table_Manager_AbstractManager\has</text>
</a>
</g>
<!-- Node1&#45;&gt;Node6 -->
<g id="edge10" class="edge"><title>Node1&#45;&gt;Node6</title>
<path fill="none" stroke="midnightblue" d="M219.178,-40.4905C263.916,-35.0346 318.713,-28.3521 364.826,-22.7286"/>
<polygon fill="midnightblue" stroke="midnightblue" points="365.326,-26.1936 374.829,-21.5087 364.478,-19.2451 365.326,-26.1936"/>
</g>
<!-- Node4 -->
<g id="node7" class="node"><title>Node4</title>
<a xlink:href="classZendDbSchema__Db__Schema__AbstractSchema.html#a54d32c6f15463eaad2321a9f0e7225d7" target="_top" xlink:title="ZendDbSchema_Db_Schema_AbstractSchema\\__get">
<polygon fill="white" stroke="black" points="656.5,-40.5 656.5,-61.5 907.5,-61.5 907.5,-40.5 656.5,-40.5"/>
<text text-anchor="middle" x="782" y="-48.5" font-family="Helvetica,sans-Serif" font-size="10.00">ZendDbSchema_Db_Schema_AbstractSchema\__get</text>
</a>
</g>
<!-- Node3&#45;&gt;Node4 -->
<g id="edge6" class="edge"><title>Node3&#45;&gt;Node4</title>
<path fill="none" stroke="midnightblue" d="M594.808,-51C611.69,-51 628.977,-51 645.894,-51"/>
<polygon fill="midnightblue" stroke="midnightblue" points="646.372,-54.5001 656.372,-51 646.372,-47.5001 646.372,-54.5001"/>
</g>
<!-- Node5 -->
<g id="node9" class="node"><title>Node5</title>
<a xlink:href="classZendDbSchema__Db__Schema__AbstractSchema.html#ac4e121ba7932163eb1950fabe06fb9db" target="_top" xlink:title="ZendDbSchema_Db_Schema_AbstractSchema\\__isset">
<polygon fill="white" stroke="black" points="944.5,-40.5 944.5,-61.5 1203.5,-61.5 1203.5,-40.5 944.5,-40.5"/>
<text text-anchor="middle" x="1074" y="-48.5" font-family="Helvetica,sans-Serif" font-size="10.00">ZendDbSchema_Db_Schema_AbstractSchema\__isset</text>
</a>
</g>
<!-- Node4&#45;&gt;Node5 -->
<g id="edge8" class="edge"><title>Node4&#45;&gt;Node5</title>
<path fill="none" stroke="midnightblue" d="M907.529,-51C916.401,-51 925.376,-51 934.32,-51"/>
<polygon fill="midnightblue" stroke="midnightblue" points="934.397,-54.5001 944.397,-51 934.397,-47.5001 934.397,-54.5001"/>
</g>
</g>
</svg>
