<?xml version="1.0" encoding="UTF-8" standalone="no"?>
<!DOCTYPE svg PUBLIC "-//W3C//DTD SVG 1.1//EN"
 "http://www.w3.org/Graphics/SVG/1.1/DTD/svg11.dtd">
<!-- Generated by graphviz version 2.26.3 (20100126.1600)
 -->
<!-- Title: G Pages: 1 -->
<svg width="722pt" height="42pt"
 viewBox="0.00 0.00 722.00 42.00" xmlns="http://www.w3.org/2000/svg" xmlns:xlink="http://www.w3.org/1999/xlink">
<g id="graph1" class="graph" transform="scale(1 1) rotate(0) translate(4 38)">
<title>G</title>
<polygon fill="white" stroke="white" points="-4,5 -4,-38 719,-38 719,5 -4,5"/>
<!-- Node1 -->
<g id="node1" class="node"><title>Node1</title>
<polygon fill="#bfbfbf" stroke="black" points="0.5,-0 0.5,-34 155.5,-34 155.5,-0 0.5,-0"/>
<text text-anchor="start" x="8.5" y="-21" font-family="Helvetica,sans-Serif" font-size="10.00">ZendDbSchema_Db_Schema</text>
<text text-anchor="middle" x="78" y="-8" font-family="Helvetica,sans-Serif" font-size="10.00">_Table_PrimaryKey\hasColumn</text>
</g>
<!-- Node2 -->
<g id="node3" class="node"><title>Node2</title>
<a xlink:href="classZendDbSchema__Db__Schema__Table__PrimaryKey.html#a228207d6e07e3ab95b8b25415077a6a1" target="_top" xlink:title="ZendDbSchema_Db_Schema\l_Table_PrimaryKey\\getColumns">
<polygon fill="white" stroke="black" points="192,-0 192,-34 350,-34 350,-0 192,-0"/>
<text text-anchor="start" x="200" y="-21" font-family="Helvetica,sans-Serif" font-size="10.00">ZendDbSchema_Db_Schema</text>
<text text-anchor="middle" x="271" y="-8" font-family="Helvetica,sans-Serif" font-size="10.00">_Table_PrimaryKey\getColumns</text>
</a>
</g>
<!-- Node1&#45;&gt;Node2 -->
<g id="edge2" class="edge"><title>Node1&#45;&gt;Node2</title>
<path fill="none" stroke="midnightblue" d="M155.666,-17C164.249,-17 173.038,-17 181.748,-17"/>
<polygon fill="midnightblue" stroke="midnightblue" points="181.92,-20.5001 191.92,-17 181.92,-13.5001 181.92,-20.5001"/>
</g>
<!-- Node3 -->
<g id="node5" class="node"><title>Node3</title>
<a xlink:href="classZendDbSchema__Db__Schema__AbstractSchema.html#a54d32c6f15463eaad2321a9f0e7225d7" target="_top" xlink:title="ZendDbSchema_Db_Schema\l_AbstractSchema\\__get">
<polygon fill="white" stroke="black" points="386,-0 386,-34 532,-34 532,-0 386,-0"/>
<text text-anchor="start" x="394" y="-21" font-family="Helvetica,sans-Serif" font-size="10.00">ZendDbSchema_Db_Schema</text>
<text text-anchor="middle" x="459" y="-8" font-family="Helvetica,sans-Serif" font-size="10.00">_AbstractSchema\__get</text>
</a>
</g>
<!-- Node2&#45;&gt;Node3 -->
<g id="edge4" class="edge"><title>Node2&#45;&gt;Node3</title>
<path fill="none" stroke="midnightblue" d="M350.184,-17C358.602,-17 367.183,-17 375.648,-17"/>
<polygon fill="midnightblue" stroke="midnightblue" points="375.896,-20.5001 385.896,-17 375.896,-13.5001 375.896,-20.5001"/>
</g>
<!-- Node4 -->
<g id="node7" class="node"><title>Node4</title>
<a xlink:href="classZendDbSchema__Db__Schema__AbstractSchema.html#ac4e121ba7932163eb1950fabe06fb9db" target="_top" xlink:title="ZendDbSchema_Db_Schema\l_AbstractSchema\\__isset">
<polygon fill="white" stroke="black" points="568,-0 568,-34 714,-34 714,-0 568,-0"/>
<text text-anchor="start" x="576" y="-21" font-family="Helvetica,sans-Serif" font-size="10.00">ZendDbSchema_Db_Schema</text>
<text text-anchor="middle" x="641" y="-8" font-family="Helvetica,sans-Serif" font-size="10.00">_AbstractSchema\__isset</text>
</a>
</g>
<!-- Node3&#45;&gt;Node4 -->
<g id="edge6" class="edge"><title>Node3&#45;&gt;Node4</title>
<path fill="none" stroke="midnightblue" d="M532.24,-17C540.596,-17 549.161,-17 557.636,-17"/>
<polygon fill="midnightblue" stroke="midnightblue" points="557.91,-20.5001 567.91,-17 557.91,-13.5001 557.91,-20.5001"/>
</g>
</g>
</svg>
