<?xml version="1.0" encoding="UTF-8" standalone="no"?>
<!DOCTYPE svg PUBLIC "-//W3C//DTD SVG 1.1//EN"
 "http://www.w3.org/Graphics/SVG/1.1/DTD/svg11.dtd">
<!-- Generated by graphviz version 2.26.3 (20100126.1600)
 -->
<!-- Title: G Pages: 1 -->
<svg width="1096pt" height="137pt"
 viewBox="0.00 0.00 1096.00 136.89" xmlns="http://www.w3.org/2000/svg" xmlns:xlink="http://www.w3.org/1999/xlink">
<g id="graph1" class="graph" transform="scale(1 1) rotate(0) translate(4 132.886)">
<title>G</title>
<polygon fill="white" stroke="white" points="-4,5 -4,-132.886 1093,-132.886 1093,5 -4,5"/>
<!-- Node1 -->
<g id="node1" class="node"><title>Node1</title>
<polygon fill="#bfbfbf" stroke="black" points="0.5,-54.8841 0.5,-75.8841 219.5,-75.8841 219.5,-54.8841 0.5,-54.8841"/>
<text text-anchor="middle" x="110" y="-62.8841" font-family="Helvetica,sans-Serif" font-size="10.00">ZendDbSchema_Db_Migration_Manager\down</text>
</g>
<!-- Node2 -->
<g id="node3" class="node"><title>Node2</title>
<a xlink:href="classZendDbSchema__Db__Migration__Manager.html#a3f8150b5e2fc90623a10c7890af80185" target="_top" xlink:title="ZendDbSchema_Db_Migration_Manager\\compareVersion">
<polygon fill="white" stroke="black" points="256,-84.8841 256,-105.884 522,-105.884 522,-84.8841 256,-84.8841"/>
<text text-anchor="middle" x="389" y="-92.8841" font-family="Helvetica,sans-Serif" font-size="10.00">ZendDbSchema_Db_Migration_Manager\compareVersion</text>
</a>
</g>
<!-- Node1&#45;&gt;Node2 -->
<g id="edge2" class="edge"><title>Node1&#45;&gt;Node2</title>
<path fill="none" stroke="midnightblue" d="M207.973,-75.9188C231.603,-78.4597 256.983,-81.1887 281.042,-83.7757"/>
<polygon fill="midnightblue" stroke="midnightblue" points="280.946,-87.2855 291.263,-84.8748 281.695,-80.3256 280.946,-87.2855"/>
</g>
<!-- Node6 -->
<g id="node13" class="node"><title>Node6</title>
<a xlink:href="classZendDbSchema__Db__Migration__Manager.html#a3acd09811b23c39aa97fed97b4012ac9" target="_top" xlink:title="ZendDbSchema_Db_Migration_Manager\\rolldown">
<polygon fill="white" stroke="black" points="273,-25.8841 273,-46.8841 505,-46.8841 505,-25.8841 273,-25.8841"/>
<text text-anchor="middle" x="389" y="-33.8841" font-family="Helvetica,sans-Serif" font-size="10.00">ZendDbSchema_Db_Migration_Manager\rolldown</text>
</a>
</g>
<!-- Node1&#45;&gt;Node6 -->
<g id="edge14" class="edge"><title>Node1&#45;&gt;Node6</title>
<path fill="none" stroke="midnightblue" d="M211.12,-54.8734C232.758,-52.6244 255.731,-50.2364 277.727,-47.9501"/>
<polygon fill="midnightblue" stroke="midnightblue" points="278.172,-51.4228 287.757,-46.9076 277.448,-44.4603 278.172,-51.4228"/>
</g>
<!-- Node3 -->
<g id="node5" class="node"><title>Node3</title>
<a xlink:href="classZendDbSchema__Db__Migration__Manager.html#a9973d07f9ffe306e00ea2f9f4beb92e4" target="_top" xlink:title="ZendDbSchema_Db_Migration_Manager\\hasChange">
<polygon fill="white" stroke="black" points="842.5,-55.8841 842.5,-76.8841 1087.5,-76.8841 1087.5,-55.8841 842.5,-55.8841"/>
<text text-anchor="middle" x="965" y="-63.8841" font-family="Helvetica,sans-Serif" font-size="10.00">ZendDbSchema_Db_Migration_Manager\hasChange</text>
</a>
</g>
<!-- Node2&#45;&gt;Node3 -->
<g id="edge4" class="edge"><title>Node2&#45;&gt;Node3</title>
<path fill="none" stroke="midnightblue" d="M442.704,-105.886C522.486,-119.82 676.799,-140.35 806,-119.384 850.836,-112.108 900.114,-93.9983 931.744,-80.9727"/>
<polygon fill="midnightblue" stroke="midnightblue" points="933.495,-84.0342 941.366,-76.9424 930.79,-77.5778 933.495,-84.0342"/>
</g>
<!-- Node4 -->
<g id="node7" class="node"><title>Node4</title>
<a xlink:href="classZendDbSchema__Db__Migration__Manager.html#a3d4f62489e72876f97bec3cd4448979d" target="_top" xlink:title="ZendDbSchema_Db_Migration_Manager\\getChange">
<polygon fill="white" stroke="black" points="560.5,-55.8841 560.5,-76.8841 803.5,-76.8841 803.5,-55.8841 560.5,-55.8841"/>
<text text-anchor="middle" x="682" y="-63.8841" font-family="Helvetica,sans-Serif" font-size="10.00">ZendDbSchema_Db_Migration_Manager\getChange</text>
</a>
</g>
<!-- Node2&#45;&gt;Node4 -->
<g id="edge6" class="edge"><title>Node2&#45;&gt;Node4</title>
<path fill="none" stroke="midnightblue" d="M495.194,-84.8734C518.02,-82.6142 542.261,-80.2149 565.456,-77.9192"/>
<polygon fill="midnightblue" stroke="midnightblue" points="566.07,-81.3756 575.676,-76.9076 565.38,-74.4096 566.07,-81.3756"/>
</g>
<!-- Node5 -->
<g id="node9" class="node"><title>Node5</title>
<a xlink:href="classZendDbSchema__Db__Migration__Manager.html#ab66af8a9dc5cdb099b8266b68166c4e0" target="_top" xlink:title="ZendDbSchema_Db_Migration_Manager\\getVersion">
<polygon fill="white" stroke="black" points="844,-15.8841 844,-36.8841 1086,-36.8841 1086,-15.8841 844,-15.8841"/>
<text text-anchor="middle" x="965" y="-23.8841" font-family="Helvetica,sans-Serif" font-size="10.00">ZendDbSchema_Db_Migration_Manager\getVersion</text>
</a>
</g>
<!-- Node2&#45;&gt;Node5 -->
<g id="edge12" class="edge"><title>Node2&#45;&gt;Node5</title>
<path fill="none" stroke="midnightblue" d="M522.243,-103.818C624.858,-108.228 757.164,-108.768 806,-86.3841 827.742,-76.4183 821.006,-57.8421 842,-46.3841 846.007,-44.1971 850.19,-42.2347 854.491,-40.4748"/>
<polygon fill="midnightblue" stroke="midnightblue" points="855.906,-43.6832 864.076,-36.9369 853.482,-37.1163 855.906,-43.6832"/>
</g>
<!-- Node4&#45;&gt;Node3 -->
<g id="edge10" class="edge"><title>Node4&#45;&gt;Node3</title>
<path fill="none" stroke="midnightblue" d="M803.66,-66.3841C813.011,-66.3841 822.481,-66.3841 831.9,-66.3841"/>
<polygon fill="midnightblue" stroke="midnightblue" points="832.094,-69.8842 842.094,-66.3841 832.094,-62.8842 832.094,-69.8842"/>
</g>
<!-- Node4&#45;&gt;Node5 -->
<g id="edge8" class="edge"><title>Node4&#45;&gt;Node5</title>
<path fill="none" stroke="midnightblue" d="M756.355,-55.8746C794.47,-50.4873 841.046,-43.9041 880.515,-38.3254"/>
<polygon fill="midnightblue" stroke="midnightblue" points="881.239,-41.758 890.651,-36.8928 880.259,-34.8269 881.239,-41.758"/>
</g>
<!-- Node6&#45;&gt;Node4 -->
<g id="edge16" class="edge"><title>Node6&#45;&gt;Node4</title>
<path fill="none" stroke="midnightblue" d="M491.889,-46.9188C516.927,-49.4824 543.835,-52.2375 569.301,-54.845"/>
<polygon fill="midnightblue" stroke="midnightblue" points="569.054,-58.3379 579.359,-55.8748 569.767,-51.3743 569.054,-58.3379"/>
</g>
<!-- Node6&#45;&gt;Node5 -->
<g id="edge24" class="edge"><title>Node6&#45;&gt;Node5</title>
<path fill="none" stroke="midnightblue" d="M435.693,-25.8174C469.462,-18.7348 516.294,-10.0571 558,-6.3841 667.797,3.28563 695.993,0.507399 806,-6.3841 832.229,-8.02726 860.75,-11.1809 886.3,-14.5065"/>
<polygon fill="midnightblue" stroke="midnightblue" points="885.932,-17.9882 896.306,-15.8368 886.854,-11.0493 885.932,-17.9882"/>
</g>
<!-- Node7 -->
<g id="node16" class="node"><title>Node7</title>
<a xlink:href="classZendDbSchema__Db__Migration__Manager.html#a3e9a5dfa3447c5eb1b4bbcc8817549c3" target="_top" xlink:title="ZendDbSchema_Db_Migration_Manager\\getPrevious">
<polygon fill="white" stroke="black" points="558,-15.8841 558,-36.8841 806,-36.8841 806,-15.8841 558,-15.8841"/>
<text text-anchor="middle" x="682" y="-23.8841" font-family="Helvetica,sans-Serif" font-size="10.00">ZendDbSchema_Db_Migration_Manager\getPrevious</text>
</a>
</g>
<!-- Node6&#45;&gt;Node7 -->
<g id="edge18" class="edge"><title>Node6&#45;&gt;Node7</title>
<path fill="none" stroke="midnightblue" d="M505.222,-32.4175C519.107,-31.9436 533.372,-31.4567 547.487,-30.975"/>
<polygon fill="midnightblue" stroke="midnightblue" points="547.857,-34.4645 557.732,-30.6253 547.618,-27.4686 547.857,-34.4645"/>
</g>
<!-- Node7&#45;&gt;Node3 -->
<g id="edge22" class="edge"><title>Node7&#45;&gt;Node3</title>
<path fill="none" stroke="midnightblue" d="M756.355,-36.8936C794.47,-42.2809 841.046,-48.8641 880.515,-54.4428"/>
<polygon fill="midnightblue" stroke="midnightblue" points="880.259,-57.9413 890.651,-55.8754 881.239,-51.0102 880.259,-57.9413"/>
</g>
<!-- Node7&#45;&gt;Node5 -->
<g id="edge20" class="edge"><title>Node7&#45;&gt;Node5</title>
<path fill="none" stroke="midnightblue" d="M806.128,-26.3841C815.192,-26.3841 824.352,-26.3841 833.458,-26.3841"/>
<polygon fill="midnightblue" stroke="midnightblue" points="833.706,-29.8842 843.706,-26.3841 833.706,-22.8842 833.706,-29.8842"/>
</g>
</g>
</svg>
