<?xml version="1.0" encoding="UTF-8" standalone="no"?>
<!DOCTYPE svg PUBLIC "-//W3C//DTD SVG 1.1//EN"
 "http://www.w3.org/Graphics/SVG/1.1/DTD/svg11.dtd">
<!-- Generated by graphviz version 2.26.3 (20100126.1600)
 -->
<!-- Title: G Pages: 1 -->
<svg width="1494pt" height="109pt"
 viewBox="0.00 0.00 1494.00 109.00" xmlns="http://www.w3.org/2000/svg" xmlns:xlink="http://www.w3.org/1999/xlink">
<g id="graph1" class="graph" transform="scale(1 1) rotate(0) translate(4 105)">
<title>G</title>
<polygon fill="white" stroke="white" points="-4,5 -4,-105 1491,-105 1491,5 -4,5"/>
<!-- Node1 -->
<g id="node1" class="node"><title>Node1</title>
<polygon fill="#bfbfbf" stroke="black" points="0,-59.5 0,-80.5 290,-80.5 290,-59.5 0,-59.5"/>
<text text-anchor="middle" x="145" y="-67.5" font-family="Helvetica,sans-Serif" font-size="10.00">ZendDbSchema_Db_Schema_Generator_Mysql\createColumn</text>
</g>
<!-- Node2 -->
<g id="node3" class="node"><title>Node2</title>
<a xlink:href="classZendDbSchema__Db__Schema__AbstractSchema.html#a55787c21deddba427842809d589c2df6" target="_top" xlink:title="ZendDbSchema_Db_Schema_AbstractSchema\\getName">
<polygon fill="white" stroke="black" points="332.5,-79.5 332.5,-100.5 599.5,-100.5 599.5,-79.5 332.5,-79.5"/>
<text text-anchor="middle" x="466" y="-87.5" font-family="Helvetica,sans-Serif" font-size="10.00">ZendDbSchema_Db_Schema_AbstractSchema\getName</text>
</a>
</g>
<!-- Node1&#45;&gt;Node2 -->
<g id="edge2" class="edge"><title>Node1&#45;&gt;Node2</title>
<path fill="none" stroke="midnightblue" d="M290.004,-79.0345C300.707,-79.7013 311.502,-80.3739 322.197,-81.0403"/>
<polygon fill="midnightblue" stroke="midnightblue" points="322.215,-84.5482 332.414,-81.6769 322.651,-77.5617 322.215,-84.5482"/>
</g>
<!-- Node5 -->
<g id="node9" class="node"><title>Node5</title>
<a xlink:href="classZendDbSchema__Db__Schema__Generator__Mysql.html#ab808aafb85b6359cacdb4cc3fe757d6b" target="_top" xlink:title="ZendDbSchema_Db_Schema_Generator_Mysql\\_columnSql">
<polygon fill="white" stroke="black" points="326,-39.5 326,-60.5 606,-60.5 606,-39.5 326,-39.5"/>
<text text-anchor="middle" x="466" y="-47.5" font-family="Helvetica,sans-Serif" font-size="10.00">ZendDbSchema_Db_Schema_Generator_Mysql\_columnSql</text>
</a>
</g>
<!-- Node1&#45;&gt;Node5 -->
<g id="edge8" class="edge"><title>Node1&#45;&gt;Node5</title>
<path fill="none" stroke="midnightblue" d="M290.004,-60.9655C298.603,-60.4297 307.261,-59.8903 315.878,-59.3534"/>
<polygon fill="midnightblue" stroke="midnightblue" points="316.208,-62.8397 325.971,-58.7246 315.772,-55.8533 316.208,-62.8397"/>
</g>
<!-- Node3 -->
<g id="node5" class="node"><title>Node3</title>
<a xlink:href="classZendDbSchema__Db__Schema__AbstractSchema.html#a54d32c6f15463eaad2321a9f0e7225d7" target="_top" xlink:title="ZendDbSchema_Db_Schema_AbstractSchema\\__get">
<polygon fill="white" stroke="black" points="938.5,-40.5 938.5,-61.5 1189.5,-61.5 1189.5,-40.5 938.5,-40.5"/>
<text text-anchor="middle" x="1064" y="-48.5" font-family="Helvetica,sans-Serif" font-size="10.00">ZendDbSchema_Db_Schema_AbstractSchema\__get</text>
</a>
</g>
<!-- Node2&#45;&gt;Node3 -->
<g id="edge4" class="edge"><title>Node2&#45;&gt;Node3</title>
<path fill="none" stroke="midnightblue" d="M599.749,-86.9156C686.109,-84.2468 800.824,-79.4366 902,-71 927.069,-68.9096 954.231,-65.8641 979.021,-62.7773"/>
<polygon fill="midnightblue" stroke="midnightblue" points="979.638,-66.2273 989.12,-61.5014 978.76,-59.2825 979.638,-66.2273"/>
</g>
<!-- Node4 -->
<g id="node7" class="node"><title>Node4</title>
<a xlink:href="classZendDbSchema__Db__Schema__AbstractSchema.html#ac4e121ba7932163eb1950fabe06fb9db" target="_top" xlink:title="ZendDbSchema_Db_Schema_AbstractSchema\\__isset">
<polygon fill="white" stroke="black" points="1226.5,-40.5 1226.5,-61.5 1485.5,-61.5 1485.5,-40.5 1226.5,-40.5"/>
<text text-anchor="middle" x="1356" y="-48.5" font-family="Helvetica,sans-Serif" font-size="10.00">ZendDbSchema_Db_Schema_AbstractSchema\__isset</text>
</a>
</g>
<!-- Node3&#45;&gt;Node4 -->
<g id="edge6" class="edge"><title>Node3&#45;&gt;Node4</title>
<path fill="none" stroke="midnightblue" d="M1189.53,-51C1198.4,-51 1207.38,-51 1216.32,-51"/>
<polygon fill="midnightblue" stroke="midnightblue" points="1216.4,-54.5001 1226.4,-51 1216.4,-47.5001 1216.4,-54.5001"/>
</g>
<!-- Node6 -->
<g id="node11" class="node"><title>Node6</title>
<a xlink:href="classZendDbSchema__Db__Schema__Table__Column.html#aeeed5820cfc4fac67507a196e9faa638" target="_top" xlink:title="ZendDbSchema_Db_Schema_Table_Column\\isNullable">
<polygon fill="white" stroke="black" points="642,-40.5 642,-61.5 902,-61.5 902,-40.5 642,-40.5"/>
<text text-anchor="middle" x="772" y="-48.5" font-family="Helvetica,sans-Serif" font-size="10.00">ZendDbSchema_Db_Schema_Table_Column\isNullable</text>
</a>
</g>
<!-- Node5&#45;&gt;Node6 -->
<g id="edge10" class="edge"><title>Node5&#45;&gt;Node6</title>
<path fill="none" stroke="midnightblue" d="M606.015,-50.4576C614.611,-50.4857 623.263,-50.5139 631.86,-50.542"/>
<polygon fill="midnightblue" stroke="midnightblue" points="631.909,-54.0421 641.92,-50.5749 631.931,-47.0421 631.909,-54.0421"/>
</g>
<!-- Node7 -->
<g id="node14" class="node"><title>Node7</title>
<a xlink:href="classZendDbSchema__Db__Schema__Table__Column.html#a49887d783c47fa509e229ca61dd113ef" target="_top" xlink:title="ZendDbSchema_Db_Schema_Table_Column\\isSigned">
<polygon fill="white" stroke="black" points="644.5,-0.5 644.5,-21.5 899.5,-21.5 899.5,-0.5 644.5,-0.5"/>
<text text-anchor="middle" x="772" y="-8.5" font-family="Helvetica,sans-Serif" font-size="10.00">ZendDbSchema_Db_Schema_Table_Column\isSigned</text>
</a>
</g>
<!-- Node5&#45;&gt;Node7 -->
<g id="edge14" class="edge"><title>Node5&#45;&gt;Node7</title>
<path fill="none" stroke="midnightblue" d="M548.405,-39.4974C588.798,-34.3493 637.598,-28.1297 679.289,-22.8161"/>
<polygon fill="midnightblue" stroke="midnightblue" points="679.971,-26.2576 689.448,-21.5213 679.086,-19.3138 679.971,-26.2576"/>
</g>
<!-- Node6&#45;&gt;Node3 -->
<g id="edge12" class="edge"><title>Node6&#45;&gt;Node3</title>
<path fill="none" stroke="midnightblue" d="M902.201,-51C910.837,-51 919.547,-51 928.209,-51"/>
<polygon fill="midnightblue" stroke="midnightblue" points="928.348,-54.5001 938.348,-51 928.348,-47.5001 928.348,-54.5001"/>
</g>
<!-- Node7&#45;&gt;Node3 -->
<g id="edge16" class="edge"><title>Node7&#45;&gt;Node3</title>
<path fill="none" stroke="midnightblue" d="M848.72,-21.5095C888.214,-26.9197 936.512,-33.5359 977.347,-39.1297"/>
<polygon fill="midnightblue" stroke="midnightblue" points="976.904,-42.6016 987.286,-40.4913 977.854,-35.6664 976.904,-42.6016"/>
</g>
</g>
</svg>
