<?xml version="1.0" encoding="UTF-8" standalone="no"?>
<!DOCTYPE svg PUBLIC "-//W3C//DTD SVG 1.1//EN"
 "http://www.w3.org/Graphics/SVG/1.1/DTD/svg11.dtd">
<!-- Generated by graphviz version 2.26.3 (20100126.1600)
 -->
<!-- Title: G Pages: 1 -->
<svg width="580pt" height="110pt"
 viewBox="0.00 0.00 580.00 110.00" xmlns="http://www.w3.org/2000/svg" xmlns:xlink="http://www.w3.org/1999/xlink">
<g id="graph1" class="graph" transform="scale(1 1) rotate(0) translate(4 106)">
<title>G</title>
<polygon fill="white" stroke="white" points="-4,5 -4,-106 577,-106 577,5 -4,5"/>
<!-- Node1 -->
<g id="node1" class="node"><title>Node1</title>
<polygon fill="#bfbfbf" stroke="black" points="0.5,-40.5 0.5,-61.5 257.5,-61.5 257.5,-40.5 0.5,-40.5"/>
<text text-anchor="middle" x="129" y="-48.5" font-family="Helvetica,sans-Serif" font-size="10.00">ZendDbSchema_Db_Schema_AbstractSchema\refresh</text>
</g>
<!-- Node2 -->
<g id="node3" class="node"><title>Node2</title>
<a xlink:href="classZendDbSchema__Db__Schema__AbstractSchema.html#a95b8986f7fa3a4e26be024d3a621e4f6" target="_top" xlink:title="ZendDbSchema_Db_Schema_AbstractSchema\\__construct">
<polygon fill="white" stroke="black" points="294,-80.5 294,-101.5 572,-101.5 572,-80.5 294,-80.5"/>
<text text-anchor="middle" x="433" y="-88.5" font-family="Helvetica,sans-Serif" font-size="10.00">ZendDbSchema_Db_Schema_AbstractSchema\__construct</text>
</a>
</g>
<!-- Node1&#45;&gt;Node2 -->
<g id="edge2" class="edge"><title>Node1&#45;&gt;Node2</title>
<path fill="none" stroke="midnightblue" d="M218.951,-62.8357C261.521,-68.437 311.931,-75.0698 353.134,-80.4913"/>
<polygon fill="midnightblue" stroke="midnightblue" points="219.244,-59.3441 208.872,-61.5095 218.33,-66.2843 219.244,-59.3441"/>
</g>
<!-- Node3 -->
<g id="node5" class="node"><title>Node3</title>
<a xlink:href="classZendDbSchema__Db__Schema__AbstractEntity.html#a26fcff2268495fcdbfa265f394ee93d9" target="_top" xlink:title="ZendDbSchema_Db_Schema_AbstractEntity\\delete">
<polygon fill="white" stroke="black" points="311.5,-40.5 311.5,-61.5 554.5,-61.5 554.5,-40.5 311.5,-40.5"/>
<text text-anchor="middle" x="433" y="-48.5" font-family="Helvetica,sans-Serif" font-size="10.00">ZendDbSchema_Db_Schema_AbstractEntity\delete</text>
</a>
</g>
<!-- Node1&#45;&gt;Node3 -->
<g id="edge4" class="edge"><title>Node1&#45;&gt;Node3</title>
<path fill="none" stroke="midnightblue" d="M268.3,-51C282.597,-51 297.046,-51 311.134,-51"/>
<polygon fill="midnightblue" stroke="midnightblue" points="267.923,-47.5001 257.923,-51 267.923,-54.5001 267.923,-47.5001"/>
</g>
<!-- Node4 -->
<g id="node7" class="node"><title>Node4</title>
<a xlink:href="classZendDbSchema__Db__Schema__AbstractEntity.html#a5b1c93da76c3708f90d330b4643e55b2" target="_top" xlink:title="ZendDbSchema_Db_Schema_AbstractEntity\\save">
<polygon fill="white" stroke="black" points="314,-0.5 314,-21.5 552,-21.5 552,-0.5 314,-0.5"/>
<text text-anchor="middle" x="433" y="-8.5" font-family="Helvetica,sans-Serif" font-size="10.00">ZendDbSchema_Db_Schema_AbstractEntity\save</text>
</a>
</g>
<!-- Node1&#45;&gt;Node4 -->
<g id="edge6" class="edge"><title>Node1&#45;&gt;Node4</title>
<path fill="none" stroke="midnightblue" d="M218.951,-39.1643C261.521,-33.563 311.931,-26.9302 353.134,-21.5087"/>
<polygon fill="midnightblue" stroke="midnightblue" points="218.33,-35.7157 208.872,-40.4905 219.244,-42.6559 218.33,-35.7157"/>
</g>
</g>
</svg>
