<?xml version="1.0" encoding="UTF-8" standalone="no"?>
<!DOCTYPE svg PUBLIC "-//W3C//DTD SVG 1.1//EN"
 "http://www.w3.org/Graphics/SVG/1.1/DTD/svg11.dtd">
<!-- Generated by graphviz version 2.26.3 (20100126.1600)
 -->
<!-- Title: G Pages: 1 -->
<svg width="534pt" height="70pt"
 viewBox="0.00 0.00 534.00 70.00" xmlns="http://www.w3.org/2000/svg" xmlns:xlink="http://www.w3.org/1999/xlink">
<g id="graph1" class="graph" transform="scale(1 1) rotate(0) translate(4 66)">
<title>G</title>
<polygon fill="white" stroke="white" points="-4,5 -4,-66 531,-66 531,5 -4,5"/>
<!-- Node1 -->
<g id="node1" class="node"><title>Node1</title>
<polygon fill="#bfbfbf" stroke="black" points="0.5,-20.5 0.5,-41.5 243.5,-41.5 243.5,-20.5 0.5,-20.5"/>
<text text-anchor="middle" x="122" y="-28.5" font-family="Helvetica,sans-Serif" font-size="10.00">ZendDbSchema_Db_Migration_Manager\getChange</text>
</g>
<!-- Node2 -->
<g id="node3" class="node"><title>Node2</title>
<a xlink:href="classZendDbSchema__Db__Migration__Manager.html#ab66af8a9dc5cdb099b8266b68166c4e0" target="_top" xlink:title="ZendDbSchema_Db_Migration_Manager\\getVersion">
<polygon fill="white" stroke="black" points="282,-40.5 282,-61.5 524,-61.5 524,-40.5 282,-40.5"/>
<text text-anchor="middle" x="403" y="-48.5" font-family="Helvetica,sans-Serif" font-size="10.00">ZendDbSchema_Db_Migration_Manager\getVersion</text>
</a>
</g>
<!-- Node1&#45;&gt;Node2 -->
<g id="edge2" class="edge"><title>Node1&#45;&gt;Node2</title>
<path fill="none" stroke="midnightblue" d="M243.616,-39.656C252.875,-40.315 262.246,-40.9819 271.562,-41.645"/>
<polygon fill="midnightblue" stroke="midnightblue" points="271.42,-45.1437 281.644,-42.3625 271.917,-38.1613 271.42,-45.1437"/>
</g>
<!-- Node3 -->
<g id="node5" class="node"><title>Node3</title>
<a xlink:href="classZendDbSchema__Db__Migration__Manager.html#a9973d07f9ffe306e00ea2f9f4beb92e4" target="_top" xlink:title="ZendDbSchema_Db_Migration_Manager\\hasChange">
<polygon fill="white" stroke="black" points="280.5,-0.5 280.5,-21.5 525.5,-21.5 525.5,-0.5 280.5,-0.5"/>
<text text-anchor="middle" x="403" y="-8.5" font-family="Helvetica,sans-Serif" font-size="10.00">ZendDbSchema_Db_Migration_Manager\hasChange</text>
</a>
</g>
<!-- Node1&#45;&gt;Node3 -->
<g id="edge4" class="edge"><title>Node1&#45;&gt;Node3</title>
<path fill="none" stroke="midnightblue" d="M243.616,-22.344C252.453,-21.7151 261.392,-21.0789 270.289,-20.4456"/>
<polygon fill="midnightblue" stroke="midnightblue" points="270.582,-23.9337 280.308,-19.7325 270.085,-16.9514 270.582,-23.9337"/>
</g>
</g>
</svg>
