<?xml version="1.0" encoding="UTF-8" standalone="no"?>
<!DOCTYPE svg PUBLIC "-//W3C//DTD SVG 1.1//EN"
 "http://www.w3.org/Graphics/SVG/1.1/DTD/svg11.dtd">
<!-- Generated by graphviz version 2.26.3 (20100126.1600)
 -->
<!-- Title: G Pages: 1 -->
<svg width="668pt" height="70pt"
 viewBox="0.00 0.00 668.00 70.00" xmlns="http://www.w3.org/2000/svg" xmlns:xlink="http://www.w3.org/1999/xlink">
<g id="graph1" class="graph" transform="scale(1 1) rotate(0) translate(4 66)">
<title>G</title>
<polygon fill="white" stroke="white" points="-4,5 -4,-66 665,-66 665,5 -4,5"/>
<!-- Node1 -->
<g id="node1" class="node"><title>Node1</title>
<polygon fill="#bfbfbf" stroke="black" points="0.5,-20.5 0.5,-41.5 315.5,-41.5 315.5,-20.5 0.5,-20.5"/>
<text text-anchor="middle" x="158" y="-28.5" font-family="Helvetica,sans-Serif" font-size="10.00">ZendDbSchema_Db_Schema_Table_PrimaryKey\_getCleanSchema</text>
</g>
<!-- Node2 -->
<g id="node3" class="node"><title>Node2</title>
<a xlink:href="classZendDbSchema__Db__Schema__Table__AbstractDefinition.html#a224b6a0c1df1d6ed40e03657782ef6fc" target="_top" xlink:title="ZendDbSchema_Db_Schema_Table_AbstractDefinition\\getTable">
<polygon fill="white" stroke="black" points="356.5,-40.5 356.5,-61.5 655.5,-61.5 655.5,-40.5 356.5,-40.5"/>
<text text-anchor="middle" x="506" y="-48.5" font-family="Helvetica,sans-Serif" font-size="10.00">ZendDbSchema_Db_Schema_Table_AbstractDefinition\getTable</text>
</a>
</g>
<!-- Node1&#45;&gt;Node2 -->
<g id="edge2" class="edge"><title>Node1&#45;&gt;Node2</title>
<path fill="none" stroke="midnightblue" d="M315.709,-40.0637C325.825,-40.6451 336.014,-41.2307 346.14,-41.8126"/>
<polygon fill="midnightblue" stroke="midnightblue" points="346.055,-45.3134 356.239,-42.3931 346.456,-38.325 346.055,-45.3134"/>
</g>
<!-- Node3 -->
<g id="node5" class="node"><title>Node3</title>
<a xlink:href="classZendDbSchema__Db__Schema__Table__PrimaryKey.html#ab6773d42e5dfebc2273db8b93556f343" target="_top" xlink:title="ZendDbSchema_Db_Schema_Table_PrimaryKey\\_getSchemaKey">
<polygon fill="white" stroke="black" points="352.5,-0.5 352.5,-21.5 659.5,-21.5 659.5,-0.5 352.5,-0.5"/>
<text text-anchor="middle" x="506" y="-8.5" font-family="Helvetica,sans-Serif" font-size="10.00">ZendDbSchema_Db_Schema_Table_PrimaryKey\_getSchemaKey</text>
</a>
</g>
<!-- Node1&#45;&gt;Node3 -->
<g id="edge4" class="edge"><title>Node1&#45;&gt;Node3</title>
<path fill="none" stroke="midnightblue" d="M315.709,-21.9363C324.594,-21.4256 333.536,-20.9117 342.442,-20.3999"/>
<polygon fill="midnightblue" stroke="midnightblue" points="342.693,-23.8913 352.476,-19.8232 342.291,-16.9029 342.693,-23.8913"/>
</g>
</g>
</svg>
