<?xml version="1.0" encoding="UTF-8" standalone="no"?>
<!DOCTYPE svg PUBLIC "-//W3C//DTD SVG 1.1//EN"
 "http://www.w3.org/Graphics/SVG/1.1/DTD/svg11.dtd">
<!-- Generated by graphviz version 2.26.3 (20100126.1600)
 -->
<!-- Title: G Pages: 1 -->
<svg width="2138pt" height="348pt"
 viewBox="0.00 0.00 2138.00 348.00" xmlns="http://www.w3.org/2000/svg" xmlns:xlink="http://www.w3.org/1999/xlink">
<g id="graph1" class="graph" transform="scale(1 1) rotate(0) translate(4 344)">
<title>G</title>
<polygon fill="white" stroke="white" points="-4,5 -4,-344 2135,-344 2135,5 -4,5"/>
<!-- Node1 -->
<g id="node1" class="node"><title>Node1</title>
<polygon fill="#bfbfbf" stroke="black" points="0,-177.5 0,-198.5 238,-198.5 238,-177.5 0,-177.5"/>
<text text-anchor="middle" x="119" y="-185.5" font-family="Helvetica,sans-Serif" font-size="10.00">ZendDbSchema_Db_Schema_AbstractEntity\save</text>
</g>
<!-- Node2 -->
<g id="node3" class="node"><title>Node2</title>
<a xlink:href="classZendDbSchema__Db__Schema__AbstractSchema.html#ae859790a91bbcb9c4dc52a6139e5999e" target="_top" xlink:title="ZendDbSchema_Db_Schema_AbstractSchema\\isDirty">
<polygon fill="white" stroke="black" points="591,-278.5 591,-299.5 847,-299.5 847,-278.5 591,-278.5"/>
<text text-anchor="middle" x="719" y="-286.5" font-family="Helvetica,sans-Serif" font-size="10.00">ZendDbSchema_Db_Schema_AbstractSchema\isDirty</text>
</a>
</g>
<!-- Node1&#45;&gt;Node2 -->
<g id="edge2" class="edge"><title>Node1&#45;&gt;Node2</title>
<path fill="none" stroke="midnightblue" d="M155.056,-198.576C186.297,-207.434 232.825,-219.894 274,-228 307.907,-234.676 508.227,-261.355 628.237,-277.134"/>
<polygon fill="midnightblue" stroke="midnightblue" points="627.792,-280.605 638.162,-278.438 628.704,-273.665 627.792,-280.605"/>
</g>
<!-- Node7 -->
<g id="node14" class="node"><title>Node7</title>
<a xlink:href="classZendDbSchema__Db__Schema__AbstractEntity.html#a453f0e0a50f718a89f7f024e61a3e2c2" target="_top" xlink:title="ZendDbSchema_Db_Schema_AbstractEntity\\_save">
<polygon fill="white" stroke="black" points="284.5,-275.5 284.5,-296.5 527.5,-296.5 527.5,-275.5 284.5,-275.5"/>
<text text-anchor="middle" x="406" y="-283.5" font-family="Helvetica,sans-Serif" font-size="10.00">ZendDbSchema_Db_Schema_AbstractEntity\_save</text>
</a>
</g>
<!-- Node1&#45;&gt;Node7 -->
<g id="edge14" class="edge"><title>Node1&#45;&gt;Node7</title>
<path fill="none" stroke="midnightblue" d="M137.458,-198.586C165.888,-214.447 222.506,-244.297 274,-261 289.433,-266.006 306.225,-270.138 322.499,-273.5"/>
<polygon fill="midnightblue" stroke="midnightblue" points="322.057,-276.981 332.547,-275.495 323.42,-270.115 322.057,-276.981"/>
</g>
<!-- Node8 -->
<g id="node16" class="node"><title>Node8</title>
<a xlink:href="classZendDbSchema__Db__Schema__AbstractEntity.html#a7ddb87869e3021260c12bb57df4ba8c1" target="_top" xlink:title="ZendDbSchema_Db_Schema_AbstractEntity\\exec">
<polygon fill="white" stroke="black" points="287,-317.5 287,-338.5 525,-338.5 525,-317.5 287,-317.5"/>
<text text-anchor="middle" x="406" y="-325.5" font-family="Helvetica,sans-Serif" font-size="10.00">ZendDbSchema_Db_Schema_AbstractEntity\exec</text>
</a>
</g>
<!-- Node1&#45;&gt;Node8 -->
<g id="edge16" class="edge"><title>Node1&#45;&gt;Node8</title>
<path fill="none" stroke="midnightblue" d="M129.093,-198.617C152.231,-222.239 211.909,-279.167 274,-306 282.057,-309.482 290.612,-312.416 299.34,-314.886"/>
<polygon fill="midnightblue" stroke="midnightblue" points="298.692,-318.335 309.253,-317.484 300.467,-311.563 298.692,-318.335"/>
</g>
<!-- Node10 -->
<g id="node20" class="node"><title>Node10</title>
<a xlink:href="classZendDbSchema__Db__Schema__AbstractSchema.html#ada5af8e6e7a4c5407b7ca67d03900b31" target="_top" xlink:title="ZendDbSchema_Db_Schema_AbstractSchema\\toSql">
<polygon fill="white" stroke="black" points="281,-197.5 281,-218.5 531,-218.5 531,-197.5 281,-197.5"/>
<text text-anchor="middle" x="406" y="-205.5" font-family="Helvetica,sans-Serif" font-size="10.00">ZendDbSchema_Db_Schema_AbstractSchema\toSql</text>
</a>
</g>
<!-- Node1&#45;&gt;Node10 -->
<g id="edge20" class="edge"><title>Node1&#45;&gt;Node10</title>
<path fill="none" stroke="midnightblue" d="M238.221,-196.308C248.841,-197.048 259.645,-197.801 270.389,-198.55"/>
<polygon fill="midnightblue" stroke="midnightblue" points="270.445,-202.062 280.664,-199.266 270.931,-195.079 270.445,-202.062"/>
</g>
<!-- Node12 -->
<g id="node25" class="node"><title>Node12</title>
<a xlink:href="classZendDbSchema__Db__Schema__AbstractSchema.html#a1680a8fd22360f74d29b641d7257a52f" target="_top" xlink:title="ZendDbSchema_Db_Schema_AbstractSchema\\isExist">
<polygon fill="white" stroke="black" points="590.5,-118.5 590.5,-139.5 847.5,-139.5 847.5,-118.5 590.5,-118.5"/>
<text text-anchor="middle" x="719" y="-126.5" font-family="Helvetica,sans-Serif" font-size="10.00">ZendDbSchema_Db_Schema_AbstractSchema\isExist</text>
</a>
</g>
<!-- Node1&#45;&gt;Node12 -->
<g id="edge34" class="edge"><title>Node1&#45;&gt;Node12</title>
<path fill="none" stroke="midnightblue" d="M238.277,-177.983C322.161,-170.742 437.01,-160.436 538,-150 565.205,-147.189 594.678,-143.881 621.784,-140.733"/>
<polygon fill="midnightblue" stroke="midnightblue" points="622.521,-144.171 632.048,-139.536 621.71,-137.218 622.521,-144.171"/>
</g>
<!-- Node15 -->
<g id="node33" class="node"><title>Node15</title>
<a xlink:href="classZendDbSchema__Db__Schema__AbstractEntity.html#af43e389f058e86574090ef18a335e4ce" target="_top" xlink:title="ZendDbSchema_Db_Schema_AbstractEntity\\_postSave">
<polygon fill="white" stroke="black" points="274.5,-119.5 274.5,-140.5 537.5,-140.5 537.5,-119.5 274.5,-119.5"/>
<text text-anchor="middle" x="406" y="-127.5" font-family="Helvetica,sans-Serif" font-size="10.00">ZendDbSchema_Db_Schema_AbstractEntity\_postSave</text>
</a>
</g>
<!-- Node1&#45;&gt;Node15 -->
<g id="edge36" class="edge"><title>Node1&#45;&gt;Node15</title>
<path fill="none" stroke="midnightblue" d="M167.117,-177.463C197.691,-170.84 238.126,-162.215 274,-155 295.026,-150.771 317.978,-146.355 338.759,-142.431"/>
<polygon fill="midnightblue" stroke="midnightblue" points="339.588,-145.837 348.769,-140.548 338.294,-138.957 339.588,-145.837"/>
</g>
<!-- Node16 -->
<g id="node35" class="node"><title>Node16</title>
<a xlink:href="classZendDbSchema__Db__Schema__AbstractSchema.html#a55787c21deddba427842809d589c2df6" target="_top" xlink:title="ZendDbSchema_Db_Schema_AbstractSchema\\getName">
<polygon fill="white" stroke="black" points="1258.5,-79.5 1258.5,-100.5 1525.5,-100.5 1525.5,-79.5 1258.5,-79.5"/>
<text text-anchor="middle" x="1392" y="-87.5" font-family="Helvetica,sans-Serif" font-size="10.00">ZendDbSchema_Db_Schema_AbstractSchema\getName</text>
</a>
</g>
<!-- Node1&#45;&gt;Node16 -->
<g id="edge38" class="edge"><title>Node1&#45;&gt;Node16</title>
<path fill="none" stroke="midnightblue" d="M134.361,-177.287C161.197,-159.278 219.016,-123.575 274,-110 454.172,-65.516 988.835,-76.3225 1247.98,-84.6443"/>
<polygon fill="midnightblue" stroke="midnightblue" points="1248.11,-88.1502 1258.22,-84.9763 1248.34,-81.1539 1248.11,-88.1502"/>
</g>
<!-- Node17 -->
<g id="node38" class="node"><title>Node17</title>
<a xlink:href="classZendDbSchema__Db__Schema__AbstractEntity.html#abee9675e11d86dace1abed3d94a0fda1" target="_top" xlink:title="ZendDbSchema_Db_Schema_AbstractEntity\\refresh">
<polygon fill="white" stroke="black" points="282.5,-40.5 282.5,-61.5 529.5,-61.5 529.5,-40.5 282.5,-40.5"/>
<text text-anchor="middle" x="406" y="-48.5" font-family="Helvetica,sans-Serif" font-size="10.00">ZendDbSchema_Db_Schema_AbstractEntity\refresh</text>
</a>
</g>
<!-- Node1&#45;&gt;Node17 -->
<g id="edge42" class="edge"><title>Node1&#45;&gt;Node17</title>
<path fill="none" stroke="midnightblue" d="M129.966,-177.36C153.918,-154.775 213.62,-101.988 274,-76 285.495,-71.0523 297.971,-67.0803 310.51,-63.8925"/>
<polygon fill="midnightblue" stroke="midnightblue" points="311.645,-67.2203 320.563,-61.5003 310.024,-60.4104 311.645,-67.2203"/>
</g>
<!-- Node3 -->
<g id="node5" class="node"><title>Node3</title>
<a xlink:href="classZendDbSchema__Db__Schema__AbstractSchema.html#a46da7a60c7e5fd605607afbc1dac4baa" target="_top" xlink:title="ZendDbSchema_Db_Schema_AbstractSchema\\getCleanSchema">
<polygon fill="white" stroke="black" points="900,-160.5 900,-181.5 1202,-181.5 1202,-160.5 900,-160.5"/>
<text text-anchor="middle" x="1051" y="-168.5" font-family="Helvetica,sans-Serif" font-size="10.00">ZendDbSchema_Db_Schema_AbstractSchema\getCleanSchema</text>
</a>
</g>
<!-- Node2&#45;&gt;Node3 -->
<g id="edge4" class="edge"><title>Node2&#45;&gt;Node3</title>
<path fill="none" stroke="midnightblue" d="M838.173,-278.451C847.098,-275.889 855.807,-272.776 864,-269 883.442,-260.04 881.97,-248.54 900,-237 934.681,-214.802 978.093,-196.703 1009.46,-185.11"/>
<polygon fill="midnightblue" stroke="midnightblue" points="1010.99,-188.279 1019.19,-181.578 1008.6,-181.699 1010.99,-188.279"/>
</g>
<!-- Node5 -->
<g id="node9" class="node"><title>Node5</title>
<a xlink:href="classZendDbSchema__Db__Schema__AbstractSchema.html#ac4e121ba7932163eb1950fabe06fb9db" target="_top" xlink:title="ZendDbSchema_Db_Schema_AbstractSchema\\__isset">
<polygon fill="white" stroke="black" points="1870.5,-258.5 1870.5,-279.5 2129.5,-279.5 2129.5,-258.5 1870.5,-258.5"/>
<text text-anchor="middle" x="2000" y="-266.5" font-family="Helvetica,sans-Serif" font-size="10.00">ZendDbSchema_Db_Schema_AbstractSchema\__isset</text>
</a>
</g>
<!-- Node2&#45;&gt;Node5 -->
<g id="edge8" class="edge"><title>Node2&#45;&gt;Node5</title>
<path fill="none" stroke="midnightblue" d="M847.101,-287C1088.66,-283.229 1609.64,-275.095 1860.04,-271.185"/>
<polygon fill="midnightblue" stroke="midnightblue" points="1860.35,-274.681 1870.29,-271.025 1860.24,-267.682 1860.35,-274.681"/>
</g>
<!-- Node6 -->
<g id="node11" class="node"><title>Node6</title>
<a xlink:href="classZendDbSchema__Db__Schema__AbstractSchema.html#a54d32c6f15463eaad2321a9f0e7225d7" target="_top" xlink:title="ZendDbSchema_Db_Schema_AbstractSchema\\__get">
<polygon fill="white" stroke="black" points="1582.5,-239.5 1582.5,-260.5 1833.5,-260.5 1833.5,-239.5 1582.5,-239.5"/>
<text text-anchor="middle" x="1708" y="-247.5" font-family="Helvetica,sans-Serif" font-size="10.00">ZendDbSchema_Db_Schema_AbstractSchema\__get</text>
</a>
</g>
<!-- Node2&#45;&gt;Node6 -->
<g id="edge10" class="edge"><title>Node2&#45;&gt;Node6</title>
<path fill="none" stroke="midnightblue" d="M845.046,-278.498C863.47,-277.182 882.219,-275.962 900,-275 1136.03,-262.227 1411.23,-255.44 1571.89,-252.291"/>
<polygon fill="midnightblue" stroke="midnightblue" points="1572.38,-255.782 1582.31,-252.089 1572.24,-248.784 1572.38,-255.782"/>
</g>
<!-- Node4 -->
<g id="node7" class="node"><title>Node4</title>
<a xlink:href="classZendDbSchema__Db__Schema__AbstractSchema.html#af99e5bb9adfe0da8c94d3d3848efe7b5" target="_top" xlink:title="ZendDbSchema_Db_Schema_AbstractSchema\\_getCleanSchema">
<polygon fill="white" stroke="black" points="1238,-160.5 1238,-181.5 1546,-181.5 1546,-160.5 1238,-160.5"/>
<text text-anchor="middle" x="1392" y="-168.5" font-family="Helvetica,sans-Serif" font-size="10.00">ZendDbSchema_Db_Schema_AbstractSchema\_getCleanSchema</text>
</a>
</g>
<!-- Node3&#45;&gt;Node4 -->
<g id="edge6" class="edge"><title>Node3&#45;&gt;Node4</title>
<path fill="none" stroke="midnightblue" d="M1202.06,-171C1210.57,-171 1219.15,-171 1227.71,-171"/>
<polygon fill="midnightblue" stroke="midnightblue" points="1227.74,-174.5 1237.74,-171 1227.74,-167.5 1227.74,-174.5"/>
</g>
<!-- Node6&#45;&gt;Node5 -->
<g id="edge12" class="edge"><title>Node6&#45;&gt;Node5</title>
<path fill="none" stroke="midnightblue" d="M1833.53,-258.168C1842.4,-258.745 1851.38,-259.329 1860.32,-259.911"/>
<polygon fill="midnightblue" stroke="midnightblue" points="1860.19,-263.41 1870.4,-260.567 1860.65,-256.425 1860.19,-263.41"/>
</g>
<!-- Node9 -->
<g id="node18" class="node"><title>Node9</title>
<a xlink:href="classZendDbSchema__Db__Schema__AbstractEntity.html#ad6dfc39cc6d92633fd92170db18c9573" target="_top" xlink:title="ZendDbSchema_Db_Schema_AbstractEntity\\getAdapter">
<polygon fill="white" stroke="black" points="587,-318.5 587,-339.5 851,-339.5 851,-318.5 587,-318.5"/>
<text text-anchor="middle" x="719" y="-326.5" font-family="Helvetica,sans-Serif" font-size="10.00">ZendDbSchema_Db_Schema_AbstractEntity\getAdapter</text>
</a>
</g>
<!-- Node8&#45;&gt;Node9 -->
<g id="edge18" class="edge"><title>Node8&#45;&gt;Node9</title>
<path fill="none" stroke="midnightblue" d="M525.225,-328.381C542.049,-328.435 559.484,-328.49 576.689,-328.545"/>
<polygon fill="midnightblue" stroke="midnightblue" points="576.774,-332.046 586.785,-328.578 576.797,-325.046 576.774,-332.046"/>
</g>
<!-- Node10&#45;&gt;Node2 -->
<g id="edge24" class="edge"><title>Node10&#45;&gt;Node2</title>
<path fill="none" stroke="midnightblue" d="M499.975,-218.57C513.183,-222.101 526.246,-226.787 538,-233 558.004,-243.575 553.737,-258.93 574,-269 578.576,-271.274 583.328,-273.315 588.2,-275.144"/>
<polygon fill="midnightblue" stroke="midnightblue" points="587.108,-278.469 597.702,-278.407 589.381,-271.849 587.108,-278.469"/>
</g>
<!-- Node11 -->
<g id="node22" class="node"><title>Node11</title>
<a xlink:href="classZendDbSchema__Db__Schema__AbstractSchema.html#aabe6ffa040ca4515338bed29f72c047f" target="_top" xlink:title="ZendDbSchema_Db_Schema_AbstractSchema\\isValid">
<polygon fill="white" stroke="black" points="590.5,-158.5 590.5,-179.5 847.5,-179.5 847.5,-158.5 590.5,-158.5"/>
<text text-anchor="middle" x="719" y="-166.5" font-family="Helvetica,sans-Serif" font-size="10.00">ZendDbSchema_Db_Schema_AbstractSchema\isValid</text>
</a>
</g>
<!-- Node10&#45;&gt;Node11 -->
<g id="edge22" class="edge"><title>Node10&#45;&gt;Node11</title>
<path fill="none" stroke="midnightblue" d="M490.29,-197.497C531.694,-192.338 581.735,-186.103 624.439,-180.782"/>
<polygon fill="midnightblue" stroke="midnightblue" points="625.069,-184.231 634.559,-179.521 624.203,-177.285 625.069,-184.231"/>
</g>
<!-- Node10&#45;&gt;Node12 -->
<g id="edge26" class="edge"><title>Node10&#45;&gt;Node12</title>
<path fill="none" stroke="midnightblue" d="M498.424,-197.487C512.125,-193.958 525.743,-189.257 538,-183 557.601,-172.994 554.154,-158.512 574,-149 578.748,-146.724 583.677,-144.686 588.727,-142.862"/>
<polygon fill="midnightblue" stroke="midnightblue" points="590.173,-146.07 598.571,-139.61 587.978,-139.423 590.173,-146.07"/>
</g>
<!-- Node13 -->
<g id="node28" class="node"><title>Node13</title>
<a xlink:href="classZendDbSchema__Db__Schema__AbstractSchema.html#a2b880c7261b3f4b988f1a2b74e188c75" target="_top" xlink:title="ZendDbSchema_Db_Schema_AbstractSchema\\_getAlterSql">
<polygon fill="white" stroke="black" points="578.5,-238.5 578.5,-259.5 859.5,-259.5 859.5,-238.5 578.5,-238.5"/>
<text text-anchor="middle" x="719" y="-246.5" font-family="Helvetica,sans-Serif" font-size="10.00">ZendDbSchema_Db_Schema_AbstractSchema\_getAlterSql</text>
</a>
</g>
<!-- Node10&#45;&gt;Node13 -->
<g id="edge30" class="edge"><title>Node10&#45;&gt;Node13</title>
<path fill="none" stroke="midnightblue" d="M486.199,-218.505C529.728,-224.207 583.685,-231.275 628.689,-237.17"/>
<polygon fill="midnightblue" stroke="midnightblue" points="628.368,-240.658 638.738,-238.486 629.277,-233.717 628.368,-240.658"/>
</g>
<!-- Node14 -->
<g id="node30" class="node"><title>Node14</title>
<a xlink:href="classZendDbSchema__Db__Schema__AbstractSchema.html#a52321b7526257809f382a28a96ab562e" target="_top" xlink:title="ZendDbSchema_Db_Schema_AbstractSchema\\_getCreateSql">
<polygon fill="white" stroke="black" points="574,-198.5 574,-219.5 864,-219.5 864,-198.5 574,-198.5"/>
<text text-anchor="middle" x="719" y="-206.5" font-family="Helvetica,sans-Serif" font-size="10.00">ZendDbSchema_Db_Schema_AbstractSchema\_getCreateSql</text>
</a>
</g>
<!-- Node10&#45;&gt;Node14 -->
<g id="edge32" class="edge"><title>Node10&#45;&gt;Node14</title>
<path fill="none" stroke="midnightblue" d="M531.055,-208.4C541.811,-208.434 552.773,-208.469 563.727,-208.504"/>
<polygon fill="midnightblue" stroke="midnightblue" points="563.767,-212.004 573.779,-208.536 563.79,-205.004 563.767,-212.004"/>
</g>
<!-- Node12&#45;&gt;Node3 -->
<g id="edge28" class="edge"><title>Node12&#45;&gt;Node3</title>
<path fill="none" stroke="midnightblue" d="M802.349,-139.544C849.7,-145.534 909.096,-153.048 957.962,-159.23"/>
<polygon fill="midnightblue" stroke="midnightblue" points="957.544,-162.705 967.905,-160.488 958.423,-155.76 957.544,-162.705"/>
</g>
<!-- Node16&#45;&gt;Node6 -->
<g id="edge40" class="edge"><title>Node16&#45;&gt;Node6</title>
<path fill="none" stroke="midnightblue" d="M1423.06,-100.53C1454.65,-111.647 1504.7,-130.392 1546,-151 1597,-176.45 1653.02,-212.691 1684.01,-233.532"/>
<polygon fill="midnightblue" stroke="midnightblue" points="1682.18,-236.521 1692.42,-239.228 1686.1,-230.724 1682.18,-236.521"/>
</g>
<!-- Node18 -->
<g id="node40" class="node"><title>Node18</title>
<a xlink:href="classZendDbSchema__Db__Schema__AbstractEntity.html#aa35a80275bd3c811dd8ad39835a985a9" target="_top" xlink:title="ZendDbSchema_Db_Schema_AbstractEntity\\reload">
<polygon fill="white" stroke="black" points="597.5,-40.5 597.5,-61.5 840.5,-61.5 840.5,-40.5 597.5,-40.5"/>
<text text-anchor="middle" x="719" y="-48.5" font-family="Helvetica,sans-Serif" font-size="10.00">ZendDbSchema_Db_Schema_AbstractEntity\reload</text>
</a>
</g>
<!-- Node17&#45;&gt;Node18 -->
<g id="edge44" class="edge"><title>Node17&#45;&gt;Node18</title>
<path fill="none" stroke="midnightblue" d="M529.706,-51C548.608,-51 568.179,-51 587.246,-51"/>
<polygon fill="midnightblue" stroke="midnightblue" points="587.472,-54.5001 597.472,-51 587.471,-47.5001 587.472,-54.5001"/>
</g>
<!-- Node19 -->
<g id="node42" class="node"><title>Node19</title>
<a xlink:href="classZendDbSchema__Db__Schema__AbstractSchema.html#adacb1417b461310c5c87f72c459c1985" target="_top" xlink:title="ZendDbSchema_Db_Schema_AbstractSchema\\getOriginName">
<polygon fill="white" stroke="black" points="904.5,-40.5 904.5,-61.5 1197.5,-61.5 1197.5,-40.5 904.5,-40.5"/>
<text text-anchor="middle" x="1051" y="-48.5" font-family="Helvetica,sans-Serif" font-size="10.00">ZendDbSchema_Db_Schema_AbstractSchema\getOriginName</text>
</a>
</g>
<!-- Node18&#45;&gt;Node19 -->
<g id="edge46" class="edge"><title>Node18&#45;&gt;Node19</title>
<path fill="none" stroke="midnightblue" d="M840.739,-51C858.228,-51 876.423,-51 894.469,-51"/>
<polygon fill="midnightblue" stroke="midnightblue" points="894.474,-54.5001 904.474,-51 894.474,-47.5001 894.474,-54.5001"/>
</g>
<!-- Node20 -->
<g id="node45" class="node"><title>Node20</title>
<a xlink:href="classZendDbSchema__Db__Schema__AbstractEntity.html#ab317ba1e66cc14d78922314962f7d0ff" target="_top" xlink:title="ZendDbSchema_Db_Schema_AbstractEntity\\_doReload">
<polygon fill="white" stroke="black" points="919.5,-0.5 919.5,-21.5 1182.5,-21.5 1182.5,-0.5 919.5,-0.5"/>
<text text-anchor="middle" x="1051" y="-8.5" font-family="Helvetica,sans-Serif" font-size="10.00">ZendDbSchema_Db_Schema_AbstractEntity\_doReload</text>
</a>
</g>
<!-- Node18&#45;&gt;Node20 -->
<g id="edge50" class="edge"><title>Node18&#45;&gt;Node20</title>
<path fill="none" stroke="midnightblue" d="M806.229,-40.4905C851.513,-35.0346 906.978,-28.3521 953.653,-22.7286"/>
<polygon fill="midnightblue" stroke="midnightblue" points="954.268,-26.1798 963.778,-21.5087 953.431,-19.2301 954.268,-26.1798"/>
</g>
<!-- Node19&#45;&gt;Node16 -->
<g id="edge48" class="edge"><title>Node19&#45;&gt;Node16</title>
<path fill="none" stroke="midnightblue" d="M1142.83,-61.5026C1188.22,-66.6942 1243.15,-72.9756 1289.86,-78.3185"/>
<polygon fill="midnightblue" stroke="midnightblue" points="1289.67,-81.8196 1300.01,-79.4787 1290.47,-74.865 1289.67,-81.8196"/>
</g>
</g>
</svg>
