<?xml version="1.0" encoding="UTF-8" standalone="no"?>
<!DOCTYPE svg PUBLIC "-//W3C//DTD SVG 1.1//EN"
 "http://www.w3.org/Graphics/SVG/1.1/DTD/svg11.dtd">
<!-- Generated by graphviz version 2.26.3 (20100126.1600)
 -->
<!-- Title: G Pages: 1 -->
<svg width="816pt" height="30pt"
 viewBox="0.00 0.00 816.00 30.00" xmlns="http://www.w3.org/2000/svg" xmlns:xlink="http://www.w3.org/1999/xlink">
<g id="graph1" class="graph" transform="scale(1 1) rotate(0) translate(4 26)">
<title>G</title>
<polygon fill="white" stroke="white" points="-4,5 -4,-26 813,-26 813,5 -4,5"/>
<!-- Node1 -->
<g id="node1" class="node"><title>Node1</title>
<polygon fill="#bfbfbf" stroke="black" points="0.5,-0.5 0.5,-21.5 245.5,-21.5 245.5,-0.5 0.5,-0.5"/>
<text text-anchor="middle" x="123" y="-8.5" font-family="Helvetica,sans-Serif" font-size="10.00">ZendDbSchema_Db_Migration_Manager\addChange</text>
</g>
<!-- Node2 -->
<g id="node3" class="node"><title>Node2</title>
<a xlink:href="classZendDbSchema__Db__Migration__Change.html#abd5253380521e63e91099a6ab3b89387" target="_top" xlink:title="ZendDbSchema_Db_Migration_Change\\fromFile">
<polygon fill="white" stroke="black" points="282.5,-0.5 282.5,-21.5 509.5,-21.5 509.5,-0.5 282.5,-0.5"/>
<text text-anchor="middle" x="396" y="-8.5" font-family="Helvetica,sans-Serif" font-size="10.00">ZendDbSchema_Db_Migration_Change\fromFile</text>
</a>
</g>
<!-- Node1&#45;&gt;Node2 -->
<g id="edge2" class="edge"><title>Node1&#45;&gt;Node2</title>
<path fill="none" stroke="midnightblue" d="M245.525,-11C254.287,-11 263.126,-11 271.897,-11"/>
<polygon fill="midnightblue" stroke="midnightblue" points="272.152,-14.5001 282.152,-11 272.152,-7.5001 272.152,-14.5001"/>
</g>
<!-- Node3 -->
<g id="node5" class="node"><title>Node3</title>
<a xlink:href="classZendDbSchema__Db__Migration__Skeleton.html#a5846d949a449ef981b1c1e1be9eed03a" target="_top" xlink:title="ZendDbSchema_Db_Migration_Skeleton\\getClassName">
<polygon fill="white" stroke="black" points="546,-0.5 546,-21.5 808,-21.5 808,-0.5 546,-0.5"/>
<text text-anchor="middle" x="677" y="-8.5" font-family="Helvetica,sans-Serif" font-size="10.00">ZendDbSchema_Db_Migration_Skeleton\getClassName</text>
</a>
</g>
<!-- Node2&#45;&gt;Node3 -->
<g id="edge4" class="edge"><title>Node2&#45;&gt;Node3</title>
<path fill="none" stroke="midnightblue" d="M509.888,-11C518.417,-11 527.082,-11 535.751,-11"/>
<polygon fill="midnightblue" stroke="midnightblue" points="535.921,-14.5001 545.921,-11 535.921,-7.5001 535.921,-14.5001"/>
</g>
</g>
</svg>
