<?xml version="1.0" encoding="UTF-8" standalone="no"?>
<!DOCTYPE svg PUBLIC "-//W3C//DTD SVG 1.1//EN"
 "http://www.w3.org/Graphics/SVG/1.1/DTD/svg11.dtd">
<!-- Generated by graphviz version 2.26.3 (20100126.1600)
 -->
<!-- Title: G Pages: 1 -->
<svg width="590pt" height="150pt"
 viewBox="0.00 0.00 590.00 150.00" xmlns="http://www.w3.org/2000/svg" xmlns:xlink="http://www.w3.org/1999/xlink">
<g id="graph1" class="graph" transform="scale(1 1) rotate(0) translate(4 146)">
<title>G</title>
<polygon fill="white" stroke="white" points="-4,5 -4,-146 587,-146 587,5 -4,5"/>
<!-- Node1 -->
<g id="node1" class="node"><title>Node1</title>
<polygon fill="#bfbfbf" stroke="black" points="0,-60.5 0,-81.5 254,-81.5 254,-60.5 0,-60.5"/>
<text text-anchor="middle" x="127" y="-68.5" font-family="Helvetica,sans-Serif" font-size="10.00">ZendDbSchema_Tool_Project_Provider_Schema\push</text>
</g>
<!-- Node2 -->
<g id="node3" class="node"><title>Node2</title>
<a xlink:href="classZendDbSchema__Tool__Project__Provider__Schema.html#a4bfcbf170571b61e24662b9d8bb8c95c" target="_top" xlink:title="ZendDbSchema_Tool_Project_Provider_Schema\\_bootstrap">
<polygon fill="white" stroke="black" points="297,-120.5 297,-141.5 575,-141.5 575,-120.5 297,-120.5"/>
<text text-anchor="middle" x="436" y="-128.5" font-family="Helvetica,sans-Serif" font-size="10.00">ZendDbSchema_Tool_Project_Provider_Schema\_bootstrap</text>
</a>
</g>
<!-- Node1&#45;&gt;Node2 -->
<g id="edge2" class="edge"><title>Node1&#45;&gt;Node2</title>
<path fill="none" stroke="midnightblue" d="M164.957,-81.5088C197.836,-90.324 246.78,-102.76 290,-111 305.505,-113.956 322.016,-116.649 338.148,-119.034"/>
<polygon fill="midnightblue" stroke="midnightblue" points="337.733,-122.51 348.131,-120.478 338.736,-115.582 337.733,-122.51"/>
</g>
<!-- Node3 -->
<g id="node5" class="node"><title>Node3</title>
<a xlink:href="classZendDbSchema__Tool__Project__Provider__Schema.html#ae00f032a9818a3227d29bde827856256" target="_top" xlink:title="ZendDbSchema_Tool_Project_Provider_Schema\\_getSchema">
<polygon fill="white" stroke="black" points="292.5,-80.5 292.5,-101.5 579.5,-101.5 579.5,-80.5 292.5,-80.5"/>
<text text-anchor="middle" x="436" y="-88.5" font-family="Helvetica,sans-Serif" font-size="10.00">ZendDbSchema_Tool_Project_Provider_Schema\_getSchema</text>
</a>
</g>
<!-- Node1&#45;&gt;Node3 -->
<g id="edge4" class="edge"><title>Node1&#45;&gt;Node3</title>
<path fill="none" stroke="midnightblue" d="M254.02,-79.2213C263.31,-79.8227 272.738,-80.4329 282.162,-81.0428"/>
<polygon fill="midnightblue" stroke="midnightblue" points="282.175,-84.5509 292.38,-81.7042 282.627,-77.5655 282.175,-84.5509"/>
</g>
<!-- Node4 -->
<g id="node7" class="node"><title>Node4</title>
<a xlink:href="classZendDbSchema__Tool__Project__Provider__Schema.html#a7ec839cde120f748f3b0d6f24fa56d34" target="_top" xlink:title="ZendDbSchema_Tool_Project_Provider_Schema\\_getFilename">
<polygon fill="white" stroke="black" points="290.5,-40.5 290.5,-61.5 581.5,-61.5 581.5,-40.5 290.5,-40.5"/>
<text text-anchor="middle" x="436" y="-48.5" font-family="Helvetica,sans-Serif" font-size="10.00">ZendDbSchema_Tool_Project_Provider_Schema\_getFilename</text>
</a>
</g>
<!-- Node1&#45;&gt;Node4 -->
<g id="edge6" class="edge"><title>Node1&#45;&gt;Node4</title>
<path fill="none" stroke="midnightblue" d="M254.02,-62.7787C262.634,-62.2211 271.366,-61.6559 280.104,-61.0904"/>
<polygon fill="midnightblue" stroke="midnightblue" points="280.604,-64.5654 290.357,-60.4267 280.152,-57.58 280.604,-64.5654"/>
</g>
<!-- Node5 -->
<g id="node9" class="node"><title>Node5</title>
<a xlink:href="classZendDbSchema__Tool__Project__Provider__Schema.html#a4bab978eff99970636ddf863266e9d96" target="_top" xlink:title="ZendDbSchema_Tool_Project_Provider_Schema\\_findfile">
<polygon fill="white" stroke="black" points="303,-0.5 303,-21.5 569,-21.5 569,-0.5 303,-0.5"/>
<text text-anchor="middle" x="436" y="-8.5" font-family="Helvetica,sans-Serif" font-size="10.00">ZendDbSchema_Tool_Project_Provider_Schema\_findfile</text>
</a>
</g>
<!-- Node1&#45;&gt;Node5 -->
<g id="edge8" class="edge"><title>Node1&#45;&gt;Node5</title>
<path fill="none" stroke="midnightblue" d="M164.957,-60.4912C197.836,-51.676 246.78,-39.24 290,-31 305.505,-28.044 322.016,-25.3511 338.148,-22.9663"/>
<polygon fill="midnightblue" stroke="midnightblue" points="338.736,-26.4179 348.131,-21.5217 337.733,-19.49 338.736,-26.4179"/>
</g>
</g>
</svg>
