<?xml version="1.0" encoding="UTF-8" standalone="no"?>
<!DOCTYPE svg PUBLIC "-//W3C//DTD SVG 1.1//EN"
 "http://www.w3.org/Graphics/SVG/1.1/DTD/svg11.dtd">
<!-- Generated by graphviz version 2.26.3 (20100126.1600)
 -->
<!-- Title: G Pages: 1 -->
<svg width="1972pt" height="390pt"
 viewBox="0.00 0.00 1972.00 390.00" xmlns="http://www.w3.org/2000/svg" xmlns:xlink="http://www.w3.org/1999/xlink">
<g id="graph1" class="graph" transform="scale(1 1) rotate(0) translate(4 386)">
<title>G</title>
<polygon fill="white" stroke="white" points="-4,5 -4,-386 1969,-386 1969,5 -4,5"/>
<!-- Node1 -->
<g id="node1" class="node"><title>Node1</title>
<polygon fill="#bfbfbf" stroke="black" points="0.5,-200.5 0.5,-221.5 293.5,-221.5 293.5,-200.5 0.5,-200.5"/>
<text text-anchor="middle" x="147" y="-208.5" font-family="Helvetica,sans-Serif" font-size="10.00">ZendDbSchema_Db_Schema_AbstractSchema\getOriginName</text>
</g>
<!-- Node2 -->
<g id="node3" class="node"><title>Node2</title>
<a xlink:href="classZendDbSchema__Db__Schema__Database.html#aad388b374fd5913946204230760b2d86" target="_top" xlink:title="ZendDbSchema_Db_Schema_Database\\_doReload">
<polygon fill="white" stroke="black" points="387.5,-360.5 387.5,-381.5 630.5,-381.5 630.5,-360.5 387.5,-360.5"/>
<text text-anchor="middle" x="509" y="-368.5" font-family="Helvetica,sans-Serif" font-size="10.00">ZendDbSchema_Db_Schema_Database\_doReload</text>
</a>
</g>
<!-- Node1&#45;&gt;Node2 -->
<g id="edge2" class="edge"><title>Node1&#45;&gt;Node2</title>
<path fill="none" stroke="midnightblue" d="M164.018,-229.359C194.108,-260.476 260.154,-322.927 330,-351 347.989,-358.23 367.763,-363.131 387.404,-366.407"/>
<polygon fill="midnightblue" stroke="midnightblue" points="166.266,-226.644 156.836,-221.814 161.196,-231.47 166.266,-226.644"/>
</g>
<!-- Node3 -->
<g id="node5" class="node"><title>Node3</title>
<a xlink:href="classZendDbSchema__Db__Schema__Table.html#abc05b1f219611fefdd0e9eaeff1761d9" target="_top" xlink:title="ZendDbSchema_Db_Schema_Table\\_doReload">
<polygon fill="white" stroke="black" points="396.5,-320.5 396.5,-341.5 621.5,-341.5 621.5,-320.5 396.5,-320.5"/>
<text text-anchor="middle" x="509" y="-328.5" font-family="Helvetica,sans-Serif" font-size="10.00">ZendDbSchema_Db_Schema_Table\_doReload</text>
</a>
</g>
<!-- Node1&#45;&gt;Node3 -->
<g id="edge4" class="edge"><title>Node1&#45;&gt;Node3</title>
<path fill="none" stroke="midnightblue" d="M170.361,-227.698C203.901,-250.724 268.459,-291.579 330,-311 351.023,-317.635 374.043,-322.132 396.364,-325.166"/>
<polygon fill="midnightblue" stroke="midnightblue" points="171.959,-224.546 161.751,-221.708 167.962,-230.292 171.959,-224.546"/>
</g>
<!-- Node4 -->
<g id="node7" class="node"><title>Node4</title>
<a xlink:href="classZendDbSchema__Db__Schema__Table__AbstractDefinition.html#a355febe0ff6ed1a3b95ae1edd91b807e" target="_top" xlink:title="ZendDbSchema_Db_Schema_Table_AbstractDefinition\\_getCleanSchema">
<polygon fill="white" stroke="black" points="338,-280.5 338,-301.5 680,-301.5 680,-280.5 338,-280.5"/>
<text text-anchor="middle" x="509" y="-288.5" font-family="Helvetica,sans-Serif" font-size="10.00">ZendDbSchema_Db_Schema_Table_AbstractDefinition\_getCleanSchema</text>
</a>
</g>
<!-- Node1&#45;&gt;Node4 -->
<g id="edge6" class="edge"><title>Node1&#45;&gt;Node4</title>
<path fill="none" stroke="midnightblue" d="M183.189,-225.319C219.672,-239.168 277.887,-259.672 330,-271 347.57,-274.819 366.277,-277.932 384.725,-280.463"/>
<polygon fill="midnightblue" stroke="midnightblue" points="184.088,-221.916 173.498,-221.603 181.582,-228.452 184.088,-221.916"/>
</g>
<!-- Node5 -->
<g id="node9" class="node"><title>Node5</title>
<a xlink:href="classZendDbSchema__Db__Schema__Table__DefinitionManager__AbstractManager.html#a6d815884ca03c003ac7f8d633e97f7c6" target="_top" xlink:title="ZendDbSchema_Db_Schema_Table_DefinitionManager_AbstractManager\\add">
<polygon fill="white" stroke="black" points="330,-240.5 330,-261.5 688,-261.5 688,-240.5 330,-240.5"/>
<text text-anchor="middle" x="509" y="-248.5" font-family="Helvetica,sans-Serif" font-size="10.00">ZendDbSchema_Db_Schema_Table_DefinitionManager_AbstractManager\add</text>
</a>
</g>
<!-- Node1&#45;&gt;Node5 -->
<g id="edge8" class="edge"><title>Node1&#45;&gt;Node5</title>
<path fill="none" stroke="midnightblue" d="M252.192,-222.623C303.284,-228.269 364.211,-235.001 413.896,-240.491"/>
<polygon fill="midnightblue" stroke="midnightblue" points="252.435,-219.129 242.111,-221.51 251.666,-226.087 252.435,-219.129"/>
</g>
<!-- Node9 -->
<g id="node17" class="node"><title>Node9</title>
<a xlink:href="classZendDbSchema__Db__Schema__Generator__Mysql.html#a4b0c6d7fbd4d21f027facb6e495d1f6b" target="_top" xlink:title="ZendDbSchema_Db_Schema_Generator_Mysql\\addForeignKey">
<polygon fill="white" stroke="black" points="362,-200.5 362,-221.5 656,-221.5 656,-200.5 362,-200.5"/>
<text text-anchor="middle" x="509" y="-208.5" font-family="Helvetica,sans-Serif" font-size="10.00">ZendDbSchema_Db_Schema_Generator_Mysql\addForeignKey</text>
</a>
</g>
<!-- Node1&#45;&gt;Node9 -->
<g id="edge16" class="edge"><title>Node1&#45;&gt;Node9</title>
<path fill="none" stroke="midnightblue" d="M303.754,-211C323.021,-211 342.661,-211 361.78,-211"/>
<polygon fill="midnightblue" stroke="midnightblue" points="303.717,-207.5 293.717,-211 303.717,-214.5 303.717,-207.5"/>
</g>
<!-- Node11 -->
<g id="node21" class="node"><title>Node11</title>
<a xlink:href="classZendDbSchema__Db__Schema__Generator__Mysql.html#a57a5e637e2c19faee40597d96d6b71b3" target="_top" xlink:title="ZendDbSchema_Db_Schema_Generator_Mysql\\alterColumn">
<polygon fill="white" stroke="black" points="368.5,-160.5 368.5,-181.5 649.5,-181.5 649.5,-160.5 368.5,-160.5"/>
<text text-anchor="middle" x="509" y="-168.5" font-family="Helvetica,sans-Serif" font-size="10.00">ZendDbSchema_Db_Schema_Generator_Mysql\alterColumn</text>
</a>
</g>
<!-- Node1&#45;&gt;Node11 -->
<g id="edge20" class="edge"><title>Node1&#45;&gt;Node11</title>
<path fill="none" stroke="midnightblue" d="M252.192,-199.377C303.284,-193.731 364.211,-186.999 413.896,-181.509"/>
<polygon fill="midnightblue" stroke="midnightblue" points="251.666,-195.913 242.111,-200.49 252.435,-202.871 251.666,-195.913"/>
</g>
<!-- Node12 -->
<g id="node23" class="node"><title>Node12</title>
<a xlink:href="classZendDbSchema__Db__Schema__Generator__Mysql.html#aebe278ab07f38d58f8f440f9cad01565" target="_top" xlink:title="ZendDbSchema_Db_Schema_Generator_Mysql\\alterTable">
<polygon fill="white" stroke="black" points="373,-120.5 373,-141.5 645,-141.5 645,-120.5 373,-120.5"/>
<text text-anchor="middle" x="509" y="-128.5" font-family="Helvetica,sans-Serif" font-size="10.00">ZendDbSchema_Db_Schema_Generator_Mysql\alterTable</text>
</a>
</g>
<!-- Node1&#45;&gt;Node12 -->
<g id="edge22" class="edge"><title>Node1&#45;&gt;Node12</title>
<path fill="none" stroke="midnightblue" d="M183.189,-196.681C219.672,-182.832 277.887,-162.328 330,-151 347.57,-147.181 366.277,-144.068 384.725,-141.537"/>
<polygon fill="midnightblue" stroke="midnightblue" points="181.582,-193.548 173.498,-200.397 184.088,-200.084 181.582,-193.548"/>
</g>
<!-- Node13 -->
<g id="node25" class="node"><title>Node13</title>
<a xlink:href="classZendDbSchema__Db__Schema__Generator__Mysql.html#afa7990c889464576d30d4a110e9b0fac" target="_top" xlink:title="ZendDbSchema_Db_Schema_Generator_Mysql\\dropForeignKey">
<polygon fill="white" stroke="black" points="360.5,-80.5 360.5,-101.5 657.5,-101.5 657.5,-80.5 360.5,-80.5"/>
<text text-anchor="middle" x="509" y="-88.5" font-family="Helvetica,sans-Serif" font-size="10.00">ZendDbSchema_Db_Schema_Generator_Mysql\dropForeignKey</text>
</a>
</g>
<!-- Node1&#45;&gt;Node13 -->
<g id="edge24" class="edge"><title>Node1&#45;&gt;Node13</title>
<path fill="none" stroke="midnightblue" d="M170.361,-194.302C203.901,-171.276 268.459,-130.421 330,-111 342.077,-107.189 354.813,-104.083 367.697,-101.554"/>
<polygon fill="midnightblue" stroke="midnightblue" points="167.962,-191.708 161.751,-200.292 171.959,-197.454 167.962,-191.708"/>
</g>
<!-- Node14 -->
<g id="node28" class="node"><title>Node14</title>
<a xlink:href="classZendDbSchema__Db__Schema__AbstractEntity.html#aa35a80275bd3c811dd8ad39835a985a9" target="_top" xlink:title="ZendDbSchema_Db_Schema_AbstractEntity\\reload">
<polygon fill="white" stroke="black" points="387.5,-40.5 387.5,-61.5 630.5,-61.5 630.5,-40.5 387.5,-40.5"/>
<text text-anchor="middle" x="509" y="-48.5" font-family="Helvetica,sans-Serif" font-size="10.00">ZendDbSchema_Db_Schema_AbstractEntity\reload</text>
</a>
</g>
<!-- Node1&#45;&gt;Node14 -->
<g id="edge28" class="edge"><title>Node1&#45;&gt;Node14</title>
<path fill="none" stroke="midnightblue" d="M164.018,-192.641C194.108,-161.524 260.154,-99.0727 330,-71 347.989,-63.77 367.763,-58.8689 387.404,-55.5928"/>
<polygon fill="midnightblue" stroke="midnightblue" points="161.196,-190.53 156.836,-200.186 166.266,-195.356 161.196,-190.53"/>
</g>
<!-- Node6 -->
<g id="node11" class="node"><title>Node6</title>
<a xlink:href="classZendDbSchema__Db__Schema__Table__DefinitionManager__AbstractManager.html#a40677ee7cb91e19c1587bdda9e73d3d5" target="_top" xlink:title="ZendDbSchema_Db_Schema_Table_DefinitionManager_AbstractManager\\setFromArray">
<polygon fill="white" stroke="black" points="724.5,-240.5 724.5,-261.5 1125.5,-261.5 1125.5,-240.5 724.5,-240.5"/>
<text text-anchor="middle" x="925" y="-248.5" font-family="Helvetica,sans-Serif" font-size="10.00">ZendDbSchema_Db_Schema_Table_DefinitionManager_AbstractManager\setFromArray</text>
</a>
</g>
<!-- Node5&#45;&gt;Node6 -->
<g id="edge10" class="edge"><title>Node5&#45;&gt;Node6</title>
<path fill="none" stroke="midnightblue" d="M698.284,-251C706.948,-251 715.655,-251 724.345,-251"/>
<polygon fill="midnightblue" stroke="midnightblue" points="698.138,-247.5 688.138,-251 698.138,-254.5 698.138,-247.5"/>
</g>
<!-- Node7 -->
<g id="node13" class="node"><title>Node7</title>
<a xlink:href="classZendDbSchema__Db__Schema__Table__DefinitionManager__AbstractManager.html#a7503e344823c2a1e1e3beb80b8541116" target="_top" xlink:title="ZendDbSchema_Db_Schema_Table_DefinitionManager_AbstractManager\\refresh">
<polygon fill="white" stroke="black" points="1162,-240.5 1162,-261.5 1534,-261.5 1534,-240.5 1162,-240.5"/>
<text text-anchor="middle" x="1348" y="-248.5" font-family="Helvetica,sans-Serif" font-size="10.00">ZendDbSchema_Db_Schema_Table_DefinitionManager_AbstractManager\refresh</text>
</a>
</g>
<!-- Node6&#45;&gt;Node7 -->
<g id="edge12" class="edge"><title>Node6&#45;&gt;Node7</title>
<path fill="none" stroke="midnightblue" d="M1135.84,-251C1144.51,-251 1153.19,-251 1161.81,-251"/>
<polygon fill="midnightblue" stroke="midnightblue" points="1135.66,-247.5 1125.66,-251 1135.66,-254.5 1135.66,-247.5"/>
</g>
<!-- Node8 -->
<g id="node15" class="node"><title>Node8</title>
<a xlink:href="classZendDbSchema__Db__Schema__Table__DefinitionManager__AbstractManager.html#a5cf66698784c55ebbd70292e268505af" target="_top" xlink:title="ZendDbSchema_Db_Schema_Table_DefinitionManager_AbstractManager\\__construct">
<polygon fill="white" stroke="black" points="1570.5,-240.5 1570.5,-261.5 1963.5,-261.5 1963.5,-240.5 1570.5,-240.5"/>
<text text-anchor="middle" x="1767" y="-248.5" font-family="Helvetica,sans-Serif" font-size="10.00">ZendDbSchema_Db_Schema_Table_DefinitionManager_AbstractManager\__construct</text>
</a>
</g>
<!-- Node7&#45;&gt;Node8 -->
<g id="edge14" class="edge"><title>Node7&#45;&gt;Node8</title>
<path fill="none" stroke="midnightblue" d="M1544.38,-251C1553.06,-251 1561.76,-251 1570.43,-251"/>
<polygon fill="midnightblue" stroke="midnightblue" points="1544.22,-247.5 1534.22,-251 1544.22,-254.5 1544.22,-247.5"/>
</g>
<!-- Node10 -->
<g id="node19" class="node"><title>Node10</title>
<a xlink:href="classZendDbSchema__Db__Schema__Generator__Mysql.html#a16b347a1c95888775b09d14505bae2b2" target="_top" xlink:title="ZendDbSchema_Db_Schema_Generator_Mysql\\alterForeignKey">
<polygon fill="white" stroke="black" points="776.5,-160.5 776.5,-181.5 1073.5,-181.5 1073.5,-160.5 776.5,-160.5"/>
<text text-anchor="middle" x="925" y="-168.5" font-family="Helvetica,sans-Serif" font-size="10.00">ZendDbSchema_Db_Schema_Generator_Mysql\alterForeignKey</text>
</a>
</g>
<!-- Node9&#45;&gt;Node10 -->
<g id="edge18" class="edge"><title>Node9&#45;&gt;Node10</title>
<path fill="none" stroke="midnightblue" d="M628.418,-199.517C687.429,-193.843 758.137,-187.045 815.709,-181.509"/>
<polygon fill="midnightblue" stroke="midnightblue" points="627.918,-196.049 618.299,-200.49 628.588,-203.017 627.918,-196.049"/>
</g>
<!-- Node13&#45;&gt;Node10 -->
<g id="edge26" class="edge"><title>Node13&#45;&gt;Node10</title>
<path fill="none" stroke="midnightblue" d="M634.398,-102.806C652.442,-105.144 670.737,-107.866 688,-111 760.456,-124.156 843.56,-147.039 889.598,-160.421"/>
<polygon fill="midnightblue" stroke="midnightblue" points="634.766,-99.3246 624.407,-101.546 633.89,-106.27 634.766,-99.3246"/>
</g>
<!-- Node15 -->
<g id="node30" class="node"><title>Node15</title>
<a xlink:href="classZendDbSchema__Db__Schema__AbstractEntity.html#ad92ca2449257a587b336367f109cdde2" target="_top" xlink:title="ZendDbSchema_Db_Schema_AbstractEntity\\__wakeup">
<polygon fill="white" stroke="black" points="794.5,-60.5 794.5,-81.5 1055.5,-81.5 1055.5,-60.5 794.5,-60.5"/>
<text text-anchor="middle" x="925" y="-68.5" font-family="Helvetica,sans-Serif" font-size="10.00">ZendDbSchema_Db_Schema_AbstractEntity\__wakeup</text>
</a>
</g>
<!-- Node14&#45;&gt;Node15 -->
<g id="edge30" class="edge"><title>Node14&#45;&gt;Node15</title>
<path fill="none" stroke="midnightblue" d="M640.77,-57.3351C689.857,-59.6951 745.518,-62.3711 794.492,-64.7256"/>
<polygon fill="midnightblue" stroke="midnightblue" points="640.879,-53.8364 630.723,-56.8521 640.543,-60.8283 640.879,-53.8364"/>
</g>
<!-- Node16 -->
<g id="node32" class="node"><title>Node16</title>
<a xlink:href="classZendDbSchema__Db__Schema__AbstractEntity.html#abee9675e11d86dace1abed3d94a0fda1" target="_top" xlink:title="ZendDbSchema_Db_Schema_AbstractEntity\\refresh">
<polygon fill="white" stroke="black" points="801.5,-20.5 801.5,-41.5 1048.5,-41.5 1048.5,-20.5 801.5,-20.5"/>
<text text-anchor="middle" x="925" y="-28.5" font-family="Helvetica,sans-Serif" font-size="10.00">ZendDbSchema_Db_Schema_AbstractEntity\refresh</text>
</a>
</g>
<!-- Node14&#45;&gt;Node16 -->
<g id="edge32" class="edge"><title>Node14&#45;&gt;Node16</title>
<path fill="none" stroke="midnightblue" d="M640.898,-44.6587C692.279,-42.1885 750.845,-39.3728 801.4,-36.9423"/>
<polygon fill="midnightblue" stroke="midnightblue" points="640.543,-41.1717 630.723,-45.1479 640.879,-48.1636 640.543,-41.1717"/>
</g>
<!-- Node17 -->
<g id="node34" class="node"><title>Node17</title>
<a xlink:href="classZendDbSchema__Db__Schema__AbstractEntity.html#a26fcff2268495fcdbfa265f394ee93d9" target="_top" xlink:title="ZendDbSchema_Db_Schema_AbstractEntity\\delete">
<polygon fill="white" stroke="black" points="1226.5,-40.5 1226.5,-61.5 1469.5,-61.5 1469.5,-40.5 1226.5,-40.5"/>
<text text-anchor="middle" x="1348" y="-48.5" font-family="Helvetica,sans-Serif" font-size="10.00">ZendDbSchema_Db_Schema_AbstractEntity\delete</text>
</a>
</g>
<!-- Node16&#45;&gt;Node17 -->
<g id="edge34" class="edge"><title>Node16&#45;&gt;Node17</title>
<path fill="none" stroke="midnightblue" d="M1059.04,-37.3376C1112.67,-39.8734 1174.01,-42.7737 1226.34,-45.2479"/>
<polygon fill="midnightblue" stroke="midnightblue" points="1058.93,-33.8283 1048.77,-36.8521 1058.59,-40.8205 1058.93,-33.8283"/>
</g>
<!-- Node18 -->
<g id="node36" class="node"><title>Node18</title>
<a xlink:href="classZendDbSchema__Db__Schema__AbstractEntity.html#a5b1c93da76c3708f90d330b4643e55b2" target="_top" xlink:title="ZendDbSchema_Db_Schema_AbstractEntity\\save">
<polygon fill="white" stroke="black" points="1229,-0.5 1229,-21.5 1467,-21.5 1467,-0.5 1229,-0.5"/>
<text text-anchor="middle" x="1348" y="-8.5" font-family="Helvetica,sans-Serif" font-size="10.00">ZendDbSchema_Db_Schema_AbstractEntity\save</text>
</a>
</g>
<!-- Node16&#45;&gt;Node18 -->
<g id="edge36" class="edge"><title>Node16&#45;&gt;Node18</title>
<path fill="none" stroke="midnightblue" d="M1058.86,-24.671C1113.4,-22.092 1175.95,-19.1348 1228.88,-16.632"/>
<polygon fill="midnightblue" stroke="midnightblue" points="1058.59,-21.1795 1048.77,-25.1479 1058.93,-28.1717 1058.59,-21.1795"/>
</g>
</g>
</svg>
