<?xml version="1.0" encoding="UTF-8" standalone="no"?>
<!DOCTYPE svg PUBLIC "-//W3C//DTD SVG 1.1//EN"
 "http://www.w3.org/Graphics/SVG/1.1/DTD/svg11.dtd">
<!-- Generated by graphviz version 2.26.3 (20100126.1600)
 -->
<!-- Title: G Pages: 1 -->
<svg width="1624pt" height="138pt"
 viewBox="0.00 0.00 1624.00 138.00" xmlns="http://www.w3.org/2000/svg" xmlns:xlink="http://www.w3.org/1999/xlink">
<g id="graph1" class="graph" transform="scale(1 1) rotate(0) translate(4 134)">
<title>G</title>
<polygon fill="white" stroke="white" points="-4,5 -4,-134 1621,-134 1621,5 -4,5"/>
<!-- Node1 -->
<g id="node1" class="node"><title>Node1</title>
<polygon fill="#bfbfbf" stroke="black" points="0.5,-69.5 0.5,-90.5 301.5,-90.5 301.5,-69.5 0.5,-69.5"/>
<text text-anchor="middle" x="151" y="-77.5" font-family="Helvetica,sans-Serif" font-size="10.00">ZendDbSchema_Db_Schema_Table_PrimaryKey\removeColumn</text>
</g>
<!-- Node2 -->
<g id="node3" class="node"><title>Node2</title>
<a xlink:href="classZendDbSchema__Db__Schema__Table__PrimaryKey.html#a97ed55c2479299d4e75e98154f12c409" target="_top" xlink:title="ZendDbSchema_Db_Schema_Table_PrimaryKey\\hasColumn">
<polygon fill="white" stroke="black" points="340,-108.5 340,-129.5 624,-129.5 624,-108.5 340,-108.5"/>
<text text-anchor="middle" x="482" y="-116.5" font-family="Helvetica,sans-Serif" font-size="10.00">ZendDbSchema_Db_Schema_Table_PrimaryKey\hasColumn</text>
</a>
</g>
<!-- Node1&#45;&gt;Node2 -->
<g id="edge2" class="edge"><title>Node1&#45;&gt;Node2</title>
<path fill="none" stroke="midnightblue" d="M240.137,-90.5026C284.107,-95.6833 337.288,-101.949 382.572,-107.285"/>
<polygon fill="midnightblue" stroke="midnightblue" points="382.363,-110.784 392.703,-108.479 383.182,-103.832 382.363,-110.784"/>
</g>
<!-- Node3 -->
<g id="node5" class="node"><title>Node3</title>
<a xlink:href="classZendDbSchema__Db__Schema__Table__PrimaryKey.html#a228207d6e07e3ab95b8b25415077a6a1" target="_top" xlink:title="ZendDbSchema_Db_Schema_Table_PrimaryKey\\getColumns">
<polygon fill="white" stroke="black" points="662.5,-89.5 662.5,-110.5 949.5,-110.5 949.5,-89.5 662.5,-89.5"/>
<text text-anchor="middle" x="806" y="-97.5" font-family="Helvetica,sans-Serif" font-size="10.00">ZendDbSchema_Db_Schema_Table_PrimaryKey\getColumns</text>
</a>
</g>
<!-- Node1&#45;&gt;Node3 -->
<g id="edge10" class="edge"><title>Node1&#45;&gt;Node3</title>
<path fill="none" stroke="midnightblue" d="M301.681,-84.601C406.708,-87.8079 546.383,-92.0728 652.107,-95.301"/>
<polygon fill="midnightblue" stroke="midnightblue" points="652.128,-98.8031 662.23,-95.6101 652.341,-91.8064 652.128,-98.8031"/>
</g>
<!-- Node6 -->
<g id="node12" class="node"><title>Node6</title>
<a xlink:href="classZendDbSchema__Db__Schema__Table__PrimaryKey.html#a01cfcffd92c38bc521628d49d5c74927" target="_top" xlink:title="ZendDbSchema_Db_Schema_Table_PrimaryKey\\setColumns">
<polygon fill="white" stroke="black" points="338.5,-30.5 338.5,-51.5 625.5,-51.5 625.5,-30.5 338.5,-30.5"/>
<text text-anchor="middle" x="482" y="-38.5" font-family="Helvetica,sans-Serif" font-size="10.00">ZendDbSchema_Db_Schema_Table_PrimaryKey\setColumns</text>
</a>
</g>
<!-- Node1&#45;&gt;Node6 -->
<g id="edge12" class="edge"><title>Node1&#45;&gt;Node6</title>
<path fill="none" stroke="midnightblue" d="M240.137,-69.4974C284.107,-64.3167 337.288,-58.0507 382.572,-52.7151"/>
<polygon fill="midnightblue" stroke="midnightblue" points="383.182,-56.1675 392.703,-51.5213 382.363,-49.2156 383.182,-56.1675"/>
</g>
<!-- Node2&#45;&gt;Node3 -->
<g id="edge4" class="edge"><title>Node2&#45;&gt;Node3</title>
<path fill="none" stroke="midnightblue" d="M624.111,-110.666C633.414,-110.121 642.805,-109.57 652.16,-109.021"/>
<polygon fill="midnightblue" stroke="midnightblue" points="652.513,-112.507 662.291,-108.427 652.103,-105.519 652.513,-112.507"/>
</g>
<!-- Node4 -->
<g id="node7" class="node"><title>Node4</title>
<a xlink:href="classZendDbSchema__Db__Schema__AbstractSchema.html#a54d32c6f15463eaad2321a9f0e7225d7" target="_top" xlink:title="ZendDbSchema_Db_Schema_AbstractSchema\\__get">
<polygon fill="white" stroke="black" points="1027.5,-89.5 1027.5,-110.5 1278.5,-110.5 1278.5,-89.5 1027.5,-89.5"/>
<text text-anchor="middle" x="1153" y="-97.5" font-family="Helvetica,sans-Serif" font-size="10.00">ZendDbSchema_Db_Schema_AbstractSchema\__get</text>
</a>
</g>
<!-- Node3&#45;&gt;Node4 -->
<g id="edge6" class="edge"><title>Node3&#45;&gt;Node4</title>
<path fill="none" stroke="midnightblue" d="M949.643,-100C972.037,-100 995.114,-100 1017.32,-100"/>
<polygon fill="midnightblue" stroke="midnightblue" points="1017.46,-103.5 1027.46,-100 1017.46,-96.5001 1017.46,-103.5"/>
</g>
<!-- Node5 -->
<g id="node9" class="node"><title>Node5</title>
<a xlink:href="classZendDbSchema__Db__Schema__AbstractSchema.html#ac4e121ba7932163eb1950fabe06fb9db" target="_top" xlink:title="ZendDbSchema_Db_Schema_AbstractSchema\\__isset">
<polygon fill="white" stroke="black" points="1356.5,-89.5 1356.5,-110.5 1615.5,-110.5 1615.5,-89.5 1356.5,-89.5"/>
<text text-anchor="middle" x="1486" y="-97.5" font-family="Helvetica,sans-Serif" font-size="10.00">ZendDbSchema_Db_Schema_AbstractSchema\__isset</text>
</a>
</g>
<!-- Node4&#45;&gt;Node5 -->
<g id="edge8" class="edge"><title>Node4&#45;&gt;Node5</title>
<path fill="none" stroke="midnightblue" d="M1278.89,-100C1300.85,-100 1323.82,-100 1346.13,-100"/>
<polygon fill="midnightblue" stroke="midnightblue" points="1346.33,-103.5 1356.33,-100 1346.33,-96.5001 1346.33,-103.5"/>
</g>
<!-- Node7 -->
<g id="node14" class="node"><title>Node7</title>
<a xlink:href="classZendDbSchema__Db__Schema__Table__AbstractDefinition.html#a65498451683b2cf8fd1dc65f7f03581d" target="_top" xlink:title="ZendDbSchema_Db_Schema_Table_AbstractDefinition\\__set">
<polygon fill="white" stroke="black" points="663,-30.5 663,-51.5 949,-51.5 949,-30.5 663,-30.5"/>
<text text-anchor="middle" x="806" y="-38.5" font-family="Helvetica,sans-Serif" font-size="10.00">ZendDbSchema_Db_Schema_Table_AbstractDefinition\__set</text>
</a>
</g>
<!-- Node6&#45;&gt;Node7 -->
<g id="edge14" class="edge"><title>Node6&#45;&gt;Node7</title>
<path fill="none" stroke="midnightblue" d="M625.526,-41C634.565,-41 643.682,-41 652.762,-41"/>
<polygon fill="midnightblue" stroke="midnightblue" points="652.992,-44.5001 662.992,-41 652.992,-37.5001 652.992,-44.5001"/>
</g>
<!-- Node8 -->
<g id="node16" class="node"><title>Node8</title>
<a xlink:href="classZendDbSchema__Db__Schema__Table__AbstractDefinition.html#a224b6a0c1df1d6ed40e03657782ef6fc" target="_top" xlink:title="ZendDbSchema_Db_Schema_Table_AbstractDefinition\\getTable">
<polygon fill="white" stroke="black" points="1003.5,-40.5 1003.5,-61.5 1302.5,-61.5 1302.5,-40.5 1003.5,-40.5"/>
<text text-anchor="middle" x="1153" y="-48.5" font-family="Helvetica,sans-Serif" font-size="10.00">ZendDbSchema_Db_Schema_Table_AbstractDefinition\getTable</text>
</a>
</g>
<!-- Node7&#45;&gt;Node8 -->
<g id="edge16" class="edge"><title>Node7&#45;&gt;Node8</title>
<path fill="none" stroke="midnightblue" d="M949.142,-45.1251C963.703,-45.5448 978.56,-45.9729 993.283,-46.3972"/>
<polygon fill="midnightblue" stroke="midnightblue" points="993.352,-49.9006 1003.45,-46.6902 993.554,-42.9035 993.352,-49.9006"/>
</g>
<!-- Node9 -->
<g id="node18" class="node"><title>Node9</title>
<a xlink:href="classZendDbSchema__Db__Schema__Table__AbstractDefinition.html#a2fb894602c4b7fbba5dd1d180f93c181" target="_top" xlink:title="ZendDbSchema_Db_Schema_Table_AbstractDefinition\\_getSchemaKey">
<polygon fill="white" stroke="black" points="986,-0.5 986,-21.5 1320,-21.5 1320,-0.5 986,-0.5"/>
<text text-anchor="middle" x="1153" y="-8.5" font-family="Helvetica,sans-Serif" font-size="10.00">ZendDbSchema_Db_Schema_Table_AbstractDefinition\_getSchemaKey</text>
</a>
</g>
<!-- Node7&#45;&gt;Node9 -->
<g id="edge18" class="edge"><title>Node7&#45;&gt;Node9</title>
<path fill="none" stroke="midnightblue" d="M927.851,-30.4653C958.029,-27.8563 990.499,-25.049 1021.13,-22.4008"/>
<polygon fill="midnightblue" stroke="midnightblue" points="1021.78,-25.8578 1031.44,-21.5093 1021.18,-18.8838 1021.78,-25.8578"/>
</g>
</g>
</svg>
