<?xml version="1.0" encoding="UTF-8" standalone="no"?>
<!DOCTYPE svg PUBLIC "-//W3C//DTD SVG 1.1//EN"
 "http://www.w3.org/Graphics/SVG/1.1/DTD/svg11.dtd">
<!-- Generated by graphviz version 2.26.3 (20100126.1600)
 -->
<!-- Title: G Pages: 1 -->
<svg width="1632pt" height="130pt"
 viewBox="0.00 0.00 1632.00 130.00" xmlns="http://www.w3.org/2000/svg" xmlns:xlink="http://www.w3.org/1999/xlink">
<g id="graph1" class="graph" transform="scale(1 1) rotate(0) translate(4 126)">
<title>G</title>
<polygon fill="white" stroke="white" points="-4,5 -4,-126 1629,-126 1629,5 -4,5"/>
<!-- Node1 -->
<g id="node1" class="node"><title>Node1</title>
<polygon fill="#bfbfbf" stroke="black" points="0,-60.5 0,-81.5 284,-81.5 284,-60.5 0,-60.5"/>
<text text-anchor="middle" x="142" y="-68.5" font-family="Helvetica,sans-Serif" font-size="10.00">ZendDbSchema_Db_Schema_Table_AbstractDefinition\toSql</text>
</g>
<!-- Node2 -->
<g id="node3" class="node"><title>Node2</title>
<a xlink:href="classZendDbSchema__Db__Schema__Table__AbstractDefinition.html#a224b6a0c1df1d6ed40e03657782ef6fc" target="_top" xlink:title="ZendDbSchema_Db_Schema_Table_AbstractDefinition\\getTable">
<polygon fill="white" stroke="black" points="322.5,-100.5 322.5,-121.5 621.5,-121.5 621.5,-100.5 322.5,-100.5"/>
<text text-anchor="middle" x="472" y="-108.5" font-family="Helvetica,sans-Serif" font-size="10.00">ZendDbSchema_Db_Schema_Table_AbstractDefinition\getTable</text>
</a>
</g>
<!-- Node1&#45;&gt;Node2 -->
<g id="edge2" class="edge"><title>Node1&#45;&gt;Node2</title>
<path fill="none" stroke="midnightblue" d="M228.704,-81.5095C273.715,-86.9654 328.845,-93.6479 375.239,-99.2714"/>
<polygon fill="midnightblue" stroke="midnightblue" points="374.955,-102.762 385.303,-100.491 375.797,-95.8133 374.955,-102.762"/>
</g>
<!-- Node3 -->
<g id="node5" class="node"><title>Node3</title>
<a xlink:href="classZendDbSchema__Db__Schema__Table__AbstractDefinition.html#ae3276a6f60f556eb468d3f2ef102a3ab" target="_top" xlink:title="ZendDbSchema_Db_Schema_Table_AbstractDefinition\\isDeleted">
<polygon fill="white" stroke="black" points="320.5,-60.5 320.5,-81.5 623.5,-81.5 623.5,-60.5 320.5,-60.5"/>
<text text-anchor="middle" x="472" y="-68.5" font-family="Helvetica,sans-Serif" font-size="10.00">ZendDbSchema_Db_Schema_Table_AbstractDefinition\isDeleted</text>
</a>
</g>
<!-- Node1&#45;&gt;Node3 -->
<g id="edge4" class="edge"><title>Node1&#45;&gt;Node3</title>
<path fill="none" stroke="midnightblue" d="M284.344,-71C292.933,-71 301.605,-71 310.265,-71"/>
<polygon fill="midnightblue" stroke="midnightblue" points="310.42,-74.5001 320.42,-71 310.419,-67.5001 310.42,-74.5001"/>
</g>
<!-- Node4 -->
<g id="node7" class="node"><title>Node4</title>
<a xlink:href="classZendDbSchema__Db__Schema__AbstractSchema.html#aec661ede88f500caaf2a09e98c31d3b0" target="_top" xlink:title="ZendDbSchema_Db_Schema_AbstractSchema\\getDropSql">
<polygon fill="white" stroke="black" points="334,-20.5 334,-41.5 610,-41.5 610,-20.5 334,-20.5"/>
<text text-anchor="middle" x="472" y="-28.5" font-family="Helvetica,sans-Serif" font-size="10.00">ZendDbSchema_Db_Schema_AbstractSchema\getDropSql</text>
</a>
</g>
<!-- Node1&#45;&gt;Node4 -->
<g id="edge6" class="edge"><title>Node1&#45;&gt;Node4</title>
<path fill="none" stroke="midnightblue" d="M228.704,-60.4905C273.715,-55.0346 328.845,-48.3521 375.239,-42.7286"/>
<polygon fill="midnightblue" stroke="midnightblue" points="375.797,-46.1867 385.303,-41.5087 374.955,-39.2375 375.797,-46.1867"/>
</g>
<!-- Node5 -->
<g id="node9" class="node"><title>Node5</title>
<a xlink:href="classZendDbSchema__Db__Schema__AbstractSchema.html#a1680a8fd22360f74d29b641d7257a52f" target="_top" xlink:title="ZendDbSchema_Db_Schema_AbstractSchema\\isExist">
<polygon fill="white" stroke="black" points="672.5,-40.5 672.5,-61.5 929.5,-61.5 929.5,-40.5 672.5,-40.5"/>
<text text-anchor="middle" x="801" y="-48.5" font-family="Helvetica,sans-Serif" font-size="10.00">ZendDbSchema_Db_Schema_AbstractSchema\isExist</text>
</a>
</g>
<!-- Node4&#45;&gt;Node5 -->
<g id="edge8" class="edge"><title>Node4&#45;&gt;Node5</title>
<path fill="none" stroke="midnightblue" d="M610.096,-39.3949C627.368,-40.4449 645.039,-41.5191 662.32,-42.5696"/>
<polygon fill="midnightblue" stroke="midnightblue" points="662.25,-46.0717 672.444,-43.185 662.675,-39.0846 662.25,-46.0717"/>
</g>
<!-- Node8 -->
<g id="node15" class="node"><title>Node8</title>
<a xlink:href="classZendDbSchema__Db__Schema__AbstractSchema.html#abf887d2836071992af679430ddf1b922" target="_top" xlink:title="ZendDbSchema_Db_Schema_AbstractSchema\\_getDropSql">
<polygon fill="white" stroke="black" points="660.5,-0.5 660.5,-21.5 941.5,-21.5 941.5,-0.5 660.5,-0.5"/>
<text text-anchor="middle" x="801" y="-8.5" font-family="Helvetica,sans-Serif" font-size="10.00">ZendDbSchema_Db_Schema_AbstractSchema\_getDropSql</text>
</a>
</g>
<!-- Node4&#45;&gt;Node8 -->
<g id="edge14" class="edge"><title>Node4&#45;&gt;Node8</title>
<path fill="none" stroke="midnightblue" d="M610.096,-22.6051C623.338,-21.8001 636.814,-20.9809 650.17,-20.169"/>
<polygon fill="midnightblue" stroke="midnightblue" points="650.584,-23.6504 660.354,-19.5499 650.16,-16.6633 650.584,-23.6504"/>
</g>
<!-- Node6 -->
<g id="node11" class="node"><title>Node6</title>
<a xlink:href="classZendDbSchema__Db__Schema__AbstractSchema.html#a46da7a60c7e5fd605607afbc1dac4baa" target="_top" xlink:title="ZendDbSchema_Db_Schema_AbstractSchema\\getCleanSchema">
<polygon fill="white" stroke="black" points="978,-40.5 978,-61.5 1280,-61.5 1280,-40.5 978,-40.5"/>
<text text-anchor="middle" x="1129" y="-48.5" font-family="Helvetica,sans-Serif" font-size="10.00">ZendDbSchema_Db_Schema_AbstractSchema\getCleanSchema</text>
</a>
</g>
<!-- Node5&#45;&gt;Node6 -->
<g id="edge10" class="edge"><title>Node5&#45;&gt;Node6</title>
<path fill="none" stroke="midnightblue" d="M929.693,-51C942.155,-51 954.903,-51 967.63,-51"/>
<polygon fill="midnightblue" stroke="midnightblue" points="967.826,-54.5001 977.826,-51 967.826,-47.5001 967.826,-54.5001"/>
</g>
<!-- Node7 -->
<g id="node13" class="node"><title>Node7</title>
<a xlink:href="classZendDbSchema__Db__Schema__AbstractSchema.html#af99e5bb9adfe0da8c94d3d3848efe7b5" target="_top" xlink:title="ZendDbSchema_Db_Schema_AbstractSchema\\_getCleanSchema">
<polygon fill="white" stroke="black" points="1316,-40.5 1316,-61.5 1624,-61.5 1624,-40.5 1316,-40.5"/>
<text text-anchor="middle" x="1470" y="-48.5" font-family="Helvetica,sans-Serif" font-size="10.00">ZendDbSchema_Db_Schema_AbstractSchema\_getCleanSchema</text>
</a>
</g>
<!-- Node6&#45;&gt;Node7 -->
<g id="edge12" class="edge"><title>Node6&#45;&gt;Node7</title>
<path fill="none" stroke="midnightblue" d="M1280.06,-51C1288.57,-51 1297.15,-51 1305.71,-51"/>
<polygon fill="midnightblue" stroke="midnightblue" points="1305.74,-54.5001 1315.74,-51 1305.74,-47.5001 1305.74,-54.5001"/>
</g>
</g>
</svg>
