<?xml version="1.0" encoding="UTF-8" standalone="no"?>
<!DOCTYPE svg PUBLIC "-//W3C//DTD SVG 1.1//EN"
 "http://www.w3.org/Graphics/SVG/1.1/DTD/svg11.dtd">
<!-- Generated by graphviz version 2.26.3 (20100126.1600)
 -->
<!-- Title: G Pages: 1 -->
<svg width="1174pt" height="150pt"
 viewBox="0.00 0.00 1174.00 150.00" xmlns="http://www.w3.org/2000/svg" xmlns:xlink="http://www.w3.org/1999/xlink">
<g id="graph1" class="graph" transform="scale(1 1) rotate(0) translate(4 146)">
<title>G</title>
<polygon fill="white" stroke="white" points="-4,5 -4,-146 1171,-146 1171,5 -4,5"/>
<!-- Node1 -->
<g id="node1" class="node"><title>Node1</title>
<polygon fill="#bfbfbf" stroke="black" points="0.5,-60.5 0.5,-81.5 239.5,-81.5 239.5,-60.5 0.5,-60.5"/>
<text text-anchor="middle" x="120" y="-68.5" font-family="Helvetica,sans-Serif" font-size="10.00">ZendDbSchema_Db_Schema_AbstractEntity\toSql</text>
</g>
<!-- Node2 -->
<g id="node3" class="node"><title>Node2</title>
<a xlink:href="classZendDbSchema__Db__Schema__AbstractSchema.html#a1680a8fd22360f74d29b641d7257a52f" target="_top" xlink:title="ZendDbSchema_Db_Schema_AbstractSchema\\isExist">
<polygon fill="white" stroke="black" points="287.5,-120.5 287.5,-141.5 544.5,-141.5 544.5,-120.5 287.5,-120.5"/>
<text text-anchor="middle" x="416" y="-128.5" font-family="Helvetica,sans-Serif" font-size="10.00">ZendDbSchema_Db_Schema_AbstractSchema\isExist</text>
</a>
</g>
<!-- Node1&#45;&gt;Node2 -->
<g id="edge2" class="edge"><title>Node1&#45;&gt;Node2</title>
<path fill="none" stroke="midnightblue" d="M156.305,-81.5085C187.759,-90.3235 234.593,-102.759 276,-111 290.716,-113.929 306.385,-116.599 321.712,-118.967"/>
<polygon fill="midnightblue" stroke="midnightblue" points="321.311,-122.446 331.721,-120.479 322.357,-115.525 321.311,-122.446"/>
</g>
<!-- Node4 -->
<g id="node7" class="node"><title>Node4</title>
<a xlink:href="classZendDbSchema__Db__Schema__AbstractSchema.html#ae859790a91bbcb9c4dc52a6139e5999e" target="_top" xlink:title="ZendDbSchema_Db_Schema_AbstractSchema\\isDirty">
<polygon fill="white" stroke="black" points="288,-80.5 288,-101.5 544,-101.5 544,-80.5 288,-80.5"/>
<text text-anchor="middle" x="416" y="-88.5" font-family="Helvetica,sans-Serif" font-size="10.00">ZendDbSchema_Db_Schema_AbstractSchema\isDirty</text>
</a>
</g>
<!-- Node1&#45;&gt;Node4 -->
<g id="edge6" class="edge"><title>Node1&#45;&gt;Node4</title>
<path fill="none" stroke="midnightblue" d="M239.541,-79.0771C252.075,-79.924 264.892,-80.79 277.614,-81.6496"/>
<polygon fill="midnightblue" stroke="midnightblue" points="277.576,-85.1549 287.789,-82.3371 278.048,-78.1708 277.576,-85.1549"/>
</g>
<!-- Node7 -->
<g id="node15" class="node"><title>Node7</title>
<a xlink:href="classZendDbSchema__Db__Schema__AbstractEntity.html#a5a443b35b528aa3aed4a66abe96884e7" target="_top" xlink:title="ZendDbSchema_Db_Schema_AbstractEntity\\_getAlterSql">
<polygon fill="white" stroke="black" points="281,-40.5 281,-61.5 551,-61.5 551,-40.5 281,-40.5"/>
<text text-anchor="middle" x="416" y="-48.5" font-family="Helvetica,sans-Serif" font-size="10.00">ZendDbSchema_Db_Schema_AbstractEntity\_getAlterSql</text>
</a>
</g>
<!-- Node1&#45;&gt;Node7 -->
<g id="edge16" class="edge"><title>Node1&#45;&gt;Node7</title>
<path fill="none" stroke="midnightblue" d="M239.541,-62.9229C249.877,-62.2246 260.404,-61.5132 270.912,-60.8032"/>
<polygon fill="midnightblue" stroke="midnightblue" points="271.233,-64.2896 280.974,-60.1234 270.761,-57.3055 271.233,-64.2896"/>
</g>
<!-- Node8 -->
<g id="node17" class="node"><title>Node8</title>
<a xlink:href="classZendDbSchema__Db__Schema__AbstractEntity.html#a2d3be045940e7df516861afc55686640" target="_top" xlink:title="ZendDbSchema_Db_Schema_AbstractEntity\\_getCreateSql">
<polygon fill="white" stroke="black" points="276.5,-0.5 276.5,-21.5 555.5,-21.5 555.5,-0.5 276.5,-0.5"/>
<text text-anchor="middle" x="416" y="-8.5" font-family="Helvetica,sans-Serif" font-size="10.00">ZendDbSchema_Db_Schema_AbstractEntity\_getCreateSql</text>
</a>
</g>
<!-- Node1&#45;&gt;Node8 -->
<g id="edge18" class="edge"><title>Node1&#45;&gt;Node8</title>
<path fill="none" stroke="midnightblue" d="M156.305,-60.4915C187.759,-51.6765 234.593,-39.2406 276,-31 290.716,-28.0712 306.385,-25.401 321.712,-23.0328"/>
<polygon fill="midnightblue" stroke="midnightblue" points="322.357,-26.4752 331.721,-21.5205 321.311,-19.5538 322.357,-26.4752"/>
</g>
<!-- Node3 -->
<g id="node5" class="node"><title>Node3</title>
<a xlink:href="classZendDbSchema__Db__Schema__AbstractSchema.html#a219012c80be57ace4b1db43a9c48eb3d" target="_top" xlink:title="ZendDbSchema_Db_Schema_AbstractSchema\\getSchema">
<polygon fill="white" stroke="black" points="592.5,-119.5 592.5,-140.5 869.5,-140.5 869.5,-119.5 592.5,-119.5"/>
<text text-anchor="middle" x="731" y="-127.5" font-family="Helvetica,sans-Serif" font-size="10.00">ZendDbSchema_Db_Schema_AbstractSchema\getSchema</text>
</a>
</g>
<!-- Node2&#45;&gt;Node3 -->
<g id="edge4" class="edge"><title>Node2&#45;&gt;Node3</title>
<path fill="none" stroke="midnightblue" d="M544.577,-130.592C556.994,-130.552 569.659,-130.512 582.249,-130.472"/>
<polygon fill="midnightblue" stroke="midnightblue" points="582.335,-133.972 592.324,-130.44 582.313,-126.972 582.335,-133.972"/>
</g>
<!-- Node4&#45;&gt;Node3 -->
<g id="edge8" class="edge"><title>Node4&#45;&gt;Node3</title>
<path fill="none" stroke="midnightblue" d="M500.829,-101.503C542.497,-106.662 592.858,-112.897 635.834,-118.218"/>
<polygon fill="midnightblue" stroke="midnightblue" points="635.666,-121.723 646.02,-119.479 636.526,-114.776 635.666,-121.723"/>
</g>
<!-- Node5 -->
<g id="node10" class="node"><title>Node5</title>
<a xlink:href="classZendDbSchema__Db__Schema__AbstractSchema.html#ac4e121ba7932163eb1950fabe06fb9db" target="_top" xlink:title="ZendDbSchema_Db_Schema_AbstractSchema\\__isset">
<polygon fill="white" stroke="black" points="906.5,-60.5 906.5,-81.5 1165.5,-81.5 1165.5,-60.5 906.5,-60.5"/>
<text text-anchor="middle" x="1036" y="-68.5" font-family="Helvetica,sans-Serif" font-size="10.00">ZendDbSchema_Db_Schema_AbstractSchema\__isset</text>
</a>
</g>
<!-- Node4&#45;&gt;Node5 -->
<g id="edge10" class="edge"><title>Node4&#45;&gt;Node5</title>
<path fill="none" stroke="midnightblue" d="M544.088,-86.8681C646.797,-83.5549 790.733,-78.9118 896.377,-75.504"/>
<polygon fill="midnightblue" stroke="midnightblue" points="896.596,-78.9988 906.478,-75.1781 896.37,-72.0025 896.596,-78.9988"/>
</g>
<!-- Node6 -->
<g id="node12" class="node"><title>Node6</title>
<a xlink:href="classZendDbSchema__Db__Schema__AbstractSchema.html#a54d32c6f15463eaad2321a9f0e7225d7" target="_top" xlink:title="ZendDbSchema_Db_Schema_AbstractSchema\\__get">
<polygon fill="white" stroke="black" points="605.5,-41.5 605.5,-62.5 856.5,-62.5 856.5,-41.5 605.5,-41.5"/>
<text text-anchor="middle" x="731" y="-49.5" font-family="Helvetica,sans-Serif" font-size="10.00">ZendDbSchema_Db_Schema_AbstractSchema\__get</text>
</a>
</g>
<!-- Node4&#45;&gt;Node6 -->
<g id="edge12" class="edge"><title>Node4&#45;&gt;Node6</title>
<path fill="none" stroke="midnightblue" d="M500.829,-80.4974C542.497,-75.3384 592.858,-69.1034 635.834,-63.7824"/>
<polygon fill="midnightblue" stroke="midnightblue" points="636.526,-67.2236 646.02,-62.5213 635.666,-60.2767 636.526,-67.2236"/>
</g>
<!-- Node6&#45;&gt;Node5 -->
<g id="edge14" class="edge"><title>Node6&#45;&gt;Node5</title>
<path fill="none" stroke="midnightblue" d="M856.816,-59.8377C869.635,-60.6363 882.713,-61.451 895.673,-62.2583"/>
<polygon fill="midnightblue" stroke="midnightblue" points="895.836,-65.7752 906.034,-62.9038 896.271,-58.7887 895.836,-65.7752"/>
</g>
</g>
</svg>
