<?xml version="1.0" encoding="UTF-8" standalone="no"?>
<!DOCTYPE svg PUBLIC "-//W3C//DTD SVG 1.1//EN"
 "http://www.w3.org/Graphics/SVG/1.1/DTD/svg11.dtd">
<!-- Generated by graphviz version 2.26.3 (20100126.1600)
 -->
<!-- Title: G Pages: 1 -->
<svg width="546pt" height="146pt"
 viewBox="0.00 0.00 546.00 146.00" xmlns="http://www.w3.org/2000/svg" xmlns:xlink="http://www.w3.org/1999/xlink">
<g id="graph1" class="graph" transform="scale(1 1) rotate(0) translate(4 142)">
<title>G</title>
<polygon fill="white" stroke="white" points="-4,5 -4,-142 543,-142 543,5 -4,5"/>
<!-- Node1 -->
<g id="node1" class="node"><title>Node1</title>
<polygon fill="#bfbfbf" stroke="black" points="0,-52 0,-86 166,-86 166,-52 0,-52"/>
<text text-anchor="start" x="8" y="-73" font-family="Helvetica,sans-Serif" font-size="10.00">ZendDbSchema_Db_Schema</text>
<text text-anchor="middle" x="83" y="-60" font-family="Helvetica,sans-Serif" font-size="10.00">_AbstractEntity\getDefaultAdapter</text>
</g>
<!-- Node2 -->
<g id="node3" class="node"><title>Node2</title>
<a xlink:href="classZendDbSchema__Db__Schema__Database.html#a922130cd70362866a2bd21d92131648e" target="_top" xlink:title="ZendDbSchema_Db_Schema\l_Database\\__construct">
<polygon fill="white" stroke="black" points="204,-104 204,-138 350,-138 350,-104 204,-104"/>
<text text-anchor="start" x="212" y="-125" font-family="Helvetica,sans-Serif" font-size="10.00">ZendDbSchema_Db_Schema</text>
<text text-anchor="middle" x="277" y="-112" font-family="Helvetica,sans-Serif" font-size="10.00">_Database\__construct</text>
</a>
</g>
<!-- Node1&#45;&gt;Node2 -->
<g id="edge2" class="edge"><title>Node1&#45;&gt;Node2</title>
<path fill="none" stroke="midnightblue" d="M156.218,-88.6253C175.009,-93.6622 195.069,-99.0392 213.334,-103.935"/>
<polygon fill="midnightblue" stroke="midnightblue" points="157.088,-85.2352 146.523,-86.0267 155.276,-91.9965 157.088,-85.2352"/>
</g>
<!-- Node3 -->
<g id="node5" class="node"><title>Node3</title>
<a xlink:href="classZendDbSchema__Db__Schema__Table.html#a6cd2e671ba94a27051600589dceca7b9" target="_top" xlink:title="ZendDbSchema_Db_Schema\l_Table\\__construct">
<polygon fill="white" stroke="black" points="204,-52 204,-86 350,-86 350,-52 204,-52"/>
<text text-anchor="start" x="212" y="-73" font-family="Helvetica,sans-Serif" font-size="10.00">ZendDbSchema_Db_Schema</text>
<text text-anchor="middle" x="277" y="-60" font-family="Helvetica,sans-Serif" font-size="10.00">_Table\__construct</text>
</a>
</g>
<!-- Node1&#45;&gt;Node3 -->
<g id="edge4" class="edge"><title>Node1&#45;&gt;Node3</title>
<path fill="none" stroke="midnightblue" d="M176.167,-69C185.459,-69 194.799,-69 203.844,-69"/>
<polygon fill="midnightblue" stroke="midnightblue" points="176.118,-65.5001 166.118,-69 176.118,-72.5001 176.118,-65.5001"/>
</g>
<!-- Node4 -->
<g id="node7" class="node"><title>Node4</title>
<a xlink:href="classZendDbSchema__Db__Migration__Skeleton.html#a1d08bca816aaff3ac27087d5e5daa2ff" target="_top" xlink:title="ZendDbSchema_Db_Migration\l_Skeleton\\getAdapter">
<polygon fill="white" stroke="black" points="202,-0 202,-34 352,-34 352,-0 202,-0"/>
<text text-anchor="start" x="210" y="-21" font-family="Helvetica,sans-Serif" font-size="10.00">ZendDbSchema_Db_Migration</text>
<text text-anchor="middle" x="277" y="-8" font-family="Helvetica,sans-Serif" font-size="10.00">_Skeleton\getAdapter</text>
</a>
</g>
<!-- Node1&#45;&gt;Node4 -->
<g id="edge6" class="edge"><title>Node1&#45;&gt;Node4</title>
<path fill="none" stroke="midnightblue" d="M156.218,-49.3747C175.009,-44.3378 195.069,-38.9608 213.334,-34.065"/>
<polygon fill="midnightblue" stroke="midnightblue" points="155.276,-46.0035 146.523,-51.9733 157.088,-52.7648 155.276,-46.0035"/>
</g>
<!-- Node5 -->
<g id="node9" class="node"><title>Node5</title>
<a xlink:href="classZendDbSchema__Db__Migration__Skeleton.html#a58a0cbc3ea2139c107db1c19d4a6b60d" target="_top" xlink:title="ZendDbSchema_Db_Migration\l_Skeleton\\addSchema">
<polygon fill="white" stroke="black" points="388,-0 388,-34 538,-34 538,-0 388,-0"/>
<text text-anchor="start" x="396" y="-21" font-family="Helvetica,sans-Serif" font-size="10.00">ZendDbSchema_Db_Migration</text>
<text text-anchor="middle" x="463" y="-8" font-family="Helvetica,sans-Serif" font-size="10.00">_Skeleton\addSchema</text>
</a>
</g>
<!-- Node4&#45;&gt;Node5 -->
<g id="edge8" class="edge"><title>Node4&#45;&gt;Node5</title>
<path fill="none" stroke="midnightblue" d="M362.147,-17C370.742,-17 379.426,-17 387.905,-17"/>
<polygon fill="midnightblue" stroke="midnightblue" points="362.117,-13.5001 352.117,-17 362.117,-20.5001 362.117,-13.5001"/>
</g>
</g>
</svg>
