<?xml version="1.0" encoding="UTF-8" standalone="no"?>
<!DOCTYPE svg PUBLIC "-//W3C//DTD SVG 1.1//EN"
 "http://www.w3.org/Graphics/SVG/1.1/DTD/svg11.dtd">
<!-- Generated by graphviz version 2.26.3 (20100126.1600)
 -->
<!-- Title: G Pages: 1 -->
<svg width="1606pt" height="270pt"
 viewBox="0.00 0.00 1606.00 270.00" xmlns="http://www.w3.org/2000/svg" xmlns:xlink="http://www.w3.org/1999/xlink">
<g id="graph1" class="graph" transform="scale(1 1) rotate(0) translate(4 266)">
<title>G</title>
<polygon fill="white" stroke="white" points="-4,5 -4,-266 1603,-266 1603,5 -4,5"/>
<!-- Node1 -->
<g id="node1" class="node"><title>Node1</title>
<polygon fill="#bfbfbf" stroke="black" points="0.5,-160.5 0.5,-181.5 283.5,-181.5 283.5,-160.5 0.5,-160.5"/>
<text text-anchor="middle" x="142" y="-168.5" font-family="Helvetica,sans-Serif" font-size="10.00">ZendDbSchema_Db_Schema_Table_AbstractDefinition\save</text>
</g>
<!-- Node2 -->
<g id="node3" class="node"><title>Node2</title>
<a xlink:href="classZendDbSchema__Db__Schema__AbstractSchema.html#ae859790a91bbcb9c4dc52a6139e5999e" target="_top" xlink:title="ZendDbSchema_Db_Schema_AbstractSchema\\isDirty">
<polygon fill="white" stroke="black" points="674,-200.5 674,-221.5 930,-221.5 930,-200.5 674,-200.5"/>
<text text-anchor="middle" x="802" y="-208.5" font-family="Helvetica,sans-Serif" font-size="10.00">ZendDbSchema_Db_Schema_AbstractSchema\isDirty</text>
</a>
</g>
<!-- Node1&#45;&gt;Node2 -->
<g id="edge2" class="edge"><title>Node1&#45;&gt;Node2</title>
<path fill="none" stroke="midnightblue" d="M224.749,-181.523C254.711,-185.009 288.839,-188.606 320,-191 435.736,-199.892 567.43,-205.018 663.881,-207.849"/>
<polygon fill="midnightblue" stroke="midnightblue" points="663.89,-211.351 673.987,-208.142 664.092,-204.354 663.89,-211.351"/>
</g>
<!-- Node6 -->
<g id="node12" class="node"><title>Node6</title>
<a xlink:href="classZendDbSchema__Db__Schema__Table__AbstractDefinition.html#a224b6a0c1df1d6ed40e03657782ef6fc" target="_top" xlink:title="ZendDbSchema_Db_Schema_Table_AbstractDefinition\\getTable">
<polygon fill="white" stroke="black" points="652.5,-80.5 652.5,-101.5 951.5,-101.5 951.5,-80.5 652.5,-80.5"/>
<text text-anchor="middle" x="802" y="-88.5" font-family="Helvetica,sans-Serif" font-size="10.00">ZendDbSchema_Db_Schema_Table_AbstractDefinition\getTable</text>
</a>
</g>
<!-- Node1&#45;&gt;Node6 -->
<g id="edge12" class="edge"><title>Node1&#45;&gt;Node6</title>
<path fill="none" stroke="midnightblue" d="M228.962,-160.459C352.164,-145.526 576.78,-118.299 705.156,-102.739"/>
<polygon fill="midnightblue" stroke="midnightblue" points="705.864,-106.179 715.37,-101.501 705.022,-99.2294 705.864,-106.179"/>
</g>
<!-- Node7 -->
<g id="node14" class="node"><title>Node7</title>
<a xlink:href="classZendDbSchema__Db__Schema__AbstractSchema.html#afda46eab0c365f4c9a743b7185c51d6c" target="_top" xlink:title="ZendDbSchema_Db_Schema_AbstractSchema\\getValidator">
<polygon fill="white" stroke="black" points="322.5,-51.5 322.5,-72.5 601.5,-72.5 601.5,-51.5 322.5,-51.5"/>
<text text-anchor="middle" x="462" y="-59.5" font-family="Helvetica,sans-Serif" font-size="10.00">ZendDbSchema_Db_Schema_AbstractSchema\getValidator</text>
</a>
</g>
<!-- Node1&#45;&gt;Node7 -->
<g id="edge14" class="edge"><title>Node1&#45;&gt;Node7</title>
<path fill="none" stroke="midnightblue" d="M171.209,-160.391C206.404,-147.67 267.375,-125.833 320,-108 353.151,-96.766 390.852,-84.5806 419.071,-75.5753"/>
<polygon fill="midnightblue" stroke="midnightblue" points="420.168,-78.8992 428.634,-72.5294 418.044,-72.2293 420.168,-78.8992"/>
</g>
<!-- Node13 -->
<g id="node26" class="node"><title>Node13</title>
<a xlink:href="classZendDbSchema__Db__Schema__Table__AbstractDefinition.html#a75c1b3ef1005c2d6aa371ecef07d530d" target="_top" xlink:title="ZendDbSchema_Db_Schema_Table_AbstractDefinition\\toSql">
<polygon fill="white" stroke="black" points="320,-160.5 320,-181.5 604,-181.5 604,-160.5 320,-160.5"/>
<text text-anchor="middle" x="462" y="-168.5" font-family="Helvetica,sans-Serif" font-size="10.00">ZendDbSchema_Db_Schema_Table_AbstractDefinition\toSql</text>
</a>
</g>
<!-- Node1&#45;&gt;Node13 -->
<g id="edge26" class="edge"><title>Node1&#45;&gt;Node13</title>
<path fill="none" stroke="midnightblue" d="M283.754,-171C292.345,-171 301.008,-171 309.64,-171"/>
<polygon fill="midnightblue" stroke="midnightblue" points="309.755,-174.5 319.755,-171 309.755,-167.5 309.755,-174.5"/>
</g>
<!-- Node14 -->
<g id="node30" class="node"><title>Node14</title>
<a xlink:href="classZendDbSchema__Db__Schema__AbstractSchema.html#a1680a8fd22360f74d29b641d7257a52f" target="_top" xlink:title="ZendDbSchema_Db_Schema_AbstractSchema\\isExist">
<polygon fill="white" stroke="black" points="673.5,-240.5 673.5,-261.5 930.5,-261.5 930.5,-240.5 673.5,-240.5"/>
<text text-anchor="middle" x="802" y="-248.5" font-family="Helvetica,sans-Serif" font-size="10.00">ZendDbSchema_Db_Schema_AbstractSchema\isExist</text>
</a>
</g>
<!-- Node1&#45;&gt;Node14 -->
<g id="edge40" class="edge"><title>Node1&#45;&gt;Node14</title>
<path fill="none" stroke="midnightblue" d="M180.228,-181.508C216.063,-190.95 271.268,-204.457 320,-212 434.887,-229.782 566.514,-239.738 663.156,-245.132"/>
<polygon fill="midnightblue" stroke="midnightblue" points="663.106,-248.634 673.283,-245.687 663.49,-241.644 663.106,-248.634"/>
</g>
<!-- Node3 -->
<g id="node5" class="node"><title>Node3</title>
<a xlink:href="classZendDbSchema__Db__Schema__AbstractSchema.html#a219012c80be57ace4b1db43a9c48eb3d" target="_top" xlink:title="ZendDbSchema_Db_Schema_AbstractSchema\\getSchema">
<polygon fill="white" stroke="black" points="1000.5,-239.5 1000.5,-260.5 1277.5,-260.5 1277.5,-239.5 1000.5,-239.5"/>
<text text-anchor="middle" x="1139" y="-247.5" font-family="Helvetica,sans-Serif" font-size="10.00">ZendDbSchema_Db_Schema_AbstractSchema\getSchema</text>
</a>
</g>
<!-- Node2&#45;&gt;Node3 -->
<g id="edge4" class="edge"><title>Node2&#45;&gt;Node3</title>
<path fill="none" stroke="midnightblue" d="M892.753,-221.503C937.614,-226.694 991.892,-232.976 1038.06,-238.319"/>
<polygon fill="midnightblue" stroke="midnightblue" points="1037.75,-241.806 1048.08,-239.479 1038.55,-234.852 1037.75,-241.806"/>
</g>
<!-- Node4 -->
<g id="node7" class="node"><title>Node4</title>
<a xlink:href="classZendDbSchema__Db__Schema__AbstractSchema.html#ac4e121ba7932163eb1950fabe06fb9db" target="_top" xlink:title="ZendDbSchema_Db_Schema_AbstractSchema\\__isset">
<polygon fill="white" stroke="black" points="1326.5,-180.5 1326.5,-201.5 1585.5,-201.5 1585.5,-180.5 1326.5,-180.5"/>
<text text-anchor="middle" x="1456" y="-188.5" font-family="Helvetica,sans-Serif" font-size="10.00">ZendDbSchema_Db_Schema_AbstractSchema\__isset</text>
</a>
</g>
<!-- Node2&#45;&gt;Node4 -->
<g id="edge6" class="edge"><title>Node2&#45;&gt;Node4</title>
<path fill="none" stroke="midnightblue" d="M930.039,-207.084C1041.13,-203.687 1201.64,-198.779 1316.08,-195.279"/>
<polygon fill="midnightblue" stroke="midnightblue" points="1316.42,-198.77 1326.31,-194.966 1316.21,-191.773 1316.42,-198.77"/>
</g>
<!-- Node5 -->
<g id="node9" class="node"><title>Node5</title>
<a xlink:href="classZendDbSchema__Db__Schema__AbstractSchema.html#a54d32c6f15463eaad2321a9f0e7225d7" target="_top" xlink:title="ZendDbSchema_Db_Schema_AbstractSchema\\__get">
<polygon fill="white" stroke="black" points="1013.5,-161.5 1013.5,-182.5 1264.5,-182.5 1264.5,-161.5 1013.5,-161.5"/>
<text text-anchor="middle" x="1139" y="-169.5" font-family="Helvetica,sans-Serif" font-size="10.00">ZendDbSchema_Db_Schema_AbstractSchema\__get</text>
</a>
</g>
<!-- Node2&#45;&gt;Node5 -->
<g id="edge8" class="edge"><title>Node2&#45;&gt;Node5</title>
<path fill="none" stroke="midnightblue" d="M892.753,-200.497C937.614,-195.306 991.892,-189.024 1038.06,-183.681"/>
<polygon fill="midnightblue" stroke="midnightblue" points="1038.55,-187.148 1048.08,-182.521 1037.75,-180.194 1038.55,-187.148"/>
</g>
<!-- Node5&#45;&gt;Node4 -->
<g id="edge10" class="edge"><title>Node5&#45;&gt;Node4</title>
<path fill="none" stroke="midnightblue" d="M1264.74,-179.537C1281.65,-180.55 1299.08,-181.594 1316.21,-182.621"/>
<polygon fill="midnightblue" stroke="midnightblue" points="1316.06,-186.119 1326.25,-183.223 1316.48,-179.131 1316.06,-186.119"/>
</g>
<!-- Node8 -->
<g id="node16" class="node"><title>Node8</title>
<a xlink:href="classZendDbSchema__Db__Schema__AbstractSchema.html#a47d95912f6bf6d26d023597887dafacb" target="_top" xlink:title="ZendDbSchema_Db_Schema_AbstractSchema\\getAdapter">
<polygon fill="white" stroke="black" points="664.5,-40.5 664.5,-61.5 939.5,-61.5 939.5,-40.5 664.5,-40.5"/>
<text text-anchor="middle" x="802" y="-48.5" font-family="Helvetica,sans-Serif" font-size="10.00">ZendDbSchema_Db_Schema_AbstractSchema\getAdapter</text>
</a>
</g>
<!-- Node7&#45;&gt;Node8 -->
<g id="edge16" class="edge"><title>Node7&#45;&gt;Node8</title>
<path fill="none" stroke="midnightblue" d="M601.763,-57.4783C619.064,-56.9185 636.797,-56.3448 654.214,-55.7813"/>
<polygon fill="midnightblue" stroke="midnightblue" points="654.544,-59.2726 664.426,-55.4509 654.318,-52.2762 654.544,-59.2726"/>
</g>
<!-- Node9 -->
<g id="node18" class="node"><title>Node9</title>
<a xlink:href="classZendDbSchema__Db__Schema__AbstractSchema.html#a6349649e5e09d67a5b5e0abe96298db8" target="_top" xlink:title="ZendDbSchema_Db_Schema_AbstractSchema\\setAdapter">
<polygon fill="white" stroke="black" points="1001.5,-40.5 1001.5,-61.5 1276.5,-61.5 1276.5,-40.5 1001.5,-40.5"/>
<text text-anchor="middle" x="1139" y="-48.5" font-family="Helvetica,sans-Serif" font-size="10.00">ZendDbSchema_Db_Schema_AbstractSchema\setAdapter</text>
</a>
</g>
<!-- Node8&#45;&gt;Node9 -->
<g id="edge18" class="edge"><title>Node8&#45;&gt;Node9</title>
<path fill="none" stroke="midnightblue" d="M939.557,-51C956.597,-51 974.074,-51 991.258,-51"/>
<polygon fill="midnightblue" stroke="midnightblue" points="991.337,-54.5001 1001.34,-51 991.337,-47.5001 991.337,-54.5001"/>
</g>
<!-- Node10 -->
<g id="node20" class="node"><title>Node10</title>
<a xlink:href="classZendDbSchema__Db__Schema__AbstractSchema.html#a53a1974dbc8822792a8d7b9c618d3a02" target="_top" xlink:title="ZendDbSchema_Db_Schema_AbstractSchema\\setGenerator">
<polygon fill="white" stroke="black" points="1314,-80.5 1314,-101.5 1598,-101.5 1598,-80.5 1314,-80.5"/>
<text text-anchor="middle" x="1456" y="-88.5" font-family="Helvetica,sans-Serif" font-size="10.00">ZendDbSchema_Db_Schema_AbstractSchema\setGenerator</text>
</a>
</g>
<!-- Node9&#45;&gt;Node10 -->
<g id="edge20" class="edge"><title>Node9&#45;&gt;Node10</title>
<path fill="none" stroke="midnightblue" d="M1222.29,-61.5095C1265.44,-66.954 1318.26,-73.6199 1362.77,-79.236"/>
<polygon fill="midnightblue" stroke="midnightblue" points="1362.36,-82.7118 1372.72,-80.4913 1363.24,-75.7668 1362.36,-82.7118"/>
</g>
<!-- Node11 -->
<g id="node22" class="node"><title>Node11</title>
<a xlink:href="classZendDbSchema__Db__Schema__AbstractSchema.html#aa0e6c9f8d58702dc41d988f064f62698" target="_top" xlink:title="ZendDbSchema_Db_Schema_AbstractSchema\\setParser">
<polygon fill="white" stroke="black" points="1321.5,-40.5 1321.5,-61.5 1590.5,-61.5 1590.5,-40.5 1321.5,-40.5"/>
<text text-anchor="middle" x="1456" y="-48.5" font-family="Helvetica,sans-Serif" font-size="10.00">ZendDbSchema_Db_Schema_AbstractSchema\setParser</text>
</a>
</g>
<!-- Node9&#45;&gt;Node11 -->
<g id="edge22" class="edge"><title>Node9&#45;&gt;Node11</title>
<path fill="none" stroke="midnightblue" d="M1276.66,-51C1288.16,-51 1299.81,-51 1311.36,-51"/>
<polygon fill="midnightblue" stroke="midnightblue" points="1311.48,-54.5001 1321.48,-51 1311.48,-47.5001 1311.48,-54.5001"/>
</g>
<!-- Node12 -->
<g id="node24" class="node"><title>Node12</title>
<a xlink:href="classZendDbSchema__Db__Schema__AbstractSchema.html#ac0161e2c24dafba8433fb86205a147fe" target="_top" xlink:title="ZendDbSchema_Db_Schema_AbstractSchema\\setValidator">
<polygon fill="white" stroke="black" points="1316.5,-0.5 1316.5,-21.5 1595.5,-21.5 1595.5,-0.5 1316.5,-0.5"/>
<text text-anchor="middle" x="1456" y="-8.5" font-family="Helvetica,sans-Serif" font-size="10.00">ZendDbSchema_Db_Schema_AbstractSchema\setValidator</text>
</a>
</g>
<!-- Node9&#45;&gt;Node12 -->
<g id="edge24" class="edge"><title>Node9&#45;&gt;Node12</title>
<path fill="none" stroke="midnightblue" d="M1222.29,-40.4905C1265.44,-35.046 1318.26,-28.3801 1362.77,-22.764"/>
<polygon fill="midnightblue" stroke="midnightblue" points="1363.24,-26.2332 1372.72,-21.5087 1362.36,-19.2882 1363.24,-26.2332"/>
</g>
<!-- Node13&#45;&gt;Node2 -->
<g id="edge30" class="edge"><title>Node13&#45;&gt;Node2</title>
<path fill="none" stroke="midnightblue" d="M551.331,-181.51C597.803,-186.977 654.746,-193.676 702.608,-199.307"/>
<polygon fill="midnightblue" stroke="midnightblue" points="702.335,-202.799 712.676,-200.491 703.153,-195.847 702.335,-202.799"/>
</g>
<!-- Node13&#45;&gt;Node6 -->
<g id="edge28" class="edge"><title>Node13&#45;&gt;Node6</title>
<path fill="none" stroke="midnightblue" d="M525.862,-160.445C550.912,-154.986 579.473,-147.081 604,-136 621.752,-127.98 621.803,-117.952 640,-111 646.825,-108.393 653.918,-106.108 661.157,-104.107"/>
<polygon fill="midnightblue" stroke="midnightblue" points="662.291,-107.429 671.106,-101.55 660.549,-100.649 662.291,-107.429"/>
</g>
<!-- Node13&#45;&gt;Node14 -->
<g id="edge32" class="edge"><title>Node13&#45;&gt;Node14</title>
<path fill="none" stroke="midnightblue" d="M487.765,-181.528C521.967,-195.074 584.515,-218.361 640,-231 653.582,-234.094 667.921,-236.737 682.226,-238.989"/>
<polygon fill="midnightblue" stroke="midnightblue" points="681.703,-242.449 692.114,-240.486 682.751,-235.528 681.703,-242.449"/>
</g>
<!-- Node15 -->
<g id="node33" class="node"><title>Node15</title>
<a xlink:href="classZendDbSchema__Db__Schema__Table__AbstractDefinition.html#aaf5c89fcaf7c81e315cd3acae99632d9" target="_top" xlink:title="ZendDbSchema_Db_Schema_Table_AbstractDefinition\\_getAlterSql">
<polygon fill="white" stroke="black" points="644.5,-160.5 644.5,-181.5 959.5,-181.5 959.5,-160.5 644.5,-160.5"/>
<text text-anchor="middle" x="802" y="-168.5" font-family="Helvetica,sans-Serif" font-size="10.00">ZendDbSchema_Db_Schema_Table_AbstractDefinition\_getAlterSql</text>
</a>
</g>
<!-- Node13&#45;&gt;Node15 -->
<g id="edge36" class="edge"><title>Node13&#45;&gt;Node15</title>
<path fill="none" stroke="midnightblue" d="M604.221,-171C614.183,-171 624.277,-171 634.36,-171"/>
<polygon fill="midnightblue" stroke="midnightblue" points="634.434,-174.5 644.434,-171 634.433,-167.5 634.434,-174.5"/>
</g>
<!-- Node16 -->
<g id="node35" class="node"><title>Node16</title>
<a xlink:href="classZendDbSchema__Db__Schema__Table__AbstractDefinition.html#adf61da07bca76f392ba8e0c65b4cc507" target="_top" xlink:title="ZendDbSchema_Db_Schema_Table_AbstractDefinition\\_getCreateSql">
<polygon fill="white" stroke="black" points="640,-120.5 640,-141.5 964,-141.5 964,-120.5 640,-120.5"/>
<text text-anchor="middle" x="802" y="-128.5" font-family="Helvetica,sans-Serif" font-size="10.00">ZendDbSchema_Db_Schema_Table_AbstractDefinition\_getCreateSql</text>
</a>
</g>
<!-- Node13&#45;&gt;Node16 -->
<g id="edge38" class="edge"><title>Node13&#45;&gt;Node16</title>
<path fill="none" stroke="midnightblue" d="M551.331,-160.49C597.803,-155.023 654.746,-148.324 702.608,-142.693"/>
<polygon fill="midnightblue" stroke="midnightblue" points="703.153,-146.153 712.676,-141.509 702.335,-139.201 703.153,-146.153"/>
</g>
<!-- Node14&#45;&gt;Node3 -->
<g id="edge34" class="edge"><title>Node14&#45;&gt;Node3</title>
<path fill="none" stroke="midnightblue" d="M930.848,-250.618C950.32,-250.56 970.541,-250.5 990.389,-250.441"/>
<polygon fill="midnightblue" stroke="midnightblue" points="990.422,-253.941 1000.41,-250.411 990.401,-246.941 990.422,-253.941"/>
</g>
</g>
</svg>
