<?xml version="1.0" encoding="UTF-8" standalone="no"?>
<!DOCTYPE svg PUBLIC "-//W3C//DTD SVG 1.1//EN"
 "http://www.w3.org/Graphics/SVG/1.1/DTD/svg11.dtd">
<!-- Generated by graphviz version 2.26.3 (20100126.1600)
 -->
<!-- Title: G Pages: 1 -->
<svg width="360pt" height="94pt"
 viewBox="0.00 0.00 360.00 94.00" xmlns="http://www.w3.org/2000/svg" xmlns:xlink="http://www.w3.org/1999/xlink">
<g id="graph1" class="graph" transform="scale(1 1) rotate(0) translate(4 90)">
<title>G</title>
<polygon fill="white" stroke="white" points="-4,5 -4,-90 357,-90 357,5 -4,5"/>
<!-- Node1 -->
<g id="node1" class="node"><title>Node1</title>
<polygon fill="#bfbfbf" stroke="black" points="0,-26 0,-60 150,-60 150,-26 0,-26"/>
<text text-anchor="start" x="8" y="-47" font-family="Helvetica,sans-Serif" font-size="10.00">ZendDbSchema_Db_Migration</text>
<text text-anchor="middle" x="75" y="-34" font-family="Helvetica,sans-Serif" font-size="10.00">_Skeleton\getAdapter</text>
</g>
<!-- Node2 -->
<g id="node3" class="node"><title>Node2</title>
<a xlink:href="classZendDbSchema__Db__Schema__AbstractEntity.html#aeeb617d5d385796ccbe95e0aa85cf491" target="_top" xlink:title="ZendDbSchema_Db_Schema\l_AbstractEntity\\getDefaultAdapter">
<polygon fill="white" stroke="black" points="186,-52 186,-86 352,-86 352,-52 186,-52"/>
<text text-anchor="start" x="194" y="-73" font-family="Helvetica,sans-Serif" font-size="10.00">ZendDbSchema_Db_Schema</text>
<text text-anchor="middle" x="269" y="-60" font-family="Helvetica,sans-Serif" font-size="10.00">_AbstractEntity\getDefaultAdapter</text>
</a>
</g>
<!-- Node1&#45;&gt;Node2 -->
<g id="edge2" class="edge"><title>Node1&#45;&gt;Node2</title>
<path fill="none" stroke="midnightblue" d="M150.005,-53.0523C158.435,-54.1821 167.099,-55.3432 175.724,-56.4991"/>
<polygon fill="midnightblue" stroke="midnightblue" points="175.438,-59.9919 185.814,-57.8514 176.368,-53.054 175.438,-59.9919"/>
</g>
<!-- Node3 -->
<g id="node5" class="node"><title>Node3</title>
<a xlink:href="classZendDbSchema__Db__Migration__Skeleton.html#aa36d3a36801a4fe2dc5369f4fe68a516" target="_top" xlink:title="ZendDbSchema_Db_Migration\l_Skeleton\\setAdapter">
<polygon fill="white" stroke="black" points="194,-0 194,-34 344,-34 344,-0 194,-0"/>
<text text-anchor="start" x="202" y="-21" font-family="Helvetica,sans-Serif" font-size="10.00">ZendDbSchema_Db_Migration</text>
<text text-anchor="middle" x="269" y="-8" font-family="Helvetica,sans-Serif" font-size="10.00">_Skeleton\setAdapter</text>
</a>
</g>
<!-- Node1&#45;&gt;Node3 -->
<g id="edge4" class="edge"><title>Node1&#45;&gt;Node3</title>
<path fill="none" stroke="midnightblue" d="M150.005,-32.9477C161.026,-31.4707 172.447,-29.9402 183.656,-28.4378"/>
<polygon fill="midnightblue" stroke="midnightblue" points="184.428,-31.8658 193.874,-27.0684 183.498,-24.9278 184.428,-31.8658"/>
</g>
</g>
</svg>
