<?xml version="1.0" encoding="UTF-8" standalone="no"?>
<!DOCTYPE svg PUBLIC "-//W3C//DTD SVG 1.1//EN"
 "http://www.w3.org/Graphics/SVG/1.1/DTD/svg11.dtd">
<!-- Generated by graphviz version 2.26.3 (20100126.1600)
 -->
<!-- Title: G Pages: 1 -->
<svg width="1644pt" height="1250pt"
 viewBox="0.00 0.00 1644.00 1250.00" xmlns="http://www.w3.org/2000/svg" xmlns:xlink="http://www.w3.org/1999/xlink">
<g id="graph1" class="graph" transform="scale(1 1) rotate(0) translate(4 1246)">
<title>G</title>
<polygon fill="white" stroke="white" points="-4,5 -4,-1246 1641,-1246 1641,5 -4,5"/>
<!-- Node1 -->
<g id="node1" class="node"><title>Node1</title>
<polygon fill="#bfbfbf" stroke="black" points="0.5,-1020.5 0.5,-1041.5 275.5,-1041.5 275.5,-1020.5 0.5,-1020.5"/>
<text text-anchor="middle" x="138" y="-1028.5" font-family="Helvetica,sans-Serif" font-size="10.00">ZendDbSchema_Db_Schema_AbstractSchema\getAdapter</text>
</g>
<!-- Node2 -->
<g id="node3" class="node"><title>Node2</title>
<a xlink:href="classZendDbSchema__Db__Schema__Database.html#a5fec6a5dbc863948512354d9cee4b7f0" target="_top" xlink:title="ZendDbSchema_Db_Schema_Database\\_doDelete">
<polygon fill="white" stroke="black" points="341.5,-1177.5 341.5,-1198.5 582.5,-1198.5 582.5,-1177.5 341.5,-1177.5"/>
<text text-anchor="middle" x="462" y="-1185.5" font-family="Helvetica,sans-Serif" font-size="10.00">ZendDbSchema_Db_Schema_Database\_doDelete</text>
</a>
</g>
<!-- Node1&#45;&gt;Node2 -->
<g id="edge2" class="edge"><title>Node1&#45;&gt;Node2</title>
<path fill="none" stroke="midnightblue" d="M154.551,-1049.26C183.278,-1079.64 245.677,-1139.98 312,-1168 321.317,-1171.94 331.225,-1175.14 341.334,-1177.75"/>
<polygon fill="midnightblue" stroke="midnightblue" points="157.054,-1046.82 147.678,-1041.88 151.931,-1051.59 157.054,-1046.82"/>
</g>
<!-- Node3 -->
<g id="node5" class="node"><title>Node3</title>
<a xlink:href="classZendDbSchema__Db__Schema__Table.html#a2870bcdf57c17db72028f4e67a583fff" target="_top" xlink:title="ZendDbSchema_Db_Schema_Table\\_doDelete">
<polygon fill="white" stroke="black" points="350.5,-1137.5 350.5,-1158.5 573.5,-1158.5 573.5,-1137.5 350.5,-1137.5"/>
<text text-anchor="middle" x="462" y="-1145.5" font-family="Helvetica,sans-Serif" font-size="10.00">ZendDbSchema_Db_Schema_Table\_doDelete</text>
</a>
</g>
<!-- Node1&#45;&gt;Node3 -->
<g id="edge4" class="edge"><title>Node1&#45;&gt;Node3</title>
<path fill="none" stroke="midnightblue" d="M162.452,-1047.2C195.125,-1068.07 255.48,-1103.91 312,-1123 330.384,-1129.21 350.576,-1133.91 370.023,-1137.47"/>
<polygon fill="midnightblue" stroke="midnightblue" points="164.296,-1044.23 153.997,-1041.74 160.498,-1050.11 164.296,-1044.23"/>
</g>
<!-- Node4 -->
<g id="node7" class="node"><title>Node4</title>
<a xlink:href="classZendDbSchema__Db__Schema__Database.html#aad388b374fd5913946204230760b2d86" target="_top" xlink:title="ZendDbSchema_Db_Schema_Database\\_doReload">
<polygon fill="white" stroke="black" points="675.5,-1220.5 675.5,-1241.5 918.5,-1241.5 918.5,-1220.5 675.5,-1220.5"/>
<text text-anchor="middle" x="797" y="-1228.5" font-family="Helvetica,sans-Serif" font-size="10.00">ZendDbSchema_Db_Schema_Database\_doReload</text>
</a>
</g>
<!-- Node1&#45;&gt;Node4 -->
<g id="edge6" class="edge"><title>Node1&#45;&gt;Node4</title>
<path fill="none" stroke="midnightblue" d="M173.441,-1045.37C208.18,-1058.88 262.916,-1078.69 312,-1090 377.484,-1105.09 558.251,-1087.67 612,-1128 644.161,-1152.13 615.929,-1186.75 648,-1211 656.223,-1217.22 665.456,-1221.99 675.191,-1225.62"/>
<polygon fill="midnightblue" stroke="midnightblue" points="174.35,-1041.96 163.763,-1041.56 171.789,-1048.48 174.35,-1041.96"/>
</g>
<!-- Node5 -->
<g id="node9" class="node"><title>Node5</title>
<a xlink:href="classZendDbSchema__Db__Schema__Table.html#abc05b1f219611fefdd0e9eaeff1761d9" target="_top" xlink:title="ZendDbSchema_Db_Schema_Table\\_doReload">
<polygon fill="white" stroke="black" points="684.5,-1180.5 684.5,-1201.5 909.5,-1201.5 909.5,-1180.5 684.5,-1180.5"/>
<text text-anchor="middle" x="797" y="-1188.5" font-family="Helvetica,sans-Serif" font-size="10.00">ZendDbSchema_Db_Schema_Table\_doReload</text>
</a>
</g>
<!-- Node1&#45;&gt;Node5 -->
<g id="edge8" class="edge"><title>Node1&#45;&gt;Node5</title>
<path fill="none" stroke="midnightblue" d="M181.362,-1017.74C272.028,-992.895 483.839,-950.361 612,-1050 656.296,-1084.44 605.36,-1134.53 648,-1171 658.513,-1179.99 671.059,-1186.12 684.346,-1190.18"/>
<polygon fill="midnightblue" stroke="midnightblue" points="180.372,-1014.38 171.687,-1020.45 182.261,-1021.12 180.372,-1014.38"/>
</g>
<!-- Node6 -->
<g id="node11" class="node"><title>Node6</title>
<a xlink:href="classZendDbSchema__Db__Schema__AbstractSchema.html#a5696bfca3324b0dfbdf3c10d224f5759" target="_top" xlink:title="ZendDbSchema_Db_Schema_AbstractSchema\\getGenerator">
<polygon fill="white" stroke="black" points="320,-860.5 320,-881.5 604,-881.5 604,-860.5 320,-860.5"/>
<text text-anchor="middle" x="462" y="-868.5" font-family="Helvetica,sans-Serif" font-size="10.00">ZendDbSchema_Db_Schema_AbstractSchema\getGenerator</text>
</a>
</g>
<!-- Node1&#45;&gt;Node6 -->
<g id="edge10" class="edge"><title>Node1&#45;&gt;Node6</title>
<path fill="none" stroke="midnightblue" d="M168.867,-1015.76C234.172,-983.508 384.898,-909.075 440.71,-881.514"/>
<polygon fill="midnightblue" stroke="midnightblue" points="166.926,-1012.81 159.509,-1020.38 170.026,-1019.09 166.926,-1012.81"/>
</g>
<!-- Node23 -->
<g id="node45" class="node"><title>Node23</title>
<a xlink:href="classZendDbSchema__Db__Schema__AbstractSchema.html#adda416f89a3cc16bd28d90b14036b63d" target="_top" xlink:title="ZendDbSchema_Db_Schema_AbstractSchema\\getParser">
<polygon fill="white" stroke="black" points="327.5,-1059.5 327.5,-1080.5 596.5,-1080.5 596.5,-1059.5 327.5,-1059.5"/>
<text text-anchor="middle" x="462" y="-1067.5" font-family="Helvetica,sans-Serif" font-size="10.00">ZendDbSchema_Db_Schema_AbstractSchema\getParser</text>
</a>
</g>
<!-- Node1&#45;&gt;Node23 -->
<g id="edge44" class="edge"><title>Node1&#45;&gt;Node23</title>
<path fill="none" stroke="midnightblue" d="M235.444,-1042.73C279.692,-1048.06 331.621,-1054.31 374.592,-1059.48"/>
<polygon fill="midnightblue" stroke="midnightblue" points="235.599,-1039.22 225.252,-1041.5 234.762,-1046.17 235.599,-1039.22"/>
</g>
<!-- Node24 -->
<g id="node49" class="node"><title>Node24</title>
<a xlink:href="classZendDbSchema__Db__Schema__AbstractSchema.html#afda46eab0c365f4c9a743b7185c51d6c" target="_top" xlink:title="ZendDbSchema_Db_Schema_AbstractSchema\\getValidator">
<polygon fill="white" stroke="black" points="322.5,-500.5 322.5,-521.5 601.5,-521.5 601.5,-500.5 322.5,-500.5"/>
<text text-anchor="middle" x="462" y="-508.5" font-family="Helvetica,sans-Serif" font-size="10.00">ZendDbSchema_Db_Schema_AbstractSchema\getValidator</text>
</a>
</g>
<!-- Node1&#45;&gt;Node24 -->
<g id="edge50" class="edge"><title>Node1&#45;&gt;Node24</title>
<path fill="none" stroke="midnightblue" d="M150.203,-1011.41C203.473,-925.919 414.774,-586.795 455.27,-521.801"/>
<polygon fill="midnightblue" stroke="midnightblue" points="147.085,-1009.8 144.767,-1020.14 153.026,-1013.5 147.085,-1009.8"/>
</g>
<!-- Node49 -->
<g id="node103" class="node"><title>Node49</title>
<a xlink:href="classZendDbSchema__Db__Schema__Validator__Mysql.html#ab77a7fe20e34115d4b2679521b8918c0" target="_top" xlink:title="ZendDbSchema_Db_Schema_Validator_Mysql\\validateDatabase">
<polygon fill="white" stroke="black" points="312,-460.5 312,-481.5 612,-481.5 612,-460.5 312,-460.5"/>
<text text-anchor="middle" x="462" y="-468.5" font-family="Helvetica,sans-Serif" font-size="10.00">ZendDbSchema_Db_Schema_Validator_Mysql\validateDatabase</text>
</a>
</g>
<!-- Node1&#45;&gt;Node49 -->
<g id="edge108" class="edge"><title>Node1&#45;&gt;Node49</title>
<path fill="none" stroke="midnightblue" d="M141.629,-1010.44C157.96,-920.327 227.539,-561.538 312,-491 316.235,-487.463 320.784,-484.373 325.568,-481.678"/>
<polygon fill="midnightblue" stroke="midnightblue" points="138.147,-1010.03 139.828,-1020.49 145.038,-1011.26 138.147,-1010.03"/>
</g>
<!-- Node50 -->
<g id="node105" class="node"><title>Node50</title>
<a xlink:href="classZendDbSchema__Db__Schema__Validator__Mysql.html#a0c68fa05f88c3a6f603b04709133ef68" target="_top" xlink:title="ZendDbSchema_Db_Schema_Validator_Mysql\\validateTable">
<polygon fill="white" stroke="black" points="321,-420.5 321,-441.5 603,-441.5 603,-420.5 321,-420.5"/>
<text text-anchor="middle" x="462" y="-428.5" font-family="Helvetica,sans-Serif" font-size="10.00">ZendDbSchema_Db_Schema_Validator_Mysql\validateTable</text>
</a>
</g>
<!-- Node1&#45;&gt;Node50 -->
<g id="edge110" class="edge"><title>Node1&#45;&gt;Node50</title>
<path fill="none" stroke="midnightblue" d="M141.2,-1010.14C156.157,-915.469 222.246,-527.516 312,-451 316.199,-447.421 320.718,-444.294 325.476,-441.57"/>
<polygon fill="midnightblue" stroke="midnightblue" points="137.716,-1009.77 139.632,-1020.19 144.632,-1010.85 137.716,-1009.77"/>
</g>
<!-- Node7 -->
<g id="node13" class="node"><title>Node7</title>
<a xlink:href="classZendDbSchema__Db__Schema__Database.html#a4f5a636c4e7d8ab57f6e090cdf8841dc" target="_top" xlink:title="ZendDbSchema_Db_Schema_Database\\_getAlterSql">
<polygon fill="white" stroke="black" points="672,-900.5 672,-921.5 922,-921.5 922,-900.5 672,-900.5"/>
<text text-anchor="middle" x="797" y="-908.5" font-family="Helvetica,sans-Serif" font-size="10.00">ZendDbSchema_Db_Schema_Database\_getAlterSql</text>
</a>
</g>
<!-- Node6&#45;&gt;Node7 -->
<g id="edge12" class="edge"><title>Node6&#45;&gt;Node7</title>
<path fill="none" stroke="midnightblue" d="M560.234,-882.729C607.331,-888.353 663.298,-895.036 708.99,-900.491"/>
<polygon fill="midnightblue" stroke="midnightblue" points="560.362,-879.22 550.017,-881.51 559.532,-886.171 560.362,-879.22"/>
</g>
<!-- Node8 -->
<g id="node15" class="node"><title>Node8</title>
<a xlink:href="classZendDbSchema__Db__Schema__Database.html#a48ad6cd38cc07c3c350335d21d7c11e9" target="_top" xlink:title="ZendDbSchema_Db_Schema_Database\\_getCreateSql">
<polygon fill="white" stroke="black" points="667.5,-860.5 667.5,-881.5 926.5,-881.5 926.5,-860.5 667.5,-860.5"/>
<text text-anchor="middle" x="797" y="-868.5" font-family="Helvetica,sans-Serif" font-size="10.00">ZendDbSchema_Db_Schema_Database\_getCreateSql</text>
</a>
</g>
<!-- Node6&#45;&gt;Node8 -->
<g id="edge14" class="edge"><title>Node6&#45;&gt;Node8</title>
<path fill="none" stroke="midnightblue" d="M614.465,-871C632.175,-871 650.111,-871 667.473,-871"/>
<polygon fill="midnightblue" stroke="midnightblue" points="614.07,-867.5 604.07,-871 614.07,-874.5 614.07,-867.5"/>
</g>
<!-- Node9 -->
<g id="node17" class="node"><title>Node9</title>
<a xlink:href="classZendDbSchema__Db__Schema__Table.html#a385e32fefac9fd4c6e4274c1e0c0b810" target="_top" xlink:title="ZendDbSchema_Db_Schema_Table\\_getAlterSql">
<polygon fill="white" stroke="black" points="681,-820.5 681,-841.5 913,-841.5 913,-820.5 681,-820.5"/>
<text text-anchor="middle" x="797" y="-828.5" font-family="Helvetica,sans-Serif" font-size="10.00">ZendDbSchema_Db_Schema_Table\_getAlterSql</text>
</a>
</g>
<!-- Node6&#45;&gt;Node9 -->
<g id="edge16" class="edge"><title>Node6&#45;&gt;Node9</title>
<path fill="none" stroke="midnightblue" d="M560.234,-859.271C607.331,-853.647 663.298,-846.964 708.99,-841.509"/>
<polygon fill="midnightblue" stroke="midnightblue" points="559.532,-855.829 550.017,-860.49 560.362,-862.78 559.532,-855.829"/>
</g>
<!-- Node10 -->
<g id="node19" class="node"><title>Node10</title>
<a xlink:href="classZendDbSchema__Db__Schema__Table.html#aefb813dece15a26017e580acc64e3406" target="_top" xlink:title="ZendDbSchema_Db_Schema_Table\\_getCreateSql">
<polygon fill="white" stroke="black" points="676.5,-780.5 676.5,-801.5 917.5,-801.5 917.5,-780.5 676.5,-780.5"/>
<text text-anchor="middle" x="797" y="-788.5" font-family="Helvetica,sans-Serif" font-size="10.00">ZendDbSchema_Db_Schema_Table\_getCreateSql</text>
</a>
</g>
<!-- Node6&#45;&gt;Node10 -->
<g id="edge18" class="edge"><title>Node6&#45;&gt;Node10</title>
<path fill="none" stroke="midnightblue" d="M498.705,-857.005C535.836,-843.362 595.143,-822.972 648,-811 664.546,-807.252 682.295,-804.119 699.571,-801.528"/>
<polygon fill="midnightblue" stroke="midnightblue" points="497.463,-853.733 489.302,-860.49 499.895,-860.296 497.463,-853.733"/>
</g>
<!-- Node11 -->
<g id="node21" class="node"><title>Node11</title>
<a xlink:href="classZendDbSchema__Db__Schema__Table__Column.html#a9b1cc87143098c64df381066af91222c" target="_top" xlink:title="ZendDbSchema_Db_Schema_Table_Column\\_getDeleteSql">
<polygon fill="white" stroke="black" points="657.5,-740.5 657.5,-761.5 936.5,-761.5 936.5,-740.5 657.5,-740.5"/>
<text text-anchor="middle" x="797" y="-748.5" font-family="Helvetica,sans-Serif" font-size="10.00">ZendDbSchema_Db_Schema_Table_Column\_getDeleteSql</text>
</a>
</g>
<!-- Node6&#45;&gt;Node11 -->
<g id="edge20" class="edge"><title>Node6&#45;&gt;Node11</title>
<path fill="none" stroke="midnightblue" d="M485.413,-854.794C519.505,-832.062 585.568,-791.231 648,-771 659.918,-767.138 672.605,-764.021 685.354,-761.506"/>
<polygon fill="midnightblue" stroke="midnightblue" points="483.397,-851.932 477.065,-860.426 487.312,-857.734 483.397,-851.932"/>
</g>
<!-- Node12 -->
<g id="node23" class="node"><title>Node12</title>
<a xlink:href="classZendDbSchema__Db__Schema__Table__Column.html#ae49fb9ae5b0f6d6258dc71f644e00991" target="_top" xlink:title="ZendDbSchema_Db_Schema_Table_Column\\_getAlterSql">
<polygon fill="white" stroke="black" points="661.5,-700.5 661.5,-721.5 932.5,-721.5 932.5,-700.5 661.5,-700.5"/>
<text text-anchor="middle" x="797" y="-708.5" font-family="Helvetica,sans-Serif" font-size="10.00">ZendDbSchema_Db_Schema_Table_Column\_getAlterSql</text>
</a>
</g>
<!-- Node6&#45;&gt;Node12 -->
<g id="edge22" class="edge"><title>Node6&#45;&gt;Node12</title>
<path fill="none" stroke="midnightblue" d="M479.429,-852.809C510.212,-821.946 577.634,-759.869 648,-731 657.297,-727.186 667.167,-724.067 677.228,-721.52"/>
<polygon fill="midnightblue" stroke="midnightblue" points="476.591,-850.703 472.078,-860.289 481.583,-855.61 476.591,-850.703"/>
</g>
<!-- Node13 -->
<g id="node25" class="node"><title>Node13</title>
<a xlink:href="classZendDbSchema__Db__Schema__Table__Column.html#a2312222bd78d06775dacb19b92638b69" target="_top" xlink:title="ZendDbSchema_Db_Schema_Table_Column\\_getCreateSql">
<polygon fill="white" stroke="black" points="657,-660.5 657,-681.5 937,-681.5 937,-660.5 657,-660.5"/>
<text text-anchor="middle" x="797" y="-668.5" font-family="Helvetica,sans-Serif" font-size="10.00">ZendDbSchema_Db_Schema_Table_Column\_getCreateSql</text>
</a>
</g>
<!-- Node6&#45;&gt;Node13 -->
<g id="edge24" class="edge"><title>Node6&#45;&gt;Node13</title>
<path fill="none" stroke="midnightblue" d="M475.075,-851.918C502.268,-813.943 569.006,-729.277 648,-691 655.751,-687.244 663.98,-684.124 672.434,-681.539"/>
<polygon fill="midnightblue" stroke="midnightblue" points="472.207,-849.911 469.312,-860.102 477.931,-853.941 472.207,-849.911"/>
</g>
<!-- Node14 -->
<g id="node27" class="node"><title>Node14</title>
<a xlink:href="classZendDbSchema__Db__Schema__Table__ForeignKey.html#acc96fbb08d8271259f56bd77c37f2da4" target="_top" xlink:title="ZendDbSchema_Db_Schema_Table_ForeignKey\\_getDeleteSql">
<polygon fill="white" stroke="black" points="649.5,-620.5 649.5,-641.5 944.5,-641.5 944.5,-620.5 649.5,-620.5"/>
<text text-anchor="middle" x="797" y="-628.5" font-family="Helvetica,sans-Serif" font-size="10.00">ZendDbSchema_Db_Schema_Table_ForeignKey\_getDeleteSql</text>
</a>
</g>
<!-- Node6&#45;&gt;Node14 -->
<g id="edge26" class="edge"><title>Node6&#45;&gt;Node14</title>
<path fill="none" stroke="midnightblue" d="M471.924,-851.464C495.572,-807.177 559.915,-699.257 648,-651 654.753,-647.301 661.927,-644.188 669.338,-641.577"/>
<polygon fill="midnightblue" stroke="midnightblue" points="468.801,-849.884 467.265,-860.367 475.003,-853.13 468.801,-849.884"/>
</g>
<!-- Node15 -->
<g id="node29" class="node"><title>Node15</title>
<a xlink:href="classZendDbSchema__Db__Schema__Table__ForeignKey.html#ae7cb55b4ec471ccb54ef38ef4bb33558" target="_top" xlink:title="ZendDbSchema_Db_Schema_Table_ForeignKey\\_getAlterSql">
<polygon fill="white" stroke="black" points="653.5,-580.5 653.5,-601.5 940.5,-601.5 940.5,-580.5 653.5,-580.5"/>
<text text-anchor="middle" x="797" y="-588.5" font-family="Helvetica,sans-Serif" font-size="10.00">ZendDbSchema_Db_Schema_Table_ForeignKey\_getAlterSql</text>
</a>
</g>
<!-- Node6&#45;&gt;Node15 -->
<g id="edge28" class="edge"><title>Node6&#45;&gt;Node15</title>
<path fill="none" stroke="midnightblue" d="M469.62,-851.083C489.928,-800.998 550.545,-669.633 648,-611 654.15,-607.3 660.698,-604.164 667.488,-601.513"/>
<polygon fill="midnightblue" stroke="midnightblue" points="466.326,-849.895 465.899,-860.481 472.834,-852.471 466.326,-849.895"/>
</g>
<!-- Node16 -->
<g id="node31" class="node"><title>Node16</title>
<a xlink:href="classZendDbSchema__Db__Schema__Table__ForeignKey.html#a8b8ab754bf3b5bcda1e8c70e83a6b7b9" target="_top" xlink:title="ZendDbSchema_Db_Schema_Table_ForeignKey\\_getCreateSql">
<polygon fill="white" stroke="black" points="649,-540.5 649,-561.5 945,-561.5 945,-540.5 649,-540.5"/>
<text text-anchor="middle" x="797" y="-548.5" font-family="Helvetica,sans-Serif" font-size="10.00">ZendDbSchema_Db_Schema_Table_ForeignKey\_getCreateSql</text>
</a>
</g>
<!-- Node6&#45;&gt;Node16 -->
<g id="edge30" class="edge"><title>Node6&#45;&gt;Node16</title>
<path fill="none" stroke="midnightblue" d="M467.849,-850.721C485.021,-795.213 540.941,-640.321 648,-571 653.587,-567.383 659.539,-564.287 665.728,-561.646"/>
<polygon fill="midnightblue" stroke="midnightblue" points="464.454,-849.859 464.928,-860.443 471.158,-851.873 464.454,-849.859"/>
</g>
<!-- Node17 -->
<g id="node33" class="node"><title>Node17</title>
<a xlink:href="classZendDbSchema__Db__Schema__Table__Index.html#a54a12dab52e17f1218fafcd13b334d16" target="_top" xlink:title="ZendDbSchema_Db_Schema_Table_Index\\_getDeleteSql">
<polygon fill="white" stroke="black" points="662.5,-1140.5 662.5,-1161.5 931.5,-1161.5 931.5,-1140.5 662.5,-1140.5"/>
<text text-anchor="middle" x="797" y="-1148.5" font-family="Helvetica,sans-Serif" font-size="10.00">ZendDbSchema_Db_Schema_Table_Index\_getDeleteSql</text>
</a>
</g>
<!-- Node6&#45;&gt;Node17 -->
<g id="edge32" class="edge"><title>Node6&#45;&gt;Node17</title>
<path fill="none" stroke="midnightblue" d="M485.282,-887.649C518.128,-912.306 577.866,-961.624 612,-1017 639.88,-1062.23 607.333,-1096.8 648,-1131 652.495,-1134.78 657.35,-1138.05 662.469,-1140.87"/>
<polygon fill="midnightblue" stroke="midnightblue" points="487.279,-884.773 477.158,-881.643 483.118,-890.402 487.279,-884.773"/>
</g>
<!-- Node18 -->
<g id="node35" class="node"><title>Node18</title>
<a xlink:href="classZendDbSchema__Db__Schema__Table__Index.html#ab87e33f2415eaf43730ca6d43ec540b6" target="_top" xlink:title="ZendDbSchema_Db_Schema_Table_Index\\_getAlterSql">
<polygon fill="white" stroke="black" points="666.5,-1100.5 666.5,-1121.5 927.5,-1121.5 927.5,-1100.5 666.5,-1100.5"/>
<text text-anchor="middle" x="797" y="-1108.5" font-family="Helvetica,sans-Serif" font-size="10.00">ZendDbSchema_Db_Schema_Table_Index\_getAlterSql</text>
</a>
</g>
<!-- Node6&#45;&gt;Node18 -->
<g id="edge34" class="edge"><title>Node6&#45;&gt;Node18</title>
<path fill="none" stroke="midnightblue" d="M484.123,-888.304C515.64,-913.817 573.862,-964.233 612,-1017 633.425,-1046.64 618.355,-1069.58 648,-1091 653.712,-1095.13 659.876,-1098.61 666.334,-1101.53"/>
<polygon fill="midnightblue" stroke="midnightblue" points="485.975,-885.304 475.981,-881.787 481.601,-890.769 485.975,-885.304"/>
</g>
<!-- Node19 -->
<g id="node37" class="node"><title>Node19</title>
<a xlink:href="classZendDbSchema__Db__Schema__Table__Index.html#afec61cbe6c22bd42e30103bc3d37ef2d" target="_top" xlink:title="ZendDbSchema_Db_Schema_Table_Index\\_getCreateSql">
<polygon fill="white" stroke="black" points="662,-1060.5 662,-1081.5 932,-1081.5 932,-1060.5 662,-1060.5"/>
<text text-anchor="middle" x="797" y="-1068.5" font-family="Helvetica,sans-Serif" font-size="10.00">ZendDbSchema_Db_Schema_Table_Index\_getCreateSql</text>
</a>
</g>
<!-- Node6&#45;&gt;Node19 -->
<g id="edge36" class="edge"><title>Node6&#45;&gt;Node19</title>
<path fill="none" stroke="midnightblue" d="M480.164,-888.721C526.454,-933.865 645.396,-1049.74 648,-1051 655.751,-1054.76 663.98,-1057.88 672.434,-1060.46"/>
<polygon fill="midnightblue" stroke="midnightblue" points="482.499,-886.109 472.896,-881.633 477.611,-891.121 482.499,-886.109"/>
</g>
<!-- Node20 -->
<g id="node39" class="node"><title>Node20</title>
<a xlink:href="classZendDbSchema__Db__Schema__Table__PrimaryKey.html#a1da04c2b8330ad70171fd6b1802d14f2" target="_top" xlink:title="ZendDbSchema_Db_Schema_Table_PrimaryKey\\_getDeleteSql">
<polygon fill="white" stroke="black" points="649,-1020.5 649,-1041.5 945,-1041.5 945,-1020.5 649,-1020.5"/>
<text text-anchor="middle" x="797" y="-1028.5" font-family="Helvetica,sans-Serif" font-size="10.00">ZendDbSchema_Db_Schema_Table_PrimaryKey\_getDeleteSql</text>
</a>
</g>
<!-- Node6&#45;&gt;Node20 -->
<g id="edge38" class="edge"><title>Node6&#45;&gt;Node20</title>
<path fill="none" stroke="midnightblue" d="M479.429,-889.191C510.212,-920.054 577.634,-982.131 648,-1011 657.297,-1014.81 667.167,-1017.93 677.228,-1020.48"/>
<polygon fill="midnightblue" stroke="midnightblue" points="481.583,-886.39 472.078,-881.711 476.591,-891.297 481.583,-886.39"/>
</g>
<!-- Node21 -->
<g id="node41" class="node"><title>Node21</title>
<a xlink:href="classZendDbSchema__Db__Schema__Table__PrimaryKey.html#a3f48dd085068f13258957efeb0f7257b" target="_top" xlink:title="ZendDbSchema_Db_Schema_Table_PrimaryKey\\_getAlterSql">
<polygon fill="white" stroke="black" points="653,-980.5 653,-1001.5 941,-1001.5 941,-980.5 653,-980.5"/>
<text text-anchor="middle" x="797" y="-988.5" font-family="Helvetica,sans-Serif" font-size="10.00">ZendDbSchema_Db_Schema_Table_PrimaryKey\_getAlterSql</text>
</a>
</g>
<!-- Node6&#45;&gt;Node21 -->
<g id="edge40" class="edge"><title>Node6&#45;&gt;Node21</title>
<path fill="none" stroke="midnightblue" d="M485.413,-887.206C519.505,-909.938 585.568,-950.769 648,-971 659.918,-974.862 672.605,-977.979 685.354,-980.494"/>
<polygon fill="midnightblue" stroke="midnightblue" points="487.312,-884.266 477.065,-881.574 483.397,-890.068 487.312,-884.266"/>
</g>
<!-- Node22 -->
<g id="node43" class="node"><title>Node22</title>
<a xlink:href="classZendDbSchema__Db__Schema__Table__PrimaryKey.html#a97fe22c0e5758e1ee04616ccf3218e2a" target="_top" xlink:title="ZendDbSchema_Db_Schema_Table_PrimaryKey\\_getCreateSql">
<polygon fill="white" stroke="black" points="648.5,-940.5 648.5,-961.5 945.5,-961.5 945.5,-940.5 648.5,-940.5"/>
<text text-anchor="middle" x="797" y="-948.5" font-family="Helvetica,sans-Serif" font-size="10.00">ZendDbSchema_Db_Schema_Table_PrimaryKey\_getCreateSql</text>
</a>
</g>
<!-- Node6&#45;&gt;Node22 -->
<g id="edge42" class="edge"><title>Node6&#45;&gt;Node22</title>
<path fill="none" stroke="midnightblue" d="M498.705,-884.995C535.836,-898.638 595.143,-919.028 648,-931 664.546,-934.748 682.295,-937.881 699.571,-940.472"/>
<polygon fill="midnightblue" stroke="midnightblue" points="499.895,-881.704 489.302,-881.51 497.463,-888.267 499.895,-881.704"/>
</g>
<!-- Node23&#45;&gt;Node4 -->
<g id="edge46" class="edge"><title>Node23&#45;&gt;Node4</title>
<path fill="none" stroke="midnightblue" d="M598.974,-1085.55C603.572,-1088.32 607.939,-1091.46 612,-1095 652.672,-1130.49 606.77,-1176.16 648,-1211 656.074,-1217.82 665.322,-1222.99 675.171,-1226.85"/>
<polygon fill="midnightblue" stroke="midnightblue" points="600.33,-1082.3 589.865,-1080.65 597.016,-1088.47 600.33,-1082.3"/>
</g>
<!-- Node23&#45;&gt;Node5 -->
<g id="edge48" class="edge"><title>Node23&#45;&gt;Node5</title>
<path fill="none" stroke="midnightblue" d="M595.4,-1084.76C601.241,-1087.69 606.815,-1091.08 612,-1095 641.827,-1117.52 617.82,-1148.95 648,-1171 658.854,-1178.93 671.371,-1184.48 684.442,-1188.28"/>
<polygon fill="midnightblue" stroke="midnightblue" points="596.574,-1081.44 586.02,-1080.51 593.687,-1087.82 596.574,-1081.44"/>
</g>
<!-- Node25 -->
<g id="node51" class="node"><title>Node25</title>
<a xlink:href="classZendDbSchema__Db__Schema__AbstractEntity.html#a5b1c93da76c3708f90d330b4643e55b2" target="_top" xlink:title="ZendDbSchema_Db_Schema_AbstractEntity\\save">
<polygon fill="white" stroke="black" points="678,-420.5 678,-441.5 916,-441.5 916,-420.5 678,-420.5"/>
<text text-anchor="middle" x="797" y="-428.5" font-family="Helvetica,sans-Serif" font-size="10.00">ZendDbSchema_Db_Schema_AbstractEntity\save</text>
</a>
</g>
<!-- Node24&#45;&gt;Node25 -->
<g id="edge52" class="edge"><title>Node24&#45;&gt;Node25</title>
<path fill="none" stroke="midnightblue" d="M599.305,-496.892C603.657,-495.119 607.902,-493.161 612,-491 633.156,-479.844 626.849,-462.165 648,-451 657.348,-446.065 667.467,-442.191 677.88,-439.166"/>
<polygon fill="midnightblue" stroke="midnightblue" points="597.779,-493.725 589.621,-500.484 600.214,-500.288 597.779,-493.725"/>
</g>
<!-- Node26 -->
<g id="node53" class="node"><title>Node26</title>
<a xlink:href="classZendDbSchema__Db__Schema__AbstractSchema.html#ab4282a1fd6f4d9f23d01de8328072c71" target="_top" xlink:title="ZendDbSchema_Db_Schema_AbstractSchema\\__set">
<polygon fill="white" stroke="red" points="671.5,-380.5 671.5,-401.5 922.5,-401.5 922.5,-380.5 671.5,-380.5"/>
<text text-anchor="middle" x="797" y="-388.5" font-family="Helvetica,sans-Serif" font-size="10.00">ZendDbSchema_Db_Schema_AbstractSchema\__set</text>
</a>
</g>
<!-- Node24&#45;&gt;Node26 -->
<g id="edge54" class="edge"><title>Node24&#45;&gt;Node26</title>
<path fill="none" stroke="midnightblue" d="M605.453,-495.463C607.695,-494.065 609.88,-492.579 612,-491 643.268,-467.708 616.743,-434.306 648,-411 655.114,-405.696 662.967,-401.447 671.236,-398.068"/>
<polygon fill="midnightblue" stroke="midnightblue" points="603.576,-492.502 596.543,-500.426 606.982,-498.618 603.576,-492.502"/>
</g>
<!-- Node47 -->
<g id="node99" class="node"><title>Node47</title>
<a xlink:href="classZendDbSchema__Db__Schema__AbstractSchema.html#a64e2e307b4dd0bf4785258f82e9fcc1b" target="_top" xlink:title="ZendDbSchema_Db_Schema_AbstractSchema\\__unset">
<polygon fill="white" stroke="black" points="666,-500.5 666,-521.5 928,-521.5 928,-500.5 666,-500.5"/>
<text text-anchor="middle" x="797" y="-508.5" font-family="Helvetica,sans-Serif" font-size="10.00">ZendDbSchema_Db_Schema_AbstractSchema\__unset</text>
</a>
</g>
<!-- Node24&#45;&gt;Node47 -->
<g id="edge104" class="edge"><title>Node24&#45;&gt;Node47</title>
<path fill="none" stroke="midnightblue" d="M611.657,-511C629.74,-511 648.104,-511 665.893,-511"/>
<polygon fill="midnightblue" stroke="midnightblue" points="611.644,-507.5 601.644,-511 611.644,-514.5 611.644,-507.5"/>
</g>
<!-- Node48 -->
<g id="node101" class="node"><title>Node48</title>
<a xlink:href="classZendDbSchema__Db__Schema__Table__AbstractDefinition.html#ad1a0b678c2352296b55af83c59142e59" target="_top" xlink:title="ZendDbSchema_Db_Schema_Table_AbstractDefinition\\save">
<polygon fill="white" stroke="black" points="655.5,-460.5 655.5,-481.5 938.5,-481.5 938.5,-460.5 655.5,-460.5"/>
<text text-anchor="middle" x="797" y="-468.5" font-family="Helvetica,sans-Serif" font-size="10.00">ZendDbSchema_Db_Schema_Table_AbstractDefinition\save</text>
</a>
</g>
<!-- Node24&#45;&gt;Node48 -->
<g id="edge106" class="edge"><title>Node24&#45;&gt;Node48</title>
<path fill="none" stroke="midnightblue" d="M560.234,-499.271C607.331,-493.647 663.298,-486.964 708.99,-481.509"/>
<polygon fill="midnightblue" stroke="midnightblue" points="559.532,-495.829 550.017,-500.49 560.362,-502.78 559.532,-495.829"/>
</g>
<!-- Node27 -->
<g id="node55" class="node"><title>Node27</title>
<a xlink:href="classZendDbSchema__Db__Schema__AbstractEntity.html#a845c851f8d9549a8f1a3aa9bc1da3658" target="_top" xlink:title="ZendDbSchema_Db_Schema_AbstractEntity\\__clone">
<polygon fill="white" stroke="black" points="1007.5,-752.5 1007.5,-773.5 1258.5,-773.5 1258.5,-752.5 1007.5,-752.5"/>
<text text-anchor="middle" x="1133" y="-760.5" font-family="Helvetica,sans-Serif" font-size="10.00">ZendDbSchema_Db_Schema_AbstractEntity\__clone</text>
</a>
</g>
<!-- Node26&#45;&gt;Node27 -->
<g id="edge56" class="edge"><title>Node26&#45;&gt;Node27</title>
<path fill="none" stroke="midnightblue" d="M931.728,-399.584C936.879,-402.796 941.678,-406.574 946,-411 1048.15,-515.609 881.464,-631.838 982,-738 989.217,-745.621 997.802,-751.485 1007.16,-755.954"/>
<polygon fill="midnightblue" stroke="midnightblue" points="933.206,-396.404 922.75,-394.698 929.86,-402.552 933.206,-396.404"/>
</g>
<!-- Node28 -->
<g id="node57" class="node"><title>Node28</title>
<a xlink:href="classZendDbSchema__Db__Schema__Table__Index.html#a6717d976c5b0d47369d3c87ef17b1e9b" target="_top" xlink:title="ZendDbSchema_Db_Schema_Table_Index\\addColumn">
<polygon fill="white" stroke="red" points="1349.5,-699.5 1349.5,-720.5 1606.5,-720.5 1606.5,-699.5 1349.5,-699.5"/>
<text text-anchor="middle" x="1478" y="-707.5" font-family="Helvetica,sans-Serif" font-size="10.00">ZendDbSchema_Db_Schema_Table_Index\addColumn</text>
</a>
</g>
<!-- Node26&#45;&gt;Node28 -->
<g id="edge58" class="edge"><title>Node26&#45;&gt;Node28</title>
<path fill="none" stroke="midnightblue" d="M931.661,-399.649C936.83,-402.844 941.651,-406.6 946,-411 1038.54,-504.623 883.861,-617.259 982,-705 1042.35,-758.953 1281.56,-736.359 1404.38,-720.549"/>
<polygon fill="midnightblue" stroke="midnightblue" points="933.12,-396.459 922.657,-394.789 929.795,-402.619 933.12,-396.459"/>
</g>
<!-- Node29 -->
<g id="node59" class="node"><title>Node29</title>
<a xlink:href="classZendDbSchema__Db__Schema__Table__ForeignKey.html#a2197861c0661243f1ebcf43a7e7771f2" target="_top" xlink:title="ZendDbSchema_Db_Schema_Table_ForeignKey\\addRefColumn">
<polygon fill="white" stroke="black" points="1328.5,-591.5 1328.5,-612.5 1627.5,-612.5 1627.5,-591.5 1328.5,-591.5"/>
<text text-anchor="middle" x="1478" y="-599.5" font-family="Helvetica,sans-Serif" font-size="10.00">ZendDbSchema_Db_Schema_Table_ForeignKey\addRefColumn</text>
</a>
</g>
<!-- Node26&#45;&gt;Node29 -->
<g id="edge60" class="edge"><title>Node26&#45;&gt;Node29</title>
<path fill="none" stroke="midnightblue" d="M931.675,-400.326C936.793,-403.352 941.605,-406.887 946,-411 1004.93,-466.155 920.201,-537.082 982,-589 1041.24,-638.764 1261.54,-625.094 1387.72,-612.507"/>
<polygon fill="midnightblue" stroke="midnightblue" points="933.276,-397.214 922.79,-395.699 930.043,-403.422 933.276,-397.214"/>
</g>
<!-- Node30 -->
<g id="node61" class="node"><title>Node30</title>
<a xlink:href="classZendDbSchema__Db__Schema__Table__Index.html#af7c29da0f52c5270ffa3587a95295f82" target="_top" xlink:title="ZendDbSchema_Db_Schema_Table_Index\\hasColumn">
<polygon fill="white" stroke="black" points="1004.5,-674.5 1004.5,-695.5 1261.5,-695.5 1261.5,-674.5 1004.5,-674.5"/>
<text text-anchor="middle" x="1133" y="-682.5" font-family="Helvetica,sans-Serif" font-size="10.00">ZendDbSchema_Db_Schema_Table_Index\hasColumn</text>
</a>
</g>
<!-- Node26&#45;&gt;Node30 -->
<g id="edge62" class="edge"><title>Node26&#45;&gt;Node30</title>
<path fill="none" stroke="midnightblue" d="M931.754,-399.895C936.875,-403.031 941.663,-406.707 946,-411 1025.47,-489.664 903.747,-580.127 982,-660 988.509,-666.643 996.06,-671.937 1004.25,-676.127"/>
<polygon fill="midnightblue" stroke="midnightblue" points="933.311,-396.758 922.845,-395.115 930.002,-402.927 933.311,-396.758"/>
</g>
<!-- Node31 -->
<g id="node64" class="node"><title>Node31</title>
<a xlink:href="classZendDbSchema__Db__Schema__Table__Index.html#a3cfd358621bb3330ef9e7ffcf2f7b229" target="_top" xlink:title="ZendDbSchema_Db_Schema_Table_Index\\removeColumn">
<polygon fill="white" stroke="black" points="1341,-640.5 1341,-661.5 1615,-661.5 1615,-640.5 1341,-640.5"/>
<text text-anchor="middle" x="1478" y="-648.5" font-family="Helvetica,sans-Serif" font-size="10.00">ZendDbSchema_Db_Schema_Table_Index\removeColumn</text>
</a>
</g>
<!-- Node26&#45;&gt;Node31 -->
<g id="edge74" class="edge"><title>Node26&#45;&gt;Node31</title>
<path fill="none" stroke="midnightblue" d="M931.612,-400.041C936.77,-403.138 941.605,-406.765 946,-411 1013.88,-476.4 911.845,-557.05 982,-620 1033.13,-665.881 1212.59,-666.676 1340.93,-660.723"/>
<polygon fill="midnightblue" stroke="midnightblue" points="933.125,-396.882 922.647,-395.318 929.862,-403.075 933.125,-396.882"/>
</g>
<!-- Node32 -->
<g id="node66" class="node"><title>Node32</title>
<a xlink:href="classZendDbSchema__Db__Schema__Table__ForeignKey.html#aee976a90aff6a23580c6bbd11baf2ec0" target="_top" xlink:title="ZendDbSchema_Db_Schema_Table_ForeignKey\\hasRefColumn">
<polygon fill="white" stroke="black" points="983.5,-558.5 983.5,-579.5 1282.5,-579.5 1282.5,-558.5 983.5,-558.5"/>
<text text-anchor="middle" x="1133" y="-566.5" font-family="Helvetica,sans-Serif" font-size="10.00">ZendDbSchema_Db_Schema_Table_ForeignKey\hasRefColumn</text>
</a>
</g>
<!-- Node26&#45;&gt;Node32 -->
<g id="edge68" class="edge"><title>Node26&#45;&gt;Node32</title>
<path fill="none" stroke="midnightblue" d="M931.941,-401.02C936.928,-403.875 941.646,-407.182 946,-411 992.042,-451.377 936.582,-502.922 982,-544 988.405,-549.793 995.617,-554.518 1003.33,-558.353"/>
<polygon fill="midnightblue" stroke="midnightblue" points="933.199,-397.735 922.694,-396.356 930.046,-403.985 933.199,-397.735"/>
</g>
<!-- Node33 -->
<g id="node69" class="node"><title>Node33</title>
<a xlink:href="classZendDbSchema__Db__Schema__Table__ForeignKey.html#ab1730184f38846e90fc31b891a3d9b8c" target="_top" xlink:title="ZendDbSchema_Db_Schema_Table_ForeignKey\\removeRefColumn">
<polygon fill="white" stroke="black" points="1320.5,-533.5 1320.5,-554.5 1635.5,-554.5 1635.5,-533.5 1320.5,-533.5"/>
<text text-anchor="middle" x="1478" y="-541.5" font-family="Helvetica,sans-Serif" font-size="10.00">ZendDbSchema_Db_Schema_Table_ForeignKey\removeRefColumn</text>
</a>
</g>
<!-- Node26&#45;&gt;Node33 -->
<g id="edge76" class="edge"><title>Node26&#45;&gt;Node33</title>
<path fill="none" stroke="midnightblue" d="M931.777,-401.586C936.787,-404.293 941.558,-407.413 946,-411 982.75,-440.678 944.277,-482.57 982,-511 1008.75,-531.16 1185.47,-539.005 1320.43,-542.057"/>
<polygon fill="midnightblue" stroke="midnightblue" points="933.047,-398.314 922.517,-397.149 930.022,-404.627 933.047,-398.314"/>
</g>
<!-- Node34 -->
<g id="node73" class="node"><title>Node34</title>
<a xlink:href="classZendDbSchema__Db__Schema__Database.html#acfc530f3381e35f7d57676c4dcff3620" target="_top" xlink:title="ZendDbSchema_Db_Schema_Database\\setCharset">
<polygon fill="white" stroke="black" points="1010.5,-480.5 1010.5,-501.5 1255.5,-501.5 1255.5,-480.5 1010.5,-480.5"/>
<text text-anchor="middle" x="1133" y="-488.5" font-family="Helvetica,sans-Serif" font-size="10.00">ZendDbSchema_Db_Schema_Database\setCharset</text>
</a>
</g>
<!-- Node26&#45;&gt;Node34 -->
<g id="edge78" class="edge"><title>Node26&#45;&gt;Node34</title>
<path fill="none" stroke="midnightblue" d="M932.217,-403.301C937,-405.56 941.615,-408.115 946,-411 971.98,-428.092 956.005,-453.931 982,-471 990.731,-476.733 1000.36,-481.174 1010.41,-484.583"/>
<polygon fill="midnightblue" stroke="midnightblue" points="933.403,-400.002 922.831,-399.312 930.665,-406.445 933.403,-400.002"/>
</g>
<!-- Node35 -->
<g id="node75" class="node"><title>Node35</title>
<a xlink:href="classZendDbSchema__Db__Schema__Table__Index.html#a77b65e961a7da9ca89fdebd682338fcf" target="_top" xlink:title="ZendDbSchema_Db_Schema_Table_Index\\setColumns">
<polygon fill="white" stroke="black" points="1003,-440.5 1003,-461.5 1263,-461.5 1263,-440.5 1003,-440.5"/>
<text text-anchor="middle" x="1133" y="-448.5" font-family="Helvetica,sans-Serif" font-size="10.00">ZendDbSchema_Db_Schema_Table_Index\setColumns</text>
</a>
</g>
<!-- Node26&#45;&gt;Node35 -->
<g id="edge80" class="edge"><title>Node26&#45;&gt;Node35</title>
<path fill="none" stroke="midnightblue" d="M919.404,-403.639C928.496,-405.729 937.449,-408.164 946,-411 963.373,-416.762 964.622,-425.253 982,-431 993.675,-434.861 1006.09,-437.979 1018.59,-440.497"/>
<polygon fill="midnightblue" stroke="midnightblue" points="920.009,-400.189 909.496,-401.503 918.534,-407.032 920.009,-400.189"/>
</g>
<!-- Node36 -->
<g id="node77" class="node"><title>Node36</title>
<a xlink:href="classZendDbSchema__Db__Schema__Table__Column.html#aae45b2b24302735971d487e6037ee732" target="_top" xlink:title="ZendDbSchema_Db_Schema_Table_Column\\setComment">
<polygon fill="white" stroke="black" points="996,-400.5 996,-421.5 1270,-421.5 1270,-400.5 996,-400.5"/>
<text text-anchor="middle" x="1133" y="-408.5" font-family="Helvetica,sans-Serif" font-size="10.00">ZendDbSchema_Db_Schema_Table_Column\setComment</text>
</a>
</g>
<!-- Node26&#45;&gt;Node36 -->
<g id="edge82" class="edge"><title>Node26&#45;&gt;Node36</title>
<path fill="none" stroke="midnightblue" d="M932.724,-399.079C953.487,-400.315 974.934,-401.591 995.73,-402.829"/>
<polygon fill="midnightblue" stroke="midnightblue" points="932.782,-395.576 922.592,-398.476 932.366,-402.564 932.782,-395.576"/>
</g>
<!-- Node37 -->
<g id="node79" class="node"><title>Node37</title>
<a xlink:href="classZendDbSchema__Db__Schema__Table__Column.html#ab4eed7ec6d80aa36d4447566e1ae0294" target="_top" xlink:title="ZendDbSchema_Db_Schema_Table_Column\\setDefault">
<polygon fill="white" stroke="black" points="1001.5,-360.5 1001.5,-381.5 1264.5,-381.5 1264.5,-360.5 1001.5,-360.5"/>
<text text-anchor="middle" x="1133" y="-368.5" font-family="Helvetica,sans-Serif" font-size="10.00">ZendDbSchema_Db_Schema_Table_Column\setDefault</text>
</a>
</g>
<!-- Node26&#45;&gt;Node37 -->
<g id="edge84" class="edge"><title>Node26&#45;&gt;Node37</title>
<path fill="none" stroke="midnightblue" d="M932.604,-382.928C955.292,-381.578 978.799,-380.179 1001.38,-378.834"/>
<polygon fill="midnightblue" stroke="midnightblue" points="932.366,-379.436 922.592,-383.524 932.782,-386.424 932.366,-379.436"/>
</g>
<!-- Node38 -->
<g id="node81" class="node"><title>Node38</title>
<a xlink:href="classZendDbSchema__Db__Schema__AbstractSchema.html#acd81590f02c831ff4c4a442c5cf47074" target="_top" xlink:title="ZendDbSchema_Db_Schema_AbstractSchema\\setFromArray">
<polygon fill="white" stroke="red" points="989.5,-320.5 989.5,-341.5 1276.5,-341.5 1276.5,-320.5 989.5,-320.5"/>
<text text-anchor="middle" x="1133" y="-328.5" font-family="Helvetica,sans-Serif" font-size="10.00">ZendDbSchema_Db_Schema_AbstractSchema\setFromArray</text>
</a>
</g>
<!-- Node26&#45;&gt;Node38 -->
<g id="edge86" class="edge"><title>Node26&#45;&gt;Node38</title>
<path fill="none" stroke="midnightblue" d="M850.922,-378.13C887.704,-369.649 937.613,-358.725 982,-351 1002.06,-347.509 1023.71,-344.308 1044.19,-341.54"/>
<polygon fill="midnightblue" stroke="midnightblue" points="849.861,-374.783 840.91,-380.452 851.443,-381.602 849.861,-374.783"/>
</g>
<!-- Node39 -->
<g id="node83" class="node"><title>Node39</title>
<a xlink:href="classZendDbSchema__Db__Schema__Table__Column.html#a2f7872172e98a14cbe7d06e295e0106e" target="_top" xlink:title="ZendDbSchema_Db_Schema_Table_Column\\setLength">
<polygon fill="white" stroke="black" points="1003,-280.5 1003,-301.5 1263,-301.5 1263,-280.5 1003,-280.5"/>
<text text-anchor="middle" x="1133" y="-288.5" font-family="Helvetica,sans-Serif" font-size="10.00">ZendDbSchema_Db_Schema_Table_Column\setLength</text>
</a>
</g>
<!-- Node26&#45;&gt;Node39 -->
<g id="edge88" class="edge"><title>Node26&#45;&gt;Node39</title>
<path fill="none" stroke="midnightblue" d="M825.899,-375.505C861.549,-357.103 924.507,-326.906 982,-311 995.89,-307.157 1010.71,-304.044 1025.43,-301.524"/>
<polygon fill="midnightblue" stroke="midnightblue" points="823.841,-372.631 816.595,-380.36 827.079,-378.836 823.841,-372.631"/>
</g>
<!-- Node40 -->
<g id="node85" class="node"><title>Node40</title>
<a xlink:href="classZendDbSchema__Db__Schema__AbstractSchema.html#a281403d9e41839e925bade11d8b69b91" target="_top" xlink:title="ZendDbSchema_Db_Schema_AbstractSchema\\setName">
<polygon fill="white" stroke="black" points="999.5,-240.5 999.5,-261.5 1266.5,-261.5 1266.5,-240.5 999.5,-240.5"/>
<text text-anchor="middle" x="1133" y="-248.5" font-family="Helvetica,sans-Serif" font-size="10.00">ZendDbSchema_Db_Schema_AbstractSchema\setName</text>
</a>
</g>
<!-- Node26&#45;&gt;Node40 -->
<g id="edge90" class="edge"><title>Node26&#45;&gt;Node40</title>
<path fill="none" stroke="midnightblue" d="M816.719,-373.875C848.886,-346.997 915.732,-295.457 982,-271 992.42,-267.155 1003.48,-264.033 1014.7,-261.5"/>
<polygon fill="midnightblue" stroke="midnightblue" points="814.321,-371.319 808.952,-380.452 818.845,-376.661 814.321,-371.319"/>
</g>
<!-- Node41 -->
<g id="node87" class="node"><title>Node41</title>
<a xlink:href="classZendDbSchema__Db__Schema__Table__Column.html#aa4350a230e6b0e41d9fb9da7c4d3df8b" target="_top" xlink:title="ZendDbSchema_Db_Schema_Table_Column\\setNullable">
<polygon fill="white" stroke="black" points="1000,-200.5 1000,-221.5 1266,-221.5 1266,-200.5 1000,-200.5"/>
<text text-anchor="middle" x="1133" y="-208.5" font-family="Helvetica,sans-Serif" font-size="10.00">ZendDbSchema_Db_Schema_Table_Column\setNullable</text>
</a>
</g>
<!-- Node26&#45;&gt;Node41 -->
<g id="edge92" class="edge"><title>Node26&#45;&gt;Node41</title>
<path fill="none" stroke="midnightblue" d="M811.662,-372.628C840.287,-338.224 907.374,-264.538 982,-231 990.321,-227.26 999.143,-224.165 1008.18,-221.609"/>
<polygon fill="midnightblue" stroke="midnightblue" points="808.86,-370.525 805.232,-380.48 814.275,-374.961 808.86,-370.525"/>
</g>
<!-- Node42 -->
<g id="node89" class="node"><title>Node42</title>
<a xlink:href="classZendDbSchema__Db__Schema__Table__ForeignKey.html#a0c51ff09d6df59b68f8f5ff4ec1ed32d" target="_top" xlink:title="ZendDbSchema_Db_Schema_Table_ForeignKey\\setOnDelete">
<polygon fill="white" stroke="black" points="989,-160.5 989,-181.5 1277,-181.5 1277,-160.5 989,-160.5"/>
<text text-anchor="middle" x="1133" y="-168.5" font-family="Helvetica,sans-Serif" font-size="10.00">ZendDbSchema_Db_Schema_Table_ForeignKey\setOnDelete</text>
</a>
</g>
<!-- Node26&#45;&gt;Node42 -->
<g id="edge94" class="edge"><title>Node26&#45;&gt;Node42</title>
<path fill="none" stroke="midnightblue" d="M808.336,-371.561C833.575,-330.276 898.796,-234.107 982,-191 989.161,-187.29 996.76,-184.18 1004.59,-181.579"/>
<polygon fill="midnightblue" stroke="midnightblue" points="805.19,-370.001 803.047,-380.376 811.193,-373.601 805.19,-370.001"/>
</g>
<!-- Node43 -->
<g id="node91" class="node"><title>Node43</title>
<a xlink:href="classZendDbSchema__Db__Schema__Table__ForeignKey.html#ae8ffd9c6bad60eaf6ef05cdd1f5c56fb" target="_top" xlink:title="ZendDbSchema_Db_Schema_Table_ForeignKey\\setOnUpdate">
<polygon fill="white" stroke="black" points="987.5,-120.5 987.5,-141.5 1278.5,-141.5 1278.5,-120.5 987.5,-120.5"/>
<text text-anchor="middle" x="1133" y="-128.5" font-family="Helvetica,sans-Serif" font-size="10.00">ZendDbSchema_Db_Schema_Table_ForeignKey\setOnUpdate</text>
</a>
</g>
<!-- Node26&#45;&gt;Node43 -->
<g id="edge96" class="edge"><title>Node26&#45;&gt;Node43</title>
<path fill="none" stroke="midnightblue" d="M805.576,-371.325C827.301,-324.11 889.43,-204.358 982,-151 988.415,-147.302 995.233,-144.174 1002.29,-141.536"/>
<polygon fill="midnightblue" stroke="midnightblue" points="802.363,-369.936 801.451,-380.491 808.746,-372.809 802.363,-369.936"/>
</g>
<!-- Node44 -->
<g id="node93" class="node"><title>Node44</title>
<a xlink:href="classZendDbSchema__Db__Schema__Table__ForeignKey.html#a5788c3c190f6f311cdb1fea25ebcaa0c" target="_top" xlink:title="ZendDbSchema_Db_Schema_Table_ForeignKey\\setRefColumns">
<polygon fill="white" stroke="black" points="982,-80.5 982,-101.5 1284,-101.5 1284,-80.5 982,-80.5"/>
<text text-anchor="middle" x="1133" y="-88.5" font-family="Helvetica,sans-Serif" font-size="10.00">ZendDbSchema_Db_Schema_Table_ForeignKey\setRefColumns</text>
</a>
</g>
<!-- Node26&#45;&gt;Node44 -->
<g id="edge98" class="edge"><title>Node26&#45;&gt;Node44</title>
<path fill="none" stroke="midnightblue" d="M803.694,-370.64C822.307,-317.581 880.124,-174.773 982,-111 987.828,-107.352 994.029,-104.238 1000.47,-101.589"/>
<polygon fill="midnightblue" stroke="midnightblue" points="800.324,-369.678 800.404,-380.273 806.948,-371.941 800.324,-369.678"/>
</g>
<!-- Node45 -->
<g id="node95" class="node"><title>Node45</title>
<a xlink:href="classZendDbSchema__Db__Schema__Table__ForeignKey.html#ad19f20b206f05763eecf5aac88e20dbe" target="_top" xlink:title="ZendDbSchema_Db_Schema_Table_ForeignKey\\setReference">
<polygon fill="white" stroke="black" points="987,-40.5 987,-61.5 1279,-61.5 1279,-40.5 987,-40.5"/>
<text text-anchor="middle" x="1133" y="-48.5" font-family="Helvetica,sans-Serif" font-size="10.00">ZendDbSchema_Db_Schema_Table_ForeignKey\setReference</text>
</a>
</g>
<!-- Node26&#45;&gt;Node45 -->
<g id="edge100" class="edge"><title>Node26&#45;&gt;Node45</title>
<path fill="none" stroke="midnightblue" d="M802.031,-370.554C817.499,-312.443 870.226,-145.701 982,-71 987.387,-67.4 993.125,-64.3059 999.099,-61.6538"/>
<polygon fill="midnightblue" stroke="midnightblue" points="798.604,-369.826 799.499,-380.383 805.383,-371.572 798.604,-369.826"/>
</g>
<!-- Node46 -->
<g id="node97" class="node"><title>Node46</title>
<a xlink:href="classZendDbSchema__Db__Schema__Table__Column.html#a666cbc354c127b391874bbb63ae90612" target="_top" xlink:title="ZendDbSchema_Db_Schema_Table_Column\\setSigned">
<polygon fill="white" stroke="black" points="1002.5,-0.5 1002.5,-21.5 1263.5,-21.5 1263.5,-0.5 1002.5,-0.5"/>
<text text-anchor="middle" x="1133" y="-8.5" font-family="Helvetica,sans-Serif" font-size="10.00">ZendDbSchema_Db_Schema_Table_Column\setSigned</text>
</a>
</g>
<!-- Node26&#45;&gt;Node46 -->
<g id="edge102" class="edge"><title>Node26&#45;&gt;Node46</title>
<path fill="none" stroke="midnightblue" d="M800.68,-370.584C813.157,-307.844 860.082,-116.919 982,-31 988.269,-26.5824 995.055,-22.9089 1002.16,-19.8678"/>
<polygon fill="midnightblue" stroke="midnightblue" points="797.234,-369.969 798.796,-380.448 804.11,-371.282 797.234,-369.969"/>
</g>
<!-- Node30&#45;&gt;Node28 -->
<g id="edge64" class="edge"><title>Node30&#45;&gt;Node28</title>
<path fill="none" stroke="midnightblue" d="M1272.08,-695.078C1297.65,-696.931 1324.24,-698.858 1349.49,-700.687"/>
<polygon fill="midnightblue" stroke="midnightblue" points="1272.18,-691.577 1261.96,-694.345 1271.68,-698.558 1272.18,-691.577"/>
</g>
<!-- Node30&#45;&gt;Node31 -->
<g id="edge66" class="edge"><title>Node30&#45;&gt;Node31</title>
<path fill="none" stroke="midnightblue" d="M1249.96,-673.473C1289.29,-669.598 1332.93,-665.297 1371.41,-661.505"/>
<polygon fill="midnightblue" stroke="midnightblue" points="1249.41,-670.011 1239.8,-674.475 1250.09,-676.977 1249.41,-670.011"/>
</g>
<!-- Node32&#45;&gt;Node29 -->
<g id="edge70" class="edge"><title>Node32&#45;&gt;Node29</title>
<path fill="none" stroke="midnightblue" d="M1253.51,-580.527C1290.75,-584.089 1331.56,-587.993 1368.05,-591.483"/>
<polygon fill="midnightblue" stroke="midnightblue" points="1253.4,-577 1243.11,-579.532 1252.73,-583.968 1253.4,-577"/>
</g>
<!-- Node32&#45;&gt;Node33 -->
<g id="edge72" class="edge"><title>Node32&#45;&gt;Node33</title>
<path fill="none" stroke="midnightblue" d="M1288.5,-557.732C1303.26,-556.662 1318.2,-555.58 1332.86,-554.518"/>
<polygon fill="midnightblue" stroke="midnightblue" points="1288.03,-554.257 1278.31,-558.47 1288.54,-561.238 1288.03,-554.257"/>
</g>
</g>
</svg>
