<?xml version="1.0" encoding="UTF-8" standalone="no"?>
<!DOCTYPE svg PUBLIC "-//W3C//DTD SVG 1.1//EN"
 "http://www.w3.org/Graphics/SVG/1.1/DTD/svg11.dtd">
<!-- Generated by graphviz version 2.26.3 (20100126.1600)
 -->
<!-- Title: G Pages: 1 -->
<svg width="1304pt" height="110pt"
 viewBox="0.00 0.00 1304.00 110.00" xmlns="http://www.w3.org/2000/svg" xmlns:xlink="http://www.w3.org/1999/xlink">
<g id="graph1" class="graph" transform="scale(1 1) rotate(0) translate(4 106)">
<title>G</title>
<polygon fill="white" stroke="white" points="-4,5 -4,-106 1301,-106 1301,5 -4,5"/>
<!-- Node1 -->
<g id="node1" class="node"><title>Node1</title>
<polygon fill="#bfbfbf" stroke="black" points="0.5,-60.5 0.5,-81.5 281.5,-81.5 281.5,-60.5 0.5,-60.5"/>
<text text-anchor="middle" x="141" y="-68.5" font-family="Helvetica,sans-Serif" font-size="10.00">ZendDbSchema_Db_Schema_Table_ForeignKey\setColumn</text>
</g>
<!-- Node2 -->
<g id="node3" class="node"><title>Node2</title>
<a xlink:href="classZendDbSchema__Db__Schema__Table__ForeignKey.html#a5cd45e4bc92ac5975975753e459b4c8c" target="_top" xlink:title="ZendDbSchema_Db_Schema_Table_ForeignKey\\getColumns">
<polygon fill="white" stroke="black" points="318,-80.5 318,-101.5 604,-101.5 604,-80.5 318,-80.5"/>
<text text-anchor="middle" x="461" y="-88.5" font-family="Helvetica,sans-Serif" font-size="10.00">ZendDbSchema_Db_Schema_Table_ForeignKey\getColumns</text>
</a>
</g>
<!-- Node1&#45;&gt;Node2 -->
<g id="edge2" class="edge"><title>Node1&#45;&gt;Node2</title>
<path fill="none" stroke="midnightblue" d="M281.822,-79.8014C290.44,-80.34 299.132,-80.8832 307.798,-81.4249"/>
<polygon fill="midnightblue" stroke="midnightblue" points="307.754,-84.9288 317.952,-82.0595 308.19,-77.9425 307.754,-84.9288"/>
</g>
<!-- Node5 -->
<g id="node9" class="node"><title>Node5</title>
<a xlink:href="classZendDbSchema__Db__Schema__Table__ForeignKey.html#afb0c42af85a63c6347973ce79d2e7d80" target="_top" xlink:title="ZendDbSchema_Db_Schema_Table_ForeignKey\\setColumns">
<polygon fill="white" stroke="black" points="318,-40.5 318,-61.5 604,-61.5 604,-40.5 318,-40.5"/>
<text text-anchor="middle" x="461" y="-48.5" font-family="Helvetica,sans-Serif" font-size="10.00">ZendDbSchema_Db_Schema_Table_ForeignKey\setColumns</text>
</a>
</g>
<!-- Node1&#45;&gt;Node5 -->
<g id="edge8" class="edge"><title>Node1&#45;&gt;Node5</title>
<path fill="none" stroke="midnightblue" d="M281.822,-62.1986C290.44,-61.66 299.132,-61.1168 307.798,-60.5751"/>
<polygon fill="midnightblue" stroke="midnightblue" points="308.19,-64.0575 317.952,-59.9405 307.754,-57.0712 308.19,-64.0575"/>
</g>
<!-- Node3 -->
<g id="node5" class="node"><title>Node3</title>
<a xlink:href="classZendDbSchema__Db__Schema__AbstractSchema.html#a54d32c6f15463eaad2321a9f0e7225d7" target="_top" xlink:title="ZendDbSchema_Db_Schema_AbstractSchema\\__get">
<polygon fill="white" stroke="black" points="657.5,-80.5 657.5,-101.5 908.5,-101.5 908.5,-80.5 657.5,-80.5"/>
<text text-anchor="middle" x="783" y="-88.5" font-family="Helvetica,sans-Serif" font-size="10.00">ZendDbSchema_Db_Schema_AbstractSchema\__get</text>
</a>
</g>
<!-- Node2&#45;&gt;Node3 -->
<g id="edge4" class="edge"><title>Node2&#45;&gt;Node3</title>
<path fill="none" stroke="midnightblue" d="M604.109,-91C618.301,-91 632.68,-91 646.799,-91"/>
<polygon fill="midnightblue" stroke="midnightblue" points="647.027,-94.5001 657.027,-91 647.027,-87.5001 647.027,-94.5001"/>
</g>
<!-- Node4 -->
<g id="node7" class="node"><title>Node4</title>
<a xlink:href="classZendDbSchema__Db__Schema__AbstractSchema.html#ac4e121ba7932163eb1950fabe06fb9db" target="_top" xlink:title="ZendDbSchema_Db_Schema_AbstractSchema\\__isset">
<polygon fill="white" stroke="black" points="999.5,-80.5 999.5,-101.5 1258.5,-101.5 1258.5,-80.5 999.5,-80.5"/>
<text text-anchor="middle" x="1129" y="-88.5" font-family="Helvetica,sans-Serif" font-size="10.00">ZendDbSchema_Db_Schema_AbstractSchema\__isset</text>
</a>
</g>
<!-- Node3&#45;&gt;Node4 -->
<g id="edge6" class="edge"><title>Node3&#45;&gt;Node4</title>
<path fill="none" stroke="midnightblue" d="M908.893,-91C935.021,-91 962.701,-91 989.291,-91"/>
<polygon fill="midnightblue" stroke="midnightblue" points="989.423,-94.5001 999.423,-91 989.423,-87.5001 989.423,-94.5001"/>
</g>
<!-- Node6 -->
<g id="node11" class="node"><title>Node6</title>
<a xlink:href="classZendDbSchema__Db__Schema__Table__AbstractDefinition.html#a65498451683b2cf8fd1dc65f7f03581d" target="_top" xlink:title="ZendDbSchema_Db_Schema_Table_AbstractDefinition\\__set">
<polygon fill="white" stroke="black" points="640,-40.5 640,-61.5 926,-61.5 926,-40.5 640,-40.5"/>
<text text-anchor="middle" x="783" y="-48.5" font-family="Helvetica,sans-Serif" font-size="10.00">ZendDbSchema_Db_Schema_Table_AbstractDefinition\__set</text>
</a>
</g>
<!-- Node5&#45;&gt;Node6 -->
<g id="edge10" class="edge"><title>Node5&#45;&gt;Node6</title>
<path fill="none" stroke="midnightblue" d="M604.109,-51C612.62,-51 621.199,-51 629.748,-51"/>
<polygon fill="midnightblue" stroke="midnightblue" points="629.765,-54.5001 639.765,-51 629.765,-47.5001 629.765,-54.5001"/>
</g>
<!-- Node7 -->
<g id="node13" class="node"><title>Node7</title>
<a xlink:href="classZendDbSchema__Db__Schema__Table__AbstractDefinition.html#a224b6a0c1df1d6ed40e03657782ef6fc" target="_top" xlink:title="ZendDbSchema_Db_Schema_Table_AbstractDefinition\\getTable">
<polygon fill="white" stroke="black" points="979.5,-40.5 979.5,-61.5 1278.5,-61.5 1278.5,-40.5 979.5,-40.5"/>
<text text-anchor="middle" x="1129" y="-48.5" font-family="Helvetica,sans-Serif" font-size="10.00">ZendDbSchema_Db_Schema_Table_AbstractDefinition\getTable</text>
</a>
</g>
<!-- Node6&#45;&gt;Node7 -->
<g id="edge12" class="edge"><title>Node6&#45;&gt;Node7</title>
<path fill="none" stroke="midnightblue" d="M926.229,-51C940.366,-51 954.777,-51 969.068,-51"/>
<polygon fill="midnightblue" stroke="midnightblue" points="969.448,-54.5001 979.448,-51 969.448,-47.5001 969.448,-54.5001"/>
</g>
<!-- Node8 -->
<g id="node15" class="node"><title>Node8</title>
<a xlink:href="classZendDbSchema__Db__Schema__Table__AbstractDefinition.html#a2fb894602c4b7fbba5dd1d180f93c181" target="_top" xlink:title="ZendDbSchema_Db_Schema_Table_AbstractDefinition\\_getSchemaKey">
<polygon fill="white" stroke="black" points="962,-0.5 962,-21.5 1296,-21.5 1296,-0.5 962,-0.5"/>
<text text-anchor="middle" x="1129" y="-8.5" font-family="Helvetica,sans-Serif" font-size="10.00">ZendDbSchema_Db_Schema_Table_AbstractDefinition\_getSchemaKey</text>
</a>
</g>
<!-- Node6&#45;&gt;Node8 -->
<g id="edge14" class="edge"><title>Node6&#45;&gt;Node8</title>
<path fill="none" stroke="midnightblue" d="M873.907,-40.4905C921.299,-35.0117 979.39,-28.296 1028.16,-22.6579"/>
<polygon fill="midnightblue" stroke="midnightblue" points="1028.57,-26.1341 1038.1,-21.5087 1027.76,-19.1804 1028.57,-26.1341"/>
</g>
</g>
</svg>
