<?xml version="1.0" encoding="UTF-8" standalone="no"?>
<!DOCTYPE svg PUBLIC "-//W3C//DTD SVG 1.1//EN"
 "http://www.w3.org/Graphics/SVG/1.1/DTD/svg11.dtd">
<!-- Generated by graphviz version 2.26.3 (20100126.1600)
 -->
<!-- Title: G Pages: 1 -->
<svg width="1212pt" height="150pt"
 viewBox="0.00 0.00 1212.00 150.00" xmlns="http://www.w3.org/2000/svg" xmlns:xlink="http://www.w3.org/1999/xlink">
<g id="graph1" class="graph" transform="scale(1 1) rotate(0) translate(4 146)">
<title>G</title>
<polygon fill="white" stroke="white" points="-4,5 -4,-146 1209,-146 1209,5 -4,5"/>
<!-- Node1 -->
<g id="node1" class="node"><title>Node1</title>
<polygon fill="#bfbfbf" stroke="black" points="0.5,-44.5 0.5,-65.5 241.5,-65.5 241.5,-44.5 0.5,-44.5"/>
<text text-anchor="middle" x="121" y="-52.5" font-family="Helvetica,sans-Serif" font-size="10.00">ZendDbSchema_Db_Schema_Database\_doDelete</text>
</g>
<!-- Node2 -->
<g id="node3" class="node"><title>Node2</title>
<a xlink:href="classZendDbSchema__Db__Schema__AbstractSchema.html#a47d95912f6bf6d26d023597887dafacb" target="_top" xlink:title="ZendDbSchema_Db_Schema_AbstractSchema\\getAdapter">
<polygon fill="white" stroke="black" points="287.5,-67.5 287.5,-88.5 562.5,-88.5 562.5,-67.5 287.5,-67.5"/>
<text text-anchor="middle" x="425" y="-75.5" font-family="Helvetica,sans-Serif" font-size="10.00">ZendDbSchema_Db_Schema_AbstractSchema\getAdapter</text>
</a>
</g>
<!-- Node1&#45;&gt;Node2 -->
<g id="edge2" class="edge"><title>Node1&#45;&gt;Node2</title>
<path fill="none" stroke="midnightblue" d="M241.585,-64.1232C253.306,-65.01 265.287,-65.9165 277.233,-66.8203"/>
<polygon fill="midnightblue" stroke="midnightblue" points="277.018,-70.3139 287.254,-67.5784 277.546,-63.3339 277.018,-70.3139"/>
</g>
<!-- Node7 -->
<g id="node13" class="node"><title>Node7</title>
<a xlink:href="classZendDbSchema__Db__Schema__AbstractSchema.html#adacb1417b461310c5c87f72c459c1985" target="_top" xlink:title="ZendDbSchema_Db_Schema_AbstractSchema\\getOriginName">
<polygon fill="white" stroke="black" points="278.5,-22.5 278.5,-43.5 571.5,-43.5 571.5,-22.5 278.5,-22.5"/>
<text text-anchor="middle" x="425" y="-30.5" font-family="Helvetica,sans-Serif" font-size="10.00">ZendDbSchema_Db_Schema_AbstractSchema\getOriginName</text>
</a>
</g>
<!-- Node1&#45;&gt;Node7 -->
<g id="edge12" class="edge"><title>Node1&#45;&gt;Node7</title>
<path fill="none" stroke="midnightblue" d="M241.585,-46.2734C250.777,-45.6083 260.128,-44.9315 269.497,-44.2535"/>
<polygon fill="midnightblue" stroke="midnightblue" points="269.943,-47.7305 279.664,-43.5177 269.438,-40.7487 269.943,-47.7305"/>
</g>
<!-- Node3 -->
<g id="node5" class="node"><title>Node3</title>
<a xlink:href="classZendDbSchema__Db__Schema__AbstractSchema.html#a6349649e5e09d67a5b5e0abe96298db8" target="_top" xlink:title="ZendDbSchema_Db_Schema_AbstractSchema\\setAdapter">
<polygon fill="white" stroke="black" points="608.5,-77.5 608.5,-98.5 883.5,-98.5 883.5,-77.5 608.5,-77.5"/>
<text text-anchor="middle" x="746" y="-85.5" font-family="Helvetica,sans-Serif" font-size="10.00">ZendDbSchema_Db_Schema_AbstractSchema\setAdapter</text>
</a>
</g>
<!-- Node2&#45;&gt;Node3 -->
<g id="edge4" class="edge"><title>Node2&#45;&gt;Node3</title>
<path fill="none" stroke="midnightblue" d="M562.53,-82.2844C574.243,-82.6493 586.124,-83.0194 597.914,-83.3867"/>
<polygon fill="midnightblue" stroke="midnightblue" points="598.141,-86.8954 608.245,-83.7086 598.359,-79.8988 598.141,-86.8954"/>
</g>
<!-- Node4 -->
<g id="node7" class="node"><title>Node4</title>
<a xlink:href="classZendDbSchema__Db__Schema__AbstractSchema.html#a53a1974dbc8822792a8d7b9c618d3a02" target="_top" xlink:title="ZendDbSchema_Db_Schema_AbstractSchema\\setGenerator">
<polygon fill="white" stroke="black" points="920,-120.5 920,-141.5 1204,-141.5 1204,-120.5 920,-120.5"/>
<text text-anchor="middle" x="1062" y="-128.5" font-family="Helvetica,sans-Serif" font-size="10.00">ZendDbSchema_Db_Schema_AbstractSchema\setGenerator</text>
</a>
</g>
<!-- Node3&#45;&gt;Node4 -->
<g id="edge6" class="edge"><title>Node3&#45;&gt;Node4</title>
<path fill="none" stroke="midnightblue" d="M823.302,-98.519C869.104,-104.752 927.273,-112.667 974.721,-119.123"/>
<polygon fill="midnightblue" stroke="midnightblue" points="974.294,-122.598 984.675,-120.478 975.238,-115.661 974.294,-122.598"/>
</g>
<!-- Node5 -->
<g id="node9" class="node"><title>Node5</title>
<a xlink:href="classZendDbSchema__Db__Schema__AbstractSchema.html#aa0e6c9f8d58702dc41d988f064f62698" target="_top" xlink:title="ZendDbSchema_Db_Schema_AbstractSchema\\setParser">
<polygon fill="white" stroke="black" points="927.5,-80.5 927.5,-101.5 1196.5,-101.5 1196.5,-80.5 927.5,-80.5"/>
<text text-anchor="middle" x="1062" y="-88.5" font-family="Helvetica,sans-Serif" font-size="10.00">ZendDbSchema_Db_Schema_AbstractSchema\setParser</text>
</a>
</g>
<!-- Node3&#45;&gt;Node5 -->
<g id="edge8" class="edge"><title>Node3&#45;&gt;Node5</title>
<path fill="none" stroke="midnightblue" d="M883.683,-89.3071C894.761,-89.4123 905.975,-89.5188 917.102,-89.6244"/>
<polygon fill="midnightblue" stroke="midnightblue" points="917.257,-93.1259 927.289,-89.7211 917.323,-86.1262 917.257,-93.1259"/>
</g>
<!-- Node6 -->
<g id="node11" class="node"><title>Node6</title>
<a xlink:href="classZendDbSchema__Db__Schema__AbstractSchema.html#ac0161e2c24dafba8433fb86205a147fe" target="_top" xlink:title="ZendDbSchema_Db_Schema_AbstractSchema\\setValidator">
<polygon fill="white" stroke="black" points="922.5,-40.5 922.5,-61.5 1201.5,-61.5 1201.5,-40.5 922.5,-40.5"/>
<text text-anchor="middle" x="1062" y="-48.5" font-family="Helvetica,sans-Serif" font-size="10.00">ZendDbSchema_Db_Schema_AbstractSchema\setValidator</text>
</a>
</g>
<!-- Node3&#45;&gt;Node6 -->
<g id="edge10" class="edge"><title>Node3&#45;&gt;Node6</title>
<path fill="none" stroke="midnightblue" d="M835.708,-77.4963C875.069,-72.8874 921.433,-67.4588 961.912,-62.7192"/>
<polygon fill="midnightblue" stroke="midnightblue" points="962.543,-66.1693 972.068,-61.53 961.729,-59.2168 962.543,-66.1693"/>
</g>
<!-- Node8 -->
<g id="node15" class="node"><title>Node8</title>
<a xlink:href="classZendDbSchema__Db__Schema__AbstractSchema.html#a54d32c6f15463eaad2321a9f0e7225d7" target="_top" xlink:title="ZendDbSchema_Db_Schema_AbstractSchema\\__get">
<polygon fill="white" stroke="black" points="620.5,-20.5 620.5,-41.5 871.5,-41.5 871.5,-20.5 620.5,-20.5"/>
<text text-anchor="middle" x="746" y="-28.5" font-family="Helvetica,sans-Serif" font-size="10.00">ZendDbSchema_Db_Schema_AbstractSchema\__get</text>
</a>
</g>
<!-- Node7&#45;&gt;Node8 -->
<g id="edge14" class="edge"><title>Node7&#45;&gt;Node8</title>
<path fill="none" stroke="midnightblue" d="M571.878,-32.0849C584.644,-32.0053 597.525,-31.9251 610.197,-31.8461"/>
<polygon fill="midnightblue" stroke="midnightblue" points="610.329,-35.3455 620.307,-31.7831 610.285,-28.3456 610.329,-35.3455"/>
</g>
<!-- Node9 -->
<g id="node17" class="node"><title>Node9</title>
<a xlink:href="classZendDbSchema__Db__Schema__AbstractSchema.html#ac4e121ba7932163eb1950fabe06fb9db" target="_top" xlink:title="ZendDbSchema_Db_Schema_AbstractSchema\\__isset">
<polygon fill="white" stroke="black" points="932.5,-0.5 932.5,-21.5 1191.5,-21.5 1191.5,-0.5 932.5,-0.5"/>
<text text-anchor="middle" x="1062" y="-8.5" font-family="Helvetica,sans-Serif" font-size="10.00">ZendDbSchema_Db_Schema_AbstractSchema\__isset</text>
</a>
</g>
<!-- Node8&#45;&gt;Node9 -->
<g id="edge16" class="edge"><title>Node8&#45;&gt;Node9</title>
<path fill="none" stroke="midnightblue" d="M871.8,-23.038C888.333,-21.9916 905.358,-20.914 922.108,-19.8539"/>
<polygon fill="midnightblue" stroke="midnightblue" points="922.736,-23.3213 932.495,-19.1965 922.294,-16.3353 922.736,-23.3213"/>
</g>
</g>
</svg>
