<?xml version="1.0" encoding="UTF-8" standalone="no"?>
<!DOCTYPE svg PUBLIC "-//W3C//DTD SVG 1.1//EN"
 "http://www.w3.org/Graphics/SVG/1.1/DTD/svg11.dtd">
<!-- Generated by graphviz version 2.26.3 (20100126.1600)
 -->
<!-- Title: G Pages: 1 -->
<svg width="242pt" height="224pt"
 viewBox="0.00 0.00 242.00 224.00" xmlns="http://www.w3.org/2000/svg" xmlns:xlink="http://www.w3.org/1999/xlink">
<g id="graph1" class="graph" transform="scale(1 1) rotate(0) translate(4 220)">
<title>G</title>
<polygon fill="white" stroke="white" points="-4,5 -4,-220 239,-220 239,5 -4,5"/>
<!-- Node1 -->
<g id="node1" class="node"><title>Node1</title>
<polygon fill="#bfbfbf" stroke="black" points="18,-0.5 18,-89.5 216,-89.5 216,-0.5 18,-0.5"/>
<text text-anchor="middle" x="117" y="-76.5" font-family="Helvetica,sans-Serif" font-size="10.00">ZendDbSchema_Db_Adapter_Pdo_Mysql</text>
<polyline fill="none" stroke="black" points="18,-68.5 216,-68.5 "/>
<text text-anchor="middle" x="117" y="-55.5" font-family="Helvetica,sans-Serif" font-size="10.00"> </text>
<polyline fill="none" stroke="black" points="18,-47.5 216,-47.5 "/>
<text text-anchor="start" x="26" y="-34.5" font-family="Helvetica,sans-Serif" font-size="10.00">+ hasDatabase()</text>
<text text-anchor="start" x="26" y="-21.5" font-family="Helvetica,sans-Serif" font-size="10.00">+ listDatabases()</text>
<text text-anchor="start" x="26" y="-8.5" font-family="Helvetica,sans-Serif" font-size="10.00">+ hasTable()</text>
</g>
<!-- Node2 -->
<g id="node2" class="node"><title>Node2</title>
<a xlink:href="interfaceZendDbSchema__Db__Adapter__SchemaCompatible.html" target="_top" xlink:title="{ZendDbSchema_Db_Adapter_SchemaCompatible\n||+ hasDatabase()\l+ listDatabases()\l+ hasTable()\l}">
<polygon fill="white" stroke="black" points="-0.5,-126.5 -0.5,-215.5 234.5,-215.5 234.5,-126.5 -0.5,-126.5"/>
<text text-anchor="middle" x="117" y="-202.5" font-family="Helvetica,sans-Serif" font-size="10.00">ZendDbSchema_Db_Adapter_SchemaCompatible</text>
<polyline fill="none" stroke="black" points="-0.5,-194.5 234.5,-194.5 "/>
<text text-anchor="middle" x="117" y="-181.5" font-family="Helvetica,sans-Serif" font-size="10.00"> </text>
<polyline fill="none" stroke="black" points="-0.5,-173.5 234.5,-173.5 "/>
<text text-anchor="start" x="7.5" y="-160.5" font-family="Helvetica,sans-Serif" font-size="10.00">+ hasDatabase()</text>
<text text-anchor="start" x="7.5" y="-147.5" font-family="Helvetica,sans-Serif" font-size="10.00">+ listDatabases()</text>
<text text-anchor="start" x="7.5" y="-134.5" font-family="Helvetica,sans-Serif" font-size="10.00">+ hasTable()</text>
</a>
</g>
<!-- Node2&#45;&gt;Node1 -->
<g id="edge2" class="edge"><title>Node2&#45;&gt;Node1</title>
<path fill="none" stroke="midnightblue" d="M117,-116.013C117,-107.198 117,-98.1691 117,-89.6335"/>
<polygon fill="none" stroke="midnightblue" points="113.5,-116.222 117,-126.222 120.5,-116.222 113.5,-116.222"/>
</g>
</g>
</svg>
