<?xml version="1.0" encoding="UTF-8" standalone="no"?>
<!DOCTYPE svg PUBLIC "-//W3C//DTD SVG 1.1//EN"
 "http://www.w3.org/Graphics/SVG/1.1/DTD/svg11.dtd">
<!-- Generated by graphviz version 2.26.3 (20100126.1600)
 -->
<!-- Title: G Pages: 1 -->
<svg width="916pt" height="110pt"
 viewBox="0.00 0.00 916.00 110.00" xmlns="http://www.w3.org/2000/svg" xmlns:xlink="http://www.w3.org/1999/xlink">
<g id="graph1" class="graph" transform="scale(1 1) rotate(0) translate(4 106)">
<title>G</title>
<polygon fill="white" stroke="white" points="-4,5 -4,-106 913,-106 913,5 -4,5"/>
<!-- Node1 -->
<g id="node1" class="node"><title>Node1</title>
<polygon fill="#bfbfbf" stroke="black" points="0.5,-40.5 0.5,-61.5 275.5,-61.5 275.5,-40.5 0.5,-40.5"/>
<text text-anchor="middle" x="138" y="-48.5" font-family="Helvetica,sans-Serif" font-size="10.00">ZendDbSchema_Db_Schema_AbstractSchema\getAdapter</text>
</g>
<!-- Node2 -->
<g id="node3" class="node"><title>Node2</title>
<a xlink:href="classZendDbSchema__Db__Schema__AbstractSchema.html#a6349649e5e09d67a5b5e0abe96298db8" target="_top" xlink:title="ZendDbSchema_Db_Schema_AbstractSchema\\setAdapter">
<polygon fill="white" stroke="black" points="312.5,-40.5 312.5,-61.5 587.5,-61.5 587.5,-40.5 312.5,-40.5"/>
<text text-anchor="middle" x="450" y="-48.5" font-family="Helvetica,sans-Serif" font-size="10.00">ZendDbSchema_Db_Schema_AbstractSchema\setAdapter</text>
</a>
</g>
<!-- Node1&#45;&gt;Node2 -->
<g id="edge2" class="edge"><title>Node1&#45;&gt;Node2</title>
<path fill="none" stroke="midnightblue" d="M275.756,-51C284.438,-51 293.197,-51 301.923,-51"/>
<polygon fill="midnightblue" stroke="midnightblue" points="302.145,-54.5001 312.145,-51 302.145,-47.5001 302.145,-54.5001"/>
</g>
<!-- Node3 -->
<g id="node5" class="node"><title>Node3</title>
<a xlink:href="classZendDbSchema__Db__Schema__AbstractSchema.html#a53a1974dbc8822792a8d7b9c618d3a02" target="_top" xlink:title="ZendDbSchema_Db_Schema_AbstractSchema\\setGenerator">
<polygon fill="white" stroke="black" points="624,-80.5 624,-101.5 908,-101.5 908,-80.5 624,-80.5"/>
<text text-anchor="middle" x="766" y="-88.5" font-family="Helvetica,sans-Serif" font-size="10.00">ZendDbSchema_Db_Schema_AbstractSchema\setGenerator</text>
</a>
</g>
<!-- Node2&#45;&gt;Node3 -->
<g id="edge4" class="edge"><title>Node2&#45;&gt;Node3</title>
<path fill="none" stroke="midnightblue" d="M533.025,-61.5095C575.946,-66.9425 628.476,-73.5919 672.785,-79.2006"/>
<polygon fill="midnightblue" stroke="midnightblue" points="672.621,-82.7077 682.981,-80.4913 673.5,-75.7631 672.621,-82.7077"/>
</g>
<!-- Node4 -->
<g id="node7" class="node"><title>Node4</title>
<a xlink:href="classZendDbSchema__Db__Schema__AbstractSchema.html#aa0e6c9f8d58702dc41d988f064f62698" target="_top" xlink:title="ZendDbSchema_Db_Schema_AbstractSchema\\setParser">
<polygon fill="white" stroke="black" points="631.5,-40.5 631.5,-61.5 900.5,-61.5 900.5,-40.5 631.5,-40.5"/>
<text text-anchor="middle" x="766" y="-48.5" font-family="Helvetica,sans-Serif" font-size="10.00">ZendDbSchema_Db_Schema_AbstractSchema\setParser</text>
</a>
</g>
<!-- Node2&#45;&gt;Node4 -->
<g id="edge6" class="edge"><title>Node2&#45;&gt;Node4</title>
<path fill="none" stroke="midnightblue" d="M587.683,-51C598.761,-51 609.975,-51 621.102,-51"/>
<polygon fill="midnightblue" stroke="midnightblue" points="621.289,-54.5001 631.289,-51 621.289,-47.5001 621.289,-54.5001"/>
</g>
<!-- Node5 -->
<g id="node9" class="node"><title>Node5</title>
<a xlink:href="classZendDbSchema__Db__Schema__AbstractSchema.html#ac0161e2c24dafba8433fb86205a147fe" target="_top" xlink:title="ZendDbSchema_Db_Schema_AbstractSchema\\setValidator">
<polygon fill="white" stroke="black" points="626.5,-0.5 626.5,-21.5 905.5,-21.5 905.5,-0.5 626.5,-0.5"/>
<text text-anchor="middle" x="766" y="-8.5" font-family="Helvetica,sans-Serif" font-size="10.00">ZendDbSchema_Db_Schema_AbstractSchema\setValidator</text>
</a>
</g>
<!-- Node2&#45;&gt;Node5 -->
<g id="edge8" class="edge"><title>Node2&#45;&gt;Node5</title>
<path fill="none" stroke="midnightblue" d="M533.025,-40.4905C575.946,-35.0575 628.476,-28.4081 672.785,-22.7994"/>
<polygon fill="midnightblue" stroke="midnightblue" points="673.5,-26.2369 682.981,-21.5087 672.621,-19.2923 673.5,-26.2369"/>
</g>
</g>
</svg>
