<?xml version="1.0" encoding="UTF-8" standalone="no"?>
<!DOCTYPE svg PUBLIC "-//W3C//DTD SVG 1.1//EN"
 "http://www.w3.org/Graphics/SVG/1.1/DTD/svg11.dtd">
<!-- Generated by graphviz version 2.26.3 (20100126.1600)
 -->
<!-- Title: G Pages: 1 -->
<svg width="882pt" height="139pt"
 viewBox="0.00 0.00 882.00 139.00" xmlns="http://www.w3.org/2000/svg" xmlns:xlink="http://www.w3.org/1999/xlink">
<g id="graph1" class="graph" transform="scale(1 1) rotate(0) translate(4 135)">
<title>G</title>
<polygon fill="white" stroke="white" points="-4,5 -4,-135 879,-135 879,5 -4,5"/>
<!-- Node1 -->
<g id="node1" class="node"><title>Node1</title>
<polygon fill="#bfbfbf" stroke="black" points="0,-60.5 0,-107.5 146,-107.5 146,-60.5 0,-60.5"/>
<text text-anchor="start" x="8" y="-94.5" font-family="Helvetica,sans-Serif" font-size="10.00">ZendDbSchema_Db_Schema</text>
<text text-anchor="start" x="8" y="-81.5" font-family="Helvetica,sans-Serif" font-size="10.00">_Generator_Mysql_Table</text>
<text text-anchor="middle" x="73" y="-68.5" font-family="Helvetica,sans-Serif" font-size="10.00">\createColumn</text>
</g>
<!-- Node2 -->
<g id="node3" class="node"><title>Node2</title>
<a xlink:href="classZendDbSchema__Db__Schema__AbstractSchema.html#a55787c21deddba427842809d589c2df6" target="_top" xlink:title="ZendDbSchema_Db_Schema\l_AbstractSchema\\getName">
<polygon fill="white" stroke="black" points="182,-97 182,-131 328,-131 328,-97 182,-97"/>
<text text-anchor="start" x="190" y="-118" font-family="Helvetica,sans-Serif" font-size="10.00">ZendDbSchema_Db_Schema</text>
<text text-anchor="middle" x="255" y="-105" font-family="Helvetica,sans-Serif" font-size="10.00">_AbstractSchema\getName</text>
</a>
</g>
<!-- Node1&#45;&gt;Node2 -->
<g id="edge2" class="edge"><title>Node1&#45;&gt;Node2</title>
<path fill="none" stroke="midnightblue" d="M146.24,-96.0725C154.688,-97.4651 163.349,-98.8927 171.916,-100.305"/>
<polygon fill="midnightblue" stroke="midnightblue" points="171.474,-103.779 181.91,-101.952 172.613,-96.8724 171.474,-103.779"/>
</g>
<!-- Node5 -->
<g id="node9" class="node"><title>Node5</title>
<a xlink:href="classZendDbSchema__Db__Schema__Generator__Mysql__Table.html#a86ed47276429129c5962489dcd370e0e" target="_top" xlink:title="ZendDbSchema_Db_Schema\l_Generator_Mysql_Table\l\\_columnSql">
<polygon fill="white" stroke="black" points="182,-31.5 182,-78.5 328,-78.5 328,-31.5 182,-31.5"/>
<text text-anchor="start" x="190" y="-65.5" font-family="Helvetica,sans-Serif" font-size="10.00">ZendDbSchema_Db_Schema</text>
<text text-anchor="start" x="190" y="-52.5" font-family="Helvetica,sans-Serif" font-size="10.00">_Generator_Mysql_Table</text>
<text text-anchor="middle" x="255" y="-39.5" font-family="Helvetica,sans-Serif" font-size="10.00">\_columnSql</text>
</a>
</g>
<!-- Node1&#45;&gt;Node5 -->
<g id="edge8" class="edge"><title>Node1&#45;&gt;Node5</title>
<path fill="none" stroke="midnightblue" d="M146.24,-72.3299C154.688,-70.9838 163.349,-69.6037 171.916,-68.2387"/>
<polygon fill="midnightblue" stroke="midnightblue" points="172.586,-71.6762 181.91,-66.6462 171.484,-64.7634 172.586,-71.6762"/>
</g>
<!-- Node3 -->
<g id="node5" class="node"><title>Node3</title>
<a xlink:href="classZendDbSchema__Db__Schema__AbstractSchema.html#a54d32c6f15463eaad2321a9f0e7225d7" target="_top" xlink:title="ZendDbSchema_Db_Schema\l_AbstractSchema\\__get">
<polygon fill="white" stroke="black" points="546,-52 546,-86 692,-86 692,-52 546,-52"/>
<text text-anchor="start" x="554" y="-73" font-family="Helvetica,sans-Serif" font-size="10.00">ZendDbSchema_Db_Schema</text>
<text text-anchor="middle" x="619" y="-60" font-family="Helvetica,sans-Serif" font-size="10.00">_AbstractSchema\__get</text>
</a>
</g>
<!-- Node2&#45;&gt;Node3 -->
<g id="edge4" class="edge"><title>Node2&#45;&gt;Node3</title>
<path fill="none" stroke="midnightblue" d="M328.173,-111.65C379.339,-109.251 449.135,-104.464 510,-95 521.489,-93.2135 533.554,-90.844 545.301,-88.2612"/>
<polygon fill="midnightblue" stroke="midnightblue" points="546.093,-91.6706 555.073,-86.0495 544.548,-84.8433 546.093,-91.6706"/>
</g>
<!-- Node4 -->
<g id="node7" class="node"><title>Node4</title>
<a xlink:href="classZendDbSchema__Db__Schema__AbstractSchema.html#ac4e121ba7932163eb1950fabe06fb9db" target="_top" xlink:title="ZendDbSchema_Db_Schema\l_AbstractSchema\\__isset">
<polygon fill="white" stroke="black" points="728,-52 728,-86 874,-86 874,-52 728,-52"/>
<text text-anchor="start" x="736" y="-73" font-family="Helvetica,sans-Serif" font-size="10.00">ZendDbSchema_Db_Schema</text>
<text text-anchor="middle" x="801" y="-60" font-family="Helvetica,sans-Serif" font-size="10.00">_AbstractSchema\__isset</text>
</a>
</g>
<!-- Node3&#45;&gt;Node4 -->
<g id="edge6" class="edge"><title>Node3&#45;&gt;Node4</title>
<path fill="none" stroke="midnightblue" d="M692.24,-69C700.596,-69 709.161,-69 717.636,-69"/>
<polygon fill="midnightblue" stroke="midnightblue" points="717.91,-72.5001 727.91,-69 717.91,-65.5001 717.91,-72.5001"/>
</g>
<!-- Node6 -->
<g id="node11" class="node"><title>Node6</title>
<a xlink:href="classZendDbSchema__Db__Schema__Table__Column.html#aeeed5820cfc4fac67507a196e9faa638" target="_top" xlink:title="ZendDbSchema_Db_Schema\l_Table_Column\\isNullable">
<polygon fill="white" stroke="black" points="364,-52 364,-86 510,-86 510,-52 364,-52"/>
<text text-anchor="start" x="372" y="-73" font-family="Helvetica,sans-Serif" font-size="10.00">ZendDbSchema_Db_Schema</text>
<text text-anchor="middle" x="437" y="-60" font-family="Helvetica,sans-Serif" font-size="10.00">_Table_Column\isNullable</text>
</a>
</g>
<!-- Node5&#45;&gt;Node6 -->
<g id="edge10" class="edge"><title>Node5&#45;&gt;Node6</title>
<path fill="none" stroke="midnightblue" d="M328.24,-60.6338C336.688,-61.2837 345.349,-61.9499 353.916,-62.6089"/>
<polygon fill="midnightblue" stroke="midnightblue" points="353.671,-66.1003 363.91,-63.3777 354.208,-59.121 353.671,-66.1003"/>
</g>
<!-- Node7 -->
<g id="node14" class="node"><title>Node7</title>
<a xlink:href="classZendDbSchema__Db__Schema__Table__Column.html#a49887d783c47fa509e229ca61dd113ef" target="_top" xlink:title="ZendDbSchema_Db_Schema\l_Table_Column\\isSigned">
<polygon fill="white" stroke="black" points="364,-0 364,-34 510,-34 510,-0 364,-0"/>
<text text-anchor="start" x="372" y="-21" font-family="Helvetica,sans-Serif" font-size="10.00">ZendDbSchema_Db_Schema</text>
<text text-anchor="middle" x="437" y="-8" font-family="Helvetica,sans-Serif" font-size="10.00">_Table_Column\isSigned</text>
</a>
</g>
<!-- Node5&#45;&gt;Node7 -->
<g id="edge14" class="edge"><title>Node5&#45;&gt;Node7</title>
<path fill="none" stroke="midnightblue" d="M328.24,-39.7082C336.688,-37.9443 345.349,-36.1359 353.916,-34.3473"/>
<polygon fill="midnightblue" stroke="midnightblue" points="354.837,-37.7305 363.91,-32.2605 353.406,-30.8783 354.837,-37.7305"/>
</g>
<!-- Node6&#45;&gt;Node3 -->
<g id="edge12" class="edge"><title>Node6&#45;&gt;Node3</title>
<path fill="none" stroke="midnightblue" d="M510.24,-69C518.596,-69 527.161,-69 535.636,-69"/>
<polygon fill="midnightblue" stroke="midnightblue" points="535.91,-72.5001 545.91,-69 535.91,-65.5001 535.91,-72.5001"/>
</g>
<!-- Node7&#45;&gt;Node3 -->
<g id="edge16" class="edge"><title>Node7&#45;&gt;Node3</title>
<path fill="none" stroke="midnightblue" d="M496.594,-34.0267C513.406,-38.8303 531.848,-44.0995 549.202,-49.0576"/>
<polygon fill="midnightblue" stroke="midnightblue" points="548.696,-52.5531 559.273,-51.935 550.619,-45.8224 548.696,-52.5531"/>
</g>
</g>
</svg>
