<?xml version="1.0" encoding="UTF-8" standalone="no"?>
<!DOCTYPE svg PUBLIC "-//W3C//DTD SVG 1.1//EN"
 "http://www.w3.org/Graphics/SVG/1.1/DTD/svg11.dtd">
<!-- Generated by graphviz version 2.26.3 (20100126.1600)
 -->
<!-- Title: G Pages: 1 -->
<svg width="1574pt" height="168pt"
 viewBox="0.00 0.00 1574.00 168.43" xmlns="http://www.w3.org/2000/svg" xmlns:xlink="http://www.w3.org/1999/xlink">
<g id="graph1" class="graph" transform="scale(1 1) rotate(0) translate(4 164.426)">
<title>G</title>
<polygon fill="white" stroke="white" points="-4,5 -4,-164.426 1571,-164.426 1571,5 -4,5"/>
<!-- Node1 -->
<g id="node1" class="node"><title>Node1</title>
<polygon fill="#bfbfbf" stroke="black" points="0,-79.5 0,-100.5 280,-100.5 280,-79.5 0,-79.5"/>
<text text-anchor="middle" x="140" y="-87.5" font-family="Helvetica,sans-Serif" font-size="10.00">ZendDbSchema_Db_Schema_Generator_Mysql\createIndex</text>
</g>
<!-- Node2 -->
<g id="node3" class="node"><title>Node2</title>
<a xlink:href="classZendDbSchema__Db__Schema__AbstractSchema.html#a55787c21deddba427842809d589c2df6" target="_top" xlink:title="ZendDbSchema_Db_Schema_AbstractSchema\\getName">
<polygon fill="white" stroke="black" points="641.5,-119.5 641.5,-140.5 908.5,-140.5 908.5,-119.5 641.5,-119.5"/>
<text text-anchor="middle" x="775" y="-127.5" font-family="Helvetica,sans-Serif" font-size="10.00">ZendDbSchema_Db_Schema_AbstractSchema\getName</text>
</a>
</g>
<!-- Node1&#45;&gt;Node2 -->
<g id="edge2" class="edge"><title>Node1&#45;&gt;Node2</title>
<path fill="none" stroke="midnightblue" d="M163.293,-100.522C196.411,-114.847 259.385,-139.763 316,-149 451.24,-171.065 611.693,-154.955 702.603,-141.972"/>
<polygon fill="midnightblue" stroke="midnightblue" points="703.137,-145.432 712.529,-140.528 702.129,-138.505 703.137,-145.432"/>
</g>
<!-- Node5 -->
<g id="node9" class="node"><title>Node5</title>
<a xlink:href="classZendDbSchema__Db__Schema__Table__AbstractDefinition.html#a224b6a0c1df1d6ed40e03657782ef6fc" target="_top" xlink:title="ZendDbSchema_Db_Schema_Table_AbstractDefinition\\getTable">
<polygon fill="white" stroke="black" points="625.5,-79.5 625.5,-100.5 924.5,-100.5 924.5,-79.5 625.5,-79.5"/>
<text text-anchor="middle" x="775" y="-87.5" font-family="Helvetica,sans-Serif" font-size="10.00">ZendDbSchema_Db_Schema_Table_AbstractDefinition\getTable</text>
</a>
</g>
<!-- Node1&#45;&gt;Node5 -->
<g id="edge8" class="edge"><title>Node1&#45;&gt;Node5</title>
<path fill="none" stroke="midnightblue" d="M280.14,-90C379.11,-90 511.934,-90 615.055,-90"/>
<polygon fill="midnightblue" stroke="midnightblue" points="615.255,-93.5001 625.255,-90 615.255,-86.5001 615.255,-93.5001"/>
</g>
<!-- Node6 -->
<g id="node11" class="node"><title>Node6</title>
<a xlink:href="classZendDbSchema__Db__Schema__Table__Index.html#ad0edf2869c08ce408566798f4305b8dc" target="_top" xlink:title="ZendDbSchema_Db_Schema_Table_Index\\getColumns">
<polygon fill="white" stroke="black" points="322,-40.5 322,-61.5 582,-61.5 582,-40.5 322,-40.5"/>
<text text-anchor="middle" x="452" y="-48.5" font-family="Helvetica,sans-Serif" font-size="10.00">ZendDbSchema_Db_Schema_Table_Index\getColumns</text>
</a>
</g>
<!-- Node1&#45;&gt;Node6 -->
<g id="edge10" class="edge"><title>Node1&#45;&gt;Node6</title>
<path fill="none" stroke="midnightblue" d="M224.021,-79.4974C265.292,-74.3384 315.173,-68.1034 357.741,-62.7824"/>
<polygon fill="midnightblue" stroke="midnightblue" points="358.341,-66.2347 367.829,-61.5213 357.472,-59.2888 358.341,-66.2347"/>
</g>
<!-- Node7 -->
<g id="node14" class="node"><title>Node7</title>
<a xlink:href="classZendDbSchema__Db__Schema__AbstractSchema.html#a1680a8fd22360f74d29b641d7257a52f" target="_top" xlink:title="ZendDbSchema_Db_Schema_AbstractSchema\\isExist">
<polygon fill="white" stroke="black" points="323.5,-0.5 323.5,-21.5 580.5,-21.5 580.5,-0.5 323.5,-0.5"/>
<text text-anchor="middle" x="452" y="-8.5" font-family="Helvetica,sans-Serif" font-size="10.00">ZendDbSchema_Db_Schema_AbstractSchema\isExist</text>
</a>
</g>
<!-- Node1&#45;&gt;Node7 -->
<g id="edge14" class="edge"><title>Node1&#45;&gt;Node7</title>
<path fill="none" stroke="midnightblue" d="M166.702,-79.3907C200.818,-66.2231 261.933,-43.9296 316,-31 328.392,-28.0365 341.531,-25.4392 354.566,-23.1842"/>
<polygon fill="midnightblue" stroke="midnightblue" points="355.212,-26.6249 364.499,-21.5262 354.06,-19.7204 355.212,-26.6249"/>
</g>
<!-- Node10 -->
<g id="node20" class="node"><title>Node10</title>
<a xlink:href="classZendDbSchema__Db__Schema__Generator__Mysql.html#a196fb89cf511d31c7124169247de1a6d" target="_top" xlink:title="ZendDbSchema_Db_Schema_Generator_Mysql\\dropIndex">
<polygon fill="white" stroke="black" points="316,-118.5 316,-139.5 588,-139.5 588,-118.5 316,-118.5"/>
<text text-anchor="middle" x="452" y="-126.5" font-family="Helvetica,sans-Serif" font-size="10.00">ZendDbSchema_Db_Schema_Generator_Mysql\dropIndex</text>
</a>
</g>
<!-- Node1&#45;&gt;Node10 -->
<g id="edge20" class="edge"><title>Node1&#45;&gt;Node10</title>
<path fill="none" stroke="midnightblue" d="M224.021,-100.503C265.292,-105.662 315.173,-111.897 357.741,-117.218"/>
<polygon fill="midnightblue" stroke="midnightblue" points="357.472,-120.711 367.829,-118.479 358.341,-113.765 357.472,-120.711"/>
</g>
<!-- Node3 -->
<g id="node5" class="node"><title>Node3</title>
<a xlink:href="classZendDbSchema__Db__Schema__AbstractSchema.html#a54d32c6f15463eaad2321a9f0e7225d7" target="_top" xlink:title="ZendDbSchema_Db_Schema_AbstractSchema\\__get">
<polygon fill="white" stroke="black" points="990.5,-79.5 990.5,-100.5 1241.5,-100.5 1241.5,-79.5 990.5,-79.5"/>
<text text-anchor="middle" x="1116" y="-87.5" font-family="Helvetica,sans-Serif" font-size="10.00">ZendDbSchema_Db_Schema_AbstractSchema\__get</text>
</a>
</g>
<!-- Node2&#45;&gt;Node3 -->
<g id="edge4" class="edge"><title>Node2&#45;&gt;Node3</title>
<path fill="none" stroke="midnightblue" d="M864.594,-119.49C911.203,-114.023 968.313,-107.324 1016.32,-101.693"/>
<polygon fill="midnightblue" stroke="midnightblue" points="1016.89,-105.15 1026.41,-100.509 1016.07,-98.1977 1016.89,-105.15"/>
</g>
<!-- Node4 -->
<g id="node7" class="node"><title>Node4</title>
<a xlink:href="classZendDbSchema__Db__Schema__AbstractSchema.html#ac4e121ba7932163eb1950fabe06fb9db" target="_top" xlink:title="ZendDbSchema_Db_Schema_AbstractSchema\\__isset">
<polygon fill="white" stroke="black" points="1306.5,-79.5 1306.5,-100.5 1565.5,-100.5 1565.5,-79.5 1306.5,-79.5"/>
<text text-anchor="middle" x="1436" y="-87.5" font-family="Helvetica,sans-Serif" font-size="10.00">ZendDbSchema_Db_Schema_AbstractSchema\__isset</text>
</a>
</g>
<!-- Node3&#45;&gt;Node4 -->
<g id="edge6" class="edge"><title>Node3&#45;&gt;Node4</title>
<path fill="none" stroke="midnightblue" d="M1241.55,-90C1259.5,-90 1278.06,-90 1296.26,-90"/>
<polygon fill="midnightblue" stroke="midnightblue" points="1296.33,-93.5001 1306.33,-90 1296.33,-86.5001 1296.33,-93.5001"/>
</g>
<!-- Node6&#45;&gt;Node3 -->
<g id="edge12" class="edge"><title>Node6&#45;&gt;Node3</title>
<path fill="none" stroke="midnightblue" d="M582.143,-53.9459C677.448,-56.6559 809.872,-61.5695 926,-70 955.74,-72.1591 988.024,-75.2682 1017.4,-78.3938"/>
<polygon fill="midnightblue" stroke="midnightblue" points="1017.34,-81.9077 1027.66,-79.4985 1018.09,-74.9479 1017.34,-81.9077"/>
</g>
<!-- Node8 -->
<g id="node16" class="node"><title>Node8</title>
<a xlink:href="classZendDbSchema__Db__Schema__AbstractSchema.html#a46da7a60c7e5fd605607afbc1dac4baa" target="_top" xlink:title="ZendDbSchema_Db_Schema_AbstractSchema\\getCleanSchema">
<polygon fill="white" stroke="black" points="624,-0.5 624,-21.5 926,-21.5 926,-0.5 624,-0.5"/>
<text text-anchor="middle" x="775" y="-8.5" font-family="Helvetica,sans-Serif" font-size="10.00">ZendDbSchema_Db_Schema_AbstractSchema\getCleanSchema</text>
</a>
</g>
<!-- Node7&#45;&gt;Node8 -->
<g id="edge16" class="edge"><title>Node7&#45;&gt;Node8</title>
<path fill="none" stroke="midnightblue" d="M580.586,-11C591.496,-11 602.616,-11 613.734,-11"/>
<polygon fill="midnightblue" stroke="midnightblue" points="613.938,-14.5001 623.938,-11 613.938,-7.5001 613.938,-14.5001"/>
</g>
<!-- Node9 -->
<g id="node18" class="node"><title>Node9</title>
<a xlink:href="classZendDbSchema__Db__Schema__AbstractSchema.html#af99e5bb9adfe0da8c94d3d3848efe7b5" target="_top" xlink:title="ZendDbSchema_Db_Schema_AbstractSchema\\_getCleanSchema">
<polygon fill="white" stroke="black" points="962,-0.5 962,-21.5 1270,-21.5 1270,-0.5 962,-0.5"/>
<text text-anchor="middle" x="1116" y="-8.5" font-family="Helvetica,sans-Serif" font-size="10.00">ZendDbSchema_Db_Schema_AbstractSchema\_getCleanSchema</text>
</a>
</g>
<!-- Node8&#45;&gt;Node9 -->
<g id="edge18" class="edge"><title>Node8&#45;&gt;Node9</title>
<path fill="none" stroke="midnightblue" d="M926.057,-11C934.572,-11 943.152,-11 951.712,-11"/>
<polygon fill="midnightblue" stroke="midnightblue" points="951.745,-14.5001 961.745,-11 951.745,-7.5001 951.745,-14.5001"/>
</g>
<!-- Node10&#45;&gt;Node2 -->
<g id="edge22" class="edge"><title>Node10&#45;&gt;Node2</title>
<path fill="none" stroke="midnightblue" d="M588.045,-129.421C602.265,-129.465 616.756,-129.51 631.06,-129.554"/>
<polygon fill="midnightblue" stroke="midnightblue" points="631.426,-133.055 641.437,-129.586 631.448,-126.055 631.426,-133.055"/>
</g>
<!-- Node10&#45;&gt;Node5 -->
<g id="edge24" class="edge"><title>Node10&#45;&gt;Node5</title>
<path fill="none" stroke="midnightblue" d="M538.983,-118.497C581.8,-113.328 633.567,-107.077 677.696,-101.749"/>
<polygon fill="midnightblue" stroke="midnightblue" points="678.353,-105.195 687.862,-100.521 677.514,-98.2454 678.353,-105.195"/>
</g>
</g>
</svg>
