<?xml version="1.0" encoding="UTF-8" standalone="no"?>
<!DOCTYPE svg PUBLIC "-//W3C//DTD SVG 1.1//EN"
 "http://www.w3.org/Graphics/SVG/1.1/DTD/svg11.dtd">
<!-- Generated by graphviz version 2.26.3 (20100126.1600)
 -->
<!-- Title: G Pages: 1 -->
<svg width="1446pt" height="150pt"
 viewBox="0.00 0.00 1446.00 150.00" xmlns="http://www.w3.org/2000/svg" xmlns:xlink="http://www.w3.org/1999/xlink">
<g id="graph1" class="graph" transform="scale(1 1) rotate(0) translate(4 146)">
<title>G</title>
<polygon fill="white" stroke="white" points="-4,5 -4,-146 1443,-146 1443,5 -4,5"/>
<!-- Node1 -->
<g id="node1" class="node"><title>Node1</title>
<polygon fill="#bfbfbf" stroke="black" points="0.5,-99.5 0.5,-120.5 235.5,-120.5 235.5,-99.5 0.5,-99.5"/>
<text text-anchor="middle" x="118" y="-107.5" font-family="Helvetica,sans-Serif" font-size="10.00">ZendDbSchema_Db_Schema_Database\_doSave</text>
</g>
<!-- Node2 -->
<g id="node3" class="node"><title>Node2</title>
<a xlink:href="classZendDbSchema__Db__Schema__AbstractEntity.html#a22dab8db0a3727fb5c12ce5933c2f82e" target="_top" xlink:title="ZendDbSchema_Db_Schema_AbstractEntity\\toSql">
<polygon fill="white" stroke="black" points="272.5,-80.5 272.5,-101.5 511.5,-101.5 511.5,-80.5 272.5,-80.5"/>
<text text-anchor="middle" x="392" y="-88.5" font-family="Helvetica,sans-Serif" font-size="10.00">ZendDbSchema_Db_Schema_AbstractEntity\toSql</text>
</a>
</g>
<!-- Node1&#45;&gt;Node2 -->
<g id="edge2" class="edge"><title>Node1&#45;&gt;Node2</title>
<path fill="none" stroke="midnightblue" d="M235.791,-101.832C244.444,-101.232 253.201,-100.625 261.921,-100.02"/>
<polygon fill="midnightblue" stroke="midnightblue" points="262.397,-103.496 272.131,-99.3121 261.913,-96.5123 262.397,-103.496"/>
</g>
<!-- Node3 -->
<g id="node5" class="node"><title>Node3</title>
<a xlink:href="classZendDbSchema__Db__Schema__AbstractSchema.html#a1680a8fd22360f74d29b641d7257a52f" target="_top" xlink:title="ZendDbSchema_Db_Schema_AbstractSchema\\isExist">
<polygon fill="white" stroke="black" points="559.5,-120.5 559.5,-141.5 816.5,-141.5 816.5,-120.5 559.5,-120.5"/>
<text text-anchor="middle" x="688" y="-128.5" font-family="Helvetica,sans-Serif" font-size="10.00">ZendDbSchema_Db_Schema_AbstractSchema\isExist</text>
</a>
</g>
<!-- Node1&#45;&gt;Node3 -->
<g id="edge22" class="edge"><title>Node1&#45;&gt;Node3</title>
<path fill="none" stroke="midnightblue" d="M235.759,-114.338C326.908,-117.697 453.375,-122.356 549.402,-125.894"/>
<polygon fill="midnightblue" stroke="midnightblue" points="549.357,-129.394 559.48,-126.265 549.615,-122.399 549.357,-129.394"/>
</g>
<!-- Node2&#45;&gt;Node3 -->
<g id="edge4" class="edge"><title>Node2&#45;&gt;Node3</title>
<path fill="none" stroke="midnightblue" d="M469.771,-101.51C509.806,-106.92 558.766,-113.536 600.16,-119.13"/>
<polygon fill="midnightblue" stroke="midnightblue" points="599.857,-122.62 610.236,-120.491 600.794,-115.684 599.857,-122.62"/>
</g>
<!-- Node5 -->
<g id="node9" class="node"><title>Node5</title>
<a xlink:href="classZendDbSchema__Db__Schema__AbstractSchema.html#ae859790a91bbcb9c4dc52a6139e5999e" target="_top" xlink:title="ZendDbSchema_Db_Schema_AbstractSchema\\isDirty">
<polygon fill="white" stroke="black" points="560,-80.5 560,-101.5 816,-101.5 816,-80.5 560,-80.5"/>
<text text-anchor="middle" x="688" y="-88.5" font-family="Helvetica,sans-Serif" font-size="10.00">ZendDbSchema_Db_Schema_AbstractSchema\isDirty</text>
</a>
</g>
<!-- Node2&#45;&gt;Node5 -->
<g id="edge8" class="edge"><title>Node2&#45;&gt;Node5</title>
<path fill="none" stroke="midnightblue" d="M511.541,-91C524.075,-91 536.892,-91 549.614,-91"/>
<polygon fill="midnightblue" stroke="midnightblue" points="549.789,-94.5001 559.789,-91 549.789,-87.5001 549.789,-94.5001"/>
</g>
<!-- Node8 -->
<g id="node17" class="node"><title>Node8</title>
<a xlink:href="classZendDbSchema__Db__Schema__AbstractEntity.html#a5a443b35b528aa3aed4a66abe96884e7" target="_top" xlink:title="ZendDbSchema_Db_Schema_AbstractEntity\\_getAlterSql">
<polygon fill="white" stroke="black" points="553,-40.5 553,-61.5 823,-61.5 823,-40.5 553,-40.5"/>
<text text-anchor="middle" x="688" y="-48.5" font-family="Helvetica,sans-Serif" font-size="10.00">ZendDbSchema_Db_Schema_AbstractEntity\_getAlterSql</text>
</a>
</g>
<!-- Node2&#45;&gt;Node8 -->
<g id="edge18" class="edge"><title>Node2&#45;&gt;Node8</title>
<path fill="none" stroke="midnightblue" d="M469.771,-80.4905C509.806,-75.0803 558.766,-68.4641 600.16,-62.8703"/>
<polygon fill="midnightblue" stroke="midnightblue" points="600.794,-66.3165 610.236,-61.5087 599.857,-59.3795 600.794,-66.3165"/>
</g>
<!-- Node9 -->
<g id="node19" class="node"><title>Node9</title>
<a xlink:href="classZendDbSchema__Db__Schema__AbstractEntity.html#a2d3be045940e7df516861afc55686640" target="_top" xlink:title="ZendDbSchema_Db_Schema_AbstractEntity\\_getCreateSql">
<polygon fill="white" stroke="black" points="548.5,-0.5 548.5,-21.5 827.5,-21.5 827.5,-0.5 548.5,-0.5"/>
<text text-anchor="middle" x="688" y="-8.5" font-family="Helvetica,sans-Serif" font-size="10.00">ZendDbSchema_Db_Schema_AbstractEntity\_getCreateSql</text>
</a>
</g>
<!-- Node2&#45;&gt;Node9 -->
<g id="edge20" class="edge"><title>Node2&#45;&gt;Node9</title>
<path fill="none" stroke="midnightblue" d="M414.723,-80.3888C444.629,-66.8629 499.136,-43.7133 548,-31 559.417,-28.0297 571.479,-25.4698 583.543,-23.2709"/>
<polygon fill="midnightblue" stroke="midnightblue" points="584.412,-26.6723 593.663,-21.5077 583.211,-19.7762 584.412,-26.6723"/>
</g>
<!-- Node4 -->
<g id="node7" class="node"><title>Node4</title>
<a xlink:href="classZendDbSchema__Db__Schema__AbstractSchema.html#a219012c80be57ace4b1db43a9c48eb3d" target="_top" xlink:title="ZendDbSchema_Db_Schema_AbstractSchema\\getSchema">
<polygon fill="white" stroke="black" points="864.5,-119.5 864.5,-140.5 1141.5,-140.5 1141.5,-119.5 864.5,-119.5"/>
<text text-anchor="middle" x="1003" y="-127.5" font-family="Helvetica,sans-Serif" font-size="10.00">ZendDbSchema_Db_Schema_AbstractSchema\getSchema</text>
</a>
</g>
<!-- Node3&#45;&gt;Node4 -->
<g id="edge6" class="edge"><title>Node3&#45;&gt;Node4</title>
<path fill="none" stroke="midnightblue" d="M816.577,-130.592C828.994,-130.552 841.659,-130.512 854.249,-130.472"/>
<polygon fill="midnightblue" stroke="midnightblue" points="854.335,-133.972 864.324,-130.44 854.313,-126.972 854.335,-133.972"/>
</g>
<!-- Node5&#45;&gt;Node4 -->
<g id="edge10" class="edge"><title>Node5&#45;&gt;Node4</title>
<path fill="none" stroke="midnightblue" d="M772.829,-101.503C814.497,-106.662 864.858,-112.897 907.834,-118.218"/>
<polygon fill="midnightblue" stroke="midnightblue" points="907.666,-121.723 918.02,-119.479 908.526,-114.776 907.666,-121.723"/>
</g>
<!-- Node6 -->
<g id="node12" class="node"><title>Node6</title>
<a xlink:href="classZendDbSchema__Db__Schema__AbstractSchema.html#ac4e121ba7932163eb1950fabe06fb9db" target="_top" xlink:title="ZendDbSchema_Db_Schema_AbstractSchema\\__isset">
<polygon fill="white" stroke="black" points="1178.5,-60.5 1178.5,-81.5 1437.5,-81.5 1437.5,-60.5 1178.5,-60.5"/>
<text text-anchor="middle" x="1308" y="-68.5" font-family="Helvetica,sans-Serif" font-size="10.00">ZendDbSchema_Db_Schema_AbstractSchema\__isset</text>
</a>
</g>
<!-- Node5&#45;&gt;Node6 -->
<g id="edge12" class="edge"><title>Node5&#45;&gt;Node6</title>
<path fill="none" stroke="midnightblue" d="M816.088,-86.8681C918.797,-83.5549 1062.73,-78.9118 1168.38,-75.504"/>
<polygon fill="midnightblue" stroke="midnightblue" points="1168.6,-78.9988 1178.48,-75.1781 1168.37,-72.0025 1168.6,-78.9988"/>
</g>
<!-- Node7 -->
<g id="node14" class="node"><title>Node7</title>
<a xlink:href="classZendDbSchema__Db__Schema__AbstractSchema.html#a54d32c6f15463eaad2321a9f0e7225d7" target="_top" xlink:title="ZendDbSchema_Db_Schema_AbstractSchema\\__get">
<polygon fill="white" stroke="black" points="877.5,-41.5 877.5,-62.5 1128.5,-62.5 1128.5,-41.5 877.5,-41.5"/>
<text text-anchor="middle" x="1003" y="-49.5" font-family="Helvetica,sans-Serif" font-size="10.00">ZendDbSchema_Db_Schema_AbstractSchema\__get</text>
</a>
</g>
<!-- Node5&#45;&gt;Node7 -->
<g id="edge14" class="edge"><title>Node5&#45;&gt;Node7</title>
<path fill="none" stroke="midnightblue" d="M772.829,-80.4974C814.497,-75.3384 864.858,-69.1034 907.834,-63.7824"/>
<polygon fill="midnightblue" stroke="midnightblue" points="908.526,-67.2236 918.02,-62.5213 907.666,-60.2767 908.526,-67.2236"/>
</g>
<!-- Node7&#45;&gt;Node6 -->
<g id="edge16" class="edge"><title>Node7&#45;&gt;Node6</title>
<path fill="none" stroke="midnightblue" d="M1128.82,-59.8377C1141.63,-60.6363 1154.71,-61.451 1167.67,-62.2583"/>
<polygon fill="midnightblue" stroke="midnightblue" points="1167.84,-65.7752 1178.03,-62.9038 1168.27,-58.7887 1167.84,-65.7752"/>
</g>
</g>
</svg>
