<?xml version="1.0" encoding="UTF-8" standalone="no"?>
<!DOCTYPE svg PUBLIC "-//W3C//DTD SVG 1.1//EN"
 "http://www.w3.org/Graphics/SVG/1.1/DTD/svg11.dtd">
<!-- Generated by graphviz version 2.26.3 (20100126.1600)
 -->
<!-- Title: G Pages: 1 -->
<svg width="1246pt" height="150pt"
 viewBox="0.00 0.00 1246.00 150.00" xmlns="http://www.w3.org/2000/svg" xmlns:xlink="http://www.w3.org/1999/xlink">
<g id="graph1" class="graph" transform="scale(1 1) rotate(0) translate(4 146)">
<title>G</title>
<polygon fill="white" stroke="white" points="-4,5 -4,-146 1243,-146 1243,5 -4,5"/>
<!-- Node1 -->
<g id="node1" class="node"><title>Node1</title>
<polygon fill="#bfbfbf" stroke="black" points="0,-60.5 0,-81.5 320,-81.5 320,-60.5 0,-60.5"/>
<text text-anchor="middle" x="160" y="-68.5" font-family="Helvetica,sans-Serif" font-size="10.00">ZendDbSchema_Db_Schema_Generator_Mysql\_generateColumnSql</text>
</g>
<!-- Node2 -->
<g id="node3" class="node"><title>Node2</title>
<a xlink:href="classZendDbSchema__Db__Schema__Table__AbstractDefinition.html#a630d65e68b1bb78943849de330e499e1" target="_top" xlink:title="ZendDbSchema_Db_Schema_Table_AbstractDefinition\\getType">
<polygon fill="white" stroke="black" points="356.5,-120.5 356.5,-141.5 653.5,-141.5 653.5,-120.5 356.5,-120.5"/>
<text text-anchor="middle" x="505" y="-128.5" font-family="Helvetica,sans-Serif" font-size="10.00">ZendDbSchema_Db_Schema_Table_AbstractDefinition\getType</text>
</a>
</g>
<!-- Node1&#45;&gt;Node2 -->
<g id="edge2" class="edge"><title>Node1&#45;&gt;Node2</title>
<path fill="none" stroke="midnightblue" d="M206.96,-81.5174C246.561,-90.1618 304.805,-102.35 356,-111 372.995,-113.871 391.138,-116.592 408.704,-119.049"/>
<polygon fill="midnightblue" stroke="midnightblue" points="408.583,-122.566 418.968,-120.465 409.539,-115.631 408.583,-122.566"/>
</g>
<!-- Node5 -->
<g id="node9" class="node"><title>Node5</title>
<a xlink:href="classZendDbSchema__Db__Schema__Table__Column.html#aeeed5820cfc4fac67507a196e9faa638" target="_top" xlink:title="ZendDbSchema_Db_Schema_Table_Column\\isNullable">
<polygon fill="white" stroke="black" points="375,-80.5 375,-101.5 635,-101.5 635,-80.5 375,-80.5"/>
<text text-anchor="middle" x="505" y="-88.5" font-family="Helvetica,sans-Serif" font-size="10.00">ZendDbSchema_Db_Schema_Table_Column\isNullable</text>
</a>
</g>
<!-- Node1&#45;&gt;Node5 -->
<g id="edge8" class="edge"><title>Node1&#45;&gt;Node5</title>
<path fill="none" stroke="midnightblue" d="M320.128,-80.2828C335.009,-81.1455 350.015,-82.0153 364.697,-82.8665"/>
<polygon fill="midnightblue" stroke="midnightblue" points="364.619,-86.3677 374.805,-83.4524 365.024,-79.3795 364.619,-86.3677"/>
</g>
<!-- Node6 -->
<g id="node12" class="node"><title>Node6</title>
<a xlink:href="classZendDbSchema__Db__Schema__Table__Column.html#aabe1381ba00be20407eb641a32e51820" target="_top" xlink:title="ZendDbSchema_Db_Schema_Table_Column\\getDefault">
<polygon fill="white" stroke="black" points="373.5,-40.5 373.5,-61.5 636.5,-61.5 636.5,-40.5 373.5,-40.5"/>
<text text-anchor="middle" x="505" y="-48.5" font-family="Helvetica,sans-Serif" font-size="10.00">ZendDbSchema_Db_Schema_Table_Column\getDefault</text>
</a>
</g>
<!-- Node1&#45;&gt;Node6 -->
<g id="edge12" class="edge"><title>Node1&#45;&gt;Node6</title>
<path fill="none" stroke="midnightblue" d="M320.128,-61.7172C334.441,-60.8875 348.869,-60.0511 363.014,-59.2311"/>
<polygon fill="midnightblue" stroke="midnightblue" points="363.477,-62.7102 373.258,-58.6372 363.072,-55.7219 363.477,-62.7102"/>
</g>
<!-- Node7 -->
<g id="node15" class="node"><title>Node7</title>
<a xlink:href="classZendDbSchema__Db__Schema__Table__Column.html#a49887d783c47fa509e229ca61dd113ef" target="_top" xlink:title="ZendDbSchema_Db_Schema_Table_Column\\isSigned">
<polygon fill="white" stroke="black" points="377.5,-0.5 377.5,-21.5 632.5,-21.5 632.5,-0.5 377.5,-0.5"/>
<text text-anchor="middle" x="505" y="-8.5" font-family="Helvetica,sans-Serif" font-size="10.00">ZendDbSchema_Db_Schema_Table_Column\isSigned</text>
</a>
</g>
<!-- Node1&#45;&gt;Node7 -->
<g id="edge16" class="edge"><title>Node1&#45;&gt;Node7</title>
<path fill="none" stroke="midnightblue" d="M206.96,-60.4826C246.561,-51.8382 304.805,-39.6496 356,-31 372.995,-28.1286 391.138,-25.4077 408.704,-22.9507"/>
<polygon fill="midnightblue" stroke="midnightblue" points="409.539,-26.3688 418.968,-21.5355 408.583,-19.4344 409.539,-26.3688"/>
</g>
<!-- Node3 -->
<g id="node5" class="node"><title>Node3</title>
<a xlink:href="classZendDbSchema__Db__Schema__AbstractSchema.html#a54d32c6f15463eaad2321a9f0e7225d7" target="_top" xlink:title="ZendDbSchema_Db_Schema_AbstractSchema\\__get">
<polygon fill="white" stroke="black" points="690.5,-60.5 690.5,-81.5 941.5,-81.5 941.5,-60.5 690.5,-60.5"/>
<text text-anchor="middle" x="816" y="-68.5" font-family="Helvetica,sans-Serif" font-size="10.00">ZendDbSchema_Db_Schema_AbstractSchema\__get</text>
</a>
</g>
<!-- Node2&#45;&gt;Node3 -->
<g id="edge4" class="edge"><title>Node2&#45;&gt;Node3</title>
<path fill="none" stroke="midnightblue" d="M595.472,-120.458C614.847,-117.754 635.154,-114.581 654,-111 692.779,-103.632 736.17,-92.7763 768.278,-84.2322"/>
<polygon fill="midnightblue" stroke="midnightblue" points="769.535,-87.5188 778.286,-81.5467 767.721,-80.758 769.535,-87.5188"/>
</g>
<!-- Node4 -->
<g id="node7" class="node"><title>Node4</title>
<a xlink:href="classZendDbSchema__Db__Schema__AbstractSchema.html#ac4e121ba7932163eb1950fabe06fb9db" target="_top" xlink:title="ZendDbSchema_Db_Schema_AbstractSchema\\__isset">
<polygon fill="white" stroke="black" points="978.5,-60.5 978.5,-81.5 1237.5,-81.5 1237.5,-60.5 978.5,-60.5"/>
<text text-anchor="middle" x="1108" y="-68.5" font-family="Helvetica,sans-Serif" font-size="10.00">ZendDbSchema_Db_Schema_AbstractSchema\__isset</text>
</a>
</g>
<!-- Node3&#45;&gt;Node4 -->
<g id="edge6" class="edge"><title>Node3&#45;&gt;Node4</title>
<path fill="none" stroke="midnightblue" d="M941.529,-71C950.401,-71 959.376,-71 968.32,-71"/>
<polygon fill="midnightblue" stroke="midnightblue" points="968.397,-74.5001 978.397,-71 968.397,-67.5001 968.397,-74.5001"/>
</g>
<!-- Node5&#45;&gt;Node3 -->
<g id="edge10" class="edge"><title>Node5&#45;&gt;Node3</title>
<path fill="none" stroke="midnightblue" d="M635.09,-82.6341C649.966,-81.6774 665.162,-80.7002 680.111,-79.7388"/>
<polygon fill="midnightblue" stroke="midnightblue" points="680.66,-83.2109 690.415,-79.0762 680.211,-76.2253 680.66,-83.2109"/>
</g>
<!-- Node6&#45;&gt;Node3 -->
<g id="edge14" class="edge"><title>Node6&#45;&gt;Node3</title>
<path fill="none" stroke="midnightblue" d="M636.892,-59.4818C651.146,-60.3985 665.672,-61.3326 679.974,-62.2523"/>
<polygon fill="midnightblue" stroke="midnightblue" points="680.137,-65.77 690.341,-62.9191 680.587,-58.7844 680.137,-65.77"/>
</g>
<!-- Node7&#45;&gt;Node3 -->
<g id="edge18" class="edge"><title>Node7&#45;&gt;Node3</title>
<path fill="none" stroke="midnightblue" d="M595.472,-21.5416C614.847,-24.2462 635.154,-27.4194 654,-31 692.779,-38.3675 736.17,-49.2237 768.278,-57.7678"/>
<polygon fill="midnightblue" stroke="midnightblue" points="767.721,-61.242 778.286,-60.4533 769.535,-54.4812 767.721,-61.242"/>
</g>
</g>
</svg>
