<?xml version="1.0" encoding="UTF-8" standalone="no"?>
<!DOCTYPE svg PUBLIC "-//W3C//DTD SVG 1.1//EN"
 "http://www.w3.org/Graphics/SVG/1.1/DTD/svg11.dtd">
<!-- Generated by graphviz version 2.26.3 (20100126.1600)
 -->
<!-- Title: G Pages: 1 -->
<svg width="1822pt" height="150pt"
 viewBox="0.00 0.00 1822.00 150.00" xmlns="http://www.w3.org/2000/svg" xmlns:xlink="http://www.w3.org/1999/xlink">
<g id="graph1" class="graph" transform="scale(1 1) rotate(0) translate(4 146)">
<title>G</title>
<polygon fill="white" stroke="white" points="-4,5 -4,-146 1819,-146 1819,5 -4,5"/>
<!-- Node1 -->
<g id="node1" class="node"><title>Node1</title>
<polygon fill="#bfbfbf" stroke="black" points="0.5,-60.5 0.5,-81.5 251.5,-81.5 251.5,-60.5 0.5,-60.5"/>
<text text-anchor="middle" x="126" y="-68.5" font-family="Helvetica,sans-Serif" font-size="10.00">ZendDbSchema_Db_Schema_AbstractEntity\__clone</text>
</g>
<!-- Node2 -->
<g id="node3" class="node"><title>Node2</title>
<a xlink:href="classZendDbSchema__Db__Schema__AbstractSchema.html#ab4282a1fd6f4d9f23d01de8328072c71" target="_top" xlink:title="ZendDbSchema_Db_Schema_AbstractSchema\\__set">
<polygon fill="white" stroke="black" points="288.5,-80.5 288.5,-101.5 539.5,-101.5 539.5,-80.5 288.5,-80.5"/>
<text text-anchor="middle" x="414" y="-88.5" font-family="Helvetica,sans-Serif" font-size="10.00">ZendDbSchema_Db_Schema_AbstractSchema\__set</text>
</a>
</g>
<!-- Node1&#45;&gt;Node2 -->
<g id="edge2" class="edge"><title>Node1&#45;&gt;Node2</title>
<path fill="none" stroke="midnightblue" d="M251.902,-79.7432C260.605,-80.3476 269.398,-80.9582 278.151,-81.566"/>
<polygon fill="midnightblue" stroke="midnightblue" points="278.181,-85.0764 288.399,-82.2777 278.666,-78.0933 278.181,-85.0764"/>
</g>
<!-- Node9 -->
<g id="node17" class="node"><title>Node9</title>
<a xlink:href="classZendDbSchema__Db__Schema__AbstractEntity.html#aa35a80275bd3c811dd8ad39835a985a9" target="_top" xlink:title="ZendDbSchema_Db_Schema_AbstractEntity\\reload">
<polygon fill="white" stroke="black" points="292.5,-40.5 292.5,-61.5 535.5,-61.5 535.5,-40.5 292.5,-40.5"/>
<text text-anchor="middle" x="414" y="-48.5" font-family="Helvetica,sans-Serif" font-size="10.00">ZendDbSchema_Db_Schema_AbstractEntity\reload</text>
</a>
</g>
<!-- Node1&#45;&gt;Node9 -->
<g id="edge16" class="edge"><title>Node1&#45;&gt;Node9</title>
<path fill="none" stroke="midnightblue" d="M251.902,-62.2568C262.005,-61.5552 272.229,-60.8452 282.371,-60.1409"/>
<polygon fill="midnightblue" stroke="midnightblue" points="282.744,-63.6235 292.478,-59.4391 282.259,-56.6403 282.744,-63.6235"/>
</g>
<!-- Node3 -->
<g id="node5" class="node"><title>Node3</title>
<a xlink:href="classZendDbSchema__Db__Schema__AbstractSchema.html#afda46eab0c365f4c9a743b7185c51d6c" target="_top" xlink:title="ZendDbSchema_Db_Schema_AbstractSchema\\getValidator">
<polygon fill="white" stroke="black" points="583.5,-80.5 583.5,-101.5 862.5,-101.5 862.5,-80.5 583.5,-80.5"/>
<text text-anchor="middle" x="723" y="-88.5" font-family="Helvetica,sans-Serif" font-size="10.00">ZendDbSchema_Db_Schema_AbstractSchema\getValidator</text>
</a>
</g>
<!-- Node2&#45;&gt;Node3 -->
<g id="edge4" class="edge"><title>Node2&#45;&gt;Node3</title>
<path fill="none" stroke="midnightblue" d="M539.682,-91C550.684,-91 561.887,-91 573.059,-91"/>
<polygon fill="midnightblue" stroke="midnightblue" points="573.304,-94.5001 583.304,-91 573.304,-87.5001 573.304,-94.5001"/>
</g>
<!-- Node4 -->
<g id="node7" class="node"><title>Node4</title>
<a xlink:href="classZendDbSchema__Db__Schema__AbstractSchema.html#a47d95912f6bf6d26d023597887dafacb" target="_top" xlink:title="ZendDbSchema_Db_Schema_AbstractSchema\\getAdapter">
<polygon fill="white" stroke="black" points="906.5,-80.5 906.5,-101.5 1181.5,-101.5 1181.5,-80.5 906.5,-80.5"/>
<text text-anchor="middle" x="1044" y="-88.5" font-family="Helvetica,sans-Serif" font-size="10.00">ZendDbSchema_Db_Schema_AbstractSchema\getAdapter</text>
</a>
</g>
<!-- Node3&#45;&gt;Node4 -->
<g id="edge6" class="edge"><title>Node3&#45;&gt;Node4</title>
<path fill="none" stroke="midnightblue" d="M862.861,-91C873.921,-91 885.114,-91 896.225,-91"/>
<polygon fill="midnightblue" stroke="midnightblue" points="896.399,-94.5001 906.399,-91 896.399,-87.5001 896.399,-94.5001"/>
</g>
<!-- Node5 -->
<g id="node9" class="node"><title>Node5</title>
<a xlink:href="classZendDbSchema__Db__Schema__AbstractSchema.html#a6349649e5e09d67a5b5e0abe96298db8" target="_top" xlink:title="ZendDbSchema_Db_Schema_AbstractSchema\\setAdapter">
<polygon fill="white" stroke="black" points="1218.5,-80.5 1218.5,-101.5 1493.5,-101.5 1493.5,-80.5 1218.5,-80.5"/>
<text text-anchor="middle" x="1356" y="-88.5" font-family="Helvetica,sans-Serif" font-size="10.00">ZendDbSchema_Db_Schema_AbstractSchema\setAdapter</text>
</a>
</g>
<!-- Node4&#45;&gt;Node5 -->
<g id="edge8" class="edge"><title>Node4&#45;&gt;Node5</title>
<path fill="none" stroke="midnightblue" d="M1181.76,-91C1190.44,-91 1199.2,-91 1207.92,-91"/>
<polygon fill="midnightblue" stroke="midnightblue" points="1208.14,-94.5001 1218.14,-91 1208.14,-87.5001 1208.14,-94.5001"/>
</g>
<!-- Node6 -->
<g id="node11" class="node"><title>Node6</title>
<a xlink:href="classZendDbSchema__Db__Schema__AbstractSchema.html#a53a1974dbc8822792a8d7b9c618d3a02" target="_top" xlink:title="ZendDbSchema_Db_Schema_AbstractSchema\\setGenerator">
<polygon fill="white" stroke="black" points="1530,-120.5 1530,-141.5 1814,-141.5 1814,-120.5 1530,-120.5"/>
<text text-anchor="middle" x="1672" y="-128.5" font-family="Helvetica,sans-Serif" font-size="10.00">ZendDbSchema_Db_Schema_AbstractSchema\setGenerator</text>
</a>
</g>
<!-- Node5&#45;&gt;Node6 -->
<g id="edge10" class="edge"><title>Node5&#45;&gt;Node6</title>
<path fill="none" stroke="midnightblue" d="M1439.03,-101.51C1481.95,-106.943 1534.48,-113.592 1578.78,-119.201"/>
<polygon fill="midnightblue" stroke="midnightblue" points="1578.62,-122.708 1588.98,-120.491 1579.5,-115.763 1578.62,-122.708"/>
</g>
<!-- Node7 -->
<g id="node13" class="node"><title>Node7</title>
<a xlink:href="classZendDbSchema__Db__Schema__AbstractSchema.html#aa0e6c9f8d58702dc41d988f064f62698" target="_top" xlink:title="ZendDbSchema_Db_Schema_AbstractSchema\\setParser">
<polygon fill="white" stroke="black" points="1537.5,-80.5 1537.5,-101.5 1806.5,-101.5 1806.5,-80.5 1537.5,-80.5"/>
<text text-anchor="middle" x="1672" y="-88.5" font-family="Helvetica,sans-Serif" font-size="10.00">ZendDbSchema_Db_Schema_AbstractSchema\setParser</text>
</a>
</g>
<!-- Node5&#45;&gt;Node7 -->
<g id="edge12" class="edge"><title>Node5&#45;&gt;Node7</title>
<path fill="none" stroke="midnightblue" d="M1493.68,-91C1504.76,-91 1515.98,-91 1527.1,-91"/>
<polygon fill="midnightblue" stroke="midnightblue" points="1527.29,-94.5001 1537.29,-91 1527.29,-87.5001 1527.29,-94.5001"/>
</g>
<!-- Node8 -->
<g id="node15" class="node"><title>Node8</title>
<a xlink:href="classZendDbSchema__Db__Schema__AbstractSchema.html#ac0161e2c24dafba8433fb86205a147fe" target="_top" xlink:title="ZendDbSchema_Db_Schema_AbstractSchema\\setValidator">
<polygon fill="white" stroke="black" points="1532.5,-40.5 1532.5,-61.5 1811.5,-61.5 1811.5,-40.5 1532.5,-40.5"/>
<text text-anchor="middle" x="1672" y="-48.5" font-family="Helvetica,sans-Serif" font-size="10.00">ZendDbSchema_Db_Schema_AbstractSchema\setValidator</text>
</a>
</g>
<!-- Node5&#45;&gt;Node8 -->
<g id="edge14" class="edge"><title>Node5&#45;&gt;Node8</title>
<path fill="none" stroke="midnightblue" d="M1439.03,-80.4905C1481.95,-75.0575 1534.48,-68.4081 1578.78,-62.7994"/>
<polygon fill="midnightblue" stroke="midnightblue" points="1579.5,-66.2369 1588.98,-61.5087 1578.62,-59.2923 1579.5,-66.2369"/>
</g>
<!-- Node10 -->
<g id="node19" class="node"><title>Node10</title>
<a xlink:href="classZendDbSchema__Db__Schema__AbstractSchema.html#adacb1417b461310c5c87f72c459c1985" target="_top" xlink:title="ZendDbSchema_Db_Schema_AbstractSchema\\getOriginName">
<polygon fill="white" stroke="black" points="576.5,-40.5 576.5,-61.5 869.5,-61.5 869.5,-40.5 576.5,-40.5"/>
<text text-anchor="middle" x="723" y="-48.5" font-family="Helvetica,sans-Serif" font-size="10.00">ZendDbSchema_Db_Schema_AbstractSchema\getOriginName</text>
</a>
</g>
<!-- Node9&#45;&gt;Node10 -->
<g id="edge18" class="edge"><title>Node9&#45;&gt;Node10</title>
<path fill="none" stroke="midnightblue" d="M535.681,-51C545.688,-51 555.887,-51 566.1,-51"/>
<polygon fill="midnightblue" stroke="midnightblue" points="566.311,-54.5001 576.311,-51 566.311,-47.5001 566.311,-54.5001"/>
</g>
<!-- Node13 -->
<g id="node25" class="node"><title>Node13</title>
<a xlink:href="classZendDbSchema__Db__Schema__AbstractEntity.html#ab317ba1e66cc14d78922314962f7d0ff" target="_top" xlink:title="ZendDbSchema_Db_Schema_AbstractEntity\\_doReload">
<polygon fill="white" stroke="black" points="591.5,-0.5 591.5,-21.5 854.5,-21.5 854.5,-0.5 591.5,-0.5"/>
<text text-anchor="middle" x="723" y="-8.5" font-family="Helvetica,sans-Serif" font-size="10.00">ZendDbSchema_Db_Schema_AbstractEntity\_doReload</text>
</a>
</g>
<!-- Node9&#45;&gt;Node13 -->
<g id="edge24" class="edge"><title>Node9&#45;&gt;Node13</title>
<path fill="none" stroke="midnightblue" d="M495.186,-40.4905C537.156,-35.0575 588.523,-28.4081 631.85,-22.7994"/>
<polygon fill="midnightblue" stroke="midnightblue" points="632.352,-26.2636 641.82,-21.5087 631.454,-19.3215 632.352,-26.2636"/>
</g>
<!-- Node11 -->
<g id="node21" class="node"><title>Node11</title>
<a xlink:href="classZendDbSchema__Db__Schema__AbstractSchema.html#a54d32c6f15463eaad2321a9f0e7225d7" target="_top" xlink:title="ZendDbSchema_Db_Schema_AbstractSchema\\__get">
<polygon fill="white" stroke="black" points="918.5,-40.5 918.5,-61.5 1169.5,-61.5 1169.5,-40.5 918.5,-40.5"/>
<text text-anchor="middle" x="1044" y="-48.5" font-family="Helvetica,sans-Serif" font-size="10.00">ZendDbSchema_Db_Schema_AbstractSchema\__get</text>
</a>
</g>
<!-- Node10&#45;&gt;Node11 -->
<g id="edge20" class="edge"><title>Node10&#45;&gt;Node11</title>
<path fill="none" stroke="midnightblue" d="M869.878,-51C882.644,-51 895.525,-51 908.197,-51"/>
<polygon fill="midnightblue" stroke="midnightblue" points="908.307,-54.5001 918.307,-51 908.307,-47.5001 908.307,-54.5001"/>
</g>
<!-- Node12 -->
<g id="node23" class="node"><title>Node12</title>
<a xlink:href="classZendDbSchema__Db__Schema__AbstractSchema.html#ac4e121ba7932163eb1950fabe06fb9db" target="_top" xlink:title="ZendDbSchema_Db_Schema_AbstractSchema\\__isset">
<polygon fill="white" stroke="black" points="1226.5,-40.5 1226.5,-61.5 1485.5,-61.5 1485.5,-40.5 1226.5,-40.5"/>
<text text-anchor="middle" x="1356" y="-48.5" font-family="Helvetica,sans-Serif" font-size="10.00">ZendDbSchema_Db_Schema_AbstractSchema\__isset</text>
</a>
</g>
<!-- Node11&#45;&gt;Node12 -->
<g id="edge22" class="edge"><title>Node11&#45;&gt;Node12</title>
<path fill="none" stroke="midnightblue" d="M1169.55,-51C1184.9,-51 1200.66,-51 1216.2,-51"/>
<polygon fill="midnightblue" stroke="midnightblue" points="1216.38,-54.5001 1226.38,-51 1216.38,-47.5001 1216.38,-54.5001"/>
</g>
</g>
</svg>
