<?xml version="1.0" encoding="UTF-8" standalone="no"?>
<!DOCTYPE svg PUBLIC "-//W3C//DTD SVG 1.1//EN"
 "http://www.w3.org/Graphics/SVG/1.1/DTD/svg11.dtd">
<!-- Generated by graphviz version 2.26.3 (20100126.1600)
 -->
<!-- Title: G Pages: 1 -->
<svg width="1606pt" height="138pt"
 viewBox="0.00 0.00 1606.00 138.00" xmlns="http://www.w3.org/2000/svg" xmlns:xlink="http://www.w3.org/1999/xlink">
<g id="graph1" class="graph" transform="scale(1 1) rotate(0) translate(4 134)">
<title>G</title>
<polygon fill="white" stroke="white" points="-4,5 -4,-134 1603,-134 1603,5 -4,5"/>
<!-- Node1 -->
<g id="node1" class="node"><title>Node1</title>
<polygon fill="#bfbfbf" stroke="black" points="0,-69.5 0,-90.5 284,-90.5 284,-69.5 0,-69.5"/>
<text text-anchor="middle" x="142" y="-77.5" font-family="Helvetica,sans-Serif" font-size="10.00">ZendDbSchema_Db_Schema_Table_PrimaryKey\addColumn</text>
</g>
<!-- Node2 -->
<g id="node3" class="node"><title>Node2</title>
<a xlink:href="classZendDbSchema__Db__Schema__Table__PrimaryKey.html#a97ed55c2479299d4e75e98154f12c409" target="_top" xlink:title="ZendDbSchema_Db_Schema_Table_PrimaryKey\\hasColumn">
<polygon fill="white" stroke="black" points="322,-108.5 322,-129.5 606,-129.5 606,-108.5 322,-108.5"/>
<text text-anchor="middle" x="464" y="-116.5" font-family="Helvetica,sans-Serif" font-size="10.00">ZendDbSchema_Db_Schema_Table_PrimaryKey\hasColumn</text>
</a>
</g>
<!-- Node1&#45;&gt;Node2 -->
<g id="edge2" class="edge"><title>Node1&#45;&gt;Node2</title>
<path fill="none" stroke="midnightblue" d="M228.714,-90.5026C271.398,-95.6724 323.005,-101.923 366.998,-107.251"/>
<polygon fill="midnightblue" stroke="midnightblue" points="366.783,-110.751 377.131,-108.479 367.625,-103.802 366.783,-110.751"/>
</g>
<!-- Node3 -->
<g id="node5" class="node"><title>Node3</title>
<a xlink:href="classZendDbSchema__Db__Schema__Table__PrimaryKey.html#a228207d6e07e3ab95b8b25415077a6a1" target="_top" xlink:title="ZendDbSchema_Db_Schema_Table_PrimaryKey\\getColumns">
<polygon fill="white" stroke="black" points="644.5,-89.5 644.5,-110.5 931.5,-110.5 931.5,-89.5 644.5,-89.5"/>
<text text-anchor="middle" x="788" y="-97.5" font-family="Helvetica,sans-Serif" font-size="10.00">ZendDbSchema_Db_Schema_Table_PrimaryKey\getColumns</text>
</a>
</g>
<!-- Node1&#45;&gt;Node3 -->
<g id="edge10" class="edge"><title>Node1&#45;&gt;Node3</title>
<path fill="none" stroke="midnightblue" d="M284.167,-84.4015C387.722,-87.6075 527.864,-91.9463 634.058,-95.234"/>
<polygon fill="midnightblue" stroke="midnightblue" points="634.123,-98.7376 644.227,-95.5488 634.34,-91.7409 634.123,-98.7376"/>
</g>
<!-- Node6 -->
<g id="node12" class="node"><title>Node6</title>
<a xlink:href="classZendDbSchema__Db__Schema__Table__PrimaryKey.html#a01cfcffd92c38bc521628d49d5c74927" target="_top" xlink:title="ZendDbSchema_Db_Schema_Table_PrimaryKey\\setColumns">
<polygon fill="white" stroke="black" points="320.5,-30.5 320.5,-51.5 607.5,-51.5 607.5,-30.5 320.5,-30.5"/>
<text text-anchor="middle" x="464" y="-38.5" font-family="Helvetica,sans-Serif" font-size="10.00">ZendDbSchema_Db_Schema_Table_PrimaryKey\setColumns</text>
</a>
</g>
<!-- Node1&#45;&gt;Node6 -->
<g id="edge12" class="edge"><title>Node1&#45;&gt;Node6</title>
<path fill="none" stroke="midnightblue" d="M228.714,-69.4974C271.398,-64.3276 323.005,-58.077 366.998,-52.7487"/>
<polygon fill="midnightblue" stroke="midnightblue" points="367.625,-56.1984 377.131,-51.5213 366.783,-49.2492 367.625,-56.1984"/>
</g>
<!-- Node2&#45;&gt;Node3 -->
<g id="edge4" class="edge"><title>Node2&#45;&gt;Node3</title>
<path fill="none" stroke="midnightblue" d="M606.111,-110.666C615.414,-110.121 624.805,-109.57 634.16,-109.021"/>
<polygon fill="midnightblue" stroke="midnightblue" points="634.513,-112.507 644.291,-108.427 634.103,-105.519 634.513,-112.507"/>
</g>
<!-- Node4 -->
<g id="node7" class="node"><title>Node4</title>
<a xlink:href="classZendDbSchema__Db__Schema__AbstractSchema.html#a54d32c6f15463eaad2321a9f0e7225d7" target="_top" xlink:title="ZendDbSchema_Db_Schema_AbstractSchema\\__get">
<polygon fill="white" stroke="black" points="1009.5,-89.5 1009.5,-110.5 1260.5,-110.5 1260.5,-89.5 1009.5,-89.5"/>
<text text-anchor="middle" x="1135" y="-97.5" font-family="Helvetica,sans-Serif" font-size="10.00">ZendDbSchema_Db_Schema_AbstractSchema\__get</text>
</a>
</g>
<!-- Node3&#45;&gt;Node4 -->
<g id="edge6" class="edge"><title>Node3&#45;&gt;Node4</title>
<path fill="none" stroke="midnightblue" d="M931.643,-100C954.037,-100 977.114,-100 999.323,-100"/>
<polygon fill="midnightblue" stroke="midnightblue" points="999.46,-103.5 1009.46,-100 999.46,-96.5001 999.46,-103.5"/>
</g>
<!-- Node5 -->
<g id="node9" class="node"><title>Node5</title>
<a xlink:href="classZendDbSchema__Db__Schema__AbstractSchema.html#ac4e121ba7932163eb1950fabe06fb9db" target="_top" xlink:title="ZendDbSchema_Db_Schema_AbstractSchema\\__isset">
<polygon fill="white" stroke="black" points="1338.5,-89.5 1338.5,-110.5 1597.5,-110.5 1597.5,-89.5 1338.5,-89.5"/>
<text text-anchor="middle" x="1468" y="-97.5" font-family="Helvetica,sans-Serif" font-size="10.00">ZendDbSchema_Db_Schema_AbstractSchema\__isset</text>
</a>
</g>
<!-- Node4&#45;&gt;Node5 -->
<g id="edge8" class="edge"><title>Node4&#45;&gt;Node5</title>
<path fill="none" stroke="midnightblue" d="M1260.89,-100C1282.85,-100 1305.82,-100 1328.13,-100"/>
<polygon fill="midnightblue" stroke="midnightblue" points="1328.33,-103.5 1338.33,-100 1328.33,-96.5001 1328.33,-103.5"/>
</g>
<!-- Node7 -->
<g id="node14" class="node"><title>Node7</title>
<a xlink:href="classZendDbSchema__Db__Schema__Table__AbstractDefinition.html#a65498451683b2cf8fd1dc65f7f03581d" target="_top" xlink:title="ZendDbSchema_Db_Schema_Table_AbstractDefinition\\__set">
<polygon fill="white" stroke="black" points="645,-30.5 645,-51.5 931,-51.5 931,-30.5 645,-30.5"/>
<text text-anchor="middle" x="788" y="-38.5" font-family="Helvetica,sans-Serif" font-size="10.00">ZendDbSchema_Db_Schema_Table_AbstractDefinition\__set</text>
</a>
</g>
<!-- Node6&#45;&gt;Node7 -->
<g id="edge14" class="edge"><title>Node6&#45;&gt;Node7</title>
<path fill="none" stroke="midnightblue" d="M607.526,-41C616.565,-41 625.682,-41 634.762,-41"/>
<polygon fill="midnightblue" stroke="midnightblue" points="634.992,-44.5001 644.992,-41 634.992,-37.5001 634.992,-44.5001"/>
</g>
<!-- Node8 -->
<g id="node16" class="node"><title>Node8</title>
<a xlink:href="classZendDbSchema__Db__Schema__Table__AbstractDefinition.html#a224b6a0c1df1d6ed40e03657782ef6fc" target="_top" xlink:title="ZendDbSchema_Db_Schema_Table_AbstractDefinition\\getTable">
<polygon fill="white" stroke="black" points="985.5,-40.5 985.5,-61.5 1284.5,-61.5 1284.5,-40.5 985.5,-40.5"/>
<text text-anchor="middle" x="1135" y="-48.5" font-family="Helvetica,sans-Serif" font-size="10.00">ZendDbSchema_Db_Schema_Table_AbstractDefinition\getTable</text>
</a>
</g>
<!-- Node7&#45;&gt;Node8 -->
<g id="edge16" class="edge"><title>Node7&#45;&gt;Node8</title>
<path fill="none" stroke="midnightblue" d="M931.142,-45.1251C945.703,-45.5448 960.56,-45.9729 975.283,-46.3972"/>
<polygon fill="midnightblue" stroke="midnightblue" points="975.352,-49.9006 985.449,-46.6902 975.554,-42.9035 975.352,-49.9006"/>
</g>
<!-- Node9 -->
<g id="node18" class="node"><title>Node9</title>
<a xlink:href="classZendDbSchema__Db__Schema__Table__AbstractDefinition.html#a2fb894602c4b7fbba5dd1d180f93c181" target="_top" xlink:title="ZendDbSchema_Db_Schema_Table_AbstractDefinition\\_getSchemaKey">
<polygon fill="white" stroke="black" points="968,-0.5 968,-21.5 1302,-21.5 1302,-0.5 968,-0.5"/>
<text text-anchor="middle" x="1135" y="-8.5" font-family="Helvetica,sans-Serif" font-size="10.00">ZendDbSchema_Db_Schema_Table_AbstractDefinition\_getSchemaKey</text>
</a>
</g>
<!-- Node7&#45;&gt;Node9 -->
<g id="edge18" class="edge"><title>Node7&#45;&gt;Node9</title>
<path fill="none" stroke="midnightblue" d="M909.851,-30.4653C940.029,-27.8563 972.499,-25.049 1003.13,-22.4008"/>
<polygon fill="midnightblue" stroke="midnightblue" points="1003.78,-25.8578 1013.44,-21.5093 1003.18,-18.8838 1003.78,-25.8578"/>
</g>
</g>
</svg>
