<?xml version="1.0" encoding="UTF-8" standalone="no"?>
<!DOCTYPE svg PUBLIC "-//W3C//DTD SVG 1.1//EN"
 "http://www.w3.org/Graphics/SVG/1.1/DTD/svg11.dtd">
<!-- Generated by graphviz version 2.26.3 (20100126.1600)
 -->
<!-- Title: G Pages: 1 -->
<svg width="1754pt" height="70pt"
 viewBox="0.00 0.00 1754.00 70.00" xmlns="http://www.w3.org/2000/svg" xmlns:xlink="http://www.w3.org/1999/xlink">
<g id="graph1" class="graph" transform="scale(1 1) rotate(0) translate(4 66)">
<title>G</title>
<polygon fill="white" stroke="white" points="-4,5 -4,-66 1751,-66 1751,5 -4,5"/>
<!-- Node1 -->
<g id="node1" class="node"><title>Node1</title>
<polygon fill="#bfbfbf" stroke="black" points="0.5,-20.5 0.5,-41.5 247.5,-41.5 247.5,-20.5 0.5,-20.5"/>
<text text-anchor="middle" x="124" y="-28.5" font-family="Helvetica,sans-Serif" font-size="10.00">ZendDbSchema_Db_Schema_AbstractEntity\refresh</text>
</g>
<!-- Node2 -->
<g id="node3" class="node"><title>Node2</title>
<a xlink:href="classZendDbSchema__Db__Schema__AbstractEntity.html#aa35a80275bd3c811dd8ad39835a985a9" target="_top" xlink:title="ZendDbSchema_Db_Schema_AbstractEntity\\reload">
<polygon fill="white" stroke="black" points="284.5,-20.5 284.5,-41.5 527.5,-41.5 527.5,-20.5 284.5,-20.5"/>
<text text-anchor="middle" x="406" y="-28.5" font-family="Helvetica,sans-Serif" font-size="10.00">ZendDbSchema_Db_Schema_AbstractEntity\reload</text>
</a>
</g>
<!-- Node1&#45;&gt;Node2 -->
<g id="edge2" class="edge"><title>Node1&#45;&gt;Node2</title>
<path fill="none" stroke="midnightblue" d="M247.689,-31C256.411,-31 265.223,-31 273.988,-31"/>
<polygon fill="midnightblue" stroke="midnightblue" points="274.249,-34.5001 284.248,-31 274.248,-27.5001 274.249,-34.5001"/>
</g>
<!-- Node3 -->
<g id="node5" class="node"><title>Node3</title>
<a xlink:href="classZendDbSchema__Db__Schema__AbstractSchema.html#adacb1417b461310c5c87f72c459c1985" target="_top" xlink:title="ZendDbSchema_Db_Schema_AbstractSchema\\getOriginName">
<polygon fill="white" stroke="black" points="564.5,-40.5 564.5,-61.5 857.5,-61.5 857.5,-40.5 564.5,-40.5"/>
<text text-anchor="middle" x="711" y="-48.5" font-family="Helvetica,sans-Serif" font-size="10.00">ZendDbSchema_Db_Schema_AbstractSchema\getOriginName</text>
</a>
</g>
<!-- Node2&#45;&gt;Node3 -->
<g id="edge4" class="edge"><title>Node2&#45;&gt;Node3</title>
<path fill="none" stroke="midnightblue" d="M527.859,-38.9908C536.599,-39.5639 545.48,-40.1462 554.379,-40.7298"/>
<polygon fill="midnightblue" stroke="midnightblue" points="554.22,-44.2268 564.428,-41.3887 554.678,-37.2418 554.22,-44.2268"/>
</g>
<!-- Node7 -->
<g id="node13" class="node"><title>Node7</title>
<a xlink:href="classZendDbSchema__Db__Schema__AbstractEntity.html#ab317ba1e66cc14d78922314962f7d0ff" target="_top" xlink:title="ZendDbSchema_Db_Schema_AbstractEntity\\_doReload">
<polygon fill="white" stroke="black" points="579.5,-0.5 579.5,-21.5 842.5,-21.5 842.5,-0.5 579.5,-0.5"/>
<text text-anchor="middle" x="711" y="-8.5" font-family="Helvetica,sans-Serif" font-size="10.00">ZendDbSchema_Db_Schema_AbstractEntity\_doReload</text>
</a>
</g>
<!-- Node2&#45;&gt;Node7 -->
<g id="edge12" class="edge"><title>Node2&#45;&gt;Node7</title>
<path fill="none" stroke="midnightblue" d="M527.859,-23.0092C541.478,-22.1162 555.437,-21.2009 569.277,-20.2933"/>
<polygon fill="midnightblue" stroke="midnightblue" points="569.578,-23.7812 579.327,-19.6343 569.119,-16.7962 569.578,-23.7812"/>
</g>
<!-- Node4 -->
<g id="node7" class="node"><title>Node4</title>
<a xlink:href="classZendDbSchema__Db__Schema__AbstractSchema.html#a55787c21deddba427842809d589c2df6" target="_top" xlink:title="ZendDbSchema_Db_Schema_AbstractSchema\\getName">
<polygon fill="white" stroke="black" points="894.5,-40.5 894.5,-61.5 1161.5,-61.5 1161.5,-40.5 894.5,-40.5"/>
<text text-anchor="middle" x="1028" y="-48.5" font-family="Helvetica,sans-Serif" font-size="10.00">ZendDbSchema_Db_Schema_AbstractSchema\getName</text>
</a>
</g>
<!-- Node3&#45;&gt;Node4 -->
<g id="edge6" class="edge"><title>Node3&#45;&gt;Node4</title>
<path fill="none" stroke="midnightblue" d="M857.9,-51C866.631,-51 875.408,-51 884.127,-51"/>
<polygon fill="midnightblue" stroke="midnightblue" points="884.327,-54.5001 894.327,-51 884.327,-47.5001 884.327,-54.5001"/>
</g>
<!-- Node5 -->
<g id="node9" class="node"><title>Node5</title>
<a xlink:href="classZendDbSchema__Db__Schema__AbstractSchema.html#a54d32c6f15463eaad2321a9f0e7225d7" target="_top" xlink:title="ZendDbSchema_Db_Schema_AbstractSchema\\__get">
<polygon fill="white" stroke="black" points="1198.5,-40.5 1198.5,-61.5 1449.5,-61.5 1449.5,-40.5 1198.5,-40.5"/>
<text text-anchor="middle" x="1324" y="-48.5" font-family="Helvetica,sans-Serif" font-size="10.00">ZendDbSchema_Db_Schema_AbstractSchema\__get</text>
</a>
</g>
<!-- Node4&#45;&gt;Node5 -->
<g id="edge8" class="edge"><title>Node4&#45;&gt;Node5</title>
<path fill="none" stroke="midnightblue" d="M1161.71,-51C1170.41,-51 1179.18,-51 1187.89,-51"/>
<polygon fill="midnightblue" stroke="midnightblue" points="1188.08,-54.5001 1198.08,-51 1188.08,-47.5001 1188.08,-54.5001"/>
</g>
<!-- Node6 -->
<g id="node11" class="node"><title>Node6</title>
<a xlink:href="classZendDbSchema__Db__Schema__AbstractSchema.html#ac4e121ba7932163eb1950fabe06fb9db" target="_top" xlink:title="ZendDbSchema_Db_Schema_AbstractSchema\\__isset">
<polygon fill="white" stroke="black" points="1486.5,-40.5 1486.5,-61.5 1745.5,-61.5 1745.5,-40.5 1486.5,-40.5"/>
<text text-anchor="middle" x="1616" y="-48.5" font-family="Helvetica,sans-Serif" font-size="10.00">ZendDbSchema_Db_Schema_AbstractSchema\__isset</text>
</a>
</g>
<!-- Node5&#45;&gt;Node6 -->
<g id="edge10" class="edge"><title>Node5&#45;&gt;Node6</title>
<path fill="none" stroke="midnightblue" d="M1449.53,-51C1458.4,-51 1467.38,-51 1476.32,-51"/>
<polygon fill="midnightblue" stroke="midnightblue" points="1476.4,-54.5001 1486.4,-51 1476.4,-47.5001 1476.4,-54.5001"/>
</g>
</g>
</svg>
