<?xml version="1.0" encoding="UTF-8" standalone="no"?>
<!DOCTYPE svg PUBLIC "-//W3C//DTD SVG 1.1//EN"
 "http://www.w3.org/Graphics/SVG/1.1/DTD/svg11.dtd">
<!-- Generated by graphviz version 2.26.3 (20100126.1600)
 -->
<!-- Title: G Pages: 1 -->
<svg width="1622pt" height="607pt"
 viewBox="0.00 0.00 1622.00 607.21" xmlns="http://www.w3.org/2000/svg" xmlns:xlink="http://www.w3.org/1999/xlink">
<g id="graph1" class="graph" transform="scale(1 1) rotate(0) translate(4 603.207)">
<title>G</title>
<polygon fill="white" stroke="white" points="-4,5 -4,-603.207 1619,-603.207 1619,5 -4,5"/>
<!-- Node1 -->
<g id="node1" class="node"><title>Node1</title>
<polygon fill="#bfbfbf" stroke="black" points="0,-387.5 0,-408.5 308,-408.5 308,-387.5 0,-387.5"/>
<text text-anchor="middle" x="154" y="-395.5" font-family="Helvetica,sans-Serif" font-size="10.00">ZendDbSchema_Db_Schema_AbstractSchema\_getCleanSchema</text>
</g>
<!-- Node2 -->
<g id="node3" class="node"><title>Node2</title>
<a xlink:href="classZendDbSchema__Db__Schema__AbstractSchema.html#a46da7a60c7e5fd605607afbc1dac4baa" target="_top" xlink:title="ZendDbSchema_Db_Schema_AbstractSchema\\getCleanSchema">
<polygon fill="white" stroke="black" points="344,-387.5 344,-408.5 646,-408.5 646,-387.5 344,-387.5"/>
<text text-anchor="middle" x="495" y="-395.5" font-family="Helvetica,sans-Serif" font-size="10.00">ZendDbSchema_Db_Schema_AbstractSchema\getCleanSchema</text>
</a>
</g>
<!-- Node1&#45;&gt;Node2 -->
<g id="edge2" class="edge"><title>Node1&#45;&gt;Node2</title>
<path fill="none" stroke="midnightblue" d="M318.112,-398C326.705,-398 335.32,-398 343.869,-398"/>
<polygon fill="midnightblue" stroke="midnightblue" points="318.039,-394.5 308.039,-398 318.039,-401.5 318.039,-394.5"/>
</g>
<!-- Node3 -->
<g id="node5" class="node"><title>Node3</title>
<a xlink:href="classZendDbSchema__Db__Schema__AbstractSchema.html#a1680a8fd22360f74d29b641d7257a52f" target="_top" xlink:title="ZendDbSchema_Db_Schema_AbstractSchema\\isExist">
<polygon fill="white" stroke="black" points="682.5,-338.5 682.5,-359.5 939.5,-359.5 939.5,-338.5 682.5,-338.5"/>
<text text-anchor="middle" x="811" y="-346.5" font-family="Helvetica,sans-Serif" font-size="10.00">ZendDbSchema_Db_Schema_AbstractSchema\isExist</text>
</a>
</g>
<!-- Node2&#45;&gt;Node3 -->
<g id="edge4" class="edge"><title>Node2&#45;&gt;Node3</title>
<path fill="none" stroke="midnightblue" d="M572.675,-385.955C624.874,-377.861 693.008,-367.296 743.05,-359.537"/>
<polygon fill="midnightblue" stroke="midnightblue" points="572.135,-382.497 562.79,-387.488 573.208,-389.415 572.135,-382.497"/>
</g>
<!-- Node20 -->
<g id="node41" class="node"><title>Node20</title>
<a xlink:href="classZendDbSchema__Db__Schema__AbstractSchema.html#ae859790a91bbcb9c4dc52a6139e5999e" target="_top" xlink:title="ZendDbSchema_Db_Schema_AbstractSchema\\isDirty">
<polygon fill="white" stroke="black" points="683,-536.5 683,-557.5 939,-557.5 939,-536.5 683,-536.5"/>
<text text-anchor="middle" x="811" y="-544.5" font-family="Helvetica,sans-Serif" font-size="10.00">ZendDbSchema_Db_Schema_AbstractSchema\isDirty</text>
</a>
</g>
<!-- Node2&#45;&gt;Node20 -->
<g id="edge42" class="edge"><title>Node2&#45;&gt;Node20</title>
<path fill="none" stroke="midnightblue" d="M526.651,-412.924C590.439,-443.002 733.072,-510.256 788.431,-536.358"/>
<polygon fill="midnightblue" stroke="midnightblue" points="528.01,-409.695 517.473,-408.596 525.025,-416.027 528.01,-409.695"/>
</g>
<!-- Node21 -->
<g id="node46" class="node"><title>Node21</title>
<a xlink:href="classZendDbSchema__Db__Schema__AbstractSchema.html#a84673a5d69f10fec5b31294bf53f6d56" target="_top" xlink:title="ZendDbSchema_Db_Schema_AbstractSchema\\refresh">
<polygon fill="white" stroke="black" points="682.5,-40.5 682.5,-61.5 939.5,-61.5 939.5,-40.5 682.5,-40.5"/>
<text text-anchor="middle" x="811" y="-48.5" font-family="Helvetica,sans-Serif" font-size="10.00">ZendDbSchema_Db_Schema_AbstractSchema\refresh</text>
</a>
</g>
<!-- Node2&#45;&gt;Node21 -->
<g id="edge50" class="edge"><title>Node2&#45;&gt;Node21</title>
<path fill="none" stroke="midnightblue" d="M511.71,-379.651C569.013,-316.726 756.489,-110.859 801.311,-61.64"/>
<polygon fill="midnightblue" stroke="midnightblue" points="508.949,-377.484 504.804,-387.234 514.125,-382.197 508.949,-377.484"/>
</g>
<!-- Node24 -->
<g id="node52" class="node"><title>Node24</title>
<a xlink:href="classZendDbSchema__Db__Schema__Table.html#a21a2a75870207a989576655fec7507c3" target="_top" xlink:title="ZendDbSchema_Db_Schema_Table\\isDirty">
<polygon fill="white" stroke="black" points="707.5,-436.5 707.5,-457.5 914.5,-457.5 914.5,-436.5 707.5,-436.5"/>
<text text-anchor="middle" x="811" y="-444.5" font-family="Helvetica,sans-Serif" font-size="10.00">ZendDbSchema_Db_Schema_Table\isDirty</text>
</a>
</g>
<!-- Node2&#45;&gt;Node24 -->
<g id="edge56" class="edge"><title>Node2&#45;&gt;Node24</title>
<path fill="none" stroke="midnightblue" d="M572.675,-410.045C624.874,-418.139 693.008,-428.704 743.05,-436.463"/>
<polygon fill="midnightblue" stroke="midnightblue" points="573.208,-406.585 562.79,-408.512 572.135,-413.503 573.208,-406.585"/>
</g>
<!-- Node4 -->
<g id="node7" class="node"><title>Node4</title>
<a xlink:href="classZendDbSchema__Db__Schema__Generator__Mysql.html#a5ffe10ce956b3e189c364d2bd03acf88" target="_top" xlink:title="ZendDbSchema_Db_Schema_Generator_Mysql\\alterDatabase">
<polygon fill="white" stroke="black" points="990,-556.5 990,-577.5 1280,-577.5 1280,-556.5 990,-556.5"/>
<text text-anchor="middle" x="1135" y="-564.5" font-family="Helvetica,sans-Serif" font-size="10.00">ZendDbSchema_Db_Schema_Generator_Mysql\alterDatabase</text>
</a>
</g>
<!-- Node3&#45;&gt;Node4 -->
<g id="edge6" class="edge"><title>Node3&#45;&gt;Node4</title>
<path fill="none" stroke="midnightblue" d="M850.095,-363.567C878.881,-376.195 916.885,-397.168 940,-427 974.105,-471.015 933.493,-511.034 976,-547 980.354,-550.684 985.03,-553.906 989.949,-556.717"/>
<polygon fill="midnightblue" stroke="midnightblue" points="851.295,-360.274 840.721,-359.603 848.569,-366.721 851.295,-360.274"/>
</g>
<!-- Node5 -->
<g id="node9" class="node"><title>Node5</title>
<a xlink:href="classZendDbSchema__Db__Schema__Generator__Mysql.html#ab3c87af9fdc6ba8d911b1162a67dc0be" target="_top" xlink:title="ZendDbSchema_Db_Schema_Generator_Mysql\\dropDatabase">
<polygon fill="white" stroke="black" points="990,-238.5 990,-259.5 1280,-259.5 1280,-238.5 990,-238.5"/>
<text text-anchor="middle" x="1135" y="-246.5" font-family="Helvetica,sans-Serif" font-size="10.00">ZendDbSchema_Db_Schema_Generator_Mysql\dropDatabase</text>
</a>
</g>
<!-- Node3&#45;&gt;Node5 -->
<g id="edge8" class="edge"><title>Node3&#45;&gt;Node5</title>
<path fill="none" stroke="midnightblue" d="M836.674,-333.256C868.247,-314.687 924.053,-284.405 976,-269 988.937,-265.164 1002.68,-262.063 1016.46,-259.557"/>
<polygon fill="midnightblue" stroke="midnightblue" points="834.86,-330.262 828.06,-338.386 838.442,-336.276 834.86,-330.262"/>
</g>
<!-- Node6 -->
<g id="node11" class="node"><title>Node6</title>
<a xlink:href="classZendDbSchema__Db__Schema__Generator__Mysql.html#aebe278ab07f38d58f8f440f9cad01565" target="_top" xlink:title="ZendDbSchema_Db_Schema_Generator_Mysql\\alterTable">
<polygon fill="white" stroke="black" points="999,-476.5 999,-497.5 1271,-497.5 1271,-476.5 999,-476.5"/>
<text text-anchor="middle" x="1135" y="-484.5" font-family="Helvetica,sans-Serif" font-size="10.00">ZendDbSchema_Db_Schema_Generator_Mysql\alterTable</text>
</a>
</g>
<!-- Node3&#45;&gt;Node6 -->
<g id="edge10" class="edge"><title>Node3&#45;&gt;Node6</title>
<path fill="none" stroke="midnightblue" d="M841.876,-364.337C869.108,-378.617 909.148,-401.489 940,-427 958.433,-442.241 954.802,-455.922 976,-467 983.274,-470.801 990.983,-473.992 998.93,-476.663"/>
<polygon fill="midnightblue" stroke="midnightblue" points="843.304,-361.136 832.814,-359.655 840.091,-367.355 843.304,-361.136"/>
</g>
<!-- Node7 -->
<g id="node13" class="node"><title>Node7</title>
<a xlink:href="classZendDbSchema__Db__Schema__Generator__Mysql.html#a963a138b593e5e9e3a6b9a8e540a4a10" target="_top" xlink:title="ZendDbSchema_Db_Schema_Generator_Mysql\\dropTable">
<polygon fill="white" stroke="black" points="999,-160.5 999,-181.5 1271,-181.5 1271,-160.5 999,-160.5"/>
<text text-anchor="middle" x="1135" y="-168.5" font-family="Helvetica,sans-Serif" font-size="10.00">ZendDbSchema_Db_Schema_Generator_Mysql\dropTable</text>
</a>
</g>
<!-- Node3&#45;&gt;Node7 -->
<g id="edge12" class="edge"><title>Node3&#45;&gt;Node7</title>
<path fill="none" stroke="midnightblue" d="M824.923,-330.207C850.667,-297.003 909.216,-228.41 976,-196 988.695,-189.839 1002.57,-185.136 1016.66,-181.555"/>
<polygon fill="midnightblue" stroke="midnightblue" points="822.102,-328.135 818.825,-338.21 827.67,-332.378 822.102,-328.135"/>
</g>
<!-- Node8 -->
<g id="node15" class="node"><title>Node8</title>
<a xlink:href="classZendDbSchema__Db__Schema__Generator__Mysql.html#a57a5e637e2c19faee40597d96d6b71b3" target="_top" xlink:title="ZendDbSchema_Db_Schema_Generator_Mysql\\alterColumn">
<polygon fill="white" stroke="black" points="994.5,-80.5 994.5,-101.5 1275.5,-101.5 1275.5,-80.5 994.5,-80.5"/>
<text text-anchor="middle" x="1135" y="-88.5" font-family="Helvetica,sans-Serif" font-size="10.00">ZendDbSchema_Db_Schema_Generator_Mysql\alterColumn</text>
</a>
</g>
<!-- Node3&#45;&gt;Node8 -->
<g id="edge14" class="edge"><title>Node3&#45;&gt;Node8</title>
<path fill="none" stroke="midnightblue" d="M821.669,-329.61C850.602,-277.767 931.364,-138.052 976,-111 982.067,-107.323 988.503,-104.18 995.175,-101.501"/>
<polygon fill="midnightblue" stroke="midnightblue" points="818.536,-328.043 816.745,-338.485 824.657,-331.439 818.536,-328.043"/>
</g>
<!-- Node9 -->
<g id="node17" class="node"><title>Node9</title>
<a xlink:href="classZendDbSchema__Db__Schema__Generator__Mysql.html#a5546e56c0c78f9c9d3e830fb5ffcd72d" target="_top" xlink:title="ZendDbSchema_Db_Schema_Generator_Mysql\\createIndex">
<polygon fill="white" stroke="black" points="995,-318.5 995,-339.5 1275,-339.5 1275,-318.5 995,-318.5"/>
<text text-anchor="middle" x="1135" y="-326.5" font-family="Helvetica,sans-Serif" font-size="10.00">ZendDbSchema_Db_Schema_Generator_Mysql\createIndex</text>
</a>
</g>
<!-- Node3&#45;&gt;Node9 -->
<g id="edge16" class="edge"><title>Node3&#45;&gt;Node9</title>
<path fill="none" stroke="midnightblue" d="M949.811,-340.431C964.748,-339.509 979.954,-338.571 994.907,-337.648"/>
<polygon fill="midnightblue" stroke="midnightblue" points="949.284,-336.957 939.519,-341.067 949.715,-343.944 949.284,-336.957"/>
</g>
<!-- Node11 -->
<g id="node21" class="node"><title>Node11</title>
<a xlink:href="classZendDbSchema__Db__Schema__Generator__Mysql.html#a16b347a1c95888775b09d14505bae2b2" target="_top" xlink:title="ZendDbSchema_Db_Schema_Generator_Mysql\\alterForeignKey">
<polygon fill="white" stroke="black" points="986.5,-358.5 986.5,-379.5 1283.5,-379.5 1283.5,-358.5 986.5,-358.5"/>
<text text-anchor="middle" x="1135" y="-366.5" font-family="Helvetica,sans-Serif" font-size="10.00">ZendDbSchema_Db_Schema_Generator_Mysql\alterForeignKey</text>
</a>
</g>
<!-- Node3&#45;&gt;Node11 -->
<g id="edge20" class="edge"><title>Node3&#45;&gt;Node11</title>
<path fill="none" stroke="midnightblue" d="M949.66,-357.559C961.79,-358.308 974.099,-359.068 986.306,-359.821"/>
<polygon fill="midnightblue" stroke="midnightblue" points="949.715,-354.056 939.519,-356.933 949.284,-361.043 949.715,-354.056"/>
</g>
<!-- Node12 -->
<g id="node23" class="node"><title>Node12</title>
<a xlink:href="classZendDbSchema__Db__Schema__AbstractEntity.html#a5b1c93da76c3708f90d330b4643e55b2" target="_top" xlink:title="ZendDbSchema_Db_Schema_AbstractEntity\\save">
<polygon fill="white" stroke="black" points="1353,-536.5 1353,-557.5 1591,-557.5 1591,-536.5 1353,-536.5"/>
<text text-anchor="middle" x="1472" y="-544.5" font-family="Helvetica,sans-Serif" font-size="10.00">ZendDbSchema_Db_Schema_AbstractEntity\save</text>
</a>
</g>
<!-- Node3&#45;&gt;Node12 -->
<g id="edge22" class="edge"><title>Node3&#45;&gt;Node12</title>
<path fill="none" stroke="midnightblue" d="M858.515,-362.108C891.312,-370.763 936.042,-381.795 976,-389 1046.04,-401.628 1238.31,-382.688 1294,-427 1330.96,-456.411 1293.35,-497.203 1330,-527 1336.86,-532.575 1344.54,-536.989 1352.7,-540.455"/>
<polygon fill="midnightblue" stroke="midnightblue" points="859.302,-358.695 848.738,-359.505 857.501,-365.46 859.302,-358.695"/>
</g>
<!-- Node13 -->
<g id="node25" class="node"><title>Node13</title>
<a xlink:href="classZendDbSchema__Db__Schema__AbstractEntity.html#a26fcff2268495fcdbfa265f394ee93d9" target="_top" xlink:title="ZendDbSchema_Db_Schema_AbstractEntity\\delete">
<polygon fill="white" stroke="black" points="1350.5,-179.5 1350.5,-200.5 1593.5,-200.5 1593.5,-179.5 1350.5,-179.5"/>
<text text-anchor="middle" x="1472" y="-187.5" font-family="Helvetica,sans-Serif" font-size="10.00">ZendDbSchema_Db_Schema_AbstractEntity\delete</text>
</a>
</g>
<!-- Node3&#45;&gt;Node13 -->
<g id="edge24" class="edge"><title>Node3&#45;&gt;Node13</title>
<path fill="none" stroke="midnightblue" d="M828.43,-331.096C856.543,-303.533 914.95,-251.537 976,-229 1042.24,-204.546 1226.19,-195.42 1350.47,-192.018"/>
<polygon fill="midnightblue" stroke="midnightblue" points="825.938,-328.638 821.327,-338.177 830.88,-333.596 825.938,-328.638"/>
</g>
<!-- Node14 -->
<g id="node27" class="node"><title>Node14</title>
<a xlink:href="classZendDbSchema__Db__Schema__AbstractSchema.html#aec661ede88f500caaf2a09e98c31d3b0" target="_top" xlink:title="ZendDbSchema_Db_Schema_AbstractSchema\\getDropSql">
<polygon fill="white" stroke="black" points="997,-120.5 997,-141.5 1273,-141.5 1273,-120.5 997,-120.5"/>
<text text-anchor="middle" x="1135" y="-128.5" font-family="Helvetica,sans-Serif" font-size="10.00">ZendDbSchema_Db_Schema_AbstractSchema\getDropSql</text>
</a>
</g>
<!-- Node3&#45;&gt;Node14 -->
<g id="edge26" class="edge"><title>Node3&#45;&gt;Node14</title>
<path fill="none" stroke="midnightblue" d="M820.7,-329.476C842.247,-288.423 898.392,-193.457 976,-151 982.712,-147.328 989.817,-144.214 997.153,-141.581"/>
<polygon fill="midnightblue" stroke="midnightblue" points="817.535,-327.977 816.083,-338.471 823.763,-331.173 817.535,-327.977"/>
</g>
<!-- Node16 -->
<g id="node32" class="node"><title>Node16</title>
<a xlink:href="classZendDbSchema__Db__Schema__AbstractSchema.html#ada5af8e6e7a4c5407b7ca67d03900b31" target="_top" xlink:title="ZendDbSchema_Db_Schema_AbstractSchema\\toSql">
<polygon fill="white" stroke="black" points="1010,-516.5 1010,-537.5 1260,-537.5 1260,-516.5 1010,-516.5"/>
<text text-anchor="middle" x="1135" y="-524.5" font-family="Helvetica,sans-Serif" font-size="10.00">ZendDbSchema_Db_Schema_AbstractSchema\toSql</text>
</a>
</g>
<!-- Node3&#45;&gt;Node16 -->
<g id="edge32" class="edge"><title>Node3&#45;&gt;Node16</title>
<path fill="none" stroke="midnightblue" d="M847.171,-363.626C875.561,-376.657 914.431,-398.134 940,-427 965.853,-456.186 944.646,-483.824 976,-507 986.18,-514.525 997.764,-520.006 1009.93,-523.933"/>
<polygon fill="midnightblue" stroke="midnightblue" points="848.539,-360.404 837.98,-359.532 845.691,-366.798 848.539,-360.404"/>
</g>
<!-- Node18 -->
<g id="node37" class="node"><title>Node18</title>
<a xlink:href="classZendDbSchema__Db__Schema__Table.html#a6178edaeea7e08d97e2196dd991532f9" target="_top" xlink:title="ZendDbSchema_Db_Schema_Table\\toSql">
<polygon fill="white" stroke="black" points="1034.5,-436.5 1034.5,-457.5 1235.5,-457.5 1235.5,-436.5 1034.5,-436.5"/>
<text text-anchor="middle" x="1135" y="-444.5" font-family="Helvetica,sans-Serif" font-size="10.00">ZendDbSchema_Db_Schema_Table\toSql</text>
</a>
</g>
<!-- Node3&#45;&gt;Node18 -->
<g id="edge38" class="edge"><title>Node3&#45;&gt;Node18</title>
<path fill="none" stroke="midnightblue" d="M839.55,-364.386C871.78,-381.094 926.223,-407.349 976,-422 996.909,-428.154 1019.84,-432.879 1041.61,-436.474"/>
<polygon fill="midnightblue" stroke="midnightblue" points="841.163,-361.28 830.681,-359.738 837.913,-367.48 841.163,-361.28"/>
</g>
<!-- Node19 -->
<g id="node39" class="node"><title>Node19</title>
<a xlink:href="classZendDbSchema__Db__Schema__Table__AbstractDefinition.html#a018fe3e134417675da482608579910a5" target="_top" xlink:title="ZendDbSchema_Db_Schema_Table_AbstractDefinition\\markDeleted">
<polygon fill="white" stroke="black" points="976.5,-278.5 976.5,-299.5 1293.5,-299.5 1293.5,-278.5 976.5,-278.5"/>
<text text-anchor="middle" x="1135" y="-286.5" font-family="Helvetica,sans-Serif" font-size="10.00">ZendDbSchema_Db_Schema_Table_AbstractDefinition\markDeleted</text>
</a>
</g>
<!-- Node3&#45;&gt;Node19 -->
<g id="edge40" class="edge"><title>Node3&#45;&gt;Node19</title>
<path fill="none" stroke="midnightblue" d="M858.853,-335.886C891.627,-327.279 936.196,-316.304 976,-309 995.703,-305.385 1016.9,-302.221 1037.19,-299.541"/>
<polygon fill="midnightblue" stroke="midnightblue" points="857.85,-332.531 849.079,-338.475 859.642,-339.298 857.85,-332.531"/>
</g>
<!-- Node10 -->
<g id="node19" class="node"><title>Node10</title>
<a xlink:href="classZendDbSchema__Db__Schema__Generator__Mysql.html#a0f94d6cabe125b387efa64fc7160a9e5" target="_top" xlink:title="ZendDbSchema_Db_Schema_Generator_Mysql\\alterIndex">
<polygon fill="white" stroke="black" points="1336,-318.5 1336,-339.5 1608,-339.5 1608,-318.5 1336,-318.5"/>
<text text-anchor="middle" x="1472" y="-326.5" font-family="Helvetica,sans-Serif" font-size="10.00">ZendDbSchema_Db_Schema_Generator_Mysql\alterIndex</text>
</a>
</g>
<!-- Node9&#45;&gt;Node10 -->
<g id="edge18" class="edge"><title>Node9&#45;&gt;Node10</title>
<path fill="none" stroke="midnightblue" d="M1285.81,-329C1302.46,-329 1319.35,-329 1335.8,-329"/>
<polygon fill="midnightblue" stroke="midnightblue" points="1285.48,-325.5 1275.48,-329 1285.48,-332.5 1285.48,-325.5"/>
</g>
<!-- Node14&#45;&gt;Node13 -->
<g id="edge28" class="edge"><title>Node14&#45;&gt;Node13</title>
<path fill="none" stroke="midnightblue" d="M1240.16,-142.862C1258.16,-145.283 1276.65,-148.014 1294,-151 1340.45,-158.994 1393.13,-170.894 1429.05,-179.445"/>
<polygon fill="midnightblue" stroke="midnightblue" points="1240.59,-139.388 1230.22,-141.549 1239.67,-146.328 1240.59,-139.388"/>
</g>
<!-- Node15 -->
<g id="node30" class="node"><title>Node15</title>
<a xlink:href="classZendDbSchema__Db__Schema__Table__AbstractDefinition.html#a75c1b3ef1005c2d6aa371ecef07d530d" target="_top" xlink:title="ZendDbSchema_Db_Schema_Table_AbstractDefinition\\toSql">
<polygon fill="white" stroke="black" points="1330,-120.5 1330,-141.5 1614,-141.5 1614,-120.5 1330,-120.5"/>
<text text-anchor="middle" x="1472" y="-128.5" font-family="Helvetica,sans-Serif" font-size="10.00">ZendDbSchema_Db_Schema_Table_AbstractDefinition\toSql</text>
</a>
</g>
<!-- Node14&#45;&gt;Node15 -->
<g id="edge30" class="edge"><title>Node14&#45;&gt;Node15</title>
<path fill="none" stroke="midnightblue" d="M1283.18,-131C1298.67,-131 1314.38,-131 1329.8,-131"/>
<polygon fill="midnightblue" stroke="midnightblue" points="1283.04,-127.5 1273.04,-131 1283.04,-134.5 1283.04,-127.5"/>
</g>
<!-- Node16&#45;&gt;Node12 -->
<g id="edge34" class="edge"><title>Node16&#45;&gt;Node12</title>
<path fill="none" stroke="midnightblue" d="M1270.03,-535.014C1297.41,-536.638 1326.01,-538.336 1352.79,-539.925"/>
<polygon fill="midnightblue" stroke="midnightblue" points="1270.2,-531.518 1260.01,-534.419 1269.78,-538.505 1270.2,-531.518"/>
</g>
<!-- Node17 -->
<g id="node35" class="node"><title>Node17</title>
<a xlink:href="classZendDbSchema__Db__Schema__AbstractSchema.html#aafc458a7c19c74314889da4a99e457ff" target="_top" xlink:title="ZendDbSchema_Db_Schema_AbstractSchema\\__toString">
<polygon fill="white" stroke="black" points="1336,-496.5 1336,-517.5 1608,-517.5 1608,-496.5 1336,-496.5"/>
<text text-anchor="middle" x="1472" y="-504.5" font-family="Helvetica,sans-Serif" font-size="10.00">ZendDbSchema_Db_Schema_AbstractSchema\__toString</text>
</a>
</g>
<!-- Node16&#45;&gt;Node17 -->
<g id="edge36" class="edge"><title>Node16&#45;&gt;Node17</title>
<path fill="none" stroke="midnightblue" d="M1270.22,-518.975C1291.84,-517.692 1314.23,-516.363 1335.87,-515.079"/>
<polygon fill="midnightblue" stroke="midnightblue" points="1269.78,-515.495 1260.01,-519.581 1270.2,-522.482 1269.78,-515.495"/>
</g>
<!-- Node20&#45;&gt;Node4 -->
<g id="edge44" class="edge"><title>Node20&#45;&gt;Node4</title>
<path fill="none" stroke="midnightblue" d="M949.295,-555.537C962.754,-556.368 976.436,-557.212 989.958,-558.047"/>
<polygon fill="midnightblue" stroke="midnightblue" points="949.25,-552.027 939.053,-554.905 948.819,-559.014 949.25,-552.027"/>
</g>
<!-- Node20&#45;&gt;Node12 -->
<g id="edge46" class="edge"><title>Node20&#45;&gt;Node12</title>
<path fill="none" stroke="midnightblue" d="M854.159,-560.45C887.15,-569.998 933.96,-581.977 976,-587 1116.34,-603.767 1153.53,-602.589 1294,-587 1343.9,-581.463 1400.24,-567.449 1435.92,-557.577"/>
<polygon fill="midnightblue" stroke="midnightblue" points="854.965,-557.039 844.384,-557.575 852.99,-563.754 854.965,-557.039"/>
</g>
<!-- Node20&#45;&gt;Node16 -->
<g id="edge48" class="edge"><title>Node20&#45;&gt;Node16</title>
<path fill="none" stroke="midnightblue" d="M949.233,-538.467C969.413,-537.221 990.097,-535.945 1009.99,-534.716"/>
<polygon fill="midnightblue" stroke="midnightblue" points="948.819,-534.986 939.053,-539.095 949.25,-541.973 948.819,-534.986"/>
</g>
<!-- Node22 -->
<g id="node48" class="node"><title>Node22</title>
<a xlink:href="classZendDbSchema__Db__Schema__AbstractSchema.html#a95b8986f7fa3a4e26be024d3a621e4f6" target="_top" xlink:title="ZendDbSchema_Db_Schema_AbstractSchema\\__construct">
<polygon fill="white" stroke="black" points="996,-40.5 996,-61.5 1274,-61.5 1274,-40.5 996,-40.5"/>
<text text-anchor="middle" x="1135" y="-48.5" font-family="Helvetica,sans-Serif" font-size="10.00">ZendDbSchema_Db_Schema_AbstractSchema\__construct</text>
</a>
</g>
<!-- Node21&#45;&gt;Node22 -->
<g id="edge52" class="edge"><title>Node21&#45;&gt;Node22</title>
<path fill="none" stroke="midnightblue" d="M949.572,-51C964.943,-51 980.602,-51 995.978,-51"/>
<polygon fill="midnightblue" stroke="midnightblue" points="949.519,-47.5001 939.519,-51 949.519,-54.5001 949.519,-47.5001"/>
</g>
<!-- Node23 -->
<g id="node50" class="node"><title>Node23</title>
<a xlink:href="classZendDbSchema__Db__Schema__Table__PrimaryKey.html#a8189591ab7ced58307298ecc8f27779d" target="_top" xlink:title="ZendDbSchema_Db_Schema_Table_PrimaryKey\\__construct">
<polygon fill="white" stroke="black" points="992,-0.5 992,-21.5 1278,-21.5 1278,-0.5 992,-0.5"/>
<text text-anchor="middle" x="1135" y="-8.5" font-family="Helvetica,sans-Serif" font-size="10.00">ZendDbSchema_Db_Schema_Table_PrimaryKey\__construct</text>
</a>
</g>
<!-- Node21&#45;&gt;Node23 -->
<g id="edge54" class="edge"><title>Node21&#45;&gt;Node23</title>
<path fill="none" stroke="midnightblue" d="M906.295,-39.2352C951.786,-33.619 1005.78,-26.953 1049.88,-21.5087"/>
<polygon fill="midnightblue" stroke="midnightblue" points="905.623,-35.7915 896.127,-40.4905 906.481,-42.7387 905.623,-35.7915"/>
</g>
<!-- Node24&#45;&gt;Node6 -->
<g id="edge58" class="edge"><title>Node24&#45;&gt;Node6</title>
<path fill="none" stroke="midnightblue" d="M906.295,-458.765C951.786,-464.381 1005.78,-471.047 1049.88,-476.491"/>
<polygon fill="midnightblue" stroke="midnightblue" points="906.481,-455.261 896.127,-457.51 905.623,-462.209 906.481,-455.261"/>
</g>
<!-- Node24&#45;&gt;Node18 -->
<g id="edge60" class="edge"><title>Node24&#45;&gt;Node18</title>
<path fill="none" stroke="midnightblue" d="M925.293,-447C960.908,-447 999.901,-447 1034.5,-447"/>
<polygon fill="midnightblue" stroke="midnightblue" points="924.853,-443.5 914.853,-447 924.852,-450.5 924.853,-443.5"/>
</g>
</g>
</svg>
