<?xml version="1.0" encoding="UTF-8" standalone="no"?>
<!DOCTYPE svg PUBLIC "-//W3C//DTD SVG 1.1//EN"
 "http://www.w3.org/Graphics/SVG/1.1/DTD/svg11.dtd">
<!-- Generated by graphviz version 2.26.3 (20100126.1600)
 -->
<!-- Title: G Pages: 1 -->
<svg width="530pt" height="316pt"
 viewBox="0.00 0.00 530.00 316.00" xmlns="http://www.w3.org/2000/svg" xmlns:xlink="http://www.w3.org/1999/xlink">
<g id="graph1" class="graph" transform="scale(1 1) rotate(0) translate(4 312)">
<title>G</title>
<polygon fill="white" stroke="white" points="-4,5 -4,-312 527,-312 527,5 -4,5"/>
<!-- Node1 -->
<g id="node1" class="node"><title>Node1</title>
<polygon fill="#bfbfbf" stroke="black" points="114,-127 114,-307 412,-307 412,-127 114,-127"/>
<text text-anchor="middle" x="263" y="-294" font-family="Helvetica,sans-Serif" font-size="10.00">ZendDbSchema_Db_Schema_Table_Manager_AbstractManager</text>
<polyline fill="none" stroke="black" points="114,-286 412,-286 "/>
<text text-anchor="start" x="122" y="-273" font-family="Helvetica,sans-Serif" font-size="10.00"># $_data</text>
<text text-anchor="start" x="122" y="-260" font-family="Helvetica,sans-Serif" font-size="10.00"># $_table</text>
<polyline fill="none" stroke="black" points="114,-252 412,-252 "/>
<text text-anchor="start" x="122" y="-239" font-family="Helvetica,sans-Serif" font-size="10.00">+ add()</text>
<text text-anchor="start" x="122" y="-226" font-family="Helvetica,sans-Serif" font-size="10.00">+ refresh()</text>
<text text-anchor="start" x="122" y="-213" font-family="Helvetica,sans-Serif" font-size="10.00">+ __construct()</text>
<text text-anchor="start" x="122" y="-200" font-family="Helvetica,sans-Serif" font-size="10.00">+ isDirty()</text>
<text text-anchor="start" x="122" y="-187" font-family="Helvetica,sans-Serif" font-size="10.00">+ toArray()</text>
<text text-anchor="start" x="122" y="-174" font-family="Helvetica,sans-Serif" font-size="10.00">+ getIterator()</text>
<text text-anchor="start" x="122" y="-161" font-family="Helvetica,sans-Serif" font-size="10.00">+ has()</text>
<text text-anchor="start" x="122" y="-148" font-family="Helvetica,sans-Serif" font-size="10.00">+ get()</text>
<text text-anchor="start" x="122" y="-135" font-family="Helvetica,sans-Serif" font-size="10.00"># _getItemClass()</text>
</g>
<!-- Node2 -->
<g id="node3" class="node"><title>Node2</title>
<a xlink:href="classZendDbSchema__Db__Schema__Table__Manager__Column.html" target="_top" xlink:title="{ZendDbSchema_Db_Schema_Table_Manager_Column\n||+ add()\l+ refresh()\l# _getItemClass()\l}">
<polygon fill="white" stroke="black" points="-0.5,-0.5 -0.5,-89.5 256.5,-89.5 256.5,-0.5 -0.5,-0.5"/>
<text text-anchor="middle" x="128" y="-76.5" font-family="Helvetica,sans-Serif" font-size="10.00">ZendDbSchema_Db_Schema_Table_Manager_Column</text>
<polyline fill="none" stroke="black" points="-0.5,-68.5 256.5,-68.5 "/>
<text text-anchor="middle" x="128" y="-55.5" font-family="Helvetica,sans-Serif" font-size="10.00"> </text>
<polyline fill="none" stroke="black" points="-0.5,-47.5 256.5,-47.5 "/>
<text text-anchor="start" x="7.5" y="-34.5" font-family="Helvetica,sans-Serif" font-size="10.00">+ add()</text>
<text text-anchor="start" x="7.5" y="-21.5" font-family="Helvetica,sans-Serif" font-size="10.00">+ refresh()</text>
<text text-anchor="start" x="7.5" y="-8.5" font-family="Helvetica,sans-Serif" font-size="10.00"># _getItemClass()</text>
</a>
</g>
<!-- Node1&#45;&gt;Node2 -->
<g id="edge2" class="edge"><title>Node1&#45;&gt;Node2</title>
<path fill="none" stroke="midnightblue" d="M186.137,-119.07C178.065,-108.786 170.175,-98.7342 162.941,-89.518"/>
<polygon fill="none" stroke="midnightblue" points="183.41,-121.265 192.337,-126.97 188.916,-116.943 183.41,-121.265"/>
</g>
<!-- Node3 -->
<g id="node5" class="node"><title>Node3</title>
<a xlink:href="classZendDbSchema__Db__Schema__Table__Manager__Index.html" target="_top" xlink:title="{ZendDbSchema_Db_Schema_Table_Manager_Index\n||+ add()\l+ refresh()\l# _getItemClass()\l}">
<polygon fill="white" stroke="black" points="274,-0.5 274,-89.5 522,-89.5 522,-0.5 274,-0.5"/>
<text text-anchor="middle" x="398" y="-76.5" font-family="Helvetica,sans-Serif" font-size="10.00">ZendDbSchema_Db_Schema_Table_Manager_Index</text>
<polyline fill="none" stroke="black" points="274,-68.5 522,-68.5 "/>
<text text-anchor="middle" x="398" y="-55.5" font-family="Helvetica,sans-Serif" font-size="10.00"> </text>
<polyline fill="none" stroke="black" points="274,-47.5 522,-47.5 "/>
<text text-anchor="start" x="282" y="-34.5" font-family="Helvetica,sans-Serif" font-size="10.00">+ add()</text>
<text text-anchor="start" x="282" y="-21.5" font-family="Helvetica,sans-Serif" font-size="10.00">+ refresh()</text>
<text text-anchor="start" x="282" y="-8.5" font-family="Helvetica,sans-Serif" font-size="10.00"># _getItemClass()</text>
</a>
</g>
<!-- Node1&#45;&gt;Node3 -->
<g id="edge4" class="edge"><title>Node1&#45;&gt;Node3</title>
<path fill="none" stroke="midnightblue" d="M339.863,-119.07C347.935,-108.786 355.825,-98.7342 363.059,-89.518"/>
<polygon fill="none" stroke="midnightblue" points="337.084,-116.943 333.663,-126.97 342.59,-121.265 337.084,-116.943"/>
</g>
</g>
</svg>
