<?xml version="1.0" encoding="UTF-8" standalone="no"?>
<!DOCTYPE svg PUBLIC "-//W3C//DTD SVG 1.1//EN"
 "http://www.w3.org/Graphics/SVG/1.1/DTD/svg11.dtd">
<!-- Generated by graphviz version 2.26.3 (20100126.1600)
 -->
<!-- Title: G Pages: 1 -->
<svg width="1848pt" height="110pt"
 viewBox="0.00 0.00 1848.00 110.00" xmlns="http://www.w3.org/2000/svg" xmlns:xlink="http://www.w3.org/1999/xlink">
<g id="graph1" class="graph" transform="scale(1 1) rotate(0) translate(4 106)">
<title>G</title>
<polygon fill="white" stroke="white" points="-4,5 -4,-106 1845,-106 1845,5 -4,5"/>
<!-- Node1 -->
<g id="node1" class="node"><title>Node1</title>
<polygon fill="#bfbfbf" stroke="black" points="0,-40.5 0,-61.5 292,-61.5 292,-40.5 0,-40.5"/>
<text text-anchor="middle" x="146" y="-48.5" font-family="Helvetica,sans-Serif" font-size="10.00">ZendDbSchema_Db_Schema_Table_ForeignKey\setReference</text>
</g>
<!-- Node2 -->
<g id="node3" class="node"><title>Node2</title>
<a xlink:href="classZendDbSchema__Db__Schema__AbstractSchema.html#ab4282a1fd6f4d9f23d01de8328072c71" target="_top" xlink:title="ZendDbSchema_Db_Schema_AbstractSchema\\__set">
<polygon fill="white" stroke="black" points="328.5,-40.5 328.5,-61.5 579.5,-61.5 579.5,-40.5 328.5,-40.5"/>
<text text-anchor="middle" x="454" y="-48.5" font-family="Helvetica,sans-Serif" font-size="10.00">ZendDbSchema_Db_Schema_AbstractSchema\__set</text>
</a>
</g>
<!-- Node1&#45;&gt;Node2 -->
<g id="edge2" class="edge"><title>Node1&#45;&gt;Node2</title>
<path fill="none" stroke="midnightblue" d="M292.333,-51C300.83,-51 309.357,-51 317.813,-51"/>
<polygon fill="midnightblue" stroke="midnightblue" points="318.083,-54.5001 328.083,-51 318.083,-47.5001 318.083,-54.5001"/>
</g>
<!-- Node3 -->
<g id="node5" class="node"><title>Node3</title>
<a xlink:href="classZendDbSchema__Db__Schema__AbstractSchema.html#afda46eab0c365f4c9a743b7185c51d6c" target="_top" xlink:title="ZendDbSchema_Db_Schema_AbstractSchema\\getValidator">
<polygon fill="white" stroke="black" points="616.5,-40.5 616.5,-61.5 895.5,-61.5 895.5,-40.5 616.5,-40.5"/>
<text text-anchor="middle" x="756" y="-48.5" font-family="Helvetica,sans-Serif" font-size="10.00">ZendDbSchema_Db_Schema_AbstractSchema\getValidator</text>
</a>
</g>
<!-- Node2&#45;&gt;Node3 -->
<g id="edge4" class="edge"><title>Node2&#45;&gt;Node3</title>
<path fill="none" stroke="midnightblue" d="M579.888,-51C588.497,-51 597.217,-51 605.933,-51"/>
<polygon fill="midnightblue" stroke="midnightblue" points="606.156,-54.5001 616.156,-51 606.156,-47.5001 606.156,-54.5001"/>
</g>
<!-- Node4 -->
<g id="node7" class="node"><title>Node4</title>
<a xlink:href="classZendDbSchema__Db__Schema__AbstractSchema.html#a47d95912f6bf6d26d023597887dafacb" target="_top" xlink:title="ZendDbSchema_Db_Schema_AbstractSchema\\getAdapter">
<polygon fill="white" stroke="black" points="932.5,-40.5 932.5,-61.5 1207.5,-61.5 1207.5,-40.5 932.5,-40.5"/>
<text text-anchor="middle" x="1070" y="-48.5" font-family="Helvetica,sans-Serif" font-size="10.00">ZendDbSchema_Db_Schema_AbstractSchema\getAdapter</text>
</a>
</g>
<!-- Node3&#45;&gt;Node4 -->
<g id="edge6" class="edge"><title>Node3&#45;&gt;Node4</title>
<path fill="none" stroke="midnightblue" d="M895.554,-51C904.265,-51 913.05,-51 921.797,-51"/>
<polygon fill="midnightblue" stroke="midnightblue" points="922.043,-54.5001 932.043,-51 922.043,-47.5001 922.043,-54.5001"/>
</g>
<!-- Node5 -->
<g id="node9" class="node"><title>Node5</title>
<a xlink:href="classZendDbSchema__Db__Schema__AbstractSchema.html#a6349649e5e09d67a5b5e0abe96298db8" target="_top" xlink:title="ZendDbSchema_Db_Schema_AbstractSchema\\setAdapter">
<polygon fill="white" stroke="black" points="1244.5,-40.5 1244.5,-61.5 1519.5,-61.5 1519.5,-40.5 1244.5,-40.5"/>
<text text-anchor="middle" x="1382" y="-48.5" font-family="Helvetica,sans-Serif" font-size="10.00">ZendDbSchema_Db_Schema_AbstractSchema\setAdapter</text>
</a>
</g>
<!-- Node4&#45;&gt;Node5 -->
<g id="edge8" class="edge"><title>Node4&#45;&gt;Node5</title>
<path fill="none" stroke="midnightblue" d="M1207.76,-51C1216.44,-51 1225.2,-51 1233.92,-51"/>
<polygon fill="midnightblue" stroke="midnightblue" points="1234.14,-54.5001 1244.14,-51 1234.14,-47.5001 1234.14,-54.5001"/>
</g>
<!-- Node6 -->
<g id="node11" class="node"><title>Node6</title>
<a xlink:href="classZendDbSchema__Db__Schema__AbstractSchema.html#a53a1974dbc8822792a8d7b9c618d3a02" target="_top" xlink:title="ZendDbSchema_Db_Schema_AbstractSchema\\setGenerator">
<polygon fill="white" stroke="black" points="1556,-80.5 1556,-101.5 1840,-101.5 1840,-80.5 1556,-80.5"/>
<text text-anchor="middle" x="1698" y="-88.5" font-family="Helvetica,sans-Serif" font-size="10.00">ZendDbSchema_Db_Schema_AbstractSchema\setGenerator</text>
</a>
</g>
<!-- Node5&#45;&gt;Node6 -->
<g id="edge10" class="edge"><title>Node5&#45;&gt;Node6</title>
<path fill="none" stroke="midnightblue" d="M1465.03,-61.5095C1507.95,-66.9425 1560.48,-73.5919 1604.78,-79.2006"/>
<polygon fill="midnightblue" stroke="midnightblue" points="1604.62,-82.7077 1614.98,-80.4913 1605.5,-75.7631 1604.62,-82.7077"/>
</g>
<!-- Node7 -->
<g id="node13" class="node"><title>Node7</title>
<a xlink:href="classZendDbSchema__Db__Schema__AbstractSchema.html#aa0e6c9f8d58702dc41d988f064f62698" target="_top" xlink:title="ZendDbSchema_Db_Schema_AbstractSchema\\setParser">
<polygon fill="white" stroke="black" points="1563.5,-40.5 1563.5,-61.5 1832.5,-61.5 1832.5,-40.5 1563.5,-40.5"/>
<text text-anchor="middle" x="1698" y="-48.5" font-family="Helvetica,sans-Serif" font-size="10.00">ZendDbSchema_Db_Schema_AbstractSchema\setParser</text>
</a>
</g>
<!-- Node5&#45;&gt;Node7 -->
<g id="edge12" class="edge"><title>Node5&#45;&gt;Node7</title>
<path fill="none" stroke="midnightblue" d="M1519.68,-51C1530.76,-51 1541.98,-51 1553.1,-51"/>
<polygon fill="midnightblue" stroke="midnightblue" points="1553.29,-54.5001 1563.29,-51 1553.29,-47.5001 1553.29,-54.5001"/>
</g>
<!-- Node8 -->
<g id="node15" class="node"><title>Node8</title>
<a xlink:href="classZendDbSchema__Db__Schema__AbstractSchema.html#ac0161e2c24dafba8433fb86205a147fe" target="_top" xlink:title="ZendDbSchema_Db_Schema_AbstractSchema\\setValidator">
<polygon fill="white" stroke="black" points="1558.5,-0.5 1558.5,-21.5 1837.5,-21.5 1837.5,-0.5 1558.5,-0.5"/>
<text text-anchor="middle" x="1698" y="-8.5" font-family="Helvetica,sans-Serif" font-size="10.00">ZendDbSchema_Db_Schema_AbstractSchema\setValidator</text>
</a>
</g>
<!-- Node5&#45;&gt;Node8 -->
<g id="edge14" class="edge"><title>Node5&#45;&gt;Node8</title>
<path fill="none" stroke="midnightblue" d="M1465.03,-40.4905C1507.95,-35.0575 1560.48,-28.4081 1604.78,-22.7994"/>
<polygon fill="midnightblue" stroke="midnightblue" points="1605.5,-26.2369 1614.98,-21.5087 1604.62,-19.2923 1605.5,-26.2369"/>
</g>
</g>
</svg>
