<?xml version="1.0" encoding="UTF-8" standalone="no"?>
<!DOCTYPE svg PUBLIC "-//W3C//DTD SVG 1.1//EN"
 "http://www.w3.org/Graphics/SVG/1.1/DTD/svg11.dtd">
<!-- Generated by graphviz version 2.26.3 (20100126.1600)
 -->
<!-- Title: G Pages: 1 -->
<svg width="1066pt" height="49pt"
 viewBox="0.00 0.00 1066.00 49.00" xmlns="http://www.w3.org/2000/svg" xmlns:xlink="http://www.w3.org/1999/xlink">
<g id="graph1" class="graph" transform="scale(1 1) rotate(0) translate(4 45)">
<title>G</title>
<polygon fill="white" stroke="white" points="-4,5 -4,-45 1063,-45 1063,5 -4,5"/>
<!-- Node1 -->
<g id="node1" class="node"><title>Node1</title>
<polygon fill="#bfbfbf" stroke="black" points="0,-19.5 0,-40.5 226,-40.5 226,-19.5 0,-19.5"/>
<text text-anchor="middle" x="113" y="-27.5" font-family="Helvetica,sans-Serif" font-size="10.00">ZendDbSchema_Db_Migration_Skeleton\getFile</text>
</g>
<!-- Node2 -->
<g id="node3" class="node"><title>Node2</title>
<a xlink:href="classZendDbSchema__Db__Migration__Skeleton.html#a9d8f00f78a02bdc4e028a210c2797c62" target="_top" xlink:title="ZendDbSchema_Db_Migration_Skeleton\\getClass">
<polygon fill="white" stroke="black" points="822,-19.5 822,-40.5 1058,-40.5 1058,-19.5 822,-19.5"/>
<text text-anchor="middle" x="940" y="-27.5" font-family="Helvetica,sans-Serif" font-size="10.00">ZendDbSchema_Db_Migration_Skeleton\getClass</text>
</a>
</g>
<!-- Node1&#45;&gt;Node2 -->
<g id="edge2" class="edge"><title>Node1&#45;&gt;Node2</title>
<path fill="none" stroke="midnightblue" d="M226.083,-30.8386C238.207,-30.9047 250.359,-30.9609 262,-31 494.888,-31.7815 553.112,-31.7561 786,-31 794.359,-30.9729 802.974,-30.9374 811.657,-30.8961"/>
<polygon fill="midnightblue" stroke="midnightblue" points="811.887,-34.3951 821.869,-30.8451 811.852,-27.3952 811.887,-34.3951"/>
</g>
<!-- Node3 -->
<g id="node5" class="node"><title>Node3</title>
<a xlink:href="classZendDbSchema__Db__Migration__Skeleton.html#afb677840482d948597ec10dc0fd37aab" target="_top" xlink:title="ZendDbSchema_Db_Migration_Skeleton\\getVersion">
<polygon fill="white" stroke="black" points="262.5,-0.5 262.5,-21.5 505.5,-21.5 505.5,-0.5 262.5,-0.5"/>
<text text-anchor="middle" x="384" y="-8.5" font-family="Helvetica,sans-Serif" font-size="10.00">ZendDbSchema_Db_Migration_Skeleton\getVersion</text>
</a>
</g>
<!-- Node1&#45;&gt;Node3 -->
<g id="edge4" class="edge"><title>Node1&#45;&gt;Node3</title>
<path fill="none" stroke="midnightblue" d="M226.358,-22.0524C234.907,-21.453 243.576,-20.8452 252.225,-20.2389"/>
<polygon fill="midnightblue" stroke="midnightblue" points="252.629,-23.7192 262.36,-19.5283 252.14,-16.7363 252.629,-23.7192"/>
</g>
<!-- Node4 -->
<g id="node7" class="node"><title>Node4</title>
<a xlink:href="classZendDbSchema__Db__Migration__Skeleton.html#a7613e2ec6a61b621fd7897a29934269d" target="_top" xlink:title="ZendDbSchema_Db_Migration_Skeleton\\setVersion">
<polygon fill="white" stroke="black" points="542.5,-0.5 542.5,-21.5 785.5,-21.5 785.5,-0.5 542.5,-0.5"/>
<text text-anchor="middle" x="664" y="-8.5" font-family="Helvetica,sans-Serif" font-size="10.00">ZendDbSchema_Db_Migration_Skeleton\setVersion</text>
</a>
</g>
<!-- Node3&#45;&gt;Node4 -->
<g id="edge6" class="edge"><title>Node3&#45;&gt;Node4</title>
<path fill="none" stroke="midnightblue" d="M505.59,-11C514.289,-11 523.084,-11 531.838,-11"/>
<polygon fill="midnightblue" stroke="midnightblue" points="532.087,-14.5001 542.087,-11 532.087,-7.5001 532.087,-14.5001"/>
</g>
<!-- Node4&#45;&gt;Node2 -->
<g id="edge8" class="edge"><title>Node4&#45;&gt;Node2</title>
<path fill="none" stroke="midnightblue" d="M785.861,-19.389C794.476,-19.982 803.176,-20.5809 811.824,-21.1763"/>
<polygon fill="midnightblue" stroke="midnightblue" points="811.727,-24.6778 821.944,-21.873 812.208,-17.6944 811.727,-24.6778"/>
</g>
</g>
</svg>
