<?xml version="1.0" encoding="UTF-8" standalone="no"?>
<!DOCTYPE svg PUBLIC "-//W3C//DTD SVG 1.1//EN"
 "http://www.w3.org/Graphics/SVG/1.1/DTD/svg11.dtd">
<!-- Generated by graphviz version 2.26.3 (20100126.1600)
 -->
<!-- Title: G Pages: 1 -->
<svg width="340pt" height="146pt"
 viewBox="0.00 0.00 340.00 146.00" xmlns="http://www.w3.org/2000/svg" xmlns:xlink="http://www.w3.org/1999/xlink">
<g id="graph1" class="graph" transform="scale(1 1) rotate(0) translate(4 142)">
<title>G</title>
<polygon fill="white" stroke="white" points="-4,5 -4,-142 337,-142 337,5 -4,5"/>
<!-- Node1 -->
<g id="node1" class="node"><title>Node1</title>
<polygon fill="#bfbfbf" stroke="black" points="0,-52 0,-86 148,-86 148,-52 0,-52"/>
<text text-anchor="start" x="8" y="-73" font-family="Helvetica,sans-Serif" font-size="10.00">ZendDbSchema_Tool_Project</text>
<text text-anchor="middle" x="74" y="-60" font-family="Helvetica,sans-Serif" font-size="10.00">_Provider_Schema\_bootstrap</text>
</g>
<!-- Node2 -->
<g id="node3" class="node"><title>Node2</title>
<a xlink:href="classZendDbSchema__Tool__Project__Provider__Schema.html#a5f0f3101bb7b9e252f6d6bed1ddadbe5" target="_top" xlink:title="ZendDbSchema_Tool_Project\l_Provider_Schema\\pull">
<polygon fill="white" stroke="black" points="184.5,-104 184.5,-138 331.5,-138 331.5,-104 184.5,-104"/>
<text text-anchor="start" x="192.5" y="-125" font-family="Helvetica,sans-Serif" font-size="10.00">ZendDbSchema_Tool_Project</text>
<text text-anchor="middle" x="258" y="-112" font-family="Helvetica,sans-Serif" font-size="10.00">_Provider_Schema\pull</text>
</a>
</g>
<!-- Node1&#45;&gt;Node2 -->
<g id="edge2" class="edge"><title>Node1&#45;&gt;Node2</title>
<path fill="none" stroke="midnightblue" d="M143.934,-88.764C161.615,-93.7608 180.451,-99.0841 197.616,-103.935"/>
<polygon fill="midnightblue" stroke="midnightblue" points="144.823,-85.3783 134.248,-86.0267 142.92,-92.1145 144.823,-85.3783"/>
</g>
<!-- Node3 -->
<g id="node5" class="node"><title>Node3</title>
<a xlink:href="classZendDbSchema__Tool__Project__Provider__Schema.html#aa7746bd0ed044ad415b1b7b884f7a007" target="_top" xlink:title="ZendDbSchema_Tool_Project\l_Provider_Schema\\push">
<polygon fill="white" stroke="black" points="184.5,-52 184.5,-86 331.5,-86 331.5,-52 184.5,-52"/>
<text text-anchor="start" x="192.5" y="-73" font-family="Helvetica,sans-Serif" font-size="10.00">ZendDbSchema_Tool_Project</text>
<text text-anchor="middle" x="258" y="-60" font-family="Helvetica,sans-Serif" font-size="10.00">_Provider_Schema\push</text>
</a>
</g>
<!-- Node1&#45;&gt;Node3 -->
<g id="edge4" class="edge"><title>Node1&#45;&gt;Node3</title>
<path fill="none" stroke="midnightblue" d="M158.237,-69C166.972,-69 175.801,-69 184.406,-69"/>
<polygon fill="midnightblue" stroke="midnightblue" points="158.045,-65.5001 148.044,-69 158.044,-72.5001 158.045,-65.5001"/>
</g>
<!-- Node4 -->
<g id="node7" class="node"><title>Node4</title>
<a xlink:href="classZendDbSchema__Tool__Project__Provider__Schema.html#a5741419511310dc38038399e9f4ac5e1" target="_top" xlink:title="ZendDbSchema_Tool_Project\l_Provider_Schema\\status">
<polygon fill="white" stroke="black" points="184.5,-0 184.5,-34 331.5,-34 331.5,-0 184.5,-0"/>
<text text-anchor="start" x="192.5" y="-21" font-family="Helvetica,sans-Serif" font-size="10.00">ZendDbSchema_Tool_Project</text>
<text text-anchor="middle" x="258" y="-8" font-family="Helvetica,sans-Serif" font-size="10.00">_Provider_Schema\status</text>
</a>
</g>
<!-- Node1&#45;&gt;Node4 -->
<g id="edge6" class="edge"><title>Node1&#45;&gt;Node4</title>
<path fill="none" stroke="midnightblue" d="M143.934,-49.236C161.615,-44.2392 180.451,-38.9159 197.616,-34.065"/>
<polygon fill="midnightblue" stroke="midnightblue" points="142.92,-45.8855 134.248,-51.9733 144.823,-52.6217 142.92,-45.8855"/>
</g>
</g>
</svg>
