<?xml version="1.0" encoding="UTF-8" standalone="no"?>
<!DOCTYPE svg PUBLIC "-//W3C//DTD SVG 1.1//EN"
 "http://www.w3.org/Graphics/SVG/1.1/DTD/svg11.dtd">
<!-- Generated by graphviz version 2.26.3 (20100126.1600)
 -->
<!-- Title: G Pages: 1 -->
<svg width="916pt" height="832pt"
 viewBox="0.00 0.00 916.00 832.00" xmlns="http://www.w3.org/2000/svg" xmlns:xlink="http://www.w3.org/1999/xlink">
<g id="graph1" class="graph" transform="scale(1 1) rotate(0) translate(4 828)">
<title>G</title>
<polygon fill="white" stroke="white" points="-4,5 -4,-828 913,-828 913,5 -4,5"/>
<!-- Node1 -->
<g id="node1" class="node"><title>Node1</title>
<polygon fill="#bfbfbf" stroke="black" points="0.5,-415 0.5,-449 163.5,-449 163.5,-415 0.5,-415"/>
<text text-anchor="start" x="8.5" y="-436" font-family="Helvetica,sans-Serif" font-size="10.00">ZendDbSchema_Db_Schema</text>
<text text-anchor="middle" x="82" y="-423" font-family="Helvetica,sans-Serif" font-size="10.00">_AbstractSchema\getOriginName</text>
</g>
<!-- Node2 -->
<g id="node3" class="node"><title>Node2</title>
<a xlink:href="classZendDbSchema__Db__Schema__Database.html#aad388b374fd5913946204230760b2d86" target="_top" xlink:title="ZendDbSchema_Db_Schema\l_Database\\_doReload">
<polygon fill="white" stroke="black" points="200,-790 200,-824 346,-824 346,-790 200,-790"/>
<text text-anchor="start" x="208" y="-811" font-family="Helvetica,sans-Serif" font-size="10.00">ZendDbSchema_Db_Schema</text>
<text text-anchor="middle" x="273" y="-798" font-family="Helvetica,sans-Serif" font-size="10.00">_Database\_doReload</text>
</a>
</g>
<!-- Node1&#45;&gt;Node2 -->
<g id="edge2" class="edge"><title>Node1&#45;&gt;Node2</title>
<path fill="none" stroke="midnightblue" d="M83.4187,-459.456C88.2394,-524.373 109.248,-688.774 200,-781 203.303,-784.356 207.067,-787.281 211.104,-789.829"/>
<polygon fill="midnightblue" stroke="midnightblue" points="86.8938,-458.965 82.7342,-449.221 79.9094,-459.433 86.8938,-458.965"/>
</g>
<!-- Node3 -->
<g id="node5" class="node"><title>Node3</title>
<a xlink:href="classZendDbSchema__Db__Schema__Table.html#abc05b1f219611fefdd0e9eaeff1761d9" target="_top" xlink:title="ZendDbSchema_Db_Schema\l_Table\\_doReload">
<polygon fill="white" stroke="black" points="200,-738 200,-772 346,-772 346,-738 200,-738"/>
<text text-anchor="start" x="208" y="-759" font-family="Helvetica,sans-Serif" font-size="10.00">ZendDbSchema_Db_Schema</text>
<text text-anchor="middle" x="273" y="-746" font-family="Helvetica,sans-Serif" font-size="10.00">_Table\_doReload</text>
</a>
</g>
<!-- Node1&#45;&gt;Node3 -->
<g id="edge4" class="edge"><title>Node1&#45;&gt;Node3</title>
<path fill="none" stroke="midnightblue" d="M85.2818,-459.297C93.6524,-517.11 121.031,-652.826 200,-729 203.486,-732.362 207.435,-735.293 211.648,-737.848"/>
<polygon fill="midnightblue" stroke="midnightblue" points="88.7138,-458.561 83.8916,-449.127 81.7783,-459.509 88.7138,-458.561"/>
</g>
<!-- Node4 -->
<g id="node7" class="node"><title>Node4</title>
<a xlink:href="classZendDbSchema__Db__Schema__Table__AbstractDefinition.html#a355febe0ff6ed1a3b95ae1edd91b807e" target="_top" xlink:title="ZendDbSchema_Db_Schema\l_Table_AbstractDefinition\l\\_getCleanSchema">
<polygon fill="white" stroke="black" points="200,-672.5 200,-719.5 346,-719.5 346,-672.5 200,-672.5"/>
<text text-anchor="start" x="208" y="-706.5" font-family="Helvetica,sans-Serif" font-size="10.00">ZendDbSchema_Db_Schema</text>
<text text-anchor="start" x="208" y="-693.5" font-family="Helvetica,sans-Serif" font-size="10.00">_Table_AbstractDefinition</text>
<text text-anchor="middle" x="273" y="-680.5" font-family="Helvetica,sans-Serif" font-size="10.00">\_getCleanSchema</text>
</a>
</g>
<!-- Node1&#45;&gt;Node4 -->
<g id="edge6" class="edge"><title>Node1&#45;&gt;Node4</title>
<path fill="none" stroke="midnightblue" d="M89.3156,-458.974C103.367,-506.151 138.335,-604.209 200,-663 203.624,-666.455 207.672,-669.591 211.954,-672.429"/>
<polygon fill="midnightblue" stroke="midnightblue" points="92.6243,-457.816 86.4839,-449.182 85.8998,-459.761 92.6243,-457.816"/>
</g>
<!-- Node5 -->
<g id="node9" class="node"><title>Node5</title>
<a xlink:href="classZendDbSchema__Db__Schema__Table__DefinitionManager__AbstractManager.html#a6d815884ca03c003ac7f8d633e97f7c6" target="_top" xlink:title="ZendDbSchema_Db_Schema\l_Table_DefinitionManager\l_AbstractManager\\add">
<polygon fill="white" stroke="black" points="200,-606.5 200,-653.5 346,-653.5 346,-606.5 200,-606.5"/>
<text text-anchor="start" x="208" y="-640.5" font-family="Helvetica,sans-Serif" font-size="10.00">ZendDbSchema_Db_Schema</text>
<text text-anchor="start" x="208" y="-627.5" font-family="Helvetica,sans-Serif" font-size="10.00">_Table_DefinitionManager</text>
<text text-anchor="middle" x="273" y="-614.5" font-family="Helvetica,sans-Serif" font-size="10.00">_AbstractManager\add</text>
</a>
</g>
<!-- Node1&#45;&gt;Node5 -->
<g id="edge8" class="edge"><title>Node1&#45;&gt;Node5</title>
<path fill="none" stroke="midnightblue" d="M95.1982,-458.497C114.104,-494.137 151.976,-557.584 200,-597 204.193,-600.441 208.802,-603.6 213.604,-606.482"/>
<polygon fill="midnightblue" stroke="midnightblue" points="98.0954,-456.482 90.376,-449.225 91.8851,-459.712 98.0954,-456.482"/>
</g>
<!-- Node9 -->
<g id="node17" class="node"><title>Node9</title>
<a xlink:href="classZendDbSchema__Db__Schema__Generator__Pgsql__Table.html#a3365ef877cee87ce2f038f4476256a94" target="_top" xlink:title="ZendDbSchema_Db_Schema\l_Generator_Pgsql_Table\l\\addForeignKey">
<polygon fill="white" stroke="black" points="200,-474.5 200,-521.5 346,-521.5 346,-474.5 200,-474.5"/>
<text text-anchor="start" x="208" y="-508.5" font-family="Helvetica,sans-Serif" font-size="10.00">ZendDbSchema_Db_Schema</text>
<text text-anchor="start" x="208" y="-495.5" font-family="Helvetica,sans-Serif" font-size="10.00">_Generator_Pgsql_Table</text>
<text text-anchor="middle" x="273" y="-482.5" font-family="Helvetica,sans-Serif" font-size="10.00">\addForeignKey</text>
</a>
</g>
<!-- Node1&#45;&gt;Node9 -->
<g id="edge16" class="edge"><title>Node1&#45;&gt;Node9</title>
<path fill="none" stroke="midnightblue" d="M141.344,-452.506C161.473,-459.462 184.115,-467.286 204.872,-474.459"/>
<polygon fill="midnightblue" stroke="midnightblue" points="142.279,-449.126 131.684,-449.168 139.993,-455.743 142.279,-449.126"/>
</g>
<!-- Node11 -->
<g id="node21" class="node"><title>Node11</title>
<a xlink:href="classZendDbSchema__Db__Schema__Generator__Mysql__Table.html#ab0e8de60124040b8a92e5c9f3e2d63d0" target="_top" xlink:title="ZendDbSchema_Db_Schema\l_Generator_Mysql_Table\l\\addForeignKey">
<polygon fill="white" stroke="black" points="200,-144.5 200,-191.5 346,-191.5 346,-144.5 200,-144.5"/>
<text text-anchor="start" x="208" y="-178.5" font-family="Helvetica,sans-Serif" font-size="10.00">ZendDbSchema_Db_Schema</text>
<text text-anchor="start" x="208" y="-165.5" font-family="Helvetica,sans-Serif" font-size="10.00">_Generator_Mysql_Table</text>
<text text-anchor="middle" x="273" y="-152.5" font-family="Helvetica,sans-Serif" font-size="10.00">\addForeignKey</text>
</a>
</g>
<!-- Node1&#45;&gt;Node11 -->
<g id="edge20" class="edge"><title>Node1&#45;&gt;Node11</title>
<path fill="none" stroke="midnightblue" d="M89.3156,-405.026C103.367,-357.849 138.335,-259.791 200,-201 203.624,-197.545 207.672,-194.409 211.954,-191.571"/>
<polygon fill="midnightblue" stroke="midnightblue" points="85.8998,-404.239 86.4839,-414.818 92.6243,-406.184 85.8998,-404.239"/>
</g>
<!-- Node13 -->
<g id="node25" class="node"><title>Node13</title>
<a xlink:href="classZendDbSchema__Db__Schema__Generator__Pgsql__Table.html#a2530efde9e464bbbcfbd166c622023d0" target="_top" xlink:title="ZendDbSchema_Db_Schema\l_Generator_Pgsql_Table\l\\alterColumn">
<polygon fill="white" stroke="black" points="200,-408.5 200,-455.5 346,-455.5 346,-408.5 200,-408.5"/>
<text text-anchor="start" x="208" y="-442.5" font-family="Helvetica,sans-Serif" font-size="10.00">ZendDbSchema_Db_Schema</text>
<text text-anchor="start" x="208" y="-429.5" font-family="Helvetica,sans-Serif" font-size="10.00">_Generator_Pgsql_Table</text>
<text text-anchor="middle" x="273" y="-416.5" font-family="Helvetica,sans-Serif" font-size="10.00">\alterColumn</text>
</a>
</g>
<!-- Node1&#45;&gt;Node13 -->
<g id="edge24" class="edge"><title>Node1&#45;&gt;Node13</title>
<path fill="none" stroke="midnightblue" d="M173.79,-432C182.54,-432 191.331,-432 199.87,-432"/>
<polygon fill="midnightblue" stroke="midnightblue" points="173.555,-428.5 163.555,-432 173.555,-435.5 173.555,-428.5"/>
</g>
<!-- Node14 -->
<g id="node27" class="node"><title>Node14</title>
<a xlink:href="classZendDbSchema__Db__Schema__Generator__Mysql__Table.html#aa8814727b4633316559e8865c62d9146" target="_top" xlink:title="ZendDbSchema_Db_Schema\l_Generator_Mysql_Table\l\\alterColumn">
<polygon fill="white" stroke="black" points="200,-342.5 200,-389.5 346,-389.5 346,-342.5 200,-342.5"/>
<text text-anchor="start" x="208" y="-376.5" font-family="Helvetica,sans-Serif" font-size="10.00">ZendDbSchema_Db_Schema</text>
<text text-anchor="start" x="208" y="-363.5" font-family="Helvetica,sans-Serif" font-size="10.00">_Generator_Mysql_Table</text>
<text text-anchor="middle" x="273" y="-350.5" font-family="Helvetica,sans-Serif" font-size="10.00">\alterColumn</text>
</a>
</g>
<!-- Node1&#45;&gt;Node14 -->
<g id="edge26" class="edge"><title>Node1&#45;&gt;Node14</title>
<path fill="none" stroke="midnightblue" d="M141.344,-411.494C161.473,-404.538 184.115,-396.714 204.872,-389.541"/>
<polygon fill="midnightblue" stroke="midnightblue" points="139.993,-408.257 131.684,-414.832 142.279,-414.874 139.993,-408.257"/>
</g>
<!-- Node15 -->
<g id="node29" class="node"><title>Node15</title>
<a xlink:href="classZendDbSchema__Db__Schema__Generator__Mysql__Table.html#ab073dc755f15a13bd94772846df4249c" target="_top" xlink:title="ZendDbSchema_Db_Schema\l_Generator_Mysql_Table\l\\alterTable">
<polygon fill="white" stroke="black" points="200,-276.5 200,-323.5 346,-323.5 346,-276.5 200,-276.5"/>
<text text-anchor="start" x="208" y="-310.5" font-family="Helvetica,sans-Serif" font-size="10.00">ZendDbSchema_Db_Schema</text>
<text text-anchor="start" x="208" y="-297.5" font-family="Helvetica,sans-Serif" font-size="10.00">_Generator_Mysql_Table</text>
<text text-anchor="middle" x="273" y="-284.5" font-family="Helvetica,sans-Serif" font-size="10.00">\alterTable</text>
</a>
</g>
<!-- Node1&#45;&gt;Node15 -->
<g id="edge28" class="edge"><title>Node1&#45;&gt;Node15</title>
<path fill="none" stroke="midnightblue" d="M106.73,-407.756C129.583,-386.237 165.169,-354.901 200,-333 205.298,-329.668 210.99,-326.489 216.772,-323.51"/>
<polygon fill="midnightblue" stroke="midnightblue" points="104.028,-405.495 99.1997,-414.926 108.855,-410.565 104.028,-405.495"/>
</g>
<!-- Node16 -->
<g id="node31" class="node"><title>Node16</title>
<a xlink:href="classZendDbSchema__Db__Schema__Generator__Pgsql__Table.html#a5273ef7520b31135bc524b432754762d" target="_top" xlink:title="ZendDbSchema_Db_Schema\l_Generator_Pgsql_Table\l\\alterTable">
<polygon fill="white" stroke="black" points="200,-210.5 200,-257.5 346,-257.5 346,-210.5 200,-210.5"/>
<text text-anchor="start" x="208" y="-244.5" font-family="Helvetica,sans-Serif" font-size="10.00">ZendDbSchema_Db_Schema</text>
<text text-anchor="start" x="208" y="-231.5" font-family="Helvetica,sans-Serif" font-size="10.00">_Generator_Pgsql_Table</text>
<text text-anchor="middle" x="273" y="-218.5" font-family="Helvetica,sans-Serif" font-size="10.00">\alterTable</text>
</a>
</g>
<!-- Node1&#45;&gt;Node16 -->
<g id="edge30" class="edge"><title>Node1&#45;&gt;Node16</title>
<path fill="none" stroke="midnightblue" d="M95.1982,-405.503C114.104,-369.863 151.976,-306.416 200,-267 204.193,-263.559 208.802,-260.4 213.604,-257.518"/>
<polygon fill="midnightblue" stroke="midnightblue" points="91.8851,-404.288 90.376,-414.775 98.0954,-407.518 91.8851,-404.288"/>
</g>
<!-- Node17 -->
<g id="node33" class="node"><title>Node17</title>
<a xlink:href="classZendDbSchema__Db__Schema__Generator__Pgsql__Table.html#aab407f272f8993d722e31c277ce0f974" target="_top" xlink:title="ZendDbSchema_Db_Schema\l_Generator_Pgsql_Table\l\\dropForeignKey">
<polygon fill="white" stroke="black" points="200,-540.5 200,-587.5 346,-587.5 346,-540.5 200,-540.5"/>
<text text-anchor="start" x="208" y="-574.5" font-family="Helvetica,sans-Serif" font-size="10.00">ZendDbSchema_Db_Schema</text>
<text text-anchor="start" x="208" y="-561.5" font-family="Helvetica,sans-Serif" font-size="10.00">_Generator_Pgsql_Table</text>
<text text-anchor="middle" x="273" y="-548.5" font-family="Helvetica,sans-Serif" font-size="10.00">\dropForeignKey</text>
</a>
</g>
<!-- Node1&#45;&gt;Node17 -->
<g id="edge32" class="edge"><title>Node1&#45;&gt;Node17</title>
<path fill="none" stroke="midnightblue" d="M106.73,-456.244C129.583,-477.763 165.169,-509.099 200,-531 205.298,-534.332 210.99,-537.511 216.772,-540.49"/>
<polygon fill="midnightblue" stroke="midnightblue" points="108.855,-453.435 99.1997,-449.074 104.028,-458.505 108.855,-453.435"/>
</g>
<!-- Node18 -->
<g id="node36" class="node"><title>Node18</title>
<a xlink:href="classZendDbSchema__Db__Schema__Generator__Mysql__Table.html#aa5d8bf2e4379b7acc7bcd57ea36e23ba" target="_top" xlink:title="ZendDbSchema_Db_Schema\l_Generator_Mysql_Table\l\\dropForeignKey">
<polygon fill="white" stroke="black" points="200,-78.5 200,-125.5 346,-125.5 346,-78.5 200,-78.5"/>
<text text-anchor="start" x="208" y="-112.5" font-family="Helvetica,sans-Serif" font-size="10.00">ZendDbSchema_Db_Schema</text>
<text text-anchor="start" x="208" y="-99.5" font-family="Helvetica,sans-Serif" font-size="10.00">_Generator_Mysql_Table</text>
<text text-anchor="middle" x="273" y="-86.5" font-family="Helvetica,sans-Serif" font-size="10.00">\dropForeignKey</text>
</a>
</g>
<!-- Node1&#45;&gt;Node18 -->
<g id="edge36" class="edge"><title>Node1&#45;&gt;Node18</title>
<path fill="none" stroke="midnightblue" d="M85.8463,-404.791C95.2493,-347.704 124.416,-214.174 200,-135 203.265,-131.58 206.951,-128.486 210.888,-125.692"/>
<polygon fill="midnightblue" stroke="midnightblue" points="82.3619,-404.419 84.2675,-414.841 89.2771,-405.506 82.3619,-404.419"/>
</g>
<!-- Node19 -->
<g id="node39" class="node"><title>Node19</title>
<a xlink:href="classZendDbSchema__Db__Schema__AbstractEntity.html#aa35a80275bd3c811dd8ad39835a985a9" target="_top" xlink:title="ZendDbSchema_Db_Schema\l_AbstractEntity\\reload">
<polygon fill="white" stroke="black" points="200,-26 200,-60 346,-60 346,-26 200,-26"/>
<text text-anchor="start" x="208" y="-47" font-family="Helvetica,sans-Serif" font-size="10.00">ZendDbSchema_Db_Schema</text>
<text text-anchor="middle" x="273" y="-34" font-family="Helvetica,sans-Serif" font-size="10.00">_AbstractEntity\reload</text>
</a>
</g>
<!-- Node1&#45;&gt;Node19 -->
<g id="edge40" class="edge"><title>Node1&#45;&gt;Node19</title>
<path fill="none" stroke="midnightblue" d="M87.651,-404.517C103.745,-328.64 151.782,-118.581 200,-69 203.283,-65.6244 207.033,-62.6858 211.06,-60.1278"/>
<polygon fill="midnightblue" stroke="midnightblue" points="84.1418,-404.198 85.5119,-414.703 90.9924,-405.636 84.1418,-404.198"/>
</g>
<!-- Node6 -->
<g id="node11" class="node"><title>Node6</title>
<a xlink:href="classZendDbSchema__Db__Schema__Table__DefinitionManager__AbstractManager.html#a40677ee7cb91e19c1587bdda9e73d3d5" target="_top" xlink:title="ZendDbSchema_Db_Schema\l_Table_DefinitionManager\l_AbstractManager\\setFromArray">
<polygon fill="white" stroke="black" points="382,-606.5 382,-653.5 540,-653.5 540,-606.5 382,-606.5"/>
<text text-anchor="start" x="390" y="-640.5" font-family="Helvetica,sans-Serif" font-size="10.00">ZendDbSchema_Db_Schema</text>
<text text-anchor="start" x="390" y="-627.5" font-family="Helvetica,sans-Serif" font-size="10.00">_Table_DefinitionManager</text>
<text text-anchor="middle" x="461" y="-614.5" font-family="Helvetica,sans-Serif" font-size="10.00">_AbstractManager\setFromArray</text>
</a>
</g>
<!-- Node5&#45;&gt;Node6 -->
<g id="edge10" class="edge"><title>Node5&#45;&gt;Node6</title>
<path fill="none" stroke="midnightblue" d="M356.421,-630C364.842,-630 373.378,-630 381.754,-630"/>
<polygon fill="midnightblue" stroke="midnightblue" points="356.224,-626.5 346.224,-630 356.224,-633.5 356.224,-626.5"/>
</g>
<!-- Node7 -->
<g id="node13" class="node"><title>Node7</title>
<a xlink:href="classZendDbSchema__Db__Schema__Table__DefinitionManager__AbstractManager.html#a7503e344823c2a1e1e3beb80b8541116" target="_top" xlink:title="ZendDbSchema_Db_Schema\l_Table_DefinitionManager\l_AbstractManager\\refresh">
<polygon fill="white" stroke="black" points="576,-606.5 576,-653.5 722,-653.5 722,-606.5 576,-606.5"/>
<text text-anchor="start" x="584" y="-640.5" font-family="Helvetica,sans-Serif" font-size="10.00">ZendDbSchema_Db_Schema</text>
<text text-anchor="start" x="584" y="-627.5" font-family="Helvetica,sans-Serif" font-size="10.00">_Table_DefinitionManager</text>
<text text-anchor="middle" x="649" y="-614.5" font-family="Helvetica,sans-Serif" font-size="10.00">_AbstractManager\refresh</text>
</a>
</g>
<!-- Node6&#45;&gt;Node7 -->
<g id="edge12" class="edge"><title>Node6&#45;&gt;Node7</title>
<path fill="none" stroke="midnightblue" d="M550.234,-630C558.831,-630 567.481,-630 575.896,-630"/>
<polygon fill="midnightblue" stroke="midnightblue" points="550.184,-626.5 540.184,-630 550.184,-633.5 550.184,-626.5"/>
</g>
<!-- Node8 -->
<g id="node15" class="node"><title>Node8</title>
<a xlink:href="classZendDbSchema__Db__Schema__Table__DefinitionManager__AbstractManager.html#a5cf66698784c55ebbd70292e268505af" target="_top" xlink:title="ZendDbSchema_Db_Schema\l_Table_DefinitionManager\l_AbstractManager\\__construct">
<polygon fill="white" stroke="black" points="758,-606.5 758,-653.5 908,-653.5 908,-606.5 758,-606.5"/>
<text text-anchor="start" x="766" y="-640.5" font-family="Helvetica,sans-Serif" font-size="10.00">ZendDbSchema_Db_Schema</text>
<text text-anchor="start" x="766" y="-627.5" font-family="Helvetica,sans-Serif" font-size="10.00">_Table_DefinitionManager</text>
<text text-anchor="middle" x="833" y="-614.5" font-family="Helvetica,sans-Serif" font-size="10.00">_AbstractManager\__construct</text>
</a>
</g>
<!-- Node7&#45;&gt;Node8 -->
<g id="edge14" class="edge"><title>Node7&#45;&gt;Node8</title>
<path fill="none" stroke="midnightblue" d="M732.505,-630C740.968,-630 749.527,-630 757.894,-630"/>
<polygon fill="midnightblue" stroke="midnightblue" points="732.25,-626.5 722.25,-630 732.25,-633.5 732.25,-626.5"/>
</g>
<!-- Node10 -->
<g id="node19" class="node"><title>Node10</title>
<a xlink:href="classZendDbSchema__Db__Schema__Generator__Pgsql__Table.html#af690e11fe350fcc7da00de979233e2b5" target="_top" xlink:title="ZendDbSchema_Db_Schema\l_Generator_Pgsql_Table\l\\alterForeignKey">
<polygon fill="white" stroke="black" points="388,-507.5 388,-554.5 534,-554.5 534,-507.5 388,-507.5"/>
<text text-anchor="start" x="396" y="-541.5" font-family="Helvetica,sans-Serif" font-size="10.00">ZendDbSchema_Db_Schema</text>
<text text-anchor="start" x="396" y="-528.5" font-family="Helvetica,sans-Serif" font-size="10.00">_Generator_Pgsql_Table</text>
<text text-anchor="middle" x="461" y="-515.5" font-family="Helvetica,sans-Serif" font-size="10.00">\alterForeignKey</text>
</a>
</g>
<!-- Node9&#45;&gt;Node10 -->
<g id="edge18" class="edge"><title>Node9&#45;&gt;Node10</title>
<path fill="none" stroke="midnightblue" d="M356.278,-512.618C366.842,-514.472 377.589,-516.359 387.976,-518.182"/>
<polygon fill="midnightblue" stroke="midnightblue" points="356.679,-509.135 346.224,-510.853 355.468,-516.029 356.679,-509.135"/>
</g>
<!-- Node12 -->
<g id="node23" class="node"><title>Node12</title>
<a xlink:href="classZendDbSchema__Db__Schema__Generator__Mysql__Table.html#a3b806bcbce70989120035d56ee12071c" target="_top" xlink:title="ZendDbSchema_Db_Schema\l_Generator_Mysql_Table\l\\alterForeignKey">
<polygon fill="white" stroke="black" points="388,-137.5 388,-184.5 534,-184.5 534,-137.5 388,-137.5"/>
<text text-anchor="start" x="396" y="-171.5" font-family="Helvetica,sans-Serif" font-size="10.00">ZendDbSchema_Db_Schema</text>
<text text-anchor="start" x="396" y="-158.5" font-family="Helvetica,sans-Serif" font-size="10.00">_Generator_Mysql_Table</text>
<text text-anchor="middle" x="461" y="-145.5" font-family="Helvetica,sans-Serif" font-size="10.00">\alterForeignKey</text>
</a>
</g>
<!-- Node11&#45;&gt;Node12 -->
<g id="edge22" class="edge"><title>Node11&#45;&gt;Node12</title>
<path fill="none" stroke="midnightblue" d="M356.278,-164.899C366.842,-164.506 377.589,-164.106 387.976,-163.719"/>
<polygon fill="midnightblue" stroke="midnightblue" points="356.087,-161.404 346.224,-165.274 356.347,-168.399 356.087,-161.404"/>
</g>
<!-- Node17&#45;&gt;Node10 -->
<g id="edge34" class="edge"><title>Node17&#45;&gt;Node10</title>
<path fill="none" stroke="midnightblue" d="M356.278,-549.382C366.842,-547.528 377.589,-545.641 387.976,-543.818"/>
<polygon fill="midnightblue" stroke="midnightblue" points="355.468,-545.971 346.224,-551.147 356.679,-552.865 355.468,-545.971"/>
</g>
<!-- Node18&#45;&gt;Node12 -->
<g id="edge38" class="edge"><title>Node18&#45;&gt;Node12</title>
<path fill="none" stroke="midnightblue" d="M355.952,-128.033C366.621,-131.381 377.482,-134.79 387.976,-138.083"/>
<polygon fill="midnightblue" stroke="midnightblue" points="356.813,-124.635 346.224,-124.98 354.717,-131.314 356.813,-124.635"/>
</g>
<!-- Node20 -->
<g id="node41" class="node"><title>Node20</title>
<a xlink:href="classZendDbSchema__Db__Schema__AbstractEntity.html#ad92ca2449257a587b336367f109cdde2" target="_top" xlink:title="ZendDbSchema_Db_Schema\l_AbstractEntity\\__wakeup">
<polygon fill="white" stroke="black" points="388,-0 388,-34 534,-34 534,-0 388,-0"/>
<text text-anchor="start" x="396" y="-21" font-family="Helvetica,sans-Serif" font-size="10.00">ZendDbSchema_Db_Schema</text>
<text text-anchor="middle" x="461" y="-8" font-family="Helvetica,sans-Serif" font-size="10.00">_AbstractEntity\__wakeup</text>
</a>
</g>
<!-- Node19&#45;&gt;Node20 -->
<g id="edge42" class="edge"><title>Node19&#45;&gt;Node20</title>
<path fill="none" stroke="midnightblue" d="M356.278,-31.4828C366.842,-30.0218 377.589,-28.5356 387.976,-27.0991"/>
<polygon fill="midnightblue" stroke="midnightblue" points="355.65,-28.0362 346.224,-32.8733 356.609,-34.9702 355.65,-28.0362"/>
</g>
<!-- Node21 -->
<g id="node43" class="node"><title>Node21</title>
<a xlink:href="classZendDbSchema__Db__Schema__AbstractEntity.html#abee9675e11d86dace1abed3d94a0fda1" target="_top" xlink:title="ZendDbSchema_Db_Schema\l_AbstractEntity\\refresh">
<polygon fill="white" stroke="black" points="388,-52 388,-86 534,-86 534,-52 388,-52"/>
<text text-anchor="start" x="396" y="-73" font-family="Helvetica,sans-Serif" font-size="10.00">ZendDbSchema_Db_Schema</text>
<text text-anchor="middle" x="461" y="-60" font-family="Helvetica,sans-Serif" font-size="10.00">_AbstractEntity\refresh</text>
</a>
</g>
<!-- Node19&#45;&gt;Node21 -->
<g id="edge44" class="edge"><title>Node19&#45;&gt;Node21</title>
<path fill="none" stroke="midnightblue" d="M356.278,-54.5172C366.842,-55.9782 377.589,-57.4644 387.976,-58.9009"/>
<polygon fill="midnightblue" stroke="midnightblue" points="356.609,-51.0298 346.224,-53.1267 355.65,-57.9638 356.609,-51.0298"/>
</g>
<!-- Node22 -->
<g id="node45" class="node"><title>Node22</title>
<a xlink:href="classZendDbSchema__Db__Schema__AbstractEntity.html#a26fcff2268495fcdbfa265f394ee93d9" target="_top" xlink:title="ZendDbSchema_Db_Schema\l_AbstractEntity\\delete">
<polygon fill="white" stroke="black" points="576,-26 576,-60 722,-60 722,-26 576,-26"/>
<text text-anchor="start" x="584" y="-47" font-family="Helvetica,sans-Serif" font-size="10.00">ZendDbSchema_Db_Schema</text>
<text text-anchor="middle" x="649" y="-34" font-family="Helvetica,sans-Serif" font-size="10.00">_AbstractEntity\delete</text>
</a>
</g>
<!-- Node21&#45;&gt;Node22 -->
<g id="edge46" class="edge"><title>Node21&#45;&gt;Node22</title>
<path fill="none" stroke="midnightblue" d="M544.278,-57.4828C554.842,-56.0218 565.589,-54.5356 575.976,-53.0991"/>
<polygon fill="midnightblue" stroke="midnightblue" points="543.65,-54.0362 534.224,-58.8733 544.609,-60.9702 543.65,-54.0362"/>
</g>
<!-- Node23 -->
<g id="node47" class="node"><title>Node23</title>
<a xlink:href="classZendDbSchema__Db__Schema__AbstractEntity.html#a5b1c93da76c3708f90d330b4643e55b2" target="_top" xlink:title="ZendDbSchema_Db_Schema\l_AbstractEntity\\save">
<polygon fill="white" stroke="black" points="576,-78 576,-112 722,-112 722,-78 576,-78"/>
<text text-anchor="start" x="584" y="-99" font-family="Helvetica,sans-Serif" font-size="10.00">ZendDbSchema_Db_Schema</text>
<text text-anchor="middle" x="649" y="-86" font-family="Helvetica,sans-Serif" font-size="10.00">_AbstractEntity\save</text>
</a>
</g>
<!-- Node21&#45;&gt;Node23 -->
<g id="edge48" class="edge"><title>Node21&#45;&gt;Node23</title>
<path fill="none" stroke="midnightblue" d="M544.278,-80.5172C554.842,-81.9782 565.589,-83.4644 575.976,-84.9009"/>
<polygon fill="midnightblue" stroke="midnightblue" points="544.609,-77.0298 534.224,-79.1267 543.65,-83.9638 544.609,-77.0298"/>
</g>
</g>
</svg>
