<?xml version="1.0" encoding="UTF-8" standalone="no"?>
<!DOCTYPE svg PUBLIC "-//W3C//DTD SVG 1.1//EN"
 "http://www.w3.org/Graphics/SVG/1.1/DTD/svg11.dtd">
<!-- Generated by graphviz version 2.26.3 (20100126.1600)
 -->
<!-- Title: G Pages: 1 -->
<svg width="1612pt" height="176pt"
 viewBox="0.00 0.00 1612.00 176.13" xmlns="http://www.w3.org/2000/svg" xmlns:xlink="http://www.w3.org/1999/xlink">
<g id="graph1" class="graph" transform="scale(1 1) rotate(0) translate(4 172.125)">
<title>G</title>
<polygon fill="white" stroke="white" points="-4,5 -4,-172.125 1609,-172.125 1609,5 -4,5"/>
<!-- Node1 -->
<g id="node1" class="node"><title>Node1</title>
<polygon fill="#bfbfbf" stroke="black" points="0.5,-109.5 0.5,-130.5 329.5,-130.5 329.5,-109.5 0.5,-109.5"/>
<text text-anchor="middle" x="165" y="-117.5" font-family="Helvetica,sans-Serif" font-size="10.00">ZendDbSchema_Db_Schema_Generator_Mysql\generateColumnCreate</text>
</g>
<!-- Node2 -->
<g id="node3" class="node"><title>Node2</title>
<a xlink:href="classZendDbSchema__Db__Schema__AbstractSchema.html#a55787c21deddba427842809d589c2df6" target="_top" xlink:title="ZendDbSchema_Db_Schema_AbstractSchema\\getName">
<polygon fill="white" stroke="black" points="392.5,-139.5 392.5,-160.5 659.5,-160.5 659.5,-139.5 392.5,-139.5"/>
<text text-anchor="middle" x="526" y="-147.5" font-family="Helvetica,sans-Serif" font-size="10.00">ZendDbSchema_Db_Schema_AbstractSchema\getName</text>
</a>
</g>
<!-- Node1&#45;&gt;Node2 -->
<g id="edge2" class="edge"><title>Node1&#45;&gt;Node2</title>
<path fill="none" stroke="midnightblue" d="M291.514,-130.514C323.058,-133.135 357.024,-135.958 389.046,-138.619"/>
<polygon fill="midnightblue" stroke="midnightblue" points="389.114,-142.136 399.369,-139.477 389.694,-135.16 389.114,-142.136"/>
</g>
<!-- Node5 -->
<g id="node9" class="node"><title>Node5</title>
<a xlink:href="classZendDbSchema__Db__Schema__Generator__Mysql.html#a821999152ed945432417614dffc3a3e2" target="_top" xlink:title="ZendDbSchema_Db_Schema_Generator_Mysql\\_generateColumnSql">
<polygon fill="white" stroke="black" points="366,-80.5 366,-101.5 686,-101.5 686,-80.5 366,-80.5"/>
<text text-anchor="middle" x="526" y="-88.5" font-family="Helvetica,sans-Serif" font-size="10.00">ZendDbSchema_Db_Schema_Generator_Mysql\_generateColumnSql</text>
</a>
</g>
<!-- Node1&#45;&gt;Node5 -->
<g id="edge8" class="edge"><title>Node1&#45;&gt;Node5</title>
<path fill="none" stroke="midnightblue" d="M295.84,-109.489C324.72,-107.169 355.439,-104.702 384.712,-102.35"/>
<polygon fill="midnightblue" stroke="midnightblue" points="385.313,-105.813 395.001,-101.523 384.753,-98.8356 385.313,-105.813"/>
</g>
<!-- Node3 -->
<g id="node5" class="node"><title>Node3</title>
<a xlink:href="classZendDbSchema__Db__Schema__AbstractSchema.html#a54d32c6f15463eaad2321a9f0e7225d7" target="_top" xlink:title="ZendDbSchema_Db_Schema_AbstractSchema\\__get">
<polygon fill="white" stroke="black" points="1056.5,-80.5 1056.5,-101.5 1307.5,-101.5 1307.5,-80.5 1056.5,-80.5"/>
<text text-anchor="middle" x="1182" y="-88.5" font-family="Helvetica,sans-Serif" font-size="10.00">ZendDbSchema_Db_Schema_AbstractSchema\__get</text>
</a>
</g>
<!-- Node2&#45;&gt;Node3 -->
<g id="edge4" class="edge"><title>Node2&#45;&gt;Node3</title>
<path fill="none" stroke="midnightblue" d="M625.322,-160.53C725.729,-168.766 884.93,-175.209 1020,-151 1067.76,-142.44 1119.84,-120.741 1151.72,-105.925"/>
<polygon fill="midnightblue" stroke="midnightblue" points="1153.39,-109.007 1160.94,-101.57 1150.4,-102.678 1153.39,-109.007"/>
</g>
<!-- Node4 -->
<g id="node7" class="node"><title>Node4</title>
<a xlink:href="classZendDbSchema__Db__Schema__AbstractSchema.html#ac4e121ba7932163eb1950fabe06fb9db" target="_top" xlink:title="ZendDbSchema_Db_Schema_AbstractSchema\\__isset">
<polygon fill="white" stroke="black" points="1344.5,-80.5 1344.5,-101.5 1603.5,-101.5 1603.5,-80.5 1344.5,-80.5"/>
<text text-anchor="middle" x="1474" y="-88.5" font-family="Helvetica,sans-Serif" font-size="10.00">ZendDbSchema_Db_Schema_AbstractSchema\__isset</text>
</a>
</g>
<!-- Node3&#45;&gt;Node4 -->
<g id="edge6" class="edge"><title>Node3&#45;&gt;Node4</title>
<path fill="none" stroke="midnightblue" d="M1307.53,-91C1316.4,-91 1325.38,-91 1334.32,-91"/>
<polygon fill="midnightblue" stroke="midnightblue" points="1334.4,-94.5001 1344.4,-91 1334.4,-87.5001 1334.4,-94.5001"/>
</g>
<!-- Node6 -->
<g id="node11" class="node"><title>Node6</title>
<a xlink:href="classZendDbSchema__Db__Schema__Table__AbstractDefinition.html#a630d65e68b1bb78943849de330e499e1" target="_top" xlink:title="ZendDbSchema_Db_Schema_Table_AbstractDefinition\\getType">
<polygon fill="white" stroke="black" points="722.5,-120.5 722.5,-141.5 1019.5,-141.5 1019.5,-120.5 722.5,-120.5"/>
<text text-anchor="middle" x="871" y="-128.5" font-family="Helvetica,sans-Serif" font-size="10.00">ZendDbSchema_Db_Schema_Table_AbstractDefinition\getType</text>
</a>
</g>
<!-- Node5&#45;&gt;Node6 -->
<g id="edge10" class="edge"><title>Node5&#45;&gt;Node6</title>
<path fill="none" stroke="midnightblue" d="M616.645,-101.51C663.8,-106.977 721.58,-113.676 770.146,-119.307"/>
<polygon fill="midnightblue" stroke="midnightblue" points="770.026,-122.816 780.362,-120.491 770.832,-115.863 770.026,-122.816"/>
</g>
<!-- Node7 -->
<g id="node14" class="node"><title>Node7</title>
<a xlink:href="classZendDbSchema__Db__Schema__Table__Column.html#aeeed5820cfc4fac67507a196e9faa638" target="_top" xlink:title="ZendDbSchema_Db_Schema_Table_Column\\isNullable">
<polygon fill="white" stroke="black" points="741,-80.5 741,-101.5 1001,-101.5 1001,-80.5 741,-80.5"/>
<text text-anchor="middle" x="871" y="-88.5" font-family="Helvetica,sans-Serif" font-size="10.00">ZendDbSchema_Db_Schema_Table_Column\isNullable</text>
</a>
</g>
<!-- Node5&#45;&gt;Node7 -->
<g id="edge14" class="edge"><title>Node5&#45;&gt;Node7</title>
<path fill="none" stroke="midnightblue" d="M686.128,-91C701.009,-91 716.015,-91 730.697,-91"/>
<polygon fill="midnightblue" stroke="midnightblue" points="730.805,-94.5001 740.805,-91 730.805,-87.5001 730.805,-94.5001"/>
</g>
<!-- Node8 -->
<g id="node17" class="node"><title>Node8</title>
<a xlink:href="classZendDbSchema__Db__Schema__Table__Column.html#aabe1381ba00be20407eb641a32e51820" target="_top" xlink:title="ZendDbSchema_Db_Schema_Table_Column\\getDefault">
<polygon fill="white" stroke="black" points="739.5,-40.5 739.5,-61.5 1002.5,-61.5 1002.5,-40.5 739.5,-40.5"/>
<text text-anchor="middle" x="871" y="-48.5" font-family="Helvetica,sans-Serif" font-size="10.00">ZendDbSchema_Db_Schema_Table_Column\getDefault</text>
</a>
</g>
<!-- Node5&#45;&gt;Node8 -->
<g id="edge18" class="edge"><title>Node5&#45;&gt;Node8</title>
<path fill="none" stroke="midnightblue" d="M616.645,-80.4905C663.8,-75.0231 721.58,-68.324 770.146,-62.6932"/>
<polygon fill="midnightblue" stroke="midnightblue" points="770.832,-66.1372 780.362,-61.5087 770.026,-59.1838 770.832,-66.1372"/>
</g>
<!-- Node9 -->
<g id="node20" class="node"><title>Node9</title>
<a xlink:href="classZendDbSchema__Db__Schema__Table__Column.html#a49887d783c47fa509e229ca61dd113ef" target="_top" xlink:title="ZendDbSchema_Db_Schema_Table_Column\\isSigned">
<polygon fill="white" stroke="black" points="743.5,-0.5 743.5,-21.5 998.5,-21.5 998.5,-0.5 743.5,-0.5"/>
<text text-anchor="middle" x="871" y="-8.5" font-family="Helvetica,sans-Serif" font-size="10.00">ZendDbSchema_Db_Schema_Table_Column\isSigned</text>
</a>
</g>
<!-- Node5&#45;&gt;Node9 -->
<g id="edge22" class="edge"><title>Node5&#45;&gt;Node9</title>
<path fill="none" stroke="midnightblue" d="M555.154,-80.4311C593.096,-67.0592 661.682,-44.1875 722,-31 735.777,-27.9879 750.375,-25.3564 764.835,-23.0789"/>
<polygon fill="midnightblue" stroke="midnightblue" points="765.454,-26.5252 774.812,-21.5585 764.399,-19.6051 765.454,-26.5252"/>
</g>
<!-- Node6&#45;&gt;Node3 -->
<g id="edge12" class="edge"><title>Node6&#45;&gt;Node3</title>
<path fill="none" stroke="midnightblue" d="M952.712,-120.49C994.953,-115.057 1046.65,-108.408 1090.26,-102.799"/>
<polygon fill="midnightblue" stroke="midnightblue" points="1090.82,-106.256 1100.29,-101.509 1089.93,-99.3131 1090.82,-106.256"/>
</g>
<!-- Node7&#45;&gt;Node3 -->
<g id="edge16" class="edge"><title>Node7&#45;&gt;Node3</title>
<path fill="none" stroke="midnightblue" d="M1001.09,-91C1015.97,-91 1031.16,-91 1046.11,-91"/>
<polygon fill="midnightblue" stroke="midnightblue" points="1046.41,-94.5001 1056.41,-91 1046.41,-87.5001 1046.41,-94.5001"/>
</g>
<!-- Node8&#45;&gt;Node3 -->
<g id="edge20" class="edge"><title>Node8&#45;&gt;Node3</title>
<path fill="none" stroke="midnightblue" d="M952.712,-61.5095C994.953,-66.9425 1046.65,-73.5919 1090.26,-79.2006"/>
<polygon fill="midnightblue" stroke="midnightblue" points="1089.93,-82.6869 1100.29,-80.4913 1090.82,-75.7441 1089.93,-82.6869"/>
</g>
<!-- Node9&#45;&gt;Node3 -->
<g id="edge24" class="edge"><title>Node9&#45;&gt;Node3</title>
<path fill="none" stroke="midnightblue" d="M972.16,-21.5008C988.275,-24.0549 1004.68,-27.1842 1020,-31 1066.02,-42.4615 1117.01,-62.6585 1149.26,-76.4249"/>
<polygon fill="midnightblue" stroke="midnightblue" points="1148.07,-79.7247 1158.64,-80.474 1150.84,-73.2978 1148.07,-79.7247"/>
</g>
</g>
</svg>
