<?xml version="1.0" encoding="UTF-8" standalone="no"?>
<!DOCTYPE svg PUBLIC "-//W3C//DTD SVG 1.1//EN"
 "http://www.w3.org/Graphics/SVG/1.1/DTD/svg11.dtd">
<!-- Generated by graphviz version 2.26.3 (20100126.1600)
 -->
<!-- Title: G Pages: 1 -->
<svg width="918pt" height="70pt"
 viewBox="0.00 0.00 918.00 70.00" xmlns="http://www.w3.org/2000/svg" xmlns:xlink="http://www.w3.org/1999/xlink">
<g id="graph1" class="graph" transform="scale(1 1) rotate(0) translate(4 66)">
<title>G</title>
<polygon fill="white" stroke="white" points="-4,5 -4,-66 915,-66 915,5 -4,5"/>
<!-- Node1 -->
<g id="node1" class="node"><title>Node1</title>
<polygon fill="#bfbfbf" stroke="black" points="0.5,-20.5 0.5,-41.5 263.5,-41.5 263.5,-20.5 0.5,-20.5"/>
<text text-anchor="middle" x="132" y="-28.5" font-family="Helvetica,sans-Serif" font-size="10.00">ZendDbSchema_Tool_Project_Provider_Migration\create</text>
</g>
<!-- Node2 -->
<g id="node3" class="node"><title>Node2</title>
<a xlink:href="classZendDbSchema__Tool__Project__Provider__Migration.html#a01f328a7b171f989907b86ab88a070df" target="_top" xlink:title="ZendDbSchema_Tool_Project_Provider_Migration\\createResource">
<polygon fill="white" stroke="black" points="300.5,-20.5 300.5,-41.5 605.5,-41.5 605.5,-20.5 300.5,-20.5"/>
<text text-anchor="middle" x="453" y="-28.5" font-family="Helvetica,sans-Serif" font-size="10.00">ZendDbSchema_Tool_Project_Provider_Migration\createResource</text>
</a>
</g>
<!-- Node1&#45;&gt;Node2 -->
<g id="edge2" class="edge"><title>Node1&#45;&gt;Node2</title>
<path fill="none" stroke="midnightblue" d="M263.953,-31C272.591,-31 281.343,-31 290.104,-31"/>
<polygon fill="midnightblue" stroke="midnightblue" points="290.388,-34.5001 300.388,-31 290.387,-27.5001 290.388,-34.5001"/>
</g>
<!-- Node3 -->
<g id="node5" class="node"><title>Node3</title>
<a xlink:href="classZendDbSchema__Db__Migration__Skeleton.html#a51234b84a2f9886f3e08d63519a6eb9d" target="_top" xlink:title="ZendDbSchema_Db_Migration_Skeleton\\generateVersion">
<polygon fill="white" stroke="black" points="642.5,-40.5 642.5,-61.5 909.5,-61.5 909.5,-40.5 642.5,-40.5"/>
<text text-anchor="middle" x="776" y="-48.5" font-family="Helvetica,sans-Serif" font-size="10.00">ZendDbSchema_Db_Migration_Skeleton\generateVersion</text>
</a>
</g>
<!-- Node2&#45;&gt;Node3 -->
<g id="edge4" class="edge"><title>Node2&#45;&gt;Node3</title>
<path fill="none" stroke="midnightblue" d="M605.514,-40.4436C614.32,-40.9888 623.16,-41.5363 631.932,-42.0794"/>
<polygon fill="midnightblue" stroke="midnightblue" points="631.994,-45.5898 642.191,-42.7146 632.426,-38.6032 631.994,-45.5898"/>
</g>
<!-- Node4 -->
<g id="node7" class="node"><title>Node4</title>
<a xlink:href="classZendDbSchema__Db__Migration__Skeleton.html#a1dabe0c3a95ba3b2f0a479ff1eee3351" target="_top" xlink:title="ZendDbSchema_Db_Migration_Skeleton\\getFilename">
<polygon fill="white" stroke="black" points="651,-0.5 651,-21.5 901,-21.5 901,-0.5 651,-0.5"/>
<text text-anchor="middle" x="776" y="-8.5" font-family="Helvetica,sans-Serif" font-size="10.00">ZendDbSchema_Db_Migration_Skeleton\getFilename</text>
</a>
</g>
<!-- Node2&#45;&gt;Node4 -->
<g id="edge6" class="edge"><title>Node2&#45;&gt;Node4</title>
<path fill="none" stroke="midnightblue" d="M605.514,-21.5564C617.264,-20.8289 629.076,-20.0974 640.703,-19.3775"/>
<polygon fill="midnightblue" stroke="midnightblue" points="641.102,-22.8596 650.866,-18.7482 640.669,-15.873 641.102,-22.8596"/>
</g>
</g>
</svg>
