<?xml version="1.0" encoding="UTF-8" standalone="no"?>
<!DOCTYPE svg PUBLIC "-//W3C//DTD SVG 1.1//EN"
 "http://www.w3.org/Graphics/SVG/1.1/DTD/svg11.dtd">
<!-- Generated by graphviz version 2.26.3 (20100126.1600)
 -->
<!-- Title: G Pages: 1 -->
<svg width="2192pt" height="148pt"
 viewBox="0.00 0.00 2192.00 148.00" xmlns="http://www.w3.org/2000/svg" xmlns:xlink="http://www.w3.org/1999/xlink">
<g id="graph1" class="graph" transform="scale(1 1) rotate(0) translate(4 144)">
<title>G</title>
<polygon fill="white" stroke="white" points="-4,5 -4,-144 2189,-144 2189,5 -4,5"/>
<!-- Node1 -->
<g id="node1" class="node"><title>Node1</title>
<polygon fill="#bfbfbf" stroke="black" points="0.5,-79.5 0.5,-100.5 299.5,-100.5 299.5,-79.5 0.5,-79.5"/>
<text text-anchor="middle" x="150" y="-87.5" font-family="Helvetica,sans-Serif" font-size="10.00">ZendDbSchema_Db_Schema_Table_ForeignKey\addRefColumn</text>
</g>
<!-- Node2 -->
<g id="node3" class="node"><title>Node2</title>
<a xlink:href="classZendDbSchema__Db__Schema__Table__ForeignKey.html#aee976a90aff6a23580c6bbd11baf2ec0" target="_top" xlink:title="ZendDbSchema_Db_Schema_Table_ForeignKey\\hasRefColumn">
<polygon fill="white" stroke="black" points="336.5,-79.5 336.5,-100.5 635.5,-100.5 635.5,-79.5 336.5,-79.5"/>
<text text-anchor="middle" x="486" y="-87.5" font-family="Helvetica,sans-Serif" font-size="10.00">ZendDbSchema_Db_Schema_Table_ForeignKey\hasRefColumn</text>
</a>
</g>
<!-- Node1&#45;&gt;Node2 -->
<g id="edge2" class="edge"><title>Node1&#45;&gt;Node2</title>
<path fill="none" stroke="midnightblue" d="M299.821,-90C308.563,-90 317.371,-90 326.149,-90"/>
<polygon fill="midnightblue" stroke="midnightblue" points="326.435,-93.5001 336.435,-90 326.435,-86.5001 326.435,-93.5001"/>
</g>
<!-- Node4 -->
<g id="node7" class="node"><title>Node4</title>
<a xlink:href="classZendDbSchema__Db__Schema__AbstractSchema.html#ab4282a1fd6f4d9f23d01de8328072c71" target="_top" xlink:title="ZendDbSchema_Db_Schema_AbstractSchema\\__set">
<polygon fill="white" stroke="black" points="672.5,-40.5 672.5,-61.5 923.5,-61.5 923.5,-40.5 672.5,-40.5"/>
<text text-anchor="middle" x="798" y="-48.5" font-family="Helvetica,sans-Serif" font-size="10.00">ZendDbSchema_Db_Schema_AbstractSchema\__set</text>
</a>
</g>
<!-- Node1&#45;&gt;Node4 -->
<g id="edge26" class="edge"><title>Node1&#45;&gt;Node4</title>
<path fill="none" stroke="midnightblue" d="M236.947,-79.4499C268.145,-75.9825 303.611,-72.4047 336,-70 445.572,-61.8649 570.04,-56.9975 662.156,-54.2291"/>
<polygon fill="midnightblue" stroke="midnightblue" points="662.484,-57.721 672.376,-53.9265 662.277,-50.724 662.484,-57.721"/>
</g>
<!-- Node11 -->
<g id="node21" class="node"><title>Node11</title>
<a xlink:href="classZendDbSchema__Db__Schema__AbstractSchema.html#a54d32c6f15463eaad2321a9f0e7225d7" target="_top" xlink:title="ZendDbSchema_Db_Schema_AbstractSchema\\__get">
<polygon fill="white" stroke="black" points="672.5,-118.5 672.5,-139.5 923.5,-139.5 923.5,-118.5 672.5,-118.5"/>
<text text-anchor="middle" x="798" y="-126.5" font-family="Helvetica,sans-Serif" font-size="10.00">ZendDbSchema_Db_Schema_AbstractSchema\__get</text>
</a>
</g>
<!-- Node1&#45;&gt;Node11 -->
<g id="edge24" class="edge"><title>Node1&#45;&gt;Node11</title>
<path fill="none" stroke="midnightblue" d="M236.947,-100.55C268.145,-104.018 303.611,-107.595 336,-110 445.572,-118.135 570.04,-123.003 662.156,-125.771"/>
<polygon fill="midnightblue" stroke="midnightblue" points="662.277,-129.276 672.376,-126.073 662.484,-122.279 662.277,-129.276"/>
</g>
<!-- Node3 -->
<g id="node5" class="node"><title>Node3</title>
<a xlink:href="classZendDbSchema__Db__Schema__AbstractSchema.html#ac4e121ba7932163eb1950fabe06fb9db" target="_top" xlink:title="ZendDbSchema_Db_Schema_AbstractSchema\\__isset">
<polygon fill="white" stroke="black" points="970.5,-99.5 970.5,-120.5 1229.5,-120.5 1229.5,-99.5 970.5,-99.5"/>
<text text-anchor="middle" x="1100" y="-107.5" font-family="Helvetica,sans-Serif" font-size="10.00">ZendDbSchema_Db_Schema_AbstractSchema\__isset</text>
</a>
</g>
<!-- Node2&#45;&gt;Node3 -->
<g id="edge4" class="edge"><title>Node2&#45;&gt;Node3</title>
<path fill="none" stroke="midnightblue" d="M635.809,-94.8798C734.725,-98.1018 863.458,-102.295 960.258,-105.448"/>
<polygon fill="midnightblue" stroke="midnightblue" points="960.304,-108.951 970.413,-105.779 960.532,-101.955 960.304,-108.951"/>
</g>
<!-- Node2&#45;&gt;Node4 -->
<g id="edge6" class="edge"><title>Node2&#45;&gt;Node4</title>
<path fill="none" stroke="midnightblue" d="M570.021,-79.4974C611.292,-74.3384 661.173,-68.1034 703.741,-62.7824"/>
<polygon fill="midnightblue" stroke="midnightblue" points="704.341,-66.2347 713.829,-61.5213 703.472,-59.2888 704.341,-66.2347"/>
</g>
<!-- Node2&#45;&gt;Node11 -->
<g id="edge20" class="edge"><title>Node2&#45;&gt;Node11</title>
<path fill="none" stroke="midnightblue" d="M570.021,-100.503C611.292,-105.662 661.173,-111.897 703.741,-117.218"/>
<polygon fill="midnightblue" stroke="midnightblue" points="703.472,-120.711 713.829,-118.479 704.341,-113.765 703.472,-120.711"/>
</g>
<!-- Node5 -->
<g id="node9" class="node"><title>Node5</title>
<a xlink:href="classZendDbSchema__Db__Schema__AbstractSchema.html#afda46eab0c365f4c9a743b7185c51d6c" target="_top" xlink:title="ZendDbSchema_Db_Schema_AbstractSchema\\getValidator">
<polygon fill="white" stroke="black" points="960.5,-40.5 960.5,-61.5 1239.5,-61.5 1239.5,-40.5 960.5,-40.5"/>
<text text-anchor="middle" x="1100" y="-48.5" font-family="Helvetica,sans-Serif" font-size="10.00">ZendDbSchema_Db_Schema_AbstractSchema\getValidator</text>
</a>
</g>
<!-- Node4&#45;&gt;Node5 -->
<g id="edge8" class="edge"><title>Node4&#45;&gt;Node5</title>
<path fill="none" stroke="midnightblue" d="M923.888,-51C932.497,-51 941.217,-51 949.933,-51"/>
<polygon fill="midnightblue" stroke="midnightblue" points="950.156,-54.5001 960.156,-51 950.156,-47.5001 950.156,-54.5001"/>
</g>
<!-- Node6 -->
<g id="node11" class="node"><title>Node6</title>
<a xlink:href="classZendDbSchema__Db__Schema__AbstractSchema.html#a47d95912f6bf6d26d023597887dafacb" target="_top" xlink:title="ZendDbSchema_Db_Schema_AbstractSchema\\getAdapter">
<polygon fill="white" stroke="black" points="1276.5,-40.5 1276.5,-61.5 1551.5,-61.5 1551.5,-40.5 1276.5,-40.5"/>
<text text-anchor="middle" x="1414" y="-48.5" font-family="Helvetica,sans-Serif" font-size="10.00">ZendDbSchema_Db_Schema_AbstractSchema\getAdapter</text>
</a>
</g>
<!-- Node5&#45;&gt;Node6 -->
<g id="edge10" class="edge"><title>Node5&#45;&gt;Node6</title>
<path fill="none" stroke="midnightblue" d="M1239.55,-51C1248.27,-51 1257.05,-51 1265.8,-51"/>
<polygon fill="midnightblue" stroke="midnightblue" points="1266.04,-54.5001 1276.04,-51 1266.04,-47.5001 1266.04,-54.5001"/>
</g>
<!-- Node7 -->
<g id="node13" class="node"><title>Node7</title>
<a xlink:href="classZendDbSchema__Db__Schema__AbstractSchema.html#a6349649e5e09d67a5b5e0abe96298db8" target="_top" xlink:title="ZendDbSchema_Db_Schema_AbstractSchema\\setAdapter">
<polygon fill="white" stroke="black" points="1588.5,-40.5 1588.5,-61.5 1863.5,-61.5 1863.5,-40.5 1588.5,-40.5"/>
<text text-anchor="middle" x="1726" y="-48.5" font-family="Helvetica,sans-Serif" font-size="10.00">ZendDbSchema_Db_Schema_AbstractSchema\setAdapter</text>
</a>
</g>
<!-- Node6&#45;&gt;Node7 -->
<g id="edge12" class="edge"><title>Node6&#45;&gt;Node7</title>
<path fill="none" stroke="midnightblue" d="M1551.76,-51C1560.44,-51 1569.2,-51 1577.92,-51"/>
<polygon fill="midnightblue" stroke="midnightblue" points="1578.14,-54.5001 1588.14,-51 1578.14,-47.5001 1578.14,-54.5001"/>
</g>
<!-- Node8 -->
<g id="node15" class="node"><title>Node8</title>
<a xlink:href="classZendDbSchema__Db__Schema__AbstractSchema.html#a53a1974dbc8822792a8d7b9c618d3a02" target="_top" xlink:title="ZendDbSchema_Db_Schema_AbstractSchema\\setGenerator">
<polygon fill="white" stroke="black" points="1900,-80.5 1900,-101.5 2184,-101.5 2184,-80.5 1900,-80.5"/>
<text text-anchor="middle" x="2042" y="-88.5" font-family="Helvetica,sans-Serif" font-size="10.00">ZendDbSchema_Db_Schema_AbstractSchema\setGenerator</text>
</a>
</g>
<!-- Node7&#45;&gt;Node8 -->
<g id="edge14" class="edge"><title>Node7&#45;&gt;Node8</title>
<path fill="none" stroke="midnightblue" d="M1809.03,-61.5095C1851.95,-66.9425 1904.48,-73.5919 1948.78,-79.2006"/>
<polygon fill="midnightblue" stroke="midnightblue" points="1948.62,-82.7077 1958.98,-80.4913 1949.5,-75.7631 1948.62,-82.7077"/>
</g>
<!-- Node9 -->
<g id="node17" class="node"><title>Node9</title>
<a xlink:href="classZendDbSchema__Db__Schema__AbstractSchema.html#aa0e6c9f8d58702dc41d988f064f62698" target="_top" xlink:title="ZendDbSchema_Db_Schema_AbstractSchema\\setParser">
<polygon fill="white" stroke="black" points="1907.5,-40.5 1907.5,-61.5 2176.5,-61.5 2176.5,-40.5 1907.5,-40.5"/>
<text text-anchor="middle" x="2042" y="-48.5" font-family="Helvetica,sans-Serif" font-size="10.00">ZendDbSchema_Db_Schema_AbstractSchema\setParser</text>
</a>
</g>
<!-- Node7&#45;&gt;Node9 -->
<g id="edge16" class="edge"><title>Node7&#45;&gt;Node9</title>
<path fill="none" stroke="midnightblue" d="M1863.68,-51C1874.76,-51 1885.98,-51 1897.1,-51"/>
<polygon fill="midnightblue" stroke="midnightblue" points="1897.29,-54.5001 1907.29,-51 1897.29,-47.5001 1897.29,-54.5001"/>
</g>
<!-- Node10 -->
<g id="node19" class="node"><title>Node10</title>
<a xlink:href="classZendDbSchema__Db__Schema__AbstractSchema.html#ac0161e2c24dafba8433fb86205a147fe" target="_top" xlink:title="ZendDbSchema_Db_Schema_AbstractSchema\\setValidator">
<polygon fill="white" stroke="black" points="1902.5,-0.5 1902.5,-21.5 2181.5,-21.5 2181.5,-0.5 1902.5,-0.5"/>
<text text-anchor="middle" x="2042" y="-8.5" font-family="Helvetica,sans-Serif" font-size="10.00">ZendDbSchema_Db_Schema_AbstractSchema\setValidator</text>
</a>
</g>
<!-- Node7&#45;&gt;Node10 -->
<g id="edge18" class="edge"><title>Node7&#45;&gt;Node10</title>
<path fill="none" stroke="midnightblue" d="M1809.03,-40.4905C1851.95,-35.0575 1904.48,-28.4081 1948.78,-22.7994"/>
<polygon fill="midnightblue" stroke="midnightblue" points="1949.5,-26.2369 1958.98,-21.5087 1948.62,-19.2923 1949.5,-26.2369"/>
</g>
<!-- Node11&#45;&gt;Node3 -->
<g id="edge22" class="edge"><title>Node11&#45;&gt;Node3</title>
<path fill="none" stroke="midnightblue" d="M923.888,-121.08C935.9,-120.324 948.131,-119.555 960.263,-118.791"/>
<polygon fill="midnightblue" stroke="midnightblue" points="960.664,-122.273 970.425,-118.152 960.225,-115.287 960.664,-122.273"/>
</g>
</g>
</svg>
