<?xml version="1.0" encoding="UTF-8" standalone="no"?>
<!DOCTYPE svg PUBLIC "-//W3C//DTD SVG 1.1//EN"
 "http://www.w3.org/Graphics/SVG/1.1/DTD/svg11.dtd">
<!-- Generated by graphviz version 2.26.3 (20100126.1600)
 -->
<!-- Title: G Pages: 1 -->
<svg width="1470pt" height="70pt"
 viewBox="0.00 0.00 1470.00 70.00" xmlns="http://www.w3.org/2000/svg" xmlns:xlink="http://www.w3.org/1999/xlink">
<g id="graph1" class="graph" transform="scale(1 1) rotate(0) translate(4 66)">
<title>G</title>
<polygon fill="white" stroke="white" points="-4,5 -4,-66 1467,-66 1467,5 -4,5"/>
<!-- Node1 -->
<g id="node1" class="node"><title>Node1</title>
<polygon fill="#bfbfbf" stroke="black" points="0.5,-20.5 0.5,-41.5 243.5,-41.5 243.5,-20.5 0.5,-20.5"/>
<text text-anchor="middle" x="122" y="-28.5" font-family="Helvetica,sans-Serif" font-size="10.00">ZendDbSchema_Db_Schema_AbstractEntity\reload</text>
</g>
<!-- Node2 -->
<g id="node3" class="node"><title>Node2</title>
<a xlink:href="classZendDbSchema__Db__Schema__AbstractSchema.html#adacb1417b461310c5c87f72c459c1985" target="_top" xlink:title="ZendDbSchema_Db_Schema_AbstractSchema\\getOriginName">
<polygon fill="white" stroke="black" points="280.5,-40.5 280.5,-61.5 573.5,-61.5 573.5,-40.5 280.5,-40.5"/>
<text text-anchor="middle" x="427" y="-48.5" font-family="Helvetica,sans-Serif" font-size="10.00">ZendDbSchema_Db_Schema_AbstractSchema\getOriginName</text>
</a>
</g>
<!-- Node1&#45;&gt;Node2 -->
<g id="edge2" class="edge"><title>Node1&#45;&gt;Node2</title>
<path fill="none" stroke="midnightblue" d="M243.859,-38.9908C252.599,-39.5639 261.48,-40.1462 270.379,-40.7298"/>
<polygon fill="midnightblue" stroke="midnightblue" points="270.22,-44.2268 280.428,-41.3887 270.678,-37.2418 270.22,-44.2268"/>
</g>
<!-- Node6 -->
<g id="node11" class="node"><title>Node6</title>
<a xlink:href="classZendDbSchema__Db__Schema__AbstractEntity.html#ab317ba1e66cc14d78922314962f7d0ff" target="_top" xlink:title="ZendDbSchema_Db_Schema_AbstractEntity\\_doReload">
<polygon fill="white" stroke="black" points="295.5,-0.5 295.5,-21.5 558.5,-21.5 558.5,-0.5 295.5,-0.5"/>
<text text-anchor="middle" x="427" y="-8.5" font-family="Helvetica,sans-Serif" font-size="10.00">ZendDbSchema_Db_Schema_AbstractEntity\_doReload</text>
</a>
</g>
<!-- Node1&#45;&gt;Node6 -->
<g id="edge10" class="edge"><title>Node1&#45;&gt;Node6</title>
<path fill="none" stroke="midnightblue" d="M243.859,-23.0092C257.478,-22.1162 271.437,-21.2009 285.277,-20.2933"/>
<polygon fill="midnightblue" stroke="midnightblue" points="285.578,-23.7812 295.327,-19.6343 285.119,-16.7962 285.578,-23.7812"/>
</g>
<!-- Node3 -->
<g id="node5" class="node"><title>Node3</title>
<a xlink:href="classZendDbSchema__Db__Schema__AbstractSchema.html#a55787c21deddba427842809d589c2df6" target="_top" xlink:title="ZendDbSchema_Db_Schema_AbstractSchema\\getName">
<polygon fill="white" stroke="black" points="610.5,-40.5 610.5,-61.5 877.5,-61.5 877.5,-40.5 610.5,-40.5"/>
<text text-anchor="middle" x="744" y="-48.5" font-family="Helvetica,sans-Serif" font-size="10.00">ZendDbSchema_Db_Schema_AbstractSchema\getName</text>
</a>
</g>
<!-- Node2&#45;&gt;Node3 -->
<g id="edge4" class="edge"><title>Node2&#45;&gt;Node3</title>
<path fill="none" stroke="midnightblue" d="M573.9,-51C582.631,-51 591.408,-51 600.127,-51"/>
<polygon fill="midnightblue" stroke="midnightblue" points="600.327,-54.5001 610.327,-51 600.327,-47.5001 600.327,-54.5001"/>
</g>
<!-- Node4 -->
<g id="node7" class="node"><title>Node4</title>
<a xlink:href="classZendDbSchema__Db__Schema__AbstractSchema.html#a54d32c6f15463eaad2321a9f0e7225d7" target="_top" xlink:title="ZendDbSchema_Db_Schema_AbstractSchema\\__get">
<polygon fill="white" stroke="black" points="914.5,-40.5 914.5,-61.5 1165.5,-61.5 1165.5,-40.5 914.5,-40.5"/>
<text text-anchor="middle" x="1040" y="-48.5" font-family="Helvetica,sans-Serif" font-size="10.00">ZendDbSchema_Db_Schema_AbstractSchema\__get</text>
</a>
</g>
<!-- Node3&#45;&gt;Node4 -->
<g id="edge6" class="edge"><title>Node3&#45;&gt;Node4</title>
<path fill="none" stroke="midnightblue" d="M877.711,-51C886.411,-51 895.176,-51 903.887,-51"/>
<polygon fill="midnightblue" stroke="midnightblue" points="904.08,-54.5001 914.08,-51 904.08,-47.5001 904.08,-54.5001"/>
</g>
<!-- Node5 -->
<g id="node9" class="node"><title>Node5</title>
<a xlink:href="classZendDbSchema__Db__Schema__AbstractSchema.html#ac4e121ba7932163eb1950fabe06fb9db" target="_top" xlink:title="ZendDbSchema_Db_Schema_AbstractSchema\\__isset">
<polygon fill="white" stroke="black" points="1202.5,-40.5 1202.5,-61.5 1461.5,-61.5 1461.5,-40.5 1202.5,-40.5"/>
<text text-anchor="middle" x="1332" y="-48.5" font-family="Helvetica,sans-Serif" font-size="10.00">ZendDbSchema_Db_Schema_AbstractSchema\__isset</text>
</a>
</g>
<!-- Node4&#45;&gt;Node5 -->
<g id="edge8" class="edge"><title>Node4&#45;&gt;Node5</title>
<path fill="none" stroke="midnightblue" d="M1165.53,-51C1174.4,-51 1183.38,-51 1192.32,-51"/>
<polygon fill="midnightblue" stroke="midnightblue" points="1192.4,-54.5001 1202.4,-51 1192.4,-47.5001 1192.4,-54.5001"/>
</g>
</g>
</svg>
