<?xml version="1.0" encoding="UTF-8" standalone="no"?>
<!DOCTYPE svg PUBLIC "-//W3C//DTD SVG 1.1//EN"
 "http://www.w3.org/Graphics/SVG/1.1/DTD/svg11.dtd">
<!-- Generated by graphviz version 2.26.3 (20100126.1600)
 -->
<!-- Title: G Pages: 1 -->
<svg width="816pt" height="70pt"
 viewBox="0.00 0.00 816.00 70.00" xmlns="http://www.w3.org/2000/svg" xmlns:xlink="http://www.w3.org/1999/xlink">
<g id="graph1" class="graph" transform="scale(1 1) rotate(0) translate(4 66)">
<title>G</title>
<polygon fill="white" stroke="white" points="-4,5 -4,-66 813,-66 813,5 -4,5"/>
<!-- Node1 -->
<g id="node1" class="node"><title>Node1</title>
<polygon fill="#bfbfbf" stroke="black" points="0.5,-20.5 0.5,-41.5 227.5,-41.5 227.5,-20.5 0.5,-20.5"/>
<text text-anchor="middle" x="114" y="-28.5" font-family="Helvetica,sans-Serif" font-size="10.00">ZendDbSchema_Db_Migration_Change\fromFile</text>
</g>
<!-- Node2 -->
<g id="node3" class="node"><title>Node2</title>
<a xlink:href="classZendDbSchema__Db__Migration__Manager.html#a2450580273691865299544ba500e01b2" target="_top" xlink:title="ZendDbSchema_Db_Migration_Manager\\addChange">
<polygon fill="white" stroke="black" points="271.5,-40.5 271.5,-61.5 516.5,-61.5 516.5,-40.5 271.5,-40.5"/>
<text text-anchor="middle" x="394" y="-48.5" font-family="Helvetica,sans-Serif" font-size="10.00">ZendDbSchema_Db_Migration_Manager\addChange</text>
</a>
</g>
<!-- Node1&#45;&gt;Node2 -->
<g id="edge2" class="edge"><title>Node1&#45;&gt;Node2</title>
<path fill="none" stroke="midnightblue" d="M237.947,-39.8534C248.952,-40.6394 260.09,-41.435 271.086,-42.2204"/>
<polygon fill="midnightblue" stroke="midnightblue" points="238.111,-36.3562 227.887,-39.1348 237.612,-43.3384 238.111,-36.3562"/>
</g>
<!-- Node4 -->
<g id="node7" class="node"><title>Node4</title>
<a xlink:href="classZendDbSchema__Tool__Project__Provider__Migration.html#a655dfecdd97d178fe409092d1111416d" target="_top" xlink:title="ZendDbSchema_Tool_Project_Provider_Migration\\show">
<polygon fill="white" stroke="black" points="264,-0.5 264,-21.5 524,-21.5 524,-0.5 264,-0.5"/>
<text text-anchor="middle" x="394" y="-8.5" font-family="Helvetica,sans-Serif" font-size="10.00">ZendDbSchema_Tool_Project_Provider_Migration\show</text>
</a>
</g>
<!-- Node1&#45;&gt;Node4 -->
<g id="edge6" class="edge"><title>Node1&#45;&gt;Node4</title>
<path fill="none" stroke="midnightblue" d="M237.904,-22.1497C246.476,-21.5374 255.13,-20.9193 263.734,-20.3047"/>
<polygon fill="midnightblue" stroke="midnightblue" points="237.612,-18.6616 227.887,-22.8652 238.111,-25.6438 237.612,-18.6616"/>
</g>
<!-- Node3 -->
<g id="node5" class="node"><title>Node3</title>
<a xlink:href="classZendDbSchema__Db__Migration__Manager.html#a5bc6e13f1d6ae95a759178d5342aa6ca" target="_top" xlink:title="ZendDbSchema_Db_Migration_Manager\\__construct">
<polygon fill="white" stroke="black" points="560.5,-40.5 560.5,-61.5 807.5,-61.5 807.5,-40.5 560.5,-40.5"/>
<text text-anchor="middle" x="684" y="-48.5" font-family="Helvetica,sans-Serif" font-size="10.00">ZendDbSchema_Db_Migration_Manager\__construct</text>
</a>
</g>
<!-- Node2&#45;&gt;Node3 -->
<g id="edge4" class="edge"><title>Node2&#45;&gt;Node3</title>
<path fill="none" stroke="midnightblue" d="M526.826,-51C538.036,-51 549.345,-51 560.48,-51"/>
<polygon fill="midnightblue" stroke="midnightblue" points="526.566,-47.5001 516.566,-51 526.566,-54.5001 526.566,-47.5001"/>
</g>
</g>
</svg>
