<?xml version="1.0" encoding="UTF-8" standalone="no"?>
<!DOCTYPE svg PUBLIC "-//W3C//DTD SVG 1.1//EN"
 "http://www.w3.org/Graphics/SVG/1.1/DTD/svg11.dtd">
<!-- Generated by graphviz version 2.26.3 (20100126.1600)
 -->
<!-- Title: G Pages: 1 -->
<svg width="1232pt" height="110pt"
 viewBox="0.00 0.00 1232.00 110.00" xmlns="http://www.w3.org/2000/svg" xmlns:xlink="http://www.w3.org/1999/xlink">
<g id="graph1" class="graph" transform="scale(1 1) rotate(0) translate(4 106)">
<title>G</title>
<polygon fill="white" stroke="white" points="-4,5 -4,-106 1229,-106 1229,5 -4,5"/>
<!-- Node1 -->
<g id="node1" class="node"><title>Node1</title>
<polygon fill="#bfbfbf" stroke="black" points="0.5,-40.5 0.5,-61.5 279.5,-61.5 279.5,-40.5 0.5,-40.5"/>
<text text-anchor="middle" x="140" y="-48.5" font-family="Helvetica,sans-Serif" font-size="10.00">ZendDbSchema_Db_Schema_AbstractSchema\getValidator</text>
</g>
<!-- Node2 -->
<g id="node3" class="node"><title>Node2</title>
<a xlink:href="classZendDbSchema__Db__Schema__AbstractSchema.html#a47d95912f6bf6d26d023597887dafacb" target="_top" xlink:title="ZendDbSchema_Db_Schema_AbstractSchema\\getAdapter">
<polygon fill="white" stroke="black" points="316.5,-40.5 316.5,-61.5 591.5,-61.5 591.5,-40.5 316.5,-40.5"/>
<text text-anchor="middle" x="454" y="-48.5" font-family="Helvetica,sans-Serif" font-size="10.00">ZendDbSchema_Db_Schema_AbstractSchema\getAdapter</text>
</a>
</g>
<!-- Node1&#45;&gt;Node2 -->
<g id="edge2" class="edge"><title>Node1&#45;&gt;Node2</title>
<path fill="none" stroke="midnightblue" d="M279.554,-51C288.265,-51 297.05,-51 305.797,-51"/>
<polygon fill="midnightblue" stroke="midnightblue" points="306.043,-54.5001 316.043,-51 306.043,-47.5001 306.043,-54.5001"/>
</g>
<!-- Node3 -->
<g id="node5" class="node"><title>Node3</title>
<a xlink:href="classZendDbSchema__Db__Schema__AbstractSchema.html#a6349649e5e09d67a5b5e0abe96298db8" target="_top" xlink:title="ZendDbSchema_Db_Schema_AbstractSchema\\setAdapter">
<polygon fill="white" stroke="black" points="628.5,-40.5 628.5,-61.5 903.5,-61.5 903.5,-40.5 628.5,-40.5"/>
<text text-anchor="middle" x="766" y="-48.5" font-family="Helvetica,sans-Serif" font-size="10.00">ZendDbSchema_Db_Schema_AbstractSchema\setAdapter</text>
</a>
</g>
<!-- Node2&#45;&gt;Node3 -->
<g id="edge4" class="edge"><title>Node2&#45;&gt;Node3</title>
<path fill="none" stroke="midnightblue" d="M591.756,-51C600.438,-51 609.197,-51 617.923,-51"/>
<polygon fill="midnightblue" stroke="midnightblue" points="618.145,-54.5001 628.145,-51 618.145,-47.5001 618.145,-54.5001"/>
</g>
<!-- Node4 -->
<g id="node7" class="node"><title>Node4</title>
<a xlink:href="classZendDbSchema__Db__Schema__AbstractSchema.html#a53a1974dbc8822792a8d7b9c618d3a02" target="_top" xlink:title="ZendDbSchema_Db_Schema_AbstractSchema\\setGenerator">
<polygon fill="white" stroke="black" points="940,-80.5 940,-101.5 1224,-101.5 1224,-80.5 940,-80.5"/>
<text text-anchor="middle" x="1082" y="-88.5" font-family="Helvetica,sans-Serif" font-size="10.00">ZendDbSchema_Db_Schema_AbstractSchema\setGenerator</text>
</a>
</g>
<!-- Node3&#45;&gt;Node4 -->
<g id="edge6" class="edge"><title>Node3&#45;&gt;Node4</title>
<path fill="none" stroke="midnightblue" d="M849.025,-61.5095C891.946,-66.9425 944.476,-73.5919 988.785,-79.2006"/>
<polygon fill="midnightblue" stroke="midnightblue" points="988.621,-82.7077 998.981,-80.4913 989.5,-75.7631 988.621,-82.7077"/>
</g>
<!-- Node5 -->
<g id="node9" class="node"><title>Node5</title>
<a xlink:href="classZendDbSchema__Db__Schema__AbstractSchema.html#aa0e6c9f8d58702dc41d988f064f62698" target="_top" xlink:title="ZendDbSchema_Db_Schema_AbstractSchema\\setParser">
<polygon fill="white" stroke="black" points="947.5,-40.5 947.5,-61.5 1216.5,-61.5 1216.5,-40.5 947.5,-40.5"/>
<text text-anchor="middle" x="1082" y="-48.5" font-family="Helvetica,sans-Serif" font-size="10.00">ZendDbSchema_Db_Schema_AbstractSchema\setParser</text>
</a>
</g>
<!-- Node3&#45;&gt;Node5 -->
<g id="edge8" class="edge"><title>Node3&#45;&gt;Node5</title>
<path fill="none" stroke="midnightblue" d="M903.683,-51C914.761,-51 925.975,-51 937.102,-51"/>
<polygon fill="midnightblue" stroke="midnightblue" points="937.289,-54.5001 947.289,-51 937.289,-47.5001 937.289,-54.5001"/>
</g>
<!-- Node6 -->
<g id="node11" class="node"><title>Node6</title>
<a xlink:href="classZendDbSchema__Db__Schema__AbstractSchema.html#ac0161e2c24dafba8433fb86205a147fe" target="_top" xlink:title="ZendDbSchema_Db_Schema_AbstractSchema\\setValidator">
<polygon fill="white" stroke="black" points="942.5,-0.5 942.5,-21.5 1221.5,-21.5 1221.5,-0.5 942.5,-0.5"/>
<text text-anchor="middle" x="1082" y="-8.5" font-family="Helvetica,sans-Serif" font-size="10.00">ZendDbSchema_Db_Schema_AbstractSchema\setValidator</text>
</a>
</g>
<!-- Node3&#45;&gt;Node6 -->
<g id="edge10" class="edge"><title>Node3&#45;&gt;Node6</title>
<path fill="none" stroke="midnightblue" d="M849.025,-40.4905C891.946,-35.0575 944.476,-28.4081 988.785,-22.7994"/>
<polygon fill="midnightblue" stroke="midnightblue" points="989.5,-26.2369 998.981,-21.5087 988.621,-19.2923 989.5,-26.2369"/>
</g>
</g>
</svg>
