<?xml version="1.0" encoding="UTF-8" standalone="no"?>
<!DOCTYPE svg PUBLIC "-//W3C//DTD SVG 1.1//EN"
 "http://www.w3.org/Graphics/SVG/1.1/DTD/svg11.dtd">
<!-- Generated by graphviz version 2.26.3 (20100126.1600)
 -->
<!-- Title: G Pages: 1 -->
<svg width="916pt" height="190pt"
 viewBox="0.00 0.00 916.00 190.00" xmlns="http://www.w3.org/2000/svg" xmlns:xlink="http://www.w3.org/1999/xlink">
<g id="graph1" class="graph" transform="scale(1 1) rotate(0) translate(4 186)">
<title>G</title>
<polygon fill="white" stroke="white" points="-4,5 -4,-186 913,-186 913,5 -4,5"/>
<!-- Node1 -->
<g id="node1" class="node"><title>Node1</title>
<polygon fill="#bfbfbf" stroke="black" points="0.5,-103 0.5,-137 155.5,-137 155.5,-103 0.5,-103"/>
<text text-anchor="start" x="8.5" y="-124" font-family="Helvetica,sans-Serif" font-size="10.00">ZendDbSchema_Db_Schema</text>
<text text-anchor="middle" x="78" y="-111" font-family="Helvetica,sans-Serif" font-size="10.00">_Table_PrimaryKey\addColumn</text>
</g>
<!-- Node2 -->
<g id="node3" class="node"><title>Node2</title>
<a xlink:href="classZendDbSchema__Db__Schema__Table__PrimaryKey.html#a97ed55c2479299d4e75e98154f12c409" target="_top" xlink:title="ZendDbSchema_Db_Schema\l_Table_PrimaryKey\\hasColumn">
<polygon fill="white" stroke="black" points="193.5,-148 193.5,-182 348.5,-182 348.5,-148 193.5,-148"/>
<text text-anchor="start" x="201.5" y="-169" font-family="Helvetica,sans-Serif" font-size="10.00">ZendDbSchema_Db_Schema</text>
<text text-anchor="middle" x="271" y="-156" font-family="Helvetica,sans-Serif" font-size="10.00">_Table_PrimaryKey\hasColumn</text>
</a>
</g>
<!-- Node1&#45;&gt;Node2 -->
<g id="edge2" class="edge"><title>Node1&#45;&gt;Node2</title>
<path fill="none" stroke="midnightblue" d="M150.965,-137.013C163.094,-139.841 175.751,-142.792 188.105,-145.672"/>
<polygon fill="midnightblue" stroke="midnightblue" points="187.398,-149.101 197.932,-147.963 188.988,-142.284 187.398,-149.101"/>
</g>
<!-- Node3 -->
<g id="node5" class="node"><title>Node3</title>
<a xlink:href="classZendDbSchema__Db__Schema__Table__PrimaryKey.html#a228207d6e07e3ab95b8b25415077a6a1" target="_top" xlink:title="ZendDbSchema_Db_Schema\l_Table_PrimaryKey\\getColumns">
<polygon fill="white" stroke="black" points="386,-140 386,-174 544,-174 544,-140 386,-140"/>
<text text-anchor="start" x="394" y="-161" font-family="Helvetica,sans-Serif" font-size="10.00">ZendDbSchema_Db_Schema</text>
<text text-anchor="middle" x="465" y="-148" font-family="Helvetica,sans-Serif" font-size="10.00">_Table_PrimaryKey\getColumns</text>
</a>
</g>
<!-- Node1&#45;&gt;Node3 -->
<g id="edge10" class="edge"><title>Node1&#45;&gt;Node3</title>
<path fill="none" stroke="midnightblue" d="M155.541,-123.65C210.046,-126.647 284.617,-131.613 350,-139 358.371,-139.946 367.065,-141.061 375.756,-142.265"/>
<polygon fill="midnightblue" stroke="midnightblue" points="375.542,-145.77 385.936,-143.715 376.529,-138.84 375.542,-145.77"/>
</g>
<!-- Node6 -->
<g id="node12" class="node"><title>Node6</title>
<a xlink:href="classZendDbSchema__Db__Schema__Table__PrimaryKey.html#a01cfcffd92c38bc521628d49d5c74927" target="_top" xlink:title="ZendDbSchema_Db_Schema\l_Table_PrimaryKey\\setColumns">
<polygon fill="white" stroke="black" points="192,-58 192,-92 350,-92 350,-58 192,-58"/>
<text text-anchor="start" x="200" y="-79" font-family="Helvetica,sans-Serif" font-size="10.00">ZendDbSchema_Db_Schema</text>
<text text-anchor="middle" x="271" y="-66" font-family="Helvetica,sans-Serif" font-size="10.00">_Table_PrimaryKey\setColumns</text>
</a>
</g>
<!-- Node1&#45;&gt;Node6 -->
<g id="edge12" class="edge"><title>Node1&#45;&gt;Node6</title>
<path fill="none" stroke="midnightblue" d="M150.965,-102.987C163.094,-100.159 175.751,-97.2082 188.105,-94.3278"/>
<polygon fill="midnightblue" stroke="midnightblue" points="188.988,-97.716 197.932,-92.0366 187.398,-90.8988 188.988,-97.716"/>
</g>
<!-- Node2&#45;&gt;Node3 -->
<g id="edge4" class="edge"><title>Node2&#45;&gt;Node3</title>
<path fill="none" stroke="midnightblue" d="M348.51,-161.804C357.405,-161.437 366.528,-161.061 375.564,-160.688"/>
<polygon fill="midnightblue" stroke="midnightblue" points="375.863,-164.179 385.71,-160.27 375.574,-157.185 375.863,-164.179"/>
</g>
<!-- Node4 -->
<g id="node7" class="node"><title>Node4</title>
<a xlink:href="classZendDbSchema__Db__Schema__AbstractSchema.html#a54d32c6f15463eaad2321a9f0e7225d7" target="_top" xlink:title="ZendDbSchema_Db_Schema\l_AbstractSchema\\__get">
<polygon fill="white" stroke="black" points="580,-140 580,-174 726,-174 726,-140 580,-140"/>
<text text-anchor="start" x="588" y="-161" font-family="Helvetica,sans-Serif" font-size="10.00">ZendDbSchema_Db_Schema</text>
<text text-anchor="middle" x="653" y="-148" font-family="Helvetica,sans-Serif" font-size="10.00">_AbstractSchema\__get</text>
</a>
</g>
<!-- Node3&#45;&gt;Node4 -->
<g id="edge6" class="edge"><title>Node3&#45;&gt;Node4</title>
<path fill="none" stroke="midnightblue" d="M544.184,-157C552.602,-157 561.183,-157 569.648,-157"/>
<polygon fill="midnightblue" stroke="midnightblue" points="569.896,-160.5 579.896,-157 569.896,-153.5 569.896,-160.5"/>
</g>
<!-- Node5 -->
<g id="node9" class="node"><title>Node5</title>
<a xlink:href="classZendDbSchema__Db__Schema__AbstractSchema.html#ac4e121ba7932163eb1950fabe06fb9db" target="_top" xlink:title="ZendDbSchema_Db_Schema\l_AbstractSchema\\__isset">
<polygon fill="white" stroke="black" points="762,-140 762,-174 908,-174 908,-140 762,-140"/>
<text text-anchor="start" x="770" y="-161" font-family="Helvetica,sans-Serif" font-size="10.00">ZendDbSchema_Db_Schema</text>
<text text-anchor="middle" x="835" y="-148" font-family="Helvetica,sans-Serif" font-size="10.00">_AbstractSchema\__isset</text>
</a>
</g>
<!-- Node4&#45;&gt;Node5 -->
<g id="edge8" class="edge"><title>Node4&#45;&gt;Node5</title>
<path fill="none" stroke="midnightblue" d="M726.24,-157C734.596,-157 743.161,-157 751.636,-157"/>
<polygon fill="midnightblue" stroke="midnightblue" points="751.91,-160.5 761.91,-157 751.91,-153.5 751.91,-160.5"/>
</g>
<!-- Node7 -->
<g id="node14" class="node"><title>Node7</title>
<a xlink:href="classZendDbSchema__Db__Schema__Table__AbstractDefinition.html#a65498451683b2cf8fd1dc65f7f03581d" target="_top" xlink:title="ZendDbSchema_Db_Schema\l_Table_AbstractDefinition\\__set">
<polygon fill="white" stroke="black" points="387,-58 387,-92 543,-92 543,-58 387,-58"/>
<text text-anchor="start" x="395" y="-79" font-family="Helvetica,sans-Serif" font-size="10.00">ZendDbSchema_Db_Schema</text>
<text text-anchor="middle" x="465" y="-66" font-family="Helvetica,sans-Serif" font-size="10.00">_Table_AbstractDefinition\__set</text>
</a>
</g>
<!-- Node6&#45;&gt;Node7 -->
<g id="edge14" class="edge"><title>Node6&#45;&gt;Node7</title>
<path fill="none" stroke="midnightblue" d="M350.187,-75C358.847,-75 367.703,-75 376.467,-75"/>
<polygon fill="midnightblue" stroke="midnightblue" points="376.694,-78.5001 386.694,-75 376.694,-71.5001 376.694,-78.5001"/>
</g>
<!-- Node8 -->
<g id="node16" class="node"><title>Node8</title>
<a xlink:href="classZendDbSchema__Db__Schema__Table__AbstractDefinition.html#a224b6a0c1df1d6ed40e03657782ef6fc" target="_top" xlink:title="ZendDbSchema_Db_Schema\l_Table_AbstractDefinition\l\\getTable">
<polygon fill="white" stroke="black" points="580,-66.5 580,-113.5 726,-113.5 726,-66.5 580,-66.5"/>
<text text-anchor="start" x="588" y="-100.5" font-family="Helvetica,sans-Serif" font-size="10.00">ZendDbSchema_Db_Schema</text>
<text text-anchor="start" x="588" y="-87.5" font-family="Helvetica,sans-Serif" font-size="10.00">_Table_AbstractDefinition</text>
<text text-anchor="middle" x="653" y="-74.5" font-family="Helvetica,sans-Serif" font-size="10.00">\getTable</text>
</a>
</g>
<!-- Node7&#45;&gt;Node8 -->
<g id="edge16" class="edge"><title>Node7&#45;&gt;Node8</title>
<path fill="none" stroke="midnightblue" d="M543.096,-81.231C551.965,-81.9387 561.029,-82.6618 569.958,-83.3743"/>
<polygon fill="midnightblue" stroke="midnightblue" points="569.72,-86.8663 579.966,-84.1728 570.276,-79.8885 569.72,-86.8663"/>
</g>
<!-- Node9 -->
<g id="node18" class="node"><title>Node9</title>
<a xlink:href="classZendDbSchema__Db__Schema__Table__AbstractDefinition.html#a2fb894602c4b7fbba5dd1d180f93c181" target="_top" xlink:title="ZendDbSchema_Db_Schema\l_Table_AbstractDefinition\l\\_getSchemaKey">
<polygon fill="white" stroke="black" points="580,-0.5 580,-47.5 726,-47.5 726,-0.5 580,-0.5"/>
<text text-anchor="start" x="588" y="-34.5" font-family="Helvetica,sans-Serif" font-size="10.00">ZendDbSchema_Db_Schema</text>
<text text-anchor="start" x="588" y="-21.5" font-family="Helvetica,sans-Serif" font-size="10.00">_Table_AbstractDefinition</text>
<text text-anchor="middle" x="653" y="-8.5" font-family="Helvetica,sans-Serif" font-size="10.00">\_getSchemaKey</text>
</a>
</g>
<!-- Node7&#45;&gt;Node9 -->
<g id="edge18" class="edge"><title>Node7&#45;&gt;Node9</title>
<path fill="none" stroke="midnightblue" d="M527.863,-57.9468C541.392,-54.2765 555.893,-50.343 570.053,-46.5015"/>
<polygon fill="midnightblue" stroke="midnightblue" points="571.052,-49.8572 579.786,-43.8611 569.219,-43.1014 571.052,-49.8572"/>
</g>
</g>
</svg>
