<?xml version="1.0" encoding="UTF-8" standalone="no"?>
<!DOCTYPE svg PUBLIC "-//W3C//DTD SVG 1.1//EN"
 "http://www.w3.org/Graphics/SVG/1.1/DTD/svg11.dtd">
<!-- Generated by graphviz version 2.26.3 (20100126.1600)
 -->
<!-- Title: G Pages: 1 -->
<svg width="1320pt" height="49pt"
 viewBox="0.00 0.00 1320.00 49.00" xmlns="http://www.w3.org/2000/svg" xmlns:xlink="http://www.w3.org/1999/xlink">
<g id="graph1" class="graph" transform="scale(1 1) rotate(0) translate(4 45)">
<title>G</title>
<polygon fill="white" stroke="white" points="-4,5 -4,-45 1317,-45 1317,5 -4,5"/>
<!-- Node1 -->
<g id="node1" class="node"><title>Node1</title>
<polygon fill="#bfbfbf" stroke="black" points="0,-19.5 0,-40.5 218,-40.5 218,-19.5 0,-19.5"/>
<text text-anchor="middle" x="109" y="-27.5" font-family="Helvetica,sans-Serif" font-size="10.00">ZendDbSchema_Db_Migration_Skeleton\write</text>
</g>
<!-- Node2 -->
<g id="node3" class="node"><title>Node2</title>
<a xlink:href="classZendDbSchema__Db__Migration__Skeleton.html#a061e25b67825b88e94acf79944db19a6" target="_top" xlink:title="ZendDbSchema_Db_Migration_Skeleton\\getFile">
<polygon fill="white" stroke="black" points="254,-19.5 254,-40.5 480,-40.5 480,-19.5 254,-19.5"/>
<text text-anchor="middle" x="367" y="-27.5" font-family="Helvetica,sans-Serif" font-size="10.00">ZendDbSchema_Db_Migration_Skeleton\getFile</text>
</a>
</g>
<!-- Node1&#45;&gt;Node2 -->
<g id="edge2" class="edge"><title>Node1&#45;&gt;Node2</title>
<path fill="none" stroke="midnightblue" d="M218.041,-30C226.542,-30 235.162,-30 243.747,-30"/>
<polygon fill="midnightblue" stroke="midnightblue" points="243.801,-33.5001 253.801,-30 243.801,-26.5001 243.801,-33.5001"/>
</g>
<!-- Node3 -->
<g id="node5" class="node"><title>Node3</title>
<a xlink:href="classZendDbSchema__Db__Migration__Skeleton.html#a9d8f00f78a02bdc4e028a210c2797c62" target="_top" xlink:title="ZendDbSchema_Db_Migration_Skeleton\\getClass">
<polygon fill="white" stroke="black" points="1076,-19.5 1076,-40.5 1312,-40.5 1312,-19.5 1076,-19.5"/>
<text text-anchor="middle" x="1194" y="-27.5" font-family="Helvetica,sans-Serif" font-size="10.00">ZendDbSchema_Db_Migration_Skeleton\getClass</text>
</a>
</g>
<!-- Node2&#45;&gt;Node3 -->
<g id="edge4" class="edge"><title>Node2&#45;&gt;Node3</title>
<path fill="none" stroke="midnightblue" d="M480.083,-30.8386C492.207,-30.9047 504.359,-30.9609 516,-31 748.888,-31.7815 807.112,-31.7561 1040,-31 1048.36,-30.9729 1056.97,-30.9374 1065.66,-30.8961"/>
<polygon fill="midnightblue" stroke="midnightblue" points="1065.89,-34.3951 1075.87,-30.8451 1065.85,-27.3952 1065.89,-34.3951"/>
</g>
<!-- Node4 -->
<g id="node7" class="node"><title>Node4</title>
<a xlink:href="classZendDbSchema__Db__Migration__Skeleton.html#afb677840482d948597ec10dc0fd37aab" target="_top" xlink:title="ZendDbSchema_Db_Migration_Skeleton\\getVersion">
<polygon fill="white" stroke="black" points="516.5,-0.5 516.5,-21.5 759.5,-21.5 759.5,-0.5 516.5,-0.5"/>
<text text-anchor="middle" x="638" y="-8.5" font-family="Helvetica,sans-Serif" font-size="10.00">ZendDbSchema_Db_Migration_Skeleton\getVersion</text>
</a>
</g>
<!-- Node2&#45;&gt;Node4 -->
<g id="edge6" class="edge"><title>Node2&#45;&gt;Node4</title>
<path fill="none" stroke="midnightblue" d="M480.358,-22.0524C488.907,-21.453 497.576,-20.8452 506.225,-20.2389"/>
<polygon fill="midnightblue" stroke="midnightblue" points="506.629,-23.7192 516.36,-19.5283 506.14,-16.7363 506.629,-23.7192"/>
</g>
<!-- Node5 -->
<g id="node9" class="node"><title>Node5</title>
<a xlink:href="classZendDbSchema__Db__Migration__Skeleton.html#a7613e2ec6a61b621fd7897a29934269d" target="_top" xlink:title="ZendDbSchema_Db_Migration_Skeleton\\setVersion">
<polygon fill="white" stroke="black" points="796.5,-0.5 796.5,-21.5 1039.5,-21.5 1039.5,-0.5 796.5,-0.5"/>
<text text-anchor="middle" x="918" y="-8.5" font-family="Helvetica,sans-Serif" font-size="10.00">ZendDbSchema_Db_Migration_Skeleton\setVersion</text>
</a>
</g>
<!-- Node4&#45;&gt;Node5 -->
<g id="edge8" class="edge"><title>Node4&#45;&gt;Node5</title>
<path fill="none" stroke="midnightblue" d="M759.59,-11C768.289,-11 777.084,-11 785.838,-11"/>
<polygon fill="midnightblue" stroke="midnightblue" points="786.087,-14.5001 796.087,-11 786.087,-7.5001 786.087,-14.5001"/>
</g>
<!-- Node5&#45;&gt;Node3 -->
<g id="edge10" class="edge"><title>Node5&#45;&gt;Node3</title>
<path fill="none" stroke="midnightblue" d="M1039.86,-19.389C1048.48,-19.982 1057.18,-20.5809 1065.82,-21.1763"/>
<polygon fill="midnightblue" stroke="midnightblue" points="1065.73,-24.6778 1075.94,-21.873 1066.21,-17.6944 1065.73,-24.6778"/>
</g>
</g>
</svg>
