<?xml version="1.0" encoding="UTF-8" standalone="no"?>
<!DOCTYPE svg PUBLIC "-//W3C//DTD SVG 1.1//EN"
 "http://www.w3.org/Graphics/SVG/1.1/DTD/svg11.dtd">
<!-- Generated by graphviz version 2.26.3 (20100126.1600)
 -->
<!-- Title: G Pages: 1 -->
<svg width="2262pt" height="1170pt"
 viewBox="0.00 0.00 2262.00 1170.00" xmlns="http://www.w3.org/2000/svg" xmlns:xlink="http://www.w3.org/1999/xlink">
<g id="graph1" class="graph" transform="scale(1 1) rotate(0) translate(4 1166)">
<title>G</title>
<polygon fill="white" stroke="white" points="-4,5 -4,-1166 2259,-1166 2259,5 -4,5"/>
<!-- Node1 -->
<g id="node1" class="node"><title>Node1</title>
<polygon fill="#bfbfbf" stroke="black" points="0.5,-940.5 0.5,-961.5 269.5,-961.5 269.5,-940.5 0.5,-940.5"/>
<text text-anchor="middle" x="135" y="-948.5" font-family="Helvetica,sans-Serif" font-size="10.00">ZendDbSchema_Db_Schema_AbstractSchema\setParser</text>
</g>
<!-- Node2 -->
<g id="node3" class="node"><title>Node2</title>
<a xlink:href="classZendDbSchema__Db__Schema__AbstractSchema.html#a6349649e5e09d67a5b5e0abe96298db8" target="_top" xlink:title="ZendDbSchema_Db_Schema_AbstractSchema\\setAdapter">
<polygon fill="white" stroke="black" points="306.5,-940.5 306.5,-961.5 581.5,-961.5 581.5,-940.5 306.5,-940.5"/>
<text text-anchor="middle" x="444" y="-948.5" font-family="Helvetica,sans-Serif" font-size="10.00">ZendDbSchema_Db_Schema_AbstractSchema\setAdapter</text>
</a>
</g>
<!-- Node1&#45;&gt;Node2 -->
<g id="edge2" class="edge"><title>Node1&#45;&gt;Node2</title>
<path fill="none" stroke="midnightblue" d="M279.67,-951C288.582,-951 297.538,-951 306.419,-951"/>
<polygon fill="midnightblue" stroke="midnightblue" points="279.633,-947.5 269.633,-951 279.633,-954.5 279.633,-947.5"/>
</g>
<!-- Node3 -->
<g id="node5" class="node"><title>Node3</title>
<a xlink:href="classZendDbSchema__Db__Schema__AbstractSchema.html#a47d95912f6bf6d26d023597887dafacb" target="_top" xlink:title="ZendDbSchema_Db_Schema_AbstractSchema\\getAdapter">
<polygon fill="white" stroke="black" points="618.5,-940.5 618.5,-961.5 893.5,-961.5 893.5,-940.5 618.5,-940.5"/>
<text text-anchor="middle" x="756" y="-948.5" font-family="Helvetica,sans-Serif" font-size="10.00">ZendDbSchema_Db_Schema_AbstractSchema\getAdapter</text>
</a>
</g>
<!-- Node2&#45;&gt;Node3 -->
<g id="edge4" class="edge"><title>Node2&#45;&gt;Node3</title>
<path fill="none" stroke="midnightblue" d="M591.977,-951C600.703,-951 609.462,-951 618.145,-951"/>
<polygon fill="midnightblue" stroke="midnightblue" points="591.756,-947.5 581.756,-951 591.756,-954.5 591.756,-947.5"/>
</g>
<!-- Node4 -->
<g id="node7" class="node"><title>Node4</title>
<a xlink:href="classZendDbSchema__Db__Schema__Database.html#a5fec6a5dbc863948512354d9cee4b7f0" target="_top" xlink:title="ZendDbSchema_Db_Schema_Database\\_doDelete">
<polygon fill="white" stroke="black" points="959.5,-1097.5 959.5,-1118.5 1200.5,-1118.5 1200.5,-1097.5 959.5,-1097.5"/>
<text text-anchor="middle" x="1080" y="-1105.5" font-family="Helvetica,sans-Serif" font-size="10.00">ZendDbSchema_Db_Schema_Database\_doDelete</text>
</a>
</g>
<!-- Node3&#45;&gt;Node4 -->
<g id="edge6" class="edge"><title>Node3&#45;&gt;Node4</title>
<path fill="none" stroke="midnightblue" d="M772.551,-969.265C801.278,-999.643 863.677,-1059.98 930,-1088 939.317,-1091.94 949.225,-1095.14 959.334,-1097.75"/>
<polygon fill="midnightblue" stroke="midnightblue" points="775.054,-966.817 765.678,-961.883 769.931,-971.587 775.054,-966.817"/>
</g>
<!-- Node5 -->
<g id="node9" class="node"><title>Node5</title>
<a xlink:href="classZendDbSchema__Db__Schema__Table.html#a2870bcdf57c17db72028f4e67a583fff" target="_top" xlink:title="ZendDbSchema_Db_Schema_Table\\_doDelete">
<polygon fill="white" stroke="black" points="968.5,-1057.5 968.5,-1078.5 1191.5,-1078.5 1191.5,-1057.5 968.5,-1057.5"/>
<text text-anchor="middle" x="1080" y="-1065.5" font-family="Helvetica,sans-Serif" font-size="10.00">ZendDbSchema_Db_Schema_Table\_doDelete</text>
</a>
</g>
<!-- Node3&#45;&gt;Node5 -->
<g id="edge8" class="edge"><title>Node3&#45;&gt;Node5</title>
<path fill="none" stroke="midnightblue" d="M780.452,-967.203C813.125,-988.068 873.48,-1023.91 930,-1043 948.384,-1049.21 968.576,-1053.91 988.023,-1057.47"/>
<polygon fill="midnightblue" stroke="midnightblue" points="782.296,-964.228 771.997,-961.742 778.498,-970.108 782.296,-964.228"/>
</g>
<!-- Node6 -->
<g id="node11" class="node"><title>Node6</title>
<a xlink:href="classZendDbSchema__Db__Schema__Database.html#aad388b374fd5913946204230760b2d86" target="_top" xlink:title="ZendDbSchema_Db_Schema_Database\\_doReload">
<polygon fill="white" stroke="black" points="1293.5,-1140.5 1293.5,-1161.5 1536.5,-1161.5 1536.5,-1140.5 1293.5,-1140.5"/>
<text text-anchor="middle" x="1415" y="-1148.5" font-family="Helvetica,sans-Serif" font-size="10.00">ZendDbSchema_Db_Schema_Database\_doReload</text>
</a>
</g>
<!-- Node3&#45;&gt;Node6 -->
<g id="edge10" class="edge"><title>Node3&#45;&gt;Node6</title>
<path fill="none" stroke="midnightblue" d="M791.441,-965.367C826.18,-978.884 880.916,-998.691 930,-1010 995.484,-1025.09 1176.25,-1007.67 1230,-1048 1262.16,-1072.13 1233.93,-1106.75 1266,-1131 1274.22,-1137.22 1283.46,-1141.99 1293.19,-1145.62"/>
<polygon fill="midnightblue" stroke="midnightblue" points="792.35,-961.963 781.763,-961.562 789.789,-968.478 792.35,-961.963"/>
</g>
<!-- Node7 -->
<g id="node13" class="node"><title>Node7</title>
<a xlink:href="classZendDbSchema__Db__Schema__Table.html#abc05b1f219611fefdd0e9eaeff1761d9" target="_top" xlink:title="ZendDbSchema_Db_Schema_Table\\_doReload">
<polygon fill="white" stroke="black" points="1302.5,-1100.5 1302.5,-1121.5 1527.5,-1121.5 1527.5,-1100.5 1302.5,-1100.5"/>
<text text-anchor="middle" x="1415" y="-1108.5" font-family="Helvetica,sans-Serif" font-size="10.00">ZendDbSchema_Db_Schema_Table\_doReload</text>
</a>
</g>
<!-- Node3&#45;&gt;Node7 -->
<g id="edge12" class="edge"><title>Node3&#45;&gt;Node7</title>
<path fill="none" stroke="midnightblue" d="M799.362,-937.736C890.028,-912.895 1101.84,-870.361 1230,-970 1274.3,-1004.44 1223.36,-1054.53 1266,-1091 1276.51,-1099.99 1289.06,-1106.12 1302.35,-1110.18"/>
<polygon fill="midnightblue" stroke="midnightblue" points="798.372,-934.379 789.687,-940.447 800.261,-941.119 798.372,-934.379"/>
</g>
<!-- Node8 -->
<g id="node15" class="node"><title>Node8</title>
<a xlink:href="classZendDbSchema__Db__Schema__AbstractSchema.html#a5696bfca3324b0dfbdf3c10d224f5759" target="_top" xlink:title="ZendDbSchema_Db_Schema_AbstractSchema\\getGenerator">
<polygon fill="white" stroke="black" points="938,-780.5 938,-801.5 1222,-801.5 1222,-780.5 938,-780.5"/>
<text text-anchor="middle" x="1080" y="-788.5" font-family="Helvetica,sans-Serif" font-size="10.00">ZendDbSchema_Db_Schema_AbstractSchema\getGenerator</text>
</a>
</g>
<!-- Node3&#45;&gt;Node8 -->
<g id="edge14" class="edge"><title>Node3&#45;&gt;Node8</title>
<path fill="none" stroke="midnightblue" d="M786.867,-935.757C852.172,-903.508 1002.9,-829.075 1058.71,-801.514"/>
<polygon fill="midnightblue" stroke="midnightblue" points="784.926,-932.812 777.509,-940.378 788.026,-939.088 784.926,-932.812"/>
</g>
<!-- Node25 -->
<g id="node49" class="node"><title>Node25</title>
<a xlink:href="classZendDbSchema__Db__Schema__AbstractSchema.html#adda416f89a3cc16bd28d90b14036b63d" target="_top" xlink:title="ZendDbSchema_Db_Schema_AbstractSchema\\getParser">
<polygon fill="white" stroke="black" points="945.5,-979.5 945.5,-1000.5 1214.5,-1000.5 1214.5,-979.5 945.5,-979.5"/>
<text text-anchor="middle" x="1080" y="-987.5" font-family="Helvetica,sans-Serif" font-size="10.00">ZendDbSchema_Db_Schema_AbstractSchema\getParser</text>
</a>
</g>
<!-- Node3&#45;&gt;Node25 -->
<g id="edge48" class="edge"><title>Node3&#45;&gt;Node25</title>
<path fill="none" stroke="midnightblue" d="M853.444,-962.729C897.692,-968.055 949.621,-974.306 992.592,-979.479"/>
<polygon fill="midnightblue" stroke="midnightblue" points="853.599,-959.223 843.252,-961.503 852.762,-966.173 853.599,-959.223"/>
</g>
<!-- Node26 -->
<g id="node53" class="node"><title>Node26</title>
<a xlink:href="classZendDbSchema__Db__Schema__AbstractSchema.html#afda46eab0c365f4c9a743b7185c51d6c" target="_top" xlink:title="ZendDbSchema_Db_Schema_AbstractSchema\\getValidator">
<polygon fill="white" stroke="black" points="940.5,-420.5 940.5,-441.5 1219.5,-441.5 1219.5,-420.5 940.5,-420.5"/>
<text text-anchor="middle" x="1080" y="-428.5" font-family="Helvetica,sans-Serif" font-size="10.00">ZendDbSchema_Db_Schema_AbstractSchema\getValidator</text>
</a>
</g>
<!-- Node3&#45;&gt;Node26 -->
<g id="edge54" class="edge"><title>Node3&#45;&gt;Node26</title>
<path fill="none" stroke="midnightblue" d="M768.203,-931.415C821.473,-845.919 1032.77,-506.795 1073.27,-441.801"/>
<polygon fill="midnightblue" stroke="midnightblue" points="765.085,-929.801 762.767,-940.139 771.026,-933.503 765.085,-929.801"/>
</g>
<!-- Node49 -->
<g id="node103" class="node"><title>Node49</title>
<a xlink:href="classZendDbSchema__Db__Schema__Validator__Mysql.html#ab77a7fe20e34115d4b2679521b8918c0" target="_top" xlink:title="ZendDbSchema_Db_Schema_Validator_Mysql\\validateDatabase">
<polygon fill="white" stroke="black" points="930,-380.5 930,-401.5 1230,-401.5 1230,-380.5 930,-380.5"/>
<text text-anchor="middle" x="1080" y="-388.5" font-family="Helvetica,sans-Serif" font-size="10.00">ZendDbSchema_Db_Schema_Validator_Mysql\validateDatabase</text>
</a>
</g>
<!-- Node3&#45;&gt;Node49 -->
<g id="edge108" class="edge"><title>Node3&#45;&gt;Node49</title>
<path fill="none" stroke="midnightblue" d="M759.629,-930.443C775.96,-840.327 845.539,-481.538 930,-411 934.235,-407.463 938.784,-404.373 943.568,-401.678"/>
<polygon fill="midnightblue" stroke="midnightblue" points="756.147,-930.027 757.828,-940.488 763.038,-931.262 756.147,-930.027"/>
</g>
<!-- Node50 -->
<g id="node105" class="node"><title>Node50</title>
<a xlink:href="classZendDbSchema__Db__Schema__Validator__Mysql.html#a0c68fa05f88c3a6f603b04709133ef68" target="_top" xlink:title="ZendDbSchema_Db_Schema_Validator_Mysql\\validateTable">
<polygon fill="white" stroke="black" points="939,-340.5 939,-361.5 1221,-361.5 1221,-340.5 939,-340.5"/>
<text text-anchor="middle" x="1080" y="-348.5" font-family="Helvetica,sans-Serif" font-size="10.00">ZendDbSchema_Db_Schema_Validator_Mysql\validateTable</text>
</a>
</g>
<!-- Node3&#45;&gt;Node50 -->
<g id="edge110" class="edge"><title>Node3&#45;&gt;Node50</title>
<path fill="none" stroke="midnightblue" d="M759.2,-930.141C774.157,-835.469 840.246,-447.516 930,-371 934.199,-367.421 938.718,-364.294 943.476,-361.57"/>
<polygon fill="midnightblue" stroke="midnightblue" points="755.716,-929.772 757.632,-940.192 762.632,-930.851 755.716,-929.772"/>
</g>
<!-- Node9 -->
<g id="node17" class="node"><title>Node9</title>
<a xlink:href="classZendDbSchema__Db__Schema__Table__PrimaryKey.html#a3f48dd085068f13258957efeb0f7257b" target="_top" xlink:title="ZendDbSchema_Db_Schema_Table_PrimaryKey\\_getAlterSql">
<polygon fill="white" stroke="black" points="1271,-820.5 1271,-841.5 1559,-841.5 1559,-820.5 1271,-820.5"/>
<text text-anchor="middle" x="1415" y="-828.5" font-family="Helvetica,sans-Serif" font-size="10.00">ZendDbSchema_Db_Schema_Table_PrimaryKey\_getAlterSql</text>
</a>
</g>
<!-- Node8&#45;&gt;Node9 -->
<g id="edge16" class="edge"><title>Node8&#45;&gt;Node9</title>
<path fill="none" stroke="midnightblue" d="M1178.23,-802.729C1225.33,-808.353 1281.3,-815.036 1326.99,-820.491"/>
<polygon fill="midnightblue" stroke="midnightblue" points="1178.36,-799.22 1168.02,-801.51 1177.53,-806.171 1178.36,-799.22"/>
</g>
<!-- Node10 -->
<g id="node19" class="node"><title>Node10</title>
<a xlink:href="classZendDbSchema__Db__Schema__Database.html#a4f5a636c4e7d8ab57f6e090cdf8841dc" target="_top" xlink:title="ZendDbSchema_Db_Schema_Database\\_getAlterSql">
<polygon fill="white" stroke="black" points="1290,-780.5 1290,-801.5 1540,-801.5 1540,-780.5 1290,-780.5"/>
<text text-anchor="middle" x="1415" y="-788.5" font-family="Helvetica,sans-Serif" font-size="10.00">ZendDbSchema_Db_Schema_Database\_getAlterSql</text>
</a>
</g>
<!-- Node8&#45;&gt;Node10 -->
<g id="edge18" class="edge"><title>Node8&#45;&gt;Node10</title>
<path fill="none" stroke="midnightblue" d="M1232.15,-791C1251.49,-791 1271.1,-791 1289.95,-791"/>
<polygon fill="midnightblue" stroke="midnightblue" points="1232.07,-787.5 1222.07,-791 1232.07,-794.5 1232.07,-787.5"/>
</g>
<!-- Node11 -->
<g id="node21" class="node"><title>Node11</title>
<a xlink:href="classZendDbSchema__Db__Schema__Table__ForeignKey.html#ae7cb55b4ec471ccb54ef38ef4bb33558" target="_top" xlink:title="ZendDbSchema_Db_Schema_Table_ForeignKey\\_getAlterSql">
<polygon fill="white" stroke="black" points="1271.5,-740.5 1271.5,-761.5 1558.5,-761.5 1558.5,-740.5 1271.5,-740.5"/>
<text text-anchor="middle" x="1415" y="-748.5" font-family="Helvetica,sans-Serif" font-size="10.00">ZendDbSchema_Db_Schema_Table_ForeignKey\_getAlterSql</text>
</a>
</g>
<!-- Node8&#45;&gt;Node11 -->
<g id="edge20" class="edge"><title>Node8&#45;&gt;Node11</title>
<path fill="none" stroke="midnightblue" d="M1178.23,-779.271C1225.33,-773.647 1281.3,-766.964 1326.99,-761.509"/>
<polygon fill="midnightblue" stroke="midnightblue" points="1177.53,-775.829 1168.02,-780.49 1178.36,-782.78 1177.53,-775.829"/>
</g>
<!-- Node12 -->
<g id="node23" class="node"><title>Node12</title>
<a xlink:href="classZendDbSchema__Db__Schema__Table__Index.html#ab87e33f2415eaf43730ca6d43ec540b6" target="_top" xlink:title="ZendDbSchema_Db_Schema_Table_Index\\_getAlterSql">
<polygon fill="white" stroke="black" points="1284.5,-700.5 1284.5,-721.5 1545.5,-721.5 1545.5,-700.5 1284.5,-700.5"/>
<text text-anchor="middle" x="1415" y="-708.5" font-family="Helvetica,sans-Serif" font-size="10.00">ZendDbSchema_Db_Schema_Table_Index\_getAlterSql</text>
</a>
</g>
<!-- Node8&#45;&gt;Node12 -->
<g id="edge22" class="edge"><title>Node8&#45;&gt;Node12</title>
<path fill="none" stroke="midnightblue" d="M1116.7,-777.005C1153.84,-763.362 1213.14,-742.972 1266,-731 1282.55,-727.252 1300.3,-724.119 1317.57,-721.528"/>
<polygon fill="midnightblue" stroke="midnightblue" points="1115.46,-773.733 1107.3,-780.49 1117.9,-780.296 1115.46,-773.733"/>
</g>
<!-- Node13 -->
<g id="node25" class="node"><title>Node13</title>
<a xlink:href="classZendDbSchema__Db__Schema__Table__Column.html#ae49fb9ae5b0f6d6258dc71f644e00991" target="_top" xlink:title="ZendDbSchema_Db_Schema_Table_Column\\_getAlterSql">
<polygon fill="white" stroke="black" points="1279.5,-660.5 1279.5,-681.5 1550.5,-681.5 1550.5,-660.5 1279.5,-660.5"/>
<text text-anchor="middle" x="1415" y="-668.5" font-family="Helvetica,sans-Serif" font-size="10.00">ZendDbSchema_Db_Schema_Table_Column\_getAlterSql</text>
</a>
</g>
<!-- Node8&#45;&gt;Node13 -->
<g id="edge24" class="edge"><title>Node8&#45;&gt;Node13</title>
<path fill="none" stroke="midnightblue" d="M1103.41,-774.794C1137.5,-752.062 1203.57,-711.231 1266,-691 1277.92,-687.138 1290.6,-684.021 1303.35,-681.506"/>
<polygon fill="midnightblue" stroke="midnightblue" points="1101.4,-771.932 1095.06,-780.426 1105.31,-777.734 1101.4,-771.932"/>
</g>
<!-- Node14 -->
<g id="node27" class="node"><title>Node14</title>
<a xlink:href="classZendDbSchema__Db__Schema__Table.html#a385e32fefac9fd4c6e4274c1e0c0b810" target="_top" xlink:title="ZendDbSchema_Db_Schema_Table\\_getAlterSql">
<polygon fill="white" stroke="black" points="1299,-620.5 1299,-641.5 1531,-641.5 1531,-620.5 1299,-620.5"/>
<text text-anchor="middle" x="1415" y="-628.5" font-family="Helvetica,sans-Serif" font-size="10.00">ZendDbSchema_Db_Schema_Table\_getAlterSql</text>
</a>
</g>
<!-- Node8&#45;&gt;Node14 -->
<g id="edge26" class="edge"><title>Node8&#45;&gt;Node14</title>
<path fill="none" stroke="midnightblue" d="M1097.43,-772.809C1128.21,-741.946 1195.63,-679.869 1266,-651 1276.38,-646.74 1287.48,-643.347 1298.76,-640.65"/>
<polygon fill="midnightblue" stroke="midnightblue" points="1094.59,-770.703 1090.08,-780.289 1099.58,-775.61 1094.59,-770.703"/>
</g>
<!-- Node15 -->
<g id="node29" class="node"><title>Node15</title>
<a xlink:href="classZendDbSchema__Db__Schema__Table__PrimaryKey.html#a97fe22c0e5758e1ee04616ccf3218e2a" target="_top" xlink:title="ZendDbSchema_Db_Schema_Table_PrimaryKey\\_getCreateSql">
<polygon fill="white" stroke="black" points="1266.5,-580.5 1266.5,-601.5 1563.5,-601.5 1563.5,-580.5 1266.5,-580.5"/>
<text text-anchor="middle" x="1415" y="-588.5" font-family="Helvetica,sans-Serif" font-size="10.00">ZendDbSchema_Db_Schema_Table_PrimaryKey\_getCreateSql</text>
</a>
</g>
<!-- Node8&#45;&gt;Node15 -->
<g id="edge28" class="edge"><title>Node8&#45;&gt;Node15</title>
<path fill="none" stroke="midnightblue" d="M1093.08,-771.918C1120.27,-733.943 1187.01,-649.277 1266,-611 1273.75,-607.244 1281.98,-604.124 1290.43,-601.539"/>
<polygon fill="midnightblue" stroke="midnightblue" points="1090.21,-769.911 1087.31,-780.102 1095.93,-773.941 1090.21,-769.911"/>
</g>
<!-- Node16 -->
<g id="node31" class="node"><title>Node16</title>
<a xlink:href="classZendDbSchema__Db__Schema__Database.html#a48ad6cd38cc07c3c350335d21d7c11e9" target="_top" xlink:title="ZendDbSchema_Db_Schema_Database\\_getCreateSql">
<polygon fill="white" stroke="black" points="1285.5,-540.5 1285.5,-561.5 1544.5,-561.5 1544.5,-540.5 1285.5,-540.5"/>
<text text-anchor="middle" x="1415" y="-548.5" font-family="Helvetica,sans-Serif" font-size="10.00">ZendDbSchema_Db_Schema_Database\_getCreateSql</text>
</a>
</g>
<!-- Node8&#45;&gt;Node16 -->
<g id="edge30" class="edge"><title>Node8&#45;&gt;Node16</title>
<path fill="none" stroke="midnightblue" d="M1089.92,-771.464C1113.57,-727.177 1177.91,-619.257 1266,-571 1272.75,-567.301 1279.93,-564.188 1287.34,-561.577"/>
<polygon fill="midnightblue" stroke="midnightblue" points="1086.8,-769.884 1085.26,-780.367 1093,-773.13 1086.8,-769.884"/>
</g>
<!-- Node17 -->
<g id="node33" class="node"><title>Node17</title>
<a xlink:href="classZendDbSchema__Db__Schema__Table__Column.html#a2312222bd78d06775dacb19b92638b69" target="_top" xlink:title="ZendDbSchema_Db_Schema_Table_Column\\_getCreateSql">
<polygon fill="white" stroke="black" points="1275,-500.5 1275,-521.5 1555,-521.5 1555,-500.5 1275,-500.5"/>
<text text-anchor="middle" x="1415" y="-508.5" font-family="Helvetica,sans-Serif" font-size="10.00">ZendDbSchema_Db_Schema_Table_Column\_getCreateSql</text>
</a>
</g>
<!-- Node8&#45;&gt;Node17 -->
<g id="edge32" class="edge"><title>Node8&#45;&gt;Node17</title>
<path fill="none" stroke="midnightblue" d="M1087.62,-771.083C1107.93,-720.998 1168.55,-589.633 1266,-531 1272.15,-527.3 1278.7,-524.164 1285.49,-521.513"/>
<polygon fill="midnightblue" stroke="midnightblue" points="1084.33,-769.895 1083.9,-780.481 1090.83,-772.471 1084.33,-769.895"/>
</g>
<!-- Node18 -->
<g id="node35" class="node"><title>Node18</title>
<a xlink:href="classZendDbSchema__Db__Schema__Table__ForeignKey.html#a8b8ab754bf3b5bcda1e8c70e83a6b7b9" target="_top" xlink:title="ZendDbSchema_Db_Schema_Table_ForeignKey\\_getCreateSql">
<polygon fill="white" stroke="black" points="1267,-460.5 1267,-481.5 1563,-481.5 1563,-460.5 1267,-460.5"/>
<text text-anchor="middle" x="1415" y="-468.5" font-family="Helvetica,sans-Serif" font-size="10.00">ZendDbSchema_Db_Schema_Table_ForeignKey\_getCreateSql</text>
</a>
</g>
<!-- Node8&#45;&gt;Node18 -->
<g id="edge34" class="edge"><title>Node8&#45;&gt;Node18</title>
<path fill="none" stroke="midnightblue" d="M1085.85,-770.721C1103.02,-715.213 1158.94,-560.321 1266,-491 1271.59,-487.383 1277.54,-484.287 1283.73,-481.646"/>
<polygon fill="midnightblue" stroke="midnightblue" points="1082.45,-769.859 1082.93,-780.443 1089.16,-771.873 1082.45,-769.859"/>
</g>
<!-- Node19 -->
<g id="node37" class="node"><title>Node19</title>
<a xlink:href="classZendDbSchema__Db__Schema__Table__Index.html#afec61cbe6c22bd42e30103bc3d37ef2d" target="_top" xlink:title="ZendDbSchema_Db_Schema_Table_Index\\_getCreateSql">
<polygon fill="white" stroke="black" points="1280,-1060.5 1280,-1081.5 1550,-1081.5 1550,-1060.5 1280,-1060.5"/>
<text text-anchor="middle" x="1415" y="-1068.5" font-family="Helvetica,sans-Serif" font-size="10.00">ZendDbSchema_Db_Schema_Table_Index\_getCreateSql</text>
</a>
</g>
<!-- Node8&#45;&gt;Node19 -->
<g id="edge36" class="edge"><title>Node8&#45;&gt;Node19</title>
<path fill="none" stroke="midnightblue" d="M1103.28,-807.649C1136.13,-832.306 1195.87,-881.624 1230,-937 1257.88,-982.231 1225.33,-1016.8 1266,-1051 1270.29,-1054.61 1274.92,-1057.76 1279.79,-1060.49"/>
<polygon fill="midnightblue" stroke="midnightblue" points="1105.28,-804.773 1095.16,-801.643 1101.12,-810.402 1105.28,-804.773"/>
</g>
<!-- Node20 -->
<g id="node39" class="node"><title>Node20</title>
<a xlink:href="classZendDbSchema__Db__Schema__Table.html#aefb813dece15a26017e580acc64e3406" target="_top" xlink:title="ZendDbSchema_Db_Schema_Table\\_getCreateSql">
<polygon fill="white" stroke="black" points="1294.5,-1020.5 1294.5,-1041.5 1535.5,-1041.5 1535.5,-1020.5 1294.5,-1020.5"/>
<text text-anchor="middle" x="1415" y="-1028.5" font-family="Helvetica,sans-Serif" font-size="10.00">ZendDbSchema_Db_Schema_Table\_getCreateSql</text>
</a>
</g>
<!-- Node8&#45;&gt;Node20 -->
<g id="edge38" class="edge"><title>Node8&#45;&gt;Node20</title>
<path fill="none" stroke="midnightblue" d="M1102.12,-808.304C1133.64,-833.817 1191.86,-884.233 1230,-937 1251.42,-966.642 1236.36,-989.579 1266,-1011 1274.57,-1017.19 1284.15,-1021.92 1294.22,-1025.5"/>
<polygon fill="midnightblue" stroke="midnightblue" points="1103.98,-805.304 1093.98,-801.787 1099.6,-810.769 1103.98,-805.304"/>
</g>
<!-- Node21 -->
<g id="node41" class="node"><title>Node21</title>
<a xlink:href="classZendDbSchema__Db__Schema__Table__PrimaryKey.html#a1da04c2b8330ad70171fd6b1802d14f2" target="_top" xlink:title="ZendDbSchema_Db_Schema_Table_PrimaryKey\\_getDeleteSql">
<polygon fill="white" stroke="black" points="1267,-980.5 1267,-1001.5 1563,-1001.5 1563,-980.5 1267,-980.5"/>
<text text-anchor="middle" x="1415" y="-988.5" font-family="Helvetica,sans-Serif" font-size="10.00">ZendDbSchema_Db_Schema_Table_PrimaryKey\_getDeleteSql</text>
</a>
</g>
<!-- Node8&#45;&gt;Node21 -->
<g id="edge40" class="edge"><title>Node8&#45;&gt;Node21</title>
<path fill="none" stroke="midnightblue" d="M1098.16,-808.721C1144.45,-853.865 1263.4,-969.738 1266,-971 1273.75,-974.756 1281.98,-977.876 1290.43,-980.461"/>
<polygon fill="midnightblue" stroke="midnightblue" points="1100.5,-806.109 1090.9,-801.633 1095.61,-811.121 1100.5,-806.109"/>
</g>
<!-- Node22 -->
<g id="node43" class="node"><title>Node22</title>
<a xlink:href="classZendDbSchema__Db__Schema__Table__Index.html#a54a12dab52e17f1218fafcd13b334d16" target="_top" xlink:title="ZendDbSchema_Db_Schema_Table_Index\\_getDeleteSql">
<polygon fill="white" stroke="black" points="1280.5,-940.5 1280.5,-961.5 1549.5,-961.5 1549.5,-940.5 1280.5,-940.5"/>
<text text-anchor="middle" x="1415" y="-948.5" font-family="Helvetica,sans-Serif" font-size="10.00">ZendDbSchema_Db_Schema_Table_Index\_getDeleteSql</text>
</a>
</g>
<!-- Node8&#45;&gt;Node22 -->
<g id="edge42" class="edge"><title>Node8&#45;&gt;Node22</title>
<path fill="none" stroke="midnightblue" d="M1097.43,-809.191C1128.21,-840.054 1195.63,-902.131 1266,-931 1275.3,-934.814 1285.17,-937.933 1295.23,-940.48"/>
<polygon fill="midnightblue" stroke="midnightblue" points="1099.58,-806.39 1090.08,-801.711 1094.59,-811.297 1099.58,-806.39"/>
</g>
<!-- Node23 -->
<g id="node45" class="node"><title>Node23</title>
<a xlink:href="classZendDbSchema__Db__Schema__Table__Column.html#a9b1cc87143098c64df381066af91222c" target="_top" xlink:title="ZendDbSchema_Db_Schema_Table_Column\\_getDeleteSql">
<polygon fill="white" stroke="black" points="1275.5,-900.5 1275.5,-921.5 1554.5,-921.5 1554.5,-900.5 1275.5,-900.5"/>
<text text-anchor="middle" x="1415" y="-908.5" font-family="Helvetica,sans-Serif" font-size="10.00">ZendDbSchema_Db_Schema_Table_Column\_getDeleteSql</text>
</a>
</g>
<!-- Node8&#45;&gt;Node23 -->
<g id="edge44" class="edge"><title>Node8&#45;&gt;Node23</title>
<path fill="none" stroke="midnightblue" d="M1103.41,-807.206C1137.5,-829.938 1203.57,-870.769 1266,-891 1277.92,-894.862 1290.6,-897.979 1303.35,-900.494"/>
<polygon fill="midnightblue" stroke="midnightblue" points="1105.31,-804.266 1095.06,-801.574 1101.4,-810.068 1105.31,-804.266"/>
</g>
<!-- Node24 -->
<g id="node47" class="node"><title>Node24</title>
<a xlink:href="classZendDbSchema__Db__Schema__Table__ForeignKey.html#acc96fbb08d8271259f56bd77c37f2da4" target="_top" xlink:title="ZendDbSchema_Db_Schema_Table_ForeignKey\\_getDeleteSql">
<polygon fill="white" stroke="black" points="1267.5,-860.5 1267.5,-881.5 1562.5,-881.5 1562.5,-860.5 1267.5,-860.5"/>
<text text-anchor="middle" x="1415" y="-868.5" font-family="Helvetica,sans-Serif" font-size="10.00">ZendDbSchema_Db_Schema_Table_ForeignKey\_getDeleteSql</text>
</a>
</g>
<!-- Node8&#45;&gt;Node24 -->
<g id="edge46" class="edge"><title>Node8&#45;&gt;Node24</title>
<path fill="none" stroke="midnightblue" d="M1116.7,-804.995C1153.84,-818.638 1213.14,-839.028 1266,-851 1282.55,-854.748 1300.3,-857.881 1317.57,-860.472"/>
<polygon fill="midnightblue" stroke="midnightblue" points="1117.9,-801.704 1107.3,-801.51 1115.46,-808.267 1117.9,-801.704"/>
</g>
<!-- Node25&#45;&gt;Node6 -->
<g id="edge50" class="edge"><title>Node25&#45;&gt;Node6</title>
<path fill="none" stroke="midnightblue" d="M1216.97,-1005.55C1221.57,-1008.32 1225.94,-1011.46 1230,-1015 1270.67,-1050.49 1224.77,-1096.16 1266,-1131 1274.07,-1137.82 1283.32,-1142.99 1293.17,-1146.85"/>
<polygon fill="midnightblue" stroke="midnightblue" points="1218.33,-1002.3 1207.87,-1000.65 1215.02,-1008.47 1218.33,-1002.3"/>
</g>
<!-- Node25&#45;&gt;Node7 -->
<g id="edge52" class="edge"><title>Node25&#45;&gt;Node7</title>
<path fill="none" stroke="midnightblue" d="M1213.4,-1004.76C1219.24,-1007.69 1224.82,-1011.08 1230,-1015 1259.83,-1037.52 1235.82,-1068.95 1266,-1091 1276.85,-1098.93 1289.37,-1104.48 1302.44,-1108.28"/>
<polygon fill="midnightblue" stroke="midnightblue" points="1214.57,-1001.44 1204.02,-1000.51 1211.69,-1007.82 1214.57,-1001.44"/>
</g>
<!-- Node27 -->
<g id="node55" class="node"><title>Node27</title>
<a xlink:href="classZendDbSchema__Db__Schema__AbstractSchema.html#ab4282a1fd6f4d9f23d01de8328072c71" target="_top" xlink:title="ZendDbSchema_Db_Schema_AbstractSchema\\__set">
<polygon fill="white" stroke="red" points="1289.5,-340.5 1289.5,-361.5 1540.5,-361.5 1540.5,-340.5 1289.5,-340.5"/>
<text text-anchor="middle" x="1415" y="-348.5" font-family="Helvetica,sans-Serif" font-size="10.00">ZendDbSchema_Db_Schema_AbstractSchema\__set</text>
</a>
</g>
<!-- Node26&#45;&gt;Node27 -->
<g id="edge56" class="edge"><title>Node26&#45;&gt;Node27</title>
<path fill="none" stroke="midnightblue" d="M1217.31,-416.892C1221.66,-415.119 1225.9,-413.161 1230,-411 1251.16,-399.844 1244.85,-382.165 1266,-371 1273.39,-367.101 1281.25,-363.864 1289.37,-361.185"/>
<polygon fill="midnightblue" stroke="midnightblue" points="1215.78,-413.725 1207.62,-420.484 1218.21,-420.288 1215.78,-413.725"/>
</g>
<!-- Node46 -->
<g id="node97" class="node"><title>Node46</title>
<a xlink:href="classZendDbSchema__Db__Schema__AbstractSchema.html#a64e2e307b4dd0bf4785258f82e9fcc1b" target="_top" xlink:title="ZendDbSchema_Db_Schema_AbstractSchema\\__unset">
<polygon fill="white" stroke="black" points="1284,-300.5 1284,-321.5 1546,-321.5 1546,-300.5 1284,-300.5"/>
<text text-anchor="middle" x="1415" y="-308.5" font-family="Helvetica,sans-Serif" font-size="10.00">ZendDbSchema_Db_Schema_AbstractSchema\__unset</text>
</a>
</g>
<!-- Node26&#45;&gt;Node46 -->
<g id="edge102" class="edge"><title>Node26&#45;&gt;Node46</title>
<path fill="none" stroke="midnightblue" d="M1223.45,-415.463C1225.69,-414.065 1227.88,-412.579 1230,-411 1261.27,-387.708 1234.74,-354.306 1266,-331 1271.54,-326.866 1277.54,-323.373 1283.83,-320.433"/>
<polygon fill="midnightblue" stroke="midnightblue" points="1221.58,-412.502 1214.54,-420.426 1224.98,-418.618 1221.58,-412.502"/>
</g>
<!-- Node47 -->
<g id="node99" class="node"><title>Node47</title>
<a xlink:href="classZendDbSchema__Db__Schema__Table__AbstractDefinition.html#ad1a0b678c2352296b55af83c59142e59" target="_top" xlink:title="ZendDbSchema_Db_Schema_Table_AbstractDefinition\\save">
<polygon fill="white" stroke="black" points="1273.5,-420.5 1273.5,-441.5 1556.5,-441.5 1556.5,-420.5 1273.5,-420.5"/>
<text text-anchor="middle" x="1415" y="-428.5" font-family="Helvetica,sans-Serif" font-size="10.00">ZendDbSchema_Db_Schema_Table_AbstractDefinition\save</text>
</a>
</g>
<!-- Node26&#45;&gt;Node47 -->
<g id="edge104" class="edge"><title>Node26&#45;&gt;Node47</title>
<path fill="none" stroke="midnightblue" d="M1229.68,-431C1244.23,-431 1258.96,-431 1273.43,-431"/>
<polygon fill="midnightblue" stroke="midnightblue" points="1229.64,-427.5 1219.64,-431 1229.64,-434.5 1229.64,-427.5"/>
</g>
<!-- Node48 -->
<g id="node101" class="node"><title>Node48</title>
<a xlink:href="classZendDbSchema__Db__Schema__AbstractEntity.html#a5b1c93da76c3708f90d330b4643e55b2" target="_top" xlink:title="ZendDbSchema_Db_Schema_AbstractEntity\\save">
<polygon fill="white" stroke="black" points="1296,-380.5 1296,-401.5 1534,-401.5 1534,-380.5 1296,-380.5"/>
<text text-anchor="middle" x="1415" y="-388.5" font-family="Helvetica,sans-Serif" font-size="10.00">ZendDbSchema_Db_Schema_AbstractEntity\save</text>
</a>
</g>
<!-- Node26&#45;&gt;Node48 -->
<g id="edge106" class="edge"><title>Node26&#45;&gt;Node48</title>
<path fill="none" stroke="midnightblue" d="M1178.23,-419.271C1225.33,-413.647 1281.3,-406.964 1326.99,-401.509"/>
<polygon fill="midnightblue" stroke="midnightblue" points="1177.53,-415.829 1168.02,-420.49 1178.36,-422.78 1177.53,-415.829"/>
</g>
<!-- Node28 -->
<g id="node57" class="node"><title>Node28</title>
<a xlink:href="classZendDbSchema__Db__Schema__AbstractEntity.html#a845c851f8d9549a8f1a3aa9bc1da3658" target="_top" xlink:title="ZendDbSchema_Db_Schema_AbstractEntity\\__clone">
<polygon fill="white" stroke="black" points="1625.5,-672.5 1625.5,-693.5 1876.5,-693.5 1876.5,-672.5 1625.5,-672.5"/>
<text text-anchor="middle" x="1751" y="-680.5" font-family="Helvetica,sans-Serif" font-size="10.00">ZendDbSchema_Db_Schema_AbstractEntity\__clone</text>
</a>
</g>
<!-- Node27&#45;&gt;Node28 -->
<g id="edge58" class="edge"><title>Node27&#45;&gt;Node28</title>
<path fill="none" stroke="midnightblue" d="M1549.65,-359.665C1554.82,-362.855 1559.64,-366.607 1564,-371 1654.51,-462.294 1510.9,-565.33 1600,-658 1607.27,-665.566 1615.9,-671.393 1625.28,-675.836"/>
<polygon fill="midnightblue" stroke="midnightblue" points="1551.1,-356.472 1540.64,-354.811 1547.78,-362.635 1551.1,-356.472"/>
</g>
<!-- Node29 -->
<g id="node59" class="node"><title>Node29</title>
<a xlink:href="classZendDbSchema__Db__Schema__Table__Index.html#a6717d976c5b0d47369d3c87ef17b1e9b" target="_top" xlink:title="ZendDbSchema_Db_Schema_Table_Index\\addColumn">
<polygon fill="white" stroke="red" points="1967.5,-619.5 1967.5,-640.5 2224.5,-640.5 2224.5,-619.5 1967.5,-619.5"/>
<text text-anchor="middle" x="2096" y="-627.5" font-family="Helvetica,sans-Serif" font-size="10.00">ZendDbSchema_Db_Schema_Table_Index\addColumn</text>
</a>
</g>
<!-- Node27&#45;&gt;Node29 -->
<g id="edge60" class="edge"><title>Node27&#45;&gt;Node29</title>
<path fill="none" stroke="midnightblue" d="M1549.56,-359.751C1554.75,-362.919 1559.61,-366.642 1564,-371 1644.92,-451.325 1514.28,-549.815 1600,-625 1660.69,-678.237 1898.56,-656.172 2021.5,-640.553"/>
<polygon fill="midnightblue" stroke="midnightblue" points="1550.99,-356.546 1540.52,-354.931 1547.69,-362.723 1550.99,-356.546"/>
</g>
<!-- Node30 -->
<g id="node61" class="node"><title>Node30</title>
<a xlink:href="classZendDbSchema__Db__Schema__Table__ForeignKey.html#a2197861c0661243f1ebcf43a7e7771f2" target="_top" xlink:title="ZendDbSchema_Db_Schema_Table_ForeignKey\\addRefColumn">
<polygon fill="white" stroke="black" points="1946.5,-511.5 1946.5,-532.5 2245.5,-532.5 2245.5,-511.5 1946.5,-511.5"/>
<text text-anchor="middle" x="2096" y="-519.5" font-family="Helvetica,sans-Serif" font-size="10.00">ZendDbSchema_Db_Schema_Table_ForeignKey\addRefColumn</text>
</a>
</g>
<!-- Node27&#45;&gt;Node30 -->
<g id="edge62" class="edge"><title>Node27&#45;&gt;Node30</title>
<path fill="none" stroke="midnightblue" d="M1549.98,-360.97C1554.96,-363.839 1559.66,-367.162 1564,-371 1611.46,-413.011 1550.35,-469.593 1600,-509 1659.84,-556.495 1874.87,-544.415 2001.31,-532.515"/>
<polygon fill="midnightblue" stroke="midnightblue" points="1551.26,-357.692 1540.76,-356.285 1548.09,-363.933 1551.26,-357.692"/>
</g>
<!-- Node31 -->
<g id="node63" class="node"><title>Node31</title>
<a xlink:href="classZendDbSchema__Db__Schema__Table__Index.html#af7c29da0f52c5270ffa3587a95295f82" target="_top" xlink:title="ZendDbSchema_Db_Schema_Table_Index\\hasColumn">
<polygon fill="white" stroke="black" points="1622.5,-594.5 1622.5,-615.5 1879.5,-615.5 1879.5,-594.5 1622.5,-594.5"/>
<text text-anchor="middle" x="1751" y="-602.5" font-family="Helvetica,sans-Serif" font-size="10.00">ZendDbSchema_Db_Schema_Table_Index\hasColumn</text>
</a>
</g>
<!-- Node27&#45;&gt;Node31 -->
<g id="edge64" class="edge"><title>Node27&#45;&gt;Node31</title>
<path fill="none" stroke="midnightblue" d="M1549.61,-360.041C1554.77,-363.138 1559.61,-366.765 1564,-371 1631.88,-436.4 1533.13,-513.567 1600,-580 1606.6,-586.555 1614.21,-591.785 1622.45,-595.929"/>
<polygon fill="midnightblue" stroke="midnightblue" points="1551.13,-356.882 1540.65,-355.318 1547.86,-363.075 1551.13,-356.882"/>
</g>
<!-- Node32 -->
<g id="node66" class="node"><title>Node32</title>
<a xlink:href="classZendDbSchema__Db__Schema__Table__Index.html#a3cfd358621bb3330ef9e7ffcf2f7b229" target="_top" xlink:title="ZendDbSchema_Db_Schema_Table_Index\\removeColumn">
<polygon fill="white" stroke="black" points="1959,-560.5 1959,-581.5 2233,-581.5 2233,-560.5 1959,-560.5"/>
<text text-anchor="middle" x="2096" y="-568.5" font-family="Helvetica,sans-Serif" font-size="10.00">ZendDbSchema_Db_Schema_Table_Index\removeColumn</text>
</a>
</g>
<!-- Node27&#45;&gt;Node32 -->
<g id="edge76" class="edge"><title>Node27&#45;&gt;Node32</title>
<path fill="none" stroke="midnightblue" d="M1549.62,-360.382C1554.75,-363.394 1559.58,-366.909 1564,-371 1620.34,-423.188 1541.84,-489.845 1600,-540 1651.94,-584.797 1830.7,-585.906 1958.7,-580.315"/>
<polygon fill="midnightblue" stroke="midnightblue" points="1551.21,-357.262 1540.72,-355.778 1547.99,-363.48 1551.21,-357.262"/>
</g>
<!-- Node33 -->
<g id="node68" class="node"><title>Node33</title>
<a xlink:href="classZendDbSchema__Db__Schema__Table__ForeignKey.html#aee976a90aff6a23580c6bbd11baf2ec0" target="_top" xlink:title="ZendDbSchema_Db_Schema_Table_ForeignKey\\hasRefColumn">
<polygon fill="white" stroke="black" points="1601.5,-478.5 1601.5,-499.5 1900.5,-499.5 1900.5,-478.5 1601.5,-478.5"/>
<text text-anchor="middle" x="1751" y="-486.5" font-family="Helvetica,sans-Serif" font-size="10.00">ZendDbSchema_Db_Schema_Table_ForeignKey\hasRefColumn</text>
</a>
</g>
<!-- Node27&#45;&gt;Node33 -->
<g id="edge70" class="edge"><title>Node27&#45;&gt;Node33</title>
<path fill="none" stroke="midnightblue" d="M1549.89,-361.834C1554.85,-364.478 1559.58,-367.516 1564,-371 1598.81,-398.435 1565.61,-436.035 1600,-464 1607.22,-469.868 1615.28,-474.599 1623.83,-478.393"/>
<polygon fill="midnightblue" stroke="midnightblue" points="1551.26,-358.613 1540.73,-357.49 1548.26,-364.938 1551.26,-358.613"/>
</g>
<!-- Node34 -->
<g id="node71" class="node"><title>Node34</title>
<a xlink:href="classZendDbSchema__Db__Schema__Table__ForeignKey.html#ab1730184f38846e90fc31b891a3d9b8c" target="_top" xlink:title="ZendDbSchema_Db_Schema_Table_ForeignKey\\removeRefColumn">
<polygon fill="white" stroke="black" points="1938.5,-453.5 1938.5,-474.5 2253.5,-474.5 2253.5,-453.5 1938.5,-453.5"/>
<text text-anchor="middle" x="2096" y="-461.5" font-family="Helvetica,sans-Serif" font-size="10.00">ZendDbSchema_Db_Schema_Table_ForeignKey\removeRefColumn</text>
</a>
</g>
<!-- Node27&#45;&gt;Node34 -->
<g id="edge78" class="edge"><title>Node27&#45;&gt;Node34</title>
<path fill="none" stroke="midnightblue" d="M1550.22,-363.301C1555,-365.56 1559.62,-368.115 1564,-371 1589.98,-388.092 1573.46,-414.788 1600,-431 1628.51,-448.42 1804.06,-456.841 1938.31,-460.775"/>
<polygon fill="midnightblue" stroke="midnightblue" points="1551.4,-360.002 1540.83,-359.312 1548.67,-366.445 1551.4,-360.002"/>
</g>
<!-- Node35 -->
<g id="node75" class="node"><title>Node35</title>
<a xlink:href="classZendDbSchema__Db__Schema__Database.html#acfc530f3381e35f7d57676c4dcff3620" target="_top" xlink:title="ZendDbSchema_Db_Schema_Database\\setCharset">
<polygon fill="white" stroke="black" points="1628.5,-400.5 1628.5,-421.5 1873.5,-421.5 1873.5,-400.5 1628.5,-400.5"/>
<text text-anchor="middle" x="1751" y="-408.5" font-family="Helvetica,sans-Serif" font-size="10.00">ZendDbSchema_Db_Schema_Database\setCharset</text>
</a>
</g>
<!-- Node27&#45;&gt;Node35 -->
<g id="edge80" class="edge"><title>Node27&#45;&gt;Node35</title>
<path fill="none" stroke="midnightblue" d="M1537.4,-363.639C1546.5,-365.729 1555.45,-368.164 1564,-371 1581.37,-376.762 1582.62,-385.253 1600,-391 1611.67,-394.861 1624.09,-397.979 1636.59,-400.497"/>
<polygon fill="midnightblue" stroke="midnightblue" points="1538.01,-360.189 1527.5,-361.503 1536.53,-367.032 1538.01,-360.189"/>
</g>
<!-- Node36 -->
<g id="node77" class="node"><title>Node36</title>
<a xlink:href="classZendDbSchema__Db__Schema__Table__Index.html#a77b65e961a7da9ca89fdebd682338fcf" target="_top" xlink:title="ZendDbSchema_Db_Schema_Table_Index\\setColumns">
<polygon fill="white" stroke="black" points="1621,-360.5 1621,-381.5 1881,-381.5 1881,-360.5 1621,-360.5"/>
<text text-anchor="middle" x="1751" y="-368.5" font-family="Helvetica,sans-Serif" font-size="10.00">ZendDbSchema_Db_Schema_Table_Index\setColumns</text>
</a>
</g>
<!-- Node27&#45;&gt;Node36 -->
<g id="edge82" class="edge"><title>Node27&#45;&gt;Node36</title>
<path fill="none" stroke="midnightblue" d="M1550.79,-359.083C1573.89,-360.458 1597.84,-361.883 1620.79,-363.25"/>
<polygon fill="midnightblue" stroke="midnightblue" points="1550.78,-355.576 1540.59,-358.476 1550.37,-362.564 1550.78,-355.576"/>
</g>
<!-- Node37 -->
<g id="node79" class="node"><title>Node37</title>
<a xlink:href="classZendDbSchema__Db__Schema__Table__Column.html#aae45b2b24302735971d487e6037ee732" target="_top" xlink:title="ZendDbSchema_Db_Schema_Table_Column\\setComment">
<polygon fill="white" stroke="black" points="1614,-320.5 1614,-341.5 1888,-341.5 1888,-320.5 1614,-320.5"/>
<text text-anchor="middle" x="1751" y="-328.5" font-family="Helvetica,sans-Serif" font-size="10.00">ZendDbSchema_Db_Schema_Table_Column\setComment</text>
</a>
</g>
<!-- Node27&#45;&gt;Node37 -->
<g id="edge84" class="edge"><title>Node27&#45;&gt;Node37</title>
<path fill="none" stroke="midnightblue" d="M1550.72,-342.921C1571.49,-341.685 1592.93,-340.409 1613.73,-339.171"/>
<polygon fill="midnightblue" stroke="midnightblue" points="1550.37,-339.436 1540.59,-343.524 1550.78,-346.424 1550.37,-339.436"/>
</g>
<!-- Node38 -->
<g id="node81" class="node"><title>Node38</title>
<a xlink:href="classZendDbSchema__Db__Schema__Table__Column.html#ab4eed7ec6d80aa36d4447566e1ae0294" target="_top" xlink:title="ZendDbSchema_Db_Schema_Table_Column\\setDefault">
<polygon fill="white" stroke="black" points="1619.5,-280.5 1619.5,-301.5 1882.5,-301.5 1882.5,-280.5 1619.5,-280.5"/>
<text text-anchor="middle" x="1751" y="-288.5" font-family="Helvetica,sans-Serif" font-size="10.00">ZendDbSchema_Db_Schema_Table_Column\setDefault</text>
</a>
</g>
<!-- Node27&#45;&gt;Node38 -->
<g id="edge86" class="edge"><title>Node27&#45;&gt;Node38</title>
<path fill="none" stroke="midnightblue" d="M1537.4,-338.361C1546.5,-336.271 1555.45,-333.836 1564,-331 1581.37,-325.238 1582.62,-316.747 1600,-311 1611.67,-307.139 1624.09,-304.021 1636.59,-301.503"/>
<polygon fill="midnightblue" stroke="midnightblue" points="1536.53,-334.968 1527.5,-340.497 1538.01,-341.811 1536.53,-334.968"/>
</g>
<!-- Node39 -->
<g id="node83" class="node"><title>Node39</title>
<a xlink:href="classZendDbSchema__Db__Schema__AbstractSchema.html#acd81590f02c831ff4c4a442c5cf47074" target="_top" xlink:title="ZendDbSchema_Db_Schema_AbstractSchema\\setFromArray">
<polygon fill="white" stroke="red" points="1607.5,-240.5 1607.5,-261.5 1894.5,-261.5 1894.5,-240.5 1607.5,-240.5"/>
<text text-anchor="middle" x="1751" y="-248.5" font-family="Helvetica,sans-Serif" font-size="10.00">ZendDbSchema_Db_Schema_AbstractSchema\setFromArray</text>
</a>
</g>
<!-- Node27&#45;&gt;Node39 -->
<g id="edge88" class="edge"><title>Node27&#45;&gt;Node39</title>
<path fill="none" stroke="midnightblue" d="M1550.22,-338.699C1555,-336.44 1559.62,-333.885 1564,-331 1589.98,-313.908 1574,-288.069 1600,-271 1605.53,-267.371 1611.41,-264.261 1617.54,-261.601"/>
<polygon fill="midnightblue" stroke="midnightblue" points="1548.67,-335.555 1540.83,-342.688 1551.4,-341.998 1548.67,-335.555"/>
</g>
<!-- Node40 -->
<g id="node85" class="node"><title>Node40</title>
<a xlink:href="classZendDbSchema__Db__Schema__Table__Column.html#a2f7872172e98a14cbe7d06e295e0106e" target="_top" xlink:title="ZendDbSchema_Db_Schema_Table_Column\\setLength">
<polygon fill="white" stroke="black" points="1621,-200.5 1621,-221.5 1881,-221.5 1881,-200.5 1621,-200.5"/>
<text text-anchor="middle" x="1751" y="-208.5" font-family="Helvetica,sans-Serif" font-size="10.00">ZendDbSchema_Db_Schema_Table_Column\setLength</text>
</a>
</g>
<!-- Node27&#45;&gt;Node40 -->
<g id="edge90" class="edge"><title>Node27&#45;&gt;Node40</title>
<path fill="none" stroke="midnightblue" d="M1549.78,-340.414C1554.79,-337.707 1559.56,-334.587 1564,-331 1600.75,-301.322 1563.22,-260.646 1600,-231 1606.38,-225.855 1613.43,-221.663 1620.9,-218.268"/>
<polygon fill="midnightblue" stroke="midnightblue" points="1548.02,-337.373 1540.52,-344.851 1551.05,-343.686 1548.02,-337.373"/>
</g>
<!-- Node41 -->
<g id="node87" class="node"><title>Node41</title>
<a xlink:href="classZendDbSchema__Db__Schema__AbstractSchema.html#a281403d9e41839e925bade11d8b69b91" target="_top" xlink:title="ZendDbSchema_Db_Schema_AbstractSchema\\setName">
<polygon fill="white" stroke="black" points="1617.5,-160.5 1617.5,-181.5 1884.5,-181.5 1884.5,-160.5 1617.5,-160.5"/>
<text text-anchor="middle" x="1751" y="-168.5" font-family="Helvetica,sans-Serif" font-size="10.00">ZendDbSchema_Db_Schema_AbstractSchema\setName</text>
</a>
</g>
<!-- Node27&#45;&gt;Node41 -->
<g id="edge92" class="edge"><title>Node27&#45;&gt;Node41</title>
<path fill="none" stroke="midnightblue" d="M1550,-341.049C1554.97,-338.175 1559.67,-334.846 1564,-331 1612.03,-288.335 1551.93,-233.623 1600,-191 1605.24,-186.351 1611.02,-182.45 1617.16,-179.192"/>
<polygon fill="midnightblue" stroke="midnightblue" points="1548.11,-338.086 1540.78,-345.742 1551.28,-344.325 1548.11,-338.086"/>
</g>
<!-- Node42 -->
<g id="node89" class="node"><title>Node42</title>
<a xlink:href="classZendDbSchema__Db__Schema__Table__Column.html#aa4350a230e6b0e41d9fb9da7c4d3df8b" target="_top" xlink:title="ZendDbSchema_Db_Schema_Table_Column\\setNullable">
<polygon fill="white" stroke="black" points="1618,-120.5 1618,-141.5 1884,-141.5 1884,-120.5 1618,-120.5"/>
<text text-anchor="middle" x="1751" y="-128.5" font-family="Helvetica,sans-Serif" font-size="10.00">ZendDbSchema_Db_Schema_Table_Column\setNullable</text>
</a>
</g>
<!-- Node27&#45;&gt;Node42 -->
<g id="edge94" class="edge"><title>Node27&#45;&gt;Node42</title>
<path fill="none" stroke="midnightblue" d="M1549.69,-341.686C1554.8,-338.656 1559.61,-335.118 1564,-331 1623.5,-275.185 1540.45,-206.763 1600,-151 1605.4,-145.939 1611.43,-141.746 1617.89,-138.292"/>
<polygon fill="midnightblue" stroke="midnightblue" points="1548.05,-338.59 1540.81,-346.317 1551.29,-344.796 1548.05,-338.59"/>
</g>
<!-- Node43 -->
<g id="node91" class="node"><title>Node43</title>
<a xlink:href="classZendDbSchema__Db__Schema__Table__ForeignKey.html#a0c51ff09d6df59b68f8f5ff4ec1ed32d" target="_top" xlink:title="ZendDbSchema_Db_Schema_Table_ForeignKey\\setOnDelete">
<polygon fill="white" stroke="black" points="1607,-80.5 1607,-101.5 1895,-101.5 1895,-80.5 1607,-80.5"/>
<text text-anchor="middle" x="1751" y="-88.5" font-family="Helvetica,sans-Serif" font-size="10.00">ZendDbSchema_Db_Schema_Table_ForeignKey\setOnDelete</text>
</a>
</g>
<!-- Node27&#45;&gt;Node43 -->
<g id="edge96" class="edge"><title>Node27&#45;&gt;Node43</title>
<path fill="none" stroke="midnightblue" d="M1549.66,-342.005C1554.8,-338.896 1559.62,-335.253 1564,-331 1635.06,-261.956 1528.88,-179.982 1600,-111 1603.61,-107.502 1607.51,-104.413 1611.65,-101.691"/>
<polygon fill="midnightblue" stroke="midnightblue" points="1547.91,-338.971 1540.71,-346.745 1551.18,-345.156 1547.91,-338.971"/>
</g>
<!-- Node44 -->
<g id="node93" class="node"><title>Node44</title>
<a xlink:href="classZendDbSchema__Db__Schema__Table__ForeignKey.html#ae8ffd9c6bad60eaf6ef05cdd1f5c56fb" target="_top" xlink:title="ZendDbSchema_Db_Schema_Table_ForeignKey\\setOnUpdate">
<polygon fill="white" stroke="black" points="1605.5,-40.5 1605.5,-61.5 1896.5,-61.5 1896.5,-40.5 1605.5,-40.5"/>
<text text-anchor="middle" x="1751" y="-48.5" font-family="Helvetica,sans-Serif" font-size="10.00">ZendDbSchema_Db_Schema_Table_ForeignKey\setOnUpdate</text>
</a>
</g>
<!-- Node27&#45;&gt;Node44 -->
<g id="edge98" class="edge"><title>Node27&#45;&gt;Node44</title>
<path fill="none" stroke="midnightblue" d="M1549.58,-342.266C1554.77,-339.094 1559.62,-335.365 1564,-331 1646.66,-248.682 1517.27,-153.246 1600,-71 1603.56,-67.4577 1607.43,-64.3311 1611.53,-61.5779"/>
<polygon fill="midnightblue" stroke="midnightblue" points="1547.71,-339.294 1540.54,-347.093 1551.01,-345.469 1547.71,-339.294"/>
</g>
<!-- Node45 -->
<g id="node95" class="node"><title>Node45</title>
<a xlink:href="classZendDbSchema__Db__Schema__Table__ForeignKey.html#a5788c3c190f6f311cdb1fea25ebcaa0c" target="_top" xlink:title="ZendDbSchema_Db_Schema_Table_ForeignKey\\setRefColumns">
<polygon fill="white" stroke="black" points="1600,-0.5 1600,-21.5 1902,-21.5 1902,-0.5 1600,-0.5"/>
<text text-anchor="middle" x="1751" y="-8.5" font-family="Helvetica,sans-Serif" font-size="10.00">ZendDbSchema_Db_Schema_Table_ForeignKey\setRefColumns</text>
</a>
</g>
<!-- Node27&#45;&gt;Node45 -->
<g id="edge100" class="edge"><title>Node27&#45;&gt;Node45</title>
<path fill="none" stroke="midnightblue" d="M1549.67,-342.364C1554.84,-339.166 1559.66,-335.405 1564,-331 1658.29,-235.38 1505.63,-126.537 1600,-31 1603.44,-27.5196 1607.17,-24.4377 1611.13,-21.715"/>
<polygon fill="midnightblue" stroke="midnightblue" points="1547.81,-339.394 1540.68,-347.229 1551.14,-345.552 1547.81,-339.394"/>
</g>
<!-- Node31&#45;&gt;Node29 -->
<g id="edge66" class="edge"><title>Node31&#45;&gt;Node29</title>
<path fill="none" stroke="midnightblue" d="M1890.08,-615.078C1915.65,-616.931 1942.24,-618.858 1967.49,-620.687"/>
<polygon fill="midnightblue" stroke="midnightblue" points="1890.18,-611.577 1879.96,-614.345 1889.68,-618.558 1890.18,-611.577"/>
</g>
<!-- Node31&#45;&gt;Node32 -->
<g id="edge68" class="edge"><title>Node31&#45;&gt;Node32</title>
<path fill="none" stroke="midnightblue" d="M1867.96,-593.473C1907.29,-589.598 1950.93,-585.297 1989.41,-581.505"/>
<polygon fill="midnightblue" stroke="midnightblue" points="1867.41,-590.011 1857.8,-594.475 1868.09,-596.977 1867.41,-590.011"/>
</g>
<!-- Node33&#45;&gt;Node30 -->
<g id="edge72" class="edge"><title>Node33&#45;&gt;Node30</title>
<path fill="none" stroke="midnightblue" d="M1871.51,-500.527C1908.75,-504.089 1949.56,-507.993 1986.05,-511.483"/>
<polygon fill="midnightblue" stroke="midnightblue" points="1871.4,-497 1861.11,-499.532 1870.73,-503.968 1871.4,-497"/>
</g>
<!-- Node33&#45;&gt;Node34 -->
<g id="edge74" class="edge"><title>Node33&#45;&gt;Node34</title>
<path fill="none" stroke="midnightblue" d="M1906.5,-477.732C1921.26,-476.662 1936.2,-475.58 1950.86,-474.518"/>
<polygon fill="midnightblue" stroke="midnightblue" points="1906.03,-474.257 1896.31,-478.47 1906.54,-481.238 1906.03,-474.257"/>
</g>
</g>
</svg>
