<?xml version="1.0" encoding="UTF-8" standalone="no"?>
<!DOCTYPE svg PUBLIC "-//W3C//DTD SVG 1.1//EN"
 "http://www.w3.org/Graphics/SVG/1.1/DTD/svg11.dtd">
<!-- Generated by graphviz version 2.26.3 (20100126.1600)
 -->
<!-- Title: G Pages: 1 -->
<svg width="1556pt" height="227pt"
 viewBox="0.00 0.00 1556.00 227.00" xmlns="http://www.w3.org/2000/svg" xmlns:xlink="http://www.w3.org/1999/xlink">
<g id="graph1" class="graph" transform="scale(1 1) rotate(0) translate(4 223)">
<title>G</title>
<polygon fill="white" stroke="white" points="-4,5 -4,-223 1553,-223 1553,5 -4,5"/>
<!-- Node1 -->
<g id="node1" class="node"><title>Node1</title>
<polygon fill="#bfbfbf" stroke="black" points="0,-98.5 0,-119.5 294,-119.5 294,-98.5 0,-98.5"/>
<text text-anchor="middle" x="147" y="-106.5" font-family="Helvetica,sans-Serif" font-size="10.00">ZendDbSchema_Db_Schema_Generator_Mysql\addForeignKey</text>
</g>
<!-- Node2 -->
<g id="node3" class="node"><title>Node2</title>
<a xlink:href="classZendDbSchema__Db__Schema__AbstractSchema.html#adacb1417b461310c5c87f72c459c1985" target="_top" xlink:title="ZendDbSchema_Db_Schema_AbstractSchema\\getOriginName">
<polygon fill="white" stroke="black" points="333.5,-195.5 333.5,-216.5 626.5,-216.5 626.5,-195.5 333.5,-195.5"/>
<text text-anchor="middle" x="480" y="-203.5" font-family="Helvetica,sans-Serif" font-size="10.00">ZendDbSchema_Db_Schema_AbstractSchema\getOriginName</text>
</a>
</g>
<!-- Node1&#45;&gt;Node2 -->
<g id="edge2" class="edge"><title>Node1&#45;&gt;Node2</title>
<path fill="none" stroke="midnightblue" d="M169.301,-119.545C203.254,-135.189 270.278,-164.472 330,-181 348.417,-186.097 368.412,-190.31 387.619,-193.732"/>
<polygon fill="midnightblue" stroke="midnightblue" points="387.129,-197.199 397.579,-195.45 388.319,-190.301 387.129,-197.199"/>
</g>
<!-- Node6 -->
<g id="node11" class="node"><title>Node6</title>
<a xlink:href="classZendDbSchema__Db__Schema__Table__ForeignKey.html#a5cd45e4bc92ac5975975753e459b4c8c" target="_top" xlink:title="ZendDbSchema_Db_Schema_Table_ForeignKey\\getColumns">
<polygon fill="white" stroke="black" points="672,-157.5 672,-178.5 958,-178.5 958,-157.5 672,-157.5"/>
<text text-anchor="middle" x="815" y="-165.5" font-family="Helvetica,sans-Serif" font-size="10.00">ZendDbSchema_Db_Schema_Table_ForeignKey\getColumns</text>
</a>
</g>
<!-- Node1&#45;&gt;Node6 -->
<g id="edge10" class="edge"><title>Node1&#45;&gt;Node6</title>
<path fill="none" stroke="midnightblue" d="M223.921,-119.552C256.587,-123.803 295.111,-128.515 330,-132 440.862,-143.074 566.295,-152.297 661.824,-158.634"/>
<polygon fill="midnightblue" stroke="midnightblue" points="661.643,-162.13 671.851,-159.296 662.104,-155.145 661.643,-162.13"/>
</g>
<!-- Node7 -->
<g id="node14" class="node"><title>Node7</title>
<a xlink:href="classZendDbSchema__Db__Schema__Table__ForeignKey.html#a39c9a3febcb98b77692566eed81220c7" target="_top" xlink:title="ZendDbSchema_Db_Schema_Table_ForeignKey\\getReferences">
<polygon fill="white" stroke="black" points="666.5,-117.5 666.5,-138.5 963.5,-138.5 963.5,-117.5 666.5,-117.5"/>
<text text-anchor="middle" x="815" y="-125.5" font-family="Helvetica,sans-Serif" font-size="10.00">ZendDbSchema_Db_Schema_Table_ForeignKey\getReferences</text>
</a>
</g>
<!-- Node1&#45;&gt;Node7 -->
<g id="edge14" class="edge"><title>Node1&#45;&gt;Node7</title>
<path fill="none" stroke="midnightblue" d="M294.009,-113.181C401.198,-116.23 546.297,-120.357 656.148,-123.482"/>
<polygon fill="midnightblue" stroke="midnightblue" points="656.235,-126.986 666.331,-123.771 656.434,-119.988 656.235,-126.986"/>
</g>
<!-- Node8 -->
<g id="node17" class="node"><title>Node8</title>
<a xlink:href="classZendDbSchema__Db__Schema__Table__ForeignKey.html#a83644a5b874f111e17dbf08ffa3ea803" target="_top" xlink:title="ZendDbSchema_Db_Schema_Table_ForeignKey\\getOnDelete">
<polygon fill="white" stroke="black" points="671,-77.5 671,-98.5 959,-98.5 959,-77.5 671,-77.5"/>
<text text-anchor="middle" x="815" y="-85.5" font-family="Helvetica,sans-Serif" font-size="10.00">ZendDbSchema_Db_Schema_Table_ForeignKey\getOnDelete</text>
</a>
</g>
<!-- Node1&#45;&gt;Node8 -->
<g id="edge18" class="edge"><title>Node1&#45;&gt;Node8</title>
<path fill="none" stroke="midnightblue" d="M294.009,-104.378C402.688,-100.962 550.339,-96.3202 660.708,-92.8505"/>
<polygon fill="midnightblue" stroke="midnightblue" points="661.048,-96.3416 670.934,-92.529 660.828,-89.3451 661.048,-96.3416"/>
</g>
<!-- Node9 -->
<g id="node20" class="node"><title>Node9</title>
<a xlink:href="classZendDbSchema__Db__Schema__Table__ForeignKey.html#afb55f45baab8357ce8c295e4d71bf700" target="_top" xlink:title="ZendDbSchema_Db_Schema_Table_ForeignKey\\getOnUpdate">
<polygon fill="white" stroke="black" points="334.5,-40.5 334.5,-61.5 625.5,-61.5 625.5,-40.5 334.5,-40.5"/>
<text text-anchor="middle" x="480" y="-48.5" font-family="Helvetica,sans-Serif" font-size="10.00">ZendDbSchema_Db_Schema_Table_ForeignKey\getOnUpdate</text>
</a>
</g>
<!-- Node1&#45;&gt;Node9 -->
<g id="edge22" class="edge"><title>Node1&#45;&gt;Node9</title>
<path fill="none" stroke="midnightblue" d="M204.251,-98.4748C240.313,-91.8951 287.854,-83.3118 330,-76 354.582,-71.7353 381.455,-67.2126 405.578,-63.2034"/>
<polygon fill="midnightblue" stroke="midnightblue" points="406.441,-66.6081 415.734,-61.5189 405.296,-59.7025 406.441,-66.6081"/>
</g>
<!-- Node10 -->
<g id="node23" class="node"><title>Node10</title>
<a xlink:href="classZendDbSchema__Db__Schema__Table__AbstractDefinition.html#a224b6a0c1df1d6ed40e03657782ef6fc" target="_top" xlink:title="ZendDbSchema_Db_Schema_Table_AbstractDefinition\\getTable">
<polygon fill="white" stroke="black" points="330.5,-0.5 330.5,-21.5 629.5,-21.5 629.5,-0.5 330.5,-0.5"/>
<text text-anchor="middle" x="480" y="-8.5" font-family="Helvetica,sans-Serif" font-size="10.00">ZendDbSchema_Db_Schema_Table_AbstractDefinition\getTable</text>
</a>
</g>
<!-- Node1&#45;&gt;Node10 -->
<g id="edge26" class="edge"><title>Node1&#45;&gt;Node10</title>
<path fill="none" stroke="midnightblue" d="M166.935,-98.3676C199.886,-81.2892 268.217,-47.948 330,-31 340.778,-28.0435 352.115,-25.5173 363.529,-23.36"/>
<polygon fill="midnightblue" stroke="midnightblue" points="364.343,-26.7699 373.567,-21.5577 363.106,-19.8801 364.343,-26.7699"/>
</g>
<!-- Node3 -->
<g id="node5" class="node"><title>Node3</title>
<a xlink:href="classZendDbSchema__Db__Schema__AbstractSchema.html#a55787c21deddba427842809d589c2df6" target="_top" xlink:title="ZendDbSchema_Db_Schema_AbstractSchema\\getName">
<polygon fill="white" stroke="black" points="681.5,-197.5 681.5,-218.5 948.5,-218.5 948.5,-197.5 681.5,-197.5"/>
<text text-anchor="middle" x="815" y="-205.5" font-family="Helvetica,sans-Serif" font-size="10.00">ZendDbSchema_Db_Schema_AbstractSchema\getName</text>
</a>
</g>
<!-- Node2&#45;&gt;Node3 -->
<g id="edge4" class="edge"><title>Node2&#45;&gt;Node3</title>
<path fill="none" stroke="midnightblue" d="M626.936,-206.877C641.648,-206.965 656.576,-207.054 671.254,-207.142"/>
<polygon fill="midnightblue" stroke="midnightblue" points="671.351,-210.642 681.371,-207.202 671.392,-203.642 671.351,-210.642"/>
</g>
<!-- Node4 -->
<g id="node7" class="node"><title>Node4</title>
<a xlink:href="classZendDbSchema__Db__Schema__AbstractSchema.html#a54d32c6f15463eaad2321a9f0e7225d7" target="_top" xlink:title="ZendDbSchema_Db_Schema_AbstractSchema\\__get">
<polygon fill="white" stroke="black" points="1000.5,-117.5 1000.5,-138.5 1251.5,-138.5 1251.5,-117.5 1000.5,-117.5"/>
<text text-anchor="middle" x="1126" y="-125.5" font-family="Helvetica,sans-Serif" font-size="10.00">ZendDbSchema_Db_Schema_AbstractSchema\__get</text>
</a>
</g>
<!-- Node3&#45;&gt;Node4 -->
<g id="edge6" class="edge"><title>Node3&#45;&gt;Node4</title>
<path fill="none" stroke="midnightblue" d="M916.16,-197.499C932.275,-194.945 948.677,-191.816 964,-188 1010.02,-176.539 1061.01,-156.341 1093.26,-142.575"/>
<polygon fill="midnightblue" stroke="midnightblue" points="1094.84,-145.702 1102.64,-138.526 1092.07,-139.275 1094.84,-145.702"/>
</g>
<!-- Node5 -->
<g id="node9" class="node"><title>Node5</title>
<a xlink:href="classZendDbSchema__Db__Schema__AbstractSchema.html#ac4e121ba7932163eb1950fabe06fb9db" target="_top" xlink:title="ZendDbSchema_Db_Schema_AbstractSchema\\__isset">
<polygon fill="white" stroke="black" points="1288.5,-117.5 1288.5,-138.5 1547.5,-138.5 1547.5,-117.5 1288.5,-117.5"/>
<text text-anchor="middle" x="1418" y="-125.5" font-family="Helvetica,sans-Serif" font-size="10.00">ZendDbSchema_Db_Schema_AbstractSchema\__isset</text>
</a>
</g>
<!-- Node4&#45;&gt;Node5 -->
<g id="edge8" class="edge"><title>Node4&#45;&gt;Node5</title>
<path fill="none" stroke="midnightblue" d="M1251.53,-128C1260.4,-128 1269.38,-128 1278.32,-128"/>
<polygon fill="midnightblue" stroke="midnightblue" points="1278.4,-131.5 1288.4,-128 1278.4,-124.5 1278.4,-131.5"/>
</g>
<!-- Node6&#45;&gt;Node4 -->
<g id="edge12" class="edge"><title>Node6&#45;&gt;Node4</title>
<path fill="none" stroke="midnightblue" d="M896.712,-157.49C938.953,-152.057 990.652,-145.408 1034.26,-139.799"/>
<polygon fill="midnightblue" stroke="midnightblue" points="1034.82,-143.256 1044.29,-138.509 1033.93,-136.313 1034.82,-143.256"/>
</g>
<!-- Node7&#45;&gt;Node4 -->
<g id="edge16" class="edge"><title>Node7&#45;&gt;Node4</title>
<path fill="none" stroke="midnightblue" d="M963.668,-128C972.424,-128 981.208,-128 989.91,-128"/>
<polygon fill="midnightblue" stroke="midnightblue" points="990.081,-131.5 1000.08,-128 990.081,-124.5 990.081,-131.5"/>
</g>
<!-- Node8&#45;&gt;Node4 -->
<g id="edge20" class="edge"><title>Node8&#45;&gt;Node4</title>
<path fill="none" stroke="midnightblue" d="M896.712,-98.5095C938.953,-103.943 990.652,-110.592 1034.26,-116.201"/>
<polygon fill="midnightblue" stroke="midnightblue" points="1033.93,-119.687 1044.29,-117.491 1034.82,-112.744 1033.93,-119.687"/>
</g>
<!-- Node9&#45;&gt;Node4 -->
<g id="edge24" class="edge"><title>Node9&#45;&gt;Node4</title>
<path fill="none" stroke="midnightblue" d="M625.66,-44.1011C722.469,-42.4461 851.92,-45.8739 964,-68 1011.33,-77.3439 1063.14,-98.6351 1095.12,-113.17"/>
<polygon fill="midnightblue" stroke="midnightblue" points="1093.83,-116.431 1104.38,-117.443 1096.76,-110.075 1093.83,-116.431"/>
</g>
</g>
</svg>
