<?xml version="1.0" encoding="UTF-8" standalone="no"?>
<!DOCTYPE svg PUBLIC "-//W3C//DTD SVG 1.1//EN"
 "http://www.w3.org/Graphics/SVG/1.1/DTD/svg11.dtd">
<!-- Generated by graphviz version 2.26.3 (20100126.1600)
 -->
<!-- Title: G Pages: 1 -->
<svg width="580pt" height="110pt"
 viewBox="0.00 0.00 580.00 110.00" xmlns="http://www.w3.org/2000/svg" xmlns:xlink="http://www.w3.org/1999/xlink">
<g id="graph1" class="graph" transform="scale(1 1) rotate(0) translate(4 106)">
<title>G</title>
<polygon fill="white" stroke="white" points="-4,5 -4,-106 577,-106 577,5 -4,5"/>
<!-- Node1 -->
<g id="node1" class="node"><title>Node1</title>
<polygon fill="#bfbfbf" stroke="black" points="0.5,-40.5 0.5,-61.5 233.5,-61.5 233.5,-40.5 0.5,-40.5"/>
<text text-anchor="middle" x="117" y="-48.5" font-family="Helvetica,sans-Serif" font-size="10.00">ZendDbSchema_Db_Migration_Manager\skeleton</text>
</g>
<!-- Node2 -->
<g id="node3" class="node"><title>Node2</title>
<a xlink:href="classZendDbSchema__Db__Migration__Manager.html#a94ed8ced2994cf50dcfd35a4ad831c94" target="_top" xlink:title="ZendDbSchema_Db_Migration_Manager\\getMigrationClassName">
<polygon fill="white" stroke="black" points="270.5,-80.5 270.5,-101.5 571.5,-101.5 571.5,-80.5 270.5,-80.5"/>
<text text-anchor="middle" x="421" y="-88.5" font-family="Helvetica,sans-Serif" font-size="10.00">ZendDbSchema_Db_Migration_Manager\getMigrationClassName</text>
</a>
</g>
<!-- Node1&#45;&gt;Node2 -->
<g id="edge2" class="edge"><title>Node1&#45;&gt;Node2</title>
<path fill="none" stroke="midnightblue" d="M196.872,-61.5095C238.076,-66.9311 288.486,-73.5639 331.055,-79.1652"/>
<polygon fill="midnightblue" stroke="midnightblue" points="330.763,-82.6567 341.134,-80.4913 331.676,-75.7166 330.763,-82.6567"/>
</g>
<!-- Node3 -->
<g id="node5" class="node"><title>Node3</title>
<a xlink:href="classZendDbSchema__Db__Migration__Manager.html#a2e0eae4c67d6c0a2e62b46c4692075af" target="_top" xlink:title="ZendDbSchema_Db_Migration_Manager\\getAdapter">
<polygon fill="white" stroke="black" points="299.5,-40.5 299.5,-61.5 542.5,-61.5 542.5,-40.5 299.5,-40.5"/>
<text text-anchor="middle" x="421" y="-48.5" font-family="Helvetica,sans-Serif" font-size="10.00">ZendDbSchema_Db_Migration_Manager\getAdapter</text>
</a>
</g>
<!-- Node1&#45;&gt;Node3 -->
<g id="edge4" class="edge"><title>Node1&#45;&gt;Node3</title>
<path fill="none" stroke="midnightblue" d="M233.665,-51C251.819,-51 270.685,-51 289.148,-51"/>
<polygon fill="midnightblue" stroke="midnightblue" points="289.356,-54.5001 299.356,-51 289.356,-47.5001 289.356,-54.5001"/>
</g>
<!-- Node4 -->
<g id="node7" class="node"><title>Node4</title>
<a xlink:href="classZendDbSchema__Db__Migration__Manager.html#ad93c4a0057b1965de0add4c68157c119" target="_top" xlink:title="ZendDbSchema_Db_Migration_Manager\\getPath">
<polygon fill="white" stroke="black" points="306,-0.5 306,-21.5 536,-21.5 536,-0.5 306,-0.5"/>
<text text-anchor="middle" x="421" y="-8.5" font-family="Helvetica,sans-Serif" font-size="10.00">ZendDbSchema_Db_Migration_Manager\getPath</text>
</a>
</g>
<!-- Node1&#45;&gt;Node4 -->
<g id="edge6" class="edge"><title>Node1&#45;&gt;Node4</title>
<path fill="none" stroke="midnightblue" d="M196.872,-40.4905C238.076,-35.0689 288.486,-28.4361 331.055,-22.8348"/>
<polygon fill="midnightblue" stroke="midnightblue" points="331.676,-26.2834 341.134,-21.5087 330.763,-19.3433 331.676,-26.2834"/>
</g>
</g>
</svg>
