<?xml version="1.0" encoding="UTF-8" standalone="no"?>
<!DOCTYPE svg PUBLIC "-//W3C//DTD SVG 1.1//EN"
 "http://www.w3.org/Graphics/SVG/1.1/DTD/svg11.dtd">
<!-- Generated by graphviz version 2.26.3 (20100126.1600)
 -->
<!-- Title: G Pages: 1 -->
<svg width="494pt" height="394pt"
 viewBox="0.00 0.00 494.00 394.00" xmlns="http://www.w3.org/2000/svg" xmlns:xlink="http://www.w3.org/1999/xlink">
<g id="graph1" class="graph" transform="scale(1 1) rotate(0) translate(4 390)">
<title>G</title>
<polygon fill="white" stroke="white" points="-4,5 -4,-390 491,-390 491,5 -4,5"/>
<!-- Node1 -->
<g id="node1" class="node"><title>Node1</title>
<polygon fill="#bfbfbf" stroke="black" points="164,-140.5 164,-385.5 310,-385.5 310,-140.5 164,-140.5"/>
<text text-anchor="start" x="172" y="-372.5" font-family="Helvetica,sans-Serif" font-size="10.00">ZendDbSchema_Db_Schema</text>
<text text-anchor="start" x="172" y="-359.5" font-family="Helvetica,sans-Serif" font-size="10.00">_Table_DefinitionManager</text>
<text text-anchor="middle" x="237" y="-346.5" font-family="Helvetica,sans-Serif" font-size="10.00">_AbstractManager</text>
<polyline fill="none" stroke="black" points="164,-338.5 310,-338.5 "/>
<text text-anchor="start" x="172" y="-325.5" font-family="Helvetica,sans-Serif" font-size="10.00"># $_data</text>
<text text-anchor="start" x="172" y="-312.5" font-family="Helvetica,sans-Serif" font-size="10.00"># $_table</text>
<polyline fill="none" stroke="black" points="164,-304.5 310,-304.5 "/>
<text text-anchor="start" x="172" y="-291.5" font-family="Helvetica,sans-Serif" font-size="10.00">+ __construct()</text>
<text text-anchor="start" x="172" y="-278.5" font-family="Helvetica,sans-Serif" font-size="10.00">+ refresh()</text>
<text text-anchor="start" x="172" y="-265.5" font-family="Helvetica,sans-Serif" font-size="10.00">+ setFromArray()</text>
<text text-anchor="start" x="172" y="-252.5" font-family="Helvetica,sans-Serif" font-size="10.00">+ add()</text>
<text text-anchor="start" x="172" y="-239.5" font-family="Helvetica,sans-Serif" font-size="10.00">+ isDirty()</text>
<text text-anchor="start" x="172" y="-226.5" font-family="Helvetica,sans-Serif" font-size="10.00">+ toArray()</text>
<text text-anchor="start" x="172" y="-213.5" font-family="Helvetica,sans-Serif" font-size="10.00">+ getIterator()</text>
<text text-anchor="start" x="172" y="-200.5" font-family="Helvetica,sans-Serif" font-size="10.00">+ has()</text>
<text text-anchor="start" x="172" y="-187.5" font-family="Helvetica,sans-Serif" font-size="10.00">+ get()</text>
<text text-anchor="start" x="172" y="-174.5" font-family="Helvetica,sans-Serif" font-size="10.00">+ count()</text>
<text text-anchor="start" x="172" y="-161.5" font-family="Helvetica,sans-Serif" font-size="10.00"># _getItemClass()</text>
<text text-anchor="start" x="172" y="-148.5" font-family="Helvetica,sans-Serif" font-size="10.00"># _getSchemaKey()</text>
</g>
<!-- Node2 -->
<g id="node3" class="node"><title>Node2</title>
<a xlink:href="classZendDbSchema__Db__Schema__Table__DefinitionManager__Column.html" target="_top" xlink:title="{ZendDbSchema_Db_Schema\l_Table_DefinitionManager\l_Column\n||# _getItemClass()\l# _getSchemaKey()\l}">
<polygon fill="white" stroke="black" points="0,-1 0,-103 146,-103 146,-1 0,-1"/>
<text text-anchor="start" x="8" y="-90" font-family="Helvetica,sans-Serif" font-size="10.00">ZendDbSchema_Db_Schema</text>
<text text-anchor="start" x="8" y="-77" font-family="Helvetica,sans-Serif" font-size="10.00">_Table_DefinitionManager</text>
<text text-anchor="middle" x="73" y="-64" font-family="Helvetica,sans-Serif" font-size="10.00">_Column</text>
<polyline fill="none" stroke="black" points="0,-56 146,-56 "/>
<text text-anchor="middle" x="73" y="-43" font-family="Helvetica,sans-Serif" font-size="10.00"> </text>
<polyline fill="none" stroke="black" points="0,-35 146,-35 "/>
<text text-anchor="start" x="8" y="-22" font-family="Helvetica,sans-Serif" font-size="10.00"># _getItemClass()</text>
<text text-anchor="start" x="8" y="-9" font-family="Helvetica,sans-Serif" font-size="10.00"># _getSchemaKey()</text>
</a>
</g>
<!-- Node1&#45;&gt;Node2 -->
<g id="edge2" class="edge"><title>Node1&#45;&gt;Node2</title>
<path fill="none" stroke="midnightblue" d="M157.67,-160.935C142.062,-140.854 126.325,-120.607 112.724,-103.108"/>
<polygon fill="none" stroke="midnightblue" points="154.973,-163.168 163.873,-168.916 160.5,-158.873 154.973,-163.168"/>
</g>
<!-- Node3 -->
<g id="node5" class="node"><title>Node3</title>
<a xlink:href="classZendDbSchema__Db__Schema__Table__DefinitionManager__ForeignKey.html" target="_top" xlink:title="{ZendDbSchema_Db_Schema\l_Table_DefinitionManager\l_ForeignKey\n||# _getItemClass()\l# _getSchemaKey()\l}">
<polygon fill="white" stroke="black" points="164,-1 164,-103 310,-103 310,-1 164,-1"/>
<text text-anchor="start" x="172" y="-90" font-family="Helvetica,sans-Serif" font-size="10.00">ZendDbSchema_Db_Schema</text>
<text text-anchor="start" x="172" y="-77" font-family="Helvetica,sans-Serif" font-size="10.00">_Table_DefinitionManager</text>
<text text-anchor="middle" x="237" y="-64" font-family="Helvetica,sans-Serif" font-size="10.00">_ForeignKey</text>
<polyline fill="none" stroke="black" points="164,-56 310,-56 "/>
<text text-anchor="middle" x="237" y="-43" font-family="Helvetica,sans-Serif" font-size="10.00"> </text>
<polyline fill="none" stroke="black" points="164,-35 310,-35 "/>
<text text-anchor="start" x="172" y="-22" font-family="Helvetica,sans-Serif" font-size="10.00"># _getItemClass()</text>
<text text-anchor="start" x="172" y="-9" font-family="Helvetica,sans-Serif" font-size="10.00"># _getSchemaKey()</text>
</a>
</g>
<!-- Node1&#45;&gt;Node3 -->
<g id="edge4" class="edge"><title>Node1&#45;&gt;Node3</title>
<path fill="none" stroke="midnightblue" d="M237,-130.249C237,-120.739 237,-111.547 237,-103.01"/>
<polygon fill="none" stroke="midnightblue" points="233.5,-130.26 237,-140.26 240.5,-130.26 233.5,-130.26"/>
</g>
<!-- Node4 -->
<g id="node7" class="node"><title>Node4</title>
<a xlink:href="classZendDbSchema__Db__Schema__Table__DefinitionManager__Index.html" target="_top" xlink:title="{ZendDbSchema_Db_Schema\l_Table_DefinitionManager_Index\n||# _getItemClass()\l# _getSchemaKey()\l}">
<polygon fill="white" stroke="black" points="327.5,-7.5 327.5,-96.5 486.5,-96.5 486.5,-7.5 327.5,-7.5"/>
<text text-anchor="start" x="335.5" y="-83.5" font-family="Helvetica,sans-Serif" font-size="10.00">ZendDbSchema_Db_Schema</text>
<text text-anchor="middle" x="407" y="-70.5" font-family="Helvetica,sans-Serif" font-size="10.00">_Table_DefinitionManager_Index</text>
<polyline fill="none" stroke="black" points="327.5,-62.5 486.5,-62.5 "/>
<text text-anchor="middle" x="407" y="-49.5" font-family="Helvetica,sans-Serif" font-size="10.00"> </text>
<polyline fill="none" stroke="black" points="327.5,-41.5 486.5,-41.5 "/>
<text text-anchor="start" x="335.5" y="-28.5" font-family="Helvetica,sans-Serif" font-size="10.00"># _getItemClass()</text>
<text text-anchor="start" x="335.5" y="-15.5" font-family="Helvetica,sans-Serif" font-size="10.00"># _getSchemaKey()</text>
</a>
</g>
<!-- Node1&#45;&gt;Node4 -->
<g id="edge6" class="edge"><title>Node1&#45;&gt;Node4</title>
<path fill="none" stroke="midnightblue" d="M316.523,-164.298C335.575,-140.651 354.995,-116.547 370.934,-96.7638"/>
<polygon fill="none" stroke="midnightblue" points="313.63,-162.31 310.082,-172.292 319.081,-166.701 313.63,-162.31"/>
</g>
</g>
</svg>
