<?xml version="1.0" encoding="UTF-8" standalone="no"?>
<!DOCTYPE svg PUBLIC "-//W3C//DTD SVG 1.1//EN"
 "http://www.w3.org/Graphics/SVG/1.1/DTD/svg11.dtd">
<!-- Generated by graphviz version 2.26.3 (20100126.1600)
 -->
<!-- Title: G Pages: 1 -->
<svg width="960pt" height="352pt"
 viewBox="0.00 0.00 960.00 352.00" xmlns="http://www.w3.org/2000/svg" xmlns:xlink="http://www.w3.org/1999/xlink">
<g id="graph1" class="graph" transform="scale(1 1) rotate(0) translate(4 348)">
<title>G</title>
<polygon fill="white" stroke="white" points="-4,5 -4,-348 957,-348 957,5 -4,5"/>
<!-- Node1 -->
<g id="node1" class="node"><title>Node1</title>
<polygon fill="#bfbfbf" stroke="black" points="0,-145.5 0,-192.5 146,-192.5 146,-145.5 0,-145.5"/>
<text text-anchor="start" x="8" y="-179.5" font-family="Helvetica,sans-Serif" font-size="10.00">ZendDbSchema_Db_Schema</text>
<text text-anchor="start" x="8" y="-166.5" font-family="Helvetica,sans-Serif" font-size="10.00">_Generator_Mysql_Table</text>
<text text-anchor="middle" x="73" y="-153.5" font-family="Helvetica,sans-Serif" font-size="10.00">\alterColumn</text>
</g>
<!-- Node2 -->
<g id="node3" class="node"><title>Node2</title>
<a xlink:href="classZendDbSchema__Db__Schema__Table__AbstractDefinition.html#a224b6a0c1df1d6ed40e03657782ef6fc" target="_top" xlink:title="ZendDbSchema_Db_Schema\l_Table_AbstractDefinition\l\\getTable">
<polygon fill="white" stroke="black" points="191,-296.5 191,-343.5 337,-343.5 337,-296.5 191,-296.5"/>
<text text-anchor="start" x="199" y="-330.5" font-family="Helvetica,sans-Serif" font-size="10.00">ZendDbSchema_Db_Schema</text>
<text text-anchor="start" x="199" y="-317.5" font-family="Helvetica,sans-Serif" font-size="10.00">_Table_AbstractDefinition</text>
<text text-anchor="middle" x="264" y="-304.5" font-family="Helvetica,sans-Serif" font-size="10.00">\getTable</text>
</a>
</g>
<!-- Node1&#45;&gt;Node2 -->
<g id="edge2" class="edge"><title>Node1&#45;&gt;Node2</title>
<path fill="none" stroke="midnightblue" d="M89.813,-192.752C109.373,-218.902 143.891,-260.714 182,-287 184.155,-288.487 186.388,-289.922 188.677,-291.306"/>
<polygon fill="midnightblue" stroke="midnightblue" points="187.314,-294.554 197.749,-296.389 190.736,-288.447 187.314,-294.554"/>
</g>
<!-- Node3 -->
<g id="node5" class="node"><title>Node3</title>
<a xlink:href="classZendDbSchema__Db__Schema__Table__AbstractDefinition.html#a92b77fa23ce49db1c39edcc583ec6cfe" target="_top" xlink:title="ZendDbSchema_Db_Schema\l_Table_AbstractDefinition\l\\isDirty">
<polygon fill="white" stroke="black" points="191,-230.5 191,-277.5 337,-277.5 337,-230.5 191,-230.5"/>
<text text-anchor="start" x="199" y="-264.5" font-family="Helvetica,sans-Serif" font-size="10.00">ZendDbSchema_Db_Schema</text>
<text text-anchor="start" x="199" y="-251.5" font-family="Helvetica,sans-Serif" font-size="10.00">_Table_AbstractDefinition</text>
<text text-anchor="middle" x="264" y="-238.5" font-family="Helvetica,sans-Serif" font-size="10.00">\isDirty</text>
</a>
</g>
<!-- Node1&#45;&gt;Node3 -->
<g id="edge4" class="edge"><title>Node1&#45;&gt;Node3</title>
<path fill="none" stroke="midnightblue" d="M120.724,-192.561C139.676,-201.709 161.748,-212.104 182,-221 186.143,-222.82 190.419,-224.658 194.743,-226.486"/>
<polygon fill="midnightblue" stroke="midnightblue" points="193.675,-229.833 204.251,-230.462 196.376,-223.375 193.675,-229.833"/>
</g>
<!-- Node5 -->
<g id="node9" class="node"><title>Node5</title>
<a xlink:href="classZendDbSchema__Db__Schema__AbstractSchema.html#a55787c21deddba427842809d589c2df6" target="_top" xlink:title="ZendDbSchema_Db_Schema\l_AbstractSchema\\getName">
<polygon fill="white" stroke="black" points="396,-104 396,-138 542,-138 542,-104 396,-104"/>
<text text-anchor="start" x="404" y="-125" font-family="Helvetica,sans-Serif" font-size="10.00">ZendDbSchema_Db_Schema</text>
<text text-anchor="middle" x="469" y="-112" font-family="Helvetica,sans-Serif" font-size="10.00">_AbstractSchema\getName</text>
</a>
</g>
<!-- Node1&#45;&gt;Node5 -->
<g id="edge8" class="edge"><title>Node1&#45;&gt;Node5</title>
<path fill="none" stroke="midnightblue" d="M111.574,-145.405C131.764,-134.425 157.358,-122.577 182,-117 249.284,-101.773 327.726,-104.184 385.582,-109.61"/>
<polygon fill="midnightblue" stroke="midnightblue" points="385.478,-113.117 395.774,-110.617 386.167,-106.151 385.478,-113.117"/>
</g>
<!-- Node8 -->
<g id="node15" class="node"><title>Node8</title>
<a xlink:href="classZendDbSchema__Db__Schema__AbstractSchema.html#a1680a8fd22360f74d29b641d7257a52f" target="_top" xlink:title="ZendDbSchema_Db_Schema\l_AbstractSchema\\isExist">
<polygon fill="white" stroke="black" points="191,-178 191,-212 337,-212 337,-178 191,-178"/>
<text text-anchor="start" x="199" y="-199" font-family="Helvetica,sans-Serif" font-size="10.00">ZendDbSchema_Db_Schema</text>
<text text-anchor="middle" x="264" y="-186" font-family="Helvetica,sans-Serif" font-size="10.00">_AbstractSchema\isExist</text>
</a>
</g>
<!-- Node1&#45;&gt;Node8 -->
<g id="edge14" class="edge"><title>Node1&#45;&gt;Node8</title>
<path fill="none" stroke="midnightblue" d="M146.026,-178.941C157.348,-180.482 169.117,-182.084 180.646,-183.653"/>
<polygon fill="midnightblue" stroke="midnightblue" points="180.317,-187.141 190.698,-185.022 181.261,-180.205 180.317,-187.141"/>
</g>
<!-- Node11 -->
<g id="node21" class="node"><title>Node11</title>
<a xlink:href="classZendDbSchema__Db__Schema__AbstractSchema.html#adacb1417b461310c5c87f72c459c1985" target="_top" xlink:title="ZendDbSchema_Db_Schema\l_AbstractSchema\\getOriginName">
<polygon fill="white" stroke="black" points="182.5,-126 182.5,-160 345.5,-160 345.5,-126 182.5,-126"/>
<text text-anchor="start" x="190.5" y="-147" font-family="Helvetica,sans-Serif" font-size="10.00">ZendDbSchema_Db_Schema</text>
<text text-anchor="middle" x="264" y="-134" font-family="Helvetica,sans-Serif" font-size="10.00">_AbstractSchema\getOriginName</text>
</a>
</g>
<!-- Node1&#45;&gt;Node11 -->
<g id="edge20" class="edge"><title>Node1&#45;&gt;Node11</title>
<path fill="none" stroke="midnightblue" d="M146.026,-159.059C154.673,-157.882 163.58,-156.67 172.441,-155.463"/>
<polygon fill="midnightblue" stroke="midnightblue" points="172.974,-158.923 182.411,-154.106 172.03,-151.987 172.974,-158.923"/>
</g>
<!-- Node12 -->
<g id="node24" class="node"><title>Node12</title>
<a xlink:href="classZendDbSchema__Db__Schema__Generator__Mysql__Table.html#a86ed47276429129c5962489dcd370e0e" target="_top" xlink:title="ZendDbSchema_Db_Schema\l_Generator_Mysql_Table\l\\_columnSql">
<polygon fill="white" stroke="black" points="191,-22.5 191,-69.5 337,-69.5 337,-22.5 191,-22.5"/>
<text text-anchor="start" x="199" y="-56.5" font-family="Helvetica,sans-Serif" font-size="10.00">ZendDbSchema_Db_Schema</text>
<text text-anchor="start" x="199" y="-43.5" font-family="Helvetica,sans-Serif" font-size="10.00">_Generator_Mysql_Table</text>
<text text-anchor="middle" x="264" y="-30.5" font-family="Helvetica,sans-Serif" font-size="10.00">\_columnSql</text>
</a>
</g>
<!-- Node1&#45;&gt;Node12 -->
<g id="edge24" class="edge"><title>Node1&#45;&gt;Node12</title>
<path fill="none" stroke="midnightblue" d="M99.9562,-145.144C121.277,-126.993 152.302,-102.132 182,-84 187.449,-80.6733 193.237,-77.4442 199.119,-74.3656"/>
<polygon fill="midnightblue" stroke="midnightblue" points="201.067,-77.3024 208.404,-69.6595 197.902,-71.0586 201.067,-77.3024"/>
</g>
<!-- Node4 -->
<g id="node7" class="node"><title>Node4</title>
<a xlink:href="classZendDbSchema__Db__Schema__Table__AbstractDefinition.html#ae3276a6f60f556eb468d3f2ef102a3ab" target="_top" xlink:title="ZendDbSchema_Db_Schema\l_Table_AbstractDefinition\l\\isDeleted">
<polygon fill="white" stroke="black" points="396,-230.5 396,-277.5 542,-277.5 542,-230.5 396,-230.5"/>
<text text-anchor="start" x="404" y="-264.5" font-family="Helvetica,sans-Serif" font-size="10.00">ZendDbSchema_Db_Schema</text>
<text text-anchor="start" x="404" y="-251.5" font-family="Helvetica,sans-Serif" font-size="10.00">_Table_AbstractDefinition</text>
<text text-anchor="middle" x="469" y="-238.5" font-family="Helvetica,sans-Serif" font-size="10.00">\isDeleted</text>
</a>
</g>
<!-- Node3&#45;&gt;Node4 -->
<g id="edge6" class="edge"><title>Node3&#45;&gt;Node4</title>
<path fill="none" stroke="midnightblue" d="M337.141,-254C352.799,-254 369.456,-254 385.471,-254"/>
<polygon fill="midnightblue" stroke="midnightblue" points="385.887,-257.5 395.887,-254 385.887,-250.5 385.887,-257.5"/>
</g>
<!-- Node6 -->
<g id="node11" class="node"><title>Node6</title>
<a xlink:href="classZendDbSchema__Db__Schema__AbstractSchema.html#a54d32c6f15463eaad2321a9f0e7225d7" target="_top" xlink:title="ZendDbSchema_Db_Schema\l_AbstractSchema\\__get">
<polygon fill="white" stroke="black" points="608,-52 608,-86 754,-86 754,-52 608,-52"/>
<text text-anchor="start" x="616" y="-73" font-family="Helvetica,sans-Serif" font-size="10.00">ZendDbSchema_Db_Schema</text>
<text text-anchor="middle" x="681" y="-60" font-family="Helvetica,sans-Serif" font-size="10.00">_AbstractSchema\__get</text>
</a>
</g>
<!-- Node5&#45;&gt;Node6 -->
<g id="edge10" class="edge"><title>Node5&#45;&gt;Node6</title>
<path fill="none" stroke="midnightblue" d="M538.417,-103.973C558.641,-99.0126 580.89,-93.5552 601.676,-88.4569"/>
<polygon fill="midnightblue" stroke="midnightblue" points="602.549,-91.8465 611.427,-86.065 600.881,-85.0481 602.549,-91.8465"/>
</g>
<!-- Node7 -->
<g id="node13" class="node"><title>Node7</title>
<a xlink:href="classZendDbSchema__Db__Schema__AbstractSchema.html#ac4e121ba7932163eb1950fabe06fb9db" target="_top" xlink:title="ZendDbSchema_Db_Schema\l_AbstractSchema\\__isset">
<polygon fill="white" stroke="black" points="806,-52 806,-86 952,-86 952,-52 806,-52"/>
<text text-anchor="start" x="814" y="-73" font-family="Helvetica,sans-Serif" font-size="10.00">ZendDbSchema_Db_Schema</text>
<text text-anchor="middle" x="879" y="-60" font-family="Helvetica,sans-Serif" font-size="10.00">_AbstractSchema\__isset</text>
</a>
</g>
<!-- Node6&#45;&gt;Node7 -->
<g id="edge12" class="edge"><title>Node6&#45;&gt;Node7</title>
<path fill="none" stroke="midnightblue" d="M754.165,-69C767.596,-69 781.71,-69 795.419,-69"/>
<polygon fill="midnightblue" stroke="midnightblue" points="795.805,-72.5001 805.805,-69 795.805,-65.5001 795.805,-72.5001"/>
</g>
<!-- Node9 -->
<g id="node17" class="node"><title>Node9</title>
<a xlink:href="classZendDbSchema__Db__Schema__AbstractSchema.html#a46da7a60c7e5fd605607afbc1dac4baa" target="_top" xlink:title="ZendDbSchema_Db_Schema\l_AbstractSchema\\getCleanSchema">
<polygon fill="white" stroke="black" points="382.5,-178 382.5,-212 555.5,-212 555.5,-178 382.5,-178"/>
<text text-anchor="start" x="390.5" y="-199" font-family="Helvetica,sans-Serif" font-size="10.00">ZendDbSchema_Db_Schema</text>
<text text-anchor="middle" x="469" y="-186" font-family="Helvetica,sans-Serif" font-size="10.00">_AbstractSchema\getCleanSchema</text>
</a>
</g>
<!-- Node8&#45;&gt;Node9 -->
<g id="edge16" class="edge"><title>Node8&#45;&gt;Node9</title>
<path fill="none" stroke="midnightblue" d="M337.141,-195C348.436,-195 360.25,-195 371.969,-195"/>
<polygon fill="midnightblue" stroke="midnightblue" points="372.227,-198.5 382.227,-195 372.227,-191.5 372.227,-198.5"/>
</g>
<!-- Node10 -->
<g id="node19" class="node"><title>Node10</title>
<a xlink:href="classZendDbSchema__Db__Schema__AbstractSchema.html#af99e5bb9adfe0da8c94d3d3848efe7b5" target="_top" xlink:title="ZendDbSchema_Db_Schema\l_AbstractSchema\\_getCleanSchema">
<polygon fill="white" stroke="black" points="592,-178 592,-212 770,-212 770,-178 592,-178"/>
<text text-anchor="start" x="600" y="-199" font-family="Helvetica,sans-Serif" font-size="10.00">ZendDbSchema_Db_Schema</text>
<text text-anchor="middle" x="681" y="-186" font-family="Helvetica,sans-Serif" font-size="10.00">_AbstractSchema\_getCleanSchema</text>
</a>
</g>
<!-- Node9&#45;&gt;Node10 -->
<g id="edge18" class="edge"><title>Node9&#45;&gt;Node10</title>
<path fill="none" stroke="midnightblue" d="M555.534,-195C564.175,-195 572.994,-195 581.752,-195"/>
<polygon fill="midnightblue" stroke="midnightblue" points="581.99,-198.5 591.99,-195 581.99,-191.5 581.99,-198.5"/>
</g>
<!-- Node11&#45;&gt;Node5 -->
<g id="edge22" class="edge"><title>Node11&#45;&gt;Node5</title>
<path fill="none" stroke="midnightblue" d="M345.61,-134.242C358.868,-132.819 372.612,-131.344 385.905,-129.918"/>
<polygon fill="midnightblue" stroke="midnightblue" points="386.396,-133.385 395.966,-128.838 385.649,-126.425 386.396,-133.385"/>
</g>
<!-- Node13 -->
<g id="node26" class="node"><title>Node13</title>
<a xlink:href="classZendDbSchema__Db__Schema__Table__Column.html#aeeed5820cfc4fac67507a196e9faa638" target="_top" xlink:title="ZendDbSchema_Db_Schema\l_Table_Column\\isNullable">
<polygon fill="white" stroke="black" points="396,-0 396,-34 542,-34 542,-0 396,-0"/>
<text text-anchor="start" x="404" y="-21" font-family="Helvetica,sans-Serif" font-size="10.00">ZendDbSchema_Db_Schema</text>
<text text-anchor="middle" x="469" y="-8" font-family="Helvetica,sans-Serif" font-size="10.00">_Table_Column\isNullable</text>
</a>
</g>
<!-- Node12&#45;&gt;Node13 -->
<g id="edge26" class="edge"><title>Node12&#45;&gt;Node13</title>
<path fill="none" stroke="midnightblue" d="M337.141,-35.6532C352.949,-33.417 369.773,-31.037 385.929,-28.7515"/>
<polygon fill="midnightblue" stroke="midnightblue" points="386.476,-32.2091 395.887,-27.3429 385.495,-25.2781 386.476,-32.2091"/>
</g>
<!-- Node14 -->
<g id="node29" class="node"><title>Node14</title>
<a xlink:href="classZendDbSchema__Db__Schema__Table__Column.html#a49887d783c47fa509e229ca61dd113ef" target="_top" xlink:title="ZendDbSchema_Db_Schema\l_Table_Column\\isSigned">
<polygon fill="white" stroke="black" points="396,-52 396,-86 542,-86 542,-52 396,-52"/>
<text text-anchor="start" x="404" y="-73" font-family="Helvetica,sans-Serif" font-size="10.00">ZendDbSchema_Db_Schema</text>
<text text-anchor="middle" x="469" y="-60" font-family="Helvetica,sans-Serif" font-size="10.00">_Table_Column\isSigned</text>
</a>
</g>
<!-- Node12&#45;&gt;Node14 -->
<g id="edge30" class="edge"><title>Node12&#45;&gt;Node14</title>
<path fill="none" stroke="midnightblue" d="M337.141,-54.2061C352.949,-55.9796 369.773,-57.8672 385.929,-59.6798"/>
<polygon fill="midnightblue" stroke="midnightblue" points="385.559,-63.1602 395.887,-60.797 386.339,-56.2038 385.559,-63.1602"/>
</g>
<!-- Node13&#45;&gt;Node6 -->
<g id="edge28" class="edge"><title>Node13&#45;&gt;Node6</title>
<path fill="none" stroke="midnightblue" d="M538.417,-34.0267C558.641,-38.9874 580.89,-44.4448 601.676,-49.5431"/>
<polygon fill="midnightblue" stroke="midnightblue" points="600.881,-52.9519 611.427,-51.935 602.549,-46.1535 600.881,-52.9519"/>
</g>
<!-- Node14&#45;&gt;Node6 -->
<g id="edge32" class="edge"><title>Node14&#45;&gt;Node6</title>
<path fill="none" stroke="midnightblue" d="M542.255,-69C560.129,-69 579.38,-69 597.685,-69"/>
<polygon fill="midnightblue" stroke="midnightblue" points="597.742,-72.5001 607.742,-69 597.742,-65.5001 597.742,-72.5001"/>
</g>
</g>
</svg>
