<?xml version="1.0" encoding="UTF-8" standalone="no"?>
<!DOCTYPE svg PUBLIC "-//W3C//DTD SVG 1.1//EN"
 "http://www.w3.org/Graphics/SVG/1.1/DTD/svg11.dtd">
<!-- Generated by graphviz version 2.26.3 (20100126.1600)
 -->
<!-- Title: G Pages: 1 -->
<svg width="522pt" height="70pt"
 viewBox="0.00 0.00 522.00 70.00" xmlns="http://www.w3.org/2000/svg" xmlns:xlink="http://www.w3.org/1999/xlink">
<g id="graph1" class="graph" transform="scale(1 1) rotate(0) translate(4 66)">
<title>G</title>
<polygon fill="white" stroke="white" points="-4,5 -4,-66 519,-66 519,5 -4,5"/>
<!-- Node1 -->
<g id="node1" class="node"><title>Node1</title>
<polygon fill="#bfbfbf" stroke="black" points="0,-20.5 0,-41.5 230,-41.5 230,-20.5 0,-20.5"/>
<text text-anchor="middle" x="115" y="-28.5" font-family="Helvetica,sans-Serif" font-size="10.00">ZendDbSchema_Db_Migration_Manager\getPath</text>
</g>
<!-- Node2 -->
<g id="node3" class="node"><title>Node2</title>
<a xlink:href="classZendDbSchema__Db__Migration__Manager.html#af33cb75756ed27dd86665110800003a4" target="_top" xlink:title="ZendDbSchema_Db_Migration_Manager\\__construct">
<polygon fill="white" stroke="black" points="266.5,-40.5 266.5,-61.5 513.5,-61.5 513.5,-40.5 266.5,-40.5"/>
<text text-anchor="middle" x="390" y="-48.5" font-family="Helvetica,sans-Serif" font-size="10.00">ZendDbSchema_Db_Migration_Manager\__construct</text>
</a>
</g>
<!-- Node1&#45;&gt;Node2 -->
<g id="edge2" class="edge"><title>Node1&#45;&gt;Node2</title>
<path fill="none" stroke="midnightblue" d="M240.137,-40.1009C248.778,-40.7293 257.485,-41.3626 266.12,-41.9905"/>
<polygon fill="midnightblue" stroke="midnightblue" points="240.259,-36.6006 230.031,-39.3659 239.751,-43.5821 240.259,-36.6006"/>
</g>
<!-- Node3 -->
<g id="node5" class="node"><title>Node3</title>
<a xlink:href="classZendDbSchema__Db__Migration__Manager.html#a9eb1ab3bdc90966e0aec756093b861e2" target="_top" xlink:title="ZendDbSchema_Db_Migration_Manager\\skeleton">
<polygon fill="white" stroke="black" points="273.5,-0.5 273.5,-21.5 506.5,-21.5 506.5,-0.5 273.5,-0.5"/>
<text text-anchor="middle" x="390" y="-8.5" font-family="Helvetica,sans-Serif" font-size="10.00">ZendDbSchema_Db_Migration_Manager\skeleton</text>
</a>
</g>
<!-- Node1&#45;&gt;Node3 -->
<g id="edge4" class="edge"><title>Node1&#45;&gt;Node3</title>
<path fill="none" stroke="midnightblue" d="M240.116,-21.9006C251.139,-21.099 262.269,-20.2895 273.219,-19.4931"/>
<polygon fill="midnightblue" stroke="midnightblue" points="239.751,-18.4179 230.031,-22.6341 240.259,-25.3994 239.751,-18.4179"/>
</g>
</g>
</svg>
