<?xml version="1.0" encoding="UTF-8" standalone="no"?>
<!DOCTYPE svg PUBLIC "-//W3C//DTD SVG 1.1//EN"
 "http://www.w3.org/Graphics/SVG/1.1/DTD/svg11.dtd">
<!-- Generated by graphviz version 2.26.3 (20100126.1600)
 -->
<!-- Title: G Pages: 1 -->
<svg width="816pt" height="30pt"
 viewBox="0.00 0.00 816.00 30.00" xmlns="http://www.w3.org/2000/svg" xmlns:xlink="http://www.w3.org/1999/xlink">
<g id="graph1" class="graph" transform="scale(1 1) rotate(0) translate(4 26)">
<title>G</title>
<polygon fill="white" stroke="white" points="-4,5 -4,-26 813,-26 813,5 -4,5"/>
<!-- Node1 -->
<g id="node1" class="node"><title>Node1</title>
<polygon fill="#bfbfbf" stroke="black" points="0,-0.5 0,-21.5 244,-21.5 244,-0.5 0,-0.5"/>
<text text-anchor="middle" x="122" y="-8.5" font-family="Helvetica,sans-Serif" font-size="10.00">ZendDbSchema_Db_Migration_Skeleton\setAdapter</text>
</g>
<!-- Node2 -->
<g id="node3" class="node"><title>Node2</title>
<a xlink:href="classZendDbSchema__Db__Migration__Skeleton.html#a1d08bca816aaff3ac27087d5e5daa2ff" target="_top" xlink:title="ZendDbSchema_Db_Migration_Skeleton\\getAdapter">
<polygon fill="white" stroke="black" points="280,-0.5 280,-21.5 524,-21.5 524,-0.5 280,-0.5"/>
<text text-anchor="middle" x="402" y="-8.5" font-family="Helvetica,sans-Serif" font-size="10.00">ZendDbSchema_Db_Migration_Skeleton\getAdapter</text>
</a>
</g>
<!-- Node1&#45;&gt;Node2 -->
<g id="edge2" class="edge"><title>Node1&#45;&gt;Node2</title>
<path fill="none" stroke="midnightblue" d="M254.648,-11C263.066,-11 271.52,-11 279.888,-11"/>
<polygon fill="midnightblue" stroke="midnightblue" points="254.405,-7.5001 244.405,-11 254.405,-14.5001 254.405,-7.5001"/>
</g>
<!-- Node3 -->
<g id="node5" class="node"><title>Node3</title>
<a xlink:href="classZendDbSchema__Db__Migration__Skeleton.html#a58a0cbc3ea2139c107db1c19d4a6b60d" target="_top" xlink:title="ZendDbSchema_Db_Migration_Skeleton\\addSchema">
<polygon fill="white" stroke="black" points="560,-0.5 560,-21.5 808,-21.5 808,-0.5 560,-0.5"/>
<text text-anchor="middle" x="684" y="-8.5" font-family="Helvetica,sans-Serif" font-size="10.00">ZendDbSchema_Db_Migration_Skeleton\addSchema</text>
</a>
</g>
<!-- Node2&#45;&gt;Node3 -->
<g id="edge4" class="edge"><title>Node2&#45;&gt;Node3</title>
<path fill="none" stroke="midnightblue" d="M534.133,-11C542.746,-11 551.404,-11 559.977,-11"/>
<polygon fill="midnightblue" stroke="midnightblue" points="534.049,-7.5001 524.049,-11 534.049,-14.5001 534.049,-7.5001"/>
</g>
</g>
</svg>
