<?xml version="1.0" encoding="UTF-8" standalone="no"?>
<!DOCTYPE svg PUBLIC "-//W3C//DTD SVG 1.1//EN"
 "http://www.w3.org/Graphics/SVG/1.1/DTD/svg11.dtd">
<!-- Generated by graphviz version 2.26.3 (20100126.1600)
 -->
<!-- Title: G Pages: 1 -->
<svg width="2280pt" height="666pt"
 viewBox="0.00 0.00 2280.00 666.00" xmlns="http://www.w3.org/2000/svg" xmlns:xlink="http://www.w3.org/1999/xlink">
<g id="graph1" class="graph" transform="scale(1 1) rotate(0) translate(4 662)">
<title>G</title>
<polygon fill="white" stroke="white" points="-4,5 -4,-662 2277,-662 2277,5 -4,5"/>
<!-- Node1 -->
<g id="node1" class="node"><title>Node1</title>
<polygon fill="#bfbfbf" stroke="black" points="0.5,-198.5 0.5,-219.5 267.5,-219.5 267.5,-198.5 0.5,-198.5"/>
<text text-anchor="middle" x="134" y="-206.5" font-family="Helvetica,sans-Serif" font-size="10.00">ZendDbSchema_Db_Schema_AbstractSchema\getName</text>
</g>
<!-- Node2 -->
<g id="node3" class="node"><title>Node2</title>
<a xlink:href="classZendDbSchema__Db__Schema__Generator__Mysql.html#a57a5e637e2c19faee40597d96d6b71b3" target="_top" xlink:title="ZendDbSchema_Db_Schema_Generator_Mysql\\alterColumn">
<polygon fill="white" stroke="black" points="676.5,-636.5 676.5,-657.5 957.5,-657.5 957.5,-636.5 676.5,-636.5"/>
<text text-anchor="middle" x="817" y="-644.5" font-family="Helvetica,sans-Serif" font-size="10.00">ZendDbSchema_Db_Schema_Generator_Mysql\alterColumn</text>
</a>
</g>
<!-- Node1&#45;&gt;Node2 -->
<g id="edge2" class="edge"><title>Node1&#45;&gt;Node2</title>
<path fill="none" stroke="midnightblue" d="M138.027,-229.549C150.762,-288.828 195.893,-461.362 304,-547 409.267,-630.388 564.279,-650.781 676.334,-653.147"/>
<polygon fill="midnightblue" stroke="midnightblue" points="141.412,-228.636 135.96,-219.552 134.557,-230.054 141.412,-228.636"/>
</g>
<!-- Node3 -->
<g id="node5" class="node"><title>Node3</title>
<a xlink:href="classZendDbSchema__Db__Schema__Generator__Mysql.html#a5ffe10ce956b3e189c364d2bd03acf88" target="_top" xlink:title="ZendDbSchema_Db_Schema_Generator_Mysql\\alterDatabase">
<polygon fill="white" stroke="black" points="308,-238.5 308,-259.5 598,-259.5 598,-238.5 308,-238.5"/>
<text text-anchor="middle" x="453" y="-246.5" font-family="Helvetica,sans-Serif" font-size="10.00">ZendDbSchema_Db_Schema_Generator_Mysql\alterDatabase</text>
</a>
</g>
<!-- Node1&#45;&gt;Node3 -->
<g id="edge4" class="edge"><title>Node1&#45;&gt;Node3</title>
<path fill="none" stroke="midnightblue" d="M227.824,-220.765C272.614,-226.381 325.775,-233.047 369.193,-238.491"/>
<polygon fill="midnightblue" stroke="midnightblue" points="228.171,-217.281 217.813,-219.51 227.3,-224.227 228.171,-217.281"/>
</g>
<!-- Node4 -->
<g id="node7" class="node"><title>Node4</title>
<a xlink:href="classZendDbSchema__Db__Schema__Generator__Mysql.html#aebe278ab07f38d58f8f440f9cad01565" target="_top" xlink:title="ZendDbSchema_Db_Schema_Generator_Mysql\\alterTable">
<polygon fill="white" stroke="black" points="681,-596.5 681,-617.5 953,-617.5 953,-596.5 681,-596.5"/>
<text text-anchor="middle" x="817" y="-604.5" font-family="Helvetica,sans-Serif" font-size="10.00">ZendDbSchema_Db_Schema_Generator_Mysql\alterTable</text>
</a>
</g>
<!-- Node1&#45;&gt;Node4 -->
<g id="edge6" class="edge"><title>Node1&#45;&gt;Node4</title>
<path fill="none" stroke="midnightblue" d="M140.634,-229.334C158.422,-280.632 212.162,-416.248 304,-487 426.752,-581.568 486.167,-556.05 638,-587 656.69,-590.81 676.637,-593.94 696.179,-596.497"/>
<polygon fill="midnightblue" stroke="midnightblue" points="143.902,-228.072 137.383,-219.721 137.271,-230.315 143.902,-228.072"/>
</g>
<!-- Node5 -->
<g id="node9" class="node"><title>Node5</title>
<a xlink:href="classZendDbSchema__Db__Schema__Generator__Mysql.html#a86040ff7c424a0ad7e5f4aadeec20a4c" target="_top" xlink:title="ZendDbSchema_Db_Schema_Generator_Mysql\\createColumn">
<polygon fill="white" stroke="black" points="308,-198.5 308,-219.5 598,-219.5 598,-198.5 308,-198.5"/>
<text text-anchor="middle" x="453" y="-206.5" font-family="Helvetica,sans-Serif" font-size="10.00">ZendDbSchema_Db_Schema_Generator_Mysql\createColumn</text>
</a>
</g>
<!-- Node1&#45;&gt;Node5 -->
<g id="edge8" class="edge"><title>Node1&#45;&gt;Node5</title>
<path fill="none" stroke="midnightblue" d="M278.16,-209C288.041,-209 298.001,-209 307.887,-209"/>
<polygon fill="midnightblue" stroke="midnightblue" points="277.898,-205.5 267.898,-209 277.898,-212.5 277.898,-205.5"/>
</g>
<!-- Node6 -->
<g id="node11" class="node"><title>Node6</title>
<a xlink:href="classZendDbSchema__Db__Schema__Generator__Mysql.html#a823d987af06bbcaa2142f2da3c6fd3c2" target="_top" xlink:title="ZendDbSchema_Db_Schema_Generator_Mysql\\createDatabase">
<polygon fill="white" stroke="black" points="304,-158.5 304,-179.5 602,-179.5 602,-158.5 304,-158.5"/>
<text text-anchor="middle" x="453" y="-166.5" font-family="Helvetica,sans-Serif" font-size="10.00">ZendDbSchema_Db_Schema_Generator_Mysql\createDatabase</text>
</a>
</g>
<!-- Node1&#45;&gt;Node6 -->
<g id="edge10" class="edge"><title>Node1&#45;&gt;Node6</title>
<path fill="none" stroke="midnightblue" d="M227.824,-197.235C272.614,-191.619 325.775,-184.953 369.193,-179.509"/>
<polygon fill="midnightblue" stroke="midnightblue" points="227.3,-193.773 217.813,-198.49 228.171,-200.719 227.3,-193.773"/>
</g>
<!-- Node7 -->
<g id="node13" class="node"><title>Node7</title>
<a xlink:href="classZendDbSchema__Db__Schema__Generator__Mysql.html#a5546e56c0c78f9c9d3e830fb5ffcd72d" target="_top" xlink:title="ZendDbSchema_Db_Schema_Generator_Mysql\\createIndex">
<polygon fill="white" stroke="black" points="677,-100.5 677,-121.5 957,-121.5 957,-100.5 677,-100.5"/>
<text text-anchor="middle" x="817" y="-108.5" font-family="Helvetica,sans-Serif" font-size="10.00">ZendDbSchema_Db_Schema_Generator_Mysql\createIndex</text>
</a>
</g>
<!-- Node1&#45;&gt;Node7 -->
<g id="edge12" class="edge"><title>Node1&#45;&gt;Node7</title>
<path fill="none" stroke="midnightblue" d="M166.994,-194.4C200.708,-180.191 254.931,-159.285 304,-149 428.336,-122.938 572.89,-114.107 676.801,-111.404"/>
<polygon fill="midnightblue" stroke="midnightblue" points="165.457,-191.25 157.634,-198.395 168.205,-197.688 165.457,-191.25"/>
</g>
<!-- Node9 -->
<g id="node17" class="node"><title>Node9</title>
<a xlink:href="classZendDbSchema__Db__Schema__Generator__Mysql.html#add2a0dcdb35c6ef230b09ad31d141b29" target="_top" xlink:title="ZendDbSchema_Db_Schema_Generator_Mysql\\createTable">
<polygon fill="white" stroke="black" points="313,-40.5 313,-61.5 593,-61.5 593,-40.5 313,-40.5"/>
<text text-anchor="middle" x="453" y="-48.5" font-family="Helvetica,sans-Serif" font-size="10.00">ZendDbSchema_Db_Schema_Generator_Mysql\createTable</text>
</a>
</g>
<!-- Node1&#45;&gt;Node9 -->
<g id="edge16" class="edge"><title>Node1&#45;&gt;Node9</title>
<path fill="none" stroke="midnightblue" d="M149.998,-190.658C177.863,-160.075 238.605,-99.2402 304,-71 312.746,-67.2232 322.027,-64.1167 331.512,-61.5664"/>
<polygon fill="midnightblue" stroke="midnightblue" points="147.101,-188.647 143.034,-198.43 152.315,-193.318 147.101,-188.647"/>
</g>
<!-- Node10 -->
<g id="node19" class="node"><title>Node10</title>
<a xlink:href="classZendDbSchema__Db__Schema__Generator__Mysql.html#a6fef0a3176c0e99d533b1790c7ae0301" target="_top" xlink:title="ZendDbSchema_Db_Schema_Generator_Mysql\\dropColumn">
<polygon fill="white" stroke="black" points="312.5,-0.5 312.5,-21.5 593.5,-21.5 593.5,-0.5 312.5,-0.5"/>
<text text-anchor="middle" x="453" y="-8.5" font-family="Helvetica,sans-Serif" font-size="10.00">ZendDbSchema_Db_Schema_Generator_Mysql\dropColumn</text>
</a>
</g>
<!-- Node1&#45;&gt;Node10 -->
<g id="edge18" class="edge"><title>Node1&#45;&gt;Node10</title>
<path fill="none" stroke="midnightblue" d="M145.89,-189.655C170.272,-151.881 229.926,-68.7116 304,-31 311.327,-27.2699 319.106,-24.155 327.116,-21.5603"/>
<polygon fill="midnightblue" stroke="midnightblue" points="142.856,-187.904 140.463,-198.226 148.77,-191.649 142.856,-187.904"/>
</g>
<!-- Node11 -->
<g id="node21" class="node"><title>Node11</title>
<a xlink:href="classZendDbSchema__Db__Schema__Generator__Mysql.html#a196fb89cf511d31c7124169247de1a6d" target="_top" xlink:title="ZendDbSchema_Db_Schema_Generator_Mysql\\dropIndex">
<polygon fill="white" stroke="black" points="317,-80.5 317,-101.5 589,-101.5 589,-80.5 317,-80.5"/>
<text text-anchor="middle" x="453" y="-88.5" font-family="Helvetica,sans-Serif" font-size="10.00">ZendDbSchema_Db_Schema_Generator_Mysql\dropIndex</text>
</a>
</g>
<!-- Node1&#45;&gt;Node11 -->
<g id="edge20" class="edge"><title>Node1&#45;&gt;Node11</title>
<path fill="none" stroke="midnightblue" d="M157.716,-192.656C189.524,-171.547 248.449,-135.24 304,-116 321.969,-109.777 341.711,-105.073 360.78,-101.528"/>
<polygon fill="midnightblue" stroke="midnightblue" points="155.467,-189.95 149.118,-198.432 159.371,-195.761 155.467,-189.95"/>
</g>
<!-- Node12 -->
<g id="node24" class="node"><title>Node12</title>
<a xlink:href="classZendDbSchema__Db__Schema__AbstractSchema.html#adacb1417b461310c5c87f72c459c1985" target="_top" xlink:title="ZendDbSchema_Db_Schema_AbstractSchema\\getOriginName">
<polygon fill="white" stroke="black" points="306.5,-456.5 306.5,-477.5 599.5,-477.5 599.5,-456.5 306.5,-456.5"/>
<text text-anchor="middle" x="453" y="-464.5" font-family="Helvetica,sans-Serif" font-size="10.00">ZendDbSchema_Db_Schema_AbstractSchema\getOriginName</text>
</a>
</g>
<!-- Node1&#45;&gt;Node12 -->
<g id="edge24" class="edge"><title>Node1&#45;&gt;Node12</title>
<path fill="none" stroke="midnightblue" d="M155.115,-226.077C216.024,-275.339 390.829,-416.718 439.995,-456.482"/>
<polygon fill="midnightblue" stroke="midnightblue" points="157.277,-223.325 147.301,-219.757 152.875,-228.767 157.277,-223.325"/>
</g>
<!-- Node20 -->
<g id="node43" class="node"><title>Node20</title>
<a xlink:href="classZendDbSchema__Db__Schema__AbstractEntity.html#a5b1c93da76c3708f90d330b4643e55b2" target="_top" xlink:title="ZendDbSchema_Db_Schema_AbstractEntity\\save">
<polygon fill="white" stroke="black" points="1537,-337.5 1537,-358.5 1775,-358.5 1775,-337.5 1537,-337.5"/>
<text text-anchor="middle" x="1656" y="-345.5" font-family="Helvetica,sans-Serif" font-size="10.00">ZendDbSchema_Db_Schema_AbstractEntity\save</text>
</a>
</g>
<!-- Node1&#45;&gt;Node20 -->
<g id="edge62" class="edge"><title>Node1&#45;&gt;Node20</title>
<path fill="none" stroke="midnightblue" d="M166.381,-223.553C200.02,-237.92 254.555,-259.128 304,-269 606.057,-329.311 688.507,-289.007 996,-307 1185.1,-318.066 1404.62,-331.899 1536.78,-340.336"/>
<polygon fill="midnightblue" stroke="midnightblue" points="167.623,-220.277 157.055,-219.516 164.842,-226.701 167.623,-220.277"/>
</g>
<!-- Node8 -->
<g id="node15" class="node"><title>Node8</title>
<a xlink:href="classZendDbSchema__Db__Schema__Generator__Mysql.html#a0f94d6cabe125b387efa64fc7160a9e5" target="_top" xlink:title="ZendDbSchema_Db_Schema_Generator_Mysql\\alterIndex">
<polygon fill="white" stroke="black" points="1097,-100.5 1097,-121.5 1369,-121.5 1369,-100.5 1097,-100.5"/>
<text text-anchor="middle" x="1233" y="-108.5" font-family="Helvetica,sans-Serif" font-size="10.00">ZendDbSchema_Db_Schema_Generator_Mysql\alterIndex</text>
</a>
</g>
<!-- Node7&#45;&gt;Node8 -->
<g id="edge14" class="edge"><title>Node7&#45;&gt;Node8</title>
<path fill="none" stroke="midnightblue" d="M967.365,-111C1009.68,-111 1055.45,-111 1096.87,-111"/>
<polygon fill="midnightblue" stroke="midnightblue" points="967.259,-107.5 957.259,-111 967.259,-114.5 967.259,-107.5"/>
</g>
<!-- Node11&#45;&gt;Node7 -->
<g id="edge22" class="edge"><title>Node11&#45;&gt;Node7</title>
<path fill="none" stroke="midnightblue" d="M599.201,-99.033C624.814,-100.44 651.412,-101.902 676.856,-103.3"/>
<polygon fill="midnightblue" stroke="midnightblue" points="599.235,-95.5297 589.058,-98.4757 598.851,-102.519 599.235,-95.5297"/>
</g>
<!-- Node12&#45;&gt;Node2 -->
<g id="edge28" class="edge"><title>Node12&#45;&gt;Node2</title>
<path fill="none" stroke="midnightblue" d="M474.455,-483.836C503.88,-507.153 558.107,-550.943 602,-591 618.714,-606.253 617.609,-617.192 638,-627 649.976,-632.761 662.909,-637.16 676.152,-640.491"/>
<polygon fill="midnightblue" stroke="midnightblue" points="476.516,-481.004 466.5,-477.552 472.177,-486.497 476.516,-481.004"/>
</g>
<!-- Node12&#45;&gt;Node4 -->
<g id="edge26" class="edge"><title>Node12&#45;&gt;Node4</title>
<path fill="none" stroke="midnightblue" d="M502.895,-480.697C533.904,-491.047 573.204,-507.682 602,-532 624.321,-550.85 613.112,-571.698 638,-587 651.053,-595.025 665.666,-600.711 680.765,-604.659"/>
<polygon fill="midnightblue" stroke="midnightblue" points="503.734,-477.29 493.142,-477.555 501.588,-483.953 503.734,-477.29"/>
</g>
<!-- Node13 -->
<g id="node28" class="node"><title>Node13</title>
<a xlink:href="classZendDbSchema__Db__Schema__Generator__Mysql.html#a4b0c6d7fbd4d21f027facb6e495d1f6b" target="_top" xlink:title="ZendDbSchema_Db_Schema_Generator_Mysql\\addForeignKey">
<polygon fill="white" stroke="black" points="670,-516.5 670,-537.5 964,-537.5 964,-516.5 670,-516.5"/>
<text text-anchor="middle" x="817" y="-524.5" font-family="Helvetica,sans-Serif" font-size="10.00">ZendDbSchema_Db_Schema_Generator_Mysql\addForeignKey</text>
</a>
</g>
<!-- Node12&#45;&gt;Node13 -->
<g id="edge30" class="edge"><title>Node12&#45;&gt;Node13</title>
<path fill="none" stroke="midnightblue" d="M505.773,-479.906C542.635,-488.552 593.092,-499.656 638,-507 660.219,-510.634 684.099,-513.805 706.948,-516.488"/>
<polygon fill="midnightblue" stroke="midnightblue" points="506.29,-476.432 495.753,-477.538 504.679,-483.244 506.29,-476.432"/>
</g>
<!-- Node15 -->
<g id="node32" class="node"><title>Node15</title>
<a xlink:href="classZendDbSchema__Db__Schema__Generator__Mysql.html#afa7990c889464576d30d4a110e9b0fac" target="_top" xlink:title="ZendDbSchema_Db_Schema_Generator_Mysql\\dropForeignKey">
<polygon fill="white" stroke="black" points="668.5,-476.5 668.5,-497.5 965.5,-497.5 965.5,-476.5 668.5,-476.5"/>
<text text-anchor="middle" x="817" y="-484.5" font-family="Helvetica,sans-Serif" font-size="10.00">ZendDbSchema_Db_Schema_Generator_Mysql\dropForeignKey</text>
</a>
</g>
<!-- Node12&#45;&gt;Node15 -->
<g id="edge34" class="edge"><title>Node12&#45;&gt;Node15</title>
<path fill="none" stroke="midnightblue" d="M609.853,-475.618C629.267,-476.685 649.069,-477.773 668.355,-478.833"/>
<polygon fill="midnightblue" stroke="midnightblue" points="609.918,-472.117 599.741,-475.063 609.534,-479.106 609.918,-472.117"/>
</g>
<!-- Node16 -->
<g id="node35" class="node"><title>Node16</title>
<a xlink:href="classZendDbSchema__Db__Schema__AbstractEntity.html#aa35a80275bd3c811dd8ad39835a985a9" target="_top" xlink:title="ZendDbSchema_Db_Schema_AbstractEntity\\reload">
<polygon fill="white" stroke="black" points="695.5,-436.5 695.5,-457.5 938.5,-457.5 938.5,-436.5 695.5,-436.5"/>
<text text-anchor="middle" x="817" y="-444.5" font-family="Helvetica,sans-Serif" font-size="10.00">ZendDbSchema_Db_Schema_AbstractEntity\reload</text>
</a>
</g>
<!-- Node12&#45;&gt;Node16 -->
<g id="edge38" class="edge"><title>Node12&#45;&gt;Node16</title>
<path fill="none" stroke="midnightblue" d="M609.844,-458.382C638.519,-456.807 668.043,-455.184 695.495,-453.676"/>
<polygon fill="midnightblue" stroke="midnightblue" points="609.534,-454.894 599.741,-458.937 609.918,-461.883 609.534,-454.894"/>
</g>
<!-- Node21 -->
<g id="node45" class="node"><title>Node21</title>
<a xlink:href="classZendDbSchema__Db__Schema__Database.html#aad388b374fd5913946204230760b2d86" target="_top" xlink:title="ZendDbSchema_Db_Schema_Database\\_doReload">
<polygon fill="white" stroke="black" points="695.5,-396.5 695.5,-417.5 938.5,-417.5 938.5,-396.5 695.5,-396.5"/>
<text text-anchor="middle" x="817" y="-404.5" font-family="Helvetica,sans-Serif" font-size="10.00">ZendDbSchema_Db_Schema_Database\_doReload</text>
</a>
</g>
<!-- Node12&#45;&gt;Node21 -->
<g id="edge48" class="edge"><title>Node12&#45;&gt;Node21</title>
<path fill="none" stroke="midnightblue" d="M505.773,-454.094C542.635,-445.448 593.092,-434.344 638,-427 660.219,-423.366 684.099,-420.195 706.948,-417.512"/>
<polygon fill="midnightblue" stroke="midnightblue" points="504.679,-450.756 495.753,-456.462 506.29,-457.568 504.679,-450.756"/>
</g>
<!-- Node22 -->
<g id="node47" class="node"><title>Node22</title>
<a xlink:href="classZendDbSchema__Db__Schema__Table.html#abc05b1f219611fefdd0e9eaeff1761d9" target="_top" xlink:title="ZendDbSchema_Db_Schema_Table\\_doReload">
<polygon fill="white" stroke="black" points="704.5,-356.5 704.5,-377.5 929.5,-377.5 929.5,-356.5 704.5,-356.5"/>
<text text-anchor="middle" x="817" y="-364.5" font-family="Helvetica,sans-Serif" font-size="10.00">ZendDbSchema_Db_Schema_Table\_doReload</text>
</a>
</g>
<!-- Node12&#45;&gt;Node22 -->
<g id="edge50" class="edge"><title>Node12&#45;&gt;Node22</title>
<path fill="none" stroke="midnightblue" d="M481.559,-451.457C517.105,-432.874 580.193,-402.36 638,-387 659.155,-381.379 682.124,-377.337 704.334,-374.43"/>
<polygon fill="midnightblue" stroke="midnightblue" points="479.494,-448.59 472.291,-456.36 482.767,-454.778 479.494,-448.59"/>
</g>
<!-- Node23 -->
<g id="node49" class="node"><title>Node23</title>
<a xlink:href="classZendDbSchema__Db__Schema__Table__AbstractDefinition.html#a355febe0ff6ed1a3b95ae1edd91b807e" target="_top" xlink:title="ZendDbSchema_Db_Schema_Table_AbstractDefinition\\_getCleanSchema">
<polygon fill="white" stroke="black" points="646,-316.5 646,-337.5 988,-337.5 988,-316.5 646,-316.5"/>
<text text-anchor="middle" x="817" y="-324.5" font-family="Helvetica,sans-Serif" font-size="10.00">ZendDbSchema_Db_Schema_Table_AbstractDefinition\_getCleanSchema</text>
</a>
</g>
<!-- Node12&#45;&gt;Node23 -->
<g id="edge52" class="edge"><title>Node12&#45;&gt;Node23</title>
<path fill="none" stroke="midnightblue" d="M472.662,-449.716C504.748,-422.618 571.486,-370.779 638,-347 648.6,-343.21 659.759,-340.091 671.109,-337.529"/>
<polygon fill="midnightblue" stroke="midnightblue" points="470.234,-447.187 464.915,-456.35 474.787,-452.504 470.234,-447.187"/>
</g>
<!-- Node24 -->
<g id="node51" class="node"><title>Node24</title>
<a xlink:href="classZendDbSchema__Db__Schema__Table__DefinitionManager__AbstractManager.html#a6d815884ca03c003ac7f8d633e97f7c6" target="_top" xlink:title="ZendDbSchema_Db_Schema_Table_DefinitionManager_AbstractManager\\add">
<polygon fill="white" stroke="black" points="638,-556.5 638,-577.5 996,-577.5 996,-556.5 638,-556.5"/>
<text text-anchor="middle" x="817" y="-564.5" font-family="Helvetica,sans-Serif" font-size="10.00">ZendDbSchema_Db_Schema_Table_DefinitionManager_AbstractManager\add</text>
</a>
</g>
<!-- Node12&#45;&gt;Node24 -->
<g id="edge54" class="edge"><title>Node12&#45;&gt;Node24</title>
<path fill="none" stroke="midnightblue" d="M486.508,-481.639C538.749,-504.441 634.08,-545.958 638,-547 652.506,-550.854 667.865,-553.967 683.248,-556.479"/>
<polygon fill="midnightblue" stroke="midnightblue" points="487.851,-478.406 477.286,-477.613 485.051,-484.822 487.851,-478.406"/>
</g>
<!-- Node14 -->
<g id="node30" class="node"><title>Node14</title>
<a xlink:href="classZendDbSchema__Db__Schema__Generator__Mysql.html#a16b347a1c95888775b09d14505bae2b2" target="_top" xlink:title="ZendDbSchema_Db_Schema_Generator_Mysql\\alterForeignKey">
<polygon fill="white" stroke="black" points="1084.5,-496.5 1084.5,-517.5 1381.5,-517.5 1381.5,-496.5 1084.5,-496.5"/>
<text text-anchor="middle" x="1233" y="-504.5" font-family="Helvetica,sans-Serif" font-size="10.00">ZendDbSchema_Db_Schema_Generator_Mysql\alterForeignKey</text>
</a>
</g>
<!-- Node13&#45;&gt;Node14 -->
<g id="edge32" class="edge"><title>Node13&#45;&gt;Node14</title>
<path fill="none" stroke="midnightblue" d="M974.35,-519.435C1010.37,-517.703 1048.55,-515.868 1084.19,-514.154"/>
<polygon fill="midnightblue" stroke="midnightblue" points="974.072,-515.944 964.251,-519.921 974.408,-522.936 974.072,-515.944"/>
</g>
<!-- Node15&#45;&gt;Node14 -->
<g id="edge36" class="edge"><title>Node15&#45;&gt;Node14</title>
<path fill="none" stroke="midnightblue" d="M975.731,-494.631C1011.44,-496.348 1049.21,-498.164 1084.48,-499.86"/>
<polygon fill="midnightblue" stroke="midnightblue" points="975.874,-491.134 965.717,-494.15 975.537,-498.126 975.874,-491.134"/>
</g>
<!-- Node17 -->
<g id="node37" class="node"><title>Node17</title>
<a xlink:href="classZendDbSchema__Db__Schema__AbstractEntity.html#ad92ca2449257a587b336367f109cdde2" target="_top" xlink:title="ZendDbSchema_Db_Schema_AbstractEntity\\__wakeup">
<polygon fill="white" stroke="black" points="1102.5,-396.5 1102.5,-417.5 1363.5,-417.5 1363.5,-396.5 1102.5,-396.5"/>
<text text-anchor="middle" x="1233" y="-404.5" font-family="Helvetica,sans-Serif" font-size="10.00">ZendDbSchema_Db_Schema_AbstractEntity\__wakeup</text>
</a>
</g>
<!-- Node16&#45;&gt;Node17 -->
<g id="edge40" class="edge"><title>Node16&#45;&gt;Node17</title>
<path fill="none" stroke="midnightblue" d="M936.418,-435.517C995.429,-429.843 1066.14,-423.045 1123.71,-417.509"/>
<polygon fill="midnightblue" stroke="midnightblue" points="935.918,-432.049 926.299,-436.49 936.588,-439.017 935.918,-432.049"/>
</g>
<!-- Node18 -->
<g id="node39" class="node"><title>Node18</title>
<a xlink:href="classZendDbSchema__Db__Schema__AbstractEntity.html#abee9675e11d86dace1abed3d94a0fda1" target="_top" xlink:title="ZendDbSchema_Db_Schema_AbstractEntity\\refresh">
<polygon fill="white" stroke="black" points="1109.5,-436.5 1109.5,-457.5 1356.5,-457.5 1356.5,-436.5 1109.5,-436.5"/>
<text text-anchor="middle" x="1233" y="-444.5" font-family="Helvetica,sans-Serif" font-size="10.00">ZendDbSchema_Db_Schema_AbstractEntity\refresh</text>
</a>
</g>
<!-- Node16&#45;&gt;Node18 -->
<g id="edge42" class="edge"><title>Node16&#45;&gt;Node18</title>
<path fill="none" stroke="midnightblue" d="M948.898,-447C1000.28,-447 1058.84,-447 1109.4,-447"/>
<polygon fill="midnightblue" stroke="midnightblue" points="948.723,-443.5 938.723,-447 948.723,-450.5 948.723,-443.5"/>
</g>
<!-- Node19 -->
<g id="node41" class="node"><title>Node19</title>
<a xlink:href="classZendDbSchema__Db__Schema__AbstractEntity.html#a26fcff2268495fcdbfa265f394ee93d9" target="_top" xlink:title="ZendDbSchema_Db_Schema_AbstractEntity\\delete">
<polygon fill="white" stroke="black" points="1534.5,-436.5 1534.5,-457.5 1777.5,-457.5 1777.5,-436.5 1534.5,-436.5"/>
<text text-anchor="middle" x="1656" y="-444.5" font-family="Helvetica,sans-Serif" font-size="10.00">ZendDbSchema_Db_Schema_AbstractEntity\delete</text>
</a>
</g>
<!-- Node18&#45;&gt;Node19 -->
<g id="edge44" class="edge"><title>Node18&#45;&gt;Node19</title>
<path fill="none" stroke="midnightblue" d="M1367.04,-447C1420.67,-447 1482.01,-447 1534.34,-447"/>
<polygon fill="midnightblue" stroke="midnightblue" points="1366.77,-443.5 1356.77,-447 1366.77,-450.5 1366.77,-443.5"/>
</g>
<!-- Node18&#45;&gt;Node20 -->
<g id="edge46" class="edge"><title>Node18&#45;&gt;Node20</title>
<path fill="none" stroke="midnightblue" d="M1366.55,-438.298C1389.21,-435.516 1412.39,-431.845 1434,-427 1508.45,-410.311 1592.25,-376.01 1632.26,-358.616"/>
<polygon fill="midnightblue" stroke="midnightblue" points="1366.05,-434.833 1356.53,-439.476 1366.87,-441.785 1366.05,-434.833"/>
</g>
<!-- Node25 -->
<g id="node53" class="node"><title>Node25</title>
<a xlink:href="classZendDbSchema__Db__Schema__Table__DefinitionManager__AbstractManager.html#a40677ee7cb91e19c1587bdda9e73d3d5" target="_top" xlink:title="ZendDbSchema_Db_Schema_Table_DefinitionManager_AbstractManager\\setFromArray">
<polygon fill="white" stroke="black" points="1032.5,-556.5 1032.5,-577.5 1433.5,-577.5 1433.5,-556.5 1032.5,-556.5"/>
<text text-anchor="middle" x="1233" y="-564.5" font-family="Helvetica,sans-Serif" font-size="10.00">ZendDbSchema_Db_Schema_Table_DefinitionManager_AbstractManager\setFromArray</text>
</a>
</g>
<!-- Node24&#45;&gt;Node25 -->
<g id="edge56" class="edge"><title>Node24&#45;&gt;Node25</title>
<path fill="none" stroke="midnightblue" d="M1006.28,-567C1014.95,-567 1023.66,-567 1032.35,-567"/>
<polygon fill="midnightblue" stroke="midnightblue" points="1006.14,-563.5 996.138,-567 1006.14,-570.5 1006.14,-563.5"/>
</g>
<!-- Node26 -->
<g id="node55" class="node"><title>Node26</title>
<a xlink:href="classZendDbSchema__Db__Schema__Table__DefinitionManager__AbstractManager.html#a7503e344823c2a1e1e3beb80b8541116" target="_top" xlink:title="ZendDbSchema_Db_Schema_Table_DefinitionManager_AbstractManager\\refresh">
<polygon fill="white" stroke="black" points="1470,-556.5 1470,-577.5 1842,-577.5 1842,-556.5 1470,-556.5"/>
<text text-anchor="middle" x="1656" y="-564.5" font-family="Helvetica,sans-Serif" font-size="10.00">ZendDbSchema_Db_Schema_Table_DefinitionManager_AbstractManager\refresh</text>
</a>
</g>
<!-- Node25&#45;&gt;Node26 -->
<g id="edge58" class="edge"><title>Node25&#45;&gt;Node26</title>
<path fill="none" stroke="midnightblue" d="M1443.84,-567C1452.51,-567 1461.19,-567 1469.81,-567"/>
<polygon fill="midnightblue" stroke="midnightblue" points="1443.66,-563.5 1433.66,-567 1443.66,-570.5 1443.66,-563.5"/>
</g>
<!-- Node27 -->
<g id="node57" class="node"><title>Node27</title>
<a xlink:href="classZendDbSchema__Db__Schema__Table__DefinitionManager__AbstractManager.html#a5cf66698784c55ebbd70292e268505af" target="_top" xlink:title="ZendDbSchema_Db_Schema_Table_DefinitionManager_AbstractManager\\__construct">
<polygon fill="white" stroke="black" points="1878.5,-556.5 1878.5,-577.5 2271.5,-577.5 2271.5,-556.5 1878.5,-556.5"/>
<text text-anchor="middle" x="2075" y="-564.5" font-family="Helvetica,sans-Serif" font-size="10.00">ZendDbSchema_Db_Schema_Table_DefinitionManager_AbstractManager\__construct</text>
</a>
</g>
<!-- Node26&#45;&gt;Node27 -->
<g id="edge60" class="edge"><title>Node26&#45;&gt;Node27</title>
<path fill="none" stroke="midnightblue" d="M1852.38,-567C1861.06,-567 1869.76,-567 1878.43,-567"/>
<polygon fill="midnightblue" stroke="midnightblue" points="1852.22,-563.5 1842.22,-567 1852.22,-570.5 1852.22,-563.5"/>
</g>
</g>
</svg>
