<?xml version="1.0" encoding="UTF-8" standalone="no"?>
<!DOCTYPE svg PUBLIC "-//W3C//DTD SVG 1.1//EN"
 "http://www.w3.org/Graphics/SVG/1.1/DTD/svg11.dtd">
<!-- Generated by graphviz version 2.26.3 (20100126.1600)
 -->
<!-- Title: G Pages: 1 -->
<svg width="584pt" height="70pt"
 viewBox="0.00 0.00 584.00 70.00" xmlns="http://www.w3.org/2000/svg" xmlns:xlink="http://www.w3.org/1999/xlink">
<g id="graph1" class="graph" transform="scale(1 1) rotate(0) translate(4 66)">
<title>G</title>
<polygon fill="white" stroke="white" points="-4,5 -4,-66 581,-66 581,5 -4,5"/>
<!-- Node1 -->
<g id="node1" class="node"><title>Node1</title>
<polygon fill="#bfbfbf" stroke="black" points="0.5,-20.5 0.5,-41.5 269.5,-41.5 269.5,-20.5 0.5,-20.5"/>
<text text-anchor="middle" x="135" y="-28.5" font-family="Helvetica,sans-Serif" font-size="10.00">ZendDbSchema_Db_Schema_AbstractEntity\getValidator</text>
</g>
<!-- Node2 -->
<g id="node3" class="node"><title>Node2</title>
<a xlink:href="classZendDbSchema__Db__Schema__AbstractEntity.html#ad6dfc39cc6d92633fd92170db18c9573" target="_top" xlink:title="ZendDbSchema_Db_Schema_AbstractEntity\\getAdapter">
<polygon fill="white" stroke="black" points="309,-40.5 309,-61.5 573,-61.5 573,-40.5 309,-40.5"/>
<text text-anchor="middle" x="441" y="-48.5" font-family="Helvetica,sans-Serif" font-size="10.00">ZendDbSchema_Db_Schema_AbstractEntity\getAdapter</text>
</a>
</g>
<!-- Node1&#45;&gt;Node2 -->
<g id="edge2" class="edge"><title>Node1&#45;&gt;Node2</title>
<path fill="none" stroke="midnightblue" d="M269.661,-39.8014C279.301,-40.4314 289.039,-41.0679 298.719,-41.7006"/>
<polygon fill="midnightblue" stroke="midnightblue" points="298.573,-45.1984 308.78,-42.3582 299.029,-38.2133 298.573,-45.1984"/>
</g>
<!-- Node3 -->
<g id="node5" class="node"><title>Node3</title>
<a xlink:href="classZendDbSchema__Db__Schema__AbstractEntity.html#a4e1ecaacf160f0f990958cfe6ab7b37c" target="_top" xlink:title="ZendDbSchema_Db_Schema_AbstractEntity\\setValidator">
<polygon fill="white" stroke="black" points="306.5,-0.5 306.5,-21.5 575.5,-21.5 575.5,-0.5 306.5,-0.5"/>
<text text-anchor="middle" x="441" y="-8.5" font-family="Helvetica,sans-Serif" font-size="10.00">ZendDbSchema_Db_Schema_AbstractEntity\setValidator</text>
</a>
</g>
<!-- Node1&#45;&gt;Node3 -->
<g id="edge4" class="edge"><title>Node1&#45;&gt;Node3</title>
<path fill="none" stroke="midnightblue" d="M269.661,-22.1986C278.515,-21.6199 287.452,-21.0358 296.352,-20.4541"/>
<polygon fill="midnightblue" stroke="midnightblue" points="296.627,-23.9437 306.377,-19.7989 296.17,-16.9586 296.627,-23.9437"/>
</g>
</g>
</svg>
