<?xml version="1.0" encoding="UTF-8" standalone="no"?>
<!DOCTYPE svg PUBLIC "-//W3C//DTD SVG 1.1//EN"
 "http://www.w3.org/Graphics/SVG/1.1/DTD/svg11.dtd">
<!-- Generated by graphviz version 2.26.3 (20100126.1600)
 -->
<!-- Title: G Pages: 1 -->
<svg width="830pt" height="188pt"
 viewBox="0.00 0.00 830.00 188.00" xmlns="http://www.w3.org/2000/svg" xmlns:xlink="http://www.w3.org/1999/xlink">
<g id="graph1" class="graph" transform="scale(1 1) rotate(0) translate(4 184)">
<title>G</title>
<polygon fill="white" stroke="white" points="-4,5 -4,-184 827,-184 827,5 -4,5"/>
<!-- Node1 -->
<g id="node1" class="node"><title>Node1</title>
<polygon fill="#bfbfbf" stroke="black" points="0,-79.5 0,-100.5 212,-100.5 212,-79.5 0,-79.5"/>
<text text-anchor="middle" x="106" y="-87.5" font-family="Helvetica,sans-Serif" font-size="10.00">ZendDbSchema_Db_Schema_Table\indexes</text>
</g>
<!-- Node2 -->
<g id="node3" class="node"><title>Node2</title>
<a xlink:href="classZendDbSchema__Db__Schema__Table.html#a27720321b5699ac0f5cd673450e0b1ec" target="_top" xlink:title="ZendDbSchema_Db_Schema_Table\\_getManagerByItem">
<polygon fill="white" stroke="black" points="248,-158.5 248,-179.5 514,-179.5 514,-158.5 248,-158.5"/>
<text text-anchor="middle" x="381" y="-166.5" font-family="Helvetica,sans-Serif" font-size="10.00">ZendDbSchema_Db_Schema_Table\_getManagerByItem</text>
</a>
</g>
<!-- Node1&#45;&gt;Node2 -->
<g id="edge2" class="edge"><title>Node1&#45;&gt;Node2</title>
<path fill="none" stroke="midnightblue" d="M136.388,-105.186C164.628,-118.675 208.2,-137.92 248,-149 261.609,-152.789 276.214,-155.904 290.584,-158.452"/>
<polygon fill="midnightblue" stroke="midnightblue" points="137.597,-101.883 127.07,-100.678 134.548,-108.184 137.597,-101.883"/>
</g>
<!-- Node4 -->
<g id="node7" class="node"><title>Node4</title>
<a xlink:href="classZendDbSchema__Db__Schema__Table.html#a21a2a75870207a989576655fec7507c3" target="_top" xlink:title="ZendDbSchema_Db_Schema_Table\\isDirty">
<polygon fill="white" stroke="black" points="277.5,-118.5 277.5,-139.5 484.5,-139.5 484.5,-118.5 277.5,-118.5"/>
<text text-anchor="middle" x="381" y="-126.5" font-family="Helvetica,sans-Serif" font-size="10.00">ZendDbSchema_Db_Schema_Table\isDirty</text>
</a>
</g>
<!-- Node1&#45;&gt;Node4 -->
<g id="edge6" class="edge"><title>Node1&#45;&gt;Node4</title>
<path fill="none" stroke="midnightblue" d="M190.372,-101.965C227.56,-107.239 270.876,-113.382 306.811,-118.479"/>
<polygon fill="midnightblue" stroke="midnightblue" points="190.449,-98.4415 180.057,-100.503 189.466,-105.372 190.449,-98.4415"/>
</g>
<!-- Node6 -->
<g id="node11" class="node"><title>Node6</title>
<a xlink:href="classZendDbSchema__Db__Schema__Table.html#a6178edaeea7e08d97e2196dd991532f9" target="_top" xlink:title="ZendDbSchema_Db_Schema_Table\\toSql">
<polygon fill="white" stroke="black" points="585.5,-78.5 585.5,-99.5 786.5,-99.5 786.5,-78.5 585.5,-78.5"/>
<text text-anchor="middle" x="686" y="-86.5" font-family="Helvetica,sans-Serif" font-size="10.00">ZendDbSchema_Db_Schema_Table\toSql</text>
</a>
</g>
<!-- Node1&#45;&gt;Node6 -->
<g id="edge20" class="edge"><title>Node1&#45;&gt;Node6</title>
<path fill="none" stroke="midnightblue" d="M222.164,-89.7997C328.372,-89.6166 483.88,-89.3485 585.027,-89.1741"/>
<polygon fill="midnightblue" stroke="midnightblue" points="222.037,-86.2998 212.044,-89.8172 222.05,-93.2998 222.037,-86.2998"/>
</g>
<!-- Node7 -->
<g id="node13" class="node"><title>Node7</title>
<a xlink:href="classZendDbSchema__Db__Schema__Table.html#abeba5309be6269e72b2818fcabc01fec" target="_top" xlink:title="ZendDbSchema_Db_Schema_Table\\setFromArray">
<polygon fill="white" stroke="black" points="262,-40.5 262,-61.5 500,-61.5 500,-40.5 262,-40.5"/>
<text text-anchor="middle" x="381" y="-48.5" font-family="Helvetica,sans-Serif" font-size="10.00">ZendDbSchema_Db_Schema_Table\setFromArray</text>
</a>
</g>
<!-- Node1&#45;&gt;Node7 -->
<g id="edge12" class="edge"><title>Node1&#45;&gt;Node7</title>
<path fill="none" stroke="midnightblue" d="M190.372,-78.0345C227.56,-72.7605 270.876,-66.6176 306.811,-61.5213"/>
<polygon fill="midnightblue" stroke="midnightblue" points="189.466,-74.6279 180.057,-79.4974 190.449,-81.5585 189.466,-74.6279"/>
</g>
<!-- Node9 -->
<g id="node17" class="node"><title>Node9</title>
<a xlink:href="classZendDbSchema__Db__Schema__Table.html#aad47d08cebd042ad8e64d825b65859ab" target="_top" xlink:title="ZendDbSchema_Db_Schema_Table\\toArray">
<polygon fill="white" stroke="black" points="276,-0.5 276,-21.5 486,-21.5 486,-0.5 276,-0.5"/>
<text text-anchor="middle" x="381" y="-8.5" font-family="Helvetica,sans-Serif" font-size="10.00">ZendDbSchema_Db_Schema_Table\toArray</text>
</a>
</g>
<!-- Node1&#45;&gt;Node9 -->
<g id="edge16" class="edge"><title>Node1&#45;&gt;Node9</title>
<path fill="none" stroke="midnightblue" d="M136.388,-74.8135C164.628,-61.3246 208.2,-42.0802 248,-31 261.609,-27.2112 276.214,-24.0962 290.584,-21.5481"/>
<polygon fill="midnightblue" stroke="midnightblue" points="134.548,-71.8159 127.07,-79.3219 137.597,-78.1171 134.548,-71.8159"/>
</g>
<!-- Node3 -->
<g id="node5" class="node"><title>Node3</title>
<a xlink:href="classZendDbSchema__Db__Schema__Table.html#aa51f7ef4e3b157d408deec87d519c4ca" target="_top" xlink:title="ZendDbSchema_Db_Schema_Table\\add">
<polygon fill="white" stroke="black" points="589,-158.5 589,-179.5 783,-179.5 783,-158.5 589,-158.5"/>
<text text-anchor="middle" x="686" y="-166.5" font-family="Helvetica,sans-Serif" font-size="10.00">ZendDbSchema_Db_Schema_Table\add</text>
</a>
</g>
<!-- Node2&#45;&gt;Node3 -->
<g id="edge4" class="edge"><title>Node2&#45;&gt;Node3</title>
<path fill="none" stroke="midnightblue" d="M524.622,-169C546.33,-169 568.278,-169 588.7,-169"/>
<polygon fill="midnightblue" stroke="midnightblue" points="524.334,-165.5 514.334,-169 524.334,-172.5 524.334,-165.5"/>
</g>
<!-- Node5 -->
<g id="node9" class="node"><title>Node5</title>
<a xlink:href="classZendDbSchema__Db__Schema__Generator__Mysql.html#aebe278ab07f38d58f8f440f9cad01565" target="_top" xlink:title="ZendDbSchema_Db_Schema_Generator_Mysql\\alterTable">
<polygon fill="white" stroke="black" points="550,-118.5 550,-139.5 822,-139.5 822,-118.5 550,-118.5"/>
<text text-anchor="middle" x="686" y="-126.5" font-family="Helvetica,sans-Serif" font-size="10.00">ZendDbSchema_Db_Schema_Generator_Mysql\alterTable</text>
</a>
</g>
<!-- Node4&#45;&gt;Node5 -->
<g id="edge8" class="edge"><title>Node4&#45;&gt;Node5</title>
<path fill="none" stroke="midnightblue" d="M494.865,-129C512.818,-129 531.536,-129 549.931,-129"/>
<polygon fill="midnightblue" stroke="midnightblue" points="494.685,-125.5 484.685,-129 494.685,-132.5 494.685,-125.5"/>
</g>
<!-- Node4&#45;&gt;Node6 -->
<g id="edge10" class="edge"><title>Node4&#45;&gt;Node6</title>
<path fill="none" stroke="midnightblue" d="M471.247,-117.164C513.957,-111.563 564.533,-104.93 605.871,-99.5087"/>
<polygon fill="midnightblue" stroke="midnightblue" points="470.595,-113.72 461.135,-118.49 471.505,-120.66 470.595,-113.72"/>
</g>
<!-- Node8 -->
<g id="node15" class="node"><title>Node8</title>
<a xlink:href="classZendDbSchema__Db__Schema__Table.html#a1fcef515c845c7770e17f997f80cafa9" target="_top" xlink:title="ZendDbSchema_Db_Schema_Table\\__clone">
<polygon fill="white" stroke="black" points="580,-19.5 580,-40.5 792,-40.5 792,-19.5 580,-19.5"/>
<text text-anchor="middle" x="686" y="-27.5" font-family="Helvetica,sans-Serif" font-size="10.00">ZendDbSchema_Db_Schema_Table\__clone</text>
</a>
</g>
<!-- Node7&#45;&gt;Node8 -->
<g id="edge14" class="edge"><title>Node7&#45;&gt;Node8</title>
<path fill="none" stroke="midnightblue" d="M510.437,-42.0879C533.549,-40.4966 557.384,-38.8555 579.753,-37.3154"/>
<polygon fill="midnightblue" stroke="midnightblue" points="509.967,-38.6119 500.231,-42.7906 510.448,-45.5954 509.967,-38.6119"/>
</g>
<!-- Node9&#45;&gt;Node8 -->
<g id="edge18" class="edge"><title>Node9&#45;&gt;Node8</title>
<path fill="none" stroke="midnightblue" d="M496.397,-18.1887C523.786,-19.8949 552.875,-21.7069 579.83,-23.3861"/>
<polygon fill="midnightblue" stroke="midnightblue" points="496.589,-14.6939 486.391,-17.5653 496.154,-21.6804 496.589,-14.6939"/>
</g>
</g>
</svg>
