<?xml version="1.0" encoding="UTF-8" standalone="no"?>
<!DOCTYPE svg PUBLIC "-//W3C//DTD SVG 1.1//EN"
 "http://www.w3.org/Graphics/SVG/1.1/DTD/svg11.dtd">
<!-- Generated by graphviz version 2.26.3 (20100126.1600)
 -->
<!-- Title: G Pages: 1 -->
<svg width="152pt" height="252pt"
 viewBox="0.00 0.00 152.00 252.00" xmlns="http://www.w3.org/2000/svg" xmlns:xlink="http://www.w3.org/1999/xlink">
<g id="graph1" class="graph" transform="scale(1 1) rotate(0) translate(4 248)">
<title>G</title>
<polygon fill="white" stroke="white" points="-4,5 -4,-248 149,-248 149,5 -4,5"/>
<!-- Node1 -->
<g id="node1" class="node"><title>Node1</title>
<polygon fill="#bfbfbf" stroke="black" points="0,-1 0,-103 144,-103 144,-1 0,-1"/>
<text text-anchor="start" x="8" y="-90" font-family="Helvetica,sans-Serif" font-size="10.00">ZendDbSchema_Db_Adapter</text>
<text text-anchor="middle" x="72" y="-77" font-family="Helvetica,sans-Serif" font-size="10.00">_Pdo_Mysql</text>
<polyline fill="none" stroke="black" points="0,-69 144,-69 "/>
<text text-anchor="middle" x="72" y="-56" font-family="Helvetica,sans-Serif" font-size="10.00"> </text>
<polyline fill="none" stroke="black" points="0,-48 144,-48 "/>
<text text-anchor="start" x="8" y="-35" font-family="Helvetica,sans-Serif" font-size="10.00">+ hasDatabase()</text>
<text text-anchor="start" x="8" y="-22" font-family="Helvetica,sans-Serif" font-size="10.00">+ listDatabases()</text>
<text text-anchor="start" x="8" y="-9" font-family="Helvetica,sans-Serif" font-size="10.00">+ hasTable()</text>
</g>
<!-- Node2 -->
<g id="node2" class="node"><title>Node2</title>
<a xlink:href="interfaceZendDbSchema__Db__Adapter__SchemaCompatible.html" target="_top" xlink:title="{ZendDbSchema_Db_Adapter\l_SchemaCompatible\n||+ hasDatabase()\l+ listDatabases()\l+ hasTable()\l}">
<polygon fill="white" stroke="black" points="0,-141 0,-243 144,-243 144,-141 0,-141"/>
<text text-anchor="start" x="8" y="-230" font-family="Helvetica,sans-Serif" font-size="10.00">ZendDbSchema_Db_Adapter</text>
<text text-anchor="middle" x="72" y="-217" font-family="Helvetica,sans-Serif" font-size="10.00">_SchemaCompatible</text>
<polyline fill="none" stroke="black" points="0,-209 144,-209 "/>
<text text-anchor="middle" x="72" y="-196" font-family="Helvetica,sans-Serif" font-size="10.00"> </text>
<polyline fill="none" stroke="black" points="0,-188 144,-188 "/>
<text text-anchor="start" x="8" y="-175" font-family="Helvetica,sans-Serif" font-size="10.00">+ hasDatabase()</text>
<text text-anchor="start" x="8" y="-162" font-family="Helvetica,sans-Serif" font-size="10.00">+ listDatabases()</text>
<text text-anchor="start" x="8" y="-149" font-family="Helvetica,sans-Serif" font-size="10.00">+ hasTable()</text>
</a>
</g>
<!-- Node2&#45;&gt;Node1 -->
<g id="edge2" class="edge"><title>Node2&#45;&gt;Node1</title>
<path fill="none" stroke="midnightblue" d="M72,-130.529C72,-121.449 72,-112.175 72,-103.33"/>
<polygon fill="none" stroke="midnightblue" points="68.5001,-130.664 72,-140.664 75.5001,-130.664 68.5001,-130.664"/>
</g>
</g>
</svg>
