<?xml version="1.0" encoding="UTF-8" standalone="no"?>
<!DOCTYPE svg PUBLIC "-//W3C//DTD SVG 1.1//EN"
 "http://www.w3.org/Graphics/SVG/1.1/DTD/svg11.dtd">
<!-- Generated by graphviz version 2.26.3 (20100126.1600)
 -->
<!-- Title: G Pages: 1 -->
<svg width="548pt" height="146pt"
 viewBox="0.00 0.00 548.00 146.00" xmlns="http://www.w3.org/2000/svg" xmlns:xlink="http://www.w3.org/1999/xlink">
<g id="graph1" class="graph" transform="scale(1 1) rotate(0) translate(4 142)">
<title>G</title>
<polygon fill="white" stroke="white" points="-4,5 -4,-142 545,-142 545,5 -4,5"/>
<!-- Node1 -->
<g id="node1" class="node"><title>Node1</title>
<polygon fill="#bfbfbf" stroke="black" points="0.5,-52 0.5,-86 147.5,-86 147.5,-52 0.5,-52"/>
<text text-anchor="start" x="8.5" y="-73" font-family="Helvetica,sans-Serif" font-size="10.00">ZendDbSchema_Tool_Project</text>
<text text-anchor="middle" x="74" y="-60" font-family="Helvetica,sans-Serif" font-size="10.00">_Provider_Schema\_findfile</text>
</g>
<!-- Node2 -->
<g id="node3" class="node"><title>Node2</title>
<a xlink:href="classZendDbSchema__Tool__Project__Provider__Schema.html#ae23994cc878a689226c458de95a7ecd1" target="_top" xlink:title="ZendDbSchema_Tool_Project\l_Provider_Schema\\createResource">
<polygon fill="white" stroke="black" points="184.5,-104 184.5,-138 355.5,-138 355.5,-104 184.5,-104"/>
<text text-anchor="start" x="192.5" y="-125" font-family="Helvetica,sans-Serif" font-size="10.00">ZendDbSchema_Tool_Project</text>
<text text-anchor="middle" x="270" y="-112" font-family="Helvetica,sans-Serif" font-size="10.00">_Provider_Schema\createResource</text>
</a>
</g>
<!-- Node1&#45;&gt;Node2 -->
<g id="edge2" class="edge"><title>Node1&#45;&gt;Node2</title>
<path fill="none" stroke="midnightblue" d="M147.972,-88.6253C166.957,-93.6622 187.225,-99.0392 205.678,-103.935"/>
<polygon fill="midnightblue" stroke="midnightblue" points="148.741,-85.2082 138.178,-86.0267 146.946,-91.9741 148.741,-85.2082"/>
</g>
<!-- Node4 -->
<g id="node7" class="node"><title>Node4</title>
<a xlink:href="classZendDbSchema__Tool__Project__Provider__Schema.html#aa7746bd0ed044ad415b1b7b884f7a007" target="_top" xlink:title="ZendDbSchema_Tool_Project\l_Provider_Schema\\push">
<polygon fill="white" stroke="black" points="196.5,-52 196.5,-86 343.5,-86 343.5,-52 196.5,-52"/>
<text text-anchor="start" x="204.5" y="-73" font-family="Helvetica,sans-Serif" font-size="10.00">ZendDbSchema_Tool_Project</text>
<text text-anchor="middle" x="270" y="-60" font-family="Helvetica,sans-Serif" font-size="10.00">_Provider_Schema\push</text>
</a>
</g>
<!-- Node1&#45;&gt;Node4 -->
<g id="edge6" class="edge"><title>Node1&#45;&gt;Node4</title>
<path fill="none" stroke="midnightblue" d="M157.752,-69C170.594,-69 183.771,-69 196.373,-69"/>
<polygon fill="midnightblue" stroke="midnightblue" points="157.541,-65.5001 147.541,-69 157.541,-72.5001 157.541,-65.5001"/>
</g>
<!-- Node5 -->
<g id="node9" class="node"><title>Node5</title>
<a xlink:href="classZendDbSchema__Tool__Project__Provider__Schema.html#a5741419511310dc38038399e9f4ac5e1" target="_top" xlink:title="ZendDbSchema_Tool_Project\l_Provider_Schema\\status">
<polygon fill="white" stroke="black" points="196.5,-0 196.5,-34 343.5,-34 343.5,-0 196.5,-0"/>
<text text-anchor="start" x="204.5" y="-21" font-family="Helvetica,sans-Serif" font-size="10.00">ZendDbSchema_Tool_Project</text>
<text text-anchor="middle" x="270" y="-8" font-family="Helvetica,sans-Serif" font-size="10.00">_Provider_Schema\status</text>
</a>
</g>
<!-- Node1&#45;&gt;Node5 -->
<g id="edge8" class="edge"><title>Node1&#45;&gt;Node5</title>
<path fill="none" stroke="midnightblue" d="M147.972,-49.3747C166.957,-44.3378 187.225,-38.9608 205.678,-34.065"/>
<polygon fill="midnightblue" stroke="midnightblue" points="146.946,-46.0259 138.178,-51.9733 148.741,-52.7918 146.946,-46.0259"/>
</g>
<!-- Node3 -->
<g id="node5" class="node"><title>Node3</title>
<a xlink:href="classZendDbSchema__Tool__Project__Provider__Schema.html#a5f0f3101bb7b9e252f6d6bed1ddadbe5" target="_top" xlink:title="ZendDbSchema_Tool_Project\l_Provider_Schema\\pull">
<polygon fill="white" stroke="black" points="392.5,-104 392.5,-138 539.5,-138 539.5,-104 392.5,-104"/>
<text text-anchor="start" x="400.5" y="-125" font-family="Helvetica,sans-Serif" font-size="10.00">ZendDbSchema_Tool_Project</text>
<text text-anchor="middle" x="466" y="-112" font-family="Helvetica,sans-Serif" font-size="10.00">_Provider_Schema\pull</text>
</a>
</g>
<!-- Node2&#45;&gt;Node3 -->
<g id="edge4" class="edge"><title>Node2&#45;&gt;Node3</title>
<path fill="none" stroke="midnightblue" d="M365.781,-121C374.749,-121 383.741,-121 392.458,-121"/>
<polygon fill="midnightblue" stroke="midnightblue" points="365.683,-117.5 355.683,-121 365.683,-124.5 365.683,-117.5"/>
</g>
</g>
</svg>
