<?xml version="1.0" encoding="UTF-8" standalone="no"?>
<!DOCTYPE svg PUBLIC "-//W3C//DTD SVG 1.1//EN"
 "http://www.w3.org/Graphics/SVG/1.1/DTD/svg11.dtd">
<!-- Generated by graphviz version 2.26.3 (20100126.1600)
 -->
<!-- Title: G Pages: 1 -->
<svg width="958pt" height="200pt"
 viewBox="0.00 0.00 958.00 200.00" xmlns="http://www.w3.org/2000/svg" xmlns:xlink="http://www.w3.org/1999/xlink">
<g id="graph1" class="graph" transform="scale(1 1) rotate(0) translate(4 196)">
<title>G</title>
<polygon fill="white" stroke="white" points="-4,5 -4,-196 955,-196 955,5 -4,5"/>
<!-- Node1 -->
<g id="node1" class="node"><title>Node1</title>
<polygon fill="#bfbfbf" stroke="black" points="0.5,-85 0.5,-119 155.5,-119 155.5,-85 0.5,-85"/>
<text text-anchor="start" x="8.5" y="-106" font-family="Helvetica,sans-Serif" font-size="10.00">ZendDbSchema_Db_Schema</text>
<text text-anchor="middle" x="78" y="-93" font-family="Helvetica,sans-Serif" font-size="10.00">_Table_AbstractDefinition\toSql</text>
</g>
<!-- Node2 -->
<g id="node3" class="node"><title>Node2</title>
<a xlink:href="classZendDbSchema__Db__Schema__Table__AbstractDefinition.html#a224b6a0c1df1d6ed40e03657782ef6fc" target="_top" xlink:title="ZendDbSchema_Db_Schema\l_Table_AbstractDefinition\l\\getTable">
<polygon fill="white" stroke="black" points="192,-144.5 192,-191.5 338,-191.5 338,-144.5 192,-144.5"/>
<text text-anchor="start" x="200" y="-178.5" font-family="Helvetica,sans-Serif" font-size="10.00">ZendDbSchema_Db_Schema</text>
<text text-anchor="start" x="200" y="-165.5" font-family="Helvetica,sans-Serif" font-size="10.00">_Table_AbstractDefinition</text>
<text text-anchor="middle" x="265" y="-152.5" font-family="Helvetica,sans-Serif" font-size="10.00">\getTable</text>
</a>
</g>
<!-- Node1&#45;&gt;Node2 -->
<g id="edge2" class="edge"><title>Node1&#45;&gt;Node2</title>
<path fill="none" stroke="midnightblue" d="M126.644,-119.168C145.601,-125.859 167.781,-133.687 188.76,-141.092"/>
<polygon fill="midnightblue" stroke="midnightblue" points="187.704,-144.431 198.299,-144.459 190.034,-137.83 187.704,-144.431"/>
</g>
<!-- Node3 -->
<g id="node5" class="node"><title>Node3</title>
<a xlink:href="classZendDbSchema__Db__Schema__Table__AbstractDefinition.html#ae3276a6f60f556eb468d3f2ef102a3ab" target="_top" xlink:title="ZendDbSchema_Db_Schema\l_Table_AbstractDefinition\l\\isDeleted">
<polygon fill="white" stroke="black" points="192,-78.5 192,-125.5 338,-125.5 338,-78.5 192,-78.5"/>
<text text-anchor="start" x="200" y="-112.5" font-family="Helvetica,sans-Serif" font-size="10.00">ZendDbSchema_Db_Schema</text>
<text text-anchor="start" x="200" y="-99.5" font-family="Helvetica,sans-Serif" font-size="10.00">_Table_AbstractDefinition</text>
<text text-anchor="middle" x="265" y="-86.5" font-family="Helvetica,sans-Serif" font-size="10.00">\isDeleted</text>
</a>
</g>
<!-- Node1&#45;&gt;Node3 -->
<g id="edge4" class="edge"><title>Node1&#45;&gt;Node3</title>
<path fill="none" stroke="midnightblue" d="M155.68,-102C164.263,-102 173.029,-102 181.678,-102"/>
<polygon fill="midnightblue" stroke="midnightblue" points="181.758,-105.5 191.758,-102 181.758,-98.5001 181.758,-105.5"/>
</g>
<!-- Node4 -->
<g id="node7" class="node"><title>Node4</title>
<a xlink:href="classZendDbSchema__Db__Schema__AbstractSchema.html#aec661ede88f500caaf2a09e98c31d3b0" target="_top" xlink:title="ZendDbSchema_Db_Schema\l_AbstractSchema\\getDropSql">
<polygon fill="white" stroke="black" points="192,-26 192,-60 338,-60 338,-26 192,-26"/>
<text text-anchor="start" x="200" y="-47" font-family="Helvetica,sans-Serif" font-size="10.00">ZendDbSchema_Db_Schema</text>
<text text-anchor="middle" x="265" y="-34" font-family="Helvetica,sans-Serif" font-size="10.00">_AbstractSchema\getDropSql</text>
</a>
</g>
<!-- Node1&#45;&gt;Node4 -->
<g id="edge6" class="edge"><title>Node1&#45;&gt;Node4</title>
<path fill="none" stroke="midnightblue" d="M132.088,-84.9348C153.7,-78.1162 178.75,-70.2127 201.238,-63.1175"/>
<polygon fill="midnightblue" stroke="midnightblue" points="202.55,-66.3736 211.033,-60.0269 200.444,-59.698 202.55,-66.3736"/>
</g>
<!-- Node5 -->
<g id="node9" class="node"><title>Node5</title>
<a xlink:href="classZendDbSchema__Db__Schema__AbstractSchema.html#a1680a8fd22360f74d29b641d7257a52f" target="_top" xlink:title="ZendDbSchema_Db_Schema\l_AbstractSchema\\isExist">
<polygon fill="white" stroke="black" points="377,-52 377,-86 523,-86 523,-52 377,-52"/>
<text text-anchor="start" x="385" y="-73" font-family="Helvetica,sans-Serif" font-size="10.00">ZendDbSchema_Db_Schema</text>
<text text-anchor="middle" x="450" y="-60" font-family="Helvetica,sans-Serif" font-size="10.00">_AbstractSchema\isExist</text>
</a>
</g>
<!-- Node4&#45;&gt;Node5 -->
<g id="edge8" class="edge"><title>Node4&#45;&gt;Node5</title>
<path fill="none" stroke="midnightblue" d="M338.117,-53.2759C347.562,-54.6033 357.289,-55.9703 366.88,-57.3183"/>
<polygon fill="midnightblue" stroke="midnightblue" points="366.419,-60.7877 376.808,-58.7136 367.393,-53.8559 366.419,-60.7877"/>
</g>
<!-- Node8 -->
<g id="node15" class="node"><title>Node8</title>
<a xlink:href="classZendDbSchema__Db__Schema__AbstractSchema.html#abf887d2836071992af679430ddf1b922" target="_top" xlink:title="ZendDbSchema_Db_Schema\l_AbstractSchema\\_getDropSql">
<polygon fill="white" stroke="black" points="374,-0 374,-34 526,-34 526,-0 374,-0"/>
<text text-anchor="start" x="382" y="-21" font-family="Helvetica,sans-Serif" font-size="10.00">ZendDbSchema_Db_Schema</text>
<text text-anchor="middle" x="450" y="-8" font-family="Helvetica,sans-Serif" font-size="10.00">_AbstractSchema\_getDropSql</text>
</a>
</g>
<!-- Node4&#45;&gt;Node8 -->
<g id="edge14" class="edge"><title>Node4&#45;&gt;Node8</title>
<path fill="none" stroke="midnightblue" d="M338.117,-32.7241C346.538,-31.5407 355.183,-30.3257 363.756,-29.1208"/>
<polygon fill="midnightblue" stroke="midnightblue" points="364.353,-32.5713 373.769,-27.7136 363.379,-25.6394 364.353,-32.5713"/>
</g>
<!-- Node6 -->
<g id="node11" class="node"><title>Node6</title>
<a xlink:href="classZendDbSchema__Db__Schema__AbstractSchema.html#a46da7a60c7e5fd605607afbc1dac4baa" target="_top" xlink:title="ZendDbSchema_Db_Schema\l_AbstractSchema\\getCleanSchema">
<polygon fill="white" stroke="black" points="562.5,-52 562.5,-86 735.5,-86 735.5,-52 562.5,-52"/>
<text text-anchor="start" x="570.5" y="-73" font-family="Helvetica,sans-Serif" font-size="10.00">ZendDbSchema_Db_Schema</text>
<text text-anchor="middle" x="649" y="-60" font-family="Helvetica,sans-Serif" font-size="10.00">_AbstractSchema\getCleanSchema</text>
</a>
</g>
<!-- Node5&#45;&gt;Node6 -->
<g id="edge10" class="edge"><title>Node5&#45;&gt;Node6</title>
<path fill="none" stroke="midnightblue" d="M523.252,-69C532.711,-69 542.511,-69 552.275,-69"/>
<polygon fill="midnightblue" stroke="midnightblue" points="552.422,-72.5001 562.422,-69 552.422,-65.5001 552.422,-72.5001"/>
</g>
<!-- Node7 -->
<g id="node13" class="node"><title>Node7</title>
<a xlink:href="classZendDbSchema__Db__Schema__AbstractSchema.html#af99e5bb9adfe0da8c94d3d3848efe7b5" target="_top" xlink:title="ZendDbSchema_Db_Schema\l_AbstractSchema\\_getCleanSchema">
<polygon fill="white" stroke="black" points="772,-52 772,-86 950,-86 950,-52 772,-52"/>
<text text-anchor="start" x="780" y="-73" font-family="Helvetica,sans-Serif" font-size="10.00">ZendDbSchema_Db_Schema</text>
<text text-anchor="middle" x="861" y="-60" font-family="Helvetica,sans-Serif" font-size="10.00">_AbstractSchema\_getCleanSchema</text>
</a>
</g>
<!-- Node6&#45;&gt;Node7 -->
<g id="edge12" class="edge"><title>Node6&#45;&gt;Node7</title>
<path fill="none" stroke="midnightblue" d="M735.534,-69C744.175,-69 752.994,-69 761.752,-69"/>
<polygon fill="midnightblue" stroke="midnightblue" points="761.99,-72.5001 771.99,-69 761.99,-65.5001 761.99,-72.5001"/>
</g>
</g>
</svg>
