<?xml version="1.0" encoding="UTF-8" standalone="no"?>
<!DOCTYPE svg PUBLIC "-//W3C//DTD SVG 1.1//EN"
 "http://www.w3.org/Graphics/SVG/1.1/DTD/svg11.dtd">
<!-- Generated by graphviz version 2.26.3 (20100126.1600)
 -->
<!-- Title: G Pages: 1 -->
<svg width="866pt" height="30pt"
 viewBox="0.00 0.00 866.00 30.00" xmlns="http://www.w3.org/2000/svg" xmlns:xlink="http://www.w3.org/1999/xlink">
<g id="graph1" class="graph" transform="scale(1 1) rotate(0) translate(4 26)">
<title>G</title>
<polygon fill="white" stroke="white" points="-4,5 -4,-26 863,-26 863,5 -4,5"/>
<!-- Node1 -->
<g id="node1" class="node"><title>Node1</title>
<polygon fill="#bfbfbf" stroke="black" points="0.5,-0.5 0.5,-21.5 269.5,-21.5 269.5,-0.5 0.5,-0.5"/>
<text text-anchor="middle" x="135" y="-8.5" font-family="Helvetica,sans-Serif" font-size="10.00">ZendDbSchema_Db_Schema_AbstractEntity\setValidator</text>
</g>
<!-- Node2 -->
<g id="node3" class="node"><title>Node2</title>
<a xlink:href="classZendDbSchema__Db__Schema__AbstractEntity.html#a8a351350714cc32bf14e6e9464a156a6" target="_top" xlink:title="ZendDbSchema_Db_Schema_AbstractEntity\\getValidator">
<polygon fill="white" stroke="black" points="306.5,-0.5 306.5,-21.5 575.5,-21.5 575.5,-0.5 306.5,-0.5"/>
<text text-anchor="middle" x="441" y="-8.5" font-family="Helvetica,sans-Serif" font-size="10.00">ZendDbSchema_Db_Schema_AbstractEntity\getValidator</text>
</a>
</g>
<!-- Node1&#45;&gt;Node2 -->
<g id="edge2" class="edge"><title>Node1&#45;&gt;Node2</title>
<path fill="none" stroke="midnightblue" d="M279.687,-11C288.586,-11 297.523,-11 306.377,-11"/>
<polygon fill="midnightblue" stroke="midnightblue" points="279.661,-7.5001 269.661,-11 279.661,-14.5001 279.661,-7.5001"/>
</g>
<!-- Node3 -->
<g id="node5" class="node"><title>Node3</title>
<a xlink:href="classZendDbSchema__Db__Schema__AbstractEntity.html#a1b1330ae833b7d75146f26744c790e41" target="_top" xlink:title="ZendDbSchema_Db_Schema_AbstractEntity\\isValid">
<polygon fill="white" stroke="black" points="612,-0.5 612,-21.5 858,-21.5 858,-0.5 612,-0.5"/>
<text text-anchor="middle" x="735" y="-8.5" font-family="Helvetica,sans-Serif" font-size="10.00">ZendDbSchema_Db_Schema_AbstractEntity\isValid</text>
</a>
</g>
<!-- Node2&#45;&gt;Node3 -->
<g id="edge4" class="edge"><title>Node2&#45;&gt;Node3</title>
<path fill="none" stroke="midnightblue" d="M585.75,-11C594.471,-11 603.202,-11 611.822,-11"/>
<polygon fill="midnightblue" stroke="midnightblue" points="585.524,-7.5001 575.524,-11 585.524,-14.5001 585.524,-7.5001"/>
</g>
</g>
</svg>
