<?xml version="1.0" encoding="UTF-8" standalone="no"?>
<!DOCTYPE svg PUBLIC "-//W3C//DTD SVG 1.1//EN"
 "http://www.w3.org/Graphics/SVG/1.1/DTD/svg11.dtd">
<!-- Generated by graphviz version 2.26.3 (20100126.1600)
 -->
<!-- Title: G Pages: 1 -->
<svg width="1362pt" height="148pt"
 viewBox="0.00 0.00 1362.00 148.00" xmlns="http://www.w3.org/2000/svg" xmlns:xlink="http://www.w3.org/1999/xlink">
<g id="graph1" class="graph" transform="scale(1 1) rotate(0) translate(4 144)">
<title>G</title>
<polygon fill="white" stroke="white" points="-4,5 -4,-144 1359,-144 1359,5 -4,5"/>
<!-- Node1 -->
<g id="node1" class="node"><title>Node1</title>
<polygon fill="#bfbfbf" stroke="black" points="0.5,-59.5 0.5,-80.5 347.5,-80.5 347.5,-59.5 0.5,-59.5"/>
<text text-anchor="middle" x="174" y="-67.5" font-family="Helvetica,sans-Serif" font-size="10.00">ZendDbSchema_Db_Schema_Generator_Mysql\generatePrimaryKeyCreate</text>
</g>
<!-- Node2 -->
<g id="node3" class="node"><title>Node2</title>
<a xlink:href="classZendDbSchema__Db__Schema__Table__Index.html#ad0edf2869c08ce408566798f4305b8dc" target="_top" xlink:title="ZendDbSchema_Db_Schema_Table_Index\\getColumns">
<polygon fill="white" stroke="black" points="423,-118.5 423,-139.5 683,-139.5 683,-118.5 423,-118.5"/>
<text text-anchor="middle" x="553" y="-126.5" font-family="Helvetica,sans-Serif" font-size="10.00">ZendDbSchema_Db_Schema_Table_Index\getColumns</text>
</a>
</g>
<!-- Node1&#45;&gt;Node2 -->
<g id="edge2" class="edge"><title>Node1&#45;&gt;Node2</title>
<path fill="none" stroke="midnightblue" d="M237.836,-80.5674C279.436,-87.3965 334.911,-96.3956 384,-104 412.062,-108.347 442.772,-112.939 470.225,-116.985"/>
<polygon fill="midnightblue" stroke="midnightblue" points="469.777,-120.457 480.18,-118.45 470.796,-113.532 469.777,-120.457"/>
</g>
<!-- Node5 -->
<g id="node9" class="node"><title>Node5</title>
<a xlink:href="classZendDbSchema__Db__Schema__Table__AbstractDefinition.html#a224b6a0c1df1d6ed40e03657782ef6fc" target="_top" xlink:title="ZendDbSchema_Db_Schema_Table_AbstractDefinition\\getTable">
<polygon fill="white" stroke="black" points="758.5,-59.5 758.5,-80.5 1057.5,-80.5 1057.5,-59.5 758.5,-59.5"/>
<text text-anchor="middle" x="908" y="-67.5" font-family="Helvetica,sans-Serif" font-size="10.00">ZendDbSchema_Db_Schema_Table_AbstractDefinition\getTable</text>
</a>
</g>
<!-- Node1&#45;&gt;Node5 -->
<g id="edge8" class="edge"><title>Node1&#45;&gt;Node5</title>
<path fill="none" stroke="midnightblue" d="M347.611,-70.8912C359.926,-70.9346 372.151,-70.9718 384,-71 534.222,-71.3577 571.778,-71.4038 722,-71 730.564,-70.977 739.349,-70.948 748.219,-70.9145"/>
<polygon fill="midnightblue" stroke="midnightblue" points="748.275,-74.4144 758.261,-70.8749 748.247,-67.4145 748.275,-74.4144"/>
</g>
<!-- Node6 -->
<g id="node11" class="node"><title>Node6</title>
<a xlink:href="classZendDbSchema__Db__Schema__AbstractSchema.html#a1680a8fd22360f74d29b641d7257a52f" target="_top" xlink:title="ZendDbSchema_Db_Schema_AbstractSchema\\isExist">
<polygon fill="white" stroke="black" points="424.5,-0.5 424.5,-21.5 681.5,-21.5 681.5,-0.5 424.5,-0.5"/>
<text text-anchor="middle" x="553" y="-8.5" font-family="Helvetica,sans-Serif" font-size="10.00">ZendDbSchema_Db_Schema_AbstractSchema\isExist</text>
</a>
</g>
<!-- Node1&#45;&gt;Node6 -->
<g id="edge10" class="edge"><title>Node1&#45;&gt;Node6</title>
<path fill="none" stroke="midnightblue" d="M225.62,-59.4326C268.031,-50.9872 329.741,-39.2398 384,-31 403.491,-28.0401 424.303,-25.2644 444.423,-22.778"/>
<polygon fill="midnightblue" stroke="midnightblue" points="445.049,-26.2277 454.552,-21.5431 444.202,-19.2792 445.049,-26.2277"/>
</g>
<!-- Node8 -->
<g id="node15" class="node"><title>Node8</title>
<a xlink:href="classZendDbSchema__Db__Schema__Generator__Mysql.html#a7906cbadcc92abb46a2a089f4f177f8e" target="_top" xlink:title="ZendDbSchema_Db_Schema_Generator_Mysql\\generatePrimaryKeyDrop">
<polygon fill="white" stroke="black" points="384,-40.5 384,-61.5 722,-61.5 722,-40.5 384,-40.5"/>
<text text-anchor="middle" x="553" y="-48.5" font-family="Helvetica,sans-Serif" font-size="10.00">ZendDbSchema_Db_Schema_Generator_Mysql\generatePrimaryKeyDrop</text>
</a>
</g>
<!-- Node1&#45;&gt;Node8 -->
<g id="edge14" class="edge"><title>Node1&#45;&gt;Node8</title>
<path fill="none" stroke="midnightblue" d="M347.694,-61.2924C356.373,-60.8573 365.096,-60.42 373.79,-59.9841"/>
<polygon fill="midnightblue" stroke="midnightblue" points="374.167,-63.4698 383.979,-59.4734 373.816,-56.4785 374.167,-63.4698"/>
</g>
<!-- Node3 -->
<g id="node5" class="node"><title>Node3</title>
<a xlink:href="classZendDbSchema__Db__Schema__AbstractSchema.html#a54d32c6f15463eaad2321a9f0e7225d7" target="_top" xlink:title="ZendDbSchema_Db_Schema_AbstractSchema\\__get">
<polygon fill="white" stroke="black" points="782.5,-118.5 782.5,-139.5 1033.5,-139.5 1033.5,-118.5 782.5,-118.5"/>
<text text-anchor="middle" x="908" y="-126.5" font-family="Helvetica,sans-Serif" font-size="10.00">ZendDbSchema_Db_Schema_AbstractSchema\__get</text>
</a>
</g>
<!-- Node2&#45;&gt;Node3 -->
<g id="edge4" class="edge"><title>Node2&#45;&gt;Node3</title>
<path fill="none" stroke="midnightblue" d="M683.173,-129C712.115,-129 742.868,-129 772.035,-129"/>
<polygon fill="midnightblue" stroke="midnightblue" points="772.28,-132.5 782.28,-129 772.28,-125.5 772.28,-132.5"/>
</g>
<!-- Node4 -->
<g id="node7" class="node"><title>Node4</title>
<a xlink:href="classZendDbSchema__Db__Schema__AbstractSchema.html#ac4e121ba7932163eb1950fabe06fb9db" target="_top" xlink:title="ZendDbSchema_Db_Schema_AbstractSchema\\__isset">
<polygon fill="white" stroke="black" points="1094.5,-118.5 1094.5,-139.5 1353.5,-139.5 1353.5,-118.5 1094.5,-118.5"/>
<text text-anchor="middle" x="1224" y="-126.5" font-family="Helvetica,sans-Serif" font-size="10.00">ZendDbSchema_Db_Schema_AbstractSchema\__isset</text>
</a>
</g>
<!-- Node3&#45;&gt;Node4 -->
<g id="edge6" class="edge"><title>Node3&#45;&gt;Node4</title>
<path fill="none" stroke="midnightblue" d="M1033.8,-129C1050.33,-129 1067.36,-129 1084.11,-129"/>
<polygon fill="midnightblue" stroke="midnightblue" points="1084.49,-132.5 1094.49,-129 1084.49,-125.5 1084.49,-132.5"/>
</g>
<!-- Node7 -->
<g id="node13" class="node"><title>Node7</title>
<a xlink:href="classZendDbSchema__Db__Schema__AbstractSchema.html#a219012c80be57ace4b1db43a9c48eb3d" target="_top" xlink:title="ZendDbSchema_Db_Schema_AbstractSchema\\getSchema">
<polygon fill="white" stroke="black" points="769.5,-0.5 769.5,-21.5 1046.5,-21.5 1046.5,-0.5 769.5,-0.5"/>
<text text-anchor="middle" x="908" y="-8.5" font-family="Helvetica,sans-Serif" font-size="10.00">ZendDbSchema_Db_Schema_AbstractSchema\getSchema</text>
</a>
</g>
<!-- Node6&#45;&gt;Node7 -->
<g id="edge12" class="edge"><title>Node6&#45;&gt;Node7</title>
<path fill="none" stroke="midnightblue" d="M681.665,-11C706.803,-11 733.357,-11 759.088,-11"/>
<polygon fill="midnightblue" stroke="midnightblue" points="759.287,-14.5001 769.287,-11 759.287,-7.5001 759.287,-14.5001"/>
</g>
<!-- Node8&#45;&gt;Node5 -->
<g id="edge16" class="edge"><title>Node8&#45;&gt;Node5</title>
<path fill="none" stroke="midnightblue" d="M722.182,-60.0548C730.846,-60.5185 739.537,-60.9837 748.171,-61.4458"/>
<polygon fill="midnightblue" stroke="midnightblue" points="748.103,-64.9471 758.276,-61.9866 748.477,-57.9571 748.103,-64.9471"/>
</g>
</g>
</svg>
