<?xml version="1.0" encoding="UTF-8" standalone="no"?>
<!DOCTYPE svg PUBLIC "-//W3C//DTD SVG 1.1//EN"
 "http://www.w3.org/Graphics/SVG/1.1/DTD/svg11.dtd">
<!-- Generated by graphviz version 2.26.3 (20100126.1600)
 -->
<!-- Title: G Pages: 1 -->
<svg width="966pt" height="188pt"
 viewBox="0.00 0.00 966.00 188.00" xmlns="http://www.w3.org/2000/svg" xmlns:xlink="http://www.w3.org/1999/xlink">
<g id="graph1" class="graph" transform="scale(1 1) rotate(0) translate(4 184)">
<title>G</title>
<polygon fill="white" stroke="white" points="-4,5 -4,-184 963,-184 963,5 -4,5"/>
<!-- Node1 -->
<g id="node1" class="node"><title>Node1</title>
<polygon fill="#bfbfbf" stroke="black" points="0,-79.5 0,-100.5 286,-100.5 286,-79.5 0,-79.5"/>
<text text-anchor="middle" x="143" y="-87.5" font-family="Helvetica,sans-Serif" font-size="10.00">ZendDbSchema_Db_Schema_Table_ForeignKey\getColumns</text>
</g>
<!-- Node2 -->
<g id="node3" class="node"><title>Node2</title>
<a xlink:href="classZendDbSchema__Db__Schema__Generator__Mysql.html#a4b0c6d7fbd4d21f027facb6e495d1f6b" target="_top" xlink:title="ZendDbSchema_Db_Schema_Generator_Mysql\\addForeignKey">
<polygon fill="white" stroke="black" points="325,-158.5 325,-179.5 619,-179.5 619,-158.5 325,-158.5"/>
<text text-anchor="middle" x="472" y="-166.5" font-family="Helvetica,sans-Serif" font-size="10.00">ZendDbSchema_Db_Schema_Generator_Mysql\addForeignKey</text>
</a>
</g>
<!-- Node1&#45;&gt;Node2 -->
<g id="edge2" class="edge"><title>Node1&#45;&gt;Node2</title>
<path fill="none" stroke="midnightblue" d="M179.368,-104.204C215.14,-117.643 271.567,-137.432 322,-149 338.389,-152.759 355.958,-155.889 373.093,-158.468"/>
<polygon fill="midnightblue" stroke="midnightblue" points="180.439,-100.867 169.848,-100.593 177.957,-107.412 180.439,-100.867"/>
</g>
<!-- Node4 -->
<g id="node7" class="node"><title>Node4</title>
<a xlink:href="classZendDbSchema__Db__Schema__Table__ForeignKey.html#a275e68bc4f9eebe1af1ec77e6d0b731e" target="_top" xlink:title="ZendDbSchema_Db_Schema_Table_ForeignKey\\hasColumn">
<polygon fill="white" stroke="black" points="330.5,-118.5 330.5,-139.5 613.5,-139.5 613.5,-118.5 330.5,-118.5"/>
<text text-anchor="middle" x="472" y="-126.5" font-family="Helvetica,sans-Serif" font-size="10.00">ZendDbSchema_Db_Schema_Table_ForeignKey\hasColumn</text>
</a>
</g>
<!-- Node1&#45;&gt;Node4 -->
<g id="edge6" class="edge"><title>Node1&#45;&gt;Node4</title>
<path fill="none" stroke="midnightblue" d="M241.665,-101.696C286.656,-107.029 339.517,-113.295 383.243,-118.479"/>
<polygon fill="midnightblue" stroke="midnightblue" points="241.941,-98.2042 231.599,-100.503 241.117,-105.156 241.941,-98.2042"/>
</g>
<!-- Node5 -->
<g id="node9" class="node"><title>Node5</title>
<a xlink:href="classZendDbSchema__Db__Schema__Table__ForeignKey.html#a810c76bf8102391ec3d304647c369146" target="_top" xlink:title="ZendDbSchema_Db_Schema_Table_ForeignKey\\removeColumn">
<polygon fill="white" stroke="black" points="658.5,-99.5 658.5,-120.5 957.5,-120.5 957.5,-99.5 658.5,-99.5"/>
<text text-anchor="middle" x="808" y="-107.5" font-family="Helvetica,sans-Serif" font-size="10.00">ZendDbSchema_Db_Schema_Table_ForeignKey\removeColumn</text>
</a>
</g>
<!-- Node1&#45;&gt;Node5 -->
<g id="edge12" class="edge"><title>Node1&#45;&gt;Node5</title>
<path fill="none" stroke="midnightblue" d="M296.146,-94.6059C404.925,-97.8774 550.252,-102.248 658.258,-105.496"/>
<polygon fill="midnightblue" stroke="midnightblue" points="296.168,-91.1051 286.068,-94.3028 295.958,-98.1019 296.168,-91.1051"/>
</g>
<!-- Node6 -->
<g id="node11" class="node"><title>Node6</title>
<a xlink:href="classZendDbSchema__Db__Schema__Table__ForeignKey.html#ab37a34d3b9b9913fddc255471eb79c00" target="_top" xlink:title="ZendDbSchema_Db_Schema_Table_ForeignKey\\hasRefColumn">
<polygon fill="white" stroke="black" points="322.5,-40.5 322.5,-61.5 621.5,-61.5 621.5,-40.5 322.5,-40.5"/>
<text text-anchor="middle" x="472" y="-48.5" font-family="Helvetica,sans-Serif" font-size="10.00">ZendDbSchema_Db_Schema_Table_ForeignKey\hasRefColumn</text>
</a>
</g>
<!-- Node1&#45;&gt;Node6 -->
<g id="edge10" class="edge"><title>Node1&#45;&gt;Node6</title>
<path fill="none" stroke="midnightblue" d="M241.665,-78.3042C286.656,-72.9708 339.517,-66.7047 383.243,-61.5213"/>
<polygon fill="midnightblue" stroke="midnightblue" points="241.117,-74.8445 231.599,-79.4974 241.941,-81.7958 241.117,-74.8445"/>
</g>
<!-- Node7 -->
<g id="node14" class="node"><title>Node7</title>
<a xlink:href="classZendDbSchema__Db__Schema__Table__ForeignKey.html#acad90fc706fe3c4aa734b073fa551152" target="_top" xlink:title="ZendDbSchema_Db_Schema_Table_ForeignKey\\setColumn">
<polygon fill="white" stroke="black" points="331.5,-0.5 331.5,-21.5 612.5,-21.5 612.5,-0.5 331.5,-0.5"/>
<text text-anchor="middle" x="472" y="-8.5" font-family="Helvetica,sans-Serif" font-size="10.00">ZendDbSchema_Db_Schema_Table_ForeignKey\setColumn</text>
</a>
</g>
<!-- Node1&#45;&gt;Node7 -->
<g id="edge14" class="edge"><title>Node1&#45;&gt;Node7</title>
<path fill="none" stroke="midnightblue" d="M179.368,-75.7965C215.14,-62.3568 271.567,-42.568 322,-31 338.389,-27.2409 355.958,-24.1113 373.093,-21.5315"/>
<polygon fill="midnightblue" stroke="midnightblue" points="177.957,-72.5882 169.848,-79.4067 180.439,-79.1333 177.957,-72.5882"/>
</g>
<!-- Node3 -->
<g id="node5" class="node"><title>Node3</title>
<a xlink:href="classZendDbSchema__Db__Schema__Generator__Mysql.html#a16b347a1c95888775b09d14505bae2b2" target="_top" xlink:title="ZendDbSchema_Db_Schema_Generator_Mysql\\alterForeignKey">
<polygon fill="white" stroke="black" points="659.5,-158.5 659.5,-179.5 956.5,-179.5 956.5,-158.5 659.5,-158.5"/>
<text text-anchor="middle" x="808" y="-166.5" font-family="Helvetica,sans-Serif" font-size="10.00">ZendDbSchema_Db_Schema_Generator_Mysql\alterForeignKey</text>
</a>
</g>
<!-- Node2&#45;&gt;Node3 -->
<g id="edge4" class="edge"><title>Node2&#45;&gt;Node3</title>
<path fill="none" stroke="midnightblue" d="M629.387,-169C639.421,-169 649.506,-169 659.497,-169"/>
<polygon fill="midnightblue" stroke="midnightblue" points="629.375,-165.5 619.374,-169 629.374,-172.5 629.375,-165.5"/>
</g>
<!-- Node4&#45;&gt;Node5 -->
<g id="edge8" class="edge"><title>Node4&#45;&gt;Node5</title>
<path fill="none" stroke="midnightblue" d="M623.615,-120.427C635.139,-119.775 646.766,-119.117 658.278,-118.466"/>
<polygon fill="midnightblue" stroke="midnightblue" points="623.307,-116.938 613.52,-120.997 623.702,-123.927 623.307,-116.938"/>
</g>
</g>
</svg>
