<?xml version="1.0" encoding="UTF-8" standalone="no"?>
<!DOCTYPE svg PUBLIC "-//W3C//DTD SVG 1.1//EN"
 "http://www.w3.org/Graphics/SVG/1.1/DTD/svg11.dtd">
<!-- Generated by graphviz version 2.26.3 (20100126.1600)
 -->
<!-- Title: G Pages: 1 -->
<svg width="570pt" height="70pt"
 viewBox="0.00 0.00 570.00 70.00" xmlns="http://www.w3.org/2000/svg" xmlns:xlink="http://www.w3.org/1999/xlink">
<g id="graph1" class="graph" transform="scale(1 1) rotate(0) translate(4 66)">
<title>G</title>
<polygon fill="white" stroke="white" points="-4,5 -4,-66 567,-66 567,5 -4,5"/>
<!-- Node1 -->
<g id="node1" class="node"><title>Node1</title>
<polygon fill="#bfbfbf" stroke="black" points="0,-20.5 0,-41.5 240,-41.5 240,-20.5 0,-20.5"/>
<text text-anchor="middle" x="120" y="-28.5" font-family="Helvetica,sans-Serif" font-size="10.00">ZendDbSchema_Db_Schema_AbstractSchema\init</text>
</g>
<!-- Node2 -->
<g id="node3" class="node"><title>Node2</title>
<a xlink:href="classZendDbSchema__Db__Schema__Table__PrimaryKey.html#a8189591ab7ced58307298ecc8f27779d" target="_top" xlink:title="ZendDbSchema_Db_Schema_Table_PrimaryKey\\__construct">
<polygon fill="white" stroke="black" points="276,-40.5 276,-61.5 562,-61.5 562,-40.5 276,-40.5"/>
<text text-anchor="middle" x="419" y="-48.5" font-family="Helvetica,sans-Serif" font-size="10.00">ZendDbSchema_Db_Schema_Table_PrimaryKey\__construct</text>
</a>
</g>
<!-- Node1&#45;&gt;Node2 -->
<g id="edge2" class="edge"><title>Node1&#45;&gt;Node2</title>
<path fill="none" stroke="midnightblue" d="M250.509,-39.7297C258.899,-40.2909 267.371,-40.8576 275.815,-41.4224"/>
<polygon fill="midnightblue" stroke="midnightblue" points="250.534,-36.2236 240.322,-39.0483 250.066,-43.208 250.534,-36.2236"/>
</g>
<!-- Node3 -->
<g id="node5" class="node"><title>Node3</title>
<a xlink:href="classZendDbSchema__Db__Schema__AbstractSchema.html#a95b8986f7fa3a4e26be024d3a621e4f6" target="_top" xlink:title="ZendDbSchema_Db_Schema_AbstractSchema\\__construct">
<polygon fill="white" stroke="black" points="280,-0.5 280,-21.5 558,-21.5 558,-0.5 280,-0.5"/>
<text text-anchor="middle" x="419" y="-8.5" font-family="Helvetica,sans-Serif" font-size="10.00">ZendDbSchema_Db_Schema_AbstractSchema\__construct</text>
</a>
</g>
<!-- Node1&#45;&gt;Node3 -->
<g id="edge4" class="edge"><title>Node1&#45;&gt;Node3</title>
<path fill="none" stroke="midnightblue" d="M250.417,-22.2765C260.148,-21.6255 269.99,-20.9673 279.772,-20.3129"/>
<polygon fill="midnightblue" stroke="midnightblue" points="250.066,-18.792 240.322,-22.9517 250.534,-25.7764 250.066,-18.792"/>
</g>
</g>
</svg>
