<?xml version="1.0" encoding="UTF-8" standalone="no"?>
<!DOCTYPE svg PUBLIC "-//W3C//DTD SVG 1.1//EN"
 "http://www.w3.org/Graphics/SVG/1.1/DTD/svg11.dtd">
<!-- Generated by graphviz version 2.26.3 (20100126.1600)
 -->
<!-- Title: G Pages: 1 -->
<svg width="716pt" height="146pt"
 viewBox="0.00 0.00 716.00 146.00" xmlns="http://www.w3.org/2000/svg" xmlns:xlink="http://www.w3.org/1999/xlink">
<g id="graph1" class="graph" transform="scale(1 1) rotate(0) translate(4 142)">
<title>G</title>
<polygon fill="white" stroke="white" points="-4,5 -4,-142 713,-142 713,5 -4,5"/>
<!-- Node1 -->
<g id="node1" class="node"><title>Node1</title>
<polygon fill="#bfbfbf" stroke="black" points="0,-71 0,-105 150,-105 150,-71 0,-71"/>
<text text-anchor="start" x="8" y="-92" font-family="Helvetica,sans-Serif" font-size="10.00">ZendDbSchema_Db_Migration</text>
<text text-anchor="middle" x="75" y="-79" font-family="Helvetica,sans-Serif" font-size="10.00">_Manager\up</text>
</g>
<!-- Node2 -->
<g id="node3" class="node"><title>Node2</title>
<a xlink:href="classZendDbSchema__Db__Migration__Manager.html#a3f8150b5e2fc90623a10c7890af80185" target="_top" xlink:title="ZendDbSchema_Db_Migration\l_Manager\\compareVersion">
<polygon fill="white" stroke="black" points="186,-97 186,-131 336,-131 336,-97 186,-97"/>
<text text-anchor="start" x="194" y="-118" font-family="Helvetica,sans-Serif" font-size="10.00">ZendDbSchema_Db_Migration</text>
<text text-anchor="middle" x="261" y="-105" font-family="Helvetica,sans-Serif" font-size="10.00">_Manager\compareVersion</text>
</a>
</g>
<!-- Node1&#45;&gt;Node2 -->
<g id="edge2" class="edge"><title>Node1&#45;&gt;Node2</title>
<path fill="none" stroke="midnightblue" d="M150.117,-98.5003C158.596,-99.6854 167.281,-100.899 175.875,-102.101"/>
<polygon fill="midnightblue" stroke="midnightblue" points="175.517,-105.585 185.905,-103.503 176.486,-98.652 175.517,-105.585"/>
</g>
<!-- Node6 -->
<g id="node13" class="node"><title>Node6</title>
<a xlink:href="classZendDbSchema__Db__Migration__Manager.html#afbaee9196407b68350626e8601a44a9a" target="_top" xlink:title="ZendDbSchema_Db_Migration\l_Manager\\rollup">
<polygon fill="white" stroke="black" points="186,-45 186,-79 336,-79 336,-45 186,-45"/>
<text text-anchor="start" x="194" y="-66" font-family="Helvetica,sans-Serif" font-size="10.00">ZendDbSchema_Db_Migration</text>
<text text-anchor="middle" x="261" y="-53" font-family="Helvetica,sans-Serif" font-size="10.00">_Manager\rollup</text>
</a>
</g>
<!-- Node1&#45;&gt;Node6 -->
<g id="edge14" class="edge"><title>Node1&#45;&gt;Node6</title>
<path fill="none" stroke="midnightblue" d="M150.117,-77.4997C158.596,-76.3146 167.281,-75.1006 175.875,-73.8992"/>
<polygon fill="midnightblue" stroke="midnightblue" points="176.486,-77.348 185.905,-72.4972 175.517,-70.4154 176.486,-77.348"/>
</g>
<!-- Node3 -->
<g id="node5" class="node"><title>Node3</title>
<a xlink:href="classZendDbSchema__Db__Migration__Manager.html#a9973d07f9ffe306e00ea2f9f4beb92e4" target="_top" xlink:title="ZendDbSchema_Db_Migration\l_Manager\\hasChange">
<polygon fill="white" stroke="black" points="558,-52 558,-86 708,-86 708,-52 558,-52"/>
<text text-anchor="start" x="566" y="-73" font-family="Helvetica,sans-Serif" font-size="10.00">ZendDbSchema_Db_Migration</text>
<text text-anchor="middle" x="633" y="-60" font-family="Helvetica,sans-Serif" font-size="10.00">_Manager\hasChange</text>
</a>
</g>
<!-- Node2&#45;&gt;Node3 -->
<g id="edge4" class="edge"><title>Node2&#45;&gt;Node3</title>
<path fill="none" stroke="midnightblue" d="M336.165,-111.663C388.504,-109.272 459.796,-104.489 522,-95 533.694,-93.2162 545.977,-90.8482 557.938,-88.266"/>
<polygon fill="midnightblue" stroke="midnightblue" points="558.886,-91.6407 567.889,-86.0547 557.368,-84.8074 558.886,-91.6407"/>
</g>
<!-- Node4 -->
<g id="node7" class="node"><title>Node4</title>
<a xlink:href="classZendDbSchema__Db__Migration__Manager.html#a3d4f62489e72876f97bec3cd4448979d" target="_top" xlink:title="ZendDbSchema_Db_Migration\l_Manager\\getChange">
<polygon fill="white" stroke="black" points="372,-52 372,-86 522,-86 522,-52 372,-52"/>
<text text-anchor="start" x="380" y="-73" font-family="Helvetica,sans-Serif" font-size="10.00">ZendDbSchema_Db_Migration</text>
<text text-anchor="middle" x="447" y="-60" font-family="Helvetica,sans-Serif" font-size="10.00">_Manager\getChange</text>
</a>
</g>
<!-- Node2&#45;&gt;Node4 -->
<g id="edge6" class="edge"><title>Node2&#45;&gt;Node4</title>
<path fill="none" stroke="midnightblue" d="M331.319,-96.9874C342.892,-94.1874 354.965,-91.2666 366.758,-88.4134"/>
<polygon fill="midnightblue" stroke="midnightblue" points="367.685,-91.7901 376.582,-86.0366 366.039,-84.9864 367.685,-91.7901"/>
</g>
<!-- Node5 -->
<g id="node9" class="node"><title>Node5</title>
<a xlink:href="classZendDbSchema__Db__Migration__Manager.html#ab66af8a9dc5cdb099b8266b68166c4e0" target="_top" xlink:title="ZendDbSchema_Db_Migration\l_Manager\\getVersion">
<polygon fill="white" stroke="black" points="558,-104 558,-138 708,-138 708,-104 558,-104"/>
<text text-anchor="start" x="566" y="-125" font-family="Helvetica,sans-Serif" font-size="10.00">ZendDbSchema_Db_Migration</text>
<text text-anchor="middle" x="633" y="-112" font-family="Helvetica,sans-Serif" font-size="10.00">_Manager\getVersion</text>
</a>
</g>
<!-- Node2&#45;&gt;Node5 -->
<g id="edge12" class="edge"><title>Node2&#45;&gt;Node5</title>
<path fill="none" stroke="midnightblue" d="M336.112,-124.769C348.092,-126.112 360.369,-127.269 372,-128 430.635,-131.683 496.799,-129.843 547.838,-127.127"/>
<polygon fill="midnightblue" stroke="midnightblue" points="548.047,-130.621 557.838,-126.574 547.66,-123.632 548.047,-130.621"/>
</g>
<!-- Node4&#45;&gt;Node3 -->
<g id="edge10" class="edge"><title>Node4&#45;&gt;Node3</title>
<path fill="none" stroke="midnightblue" d="M522.117,-69C530.596,-69 539.281,-69 547.875,-69"/>
<polygon fill="midnightblue" stroke="midnightblue" points="547.905,-72.5001 557.905,-69 547.905,-65.5001 547.905,-72.5001"/>
</g>
<!-- Node4&#45;&gt;Node5 -->
<g id="edge8" class="edge"><title>Node4&#45;&gt;Node5</title>
<path fill="none" stroke="midnightblue" d="M507.903,-86.0267C525.246,-90.8752 544.285,-96.1981 562.165,-101.197"/>
<polygon fill="midnightblue" stroke="midnightblue" points="561.387,-104.613 571.96,-103.935 563.271,-97.8717 561.387,-104.613"/>
</g>
<!-- Node6&#45;&gt;Node4 -->
<g id="edge24" class="edge"><title>Node6&#45;&gt;Node4</title>
<path fill="none" stroke="midnightblue" d="M336.117,-64.827C344.596,-65.1461 353.281,-65.4729 361.875,-65.7964"/>
<polygon fill="midnightblue" stroke="midnightblue" points="361.78,-69.2952 371.905,-66.1738 362.044,-62.3001 361.78,-69.2952"/>
</g>
<!-- Node7 -->
<g id="node15" class="node"><title>Node7</title>
<a xlink:href="classZendDbSchema__Db__Migration__Manager.html#acb171835d37a1596a4ac6db273bf07ae" target="_top" xlink:title="ZendDbSchema_Db_Migration\l_Manager\\getNext">
<polygon fill="white" stroke="black" points="372,-0 372,-34 522,-34 522,-0 372,-0"/>
<text text-anchor="start" x="380" y="-21" font-family="Helvetica,sans-Serif" font-size="10.00">ZendDbSchema_Db_Migration</text>
<text text-anchor="middle" x="447" y="-8" font-family="Helvetica,sans-Serif" font-size="10.00">_Manager\getNext</text>
</a>
</g>
<!-- Node6&#45;&gt;Node7 -->
<g id="edge16" class="edge"><title>Node6&#45;&gt;Node7</title>
<path fill="none" stroke="midnightblue" d="M331.319,-44.9874C342.892,-42.1874 354.965,-39.2666 366.758,-36.4134"/>
<polygon fill="midnightblue" stroke="midnightblue" points="367.685,-39.7901 376.582,-34.0366 366.039,-32.9864 367.685,-39.7901"/>
</g>
<!-- Node7&#45;&gt;Node3 -->
<g id="edge20" class="edge"><title>Node7&#45;&gt;Node3</title>
<path fill="none" stroke="midnightblue" d="M507.903,-34.0267C525.246,-38.8752 544.285,-44.1981 562.165,-49.1965"/>
<polygon fill="midnightblue" stroke="midnightblue" points="561.387,-52.6132 571.96,-51.935 563.271,-45.8717 561.387,-52.6132"/>
</g>
<!-- Node7&#45;&gt;Node5 -->
<g id="edge18" class="edge"><title>Node7&#45;&gt;Node5</title>
<path fill="none" stroke="midnightblue" d="M507.703,-34.174C512.761,-36.7395 517.61,-39.6663 522,-43 544.386,-59.9996 535.614,-78.0004 558,-95 559.783,-96.3543 561.643,-97.6415 563.561,-98.8645"/>
<polygon fill="midnightblue" stroke="midnightblue" points="561.873,-101.931 572.297,-103.826 565.33,-95.8441 561.873,-101.931"/>
</g>
<!-- Node8 -->
<g id="node19" class="node"><title>Node8</title>
<a xlink:href="classZendDbSchema__Db__Migration__Manager.html#a09b440110f77079a37794ccdb0922d41" target="_top" xlink:title="ZendDbSchema_Db_Migration\l_Manager\\getIterator">
<polygon fill="white" stroke="black" points="558,-0 558,-34 708,-34 708,-0 558,-0"/>
<text text-anchor="start" x="566" y="-21" font-family="Helvetica,sans-Serif" font-size="10.00">ZendDbSchema_Db_Migration</text>
<text text-anchor="middle" x="633" y="-8" font-family="Helvetica,sans-Serif" font-size="10.00">_Manager\getIterator</text>
</a>
</g>
<!-- Node7&#45;&gt;Node8 -->
<g id="edge22" class="edge"><title>Node7&#45;&gt;Node8</title>
<path fill="none" stroke="midnightblue" d="M522.117,-17C530.596,-17 539.281,-17 547.875,-17"/>
<polygon fill="midnightblue" stroke="midnightblue" points="547.905,-20.5001 557.905,-17 547.905,-13.5001 547.905,-20.5001"/>
</g>
</g>
</svg>
