<?xml version="1.0" encoding="UTF-8" standalone="no"?>
<!DOCTYPE svg PUBLIC "-//W3C//DTD SVG 1.1//EN"
 "http://www.w3.org/Graphics/SVG/1.1/DTD/svg11.dtd">
<!-- Generated by graphviz version 2.26.3 (20100126.1600)
 -->
<!-- Title: G Pages: 1 -->
<svg width="1278pt" height="607pt"
 viewBox="0.00 0.00 1278.00 607.21" xmlns="http://www.w3.org/2000/svg" xmlns:xlink="http://www.w3.org/1999/xlink">
<g id="graph1" class="graph" transform="scale(1 1) rotate(0) translate(4 603.207)">
<title>G</title>
<polygon fill="white" stroke="white" points="-4,5 -4,-603.207 1275,-603.207 1275,5 -4,5"/>
<!-- Node1 -->
<g id="node1" class="node"><title>Node1</title>
<polygon fill="#bfbfbf" stroke="black" points="0,-387.5 0,-408.5 302,-408.5 302,-387.5 0,-387.5"/>
<text text-anchor="middle" x="151" y="-395.5" font-family="Helvetica,sans-Serif" font-size="10.00">ZendDbSchema_Db_Schema_AbstractSchema\getCleanSchema</text>
</g>
<!-- Node2 -->
<g id="node3" class="node"><title>Node2</title>
<a xlink:href="classZendDbSchema__Db__Schema__AbstractSchema.html#ae859790a91bbcb9c4dc52a6139e5999e" target="_top" xlink:title="ZendDbSchema_Db_Schema_AbstractSchema\\isDirty">
<polygon fill="white" stroke="black" points="339,-536.5 339,-557.5 595,-557.5 595,-536.5 339,-536.5"/>
<text text-anchor="middle" x="467" y="-544.5" font-family="Helvetica,sans-Serif" font-size="10.00">ZendDbSchema_Db_Schema_AbstractSchema\isDirty</text>
</a>
</g>
<!-- Node1&#45;&gt;Node2 -->
<g id="edge2" class="edge"><title>Node1&#45;&gt;Node2</title>
<path fill="none" stroke="midnightblue" d="M182.651,-412.924C246.439,-443.002 389.072,-510.256 444.431,-536.358"/>
<polygon fill="midnightblue" stroke="midnightblue" points="184.01,-409.695 173.473,-408.596 181.025,-416.027 184.01,-409.695"/>
</g>
<!-- Node7 -->
<g id="node14" class="node"><title>Node7</title>
<a xlink:href="classZendDbSchema__Db__Schema__Table.html#a21a2a75870207a989576655fec7507c3" target="_top" xlink:title="ZendDbSchema_Db_Schema_Table\\isDirty">
<polygon fill="white" stroke="black" points="363.5,-436.5 363.5,-457.5 570.5,-457.5 570.5,-436.5 363.5,-436.5"/>
<text text-anchor="middle" x="467" y="-444.5" font-family="Helvetica,sans-Serif" font-size="10.00">ZendDbSchema_Db_Schema_Table\isDirty</text>
</a>
</g>
<!-- Node1&#45;&gt;Node7 -->
<g id="edge14" class="edge"><title>Node1&#45;&gt;Node7</title>
<path fill="none" stroke="midnightblue" d="M228.675,-410.045C280.874,-418.139 349.008,-428.704 399.05,-436.463"/>
<polygon fill="midnightblue" stroke="midnightblue" points="229.208,-406.585 218.79,-408.512 228.135,-413.503 229.208,-406.585"/>
</g>
<!-- Node10 -->
<g id="node20" class="node"><title>Node10</title>
<a xlink:href="classZendDbSchema__Db__Schema__AbstractSchema.html#a1680a8fd22360f74d29b641d7257a52f" target="_top" xlink:title="ZendDbSchema_Db_Schema_AbstractSchema\\isExist">
<polygon fill="white" stroke="black" points="338.5,-338.5 338.5,-359.5 595.5,-359.5 595.5,-338.5 338.5,-338.5"/>
<text text-anchor="middle" x="467" y="-346.5" font-family="Helvetica,sans-Serif" font-size="10.00">ZendDbSchema_Db_Schema_AbstractSchema\isExist</text>
</a>
</g>
<!-- Node1&#45;&gt;Node10 -->
<g id="edge20" class="edge"><title>Node1&#45;&gt;Node10</title>
<path fill="none" stroke="midnightblue" d="M228.675,-385.955C280.874,-377.861 349.008,-367.296 399.05,-359.537"/>
<polygon fill="midnightblue" stroke="midnightblue" points="228.135,-382.497 218.79,-387.488 229.208,-389.415 228.135,-382.497"/>
</g>
<!-- Node21 -->
<g id="node48" class="node"><title>Node21</title>
<a xlink:href="classZendDbSchema__Db__Schema__AbstractSchema.html#a84673a5d69f10fec5b31294bf53f6d56" target="_top" xlink:title="ZendDbSchema_Db_Schema_AbstractSchema\\refresh">
<polygon fill="white" stroke="black" points="338.5,-40.5 338.5,-61.5 595.5,-61.5 595.5,-40.5 338.5,-40.5"/>
<text text-anchor="middle" x="467" y="-48.5" font-family="Helvetica,sans-Serif" font-size="10.00">ZendDbSchema_Db_Schema_AbstractSchema\refresh</text>
</a>
</g>
<!-- Node1&#45;&gt;Node21 -->
<g id="edge54" class="edge"><title>Node1&#45;&gt;Node21</title>
<path fill="none" stroke="midnightblue" d="M167.71,-379.651C225.013,-316.726 412.489,-110.859 457.311,-61.64"/>
<polygon fill="midnightblue" stroke="midnightblue" points="164.949,-377.484 160.804,-387.234 170.125,-382.197 164.949,-377.484"/>
</g>
<!-- Node3 -->
<g id="node5" class="node"><title>Node3</title>
<a xlink:href="classZendDbSchema__Db__Schema__Generator__Mysql.html#a5ffe10ce956b3e189c364d2bd03acf88" target="_top" xlink:title="ZendDbSchema_Db_Schema_Generator_Mysql\\alterDatabase">
<polygon fill="white" stroke="black" points="646,-556.5 646,-577.5 936,-577.5 936,-556.5 646,-556.5"/>
<text text-anchor="middle" x="791" y="-564.5" font-family="Helvetica,sans-Serif" font-size="10.00">ZendDbSchema_Db_Schema_Generator_Mysql\alterDatabase</text>
</a>
</g>
<!-- Node2&#45;&gt;Node3 -->
<g id="edge4" class="edge"><title>Node2&#45;&gt;Node3</title>
<path fill="none" stroke="midnightblue" d="M605.295,-555.537C618.754,-556.368 632.436,-557.212 645.958,-558.047"/>
<polygon fill="midnightblue" stroke="midnightblue" points="605.25,-552.027 595.053,-554.905 604.819,-559.014 605.25,-552.027"/>
</g>
<!-- Node4 -->
<g id="node7" class="node"><title>Node4</title>
<a xlink:href="classZendDbSchema__Db__Schema__AbstractEntity.html#a5b1c93da76c3708f90d330b4643e55b2" target="_top" xlink:title="ZendDbSchema_Db_Schema_AbstractEntity\\save">
<polygon fill="white" stroke="black" points="1009,-536.5 1009,-557.5 1247,-557.5 1247,-536.5 1009,-536.5"/>
<text text-anchor="middle" x="1128" y="-544.5" font-family="Helvetica,sans-Serif" font-size="10.00">ZendDbSchema_Db_Schema_AbstractEntity\save</text>
</a>
</g>
<!-- Node2&#45;&gt;Node4 -->
<g id="edge6" class="edge"><title>Node2&#45;&gt;Node4</title>
<path fill="none" stroke="midnightblue" d="M510.159,-560.45C543.15,-569.998 589.96,-581.977 632,-587 772.335,-603.767 809.529,-602.589 950,-587 999.896,-581.463 1056.24,-567.449 1091.92,-557.577"/>
<polygon fill="midnightblue" stroke="midnightblue" points="510.965,-557.039 500.384,-557.575 508.99,-563.754 510.965,-557.039"/>
</g>
<!-- Node5 -->
<g id="node9" class="node"><title>Node5</title>
<a xlink:href="classZendDbSchema__Db__Schema__AbstractSchema.html#ada5af8e6e7a4c5407b7ca67d03900b31" target="_top" xlink:title="ZendDbSchema_Db_Schema_AbstractSchema\\toSql">
<polygon fill="white" stroke="black" points="666,-516.5 666,-537.5 916,-537.5 916,-516.5 666,-516.5"/>
<text text-anchor="middle" x="791" y="-524.5" font-family="Helvetica,sans-Serif" font-size="10.00">ZendDbSchema_Db_Schema_AbstractSchema\toSql</text>
</a>
</g>
<!-- Node2&#45;&gt;Node5 -->
<g id="edge8" class="edge"><title>Node2&#45;&gt;Node5</title>
<path fill="none" stroke="midnightblue" d="M605.233,-538.467C625.413,-537.221 646.097,-535.945 665.994,-534.716"/>
<polygon fill="midnightblue" stroke="midnightblue" points="604.819,-534.986 595.053,-539.095 605.25,-541.973 604.819,-534.986"/>
</g>
<!-- Node5&#45;&gt;Node4 -->
<g id="edge10" class="edge"><title>Node5&#45;&gt;Node4</title>
<path fill="none" stroke="midnightblue" d="M926.031,-535.014C953.405,-536.638 982.007,-538.336 1008.79,-539.925"/>
<polygon fill="midnightblue" stroke="midnightblue" points="926.197,-531.518 916.007,-534.419 925.783,-538.505 926.197,-531.518"/>
</g>
<!-- Node6 -->
<g id="node12" class="node"><title>Node6</title>
<a xlink:href="classZendDbSchema__Db__Schema__AbstractSchema.html#aafc458a7c19c74314889da4a99e457ff" target="_top" xlink:title="ZendDbSchema_Db_Schema_AbstractSchema\\__toString">
<polygon fill="white" stroke="black" points="992,-496.5 992,-517.5 1264,-517.5 1264,-496.5 992,-496.5"/>
<text text-anchor="middle" x="1128" y="-504.5" font-family="Helvetica,sans-Serif" font-size="10.00">ZendDbSchema_Db_Schema_AbstractSchema\__toString</text>
</a>
</g>
<!-- Node5&#45;&gt;Node6 -->
<g id="edge12" class="edge"><title>Node5&#45;&gt;Node6</title>
<path fill="none" stroke="midnightblue" d="M926.218,-518.975C947.843,-517.692 970.229,-516.363 991.874,-515.079"/>
<polygon fill="midnightblue" stroke="midnightblue" points="925.783,-515.495 916.007,-519.581 926.197,-522.482 925.783,-515.495"/>
</g>
<!-- Node8 -->
<g id="node16" class="node"><title>Node8</title>
<a xlink:href="classZendDbSchema__Db__Schema__Generator__Mysql.html#aebe278ab07f38d58f8f440f9cad01565" target="_top" xlink:title="ZendDbSchema_Db_Schema_Generator_Mysql\\alterTable">
<polygon fill="white" stroke="black" points="655,-476.5 655,-497.5 927,-497.5 927,-476.5 655,-476.5"/>
<text text-anchor="middle" x="791" y="-484.5" font-family="Helvetica,sans-Serif" font-size="10.00">ZendDbSchema_Db_Schema_Generator_Mysql\alterTable</text>
</a>
</g>
<!-- Node7&#45;&gt;Node8 -->
<g id="edge16" class="edge"><title>Node7&#45;&gt;Node8</title>
<path fill="none" stroke="midnightblue" d="M562.295,-458.765C607.786,-464.381 661.78,-471.047 705.879,-476.491"/>
<polygon fill="midnightblue" stroke="midnightblue" points="562.481,-455.261 552.127,-457.51 561.623,-462.209 562.481,-455.261"/>
</g>
<!-- Node9 -->
<g id="node18" class="node"><title>Node9</title>
<a xlink:href="classZendDbSchema__Db__Schema__Table.html#a6178edaeea7e08d97e2196dd991532f9" target="_top" xlink:title="ZendDbSchema_Db_Schema_Table\\toSql">
<polygon fill="white" stroke="black" points="690.5,-436.5 690.5,-457.5 891.5,-457.5 891.5,-436.5 690.5,-436.5"/>
<text text-anchor="middle" x="791" y="-444.5" font-family="Helvetica,sans-Serif" font-size="10.00">ZendDbSchema_Db_Schema_Table\toSql</text>
</a>
</g>
<!-- Node7&#45;&gt;Node9 -->
<g id="edge18" class="edge"><title>Node7&#45;&gt;Node9</title>
<path fill="none" stroke="midnightblue" d="M581.293,-447C616.908,-447 655.901,-447 690.498,-447"/>
<polygon fill="midnightblue" stroke="midnightblue" points="580.853,-443.5 570.853,-447 580.852,-450.5 580.853,-443.5"/>
</g>
<!-- Node10&#45;&gt;Node3 -->
<g id="edge22" class="edge"><title>Node10&#45;&gt;Node3</title>
<path fill="none" stroke="midnightblue" d="M506.095,-363.567C534.881,-376.195 572.885,-397.168 596,-427 630.105,-471.015 589.493,-511.034 632,-547 636.354,-550.684 641.03,-553.906 645.949,-556.717"/>
<polygon fill="midnightblue" stroke="midnightblue" points="507.295,-360.274 496.721,-359.603 504.569,-366.721 507.295,-360.274"/>
</g>
<!-- Node10&#45;&gt;Node4 -->
<g id="edge38" class="edge"><title>Node10&#45;&gt;Node4</title>
<path fill="none" stroke="midnightblue" d="M514.515,-362.108C547.312,-370.763 592.042,-381.795 632,-389 702.04,-401.628 894.308,-382.688 950,-427 986.964,-456.411 949.347,-497.203 986,-527 992.858,-532.575 1000.54,-536.989 1008.7,-540.455"/>
<polygon fill="midnightblue" stroke="midnightblue" points="515.302,-358.695 504.738,-359.505 513.501,-365.46 515.302,-358.695"/>
</g>
<!-- Node10&#45;&gt;Node5 -->
<g id="edge48" class="edge"><title>Node10&#45;&gt;Node5</title>
<path fill="none" stroke="midnightblue" d="M503.171,-363.626C531.561,-376.657 570.431,-398.134 596,-427 621.853,-456.186 600.646,-483.824 632,-507 642.18,-514.525 653.764,-520.006 665.931,-523.933"/>
<polygon fill="midnightblue" stroke="midnightblue" points="504.539,-360.404 493.98,-359.532 501.691,-366.798 504.539,-360.404"/>
</g>
<!-- Node10&#45;&gt;Node8 -->
<g id="edge26" class="edge"><title>Node10&#45;&gt;Node8</title>
<path fill="none" stroke="midnightblue" d="M497.876,-364.337C525.108,-378.617 565.148,-401.489 596,-427 614.433,-442.241 610.802,-455.922 632,-467 639.274,-470.801 646.983,-473.992 654.93,-476.663"/>
<polygon fill="midnightblue" stroke="midnightblue" points="499.304,-361.136 488.814,-359.655 496.091,-367.355 499.304,-361.136"/>
</g>
<!-- Node10&#45;&gt;Node9 -->
<g id="edge50" class="edge"><title>Node10&#45;&gt;Node9</title>
<path fill="none" stroke="midnightblue" d="M495.55,-364.386C527.78,-381.094 582.223,-407.349 632,-422 652.909,-428.154 675.837,-432.879 697.613,-436.474"/>
<polygon fill="midnightblue" stroke="midnightblue" points="497.163,-361.28 486.681,-359.738 493.913,-367.48 497.163,-361.28"/>
</g>
<!-- Node11 -->
<g id="node23" class="node"><title>Node11</title>
<a xlink:href="classZendDbSchema__Db__Schema__Generator__Mysql.html#ab3c87af9fdc6ba8d911b1162a67dc0be" target="_top" xlink:title="ZendDbSchema_Db_Schema_Generator_Mysql\\dropDatabase">
<polygon fill="white" stroke="black" points="646,-238.5 646,-259.5 936,-259.5 936,-238.5 646,-238.5"/>
<text text-anchor="middle" x="791" y="-246.5" font-family="Helvetica,sans-Serif" font-size="10.00">ZendDbSchema_Db_Schema_Generator_Mysql\dropDatabase</text>
</a>
</g>
<!-- Node10&#45;&gt;Node11 -->
<g id="edge24" class="edge"><title>Node10&#45;&gt;Node11</title>
<path fill="none" stroke="midnightblue" d="M492.674,-333.256C524.247,-314.687 580.053,-284.405 632,-269 644.937,-265.164 658.678,-262.063 672.456,-259.557"/>
<polygon fill="midnightblue" stroke="midnightblue" points="490.86,-330.262 484.06,-338.386 494.442,-336.276 490.86,-330.262"/>
</g>
<!-- Node12 -->
<g id="node26" class="node"><title>Node12</title>
<a xlink:href="classZendDbSchema__Db__Schema__Generator__Mysql.html#a963a138b593e5e9e3a6b9a8e540a4a10" target="_top" xlink:title="ZendDbSchema_Db_Schema_Generator_Mysql\\dropTable">
<polygon fill="white" stroke="black" points="655,-160.5 655,-181.5 927,-181.5 927,-160.5 655,-160.5"/>
<text text-anchor="middle" x="791" y="-168.5" font-family="Helvetica,sans-Serif" font-size="10.00">ZendDbSchema_Db_Schema_Generator_Mysql\dropTable</text>
</a>
</g>
<!-- Node10&#45;&gt;Node12 -->
<g id="edge28" class="edge"><title>Node10&#45;&gt;Node12</title>
<path fill="none" stroke="midnightblue" d="M480.923,-330.207C506.667,-297.003 565.216,-228.41 632,-196 644.695,-189.839 658.569,-185.136 672.663,-181.555"/>
<polygon fill="midnightblue" stroke="midnightblue" points="478.102,-328.135 474.825,-338.21 483.67,-332.378 478.102,-328.135"/>
</g>
<!-- Node13 -->
<g id="node28" class="node"><title>Node13</title>
<a xlink:href="classZendDbSchema__Db__Schema__Generator__Mysql.html#a57a5e637e2c19faee40597d96d6b71b3" target="_top" xlink:title="ZendDbSchema_Db_Schema_Generator_Mysql\\alterColumn">
<polygon fill="white" stroke="black" points="650.5,-80.5 650.5,-101.5 931.5,-101.5 931.5,-80.5 650.5,-80.5"/>
<text text-anchor="middle" x="791" y="-88.5" font-family="Helvetica,sans-Serif" font-size="10.00">ZendDbSchema_Db_Schema_Generator_Mysql\alterColumn</text>
</a>
</g>
<!-- Node10&#45;&gt;Node13 -->
<g id="edge30" class="edge"><title>Node10&#45;&gt;Node13</title>
<path fill="none" stroke="midnightblue" d="M477.669,-329.61C506.602,-277.767 587.364,-138.052 632,-111 638.067,-107.323 644.503,-104.18 651.175,-101.501"/>
<polygon fill="midnightblue" stroke="midnightblue" points="474.536,-328.043 472.745,-338.485 480.657,-331.439 474.536,-328.043"/>
</g>
<!-- Node14 -->
<g id="node30" class="node"><title>Node14</title>
<a xlink:href="classZendDbSchema__Db__Schema__Generator__Mysql.html#a5546e56c0c78f9c9d3e830fb5ffcd72d" target="_top" xlink:title="ZendDbSchema_Db_Schema_Generator_Mysql\\createIndex">
<polygon fill="white" stroke="black" points="651,-278.5 651,-299.5 931,-299.5 931,-278.5 651,-278.5"/>
<text text-anchor="middle" x="791" y="-286.5" font-family="Helvetica,sans-Serif" font-size="10.00">ZendDbSchema_Db_Schema_Generator_Mysql\createIndex</text>
</a>
</g>
<!-- Node10&#45;&gt;Node14 -->
<g id="edge32" class="edge"><title>Node10&#45;&gt;Node14</title>
<path fill="none" stroke="midnightblue" d="M514.853,-335.886C547.627,-327.279 592.196,-316.304 632,-309 651.703,-305.385 672.9,-302.221 693.192,-299.541"/>
<polygon fill="midnightblue" stroke="midnightblue" points="513.85,-332.531 505.079,-338.475 515.642,-339.298 513.85,-332.531"/>
</g>
<!-- Node16 -->
<g id="node34" class="node"><title>Node16</title>
<a xlink:href="classZendDbSchema__Db__Schema__Generator__Mysql.html#a16b347a1c95888775b09d14505bae2b2" target="_top" xlink:title="ZendDbSchema_Db_Schema_Generator_Mysql\\alterForeignKey">
<polygon fill="white" stroke="black" points="642.5,-358.5 642.5,-379.5 939.5,-379.5 939.5,-358.5 642.5,-358.5"/>
<text text-anchor="middle" x="791" y="-366.5" font-family="Helvetica,sans-Serif" font-size="10.00">ZendDbSchema_Db_Schema_Generator_Mysql\alterForeignKey</text>
</a>
</g>
<!-- Node10&#45;&gt;Node16 -->
<g id="edge36" class="edge"><title>Node10&#45;&gt;Node16</title>
<path fill="none" stroke="midnightblue" d="M605.66,-357.559C617.79,-358.308 630.099,-359.068 642.306,-359.821"/>
<polygon fill="midnightblue" stroke="midnightblue" points="605.715,-354.056 595.519,-356.933 605.284,-361.043 605.715,-354.056"/>
</g>
<!-- Node17 -->
<g id="node37" class="node"><title>Node17</title>
<a xlink:href="classZendDbSchema__Db__Schema__AbstractEntity.html#a26fcff2268495fcdbfa265f394ee93d9" target="_top" xlink:title="ZendDbSchema_Db_Schema_AbstractEntity\\delete">
<polygon fill="white" stroke="black" points="1006.5,-179.5 1006.5,-200.5 1249.5,-200.5 1249.5,-179.5 1006.5,-179.5"/>
<text text-anchor="middle" x="1128" y="-187.5" font-family="Helvetica,sans-Serif" font-size="10.00">ZendDbSchema_Db_Schema_AbstractEntity\delete</text>
</a>
</g>
<!-- Node10&#45;&gt;Node17 -->
<g id="edge40" class="edge"><title>Node10&#45;&gt;Node17</title>
<path fill="none" stroke="midnightblue" d="M484.43,-331.096C512.543,-303.533 570.95,-251.537 632,-229 698.244,-204.546 882.191,-195.42 1006.47,-192.018"/>
<polygon fill="midnightblue" stroke="midnightblue" points="481.938,-328.638 477.327,-338.177 486.88,-333.596 481.938,-328.638"/>
</g>
<!-- Node18 -->
<g id="node39" class="node"><title>Node18</title>
<a xlink:href="classZendDbSchema__Db__Schema__AbstractSchema.html#aec661ede88f500caaf2a09e98c31d3b0" target="_top" xlink:title="ZendDbSchema_Db_Schema_AbstractSchema\\getDropSql">
<polygon fill="white" stroke="black" points="653,-120.5 653,-141.5 929,-141.5 929,-120.5 653,-120.5"/>
<text text-anchor="middle" x="791" y="-128.5" font-family="Helvetica,sans-Serif" font-size="10.00">ZendDbSchema_Db_Schema_AbstractSchema\getDropSql</text>
</a>
</g>
<!-- Node10&#45;&gt;Node18 -->
<g id="edge42" class="edge"><title>Node10&#45;&gt;Node18</title>
<path fill="none" stroke="midnightblue" d="M476.7,-329.476C498.247,-288.423 554.392,-193.457 632,-151 638.712,-147.328 645.817,-144.214 653.153,-141.581"/>
<polygon fill="midnightblue" stroke="midnightblue" points="473.535,-327.977 472.083,-338.471 479.763,-331.173 473.535,-327.977"/>
</g>
<!-- Node20 -->
<g id="node46" class="node"><title>Node20</title>
<a xlink:href="classZendDbSchema__Db__Schema__Table__AbstractDefinition.html#a018fe3e134417675da482608579910a5" target="_top" xlink:title="ZendDbSchema_Db_Schema_Table_AbstractDefinition\\markDeleted">
<polygon fill="white" stroke="black" points="632.5,-318.5 632.5,-339.5 949.5,-339.5 949.5,-318.5 632.5,-318.5"/>
<text text-anchor="middle" x="791" y="-326.5" font-family="Helvetica,sans-Serif" font-size="10.00">ZendDbSchema_Db_Schema_Table_AbstractDefinition\markDeleted</text>
</a>
</g>
<!-- Node10&#45;&gt;Node20 -->
<g id="edge52" class="edge"><title>Node10&#45;&gt;Node20</title>
<path fill="none" stroke="midnightblue" d="M605.786,-340.433C614.573,-339.891 623.454,-339.342 632.322,-338.795"/>
<polygon fill="midnightblue" stroke="midnightblue" points="605.284,-336.957 595.519,-341.067 605.715,-343.944 605.284,-336.957"/>
</g>
<!-- Node15 -->
<g id="node32" class="node"><title>Node15</title>
<a xlink:href="classZendDbSchema__Db__Schema__Generator__Mysql.html#a0f94d6cabe125b387efa64fc7160a9e5" target="_top" xlink:title="ZendDbSchema_Db_Schema_Generator_Mysql\\alterIndex">
<polygon fill="white" stroke="black" points="992,-278.5 992,-299.5 1264,-299.5 1264,-278.5 992,-278.5"/>
<text text-anchor="middle" x="1128" y="-286.5" font-family="Helvetica,sans-Serif" font-size="10.00">ZendDbSchema_Db_Schema_Generator_Mysql\alterIndex</text>
</a>
</g>
<!-- Node14&#45;&gt;Node15 -->
<g id="edge34" class="edge"><title>Node14&#45;&gt;Node15</title>
<path fill="none" stroke="midnightblue" d="M941.81,-289C958.462,-289 975.347,-289 991.804,-289"/>
<polygon fill="midnightblue" stroke="midnightblue" points="941.478,-285.5 931.478,-289 941.478,-292.5 941.478,-285.5"/>
</g>
<!-- Node18&#45;&gt;Node17 -->
<g id="edge44" class="edge"><title>Node18&#45;&gt;Node17</title>
<path fill="none" stroke="midnightblue" d="M896.157,-142.862C914.161,-145.283 932.649,-148.014 950,-151 996.455,-158.994 1049.13,-170.894 1085.05,-179.445"/>
<polygon fill="midnightblue" stroke="midnightblue" points="896.588,-139.388 886.216,-141.549 895.671,-146.328 896.588,-139.388"/>
</g>
<!-- Node19 -->
<g id="node42" class="node"><title>Node19</title>
<a xlink:href="classZendDbSchema__Db__Schema__Table__AbstractDefinition.html#a75c1b3ef1005c2d6aa371ecef07d530d" target="_top" xlink:title="ZendDbSchema_Db_Schema_Table_AbstractDefinition\\toSql">
<polygon fill="white" stroke="black" points="986,-120.5 986,-141.5 1270,-141.5 1270,-120.5 986,-120.5"/>
<text text-anchor="middle" x="1128" y="-128.5" font-family="Helvetica,sans-Serif" font-size="10.00">ZendDbSchema_Db_Schema_Table_AbstractDefinition\toSql</text>
</a>
</g>
<!-- Node18&#45;&gt;Node19 -->
<g id="edge46" class="edge"><title>Node18&#45;&gt;Node19</title>
<path fill="none" stroke="midnightblue" d="M939.18,-131C954.666,-131 970.384,-131 985.801,-131"/>
<polygon fill="midnightblue" stroke="midnightblue" points="939.043,-127.5 929.043,-131 939.043,-134.5 939.043,-127.5"/>
</g>
<!-- Node22 -->
<g id="node50" class="node"><title>Node22</title>
<a xlink:href="classZendDbSchema__Db__Schema__AbstractSchema.html#a95b8986f7fa3a4e26be024d3a621e4f6" target="_top" xlink:title="ZendDbSchema_Db_Schema_AbstractSchema\\__construct">
<polygon fill="white" stroke="black" points="652,-40.5 652,-61.5 930,-61.5 930,-40.5 652,-40.5"/>
<text text-anchor="middle" x="791" y="-48.5" font-family="Helvetica,sans-Serif" font-size="10.00">ZendDbSchema_Db_Schema_AbstractSchema\__construct</text>
</a>
</g>
<!-- Node21&#45;&gt;Node22 -->
<g id="edge56" class="edge"><title>Node21&#45;&gt;Node22</title>
<path fill="none" stroke="midnightblue" d="M605.572,-51C620.943,-51 636.602,-51 651.978,-51"/>
<polygon fill="midnightblue" stroke="midnightblue" points="605.519,-47.5001 595.519,-51 605.519,-54.5001 605.519,-47.5001"/>
</g>
<!-- Node23 -->
<g id="node52" class="node"><title>Node23</title>
<a xlink:href="classZendDbSchema__Db__Schema__Table__PrimaryKey.html#a8189591ab7ced58307298ecc8f27779d" target="_top" xlink:title="ZendDbSchema_Db_Schema_Table_PrimaryKey\\__construct">
<polygon fill="white" stroke="black" points="648,-0.5 648,-21.5 934,-21.5 934,-0.5 648,-0.5"/>
<text text-anchor="middle" x="791" y="-8.5" font-family="Helvetica,sans-Serif" font-size="10.00">ZendDbSchema_Db_Schema_Table_PrimaryKey\__construct</text>
</a>
</g>
<!-- Node21&#45;&gt;Node23 -->
<g id="edge58" class="edge"><title>Node21&#45;&gt;Node23</title>
<path fill="none" stroke="midnightblue" d="M562.295,-39.2352C607.786,-33.619 661.78,-26.953 705.879,-21.5087"/>
<polygon fill="midnightblue" stroke="midnightblue" points="561.623,-35.7915 552.127,-40.4905 562.481,-42.7387 561.623,-35.7915"/>
</g>
</g>
</svg>
