<?xml version="1.0" encoding="UTF-8" standalone="no"?>
<!DOCTYPE svg PUBLIC "-//W3C//DTD SVG 1.1//EN"
 "http://www.w3.org/Graphics/SVG/1.1/DTD/svg11.dtd">
<!-- Generated by graphviz version 2.26.3 (20100126.1600)
 -->
<!-- Title: G Pages: 1 -->
<svg width="970pt" height="30pt"
 viewBox="0.00 0.00 970.00 30.00" xmlns="http://www.w3.org/2000/svg" xmlns:xlink="http://www.w3.org/1999/xlink">
<g id="graph1" class="graph" transform="scale(1 1) rotate(0) translate(4 26)">
<title>G</title>
<polygon fill="white" stroke="white" points="-4,5 -4,-26 967,-26 967,5 -4,5"/>
<!-- Node1 -->
<g id="node1" class="node"><title>Node1</title>
<polygon fill="#bfbfbf" stroke="black" points="0.5,-0.5 0.5,-21.5 297.5,-21.5 297.5,-0.5 0.5,-0.5"/>
<text text-anchor="middle" x="149" y="-8.5" font-family="Helvetica,sans-Serif" font-size="10.00">ZendDbSchema_Db_Schema_Table_ForeignKey\getReferences</text>
</g>
<!-- Node2 -->
<g id="node3" class="node"><title>Node2</title>
<a xlink:href="classZendDbSchema__Db__Schema__Generator__Mysql.html#a4b0c6d7fbd4d21f027facb6e495d1f6b" target="_top" xlink:title="ZendDbSchema_Db_Schema_Generator_Mysql\\addForeignKey">
<polygon fill="white" stroke="black" points="334,-0.5 334,-21.5 628,-21.5 628,-0.5 334,-0.5"/>
<text text-anchor="middle" x="481" y="-8.5" font-family="Helvetica,sans-Serif" font-size="10.00">ZendDbSchema_Db_Schema_Generator_Mysql\addForeignKey</text>
</a>
</g>
<!-- Node1&#45;&gt;Node2 -->
<g id="edge2" class="edge"><title>Node1&#45;&gt;Node2</title>
<path fill="none" stroke="midnightblue" d="M307.742,-11C316.464,-11 325.213,-11 333.892,-11"/>
<polygon fill="midnightblue" stroke="midnightblue" points="307.521,-7.5001 297.521,-11 307.521,-14.5001 307.521,-7.5001"/>
</g>
<!-- Node3 -->
<g id="node5" class="node"><title>Node3</title>
<a xlink:href="classZendDbSchema__Db__Schema__Generator__Mysql.html#a16b347a1c95888775b09d14505bae2b2" target="_top" xlink:title="ZendDbSchema_Db_Schema_Generator_Mysql\\alterForeignKey">
<polygon fill="white" stroke="black" points="664.5,-0.5 664.5,-21.5 961.5,-21.5 961.5,-0.5 664.5,-0.5"/>
<text text-anchor="middle" x="813" y="-8.5" font-family="Helvetica,sans-Serif" font-size="10.00">ZendDbSchema_Db_Schema_Generator_Mysql\alterForeignKey</text>
</a>
</g>
<!-- Node2&#45;&gt;Node3 -->
<g id="edge4" class="edge"><title>Node2&#45;&gt;Node3</title>
<path fill="none" stroke="midnightblue" d="M638.267,-11C646.971,-11 655.707,-11 664.379,-11"/>
<polygon fill="midnightblue" stroke="midnightblue" points="638.07,-7.5001 628.07,-11 638.07,-14.5001 638.07,-7.5001"/>
</g>
</g>
</svg>
