<?xml version="1.0" encoding="UTF-8" standalone="no"?>
<!DOCTYPE svg PUBLIC "-//W3C//DTD SVG 1.1//EN"
 "http://www.w3.org/Graphics/SVG/1.1/DTD/svg11.dtd">
<!-- Generated by graphviz version 2.26.3 (20100126.1600)
 -->
<!-- Title: G Pages: 1 -->
<svg width="836pt" height="79pt"
 viewBox="0.00 0.00 836.00 79.00" xmlns="http://www.w3.org/2000/svg" xmlns:xlink="http://www.w3.org/1999/xlink">
<g id="graph1" class="graph" transform="scale(1 1) rotate(0) translate(4 75)">
<title>G</title>
<polygon fill="white" stroke="white" points="-4,5 -4,-75 833,-75 833,5 -4,5"/>
<!-- Node1 -->
<g id="node1" class="node"><title>Node1</title>
<polygon fill="#bfbfbf" stroke="black" points="0,-20.5 0,-41.5 266,-41.5 266,-20.5 0,-20.5"/>
<text text-anchor="middle" x="133" y="-28.5" font-family="Helvetica,sans-Serif" font-size="10.00">ZendDbSchema_Db_Migration_Manager\compareVersion</text>
</g>
<!-- Node2 -->
<g id="node3" class="node"><title>Node2</title>
<a xlink:href="classZendDbSchema__Db__Migration__Manager.html#a9973d07f9ffe306e00ea2f9f4beb92e4" target="_top" xlink:title="ZendDbSchema_Db_Migration_Manager\\hasChange">
<polygon fill="white" stroke="black" points="582.5,-49.5 582.5,-70.5 827.5,-70.5 827.5,-49.5 582.5,-49.5"/>
<text text-anchor="middle" x="705" y="-57.5" font-family="Helvetica,sans-Serif" font-size="10.00">ZendDbSchema_Db_Migration_Manager\hasChange</text>
</a>
</g>
<!-- Node1&#45;&gt;Node2 -->
<g id="edge2" class="edge"><title>Node1&#45;&gt;Node2</title>
<path fill="none" stroke="midnightblue" d="M208.57,-41.5046C237.71,-45.1449 271.349,-48.849 302,-51 391.861,-57.3062 493.243,-59.5461 571.841,-60.2145"/>
<polygon fill="midnightblue" stroke="midnightblue" points="572.26,-63.7178 582.287,-60.2953 572.314,-56.718 572.26,-63.7178"/>
</g>
<!-- Node3 -->
<g id="node5" class="node"><title>Node3</title>
<a xlink:href="classZendDbSchema__Db__Migration__Manager.html#a3d4f62489e72876f97bec3cd4448979d" target="_top" xlink:title="ZendDbSchema_Db_Migration_Manager\\getChange">
<polygon fill="white" stroke="black" points="302.5,-20.5 302.5,-41.5 545.5,-41.5 545.5,-20.5 302.5,-20.5"/>
<text text-anchor="middle" x="424" y="-28.5" font-family="Helvetica,sans-Serif" font-size="10.00">ZendDbSchema_Db_Migration_Manager\getChange</text>
</a>
</g>
<!-- Node1&#45;&gt;Node3 -->
<g id="edge4" class="edge"><title>Node1&#45;&gt;Node3</title>
<path fill="none" stroke="midnightblue" d="M266.151,-31C274.757,-31 283.42,-31 292.02,-31"/>
<polygon fill="midnightblue" stroke="midnightblue" points="292.078,-34.5001 302.078,-31 292.078,-27.5001 292.078,-34.5001"/>
</g>
<!-- Node4 -->
<g id="node7" class="node"><title>Node4</title>
<a xlink:href="classZendDbSchema__Db__Migration__Manager.html#ab66af8a9dc5cdb099b8266b68166c4e0" target="_top" xlink:title="ZendDbSchema_Db_Migration_Manager\\getVersion">
<polygon fill="white" stroke="black" points="584,-0.5 584,-21.5 826,-21.5 826,-0.5 584,-0.5"/>
<text text-anchor="middle" x="705" y="-8.5" font-family="Helvetica,sans-Serif" font-size="10.00">ZendDbSchema_Db_Migration_Manager\getVersion</text>
</a>
</g>
<!-- Node1&#45;&gt;Node4 -->
<g id="edge10" class="edge"><title>Node1&#45;&gt;Node4</title>
<path fill="none" stroke="midnightblue" d="M206.036,-20.4523C235.74,-16.6601 270.442,-12.8609 302,-11 392.405,-5.66919 494.416,-5.7291 573.185,-7.09125"/>
<polygon fill="midnightblue" stroke="midnightblue" points="573.589,-10.5991 583.651,-7.28223 573.716,-3.60027 573.589,-10.5991"/>
</g>
<!-- Node3&#45;&gt;Node2 -->
<g id="edge8" class="edge"><title>Node3&#45;&gt;Node2</title>
<path fill="none" stroke="midnightblue" d="M525.845,-41.5107C547.638,-43.7597 570.776,-46.1477 592.93,-48.434"/>
<polygon fill="midnightblue" stroke="midnightblue" points="592.725,-51.9314 603.031,-49.4765 593.443,-44.9683 592.725,-51.9314"/>
</g>
<!-- Node3&#45;&gt;Node4 -->
<g id="edge6" class="edge"><title>Node3&#45;&gt;Node4</title>
<path fill="none" stroke="midnightblue" d="M545.616,-22.344C554.875,-21.685 564.246,-21.0181 573.562,-20.355"/>
<polygon fill="midnightblue" stroke="midnightblue" points="573.917,-23.8387 583.644,-19.6375 573.42,-16.8563 573.917,-23.8387"/>
</g>
</g>
</svg>
