<?xml version="1.0" encoding="UTF-8" standalone="no"?>
<!DOCTYPE svg PUBLIC "-//W3C//DTD SVG 1.1//EN"
 "http://www.w3.org/Graphics/SVG/1.1/DTD/svg11.dtd">
<!-- Generated by graphviz version 2.26.3 (20100126.1600)
 -->
<!-- Title: G Pages: 1 -->
<svg width="912pt" height="70pt"
 viewBox="0.00 0.00 912.00 70.00" xmlns="http://www.w3.org/2000/svg" xmlns:xlink="http://www.w3.org/1999/xlink">
<g id="graph1" class="graph" transform="scale(1 1) rotate(0) translate(4 66)">
<title>G</title>
<polygon fill="white" stroke="white" points="-4,5 -4,-66 909,-66 909,5 -4,5"/>
<!-- Node1 -->
<g id="node1" class="node"><title>Node1</title>
<polygon fill="#bfbfbf" stroke="black" points="0.5,-20.5 0.5,-41.5 287.5,-41.5 287.5,-20.5 0.5,-20.5"/>
<text text-anchor="middle" x="144" y="-28.5" font-family="Helvetica,sans-Serif" font-size="10.00">ZendDbSchema_Db_Schema_AbstractSchema\setFromArray</text>
</g>
<!-- Node2 -->
<g id="node3" class="node"><title>Node2</title>
<a xlink:href="classZendDbSchema__Db__Schema__AbstractSchema.html#a84673a5d69f10fec5b31294bf53f6d56" target="_top" xlink:title="ZendDbSchema_Db_Schema_AbstractSchema\\refresh">
<polygon fill="white" stroke="black" points="324.5,-20.5 324.5,-41.5 581.5,-41.5 581.5,-20.5 324.5,-20.5"/>
<text text-anchor="middle" x="453" y="-28.5" font-family="Helvetica,sans-Serif" font-size="10.00">ZendDbSchema_Db_Schema_AbstractSchema\refresh</text>
</a>
</g>
<!-- Node1&#45;&gt;Node2 -->
<g id="edge2" class="edge"><title>Node1&#45;&gt;Node2</title>
<path fill="none" stroke="midnightblue" d="M297.743,-31C306.694,-31 315.649,-31 324.487,-31"/>
<polygon fill="midnightblue" stroke="midnightblue" points="297.645,-27.5001 287.645,-31 297.645,-34.5001 297.645,-27.5001"/>
</g>
<!-- Node3 -->
<g id="node5" class="node"><title>Node3</title>
<a xlink:href="classZendDbSchema__Db__Schema__Table__PrimaryKey.html#a8189591ab7ced58307298ecc8f27779d" target="_top" xlink:title="ZendDbSchema_Db_Schema_Table_PrimaryKey\\__construct">
<polygon fill="white" stroke="black" points="618,-40.5 618,-61.5 904,-61.5 904,-40.5 618,-40.5"/>
<text text-anchor="middle" x="761" y="-48.5" font-family="Helvetica,sans-Serif" font-size="10.00">ZendDbSchema_Db_Schema_Table_PrimaryKey\__construct</text>
</a>
</g>
<!-- Node2&#45;&gt;Node3 -->
<g id="edge4" class="edge"><title>Node2&#45;&gt;Node3</title>
<path fill="none" stroke="midnightblue" d="M591.892,-40.0189C600.488,-40.5772 609.149,-41.1395 617.764,-41.699"/>
<polygon fill="midnightblue" stroke="midnightblue" points="592.041,-36.5214 581.835,-39.3659 591.587,-43.5066 592.041,-36.5214"/>
</g>
<!-- Node4 -->
<g id="node7" class="node"><title>Node4</title>
<a xlink:href="classZendDbSchema__Db__Schema__AbstractSchema.html#a95b8986f7fa3a4e26be024d3a621e4f6" target="_top" xlink:title="ZendDbSchema_Db_Schema_AbstractSchema\\__construct">
<polygon fill="white" stroke="black" points="622,-0.5 622,-21.5 900,-21.5 900,-0.5 622,-0.5"/>
<text text-anchor="middle" x="761" y="-8.5" font-family="Helvetica,sans-Serif" font-size="10.00">ZendDbSchema_Db_Schema_AbstractSchema\__construct</text>
</a>
</g>
<!-- Node2&#45;&gt;Node4 -->
<g id="edge6" class="edge"><title>Node2&#45;&gt;Node4</title>
<path fill="none" stroke="midnightblue" d="M592.078,-21.9689C601.943,-21.3284 611.89,-20.6825 621.756,-20.0418"/>
<polygon fill="midnightblue" stroke="midnightblue" points="591.587,-18.4934 581.835,-22.6341 592.041,-25.4787 591.587,-18.4934"/>
</g>
</g>
</svg>
