<?xml version="1.0" encoding="UTF-8" standalone="no"?>
<!DOCTYPE svg PUBLIC "-//W3C//DTD SVG 1.1//EN"
 "http://www.w3.org/Graphics/SVG/1.1/DTD/svg11.dtd">
<!-- Generated by graphviz version 2.26.3 (20100126.1600)
 -->
<!-- Title: G Pages: 1 -->
<svg width="1366pt" height="826pt"
 viewBox="0.00 0.00 1366.00 826.00" xmlns="http://www.w3.org/2000/svg" xmlns:xlink="http://www.w3.org/1999/xlink">
<g id="graph1" class="graph" transform="scale(1 1) rotate(0) translate(4 822)">
<title>G</title>
<polygon fill="white" stroke="white" points="-4,5 -4,-822 1363,-822 1363,5 -4,5"/>
<!-- Node1 -->
<g id="node1" class="node"><title>Node1</title>
<polygon fill="#bfbfbf" stroke="black" points="0.5,-596.5 0.5,-617.5 277.5,-617.5 277.5,-596.5 0.5,-596.5"/>
<text text-anchor="middle" x="139" y="-604.5" font-family="Helvetica,sans-Serif" font-size="10.00">ZendDbSchema_Db_Schema_AbstractSchema\getSchema</text>
</g>
<!-- Node2 -->
<g id="node3" class="node"><title>Node2</title>
<a xlink:href="classZendDbSchema__Db__Schema__Table__PrimaryKey.html#a4193382939f805d541cba7f81fda07b6" target="_top" xlink:title="ZendDbSchema_Db_Schema_Table_PrimaryKey\\getSchema">
<polygon fill="white" stroke="black" points="328,-796.5 328,-817.5 612,-817.5 612,-796.5 328,-796.5"/>
<text text-anchor="middle" x="470" y="-804.5" font-family="Helvetica,sans-Serif" font-size="10.00">ZendDbSchema_Db_Schema_Table_PrimaryKey\getSchema</text>
</a>
</g>
<!-- Node1&#45;&gt;Node2 -->
<g id="edge2" class="edge"><title>Node1&#45;&gt;Node2</title>
<path fill="none" stroke="midnightblue" d="M151.312,-626.602C176.539,-664.873 238.166,-749.097 314,-787 321.449,-790.723 329.338,-793.843 337.456,-796.451"/>
<polygon fill="midnightblue" stroke="midnightblue" points="154.065,-624.415 145.696,-617.919 148.187,-628.217 154.065,-624.415"/>
</g>
<!-- Node3 -->
<g id="node5" class="node"><title>Node3</title>
<a xlink:href="classZendDbSchema__Db__Schema__Table__Index.html#a1a12fc2660c9e16579d6d8dbd7c57c3b" target="_top" xlink:title="ZendDbSchema_Db_Schema_Table_Index\\getSchema">
<polygon fill="white" stroke="black" points="341.5,-756.5 341.5,-777.5 598.5,-777.5 598.5,-756.5 341.5,-756.5"/>
<text text-anchor="middle" x="470" y="-764.5" font-family="Helvetica,sans-Serif" font-size="10.00">ZendDbSchema_Db_Schema_Table_Index\getSchema</text>
</a>
</g>
<!-- Node1&#45;&gt;Node3 -->
<g id="edge4" class="edge"><title>Node1&#45;&gt;Node3</title>
<path fill="none" stroke="midnightblue" d="M155.145,-625.25C183.724,-656.203 246.594,-718.412 314,-747 322.924,-750.785 332.373,-753.904 342.029,-756.471"/>
<polygon fill="midnightblue" stroke="midnightblue" points="157.642,-622.794 148.326,-617.747 152.462,-627.502 157.642,-622.794"/>
</g>
<!-- Node6 -->
<g id="node11" class="node"><title>Node6</title>
<a xlink:href="classZendDbSchema__Db__Schema__Table__Column.html#ad1b13ee4a1e5d63b157cfd780590a103" target="_top" xlink:title="ZendDbSchema_Db_Schema_Table_Column\\getSchema">
<polygon fill="white" stroke="black" points="336.5,-716.5 336.5,-737.5 603.5,-737.5 603.5,-716.5 336.5,-716.5"/>
<text text-anchor="middle" x="470" y="-724.5" font-family="Helvetica,sans-Serif" font-size="10.00">ZendDbSchema_Db_Schema_Table_Column\getSchema</text>
</a>
</g>
<!-- Node1&#45;&gt;Node6 -->
<g id="edge10" class="edge"><title>Node1&#45;&gt;Node6</title>
<path fill="none" stroke="midnightblue" d="M161.26,-623.588C193.238,-646.484 254.861,-687.183 314,-707 325.392,-710.817 337.476,-713.913 349.678,-716.423"/>
<polygon fill="midnightblue" stroke="midnightblue" points="163.202,-620.674 153.053,-617.635 159.092,-626.34 163.202,-620.674"/>
</g>
<!-- Node7 -->
<g id="node13" class="node"><title>Node7</title>
<a xlink:href="classZendDbSchema__Db__Schema__Table__ForeignKey.html#aee0ecaa17d782cba0913d86a345b2b66" target="_top" xlink:title="ZendDbSchema_Db_Schema_Table_ForeignKey\\getSchema">
<polygon fill="white" stroke="black" points="328.5,-676.5 328.5,-697.5 611.5,-697.5 611.5,-676.5 328.5,-676.5"/>
<text text-anchor="middle" x="470" y="-684.5" font-family="Helvetica,sans-Serif" font-size="10.00">ZendDbSchema_Db_Schema_Table_ForeignKey\getSchema</text>
</a>
</g>
<!-- Node1&#45;&gt;Node7 -->
<g id="edge12" class="edge"><title>Node1&#45;&gt;Node7</title>
<path fill="none" stroke="midnightblue" d="M174.03,-621.37C208.926,-635.119 264.32,-655.425 314,-667 330.222,-670.779 347.57,-673.893 364.587,-676.444"/>
<polygon fill="midnightblue" stroke="midnightblue" points="174.906,-617.951 164.32,-617.505 172.317,-624.455 174.906,-617.951"/>
</g>
<!-- Node8 -->
<g id="node15" class="node"><title>Node8</title>
<a xlink:href="classZendDbSchema__Db__Schema__Table__AbstractDefinition.html#afde37ae1981b18b4f3a298928e42123f" target="_top" xlink:title="ZendDbSchema_Db_Schema_Table_AbstractDefinition\\getSchema">
<polygon fill="white" stroke="black" points="314.5,-636.5 314.5,-657.5 625.5,-657.5 625.5,-636.5 314.5,-636.5"/>
<text text-anchor="middle" x="470" y="-644.5" font-family="Helvetica,sans-Serif" font-size="10.00">ZendDbSchema_Db_Schema_Table_AbstractDefinition\getSchema</text>
</a>
</g>
<!-- Node1&#45;&gt;Node8 -->
<g id="edge14" class="edge"><title>Node1&#45;&gt;Node8</title>
<path fill="none" stroke="midnightblue" d="M236.061,-618.729C282.596,-624.353 337.894,-631.036 383.04,-636.491"/>
<polygon fill="midnightblue" stroke="midnightblue" points="236.314,-615.235 225.966,-617.51 235.474,-622.184 236.314,-615.235"/>
</g>
<!-- Node9 -->
<g id="node17" class="node"><title>Node9</title>
<a xlink:href="classZendDbSchema__Db__Schema__AbstractEntity.html#a4902c16974b80dbebead546fab5bf7b0" target="_top" xlink:title="ZendDbSchema_Db_Schema_AbstractEntity\\getSchema">
<polygon fill="white" stroke="black" points="337,-596.5 337,-617.5 603,-617.5 603,-596.5 337,-596.5"/>
<text text-anchor="middle" x="470" y="-604.5" font-family="Helvetica,sans-Serif" font-size="10.00">ZendDbSchema_Db_Schema_AbstractEntity\getSchema</text>
</a>
</g>
<!-- Node1&#45;&gt;Node9 -->
<g id="edge16" class="edge"><title>Node1&#45;&gt;Node9</title>
<path fill="none" stroke="midnightblue" d="M288.055,-607C304.361,-607 320.882,-607 336.977,-607"/>
<polygon fill="midnightblue" stroke="midnightblue" points="287.935,-603.5 277.935,-607 287.935,-610.5 287.935,-603.5"/>
</g>
<!-- Node10 -->
<g id="node19" class="node"><title>Node10</title>
<a xlink:href="classZendDbSchema__Db__Schema__AbstractSchema.html#ae859790a91bbcb9c4dc52a6139e5999e" target="_top" xlink:title="ZendDbSchema_Db_Schema_AbstractSchema\\isDirty">
<polygon fill="white" stroke="black" points="342,-556.5 342,-577.5 598,-577.5 598,-556.5 342,-556.5"/>
<text text-anchor="middle" x="470" y="-564.5" font-family="Helvetica,sans-Serif" font-size="10.00">ZendDbSchema_Db_Schema_AbstractSchema\isDirty</text>
</a>
</g>
<!-- Node1&#45;&gt;Node10 -->
<g id="edge18" class="edge"><title>Node1&#45;&gt;Node10</title>
<path fill="none" stroke="midnightblue" d="M236.061,-595.271C282.596,-589.647 337.894,-582.964 383.04,-577.509"/>
<polygon fill="midnightblue" stroke="midnightblue" points="235.474,-591.816 225.966,-596.49 236.314,-598.765 235.474,-591.816"/>
</g>
<!-- Node18 -->
<g id="node36" class="node"><title>Node18</title>
<a xlink:href="classZendDbSchema__Db__Schema__Table.html#a21a2a75870207a989576655fec7507c3" target="_top" xlink:title="ZendDbSchema_Db_Schema_Table\\isDirty">
<polygon fill="white" stroke="black" points="366.5,-516.5 366.5,-537.5 573.5,-537.5 573.5,-516.5 366.5,-516.5"/>
<text text-anchor="middle" x="470" y="-524.5" font-family="Helvetica,sans-Serif" font-size="10.00">ZendDbSchema_Db_Schema_Table\isDirty</text>
</a>
</g>
<!-- Node1&#45;&gt;Node18 -->
<g id="edge36" class="edge"><title>Node1&#45;&gt;Node18</title>
<path fill="none" stroke="midnightblue" d="M174.03,-592.63C208.926,-578.881 264.32,-558.575 314,-547 330.753,-543.097 348.709,-539.903 366.26,-537.307"/>
<polygon fill="midnightblue" stroke="midnightblue" points="172.317,-589.545 164.32,-596.495 174.906,-596.049 172.317,-589.545"/>
</g>
<!-- Node21 -->
<g id="node42" class="node"><title>Node21</title>
<a xlink:href="classZendDbSchema__Db__Schema__AbstractSchema.html#a1680a8fd22360f74d29b641d7257a52f" target="_top" xlink:title="ZendDbSchema_Db_Schema_AbstractSchema\\isExist">
<polygon fill="white" stroke="black" points="341.5,-417.5 341.5,-438.5 598.5,-438.5 598.5,-417.5 341.5,-417.5"/>
<text text-anchor="middle" x="470" y="-425.5" font-family="Helvetica,sans-Serif" font-size="10.00">ZendDbSchema_Db_Schema_AbstractSchema\isExist</text>
</a>
</g>
<!-- Node1&#45;&gt;Node21 -->
<g id="edge42" class="edge"><title>Node1&#45;&gt;Node21</title>
<path fill="none" stroke="midnightblue" d="M165.593,-591.248C199.69,-571.179 260.774,-535.661 314,-507 361.444,-481.452 418.093,-453.353 448.374,-438.522"/>
<polygon fill="midnightblue" stroke="midnightblue" points="163.557,-588.385 156.721,-596.48 167.112,-594.415 163.557,-588.385"/>
</g>
<!-- Node30 -->
<g id="node68" class="node"><title>Node30</title>
<a xlink:href="classZendDbSchema__Db__Schema__AbstractSchema.html#abe3de4a43bc5df22c0e3dd270b0176f9" target="_top" xlink:title="ZendDbSchema_Db_Schema_AbstractSchema\\refresh">
<polygon fill="white" stroke="black" points="341.5,-160.5 341.5,-181.5 598.5,-181.5 598.5,-160.5 341.5,-160.5"/>
<text text-anchor="middle" x="470" y="-168.5" font-family="Helvetica,sans-Serif" font-size="10.00">ZendDbSchema_Db_Schema_AbstractSchema\refresh</text>
</a>
</g>
<!-- Node1&#45;&gt;Node30 -->
<g id="edge76" class="edge"><title>Node1&#45;&gt;Node30</title>
<path fill="none" stroke="midnightblue" d="M153.328,-588.126C210.044,-513.419 417.872,-239.664 461.808,-181.791"/>
<polygon fill="midnightblue" stroke="midnightblue" points="150.441,-586.141 147.182,-596.222 156.016,-590.374 150.441,-586.141"/>
</g>
<!-- Node32 -->
<g id="node74" class="node"><title>Node32</title>
<a xlink:href="classZendDbSchema__Db__Schema__Table__AbstractDefinition.html#ad79a83e9aa0cbaa289df7cf5c2d13188" target="_top" xlink:title="ZendDbSchema_Db_Schema_Table_AbstractDefinition\\refresh">
<polygon fill="white" stroke="black" points="324,-80.5 324,-101.5 616,-101.5 616,-80.5 324,-80.5"/>
<text text-anchor="middle" x="470" y="-88.5" font-family="Helvetica,sans-Serif" font-size="10.00">ZendDbSchema_Db_Schema_Table_AbstractDefinition\refresh</text>
</a>
</g>
<!-- Node1&#45;&gt;Node32 -->
<g id="edge84" class="edge"><title>Node1&#45;&gt;Node32</title>
<path fill="none" stroke="midnightblue" d="M141.055,-586.081C149.121,-515.037 184.832,-280.263 314,-151 339.946,-125.035 378.342,-110.08 410.547,-101.594"/>
<polygon fill="midnightblue" stroke="midnightblue" points="137.537,-586.062 139.954,-596.377 144.498,-586.806 137.537,-586.062"/>
</g>
<!-- Node4 -->
<g id="node7" class="node"><title>Node4</title>
<a xlink:href="classZendDbSchema__Db__Schema__Validator__Mysql.html#a0cf7ff88ff35c9636c0bb80f08416cb3" target="_top" xlink:title="ZendDbSchema_Db_Schema_Validator_Mysql\\validateIndex">
<polygon fill="white" stroke="black" points="695,-756.5 695,-777.5 977,-777.5 977,-756.5 695,-756.5"/>
<text text-anchor="middle" x="836" y="-764.5" font-family="Helvetica,sans-Serif" font-size="10.00">ZendDbSchema_Db_Schema_Validator_Mysql\validateIndex</text>
</a>
</g>
<!-- Node3&#45;&gt;Node4 -->
<g id="edge6" class="edge"><title>Node3&#45;&gt;Node4</title>
<path fill="none" stroke="midnightblue" d="M608.806,-767C636.913,-767 666.5,-767 694.692,-767"/>
<polygon fill="midnightblue" stroke="midnightblue" points="608.523,-763.5 598.523,-767 608.523,-770.5 608.523,-763.5"/>
</g>
<!-- Node5 -->
<g id="node9" class="node"><title>Node5</title>
<a xlink:href="classZendDbSchema__Db__Schema__Validator__Mysql.html#a68e9ec20adec3be1ac1494fb666f2acd" target="_top" xlink:title="ZendDbSchema_Db_Schema_Validator_Mysql\\validatePrimaryKey">
<polygon fill="white" stroke="black" points="1047.5,-756.5 1047.5,-777.5 1356.5,-777.5 1356.5,-756.5 1047.5,-756.5"/>
<text text-anchor="middle" x="1202" y="-764.5" font-family="Helvetica,sans-Serif" font-size="10.00">ZendDbSchema_Db_Schema_Validator_Mysql\validatePrimaryKey</text>
</a>
</g>
<!-- Node4&#45;&gt;Node5 -->
<g id="edge8" class="edge"><title>Node4&#45;&gt;Node5</title>
<path fill="none" stroke="midnightblue" d="M987.245,-767C1007.07,-767 1027.42,-767 1047.3,-767"/>
<polygon fill="midnightblue" stroke="midnightblue" points="987.243,-763.5 977.243,-767 987.243,-770.5 987.243,-763.5"/>
</g>
<!-- Node11 -->
<g id="node21" class="node"><title>Node11</title>
<a xlink:href="classZendDbSchema__Db__Schema__Generator__Mysql.html#ad2d1674537df51851ccb784a69c5dd9b" target="_top" xlink:title="ZendDbSchema_Db_Schema_Generator_Mysql\\generateDatabaseAlter">
<polygon fill="white" stroke="black" points="671.5,-676.5 671.5,-697.5 1000.5,-697.5 1000.5,-676.5 671.5,-676.5"/>
<text text-anchor="middle" x="836" y="-684.5" font-family="Helvetica,sans-Serif" font-size="10.00">ZendDbSchema_Db_Schema_Generator_Mysql\generateDatabaseAlter</text>
</a>
</g>
<!-- Node10&#45;&gt;Node11 -->
<g id="edge20" class="edge"><title>Node10&#45;&gt;Node11</title>
<path fill="none" stroke="midnightblue" d="M607.786,-576.234C614.204,-579.235 620.325,-582.795 626,-587 657.326,-610.213 630.523,-643.992 662,-667 666.91,-670.589 672.114,-673.739 677.538,-676.497"/>
<polygon fill="midnightblue" stroke="midnightblue" points="608.762,-572.849 598.186,-572.226 606.065,-579.308 608.762,-572.849"/>
</g>
<!-- Node12 -->
<g id="node23" class="node"><title>Node12</title>
<a xlink:href="classZendDbSchema__Db__Schema__Generator__Mysql.html#a2d40826abb29af27b4f398fa9270979f" target="_top" xlink:title="ZendDbSchema_Db_Schema_Generator_Mysql\\generateColumnAlter">
<polygon fill="white" stroke="black" points="676,-556.5 676,-577.5 996,-577.5 996,-556.5 676,-556.5"/>
<text text-anchor="middle" x="836" y="-564.5" font-family="Helvetica,sans-Serif" font-size="10.00">ZendDbSchema_Db_Schema_Generator_Mysql\generateColumnAlter</text>
</a>
</g>
<!-- Node10&#45;&gt;Node12 -->
<g id="edge22" class="edge"><title>Node10&#45;&gt;Node12</title>
<path fill="none" stroke="midnightblue" d="M608.105,-567C630.233,-567 653.294,-567 675.883,-567"/>
<polygon fill="midnightblue" stroke="midnightblue" points="608.009,-563.5 598.009,-567 608.009,-570.5 608.009,-563.5"/>
</g>
<!-- Node13 -->
<g id="node25" class="node"><title>Node13</title>
<a xlink:href="classZendDbSchema__Db__Schema__AbstractEntity.html#a5b1c93da76c3708f90d330b4643e55b2" target="_top" xlink:title="ZendDbSchema_Db_Schema_AbstractEntity\\save">
<polygon fill="white" stroke="black" points="717,-200.5 717,-221.5 955,-221.5 955,-200.5 717,-200.5"/>
<text text-anchor="middle" x="836" y="-208.5" font-family="Helvetica,sans-Serif" font-size="10.00">ZendDbSchema_Db_Schema_AbstractEntity\save</text>
</a>
</g>
<!-- Node10&#45;&gt;Node13 -->
<g id="edge24" class="edge"><title>Node10&#45;&gt;Node13</title>
<path fill="none" stroke="midnightblue" d="M607.663,-560.829C614.342,-557.107 620.53,-552.547 626,-547 725.246,-446.347 562.099,-331.002 662,-231 690.152,-202.819 735.055,-198.243 772.194,-200.492"/>
<polygon fill="midnightblue" stroke="midnightblue" points="605.732,-557.876 598.273,-565.401 608.797,-564.17 605.732,-557.876"/>
</g>
<!-- Node14 -->
<g id="node27" class="node"><title>Node14</title>
<a xlink:href="classZendDbSchema__Db__Schema__AbstractEntity.html#a22dab8db0a3727fb5c12ce5933c2f82e" target="_top" xlink:title="ZendDbSchema_Db_Schema_AbstractEntity\\toSql">
<polygon fill="white" stroke="black" points="716.5,-596.5 716.5,-617.5 955.5,-617.5 955.5,-596.5 716.5,-596.5"/>
<text text-anchor="middle" x="836" y="-604.5" font-family="Helvetica,sans-Serif" font-size="10.00">ZendDbSchema_Db_Schema_AbstractEntity\toSql</text>
</a>
</g>
<!-- Node10&#45;&gt;Node14 -->
<g id="edge26" class="edge"><title>Node10&#45;&gt;Node14</title>
<path fill="none" stroke="midnightblue" d="M576.354,-578.623C628.01,-584.269 689.611,-591.001 739.845,-596.491"/>
<polygon fill="midnightblue" stroke="midnightblue" points="576.483,-575.117 566.162,-577.51 575.723,-582.075 576.483,-575.117"/>
</g>
<!-- Node16 -->
<g id="node31" class="node"><title>Node16</title>
<a xlink:href="classZendDbSchema__Db__Schema__Table__AbstractDefinition.html#a75c1b3ef1005c2d6aa371ecef07d530d" target="_top" xlink:title="ZendDbSchema_Db_Schema_Table_AbstractDefinition\\toSql">
<polygon fill="white" stroke="black" points="694,-636.5 694,-657.5 978,-657.5 978,-636.5 694,-636.5"/>
<text text-anchor="middle" x="836" y="-644.5" font-family="Helvetica,sans-Serif" font-size="10.00">ZendDbSchema_Db_Schema_Table_AbstractDefinition\toSql</text>
</a>
</g>
<!-- Node10&#45;&gt;Node16 -->
<g id="edge30" class="edge"><title>Node10&#45;&gt;Node16</title>
<path fill="none" stroke="midnightblue" d="M608.136,-579.118C614.299,-581.393 620.286,-584.005 626,-587 647.184,-598.103 640.744,-616.036 662,-627 671.999,-632.157 682.742,-636.242 693.806,-639.456"/>
<polygon fill="midnightblue" stroke="midnightblue" points="608.917,-575.688 598.323,-575.815 606.684,-582.322 608.917,-575.688"/>
</g>
<!-- Node17 -->
<g id="node33" class="node"><title>Node17</title>
<a xlink:href="classZendDbSchema__Db__Schema__Table__AbstractDefinition.html#ad1a0b678c2352296b55af83c59142e59" target="_top" xlink:title="ZendDbSchema_Db_Schema_Table_AbstractDefinition\\save">
<polygon fill="white" stroke="black" points="1060.5,-636.5 1060.5,-657.5 1343.5,-657.5 1343.5,-636.5 1060.5,-636.5"/>
<text text-anchor="middle" x="1202" y="-644.5" font-family="Helvetica,sans-Serif" font-size="10.00">ZendDbSchema_Db_Schema_Table_AbstractDefinition\save</text>
</a>
</g>
<!-- Node10&#45;&gt;Node17 -->
<g id="edge34" class="edge"><title>Node10&#45;&gt;Node17</title>
<path fill="none" stroke="midnightblue" d="M607.55,-574.875C614.134,-578.2 620.345,-582.204 626,-587 668.465,-623.017 617.327,-673.762 662,-707 724.044,-753.163 933.552,-718.667 1010,-707 1071.62,-697.595 1140.66,-672.135 1176.81,-657.582"/>
<polygon fill="midnightblue" stroke="midnightblue" points="608.912,-571.65 598.356,-570.75 606.047,-578.036 608.912,-571.65"/>
</g>
<!-- Node15 -->
<g id="node29" class="node"><title>Node15</title>
<a xlink:href="classZendDbSchema__Db__Schema__Database.html#ab6d2c76fffa17e1773287588fc91a5f5" target="_top" xlink:title="ZendDbSchema_Db_Schema_Database\\_doSave">
<polygon fill="white" stroke="black" points="1084.5,-438.5 1084.5,-459.5 1319.5,-459.5 1319.5,-438.5 1084.5,-438.5"/>
<text text-anchor="middle" x="1202" y="-446.5" font-family="Helvetica,sans-Serif" font-size="10.00">ZendDbSchema_Db_Schema_Database\_doSave</text>
</a>
</g>
<!-- Node14&#45;&gt;Node15 -->
<g id="edge28" class="edge"><title>Node14&#45;&gt;Node15</title>
<path fill="none" stroke="midnightblue" d="M965.854,-599.494C981.017,-596.456 996.04,-592.395 1010,-587 1088.49,-556.662 1164.39,-486.419 1191.52,-459.636"/>
<polygon fill="midnightblue" stroke="midnightblue" points="965.072,-596.08 955.88,-601.347 966.351,-602.962 965.072,-596.08"/>
</g>
<!-- Node16&#45;&gt;Node17 -->
<g id="edge32" class="edge"><title>Node16&#45;&gt;Node17</title>
<path fill="none" stroke="midnightblue" d="M988.218,-647C1012.11,-647 1036.71,-647 1060.35,-647"/>
<polygon fill="midnightblue" stroke="midnightblue" points="988.029,-643.5 978.029,-647 988.029,-650.5 988.029,-643.5"/>
</g>
<!-- Node19 -->
<g id="node38" class="node"><title>Node19</title>
<a xlink:href="classZendDbSchema__Db__Schema__Generator__Mysql.html#a15b587d8eb6c4f85445e4ef4cd32b8cb" target="_top" xlink:title="ZendDbSchema_Db_Schema_Generator_Mysql\\generateTableAlter">
<polygon fill="white" stroke="black" points="680.5,-476.5 680.5,-497.5 991.5,-497.5 991.5,-476.5 680.5,-476.5"/>
<text text-anchor="middle" x="836" y="-484.5" font-family="Helvetica,sans-Serif" font-size="10.00">ZendDbSchema_Db_Schema_Generator_Mysql\generateTableAlter</text>
</a>
</g>
<!-- Node18&#45;&gt;Node19 -->
<g id="edge38" class="edge"><title>Node18&#45;&gt;Node19</title>
<path fill="none" stroke="midnightblue" d="M576.354,-515.377C628.01,-509.731 689.611,-502.999 739.845,-497.509"/>
<polygon fill="midnightblue" stroke="midnightblue" points="575.723,-511.925 566.162,-516.49 576.483,-518.883 575.723,-511.925"/>
</g>
<!-- Node20 -->
<g id="node40" class="node"><title>Node20</title>
<a xlink:href="classZendDbSchema__Db__Schema__Table.html#a6178edaeea7e08d97e2196dd991532f9" target="_top" xlink:title="ZendDbSchema_Db_Schema_Table\\toSql">
<polygon fill="white" stroke="black" points="735.5,-516.5 735.5,-537.5 936.5,-537.5 936.5,-516.5 735.5,-516.5"/>
<text text-anchor="middle" x="836" y="-524.5" font-family="Helvetica,sans-Serif" font-size="10.00">ZendDbSchema_Db_Schema_Table\toSql</text>
</a>
</g>
<!-- Node18&#45;&gt;Node20 -->
<g id="edge40" class="edge"><title>Node18&#45;&gt;Node20</title>
<path fill="none" stroke="midnightblue" d="M584.112,-527C632.522,-527 688.463,-527 735.312,-527"/>
<polygon fill="midnightblue" stroke="midnightblue" points="583.902,-523.5 573.902,-527 583.902,-530.5 583.902,-523.5"/>
</g>
<!-- Node21&#45;&gt;Node11 -->
<g id="edge44" class="edge"><title>Node21&#45;&gt;Node11</title>
<path fill="none" stroke="midnightblue" d="M522.554,-441.841C557.008,-453.606 600.279,-473.974 626,-507 670.786,-564.507 607.78,-618.286 662,-667 665.845,-670.455 669.947,-673.539 674.254,-676.286"/>
<polygon fill="midnightblue" stroke="midnightblue" points="523.227,-438.379 512.634,-438.605 521.056,-445.034 523.227,-438.379"/>
</g>
<!-- Node21&#45;&gt;Node12 -->
<g id="edge48" class="edge"><title>Node21&#45;&gt;Node12</title>
<path fill="none" stroke="midnightblue" d="M507.589,-442.388C540.659,-456.09 589.141,-478.783 626,-507 644.991,-521.539 640.744,-536.036 662,-547 669.026,-550.624 676.42,-553.718 684.034,-556.353"/>
<polygon fill="midnightblue" stroke="midnightblue" points="508.853,-439.124 498.272,-438.597 506.215,-445.608 508.853,-439.124"/>
</g>
<!-- Node21&#45;&gt;Node14 -->
<g id="edge62" class="edge"><title>Node21&#45;&gt;Node14</title>
<path fill="none" stroke="midnightblue" d="M515.929,-441.913C550.056,-454.267 595.752,-475.33 626,-507 652.93,-535.195 630.523,-563.992 662,-587 677.834,-598.574 696.734,-605.585 716.151,-609.598"/>
<polygon fill="midnightblue" stroke="midnightblue" points="516.781,-438.503 506.186,-438.507 514.471,-445.111 516.781,-438.503"/>
</g>
<!-- Node21&#45;&gt;Node15 -->
<g id="edge64" class="edge"><title>Node21&#45;&gt;Node15</title>
<path fill="none" stroke="midnightblue" d="M489.783,-410.397C522.706,-382.415 592.061,-328.916 662,-309 810.753,-266.64 862.944,-261.079 1010,-309 1091.19,-335.458 1166.62,-410.664 1192.51,-438.484"/>
<polygon fill="midnightblue" stroke="midnightblue" points="487.135,-408.06 481.855,-417.245 491.71,-413.357 487.135,-408.06"/>
</g>
<!-- Node21&#45;&gt;Node16 -->
<g id="edge70" class="edge"><title>Node21&#45;&gt;Node16</title>
<path fill="none" stroke="midnightblue" d="M520.143,-441.842C554.524,-453.785 598.694,-474.366 626,-507 661.732,-549.704 619.301,-591.262 662,-627 671.444,-634.904 682.254,-640.808 693.763,-645.147"/>
<polygon fill="midnightblue" stroke="midnightblue" points="520.866,-438.394 510.273,-438.554 518.654,-445.035 520.866,-438.394"/>
</g>
<!-- Node21&#45;&gt;Node17 -->
<g id="edge72" class="edge"><title>Node21&#45;&gt;Node17</title>
<path fill="none" stroke="midnightblue" d="M608.586,-433.209C756.389,-439.525 974.148,-451.306 1010,-467 1098.74,-505.844 1172.17,-603.795 1194.8,-636.318"/>
<polygon fill="midnightblue" stroke="midnightblue" points="608.651,-429.709 598.512,-432.782 608.355,-436.702 608.651,-429.709"/>
</g>
<!-- Node21&#45;&gt;Node19 -->
<g id="edge46" class="edge"><title>Node21&#45;&gt;Node19</title>
<path fill="none" stroke="midnightblue" d="M536.757,-440.372C573.636,-447.068 620.296,-455.313 662,-462 693.64,-467.073 728.597,-472.19 758.828,-476.462"/>
<polygon fill="midnightblue" stroke="midnightblue" points="537.092,-436.876 526.626,-438.527 535.837,-443.762 537.092,-436.876"/>
</g>
<!-- Node21&#45;&gt;Node20 -->
<g id="edge66" class="edge"><title>Node21&#45;&gt;Node20</title>
<path fill="none" stroke="midnightblue" d="M499.575,-443.189C536.545,-461.46 602.246,-491.59 662,-507 685.408,-513.037 711.058,-517.253 735.3,-520.197"/>
<polygon fill="midnightblue" stroke="midnightblue" points="500.887,-439.932 490.377,-438.594 497.759,-446.195 500.887,-439.932"/>
</g>
<!-- Node22 -->
<g id="node47" class="node"><title>Node22</title>
<a xlink:href="classZendDbSchema__Db__Schema__Generator__Mysql.html#aa07a714e7f2d8de324512a5b5d67d200" target="_top" xlink:title="ZendDbSchema_Db_Schema_Generator_Mysql\\generateIndexCreate">
<polygon fill="white" stroke="black" points="676,-240.5 676,-261.5 996,-261.5 996,-240.5 676,-240.5"/>
<text text-anchor="middle" x="836" y="-248.5" font-family="Helvetica,sans-Serif" font-size="10.00">ZendDbSchema_Db_Schema_Generator_Mysql\generateIndexCreate</text>
</a>
</g>
<!-- Node21&#45;&gt;Node22 -->
<g id="edge50" class="edge"><title>Node21&#45;&gt;Node22</title>
<path fill="none" stroke="midnightblue" d="M486.504,-409.695C517.367,-376.78 587.471,-308.054 662,-276 676.298,-269.851 691.805,-265.159 707.472,-261.589"/>
<polygon fill="midnightblue" stroke="midnightblue" points="483.741,-407.528 479.524,-417.247 488.882,-412.279 483.741,-407.528"/>
</g>
<!-- Node24 -->
<g id="node51" class="node"><title>Node24</title>
<a xlink:href="classZendDbSchema__Db__Schema__Generator__Mysql.html#a6945556f59f0544392010d41dffe3411" target="_top" xlink:title="ZendDbSchema_Db_Schema_Generator_Mysql\\generatePrimaryKeyCreate">
<polygon fill="white" stroke="black" points="662.5,-160.5 662.5,-181.5 1009.5,-181.5 1009.5,-160.5 662.5,-160.5"/>
<text text-anchor="middle" x="836" y="-168.5" font-family="Helvetica,sans-Serif" font-size="10.00">ZendDbSchema_Db_Schema_Generator_Mysql\generatePrimaryKeyCreate</text>
</a>
</g>
<!-- Node21&#45;&gt;Node24 -->
<g id="edge54" class="edge"><title>Node21&#45;&gt;Node24</title>
<path fill="none" stroke="midnightblue" d="M479.291,-408.128C502.494,-361.019 567.947,-242.648 662,-191 668.663,-187.341 675.685,-184.206 682.93,-181.527"/>
<polygon fill="midnightblue" stroke="midnightblue" points="476.063,-406.765 474.871,-417.293 482.368,-409.806 476.063,-406.765"/>
</g>
<!-- Node25 -->
<g id="node53" class="node"><title>Node25</title>
<a xlink:href="classZendDbSchema__Db__Schema__Generator__Mysql.html#a60ba85904cc9f2db5a32db830067f44a" target="_top" xlink:title="ZendDbSchema_Db_Schema_Generator_Mysql\\generateForeignKeyAlter">
<polygon fill="white" stroke="black" points="668,-398.5 668,-419.5 1004,-419.5 1004,-398.5 668,-398.5"/>
<text text-anchor="middle" x="836" y="-406.5" font-family="Helvetica,sans-Serif" font-size="10.00">ZendDbSchema_Db_Schema_Generator_Mysql\generateForeignKeyAlter</text>
</a>
</g>
<!-- Node21&#45;&gt;Node25 -->
<g id="edge56" class="edge"><title>Node21&#45;&gt;Node25</title>
<path fill="none" stroke="midnightblue" d="M608.596,-420.805C627.99,-419.798 648.092,-418.755 667.958,-417.723"/>
<polygon fill="midnightblue" stroke="midnightblue" points="608.328,-417.314 598.523,-421.328 608.691,-424.305 608.328,-417.314"/>
</g>
<!-- Node26 -->
<g id="node55" class="node"><title>Node26</title>
<a xlink:href="classZendDbSchema__Db__Schema__Validator__Mysql.html#ab77a7fe20e34115d4b2679521b8918c0" target="_top" xlink:title="ZendDbSchema_Db_Schema_Validator_Mysql\\validateDatabase">
<polygon fill="white" stroke="black" points="686,-358.5 686,-379.5 986,-379.5 986,-358.5 686,-358.5"/>
<text text-anchor="middle" x="836" y="-366.5" font-family="Helvetica,sans-Serif" font-size="10.00">ZendDbSchema_Db_Schema_Validator_Mysql\validateDatabase</text>
</a>
</g>
<!-- Node21&#45;&gt;Node26 -->
<g id="edge58" class="edge"><title>Node21&#45;&gt;Node26</title>
<path fill="none" stroke="midnightblue" d="M526.244,-415.248C564.394,-406.926 616.052,-396.293 662,-389 684.373,-385.449 708.461,-382.27 731.37,-379.549"/>
<polygon fill="midnightblue" stroke="midnightblue" points="525.371,-411.857 516.354,-417.42 526.872,-418.694 525.371,-411.857"/>
</g>
<!-- Node27 -->
<g id="node57" class="node"><title>Node27</title>
<a xlink:href="classZendDbSchema__Db__Schema__AbstractEntity.html#a26fcff2268495fcdbfa265f394ee93d9" target="_top" xlink:title="ZendDbSchema_Db_Schema_AbstractEntity\\delete">
<polygon fill="white" stroke="black" points="714.5,-120.5 714.5,-141.5 957.5,-141.5 957.5,-120.5 714.5,-120.5"/>
<text text-anchor="middle" x="836" y="-128.5" font-family="Helvetica,sans-Serif" font-size="10.00">ZendDbSchema_Db_Schema_AbstractEntity\delete</text>
</a>
</g>
<!-- Node21&#45;&gt;Node27 -->
<g id="edge60" class="edge"><title>Node21&#45;&gt;Node27</title>
<path fill="none" stroke="midnightblue" d="M482.115,-408.62C519.995,-348.308 635.256,-167.015 662,-151 677.783,-141.549 695.824,-135.447 714.174,-131.641"/>
<polygon fill="midnightblue" stroke="midnightblue" points="479.072,-406.885 476.726,-417.217 485.003,-410.603 479.072,-406.885"/>
</g>
<!-- Node28 -->
<g id="node62" class="node"><title>Node28</title>
<a xlink:href="classZendDbSchema__Db__Schema__Table.html#a61af671b27825f5b54d6eb1d2adce0bd" target="_top" xlink:title="ZendDbSchema_Db_Schema_Table\\_doSave">
<polygon fill="white" stroke="black" points="727.5,-318.5 727.5,-339.5 944.5,-339.5 944.5,-318.5 727.5,-318.5"/>
<text text-anchor="middle" x="836" y="-326.5" font-family="Helvetica,sans-Serif" font-size="10.00">ZendDbSchema_Db_Schema_Table\_doSave</text>
</a>
</g>
<!-- Node21&#45;&gt;Node28 -->
<g id="edge68" class="edge"><title>Node21&#45;&gt;Node28</title>
<path fill="none" stroke="midnightblue" d="M499.575,-412.811C536.545,-394.54 602.246,-364.41 662,-349 682.905,-343.609 705.598,-339.67 727.48,-336.792"/>
<polygon fill="midnightblue" stroke="midnightblue" points="497.759,-409.805 490.377,-417.406 500.887,-416.068 497.759,-409.805"/>
</g>
<!-- Node29 -->
<g id="node66" class="node"><title>Node29</title>
<a xlink:href="classZendDbSchema__Db__Schema__Table__AbstractDefinition.html#a41800b80353287bf0d9e32fdb72d0b04" target="_top" xlink:title="ZendDbSchema_Db_Schema_Table_AbstractDefinition\\delete">
<polygon fill="white" stroke="black" points="692,-80.5 692,-101.5 980,-101.5 980,-80.5 692,-80.5"/>
<text text-anchor="middle" x="836" y="-88.5" font-family="Helvetica,sans-Serif" font-size="10.00">ZendDbSchema_Db_Schema_Table_AbstractDefinition\delete</text>
</a>
</g>
<!-- Node21&#45;&gt;Node29 -->
<g id="edge74" class="edge"><title>Node21&#45;&gt;Node29</title>
<path fill="none" stroke="midnightblue" d="M484.32,-408.59C513.209,-368.955 579.658,-275.328 626,-191 644.778,-156.83 630.523,-134.008 662,-111 671.083,-104.361 681.175,-99.2231 691.795,-95.2914"/>
<polygon fill="midnightblue" stroke="midnightblue" points="481.21,-406.913 478.126,-417.049 486.858,-411.048 481.21,-406.913"/>
</g>
<!-- Node23 -->
<g id="node49" class="node"><title>Node23</title>
<a xlink:href="classZendDbSchema__Db__Schema__Generator__Mysql.html#adb01a2e7be3ed89209a246cc747a26c1" target="_top" xlink:title="ZendDbSchema_Db_Schema_Generator_Mysql\\generateIndexAlter">
<polygon fill="white" stroke="black" points="1046.5,-240.5 1046.5,-261.5 1357.5,-261.5 1357.5,-240.5 1046.5,-240.5"/>
<text text-anchor="middle" x="1202" y="-248.5" font-family="Helvetica,sans-Serif" font-size="10.00">ZendDbSchema_Db_Schema_Generator_Mysql\generateIndexAlter</text>
</a>
</g>
<!-- Node22&#45;&gt;Node23 -->
<g id="edge52" class="edge"><title>Node22&#45;&gt;Node23</title>
<path fill="none" stroke="midnightblue" d="M1006.23,-251C1019.63,-251 1033.12,-251 1046.42,-251"/>
<polygon fill="midnightblue" stroke="midnightblue" points="1006,-247.5 996,-251 1006,-254.5 1006,-247.5"/>
</g>
<!-- Node30&#45;&gt;Node13 -->
<g id="edge78" class="edge"><title>Node30&#45;&gt;Node13</title>
<path fill="none" stroke="midnightblue" d="M576.354,-182.623C628.01,-188.269 689.611,-195.001 739.845,-200.491"/>
<polygon fill="midnightblue" stroke="midnightblue" points="576.483,-179.117 566.162,-181.51 575.723,-186.075 576.483,-179.117"/>
</g>
<!-- Node30&#45;&gt;Node27 -->
<g id="edge80" class="edge"><title>Node30&#45;&gt;Node27</title>
<path fill="none" stroke="midnightblue" d="M576.354,-159.377C628.01,-153.731 689.611,-146.999 739.845,-141.509"/>
<polygon fill="midnightblue" stroke="midnightblue" points="575.723,-155.925 566.162,-160.49 576.483,-162.883 575.723,-155.925"/>
</g>
<!-- Node31 -->
<g id="node72" class="node"><title>Node31</title>
<a xlink:href="classZendDbSchema__Db__Schema__AbstractSchema.html#a95b8986f7fa3a4e26be024d3a621e4f6" target="_top" xlink:title="ZendDbSchema_Db_Schema_AbstractSchema\\__construct">
<polygon fill="white" stroke="black" points="697,-40.5 697,-61.5 975,-61.5 975,-40.5 697,-40.5"/>
<text text-anchor="middle" x="836" y="-48.5" font-family="Helvetica,sans-Serif" font-size="10.00">ZendDbSchema_Db_Schema_AbstractSchema\__construct</text>
</a>
</g>
<!-- Node30&#45;&gt;Node31 -->
<g id="edge82" class="edge"><title>Node30&#45;&gt;Node31</title>
<path fill="none" stroke="midnightblue" d="M522.647,-157.529C554.388,-147.818 594.612,-132.592 626,-111 645.705,-97.4443 640.744,-81.9642 662,-71 672.945,-65.3547 684.781,-60.995 696.954,-57.6554"/>
<polygon fill="midnightblue" stroke="midnightblue" points="521.254,-154.291 512.661,-160.489 523.243,-161.003 521.254,-154.291"/>
</g>
<!-- Node32&#45;&gt;Node29 -->
<g id="edge86" class="edge"><title>Node32&#45;&gt;Node29</title>
<path fill="none" stroke="midnightblue" d="M626.487,-91C648.165,-91 670.351,-91 691.791,-91"/>
<polygon fill="midnightblue" stroke="midnightblue" points="626.231,-87.5001 616.231,-91 626.231,-94.5001 626.231,-87.5001"/>
</g>
<!-- Node33 -->
<g id="node77" class="node"><title>Node33</title>
<a xlink:href="classZendDbSchema__Db__Schema__Table__PrimaryKey.html#a8189591ab7ced58307298ecc8f27779d" target="_top" xlink:title="ZendDbSchema_Db_Schema_Table_PrimaryKey\\__construct">
<polygon fill="white" stroke="black" points="693,-0.5 693,-21.5 979,-21.5 979,-0.5 693,-0.5"/>
<text text-anchor="middle" x="836" y="-8.5" font-family="Helvetica,sans-Serif" font-size="10.00">ZendDbSchema_Db_Schema_Table_PrimaryKey\__construct</text>
</a>
</g>
<!-- Node32&#45;&gt;Node33 -->
<g id="edge88" class="edge"><title>Node32&#45;&gt;Node33</title>
<path fill="none" stroke="midnightblue" d="M507.555,-76.9467C545.859,-63.1664 607.272,-42.5884 662,-31 679.997,-27.1892 699.206,-24.0625 718.049,-21.5095"/>
<polygon fill="midnightblue" stroke="midnightblue" points="506.066,-73.7638 497.861,-80.4669 508.455,-80.3434 506.066,-73.7638"/>
</g>
</g>
</svg>
