<?xml version="1.0" encoding="UTF-8" standalone="no"?>
<!DOCTYPE svg PUBLIC "-//W3C//DTD SVG 1.1//EN"
 "http://www.w3.org/Graphics/SVG/1.1/DTD/svg11.dtd">
<!-- Generated by graphviz version 2.26.3 (20100126.1600)
 -->
<!-- Title: G Pages: 1 -->
<svg width="1252pt" height="150pt"
 viewBox="0.00 0.00 1252.00 150.00" xmlns="http://www.w3.org/2000/svg" xmlns:xlink="http://www.w3.org/1999/xlink">
<g id="graph1" class="graph" transform="scale(1 1) rotate(0) translate(4 146)">
<title>G</title>
<polygon fill="white" stroke="white" points="-4,5 -4,-146 1249,-146 1249,5 -4,5"/>
<!-- Node1 -->
<g id="node1" class="node"><title>Node1</title>
<polygon fill="#bfbfbf" stroke="black" points="0,-39.5 0,-60.5 282,-60.5 282,-39.5 0,-39.5"/>
<text text-anchor="middle" x="141" y="-47.5" font-family="Helvetica,sans-Serif" font-size="10.00">ZendDbSchema_Db_Schema_Validator_Mysql\validateTable</text>
</g>
<!-- Node2 -->
<g id="node3" class="node"><title>Node2</title>
<a xlink:href="classZendDbSchema__Db__Schema__AbstractSchema.html#a47d95912f6bf6d26d023597887dafacb" target="_top" xlink:title="ZendDbSchema_Db_Schema_AbstractSchema\\getAdapter">
<polygon fill="white" stroke="black" points="327.5,-79.5 327.5,-100.5 602.5,-100.5 602.5,-79.5 327.5,-79.5"/>
<text text-anchor="middle" x="465" y="-87.5" font-family="Helvetica,sans-Serif" font-size="10.00">ZendDbSchema_Db_Schema_AbstractSchema\getAdapter</text>
</a>
</g>
<!-- Node1&#45;&gt;Node2 -->
<g id="edge2" class="edge"><title>Node1&#45;&gt;Node2</title>
<path fill="none" stroke="midnightblue" d="M226.127,-60.5095C270.227,-65.954 324.221,-72.6199 369.712,-78.236"/>
<polygon fill="midnightblue" stroke="midnightblue" points="369.526,-81.7396 379.879,-79.4913 370.384,-74.7923 369.526,-81.7396"/>
</g>
<!-- Node7 -->
<g id="node13" class="node"><title>Node7</title>
<a xlink:href="classZendDbSchema__Db__Schema__AbstractSchema.html#adacb1417b461310c5c87f72c459c1985" target="_top" xlink:title="ZendDbSchema_Db_Schema_AbstractSchema\\getOriginName">
<polygon fill="white" stroke="black" points="318.5,-39.5 318.5,-60.5 611.5,-60.5 611.5,-39.5 318.5,-39.5"/>
<text text-anchor="middle" x="465" y="-47.5" font-family="Helvetica,sans-Serif" font-size="10.00">ZendDbSchema_Db_Schema_AbstractSchema\getOriginName</text>
</a>
</g>
<!-- Node1&#45;&gt;Node7 -->
<g id="edge12" class="edge"><title>Node1&#45;&gt;Node7</title>
<path fill="none" stroke="midnightblue" d="M282.169,-50C290.81,-50 299.531,-50 308.232,-50"/>
<polygon fill="midnightblue" stroke="midnightblue" points="308.432,-53.5001 318.432,-50 308.432,-46.5001 308.432,-53.5001"/>
</g>
<!-- Node8 -->
<g id="node15" class="node"><title>Node8</title>
<a xlink:href="classZendDbSchema__Db__Schema__AbstractSchema.html#a54d32c6f15463eaad2321a9f0e7225d7" target="_top" xlink:title="ZendDbSchema_Db_Schema_AbstractSchema\\__get">
<polygon fill="white" stroke="black" points="660.5,-0.5 660.5,-21.5 911.5,-21.5 911.5,-0.5 660.5,-0.5"/>
<text text-anchor="middle" x="786" y="-8.5" font-family="Helvetica,sans-Serif" font-size="10.00">ZendDbSchema_Db_Schema_AbstractSchema\__get</text>
</a>
</g>
<!-- Node1&#45;&gt;Node8 -->
<g id="edge18" class="edge"><title>Node1&#45;&gt;Node8</title>
<path fill="none" stroke="midnightblue" d="M223.281,-39.4577C253.075,-35.9697 287.012,-32.3767 318,-30 429.671,-21.4352 556.648,-16.5867 650.136,-13.9347"/>
<polygon fill="midnightblue" stroke="midnightblue" points="650.322,-17.431 660.22,-13.6535 650.126,-10.4337 650.322,-17.431"/>
</g>
<!-- Node3 -->
<g id="node5" class="node"><title>Node3</title>
<a xlink:href="classZendDbSchema__Db__Schema__AbstractSchema.html#a6349649e5e09d67a5b5e0abe96298db8" target="_top" xlink:title="ZendDbSchema_Db_Schema_AbstractSchema\\setAdapter">
<polygon fill="white" stroke="black" points="648.5,-79.5 648.5,-100.5 923.5,-100.5 923.5,-79.5 648.5,-79.5"/>
<text text-anchor="middle" x="786" y="-87.5" font-family="Helvetica,sans-Serif" font-size="10.00">ZendDbSchema_Db_Schema_AbstractSchema\setAdapter</text>
</a>
</g>
<!-- Node2&#45;&gt;Node3 -->
<g id="edge4" class="edge"><title>Node2&#45;&gt;Node3</title>
<path fill="none" stroke="midnightblue" d="M602.53,-90C614.243,-90 626.124,-90 637.914,-90"/>
<polygon fill="midnightblue" stroke="midnightblue" points="638.245,-93.5001 648.245,-90 638.245,-86.5001 638.245,-93.5001"/>
</g>
<!-- Node4 -->
<g id="node7" class="node"><title>Node4</title>
<a xlink:href="classZendDbSchema__Db__Schema__AbstractSchema.html#a53a1974dbc8822792a8d7b9c618d3a02" target="_top" xlink:title="ZendDbSchema_Db_Schema_AbstractSchema\\setGenerator">
<polygon fill="white" stroke="black" points="960,-120.5 960,-141.5 1244,-141.5 1244,-120.5 960,-120.5"/>
<text text-anchor="middle" x="1102" y="-128.5" font-family="Helvetica,sans-Serif" font-size="10.00">ZendDbSchema_Db_Schema_AbstractSchema\setGenerator</text>
</a>
</g>
<!-- Node3&#45;&gt;Node4 -->
<g id="edge6" class="edge"><title>Node3&#45;&gt;Node4</title>
<path fill="none" stroke="midnightblue" d="M866.968,-100.505C910.914,-106.207 965.388,-113.275 1010.82,-119.17"/>
<polygon fill="midnightblue" stroke="midnightblue" points="1010.6,-122.671 1020.97,-120.486 1011.5,-115.729 1010.6,-122.671"/>
</g>
<!-- Node5 -->
<g id="node9" class="node"><title>Node5</title>
<a xlink:href="classZendDbSchema__Db__Schema__AbstractSchema.html#aa0e6c9f8d58702dc41d988f064f62698" target="_top" xlink:title="ZendDbSchema_Db_Schema_AbstractSchema\\setParser">
<polygon fill="white" stroke="black" points="967.5,-80.5 967.5,-101.5 1236.5,-101.5 1236.5,-80.5 967.5,-80.5"/>
<text text-anchor="middle" x="1102" y="-88.5" font-family="Helvetica,sans-Serif" font-size="10.00">ZendDbSchema_Db_Schema_AbstractSchema\setParser</text>
</a>
</g>
<!-- Node3&#45;&gt;Node5 -->
<g id="edge8" class="edge"><title>Node3&#45;&gt;Node5</title>
<path fill="none" stroke="midnightblue" d="M923.683,-90.4357C934.761,-90.4708 945.975,-90.5063 957.102,-90.5415"/>
<polygon fill="midnightblue" stroke="midnightblue" points="957.278,-94.0419 967.289,-90.5737 957.301,-87.042 957.278,-94.0419"/>
</g>
<!-- Node6 -->
<g id="node11" class="node"><title>Node6</title>
<a xlink:href="classZendDbSchema__Db__Schema__AbstractSchema.html#ac0161e2c24dafba8433fb86205a147fe" target="_top" xlink:title="ZendDbSchema_Db_Schema_AbstractSchema\\setValidator">
<polygon fill="white" stroke="black" points="962.5,-40.5 962.5,-61.5 1241.5,-61.5 1241.5,-40.5 962.5,-40.5"/>
<text text-anchor="middle" x="1102" y="-48.5" font-family="Helvetica,sans-Serif" font-size="10.00">ZendDbSchema_Db_Schema_AbstractSchema\setValidator</text>
</a>
</g>
<!-- Node3&#45;&gt;Node6 -->
<g id="edge10" class="edge"><title>Node3&#45;&gt;Node6</title>
<path fill="none" stroke="midnightblue" d="M871.098,-79.4974C912.987,-74.3276 963.632,-68.077 1006.81,-62.7487"/>
<polygon fill="midnightblue" stroke="midnightblue" points="1007.25,-66.22 1016.75,-61.5213 1006.4,-59.2727 1007.25,-66.22"/>
</g>
<!-- Node7&#45;&gt;Node8 -->
<g id="edge14" class="edge"><title>Node7&#45;&gt;Node8</title>
<path fill="none" stroke="midnightblue" d="M551.444,-39.4974C593.996,-34.3276 645.443,-28.077 689.299,-22.7487"/>
<polygon fill="midnightblue" stroke="midnightblue" points="689.896,-26.202 699.401,-21.5213 689.052,-19.2531 689.896,-26.202"/>
</g>
<!-- Node9 -->
<g id="node17" class="node"><title>Node9</title>
<a xlink:href="classZendDbSchema__Db__Schema__AbstractSchema.html#ac4e121ba7932163eb1950fabe06fb9db" target="_top" xlink:title="ZendDbSchema_Db_Schema_AbstractSchema\\__isset">
<polygon fill="white" stroke="black" points="972.5,-0.5 972.5,-21.5 1231.5,-21.5 1231.5,-0.5 972.5,-0.5"/>
<text text-anchor="middle" x="1102" y="-8.5" font-family="Helvetica,sans-Serif" font-size="10.00">ZendDbSchema_Db_Schema_AbstractSchema\__isset</text>
</a>
</g>
<!-- Node8&#45;&gt;Node9 -->
<g id="edge16" class="edge"><title>Node8&#45;&gt;Node9</title>
<path fill="none" stroke="midnightblue" d="M911.8,-11C928.333,-11 945.358,-11 962.108,-11"/>
<polygon fill="midnightblue" stroke="midnightblue" points="962.495,-14.5001 972.495,-11 962.495,-7.5001 962.495,-14.5001"/>
</g>
</g>
</svg>
