<?xml version="1.0" encoding="UTF-8" standalone="no"?>
<!DOCTYPE svg PUBLIC "-//W3C//DTD SVG 1.1//EN"
 "http://www.w3.org/Graphics/SVG/1.1/DTD/svg11.dtd">
<!-- Generated by graphviz version 2.26.3 (20100126.1600)
 -->
<!-- Title: G Pages: 1 -->
<svg width="1260pt" height="188pt"
 viewBox="0.00 0.00 1260.00 188.00" xmlns="http://www.w3.org/2000/svg" xmlns:xlink="http://www.w3.org/1999/xlink">
<g id="graph1" class="graph" transform="scale(1 1) rotate(0) translate(4 184)">
<title>G</title>
<polygon fill="white" stroke="white" points="-4,5 -4,-184 1257,-184 1257,5 -4,5"/>
<!-- Node1 -->
<g id="node1" class="node"><title>Node1</title>
<polygon fill="#bfbfbf" stroke="black" points="0.5,-60.5 0.5,-81.5 311.5,-81.5 311.5,-60.5 0.5,-60.5"/>
<text text-anchor="middle" x="156" y="-68.5" font-family="Helvetica,sans-Serif" font-size="10.00">ZendDbSchema_Db_Schema_Generator_Mysql\generateTableAlter</text>
</g>
<!-- Node2 -->
<g id="node3" class="node"><title>Node2</title>
<a xlink:href="classZendDbSchema__Db__Schema__AbstractSchema.html#a1680a8fd22360f74d29b641d7257a52f" target="_top" xlink:title="ZendDbSchema_Db_Schema_AbstractSchema\\isExist">
<polygon fill="white" stroke="black" points="366.5,-139.5 366.5,-160.5 623.5,-160.5 623.5,-139.5 366.5,-139.5"/>
<text text-anchor="middle" x="495" y="-147.5" font-family="Helvetica,sans-Serif" font-size="10.00">ZendDbSchema_Db_Schema_AbstractSchema\isExist</text>
</a>
</g>
<!-- Node1&#45;&gt;Node2 -->
<g id="edge2" class="edge"><title>Node1&#45;&gt;Node2</title>
<path fill="none" stroke="midnightblue" d="M201.367,-81.5723C263.147,-95.9693 373.628,-121.716 440.035,-137.191"/>
<polygon fill="midnightblue" stroke="midnightblue" points="439.368,-140.629 449.901,-139.49 440.957,-133.812 439.368,-140.629"/>
</g>
<!-- Node4 -->
<g id="node7" class="node"><title>Node4</title>
<a xlink:href="classZendDbSchema__Db__Schema__Table.html#a21a2a75870207a989576655fec7507c3" target="_top" xlink:title="ZendDbSchema_Db_Schema_Table\\isDirty">
<polygon fill="white" stroke="black" points="391.5,-80.5 391.5,-101.5 598.5,-101.5 598.5,-80.5 391.5,-80.5"/>
<text text-anchor="middle" x="495" y="-88.5" font-family="Helvetica,sans-Serif" font-size="10.00">ZendDbSchema_Db_Schema_Table\isDirty</text>
</a>
</g>
<!-- Node1&#45;&gt;Node4 -->
<g id="edge6" class="edge"><title>Node1&#45;&gt;Node4</title>
<path fill="none" stroke="midnightblue" d="M311.61,-80.1805C335.005,-81.5608 358.756,-82.962 381.064,-84.2781"/>
<polygon fill="midnightblue" stroke="midnightblue" points="381.016,-87.7813 391.205,-84.8764 381.429,-80.7934 381.016,-87.7813"/>
</g>
<!-- Node9 -->
<g id="node19" class="node"><title>Node9</title>
<a xlink:href="classZendDbSchema__Db__Schema__AbstractSchema.html#a55787c21deddba427842809d589c2df6" target="_top" xlink:title="ZendDbSchema_Db_Schema_AbstractSchema\\getName">
<polygon fill="white" stroke="black" points="361.5,-40.5 361.5,-61.5 628.5,-61.5 628.5,-40.5 361.5,-40.5"/>
<text text-anchor="middle" x="495" y="-48.5" font-family="Helvetica,sans-Serif" font-size="10.00">ZendDbSchema_Db_Schema_AbstractSchema\getName</text>
</a>
</g>
<!-- Node1&#45;&gt;Node9 -->
<g id="edge20" class="edge"><title>Node1&#45;&gt;Node9</title>
<path fill="none" stroke="midnightblue" d="M311.61,-61.8195C324.856,-61.038 338.216,-60.2498 351.363,-59.4742"/>
<polygon fill="midnightblue" stroke="midnightblue" points="351.593,-62.9667 361.37,-58.8838 351.181,-55.9789 351.593,-62.9667"/>
</g>
<!-- Node10 -->
<g id="node22" class="node"><title>Node10</title>
<a xlink:href="classZendDbSchema__Db__Schema__AbstractSchema.html#adacb1417b461310c5c87f72c459c1985" target="_top" xlink:title="ZendDbSchema_Db_Schema_AbstractSchema\\getOriginName">
<polygon fill="white" stroke="black" points="348.5,-0.5 348.5,-21.5 641.5,-21.5 641.5,-0.5 348.5,-0.5"/>
<text text-anchor="middle" x="495" y="-8.5" font-family="Helvetica,sans-Serif" font-size="10.00">ZendDbSchema_Db_Schema_AbstractSchema\getOriginName</text>
</a>
</g>
<!-- Node1&#45;&gt;Node10 -->
<g id="edge24" class="edge"><title>Node1&#45;&gt;Node10</title>
<path fill="none" stroke="midnightblue" d="M201.993,-60.4711C240.78,-51.8198 297.833,-39.6275 348,-31 364.763,-28.1172 382.66,-25.3908 399.99,-22.9319"/>
<polygon fill="midnightblue" stroke="midnightblue" points="400.696,-26.3673 410.115,-21.516 399.726,-19.4347 400.696,-26.3673"/>
</g>
<!-- Node3 -->
<g id="node5" class="node"><title>Node3</title>
<a xlink:href="classZendDbSchema__Db__Schema__AbstractSchema.html#a219012c80be57ace4b1db43a9c48eb3d" target="_top" xlink:title="ZendDbSchema_Db_Schema_AbstractSchema\\getSchema">
<polygon fill="white" stroke="black" points="678.5,-158.5 678.5,-179.5 955.5,-179.5 955.5,-158.5 678.5,-158.5"/>
<text text-anchor="middle" x="817" y="-166.5" font-family="Helvetica,sans-Serif" font-size="10.00">ZendDbSchema_Db_Schema_AbstractSchema\getSchema</text>
</a>
</g>
<!-- Node2&#45;&gt;Node3 -->
<g id="edge4" class="edge"><title>Node2&#45;&gt;Node3</title>
<path fill="none" stroke="midnightblue" d="M623.651,-157.591C638.24,-158.452 653.198,-159.335 668.02,-160.209"/>
<polygon fill="midnightblue" stroke="midnightblue" points="668.064,-163.718 678.253,-160.813 668.477,-156.73 668.064,-163.718"/>
</g>
<!-- Node4&#45;&gt;Node3 -->
<g id="edge8" class="edge"><title>Node4&#45;&gt;Node3</title>
<path fill="none" stroke="midnightblue" d="M540.089,-101.578C569.373,-108.787 608.236,-118.994 642,-130 658.322,-135.321 661.475,-139.348 678,-144 695.624,-148.962 714.793,-153.156 733.106,-156.608"/>
<polygon fill="midnightblue" stroke="midnightblue" points="732.71,-160.094 743.176,-158.45 733.969,-153.208 732.71,-160.094"/>
</g>
<!-- Node5 -->
<g id="node10" class="node"><title>Node5</title>
<a xlink:href="classZendDbSchema__Db__Schema__AbstractSchema.html#ac4e121ba7932163eb1950fabe06fb9db" target="_top" xlink:title="ZendDbSchema_Db_Schema_AbstractSchema\\__isset">
<polygon fill="white" stroke="black" points="992.5,-59.5 992.5,-80.5 1251.5,-80.5 1251.5,-59.5 992.5,-59.5"/>
<text text-anchor="middle" x="1122" y="-67.5" font-family="Helvetica,sans-Serif" font-size="10.00">ZendDbSchema_Db_Schema_AbstractSchema\__isset</text>
</a>
</g>
<!-- Node4&#45;&gt;Node5 -->
<g id="edge10" class="edge"><title>Node4&#45;&gt;Node5</title>
<path fill="none" stroke="midnightblue" d="M567.945,-101.522C659.071,-112.978 819.617,-127.593 956,-111 998.729,-105.801 1046.31,-93.3383 1079.54,-83.5079"/>
<polygon fill="midnightblue" stroke="midnightblue" points="1080.8,-86.7836 1089.37,-80.5526 1078.78,-80.08 1080.8,-86.7836"/>
</g>
<!-- Node6 -->
<g id="node12" class="node"><title>Node6</title>
<a xlink:href="classZendDbSchema__Db__Schema__AbstractSchema.html#a54d32c6f15463eaad2321a9f0e7225d7" target="_top" xlink:title="ZendDbSchema_Db_Schema_AbstractSchema\\__get">
<polygon fill="white" stroke="black" points="691.5,-0.5 691.5,-21.5 942.5,-21.5 942.5,-0.5 691.5,-0.5"/>
<text text-anchor="middle" x="817" y="-8.5" font-family="Helvetica,sans-Serif" font-size="10.00">ZendDbSchema_Db_Schema_AbstractSchema\__get</text>
</a>
</g>
<!-- Node4&#45;&gt;Node6 -->
<g id="edge12" class="edge"><title>Node4&#45;&gt;Node6</title>
<path fill="none" stroke="midnightblue" d="M598.699,-86.2366C613.774,-82.9159 628.682,-78.0458 642,-71 663.141,-59.8155 656.902,-42.2656 678,-31 682.041,-28.8423 686.237,-26.8937 690.545,-25.1349"/>
<polygon fill="midnightblue" stroke="midnightblue" points="691.974,-28.3378 700.135,-21.5807 689.542,-21.7741 691.974,-28.3378"/>
</g>
<!-- Node7 -->
<g id="node15" class="node"><title>Node7</title>
<a xlink:href="classZendDbSchema__Db__Schema__Table.html#a214354faa96de67a26b787c2c8741850" target="_top" xlink:title="ZendDbSchema_Db_Schema_Table\\columns">
<polygon fill="white" stroke="black" points="709.5,-80.5 709.5,-101.5 924.5,-101.5 924.5,-80.5 709.5,-80.5"/>
<text text-anchor="middle" x="817" y="-88.5" font-family="Helvetica,sans-Serif" font-size="10.00">ZendDbSchema_Db_Schema_Table\columns</text>
</a>
</g>
<!-- Node4&#45;&gt;Node7 -->
<g id="edge16" class="edge"><title>Node4&#45;&gt;Node7</title>
<path fill="none" stroke="midnightblue" d="M598.655,-91C630.728,-91 666.294,-91 699.249,-91"/>
<polygon fill="midnightblue" stroke="midnightblue" points="699.385,-94.5001 709.385,-91 699.385,-87.5001 699.385,-94.5001"/>
</g>
<!-- Node8 -->
<g id="node17" class="node"><title>Node8</title>
<a xlink:href="classZendDbSchema__Db__Schema__Table.html#ad7f1a12ae1ef3841d3ffe89038f0aebe" target="_top" xlink:title="ZendDbSchema_Db_Schema_Table\\index">
<polygon fill="white" stroke="black" points="716,-40.5 716,-61.5 918,-61.5 918,-40.5 716,-40.5"/>
<text text-anchor="middle" x="817" y="-48.5" font-family="Helvetica,sans-Serif" font-size="10.00">ZendDbSchema_Db_Schema_Table\index</text>
</a>
</g>
<!-- Node4&#45;&gt;Node8 -->
<g id="edge18" class="edge"><title>Node4&#45;&gt;Node8</title>
<path fill="none" stroke="midnightblue" d="M579.602,-80.4905C623.43,-75.046 677.09,-68.3801 722.3,-62.764"/>
<polygon fill="midnightblue" stroke="midnightblue" points="722.913,-66.2149 732.405,-61.5087 722.05,-59.2683 722.913,-66.2149"/>
</g>
<!-- Node6&#45;&gt;Node5 -->
<g id="edge14" class="edge"><title>Node6&#45;&gt;Node5</title>
<path fill="none" stroke="midnightblue" d="M898.784,-21.5459C917.629,-24.3143 937.554,-27.513 956,-31 995.147,-38.4002 1039.01,-48.7978 1071.81,-56.9962"/>
<polygon fill="midnightblue" stroke="midnightblue" points="1071.07,-60.418 1081.62,-59.4642 1072.78,-53.6296 1071.07,-60.418"/>
</g>
<!-- Node9&#45;&gt;Node6 -->
<g id="edge22" class="edge"><title>Node9&#45;&gt;Node6</title>
<path fill="none" stroke="midnightblue" d="M579.602,-40.4905C623.43,-35.046 677.09,-28.3801 722.3,-22.764"/>
<polygon fill="midnightblue" stroke="midnightblue" points="722.913,-26.2149 732.405,-21.5087 722.05,-19.2683 722.913,-26.2149"/>
</g>
<!-- Node10&#45;&gt;Node6 -->
<g id="edge26" class="edge"><title>Node10&#45;&gt;Node6</title>
<path fill="none" stroke="midnightblue" d="M641.866,-11C654.823,-11 667.903,-11 680.767,-11"/>
<polygon fill="midnightblue" stroke="midnightblue" points="681.031,-14.5001 691.031,-11 681.031,-7.5001 681.031,-14.5001"/>
</g>
</g>
</svg>
