<?xml version="1.0" encoding="UTF-8" standalone="no"?>
<!DOCTYPE svg PUBLIC "-//W3C//DTD SVG 1.1//EN"
 "http://www.w3.org/Graphics/SVG/1.1/DTD/svg11.dtd">
<!-- Generated by graphviz version 2.26.3 (20100126.1600)
 -->
<!-- Title: G Pages: 1 -->
<svg width="634pt" height="70pt"
 viewBox="0.00 0.00 634.00 70.00" xmlns="http://www.w3.org/2000/svg" xmlns:xlink="http://www.w3.org/1999/xlink">
<g id="graph1" class="graph" transform="scale(1 1) rotate(0) translate(4 66)">
<title>G</title>
<polygon fill="white" stroke="white" points="-4,5 -4,-66 631,-66 631,5 -4,5"/>
<!-- Node1 -->
<g id="node1" class="node"><title>Node1</title>
<polygon fill="#bfbfbf" stroke="black" points="0.5,-20.5 0.5,-41.5 287.5,-41.5 287.5,-20.5 0.5,-20.5"/>
<text text-anchor="middle" x="144" y="-28.5" font-family="Helvetica,sans-Serif" font-size="10.00">ZendDbSchema_Db_Schema_Table_PrimaryKey\setColumns</text>
</g>
<!-- Node2 -->
<g id="node3" class="node"><title>Node2</title>
<a xlink:href="classZendDbSchema__Db__Schema__Table__PrimaryKey.html#a0b84ee828c689a3da5790e123583f691" target="_top" xlink:title="ZendDbSchema_Db_Schema_Table_PrimaryKey\\addColumn">
<polygon fill="white" stroke="black" points="333,-40.5 333,-61.5 617,-61.5 617,-40.5 333,-40.5"/>
<text text-anchor="middle" x="475" y="-48.5" font-family="Helvetica,sans-Serif" font-size="10.00">ZendDbSchema_Db_Schema_Table_PrimaryKey\addColumn</text>
</a>
</g>
<!-- Node1&#45;&gt;Node2 -->
<g id="edge2" class="edge"><title>Node1&#45;&gt;Node2</title>
<path fill="none" stroke="midnightblue" d="M297.967,-40.3031C309.637,-41.0083 321.384,-41.718 332.974,-42.4183"/>
<polygon fill="midnightblue" stroke="midnightblue" points="297.93,-36.7946 287.737,-39.685 297.508,-43.7819 297.93,-36.7946"/>
</g>
<!-- Node3 -->
<g id="node5" class="node"><title>Node3</title>
<a xlink:href="classZendDbSchema__Db__Schema__Table__PrimaryKey.html#a6deb586d1cc0935f5c0d50afa47667de" target="_top" xlink:title="ZendDbSchema_Db_Schema_Table_PrimaryKey\\removeColumn">
<polygon fill="white" stroke="black" points="324.5,-0.5 324.5,-21.5 625.5,-21.5 625.5,-0.5 324.5,-0.5"/>
<text text-anchor="middle" x="475" y="-8.5" font-family="Helvetica,sans-Serif" font-size="10.00">ZendDbSchema_Db_Schema_Table_PrimaryKey\removeColumn</text>
</a>
</g>
<!-- Node1&#45;&gt;Node3 -->
<g id="edge4" class="edge"><title>Node1&#45;&gt;Node3</title>
<path fill="none" stroke="midnightblue" d="M298,-21.6949C306.764,-21.1653 315.572,-20.6331 324.323,-20.1043"/>
<polygon fill="midnightblue" stroke="midnightblue" points="297.508,-18.2181 287.737,-22.315 297.93,-25.2054 297.508,-18.2181"/>
</g>
</g>
</svg>
