<?xml version="1.0" encoding="UTF-8" standalone="no"?>
<!DOCTYPE svg PUBLIC "-//W3C//DTD SVG 1.1//EN"
 "http://www.w3.org/Graphics/SVG/1.1/DTD/svg11.dtd">
<!-- Generated by graphviz version 2.26.3 (20100126.1600)
 -->
<!-- Title: G Pages: 1 -->
<svg width="354pt" height="146pt"
 viewBox="0.00 0.00 354.00 146.00" xmlns="http://www.w3.org/2000/svg" xmlns:xlink="http://www.w3.org/1999/xlink">
<g id="graph1" class="graph" transform="scale(1 1) rotate(0) translate(4 142)">
<title>G</title>
<polygon fill="white" stroke="white" points="-4,5 -4,-142 351,-142 351,5 -4,5"/>
<!-- Node1 -->
<g id="node1" class="node"><title>Node1</title>
<polygon fill="#bfbfbf" stroke="black" points="0.5,-52 0.5,-86 161.5,-86 161.5,-52 0.5,-52"/>
<text text-anchor="start" x="8.5" y="-73" font-family="Helvetica,sans-Serif" font-size="10.00">ZendDbSchema_Tool_Project</text>
<text text-anchor="middle" x="81" y="-60" font-family="Helvetica,sans-Serif" font-size="10.00">_Provider_Schema\_getFilename</text>
</g>
<!-- Node2 -->
<g id="node3" class="node"><title>Node2</title>
<a xlink:href="classZendDbSchema__Tool__Project__Provider__Schema.html#a5f0f3101bb7b9e252f6d6bed1ddadbe5" target="_top" xlink:title="ZendDbSchema_Tool_Project\l_Provider_Schema\\pull">
<polygon fill="white" stroke="black" points="198.5,-104 198.5,-138 345.5,-138 345.5,-104 198.5,-104"/>
<text text-anchor="start" x="206.5" y="-125" font-family="Helvetica,sans-Serif" font-size="10.00">ZendDbSchema_Tool_Project</text>
<text text-anchor="middle" x="272" y="-112" font-family="Helvetica,sans-Serif" font-size="10.00">_Provider_Schema\pull</text>
</a>
</g>
<!-- Node1&#45;&gt;Node2 -->
<g id="edge2" class="edge"><title>Node1&#45;&gt;Node2</title>
<path fill="none" stroke="midnightblue" d="M153.34,-88.6947C171.767,-93.7115 191.419,-99.0616 209.319,-103.935"/>
<polygon fill="midnightblue" stroke="midnightblue" points="154.109,-85.2766 143.541,-86.0267 152.27,-92.0308 154.109,-85.2766"/>
</g>
<!-- Node3 -->
<g id="node5" class="node"><title>Node3</title>
<a xlink:href="classZendDbSchema__Tool__Project__Provider__Schema.html#aa7746bd0ed044ad415b1b7b884f7a007" target="_top" xlink:title="ZendDbSchema_Tool_Project\l_Provider_Schema\\push">
<polygon fill="white" stroke="black" points="198.5,-52 198.5,-86 345.5,-86 345.5,-52 198.5,-52"/>
<text text-anchor="start" x="206.5" y="-73" font-family="Helvetica,sans-Serif" font-size="10.00">ZendDbSchema_Tool_Project</text>
<text text-anchor="middle" x="272" y="-60" font-family="Helvetica,sans-Serif" font-size="10.00">_Provider_Schema\push</text>
</a>
</g>
<!-- Node1&#45;&gt;Node3 -->
<g id="edge4" class="edge"><title>Node1&#45;&gt;Node3</title>
<path fill="none" stroke="midnightblue" d="M172.006,-69C180.8,-69 189.645,-69 198.241,-69"/>
<polygon fill="midnightblue" stroke="midnightblue" points="171.724,-65.5001 161.724,-69 171.724,-72.5001 171.724,-65.5001"/>
</g>
<!-- Node4 -->
<g id="node7" class="node"><title>Node4</title>
<a xlink:href="classZendDbSchema__Tool__Project__Provider__Schema.html#a5741419511310dc38038399e9f4ac5e1" target="_top" xlink:title="ZendDbSchema_Tool_Project\l_Provider_Schema\\status">
<polygon fill="white" stroke="black" points="198.5,-0 198.5,-34 345.5,-34 345.5,-0 198.5,-0"/>
<text text-anchor="start" x="206.5" y="-21" font-family="Helvetica,sans-Serif" font-size="10.00">ZendDbSchema_Tool_Project</text>
<text text-anchor="middle" x="272" y="-8" font-family="Helvetica,sans-Serif" font-size="10.00">_Provider_Schema\status</text>
</a>
</g>
<!-- Node1&#45;&gt;Node4 -->
<g id="edge6" class="edge"><title>Node1&#45;&gt;Node4</title>
<path fill="none" stroke="midnightblue" d="M153.34,-49.3053C171.767,-44.2885 191.419,-38.9384 209.319,-34.065"/>
<polygon fill="midnightblue" stroke="midnightblue" points="152.27,-45.9692 143.541,-51.9733 154.109,-52.7234 152.27,-45.9692"/>
</g>
</g>
</svg>
