<?xml version="1.0" encoding="UTF-8" standalone="no"?>
<!DOCTYPE svg PUBLIC "-//W3C//DTD SVG 1.1//EN"
 "http://www.w3.org/Graphics/SVG/1.1/DTD/svg11.dtd">
<!-- Generated by graphviz version 2.26.3 (20100126.1600)
 -->
<!-- Title: G Pages: 1 -->
<svg width="1530pt" height="70pt"
 viewBox="0.00 0.00 1530.00 70.00" xmlns="http://www.w3.org/2000/svg" xmlns:xlink="http://www.w3.org/1999/xlink">
<g id="graph1" class="graph" transform="scale(1 1) rotate(0) translate(4 66)">
<title>G</title>
<polygon fill="white" stroke="white" points="-4,5 -4,-66 1527,-66 1527,5 -4,5"/>
<!-- Node1 -->
<g id="node1" class="node"><title>Node1</title>
<polygon fill="#bfbfbf" stroke="black" points="0.5,-20.5 0.5,-41.5 297.5,-41.5 297.5,-20.5 0.5,-20.5"/>
<text text-anchor="middle" x="149" y="-28.5" font-family="Helvetica,sans-Serif" font-size="10.00">ZendDbSchema_Db_Schema_Generator_Mysql\dropForeignKey</text>
</g>
<!-- Node2 -->
<g id="node3" class="node"><title>Node2</title>
<a xlink:href="classZendDbSchema__Db__Schema__Table__AbstractDefinition.html#a224b6a0c1df1d6ed40e03657782ef6fc" target="_top" xlink:title="ZendDbSchema_Db_Schema_Table_AbstractDefinition\\getTable">
<polygon fill="white" stroke="black" points="334.5,-40.5 334.5,-61.5 633.5,-61.5 633.5,-40.5 334.5,-40.5"/>
<text text-anchor="middle" x="484" y="-48.5" font-family="Helvetica,sans-Serif" font-size="10.00">ZendDbSchema_Db_Schema_Table_AbstractDefinition\getTable</text>
</a>
</g>
<!-- Node1&#45;&gt;Node2 -->
<g id="edge2" class="edge"><title>Node1&#45;&gt;Node2</title>
<path fill="none" stroke="midnightblue" d="M297.887,-39.8888C306.711,-40.4156 315.605,-40.9465 324.469,-41.4757"/>
<polygon fill="midnightblue" stroke="midnightblue" points="324.267,-44.9699 334.458,-42.0721 324.685,-37.9823 324.267,-44.9699"/>
</g>
<!-- Node3 -->
<g id="node5" class="node"><title>Node3</title>
<a xlink:href="classZendDbSchema__Db__Schema__AbstractSchema.html#adacb1417b461310c5c87f72c459c1985" target="_top" xlink:title="ZendDbSchema_Db_Schema_AbstractSchema\\getOriginName">
<polygon fill="white" stroke="black" points="337.5,-0.5 337.5,-21.5 630.5,-21.5 630.5,-0.5 337.5,-0.5"/>
<text text-anchor="middle" x="484" y="-8.5" font-family="Helvetica,sans-Serif" font-size="10.00">ZendDbSchema_Db_Schema_AbstractSchema\getOriginName</text>
</a>
</g>
<!-- Node1&#45;&gt;Node3 -->
<g id="edge4" class="edge"><title>Node1&#45;&gt;Node3</title>
<path fill="none" stroke="midnightblue" d="M297.887,-22.1112C307.614,-21.5305 317.426,-20.9447 327.189,-20.3618"/>
<polygon fill="midnightblue" stroke="midnightblue" points="327.567,-23.8456 337.34,-19.7558 327.149,-16.8581 327.567,-23.8456"/>
</g>
<!-- Node4 -->
<g id="node7" class="node"><title>Node4</title>
<a xlink:href="classZendDbSchema__Db__Schema__AbstractSchema.html#a55787c21deddba427842809d589c2df6" target="_top" xlink:title="ZendDbSchema_Db_Schema_AbstractSchema\\getName">
<polygon fill="white" stroke="black" points="670.5,-0.5 670.5,-21.5 937.5,-21.5 937.5,-0.5 670.5,-0.5"/>
<text text-anchor="middle" x="804" y="-8.5" font-family="Helvetica,sans-Serif" font-size="10.00">ZendDbSchema_Db_Schema_AbstractSchema\getName</text>
</a>
</g>
<!-- Node3&#45;&gt;Node4 -->
<g id="edge6" class="edge"><title>Node3&#45;&gt;Node4</title>
<path fill="none" stroke="midnightblue" d="M630.888,-11C640.644,-11 650.464,-11 660.204,-11"/>
<polygon fill="midnightblue" stroke="midnightblue" points="660.319,-14.5001 670.319,-11 660.319,-7.5001 660.319,-14.5001"/>
</g>
<!-- Node5 -->
<g id="node9" class="node"><title>Node5</title>
<a xlink:href="classZendDbSchema__Db__Schema__AbstractSchema.html#a54d32c6f15463eaad2321a9f0e7225d7" target="_top" xlink:title="ZendDbSchema_Db_Schema_AbstractSchema\\__get">
<polygon fill="white" stroke="black" points="974.5,-0.5 974.5,-21.5 1225.5,-21.5 1225.5,-0.5 974.5,-0.5"/>
<text text-anchor="middle" x="1100" y="-8.5" font-family="Helvetica,sans-Serif" font-size="10.00">ZendDbSchema_Db_Schema_AbstractSchema\__get</text>
</a>
</g>
<!-- Node4&#45;&gt;Node5 -->
<g id="edge8" class="edge"><title>Node4&#45;&gt;Node5</title>
<path fill="none" stroke="midnightblue" d="M937.711,-11C946.411,-11 955.176,-11 963.887,-11"/>
<polygon fill="midnightblue" stroke="midnightblue" points="964.08,-14.5001 974.08,-11 964.08,-7.5001 964.08,-14.5001"/>
</g>
<!-- Node6 -->
<g id="node11" class="node"><title>Node6</title>
<a xlink:href="classZendDbSchema__Db__Schema__AbstractSchema.html#ac4e121ba7932163eb1950fabe06fb9db" target="_top" xlink:title="ZendDbSchema_Db_Schema_AbstractSchema\\__isset">
<polygon fill="white" stroke="black" points="1262.5,-0.5 1262.5,-21.5 1521.5,-21.5 1521.5,-0.5 1262.5,-0.5"/>
<text text-anchor="middle" x="1392" y="-8.5" font-family="Helvetica,sans-Serif" font-size="10.00">ZendDbSchema_Db_Schema_AbstractSchema\__isset</text>
</a>
</g>
<!-- Node5&#45;&gt;Node6 -->
<g id="edge10" class="edge"><title>Node5&#45;&gt;Node6</title>
<path fill="none" stroke="midnightblue" d="M1225.53,-11C1234.4,-11 1243.38,-11 1252.32,-11"/>
<polygon fill="midnightblue" stroke="midnightblue" points="1252.4,-14.5001 1262.4,-11 1252.4,-7.5001 1252.4,-14.5001"/>
</g>
</g>
</svg>
