<?xml version="1.0" encoding="UTF-8" standalone="no"?>
<!DOCTYPE svg PUBLIC "-//W3C//DTD SVG 1.1//EN"
 "http://www.w3.org/Graphics/SVG/1.1/DTD/svg11.dtd">
<!-- Generated by graphviz version 2.26.3 (20100126.1600)
 -->
<!-- Title: G Pages: 1 -->
<svg width="804pt" height="188pt"
 viewBox="0.00 0.00 804.00 188.00" xmlns="http://www.w3.org/2000/svg" xmlns:xlink="http://www.w3.org/1999/xlink">
<g id="graph1" class="graph" transform="scale(1 1) rotate(0) translate(4 184)">
<title>G</title>
<polygon fill="white" stroke="white" points="-4,5 -4,-184 801,-184 801,5 -4,5"/>
<!-- Node1 -->
<g id="node1" class="node"><title>Node1</title>
<polygon fill="#bfbfbf" stroke="black" points="0,-78.5 0,-99.5 242,-99.5 242,-78.5 0,-78.5"/>
<text text-anchor="middle" x="121" y="-86.5" font-family="Helvetica,sans-Serif" font-size="10.00">ZendDbSchema_Db_Migration_Manager\getCurrent</text>
</g>
<!-- Node2 -->
<g id="node3" class="node"><title>Node2</title>
<a xlink:href="classZendDbSchema__Db__Migration__Manager.html#af33cb75756ed27dd86665110800003a4" target="_top" xlink:title="ZendDbSchema_Db_Migration_Manager\\__construct">
<polygon fill="white" stroke="black" points="279.5,-158.5 279.5,-179.5 526.5,-179.5 526.5,-158.5 279.5,-158.5"/>
<text text-anchor="middle" x="403" y="-166.5" font-family="Helvetica,sans-Serif" font-size="10.00">ZendDbSchema_Db_Migration_Manager\__construct</text>
</a>
</g>
<!-- Node1&#45;&gt;Node2 -->
<g id="edge2" class="edge"><title>Node1&#45;&gt;Node2</title>
<path fill="none" stroke="midnightblue" d="M153.691,-103.774C185.002,-117.373 233.875,-137.174 278,-149 291.905,-152.726 306.877,-155.855 321.46,-158.448"/>
<polygon fill="midnightblue" stroke="midnightblue" points="154.734,-100.409 144.171,-99.5945 151.92,-106.819 154.734,-100.409"/>
</g>
<!-- Node3 -->
<g id="node5" class="node"><title>Node3</title>
<a xlink:href="classZendDbSchema__Db__Migration__Manager.html#a36ca7d64e6a7518a55cdd9db37e90195" target="_top" xlink:title="ZendDbSchema_Db_Migration_Manager\\getMigration">
<polygon fill="white" stroke="black" points="278.5,-78.5 278.5,-99.5 527.5,-99.5 527.5,-78.5 278.5,-78.5"/>
<text text-anchor="middle" x="403" y="-86.5" font-family="Helvetica,sans-Serif" font-size="10.00">ZendDbSchema_Db_Migration_Manager\getMigration</text>
</a>
</g>
<!-- Node1&#45;&gt;Node3 -->
<g id="edge4" class="edge"><title>Node1&#45;&gt;Node3</title>
<path fill="none" stroke="midnightblue" d="M252.344,-89C260.986,-89 269.676,-89 278.285,-89"/>
<polygon fill="midnightblue" stroke="midnightblue" points="252.23,-85.5001 242.23,-89 252.23,-92.5001 252.23,-85.5001"/>
</g>
<!-- Node5 -->
<g id="node9" class="node"><title>Node5</title>
<a xlink:href="classZendDbSchema__Db__Migration__Manager.html#a3acd09811b23c39aa97fed97b4012ac9" target="_top" xlink:title="ZendDbSchema_Db_Migration_Manager\\rolldown">
<polygon fill="white" stroke="black" points="564,-38.5 564,-59.5 796,-59.5 796,-38.5 564,-38.5"/>
<text text-anchor="middle" x="680" y="-46.5" font-family="Helvetica,sans-Serif" font-size="10.00">ZendDbSchema_Db_Migration_Manager\rolldown</text>
</a>
</g>
<!-- Node1&#45;&gt;Node5 -->
<g id="edge20" class="edge"><title>Node1&#45;&gt;Node5</title>
<path fill="none" stroke="midnightblue" d="M204.387,-77.165C228.132,-74.1247 254.051,-71.118 278,-69 374.057,-60.505 483.369,-55.3569 563.732,-52.4159"/>
<polygon fill="midnightblue" stroke="midnightblue" points="203.822,-73.7089 194.356,-78.4676 204.723,-80.6507 203.822,-73.7089"/>
</g>
<!-- Node7 -->
<g id="node13" class="node"><title>Node7</title>
<a xlink:href="classZendDbSchema__Db__Migration__Manager.html#a44b43dda1fc2c04b444663de58e26e86" target="_top" xlink:title="ZendDbSchema_Db_Migration_Manager\\getNext">
<polygon fill="white" stroke="black" points="288,-118.5 288,-139.5 518,-139.5 518,-118.5 288,-118.5"/>
<text text-anchor="middle" x="403" y="-126.5" font-family="Helvetica,sans-Serif" font-size="10.00">ZendDbSchema_Db_Migration_Manager\getNext</text>
</a>
</g>
<!-- Node1&#45;&gt;Node7 -->
<g id="edge12" class="edge"><title>Node1&#45;&gt;Node7</title>
<path fill="none" stroke="midnightblue" d="M205.192,-100.942C244.523,-106.521 290.934,-113.104 328.914,-118.491"/>
<polygon fill="midnightblue" stroke="midnightblue" points="205.485,-97.4487 195.092,-99.5095 204.502,-104.379 205.485,-97.4487"/>
</g>
<!-- Node8 -->
<g id="node16" class="node"><title>Node8</title>
<a xlink:href="classZendDbSchema__Db__Migration__Manager.html#a05f0581b2a3a234ab0fbe4092f25e0d1" target="_top" xlink:title="ZendDbSchema_Db_Migration_Manager\\getPrevious">
<polygon fill="white" stroke="black" points="279,-0.5 279,-21.5 527,-21.5 527,-0.5 279,-0.5"/>
<text text-anchor="middle" x="403" y="-8.5" font-family="Helvetica,sans-Serif" font-size="10.00">ZendDbSchema_Db_Migration_Manager\getPrevious</text>
</a>
</g>
<!-- Node1&#45;&gt;Node8 -->
<g id="edge16" class="edge"><title>Node1&#45;&gt;Node8</title>
<path fill="none" stroke="midnightblue" d="M158.439,-74.849C189.99,-63.2905 236.499,-47.1061 278,-36 298.738,-30.4505 321.706,-25.5172 342.238,-21.5299"/>
<polygon fill="midnightblue" stroke="midnightblue" points="156.916,-71.6805 148.746,-78.4269 159.34,-78.2474 156.916,-71.6805"/>
</g>
<!-- Node4 -->
<g id="node7" class="node"><title>Node4</title>
<a xlink:href="classZendDbSchema__Db__Migration__Manager.html#afbaee9196407b68350626e8601a44a9a" target="_top" xlink:title="ZendDbSchema_Db_Migration_Manager\\rollup">
<polygon fill="white" stroke="black" points="570.5,-118.5 570.5,-139.5 789.5,-139.5 789.5,-118.5 570.5,-118.5"/>
<text text-anchor="middle" x="680" y="-126.5" font-family="Helvetica,sans-Serif" font-size="10.00">ZendDbSchema_Db_Migration_Manager\rollup</text>
</a>
</g>
<!-- Node3&#45;&gt;Node4 -->
<g id="edge6" class="edge"><title>Node3&#45;&gt;Node4</title>
<path fill="none" stroke="midnightblue" d="M485.945,-100.978C524.526,-106.549 570,-113.116 607.227,-118.491"/>
<polygon fill="midnightblue" stroke="midnightblue" points="486.176,-97.4748 475.778,-99.5095 485.176,-104.403 486.176,-97.4748"/>
</g>
<!-- Node3&#45;&gt;Node5 -->
<g id="edge8" class="edge"><title>Node3&#45;&gt;Node5</title>
<path fill="none" stroke="midnightblue" d="M485.945,-77.0223C524.526,-71.4511 570,-64.8844 607.227,-59.5087"/>
<polygon fill="midnightblue" stroke="midnightblue" points="485.176,-73.5971 475.778,-78.4905 486.176,-80.5252 485.176,-73.5971"/>
</g>
<!-- Node6 -->
<g id="node11" class="node"><title>Node6</title>
<a xlink:href="classZendDbSchema__Db__Migration__Manager.html#a87a8f6699a75e4b89a0657ae0999203b" target="_top" xlink:title="ZendDbSchema_Db_Migration_Manager\\isDirty">
<polygon fill="white" stroke="black" points="568,-78.5 568,-99.5 792,-99.5 792,-78.5 568,-78.5"/>
<text text-anchor="middle" x="680" y="-86.5" font-family="Helvetica,sans-Serif" font-size="10.00">ZendDbSchema_Db_Migration_Manager\isDirty</text>
</a>
</g>
<!-- Node3&#45;&gt;Node6 -->
<g id="edge10" class="edge"><title>Node3&#45;&gt;Node6</title>
<path fill="none" stroke="midnightblue" d="M537.765,-89C547.822,-89 557.906,-89 567.803,-89"/>
<polygon fill="midnightblue" stroke="midnightblue" points="537.724,-85.5001 527.724,-89 537.724,-92.5001 537.724,-85.5001"/>
</g>
<!-- Node7&#45;&gt;Node4 -->
<g id="edge14" class="edge"><title>Node7&#45;&gt;Node4</title>
<path fill="none" stroke="midnightblue" d="M528.218,-129C542.216,-129 556.396,-129 570.18,-129"/>
<polygon fill="midnightblue" stroke="midnightblue" points="528.067,-125.5 518.066,-129 528.066,-132.5 528.067,-125.5"/>
</g>
<!-- Node8&#45;&gt;Node5 -->
<g id="edge18" class="edge"><title>Node8&#45;&gt;Node5</title>
<path fill="none" stroke="midnightblue" d="M489.865,-22.9165C526.134,-27.892 567.915,-33.6238 603.059,-38.4449"/>
<polygon fill="midnightblue" stroke="midnightblue" points="490.175,-19.4263 479.792,-21.5347 489.224,-26.3614 490.175,-19.4263"/>
</g>
</g>
</svg>
