<?xml version="1.0" encoding="UTF-8" standalone="no"?>
<!DOCTYPE svg PUBLIC "-//W3C//DTD SVG 1.1//EN"
 "http://www.w3.org/Graphics/SVG/1.1/DTD/svg11.dtd">
<!-- Generated by graphviz version 2.26.3 (20100126.1600)
 -->
<!-- Title: G Pages: 1 -->
<svg width="2138pt" height="110pt"
 viewBox="0.00 0.00 2138.00 110.00" xmlns="http://www.w3.org/2000/svg" xmlns:xlink="http://www.w3.org/1999/xlink">
<g id="graph1" class="graph" transform="scale(1 1) rotate(0) translate(4 106)">
<title>G</title>
<polygon fill="white" stroke="white" points="-4,5 -4,-106 2135,-106 2135,5 -4,5"/>
<!-- Node1 -->
<g id="node1" class="node"><title>Node1</title>
<polygon fill="#bfbfbf" stroke="black" points="0.5,-40.5 0.5,-61.5 257.5,-61.5 257.5,-40.5 0.5,-40.5"/>
<text text-anchor="middle" x="129" y="-48.5" font-family="Helvetica,sans-Serif" font-size="10.00">ZendDbSchema_Db_Schema_AbstractSchema\refresh</text>
</g>
<!-- Node2 -->
<g id="node3" class="node"><title>Node2</title>
<a xlink:href="classZendDbSchema__Db__Schema__AbstractSchema.html#aee45a03410bd09c83bdc0b72dde75add" target="_top" xlink:title="ZendDbSchema_Db_Schema_AbstractSchema\\reload">
<polygon fill="white" stroke="black" points="311,-80.5 311,-101.5 565,-101.5 565,-80.5 311,-80.5"/>
<text text-anchor="middle" x="438" y="-88.5" font-family="Helvetica,sans-Serif" font-size="10.00">ZendDbSchema_Db_Schema_AbstractSchema\reload</text>
</a>
</g>
<!-- Node1&#45;&gt;Node2 -->
<g id="edge2" class="edge"><title>Node1&#45;&gt;Node2</title>
<path fill="none" stroke="midnightblue" d="M210.186,-61.5095C252.156,-66.9425 303.523,-73.5919 346.85,-79.2006"/>
<polygon fill="midnightblue" stroke="midnightblue" points="346.454,-82.6785 356.82,-80.4913 347.352,-75.7364 346.454,-82.6785"/>
</g>
<!-- Node3 -->
<g id="node5" class="node"><title>Node3</title>
<a xlink:href="classZendDbSchema__Db__Schema__AbstractSchema.html#acd81590f02c831ff4c4a442c5cf47074" target="_top" xlink:title="ZendDbSchema_Db_Schema_AbstractSchema\\setFromArray">
<polygon fill="white" stroke="black" points="294.5,-40.5 294.5,-61.5 581.5,-61.5 581.5,-40.5 294.5,-40.5"/>
<text text-anchor="middle" x="438" y="-48.5" font-family="Helvetica,sans-Serif" font-size="10.00">ZendDbSchema_Db_Schema_AbstractSchema\setFromArray</text>
</a>
</g>
<!-- Node1&#45;&gt;Node3 -->
<g id="edge4" class="edge"><title>Node1&#45;&gt;Node3</title>
<path fill="none" stroke="midnightblue" d="M257.806,-51C266.589,-51 275.487,-51 284.38,-51"/>
<polygon fill="midnightblue" stroke="midnightblue" points="284.413,-54.5001 294.413,-51 284.413,-47.5001 284.413,-54.5001"/>
</g>
<!-- Node11 -->
<g id="node21" class="node"><title>Node11</title>
<a xlink:href="classZendDbSchema__Db__Schema__AbstractSchema.html#a219012c80be57ace4b1db43a9c48eb3d" target="_top" xlink:title="ZendDbSchema_Db_Schema_AbstractSchema\\getSchema">
<polygon fill="white" stroke="black" points="299.5,-0.5 299.5,-21.5 576.5,-21.5 576.5,-0.5 299.5,-0.5"/>
<text text-anchor="middle" x="438" y="-8.5" font-family="Helvetica,sans-Serif" font-size="10.00">ZendDbSchema_Db_Schema_AbstractSchema\getSchema</text>
</a>
</g>
<!-- Node1&#45;&gt;Node11 -->
<g id="edge20" class="edge"><title>Node1&#45;&gt;Node11</title>
<path fill="none" stroke="midnightblue" d="M210.186,-40.4905C252.156,-35.0575 303.523,-28.4081 346.85,-22.7994"/>
<polygon fill="midnightblue" stroke="midnightblue" points="347.352,-26.2636 356.82,-21.5087 346.454,-19.3215 347.352,-26.2636"/>
</g>
<!-- Node4 -->
<g id="node7" class="node"><title>Node4</title>
<a xlink:href="classZendDbSchema__Db__Schema__AbstractSchema.html#ab4282a1fd6f4d9f23d01de8328072c71" target="_top" xlink:title="ZendDbSchema_Db_Schema_AbstractSchema\\__set">
<polygon fill="white" stroke="black" points="618.5,-40.5 618.5,-61.5 869.5,-61.5 869.5,-40.5 618.5,-40.5"/>
<text text-anchor="middle" x="744" y="-48.5" font-family="Helvetica,sans-Serif" font-size="10.00">ZendDbSchema_Db_Schema_AbstractSchema\__set</text>
</a>
</g>
<!-- Node3&#45;&gt;Node4 -->
<g id="edge6" class="edge"><title>Node3&#45;&gt;Node4</title>
<path fill="none" stroke="midnightblue" d="M581.592,-51C590.409,-51 599.268,-51 608.051,-51"/>
<polygon fill="midnightblue" stroke="midnightblue" points="608.32,-54.5001 618.32,-51 608.32,-47.5001 608.32,-54.5001"/>
</g>
<!-- Node5 -->
<g id="node9" class="node"><title>Node5</title>
<a xlink:href="classZendDbSchema__Db__Schema__AbstractSchema.html#afda46eab0c365f4c9a743b7185c51d6c" target="_top" xlink:title="ZendDbSchema_Db_Schema_AbstractSchema\\getValidator">
<polygon fill="white" stroke="black" points="906.5,-40.5 906.5,-61.5 1185.5,-61.5 1185.5,-40.5 906.5,-40.5"/>
<text text-anchor="middle" x="1046" y="-48.5" font-family="Helvetica,sans-Serif" font-size="10.00">ZendDbSchema_Db_Schema_AbstractSchema\getValidator</text>
</a>
</g>
<!-- Node4&#45;&gt;Node5 -->
<g id="edge8" class="edge"><title>Node4&#45;&gt;Node5</title>
<path fill="none" stroke="midnightblue" d="M869.888,-51C878.497,-51 887.217,-51 895.933,-51"/>
<polygon fill="midnightblue" stroke="midnightblue" points="896.156,-54.5001 906.156,-51 896.156,-47.5001 896.156,-54.5001"/>
</g>
<!-- Node6 -->
<g id="node11" class="node"><title>Node6</title>
<a xlink:href="classZendDbSchema__Db__Schema__AbstractSchema.html#a47d95912f6bf6d26d023597887dafacb" target="_top" xlink:title="ZendDbSchema_Db_Schema_AbstractSchema\\getAdapter">
<polygon fill="white" stroke="black" points="1222.5,-40.5 1222.5,-61.5 1497.5,-61.5 1497.5,-40.5 1222.5,-40.5"/>
<text text-anchor="middle" x="1360" y="-48.5" font-family="Helvetica,sans-Serif" font-size="10.00">ZendDbSchema_Db_Schema_AbstractSchema\getAdapter</text>
</a>
</g>
<!-- Node5&#45;&gt;Node6 -->
<g id="edge10" class="edge"><title>Node5&#45;&gt;Node6</title>
<path fill="none" stroke="midnightblue" d="M1185.55,-51C1194.27,-51 1203.05,-51 1211.8,-51"/>
<polygon fill="midnightblue" stroke="midnightblue" points="1212.04,-54.5001 1222.04,-51 1212.04,-47.5001 1212.04,-54.5001"/>
</g>
<!-- Node7 -->
<g id="node13" class="node"><title>Node7</title>
<a xlink:href="classZendDbSchema__Db__Schema__AbstractSchema.html#a6349649e5e09d67a5b5e0abe96298db8" target="_top" xlink:title="ZendDbSchema_Db_Schema_AbstractSchema\\setAdapter">
<polygon fill="white" stroke="black" points="1534.5,-40.5 1534.5,-61.5 1809.5,-61.5 1809.5,-40.5 1534.5,-40.5"/>
<text text-anchor="middle" x="1672" y="-48.5" font-family="Helvetica,sans-Serif" font-size="10.00">ZendDbSchema_Db_Schema_AbstractSchema\setAdapter</text>
</a>
</g>
<!-- Node6&#45;&gt;Node7 -->
<g id="edge12" class="edge"><title>Node6&#45;&gt;Node7</title>
<path fill="none" stroke="midnightblue" d="M1497.76,-51C1506.44,-51 1515.2,-51 1523.92,-51"/>
<polygon fill="midnightblue" stroke="midnightblue" points="1524.14,-54.5001 1534.14,-51 1524.14,-47.5001 1524.14,-54.5001"/>
</g>
<!-- Node8 -->
<g id="node15" class="node"><title>Node8</title>
<a xlink:href="classZendDbSchema__Db__Schema__AbstractSchema.html#a53a1974dbc8822792a8d7b9c618d3a02" target="_top" xlink:title="ZendDbSchema_Db_Schema_AbstractSchema\\setGenerator">
<polygon fill="white" stroke="black" points="1846,-80.5 1846,-101.5 2130,-101.5 2130,-80.5 1846,-80.5"/>
<text text-anchor="middle" x="1988" y="-88.5" font-family="Helvetica,sans-Serif" font-size="10.00">ZendDbSchema_Db_Schema_AbstractSchema\setGenerator</text>
</a>
</g>
<!-- Node7&#45;&gt;Node8 -->
<g id="edge14" class="edge"><title>Node7&#45;&gt;Node8</title>
<path fill="none" stroke="midnightblue" d="M1755.03,-61.5095C1797.95,-66.9425 1850.48,-73.5919 1894.78,-79.2006"/>
<polygon fill="midnightblue" stroke="midnightblue" points="1894.62,-82.7077 1904.98,-80.4913 1895.5,-75.7631 1894.62,-82.7077"/>
</g>
<!-- Node9 -->
<g id="node17" class="node"><title>Node9</title>
<a xlink:href="classZendDbSchema__Db__Schema__AbstractSchema.html#aa0e6c9f8d58702dc41d988f064f62698" target="_top" xlink:title="ZendDbSchema_Db_Schema_AbstractSchema\\setParser">
<polygon fill="white" stroke="black" points="1853.5,-40.5 1853.5,-61.5 2122.5,-61.5 2122.5,-40.5 1853.5,-40.5"/>
<text text-anchor="middle" x="1988" y="-48.5" font-family="Helvetica,sans-Serif" font-size="10.00">ZendDbSchema_Db_Schema_AbstractSchema\setParser</text>
</a>
</g>
<!-- Node7&#45;&gt;Node9 -->
<g id="edge16" class="edge"><title>Node7&#45;&gt;Node9</title>
<path fill="none" stroke="midnightblue" d="M1809.68,-51C1820.76,-51 1831.98,-51 1843.1,-51"/>
<polygon fill="midnightblue" stroke="midnightblue" points="1843.29,-54.5001 1853.29,-51 1843.29,-47.5001 1843.29,-54.5001"/>
</g>
<!-- Node10 -->
<g id="node19" class="node"><title>Node10</title>
<a xlink:href="classZendDbSchema__Db__Schema__AbstractSchema.html#ac0161e2c24dafba8433fb86205a147fe" target="_top" xlink:title="ZendDbSchema_Db_Schema_AbstractSchema\\setValidator">
<polygon fill="white" stroke="black" points="1848.5,-0.5 1848.5,-21.5 2127.5,-21.5 2127.5,-0.5 1848.5,-0.5"/>
<text text-anchor="middle" x="1988" y="-8.5" font-family="Helvetica,sans-Serif" font-size="10.00">ZendDbSchema_Db_Schema_AbstractSchema\setValidator</text>
</a>
</g>
<!-- Node7&#45;&gt;Node10 -->
<g id="edge18" class="edge"><title>Node7&#45;&gt;Node10</title>
<path fill="none" stroke="midnightblue" d="M1755.03,-40.4905C1797.95,-35.0575 1850.48,-28.4081 1894.78,-22.7994"/>
<polygon fill="midnightblue" stroke="midnightblue" points="1895.5,-26.2369 1904.98,-21.5087 1894.62,-19.2923 1895.5,-26.2369"/>
</g>
</g>
</svg>
