<?xml version="1.0" encoding="UTF-8" standalone="no"?>
<!DOCTYPE svg PUBLIC "-//W3C//DTD SVG 1.1//EN"
 "http://www.w3.org/Graphics/SVG/1.1/DTD/svg11.dtd">
<!-- Generated by graphviz version 2.26.3 (20100126.1600)
 -->
<!-- Title: G Pages: 1 -->
<svg width="994pt" height="70pt"
 viewBox="0.00 0.00 994.00 70.00" xmlns="http://www.w3.org/2000/svg" xmlns:xlink="http://www.w3.org/1999/xlink">
<g id="graph1" class="graph" transform="scale(1 1) rotate(0) translate(4 66)">
<title>G</title>
<polygon fill="white" stroke="white" points="-4,5 -4,-66 991,-66 991,5 -4,5"/>
<!-- Node1 -->
<g id="node1" class="node"><title>Node1</title>
<polygon fill="#bfbfbf" stroke="black" points="0.5,-20.5 0.5,-41.5 263.5,-41.5 263.5,-20.5 0.5,-20.5"/>
<text text-anchor="middle" x="132" y="-28.5" font-family="Helvetica,sans-Serif" font-size="10.00">ZendDbSchema_Db_Schema_Table_Column\getDefault</text>
</g>
<!-- Node2 -->
<g id="node3" class="node"><title>Node2</title>
<a xlink:href="classZendDbSchema__Db__Schema__Generator__Mysql.html#a821999152ed945432417614dffc3a3e2" target="_top" xlink:title="ZendDbSchema_Db_Schema_Generator_Mysql\\_generateColumnSql">
<polygon fill="white" stroke="black" points="300,-20.5 300,-41.5 620,-41.5 620,-20.5 300,-20.5"/>
<text text-anchor="middle" x="460" y="-28.5" font-family="Helvetica,sans-Serif" font-size="10.00">ZendDbSchema_Db_Schema_Generator_Mysql\_generateColumnSql</text>
</a>
</g>
<!-- Node1&#45;&gt;Node2 -->
<g id="edge2" class="edge"><title>Node1&#45;&gt;Node2</title>
<path fill="none" stroke="midnightblue" d="M273.646,-31C282.311,-31 291.06,-31 299.795,-31"/>
<polygon fill="midnightblue" stroke="midnightblue" points="273.52,-27.5001 263.52,-31 273.52,-34.5001 273.52,-27.5001"/>
</g>
<!-- Node3 -->
<g id="node5" class="node"><title>Node3</title>
<a xlink:href="classZendDbSchema__Db__Schema__Generator__Mysql.html#a2d40826abb29af27b4f398fa9270979f" target="_top" xlink:title="ZendDbSchema_Db_Schema_Generator_Mysql\\generateColumnAlter">
<polygon fill="white" stroke="black" points="661,-40.5 661,-61.5 981,-61.5 981,-40.5 661,-40.5"/>
<text text-anchor="middle" x="821" y="-48.5" font-family="Helvetica,sans-Serif" font-size="10.00">ZendDbSchema_Db_Schema_Generator_Mysql\generateColumnAlter</text>
</a>
</g>
<!-- Node2&#45;&gt;Node3 -->
<g id="edge4" class="edge"><title>Node2&#45;&gt;Node3</title>
<path fill="none" stroke="midnightblue" d="M630.309,-40.4354C640.458,-40.9977 650.65,-41.5623 660.756,-42.1222"/>
<polygon fill="midnightblue" stroke="midnightblue" points="630.358,-36.9328 620.179,-39.8742 629.97,-43.9221 630.358,-36.9328"/>
</g>
<!-- Node4 -->
<g id="node7" class="node"><title>Node4</title>
<a xlink:href="classZendDbSchema__Db__Schema__Generator__Mysql.html#a419c7276fb546c08e9d25b390ba87bac" target="_top" xlink:title="ZendDbSchema_Db_Schema_Generator_Mysql\\generateColumnCreate">
<polygon fill="white" stroke="black" points="656.5,-0.5 656.5,-21.5 985.5,-21.5 985.5,-0.5 656.5,-0.5"/>
<text text-anchor="middle" x="821" y="-8.5" font-family="Helvetica,sans-Serif" font-size="10.00">ZendDbSchema_Db_Schema_Generator_Mysql\generateColumnCreate</text>
</a>
</g>
<!-- Node2&#45;&gt;Node4 -->
<g id="edge6" class="edge"><title>Node2&#45;&gt;Node4</title>
<path fill="none" stroke="midnightblue" d="M630.3,-21.5651C638.938,-21.0866 647.607,-20.6063 656.227,-20.1287"/>
<polygon fill="midnightblue" stroke="midnightblue" points="629.97,-18.0779 620.179,-22.1258 630.358,-25.0672 629.97,-18.0779"/>
</g>
</g>
</svg>
