<?xml version="1.0" encoding="UTF-8" standalone="no"?>
<!DOCTYPE svg PUBLIC "-//W3C//DTD SVG 1.1//EN"
 "http://www.w3.org/Graphics/SVG/1.1/DTD/svg11.dtd">
<!-- Generated by graphviz version 2.26.3 (20100126.1600)
 -->
<!-- Title: G Pages: 1 -->
<svg width="1240pt" height="70pt"
 viewBox="0.00 0.00 1240.00 70.00" xmlns="http://www.w3.org/2000/svg" xmlns:xlink="http://www.w3.org/1999/xlink">
<g id="graph1" class="graph" transform="scale(1 1) rotate(0) translate(4 66)">
<title>G</title>
<polygon fill="white" stroke="white" points="-4,5 -4,-66 1237,-66 1237,5 -4,5"/>
<!-- Node1 -->
<g id="node1" class="node"><title>Node1</title>
<polygon fill="#bfbfbf" stroke="black" points="0.5,-20.5 0.5,-41.5 311.5,-41.5 311.5,-20.5 0.5,-20.5"/>
<text text-anchor="middle" x="156" y="-28.5" font-family="Helvetica,sans-Serif" font-size="10.00">ZendDbSchema_Db_Schema_Generator_Mysql\generateIndexDrop</text>
</g>
<!-- Node2 -->
<g id="node3" class="node"><title>Node2</title>
<a xlink:href="classZendDbSchema__Db__Schema__AbstractSchema.html#a55787c21deddba427842809d589c2df6" target="_top" xlink:title="ZendDbSchema_Db_Schema_AbstractSchema\\getName">
<polygon fill="white" stroke="black" points="364.5,-40.5 364.5,-61.5 631.5,-61.5 631.5,-40.5 364.5,-40.5"/>
<text text-anchor="middle" x="498" y="-48.5" font-family="Helvetica,sans-Serif" font-size="10.00">ZendDbSchema_Db_Schema_AbstractSchema\getName</text>
</a>
</g>
<!-- Node1&#45;&gt;Node2 -->
<g id="edge2" class="edge"><title>Node1&#45;&gt;Node2</title>
<path fill="none" stroke="midnightblue" d="M311.988,-40.1221C326.093,-40.947 340.336,-41.7799 354.328,-42.5981"/>
<polygon fill="midnightblue" stroke="midnightblue" points="354.279,-46.1012 364.466,-43.191 354.688,-39.1131 354.279,-46.1012"/>
</g>
<!-- Node5 -->
<g id="node9" class="node"><title>Node5</title>
<a xlink:href="classZendDbSchema__Db__Schema__Table__AbstractDefinition.html#a224b6a0c1df1d6ed40e03657782ef6fc" target="_top" xlink:title="ZendDbSchema_Db_Schema_Table_AbstractDefinition\\getTable">
<polygon fill="white" stroke="black" points="348.5,-0.5 348.5,-21.5 647.5,-21.5 647.5,-0.5 348.5,-0.5"/>
<text text-anchor="middle" x="498" y="-8.5" font-family="Helvetica,sans-Serif" font-size="10.00">ZendDbSchema_Db_Schema_Table_AbstractDefinition\getTable</text>
</a>
</g>
<!-- Node1&#45;&gt;Node5 -->
<g id="edge8" class="edge"><title>Node1&#45;&gt;Node5</title>
<path fill="none" stroke="midnightblue" d="M311.988,-21.8779C320.662,-21.3707 329.387,-20.8604 338.074,-20.3524"/>
<polygon fill="midnightblue" stroke="midnightblue" points="338.471,-23.8353 348.249,-19.7573 338.062,-16.8472 338.471,-23.8353"/>
</g>
<!-- Node3 -->
<g id="node5" class="node"><title>Node3</title>
<a xlink:href="classZendDbSchema__Db__Schema__AbstractSchema.html#a54d32c6f15463eaad2321a9f0e7225d7" target="_top" xlink:title="ZendDbSchema_Db_Schema_AbstractSchema\\__get">
<polygon fill="white" stroke="black" points="684.5,-40.5 684.5,-61.5 935.5,-61.5 935.5,-40.5 684.5,-40.5"/>
<text text-anchor="middle" x="810" y="-48.5" font-family="Helvetica,sans-Serif" font-size="10.00">ZendDbSchema_Db_Schema_AbstractSchema\__get</text>
</a>
</g>
<!-- Node2&#45;&gt;Node3 -->
<g id="edge4" class="edge"><title>Node2&#45;&gt;Node3</title>
<path fill="none" stroke="midnightblue" d="M631.674,-51C645.648,-51 659.867,-51 673.869,-51"/>
<polygon fill="midnightblue" stroke="midnightblue" points="674.019,-54.5001 684.019,-51 674.019,-47.5001 674.019,-54.5001"/>
</g>
<!-- Node4 -->
<g id="node7" class="node"><title>Node4</title>
<a xlink:href="classZendDbSchema__Db__Schema__AbstractSchema.html#ac4e121ba7932163eb1950fabe06fb9db" target="_top" xlink:title="ZendDbSchema_Db_Schema_AbstractSchema\\__isset">
<polygon fill="white" stroke="black" points="972.5,-40.5 972.5,-61.5 1231.5,-61.5 1231.5,-40.5 972.5,-40.5"/>
<text text-anchor="middle" x="1102" y="-48.5" font-family="Helvetica,sans-Serif" font-size="10.00">ZendDbSchema_Db_Schema_AbstractSchema\__isset</text>
</a>
</g>
<!-- Node3&#45;&gt;Node4 -->
<g id="edge6" class="edge"><title>Node3&#45;&gt;Node4</title>
<path fill="none" stroke="midnightblue" d="M935.529,-51C944.401,-51 953.376,-51 962.32,-51"/>
<polygon fill="midnightblue" stroke="midnightblue" points="962.397,-54.5001 972.397,-51 962.397,-47.5001 962.397,-54.5001"/>
</g>
</g>
</svg>
