<?xml version="1.0" encoding="UTF-8" standalone="no"?>
<!DOCTYPE svg PUBLIC "-//W3C//DTD SVG 1.1//EN"
 "http://www.w3.org/Graphics/SVG/1.1/DTD/svg11.dtd">
<!-- Generated by graphviz version 2.26.3 (20100126.1600)
 -->
<!-- Title: G Pages: 1 -->
<svg width="1024pt" height="30pt"
 viewBox="0.00 0.00 1024.00 30.00" xmlns="http://www.w3.org/2000/svg" xmlns:xlink="http://www.w3.org/1999/xlink">
<g id="graph1" class="graph" transform="scale(1 1) rotate(0) translate(4 26)">
<title>G</title>
<polygon fill="white" stroke="white" points="-4,5 -4,-26 1021,-26 1021,5 -4,5"/>
<!-- Node1 -->
<g id="node1" class="node"><title>Node1</title>
<polygon fill="#bfbfbf" stroke="black" points="0.5,-0.5 0.5,-21.5 311.5,-21.5 311.5,-0.5 0.5,-0.5"/>
<text text-anchor="middle" x="156" y="-8.5" font-family="Helvetica,sans-Serif" font-size="10.00">ZendDbSchema_Db_Schema_Generator_Mysql\generateIndexDrop</text>
</g>
<!-- Node2 -->
<g id="node3" class="node"><title>Node2</title>
<a xlink:href="classZendDbSchema__Db__Schema__Generator__Mysql.html#aa07a714e7f2d8de324512a5b5d67d200" target="_top" xlink:title="ZendDbSchema_Db_Schema_Generator_Mysql\\generateIndexCreate">
<polygon fill="white" stroke="black" points="348,-0.5 348,-21.5 668,-21.5 668,-0.5 348,-0.5"/>
<text text-anchor="middle" x="508" y="-8.5" font-family="Helvetica,sans-Serif" font-size="10.00">ZendDbSchema_Db_Schema_Generator_Mysql\generateIndexCreate</text>
</a>
</g>
<!-- Node1&#45;&gt;Node2 -->
<g id="edge2" class="edge"><title>Node1&#45;&gt;Node2</title>
<path fill="none" stroke="midnightblue" d="M321.869,-11C330.572,-11 339.308,-11 347.992,-11"/>
<polygon fill="midnightblue" stroke="midnightblue" points="321.673,-7.5001 311.673,-11 321.673,-14.5001 321.673,-7.5001"/>
</g>
<!-- Node3 -->
<g id="node5" class="node"><title>Node3</title>
<a xlink:href="classZendDbSchema__Db__Schema__Generator__Mysql.html#adb01a2e7be3ed89209a246cc747a26c1" target="_top" xlink:title="ZendDbSchema_Db_Schema_Generator_Mysql\\generateIndexAlter">
<polygon fill="white" stroke="black" points="704.5,-0.5 704.5,-21.5 1015.5,-21.5 1015.5,-0.5 704.5,-0.5"/>
<text text-anchor="middle" x="860" y="-8.5" font-family="Helvetica,sans-Serif" font-size="10.00">ZendDbSchema_Db_Schema_Generator_Mysql\generateIndexAlter</text>
</a>
</g>
<!-- Node2&#45;&gt;Node3 -->
<g id="edge4" class="edge"><title>Node2&#45;&gt;Node3</title>
<path fill="none" stroke="midnightblue" d="M678.244,-11C686.953,-11 695.68,-11 704.34,-11"/>
<polygon fill="midnightblue" stroke="midnightblue" points="678.035,-7.5001 668.035,-11 678.035,-14.5001 678.035,-7.5001"/>
</g>
</g>
</svg>
