<?xml version="1.0" encoding="UTF-8" standalone="no"?>
<!DOCTYPE svg PUBLIC "-//W3C//DTD SVG 1.1//EN"
 "http://www.w3.org/Graphics/SVG/1.1/DTD/svg11.dtd">
<!-- Generated by graphviz version 2.26.3 (20100126.1600)
 -->
<!-- Title: G Pages: 1 -->
<svg width="992pt" height="70pt"
 viewBox="0.00 0.00 992.00 70.00" xmlns="http://www.w3.org/2000/svg" xmlns:xlink="http://www.w3.org/1999/xlink">
<g id="graph1" class="graph" transform="scale(1 1) rotate(0) translate(4 66)">
<title>G</title>
<polygon fill="white" stroke="white" points="-4,5 -4,-66 989,-66 989,5 -4,5"/>
<!-- Node1 -->
<g id="node1" class="node"><title>Node1</title>
<polygon fill="#bfbfbf" stroke="black" points="0.5,-20.5 0.5,-41.5 291.5,-41.5 291.5,-20.5 0.5,-20.5"/>
<text text-anchor="middle" x="146" y="-28.5" font-family="Helvetica,sans-Serif" font-size="10.00">ZendDbSchema_Db_Schema_Table_ForeignKey\setOnUpdate</text>
</g>
<!-- Node2 -->
<g id="node3" class="node"><title>Node2</title>
<a xlink:href="classZendDbSchema__Db__Schema__Table__AbstractDefinition.html#a65498451683b2cf8fd1dc65f7f03581d" target="_top" xlink:title="ZendDbSchema_Db_Schema_Table_AbstractDefinition\\__set">
<polygon fill="white" stroke="black" points="328,-20.5 328,-41.5 614,-41.5 614,-20.5 328,-20.5"/>
<text text-anchor="middle" x="471" y="-28.5" font-family="Helvetica,sans-Serif" font-size="10.00">ZendDbSchema_Db_Schema_Table_AbstractDefinition\__set</text>
</a>
</g>
<!-- Node1&#45;&gt;Node2 -->
<g id="edge2" class="edge"><title>Node1&#45;&gt;Node2</title>
<path fill="none" stroke="midnightblue" d="M291.863,-31C300.475,-31 309.149,-31 317.788,-31"/>
<polygon fill="midnightblue" stroke="midnightblue" points="317.908,-34.5001 327.908,-31 317.908,-27.5001 317.908,-34.5001"/>
</g>
<!-- Node3 -->
<g id="node5" class="node"><title>Node3</title>
<a xlink:href="classZendDbSchema__Db__Schema__Table__AbstractDefinition.html#a224b6a0c1df1d6ed40e03657782ef6fc" target="_top" xlink:title="ZendDbSchema_Db_Schema_Table_AbstractDefinition\\getTable">
<polygon fill="white" stroke="black" points="667.5,-40.5 667.5,-61.5 966.5,-61.5 966.5,-40.5 667.5,-40.5"/>
<text text-anchor="middle" x="817" y="-48.5" font-family="Helvetica,sans-Serif" font-size="10.00">ZendDbSchema_Db_Schema_Table_AbstractDefinition\getTable</text>
</a>
</g>
<!-- Node2&#45;&gt;Node3 -->
<g id="edge4" class="edge"><title>Node2&#45;&gt;Node3</title>
<path fill="none" stroke="midnightblue" d="M614.229,-39.2791C628.366,-40.0963 642.777,-40.9293 657.068,-41.7554"/>
<polygon fill="midnightblue" stroke="midnightblue" points="657.262,-45.2724 667.448,-42.3554 657.666,-38.284 657.262,-45.2724"/>
</g>
<!-- Node4 -->
<g id="node7" class="node"><title>Node4</title>
<a xlink:href="classZendDbSchema__Db__Schema__Table__AbstractDefinition.html#a2fb894602c4b7fbba5dd1d180f93c181" target="_top" xlink:title="ZendDbSchema_Db_Schema_Table_AbstractDefinition\\_getSchemaKey">
<polygon fill="white" stroke="black" points="650,-0.5 650,-21.5 984,-21.5 984,-0.5 650,-0.5"/>
<text text-anchor="middle" x="817" y="-8.5" font-family="Helvetica,sans-Serif" font-size="10.00">ZendDbSchema_Db_Schema_Table_AbstractDefinition\_getSchemaKey</text>
</a>
</g>
<!-- Node2&#45;&gt;Node4 -->
<g id="edge6" class="edge"><title>Node2&#45;&gt;Node4</title>
<path fill="none" stroke="midnightblue" d="M614.229,-22.7209C622.714,-22.2304 631.298,-21.7342 639.895,-21.2373"/>
<polygon fill="midnightblue" stroke="midnightblue" points="640.207,-24.7252 649.988,-20.6538 639.803,-17.7368 640.207,-24.7252"/>
</g>
</g>
</svg>
