<?xml version="1.0" encoding="UTF-8" standalone="no"?>
<!DOCTYPE svg PUBLIC "-//W3C//DTD SVG 1.1//EN"
 "http://www.w3.org/Graphics/SVG/1.1/DTD/svg11.dtd">
<!-- Generated by graphviz version 2.26.3 (20100126.1600)
 -->
<!-- Title: G Pages: 1 -->
<svg width="520pt" height="110pt"
 viewBox="0.00 0.00 520.00 110.00" xmlns="http://www.w3.org/2000/svg" xmlns:xlink="http://www.w3.org/1999/xlink">
<g id="graph1" class="graph" transform="scale(1 1) rotate(0) translate(4 106)">
<title>G</title>
<polygon fill="white" stroke="white" points="-4,5 -4,-106 517,-106 517,5 -4,5"/>
<!-- Node1 -->
<g id="node1" class="node"><title>Node1</title>
<polygon fill="#bfbfbf" stroke="black" points="0,-40.5 0,-61.5 230,-61.5 230,-40.5 0,-40.5"/>
<text text-anchor="middle" x="115" y="-48.5" font-family="Helvetica,sans-Serif" font-size="10.00">ZendDbSchema_Db_Migration_Manager\getNext</text>
</g>
<!-- Node2 -->
<g id="node3" class="node"><title>Node2</title>
<a xlink:href="classZendDbSchema__Db__Migration__Manager.html#ab66af8a9dc5cdb099b8266b68166c4e0" target="_top" xlink:title="ZendDbSchema_Db_Migration_Manager\\getVersion">
<polygon fill="white" stroke="black" points="268,-80.5 268,-101.5 510,-101.5 510,-80.5 268,-80.5"/>
<text text-anchor="middle" x="389" y="-88.5" font-family="Helvetica,sans-Serif" font-size="10.00">ZendDbSchema_Db_Migration_Manager\getVersion</text>
</a>
</g>
<!-- Node1&#45;&gt;Node2 -->
<g id="edge2" class="edge"><title>Node1&#45;&gt;Node2</title>
<path fill="none" stroke="midnightblue" d="M186.99,-61.5095C223.815,-66.8854 268.797,-73.4521 306.959,-79.0232"/>
<polygon fill="midnightblue" stroke="midnightblue" points="306.615,-82.51 317.015,-80.4913 307.626,-75.5834 306.615,-82.51"/>
</g>
<!-- Node3 -->
<g id="node5" class="node"><title>Node3</title>
<a xlink:href="classZendDbSchema__Db__Migration__Manager.html#a9973d07f9ffe306e00ea2f9f4beb92e4" target="_top" xlink:title="ZendDbSchema_Db_Migration_Manager\\hasChange">
<polygon fill="white" stroke="black" points="266.5,-40.5 266.5,-61.5 511.5,-61.5 511.5,-40.5 266.5,-40.5"/>
<text text-anchor="middle" x="389" y="-48.5" font-family="Helvetica,sans-Serif" font-size="10.00">ZendDbSchema_Db_Migration_Manager\hasChange</text>
</a>
</g>
<!-- Node1&#45;&gt;Node3 -->
<g id="edge4" class="edge"><title>Node1&#45;&gt;Node3</title>
<path fill="none" stroke="midnightblue" d="M230.01,-51C238.641,-51 247.392,-51 256.121,-51"/>
<polygon fill="midnightblue" stroke="midnightblue" points="256.349,-54.5001 266.349,-51 256.349,-47.5001 256.349,-54.5001"/>
</g>
<!-- Node4 -->
<g id="node7" class="node"><title>Node4</title>
<a xlink:href="classZendDbSchema__Db__Migration__Manager.html#a09b440110f77079a37794ccdb0922d41" target="_top" xlink:title="ZendDbSchema_Db_Migration_Manager\\getIterator">
<polygon fill="white" stroke="black" points="269,-0.5 269,-21.5 509,-21.5 509,-0.5 269,-0.5"/>
<text text-anchor="middle" x="389" y="-8.5" font-family="Helvetica,sans-Serif" font-size="10.00">ZendDbSchema_Db_Migration_Manager\getIterator</text>
</a>
</g>
<!-- Node1&#45;&gt;Node4 -->
<g id="edge6" class="edge"><title>Node1&#45;&gt;Node4</title>
<path fill="none" stroke="midnightblue" d="M186.99,-40.4905C223.815,-35.1146 268.797,-28.5479 306.959,-22.9768"/>
<polygon fill="midnightblue" stroke="midnightblue" points="307.626,-26.4166 317.015,-21.5087 306.615,-19.49 307.626,-26.4166"/>
</g>
</g>
</svg>
