<?xml version="1.0" encoding="UTF-8" standalone="no"?>
<!DOCTYPE svg PUBLIC "-//W3C//DTD SVG 1.1//EN"
 "http://www.w3.org/Graphics/SVG/1.1/DTD/svg11.dtd">
<!-- Generated by graphviz version 2.26.3 (20100126.1600)
 -->
<!-- Title: G Pages: 1 -->
<svg width="1114pt" height="70pt"
 viewBox="0.00 0.00 1114.00 70.00" xmlns="http://www.w3.org/2000/svg" xmlns:xlink="http://www.w3.org/1999/xlink">
<g id="graph1" class="graph" transform="scale(1 1) rotate(0) translate(4 66)">
<title>G</title>
<polygon fill="white" stroke="white" points="-4,5 -4,-66 1111,-66 1111,5 -4,5"/>
<!-- Node1 -->
<g id="node1" class="node"><title>Node1</title>
<polygon fill="#bfbfbf" stroke="black" points="0,-20.5 0,-41.5 262,-41.5 262,-20.5 0,-20.5"/>
<text text-anchor="middle" x="131" y="-28.5" font-family="Helvetica,sans-Serif" font-size="10.00">ZendDbSchema_Db_Migration_Skeleton\getClassName</text>
</g>
<!-- Node2 -->
<g id="node3" class="node"><title>Node2</title>
<a xlink:href="classZendDbSchema__Db__Migration__Change.html#abd5253380521e63e91099a6ab3b89387" target="_top" xlink:title="ZendDbSchema_Db_Migration_Change\\fromFile">
<polygon fill="white" stroke="black" points="298.5,-20.5 298.5,-41.5 525.5,-41.5 525.5,-20.5 298.5,-20.5"/>
<text text-anchor="middle" x="412" y="-28.5" font-family="Helvetica,sans-Serif" font-size="10.00">ZendDbSchema_Db_Migration_Change\fromFile</text>
</a>
</g>
<!-- Node1&#45;&gt;Node2 -->
<g id="edge2" class="edge"><title>Node1&#45;&gt;Node2</title>
<path fill="none" stroke="midnightblue" d="M272.315,-31C281.074,-31 289.829,-31 298.443,-31"/>
<polygon fill="midnightblue" stroke="midnightblue" points="272.039,-27.5001 262.039,-31 272.039,-34.5001 272.039,-27.5001"/>
</g>
<!-- Node3 -->
<g id="node5" class="node"><title>Node3</title>
<a xlink:href="classZendDbSchema__Db__Migration__Manager.html#a2450580273691865299544ba500e01b2" target="_top" xlink:title="ZendDbSchema_Db_Migration_Manager\\addChange">
<polygon fill="white" stroke="black" points="569.5,-40.5 569.5,-61.5 814.5,-61.5 814.5,-40.5 569.5,-40.5"/>
<text text-anchor="middle" x="692" y="-48.5" font-family="Helvetica,sans-Serif" font-size="10.00">ZendDbSchema_Db_Migration_Manager\addChange</text>
</a>
</g>
<!-- Node2&#45;&gt;Node3 -->
<g id="edge4" class="edge"><title>Node2&#45;&gt;Node3</title>
<path fill="none" stroke="midnightblue" d="M535.947,-39.8534C546.952,-40.6394 558.09,-41.435 569.086,-42.2204"/>
<polygon fill="midnightblue" stroke="midnightblue" points="536.111,-36.3562 525.887,-39.1348 535.612,-43.3384 536.111,-36.3562"/>
</g>
<!-- Node5 -->
<g id="node9" class="node"><title>Node5</title>
<a xlink:href="classZendDbSchema__Tool__Project__Provider__Migration.html#a655dfecdd97d178fe409092d1111416d" target="_top" xlink:title="ZendDbSchema_Tool_Project_Provider_Migration\\show">
<polygon fill="white" stroke="black" points="562,-0.5 562,-21.5 822,-21.5 822,-0.5 562,-0.5"/>
<text text-anchor="middle" x="692" y="-8.5" font-family="Helvetica,sans-Serif" font-size="10.00">ZendDbSchema_Tool_Project_Provider_Migration\show</text>
</a>
</g>
<!-- Node2&#45;&gt;Node5 -->
<g id="edge8" class="edge"><title>Node2&#45;&gt;Node5</title>
<path fill="none" stroke="midnightblue" d="M535.904,-22.1497C544.476,-21.5374 553.13,-20.9193 561.734,-20.3047"/>
<polygon fill="midnightblue" stroke="midnightblue" points="535.612,-18.6616 525.887,-22.8652 536.111,-25.6438 535.612,-18.6616"/>
</g>
<!-- Node4 -->
<g id="node7" class="node"><title>Node4</title>
<a xlink:href="classZendDbSchema__Db__Migration__Manager.html#a5bc6e13f1d6ae95a759178d5342aa6ca" target="_top" xlink:title="ZendDbSchema_Db_Migration_Manager\\__construct">
<polygon fill="white" stroke="black" points="858.5,-40.5 858.5,-61.5 1105.5,-61.5 1105.5,-40.5 858.5,-40.5"/>
<text text-anchor="middle" x="982" y="-48.5" font-family="Helvetica,sans-Serif" font-size="10.00">ZendDbSchema_Db_Migration_Manager\__construct</text>
</a>
</g>
<!-- Node3&#45;&gt;Node4 -->
<g id="edge6" class="edge"><title>Node3&#45;&gt;Node4</title>
<path fill="none" stroke="midnightblue" d="M824.826,-51C836.036,-51 847.345,-51 858.48,-51"/>
<polygon fill="midnightblue" stroke="midnightblue" points="824.566,-47.5001 814.566,-51 824.566,-54.5001 824.566,-47.5001"/>
</g>
</g>
</svg>
