<?xml version="1.0" encoding="UTF-8" standalone="no"?>
<!DOCTYPE svg PUBLIC "-//W3C//DTD SVG 1.1//EN"
 "http://www.w3.org/Graphics/SVG/1.1/DTD/svg11.dtd">
<!-- Generated by graphviz version 2.26.3 (20100126.1600)
 -->
<!-- Title: G Pages: 1 -->
<svg width="548pt" height="70pt"
 viewBox="0.00 0.00 548.00 70.00" xmlns="http://www.w3.org/2000/svg" xmlns:xlink="http://www.w3.org/1999/xlink">
<g id="graph1" class="graph" transform="scale(1 1) rotate(0) translate(4 66)">
<title>G</title>
<polygon fill="white" stroke="white" points="-4,5 -4,-66 545,-66 545,5 -4,5"/>
<!-- Node1 -->
<g id="node1" class="node"><title>Node1</title>
<polygon fill="#bfbfbf" stroke="black" points="0.5,-20.5 0.5,-41.5 239.5,-41.5 239.5,-20.5 0.5,-20.5"/>
<text text-anchor="middle" x="120" y="-28.5" font-family="Helvetica,sans-Serif" font-size="10.00">ZendDbSchema_Db_Migration_Change\getVersion</text>
</g>
<!-- Node2 -->
<g id="node3" class="node"><title>Node2</title>
<a xlink:href="classZendDbSchema__Db__Migration__Change.html#ab2d12c5db5ac9d0504df4627cbf681f0" target="_top" xlink:title="ZendDbSchema_Db_Migration_Change\\__toString">
<polygon fill="white" stroke="black" points="290,-40.5 290,-61.5 526,-61.5 526,-40.5 290,-40.5"/>
<text text-anchor="middle" x="408" y="-48.5" font-family="Helvetica,sans-Serif" font-size="10.00">ZendDbSchema_Db_Migration_Change\__toString</text>
</a>
</g>
<!-- Node1&#45;&gt;Node2 -->
<g id="edge2" class="edge"><title>Node1&#45;&gt;Node2</title>
<path fill="none" stroke="midnightblue" d="M249.76,-40.0111C263.05,-40.9341 276.504,-41.8684 289.663,-42.7822"/>
<polygon fill="midnightblue" stroke="midnightblue" points="249.854,-36.5093 239.636,-39.308 249.369,-43.4925 249.854,-36.5093"/>
</g>
<!-- Node3 -->
<g id="node5" class="node"><title>Node3</title>
<a xlink:href="classZendDbSchema__Db__Migration__Change.html#ac90aa7dd80e395fe3ba86d3f89ae5b7b" target="_top" xlink:title="ZendDbSchema_Db_Migration_Change\\compareVersion">
<polygon fill="white" stroke="black" points="276.5,-0.5 276.5,-21.5 539.5,-21.5 539.5,-0.5 276.5,-0.5"/>
<text text-anchor="middle" x="408" y="-8.5" font-family="Helvetica,sans-Serif" font-size="10.00">ZendDbSchema_Db_Migration_Change\compareVersion</text>
</a>
</g>
<!-- Node1&#45;&gt;Node3 -->
<g id="edge4" class="edge"><title>Node1&#45;&gt;Node3</title>
<path fill="none" stroke="midnightblue" d="M249.855,-21.9823C258.594,-21.3754 267.403,-20.7637 276.152,-20.1561"/>
<polygon fill="midnightblue" stroke="midnightblue" points="249.369,-18.5075 239.636,-22.692 249.854,-25.4907 249.369,-18.5075"/>
</g>
</g>
</svg>
