<?xml version="1.0" encoding="UTF-8" standalone="no"?>
<!DOCTYPE svg PUBLIC "-//W3C//DTD SVG 1.1//EN"
 "http://www.w3.org/Graphics/SVG/1.1/DTD/svg11.dtd">
<!-- Generated by graphviz version 2.26.3 (20100126.1600)
 -->
<!-- Title: G Pages: 1 -->
<svg width="578pt" height="230pt"
 viewBox="0.00 0.00 578.00 230.00" xmlns="http://www.w3.org/2000/svg" xmlns:xlink="http://www.w3.org/1999/xlink">
<g id="graph1" class="graph" transform="scale(1 1) rotate(0) translate(4 226)">
<title>G</title>
<polygon fill="white" stroke="white" points="-4,5 -4,-226 575,-226 575,5 -4,5"/>
<!-- Node1 -->
<g id="node1" class="node"><title>Node1</title>
<polygon fill="#bfbfbf" stroke="black" points="0.5,-100.5 0.5,-121.5 273.5,-121.5 273.5,-100.5 0.5,-100.5"/>
<text text-anchor="middle" x="137" y="-108.5" font-family="Helvetica,sans-Serif" font-size="10.00">ZendDbSchema_Db_Schema_AbstractEntity\getGenerator</text>
</g>
<!-- Node2 -->
<g id="node3" class="node"><title>Node2</title>
<a xlink:href="classZendDbSchema__Db__Schema__Database.html#a4f5a636c4e7d8ab57f6e090cdf8841dc" target="_top" xlink:title="ZendDbSchema_Db_Schema_Database\\_getAlterSql">
<polygon fill="white" stroke="black" points="315,-200.5 315,-221.5 565,-221.5 565,-200.5 315,-200.5"/>
<text text-anchor="middle" x="440" y="-208.5" font-family="Helvetica,sans-Serif" font-size="10.00">ZendDbSchema_Db_Schema_Database\_getAlterSql</text>
</a>
</g>
<!-- Node1&#45;&gt;Node2 -->
<g id="edge2" class="edge"><title>Node1&#45;&gt;Node2</title>
<path fill="none" stroke="midnightblue" d="M164.639,-126.75C198.015,-145.059 256.367,-174.826 310,-191 322.68,-194.824 336.288,-197.942 349.751,-200.477"/>
<polygon fill="midnightblue" stroke="midnightblue" points="165.956,-123.478 155.513,-121.687 162.559,-129.599 165.956,-123.478"/>
</g>
<!-- Node3 -->
<g id="node5" class="node"><title>Node3</title>
<a xlink:href="classZendDbSchema__Db__Schema__Table.html#a385e32fefac9fd4c6e4274c1e0c0b810" target="_top" xlink:title="ZendDbSchema_Db_Schema_Table\\_getAlterSql">
<polygon fill="white" stroke="black" points="324,-160.5 324,-181.5 556,-181.5 556,-160.5 324,-160.5"/>
<text text-anchor="middle" x="440" y="-168.5" font-family="Helvetica,sans-Serif" font-size="10.00">ZendDbSchema_Db_Schema_Table\_getAlterSql</text>
</a>
</g>
<!-- Node1&#45;&gt;Node3 -->
<g id="edge4" class="edge"><title>Node1&#45;&gt;Node3</title>
<path fill="none" stroke="midnightblue" d="M188.555,-123.981C222.84,-132.352 268.946,-143.107 310,-151 327.827,-154.427 347.119,-157.655 365.247,-160.476"/>
<polygon fill="midnightblue" stroke="midnightblue" points="189.31,-120.563 178.764,-121.577 187.641,-127.361 189.31,-120.563"/>
</g>
<!-- Node4 -->
<g id="node7" class="node"><title>Node4</title>
<a xlink:href="classZendDbSchema__Db__Schema__Database.html#a48ad6cd38cc07c3c350335d21d7c11e9" target="_top" xlink:title="ZendDbSchema_Db_Schema_Database\\_getCreateSql">
<polygon fill="white" stroke="black" points="310.5,-120.5 310.5,-141.5 569.5,-141.5 569.5,-120.5 310.5,-120.5"/>
<text text-anchor="middle" x="440" y="-128.5" font-family="Helvetica,sans-Serif" font-size="10.00">ZendDbSchema_Db_Schema_Database\_getCreateSql</text>
</a>
</g>
<!-- Node1&#45;&gt;Node4 -->
<g id="edge6" class="edge"><title>Node1&#45;&gt;Node4</title>
<path fill="none" stroke="midnightblue" d="M284.085,-120.709C292.798,-121.284 301.53,-121.86 310.166,-122.43"/>
<polygon fill="midnightblue" stroke="midnightblue" points="284.082,-117.201 273.873,-120.035 283.621,-124.186 284.082,-117.201"/>
</g>
<!-- Node5 -->
<g id="node9" class="node"><title>Node5</title>
<a xlink:href="classZendDbSchema__Db__Schema__Table.html#aefb813dece15a26017e580acc64e3406" target="_top" xlink:title="ZendDbSchema_Db_Schema_Table\\_getCreateSql">
<polygon fill="white" stroke="black" points="319.5,-80.5 319.5,-101.5 560.5,-101.5 560.5,-80.5 319.5,-80.5"/>
<text text-anchor="middle" x="440" y="-88.5" font-family="Helvetica,sans-Serif" font-size="10.00">ZendDbSchema_Db_Schema_Table\_getCreateSql</text>
</a>
</g>
<!-- Node1&#45;&gt;Node5 -->
<g id="edge8" class="edge"><title>Node1&#45;&gt;Node5</title>
<path fill="none" stroke="midnightblue" d="M283.879,-101.305C295.808,-100.518 307.776,-99.7277 319.485,-98.9548"/>
<polygon fill="midnightblue" stroke="midnightblue" points="283.621,-97.8143 273.873,-101.965 284.082,-104.799 283.621,-97.8143"/>
</g>
<!-- Node6 -->
<g id="node11" class="node"><title>Node6</title>
<a xlink:href="classZendDbSchema__Db__Schema__Database.html#ad0a851f47e7766bef9f0a54d01bffa6e" target="_top" xlink:title="ZendDbSchema_Db_Schema_Database\\_getDropSql">
<polygon fill="white" stroke="black" points="314.5,-40.5 314.5,-61.5 565.5,-61.5 565.5,-40.5 314.5,-40.5"/>
<text text-anchor="middle" x="440" y="-48.5" font-family="Helvetica,sans-Serif" font-size="10.00">ZendDbSchema_Db_Schema_Database\_getDropSql</text>
</a>
</g>
<!-- Node1&#45;&gt;Node6 -->
<g id="edge10" class="edge"><title>Node1&#45;&gt;Node6</title>
<path fill="none" stroke="midnightblue" d="M188.555,-98.0186C222.84,-89.6482 268.946,-78.8927 310,-71 327.827,-67.5726 347.119,-64.3452 365.247,-61.5241"/>
<polygon fill="midnightblue" stroke="midnightblue" points="187.641,-94.639 178.764,-100.423 189.31,-101.437 187.641,-94.639"/>
</g>
<!-- Node7 -->
<g id="node13" class="node"><title>Node7</title>
<a xlink:href="classZendDbSchema__Db__Schema__Table.html#a7be2ac66a479e6264cc9b04980f65df6" target="_top" xlink:title="ZendDbSchema_Db_Schema_Table\\_getDropSql">
<polygon fill="white" stroke="black" points="323.5,-0.5 323.5,-21.5 556.5,-21.5 556.5,-0.5 323.5,-0.5"/>
<text text-anchor="middle" x="440" y="-8.5" font-family="Helvetica,sans-Serif" font-size="10.00">ZendDbSchema_Db_Schema_Table\_getDropSql</text>
</a>
</g>
<!-- Node1&#45;&gt;Node7 -->
<g id="edge12" class="edge"><title>Node1&#45;&gt;Node7</title>
<path fill="none" stroke="midnightblue" d="M164.639,-95.2498C198.015,-76.9406 256.367,-47.174 310,-31 322.68,-27.176 336.288,-24.0582 349.751,-21.5228"/>
<polygon fill="midnightblue" stroke="midnightblue" points="162.559,-92.4006 155.513,-100.313 165.956,-98.5216 162.559,-92.4006"/>
</g>
</g>
</svg>
