<?xml version="1.0" encoding="UTF-8" standalone="no"?>
<!DOCTYPE svg PUBLIC "-//W3C//DTD SVG 1.1//EN"
 "http://www.w3.org/Graphics/SVG/1.1/DTD/svg11.dtd">
<!-- Generated by graphviz version 2.26.3 (20100126.1600)
 -->
<!-- Title: G Pages: 1 -->
<svg width="960pt" height="378pt"
 viewBox="0.00 0.00 960.00 378.00" xmlns="http://www.w3.org/2000/svg" xmlns:xlink="http://www.w3.org/1999/xlink">
<g id="graph1" class="graph" transform="scale(1 1) rotate(0) translate(4 374)">
<title>G</title>
<polygon fill="white" stroke="white" points="-4,5 -4,-374 957,-374 957,5 -4,5"/>
<!-- Node1 -->
<g id="node1" class="node"><title>Node1</title>
<polygon fill="#bfbfbf" stroke="black" points="0,-144.5 0,-191.5 146,-191.5 146,-144.5 0,-144.5"/>
<text text-anchor="start" x="8" y="-178.5" font-family="Helvetica,sans-Serif" font-size="10.00">ZendDbSchema_Db_Schema</text>
<text text-anchor="start" x="8" y="-165.5" font-family="Helvetica,sans-Serif" font-size="10.00">_Generator_Mysql_Table</text>
<text text-anchor="middle" x="73" y="-152.5" font-family="Helvetica,sans-Serif" font-size="10.00">\alterTable</text>
</g>
<!-- Node2 -->
<g id="node3" class="node"><title>Node2</title>
<a xlink:href="classZendDbSchema__Db__Schema__AbstractSchema.html#a1680a8fd22360f74d29b641d7257a52f" target="_top" xlink:title="ZendDbSchema_Db_Schema\l_AbstractSchema\\isExist">
<polygon fill="white" stroke="black" points="191,-298 191,-332 337,-332 337,-298 191,-298"/>
<text text-anchor="start" x="199" y="-319" font-family="Helvetica,sans-Serif" font-size="10.00">ZendDbSchema_Db_Schema</text>
<text text-anchor="middle" x="264" y="-306" font-family="Helvetica,sans-Serif" font-size="10.00">_AbstractSchema\isExist</text>
</a>
</g>
<!-- Node1&#45;&gt;Node2 -->
<g id="edge2" class="edge"><title>Node1&#45;&gt;Node2</title>
<path fill="none" stroke="midnightblue" d="M103.687,-191.618C139.418,-219.118 198.068,-264.256 233.652,-291.644"/>
<polygon fill="midnightblue" stroke="midnightblue" points="231.683,-294.544 241.742,-297.87 235.952,-288.997 231.683,-294.544"/>
</g>
<!-- Node5 -->
<g id="node9" class="node"><title>Node5</title>
<a xlink:href="classZendDbSchema__Db__Schema__Table.html#a21a2a75870207a989576655fec7507c3" target="_top" xlink:title="ZendDbSchema_Db_Schema\l_Table\\isDirty">
<polygon fill="white" stroke="black" points="191,-182 191,-216 337,-216 337,-182 191,-182"/>
<text text-anchor="start" x="199" y="-203" font-family="Helvetica,sans-Serif" font-size="10.00">ZendDbSchema_Db_Schema</text>
<text text-anchor="middle" x="264" y="-190" font-family="Helvetica,sans-Serif" font-size="10.00">_Table\isDirty</text>
</a>
</g>
<!-- Node1&#45;&gt;Node5 -->
<g id="edge8" class="edge"><title>Node1&#45;&gt;Node5</title>
<path fill="none" stroke="midnightblue" d="M146.026,-179.852C157.348,-181.69 169.117,-183.6 180.646,-185.471"/>
<polygon fill="midnightblue" stroke="midnightblue" points="180.266,-188.955 190.698,-187.103 181.388,-182.046 180.266,-188.955"/>
</g>
<!-- Node12 -->
<g id="node25" class="node"><title>Node12</title>
<a xlink:href="classZendDbSchema__Db__Schema__AbstractSchema.html#a55787c21deddba427842809d589c2df6" target="_top" xlink:title="ZendDbSchema_Db_Schema\l_AbstractSchema\\getName">
<polygon fill="white" stroke="black" points="396,-0 396,-34 542,-34 542,-0 396,-0"/>
<text text-anchor="start" x="404" y="-21" font-family="Helvetica,sans-Serif" font-size="10.00">ZendDbSchema_Db_Schema</text>
<text text-anchor="middle" x="469" y="-8" font-family="Helvetica,sans-Serif" font-size="10.00">_AbstractSchema\getName</text>
</a>
</g>
<!-- Node1&#45;&gt;Node12 -->
<g id="edge26" class="edge"><title>Node1&#45;&gt;Node12</title>
<path fill="none" stroke="midnightblue" d="M146.001,-157.891C203.986,-147.203 285.158,-126.104 346,-86 366.81,-72.2827 361.18,-56.7028 382,-43 384.407,-41.4156 386.914,-39.9249 389.495,-38.5226"/>
<polygon fill="midnightblue" stroke="midnightblue" points="391.083,-41.6418 398.512,-34.0878 387.994,-35.3604 391.083,-41.6418"/>
</g>
<!-- Node13 -->
<g id="node28" class="node"><title>Node13</title>
<a xlink:href="classZendDbSchema__Db__Schema__AbstractSchema.html#adacb1417b461310c5c87f72c459c1985" target="_top" xlink:title="ZendDbSchema_Db_Schema\l_AbstractSchema\\getOriginName">
<polygon fill="white" stroke="black" points="182.5,-43 182.5,-77 345.5,-77 345.5,-43 182.5,-43"/>
<text text-anchor="start" x="190.5" y="-64" font-family="Helvetica,sans-Serif" font-size="10.00">ZendDbSchema_Db_Schema</text>
<text text-anchor="middle" x="264" y="-51" font-family="Helvetica,sans-Serif" font-size="10.00">_AbstractSchema\getOriginName</text>
</a>
</g>
<!-- Node1&#45;&gt;Node13 -->
<g id="edge30" class="edge"><title>Node1&#45;&gt;Node13</title>
<path fill="none" stroke="midnightblue" d="M114.916,-144.299C147.598,-125.819 192.66,-100.339 224.666,-82.2412"/>
<polygon fill="midnightblue" stroke="midnightblue" points="226.756,-85.0803 233.738,-77.1115 223.31,-78.987 226.756,-85.0803"/>
</g>
<!-- Node3 -->
<g id="node5" class="node"><title>Node3</title>
<a xlink:href="classZendDbSchema__Db__Schema__AbstractSchema.html#a46da7a60c7e5fd605607afbc1dac4baa" target="_top" xlink:title="ZendDbSchema_Db_Schema\l_AbstractSchema\\getCleanSchema">
<polygon fill="white" stroke="black" points="382.5,-336 382.5,-370 555.5,-370 555.5,-336 382.5,-336"/>
<text text-anchor="start" x="390.5" y="-357" font-family="Helvetica,sans-Serif" font-size="10.00">ZendDbSchema_Db_Schema</text>
<text text-anchor="middle" x="469" y="-344" font-family="Helvetica,sans-Serif" font-size="10.00">_AbstractSchema\getCleanSchema</text>
</a>
</g>
<!-- Node2&#45;&gt;Node3 -->
<g id="edge4" class="edge"><title>Node2&#45;&gt;Node3</title>
<path fill="none" stroke="midnightblue" d="M337.141,-328.558C348.55,-330.673 360.489,-332.886 372.324,-335.08"/>
<polygon fill="midnightblue" stroke="midnightblue" points="371.757,-338.534 382.227,-336.915 373.032,-331.651 371.757,-338.534"/>
</g>
<!-- Node4 -->
<g id="node7" class="node"><title>Node4</title>
<a xlink:href="classZendDbSchema__Db__Schema__AbstractSchema.html#af99e5bb9adfe0da8c94d3d3848efe7b5" target="_top" xlink:title="ZendDbSchema_Db_Schema\l_AbstractSchema\\_getCleanSchema">
<polygon fill="white" stroke="black" points="592,-336 592,-370 770,-370 770,-336 592,-336"/>
<text text-anchor="start" x="600" y="-357" font-family="Helvetica,sans-Serif" font-size="10.00">ZendDbSchema_Db_Schema</text>
<text text-anchor="middle" x="681" y="-344" font-family="Helvetica,sans-Serif" font-size="10.00">_AbstractSchema\_getCleanSchema</text>
</a>
</g>
<!-- Node3&#45;&gt;Node4 -->
<g id="edge6" class="edge"><title>Node3&#45;&gt;Node4</title>
<path fill="none" stroke="midnightblue" d="M555.534,-353C564.175,-353 572.994,-353 581.752,-353"/>
<polygon fill="midnightblue" stroke="midnightblue" points="581.99,-356.5 591.99,-353 581.99,-349.5 581.99,-356.5"/>
</g>
<!-- Node5&#45;&gt;Node3 -->
<g id="edge10" class="edge"><title>Node5&#45;&gt;Node3</title>
<path fill="none" stroke="midnightblue" d="M279.744,-216.272C309.031,-248.273 370.012,-314.244 382,-322 387.608,-325.628 393.695,-328.896 399.955,-331.826"/>
<polygon fill="midnightblue" stroke="midnightblue" points="398.653,-335.076 409.218,-335.877 401.459,-328.663 398.653,-335.076"/>
</g>
<!-- Node6 -->
<g id="node12" class="node"><title>Node6</title>
<a xlink:href="classZendDbSchema__Db__Schema__AbstractSchema.html#ac4e121ba7932163eb1950fabe06fb9db" target="_top" xlink:title="ZendDbSchema_Db_Schema\l_AbstractSchema\\__isset">
<polygon fill="white" stroke="black" points="806,-268 806,-302 952,-302 952,-268 806,-268"/>
<text text-anchor="start" x="814" y="-289" font-family="Helvetica,sans-Serif" font-size="10.00">ZendDbSchema_Db_Schema</text>
<text text-anchor="middle" x="879" y="-276" font-family="Helvetica,sans-Serif" font-size="10.00">_AbstractSchema\__isset</text>
</a>
</g>
<!-- Node5&#45;&gt;Node6 -->
<g id="edge12" class="edge"><title>Node5&#45;&gt;Node6</title>
<path fill="none" stroke="midnightblue" d="M284.581,-216.322C306.96,-234.043 344.562,-260.673 382,-273 521.296,-318.865 694.629,-309.133 795.451,-297.401"/>
<polygon fill="midnightblue" stroke="midnightblue" points="796.066,-300.852 805.578,-296.187 795.233,-293.902 796.066,-300.852"/>
</g>
<!-- Node7 -->
<g id="node14" class="node"><title>Node7</title>
<a xlink:href="classZendDbSchema__Db__Schema__AbstractSchema.html#a54d32c6f15463eaad2321a9f0e7225d7" target="_top" xlink:title="ZendDbSchema_Db_Schema\l_AbstractSchema\\__get">
<polygon fill="white" stroke="black" points="608,-246 608,-280 754,-280 754,-246 608,-246"/>
<text text-anchor="start" x="616" y="-267" font-family="Helvetica,sans-Serif" font-size="10.00">ZendDbSchema_Db_Schema</text>
<text text-anchor="middle" x="681" y="-254" font-family="Helvetica,sans-Serif" font-size="10.00">_AbstractSchema\__get</text>
</a>
</g>
<!-- Node5&#45;&gt;Node7 -->
<g id="edge14" class="edge"><title>Node5&#45;&gt;Node7</title>
<path fill="none" stroke="midnightblue" d="M294.446,-216.228C317.648,-228.398 350.812,-243.777 382,-251 453.407,-267.538 536.924,-269.492 597.513,-267.914"/>
<polygon fill="midnightblue" stroke="midnightblue" points="597.9,-271.404 607.791,-267.607 597.691,-264.407 597.9,-271.404"/>
</g>
<!-- Node8 -->
<g id="node17" class="node"><title>Node8</title>
<a xlink:href="classZendDbSchema__Db__Schema__Table.html#a214354faa96de67a26b787c2c8741850" target="_top" xlink:title="ZendDbSchema_Db_Schema\l_Table\\columns">
<polygon fill="white" stroke="black" points="396,-208 396,-242 542,-242 542,-208 396,-208"/>
<text text-anchor="start" x="404" y="-229" font-family="Helvetica,sans-Serif" font-size="10.00">ZendDbSchema_Db_Schema</text>
<text text-anchor="middle" x="469" y="-216" font-family="Helvetica,sans-Serif" font-size="10.00">_Table\columns</text>
</a>
</g>
<!-- Node5&#45;&gt;Node8 -->
<g id="edge18" class="edge"><title>Node5&#45;&gt;Node8</title>
<path fill="none" stroke="midnightblue" d="M337.141,-208.276C352.949,-210.281 369.773,-212.415 385.929,-214.464"/>
<polygon fill="midnightblue" stroke="midnightblue" points="385.526,-217.941 395.887,-215.727 386.407,-210.997 385.526,-217.941"/>
</g>
<!-- Node9 -->
<g id="node19" class="node"><title>Node9</title>
<a xlink:href="classZendDbSchema__Db__Schema__Table.html#a47df29d95af8f655dd7506cfb649ec40" target="_top" xlink:title="ZendDbSchema_Db_Schema\l_Table\\indexes">
<polygon fill="white" stroke="black" points="396,-156 396,-190 542,-190 542,-156 396,-156"/>
<text text-anchor="start" x="404" y="-177" font-family="Helvetica,sans-Serif" font-size="10.00">ZendDbSchema_Db_Schema</text>
<text text-anchor="middle" x="469" y="-164" font-family="Helvetica,sans-Serif" font-size="10.00">_Table\indexes</text>
</a>
</g>
<!-- Node5&#45;&gt;Node9 -->
<g id="edge20" class="edge"><title>Node5&#45;&gt;Node9</title>
<path fill="none" stroke="midnightblue" d="M337.141,-189.724C352.949,-187.719 369.773,-185.585 385.929,-183.536"/>
<polygon fill="midnightblue" stroke="midnightblue" points="386.407,-187.003 395.887,-182.273 385.526,-180.059 386.407,-187.003"/>
</g>
<!-- Node10 -->
<g id="node21" class="node"><title>Node10</title>
<a xlink:href="classZendDbSchema__Db__Schema__Table.html#acff371c2884c9688b5ede2deaf09f25c" target="_top" xlink:title="ZendDbSchema_Db_Schema\l_Table\\foreigns">
<polygon fill="white" stroke="black" points="396,-104 396,-138 542,-138 542,-104 396,-104"/>
<text text-anchor="start" x="404" y="-125" font-family="Helvetica,sans-Serif" font-size="10.00">ZendDbSchema_Db_Schema</text>
<text text-anchor="middle" x="469" y="-112" font-family="Helvetica,sans-Serif" font-size="10.00">_Table\foreigns</text>
</a>
</g>
<!-- Node5&#45;&gt;Node10 -->
<g id="edge22" class="edge"><title>Node5&#45;&gt;Node10</title>
<path fill="none" stroke="midnightblue" d="M299.674,-181.888C322.837,-171.125 353.848,-157.364 382,-147 387.402,-145.011 393.033,-143.061 398.718,-141.179"/>
<polygon fill="midnightblue" stroke="midnightblue" points="399.866,-144.486 408.305,-138.08 397.713,-137.825 399.866,-144.486"/>
</g>
<!-- Node11 -->
<g id="node23" class="node"><title>Node11</title>
<a xlink:href="classZendDbSchema__Db__Schema__Table.html#a9d445dd6a92cc3a50aa6d8dad8395f0a" target="_top" xlink:title="ZendDbSchema_Db_Schema\l_Table\\primary">
<polygon fill="white" stroke="black" points="396,-52 396,-86 542,-86 542,-52 396,-52"/>
<text text-anchor="start" x="404" y="-73" font-family="Helvetica,sans-Serif" font-size="10.00">ZendDbSchema_Db_Schema</text>
<text text-anchor="middle" x="469" y="-60" font-family="Helvetica,sans-Serif" font-size="10.00">_Table\primary</text>
</a>
</g>
<!-- Node5&#45;&gt;Node11 -->
<g id="edge24" class="edge"><title>Node5&#45;&gt;Node11</title>
<path fill="none" stroke="midnightblue" d="M302.53,-181.894C317.223,-174.159 333.44,-164.033 346,-152 367.636,-131.272 358.128,-113.108 382,-95 383.837,-93.6067 385.748,-92.2877 387.718,-91.0391"/>
<polygon fill="midnightblue" stroke="midnightblue" points="389.686,-93.9484 396.695,-86.0033 386.261,-87.8433 389.686,-93.9484"/>
</g>
<!-- Node7&#45;&gt;Node6 -->
<g id="edge16" class="edge"><title>Node7&#45;&gt;Node6</title>
<path fill="none" stroke="midnightblue" d="M754.165,-271.129C767.728,-272.636 781.986,-274.221 795.822,-275.758"/>
<polygon fill="midnightblue" stroke="midnightblue" points="795.48,-279.241 805.805,-276.867 796.253,-272.284 795.48,-279.241"/>
</g>
<!-- Node12&#45;&gt;Node7 -->
<g id="edge28" class="edge"><title>Node12&#45;&gt;Node7</title>
<path fill="none" stroke="midnightblue" d="M542.343,-34.2157C547.192,-36.7523 551.806,-39.6622 556,-43 620.867,-94.6296 658.028,-189.701 673.079,-236.103"/>
<polygon fill="midnightblue" stroke="midnightblue" points="669.776,-237.268 676.117,-245.757 676.454,-235.167 669.776,-237.268"/>
</g>
<!-- Node13&#45;&gt;Node12 -->
<g id="edge32" class="edge"><title>Node13&#45;&gt;Node12</title>
<path fill="none" stroke="midnightblue" d="M345.316,-42.9435C358.589,-40.1594 372.357,-37.2714 385.678,-34.4774"/>
<polygon fill="midnightblue" stroke="midnightblue" points="386.692,-37.8408 395.761,-32.3624 385.255,-30.9899 386.692,-37.8408"/>
</g>
</g>
</svg>
