<?xml version="1.0" encoding="UTF-8" standalone="no"?>
<!DOCTYPE svg PUBLIC "-//W3C//DTD SVG 1.1//EN"
 "http://www.w3.org/Graphics/SVG/1.1/DTD/svg11.dtd">
<!-- Generated by graphviz version 2.26.3 (20100126.1600)
 -->
<!-- Title: G Pages: 1 -->
<svg width="1210pt" height="70pt"
 viewBox="0.00 0.00 1210.00 70.00" xmlns="http://www.w3.org/2000/svg" xmlns:xlink="http://www.w3.org/1999/xlink">
<g id="graph1" class="graph" transform="scale(1 1) rotate(0) translate(4 66)">
<title>G</title>
<polygon fill="white" stroke="white" points="-4,5 -4,-66 1207,-66 1207,5 -4,5"/>
<!-- Node1 -->
<g id="node1" class="node"><title>Node1</title>
<polygon fill="#bfbfbf" stroke="black" points="0.5,-20.5 0.5,-41.5 281.5,-41.5 281.5,-20.5 0.5,-20.5"/>
<text text-anchor="middle" x="141" y="-28.5" font-family="Helvetica,sans-Serif" font-size="10.00">ZendDbSchema_Db_Schema_Generator_Mysql\dropColumn</text>
</g>
<!-- Node2 -->
<g id="node3" class="node"><title>Node2</title>
<a xlink:href="classZendDbSchema__Db__Schema__AbstractSchema.html#a55787c21deddba427842809d589c2df6" target="_top" xlink:title="ZendDbSchema_Db_Schema_AbstractSchema\\getName">
<polygon fill="white" stroke="black" points="334.5,-40.5 334.5,-61.5 601.5,-61.5 601.5,-40.5 334.5,-40.5"/>
<text text-anchor="middle" x="468" y="-48.5" font-family="Helvetica,sans-Serif" font-size="10.00">ZendDbSchema_Db_Schema_AbstractSchema\getName</text>
</a>
</g>
<!-- Node1&#45;&gt;Node2 -->
<g id="edge2" class="edge"><title>Node1&#45;&gt;Node2</title>
<path fill="none" stroke="midnightblue" d="M281.575,-39.5979C295.644,-40.4583 309.943,-41.3329 324.046,-42.1955"/>
<polygon fill="midnightblue" stroke="midnightblue" points="324.079,-45.704 334.274,-42.8211 324.507,-38.717 324.079,-45.704"/>
</g>
<!-- Node5 -->
<g id="node9" class="node"><title>Node5</title>
<a xlink:href="classZendDbSchema__Db__Schema__Table__AbstractDefinition.html#a224b6a0c1df1d6ed40e03657782ef6fc" target="_top" xlink:title="ZendDbSchema_Db_Schema_Table_AbstractDefinition\\getTable">
<polygon fill="white" stroke="black" points="318.5,-0.5 318.5,-21.5 617.5,-21.5 617.5,-0.5 318.5,-0.5"/>
<text text-anchor="middle" x="468" y="-8.5" font-family="Helvetica,sans-Serif" font-size="10.00">ZendDbSchema_Db_Schema_Table_AbstractDefinition\getTable</text>
</a>
</g>
<!-- Node1&#45;&gt;Node5 -->
<g id="edge8" class="edge"><title>Node1&#45;&gt;Node5</title>
<path fill="none" stroke="midnightblue" d="M281.575,-22.4021C290.442,-21.8598 299.4,-21.3119 308.344,-20.7649"/>
<polygon fill="midnightblue" stroke="midnightblue" points="308.661,-24.2522 318.428,-20.1481 308.233,-17.2652 308.661,-24.2522"/>
</g>
<!-- Node3 -->
<g id="node5" class="node"><title>Node3</title>
<a xlink:href="classZendDbSchema__Db__Schema__AbstractSchema.html#a54d32c6f15463eaad2321a9f0e7225d7" target="_top" xlink:title="ZendDbSchema_Db_Schema_AbstractSchema\\__get">
<polygon fill="white" stroke="black" points="654.5,-40.5 654.5,-61.5 905.5,-61.5 905.5,-40.5 654.5,-40.5"/>
<text text-anchor="middle" x="780" y="-48.5" font-family="Helvetica,sans-Serif" font-size="10.00">ZendDbSchema_Db_Schema_AbstractSchema\__get</text>
</a>
</g>
<!-- Node2&#45;&gt;Node3 -->
<g id="edge4" class="edge"><title>Node2&#45;&gt;Node3</title>
<path fill="none" stroke="midnightblue" d="M601.674,-51C615.648,-51 629.867,-51 643.869,-51"/>
<polygon fill="midnightblue" stroke="midnightblue" points="644.019,-54.5001 654.019,-51 644.019,-47.5001 644.019,-54.5001"/>
</g>
<!-- Node4 -->
<g id="node7" class="node"><title>Node4</title>
<a xlink:href="classZendDbSchema__Db__Schema__AbstractSchema.html#ac4e121ba7932163eb1950fabe06fb9db" target="_top" xlink:title="ZendDbSchema_Db_Schema_AbstractSchema\\__isset">
<polygon fill="white" stroke="black" points="942.5,-40.5 942.5,-61.5 1201.5,-61.5 1201.5,-40.5 942.5,-40.5"/>
<text text-anchor="middle" x="1072" y="-48.5" font-family="Helvetica,sans-Serif" font-size="10.00">ZendDbSchema_Db_Schema_AbstractSchema\__isset</text>
</a>
</g>
<!-- Node3&#45;&gt;Node4 -->
<g id="edge6" class="edge"><title>Node3&#45;&gt;Node4</title>
<path fill="none" stroke="midnightblue" d="M905.529,-51C914.401,-51 923.376,-51 932.32,-51"/>
<polygon fill="midnightblue" stroke="midnightblue" points="932.397,-54.5001 942.397,-51 932.397,-47.5001 932.397,-54.5001"/>
</g>
</g>
</svg>
