<?xml version="1.0" encoding="UTF-8" standalone="no"?>
<!DOCTYPE svg PUBLIC "-//W3C//DTD SVG 1.1//EN"
 "http://www.w3.org/Graphics/SVG/1.1/DTD/svg11.dtd">
<!-- Generated by graphviz version 2.26.3 (20100126.1600)
 -->
<!-- Title: G Pages: 1 -->
<svg width="748pt" height="1342pt"
 viewBox="0.00 0.00 748.00 1341.63" xmlns="http://www.w3.org/2000/svg" xmlns:xlink="http://www.w3.org/1999/xlink">
<g id="graph1" class="graph" transform="scale(1 1) rotate(0) translate(4 1337.63)">
<title>G</title>
<polygon fill="white" stroke="white" points="-4,5 -4,-1337.63 745,-1337.63 745,5 -4,5"/>
<!-- Node1 -->
<g id="node1" class="node"><title>Node1</title>
<polygon fill="#bfbfbf" stroke="black" points="0.5,-858 0.5,-892 173.5,-892 173.5,-858 0.5,-858"/>
<text text-anchor="start" x="8.5" y="-879" font-family="Helvetica,sans-Serif" font-size="10.00">ZendDbSchema_Db_Schema</text>
<text text-anchor="middle" x="87" y="-866" font-family="Helvetica,sans-Serif" font-size="10.00">_AbstractSchema\getCleanSchema</text>
</g>
<!-- Node2 -->
<g id="node3" class="node"><title>Node2</title>
<a xlink:href="classZendDbSchema__Db__Schema__AbstractSchema.html#ae859790a91bbcb9c4dc52a6139e5999e" target="_top" xlink:title="ZendDbSchema_Db_Schema\l_AbstractSchema\\isDirty">
<polygon fill="white" stroke="black" points="210,-1215 210,-1249 356,-1249 356,-1215 210,-1215"/>
<text text-anchor="start" x="218" y="-1236" font-family="Helvetica,sans-Serif" font-size="10.00">ZendDbSchema_Db_Schema</text>
<text text-anchor="middle" x="283" y="-1223" font-family="Helvetica,sans-Serif" font-size="10.00">_AbstractSchema\isDirty</text>
</a>
</g>
<!-- Node1&#45;&gt;Node2 -->
<g id="edge2" class="edge"><title>Node1&#45;&gt;Node2</title>
<path fill="none" stroke="midnightblue" d="M101.383,-901.197C139.453,-970.539 242.087,-1157.48 273.641,-1214.95"/>
<polygon fill="midnightblue" stroke="midnightblue" points="104.334,-899.3 96.4535,-892.219 98.1981,-902.669 104.334,-899.3"/>
</g>
<!-- Node8 -->
<g id="node16" class="node"><title>Node8</title>
<a xlink:href="classZendDbSchema__Db__Schema__Table.html#a21a2a75870207a989576655fec7507c3" target="_top" xlink:title="ZendDbSchema_Db_Schema\l_Table\\isDirty">
<polygon fill="white" stroke="black" points="210,-987 210,-1021 356,-1021 356,-987 210,-987"/>
<text text-anchor="start" x="218" y="-1008" font-family="Helvetica,sans-Serif" font-size="10.00">ZendDbSchema_Db_Schema</text>
<text text-anchor="middle" x="283" y="-995" font-family="Helvetica,sans-Serif" font-size="10.00">_Table\isDirty</text>
</a>
</g>
<!-- Node1&#45;&gt;Node8 -->
<g id="edge16" class="edge"><title>Node1&#45;&gt;Node8</title>
<path fill="none" stroke="midnightblue" d="M121.866,-897.948C160.556,-923.412 222.104,-963.921 256.865,-986.799"/>
<polygon fill="midnightblue" stroke="midnightblue" points="123.305,-894.704 113.027,-892.13 119.456,-900.552 123.305,-894.704"/>
</g>
<!-- Node12 -->
<g id="node24" class="node"><title>Node12</title>
<a xlink:href="classZendDbSchema__Db__Schema__AbstractSchema.html#a1680a8fd22360f74d29b641d7257a52f" target="_top" xlink:title="ZendDbSchema_Db_Schema\l_AbstractSchema\\isExist">
<polygon fill="white" stroke="black" points="210,-729 210,-763 356,-763 356,-729 210,-729"/>
<text text-anchor="start" x="218" y="-750" font-family="Helvetica,sans-Serif" font-size="10.00">ZendDbSchema_Db_Schema</text>
<text text-anchor="middle" x="283" y="-737" font-family="Helvetica,sans-Serif" font-size="10.00">_AbstractSchema\isExist</text>
</a>
</g>
<!-- Node1&#45;&gt;Node12 -->
<g id="edge24" class="edge"><title>Node1&#45;&gt;Node12</title>
<path fill="none" stroke="midnightblue" d="M121.866,-852.052C160.556,-826.588 222.104,-786.079 256.865,-763.201"/>
<polygon fill="midnightblue" stroke="midnightblue" points="119.456,-849.448 113.027,-857.87 123.305,-855.296 119.456,-849.448"/>
</g>
<!-- Node29 -->
<g id="node66" class="node"><title>Node29</title>
<a xlink:href="classZendDbSchema__Db__Schema__AbstractSchema.html#a84673a5d69f10fec5b31294bf53f6d56" target="_top" xlink:title="ZendDbSchema_Db_Schema\l_AbstractSchema\\refresh">
<polygon fill="white" stroke="black" points="210,-52 210,-86 356,-86 356,-52 210,-52"/>
<text text-anchor="start" x="218" y="-73" font-family="Helvetica,sans-Serif" font-size="10.00">ZendDbSchema_Db_Schema</text>
<text text-anchor="middle" x="283" y="-60" font-family="Helvetica,sans-Serif" font-size="10.00">_AbstractSchema\refresh</text>
</a>
</g>
<!-- Node1&#45;&gt;Node29 -->
<g id="edge74" class="edge"><title>Node1&#45;&gt;Node29</title>
<path fill="none" stroke="midnightblue" d="M93.6303,-847.734C124.533,-720.654 253.978,-188.346 278.855,-86.0463"/>
<polygon fill="midnightblue" stroke="midnightblue" points="90.1465,-847.249 91.1844,-857.793 96.9483,-848.903 90.1465,-847.249"/>
</g>
<!-- Node3 -->
<g id="node5" class="node"><title>Node3</title>
<a xlink:href="classZendDbSchema__Db__Schema__AbstractEntity.html#a5b1c93da76c3708f90d330b4643e55b2" target="_top" xlink:title="ZendDbSchema_Db_Schema\l_AbstractEntity\\save">
<polygon fill="white" stroke="black" points="589,-1296 589,-1330 735,-1330 735,-1296 589,-1296"/>
<text text-anchor="start" x="597" y="-1317" font-family="Helvetica,sans-Serif" font-size="10.00">ZendDbSchema_Db_Schema</text>
<text text-anchor="middle" x="662" y="-1304" font-family="Helvetica,sans-Serif" font-size="10.00">_AbstractEntity\save</text>
</a>
</g>
<!-- Node2&#45;&gt;Node3 -->
<g id="edge4" class="edge"><title>Node2&#45;&gt;Node3</title>
<path fill="none" stroke="midnightblue" d="M305.067,-1256.61C325.33,-1277.21 357.389,-1305.1 392,-1317 455.84,-1338.95 533.289,-1334.94 588.839,-1327.23"/>
<polygon fill="midnightblue" stroke="midnightblue" points="307.34,-1253.92 297.898,-1249.11 302.283,-1258.76 307.34,-1253.92"/>
</g>
<!-- Node4 -->
<g id="node7" class="node"><title>Node4</title>
<a xlink:href="classZendDbSchema__Db__Schema__AbstractSchema.html#ada5af8e6e7a4c5407b7ca67d03900b31" target="_top" xlink:title="ZendDbSchema_Db_Schema\l_AbstractSchema\\toSql">
<polygon fill="white" stroke="black" points="397,-1274 397,-1308 543,-1308 543,-1274 397,-1274"/>
<text text-anchor="start" x="405" y="-1295" font-family="Helvetica,sans-Serif" font-size="10.00">ZendDbSchema_Db_Schema</text>
<text text-anchor="middle" x="470" y="-1282" font-family="Helvetica,sans-Serif" font-size="10.00">_AbstractSchema\toSql</text>
</a>
</g>
<!-- Node2&#45;&gt;Node4 -->
<g id="edge6" class="edge"><title>Node2&#45;&gt;Node4</title>
<path fill="none" stroke="midnightblue" d="M346.889,-1252.16C369.387,-1259.26 394.435,-1267.16 416.033,-1273.97"/>
<polygon fill="midnightblue" stroke="midnightblue" points="347.678,-1248.74 337.088,-1249.07 345.572,-1255.41 347.678,-1248.74"/>
</g>
<!-- Node6 -->
<g id="node12" class="node"><title>Node6</title>
<a xlink:href="classZendDbSchema__Db__Schema__Generator__Mysql__Database.html#a98cc5d4cbab5e5c8b32d7b02fa9cb0dc" target="_top" xlink:title="ZendDbSchema_Db_Schema\l_Generator_Mysql_Database\l\\alterDatabase">
<polygon fill="white" stroke="black" points="397,-1142.5 397,-1189.5 543,-1189.5 543,-1142.5 397,-1142.5"/>
<text text-anchor="start" x="405" y="-1176.5" font-family="Helvetica,sans-Serif" font-size="10.00">ZendDbSchema_Db_Schema</text>
<text text-anchor="start" x="405" y="-1163.5" font-family="Helvetica,sans-Serif" font-size="10.00">_Generator_Mysql_Database</text>
<text text-anchor="middle" x="470" y="-1150.5" font-family="Helvetica,sans-Serif" font-size="10.00">\alterDatabase</text>
</a>
</g>
<!-- Node2&#45;&gt;Node6 -->
<g id="edge12" class="edge"><title>Node2&#45;&gt;Node6</title>
<path fill="none" stroke="midnightblue" d="M341.101,-1211.49C360.808,-1204.54 382.976,-1196.71 403.299,-1189.54"/>
<polygon fill="midnightblue" stroke="midnightblue" points="339.909,-1208.2 331.644,-1214.83 342.239,-1214.8 339.909,-1208.2"/>
</g>
<!-- Node7 -->
<g id="node14" class="node"><title>Node7</title>
<a xlink:href="classZendDbSchema__Db__Schema__Generator__Pgsql__Database.html#a4d4b5c6abc51a4ab72fc480602f502c3" target="_top" xlink:title="ZendDbSchema_Db_Schema\l_Generator_Pgsql_Database\l\\alterDatabase">
<polygon fill="white" stroke="black" points="397,-1208.5 397,-1255.5 543,-1255.5 543,-1208.5 397,-1208.5"/>
<text text-anchor="start" x="405" y="-1242.5" font-family="Helvetica,sans-Serif" font-size="10.00">ZendDbSchema_Db_Schema</text>
<text text-anchor="start" x="405" y="-1229.5" font-family="Helvetica,sans-Serif" font-size="10.00">_Generator_Pgsql_Database</text>
<text text-anchor="middle" x="470" y="-1216.5" font-family="Helvetica,sans-Serif" font-size="10.00">\alterDatabase</text>
</a>
</g>
<!-- Node2&#45;&gt;Node7 -->
<g id="edge14" class="edge"><title>Node2&#45;&gt;Node7</title>
<path fill="none" stroke="midnightblue" d="M366.259,-1232C376.489,-1232 386.885,-1232 396.948,-1232"/>
<polygon fill="midnightblue" stroke="midnightblue" points="366.103,-1228.5 356.103,-1232 366.102,-1235.5 366.103,-1228.5"/>
</g>
<!-- Node4&#45;&gt;Node3 -->
<g id="edge8" class="edge"><title>Node4&#45;&gt;Node3</title>
<path fill="none" stroke="midnightblue" d="M553.394,-1300.56C565.163,-1301.9 577.191,-1303.28 588.751,-1304.61"/>
<polygon fill="midnightblue" stroke="midnightblue" points="553.468,-1297.04 543.135,-1299.38 552.671,-1304 553.468,-1297.04"/>
</g>
<!-- Node5 -->
<g id="node10" class="node"><title>Node5</title>
<a xlink:href="classZendDbSchema__Db__Schema__AbstractSchema.html#aafc458a7c19c74314889da4a99e457ff" target="_top" xlink:title="ZendDbSchema_Db_Schema\l_AbstractSchema\\__toString">
<polygon fill="white" stroke="black" points="589,-1244 589,-1278 735,-1278 735,-1244 589,-1244"/>
<text text-anchor="start" x="597" y="-1265" font-family="Helvetica,sans-Serif" font-size="10.00">ZendDbSchema_Db_Schema</text>
<text text-anchor="middle" x="662" y="-1252" font-family="Helvetica,sans-Serif" font-size="10.00">_AbstractSchema\__toString</text>
</a>
</g>
<!-- Node4&#45;&gt;Node5 -->
<g id="edge10" class="edge"><title>Node4&#45;&gt;Node5</title>
<path fill="none" stroke="midnightblue" d="M553.037,-1278.03C564.92,-1276.17 577.074,-1274.27 588.751,-1272.45"/>
<polygon fill="midnightblue" stroke="midnightblue" points="552.474,-1274.57 543.135,-1279.57 553.555,-1281.49 552.474,-1274.57"/>
</g>
<!-- Node9 -->
<g id="node18" class="node"><title>Node9</title>
<a xlink:href="classZendDbSchema__Db__Schema__Generator__Mysql__Table.html#ab073dc755f15a13bd94772846df4249c" target="_top" xlink:title="ZendDbSchema_Db_Schema\l_Generator_Mysql_Table\l\\alterTable">
<polygon fill="white" stroke="black" points="397,-1076.5 397,-1123.5 543,-1123.5 543,-1076.5 397,-1076.5"/>
<text text-anchor="start" x="405" y="-1110.5" font-family="Helvetica,sans-Serif" font-size="10.00">ZendDbSchema_Db_Schema</text>
<text text-anchor="start" x="405" y="-1097.5" font-family="Helvetica,sans-Serif" font-size="10.00">_Generator_Mysql_Table</text>
<text text-anchor="middle" x="470" y="-1084.5" font-family="Helvetica,sans-Serif" font-size="10.00">\alterTable</text>
</a>
</g>
<!-- Node8&#45;&gt;Node9 -->
<g id="edge18" class="edge"><title>Node8&#45;&gt;Node9</title>
<path fill="none" stroke="midnightblue" d="M318.842,-1026.22C339.814,-1038.84 367.007,-1054.55 392,-1067 398.449,-1070.21 405.287,-1073.4 412.128,-1076.47"/>
<polygon fill="midnightblue" stroke="midnightblue" points="320.625,-1023.21 310.258,-1021.02 316.998,-1029.19 320.625,-1023.21"/>
</g>
<!-- Node10 -->
<g id="node20" class="node"><title>Node10</title>
<a xlink:href="classZendDbSchema__Db__Schema__Generator__Pgsql__Table.html#a5273ef7520b31135bc524b432754762d" target="_top" xlink:title="ZendDbSchema_Db_Schema\l_Generator_Pgsql_Table\l\\alterTable">
<polygon fill="white" stroke="black" points="397,-1010.5 397,-1057.5 543,-1057.5 543,-1010.5 397,-1010.5"/>
<text text-anchor="start" x="405" y="-1044.5" font-family="Helvetica,sans-Serif" font-size="10.00">ZendDbSchema_Db_Schema</text>
<text text-anchor="start" x="405" y="-1031.5" font-family="Helvetica,sans-Serif" font-size="10.00">_Generator_Pgsql_Table</text>
<text text-anchor="middle" x="470" y="-1018.5" font-family="Helvetica,sans-Serif" font-size="10.00">\alterTable</text>
</a>
</g>
<!-- Node8&#45;&gt;Node10 -->
<g id="edge20" class="edge"><title>Node8&#45;&gt;Node10</title>
<path fill="none" stroke="midnightblue" d="M366.259,-1017.36C376.489,-1019 386.885,-1020.67 396.948,-1022.28"/>
<polygon fill="midnightblue" stroke="midnightblue" points="366.531,-1013.86 356.103,-1015.73 365.422,-1020.77 366.531,-1013.86"/>
</g>
<!-- Node11 -->
<g id="node22" class="node"><title>Node11</title>
<a xlink:href="classZendDbSchema__Db__Schema__Table.html#a6178edaeea7e08d97e2196dd991532f9" target="_top" xlink:title="ZendDbSchema_Db_Schema\l_Table\\toSql">
<polygon fill="white" stroke="black" points="397,-958 397,-992 543,-992 543,-958 397,-958"/>
<text text-anchor="start" x="405" y="-979" font-family="Helvetica,sans-Serif" font-size="10.00">ZendDbSchema_Db_Schema</text>
<text text-anchor="middle" x="470" y="-966" font-family="Helvetica,sans-Serif" font-size="10.00">_Table\toSql</text>
</a>
</g>
<!-- Node8&#45;&gt;Node11 -->
<g id="edge22" class="edge"><title>Node8&#45;&gt;Node11</title>
<path fill="none" stroke="midnightblue" d="M366.259,-991.088C376.489,-989.502 386.885,-987.89 396.948,-986.329"/>
<polygon fill="midnightblue" stroke="midnightblue" points="365.448,-987.672 356.103,-992.663 366.521,-994.589 365.448,-987.672"/>
</g>
<!-- Node12&#45;&gt;Node3 -->
<g id="edge26" class="edge"><title>Node12&#45;&gt;Node3</title>
<path fill="none" stroke="midnightblue" d="M293.206,-772.677C308.753,-809.626 341.947,-875.795 392,-911 450.369,-952.054 501,-895.303 548,-949 647.499,-1062.68 489.292,-1169.3 584,-1287 586.685,-1290.34 589.811,-1293.25 593.239,-1295.79"/>
<polygon fill="midnightblue" stroke="midnightblue" points="296.309,-771.016 289.29,-763.08 289.828,-773.661 296.309,-771.016"/>
</g>
<!-- Node12&#45;&gt;Node4 -->
<g id="edge36" class="edge"><title>Node12&#45;&gt;Node4</title>
<path fill="none" stroke="midnightblue" d="M293.086,-772.558C308.896,-815.233 339.418,-901.997 356,-978 369.702,-1040.8 351.238,-1215.3 392,-1265 394.806,-1268.42 398.076,-1271.4 401.657,-1273.98"/>
<polygon fill="midnightblue" stroke="midnightblue" points="296.358,-771.317 289.582,-763.173 289.8,-773.766 296.358,-771.317"/>
</g>
<!-- Node12&#45;&gt;Node6 -->
<g id="edge38" class="edge"><title>Node12&#45;&gt;Node6</title>
<path fill="none" stroke="midnightblue" d="M292.147,-772.733C306.683,-815.702 335.503,-902.926 356,-978 374.627,-1046.23 346.473,-1078.88 392,-1133 394.934,-1136.49 398.302,-1139.62 401.954,-1142.42"/>
<polygon fill="midnightblue" stroke="midnightblue" points="295.385,-771.383 288.856,-763.039 288.757,-773.633 295.385,-771.383"/>
</g>
<!-- Node12&#45;&gt;Node7 -->
<g id="edge42" class="edge"><title>Node12&#45;&gt;Node7</title>
<path fill="none" stroke="midnightblue" d="M292.757,-772.633C308.116,-815.411 338.026,-902.314 356,-978 378.994,-1074.82 330.513,-1120.75 392,-1199 394.725,-1202.47 397.883,-1205.58 401.335,-1208.36"/>
<polygon fill="midnightblue" stroke="midnightblue" points="296.048,-771.44 289.358,-763.224 289.464,-773.818 296.048,-771.44"/>
</g>
<!-- Node12&#45;&gt;Node9 -->
<g id="edge46" class="edge"><title>Node12&#45;&gt;Node9</title>
<path fill="none" stroke="midnightblue" d="M291.559,-773.172C315.403,-848.591 381.523,-1055.73 392,-1067 395.204,-1070.45 398.825,-1073.55 402.71,-1076.33"/>
<polygon fill="midnightblue" stroke="midnightblue" points="294.834,-771.92 288.485,-763.439 288.159,-774.028 294.834,-771.92"/>
</g>
<!-- Node12&#45;&gt;Node10 -->
<g id="edge58" class="edge"><title>Node12&#45;&gt;Node10</title>
<path fill="none" stroke="midnightblue" d="M287.628,-772.982C297.711,-824.031 326.246,-935.489 392,-1001 395.437,-1004.42 399.285,-1007.51 403.379,-1010.3"/>
<polygon fill="midnightblue" stroke="midnightblue" points="291.046,-772.22 285.75,-763.044 284.168,-773.52 291.046,-772.22"/>
</g>
<!-- Node12&#45;&gt;Node11 -->
<g id="edge70" class="edge"><title>Node12&#45;&gt;Node11</title>
<path fill="none" stroke="midnightblue" d="M291.099,-772.633C305.128,-814.575 337.769,-896.154 392,-944 398.228,-949.495 405.55,-954.08 413.17,-957.888"/>
<polygon fill="midnightblue" stroke="midnightblue" points="294.423,-771.539 288.006,-763.108 287.765,-773.7 294.423,-771.539"/>
</g>
<!-- Node13 -->
<g id="node27" class="node"><title>Node13</title>
<a xlink:href="classZendDbSchema__Db__Schema__AbstractEntity.html#a26fcff2268495fcdbfa265f394ee93d9" target="_top" xlink:title="ZendDbSchema_Db_Schema\l_AbstractEntity\\delete">
<polygon fill="white" stroke="black" points="589,-549 589,-583 735,-583 735,-549 589,-549"/>
<text text-anchor="start" x="597" y="-570" font-family="Helvetica,sans-Serif" font-size="10.00">ZendDbSchema_Db_Schema</text>
<text text-anchor="middle" x="662" y="-557" font-family="Helvetica,sans-Serif" font-size="10.00">_AbstractEntity\delete</text>
</a>
</g>
<!-- Node12&#45;&gt;Node13 -->
<g id="edge28" class="edge"><title>Node12&#45;&gt;Node13</title>
<path fill="none" stroke="midnightblue" d="M346.744,-726.059C361.555,-721.605 377.292,-717.015 392,-713 460.842,-694.21 485.408,-709.272 548,-675 590.992,-651.46 629.598,-607.548 648.932,-583.262"/>
<polygon fill="midnightblue" stroke="midnightblue" points="345.721,-722.712 337.164,-728.96 347.749,-729.412 345.721,-722.712"/>
</g>
<!-- Node14 -->
<g id="node29" class="node"><title>Node14</title>
<a xlink:href="classZendDbSchema__Db__Schema__AbstractSchema.html#aec661ede88f500caaf2a09e98c31d3b0" target="_top" xlink:title="ZendDbSchema_Db_Schema\l_AbstractSchema\\getDropSql">
<polygon fill="white" stroke="black" points="397,-368 397,-402 543,-402 543,-368 397,-368"/>
<text text-anchor="start" x="405" y="-389" font-family="Helvetica,sans-Serif" font-size="10.00">ZendDbSchema_Db_Schema</text>
<text text-anchor="middle" x="470" y="-376" font-family="Helvetica,sans-Serif" font-size="10.00">_AbstractSchema\getDropSql</text>
</a>
</g>
<!-- Node12&#45;&gt;Node14 -->
<g id="edge30" class="edge"><title>Node12&#45;&gt;Node14</title>
<path fill="none" stroke="midnightblue" d="M288.576,-718.691C303.711,-647.005 347.426,-455.895 392,-411 395.319,-407.657 399.078,-404.744 403.109,-402.206"/>
<polygon fill="midnightblue" stroke="midnightblue" points="285.093,-718.247 286.475,-728.751 291.945,-719.678 285.093,-718.247"/>
</g>
<!-- Node16 -->
<g id="node36" class="node"><title>Node16</title>
<a xlink:href="classZendDbSchema__Db__Schema__Generator__Mysql__Database.html#a94a1d9e8d2eaa3740bd9b62cc3a8973e" target="_top" xlink:title="ZendDbSchema_Db_Schema\l_Generator_Mysql_Database\l\\dropDatabase">
<polygon fill="white" stroke="black" points="397,-788.5 397,-835.5 543,-835.5 543,-788.5 397,-788.5"/>
<text text-anchor="start" x="405" y="-822.5" font-family="Helvetica,sans-Serif" font-size="10.00">ZendDbSchema_Db_Schema</text>
<text text-anchor="start" x="405" y="-809.5" font-family="Helvetica,sans-Serif" font-size="10.00">_Generator_Mysql_Database</text>
<text text-anchor="middle" x="470" y="-796.5" font-family="Helvetica,sans-Serif" font-size="10.00">\dropDatabase</text>
</a>
</g>
<!-- Node12&#45;&gt;Node16 -->
<g id="edge40" class="edge"><title>Node12&#45;&gt;Node16</title>
<path fill="none" stroke="midnightblue" d="M341.101,-766.506C360.808,-773.462 382.976,-781.286 403.299,-788.459"/>
<polygon fill="midnightblue" stroke="midnightblue" points="342.239,-763.196 331.644,-763.168 339.909,-769.797 342.239,-763.196"/>
</g>
<!-- Node17 -->
<g id="node39" class="node"><title>Node17</title>
<a xlink:href="classZendDbSchema__Db__Schema__Generator__Pgsql__Database.html#ad5abe9239fea98c39605aeb77f6ca268" target="_top" xlink:title="ZendDbSchema_Db_Schema\l_Generator_Pgsql_Database\l\\dropDatabase">
<polygon fill="white" stroke="black" points="397,-722.5 397,-769.5 543,-769.5 543,-722.5 397,-722.5"/>
<text text-anchor="start" x="405" y="-756.5" font-family="Helvetica,sans-Serif" font-size="10.00">ZendDbSchema_Db_Schema</text>
<text text-anchor="start" x="405" y="-743.5" font-family="Helvetica,sans-Serif" font-size="10.00">_Generator_Pgsql_Database</text>
<text text-anchor="middle" x="470" y="-730.5" font-family="Helvetica,sans-Serif" font-size="10.00">\dropDatabase</text>
</a>
</g>
<!-- Node12&#45;&gt;Node17 -->
<g id="edge44" class="edge"><title>Node12&#45;&gt;Node17</title>
<path fill="none" stroke="midnightblue" d="M366.259,-746C376.489,-746 386.885,-746 396.948,-746"/>
<polygon fill="midnightblue" stroke="midnightblue" points="366.103,-742.5 356.103,-746 366.102,-749.5 366.103,-742.5"/>
</g>
<!-- Node18 -->
<g id="node42" class="node"><title>Node18</title>
<a xlink:href="classZendDbSchema__Db__Schema__Generator__Mysql__Table.html#a83d5cec1c67e8961773da5a47d213301" target="_top" xlink:title="ZendDbSchema_Db_Schema\l_Generator_Mysql_Table\l\\dropTable">
<polygon fill="white" stroke="black" points="397,-618.5 397,-665.5 543,-665.5 543,-618.5 397,-618.5"/>
<text text-anchor="start" x="405" y="-652.5" font-family="Helvetica,sans-Serif" font-size="10.00">ZendDbSchema_Db_Schema</text>
<text text-anchor="start" x="405" y="-639.5" font-family="Helvetica,sans-Serif" font-size="10.00">_Generator_Mysql_Table</text>
<text text-anchor="middle" x="470" y="-626.5" font-family="Helvetica,sans-Serif" font-size="10.00">\dropTable</text>
</a>
</g>
<!-- Node12&#45;&gt;Node18 -->
<g id="edge48" class="edge"><title>Node12&#45;&gt;Node18</title>
<path fill="none" stroke="midnightblue" d="M318.544,-723.353C339.619,-710.209 367.014,-693.614 392,-680 400.862,-675.171 410.428,-670.267 419.723,-665.658"/>
<polygon fill="midnightblue" stroke="midnightblue" points="316.538,-720.479 309.924,-728.756 320.256,-726.411 316.538,-720.479"/>
</g>
<!-- Node19 -->
<g id="node44" class="node"><title>Node19</title>
<a xlink:href="classZendDbSchema__Db__Schema__Generator__Mysql__Table.html#aa8814727b4633316559e8865c62d9146" target="_top" xlink:title="ZendDbSchema_Db_Schema\l_Generator_Mysql_Table\l\\alterColumn">
<polygon fill="white" stroke="black" points="397,-552.5 397,-599.5 543,-599.5 543,-552.5 397,-552.5"/>
<text text-anchor="start" x="405" y="-586.5" font-family="Helvetica,sans-Serif" font-size="10.00">ZendDbSchema_Db_Schema</text>
<text text-anchor="start" x="405" y="-573.5" font-family="Helvetica,sans-Serif" font-size="10.00">_Generator_Mysql_Table</text>
<text text-anchor="middle" x="470" y="-560.5" font-family="Helvetica,sans-Serif" font-size="10.00">\alterColumn</text>
</a>
</g>
<!-- Node12&#45;&gt;Node19 -->
<g id="edge50" class="edge"><title>Node12&#45;&gt;Node19</title>
<path fill="none" stroke="midnightblue" d="M297.881,-720.301C316.502,-690.096 350.979,-640.151 392,-609 396.45,-605.621 401.297,-602.518 406.326,-599.683"/>
<polygon fill="midnightblue" stroke="midnightblue" points="294.801,-718.63 292.622,-728.999 300.791,-722.253 294.801,-718.63"/>
</g>
<!-- Node20 -->
<g id="node46" class="node"><title>Node20</title>
<a xlink:href="classZendDbSchema__Db__Schema__Generator__Mysql__Table.html#ab62df69dc345afb27186d6eecc66e753" target="_top" xlink:title="ZendDbSchema_Db_Schema\l_Generator_Mysql_Table\l\\createIndex">
<polygon fill="white" stroke="black" points="397,-104.5 397,-151.5 543,-151.5 543,-104.5 397,-104.5"/>
<text text-anchor="start" x="405" y="-138.5" font-family="Helvetica,sans-Serif" font-size="10.00">ZendDbSchema_Db_Schema</text>
<text text-anchor="start" x="405" y="-125.5" font-family="Helvetica,sans-Serif" font-size="10.00">_Generator_Mysql_Table</text>
<text text-anchor="middle" x="470" y="-112.5" font-family="Helvetica,sans-Serif" font-size="10.00">\createIndex</text>
</a>
</g>
<!-- Node12&#45;&gt;Node20 -->
<g id="edge52" class="edge"><title>Node12&#45;&gt;Node20</title>
<path fill="none" stroke="midnightblue" d="M284.704,-718.765C291.666,-615.47 321.014,-249.254 392,-161 394.765,-157.563 397.953,-154.478 401.427,-151.71"/>
<polygon fill="midnightblue" stroke="midnightblue" points="281.196,-718.775 284.032,-728.983 288.181,-719.235 281.196,-718.775"/>
</g>
<!-- Node22 -->
<g id="node50" class="node"><title>Node22</title>
<a xlink:href="classZendDbSchema__Db__Schema__Generator__Mysql__Table.html#a3b806bcbce70989120035d56ee12071c" target="_top" xlink:title="ZendDbSchema_Db_Schema\l_Generator_Mysql_Table\l\\alterForeignKey">
<polygon fill="white" stroke="black" points="397,-486.5 397,-533.5 543,-533.5 543,-486.5 397,-486.5"/>
<text text-anchor="start" x="405" y="-520.5" font-family="Helvetica,sans-Serif" font-size="10.00">ZendDbSchema_Db_Schema</text>
<text text-anchor="start" x="405" y="-507.5" font-family="Helvetica,sans-Serif" font-size="10.00">_Generator_Mysql_Table</text>
<text text-anchor="middle" x="470" y="-494.5" font-family="Helvetica,sans-Serif" font-size="10.00">\alterForeignKey</text>
</a>
</g>
<!-- Node12&#45;&gt;Node22 -->
<g id="edge56" class="edge"><title>Node12&#45;&gt;Node22</title>
<path fill="none" stroke="midnightblue" d="M290.934,-719.159C304.822,-676.454 337.377,-592.79 392,-543 395.803,-539.533 400.025,-536.398 404.479,-533.567"/>
<polygon fill="midnightblue" stroke="midnightblue" points="287.549,-718.255 287.878,-728.845 294.225,-720.362 287.549,-718.255"/>
</g>
<!-- Node23 -->
<g id="node53" class="node"><title>Node23</title>
<a xlink:href="classZendDbSchema__Db__Schema__Generator__Pgsql__Table.html#abfd240c872df10ff0b021ff86af52641" target="_top" xlink:title="ZendDbSchema_Db_Schema\l_Generator_Pgsql_Table\l\\dropTable">
<polygon fill="white" stroke="black" points="397,-420.5 397,-467.5 543,-467.5 543,-420.5 397,-420.5"/>
<text text-anchor="start" x="405" y="-454.5" font-family="Helvetica,sans-Serif" font-size="10.00">ZendDbSchema_Db_Schema</text>
<text text-anchor="start" x="405" y="-441.5" font-family="Helvetica,sans-Serif" font-size="10.00">_Generator_Pgsql_Table</text>
<text text-anchor="middle" x="470" y="-428.5" font-family="Helvetica,sans-Serif" font-size="10.00">\dropTable</text>
</a>
</g>
<!-- Node12&#45;&gt;Node23 -->
<g id="edge60" class="edge"><title>Node12&#45;&gt;Node23</title>
<path fill="none" stroke="midnightblue" d="M286.995,-718.668C296.143,-665.372 323.361,-546.694 392,-477 395.405,-473.543 399.228,-470.429 403.305,-467.626"/>
<polygon fill="midnightblue" stroke="midnightblue" points="283.512,-718.281 285.354,-728.715 290.421,-719.41 283.512,-718.281"/>
</g>
<!-- Node24 -->
<g id="node55" class="node"><title>Node24</title>
<a xlink:href="classZendDbSchema__Db__Schema__Generator__Pgsql__Table.html#a2530efde9e464bbbcfbd166c622023d0" target="_top" xlink:title="ZendDbSchema_Db_Schema\l_Generator_Pgsql_Table\l\\alterColumn">
<polygon fill="white" stroke="black" points="397,-302.5 397,-349.5 543,-349.5 543,-302.5 397,-302.5"/>
<text text-anchor="start" x="405" y="-336.5" font-family="Helvetica,sans-Serif" font-size="10.00">ZendDbSchema_Db_Schema</text>
<text text-anchor="start" x="405" y="-323.5" font-family="Helvetica,sans-Serif" font-size="10.00">_Generator_Pgsql_Table</text>
<text text-anchor="middle" x="470" y="-310.5" font-family="Helvetica,sans-Serif" font-size="10.00">\alterColumn</text>
</a>
</g>
<!-- Node12&#45;&gt;Node24 -->
<g id="edge62" class="edge"><title>Node12&#45;&gt;Node24</title>
<path fill="none" stroke="midnightblue" d="M287.576,-718.462C301.187,-639.426 343.505,-414.008 392,-359 395.014,-355.581 398.442,-352.506 402.14,-349.742"/>
<polygon fill="midnightblue" stroke="midnightblue" points="284.076,-718.165 285.848,-728.61 290.977,-719.339 284.076,-718.165"/>
</g>
<!-- Node25 -->
<g id="node57" class="node"><title>Node25</title>
<a xlink:href="classZendDbSchema__Db__Schema__Generator__Pgsql__Table.html#a8bbaca639d104255bc1eeebb0c2f7da7" target="_top" xlink:title="ZendDbSchema_Db_Schema\l_Generator_Pgsql_Table\l\\createIndex">
<polygon fill="white" stroke="black" points="397,-854.5 397,-901.5 543,-901.5 543,-854.5 397,-854.5"/>
<text text-anchor="start" x="405" y="-888.5" font-family="Helvetica,sans-Serif" font-size="10.00">ZendDbSchema_Db_Schema</text>
<text text-anchor="start" x="405" y="-875.5" font-family="Helvetica,sans-Serif" font-size="10.00">_Generator_Pgsql_Table</text>
<text text-anchor="middle" x="470" y="-862.5" font-family="Helvetica,sans-Serif" font-size="10.00">\createIndex</text>
</a>
</g>
<!-- Node12&#45;&gt;Node25 -->
<g id="edge64" class="edge"><title>Node12&#45;&gt;Node25</title>
<path fill="none" stroke="midnightblue" d="M305.656,-770.872C326.468,-792.609 359.005,-823.907 392,-845 397.203,-848.326 402.799,-851.449 408.517,-854.346"/>
<polygon fill="midnightblue" stroke="midnightblue" points="307.949,-768.202 298.539,-763.332 302.858,-773.007 307.949,-768.202"/>
</g>
<!-- Node27 -->
<g id="node61" class="node"><title>Node27</title>
<a xlink:href="classZendDbSchema__Db__Schema__Generator__Pgsql__Table.html#af690e11fe350fcc7da00de979233e2b5" target="_top" xlink:title="ZendDbSchema_Db_Schema\l_Generator_Pgsql_Table\l\\alterForeignKey">
<polygon fill="white" stroke="black" points="397,-236.5 397,-283.5 543,-283.5 543,-236.5 397,-236.5"/>
<text text-anchor="start" x="405" y="-270.5" font-family="Helvetica,sans-Serif" font-size="10.00">ZendDbSchema_Db_Schema</text>
<text text-anchor="start" x="405" y="-257.5" font-family="Helvetica,sans-Serif" font-size="10.00">_Generator_Pgsql_Table</text>
<text text-anchor="middle" x="470" y="-244.5" font-family="Helvetica,sans-Serif" font-size="10.00">\alterForeignKey</text>
</a>
</g>
<!-- Node12&#45;&gt;Node27 -->
<g id="edge68" class="edge"><title>Node12&#45;&gt;Node27</title>
<path fill="none" stroke="midnightblue" d="M286.308,-718.839C297.438,-631.394 336.002,-359.034 392,-293 394.948,-289.524 398.326,-286.405 401.986,-283.609"/>
<polygon fill="midnightblue" stroke="midnightblue" points="282.832,-718.429 285.059,-728.788 289.777,-719.301 282.832,-718.429"/>
</g>
<!-- Node28 -->
<g id="node64" class="node"><title>Node28</title>
<a xlink:href="classZendDbSchema__Db__Schema__Table__AbstractDefinition.html#a018fe3e134417675da482608579910a5" target="_top" xlink:title="ZendDbSchema_Db_Schema\l_Table_AbstractDefinition\l\\markDeleted">
<polygon fill="white" stroke="black" points="397,-170.5 397,-217.5 543,-217.5 543,-170.5 397,-170.5"/>
<text text-anchor="start" x="405" y="-204.5" font-family="Helvetica,sans-Serif" font-size="10.00">ZendDbSchema_Db_Schema</text>
<text text-anchor="start" x="405" y="-191.5" font-family="Helvetica,sans-Serif" font-size="10.00">_Table_AbstractDefinition</text>
<text text-anchor="middle" x="470" y="-178.5" font-family="Helvetica,sans-Serif" font-size="10.00">\markDeleted</text>
</a>
</g>
<!-- Node12&#45;&gt;Node28 -->
<g id="edge72" class="edge"><title>Node12&#45;&gt;Node28</title>
<path fill="none" stroke="midnightblue" d="M285.411,-718.76C294.37,-623.09 328.538,-304.083 392,-227 394.897,-223.481 398.236,-220.33 401.868,-217.51"/>
<polygon fill="midnightblue" stroke="midnightblue" points="281.918,-718.521 284.487,-728.799 288.889,-719.162 281.918,-718.521"/>
</g>
<!-- Node14&#45;&gt;Node13 -->
<g id="edge32" class="edge"><title>Node14&#45;&gt;Node13</title>
<path fill="none" stroke="midnightblue" d="M542.163,-407.107C544.173,-408.338 546.125,-409.635 548,-411 599.854,-448.744 638.052,-517.06 653.91,-548.858"/>
<polygon fill="midnightblue" stroke="midnightblue" points="543.477,-403.837 533.023,-402.118 540.123,-409.982 543.477,-403.837"/>
</g>
<!-- Node15 -->
<g id="node32" class="node"><title>Node15</title>
<a xlink:href="classZendDbSchema__Db__Schema__Table__AbstractDefinition.html#a75c1b3ef1005c2d6aa371ecef07d530d" target="_top" xlink:title="ZendDbSchema_Db_Schema\l_Table_AbstractDefinition\\toSql">
<polygon fill="white" stroke="black" points="584.5,-368 584.5,-402 739.5,-402 739.5,-368 584.5,-368"/>
<text text-anchor="start" x="592.5" y="-389" font-family="Helvetica,sans-Serif" font-size="10.00">ZendDbSchema_Db_Schema</text>
<text text-anchor="middle" x="662" y="-376" font-family="Helvetica,sans-Serif" font-size="10.00">_Table_AbstractDefinition\toSql</text>
</a>
</g>
<!-- Node14&#45;&gt;Node15 -->
<g id="edge34" class="edge"><title>Node14&#45;&gt;Node15</title>
<path fill="none" stroke="midnightblue" d="M553.33,-385C563.609,-385 574.086,-385 584.277,-385"/>
<polygon fill="midnightblue" stroke="midnightblue" points="553.135,-381.5 543.135,-385 553.135,-388.5 553.135,-381.5"/>
</g>
<!-- Node21 -->
<g id="node48" class="node"><title>Node21</title>
<a xlink:href="classZendDbSchema__Db__Schema__Generator__Mysql__Table.html#a60e78ff04eba0a328b1df8ff7abbcd04" target="_top" xlink:title="ZendDbSchema_Db_Schema\l_Generator_Mysql_Table\l\\alterIndex">
<polygon fill="white" stroke="black" points="589,-104.5 589,-151.5 735,-151.5 735,-104.5 589,-104.5"/>
<text text-anchor="start" x="597" y="-138.5" font-family="Helvetica,sans-Serif" font-size="10.00">ZendDbSchema_Db_Schema</text>
<text text-anchor="start" x="597" y="-125.5" font-family="Helvetica,sans-Serif" font-size="10.00">_Generator_Mysql_Table</text>
<text text-anchor="middle" x="662" y="-112.5" font-family="Helvetica,sans-Serif" font-size="10.00">\alterIndex</text>
</a>
</g>
<!-- Node20&#45;&gt;Node21 -->
<g id="edge54" class="edge"><title>Node20&#45;&gt;Node21</title>
<path fill="none" stroke="midnightblue" d="M553.394,-128C565.163,-128 577.191,-128 588.751,-128"/>
<polygon fill="midnightblue" stroke="midnightblue" points="553.135,-124.5 543.135,-128 553.135,-131.5 553.135,-124.5"/>
</g>
<!-- Node26 -->
<g id="node59" class="node"><title>Node26</title>
<a xlink:href="classZendDbSchema__Db__Schema__Generator__Pgsql__Table.html#aad7fecb50c0c15801fc00e5dffc69910" target="_top" xlink:title="ZendDbSchema_Db_Schema\l_Generator_Pgsql_Table\l\\alterIndex">
<polygon fill="white" stroke="black" points="589,-854.5 589,-901.5 735,-901.5 735,-854.5 589,-854.5"/>
<text text-anchor="start" x="597" y="-888.5" font-family="Helvetica,sans-Serif" font-size="10.00">ZendDbSchema_Db_Schema</text>
<text text-anchor="start" x="597" y="-875.5" font-family="Helvetica,sans-Serif" font-size="10.00">_Generator_Pgsql_Table</text>
<text text-anchor="middle" x="662" y="-862.5" font-family="Helvetica,sans-Serif" font-size="10.00">\alterIndex</text>
</a>
</g>
<!-- Node25&#45;&gt;Node26 -->
<g id="edge66" class="edge"><title>Node25&#45;&gt;Node26</title>
<path fill="none" stroke="midnightblue" d="M553.394,-878C565.163,-878 577.191,-878 588.751,-878"/>
<polygon fill="midnightblue" stroke="midnightblue" points="553.135,-874.5 543.135,-878 553.135,-881.5 553.135,-874.5"/>
</g>
<!-- Node30 -->
<g id="node68" class="node"><title>Node30</title>
<a xlink:href="classZendDbSchema__Db__Schema__AbstractSchema.html#a95b8986f7fa3a4e26be024d3a621e4f6" target="_top" xlink:title="ZendDbSchema_Db_Schema\l_AbstractSchema\\__construct">
<polygon fill="white" stroke="black" points="395.5,-0 395.5,-34 544.5,-34 544.5,-0 395.5,-0"/>
<text text-anchor="start" x="403.5" y="-21" font-family="Helvetica,sans-Serif" font-size="10.00">ZendDbSchema_Db_Schema</text>
<text text-anchor="middle" x="470" y="-8" font-family="Helvetica,sans-Serif" font-size="10.00">_AbstractSchema\__construct</text>
</a>
</g>
<!-- Node29&#45;&gt;Node30 -->
<g id="edge76" class="edge"><title>Node29&#45;&gt;Node30</title>
<path fill="none" stroke="midnightblue" d="M354.075,-49.236C372.044,-44.2392 391.187,-38.9159 408.632,-34.065"/>
<polygon fill="midnightblue" stroke="midnightblue" points="352.928,-45.922 344.231,-51.9733 354.803,-52.6661 352.928,-45.922"/>
</g>
<!-- Node31 -->
<g id="node70" class="node"><title>Node31</title>
<a xlink:href="classZendDbSchema__Db__Schema__Table__PrimaryKey.html#a8189591ab7ced58307298ecc8f27779d" target="_top" xlink:title="ZendDbSchema_Db_Schema\l_Table_PrimaryKey\\__construct">
<polygon fill="white" stroke="black" points="392,-52 392,-86 548,-86 548,-52 392,-52"/>
<text text-anchor="start" x="400" y="-73" font-family="Helvetica,sans-Serif" font-size="10.00">ZendDbSchema_Db_Schema</text>
<text text-anchor="middle" x="470" y="-60" font-family="Helvetica,sans-Serif" font-size="10.00">_Table_PrimaryKey\__construct</text>
</a>
</g>
<!-- Node29&#45;&gt;Node31 -->
<g id="edge78" class="edge"><title>Node29&#45;&gt;Node31</title>
<path fill="none" stroke="midnightblue" d="M366.323,-69C374.762,-69 383.313,-69 391.697,-69"/>
<polygon fill="midnightblue" stroke="midnightblue" points="366.103,-65.5001 356.103,-69 366.102,-72.5001 366.103,-65.5001"/>
</g>
</g>
</svg>
