<?xml version="1.0" encoding="UTF-8" standalone="no"?>
<!DOCTYPE svg PUBLIC "-//W3C//DTD SVG 1.1//EN"
 "http://www.w3.org/Graphics/SVG/1.1/DTD/svg11.dtd">
<!-- Generated by graphviz version 2.26.3 (20100126.1600)
 -->
<!-- Title: G Pages: 1 -->
<svg width="344pt" height="94pt"
 viewBox="0.00 0.00 344.00 94.00" xmlns="http://www.w3.org/2000/svg" xmlns:xlink="http://www.w3.org/1999/xlink">
<g id="graph1" class="graph" transform="scale(1 1) rotate(0) translate(4 90)">
<title>G</title>
<polygon fill="white" stroke="white" points="-4,5 -4,-90 341,-90 341,5 -4,5"/>
<!-- Node1 -->
<g id="node1" class="node"><title>Node1</title>
<polygon fill="#bfbfbf" stroke="black" points="0,-26 0,-60 150,-60 150,-26 0,-26"/>
<text text-anchor="start" x="8" y="-47" font-family="Helvetica,sans-Serif" font-size="10.00">ZendDbSchema_Db_Migration</text>
<text text-anchor="middle" x="75" y="-34" font-family="Helvetica,sans-Serif" font-size="10.00">_Manager\getPrevious</text>
</g>
<!-- Node2 -->
<g id="node3" class="node"><title>Node2</title>
<a xlink:href="classZendDbSchema__Db__Migration__Manager.html#ab66af8a9dc5cdb099b8266b68166c4e0" target="_top" xlink:title="ZendDbSchema_Db_Migration\l_Manager\\getVersion">
<polygon fill="white" stroke="black" points="186,-52 186,-86 336,-86 336,-52 186,-52"/>
<text text-anchor="start" x="194" y="-73" font-family="Helvetica,sans-Serif" font-size="10.00">ZendDbSchema_Db_Migration</text>
<text text-anchor="middle" x="261" y="-60" font-family="Helvetica,sans-Serif" font-size="10.00">_Manager\getVersion</text>
</a>
</g>
<!-- Node1&#45;&gt;Node2 -->
<g id="edge2" class="edge"><title>Node1&#45;&gt;Node2</title>
<path fill="none" stroke="midnightblue" d="M150.117,-53.5003C158.596,-54.6854 167.281,-55.8994 175.875,-57.1008"/>
<polygon fill="midnightblue" stroke="midnightblue" points="175.517,-60.5846 185.905,-58.5028 176.486,-53.652 175.517,-60.5846"/>
</g>
<!-- Node3 -->
<g id="node5" class="node"><title>Node3</title>
<a xlink:href="classZendDbSchema__Db__Migration__Manager.html#a9973d07f9ffe306e00ea2f9f4beb92e4" target="_top" xlink:title="ZendDbSchema_Db_Migration\l_Manager\\hasChange">
<polygon fill="white" stroke="black" points="186,-0 186,-34 336,-34 336,-0 186,-0"/>
<text text-anchor="start" x="194" y="-21" font-family="Helvetica,sans-Serif" font-size="10.00">ZendDbSchema_Db_Migration</text>
<text text-anchor="middle" x="261" y="-8" font-family="Helvetica,sans-Serif" font-size="10.00">_Manager\hasChange</text>
</a>
</g>
<!-- Node1&#45;&gt;Node3 -->
<g id="edge4" class="edge"><title>Node1&#45;&gt;Node3</title>
<path fill="none" stroke="midnightblue" d="M150.117,-32.4997C158.596,-31.3146 167.281,-30.1006 175.875,-28.8992"/>
<polygon fill="midnightblue" stroke="midnightblue" points="176.486,-32.348 185.905,-27.4972 175.517,-25.4154 176.486,-32.348"/>
</g>
</g>
</svg>
