<?xml version="1.0" encoding="UTF-8" standalone="no"?>
<!DOCTYPE svg PUBLIC "-//W3C//DTD SVG 1.1//EN"
 "http://www.w3.org/Graphics/SVG/1.1/DTD/svg11.dtd">
<!-- Generated by graphviz version 2.26.3 (20100126.1600)
 -->
<!-- Title: G Pages: 1 -->
<svg width="518pt" height="249pt"
 viewBox="0.00 0.00 518.00 249.00" xmlns="http://www.w3.org/2000/svg" xmlns:xlink="http://www.w3.org/1999/xlink">
<g id="graph1" class="graph" transform="scale(1 1) rotate(0) translate(4 245)">
<title>G</title>
<polygon fill="white" stroke="white" points="-4,5 -4,-245 515,-245 515,5 -4,5"/>
<!-- Node1 -->
<g id="node1" class="node"><title>Node1</title>
<polygon fill="#bfbfbf" stroke="black" points="0,-82 0,-116 146,-116 146,-82 0,-82"/>
<text text-anchor="start" x="8" y="-103" font-family="Helvetica,sans-Serif" font-size="10.00">ZendDbSchema_Db_Schema</text>
<text text-anchor="middle" x="73" y="-90" font-family="Helvetica,sans-Serif" font-size="10.00">_Table_Index\getColumns</text>
</g>
<!-- Node2 -->
<g id="node3" class="node"><title>Node2</title>
<a xlink:href="classZendDbSchema__Db__Schema__Table__Index.html#a6717d976c5b0d47369d3c87ef17b1e9b" target="_top" xlink:title="ZendDbSchema_Db_Schema\l_Table_Index\\addColumn">
<polygon fill="white" stroke="black" points="364,-67 364,-101 510,-101 510,-67 364,-67"/>
<text text-anchor="start" x="372" y="-88" font-family="Helvetica,sans-Serif" font-size="10.00">ZendDbSchema_Db_Schema</text>
<text text-anchor="middle" x="437" y="-75" font-family="Helvetica,sans-Serif" font-size="10.00">_Table_Index\addColumn</text>
</a>
</g>
<!-- Node1&#45;&gt;Node2 -->
<g id="edge2" class="edge"><title>Node1&#45;&gt;Node2</title>
<path fill="none" stroke="midnightblue" d="M156.464,-95.5606C219.07,-92.9806 303.946,-89.483 363.894,-87.0126"/>
<polygon fill="midnightblue" stroke="midnightblue" points="156.07,-92.0737 146.223,-95.9826 156.359,-99.0678 156.07,-92.0737"/>
</g>
<!-- Node3 -->
<g id="node5" class="node"><title>Node3</title>
<a xlink:href="classZendDbSchema__Db__Schema__Generator__Pgsql__Table.html#a8bbaca639d104255bc1eeebb0c2f7da7" target="_top" xlink:title="ZendDbSchema_Db_Schema\l_Generator_Pgsql_Table\l\\createIndex">
<polygon fill="white" stroke="black" points="182,-193.5 182,-240.5 328,-240.5 328,-193.5 182,-193.5"/>
<text text-anchor="start" x="190" y="-227.5" font-family="Helvetica,sans-Serif" font-size="10.00">ZendDbSchema_Db_Schema</text>
<text text-anchor="start" x="190" y="-214.5" font-family="Helvetica,sans-Serif" font-size="10.00">_Generator_Pgsql_Table</text>
<text text-anchor="middle" x="255" y="-201.5" font-family="Helvetica,sans-Serif" font-size="10.00">\createIndex</text>
</a>
</g>
<!-- Node1&#45;&gt;Node3 -->
<g id="edge4" class="edge"><title>Node1&#45;&gt;Node3</title>
<path fill="none" stroke="midnightblue" d="M99.7227,-122.776C121.023,-140.983 152.13,-165.955 182,-184 187.476,-187.308 193.341,-190.493 199.279,-193.492"/>
<polygon fill="midnightblue" stroke="midnightblue" points="101.918,-120.047 92.0624,-116.158 97.3414,-125.344 101.918,-120.047"/>
</g>
<!-- Node5 -->
<g id="node9" class="node"><title>Node5</title>
<a xlink:href="classZendDbSchema__Db__Schema__Generator__Mysql__Table.html#ab62df69dc345afb27186d6eecc66e753" target="_top" xlink:title="ZendDbSchema_Db_Schema\l_Generator_Mysql_Table\l\\createIndex">
<polygon fill="white" stroke="black" points="182,-127.5 182,-174.5 328,-174.5 328,-127.5 182,-127.5"/>
<text text-anchor="start" x="190" y="-161.5" font-family="Helvetica,sans-Serif" font-size="10.00">ZendDbSchema_Db_Schema</text>
<text text-anchor="start" x="190" y="-148.5" font-family="Helvetica,sans-Serif" font-size="10.00">_Generator_Mysql_Table</text>
<text text-anchor="middle" x="255" y="-135.5" font-family="Helvetica,sans-Serif" font-size="10.00">\createIndex</text>
</a>
</g>
<!-- Node1&#45;&gt;Node5 -->
<g id="edge8" class="edge"><title>Node1&#45;&gt;Node5</title>
<path fill="none" stroke="midnightblue" d="M142.355,-118.816C155.301,-122.515 168.869,-126.391 181.924,-130.121"/>
<polygon fill="midnightblue" stroke="midnightblue" points="143.17,-115.409 132.594,-116.027 141.247,-122.139 143.17,-115.409"/>
</g>
<!-- Node7 -->
<g id="node13" class="node"><title>Node7</title>
<a xlink:href="classZendDbSchema__Db__Schema__Table__Index.html#af7c29da0f52c5270ffa3587a95295f82" target="_top" xlink:title="ZendDbSchema_Db_Schema\l_Table_Index\\hasColumn">
<polygon fill="white" stroke="black" points="182,-37 182,-71 328,-71 328,-37 182,-37"/>
<text text-anchor="start" x="190" y="-58" font-family="Helvetica,sans-Serif" font-size="10.00">ZendDbSchema_Db_Schema</text>
<text text-anchor="middle" x="255" y="-45" font-family="Helvetica,sans-Serif" font-size="10.00">_Table_Index\hasColumn</text>
</a>
</g>
<!-- Node1&#45;&gt;Node7 -->
<g id="edge12" class="edge"><title>Node1&#45;&gt;Node7</title>
<path fill="none" stroke="midnightblue" d="M151.763,-79.5255C163.192,-76.6999 174.882,-73.8093 186.096,-71.0366"/>
<polygon fill="midnightblue" stroke="midnightblue" points="150.674,-76.1894 141.806,-81.9874 152.354,-82.9848 150.674,-76.1894"/>
</g>
<!-- Node8 -->
<g id="node16" class="node"><title>Node8</title>
<a xlink:href="classZendDbSchema__Db__Schema__Table__Index.html#a3cfd358621bb3330ef9e7ffcf2f7b229" target="_top" xlink:title="ZendDbSchema_Db_Schema\l_Table_Index\\removeColumn">
<polygon fill="white" stroke="black" points="364,-0 364,-34 510,-34 510,-0 364,-0"/>
<text text-anchor="start" x="372" y="-21" font-family="Helvetica,sans-Serif" font-size="10.00">ZendDbSchema_Db_Schema</text>
<text text-anchor="middle" x="437" y="-8" font-family="Helvetica,sans-Serif" font-size="10.00">_Table_Index\removeColumn</text>
</a>
</g>
<!-- Node1&#45;&gt;Node8 -->
<g id="edge18" class="edge"><title>Node1&#45;&gt;Node8</title>
<path fill="none" stroke="midnightblue" d="M99.9809,-75.4798C120.833,-58.8621 151.243,-37.86 182,-28 241.075,-9.06177 311.801,-7.54743 363.766,-10.0635"/>
<polygon fill="midnightblue" stroke="midnightblue" points="97.7364,-72.7939 92.2039,-81.8294 102.164,-78.2162 97.7364,-72.7939"/>
</g>
<!-- Node4 -->
<g id="node7" class="node"><title>Node4</title>
<a xlink:href="classZendDbSchema__Db__Schema__Generator__Pgsql__Table.html#aad7fecb50c0c15801fc00e5dffc69910" target="_top" xlink:title="ZendDbSchema_Db_Schema\l_Generator_Pgsql_Table\l\\alterIndex">
<polygon fill="white" stroke="black" points="364,-193.5 364,-240.5 510,-240.5 510,-193.5 364,-193.5"/>
<text text-anchor="start" x="372" y="-227.5" font-family="Helvetica,sans-Serif" font-size="10.00">ZendDbSchema_Db_Schema</text>
<text text-anchor="start" x="372" y="-214.5" font-family="Helvetica,sans-Serif" font-size="10.00">_Generator_Pgsql_Table</text>
<text text-anchor="middle" x="437" y="-201.5" font-family="Helvetica,sans-Serif" font-size="10.00">\alterIndex</text>
</a>
</g>
<!-- Node3&#45;&gt;Node4 -->
<g id="edge6" class="edge"><title>Node3&#45;&gt;Node4</title>
<path fill="none" stroke="midnightblue" d="M338.516,-217C346.992,-217 355.556,-217 363.91,-217"/>
<polygon fill="midnightblue" stroke="midnightblue" points="338.24,-213.5 328.24,-217 338.24,-220.5 338.24,-213.5"/>
</g>
<!-- Node6 -->
<g id="node11" class="node"><title>Node6</title>
<a xlink:href="classZendDbSchema__Db__Schema__Generator__Mysql__Table.html#a60e78ff04eba0a328b1df8ff7abbcd04" target="_top" xlink:title="ZendDbSchema_Db_Schema\l_Generator_Mysql_Table\l\\alterIndex">
<polygon fill="white" stroke="black" points="364,-127.5 364,-174.5 510,-174.5 510,-127.5 364,-127.5"/>
<text text-anchor="start" x="372" y="-161.5" font-family="Helvetica,sans-Serif" font-size="10.00">ZendDbSchema_Db_Schema</text>
<text text-anchor="start" x="372" y="-148.5" font-family="Helvetica,sans-Serif" font-size="10.00">_Generator_Mysql_Table</text>
<text text-anchor="middle" x="437" y="-135.5" font-family="Helvetica,sans-Serif" font-size="10.00">\alterIndex</text>
</a>
</g>
<!-- Node5&#45;&gt;Node6 -->
<g id="edge10" class="edge"><title>Node5&#45;&gt;Node6</title>
<path fill="none" stroke="midnightblue" d="M338.516,-151C346.992,-151 355.556,-151 363.91,-151"/>
<polygon fill="midnightblue" stroke="midnightblue" points="338.24,-147.5 328.24,-151 338.24,-154.5 338.24,-147.5"/>
</g>
<!-- Node7&#45;&gt;Node2 -->
<g id="edge14" class="edge"><title>Node7&#45;&gt;Node2</title>
<path fill="none" stroke="midnightblue" d="M338.237,-67.7203C346.804,-69.1326 355.464,-70.5601 363.91,-71.9522"/>
<polygon fill="midnightblue" stroke="midnightblue" points="338.676,-64.2456 328.24,-66.0725 337.537,-71.1524 338.676,-64.2456"/>
</g>
<!-- Node7&#45;&gt;Node8 -->
<g id="edge16" class="edge"><title>Node7&#45;&gt;Node8</title>
<path fill="none" stroke="midnightblue" d="M338.237,-37.0783C346.804,-35.3365 355.464,-33.5759 363.91,-31.8589"/>
<polygon fill="midnightblue" stroke="midnightblue" points="337.342,-33.6885 328.24,-39.1106 338.737,-40.5482 337.342,-33.6885"/>
</g>
</g>
</svg>
