<?xml version="1.0" encoding="UTF-8" standalone="no"?>
<!DOCTYPE svg PUBLIC "-//W3C//DTD SVG 1.1//EN"
 "http://www.w3.org/Graphics/SVG/1.1/DTD/svg11.dtd">
<!-- Generated by graphviz version 2.26.3 (20100126.1600)
 -->
<!-- Title: G Pages: 1 -->
<svg width="254pt" height="113pt"
 viewBox="0.00 0.00 254.00 113.00" xmlns="http://www.w3.org/2000/svg" xmlns:xlink="http://www.w3.org/1999/xlink">
<g id="graph1" class="graph" transform="scale(1 1) rotate(0) translate(4 109)">
<title>G</title>
<polygon fill="white" stroke="white" points="-4,5 -4,-109 251,-109 251,5 -4,5"/>
<g id="graph2" class="cluster"><title>clusterdir_1dd1342f4cf723fd91913dd258e25ea1</title>
<a xlink:href="dir_1dd1342f4cf723fd91913dd258e25ea1.html" target="_top" xlink:title="Table">
<polygon fill="#ddddee" stroke="black" points="8,-8 8,-97 238,-97 238,-8 8,-8"/>
<text text-anchor="middle" x="123" y="-84" font-family="Helvetica,sans-Serif" font-size="10.00">Table</text>
</a>
</g>
<g id="graph3" class="cluster"><title>clusterdir_018e4b2a516ae231b9f1e8b65de5f0d1</title>
<a xlink:href="dir_018e4b2a516ae231b9f1e8b65de5f0d1.html" target="_top">
<polygon fill="#eeeeff" stroke="black" points="16,-16 16,-68 230,-68 230,-16 16,-16"/>
</a>
</g>
<!-- dir_018e4b2a516ae231b9f1e8b65de5f0d1 -->
<g id="node3" class="node"><title>dir_018e4b2a516ae231b9f1e8b65de5f0d1</title>
<text text-anchor="middle" x="195" y="-39.5" font-family="Helvetica,sans-Serif" font-size="10.00">Mysql</text>
</g>
<!-- dir_16db3ecb2bde07a89adb7b9d1375d6d6 -->
<g id="node4" class="node"><title>dir_16db3ecb2bde07a89adb7b9d1375d6d6</title>
<a xlink:href="dir_16db3ecb2bde07a89adb7b9d1375d6d6.html" target="_top" xlink:title="Column">
<polygon fill="white" stroke="black" points="150,-60 96,-60 96,-24 150,-24 150,-60"/>
<text text-anchor="middle" x="123" y="-39.5" font-family="Helvetica,sans-Serif" font-size="10.00">Column</text>
</a>
</g>
<!-- dir_7a804c5ae452e46bf14cffe60fccdd85 -->
<g id="node5" class="node"><title>dir_7a804c5ae452e46bf14cffe60fccdd85</title>
<a xlink:href="dir_7a804c5ae452e46bf14cffe60fccdd85.html" target="_top" xlink:title="Index">
<polygon fill="white" stroke="black" points="78,-60 24,-60 24,-24 78,-24 78,-60"/>
<text text-anchor="middle" x="51" y="-39.5" font-family="Helvetica,sans-Serif" font-size="10.00">Index</text>
</a>
</g>
</g>
</svg>
