<?xml version="1.0" encoding="UTF-8" standalone="no"?>
<!DOCTYPE svg PUBLIC "-//W3C//DTD SVG 1.1//EN"
 "http://www.w3.org/Graphics/SVG/1.1/DTD/svg11.dtd">
<!-- Generated by graphviz version 2.26.3 (20100126.1600)
 -->
<!-- Title: G Pages: 1 -->
<svg width="330pt" height="113pt"
 viewBox="0.00 0.00 330.00 113.00" xmlns="http://www.w3.org/2000/svg" xmlns:xlink="http://www.w3.org/1999/xlink">
<g id="graph1" class="graph" transform="scale(1 1) rotate(0) translate(4 109)">
<title>G</title>
<polygon fill="white" stroke="white" points="-4,5 -4,-109 327,-109 327,5 -4,5"/>
<g id="graph2" class="cluster"><title>clusterdir_2fa527004f7b14c14335e131fd6c8023</title>
<a xlink:href="dir_2fa527004f7b14c14335e131fd6c8023.html" target="_top" xlink:title="Db">
<polygon fill="#ddddee" stroke="black" points="8,-8 8,-97 314,-97 314,-8 8,-8"/>
<text text-anchor="middle" x="161" y="-84" font-family="Helvetica,sans-Serif" font-size="10.00">Db</text>
</a>
</g>
<g id="graph3" class="cluster"><title>clusterdir_a4fc23eadff71f758f570b49c9237f15</title>
<a xlink:href="dir_a4fc23eadff71f758f570b49c9237f15.html" target="_top">
<polygon fill="#eeeeff" stroke="black" points="16,-16 16,-68 306,-68 306,-16 16,-16"/>
</a>
</g>
<!-- dir_a4fc23eadff71f758f570b49c9237f15 -->
<g id="node3" class="node"><title>dir_a4fc23eadff71f758f570b49c9237f15</title>
<text text-anchor="middle" x="271" y="-39.5" font-family="Helvetica,sans-Serif" font-size="10.00">Schema</text>
</g>
<!-- dir_ec5967695595f1b7ba4e83f5a3859ae1 -->
<g id="node4" class="node"><title>dir_ec5967695595f1b7ba4e83f5a3859ae1</title>
<a xlink:href="dir_ec5967695595f1b7ba4e83f5a3859ae1.html" target="_top" xlink:title="Generator">
<polygon fill="white" stroke="red" points="226,-60 168,-60 168,-24 226,-24 226,-60"/>
<text text-anchor="middle" x="197" y="-39.5" font-family="Helvetica,sans-Serif" font-size="10.00">Generator</text>
</a>
</g>
<!-- dir_161e786b75e09a974b553c03e95ab91c -->
<g id="node5" class="node"><title>dir_161e786b75e09a974b553c03e95ab91c</title>
<a xlink:href="dir_161e786b75e09a974b553c03e95ab91c.html" target="_top" xlink:title="Loader">
<polygon fill="white" stroke="red" points="150,-60 96,-60 96,-24 150,-24 150,-60"/>
<text text-anchor="middle" x="123" y="-39.5" font-family="Helvetica,sans-Serif" font-size="10.00">Loader</text>
</a>
</g>
<!-- dir_0dcd1bac919b6a3916c86c5cd5788322 -->
<g id="node6" class="node"><title>dir_0dcd1bac919b6a3916c86c5cd5788322</title>
<a xlink:href="dir_0dcd1bac919b6a3916c86c5cd5788322.html" target="_top" xlink:title="Table">
<polygon fill="white" stroke="red" points="78,-60 24,-60 24,-24 78,-24 78,-60"/>
<text text-anchor="middle" x="51" y="-39.5" font-family="Helvetica,sans-Serif" font-size="10.00">Table</text>
</a>
</g>
</g>
</svg>
