<?xml version="1.0" encoding="UTF-8" standalone="no"?>
<!DOCTYPE svg PUBLIC "-//W3C//DTD SVG 1.1//EN"
 "http://www.w3.org/Graphics/SVG/1.1/DTD/svg11.dtd">
<!-- Generated by graphviz version 2.26.3 (20100126.1600)
 -->
<!-- Title: G Pages: 1 -->
<svg width="258pt" height="113pt"
 viewBox="0.00 0.00 258.00 113.00" xmlns="http://www.w3.org/2000/svg" xmlns:xlink="http://www.w3.org/1999/xlink">
<g id="graph1" class="graph" transform="scale(1 1) rotate(0) translate(4 109)">
<title>G</title>
<polygon fill="white" stroke="white" points="-4,5 -4,-109 255,-109 255,5 -4,5"/>
<g id="graph2" class="cluster"><title>clusterdir_a4fc23eadff71f758f570b49c9237f15</title>
<a xlink:href="dir_a4fc23eadff71f758f570b49c9237f15.html" target="_top" xlink:title="Schema">
<polygon fill="#ddddee" stroke="black" points="8,-8 8,-97 242,-97 242,-8 8,-8"/>
<text text-anchor="middle" x="125" y="-84" font-family="Helvetica,sans-Serif" font-size="10.00">Schema</text>
</a>
</g>
<g id="graph3" class="cluster"><title>clusterdir_ec5967695595f1b7ba4e83f5a3859ae1</title>
<a xlink:href="dir_ec5967695595f1b7ba4e83f5a3859ae1.html" target="_top">
<polygon fill="#eeeeff" stroke="black" points="16,-16 16,-68 234,-68 234,-16 16,-16"/>
</a>
</g>
<!-- dir_ec5967695595f1b7ba4e83f5a3859ae1 -->
<g id="node3" class="node"><title>dir_ec5967695595f1b7ba4e83f5a3859ae1</title>
<text text-anchor="middle" x="197" y="-39.5" font-family="Helvetica,sans-Serif" font-size="10.00">Generator</text>
</g>
<!-- dir_ce883c4bb012cf9120db1e6bcc887fbf -->
<g id="node4" class="node"><title>dir_ce883c4bb012cf9120db1e6bcc887fbf</title>
<a xlink:href="dir_ce883c4bb012cf9120db1e6bcc887fbf.html" target="_top" xlink:title="Mysql">
<polygon fill="white" stroke="black" points="150,-60 96,-60 96,-24 150,-24 150,-60"/>
<text text-anchor="middle" x="123" y="-39.5" font-family="Helvetica,sans-Serif" font-size="10.00">Mysql</text>
</a>
</g>
<!-- dir_3d6bfa2369401b561c5684d35fca7a22 -->
<g id="node5" class="node"><title>dir_3d6bfa2369401b561c5684d35fca7a22</title>
<a xlink:href="dir_3d6bfa2369401b561c5684d35fca7a22.html" target="_top" xlink:title="Pgsql">
<polygon fill="white" stroke="black" points="78,-60 24,-60 24,-24 78,-24 78,-60"/>
<text text-anchor="middle" x="51" y="-39.5" font-family="Helvetica,sans-Serif" font-size="10.00">Pgsql</text>
</a>
</g>
</g>
</svg>
