<?xml version="1.0" encoding="UTF-8" standalone="no"?>
<!DOCTYPE svg PUBLIC "-//W3C//DTD SVG 1.1//EN"
 "http://www.w3.org/Graphics/SVG/1.1/DTD/svg11.dtd">
<!-- Generated by graphviz version 2.26.3 (20100126.1600)
 -->
<!-- Title: G Pages: 1 -->
<svg width="256pt" height="113pt"
 viewBox="0.00 0.00 256.00 113.00" xmlns="http://www.w3.org/2000/svg" xmlns:xlink="http://www.w3.org/1999/xlink">
<g id="graph1" class="graph" transform="scale(1 1) rotate(0) translate(4 109)">
<title>G</title>
<polygon fill="white" stroke="white" points="-4,5 -4,-109 253,-109 253,5 -4,5"/>
<g id="graph2" class="cluster"><title>clusterdir_e26ed15ca31c767c1de3c5856aaa63a0</title>
<a xlink:href="dir_e26ed15ca31c767c1de3c5856aaa63a0.html" target="_top" xlink:title="Project">
<polygon fill="#ddddee" stroke="black" points="8,-8 8,-97 240,-97 240,-8 8,-8"/>
<text text-anchor="middle" x="124" y="-84" font-family="Helvetica,sans-Serif" font-size="10.00">Project</text>
</a>
</g>
<g id="graph3" class="cluster"><title>clusterdir_373f91980b62e08d64cb40658cb8908b</title>
<a xlink:href="dir_373f91980b62e08d64cb40658cb8908b.html" target="_top">
<polygon fill="#eeeeff" stroke="black" points="16,-16 16,-68 232,-68 232,-16 16,-16"/>
</a>
</g>
<!-- dir_373f91980b62e08d64cb40658cb8908b -->
<g id="node3" class="node"><title>dir_373f91980b62e08d64cb40658cb8908b</title>
<text text-anchor="middle" x="197" y="-39.5" font-family="Helvetica,sans-Serif" font-size="10.00">Context</text>
</g>
<!-- dir_991a365dedd792e6bdfecb0e503c8298 -->
<g id="node4" class="node"><title>dir_991a365dedd792e6bdfecb0e503c8298</title>
<a xlink:href="dir_991a365dedd792e6bdfecb0e503c8298.html" target="_top" xlink:title="Migration">
<polygon fill="white" stroke="black" points="152,-60 96,-60 96,-24 152,-24 152,-60"/>
<text text-anchor="middle" x="124" y="-39.5" font-family="Helvetica,sans-Serif" font-size="10.00">Migration</text>
</a>
</g>
<!-- dir_85223c54c92f5bdd5927acdc132c0b19 -->
<g id="node5" class="node"><title>dir_85223c54c92f5bdd5927acdc132c0b19</title>
<a xlink:href="dir_85223c54c92f5bdd5927acdc132c0b19.html" target="_top" xlink:title="Schema">
<polygon fill="white" stroke="black" points="78,-60 24,-60 24,-24 78,-24 78,-60"/>
<text text-anchor="middle" x="51" y="-39.5" font-family="Helvetica,sans-Serif" font-size="10.00">Schema</text>
</a>
</g>
</g>
</svg>
