<?xml version="1.0" encoding="UTF-8" standalone="no"?>
<!DOCTYPE svg PUBLIC "-//W3C//DTD SVG 1.1//EN"
 "http://www.w3.org/Graphics/SVG/1.1/DTD/svg11.dtd">
<!-- Generated by graphviz version 2.26.3 (20100126.1600)
 -->
<!-- Title: G Pages: 1 -->
<svg width="478pt" height="110pt"
 viewBox="0.00 0.00 478.00 110.00" xmlns="http://www.w3.org/2000/svg" xmlns:xlink="http://www.w3.org/1999/xlink">
<g id="graph1" class="graph" transform="scale(1 1) rotate(0) translate(4 106)">
<title>G</title>
<polygon fill="white" stroke="white" points="-4,5 -4,-106 475,-106 475,5 -4,5"/>
<!-- Node1 -->
<g id="node1" class="node"><title>Node1</title>
<a xlink:href="interfaceZendDbSchema__Db__Adapter__SchemaCompatible.html" target="_top" xlink:title="ZendDbSchema_Db_Adapter_SchemaCompatible">
<polygon fill="white" stroke="black" points="0.5,-40.5 0.5,-61.5 235.5,-61.5 235.5,-40.5 0.5,-40.5"/>
<text text-anchor="middle" x="118" y="-48.5" font-family="Helvetica,sans-Serif" font-size="10.00">ZendDbSchema_Db_Adapter_SchemaCompatible</text>
</a>
</g>
<!-- Node2 -->
<g id="node3" class="node"><title>Node2</title>
<a xlink:href="classZendDbSchema__Db__Adapter__Mysqli.html" target="_top" xlink:title="ZendDbSchema_Db_Adapter_Mysqli">
<polygon fill="white" stroke="black" points="282,-80.5 282,-101.5 460,-101.5 460,-80.5 282,-80.5"/>
<text text-anchor="middle" x="371" y="-88.5" font-family="Helvetica,sans-Serif" font-size="10.00">ZendDbSchema_Db_Adapter_Mysqli</text>
</a>
</g>
<!-- Node1&#45;&gt;Node2 -->
<g id="edge2" class="edge"><title>Node1&#45;&gt;Node2</title>
<path fill="none" stroke="midnightblue" d="M194.66,-63.1201C229.703,-68.6606 270.82,-75.1613 304.532,-80.4913"/>
<polygon fill="midnightblue" stroke="midnightblue" points="194.897,-59.6142 184.473,-61.5095 193.803,-66.5283 194.897,-59.6142"/>
</g>
<!-- Node3 -->
<g id="node5" class="node"><title>Node3</title>
<a xlink:href="classZendDbSchema__Db__Adapter__Pdo__Mysql.html" target="_top" xlink:title="ZendDbSchema_Db_Adapter_Pdo_Mysql">
<polygon fill="white" stroke="black" points="272,-40.5 272,-61.5 470,-61.5 470,-40.5 272,-40.5"/>
<text text-anchor="middle" x="371" y="-48.5" font-family="Helvetica,sans-Serif" font-size="10.00">ZendDbSchema_Db_Adapter_Pdo_Mysql</text>
</a>
</g>
<!-- Node1&#45;&gt;Node3 -->
<g id="edge4" class="edge"><title>Node1&#45;&gt;Node3</title>
<path fill="none" stroke="midnightblue" d="M245.863,-51C254.6,-51 263.328,-51 271.881,-51"/>
<polygon fill="midnightblue" stroke="midnightblue" points="245.612,-47.5001 235.612,-51 245.612,-54.5001 245.612,-47.5001"/>
</g>
<!-- Node4 -->
<g id="node7" class="node"><title>Node4</title>
<a xlink:href="classZendDbSchema__Db__Adapter__Pdo__Pgsql.html" target="_top" xlink:title="ZendDbSchema_Db_Adapter_Pdo_Pgsql">
<polygon fill="white" stroke="black" points="272.5,-0.5 272.5,-21.5 469.5,-21.5 469.5,-0.5 272.5,-0.5"/>
<text text-anchor="middle" x="371" y="-8.5" font-family="Helvetica,sans-Serif" font-size="10.00">ZendDbSchema_Db_Adapter_Pdo_Pgsql</text>
</a>
</g>
<!-- Node1&#45;&gt;Node4 -->
<g id="edge6" class="edge"><title>Node1&#45;&gt;Node4</title>
<path fill="none" stroke="midnightblue" d="M194.66,-38.8799C229.703,-33.3394 270.82,-26.8387 304.532,-21.5087"/>
<polygon fill="midnightblue" stroke="midnightblue" points="193.803,-35.4717 184.473,-40.4905 194.897,-42.3858 193.803,-35.4717"/>
</g>
</g>
</svg>
