<?xml version="1.0" encoding="UTF-8" standalone="no"?>
<!DOCTYPE svg PUBLIC "-//W3C//DTD SVG 1.1//EN"
 "http://www.w3.org/Graphics/SVG/1.1/DTD/svg11.dtd">
<!-- Generated by graphviz version 2.26.3 (20100126.1600)
 -->
<!-- Title: G Pages: 1 -->
<svg width="796pt" height="230pt"
 viewBox="0.00 0.00 796.00 230.00" xmlns="http://www.w3.org/2000/svg" xmlns:xlink="http://www.w3.org/1999/xlink">
<g id="graph1" class="graph" transform="scale(1 1) rotate(0) translate(4 226)">
<title>G</title>
<polygon fill="white" stroke="white" points="-4,5 -4,-226 793,-226 793,5 -4,5"/>
<!-- Node1 -->
<g id="node1" class="node"><title>Node1</title>
<a xlink:href="classZendDbSchema__Db__Schema__AbstractSchema.html" target="_top" xlink:title="ZendDbSchema_Db_Schema_AbstractSchema">
<polygon fill="white" stroke="black" points="0,-120.5 0,-141.5 224,-141.5 224,-120.5 0,-120.5"/>
<text text-anchor="middle" x="112" y="-128.5" font-family="Helvetica,sans-Serif" font-size="10.00">ZendDbSchema_Db_Schema_AbstractSchema</text>
</a>
</g>
<!-- Node2 -->
<g id="node3" class="node"><title>Node2</title>
<a xlink:href="classZendDbSchema__Db__Schema__AbstractEntity.html" target="_top" xlink:title="ZendDbSchema_Db_Schema_AbstractEntity">
<polygon fill="white" stroke="black" points="283,-160.5 283,-181.5 497,-181.5 497,-160.5 283,-160.5"/>
<text text-anchor="middle" x="390" y="-168.5" font-family="Helvetica,sans-Serif" font-size="10.00">ZendDbSchema_Db_Schema_AbstractEntity</text>
</a>
</g>
<!-- Node1&#45;&gt;Node2 -->
<g id="edge2" class="edge"><title>Node1&#45;&gt;Node2</title>
<path fill="none" stroke="midnightblue" d="M195.245,-142.978C233.965,-148.549 279.603,-155.116 316.964,-160.491"/>
<polygon fill="midnightblue" stroke="midnightblue" points="195.438,-139.469 185.041,-141.51 194.441,-146.398 195.438,-139.469"/>
</g>
<!-- Node5 -->
<g id="node9" class="node"><title>Node5</title>
<a xlink:href="classZendDbSchema__Db__Schema__Table__AbstractDefinition.html" target="_top" xlink:title="ZendDbSchema_Db_Schema_Table_AbstractDefinition">
<polygon fill="white" stroke="black" points="260.5,-80.5 260.5,-101.5 519.5,-101.5 519.5,-80.5 260.5,-80.5"/>
<text text-anchor="middle" x="390" y="-88.5" font-family="Helvetica,sans-Serif" font-size="10.00">ZendDbSchema_Db_Schema_Table_AbstractDefinition</text>
</a>
</g>
<!-- Node1&#45;&gt;Node5 -->
<g id="edge8" class="edge"><title>Node1&#45;&gt;Node5</title>
<path fill="none" stroke="midnightblue" d="M195.245,-119.022C233.965,-113.451 279.603,-106.884 316.964,-101.509"/>
<polygon fill="midnightblue" stroke="midnightblue" points="194.441,-115.602 185.041,-120.49 195.438,-122.531 194.441,-115.602"/>
</g>
<!-- Node3 -->
<g id="node5" class="node"><title>Node3</title>
<a xlink:href="classZendDbSchema__Db__Schema__Database.html" target="_top" xlink:title="ZendDbSchema_Db_Schema_Database">
<polygon fill="white" stroke="black" points="575,-200.5 575,-221.5 769,-221.5 769,-200.5 575,-200.5"/>
<text text-anchor="middle" x="672" y="-208.5" font-family="Helvetica,sans-Serif" font-size="10.00">ZendDbSchema_Db_Schema_Database</text>
</a>
</g>
<!-- Node2&#45;&gt;Node3 -->
<g id="edge4" class="edge"><title>Node2&#45;&gt;Node3</title>
<path fill="none" stroke="midnightblue" d="M474.192,-182.942C513.523,-188.521 559.934,-195.104 597.914,-200.491"/>
<polygon fill="midnightblue" stroke="midnightblue" points="474.485,-179.449 464.092,-181.51 473.502,-186.379 474.485,-179.449"/>
</g>
<!-- Node4 -->
<g id="node7" class="node"><title>Node4</title>
<a xlink:href="classZendDbSchema__Db__Schema__Table.html" target="_top" xlink:title="ZendDbSchema_Db_Schema_Table">
<polygon fill="white" stroke="black" points="584,-160.5 584,-181.5 760,-181.5 760,-160.5 584,-160.5"/>
<text text-anchor="middle" x="672" y="-168.5" font-family="Helvetica,sans-Serif" font-size="10.00">ZendDbSchema_Db_Schema_Table</text>
</a>
</g>
<!-- Node2&#45;&gt;Node4 -->
<g id="edge6" class="edge"><title>Node2&#45;&gt;Node4</title>
<path fill="none" stroke="midnightblue" d="M507.167,-171C532.827,-171 559.571,-171 583.867,-171"/>
<polygon fill="midnightblue" stroke="midnightblue" points="507.014,-167.5 497.014,-171 507.014,-174.5 507.014,-167.5"/>
</g>
<!-- Node6 -->
<g id="node11" class="node"><title>Node6</title>
<a xlink:href="classZendDbSchema__Db__Schema__Table__Column.html" target="_top" xlink:title="ZendDbSchema_Db_Schema_Table_Column">
<polygon fill="white" stroke="black" points="564.5,-120.5 564.5,-141.5 779.5,-141.5 779.5,-120.5 564.5,-120.5"/>
<text text-anchor="middle" x="672" y="-128.5" font-family="Helvetica,sans-Serif" font-size="10.00">ZendDbSchema_Db_Schema_Table_Column</text>
</a>
</g>
<!-- Node5&#45;&gt;Node6 -->
<g id="edge10" class="edge"><title>Node5&#45;&gt;Node6</title>
<path fill="none" stroke="midnightblue" d="M474.192,-102.942C513.523,-108.521 559.934,-115.104 597.914,-120.491"/>
<polygon fill="midnightblue" stroke="midnightblue" points="474.485,-99.4487 464.092,-101.51 473.502,-106.379 474.485,-99.4487"/>
</g>
<!-- Node7 -->
<g id="node13" class="node"><title>Node7</title>
<a xlink:href="classZendDbSchema__Db__Schema__Table__ForeignKey.html" target="_top" xlink:title="ZendDbSchema_Db_Schema_Table_ForeignKey">
<polygon fill="white" stroke="black" points="557,-80.5 557,-101.5 787,-101.5 787,-80.5 557,-80.5"/>
<text text-anchor="middle" x="672" y="-88.5" font-family="Helvetica,sans-Serif" font-size="10.00">ZendDbSchema_Db_Schema_Table_ForeignKey</text>
</a>
</g>
<!-- Node5&#45;&gt;Node7 -->
<g id="edge12" class="edge"><title>Node5&#45;&gt;Node7</title>
<path fill="none" stroke="midnightblue" d="M529.954,-91C538.906,-91 547.864,-91 556.682,-91"/>
<polygon fill="midnightblue" stroke="midnightblue" points="529.857,-87.5001 519.857,-91 529.857,-94.5001 529.857,-87.5001"/>
</g>
<!-- Node8 -->
<g id="node15" class="node"><title>Node8</title>
<a xlink:href="classZendDbSchema__Db__Schema__Table__Index.html" target="_top" xlink:title="ZendDbSchema_Db_Schema_Table_Index">
<polygon fill="white" stroke="black" points="569.5,-40.5 569.5,-61.5 774.5,-61.5 774.5,-40.5 569.5,-40.5"/>
<text text-anchor="middle" x="672" y="-48.5" font-family="Helvetica,sans-Serif" font-size="10.00">ZendDbSchema_Db_Schema_Table_Index</text>
</a>
</g>
<!-- Node5&#45;&gt;Node8 -->
<g id="edge14" class="edge"><title>Node5&#45;&gt;Node8</title>
<path fill="none" stroke="midnightblue" d="M474.192,-79.0579C513.523,-73.4791 559.934,-66.8959 597.914,-61.5087"/>
<polygon fill="midnightblue" stroke="midnightblue" points="473.502,-75.6207 464.092,-80.4905 474.485,-82.5513 473.502,-75.6207"/>
</g>
<!-- Node9 -->
<g id="node17" class="node"><title>Node9</title>
<a xlink:href="classZendDbSchema__Db__Schema__Table__PrimaryKey.html" target="_top" xlink:title="ZendDbSchema_Db_Schema_Table_PrimaryKey">
<polygon fill="white" stroke="black" points="556,-0.5 556,-21.5 788,-21.5 788,-0.5 556,-0.5"/>
<text text-anchor="middle" x="672" y="-8.5" font-family="Helvetica,sans-Serif" font-size="10.00">ZendDbSchema_Db_Schema_Table_PrimaryKey</text>
</a>
</g>
<!-- Node5&#45;&gt;Node9 -->
<g id="edge16" class="edge"><title>Node5&#45;&gt;Node9</title>
<path fill="none" stroke="midnightblue" d="M424.548,-76.4884C457.738,-63.0343 509.555,-43.2949 556,-31 569.829,-27.3392 584.768,-24.185 599.177,-21.5342"/>
<polygon fill="midnightblue" stroke="midnightblue" points="422.802,-73.4209 414.872,-80.4469 425.453,-79.8997 422.802,-73.4209"/>
</g>
</g>
</svg>
