<?xml version="1.0" encoding="UTF-8" standalone="no"?>
<!DOCTYPE svg PUBLIC "-//W3C//DTD SVG 1.1//EN"
 "http://www.w3.org/Graphics/SVG/1.1/DTD/svg11.dtd">
<!-- Generated by graphviz version 2.26.3 (20100126.1600)
 -->
<!-- Title: G Pages: 1 -->
<svg width="894pt" height="110pt"
 viewBox="0.00 0.00 894.00 110.00" xmlns="http://www.w3.org/2000/svg" xmlns:xlink="http://www.w3.org/1999/xlink">
<g id="graph1" class="graph" transform="scale(1 1) rotate(0) translate(4 106)">
<title>G</title>
<polygon fill="white" stroke="white" points="-4,5 -4,-106 891,-106 891,5 -4,5"/>
<!-- Node1 -->
<g id="node1" class="node"><title>Node1</title>
<a xlink:href="classZendDbSchema__Validate__Db__Schema__Chain.html" target="_top" xlink:title="ZendDbSchema_Validate_Db_Schema_Chain">
<polygon fill="white" stroke="black" points="0,-40.5 0,-61.5 218,-61.5 218,-40.5 0,-40.5"/>
<text text-anchor="middle" x="109" y="-48.5" font-family="Helvetica,sans-Serif" font-size="10.00">ZendDbSchema_Validate_Db_Schema_Chain</text>
</a>
</g>
<!-- Node2 -->
<g id="node3" class="node"><title>Node2</title>
<a xlink:href="classZendDbSchema__Validate__Db__Schema__AbstractDatabase.html" target="_top" xlink:title="ZendDbSchema_Validate_Db_Schema_AbstractDatabase">
<polygon fill="white" stroke="black" points="262.5,-80.5 262.5,-101.5 533.5,-101.5 533.5,-80.5 262.5,-80.5"/>
<text text-anchor="middle" x="398" y="-88.5" font-family="Helvetica,sans-Serif" font-size="10.00">ZendDbSchema_Validate_Db_Schema_AbstractDatabase</text>
</a>
</g>
<!-- Node1&#45;&gt;Node2 -->
<g id="edge2" class="edge"><title>Node1&#45;&gt;Node2</title>
<path fill="none" stroke="midnightblue" d="M195.025,-62.9066C235.387,-68.493 283.07,-75.0927 322.075,-80.4913"/>
<polygon fill="midnightblue" stroke="midnightblue" points="195.317,-59.4137 184.931,-61.5095 194.357,-66.3476 195.317,-59.4137"/>
</g>
<!-- Node4 -->
<g id="node7" class="node"><title>Node4</title>
<a xlink:href="classZendDbSchema__Validate__Db__Schema__AbstractTable.html" target="_top" xlink:title="ZendDbSchema_Validate_Db_Schema_AbstractTable">
<polygon fill="white" stroke="black" points="271.5,-40.5 271.5,-61.5 524.5,-61.5 524.5,-40.5 271.5,-40.5"/>
<text text-anchor="middle" x="398" y="-48.5" font-family="Helvetica,sans-Serif" font-size="10.00">ZendDbSchema_Validate_Db_Schema_AbstractTable</text>
</a>
</g>
<!-- Node1&#45;&gt;Node4 -->
<g id="edge6" class="edge"><title>Node1&#45;&gt;Node4</title>
<path fill="none" stroke="midnightblue" d="M228.447,-51C242.531,-51 256.941,-51 271.122,-51"/>
<polygon fill="midnightblue" stroke="midnightblue" points="228.259,-47.5001 218.259,-51 228.258,-54.5001 228.259,-47.5001"/>
</g>
<!-- Node6 -->
<g id="node11" class="node"><title>Node6</title>
<a xlink:href="classZendDbSchema__Validate__Db__Schema__Table__Mysql__Column.html" target="_top" xlink:title="ZendDbSchema_Validate_Db_Schema_Table_Mysql_Column">
<polygon fill="white" stroke="black" points="254.5,-0.5 254.5,-21.5 541.5,-21.5 541.5,-0.5 254.5,-0.5"/>
<text text-anchor="middle" x="398" y="-8.5" font-family="Helvetica,sans-Serif" font-size="10.00">ZendDbSchema_Validate_Db_Schema_Table_Mysql_Column</text>
</a>
</g>
<!-- Node1&#45;&gt;Node6 -->
<g id="edge10" class="edge"><title>Node1&#45;&gt;Node6</title>
<path fill="none" stroke="midnightblue" d="M195.025,-39.0934C235.387,-33.507 283.07,-26.9073 322.075,-21.5087"/>
<polygon fill="midnightblue" stroke="midnightblue" points="194.357,-35.6524 184.931,-40.4905 195.317,-42.5863 194.357,-35.6524"/>
</g>
<!-- Node3 -->
<g id="node5" class="node"><title>Node3</title>
<a xlink:href="classZendDbSchema__Validate__Db__Schema__Database__MysqlDatabase.html" target="_top" xlink:title="ZendDbSchema_Validate_Db_Schema_Database_MysqlDatabase">
<polygon fill="white" stroke="black" points="578,-80.5 578,-101.5 886,-101.5 886,-80.5 578,-80.5"/>
<text text-anchor="middle" x="732" y="-88.5" font-family="Helvetica,sans-Serif" font-size="10.00">ZendDbSchema_Validate_Db_Schema_Database_MysqlDatabase</text>
</a>
</g>
<!-- Node2&#45;&gt;Node3 -->
<g id="edge4" class="edge"><title>Node2&#45;&gt;Node3</title>
<path fill="none" stroke="midnightblue" d="M544.121,-91C555.35,-91 566.707,-91 577.984,-91"/>
<polygon fill="midnightblue" stroke="midnightblue" points="543.851,-87.5001 533.851,-91 543.851,-94.5001 543.851,-87.5001"/>
</g>
<!-- Node5 -->
<g id="node9" class="node"><title>Node5</title>
<a xlink:href="classZendDbSchema__Validate__Db__Schema__Table__MysqlTable.html" target="_top" xlink:title="ZendDbSchema_Validate_Db_Schema_Table_MysqlTable">
<polygon fill="white" stroke="black" points="596,-40.5 596,-61.5 868,-61.5 868,-40.5 596,-40.5"/>
<text text-anchor="middle" x="732" y="-48.5" font-family="Helvetica,sans-Serif" font-size="10.00">ZendDbSchema_Validate_Db_Schema_Table_MysqlTable</text>
</a>
</g>
<!-- Node4&#45;&gt;Node5 -->
<g id="edge8" class="edge"><title>Node4&#45;&gt;Node5</title>
<path fill="none" stroke="midnightblue" d="M534.893,-51C555.024,-51 575.758,-51 595.873,-51"/>
<polygon fill="midnightblue" stroke="midnightblue" points="534.747,-47.5001 524.747,-51 534.747,-54.5001 534.747,-47.5001"/>
</g>
</g>
</svg>
