<?xml version="1.0" encoding="UTF-8" standalone="no"?>
<!DOCTYPE svg PUBLIC "-//W3C//DTD SVG 1.1//EN"
 "http://www.w3.org/Graphics/SVG/1.1/DTD/svg11.dtd">
<!-- Generated by graphviz version 2.26.3 (20100126.1600)
 -->
<!-- Title: G Pages: 1 -->
<svg width="698pt" height="110pt"
 viewBox="0.00 0.00 698.00 110.00" xmlns="http://www.w3.org/2000/svg" xmlns:xlink="http://www.w3.org/1999/xlink">
<g id="graph1" class="graph" transform="scale(1 1) rotate(0) translate(4 106)">
<title>G</title>
<polygon fill="white" stroke="white" points="-4,5 -4,-106 695,-106 695,5 -4,5"/>
<!-- Node1 -->
<g id="node1" class="node"><title>Node1</title>
<a xlink:href="classZendDbSchema__Db__Schema__Table__DefinitionManager__AbstractManager.html" target="_top" xlink:title="ZendDbSchema_Db_Schema_Table_DefinitionManager_AbstractManager">
<polygon fill="white" stroke="black" points="0.5,-40.5 0.5,-61.5 339.5,-61.5 339.5,-40.5 0.5,-40.5"/>
<text text-anchor="middle" x="170" y="-48.5" font-family="Helvetica,sans-Serif" font-size="10.00">ZendDbSchema_Db_Schema_Table_DefinitionManager_AbstractManager</text>
</a>
</g>
<!-- Node2 -->
<g id="node3" class="node"><title>Node2</title>
<a xlink:href="classZendDbSchema__Db__Schema__Table__DefinitionManager__Column.html" target="_top" xlink:title="ZendDbSchema_Db_Schema_Table_DefinitionManager_Column">
<polygon fill="white" stroke="black" points="383.5,-80.5 383.5,-101.5 682.5,-101.5 682.5,-80.5 383.5,-80.5"/>
<text text-anchor="middle" x="533" y="-88.5" font-family="Helvetica,sans-Serif" font-size="10.00">ZendDbSchema_Db_Schema_Table_DefinitionManager_Column</text>
</a>
</g>
<!-- Node1&#45;&gt;Node2 -->
<g id="edge2" class="edge"><title>Node1&#45;&gt;Node2</title>
<path fill="none" stroke="midnightblue" d="M275.483,-62.6234C326.715,-68.2689 387.811,-75.0012 437.633,-80.4913"/>
<polygon fill="midnightblue" stroke="midnightblue" points="275.697,-59.126 265.374,-61.5095 274.93,-66.0839 275.697,-59.126"/>
</g>
<!-- Node3 -->
<g id="node5" class="node"><title>Node3</title>
<a xlink:href="classZendDbSchema__Db__Schema__Table__DefinitionManager__ForeignKey.html" target="_top" xlink:title="ZendDbSchema_Db_Schema_Table_DefinitionManager_ForeignKey">
<polygon fill="white" stroke="black" points="376,-40.5 376,-61.5 690,-61.5 690,-40.5 376,-40.5"/>
<text text-anchor="middle" x="533" y="-48.5" font-family="Helvetica,sans-Serif" font-size="10.00">ZendDbSchema_Db_Schema_Table_DefinitionManager_ForeignKey</text>
</a>
</g>
<!-- Node1&#45;&gt;Node3 -->
<g id="edge4" class="edge"><title>Node1&#45;&gt;Node3</title>
<path fill="none" stroke="midnightblue" d="M349.762,-51C358.473,-51 367.189,-51 375.83,-51"/>
<polygon fill="midnightblue" stroke="midnightblue" points="349.544,-47.5001 339.544,-51 349.544,-54.5001 349.544,-47.5001"/>
</g>
<!-- Node4 -->
<g id="node7" class="node"><title>Node4</title>
<a xlink:href="classZendDbSchema__Db__Schema__Table__DefinitionManager__Index.html" target="_top" xlink:title="ZendDbSchema_Db_Schema_Table_DefinitionManager_Index">
<polygon fill="white" stroke="black" points="388.5,-0.5 388.5,-21.5 677.5,-21.5 677.5,-0.5 388.5,-0.5"/>
<text text-anchor="middle" x="533" y="-8.5" font-family="Helvetica,sans-Serif" font-size="10.00">ZendDbSchema_Db_Schema_Table_DefinitionManager_Index</text>
</a>
</g>
<!-- Node1&#45;&gt;Node4 -->
<g id="edge6" class="edge"><title>Node1&#45;&gt;Node4</title>
<path fill="none" stroke="midnightblue" d="M275.483,-39.3766C326.715,-33.7311 387.811,-26.9988 437.633,-21.5087"/>
<polygon fill="midnightblue" stroke="midnightblue" points="274.93,-35.9161 265.374,-40.4905 275.697,-42.874 274.93,-35.9161"/>
</g>
</g>
</svg>
