<?xml version="1.0" encoding="UTF-8" standalone="no"?>
<!DOCTYPE svg PUBLIC "-//W3C//DTD SVG 1.1//EN"
 "http://www.w3.org/Graphics/SVG/1.1/DTD/svg11.dtd">
<!-- Generated by graphviz version 2.26.3 (20100126.1600)
 -->
<!-- Title: G Pages: 1 -->
<svg width="350pt" height="174pt"
 viewBox="0.00 0.00 350.00 174.00" xmlns="http://www.w3.org/2000/svg" xmlns:xlink="http://www.w3.org/1999/xlink">
<g id="graph1" class="graph" transform="scale(1 1) rotate(0) translate(4 170)">
<title>G</title>
<polygon fill="white" stroke="white" points="-4,5 -4,-170 347,-170 347,5 -4,5"/>
<!-- Node1 -->
<g id="node1" class="node"><title>Node1</title>
<a xlink:href="classZendDbSchema__Db__Schema__Table__DefinitionManager__AbstractManager.html" target="_top" xlink:title="ZendDbSchema_Db_Schema\l_Table_DefinitionManager\l_AbstractManager">
<polygon fill="white" stroke="black" points="0,-52.5 0,-99.5 146,-99.5 146,-52.5 0,-52.5"/>
<text text-anchor="start" x="8" y="-86.5" font-family="Helvetica,sans-Serif" font-size="10.00">ZendDbSchema_Db_Schema</text>
<text text-anchor="start" x="8" y="-73.5" font-family="Helvetica,sans-Serif" font-size="10.00">_Table_DefinitionManager</text>
<text text-anchor="middle" x="73" y="-60.5" font-family="Helvetica,sans-Serif" font-size="10.00">_AbstractManager</text>
</a>
</g>
<!-- Node2 -->
<g id="node3" class="node"><title>Node2</title>
<a xlink:href="classZendDbSchema__Db__Schema__Table__DefinitionManager__Column.html" target="_top" xlink:title="ZendDbSchema_Db_Schema\l_Table_DefinitionManager\l_Column">
<polygon fill="white" stroke="black" points="189,-118.5 189,-165.5 335,-165.5 335,-118.5 189,-118.5"/>
<text text-anchor="start" x="197" y="-152.5" font-family="Helvetica,sans-Serif" font-size="10.00">ZendDbSchema_Db_Schema</text>
<text text-anchor="start" x="197" y="-139.5" font-family="Helvetica,sans-Serif" font-size="10.00">_Table_DefinitionManager</text>
<text text-anchor="middle" x="262" y="-126.5" font-family="Helvetica,sans-Serif" font-size="10.00">_Column</text>
</a>
</g>
<!-- Node1&#45;&gt;Node2 -->
<g id="edge2" class="edge"><title>Node1&#45;&gt;Node2</title>
<path fill="none" stroke="midnightblue" d="M150.036,-102.901C164.802,-108.058 180.158,-113.42 194.593,-118.461"/>
<polygon fill="midnightblue" stroke="midnightblue" points="151.028,-99.5406 140.433,-99.548 148.72,-106.149 151.028,-99.5406"/>
</g>
<!-- Node3 -->
<g id="node5" class="node"><title>Node3</title>
<a xlink:href="classZendDbSchema__Db__Schema__Table__DefinitionManager__ForeignKey.html" target="_top" xlink:title="ZendDbSchema_Db_Schema\l_Table_DefinitionManager\l_ForeignKey">
<polygon fill="white" stroke="black" points="189,-52.5 189,-99.5 335,-99.5 335,-52.5 189,-52.5"/>
<text text-anchor="start" x="197" y="-86.5" font-family="Helvetica,sans-Serif" font-size="10.00">ZendDbSchema_Db_Schema</text>
<text text-anchor="start" x="197" y="-73.5" font-family="Helvetica,sans-Serif" font-size="10.00">_Table_DefinitionManager</text>
<text text-anchor="middle" x="262" y="-60.5" font-family="Helvetica,sans-Serif" font-size="10.00">_ForeignKey</text>
</a>
</g>
<!-- Node1&#45;&gt;Node3 -->
<g id="edge4" class="edge"><title>Node1&#45;&gt;Node3</title>
<path fill="none" stroke="midnightblue" d="M156.359,-76C167.171,-76 178.181,-76 188.81,-76"/>
<polygon fill="midnightblue" stroke="midnightblue" points="156.072,-72.5001 146.072,-76 156.072,-79.5001 156.072,-72.5001"/>
</g>
<!-- Node4 -->
<g id="node7" class="node"><title>Node4</title>
<a xlink:href="classZendDbSchema__Db__Schema__Table__DefinitionManager__Index.html" target="_top" xlink:title="ZendDbSchema_Db_Schema\l_Table_DefinitionManager_Index">
<polygon fill="white" stroke="black" points="182.5,-0 182.5,-34 341.5,-34 341.5,-0 182.5,-0"/>
<text text-anchor="start" x="190.5" y="-21" font-family="Helvetica,sans-Serif" font-size="10.00">ZendDbSchema_Db_Schema</text>
<text text-anchor="middle" x="262" y="-8" font-family="Helvetica,sans-Serif" font-size="10.00">_Table_DefinitionManager_Index</text>
</a>
</g>
<!-- Node1&#45;&gt;Node4 -->
<g id="edge6" class="edge"><title>Node1&#45;&gt;Node4</title>
<path fill="none" stroke="midnightblue" d="M155.703,-50.1826C173.167,-44.7308 191.178,-39.1085 207.298,-34.0764"/>
<polygon fill="midnightblue" stroke="midnightblue" points="154.575,-46.8681 146.072,-53.1891 156.661,-53.5501 154.575,-46.8681"/>
</g>
</g>
</svg>
