<?xml version="1.0" encoding="UTF-8" standalone="no"?>
<!DOCTYPE svg PUBLIC "-//W3C//DTD SVG 1.1//EN"
 "http://www.w3.org/Graphics/SVG/1.1/DTD/svg11.dtd">
<!-- Generated by graphviz version 2.26.3 (20100126.1600)
 -->
<!-- Title: G Pages: 1 -->
<svg width="476pt" height="252pt"
 viewBox="0.00 0.00 476.00 252.00" xmlns="http://www.w3.org/2000/svg" xmlns:xlink="http://www.w3.org/1999/xlink">
<g id="graph1" class="graph" transform="scale(1 1) rotate(0) translate(4 248)">
<title>G</title>
<polygon fill="white" stroke="white" points="-4,5 -4,-248 473,-248 473,5 -4,5"/>
<!-- Node1 -->
<g id="node1" class="node"><title>Node1</title>
<polygon fill="#bfbfbf" stroke="black" points="162,-141 162,-243 306,-243 306,-141 162,-141"/>
<text text-anchor="start" x="170" y="-230" font-family="Helvetica,sans-Serif" font-size="10.00">ZendDbSchema_Db_Adapter</text>
<text text-anchor="middle" x="234" y="-217" font-family="Helvetica,sans-Serif" font-size="10.00">_SchemaCompatible</text>
<polyline fill="none" stroke="black" points="162,-209 306,-209 "/>
<text text-anchor="middle" x="234" y="-196" font-family="Helvetica,sans-Serif" font-size="10.00"> </text>
<polyline fill="none" stroke="black" points="162,-188 306,-188 "/>
<text text-anchor="start" x="170" y="-175" font-family="Helvetica,sans-Serif" font-size="10.00">+ hasDatabase()</text>
<text text-anchor="start" x="170" y="-162" font-family="Helvetica,sans-Serif" font-size="10.00">+ listDatabases()</text>
<text text-anchor="start" x="170" y="-149" font-family="Helvetica,sans-Serif" font-size="10.00">+ hasTable()</text>
</g>
<!-- Node2 -->
<g id="node3" class="node"><title>Node2</title>
<a xlink:href="classZendDbSchema__Db__Adapter__Mysqli.html" target="_top" xlink:title="{ZendDbSchema_Db_Adapter\l_Mysqli\n||+ hasDatabase()\l+ listDatabases()\l+ hasTable()\l}">
<polygon fill="white" stroke="black" points="0,-1 0,-103 144,-103 144,-1 0,-1"/>
<text text-anchor="start" x="8" y="-90" font-family="Helvetica,sans-Serif" font-size="10.00">ZendDbSchema_Db_Adapter</text>
<text text-anchor="middle" x="72" y="-77" font-family="Helvetica,sans-Serif" font-size="10.00">_Mysqli</text>
<polyline fill="none" stroke="black" points="0,-69 144,-69 "/>
<text text-anchor="middle" x="72" y="-56" font-family="Helvetica,sans-Serif" font-size="10.00"> </text>
<polyline fill="none" stroke="black" points="0,-48 144,-48 "/>
<text text-anchor="start" x="8" y="-35" font-family="Helvetica,sans-Serif" font-size="10.00">+ hasDatabase()</text>
<text text-anchor="start" x="8" y="-22" font-family="Helvetica,sans-Serif" font-size="10.00">+ listDatabases()</text>
<text text-anchor="start" x="8" y="-9" font-family="Helvetica,sans-Serif" font-size="10.00">+ hasTable()</text>
</a>
</g>
<!-- Node1&#45;&gt;Node2 -->
<g id="edge2" class="edge"><title>Node1&#45;&gt;Node2</title>
<path fill="none" stroke="midnightblue" d="M166.873,-133.989C155.014,-123.74 142.745,-113.137 131.125,-103.096"/>
<polygon fill="none" stroke="midnightblue" points="164.742,-136.774 174.597,-140.664 169.319,-131.477 164.742,-136.774"/>
</g>
<!-- Node3 -->
<g id="node5" class="node"><title>Node3</title>
<a xlink:href="classZendDbSchema__Db__Adapter__Pdo__Mysql.html" target="_top" xlink:title="{ZendDbSchema_Db_Adapter\l_Pdo_Mysql\n||+ hasDatabase()\l+ listDatabases()\l+ hasTable()\l}">
<polygon fill="white" stroke="black" points="162,-1 162,-103 306,-103 306,-1 162,-1"/>
<text text-anchor="start" x="170" y="-90" font-family="Helvetica,sans-Serif" font-size="10.00">ZendDbSchema_Db_Adapter</text>
<text text-anchor="middle" x="234" y="-77" font-family="Helvetica,sans-Serif" font-size="10.00">_Pdo_Mysql</text>
<polyline fill="none" stroke="black" points="162,-69 306,-69 "/>
<text text-anchor="middle" x="234" y="-56" font-family="Helvetica,sans-Serif" font-size="10.00"> </text>
<polyline fill="none" stroke="black" points="162,-48 306,-48 "/>
<text text-anchor="start" x="170" y="-35" font-family="Helvetica,sans-Serif" font-size="10.00">+ hasDatabase()</text>
<text text-anchor="start" x="170" y="-22" font-family="Helvetica,sans-Serif" font-size="10.00">+ listDatabases()</text>
<text text-anchor="start" x="170" y="-9" font-family="Helvetica,sans-Serif" font-size="10.00">+ hasTable()</text>
</a>
</g>
<!-- Node1&#45;&gt;Node3 -->
<g id="edge4" class="edge"><title>Node1&#45;&gt;Node3</title>
<path fill="none" stroke="midnightblue" d="M234,-130.529C234,-121.449 234,-112.175 234,-103.33"/>
<polygon fill="none" stroke="midnightblue" points="230.5,-130.664 234,-140.664 237.5,-130.664 230.5,-130.664"/>
</g>
<!-- Node4 -->
<g id="node7" class="node"><title>Node4</title>
<a xlink:href="classZendDbSchema__Db__Adapter__Pdo__Pgsql.html" target="_top" xlink:title="{ZendDbSchema_Db_Adapter\l_Pdo_Pgsql\n||+ hasDatabase()\l+ listDatabases()\l+ hasTable()\l}">
<polygon fill="white" stroke="black" points="324,-1 324,-103 468,-103 468,-1 324,-1"/>
<text text-anchor="start" x="332" y="-90" font-family="Helvetica,sans-Serif" font-size="10.00">ZendDbSchema_Db_Adapter</text>
<text text-anchor="middle" x="396" y="-77" font-family="Helvetica,sans-Serif" font-size="10.00">_Pdo_Pgsql</text>
<polyline fill="none" stroke="black" points="324,-69 468,-69 "/>
<text text-anchor="middle" x="396" y="-56" font-family="Helvetica,sans-Serif" font-size="10.00"> </text>
<polyline fill="none" stroke="black" points="324,-48 468,-48 "/>
<text text-anchor="start" x="332" y="-35" font-family="Helvetica,sans-Serif" font-size="10.00">+ hasDatabase()</text>
<text text-anchor="start" x="332" y="-22" font-family="Helvetica,sans-Serif" font-size="10.00">+ listDatabases()</text>
<text text-anchor="start" x="332" y="-9" font-family="Helvetica,sans-Serif" font-size="10.00">+ hasTable()</text>
</a>
</g>
<!-- Node1&#45;&gt;Node4 -->
<g id="edge6" class="edge"><title>Node1&#45;&gt;Node4</title>
<path fill="none" stroke="midnightblue" d="M301.127,-133.989C312.986,-123.74 325.255,-113.137 336.875,-103.096"/>
<polygon fill="none" stroke="midnightblue" points="298.681,-131.477 293.403,-140.664 303.258,-136.774 298.681,-131.477"/>
</g>
</g>
</svg>
