<?xml version="1.0" encoding="UTF-8" standalone="no"?>
<!DOCTYPE svg PUBLIC "-//W3C//DTD SVG 1.1//EN"
 "http://www.w3.org/Graphics/SVG/1.1/DTD/svg11.dtd">
<!-- Generated by graphviz version 2.26.3 (20100126.1600)
 -->
<!-- Title: G Pages: 1 -->
<svg width="232pt" height="200pt"
 viewBox="0.00 0.00 232.00 200.00" xmlns="http://www.w3.org/2000/svg" xmlns:xlink="http://www.w3.org/1999/xlink">
<g id="graph1" class="graph" transform="scale(1 1) rotate(0) translate(4 196)">
<title>G</title>
<polygon fill="white" stroke="white" points="-4,5 -4,-196 229,-196 229,5 -4,5"/>
<!-- Node1 -->
<g id="node1" class="node"><title>Node1</title>
<polygon fill="#bfbfbf" stroke="black" points="0,-115 0,-191 224,-191 224,-115 0,-115"/>
<text text-anchor="middle" x="112" y="-178" font-family="Helvetica,sans-Serif" font-size="10.00">ZendDbSchema_Db_Schema_Loader_Interface</text>
<polyline fill="none" stroke="black" points="0,-170 224,-170 "/>
<text text-anchor="middle" x="112" y="-157" font-family="Helvetica,sans-Serif" font-size="10.00"> </text>
<polyline fill="none" stroke="black" points="0,-149 224,-149 "/>
<text text-anchor="start" x="8" y="-136" font-family="Helvetica,sans-Serif" font-size="10.00">+ loadDatabase()</text>
<text text-anchor="start" x="8" y="-123" font-family="Helvetica,sans-Serif" font-size="10.00">+ loadTable()</text>
</g>
<!-- Node2 -->
<g id="node3" class="node"><title>Node2</title>
<a xlink:href="classZendDbSchema__Db__Schema__Loader__Mysql.html" target="_top" xlink:title="{ZendDbSchema_Db_Schema_Loader_Mysql\n||+ loadDatabase()\l+ loadTable()\l}">
<polygon fill="white" stroke="black" points="6,-1 6,-77 218,-77 218,-1 6,-1"/>
<text text-anchor="middle" x="112" y="-64" font-family="Helvetica,sans-Serif" font-size="10.00">ZendDbSchema_Db_Schema_Loader_Mysql</text>
<polyline fill="none" stroke="black" points="6,-56 218,-56 "/>
<text text-anchor="middle" x="112" y="-43" font-family="Helvetica,sans-Serif" font-size="10.00"> </text>
<polyline fill="none" stroke="black" points="6,-35 218,-35 "/>
<text text-anchor="start" x="14" y="-22" font-family="Helvetica,sans-Serif" font-size="10.00">+ loadDatabase()</text>
<text text-anchor="start" x="14" y="-9" font-family="Helvetica,sans-Serif" font-size="10.00">+ loadTable()</text>
</a>
</g>
<!-- Node1&#45;&gt;Node2 -->
<g id="edge2" class="edge"><title>Node1&#45;&gt;Node2</title>
<path fill="none" stroke="midnightblue" d="M112,-104.623C112,-95.5202 112,-86.1166 112,-77.3705"/>
<polygon fill="none" stroke="midnightblue" points="108.5,-104.722 112,-114.723 115.5,-104.723 108.5,-104.722"/>
</g>
</g>
</svg>
