<?xml version="1.0" encoding="UTF-8" standalone="no"?>
<!DOCTYPE svg PUBLIC "-//W3C//DTD SVG 1.1//EN"
 "http://www.w3.org/Graphics/SVG/1.1/DTD/svg11.dtd">
<!-- Generated by graphviz version 2.26.3 (20100126.1600)
 -->
<!-- Title: G Pages: 1 -->
<svg width="318pt" height="252pt"
 viewBox="0.00 0.00 318.00 252.00" xmlns="http://www.w3.org/2000/svg" xmlns:xlink="http://www.w3.org/1999/xlink">
<g id="graph1" class="graph" transform="scale(1 1) rotate(0) translate(4 248)">
<title>G</title>
<polygon fill="white" stroke="white" points="-4,5 -4,-248 315,-248 315,5 -4,5"/>
<!-- Node1 -->
<g id="node1" class="node"><title>Node1</title>
<polygon fill="#bfbfbf" stroke="black" points="82,-141 82,-243 228,-243 228,-141 82,-141"/>
<text text-anchor="start" x="90" y="-230" font-family="Helvetica,sans-Serif" font-size="10.00">ZendDbSchema_Db_Schema</text>
<text text-anchor="middle" x="155" y="-217" font-family="Helvetica,sans-Serif" font-size="10.00">_Generator_Database</text>
<polyline fill="none" stroke="black" points="82,-209 228,-209 "/>
<text text-anchor="middle" x="155" y="-196" font-family="Helvetica,sans-Serif" font-size="10.00"> </text>
<polyline fill="none" stroke="black" points="82,-188 228,-188 "/>
<text text-anchor="start" x="90" y="-175" font-family="Helvetica,sans-Serif" font-size="10.00">+ createDatabase()</text>
<text text-anchor="start" x="90" y="-162" font-family="Helvetica,sans-Serif" font-size="10.00">+ alterDatabase()</text>
<text text-anchor="start" x="90" y="-149" font-family="Helvetica,sans-Serif" font-size="10.00">+ dropDatabase()</text>
</g>
<!-- Node2 -->
<g id="node3" class="node"><title>Node2</title>
<a xlink:href="classZendDbSchema__Db__Schema__Generator__Mysql__Database.html" target="_top" xlink:title="{ZendDbSchema_Db_Schema\l_Generator_Mysql_Database\n||+ createDatabase()\l+ alterDatabase()\l+ dropDatabase()\l}">
<polygon fill="white" stroke="black" points="0,-1 0,-103 146,-103 146,-1 0,-1"/>
<text text-anchor="start" x="8" y="-90" font-family="Helvetica,sans-Serif" font-size="10.00">ZendDbSchema_Db_Schema</text>
<text text-anchor="middle" x="73" y="-77" font-family="Helvetica,sans-Serif" font-size="10.00">_Generator_Mysql_Database</text>
<polyline fill="none" stroke="black" points="0,-69 146,-69 "/>
<text text-anchor="middle" x="73" y="-56" font-family="Helvetica,sans-Serif" font-size="10.00"> </text>
<polyline fill="none" stroke="black" points="0,-48 146,-48 "/>
<text text-anchor="start" x="8" y="-35" font-family="Helvetica,sans-Serif" font-size="10.00">+ createDatabase()</text>
<text text-anchor="start" x="8" y="-22" font-family="Helvetica,sans-Serif" font-size="10.00">+ alterDatabase()</text>
<text text-anchor="start" x="8" y="-9" font-family="Helvetica,sans-Serif" font-size="10.00">+ dropDatabase()</text>
</a>
</g>
<!-- Node1&#45;&gt;Node2 -->
<g id="edge2" class="edge"><title>Node1&#45;&gt;Node2</title>
<path fill="none" stroke="midnightblue" d="M119.852,-131.991C114.262,-122.447 108.524,-112.65 103.065,-103.33"/>
<polygon fill="none" stroke="midnightblue" points="116.858,-133.804 124.932,-140.664 122.898,-130.266 116.858,-133.804"/>
</g>
<!-- Node3 -->
<g id="node5" class="node"><title>Node3</title>
<a xlink:href="classZendDbSchema__Db__Schema__Generator__Pgsql__Database.html" target="_top" xlink:title="{ZendDbSchema_Db_Schema\l_Generator_Pgsql_Database\n||+ createDatabase()\l+ alterDatabase()\l+ dropDatabase()\l}">
<polygon fill="white" stroke="black" points="164,-1 164,-103 310,-103 310,-1 164,-1"/>
<text text-anchor="start" x="172" y="-90" font-family="Helvetica,sans-Serif" font-size="10.00">ZendDbSchema_Db_Schema</text>
<text text-anchor="middle" x="237" y="-77" font-family="Helvetica,sans-Serif" font-size="10.00">_Generator_Pgsql_Database</text>
<polyline fill="none" stroke="black" points="164,-69 310,-69 "/>
<text text-anchor="middle" x="237" y="-56" font-family="Helvetica,sans-Serif" font-size="10.00"> </text>
<polyline fill="none" stroke="black" points="164,-48 310,-48 "/>
<text text-anchor="start" x="172" y="-35" font-family="Helvetica,sans-Serif" font-size="10.00">+ createDatabase()</text>
<text text-anchor="start" x="172" y="-22" font-family="Helvetica,sans-Serif" font-size="10.00">+ alterDatabase()</text>
<text text-anchor="start" x="172" y="-9" font-family="Helvetica,sans-Serif" font-size="10.00">+ dropDatabase()</text>
</a>
</g>
<!-- Node1&#45;&gt;Node3 -->
<g id="edge4" class="edge"><title>Node1&#45;&gt;Node3</title>
<path fill="none" stroke="midnightblue" d="M190.148,-131.991C195.738,-122.447 201.476,-112.65 206.935,-103.33"/>
<polygon fill="none" stroke="midnightblue" points="187.102,-130.266 185.068,-140.664 193.142,-133.804 187.102,-130.266"/>
</g>
</g>
</svg>
