<?xml version="1.0" encoding="UTF-8" standalone="no"?>
<!DOCTYPE svg PUBLIC "-//W3C//DTD SVG 1.1//EN"
 "http://www.w3.org/Graphics/SVG/1.1/DTD/svg11.dtd">
<!-- Generated by graphviz version 2.26.3 (20100126.1600)
 -->
<!-- Title: G Pages: 1 -->
<svg width="616pt" height="224pt"
 viewBox="0.00 0.00 616.00 224.00" xmlns="http://www.w3.org/2000/svg" xmlns:xlink="http://www.w3.org/1999/xlink">
<g id="graph1" class="graph" transform="scale(1 1) rotate(0) translate(4 220)">
<title>G</title>
<polygon fill="white" stroke="white" points="-4,5 -4,-220 613,-220 613,5 -4,5"/>
<!-- Node1 -->
<g id="node1" class="node"><title>Node1</title>
<polygon fill="#bfbfbf" stroke="black" points="177.5,-126.5 177.5,-215.5 412.5,-215.5 412.5,-126.5 177.5,-126.5"/>
<text text-anchor="middle" x="295" y="-202.5" font-family="Helvetica,sans-Serif" font-size="10.00">ZendDbSchema_Db_Adapter_SchemaCompatible</text>
<polyline fill="none" stroke="black" points="177.5,-194.5 412.5,-194.5 "/>
<text text-anchor="middle" x="295" y="-181.5" font-family="Helvetica,sans-Serif" font-size="10.00"> </text>
<polyline fill="none" stroke="black" points="177.5,-173.5 412.5,-173.5 "/>
<text text-anchor="start" x="185.5" y="-160.5" font-family="Helvetica,sans-Serif" font-size="10.00">+ hasDatabase()</text>
<text text-anchor="start" x="185.5" y="-147.5" font-family="Helvetica,sans-Serif" font-size="10.00">+ listDatabases()</text>
<text text-anchor="start" x="185.5" y="-134.5" font-family="Helvetica,sans-Serif" font-size="10.00">+ hasTable()</text>
</g>
<!-- Node2 -->
<g id="node3" class="node"><title>Node2</title>
<a xlink:href="classZendDbSchema__Db__Adapter__Mysqli.html" target="_top" xlink:title="{ZendDbSchema_Db_Adapter_Mysqli\n||+ hasDatabase()\l+ listDatabases()\l+ hasTable()\l}">
<polygon fill="white" stroke="black" points="0,-0.5 0,-89.5 178,-89.5 178,-0.5 0,-0.5"/>
<text text-anchor="middle" x="89" y="-76.5" font-family="Helvetica,sans-Serif" font-size="10.00">ZendDbSchema_Db_Adapter_Mysqli</text>
<polyline fill="none" stroke="black" points="0,-68.5 178,-68.5 "/>
<text text-anchor="middle" x="89" y="-55.5" font-family="Helvetica,sans-Serif" font-size="10.00"> </text>
<polyline fill="none" stroke="black" points="0,-47.5 178,-47.5 "/>
<text text-anchor="start" x="8" y="-34.5" font-family="Helvetica,sans-Serif" font-size="10.00">+ hasDatabase()</text>
<text text-anchor="start" x="8" y="-21.5" font-family="Helvetica,sans-Serif" font-size="10.00">+ listDatabases()</text>
<text text-anchor="start" x="8" y="-8.5" font-family="Helvetica,sans-Serif" font-size="10.00">+ hasTable()</text>
</a>
</g>
<!-- Node1&#45;&gt;Node2 -->
<g id="edge2" class="edge"><title>Node1&#45;&gt;Node2</title>
<path fill="none" stroke="midnightblue" d="M213.277,-121.014C196.279,-110.617 178.472,-99.7257 161.82,-89.5403"/>
<polygon fill="none" stroke="midnightblue" points="211.725,-124.168 222.082,-126.4 215.378,-118.196 211.725,-124.168"/>
</g>
<!-- Node3 -->
<g id="node5" class="node"><title>Node3</title>
<a xlink:href="classZendDbSchema__Db__Adapter__Pdo__Mysql.html" target="_top" xlink:title="{ZendDbSchema_Db_Adapter_Pdo_Mysql\n||+ hasDatabase()\l+ listDatabases()\l+ hasTable()\l}">
<polygon fill="white" stroke="black" points="196,-0.5 196,-89.5 394,-89.5 394,-0.5 196,-0.5"/>
<text text-anchor="middle" x="295" y="-76.5" font-family="Helvetica,sans-Serif" font-size="10.00">ZendDbSchema_Db_Adapter_Pdo_Mysql</text>
<polyline fill="none" stroke="black" points="196,-68.5 394,-68.5 "/>
<text text-anchor="middle" x="295" y="-55.5" font-family="Helvetica,sans-Serif" font-size="10.00"> </text>
<polyline fill="none" stroke="black" points="196,-47.5 394,-47.5 "/>
<text text-anchor="start" x="204" y="-34.5" font-family="Helvetica,sans-Serif" font-size="10.00">+ hasDatabase()</text>
<text text-anchor="start" x="204" y="-21.5" font-family="Helvetica,sans-Serif" font-size="10.00">+ listDatabases()</text>
<text text-anchor="start" x="204" y="-8.5" font-family="Helvetica,sans-Serif" font-size="10.00">+ hasTable()</text>
</a>
</g>
<!-- Node1&#45;&gt;Node3 -->
<g id="edge4" class="edge"><title>Node1&#45;&gt;Node3</title>
<path fill="none" stroke="midnightblue" d="M295,-116.013C295,-107.198 295,-98.1691 295,-89.6335"/>
<polygon fill="none" stroke="midnightblue" points="291.5,-116.222 295,-126.222 298.5,-116.222 291.5,-116.222"/>
</g>
<!-- Node4 -->
<g id="node7" class="node"><title>Node4</title>
<a xlink:href="classZendDbSchema__Db__Adapter__Pdo__Pgsql.html" target="_top" xlink:title="{ZendDbSchema_Db_Adapter_Pdo_Pgsql\n||+ hasDatabase()\l+ listDatabases()\l+ hasTable()\l}">
<polygon fill="white" stroke="black" points="411.5,-0.5 411.5,-89.5 608.5,-89.5 608.5,-0.5 411.5,-0.5"/>
<text text-anchor="middle" x="510" y="-76.5" font-family="Helvetica,sans-Serif" font-size="10.00">ZendDbSchema_Db_Adapter_Pdo_Pgsql</text>
<polyline fill="none" stroke="black" points="411.5,-68.5 608.5,-68.5 "/>
<text text-anchor="middle" x="510" y="-55.5" font-family="Helvetica,sans-Serif" font-size="10.00"> </text>
<polyline fill="none" stroke="black" points="411.5,-47.5 608.5,-47.5 "/>
<text text-anchor="start" x="419.5" y="-34.5" font-family="Helvetica,sans-Serif" font-size="10.00">+ hasDatabase()</text>
<text text-anchor="start" x="419.5" y="-21.5" font-family="Helvetica,sans-Serif" font-size="10.00">+ listDatabases()</text>
<text text-anchor="start" x="419.5" y="-8.5" font-family="Helvetica,sans-Serif" font-size="10.00">+ hasTable()</text>
</a>
</g>
<!-- Node1&#45;&gt;Node4 -->
<g id="edge6" class="edge"><title>Node1&#45;&gt;Node4</title>
<path fill="none" stroke="midnightblue" d="M379.805,-121.3C397.693,-110.817 416.459,-99.8191 433.999,-89.5403"/>
<polygon fill="none" stroke="midnightblue" points="377.961,-118.324 371.104,-126.4 381.501,-124.363 377.961,-118.324"/>
</g>
</g>
</svg>
